<?xml version="1.0" encoding="utf-8" standalone="no"?>
<!DOCTYPE svg PUBLIC "-//W3C//DTD SVG 1.1//EN"
  "http://www.w3.org/Graphics/SVG/1.1/DTD/svg11.dtd">
<svg xmlns:xlink="http://www.w3.org/1999/xlink" width="720pt" height="576pt" viewBox="0 0 720 576" xmlns="http://www.w3.org/2000/svg" version="1.1">
 <metadata>
  <rdf:RDF xmlns:dc="http://purl.org/dc/elements/1.1/" xmlns:cc="http://creativecommons.org/ns#" xmlns:rdf="http://www.w3.org/1999/02/22-rdf-syntax-ns#">
   <cc:Work>
    <dc:type rdf:resource="http://purl.org/dc/dcmitype/StillImage"/>
    <dc:date>2023-04-12T09:30:17.856990</dc:date>
    <dc:format>image/svg+xml</dc:format>
    <dc:creator>
     <cc:Agent>
      <dc:title>Matplotlib v3.7.1, https://matplotlib.org/</dc:title>
     </cc:Agent>
    </dc:creator>
   </cc:Work>
  </rdf:RDF>
 </metadata>
 <defs>
  <style type="text/css">*{stroke-linejoin: round; stroke-linecap: butt}</style>
 </defs>
 <g id="figure_1">
  <g id="patch_1">
   <path d="M 0 576 
L 720 576 
L 720 0 
L 0 0 
z
" style="fill: #ffffff"/>
  </g>
  <g id="axes_1">
   <g id="patch_2">
    <path d="M 129.775152 489.1525 
L 685.035 489.1525 
L 685.035 36.72 
L 129.775152 36.72 
z
" style="fill: #ffffff"/>
   </g>
   <g id="matplotlib.axis_1">
    <g id="xtick_1">
     <g id="line2d_1">
      <path d="M 129.775152 489.1525 
L 129.775152 36.72 
" clip-path="url(#p855f7838a9)" style="fill: none; stroke: #b0b0b0; stroke-width: 0.8; stroke-linecap: square"/>
     </g>
     <g id="line2d_2">
      <defs>
       <path id="m7ee46f5c34" d="M 0 0 
L 0 3.5 
" style="stroke: #000000; stroke-width: 0.8"/>
      </defs>
      <g>
       <use xlink:href="#m7ee46f5c34" x="129.775152" y="489.1525" style="stroke: #000000; stroke-width: 0.8"/>
      </g>
     </g>
     <g id="text_1">
      <!-- −3 -->
      <g transform="translate(111.347418 515.148594) scale(0.25 -0.25)">
       <defs>
        <path id="DejaVuSans-2212" d="M 678 2272 
L 4684 2272 
L 4684 1741 
L 678 1741 
L 678 2272 
z
" transform="scale(0.015625)"/>
        <path id="DejaVuSans-33" d="M 2597 2516 
Q 3050 2419 3304 2112 
Q 3559 1806 3559 1356 
Q 3559 666 3084 287 
Q 2609 -91 1734 -91 
Q 1441 -91 1130 -33 
Q 819 25 488 141 
L 488 750 
Q 750 597 1062 519 
Q 1375 441 1716 441 
Q 2309 441 2620 675 
Q 2931 909 2931 1356 
Q 2931 1769 2642 2001 
Q 2353 2234 1838 2234 
L 1294 2234 
L 1294 2753 
L 1863 2753 
Q 2328 2753 2575 2939 
Q 2822 3125 2822 3475 
Q 2822 3834 2567 4026 
Q 2313 4219 1838 4219 
Q 1578 4219 1281 4162 
Q 984 4106 628 3988 
L 628 4550 
Q 988 4650 1302 4700 
Q 1616 4750 1894 4750 
Q 2613 4750 3031 4423 
Q 3450 4097 3450 3541 
Q 3450 3153 3228 2886 
Q 3006 2619 2597 2516 
z
" transform="scale(0.015625)"/>
       </defs>
       <use xlink:href="#DejaVuSans-2212"/>
       <use xlink:href="#DejaVuSans-33" x="83.789062"/>
      </g>
     </g>
    </g>
    <g id="xtick_2">
     <g id="line2d_3">
      <path d="M 222.31846 489.1525 
L 222.31846 36.72 
" clip-path="url(#p855f7838a9)" style="fill: none; stroke: #b0b0b0; stroke-width: 0.8; stroke-linecap: square"/>
     </g>
     <g id="line2d_4">
      <g>
       <use xlink:href="#m7ee46f5c34" x="222.31846" y="489.1525" style="stroke: #000000; stroke-width: 0.8"/>
      </g>
     </g>
     <g id="text_2">
      <!-- −2 -->
      <g transform="translate(203.890726 515.148594) scale(0.25 -0.25)">
       <defs>
        <path id="DejaVuSans-32" d="M 1228 531 
L 3431 531 
L 3431 0 
L 469 0 
L 469 531 
Q 828 903 1448 1529 
Q 2069 2156 2228 2338 
Q 2531 2678 2651 2914 
Q 2772 3150 2772 3378 
Q 2772 3750 2511 3984 
Q 2250 4219 1831 4219 
Q 1534 4219 1204 4116 
Q 875 4013 500 3803 
L 500 4441 
Q 881 4594 1212 4672 
Q 1544 4750 1819 4750 
Q 2544 4750 2975 4387 
Q 3406 4025 3406 3419 
Q 3406 3131 3298 2873 
Q 3191 2616 2906 2266 
Q 2828 2175 2409 1742 
Q 1991 1309 1228 531 
z
" transform="scale(0.015625)"/>
       </defs>
       <use xlink:href="#DejaVuSans-2212"/>
       <use xlink:href="#DejaVuSans-32" x="83.789062"/>
      </g>
     </g>
    </g>
    <g id="xtick_3">
     <g id="line2d_5">
      <path d="M 314.861768 489.1525 
L 314.861768 36.72 
" clip-path="url(#p855f7838a9)" style="fill: none; stroke: #b0b0b0; stroke-width: 0.8; stroke-linecap: square"/>
     </g>
     <g id="line2d_6">
      <g>
       <use xlink:href="#m7ee46f5c34" x="314.861768" y="489.1525" style="stroke: #000000; stroke-width: 0.8"/>
      </g>
     </g>
     <g id="text_3">
      <!-- −1 -->
      <g transform="translate(296.434034 515.148594) scale(0.25 -0.25)">
       <defs>
        <path id="DejaVuSans-31" d="M 794 531 
L 1825 531 
L 1825 4091 
L 703 3866 
L 703 4441 
L 1819 4666 
L 2450 4666 
L 2450 531 
L 3481 531 
L 3481 0 
L 794 0 
L 794 531 
z
" transform="scale(0.015625)"/>
       </defs>
       <use xlink:href="#DejaVuSans-2212"/>
       <use xlink:href="#DejaVuSans-31" x="83.789062"/>
      </g>
     </g>
    </g>
    <g id="xtick_4">
     <g id="line2d_7">
      <path d="M 407.405076 489.1525 
L 407.405076 36.72 
" clip-path="url(#p855f7838a9)" style="fill: none; stroke: #b0b0b0; stroke-width: 0.8; stroke-linecap: square"/>
     </g>
     <g id="line2d_8">
      <g>
       <use xlink:href="#m7ee46f5c34" x="407.405076" y="489.1525" style="stroke: #000000; stroke-width: 0.8"/>
      </g>
     </g>
     <g id="text_4">
      <!-- 0 -->
      <g transform="translate(399.451951 515.148594) scale(0.25 -0.25)">
       <defs>
        <path id="DejaVuSans-30" d="M 2034 4250 
Q 1547 4250 1301 3770 
Q 1056 3291 1056 2328 
Q 1056 1369 1301 889 
Q 1547 409 2034 409 
Q 2525 409 2770 889 
Q 3016 1369 3016 2328 
Q 3016 3291 2770 3770 
Q 2525 4250 2034 4250 
z
M 2034 4750 
Q 2819 4750 3233 4129 
Q 3647 3509 3647 2328 
Q 3647 1150 3233 529 
Q 2819 -91 2034 -91 
Q 1250 -91 836 529 
Q 422 1150 422 2328 
Q 422 3509 836 4129 
Q 1250 4750 2034 4750 
z
" transform="scale(0.015625)"/>
       </defs>
       <use xlink:href="#DejaVuSans-30"/>
      </g>
     </g>
    </g>
    <g id="xtick_5">
     <g id="line2d_9">
      <path d="M 499.948384 489.1525 
L 499.948384 36.72 
" clip-path="url(#p855f7838a9)" style="fill: none; stroke: #b0b0b0; stroke-width: 0.8; stroke-linecap: square"/>
     </g>
     <g id="line2d_10">
      <g>
       <use xlink:href="#m7ee46f5c34" x="499.948384" y="489.1525" style="stroke: #000000; stroke-width: 0.8"/>
      </g>
     </g>
     <g id="text_5">
      <!-- 1 -->
      <g transform="translate(491.995259 515.148594) scale(0.25 -0.25)">
       <use xlink:href="#DejaVuSans-31"/>
      </g>
     </g>
    </g>
    <g id="xtick_6">
     <g id="line2d_11">
      <path d="M 592.491692 489.1525 
L 592.491692 36.72 
" clip-path="url(#p855f7838a9)" style="fill: none; stroke: #b0b0b0; stroke-width: 0.8; stroke-linecap: square"/>
     </g>
     <g id="line2d_12">
      <g>
       <use xlink:href="#m7ee46f5c34" x="592.491692" y="489.1525" style="stroke: #000000; stroke-width: 0.8"/>
      </g>
     </g>
     <g id="text_6">
      <!-- 2 -->
      <g transform="translate(584.538567 515.148594) scale(0.25 -0.25)">
       <use xlink:href="#DejaVuSans-32"/>
      </g>
     </g>
    </g>
    <g id="xtick_7">
     <g id="line2d_13">
      <path d="M 685.035 489.1525 
L 685.035 36.72 
" clip-path="url(#p855f7838a9)" style="fill: none; stroke: #b0b0b0; stroke-width: 0.8; stroke-linecap: square"/>
     </g>
     <g id="line2d_14">
      <g>
       <use xlink:href="#m7ee46f5c34" x="685.035" y="489.1525" style="stroke: #000000; stroke-width: 0.8"/>
      </g>
     </g>
     <g id="text_7">
      <!-- 3 -->
      <g transform="translate(677.081875 515.148594) scale(0.25 -0.25)">
       <use xlink:href="#DejaVuSans-33"/>
      </g>
     </g>
    </g>
    <g id="text_8">
     <!-- $\omega$ [-] -->
     <g transform="translate(382.530076 541.351719) scale(0.25 -0.25)">
      <defs>
       <path id="DejaVuSans-Oblique-3c9" d="M 1369 -91 
Q 72 -91 434 1766 
Q 575 2500 1256 3500 
L 1875 3500 
Q 1231 2500 1088 1750 
Q 819 397 1519 397 
Q 2166 397 2478 2078 
L 3009 2078 
Q 2669 388 3316 397 
Q 4013 403 4275 1750 
Q 4419 2500 4169 3500 
L 4788 3500 
Q 5075 2500 4934 1766 
Q 4578 -94 3278 -91 
Q 2428 -88 2503 844 
Q 2194 -91 1369 -91 
z
" transform="scale(0.015625)"/>
       <path id="Calibri-20" transform="scale(0.015625)"/>
       <path id="Calibri-5b" d="M 1684 -813 
Q 1684 -916 1661 -958 
Q 1638 -1000 1594 -1000 
L 794 -1000 
Q 756 -1000 722 -989 
Q 688 -978 659 -953 
Q 631 -928 614 -886 
Q 597 -844 597 -781 
L 597 4153 
Q 597 4213 614 4255 
Q 631 4297 659 4323 
Q 688 4350 722 4361 
Q 756 4372 794 4372 
L 1594 4372 
Q 1613 4372 1630 4362 
Q 1647 4353 1659 4328 
Q 1672 4303 1678 4267 
Q 1684 4231 1684 4178 
Q 1684 4078 1661 4034 
Q 1638 3991 1594 3991 
L 1084 3991 
L 1084 -622 
L 1594 -622 
Q 1613 -622 1630 -631 
Q 1647 -641 1659 -664 
Q 1672 -688 1678 -723 
Q 1684 -759 1684 -813 
z
" transform="scale(0.015625)"/>
       <path id="Calibri-2d" d="M 1744 1578 
Q 1744 1456 1716 1409 
Q 1688 1363 1634 1363 
L 328 1363 
Q 272 1363 244 1411 
Q 216 1459 216 1578 
Q 216 1697 244 1744 
Q 272 1791 328 1791 
L 1634 1791 
Q 1659 1791 1679 1781 
Q 1700 1772 1714 1745 
Q 1728 1719 1736 1678 
Q 1744 1638 1744 1578 
z
" transform="scale(0.015625)"/>
       <path id="Calibri-5d" d="M 1369 -781 
Q 1369 -844 1351 -886 
Q 1334 -928 1306 -953 
Q 1278 -978 1242 -989 
Q 1206 -1000 1169 -1000 
L 372 -1000 
Q 328 -1000 304 -958 
Q 281 -916 281 -813 
Q 281 -759 286 -723 
Q 291 -688 303 -664 
Q 316 -641 333 -631 
Q 350 -622 372 -622 
L 881 -622 
L 881 3991 
L 372 3991 
Q 328 3991 304 4034 
Q 281 4078 281 4178 
Q 281 4231 286 4267 
Q 291 4303 303 4328 
Q 316 4353 333 4362 
Q 350 4372 372 4372 
L 1169 4372 
Q 1206 4372 1242 4361 
Q 1278 4350 1306 4323 
Q 1334 4297 1351 4255 
Q 1369 4213 1369 4153 
L 1369 -781 
z
" transform="scale(0.015625)"/>
      </defs>
      <use xlink:href="#DejaVuSans-Oblique-3c9" transform="translate(0 0.6875)"/>
      <use xlink:href="#Calibri-20" transform="translate(83.740234 0.6875)"/>
      <use xlink:href="#Calibri-5b" transform="translate(106.347656 0.6875)"/>
      <use xlink:href="#Calibri-2d" transform="translate(137.011719 0.6875)"/>
      <use xlink:href="#Calibri-5d" transform="translate(167.626953 0.6875)"/>
     </g>
    </g>
   </g>
   <g id="matplotlib.axis_2">
    <g id="ytick_1">
     <g id="line2d_15">
      <path d="M 129.775152 489.1525 
L 685.035 489.1525 
" clip-path="url(#p855f7838a9)" style="fill: none; stroke: #b0b0b0; stroke-width: 0.8; stroke-linecap: square"/>
     </g>
     <g id="line2d_16">
      <defs>
       <path id="m3c5764b681" d="M 0 0 
L -3.5 0 
" style="stroke: #000000; stroke-width: 0.8"/>
      </defs>
      <g>
       <use xlink:href="#m3c5764b681" x="129.775152" y="489.1525" style="stroke: #000000; stroke-width: 0.8"/>
      </g>
     </g>
     <g id="text_9">
      <!-- 0.0 -->
      <g transform="translate(83.017339 498.650547) scale(0.25 -0.25)">
       <defs>
        <path id="DejaVuSans-2e" d="M 684 794 
L 1344 794 
L 1344 0 
L 684 0 
L 684 794 
z
" transform="scale(0.015625)"/>
       </defs>
       <use xlink:href="#DejaVuSans-30"/>
       <use xlink:href="#DejaVuSans-2e" x="63.623047"/>
       <use xlink:href="#DejaVuSans-30" x="95.410156"/>
      </g>
     </g>
    </g>
    <g id="ytick_2">
     <g id="line2d_17">
      <path d="M 129.775152 413.747083 
L 685.035 413.747083 
" clip-path="url(#p855f7838a9)" style="fill: none; stroke: #b0b0b0; stroke-width: 0.8; stroke-linecap: square"/>
     </g>
     <g id="line2d_18">
      <g>
       <use xlink:href="#m3c5764b681" x="129.775152" y="413.747083" style="stroke: #000000; stroke-width: 0.8"/>
      </g>
     </g>
     <g id="text_10">
      <!-- 0.2 -->
      <g transform="translate(83.017339 423.24513) scale(0.25 -0.25)">
       <use xlink:href="#DejaVuSans-30"/>
       <use xlink:href="#DejaVuSans-2e" x="63.623047"/>
       <use xlink:href="#DejaVuSans-32" x="95.410156"/>
      </g>
     </g>
    </g>
    <g id="ytick_3">
     <g id="line2d_19">
      <path d="M 129.775152 338.341667 
L 685.035 338.341667 
" clip-path="url(#p855f7838a9)" style="fill: none; stroke: #b0b0b0; stroke-width: 0.8; stroke-linecap: square"/>
     </g>
     <g id="line2d_20">
      <g>
       <use xlink:href="#m3c5764b681" x="129.775152" y="338.341667" style="stroke: #000000; stroke-width: 0.8"/>
      </g>
     </g>
     <g id="text_11">
      <!-- 0.4 -->
      <g transform="translate(83.017339 347.839714) scale(0.25 -0.25)">
       <defs>
        <path id="DejaVuSans-34" d="M 2419 4116 
L 825 1625 
L 2419 1625 
L 2419 4116 
z
M 2253 4666 
L 3047 4666 
L 3047 1625 
L 3713 1625 
L 3713 1100 
L 3047 1100 
L 3047 0 
L 2419 0 
L 2419 1100 
L 313 1100 
L 313 1709 
L 2253 4666 
z
" transform="scale(0.015625)"/>
       </defs>
       <use xlink:href="#DejaVuSans-30"/>
       <use xlink:href="#DejaVuSans-2e" x="63.623047"/>
       <use xlink:href="#DejaVuSans-34" x="95.410156"/>
      </g>
     </g>
    </g>
    <g id="ytick_4">
     <g id="line2d_21">
      <path d="M 129.775152 262.93625 
L 685.035 262.93625 
" clip-path="url(#p855f7838a9)" style="fill: none; stroke: #b0b0b0; stroke-width: 0.8; stroke-linecap: square"/>
     </g>
     <g id="line2d_22">
      <g>
       <use xlink:href="#m3c5764b681" x="129.775152" y="262.93625" style="stroke: #000000; stroke-width: 0.8"/>
      </g>
     </g>
     <g id="text_12">
      <!-- 0.6 -->
      <g transform="translate(83.017339 272.434297) scale(0.25 -0.25)">
       <defs>
        <path id="DejaVuSans-36" d="M 2113 2584 
Q 1688 2584 1439 2293 
Q 1191 2003 1191 1497 
Q 1191 994 1439 701 
Q 1688 409 2113 409 
Q 2538 409 2786 701 
Q 3034 994 3034 1497 
Q 3034 2003 2786 2293 
Q 2538 2584 2113 2584 
z
M 3366 4563 
L 3366 3988 
Q 3128 4100 2886 4159 
Q 2644 4219 2406 4219 
Q 1781 4219 1451 3797 
Q 1122 3375 1075 2522 
Q 1259 2794 1537 2939 
Q 1816 3084 2150 3084 
Q 2853 3084 3261 2657 
Q 3669 2231 3669 1497 
Q 3669 778 3244 343 
Q 2819 -91 2113 -91 
Q 1303 -91 875 529 
Q 447 1150 447 2328 
Q 447 3434 972 4092 
Q 1497 4750 2381 4750 
Q 2619 4750 2861 4703 
Q 3103 4656 3366 4563 
z
" transform="scale(0.015625)"/>
       </defs>
       <use xlink:href="#DejaVuSans-30"/>
       <use xlink:href="#DejaVuSans-2e" x="63.623047"/>
       <use xlink:href="#DejaVuSans-36" x="95.410156"/>
      </g>
     </g>
    </g>
    <g id="ytick_5">
     <g id="line2d_23">
      <path d="M 129.775152 187.530833 
L 685.035 187.530833 
" clip-path="url(#p855f7838a9)" style="fill: none; stroke: #b0b0b0; stroke-width: 0.8; stroke-linecap: square"/>
     </g>
     <g id="line2d_24">
      <g>
       <use xlink:href="#m3c5764b681" x="129.775152" y="187.530833" style="stroke: #000000; stroke-width: 0.8"/>
      </g>
     </g>
     <g id="text_13">
      <!-- 0.8 -->
      <g transform="translate(83.017339 197.02888) scale(0.25 -0.25)">
       <defs>
        <path id="DejaVuSans-38" d="M 2034 2216 
Q 1584 2216 1326 1975 
Q 1069 1734 1069 1313 
Q 1069 891 1326 650 
Q 1584 409 2034 409 
Q 2484 409 2743 651 
Q 3003 894 3003 1313 
Q 3003 1734 2745 1975 
Q 2488 2216 2034 2216 
z
M 1403 2484 
Q 997 2584 770 2862 
Q 544 3141 544 3541 
Q 544 4100 942 4425 
Q 1341 4750 2034 4750 
Q 2731 4750 3128 4425 
Q 3525 4100 3525 3541 
Q 3525 3141 3298 2862 
Q 3072 2584 2669 2484 
Q 3125 2378 3379 2068 
Q 3634 1759 3634 1313 
Q 3634 634 3220 271 
Q 2806 -91 2034 -91 
Q 1263 -91 848 271 
Q 434 634 434 1313 
Q 434 1759 690 2068 
Q 947 2378 1403 2484 
z
M 1172 3481 
Q 1172 3119 1398 2916 
Q 1625 2713 2034 2713 
Q 2441 2713 2670 2916 
Q 2900 3119 2900 3481 
Q 2900 3844 2670 4047 
Q 2441 4250 2034 4250 
Q 1625 4250 1398 4047 
Q 1172 3844 1172 3481 
z
" transform="scale(0.015625)"/>
       </defs>
       <use xlink:href="#DejaVuSans-30"/>
       <use xlink:href="#DejaVuSans-2e" x="63.623047"/>
       <use xlink:href="#DejaVuSans-38" x="95.410156"/>
      </g>
     </g>
    </g>
    <g id="ytick_6">
     <g id="line2d_25">
      <path d="M 129.775152 112.125417 
L 685.035 112.125417 
" clip-path="url(#p855f7838a9)" style="fill: none; stroke: #b0b0b0; stroke-width: 0.8; stroke-linecap: square"/>
     </g>
     <g id="line2d_26">
      <g>
       <use xlink:href="#m3c5764b681" x="129.775152" y="112.125417" style="stroke: #000000; stroke-width: 0.8"/>
      </g>
     </g>
     <g id="text_14">
      <!-- 1.0 -->
      <g transform="translate(83.017339 121.623464) scale(0.25 -0.25)">
       <use xlink:href="#DejaVuSans-31"/>
       <use xlink:href="#DejaVuSans-2e" x="63.623047"/>
       <use xlink:href="#DejaVuSans-30" x="95.410156"/>
      </g>
     </g>
    </g>
    <g id="ytick_7">
     <g id="line2d_27">
      <path d="M 129.775152 36.72 
L 685.035 36.72 
" clip-path="url(#p855f7838a9)" style="fill: none; stroke: #b0b0b0; stroke-width: 0.8; stroke-linecap: square"/>
     </g>
     <g id="line2d_28">
      <g>
       <use xlink:href="#m3c5764b681" x="129.775152" y="36.72" style="stroke: #000000; stroke-width: 0.8"/>
      </g>
     </g>
     <g id="text_15">
      <!-- 1.2 -->
      <g transform="translate(83.017339 46.218047) scale(0.25 -0.25)">
       <use xlink:href="#DejaVuSans-31"/>
       <use xlink:href="#DejaVuSans-2e" x="63.623047"/>
       <use xlink:href="#DejaVuSans-32" x="95.410156"/>
      </g>
     </g>
    </g>
    <g id="text_16">
     <!-- $\rho$($\omega$) -->
     <g transform="translate(27.017339 257.68625) scale(0.25 -0.25)">
      <defs>
       <path id="DejaVuSans-Oblique-3c1" d="M 1203 2875 
Q 1453 3194 1981 3475 
Q 2188 3584 2756 3584 
Q 3394 3584 3694 3078 
Q 3994 2572 3834 1747 
Q 3672 922 3175 415 
Q 2678 -91 2041 -91 
Q 1656 -91 1409 63 
Q 1163 213 1044 525 
L 681 -1331 
L 103 -1331 
L 697 1716 
Q 838 2438 1203 2875 
z
M 3238 1747 
Q 3359 2381 3169 2744 
Q 2978 3103 2522 3103 
Q 2066 3103 1734 2744 
Q 1403 2381 1281 1747 
Q 1156 1113 1347 750 
Q 1538 391 1994 391 
Q 2450 391 2781 750 
Q 3113 1113 3238 1747 
z
" transform="scale(0.015625)"/>
       <path id="Calibri-28" d="M 1547 4306 
Q 1250 3678 1104 3017 
Q 959 2356 959 1688 
Q 959 1016 1107 356 
Q 1256 -303 1541 -938 
Q 1556 -975 1557 -1001 
Q 1559 -1028 1537 -1045 
Q 1516 -1063 1470 -1070 
Q 1425 -1078 1347 -1078 
Q 1291 -1078 1250 -1075 
Q 1209 -1072 1179 -1062 
Q 1150 -1053 1131 -1040 
Q 1113 -1028 1103 -1013 
Q 934 -694 806 -367 
Q 678 -41 590 296 
Q 503 634 459 979 
Q 416 1325 416 1678 
Q 416 2031 464 2375 
Q 513 2719 602 3058 
Q 691 3397 819 3725 
Q 947 4053 1106 4375 
Q 1109 4388 1123 4397 
Q 1138 4406 1163 4415 
Q 1188 4425 1231 4429 
Q 1275 4434 1344 4434 
Q 1416 4434 1459 4425 
Q 1503 4416 1528 4400 
Q 1553 4384 1556 4359 
Q 1559 4334 1547 4306 
z
" transform="scale(0.015625)"/>
       <path id="Calibri-29" d="M 1522 1678 
Q 1522 1325 1478 979 
Q 1434 634 1346 296 
Q 1259 -41 1132 -367 
Q 1006 -694 838 -1013 
Q 828 -1028 809 -1040 
Q 791 -1053 761 -1062 
Q 731 -1072 690 -1075 
Q 650 -1078 594 -1078 
Q 513 -1078 467 -1070 
Q 422 -1063 401 -1045 
Q 381 -1028 382 -1001 
Q 384 -975 400 -938 
Q 688 -306 834 355 
Q 981 1016 981 1688 
Q 981 2356 834 3017 
Q 688 3678 394 4306 
Q 381 4334 384 4359 
Q 388 4384 413 4400 
Q 438 4416 481 4425 
Q 525 4434 597 4434 
Q 663 4434 706 4429 
Q 750 4425 776 4415 
Q 803 4406 815 4397 
Q 828 4388 834 4375 
Q 1156 3734 1339 3057 
Q 1522 2381 1522 1678 
z
" transform="scale(0.015625)"/>
      </defs>
      <use xlink:href="#DejaVuSans-Oblique-3c1" transform="translate(0 0.71875)"/>
      <use xlink:href="#Calibri-28" transform="translate(63.476562 0.71875)"/>
      <use xlink:href="#DejaVuSans-Oblique-3c9" transform="translate(93.798828 0.71875)"/>
      <use xlink:href="#Calibri-29" transform="translate(177.539062 0.71875)"/>
     </g>
    </g>
   </g>
   <g id="line2d_29">
    <path d="M 129.775152 485.191726 
L 155.342673 484.357586 
L 176.463668 483.453498 
L 194.527677 482.46213 
L 209.812608 481.407831 
L 223.152183 480.271633 
L 234.824312 479.061062 
L 245.106902 477.779351 
L 254.277861 476.42091 
L 262.615096 474.96598 
L 270.118607 473.43544 
L 277.066303 471.789852 
L 283.180275 470.122023 
L 289.01634 468.299747 
L 294.296588 466.420579 
L 299.298929 464.401354 
L 303.745455 462.37756 
L 307.914072 460.252334 
L 312.08269 457.871329 
L 315.973399 455.381981 
L 319.586201 452.803903 
L 322.921095 450.162848 
L 326.255989 447.235062 
L 329.312975 444.264491 
L 332.369961 440.981839 
L 335.14904 437.690985 
L 337.928118 434.069935 
L 340.707196 430.076083 
L 343.486275 425.660385 
L 345.987445 421.279051 
L 348.488616 416.463255 
L 350.989786 411.159493 
L 353.490957 405.30707 
L 355.992127 398.837288 
L 358.493298 391.672671 
L 360.71656 384.650778 
L 362.939823 376.943851 
L 365.163086 368.478348 
L 367.386348 359.175174 
L 369.609611 348.950806 
L 371.832874 337.719359 
L 374.056136 325.396011 
L 376.279399 311.90232 
L 378.780569 295.243962 
L 381.28174 276.972296 
L 383.78291 257.104693 
L 386.561989 233.312559 
L 390.17479 200.351722 
L 396.010855 146.782085 
L 398.234118 128.471207 
L 399.901565 116.346345 
L 401.291104 107.617616 
L 402.680643 100.372585 
L 403.792274 95.775724 
L 404.625998 93.082969 
L 405.459721 91.068857 
L 406.015537 90.113935 
L 406.571352 89.474771 
L 407.127168 89.15442 
L 407.682984 89.15442 
L 408.238799 89.474771 
L 408.794615 90.113935 
L 409.350431 91.068857 
L 410.184154 93.082969 
L 411.017878 95.775724 
L 412.129509 100.372585 
L 413.24114 106.043297 
L 414.63068 114.492112 
L 416.298127 126.340685 
L 418.243481 142.019089 
L 420.744652 164.145858 
L 430.749334 254.802741 
L 433.528412 276.972296 
L 436.029583 295.243962 
L 438.530753 311.90232 
L 441.031924 326.998923 
L 443.533094 340.626334 
L 445.756357 351.597943 
L 447.979619 361.584007 
L 450.202882 370.670079 
L 452.704053 379.918766 
L 455.205223 388.242991 
L 457.706394 395.743738 
L 460.207564 402.512223 
L 462.708735 408.630041 
L 465.209905 414.169702 
L 467.711075 419.195358 
L 470.212246 423.763608 
L 472.991324 428.363411 
L 475.770403 432.519723 
L 478.549481 436.284441 
L 481.328559 439.702634 
L 484.385545 443.109017 
L 487.442532 446.188525 
L 490.777426 449.220669 
L 494.11232 451.953137 
L 497.725121 454.617796 
L 501.337923 457.013907 
L 505.228633 459.332771 
L 509.39725 461.555817 
L 513.843776 463.669574 
L 518.568209 465.665121 
L 523.57055 467.537459 
L 529.128706 469.370984 
L 534.964771 471.059658 
L 541.356651 472.675741 
L 548.304347 474.201372 
L 556.085766 475.674049 
L 564.700909 477.06667 
L 574.149775 478.361688 
L 584.710273 479.578987 
L 596.660309 480.725143 
L 610.277793 481.798417 
L 625.840632 482.792931 
L 643.626733 483.701997 
L 664.46982 484.540252 
L 685.035 485.191726 
L 685.035 485.191726 
" clip-path="url(#p855f7838a9)" style="fill: none; stroke-dasharray: 14.8,6.4; stroke-dashoffset: 0; stroke: #ff0000; stroke-width: 4"/>
   </g>
   <g id="line2d_30">
    <path d="M 129.775152 486.805655 
L 130.05306 483.788283 
L 130.330968 485.129337 
L 130.608875 483.45302 
L 130.886783 484.45881 
L 131.164691 484.45881 
L 131.442599 485.799865 
L 131.720507 484.794074 
L 131.998415 486.135128 
L 132.276322 485.799865 
L 132.55423 482.782493 
L 132.832138 485.464601 
L 133.110046 486.135128 
L 133.387954 482.447229 
L 133.665862 483.117756 
L 133.943769 486.135128 
L 134.221677 486.805655 
L 134.499585 486.805655 
L 134.777493 483.788283 
L 135.055401 484.794074 
L 135.333309 486.470392 
L 135.611216 484.794074 
L 135.889124 486.135128 
L 136.44494 483.788283 
L 136.722848 485.464601 
L 137.000756 484.123547 
L 137.278663 482.111966 
L 137.556571 484.45881 
L 137.834479 483.788283 
L 138.390295 485.464601 
L 138.668203 486.135128 
L 138.94611 485.129337 
L 139.224018 487.140919 
L 139.501926 484.45881 
L 140.057742 486.805655 
L 140.33565 486.135128 
L 140.891465 486.135128 
L 141.169373 485.129337 
L 141.447281 483.117756 
L 141.725189 486.135128 
L 142.003097 483.45302 
L 142.281004 485.799865 
L 142.558912 484.45881 
L 142.83682 486.805655 
L 143.392636 484.123547 
L 143.670544 484.123547 
L 143.948451 485.464601 
L 144.226359 484.45881 
L 144.504267 485.799865 
L 144.782175 484.123547 
L 145.060083 485.129337 
L 145.337991 485.464601 
L 145.615898 483.788283 
L 145.893806 486.805655 
L 146.171714 483.45302 
L 146.449622 485.464601 
L 146.72753 483.45302 
L 147.005438 483.45302 
L 147.283345 485.799865 
L 147.839161 483.45302 
L 148.117069 483.788283 
L 148.394977 485.464601 
L 148.950792 480.100384 
L 149.2287 484.45881 
L 149.506608 484.123547 
L 149.784516 483.45302 
L 150.340332 486.805655 
L 150.618239 483.117756 
L 150.896147 485.464601 
L 151.174055 484.794074 
L 151.451963 483.117756 
L 151.729871 482.782493 
L 152.007779 486.470392 
L 152.285686 484.123547 
L 152.563594 483.788283 
L 152.841502 484.45881 
L 153.11941 483.788283 
L 153.397318 485.129337 
L 153.675226 484.45881 
L 153.953133 482.111966 
L 154.231041 483.788283 
L 154.508949 487.140919 
L 154.786857 485.129337 
L 155.064765 484.794074 
L 155.342673 486.470392 
L 155.898488 481.441438 
L 156.176396 484.794074 
L 156.454304 485.799865 
L 156.732212 484.123547 
L 157.010119 484.794074 
L 157.288027 483.117756 
L 157.565935 484.794074 
L 157.843843 483.788283 
L 158.121751 485.129337 
L 158.399659 482.447229 
L 158.955474 484.794074 
L 159.233382 481.106175 
L 159.51129 485.464601 
L 159.789198 484.123547 
L 160.067106 484.45881 
L 160.345013 484.45881 
L 160.622921 482.111966 
L 160.900829 484.123547 
L 161.178737 484.123547 
L 161.456645 485.129337 
L 162.01246 483.788283 
L 162.290368 483.788283 
L 162.568276 483.45302 
L 162.846184 482.111966 
L 163.124092 484.45881 
L 163.402 484.45881 
L 163.679907 483.788283 
L 163.957815 484.794074 
L 164.235723 480.770911 
L 164.513631 485.129337 
L 164.791539 485.129337 
L 165.069447 483.45302 
L 165.347354 484.123547 
L 165.625262 478.75933 
L 165.90317 484.794074 
L 166.181078 483.117756 
L 166.458986 484.794074 
L 166.736894 482.447229 
L 167.014801 485.464601 
L 167.292709 481.106175 
L 167.570617 481.776702 
L 167.848525 484.123547 
L 168.126433 481.441438 
L 168.404341 484.794074 
L 168.682248 482.782493 
L 168.960156 482.447229 
L 169.238064 484.794074 
L 169.515972 484.123547 
L 169.79388 484.45881 
L 170.349695 481.106175 
L 170.627603 480.435648 
L 170.905511 481.441438 
L 171.183419 481.776702 
L 171.461327 484.794074 
L 171.739235 481.776702 
L 172.017142 484.794074 
L 172.29505 485.129337 
L 172.572958 482.447229 
L 172.850866 482.447229 
L 173.128774 482.782493 
L 173.406682 485.129337 
L 173.684589 481.441438 
L 174.240405 482.111966 
L 174.796221 484.794074 
L 175.074129 483.45302 
L 175.629944 482.111966 
L 176.18576 483.788283 
L 176.463668 483.45302 
L 176.741576 481.776702 
L 177.019483 484.123547 
L 177.297391 482.782493 
L 177.575299 484.794074 
L 177.853207 483.45302 
L 178.131115 481.106175 
L 178.409023 483.788283 
L 178.68693 479.765121 
L 178.964838 483.788283 
L 179.242746 484.794074 
L 179.520654 482.782493 
L 179.798562 482.447229 
L 180.07647 485.799865 
L 180.354377 482.447229 
L 180.632285 483.788283 
L 180.910193 484.123547 
L 181.188101 481.776702 
L 181.466009 481.106175 
L 181.743917 483.117756 
L 182.021824 480.770911 
L 182.299732 484.45881 
L 182.57764 485.129337 
L 182.855548 481.441438 
L 183.133456 480.770911 
L 183.411364 481.106175 
L 183.689271 482.447229 
L 183.967179 481.776702 
L 184.245087 482.111966 
L 184.522995 481.776702 
L 184.800903 483.117756 
L 185.078811 481.106175 
L 185.356718 484.123547 
L 185.634626 483.117756 
L 185.912534 481.441438 
L 186.190442 484.45881 
L 186.746258 481.106175 
L 187.024165 480.435648 
L 187.302073 484.45881 
L 187.579981 482.447229 
L 187.857889 485.129337 
L 188.135797 482.782493 
L 188.691612 483.45302 
L 188.96952 482.111966 
L 189.247428 482.111966 
L 189.525336 483.117756 
L 190.081151 480.435648 
L 190.359059 482.782493 
L 191.192783 482.782493 
L 191.470691 481.106175 
L 191.748598 481.776702 
L 192.026506 481.106175 
L 192.304414 483.117756 
L 192.582322 478.424067 
L 192.86023 484.123547 
L 193.138138 482.111966 
L 193.416045 482.782493 
L 193.693953 480.770911 
L 193.971861 483.45302 
L 194.249769 481.776702 
L 194.527677 482.447229 
L 194.805585 484.45881 
L 195.3614 478.75933 
L 195.639308 479.094594 
L 195.917216 483.117756 
L 196.195124 481.776702 
L 196.473032 482.782493 
L 196.750939 480.100384 
L 197.028847 480.100384 
L 197.306755 482.111966 
L 197.584663 480.770911 
L 197.862571 483.117756 
L 198.140479 482.111966 
L 198.418386 483.45302 
L 198.696294 480.435648 
L 198.974202 485.129337 
L 199.25211 481.106175 
L 199.530018 482.111966 
L 199.807926 482.447229 
L 200.085833 481.106175 
L 200.641649 484.794074 
L 200.919557 482.782493 
L 201.197465 482.782493 
L 201.475373 480.770911 
L 201.75328 481.441438 
L 202.031188 483.45302 
L 202.309096 482.111966 
L 202.587004 483.117756 
L 202.864912 482.111966 
L 203.14282 482.782493 
L 203.420727 481.441438 
L 203.698635 482.782493 
L 203.976543 480.100384 
L 204.254451 481.441438 
L 204.532359 482.111966 
L 204.810267 480.770911 
L 205.088174 483.45302 
L 205.366082 479.094594 
L 205.64399 480.770911 
L 205.921898 483.45302 
L 206.199806 483.45302 
L 206.477714 480.100384 
L 206.755621 481.106175 
L 207.033529 483.788283 
L 207.311437 483.117756 
L 207.589345 477.418276 
L 207.867253 483.788283 
L 208.145161 480.100384 
L 208.423068 482.782493 
L 208.700976 481.106175 
L 208.978884 477.418276 
L 209.5347 481.776702 
L 209.812608 480.435648 
L 210.090515 477.418276 
L 210.646331 483.45302 
L 210.924239 481.441438 
L 211.202147 480.435648 
L 211.480055 480.435648 
L 211.757962 480.770911 
L 212.03587 478.088803 
L 212.313778 483.45302 
L 212.591686 480.435648 
L 213.147502 476.412485 
L 213.425409 481.106175 
L 213.703317 479.429857 
L 213.981225 482.447229 
L 214.259133 480.770911 
L 214.537041 480.770911 
L 214.814949 479.765121 
L 215.092856 480.100384 
L 215.370764 478.75933 
L 215.648672 481.441438 
L 215.92658 479.765121 
L 216.204488 481.106175 
L 216.482396 480.435648 
L 216.760303 480.435648 
L 217.038211 479.429857 
L 217.316119 482.111966 
L 217.594027 478.75933 
L 217.871935 479.094594 
L 218.149843 478.75933 
L 218.42775 479.429857 
L 218.983566 481.776702 
L 219.261474 481.106175 
L 219.539382 482.782493 
L 220.373105 477.083012 
L 220.651013 478.424067 
L 220.928921 483.117756 
L 221.206829 479.765121 
L 221.484736 478.088803 
L 221.762644 480.435648 
L 222.040552 478.424067 
L 222.31846 480.435648 
L 222.596368 478.75933 
L 222.874276 479.094594 
L 223.152183 478.75933 
L 223.430091 479.094594 
L 223.985907 481.776702 
L 224.263815 478.75933 
L 224.541723 477.75354 
L 224.81963 478.424067 
L 225.097538 481.776702 
L 225.375446 477.75354 
L 225.653354 476.747749 
L 225.931262 481.776702 
L 226.20917 479.094594 
L 226.764985 483.117756 
L 227.042893 480.100384 
L 227.598709 477.418276 
L 228.154524 481.776702 
L 228.432432 480.100384 
L 228.71034 479.765121 
L 228.988248 478.088803 
L 229.266156 478.088803 
L 229.544064 482.111966 
L 229.821971 479.429857 
L 230.099879 481.776702 
L 230.377787 478.088803 
L 230.655695 476.412485 
L 230.933603 477.75354 
L 231.211511 477.083012 
L 231.767326 479.094594 
L 232.045234 480.770911 
L 232.60105 477.75354 
L 232.878958 480.770911 
L 233.156865 478.75933 
L 233.434773 482.111966 
L 233.712681 480.100384 
L 233.990589 479.094594 
L 234.268497 474.400904 
L 234.824312 479.765121 
L 235.10222 479.765121 
L 235.380128 477.75354 
L 235.658036 479.094594 
L 235.935944 477.083012 
L 236.213852 476.747749 
L 236.491759 478.75933 
L 236.769667 477.083012 
L 237.047575 476.747749 
L 237.325483 476.077222 
L 237.603391 475.741958 
L 237.881299 479.429857 
L 238.159206 479.429857 
L 238.437114 482.111966 
L 238.715022 480.100384 
L 238.99293 476.747749 
L 239.270838 479.765121 
L 239.548746 478.75933 
L 239.826653 478.424067 
L 240.104561 477.083012 
L 240.382469 479.765121 
L 240.660377 470.377742 
L 240.938285 475.071431 
L 241.4941 479.429857 
L 241.772008 478.088803 
L 242.049916 479.094594 
L 242.327824 478.424067 
L 242.605732 475.071431 
L 242.88364 482.111966 
L 243.161547 477.083012 
L 243.439455 476.747749 
L 243.717363 473.730377 
L 243.995271 480.100384 
L 244.273179 475.071431 
L 244.551087 476.077222 
L 244.828994 480.100384 
L 245.106902 480.770911 
L 245.662718 473.730377 
L 245.940626 476.747749 
L 246.218534 475.406695 
L 246.496441 479.429857 
L 246.774349 472.054059 
L 247.052257 478.75933 
L 247.330165 478.424067 
L 247.608073 477.083012 
L 247.885981 475.071431 
L 248.163888 474.400904 
L 248.719704 478.424067 
L 249.27552 474.736168 
L 249.553428 477.083012 
L 249.831335 474.736168 
L 250.109243 478.424067 
L 250.387151 476.747749 
L 250.665059 477.418276 
L 250.942967 478.424067 
L 251.220874 472.724586 
L 251.498782 476.412485 
L 251.77669 473.730377 
L 252.054598 479.429857 
L 252.332506 477.418276 
L 252.610414 478.424067 
L 252.888321 476.412485 
L 253.166229 477.083012 
L 253.444137 473.395113 
L 253.722045 472.389323 
L 253.999953 474.065641 
L 254.277861 477.418276 
L 254.555768 477.75354 
L 254.833676 472.389323 
L 255.111584 476.412485 
L 255.389492 474.736168 
L 255.6674 476.747749 
L 255.945308 474.400904 
L 256.223215 476.747749 
L 256.501123 477.75354 
L 256.779031 474.736168 
L 257.056939 476.077222 
L 257.612755 474.736168 
L 257.890662 472.724586 
L 258.16857 477.083012 
L 258.446478 473.395113 
L 259.002294 474.065641 
L 259.280202 471.383532 
L 259.836017 474.400904 
L 260.113925 472.724586 
L 260.391833 472.389323 
L 260.669741 473.395113 
L 260.947649 476.412485 
L 261.225556 472.724586 
L 261.503464 475.071431 
L 261.781372 472.724586 
L 262.337188 478.424067 
L 262.615096 468.36616 
L 262.893003 474.065641 
L 263.170911 468.701424 
L 263.448819 473.395113 
L 263.726727 474.736168 
L 264.004635 472.389323 
L 264.282543 473.730377 
L 264.56045 469.707214 
L 265.116266 477.418276 
L 265.672082 472.724586 
L 265.94999 471.383532 
L 266.227897 476.077222 
L 266.783713 473.730377 
L 267.061621 472.389323 
L 267.339529 477.083012 
L 267.895344 466.354579 
L 268.173252 473.395113 
L 268.45116 474.065641 
L 268.729068 472.389323 
L 269.006976 473.05985 
L 269.284884 471.048269 
L 269.562791 470.042478 
L 269.840699 471.383532 
L 270.118607 469.036687 
L 270.396515 469.371951 
L 270.674423 471.383532 
L 270.952331 470.042478 
L 271.508146 473.05985 
L 271.786054 467.025106 
L 272.063962 476.747749 
L 272.619778 471.048269 
L 272.897685 466.689843 
L 273.175593 474.736168 
L 273.453501 471.383532 
L 273.731409 476.747749 
L 274.009317 469.371951 
L 274.287225 476.747749 
L 274.565132 468.36616 
L 274.84304 473.395113 
L 275.120948 469.036687 
L 275.398856 470.713005 
L 275.676764 470.713005 
L 275.954672 469.707214 
L 276.232579 471.048269 
L 276.510487 470.713005 
L 277.066303 472.054059 
L 277.344211 469.371951 
L 277.622119 470.377742 
L 277.900026 469.707214 
L 278.177934 468.030897 
L 278.455842 468.701424 
L 278.73375 473.395113 
L 279.289566 466.354579 
L 279.567473 474.400904 
L 279.845381 475.071431 
L 280.123289 466.019315 
L 280.401197 470.042478 
L 280.679105 468.36616 
L 280.957013 464.007734 
L 281.23492 468.36616 
L 281.512828 465.684052 
L 281.790736 469.036687 
L 282.068644 464.678261 
L 282.346552 470.713005 
L 282.624459 469.707214 
L 282.902367 471.383532 
L 283.180275 469.371951 
L 283.458183 471.383532 
L 283.736091 469.371951 
L 284.013999 470.042478 
L 284.291906 467.695633 
L 284.569814 467.36037 
L 284.847722 469.036687 
L 285.12563 466.354579 
L 285.403538 472.054059 
L 285.681446 471.718796 
L 285.959353 465.013525 
L 286.237261 466.019315 
L 286.515169 473.730377 
L 286.793077 468.36616 
L 287.070985 465.348788 
L 287.348893 470.042478 
L 287.6268 470.713005 
L 287.904708 468.030897 
L 288.182616 471.383532 
L 288.460524 467.025106 
L 288.738432 467.025106 
L 289.01634 461.660889 
L 289.294247 468.36616 
L 289.572155 465.348788 
L 289.850063 465.684052 
L 290.127971 468.701424 
L 290.405879 460.655099 
L 290.683787 466.689843 
L 290.961694 468.030897 
L 291.239602 458.308254 
L 291.51751 458.978781 
L 291.795418 465.348788 
L 292.073326 466.354579 
L 292.351234 470.042478 
L 292.629141 463.672471 
L 292.907049 463.337207 
L 293.184957 466.689843 
L 293.462865 460.990362 
L 293.740773 465.348788 
L 294.018681 460.990362 
L 294.296588 460.655099 
L 294.574496 465.684052 
L 294.852404 464.678261 
L 295.130312 465.684052 
L 295.40822 464.007734 
L 295.686128 466.689843 
L 295.964035 463.337207 
L 296.241943 464.342998 
L 296.519851 464.678261 
L 296.797759 470.713005 
L 297.075667 466.019315 
L 297.353575 464.342998 
L 297.631482 464.678261 
L 297.90939 460.655099 
L 298.187298 464.342998 
L 298.465206 466.354579 
L 298.743114 463.672471 
L 299.021022 465.348788 
L 299.298929 468.030897 
L 299.576837 456.631936 
L 299.854745 463.001944 
L 300.132653 452.944037 
L 300.410561 461.660889 
L 300.688469 461.325626 
L 300.966376 461.660889 
L 301.244284 459.984572 
L 301.522192 464.342998 
L 302.078008 462.66668 
L 302.355916 462.66668 
L 302.633823 457.302463 
L 302.911731 459.984572 
L 303.189639 465.684052 
L 303.467547 456.296673 
L 303.745455 461.660889 
L 304.023363 460.319835 
L 304.30127 462.66668 
L 304.579178 463.337207 
L 304.857086 460.655099 
L 305.134994 464.678261 
L 305.69081 458.978781 
L 305.968717 460.655099 
L 306.246625 458.643518 
L 306.524533 458.643518 
L 306.802441 454.955619 
L 307.080349 456.296673 
L 307.358257 461.996153 
L 307.636164 460.319835 
L 307.914072 467.025106 
L 308.19198 461.660889 
L 308.747796 457.637727 
L 309.025704 457.637727 
L 309.303611 459.649308 
L 309.581519 458.308254 
L 309.859427 455.961409 
L 310.137335 456.296673 
L 310.415243 456.296673 
L 310.693151 465.013525 
L 310.971058 452.27351 
L 311.248966 455.290882 
L 311.526874 455.961409 
L 311.804782 458.308254 
L 312.08269 453.949828 
L 312.360597 453.614564 
L 312.638505 457.637727 
L 312.916413 456.631936 
L 313.194321 461.660889 
L 313.472229 447.579821 
L 313.750137 457.97299 
L 314.028044 455.290882 
L 314.305952 447.915084 
L 314.58386 449.591402 
L 314.861768 455.290882 
L 315.139676 453.279301 
L 315.417584 455.290882 
L 315.973399 451.26772 
L 316.251307 455.961409 
L 316.529215 457.302463 
L 316.807123 450.932456 
L 317.085031 448.920875 
L 317.640846 453.614564 
L 317.918754 451.938247 
L 318.196662 452.608774 
L 318.752478 450.261929 
L 319.030385 447.915084 
L 319.308293 452.608774 
L 319.586201 450.932456 
L 319.864109 455.290882 
L 320.142017 445.232976 
L 320.419925 453.279301 
L 320.697832 445.232976 
L 320.97574 444.562449 
L 321.253648 449.926665 
L 321.531556 449.256138 
L 321.809464 450.261929 
L 322.087372 452.27351 
L 322.365279 446.909294 
L 322.643187 444.227185 
L 322.921095 451.26772 
L 323.476911 441.545077 
L 324.032726 449.926665 
L 324.310634 440.204023 
L 324.588542 442.886131 
L 324.86645 447.915084 
L 325.144358 440.87455 
L 325.422266 446.909294 
L 325.700173 447.579821 
L 325.978081 450.261929 
L 326.533897 443.891922 
L 326.811805 445.568239 
L 327.36762 452.608774 
L 327.645528 440.539286 
L 327.923436 449.591402 
L 328.201344 448.920875 
L 328.479252 435.845597 
L 328.75716 442.550867 
L 329.035067 444.562449 
L 329.312975 439.198232 
L 329.590883 436.516124 
L 329.868791 443.221395 
L 330.146699 443.221395 
L 330.424607 435.845597 
L 330.702514 435.845597 
L 330.980422 437.186651 
L 331.25833 436.851387 
L 331.536238 440.204023 
L 331.814146 437.857178 
L 332.092054 444.562449 
L 332.369961 433.163488 
L 332.647869 430.48138 
L 332.925777 439.533496 
L 333.203685 440.87455 
L 333.481593 437.857178 
L 333.759501 438.192441 
L 334.037408 433.834015 
L 334.315316 437.186651 
L 334.593224 437.857178 
L 334.871132 431.151907 
L 335.426948 442.215604 
L 335.704855 433.498752 
L 335.982763 436.851387 
L 336.260671 429.475589 
L 336.538579 434.504542 
L 336.816487 434.839806 
L 337.094395 434.169279 
L 337.372302 430.48138 
L 337.928118 427.799272 
L 338.206026 427.128744 
L 338.483934 429.140326 
L 338.761842 429.140326 
L 339.039749 424.111373 
L 339.317657 430.146116 
L 339.595565 427.799272 
L 339.873473 431.151907 
L 340.151381 426.793481 
L 340.429289 425.78769 
L 340.707196 420.423474 
L 340.985104 428.134535 
L 341.263012 428.469799 
L 341.54092 423.105582 
L 341.818828 424.446636 
L 342.096736 423.105582 
L 342.374643 421.094001 
L 342.652551 422.770318 
L 342.930459 420.423474 
L 343.208367 420.758737 
L 343.486275 416.065048 
L 343.764182 422.770318 
L 344.04209 425.452427 
L 344.319998 424.446636 
L 344.597906 419.752946 
L 344.875814 430.146116 
L 345.153722 410.700831 
L 345.431629 420.758737 
L 345.709537 413.047676 
L 345.987445 422.435055 
L 346.265353 416.065048 
L 346.543261 416.735575 
L 346.821169 405.336614 
L 347.099076 407.683459 
L 347.376984 412.712412 
L 347.654892 411.706621 
L 347.9328 412.041885 
L 348.210708 411.371358 
L 348.488616 410.365567 
L 348.766523 405.671878 
L 349.044431 403.99556 
L 349.322339 407.348195 
L 349.600247 414.723993 
L 349.878155 403.325033 
L 350.156063 411.706621 
L 350.43397 409.69504 
L 350.711878 408.68925 
L 350.989786 401.983979 
L 351.545602 403.99556 
L 351.82351 399.637134 
L 352.101417 405.336614 
L 352.379325 396.284498 
L 352.657233 409.024513 
L 353.213049 398.29608 
L 353.490957 402.654506 
L 353.768864 398.29608 
L 354.046772 405.001351 
L 354.32468 398.966607 
L 354.602588 389.914491 
L 354.880496 396.955026 
L 355.158404 394.608181 
L 355.436311 399.637134 
L 355.714219 384.550274 
L 356.270035 397.960816 
L 356.547943 386.561856 
L 356.825851 388.9087 
L 357.103758 396.284498 
L 357.381666 380.527112 
L 357.659574 386.897119 
L 357.937482 387.232383 
L 358.21539 394.943444 
L 358.493298 388.9087 
L 358.771205 376.168686 
L 359.049113 386.897119 
L 359.327021 378.515531 
L 359.604929 381.197639 
L 359.882837 381.197639 
L 360.160745 372.480787 
L 360.438652 372.81605 
L 360.71656 382.20343 
L 360.994468 384.885538 
L 361.272376 374.827632 
L 361.550284 359.070245 
L 361.828192 375.833422 
L 362.106099 368.792888 
L 362.384007 358.064454 
L 362.661915 366.446043 
L 362.939823 366.11078 
L 363.495639 378.850794 
L 363.773546 351.694447 
L 364.051454 371.139733 
L 364.329362 358.734982 
L 364.60727 360.411299 
L 364.885178 358.399718 
L 365.163086 360.411299 
L 365.440993 349.682866 
L 365.718901 355.71761 
L 365.996809 366.446043 
L 366.274717 356.388137 
L 366.552625 354.041292 
L 366.830533 347.000758 
L 367.10844 360.746563 
L 367.386348 344.989176 
L 367.664256 360.746563 
L 368.220072 342.977595 
L 368.49798 347.336021 
L 368.775887 339.62496 
L 369.053795 343.648122 
L 369.331703 340.63075 
L 369.609611 333.590216 
L 369.887519 320.179674 
L 370.165427 329.567053 
L 370.443334 344.318649 
L 370.721242 329.23179 
L 370.99915 342.642331 
L 371.277058 341.971804 
L 371.554966 324.873364 
L 371.832874 323.867573 
L 372.110781 331.243371 
L 372.388689 326.884945 
L 372.666597 315.821248 
L 372.944505 320.850201 
L 373.222413 304.757551 
L 373.500321 325.879154 
L 373.778228 308.110186 
L 374.056136 309.115977 
L 374.334044 314.14493 
L 374.611952 301.740179 
L 374.88986 317.162302 
L 375.167767 301.740179 
L 375.445675 299.728598 
L 375.723583 293.358591 
L 376.001491 308.110186 
L 376.279399 309.451241 
L 376.557307 295.034908 
L 376.835214 288.664901 
L 377.113122 286.988583 
L 377.39103 287.323847 
L 377.668938 291.011746 
L 378.224754 278.606995 
L 378.502661 295.034908 
L 378.780569 282.294894 
L 379.058477 301.069652 
L 379.336385 280.283312 
L 379.614293 280.283312 
L 379.892201 261.843817 
L 380.170108 268.213825 
L 380.448016 268.884352 
L 380.725924 271.901724 
L 381.003832 270.225406 
L 381.28174 272.236987 
L 381.559648 270.895933 
L 381.837555 257.485391 
L 382.115463 265.531716 
L 382.393371 268.549088 
L 382.671279 242.398532 
L 382.949187 252.456438 
L 383.227095 251.115384 
L 383.505002 263.184872 
L 383.78291 237.369579 
L 384.338726 230.999571 
L 384.616634 230.999571 
L 384.894542 235.357998 
L 385.172449 223.623774 
L 385.450357 226.641145 
L 386.006173 244.07485 
L 386.284081 213.901131 
L 386.561989 215.242185 
L 386.839896 214.236394 
L 387.117804 195.796899 
L 387.395712 214.236394 
L 387.67362 224.629564 
L 387.951528 206.190069 
L 388.229436 196.80269 
L 388.507343 212.89534 
L 388.785251 187.080047 
L 389.063159 189.091629 
L 389.341067 194.120582 
L 389.618975 193.450055 
L 389.896883 182.386358 
L 390.17479 180.039513 
L 390.452698 186.744784 
L 390.730606 177.692668 
L 391.008514 177.357405 
L 391.286422 159.253173 
L 391.56433 170.987397 
L 391.842237 158.247383 
L 392.120145 156.906328 
L 392.398053 121.368393 
L 392.675961 142.489996 
L 392.953869 149.195267 
L 393.231777 142.82526 
L 393.509684 151.877375 
L 393.787592 122.374183 
L 394.0655 141.148942 
L 394.343408 130.755772 
L 394.621316 149.53053 
L 394.899224 135.449462 
L 395.177131 106.281533 
L 395.455039 138.13157 
L 395.732947 130.085245 
L 396.010855 144.501577 
L 396.844578 100.582053 
L 397.122486 104.269952 
L 397.400394 117.680494 
L 397.678302 114.998385 
L 397.95621 117.34523 
L 398.234118 118.015757 
L 398.512025 109.634169 
L 398.789933 87.171511 
L 399.067841 100.246789 
L 399.345749 95.217836 
L 399.623657 103.599425 
L 399.901565 96.558891 
L 400.179472 97.229418 
L 400.45738 77.784132 
L 400.735288 101.25258 
L 401.013196 86.165721 
L 401.291104 87.171511 
L 401.569012 53.98042 
L 402.402735 84.489403 
L 402.958551 96.223627 
L 403.236459 69.737807 
L 403.514366 85.495194 
L 403.792274 71.749388 
L 404.070182 74.76676 
L 404.34809 79.46045 
L 404.625998 41.575669 
L 404.903906 81.136768 
L 405.459721 48.616204 
L 405.737629 59.679901 
L 406.015537 61.356218 
L 406.293445 54.986211 
L 406.571352 66.049908 
L 406.84926 61.356218 
L 407.127168 48.28094 
L 407.405076 68.061489 
L 407.682984 68.396753 
L 407.960892 75.772551 
L 408.238799 52.639366 
L 408.516707 60.015164 
L 408.794615 47.610413 
L 409.072523 75.102024 
L 409.350431 60.015164 
L 409.628339 60.685691 
L 409.906246 70.743598 
L 410.184154 63.032536 
L 410.462062 58.67411 
L 410.73997 82.477822 
L 411.017878 55.321475 
L 411.295786 69.06728 
L 411.573693 65.379381 
L 411.851601 71.749388 
L 412.129509 75.437287 
L 412.407417 65.714645 
L 412.685325 92.870992 
L 412.963233 85.495194 
L 413.24114 68.396753 
L 413.519048 102.258371 
L 413.796956 91.529937 
L 414.074864 90.188883 
L 414.352772 85.495194 
L 414.908587 106.281533 
L 415.186495 105.275743 
L 415.464403 98.235208 
L 415.742311 119.356811 
L 416.020219 92.200464 
L 416.298127 97.564681 
L 416.576034 113.322068 
L 416.853942 103.599425 
L 417.13185 104.269952 
L 417.409758 128.408927 
L 417.687666 95.888363 
L 417.965574 98.235208 
L 418.521389 121.033129 
L 418.799297 123.379974 
L 419.077205 120.027339 
L 419.355113 113.992595 
L 419.633021 120.362602 
L 419.910928 119.021548 
L 420.466744 129.414718 
L 420.744652 164.282126 
L 421.02256 142.82526 
L 421.300468 151.206848 
L 421.578375 145.842631 
L 421.856283 154.22422 
L 422.134191 151.206848 
L 422.412099 155.565274 
L 422.690007 154.22422 
L 422.967915 170.987397 
L 423.245822 150.201057 
L 423.52373 163.946863 
L 424.079546 177.357405 
L 424.635362 174.675296 
L 424.913269 178.363195 
L 425.191177 176.01635 
L 425.469085 192.444264 
L 425.746993 183.056885 
L 426.024901 178.027932 
L 426.302809 205.519542 
L 426.580716 177.022141 
L 426.858624 209.542705 
L 427.136532 198.143744 
L 427.41444 207.19586 
L 427.692348 228.98799 
L 427.970256 225.970618 
L 428.248163 197.473217 
L 428.526071 212.224813 
L 428.803979 214.906921 
L 429.081887 219.600611 
L 429.359795 239.045897 
L 429.637703 228.98799 
L 429.91561 212.89534 
L 430.193518 250.444857 
L 430.471426 241.392741 
L 430.749334 222.953246 
L 431.30515 252.791702 
L 431.583057 241.728005 
L 431.860965 264.861189 
L 432.416781 242.063268 
L 432.694689 267.208034 
L 432.972597 239.716424 
L 433.528412 270.225406 
L 433.80632 255.47381 
L 434.084228 271.231197 
L 434.362136 273.578041 
L 434.917951 281.289103 
L 435.195859 270.56067 
L 435.473767 268.884352 
L 435.751675 272.236987 
L 436.029583 285.647529 
L 436.307491 279.612785 
L 436.585398 298.05228 
L 436.863306 290.005955 
L 437.141214 286.318056 
L 437.419122 302.075443 
L 437.974937 281.624367 
L 438.252845 294.029118 
L 438.530753 286.988583 
L 438.808661 305.763342 
L 439.086569 303.75176 
L 439.364477 307.104396 
L 439.642384 301.740179 
L 439.920292 314.14493 
L 440.476108 304.757551 
L 440.754016 310.792295 
L 441.031924 330.572844 
L 441.309831 316.491775 
L 441.587739 310.121768 
L 441.865647 322.526519 
L 442.143555 324.873364 
L 442.421463 324.873364 
L 442.977278 339.289696 
L 443.255186 342.977595 
L 443.811002 319.844411 
L 444.08891 334.596006 
L 444.366818 336.942851 
L 444.644725 341.636541 
L 444.922633 344.318649 
L 445.200541 329.902317 
L 445.478449 343.648122 
L 445.756357 348.677075 
L 446.034265 329.23179 
L 446.312172 351.359184 
L 446.59008 336.607588 
L 446.867988 339.960223 
L 447.145896 357.729191 
L 447.423804 345.659703 
L 447.979619 350.353393 
L 448.257527 347.671285 
L 448.813343 361.752353 
L 449.369159 357.058664 
L 449.647066 348.677075 
L 449.924974 362.087617 
L 450.202882 367.787097 
L 450.48079 358.399718 
L 450.758698 373.486577 
L 451.036606 367.11657 
L 451.314513 356.052873 
L 451.592421 366.446043 
L 451.870329 363.763935 
L 452.148237 371.81026 
L 452.426145 375.162895 
L 452.704053 386.897119 
L 452.98196 378.515531 
L 453.259868 377.50974 
L 453.537776 375.162895 
L 453.815684 375.833422 
L 454.093592 363.428671 
L 454.3715 377.50974 
L 454.649407 379.856585 
L 454.927315 380.191848 
L 455.205223 382.538693 
L 455.483131 376.503949 
L 455.761039 385.556065 
L 456.038947 380.862375 
L 456.316854 387.567646 
L 456.594762 381.868166 
L 457.150578 396.284498 
L 457.984301 378.180267 
L 458.262209 395.278708 
L 458.540117 395.278708 
L 459.095933 386.897119 
L 459.373841 392.596599 
L 459.651748 388.573437 
L 460.485472 404.330823 
L 460.76338 402.989769 
L 461.041288 389.914491 
L 461.319195 390.920282 
L 461.597103 404.330823 
L 461.875011 410.700831 
L 462.152919 409.69504 
L 462.430827 399.30187 
L 462.708735 409.69504 
L 462.986642 395.278708 
L 463.26455 396.619762 
L 463.542458 408.018722 
L 463.820366 412.712412 
L 464.376182 405.336614 
L 464.654089 410.365567 
L 464.931997 405.336614 
L 465.209905 410.700831 
L 465.487813 411.706621 
L 465.765721 414.723993 
L 466.043629 419.417683 
L 466.321536 405.001351 
L 466.599444 419.417683 
L 466.877352 410.365567 
L 467.433168 416.400311 
L 467.711075 422.770318 
L 467.988983 414.053466 
L 468.266891 410.700831 
L 468.822707 413.718203 
L 469.378522 402.654506 
L 469.65643 415.39452 
L 469.934338 422.435055 
L 470.212246 414.053466 
L 470.490154 414.053466 
L 470.768062 416.400311 
L 471.045969 422.770318 
L 471.323877 422.099791 
L 471.601785 429.475589 
L 471.879693 419.417683 
L 472.157601 416.065048 
L 472.435509 425.452427 
L 472.991324 419.417683 
L 473.269232 430.48138 
L 473.54714 434.504542 
L 473.825048 422.435055 
L 474.102956 425.117163 
L 474.380863 431.487171 
L 474.658771 424.446636 
L 474.936679 422.770318 
L 475.214587 429.810853 
L 475.492495 427.128744 
L 475.770403 432.157698 
L 476.04831 432.492961 
L 476.604126 418.076629 
L 476.882034 431.487171 
L 477.159942 433.163488 
L 477.43785 431.822434 
L 477.993665 425.117163 
L 478.271573 444.227185 
L 478.549481 436.18086 
L 478.827389 434.839806 
L 479.105297 428.469799 
L 479.661112 443.891922 
L 479.93902 435.510333 
L 480.216928 440.204023 
L 480.494836 441.88034 
L 481.050651 428.805062 
L 481.328559 432.828225 
L 481.606467 439.198232 
L 481.884375 438.527705 
L 482.162283 435.175069 
L 482.440191 438.192441 
L 482.718098 430.146116 
L 482.996006 443.221395 
L 483.273914 440.539286 
L 483.551822 441.545077 
L 483.82973 444.562449 
L 484.107638 438.192441 
L 484.385545 439.533496 
L 484.663453 438.192441 
L 484.941361 451.938247 
L 485.219269 433.498752 
L 485.775085 452.27351 
L 486.052992 441.209813 
L 486.3309 440.87455 
L 486.608808 442.215604 
L 486.886716 441.545077 
L 487.164624 448.920875 
L 487.442532 447.244557 
L 487.720439 435.510333 
L 487.998347 450.597192 
L 488.554163 440.539286 
L 489.109979 447.244557 
L 489.387886 438.527705 
L 489.665794 447.915084 
L 489.943702 445.568239 
L 490.22161 446.57403 
L 490.499518 440.204023 
L 490.777426 447.244557 
L 491.055333 445.903503 
L 491.333241 441.545077 
L 491.611149 448.585611 
L 492.166965 440.204023 
L 492.444873 442.550867 
L 492.72278 451.938247 
L 493.000688 445.903503 
L 493.278596 453.949828 
L 493.556504 449.256138 
L 493.834412 447.915084 
L 494.11232 453.949828 
L 494.390227 446.909294 
L 494.668135 457.637727 
L 494.946043 451.938247 
L 495.223951 450.261929 
L 495.501859 450.261929 
L 495.779767 454.285091 
L 496.057674 449.926665 
L 496.335582 449.591402 
L 496.61349 447.915084 
L 497.169306 457.97299 
L 497.447214 449.256138 
L 497.725121 454.620355 
L 498.003029 454.285091 
L 498.280937 450.597192 
L 498.558845 452.27351 
L 498.836753 455.290882 
L 499.11466 449.926665 
L 499.392568 459.314045 
L 499.948384 451.602983 
L 500.226292 449.591402 
L 500.5042 456.631936 
L 500.782107 456.296673 
L 501.060015 449.926665 
L 501.337923 458.308254 
L 501.615831 450.932456 
L 501.893739 454.955619 
L 502.171647 456.296673 
L 502.449554 456.9672 
L 502.727462 451.602983 
L 503.00537 451.602983 
L 503.283278 448.920875 
L 503.561186 450.261929 
L 503.839094 454.285091 
L 504.117001 454.955619 
L 504.394909 452.608774 
L 504.672817 457.97299 
L 504.950725 457.302463 
L 505.228633 459.649308 
L 505.506541 452.944037 
L 505.784448 452.944037 
L 506.062356 453.279301 
L 506.618172 463.672471 
L 506.89608 453.949828 
L 507.173988 454.955619 
L 507.451895 458.643518 
L 507.729803 457.97299 
L 508.007711 461.660889 
L 508.563527 458.308254 
L 508.841435 456.631936 
L 509.39725 463.672471 
L 509.675158 459.649308 
L 509.953066 462.331417 
L 510.230974 455.961409 
L 510.508882 462.66668 
L 510.786789 457.97299 
L 511.064697 456.9672 
L 511.342605 466.689843 
L 511.620513 461.996153 
L 511.898421 459.984572 
L 512.176329 466.689843 
L 512.454236 466.689843 
L 512.732144 460.319835 
L 513.010052 462.331417 
L 513.28796 457.97299 
L 513.843776 465.684052 
L 514.399591 462.66668 
L 514.677499 462.331417 
L 514.955407 460.655099 
L 515.233315 467.36037 
L 515.511223 459.314045 
L 515.78913 461.660889 
L 516.067038 466.354579 
L 516.344946 467.36037 
L 516.622854 466.689843 
L 516.900762 461.996153 
L 517.17867 465.348788 
L 517.456577 470.713005 
L 517.734485 471.048269 
L 518.012393 465.684052 
L 518.568209 467.36037 
L 518.846117 465.013525 
L 519.124024 468.701424 
L 519.401932 461.660889 
L 519.67984 463.672471 
L 519.957748 462.331417 
L 520.235656 467.36037 
L 520.513564 468.36616 
L 520.791471 468.701424 
L 521.069379 466.019315 
L 521.347287 466.354579 
L 521.625195 469.036687 
L 521.903103 468.030897 
L 522.181011 466.354579 
L 522.736826 469.371951 
L 523.014734 464.007734 
L 523.292642 466.354579 
L 523.57055 467.36037 
L 523.848458 467.36037 
L 524.404273 464.342998 
L 524.682181 467.695633 
L 524.960089 463.337207 
L 525.237997 472.054059 
L 525.515905 466.689843 
L 525.793812 464.342998 
L 526.07172 467.695633 
L 526.349628 466.019315 
L 526.627536 463.001944 
L 527.183352 471.048269 
L 527.461259 465.684052 
L 527.739167 470.713005 
L 528.017075 467.695633 
L 528.294983 463.337207 
L 528.572891 470.713005 
L 529.128706 466.354579 
L 529.406614 465.684052 
L 529.684522 469.371951 
L 529.96243 467.36037 
L 530.240338 467.695633 
L 530.518245 471.048269 
L 530.796153 470.377742 
L 531.074061 467.695633 
L 531.907785 471.383532 
L 532.185692 470.377742 
L 532.4636 466.354579 
L 532.741508 470.713005 
L 533.019416 473.05985 
L 533.297324 468.030897 
L 533.575232 469.036687 
L 533.853139 467.025106 
L 534.408955 473.05985 
L 534.686863 468.701424 
L 534.964771 471.718796 
L 535.242679 471.718796 
L 535.520586 473.730377 
L 535.798494 468.701424 
L 536.076402 471.718796 
L 536.35431 470.042478 
L 536.632218 467.36037 
L 536.910126 468.701424 
L 537.188033 474.400904 
L 537.465941 470.377742 
L 537.743849 468.36616 
L 538.021757 469.371951 
L 538.299665 467.695633 
L 538.577573 465.013525 
L 539.133388 474.065641 
L 539.411296 470.713005 
L 539.689204 469.707214 
L 539.967112 470.713005 
L 540.24502 469.707214 
L 540.522927 470.377742 
L 540.800835 472.054059 
L 541.078743 471.383532 
L 541.356651 470.042478 
L 541.634559 472.389323 
L 541.912467 471.048269 
L 542.190374 464.678261 
L 542.468282 473.05985 
L 542.74619 469.707214 
L 543.024098 474.736168 
L 543.579914 467.695633 
L 543.857821 473.395113 
L 544.413637 469.707214 
L 544.691545 473.395113 
L 545.247361 471.048269 
L 545.525268 470.377742 
L 545.803176 475.406695 
L 546.081084 474.400904 
L 546.358992 472.054059 
L 546.6369 468.701424 
L 546.914808 472.724586 
L 547.192715 473.730377 
L 547.470623 476.412485 
L 547.748531 469.036687 
L 548.026439 470.042478 
L 548.304347 473.730377 
L 548.582255 468.36616 
L 548.860162 473.730377 
L 549.13807 471.718796 
L 549.693886 473.395113 
L 549.971794 472.724586 
L 550.249702 476.077222 
L 550.805517 473.730377 
L 551.083425 467.695633 
L 551.361333 474.736168 
L 551.639241 475.406695 
L 551.917149 474.736168 
L 552.195056 471.718796 
L 552.472964 475.741958 
L 553.02878 471.718796 
L 553.306688 475.071431 
L 553.584596 473.730377 
L 553.862503 479.765121 
L 554.140411 472.054059 
L 554.418319 474.065641 
L 554.696227 474.736168 
L 554.974135 474.400904 
L 555.252043 475.071431 
L 555.52995 476.077222 
L 555.807858 476.077222 
L 556.085766 473.730377 
L 556.641582 476.077222 
L 556.91949 476.077222 
L 557.197397 475.406695 
L 557.475305 473.05985 
L 557.753213 472.054059 
L 558.309029 476.747749 
L 558.586937 477.418276 
L 558.864844 472.054059 
L 559.142752 476.077222 
L 559.42066 473.730377 
L 559.698568 477.418276 
L 559.976476 474.736168 
L 560.254384 475.071431 
L 560.532291 475.741958 
L 560.810199 473.395113 
L 561.088107 474.736168 
L 561.366015 477.083012 
L 561.643923 472.054059 
L 561.92183 476.077222 
L 562.199738 473.730377 
L 562.477646 475.741958 
L 563.033462 476.412485 
L 563.31137 477.083012 
L 563.589277 475.741958 
L 563.867185 475.071431 
L 564.145093 476.747749 
L 564.423001 479.429857 
L 564.700909 475.071431 
L 564.978817 479.429857 
L 565.256724 475.406695 
L 565.534632 474.400904 
L 565.81254 479.094594 
L 566.090448 474.736168 
L 566.368356 474.736168 
L 566.646264 475.406695 
L 566.924171 478.75933 
L 567.202079 473.395113 
L 567.479987 478.424067 
L 567.757895 472.389323 
L 568.035803 473.730377 
L 568.313711 480.435648 
L 568.591618 475.741958 
L 568.869526 475.741958 
L 569.147434 479.429857 
L 569.425342 475.741958 
L 569.70325 476.077222 
L 569.981158 477.083012 
L 570.259065 477.083012 
L 570.814881 480.435648 
L 571.092789 475.741958 
L 571.370697 476.412485 
L 571.648605 475.406695 
L 571.926512 477.75354 
L 572.20442 476.412485 
L 572.482328 476.077222 
L 572.760236 480.770911 
L 573.038144 477.083012 
L 573.316052 475.406695 
L 573.871867 480.435648 
L 574.149775 479.429857 
L 574.705591 476.077222 
L 574.983499 481.441438 
L 575.261406 477.418276 
L 575.539314 475.071431 
L 575.817222 477.083012 
L 576.09513 480.435648 
L 576.373038 476.747749 
L 576.650946 477.083012 
L 576.928853 478.088803 
L 577.206761 478.088803 
L 577.484669 478.75933 
L 577.762577 475.071431 
L 578.318393 480.770911 
L 578.5963 479.429857 
L 578.874208 481.776702 
L 579.152116 478.75933 
L 579.430024 480.100384 
L 579.707932 480.100384 
L 579.98584 476.747749 
L 580.263747 481.106175 
L 580.541655 478.088803 
L 580.819563 482.782493 
L 581.097471 480.100384 
L 581.375379 480.435648 
L 581.653287 476.412485 
L 581.931194 478.424067 
L 582.209102 478.424067 
L 582.48701 479.094594 
L 582.764918 476.412485 
L 583.042826 476.412485 
L 583.320734 478.088803 
L 583.598641 477.083012 
L 583.876549 480.770911 
L 584.154457 479.429857 
L 584.710273 480.100384 
L 584.988181 478.088803 
L 585.266088 477.75354 
L 585.543996 479.765121 
L 585.821904 479.429857 
L 586.099812 481.106175 
L 586.37772 481.441438 
L 586.655628 478.424067 
L 587.211443 481.106175 
L 587.489351 478.088803 
L 587.767259 478.088803 
L 588.045167 478.424067 
L 588.323075 479.429857 
L 588.600982 478.75933 
L 588.87889 477.083012 
L 589.156798 480.435648 
L 589.434706 480.100384 
L 589.712614 480.435648 
L 589.990522 476.077222 
L 590.268429 480.435648 
L 590.824245 482.447229 
L 591.102153 476.077222 
L 591.380061 479.765121 
L 591.657969 481.441438 
L 591.935876 479.094594 
L 592.213784 481.106175 
L 592.491692 479.765121 
L 592.7696 479.765121 
L 593.047508 477.418276 
L 593.325415 478.75933 
L 593.603323 480.770911 
L 594.159139 479.429857 
L 594.437047 479.094594 
L 594.714955 480.770911 
L 594.992862 478.424067 
L 595.27077 478.424067 
L 595.826586 479.094594 
L 596.104494 479.765121 
L 596.382402 480.770911 
L 596.660309 480.435648 
L 596.938217 480.435648 
L 597.216125 479.765121 
L 597.771941 478.088803 
L 598.049849 480.100384 
L 598.327756 481.106175 
L 598.605664 481.441438 
L 598.883572 480.100384 
L 599.439388 480.100384 
L 599.717296 480.435648 
L 599.995203 482.447229 
L 600.273111 480.100384 
L 600.551019 482.782493 
L 600.828927 479.094594 
L 601.106835 478.75933 
L 601.384743 481.106175 
L 601.66265 481.106175 
L 602.218466 477.75354 
L 602.774282 483.788283 
L 603.05219 480.770911 
L 603.330097 481.776702 
L 603.608005 479.429857 
L 603.885913 480.100384 
L 604.163821 480.435648 
L 604.441729 480.100384 
L 604.719637 481.776702 
L 604.997544 479.429857 
L 605.275452 481.441438 
L 605.55336 481.441438 
L 605.831268 483.788283 
L 606.109176 483.45302 
L 606.387084 482.111966 
L 606.664991 480.100384 
L 606.942899 482.447229 
L 607.220807 480.770911 
L 607.498715 482.447229 
L 608.054531 477.418276 
L 608.332438 481.776702 
L 608.610346 480.100384 
L 608.888254 482.447229 
L 609.166162 479.429857 
L 609.44407 482.447229 
L 609.721978 479.765121 
L 609.999885 481.441438 
L 610.277793 482.111966 
L 610.555701 480.770911 
L 610.833609 482.782493 
L 611.111517 483.117756 
L 611.389425 481.106175 
L 611.667332 481.776702 
L 611.94524 483.117756 
L 612.223148 482.782493 
L 612.501056 480.100384 
L 612.778964 484.123547 
L 613.056872 480.100384 
L 613.334779 483.788283 
L 613.612687 481.776702 
L 613.890595 480.770911 
L 614.446411 483.117756 
L 614.724319 481.441438 
L 615.002226 482.447229 
L 615.280134 481.441438 
L 615.558042 482.447229 
L 615.83595 481.441438 
L 616.113858 478.424067 
L 616.391766 483.117756 
L 616.669673 479.765121 
L 616.947581 480.435648 
L 617.225489 481.441438 
L 617.503397 480.770911 
L 618.059213 482.447229 
L 618.33712 478.424067 
L 618.615028 484.123547 
L 619.170844 480.100384 
L 619.448752 482.111966 
L 619.72666 482.782493 
L 620.004567 480.770911 
L 620.282475 484.123547 
L 620.560383 482.447229 
L 620.838291 482.111966 
L 621.116199 483.788283 
L 621.394107 478.75933 
L 621.949922 482.782493 
L 622.22783 483.45302 
L 623.061553 480.435648 
L 623.339461 483.788283 
L 623.617369 482.111966 
L 623.895277 484.123547 
L 624.173185 482.782493 
L 624.451093 482.111966 
L 624.729 479.765121 
L 625.006908 484.794074 
L 625.284816 480.100384 
L 625.562724 484.794074 
L 625.840632 481.776702 
L 626.11854 481.776702 
L 626.396447 480.100384 
L 626.674355 482.447229 
L 626.952263 482.782493 
L 627.230171 480.435648 
L 627.508079 483.788283 
L 627.785987 484.794074 
L 628.063894 480.435648 
L 628.341802 482.111966 
L 628.61971 482.782493 
L 628.897618 481.776702 
L 629.175526 482.782493 
L 629.453434 481.441438 
L 629.731341 483.117756 
L 630.009249 482.111966 
L 630.287157 483.117756 
L 630.565065 481.441438 
L 631.120881 484.45881 
L 631.398788 481.441438 
L 631.676696 484.123547 
L 631.954604 483.45302 
L 632.232512 484.123547 
L 632.51042 482.111966 
L 632.788328 483.788283 
L 633.066235 480.435648 
L 633.344143 484.123547 
L 633.622051 479.765121 
L 633.899959 479.094594 
L 634.177867 482.447229 
L 634.455775 480.100384 
L 634.733682 480.770911 
L 635.01159 483.117756 
L 635.567406 484.45881 
L 635.845314 481.441438 
L 636.123222 485.129337 
L 636.401129 484.123547 
L 636.679037 481.776702 
L 636.956945 483.45302 
L 637.234853 483.45302 
L 637.512761 485.129337 
L 637.790669 484.794074 
L 638.068576 481.106175 
L 638.346484 484.45881 
L 638.624392 481.441438 
L 638.9023 482.782493 
L 639.180208 481.441438 
L 639.458116 483.788283 
L 639.736023 484.45881 
L 640.013931 484.123547 
L 640.291839 484.45881 
L 640.569747 483.117756 
L 640.847655 484.123547 
L 641.125563 483.45302 
L 641.40347 480.770911 
L 641.681378 484.45881 
L 641.959286 478.424067 
L 642.515102 483.45302 
L 642.79301 481.776702 
L 643.070917 484.45881 
L 643.348825 482.111966 
L 643.904641 484.45881 
L 644.182549 485.129337 
L 644.738364 480.770911 
L 645.016272 483.117756 
L 645.29418 483.45302 
L 645.572088 484.794074 
L 646.127904 481.776702 
L 646.405811 485.129337 
L 646.683719 482.447229 
L 646.961627 482.782493 
L 647.239535 484.794074 
L 647.517443 481.441438 
L 648.351166 485.129337 
L 648.629074 482.447229 
L 648.906982 482.782493 
L 649.18489 482.782493 
L 649.462798 483.45302 
L 649.740705 480.770911 
L 650.018613 485.129337 
L 650.296521 484.123547 
L 650.574429 484.794074 
L 650.852337 483.117756 
L 651.130245 483.45302 
L 651.408152 484.123547 
L 651.68606 484.123547 
L 651.963968 482.782493 
L 652.241876 482.447229 
L 652.519784 484.123547 
L 652.797692 481.441438 
L 653.075599 483.788283 
L 653.353507 484.45881 
L 653.631415 482.111966 
L 653.909323 484.123547 
L 654.465138 482.782493 
L 654.743046 483.45302 
L 655.020954 485.129337 
L 655.298862 483.45302 
L 655.57677 484.123547 
L 655.854678 483.45302 
L 656.132585 483.45302 
L 656.410493 483.788283 
L 656.688401 482.782493 
L 656.966309 483.117756 
L 657.244217 483.788283 
L 657.522125 483.45302 
L 657.800032 484.794074 
L 658.07794 485.464601 
L 658.355848 484.45881 
L 658.633756 485.129337 
L 658.911664 486.135128 
L 659.189572 483.788283 
L 659.467479 483.117756 
L 659.745387 484.45881 
L 660.023295 486.805655 
L 660.301203 484.45881 
L 660.857019 483.788283 
L 661.134926 485.799865 
L 661.412834 485.799865 
L 661.690742 485.464601 
L 661.96865 485.464601 
L 662.524466 486.805655 
L 662.802373 483.45302 
L 663.080281 482.111966 
L 663.358189 486.135128 
L 663.636097 483.117756 
L 663.914005 484.794074 
L 664.191913 483.788283 
L 664.46982 481.776702 
L 664.747728 482.111966 
L 665.025636 482.111966 
L 665.303544 485.129337 
L 665.581452 485.464601 
L 665.85936 484.794074 
L 666.137267 485.464601 
L 666.415175 484.45881 
L 666.693083 484.794074 
L 666.970991 485.799865 
L 667.248899 487.476182 
L 667.804714 483.788283 
L 668.082622 485.129337 
L 668.36053 484.45881 
L 668.638438 484.45881 
L 668.916346 485.129337 
L 669.472161 483.788283 
L 669.750069 483.788283 
L 670.027977 483.117756 
L 670.305885 487.476182 
L 670.583793 482.447229 
L 670.861701 485.129337 
L 671.139608 484.45881 
L 671.417516 484.123547 
L 671.973332 484.794074 
L 672.25124 484.794074 
L 672.529148 485.129337 
L 672.807055 485.129337 
L 673.084963 484.794074 
L 673.362871 485.464601 
L 673.640779 485.129337 
L 673.918687 486.470392 
L 674.196595 485.799865 
L 674.474502 482.782493 
L 674.75241 482.782493 
L 675.030318 483.788283 
L 675.308226 486.470392 
L 675.586134 483.117756 
L 676.141949 483.117756 
L 676.419857 485.129337 
L 676.697765 482.111966 
L 677.253581 486.135128 
L 677.531489 484.794074 
L 677.809396 485.464601 
L 678.087304 485.129337 
L 678.365212 483.788283 
L 678.64312 483.788283 
L 678.921028 486.135128 
L 679.476843 480.770911 
L 679.754751 484.45881 
L 680.032659 482.447229 
L 680.310567 485.464601 
L 680.588475 484.794074 
L 680.866383 486.135128 
L 681.14429 483.45302 
L 681.422198 483.45302 
L 681.700106 484.794074 
L 681.978014 484.794074 
L 682.255922 485.464601 
L 682.811737 483.45302 
L 683.089645 483.45302 
L 683.923369 486.135128 
L 684.201277 481.776702 
L 684.479184 484.45881 
L 684.757092 484.45881 
L 685.035 486.470392 
L 685.035 486.470392 
" clip-path="url(#p855f7838a9)" style="fill: none; stroke: #0000ff; stroke-width: 1.5; stroke-linecap: square"/>
   </g>
   <g id="patch_3">
    <path d="M 129.775152 489.1525 
L 129.775152 36.72 
" style="fill: none; stroke: #000000; stroke-width: 0.8; stroke-linejoin: miter; stroke-linecap: square"/>
   </g>
   <g id="patch_4">
    <path d="M 685.035 489.1525 
L 685.035 36.72 
" style="fill: none; stroke: #000000; stroke-width: 0.8; stroke-linejoin: miter; stroke-linecap: square"/>
   </g>
   <g id="patch_5">
    <path d="M 129.775152 489.1525 
L 685.035 489.1525 
" style="fill: none; stroke: #000000; stroke-width: 0.8; stroke-linejoin: miter; stroke-linecap: square"/>
   </g>
   <g id="patch_6">
    <path d="M 129.775152 36.72 
L 685.035 36.72 
" style="fill: none; stroke: #000000; stroke-width: 0.8; stroke-linejoin: miter; stroke-linecap: square"/>
   </g>
   <g id="legend_1">
    <g id="patch_7">
     <path d="M 492.425 100.294688 
L 676.535 100.294688 
L 676.535 45.22 
L 492.425 45.22 
z
" style="fill: #ffffff; opacity: 0.8; stroke: #000000; stroke-linejoin: miter"/>
    </g>
    <g id="line2d_31">
     <path d="M 499.225 58.987344 
L 516.225 58.987344 
L 533.225 58.987344 
" style="fill: none; stroke-dasharray: 14.8,6.4; stroke-dashoffset: 0; stroke: #ff0000; stroke-width: 4"/>
    </g>
    <g id="text_17">
     <!-- $\rho_0$ -->
     <g transform="translate(546.825 64.937344) scale(0.17 -0.17)">
      <use xlink:href="#DejaVuSans-Oblique-3c1"/>
      <use xlink:href="#DejaVuSans-30" transform="translate(63.476562 -16.40625) scale(0.7)"/>
     </g>
    </g>
    <g id="line2d_32">
     <path d="M 499.225 83.974688 
L 516.225 83.974688 
L 533.225 83.974688 
" style="fill: none; stroke: #0000ff; stroke-width: 1.5; stroke-linecap: square"/>
    </g>
    <g id="text_18">
     <!-- $\rho_0,\it{U=0,n=2}$ -->
     <g transform="translate(546.825 89.924688) scale(0.17 -0.17)">
      <defs>
       <path id="DejaVuSans-2c" d="M 750 794 
L 1409 794 
L 1409 256 
L 897 -744 
L 494 -744 
L 750 256 
L 750 794 
z
" transform="scale(0.015625)"/>
       <path id="DejaVuSans-Oblique-55" d="M 991 4666 
L 1625 4666 
L 1075 1831 
Q 1041 1641 1027 1517 
Q 1013 1394 1013 1300 
Q 1013 869 1253 645 
Q 1494 422 1959 422 
Q 2563 422 2898 753 
Q 3234 1084 3378 1831 
L 3928 4666 
L 4563 4666 
L 4000 1753 
Q 3816 809 3300 359 
Q 2784 -91 1888 -91 
Q 1188 -91 780 261 
Q 372 613 372 1216 
Q 372 1325 387 1461 
Q 403 1597 434 1753 
L 991 4666 
z
" transform="scale(0.015625)"/>
       <path id="DejaVuSans-3d" d="M 678 2906 
L 4684 2906 
L 4684 2381 
L 678 2381 
L 678 2906 
z
M 678 1631 
L 4684 1631 
L 4684 1100 
L 678 1100 
L 678 1631 
z
" transform="scale(0.015625)"/>
       <path id="DejaVuSans-Oblique-6e" d="M 3566 2113 
L 3156 0 
L 2578 0 
L 2988 2091 
Q 3016 2238 3031 2350 
Q 3047 2463 3047 2528 
Q 3047 2791 2881 2937 
Q 2716 3084 2419 3084 
Q 1956 3084 1622 2776 
Q 1288 2469 1184 1941 
L 800 0 
L 225 0 
L 903 3500 
L 1478 3500 
L 1363 2950 
Q 1603 3253 1940 3418 
Q 2278 3584 2650 3584 
Q 3113 3584 3367 3334 
Q 3622 3084 3622 2631 
Q 3622 2519 3608 2391 
Q 3594 2263 3566 2113 
z
" transform="scale(0.015625)"/>
      </defs>
      <use xlink:href="#DejaVuSans-Oblique-3c1" transform="translate(0 0.78125)"/>
      <use xlink:href="#DejaVuSans-30" transform="translate(63.476562 -15.625) scale(0.7)"/>
      <use xlink:href="#DejaVuSans-2c" transform="translate(110.74707 0.78125)"/>
      <use xlink:href="#DejaVuSans-Oblique-55" transform="translate(162.016602 0.78125)"/>
      <use xlink:href="#DejaVuSans-3d" transform="translate(254.692383 0.78125)"/>
      <use xlink:href="#DejaVuSans-30" transform="translate(357.963867 0.78125)"/>
      <use xlink:href="#DejaVuSans-2c" transform="translate(421.586914 0.78125)"/>
      <use xlink:href="#DejaVuSans-Oblique-6e" transform="translate(472.856445 0.78125)"/>
      <use xlink:href="#DejaVuSans-3d" transform="translate(555.717773 0.78125)"/>
      <use xlink:href="#DejaVuSans-32" transform="translate(658.989258 0.78125)"/>
     </g>
    </g>
   </g>
  </g>
 </g>
 <defs>
  <clipPath id="p855f7838a9">
   <rect x="129.775152" y="36.72" width="555.259848" height="452.4325"/>
  </clipPath>
 </defs>
</svg>
