<?xml version="1.0" encoding="utf-8" standalone="no"?>
<!DOCTYPE svg PUBLIC "-//W3C//DTD SVG 1.1//EN"
  "http://www.w3.org/Graphics/SVG/1.1/DTD/svg11.dtd">
<svg xmlns:xlink="http://www.w3.org/1999/xlink" width="720pt" height="576pt" viewBox="0 0 720 576" xmlns="http://www.w3.org/2000/svg" version="1.1">
 <metadata>
  <rdf:RDF xmlns:dc="http://purl.org/dc/elements/1.1/" xmlns:cc="http://creativecommons.org/ns#" xmlns:rdf="http://www.w3.org/1999/02/22-rdf-syntax-ns#">
   <cc:Work>
    <dc:type rdf:resource="http://purl.org/dc/dcmitype/StillImage"/>
    <dc:date>2023-04-12T11:06:19.877633</dc:date>
    <dc:format>image/svg+xml</dc:format>
    <dc:creator>
     <cc:Agent>
      <dc:title>Matplotlib v3.7.1, https://matplotlib.org/</dc:title>
     </cc:Agent>
    </dc:creator>
   </cc:Work>
  </rdf:RDF>
 </metadata>
 <defs>
  <style type="text/css">*{stroke-linejoin: round; stroke-linecap: butt}</style>
 </defs>
 <g id="figure_1">
  <g id="patch_1">
   <path d="M 0 576 
L 720 576 
L 720 0 
L 0 0 
z
" style="fill: #ffffff"/>
  </g>
  <g id="axes_1">
   <g id="patch_2">
    <path d="M 129.775152 489.1525 
L 685.035 489.1525 
L 685.035 36.72 
L 129.775152 36.72 
z
" style="fill: #ffffff"/>
   </g>
   <g id="matplotlib.axis_1">
    <g id="xtick_1">
     <g id="line2d_1">
      <path d="M 129.775152 489.1525 
L 129.775152 36.72 
" clip-path="url(#p5b9a049db9)" style="fill: none; stroke: #b0b0b0; stroke-width: 0.8; stroke-linecap: square"/>
     </g>
     <g id="line2d_2">
      <defs>
       <path id="m8a1b7897f5" d="M 0 0 
L 0 3.5 
" style="stroke: #000000; stroke-width: 0.8"/>
      </defs>
      <g>
       <use xlink:href="#m8a1b7897f5" x="129.775152" y="489.1525" style="stroke: #000000; stroke-width: 0.8"/>
      </g>
     </g>
     <g id="text_1">
      <!-- −3 -->
      <g transform="translate(111.347418 515.148594) scale(0.25 -0.25)">
       <defs>
        <path id="DejaVuSans-2212" d="M 678 2272 
L 4684 2272 
L 4684 1741 
L 678 1741 
L 678 2272 
z
" transform="scale(0.015625)"/>
        <path id="DejaVuSans-33" d="M 2597 2516 
Q 3050 2419 3304 2112 
Q 3559 1806 3559 1356 
Q 3559 666 3084 287 
Q 2609 -91 1734 -91 
Q 1441 -91 1130 -33 
Q 819 25 488 141 
L 488 750 
Q 750 597 1062 519 
Q 1375 441 1716 441 
Q 2309 441 2620 675 
Q 2931 909 2931 1356 
Q 2931 1769 2642 2001 
Q 2353 2234 1838 2234 
L 1294 2234 
L 1294 2753 
L 1863 2753 
Q 2328 2753 2575 2939 
Q 2822 3125 2822 3475 
Q 2822 3834 2567 4026 
Q 2313 4219 1838 4219 
Q 1578 4219 1281 4162 
Q 984 4106 628 3988 
L 628 4550 
Q 988 4650 1302 4700 
Q 1616 4750 1894 4750 
Q 2613 4750 3031 4423 
Q 3450 4097 3450 3541 
Q 3450 3153 3228 2886 
Q 3006 2619 2597 2516 
z
" transform="scale(0.015625)"/>
       </defs>
       <use xlink:href="#DejaVuSans-2212"/>
       <use xlink:href="#DejaVuSans-33" x="83.789062"/>
      </g>
     </g>
    </g>
    <g id="xtick_2">
     <g id="line2d_3">
      <path d="M 222.31846 489.1525 
L 222.31846 36.72 
" clip-path="url(#p5b9a049db9)" style="fill: none; stroke: #b0b0b0; stroke-width: 0.8; stroke-linecap: square"/>
     </g>
     <g id="line2d_4">
      <g>
       <use xlink:href="#m8a1b7897f5" x="222.31846" y="489.1525" style="stroke: #000000; stroke-width: 0.8"/>
      </g>
     </g>
     <g id="text_2">
      <!-- −2 -->
      <g transform="translate(203.890726 515.148594) scale(0.25 -0.25)">
       <defs>
        <path id="DejaVuSans-32" d="M 1228 531 
L 3431 531 
L 3431 0 
L 469 0 
L 469 531 
Q 828 903 1448 1529 
Q 2069 2156 2228 2338 
Q 2531 2678 2651 2914 
Q 2772 3150 2772 3378 
Q 2772 3750 2511 3984 
Q 2250 4219 1831 4219 
Q 1534 4219 1204 4116 
Q 875 4013 500 3803 
L 500 4441 
Q 881 4594 1212 4672 
Q 1544 4750 1819 4750 
Q 2544 4750 2975 4387 
Q 3406 4025 3406 3419 
Q 3406 3131 3298 2873 
Q 3191 2616 2906 2266 
Q 2828 2175 2409 1742 
Q 1991 1309 1228 531 
z
" transform="scale(0.015625)"/>
       </defs>
       <use xlink:href="#DejaVuSans-2212"/>
       <use xlink:href="#DejaVuSans-32" x="83.789062"/>
      </g>
     </g>
    </g>
    <g id="xtick_3">
     <g id="line2d_5">
      <path d="M 314.861768 489.1525 
L 314.861768 36.72 
" clip-path="url(#p5b9a049db9)" style="fill: none; stroke: #b0b0b0; stroke-width: 0.8; stroke-linecap: square"/>
     </g>
     <g id="line2d_6">
      <g>
       <use xlink:href="#m8a1b7897f5" x="314.861768" y="489.1525" style="stroke: #000000; stroke-width: 0.8"/>
      </g>
     </g>
     <g id="text_3">
      <!-- −1 -->
      <g transform="translate(296.434034 515.148594) scale(0.25 -0.25)">
       <defs>
        <path id="DejaVuSans-31" d="M 794 531 
L 1825 531 
L 1825 4091 
L 703 3866 
L 703 4441 
L 1819 4666 
L 2450 4666 
L 2450 531 
L 3481 531 
L 3481 0 
L 794 0 
L 794 531 
z
" transform="scale(0.015625)"/>
       </defs>
       <use xlink:href="#DejaVuSans-2212"/>
       <use xlink:href="#DejaVuSans-31" x="83.789062"/>
      </g>
     </g>
    </g>
    <g id="xtick_4">
     <g id="line2d_7">
      <path d="M 407.405076 489.1525 
L 407.405076 36.72 
" clip-path="url(#p5b9a049db9)" style="fill: none; stroke: #b0b0b0; stroke-width: 0.8; stroke-linecap: square"/>
     </g>
     <g id="line2d_8">
      <g>
       <use xlink:href="#m8a1b7897f5" x="407.405076" y="489.1525" style="stroke: #000000; stroke-width: 0.8"/>
      </g>
     </g>
     <g id="text_4">
      <!-- 0 -->
      <g transform="translate(399.451951 515.148594) scale(0.25 -0.25)">
       <defs>
        <path id="DejaVuSans-30" d="M 2034 4250 
Q 1547 4250 1301 3770 
Q 1056 3291 1056 2328 
Q 1056 1369 1301 889 
Q 1547 409 2034 409 
Q 2525 409 2770 889 
Q 3016 1369 3016 2328 
Q 3016 3291 2770 3770 
Q 2525 4250 2034 4250 
z
M 2034 4750 
Q 2819 4750 3233 4129 
Q 3647 3509 3647 2328 
Q 3647 1150 3233 529 
Q 2819 -91 2034 -91 
Q 1250 -91 836 529 
Q 422 1150 422 2328 
Q 422 3509 836 4129 
Q 1250 4750 2034 4750 
z
" transform="scale(0.015625)"/>
       </defs>
       <use xlink:href="#DejaVuSans-30"/>
      </g>
     </g>
    </g>
    <g id="xtick_5">
     <g id="line2d_9">
      <path d="M 499.948384 489.1525 
L 499.948384 36.72 
" clip-path="url(#p5b9a049db9)" style="fill: none; stroke: #b0b0b0; stroke-width: 0.8; stroke-linecap: square"/>
     </g>
     <g id="line2d_10">
      <g>
       <use xlink:href="#m8a1b7897f5" x="499.948384" y="489.1525" style="stroke: #000000; stroke-width: 0.8"/>
      </g>
     </g>
     <g id="text_5">
      <!-- 1 -->
      <g transform="translate(491.995259 515.148594) scale(0.25 -0.25)">
       <use xlink:href="#DejaVuSans-31"/>
      </g>
     </g>
    </g>
    <g id="xtick_6">
     <g id="line2d_11">
      <path d="M 592.491692 489.1525 
L 592.491692 36.72 
" clip-path="url(#p5b9a049db9)" style="fill: none; stroke: #b0b0b0; stroke-width: 0.8; stroke-linecap: square"/>
     </g>
     <g id="line2d_12">
      <g>
       <use xlink:href="#m8a1b7897f5" x="592.491692" y="489.1525" style="stroke: #000000; stroke-width: 0.8"/>
      </g>
     </g>
     <g id="text_6">
      <!-- 2 -->
      <g transform="translate(584.538567 515.148594) scale(0.25 -0.25)">
       <use xlink:href="#DejaVuSans-32"/>
      </g>
     </g>
    </g>
    <g id="xtick_7">
     <g id="line2d_13">
      <path d="M 685.035 489.1525 
L 685.035 36.72 
" clip-path="url(#p5b9a049db9)" style="fill: none; stroke: #b0b0b0; stroke-width: 0.8; stroke-linecap: square"/>
     </g>
     <g id="line2d_14">
      <g>
       <use xlink:href="#m8a1b7897f5" x="685.035" y="489.1525" style="stroke: #000000; stroke-width: 0.8"/>
      </g>
     </g>
     <g id="text_7">
      <!-- 3 -->
      <g transform="translate(677.081875 515.148594) scale(0.25 -0.25)">
       <use xlink:href="#DejaVuSans-33"/>
      </g>
     </g>
    </g>
    <g id="text_8">
     <!-- $\omega$ [-] -->
     <g transform="translate(382.530076 541.351719) scale(0.25 -0.25)">
      <defs>
       <path id="DejaVuSans-Oblique-3c9" d="M 1369 -91 
Q 72 -91 434 1766 
Q 575 2500 1256 3500 
L 1875 3500 
Q 1231 2500 1088 1750 
Q 819 397 1519 397 
Q 2166 397 2478 2078 
L 3009 2078 
Q 2669 388 3316 397 
Q 4013 403 4275 1750 
Q 4419 2500 4169 3500 
L 4788 3500 
Q 5075 2500 4934 1766 
Q 4578 -94 3278 -91 
Q 2428 -88 2503 844 
Q 2194 -91 1369 -91 
z
" transform="scale(0.015625)"/>
       <path id="Calibri-20" transform="scale(0.015625)"/>
       <path id="Calibri-5b" d="M 1684 -813 
Q 1684 -916 1661 -958 
Q 1638 -1000 1594 -1000 
L 794 -1000 
Q 756 -1000 722 -989 
Q 688 -978 659 -953 
Q 631 -928 614 -886 
Q 597 -844 597 -781 
L 597 4153 
Q 597 4213 614 4255 
Q 631 4297 659 4323 
Q 688 4350 722 4361 
Q 756 4372 794 4372 
L 1594 4372 
Q 1613 4372 1630 4362 
Q 1647 4353 1659 4328 
Q 1672 4303 1678 4267 
Q 1684 4231 1684 4178 
Q 1684 4078 1661 4034 
Q 1638 3991 1594 3991 
L 1084 3991 
L 1084 -622 
L 1594 -622 
Q 1613 -622 1630 -631 
Q 1647 -641 1659 -664 
Q 1672 -688 1678 -723 
Q 1684 -759 1684 -813 
z
" transform="scale(0.015625)"/>
       <path id="Calibri-2d" d="M 1744 1578 
Q 1744 1456 1716 1409 
Q 1688 1363 1634 1363 
L 328 1363 
Q 272 1363 244 1411 
Q 216 1459 216 1578 
Q 216 1697 244 1744 
Q 272 1791 328 1791 
L 1634 1791 
Q 1659 1791 1679 1781 
Q 1700 1772 1714 1745 
Q 1728 1719 1736 1678 
Q 1744 1638 1744 1578 
z
" transform="scale(0.015625)"/>
       <path id="Calibri-5d" d="M 1369 -781 
Q 1369 -844 1351 -886 
Q 1334 -928 1306 -953 
Q 1278 -978 1242 -989 
Q 1206 -1000 1169 -1000 
L 372 -1000 
Q 328 -1000 304 -958 
Q 281 -916 281 -813 
Q 281 -759 286 -723 
Q 291 -688 303 -664 
Q 316 -641 333 -631 
Q 350 -622 372 -622 
L 881 -622 
L 881 3991 
L 372 3991 
Q 328 3991 304 4034 
Q 281 4078 281 4178 
Q 281 4231 286 4267 
Q 291 4303 303 4328 
Q 316 4353 333 4362 
Q 350 4372 372 4372 
L 1169 4372 
Q 1206 4372 1242 4361 
Q 1278 4350 1306 4323 
Q 1334 4297 1351 4255 
Q 1369 4213 1369 4153 
L 1369 -781 
z
" transform="scale(0.015625)"/>
      </defs>
      <use xlink:href="#DejaVuSans-Oblique-3c9" transform="translate(0 0.6875)"/>
      <use xlink:href="#Calibri-20" transform="translate(83.740234 0.6875)"/>
      <use xlink:href="#Calibri-5b" transform="translate(106.347656 0.6875)"/>
      <use xlink:href="#Calibri-2d" transform="translate(137.011719 0.6875)"/>
      <use xlink:href="#Calibri-5d" transform="translate(167.626953 0.6875)"/>
     </g>
    </g>
   </g>
   <g id="matplotlib.axis_2">
    <g id="ytick_1">
     <g id="line2d_15">
      <path d="M 129.775152 489.1525 
L 685.035 489.1525 
" clip-path="url(#p5b9a049db9)" style="fill: none; stroke: #b0b0b0; stroke-width: 0.8; stroke-linecap: square"/>
     </g>
     <g id="line2d_16">
      <defs>
       <path id="m6453657a7f" d="M 0 0 
L -3.5 0 
" style="stroke: #000000; stroke-width: 0.8"/>
      </defs>
      <g>
       <use xlink:href="#m6453657a7f" x="129.775152" y="489.1525" style="stroke: #000000; stroke-width: 0.8"/>
      </g>
     </g>
     <g id="text_9">
      <!-- 0.0 -->
      <g transform="translate(83.017339 498.650547) scale(0.25 -0.25)">
       <defs>
        <path id="DejaVuSans-2e" d="M 684 794 
L 1344 794 
L 1344 0 
L 684 0 
L 684 794 
z
" transform="scale(0.015625)"/>
       </defs>
       <use xlink:href="#DejaVuSans-30"/>
       <use xlink:href="#DejaVuSans-2e" x="63.623047"/>
       <use xlink:href="#DejaVuSans-30" x="95.410156"/>
      </g>
     </g>
    </g>
    <g id="ytick_2">
     <g id="line2d_17">
      <path d="M 129.775152 413.747083 
L 685.035 413.747083 
" clip-path="url(#p5b9a049db9)" style="fill: none; stroke: #b0b0b0; stroke-width: 0.8; stroke-linecap: square"/>
     </g>
     <g id="line2d_18">
      <g>
       <use xlink:href="#m6453657a7f" x="129.775152" y="413.747083" style="stroke: #000000; stroke-width: 0.8"/>
      </g>
     </g>
     <g id="text_10">
      <!-- 0.2 -->
      <g transform="translate(83.017339 423.24513) scale(0.25 -0.25)">
       <use xlink:href="#DejaVuSans-30"/>
       <use xlink:href="#DejaVuSans-2e" x="63.623047"/>
       <use xlink:href="#DejaVuSans-32" x="95.410156"/>
      </g>
     </g>
    </g>
    <g id="ytick_3">
     <g id="line2d_19">
      <path d="M 129.775152 338.341667 
L 685.035 338.341667 
" clip-path="url(#p5b9a049db9)" style="fill: none; stroke: #b0b0b0; stroke-width: 0.8; stroke-linecap: square"/>
     </g>
     <g id="line2d_20">
      <g>
       <use xlink:href="#m6453657a7f" x="129.775152" y="338.341667" style="stroke: #000000; stroke-width: 0.8"/>
      </g>
     </g>
     <g id="text_11">
      <!-- 0.4 -->
      <g transform="translate(83.017339 347.839714) scale(0.25 -0.25)">
       <defs>
        <path id="DejaVuSans-34" d="M 2419 4116 
L 825 1625 
L 2419 1625 
L 2419 4116 
z
M 2253 4666 
L 3047 4666 
L 3047 1625 
L 3713 1625 
L 3713 1100 
L 3047 1100 
L 3047 0 
L 2419 0 
L 2419 1100 
L 313 1100 
L 313 1709 
L 2253 4666 
z
" transform="scale(0.015625)"/>
       </defs>
       <use xlink:href="#DejaVuSans-30"/>
       <use xlink:href="#DejaVuSans-2e" x="63.623047"/>
       <use xlink:href="#DejaVuSans-34" x="95.410156"/>
      </g>
     </g>
    </g>
    <g id="ytick_4">
     <g id="line2d_21">
      <path d="M 129.775152 262.93625 
L 685.035 262.93625 
" clip-path="url(#p5b9a049db9)" style="fill: none; stroke: #b0b0b0; stroke-width: 0.8; stroke-linecap: square"/>
     </g>
     <g id="line2d_22">
      <g>
       <use xlink:href="#m6453657a7f" x="129.775152" y="262.93625" style="stroke: #000000; stroke-width: 0.8"/>
      </g>
     </g>
     <g id="text_12">
      <!-- 0.6 -->
      <g transform="translate(83.017339 272.434297) scale(0.25 -0.25)">
       <defs>
        <path id="DejaVuSans-36" d="M 2113 2584 
Q 1688 2584 1439 2293 
Q 1191 2003 1191 1497 
Q 1191 994 1439 701 
Q 1688 409 2113 409 
Q 2538 409 2786 701 
Q 3034 994 3034 1497 
Q 3034 2003 2786 2293 
Q 2538 2584 2113 2584 
z
M 3366 4563 
L 3366 3988 
Q 3128 4100 2886 4159 
Q 2644 4219 2406 4219 
Q 1781 4219 1451 3797 
Q 1122 3375 1075 2522 
Q 1259 2794 1537 2939 
Q 1816 3084 2150 3084 
Q 2853 3084 3261 2657 
Q 3669 2231 3669 1497 
Q 3669 778 3244 343 
Q 2819 -91 2113 -91 
Q 1303 -91 875 529 
Q 447 1150 447 2328 
Q 447 3434 972 4092 
Q 1497 4750 2381 4750 
Q 2619 4750 2861 4703 
Q 3103 4656 3366 4563 
z
" transform="scale(0.015625)"/>
       </defs>
       <use xlink:href="#DejaVuSans-30"/>
       <use xlink:href="#DejaVuSans-2e" x="63.623047"/>
       <use xlink:href="#DejaVuSans-36" x="95.410156"/>
      </g>
     </g>
    </g>
    <g id="ytick_5">
     <g id="line2d_23">
      <path d="M 129.775152 187.530833 
L 685.035 187.530833 
" clip-path="url(#p5b9a049db9)" style="fill: none; stroke: #b0b0b0; stroke-width: 0.8; stroke-linecap: square"/>
     </g>
     <g id="line2d_24">
      <g>
       <use xlink:href="#m6453657a7f" x="129.775152" y="187.530833" style="stroke: #000000; stroke-width: 0.8"/>
      </g>
     </g>
     <g id="text_13">
      <!-- 0.8 -->
      <g transform="translate(83.017339 197.02888) scale(0.25 -0.25)">
       <defs>
        <path id="DejaVuSans-38" d="M 2034 2216 
Q 1584 2216 1326 1975 
Q 1069 1734 1069 1313 
Q 1069 891 1326 650 
Q 1584 409 2034 409 
Q 2484 409 2743 651 
Q 3003 894 3003 1313 
Q 3003 1734 2745 1975 
Q 2488 2216 2034 2216 
z
M 1403 2484 
Q 997 2584 770 2862 
Q 544 3141 544 3541 
Q 544 4100 942 4425 
Q 1341 4750 2034 4750 
Q 2731 4750 3128 4425 
Q 3525 4100 3525 3541 
Q 3525 3141 3298 2862 
Q 3072 2584 2669 2484 
Q 3125 2378 3379 2068 
Q 3634 1759 3634 1313 
Q 3634 634 3220 271 
Q 2806 -91 2034 -91 
Q 1263 -91 848 271 
Q 434 634 434 1313 
Q 434 1759 690 2068 
Q 947 2378 1403 2484 
z
M 1172 3481 
Q 1172 3119 1398 2916 
Q 1625 2713 2034 2713 
Q 2441 2713 2670 2916 
Q 2900 3119 2900 3481 
Q 2900 3844 2670 4047 
Q 2441 4250 2034 4250 
Q 1625 4250 1398 4047 
Q 1172 3844 1172 3481 
z
" transform="scale(0.015625)"/>
       </defs>
       <use xlink:href="#DejaVuSans-30"/>
       <use xlink:href="#DejaVuSans-2e" x="63.623047"/>
       <use xlink:href="#DejaVuSans-38" x="95.410156"/>
      </g>
     </g>
    </g>
    <g id="ytick_6">
     <g id="line2d_25">
      <path d="M 129.775152 112.125417 
L 685.035 112.125417 
" clip-path="url(#p5b9a049db9)" style="fill: none; stroke: #b0b0b0; stroke-width: 0.8; stroke-linecap: square"/>
     </g>
     <g id="line2d_26">
      <g>
       <use xlink:href="#m6453657a7f" x="129.775152" y="112.125417" style="stroke: #000000; stroke-width: 0.8"/>
      </g>
     </g>
     <g id="text_14">
      <!-- 1.0 -->
      <g transform="translate(83.017339 121.623464) scale(0.25 -0.25)">
       <use xlink:href="#DejaVuSans-31"/>
       <use xlink:href="#DejaVuSans-2e" x="63.623047"/>
       <use xlink:href="#DejaVuSans-30" x="95.410156"/>
      </g>
     </g>
    </g>
    <g id="ytick_7">
     <g id="line2d_27">
      <path d="M 129.775152 36.72 
L 685.035 36.72 
" clip-path="url(#p5b9a049db9)" style="fill: none; stroke: #b0b0b0; stroke-width: 0.8; stroke-linecap: square"/>
     </g>
     <g id="line2d_28">
      <g>
       <use xlink:href="#m6453657a7f" x="129.775152" y="36.72" style="stroke: #000000; stroke-width: 0.8"/>
      </g>
     </g>
     <g id="text_15">
      <!-- 1.2 -->
      <g transform="translate(83.017339 46.218047) scale(0.25 -0.25)">
       <use xlink:href="#DejaVuSans-31"/>
       <use xlink:href="#DejaVuSans-2e" x="63.623047"/>
       <use xlink:href="#DejaVuSans-32" x="95.410156"/>
      </g>
     </g>
    </g>
    <g id="text_16">
     <!-- $\rho$($\omega$) -->
     <g transform="translate(27.017339 257.68625) scale(0.25 -0.25)">
      <defs>
       <path id="DejaVuSans-Oblique-3c1" d="M 1203 2875 
Q 1453 3194 1981 3475 
Q 2188 3584 2756 3584 
Q 3394 3584 3694 3078 
Q 3994 2572 3834 1747 
Q 3672 922 3175 415 
Q 2678 -91 2041 -91 
Q 1656 -91 1409 63 
Q 1163 213 1044 525 
L 681 -1331 
L 103 -1331 
L 697 1716 
Q 838 2438 1203 2875 
z
M 3238 1747 
Q 3359 2381 3169 2744 
Q 2978 3103 2522 3103 
Q 2066 3103 1734 2744 
Q 1403 2381 1281 1747 
Q 1156 1113 1347 750 
Q 1538 391 1994 391 
Q 2450 391 2781 750 
Q 3113 1113 3238 1747 
z
" transform="scale(0.015625)"/>
       <path id="Calibri-28" d="M 1547 4306 
Q 1250 3678 1104 3017 
Q 959 2356 959 1688 
Q 959 1016 1107 356 
Q 1256 -303 1541 -938 
Q 1556 -975 1557 -1001 
Q 1559 -1028 1537 -1045 
Q 1516 -1063 1470 -1070 
Q 1425 -1078 1347 -1078 
Q 1291 -1078 1250 -1075 
Q 1209 -1072 1179 -1062 
Q 1150 -1053 1131 -1040 
Q 1113 -1028 1103 -1013 
Q 934 -694 806 -367 
Q 678 -41 590 296 
Q 503 634 459 979 
Q 416 1325 416 1678 
Q 416 2031 464 2375 
Q 513 2719 602 3058 
Q 691 3397 819 3725 
Q 947 4053 1106 4375 
Q 1109 4388 1123 4397 
Q 1138 4406 1163 4415 
Q 1188 4425 1231 4429 
Q 1275 4434 1344 4434 
Q 1416 4434 1459 4425 
Q 1503 4416 1528 4400 
Q 1553 4384 1556 4359 
Q 1559 4334 1547 4306 
z
" transform="scale(0.015625)"/>
       <path id="Calibri-29" d="M 1522 1678 
Q 1522 1325 1478 979 
Q 1434 634 1346 296 
Q 1259 -41 1132 -367 
Q 1006 -694 838 -1013 
Q 828 -1028 809 -1040 
Q 791 -1053 761 -1062 
Q 731 -1072 690 -1075 
Q 650 -1078 594 -1078 
Q 513 -1078 467 -1070 
Q 422 -1063 401 -1045 
Q 381 -1028 382 -1001 
Q 384 -975 400 -938 
Q 688 -306 834 355 
Q 981 1016 981 1688 
Q 981 2356 834 3017 
Q 688 3678 394 4306 
Q 381 4334 384 4359 
Q 388 4384 413 4400 
Q 438 4416 481 4425 
Q 525 4434 597 4434 
Q 663 4434 706 4429 
Q 750 4425 776 4415 
Q 803 4406 815 4397 
Q 828 4388 834 4375 
Q 1156 3734 1339 3057 
Q 1522 2381 1522 1678 
z
" transform="scale(0.015625)"/>
      </defs>
      <use xlink:href="#DejaVuSans-Oblique-3c1" transform="translate(0 0.71875)"/>
      <use xlink:href="#Calibri-28" transform="translate(63.476562 0.71875)"/>
      <use xlink:href="#DejaVuSans-Oblique-3c9" transform="translate(93.798828 0.71875)"/>
      <use xlink:href="#Calibri-29" transform="translate(177.539062 0.71875)"/>
     </g>
    </g>
   </g>
   <g id="line2d_29">
    <path d="M 129.775152 485.191726 
L 155.342673 484.357586 
L 176.463668 483.453498 
L 194.527677 482.46213 
L 209.812608 481.407831 
L 223.152183 480.271633 
L 234.824312 479.061062 
L 245.106902 477.779351 
L 254.277861 476.42091 
L 262.615096 474.96598 
L 270.118607 473.43544 
L 277.066303 471.789852 
L 283.180275 470.122023 
L 289.01634 468.299747 
L 294.296588 466.420579 
L 299.298929 464.401354 
L 303.745455 462.37756 
L 307.914072 460.252334 
L 312.08269 457.871329 
L 315.973399 455.381981 
L 319.586201 452.803903 
L 322.921095 450.162848 
L 326.255989 447.235062 
L 329.312975 444.264491 
L 332.369961 440.981839 
L 335.14904 437.690985 
L 337.928118 434.069935 
L 340.707196 430.076083 
L 343.486275 425.660385 
L 345.987445 421.279051 
L 348.488616 416.463255 
L 350.989786 411.159493 
L 353.490957 405.30707 
L 355.992127 398.837288 
L 358.493298 391.672671 
L 360.71656 384.650778 
L 362.939823 376.943851 
L 365.163086 368.478348 
L 367.386348 359.175174 
L 369.609611 348.950806 
L 371.832874 337.719359 
L 374.056136 325.396011 
L 376.279399 311.90232 
L 378.780569 295.243962 
L 381.28174 276.972296 
L 383.78291 257.104693 
L 386.561989 233.312559 
L 390.17479 200.351722 
L 396.010855 146.782085 
L 398.234118 128.471207 
L 399.901565 116.346345 
L 401.291104 107.617616 
L 402.680643 100.372585 
L 403.792274 95.775724 
L 404.625998 93.082969 
L 405.459721 91.068857 
L 406.015537 90.113935 
L 406.571352 89.474771 
L 407.127168 89.15442 
L 407.682984 89.15442 
L 408.238799 89.474771 
L 408.794615 90.113935 
L 409.350431 91.068857 
L 410.184154 93.082969 
L 411.017878 95.775724 
L 412.129509 100.372585 
L 413.24114 106.043297 
L 414.63068 114.492112 
L 416.298127 126.340685 
L 418.243481 142.019089 
L 420.744652 164.145858 
L 430.749334 254.802741 
L 433.528412 276.972296 
L 436.029583 295.243962 
L 438.530753 311.90232 
L 441.031924 326.998923 
L 443.533094 340.626334 
L 445.756357 351.597943 
L 447.979619 361.584007 
L 450.202882 370.670079 
L 452.704053 379.918766 
L 455.205223 388.242991 
L 457.706394 395.743738 
L 460.207564 402.512223 
L 462.708735 408.630041 
L 465.209905 414.169702 
L 467.711075 419.195358 
L 470.212246 423.763608 
L 472.991324 428.363411 
L 475.770403 432.519723 
L 478.549481 436.284441 
L 481.328559 439.702634 
L 484.385545 443.109017 
L 487.442532 446.188525 
L 490.777426 449.220669 
L 494.11232 451.953137 
L 497.725121 454.617796 
L 501.337923 457.013907 
L 505.228633 459.332771 
L 509.39725 461.555817 
L 513.843776 463.669574 
L 518.568209 465.665121 
L 523.57055 467.537459 
L 529.128706 469.370984 
L 534.964771 471.059658 
L 541.356651 472.675741 
L 548.304347 474.201372 
L 556.085766 475.674049 
L 564.700909 477.06667 
L 574.149775 478.361688 
L 584.710273 479.578987 
L 596.660309 480.725143 
L 610.277793 481.798417 
L 625.840632 482.792931 
L 643.626733 483.701997 
L 664.46982 484.540252 
L 685.035 485.191726 
L 685.035 485.191726 
" clip-path="url(#p5b9a049db9)" style="fill: none; stroke-dasharray: 14.8,6.4; stroke-dashoffset: 0; stroke: #ff0000; stroke-width: 4"/>
   </g>
   <g id="line2d_30">
    <path d="M 129.775152 478.14753 
L 130.05306 482.407518 
L 130.330968 480.632523 
L 130.608875 482.407518 
L 130.886783 482.052519 
L 131.164691 482.762517 
L 131.442599 482.762517 
L 131.720507 482.407518 
L 131.998415 482.762517 
L 132.276322 480.632523 
L 132.55423 482.762517 
L 132.832138 482.407518 
L 133.110046 482.407518 
L 133.387954 480.987522 
L 133.665862 480.987522 
L 133.943769 480.277524 
L 134.221677 478.857528 
L 134.499585 482.762517 
L 134.777493 481.342521 
L 135.055401 481.342521 
L 135.333309 480.632523 
L 135.611216 479.212527 
L 136.167032 483.117516 
L 136.44494 481.342521 
L 136.722848 480.632523 
L 137.000756 479.212527 
L 137.278663 483.827515 
L 137.556571 480.277524 
L 137.834479 480.632523 
L 138.112387 484.537513 
L 138.668203 478.857528 
L 139.224018 481.69752 
L 139.501926 481.342521 
L 139.779834 483.117516 
L 140.057742 479.567526 
L 140.33565 480.632523 
L 140.613557 480.987522 
L 140.891465 483.472516 
L 141.169373 481.69752 
L 141.447281 482.762517 
L 141.725189 478.502529 
L 142.003097 481.69752 
L 142.281004 480.987522 
L 142.558912 482.052519 
L 142.83682 481.69752 
L 143.114728 484.182514 
L 143.392636 478.502529 
L 143.670544 484.182514 
L 143.948451 483.472516 
L 144.226359 478.857528 
L 144.504267 480.987522 
L 144.782175 479.922525 
L 145.060083 479.922525 
L 145.337991 481.342521 
L 145.615898 481.342521 
L 145.893806 480.277524 
L 146.449622 481.69752 
L 146.72753 479.567526 
L 147.005438 479.922525 
L 147.283345 480.987522 
L 147.561253 478.502529 
L 147.839161 480.277524 
L 148.117069 483.117516 
L 148.394977 481.342521 
L 148.672885 477.437532 
L 148.950792 480.277524 
L 149.2287 481.342521 
L 149.506608 478.857528 
L 149.784516 480.632523 
L 150.062424 483.472516 
L 150.340332 478.857528 
L 150.618239 480.987522 
L 150.896147 481.69752 
L 151.174055 480.277524 
L 151.451963 480.277524 
L 151.729871 479.212527 
L 152.007779 479.567526 
L 152.563594 482.052519 
L 152.841502 481.342521 
L 153.11941 482.407518 
L 153.397318 480.987522 
L 153.675226 480.277524 
L 153.953133 480.632523 
L 154.231041 482.407518 
L 154.508949 482.762517 
L 154.786857 478.502529 
L 155.064765 480.277524 
L 155.342673 478.14753 
L 155.62058 479.567526 
L 155.898488 482.052519 
L 156.454304 477.792531 
L 156.732212 479.212527 
L 157.010119 477.437532 
L 157.288027 483.117516 
L 157.565935 480.632523 
L 158.121751 477.792531 
L 158.399659 479.212527 
L 158.677566 478.14753 
L 158.955474 482.407518 
L 159.51129 479.922525 
L 159.789198 480.632523 
L 160.067106 482.407518 
L 160.345013 480.987522 
L 160.622921 481.342521 
L 160.900829 478.857528 
L 161.178737 480.277524 
L 161.456645 480.987522 
L 161.734553 479.567526 
L 162.01246 477.082533 
L 162.290368 478.14753 
L 162.568276 482.407518 
L 163.124092 477.792531 
L 163.402 481.342521 
L 163.679907 476.017536 
L 163.957815 474.952539 
L 164.235723 480.987522 
L 164.513631 478.502529 
L 164.791539 478.857528 
L 165.069447 477.437532 
L 165.347354 481.342521 
L 165.625262 479.922525 
L 165.90317 475.307538 
L 166.458986 483.117516 
L 166.736894 479.922525 
L 167.014801 481.342521 
L 167.292709 481.342521 
L 167.570617 476.727534 
L 167.848525 476.017536 
L 168.126433 480.632523 
L 168.404341 479.212527 
L 168.682248 481.342521 
L 168.960156 474.59754 
L 169.515972 480.277524 
L 169.79388 476.727534 
L 170.071788 480.277524 
L 170.349695 479.567526 
L 170.627603 477.437532 
L 170.905511 479.922525 
L 171.183419 479.567526 
L 171.461327 480.277524 
L 171.739235 478.502529 
L 172.017142 479.212527 
L 172.29505 479.212527 
L 172.572958 482.052519 
L 173.128774 479.567526 
L 173.406682 478.857528 
L 173.684589 479.922525 
L 173.962497 478.857528 
L 174.518313 480.277524 
L 174.796221 480.632523 
L 175.074129 478.857528 
L 175.352036 481.342521 
L 175.629944 477.437532 
L 175.907852 480.632523 
L 176.18576 480.632523 
L 176.463668 477.792531 
L 176.741576 481.342521 
L 177.019483 477.792531 
L 178.131115 477.792531 
L 178.409023 474.59754 
L 178.68693 481.69752 
L 178.964838 477.437532 
L 179.242746 477.792531 
L 179.520654 480.277524 
L 179.798562 480.632523 
L 180.07647 474.952539 
L 180.354377 479.212527 
L 180.632285 478.857528 
L 180.910193 477.082533 
L 181.188101 479.567526 
L 181.466009 474.952539 
L 181.743917 480.277524 
L 182.021824 473.887542 
L 182.299732 482.762517 
L 182.57764 481.342521 
L 182.855548 478.857528 
L 183.133456 477.792531 
L 183.411364 477.437532 
L 183.689271 479.922525 
L 183.967179 480.632523 
L 184.245087 478.857528 
L 184.522995 483.472516 
L 184.800903 474.952539 
L 185.078811 482.052519 
L 185.356718 477.082533 
L 185.634626 477.792531 
L 185.912534 476.727534 
L 186.190442 477.437532 
L 186.46835 476.372535 
L 187.024165 480.632523 
L 187.302073 480.987522 
L 187.579981 476.372535 
L 187.857889 479.212527 
L 188.135797 479.922525 
L 188.413704 476.727534 
L 188.691612 480.987522 
L 188.96952 476.017536 
L 189.247428 475.662537 
L 189.803244 472.822545 
L 190.081151 478.14753 
L 190.359059 478.14753 
L 190.636967 477.082533 
L 190.914875 473.532543 
L 191.192783 477.437532 
L 191.470691 476.372535 
L 192.026506 477.792531 
L 192.304414 477.792531 
L 192.582322 474.242541 
L 192.86023 474.242541 
L 193.138138 475.662537 
L 193.416045 477.792531 
L 193.693953 477.792531 
L 193.971861 476.727534 
L 194.249769 479.567526 
L 194.527677 474.59754 
L 194.805585 481.342521 
L 195.083492 477.437532 
L 195.3614 479.212527 
L 195.639308 479.922525 
L 195.917216 477.792531 
L 196.195124 480.987522 
L 197.028847 476.727534 
L 197.306755 478.857528 
L 197.584663 474.242541 
L 198.140479 478.502529 
L 198.418386 478.502529 
L 198.696294 475.662537 
L 198.974202 477.082533 
L 199.530018 475.307538 
L 199.807926 480.277524 
L 200.085833 477.437532 
L 200.363741 476.372535 
L 200.919557 475.662537 
L 201.197465 477.792531 
L 201.75328 476.372535 
L 202.309096 481.342521 
L 202.587004 471.757548 
L 202.864912 479.212527 
L 203.14282 479.922525 
L 203.420727 477.437532 
L 203.698635 473.177544 
L 203.976543 479.212527 
L 204.254451 478.857528 
L 204.532359 478.857528 
L 204.810267 476.727534 
L 205.088174 475.662537 
L 205.366082 473.532543 
L 205.64399 480.987522 
L 205.921898 475.662537 
L 206.199806 477.792531 
L 206.477714 475.662537 
L 207.033529 478.14753 
L 207.311437 472.112547 
L 207.589345 474.952539 
L 207.867253 472.467546 
L 208.145161 477.082533 
L 208.423068 472.467546 
L 208.700976 478.14753 
L 208.978884 475.662537 
L 209.256792 477.792531 
L 209.5347 475.307538 
L 209.812608 471.757548 
L 210.090515 474.952539 
L 210.368423 474.242541 
L 210.646331 474.59754 
L 210.924239 477.082533 
L 211.202147 473.177544 
L 211.480055 477.792531 
L 211.757962 474.59754 
L 212.03587 474.242541 
L 212.313778 474.59754 
L 212.591686 475.662537 
L 212.869594 471.757548 
L 213.147502 473.177544 
L 213.425409 477.792531 
L 213.703317 479.922525 
L 213.981225 474.242541 
L 214.259133 472.822545 
L 214.537041 476.727534 
L 215.092856 470.337551 
L 215.370764 476.372535 
L 215.92658 475.662537 
L 216.204488 474.952539 
L 216.482396 475.662537 
L 216.760303 475.307538 
L 217.038211 473.887542 
L 217.316119 474.242541 
L 217.594027 476.727534 
L 217.871935 477.082533 
L 218.149843 470.69255 
L 218.705658 473.532543 
L 218.983566 474.242541 
L 219.261474 476.017536 
L 219.539382 474.59754 
L 219.817289 471.402549 
L 220.095197 473.177544 
L 220.373105 476.727534 
L 220.651013 476.017536 
L 220.928921 476.017536 
L 221.484736 469.982552 
L 221.762644 474.242541 
L 222.040552 473.177544 
L 222.31846 475.307538 
L 222.596368 471.047549 
L 222.874276 476.372535 
L 223.152183 476.017536 
L 223.430091 475.307538 
L 223.707999 477.082533 
L 223.985907 476.372535 
L 224.263815 474.59754 
L 224.541723 476.017536 
L 224.81963 473.532543 
L 225.097538 472.822545 
L 225.375446 469.627553 
L 225.653354 477.082533 
L 225.931262 471.047549 
L 226.20917 476.727534 
L 226.764985 472.112547 
L 227.042893 471.402549 
L 227.320801 473.532543 
L 227.876617 474.242541 
L 228.154524 472.112547 
L 228.432432 468.207557 
L 228.71034 472.112547 
L 228.988248 478.857528 
L 229.266156 470.337551 
L 229.544064 475.307538 
L 229.821971 471.047549 
L 230.099879 472.822545 
L 230.377787 469.272554 
L 230.655695 469.982552 
L 230.933603 474.242541 
L 231.211511 473.887542 
L 231.489418 472.822545 
L 231.767326 472.822545 
L 232.045234 472.467546 
L 232.323142 475.662537 
L 232.60105 473.887542 
L 232.878958 475.307538 
L 233.156865 475.662537 
L 233.434773 478.502529 
L 233.990589 468.917555 
L 234.268497 475.662537 
L 234.546405 468.562556 
L 234.824312 470.69255 
L 235.10222 471.402549 
L 235.380128 471.047549 
L 235.658036 471.047549 
L 235.935944 472.822545 
L 236.213852 469.982552 
L 236.491759 472.822545 
L 236.769667 471.402549 
L 237.047575 474.242541 
L 237.603391 471.047549 
L 237.881299 472.112547 
L 238.159206 472.112547 
L 238.437114 469.627553 
L 238.715022 468.207557 
L 238.99293 472.822545 
L 239.270838 473.887542 
L 239.548746 473.532543 
L 239.826653 473.532543 
L 240.382469 467.852558 
L 240.660377 474.242541 
L 241.216193 471.757548 
L 241.4941 466.432562 
L 241.772008 469.982552 
L 242.049916 468.917555 
L 242.327824 469.982552 
L 242.605732 476.017536 
L 243.161547 465.367565 
L 243.439455 474.59754 
L 243.717363 475.662537 
L 243.995271 475.307538 
L 244.273179 468.207557 
L 244.551087 474.952539 
L 245.106902 467.497559 
L 245.38481 469.627553 
L 245.662718 473.887542 
L 245.940626 471.757548 
L 246.218534 465.367565 
L 246.496441 471.047549 
L 246.774349 469.272554 
L 247.052257 470.69255 
L 247.330165 473.177544 
L 247.608073 470.337551 
L 247.885981 469.982552 
L 248.163888 468.917555 
L 248.441796 466.432562 
L 248.719704 471.047549 
L 248.997612 468.207557 
L 249.27552 468.562556 
L 249.553428 469.272554 
L 249.831335 468.562556 
L 250.109243 470.337551 
L 250.387151 464.302568 
L 250.665059 469.982552 
L 250.942967 472.822545 
L 251.220874 469.982552 
L 251.498782 470.69255 
L 251.77669 468.917555 
L 252.054598 470.337551 
L 252.332506 466.077563 
L 252.610414 468.207557 
L 252.888321 467.497559 
L 253.166229 473.532543 
L 253.444137 463.59257 
L 253.722045 467.852558 
L 253.999953 467.852558 
L 254.277861 465.367565 
L 254.555768 469.627553 
L 254.833676 468.207557 
L 255.111584 463.947569 
L 255.6674 471.757548 
L 256.223215 467.852558 
L 256.779031 469.272554 
L 257.056939 466.787561 
L 257.612755 469.627553 
L 257.890662 472.822545 
L 258.16857 463.947569 
L 258.446478 464.657567 
L 258.724386 463.947569 
L 259.002294 469.272554 
L 259.280202 461.107577 
L 259.836017 469.627553 
L 260.113925 467.497559 
L 260.391833 468.562556 
L 260.669741 466.432562 
L 260.947649 471.757548 
L 261.225556 462.882572 
L 261.503464 470.337551 
L 261.781372 472.112547 
L 262.05928 466.787561 
L 262.337188 466.432562 
L 262.893003 467.852558 
L 263.170911 469.272554 
L 263.448819 467.497559 
L 263.726727 458.977582 
L 264.004635 464.657567 
L 264.282543 460.04258 
L 265.116266 469.982552 
L 265.394174 465.012566 
L 265.672082 467.14256 
L 265.94999 460.752578 
L 266.227897 461.107577 
L 266.505805 461.817575 
L 266.783713 463.947569 
L 267.061621 467.852558 
L 267.339529 465.012566 
L 267.617437 466.787561 
L 267.895344 462.882572 
L 268.173252 461.817575 
L 268.729068 463.59257 
L 269.006976 460.752578 
L 269.284884 464.302568 
L 269.562791 463.59257 
L 269.840699 465.012566 
L 270.118607 463.947569 
L 270.396515 467.852558 
L 270.674423 461.817575 
L 270.952331 465.012566 
L 271.230238 462.172574 
L 271.508146 466.077563 
L 271.786054 464.302568 
L 272.063962 464.657567 
L 272.34187 460.752578 
L 272.619778 465.722564 
L 273.175593 463.237571 
L 273.731409 460.752578 
L 274.009317 460.752578 
L 274.287225 468.917555 
L 274.565132 463.947569 
L 274.84304 466.077563 
L 275.120948 458.267584 
L 275.676764 464.657567 
L 275.954672 464.302568 
L 276.232579 462.527573 
L 276.510487 462.527573 
L 276.788395 461.462576 
L 277.066303 462.527573 
L 277.344211 458.977582 
L 277.622119 458.977582 
L 277.900026 463.947569 
L 278.177934 465.012566 
L 278.455842 457.912585 
L 278.73375 461.817575 
L 279.011658 461.107577 
L 279.289566 463.59257 
L 279.567473 460.04258 
L 279.845381 458.977582 
L 280.123289 454.007596 
L 280.401197 465.012566 
L 280.957013 455.072593 
L 281.23492 465.722564 
L 281.512828 459.687581 
L 281.790736 461.462576 
L 282.068644 457.557586 
L 282.346552 458.267584 
L 282.624459 457.202587 
L 282.902367 462.172574 
L 283.180275 457.202587 
L 283.458183 459.332582 
L 283.736091 459.332582 
L 284.013999 460.04258 
L 284.291906 459.687581 
L 284.569814 458.267584 
L 284.847722 466.432562 
L 285.12563 459.687581 
L 285.403538 456.847588 
L 285.681446 458.267584 
L 285.959353 456.13759 
L 286.237261 452.942599 
L 286.515169 458.622583 
L 286.793077 454.007596 
L 287.348893 461.107577 
L 287.6268 460.752578 
L 287.904708 462.882572 
L 288.182616 451.877602 
L 288.460524 463.237571 
L 289.01634 453.297598 
L 289.294247 458.977582 
L 289.572155 455.782591 
L 289.850063 456.13759 
L 290.127971 461.817575 
L 290.683787 450.457606 
L 290.961694 456.847588 
L 291.239602 452.5876 
L 291.51751 457.912585 
L 291.795418 452.942599 
L 292.073326 457.202587 
L 292.351234 451.877602 
L 292.629141 452.232601 
L 292.907049 453.652597 
L 293.184957 453.297598 
L 293.462865 454.717594 
L 293.740773 458.977582 
L 294.018681 460.04258 
L 294.296588 449.747608 
L 294.574496 447.262615 
L 294.852404 448.327612 
L 295.130312 457.202587 
L 295.40822 455.427592 
L 295.686128 455.427592 
L 296.241943 460.752578 
L 296.519851 453.652597 
L 296.797759 453.297598 
L 297.075667 456.492589 
L 297.353575 452.942599 
L 297.631482 451.167604 
L 297.90939 452.232601 
L 298.187298 451.522603 
L 298.465206 455.072593 
L 298.743114 454.007596 
L 299.298929 447.617614 
L 299.854745 452.5876 
L 300.132653 451.877602 
L 300.410561 453.652597 
L 300.688469 445.842618 
L 300.966376 457.557586 
L 301.522192 454.007596 
L 301.8001 454.007596 
L 302.078008 449.747608 
L 302.355916 447.972613 
L 302.633823 454.007596 
L 302.911731 449.392609 
L 303.189639 453.652597 
L 303.467547 442.647627 
L 303.745455 452.942599 
L 304.023363 446.907615 
L 304.30127 455.427592 
L 304.857086 445.13262 
L 305.134994 449.747608 
L 305.412902 450.102607 
L 305.69081 449.747608 
L 305.968717 445.487619 
L 306.246625 443.712624 
L 306.524533 438.387639 
L 306.802441 445.487619 
L 307.080349 449.392609 
L 307.358257 448.327612 
L 307.636164 449.747608 
L 307.914072 446.197617 
L 308.19198 449.03761 
L 308.469888 448.682611 
L 308.747796 443.002626 
L 309.025704 446.552616 
L 309.303611 444.067623 
L 309.581519 449.03761 
L 309.859427 442.292628 
L 310.137335 446.552616 
L 310.415243 446.907615 
L 310.693151 439.097637 
L 310.971058 441.937629 
L 311.248966 446.197617 
L 311.526874 444.067623 
L 311.804782 438.387639 
L 312.08269 443.357625 
L 312.360597 444.777621 
L 312.638505 448.327612 
L 312.916413 447.972613 
L 313.194321 449.392609 
L 313.472229 447.262615 
L 313.750137 433.772651 
L 314.028044 447.262615 
L 314.305952 439.452636 
L 314.58386 446.197617 
L 314.861768 446.197617 
L 315.139676 442.647627 
L 315.417584 445.13262 
L 315.973399 447.617614 
L 316.251307 440.162634 
L 316.529215 446.907615 
L 316.807123 434.12765 
L 317.085031 433.772651 
L 317.640846 440.517633 
L 318.196662 444.067623 
L 318.752478 437.677641 
L 319.030385 439.452636 
L 319.308293 438.03264 
L 319.586201 438.742638 
L 319.864109 434.482649 
L 320.142017 436.257645 
L 320.419925 435.902646 
L 320.697832 441.227631 
L 320.97574 432.707654 
L 321.253648 443.712624 
L 321.531556 439.097637 
L 322.087372 445.13262 
L 322.643187 440.517633 
L 322.921095 428.802665 
L 323.199003 441.227631 
L 323.476911 440.162634 
L 323.754819 436.612644 
L 324.032726 442.292628 
L 324.310634 420.282688 
L 324.588542 431.287658 
L 324.86645 431.997656 
L 325.144358 433.417652 
L 325.422266 437.677641 
L 325.700173 433.772651 
L 325.978081 436.967643 
L 326.255989 433.062653 
L 326.533897 434.837648 
L 327.089713 430.222661 
L 327.36762 436.612644 
L 327.645528 430.222661 
L 327.923436 439.807635 
L 328.479252 428.092667 
L 328.75716 434.482649 
L 329.035067 430.932659 
L 329.312975 433.417652 
L 329.590883 433.772651 
L 329.868791 431.642657 
L 330.146699 430.57766 
L 330.424607 435.192648 
L 330.702514 434.12765 
L 330.980422 427.737668 
L 331.25833 429.512663 
L 331.536238 418.152694 
L 331.814146 423.47768 
L 332.092054 425.962673 
L 332.369961 426.317672 
L 332.647869 423.47768 
L 332.925777 424.897676 
L 333.481593 422.767681 
L 333.759501 415.667701 
L 334.037408 429.512663 
L 334.315316 423.832679 
L 334.593224 412.827709 
L 334.871132 429.512663 
L 335.14904 431.642657 
L 335.704855 417.797695 
L 335.982763 416.732698 
L 336.538579 420.282688 
L 337.094395 421.702684 
L 337.372302 429.867662 
L 337.928118 413.182708 
L 338.206026 418.862692 
L 338.483934 411.407713 
L 338.761842 411.052714 
L 339.039749 423.122681 
L 339.317657 410.697714 
L 339.595565 416.0227 
L 339.873473 427.382669 
L 340.151381 414.602704 
L 340.429289 417.087697 
L 340.707196 410.342715 
L 340.985104 412.827709 
L 341.263012 416.732698 
L 341.54092 414.957703 
L 341.818828 416.377699 
L 342.096736 406.082727 
L 342.374643 410.697714 
L 342.652551 406.082727 
L 342.930459 413.182708 
L 343.208367 411.762712 
L 343.764182 405.372729 
L 344.04209 408.56772 
L 344.319998 414.602704 
L 344.597906 408.56772 
L 344.875814 400.047744 
L 345.153722 404.662731 
L 345.431629 403.952733 
L 345.709537 402.532737 
L 345.987445 402.887736 
L 346.265353 396.852752 
L 346.543261 400.757742 
L 347.099076 389.397773 
L 347.376984 400.402743 
L 347.654892 402.532737 
L 347.9328 402.177738 
L 348.210708 392.592764 
L 348.488616 403.242735 
L 348.766523 389.752772 
L 349.044431 396.497753 
L 349.322339 392.237765 
L 349.600247 402.887736 
L 349.878155 395.787755 
L 350.156063 395.787755 
L 350.43397 398.982747 
L 350.711878 385.137784 
L 350.989786 391.172768 
L 351.267694 384.072787 
L 351.82351 402.177738 
L 352.101417 387.267779 
L 352.379325 385.137784 
L 352.657233 385.137784 
L 352.935141 387.267779 
L 353.213049 381.232795 
L 353.490957 370.937823 
L 353.768864 368.807829 
L 354.046772 385.137784 
L 354.32468 376.262809 
L 354.602588 391.882766 
L 354.880496 389.042774 
L 355.158404 379.102801 
L 355.436311 380.167798 
L 355.714219 366.677835 
L 355.992127 362.772845 
L 356.270035 371.292822 
L 356.547943 368.45283 
L 356.825851 360.287852 
L 357.381666 368.807829 
L 357.659574 368.807829 
L 357.937482 367.387833 
L 358.21539 378.747802 
L 358.493298 367.742832 
L 358.771205 361.707848 
L 359.049113 360.99785 
L 359.327021 364.192842 
L 359.882837 350.702878 
L 360.438652 355.317866 
L 360.71656 362.772845 
L 360.994468 353.187872 
L 361.272376 357.44786 
L 361.550284 338.277912 
L 361.828192 339.697909 
L 362.106099 348.217885 
L 362.384007 350.347879 
L 362.661915 353.542871 
L 363.217731 332.242929 
L 363.495639 331.177932 
L 363.773546 343.602898 
L 364.051454 332.952927 
L 364.329362 341.117905 
L 364.60727 333.307926 
L 364.885178 345.377893 
L 365.163086 331.532931 
L 365.718901 345.022894 
L 365.996809 338.632911 
L 366.274717 315.202976 
L 366.830533 323.367953 
L 367.10844 327.982941 
L 367.386348 327.627942 
L 367.664256 312.362983 
L 367.942164 312.007984 
L 368.220072 327.982941 
L 368.49798 319.817963 
L 368.775887 317.687969 
L 369.331703 305.263003 
L 369.609611 303.488008 
L 369.887519 310.942987 
L 370.165427 287.158052 
L 370.443334 296.388027 
L 370.99915 291.063042 
L 371.277058 283.608062 
L 371.554966 298.87302 
L 371.832874 286.448054 
L 372.110781 301.713012 
L 372.388689 279.703073 
L 372.666597 275.443084 
L 372.944505 274.023088 
L 373.222413 286.448054 
L 374.056136 264.793113 
L 374.611952 273.31309 
L 374.88986 269.7631 
L 375.167767 252.723146 
L 375.445675 247.043162 
L 375.723583 251.658149 
L 376.001491 245.268167 
L 376.279399 255.20814 
L 376.557307 249.528155 
L 376.835214 257.693133 
L 377.113122 252.013148 
L 377.39103 255.918138 
L 377.668938 233.553199 
L 377.946846 238.523185 
L 378.224754 235.683193 
L 378.502661 237.103189 
L 378.780569 228.228213 
L 379.058477 223.968225 
L 379.336385 234.263197 
L 379.614293 215.448248 
L 379.892201 214.383251 
L 380.170108 210.123263 
L 380.448016 194.148306 
L 380.725924 201.958285 
L 381.003832 199.828291 
L 381.28174 208.703267 
L 381.559648 181.72334 
L 381.837555 188.823321 
L 382.115463 189.533319 
L 382.393371 177.108353 
L 382.671279 200.538289 
L 382.949187 182.788338 
L 383.227095 193.083309 
L 383.78291 171.428369 
L 384.060818 169.298374 
L 384.338726 166.103383 
L 384.616634 160.0684 
L 384.894542 150.483426 
L 385.172449 154.033416 
L 385.450357 145.513439 
L 385.728265 149.418429 
L 386.284081 124.568497 
L 386.561989 123.5035 
L 386.839896 120.308508 
L 387.117804 130.248481 
L 387.395712 91.908586 
L 387.67362 103.978553 
L 387.951528 125.278495 
L 388.507343 87.293599 
L 388.785251 99.718565 
L 389.063159 129.538483 
L 389.341067 73.448636 
L 389.618975 65.993657 
L 389.896883 68.833649 
L 390.17479 92.618584 
L 390.452698 62.443667 
L 390.730606 63.153665 
L 391.008514 56.763682 
L 391.56433 63.508664 
L 391.842237 47.888706 
L 392.120145 39.36873 
L 392.398053 44.693715 
L 392.953869 23.393773 
L 393.787592 138.768458 
L 394.0655 137.703461 
L 394.899224 203.73328 
L 395.177131 201.248287 
L 395.455039 210.123263 
L 396.010855 249.883154 
L 396.288763 253.433144 
L 396.566671 264.438114 
L 396.844578 266.213109 
L 397.122486 289.643045 
L 397.400394 282.898064 
L 397.678302 292.483038 
L 397.95621 317.33297 
L 398.234118 312.717982 
L 398.512025 317.33297 
L 398.789933 345.022894 
L 399.067841 340.762906 
L 399.623657 351.412877 
L 399.901565 372.357819 
L 400.179472 367.387833 
L 400.45738 383.00779 
L 401.291104 400.402743 
L 401.569012 402.887736 
L 402.124827 425.252675 
L 402.402735 425.962673 
L 402.680643 434.837648 
L 402.958551 438.742638 
L 403.236459 446.197617 
L 403.792274 451.877602 
L 404.070182 462.172574 
L 404.34809 456.847588 
L 404.625998 464.302568 
L 404.903906 468.207557 
L 405.181813 468.207557 
L 405.737629 475.662537 
L 406.015537 479.212527 
L 406.84926 484.892512 
L 407.127168 488.087503 
L 407.405076 488.797501 
L 407.682984 488.442502 
L 407.960892 487.022506 
L 408.238799 486.312508 
L 408.794615 477.792531 
L 409.350431 469.627553 
L 409.628339 469.272554 
L 409.906246 467.497559 
L 410.462062 457.557586 
L 410.73997 461.462576 
L 411.017878 446.552616 
L 411.295786 455.427592 
L 411.573693 441.937629 
L 411.851601 438.742638 
L 412.407417 422.767681 
L 412.685325 423.47768 
L 412.963233 419.217691 
L 413.24114 404.307732 
L 413.519048 396.852752 
L 413.796956 397.207751 
L 414.074864 386.202781 
L 414.352772 387.267779 
L 414.63068 373.777815 
L 414.908587 379.812799 
L 415.186495 352.477874 
L 415.464403 352.477874 
L 415.742311 342.182902 
L 416.020219 327.272943 
L 416.298127 335.082921 
L 416.853942 310.587988 
L 417.13185 291.063042 
L 417.409758 292.483038 
L 417.687666 275.443084 
L 417.965574 268.343104 
L 418.243481 250.593152 
L 418.521389 249.173156 
L 418.799297 240.653179 
L 419.077205 246.333164 
L 419.355113 217.933241 
L 419.910928 194.503306 
L 420.188836 173.558363 
L 420.466744 173.558363 
L 421.02256 105.753548 
L 421.300468 91.908586 
L 421.578375 46.46871 
L 421.856283 19.488784 
L 422.134191 37.948734 
L 422.412099 35.46374 
L 422.690007 42.563721 
L 422.967915 60.668671 
L 423.245822 48.953703 
L 423.52373 55.343686 
L 423.801638 51.793696 
L 424.079546 83.03361 
L 424.357454 63.153665 
L 424.635362 86.583601 
L 424.913269 72.02864 
L 425.191177 70.963643 
L 425.469085 74.868633 
L 425.746993 111.078534 
L 426.302809 85.518603 
L 426.580716 100.428563 
L 426.858624 102.558557 
L 427.136532 125.278495 
L 427.41444 125.988493 
L 427.692348 118.888512 
L 428.248163 148.708431 
L 428.526071 130.60348 
L 429.081887 159.358402 
L 429.359795 146.933436 
L 429.637703 152.968419 
L 429.91561 156.16341 
L 430.193518 147.643434 
L 430.749334 176.043356 
L 431.30515 163.61839 
L 431.583057 184.208334 
L 431.860965 177.818351 
L 432.138873 184.563333 
L 432.416781 207.63827 
L 432.694689 195.213304 
L 432.972597 187.758324 
L 433.250504 184.208334 
L 433.528412 199.118293 
L 433.80632 199.828291 
L 434.084228 215.093249 
L 434.362136 215.803247 
L 434.640044 222.19323 
L 434.917951 232.843201 
L 435.195859 213.318254 
L 435.473767 213.673253 
L 435.751675 225.388221 
L 436.029583 214.73825 
L 436.585398 246.688163 
L 436.863306 233.1982 
L 437.141214 248.818157 
L 437.419122 236.393191 
L 437.69703 256.628136 
L 437.974937 229.29321 
L 438.252845 258.048132 
L 438.530753 251.658149 
L 438.808661 238.523185 
L 439.086569 258.75813 
L 439.364477 249.173156 
L 439.642384 255.20814 
L 439.920292 265.148112 
L 440.1982 261.598122 
L 440.476108 277.218079 
L 440.754016 278.283076 
L 441.031924 268.698103 
L 441.309831 264.438114 
L 441.865647 289.643045 
L 442.143555 287.158052 
L 442.421463 280.76807 
L 442.699371 281.478068 
L 442.977278 278.283076 
L 443.255186 295.32303 
L 443.533094 297.808023 
L 443.811002 286.448054 
L 444.08891 307.747996 
L 444.366818 306.682999 
L 444.644725 287.86805 
L 444.922633 303.133009 
L 445.200541 303.488008 
L 445.478449 296.388027 
L 445.756357 320.88296 
L 446.034265 300.293016 
L 446.312172 316.977971 
L 446.59008 315.912974 
L 446.867988 307.037998 
L 447.145896 317.687969 
L 447.423804 312.007984 
L 447.701712 325.852946 
L 447.979619 310.587988 
L 448.257527 325.852946 
L 448.535435 314.137978 
L 448.813343 323.722952 
L 449.091251 325.142948 
L 449.369159 330.467934 
L 449.647066 342.182902 
L 449.924974 341.827903 
L 450.48079 333.662925 
L 450.758698 357.802859 
L 451.314513 336.147918 
L 451.592421 330.467934 
L 452.148237 348.217885 
L 452.426145 346.44289 
L 452.704053 354.607868 
L 452.98196 345.022894 
L 453.259868 364.192842 
L 453.537776 344.312896 
L 453.815684 357.092861 
L 454.093592 356.027864 
L 454.3715 359.932853 
L 454.649407 357.092861 
L 454.927315 360.642851 
L 455.205223 350.347879 
L 455.483131 374.132814 
L 455.761039 368.807829 
L 456.038947 348.217885 
L 456.316854 380.522797 
L 456.594762 361.352849 
L 456.87267 370.227825 
L 457.150578 371.292822 
L 457.428486 357.092861 
L 457.706394 374.842813 
L 457.984301 371.292822 
L 458.262209 369.517827 
L 458.540117 381.942793 
L 458.818025 378.747802 
L 459.095933 372.00282 
L 459.373841 379.4578 
L 459.651748 370.582824 
L 459.929656 382.297792 
L 460.207564 378.747802 
L 460.485472 378.037804 
L 460.76338 383.362789 
L 461.041288 382.652791 
L 461.319195 376.262809 
L 461.597103 390.107771 
L 461.875011 388.332776 
L 462.430827 379.102801 
L 462.986642 395.077757 
L 463.26455 380.167798 
L 463.542458 390.107771 
L 463.820366 375.90781 
L 464.098274 390.107771 
L 464.376182 392.237765 
L 464.654089 400.047744 
L 464.931997 391.172768 
L 465.209905 391.172768 
L 465.487813 392.947763 
L 465.765721 402.887736 
L 466.043629 401.112741 
L 466.321536 389.397773 
L 466.599444 400.757742 
L 466.877352 405.372729 
L 467.15526 393.657761 
L 467.433168 403.597734 
L 467.711075 402.532737 
L 467.988983 397.56275 
L 468.266891 404.307732 
L 468.544799 399.692745 
L 468.822707 409.277718 
L 469.100615 401.46774 
L 469.378522 414.602704 
L 469.65643 389.752772 
L 469.934338 411.407713 
L 470.212246 406.792725 
L 470.490154 395.077757 
L 471.045969 412.117711 
L 471.323877 407.147724 
L 471.601785 407.857722 
L 472.157601 414.247705 
L 472.435509 419.927689 
L 472.713416 405.372729 
L 472.991324 418.507693 
L 473.269232 414.602704 
L 473.54714 418.152694 
L 473.825048 419.217691 
L 474.102956 406.082727 
L 474.658771 414.602704 
L 474.936679 411.407713 
L 475.214587 412.827709 
L 475.492495 413.182708 
L 475.770403 424.897676 
L 476.04831 425.607674 
L 476.326218 423.122681 
L 476.604126 418.862692 
L 476.882034 418.507693 
L 477.159942 417.797695 
L 477.43785 417.442696 
L 477.715757 414.957703 
L 477.993665 424.542677 
L 478.271573 420.282688 
L 478.549481 425.962673 
L 478.827389 422.767681 
L 479.105297 414.247705 
L 479.383204 417.442696 
L 479.93902 430.222661 
L 480.216928 425.252675 
L 480.494836 428.802665 
L 480.772744 424.897676 
L 481.050651 429.157664 
L 481.328559 427.02767 
L 481.606467 421.347685 
L 481.884375 420.637687 
L 482.162283 424.187678 
L 482.440191 425.252675 
L 482.718098 428.802665 
L 482.996006 424.187678 
L 483.273914 427.02767 
L 483.551822 424.542677 
L 483.82973 423.47768 
L 484.107638 419.927689 
L 484.385545 431.642657 
L 484.663453 419.217691 
L 484.941361 426.317672 
L 485.219269 425.252675 
L 485.497177 420.282688 
L 485.775085 438.03264 
L 486.052992 420.992686 
L 486.608808 425.962673 
L 486.886716 422.412682 
L 487.164624 429.867662 
L 487.442532 424.187678 
L 487.720439 430.222661 
L 487.998347 431.287658 
L 488.276255 429.512663 
L 488.554163 437.322642 
L 488.832071 434.837648 
L 489.109979 433.772651 
L 489.387886 427.382669 
L 489.665794 435.902646 
L 489.943702 426.317672 
L 490.22161 440.872632 
L 490.499518 439.452636 
L 490.777426 436.612644 
L 491.055333 437.677641 
L 491.333241 423.832679 
L 491.611149 436.967643 
L 491.889057 434.837648 
L 492.166965 436.967643 
L 492.444873 442.647627 
L 492.72278 425.607674 
L 493.000688 427.02767 
L 493.278596 436.612644 
L 493.556504 441.937629 
L 493.834412 438.387639 
L 494.11232 437.322642 
L 494.390227 439.452636 
L 494.668135 444.422622 
L 494.946043 433.417652 
L 495.223951 430.932659 
L 495.779767 444.422622 
L 496.057674 433.417652 
L 496.335582 441.58263 
L 496.61349 441.227631 
L 496.891398 445.13262 
L 497.169306 440.162634 
L 497.447214 439.452636 
L 497.725121 440.517633 
L 498.003029 438.03264 
L 498.280937 443.002626 
L 498.558845 439.097637 
L 498.836753 439.452636 
L 499.11466 447.972613 
L 499.392568 440.517633 
L 499.948384 447.617614 
L 500.226292 443.712624 
L 500.5042 438.03264 
L 500.782107 447.972613 
L 501.060015 448.682611 
L 501.337923 449.03761 
L 501.615831 447.972613 
L 501.893739 447.617614 
L 502.449554 443.712624 
L 502.727462 442.647627 
L 503.00537 449.747608 
L 503.283278 441.937629 
L 503.561186 447.972613 
L 503.839094 450.102607 
L 504.117001 451.167604 
L 504.394909 447.617614 
L 504.672817 446.197617 
L 504.950725 449.392609 
L 505.228633 449.747608 
L 505.506541 448.682611 
L 506.062356 438.03264 
L 506.340264 455.072593 
L 506.618172 448.682611 
L 506.89608 449.03761 
L 507.173988 450.102607 
L 507.451895 448.682611 
L 507.729803 453.297598 
L 508.007711 441.937629 
L 508.285619 437.677641 
L 508.563527 450.812605 
L 508.841435 445.842618 
L 509.119342 449.392609 
L 509.675158 445.13262 
L 509.953066 451.167604 
L 510.230974 453.652597 
L 510.508882 443.712624 
L 510.786789 454.362595 
L 511.064697 455.782591 
L 511.342605 445.13262 
L 511.620513 446.552616 
L 511.898421 450.102607 
L 512.176329 449.03761 
L 512.454236 453.297598 
L 512.732144 452.5876 
L 513.010052 448.327612 
L 513.28796 447.972613 
L 513.565868 450.812605 
L 513.843776 451.167604 
L 514.121683 454.717594 
L 514.399591 450.812605 
L 514.677499 449.392609 
L 515.233315 454.007596 
L 515.511223 453.297598 
L 515.78913 450.102607 
L 516.067038 452.5876 
L 516.344946 456.13759 
L 516.622854 453.297598 
L 516.900762 452.5876 
L 517.17867 456.13759 
L 517.456577 455.782591 
L 517.734485 457.202587 
L 518.012393 457.202587 
L 518.290301 451.877602 
L 518.568209 461.107577 
L 518.846117 460.04258 
L 519.124024 454.717594 
L 519.401932 453.297598 
L 519.67984 457.202587 
L 519.957748 454.007596 
L 520.235656 454.362595 
L 520.513564 451.522603 
L 520.791471 450.457606 
L 521.347287 459.687581 
L 521.625195 456.492589 
L 521.903103 455.427592 
L 522.181011 451.877602 
L 522.458918 457.557586 
L 522.736826 455.072593 
L 523.014734 456.492589 
L 523.292642 454.007596 
L 523.57055 449.392609 
L 523.848458 457.202587 
L 524.126365 456.13759 
L 524.404273 460.397579 
L 524.682181 456.13759 
L 524.960089 455.072593 
L 525.237997 452.232601 
L 525.793812 462.172574 
L 526.07172 456.13759 
L 526.349628 456.13759 
L 526.627536 462.882572 
L 526.905444 461.107577 
L 527.183352 456.13759 
L 527.461259 458.977582 
L 527.739167 458.267584 
L 528.017075 464.302568 
L 528.294983 462.172574 
L 528.572891 458.267584 
L 528.850799 460.397579 
L 529.406614 456.492589 
L 529.684522 462.172574 
L 529.96243 464.302568 
L 530.240338 457.202587 
L 530.518245 456.13759 
L 530.796153 461.817575 
L 531.074061 449.747608 
L 531.351969 451.522603 
L 531.629877 455.427592 
L 531.907785 461.462576 
L 532.185692 457.557586 
L 532.4636 462.172574 
L 532.741508 462.527573 
L 533.019416 459.332582 
L 533.297324 464.302568 
L 533.575232 462.527573 
L 533.853139 456.847588 
L 534.131047 458.977582 
L 534.408955 463.59257 
L 534.686863 458.267584 
L 534.964771 459.332582 
L 535.242679 465.367565 
L 535.520586 463.947569 
L 535.798494 460.04258 
L 536.35431 458.622583 
L 536.632218 461.107577 
L 536.910126 467.14256 
L 537.188033 463.947569 
L 537.465941 456.13759 
L 537.743849 462.527573 
L 538.021757 464.302568 
L 538.299665 458.977582 
L 538.577573 463.59257 
L 538.85548 465.012566 
L 539.133388 462.172574 
L 539.411296 468.562556 
L 539.689204 461.107577 
L 539.967112 457.557586 
L 540.24502 462.882572 
L 540.522927 460.752578 
L 540.800835 467.852558 
L 541.078743 459.687581 
L 541.356651 459.687581 
L 541.634559 466.432562 
L 541.912467 463.59257 
L 542.190374 462.882572 
L 542.468282 464.657567 
L 542.74619 462.882572 
L 543.024098 464.302568 
L 543.302006 462.172574 
L 543.579914 465.722564 
L 543.857821 460.397579 
L 544.135729 465.012566 
L 544.413637 460.397579 
L 544.691545 464.302568 
L 544.969453 464.302568 
L 545.247361 462.172574 
L 545.525268 458.977582 
L 545.803176 462.882572 
L 546.081084 463.947569 
L 546.358992 460.397579 
L 546.6369 466.432562 
L 546.914808 462.527573 
L 547.192715 469.982552 
L 547.470623 465.367565 
L 547.748531 467.852558 
L 548.026439 462.882572 
L 548.304347 462.882572 
L 548.582255 462.527573 
L 548.860162 466.787561 
L 549.13807 466.077563 
L 549.415978 462.882572 
L 549.693886 463.947569 
L 549.971794 460.397579 
L 550.249702 467.852558 
L 550.527609 471.047549 
L 550.805517 469.982552 
L 551.083425 463.947569 
L 551.361333 472.467546 
L 551.639241 465.012566 
L 551.917149 463.947569 
L 552.195056 465.012566 
L 552.750872 468.562556 
L 553.02878 460.04258 
L 553.584596 468.562556 
L 553.862503 464.657567 
L 554.140411 465.367565 
L 554.418319 467.14256 
L 554.696227 470.337551 
L 554.974135 459.687581 
L 555.252043 474.242541 
L 555.52995 466.077563 
L 555.807858 469.272554 
L 556.085766 467.14256 
L 556.363674 462.527573 
L 556.641582 470.337551 
L 556.91949 468.917555 
L 557.197397 468.207557 
L 557.475305 463.59257 
L 557.753213 463.947569 
L 558.031121 472.467546 
L 558.309029 467.852558 
L 558.586937 471.402549 
L 558.864844 466.787561 
L 559.142752 470.337551 
L 559.42066 468.207557 
L 559.698568 464.657567 
L 559.976476 467.497559 
L 560.254384 472.112547 
L 560.532291 467.497559 
L 560.810199 467.497559 
L 561.088107 468.562556 
L 561.366015 472.112547 
L 561.643923 467.14256 
L 561.92183 473.532543 
L 562.477646 464.657567 
L 562.755554 467.852558 
L 563.033462 468.207557 
L 563.31137 467.852558 
L 563.589277 465.367565 
L 563.867185 470.337551 
L 564.145093 471.757548 
L 564.423001 469.627553 
L 564.700909 472.822545 
L 564.978817 470.337551 
L 565.256724 468.917555 
L 565.534632 470.337551 
L 565.81254 472.822545 
L 566.090448 470.69255 
L 566.368356 466.077563 
L 566.646264 469.627553 
L 566.924171 463.947569 
L 567.202079 468.562556 
L 567.479987 468.917555 
L 567.757895 464.302568 
L 568.035803 474.59754 
L 568.313711 469.627553 
L 568.591618 470.69255 
L 568.869526 467.497559 
L 569.147434 470.337551 
L 569.425342 471.047549 
L 569.70325 473.177544 
L 569.981158 470.69255 
L 570.259065 465.367565 
L 570.814881 471.402549 
L 571.092789 469.627553 
L 571.370697 469.982552 
L 571.648605 469.272554 
L 571.926512 468.207557 
L 572.20442 476.017536 
L 572.482328 471.047549 
L 573.038144 476.372535 
L 573.316052 465.012566 
L 573.593959 473.887542 
L 573.871867 474.952539 
L 574.149775 469.272554 
L 574.427683 470.69255 
L 574.705591 471.402549 
L 574.983499 470.69255 
L 575.261406 468.917555 
L 575.539314 472.467546 
L 575.817222 471.047549 
L 576.09513 475.307538 
L 576.650946 469.627553 
L 576.928853 468.917555 
L 577.206761 474.59754 
L 577.484669 470.69255 
L 577.762577 472.467546 
L 578.040485 469.627553 
L 578.318393 468.917555 
L 578.5963 475.307538 
L 578.874208 471.402549 
L 579.152116 473.532543 
L 579.430024 474.242541 
L 579.707932 468.207557 
L 579.98584 467.852558 
L 580.263747 476.017536 
L 580.819563 469.272554 
L 581.097471 473.532543 
L 581.375379 474.242541 
L 581.653287 473.177544 
L 581.931194 476.727534 
L 582.209102 472.467546 
L 582.48701 471.047549 
L 582.764918 468.207557 
L 583.320734 475.307538 
L 583.598641 475.662537 
L 583.876549 469.272554 
L 584.154457 474.59754 
L 584.432365 471.047549 
L 584.710273 472.467546 
L 584.988181 471.757548 
L 585.266088 474.59754 
L 585.543996 475.662537 
L 585.821904 471.757548 
L 586.099812 472.467546 
L 586.37772 470.337551 
L 586.655628 474.59754 
L 586.933535 473.532543 
L 587.211443 469.272554 
L 587.489351 472.822545 
L 587.767259 473.532543 
L 588.045167 473.887542 
L 588.323075 473.887542 
L 588.600982 477.082533 
L 588.87889 473.887542 
L 589.156798 474.952539 
L 589.434706 472.467546 
L 589.712614 474.242541 
L 589.990522 473.177544 
L 590.268429 473.177544 
L 590.546337 477.082533 
L 590.824245 472.822545 
L 591.102153 470.337551 
L 591.380061 473.887542 
L 591.657969 474.59754 
L 591.935876 472.822545 
L 592.213784 474.59754 
L 592.491692 475.307538 
L 592.7696 476.372535 
L 593.047508 475.662537 
L 593.325415 477.792531 
L 593.603323 474.952539 
L 593.881231 474.59754 
L 594.437047 472.112547 
L 594.714955 472.822545 
L 594.992862 475.662537 
L 595.27077 471.047549 
L 595.548678 471.757548 
L 596.104494 476.372535 
L 596.382402 475.662537 
L 596.660309 473.177544 
L 596.938217 478.14753 
L 597.216125 473.532543 
L 597.494033 471.402549 
L 597.771941 477.792531 
L 598.327756 473.177544 
L 599.16148 479.922525 
L 599.439388 476.017536 
L 599.717296 476.372535 
L 599.995203 478.502529 
L 600.273111 478.502529 
L 600.551019 476.017536 
L 600.828927 475.662537 
L 601.106835 473.532543 
L 601.384743 477.082533 
L 601.66265 474.952539 
L 601.940558 476.017536 
L 602.218466 476.017536 
L 602.496374 477.437532 
L 602.774282 472.467546 
L 603.05219 474.242541 
L 603.330097 478.857528 
L 603.608005 472.467546 
L 603.885913 472.467546 
L 604.163821 474.242541 
L 604.441729 471.757548 
L 604.719637 471.047549 
L 605.275452 472.822545 
L 605.55336 476.017536 
L 605.831268 476.372535 
L 606.109176 475.662537 
L 606.387084 478.857528 
L 606.664991 471.047549 
L 606.942899 476.372535 
L 607.220807 477.082533 
L 607.498715 474.59754 
L 607.776623 475.662537 
L 608.054531 473.177544 
L 608.332438 474.59754 
L 608.610346 477.437532 
L 608.888254 476.017536 
L 609.166162 479.212527 
L 609.44407 472.467546 
L 609.721978 476.372535 
L 609.999885 476.727534 
L 610.277793 476.372535 
L 610.555701 473.887542 
L 610.833609 479.212527 
L 611.389425 473.887542 
L 611.667332 475.662537 
L 611.94524 476.372535 
L 612.223148 476.017536 
L 612.501056 475.307538 
L 612.778964 476.727534 
L 613.056872 477.082533 
L 613.334779 475.662537 
L 613.612687 473.532543 
L 613.890595 479.567526 
L 614.168503 474.59754 
L 614.446411 479.212527 
L 614.724319 475.307538 
L 615.002226 479.212527 
L 615.280134 479.922525 
L 615.558042 477.437532 
L 615.83595 477.082533 
L 616.113858 477.082533 
L 616.391766 476.017536 
L 616.669673 479.567526 
L 616.947581 478.857528 
L 617.503397 473.177544 
L 617.781305 478.857528 
L 618.33712 474.242541 
L 618.615028 481.342521 
L 618.892936 479.212527 
L 619.170844 474.242541 
L 619.448752 475.307538 
L 619.72666 479.212527 
L 620.004567 478.14753 
L 620.282475 479.922525 
L 620.560383 478.502529 
L 620.838291 479.922525 
L 621.116199 474.59754 
L 621.394107 473.532543 
L 621.672014 478.857528 
L 621.949922 477.082533 
L 622.22783 478.857528 
L 622.505738 479.567526 
L 622.783646 479.922525 
L 623.061553 476.017536 
L 623.339461 479.212527 
L 623.617369 477.437532 
L 623.895277 479.567526 
L 624.173185 476.017536 
L 624.451093 474.242541 
L 624.729 478.502529 
L 625.006908 478.14753 
L 625.284816 481.69752 
L 625.562724 478.857528 
L 625.840632 480.277524 
L 626.11854 477.437532 
L 626.396447 482.762517 
L 626.674355 476.372535 
L 626.952263 478.502529 
L 627.230171 478.857528 
L 627.508079 475.662537 
L 627.785987 478.502529 
L 628.063894 478.857528 
L 628.341802 477.082533 
L 628.61971 482.407518 
L 628.897618 477.437532 
L 629.175526 480.987522 
L 629.453434 476.727534 
L 629.731341 480.632523 
L 630.009249 476.017536 
L 630.287157 478.857528 
L 630.565065 476.372535 
L 630.842973 479.922525 
L 631.120881 474.59754 
L 631.398788 477.792531 
L 631.676696 477.437532 
L 631.954604 476.727534 
L 632.232512 477.437532 
L 632.788328 480.277524 
L 633.066235 475.307538 
L 633.344143 480.277524 
L 633.622051 479.922525 
L 633.899959 483.117516 
L 634.177867 477.792531 
L 634.455775 480.987522 
L 634.733682 478.502529 
L 635.01159 480.632523 
L 635.567406 477.082533 
L 635.845314 477.437532 
L 636.123222 475.307538 
L 636.401129 479.567526 
L 636.956945 476.017536 
L 637.512761 478.14753 
L 637.790669 474.952539 
L 638.068576 477.082533 
L 638.346484 476.727534 
L 638.624392 480.277524 
L 639.180208 478.14753 
L 639.458116 479.567526 
L 639.736023 477.792531 
L 640.013931 480.987522 
L 640.291839 480.632523 
L 640.569747 481.342521 
L 640.847655 479.922525 
L 641.125563 476.727534 
L 641.40347 480.987522 
L 641.681378 478.14753 
L 641.959286 477.792531 
L 642.237194 477.792531 
L 642.515102 476.017536 
L 643.070917 477.792531 
L 643.348825 476.017536 
L 643.626733 480.632523 
L 643.904641 478.14753 
L 644.182549 479.567526 
L 644.460457 479.212527 
L 644.738364 480.632523 
L 645.016272 479.922525 
L 645.572088 477.792531 
L 645.849996 479.922525 
L 646.127904 479.922525 
L 646.405811 472.467546 
L 646.683719 479.212527 
L 646.961627 482.052519 
L 647.239535 479.212527 
L 647.517443 478.14753 
L 647.795351 479.567526 
L 648.073258 477.437532 
L 648.629074 482.407518 
L 649.18489 478.857528 
L 649.740705 482.052519 
L 650.018613 481.342521 
L 650.296521 480.987522 
L 650.574429 476.727534 
L 650.852337 480.277524 
L 651.130245 478.502529 
L 651.408152 481.342521 
L 651.68606 480.277524 
L 651.963968 480.632523 
L 652.241876 478.857528 
L 652.519784 474.242541 
L 653.075599 481.342521 
L 653.353507 479.567526 
L 653.631415 482.052519 
L 653.909323 481.342521 
L 654.187231 482.052519 
L 654.465138 478.502529 
L 654.743046 482.407518 
L 655.020954 478.14753 
L 655.298862 480.277524 
L 655.854678 478.14753 
L 656.132585 478.502529 
L 656.410493 479.212527 
L 656.688401 479.567526 
L 656.966309 480.987522 
L 657.244217 476.017536 
L 657.522125 478.502529 
L 658.07794 479.212527 
L 658.355848 482.407518 
L 658.911664 480.632523 
L 659.189572 480.987522 
L 659.467479 480.277524 
L 659.745387 477.792531 
L 660.023295 481.69752 
L 660.301203 481.69752 
L 660.579111 480.277524 
L 660.857019 480.632523 
L 661.134926 480.277524 
L 661.412834 482.762517 
L 661.690742 480.277524 
L 662.246558 480.277524 
L 662.524466 482.407518 
L 662.802373 481.69752 
L 663.080281 481.342521 
L 663.358189 477.082533 
L 663.636097 480.987522 
L 663.914005 481.69752 
L 664.191913 480.987522 
L 664.46982 482.762517 
L 664.747728 479.922525 
L 665.025636 479.567526 
L 665.303544 483.117516 
L 665.85936 482.407518 
L 666.137267 482.407518 
L 666.415175 478.502529 
L 666.693083 484.182514 
L 667.526807 481.342521 
L 667.804714 480.987522 
L 668.082622 479.567526 
L 668.36053 479.922525 
L 668.916346 483.827515 
L 669.194254 479.567526 
L 669.472161 481.69752 
L 670.583793 481.69752 
L 670.861701 479.567526 
L 671.417516 481.342521 
L 671.695424 484.537513 
L 671.973332 483.472516 
L 672.25124 479.922525 
L 672.529148 478.857528 
L 672.807055 482.052519 
L 673.084963 478.14753 
L 673.362871 482.052519 
L 673.640779 479.922525 
L 674.196595 482.407518 
L 674.474502 479.922525 
L 674.75241 480.987522 
L 675.030318 480.632523 
L 675.586134 482.762517 
L 675.864042 482.052519 
L 676.141949 482.407518 
L 676.419857 480.987522 
L 676.697765 482.762517 
L 676.975673 483.472516 
L 677.253581 480.277524 
L 677.531489 481.342521 
L 677.809396 478.857528 
L 678.087304 480.987522 
L 678.365212 480.632523 
L 678.64312 483.117516 
L 678.921028 482.052519 
L 679.198936 481.69752 
L 679.476843 481.69752 
L 679.754751 481.342521 
L 680.032659 478.857528 
L 680.310567 484.182514 
L 680.588475 479.567526 
L 680.866383 480.987522 
L 681.14429 480.987522 
L 681.422198 481.69752 
L 681.700106 480.632523 
L 681.978014 480.632523 
L 682.255922 479.212527 
L 682.53383 482.762517 
L 682.811737 482.407518 
L 683.089645 479.212527 
L 683.367553 482.762517 
L 683.645461 480.987522 
L 683.923369 482.052519 
L 684.201277 480.632523 
L 684.479184 482.407518 
L 684.757092 479.567526 
L 685.035 481.342521 
L 685.035 481.342521 
" clip-path="url(#p5b9a049db9)" style="fill: none; stroke: #0000ff; stroke-width: 1.5; stroke-linecap: square"/>
   </g>
   <g id="patch_3">
    <path d="M 129.775152 489.1525 
L 129.775152 36.72 
" style="fill: none; stroke: #000000; stroke-width: 0.8; stroke-linejoin: miter; stroke-linecap: square"/>
   </g>
   <g id="patch_4">
    <path d="M 685.035 489.1525 
L 685.035 36.72 
" style="fill: none; stroke: #000000; stroke-width: 0.8; stroke-linejoin: miter; stroke-linecap: square"/>
   </g>
   <g id="patch_5">
    <path d="M 129.775152 489.1525 
L 685.035 489.1525 
" style="fill: none; stroke: #000000; stroke-width: 0.8; stroke-linejoin: miter; stroke-linecap: square"/>
   </g>
   <g id="patch_6">
    <path d="M 129.775152 36.72 
L 685.035 36.72 
" style="fill: none; stroke: #000000; stroke-width: 0.8; stroke-linejoin: miter; stroke-linecap: square"/>
   </g>
   <g id="legend_1">
    <g id="patch_7">
     <path d="M 492.425 100.294688 
L 676.535 100.294688 
L 676.535 45.22 
L 492.425 45.22 
z
" style="fill: #ffffff; opacity: 0.8; stroke: #000000; stroke-linejoin: miter"/>
    </g>
    <g id="line2d_31">
     <path d="M 499.225 58.987344 
L 516.225 58.987344 
L 533.225 58.987344 
" style="fill: none; stroke-dasharray: 14.8,6.4; stroke-dashoffset: 0; stroke: #ff0000; stroke-width: 4"/>
    </g>
    <g id="text_17">
     <!-- $\rho_0$ -->
     <g transform="translate(546.825 64.937344) scale(0.17 -0.17)">
      <use xlink:href="#DejaVuSans-Oblique-3c1"/>
      <use xlink:href="#DejaVuSans-30" transform="translate(63.476562 -16.40625) scale(0.7)"/>
     </g>
    </g>
    <g id="line2d_32">
     <path d="M 499.225 83.974688 
L 516.225 83.974688 
L 533.225 83.974688 
" style="fill: none; stroke: #0000ff; stroke-width: 1.5; stroke-linecap: square"/>
    </g>
    <g id="text_18">
     <!-- $\rho_0,\it{U=3,n=2}$ -->
     <g transform="translate(546.825 89.924688) scale(0.17 -0.17)">
      <defs>
       <path id="DejaVuSans-2c" d="M 750 794 
L 1409 794 
L 1409 256 
L 897 -744 
L 494 -744 
L 750 256 
L 750 794 
z
" transform="scale(0.015625)"/>
       <path id="DejaVuSans-Oblique-55" d="M 991 4666 
L 1625 4666 
L 1075 1831 
Q 1041 1641 1027 1517 
Q 1013 1394 1013 1300 
Q 1013 869 1253 645 
Q 1494 422 1959 422 
Q 2563 422 2898 753 
Q 3234 1084 3378 1831 
L 3928 4666 
L 4563 4666 
L 4000 1753 
Q 3816 809 3300 359 
Q 2784 -91 1888 -91 
Q 1188 -91 780 261 
Q 372 613 372 1216 
Q 372 1325 387 1461 
Q 403 1597 434 1753 
L 991 4666 
z
" transform="scale(0.015625)"/>
       <path id="DejaVuSans-3d" d="M 678 2906 
L 4684 2906 
L 4684 2381 
L 678 2381 
L 678 2906 
z
M 678 1631 
L 4684 1631 
L 4684 1100 
L 678 1100 
L 678 1631 
z
" transform="scale(0.015625)"/>
       <path id="DejaVuSans-Oblique-6e" d="M 3566 2113 
L 3156 0 
L 2578 0 
L 2988 2091 
Q 3016 2238 3031 2350 
Q 3047 2463 3047 2528 
Q 3047 2791 2881 2937 
Q 2716 3084 2419 3084 
Q 1956 3084 1622 2776 
Q 1288 2469 1184 1941 
L 800 0 
L 225 0 
L 903 3500 
L 1478 3500 
L 1363 2950 
Q 1603 3253 1940 3418 
Q 2278 3584 2650 3584 
Q 3113 3584 3367 3334 
Q 3622 3084 3622 2631 
Q 3622 2519 3608 2391 
Q 3594 2263 3566 2113 
z
" transform="scale(0.015625)"/>
      </defs>
      <use xlink:href="#DejaVuSans-Oblique-3c1" transform="translate(0 0.78125)"/>
      <use xlink:href="#DejaVuSans-30" transform="translate(63.476562 -15.625) scale(0.7)"/>
      <use xlink:href="#DejaVuSans-2c" transform="translate(110.74707 0.78125)"/>
      <use xlink:href="#DejaVuSans-Oblique-55" transform="translate(162.016602 0.78125)"/>
      <use xlink:href="#DejaVuSans-3d" transform="translate(254.692383 0.78125)"/>
      <use xlink:href="#DejaVuSans-33" transform="translate(357.963867 0.78125)"/>
      <use xlink:href="#DejaVuSans-2c" transform="translate(421.586914 0.78125)"/>
      <use xlink:href="#DejaVuSans-Oblique-6e" transform="translate(472.856445 0.78125)"/>
      <use xlink:href="#DejaVuSans-3d" transform="translate(555.717773 0.78125)"/>
      <use xlink:href="#DejaVuSans-32" transform="translate(658.989258 0.78125)"/>
     </g>
    </g>
   </g>
  </g>
 </g>
 <defs>
  <clipPath id="p5b9a049db9">
   <rect x="129.775152" y="36.72" width="555.259848" height="452.4325"/>
  </clipPath>
 </defs>
</svg>
