<?xml version="1.0" encoding="utf-8" standalone="no"?>
<!DOCTYPE svg PUBLIC "-//W3C//DTD SVG 1.1//EN"
  "http://www.w3.org/Graphics/SVG/1.1/DTD/svg11.dtd">
<svg xmlns:xlink="http://www.w3.org/1999/xlink" width="720pt" height="576pt" viewBox="0 0 720 576" xmlns="http://www.w3.org/2000/svg" version="1.1">
 <metadata>
  <rdf:RDF xmlns:dc="http://purl.org/dc/elements/1.1/" xmlns:cc="http://creativecommons.org/ns#" xmlns:rdf="http://www.w3.org/1999/02/22-rdf-syntax-ns#">
   <cc:Work>
    <dc:type rdf:resource="http://purl.org/dc/dcmitype/StillImage"/>
    <dc:date>2023-04-12T14:16:10.195895</dc:date>
    <dc:format>image/svg+xml</dc:format>
    <dc:creator>
     <cc:Agent>
      <dc:title>Matplotlib v3.7.1, https://matplotlib.org/</dc:title>
     </cc:Agent>
    </dc:creator>
   </cc:Work>
  </rdf:RDF>
 </metadata>
 <defs>
  <style type="text/css">*{stroke-linejoin: round; stroke-linecap: butt}</style>
 </defs>
 <g id="figure_1">
  <g id="patch_1">
   <path d="M 0 576 
L 720 576 
L 720 0 
L 0 0 
z
" style="fill: #ffffff"/>
  </g>
  <g id="axes_1">
   <g id="patch_2">
    <path d="M 129.775152 489.1525 
L 685.035 489.1525 
L 685.035 36.72 
L 129.775152 36.72 
z
" style="fill: #ffffff"/>
   </g>
   <g id="matplotlib.axis_1">
    <g id="xtick_1">
     <g id="line2d_1">
      <path d="M 129.775152 489.1525 
L 129.775152 36.72 
" clip-path="url(#pd6854284b4)" style="fill: none; stroke: #b0b0b0; stroke-width: 0.8; stroke-linecap: square"/>
     </g>
     <g id="line2d_2">
      <defs>
       <path id="ma62b477f97" d="M 0 0 
L 0 3.5 
" style="stroke: #000000; stroke-width: 0.8"/>
      </defs>
      <g>
       <use xlink:href="#ma62b477f97" x="129.775152" y="489.1525" style="stroke: #000000; stroke-width: 0.8"/>
      </g>
     </g>
     <g id="text_1">
      <!-- −3 -->
      <g transform="translate(111.347418 515.148594) scale(0.25 -0.25)">
       <defs>
        <path id="DejaVuSans-2212" d="M 678 2272 
L 4684 2272 
L 4684 1741 
L 678 1741 
L 678 2272 
z
" transform="scale(0.015625)"/>
        <path id="DejaVuSans-33" d="M 2597 2516 
Q 3050 2419 3304 2112 
Q 3559 1806 3559 1356 
Q 3559 666 3084 287 
Q 2609 -91 1734 -91 
Q 1441 -91 1130 -33 
Q 819 25 488 141 
L 488 750 
Q 750 597 1062 519 
Q 1375 441 1716 441 
Q 2309 441 2620 675 
Q 2931 909 2931 1356 
Q 2931 1769 2642 2001 
Q 2353 2234 1838 2234 
L 1294 2234 
L 1294 2753 
L 1863 2753 
Q 2328 2753 2575 2939 
Q 2822 3125 2822 3475 
Q 2822 3834 2567 4026 
Q 2313 4219 1838 4219 
Q 1578 4219 1281 4162 
Q 984 4106 628 3988 
L 628 4550 
Q 988 4650 1302 4700 
Q 1616 4750 1894 4750 
Q 2613 4750 3031 4423 
Q 3450 4097 3450 3541 
Q 3450 3153 3228 2886 
Q 3006 2619 2597 2516 
z
" transform="scale(0.015625)"/>
       </defs>
       <use xlink:href="#DejaVuSans-2212"/>
       <use xlink:href="#DejaVuSans-33" x="83.789062"/>
      </g>
     </g>
    </g>
    <g id="xtick_2">
     <g id="line2d_3">
      <path d="M 222.31846 489.1525 
L 222.31846 36.72 
" clip-path="url(#pd6854284b4)" style="fill: none; stroke: #b0b0b0; stroke-width: 0.8; stroke-linecap: square"/>
     </g>
     <g id="line2d_4">
      <g>
       <use xlink:href="#ma62b477f97" x="222.31846" y="489.1525" style="stroke: #000000; stroke-width: 0.8"/>
      </g>
     </g>
     <g id="text_2">
      <!-- −2 -->
      <g transform="translate(203.890726 515.148594) scale(0.25 -0.25)">
       <defs>
        <path id="DejaVuSans-32" d="M 1228 531 
L 3431 531 
L 3431 0 
L 469 0 
L 469 531 
Q 828 903 1448 1529 
Q 2069 2156 2228 2338 
Q 2531 2678 2651 2914 
Q 2772 3150 2772 3378 
Q 2772 3750 2511 3984 
Q 2250 4219 1831 4219 
Q 1534 4219 1204 4116 
Q 875 4013 500 3803 
L 500 4441 
Q 881 4594 1212 4672 
Q 1544 4750 1819 4750 
Q 2544 4750 2975 4387 
Q 3406 4025 3406 3419 
Q 3406 3131 3298 2873 
Q 3191 2616 2906 2266 
Q 2828 2175 2409 1742 
Q 1991 1309 1228 531 
z
" transform="scale(0.015625)"/>
       </defs>
       <use xlink:href="#DejaVuSans-2212"/>
       <use xlink:href="#DejaVuSans-32" x="83.789062"/>
      </g>
     </g>
    </g>
    <g id="xtick_3">
     <g id="line2d_5">
      <path d="M 314.861768 489.1525 
L 314.861768 36.72 
" clip-path="url(#pd6854284b4)" style="fill: none; stroke: #b0b0b0; stroke-width: 0.8; stroke-linecap: square"/>
     </g>
     <g id="line2d_6">
      <g>
       <use xlink:href="#ma62b477f97" x="314.861768" y="489.1525" style="stroke: #000000; stroke-width: 0.8"/>
      </g>
     </g>
     <g id="text_3">
      <!-- −1 -->
      <g transform="translate(296.434034 515.148594) scale(0.25 -0.25)">
       <defs>
        <path id="DejaVuSans-31" d="M 794 531 
L 1825 531 
L 1825 4091 
L 703 3866 
L 703 4441 
L 1819 4666 
L 2450 4666 
L 2450 531 
L 3481 531 
L 3481 0 
L 794 0 
L 794 531 
z
" transform="scale(0.015625)"/>
       </defs>
       <use xlink:href="#DejaVuSans-2212"/>
       <use xlink:href="#DejaVuSans-31" x="83.789062"/>
      </g>
     </g>
    </g>
    <g id="xtick_4">
     <g id="line2d_7">
      <path d="M 407.405076 489.1525 
L 407.405076 36.72 
" clip-path="url(#pd6854284b4)" style="fill: none; stroke: #b0b0b0; stroke-width: 0.8; stroke-linecap: square"/>
     </g>
     <g id="line2d_8">
      <g>
       <use xlink:href="#ma62b477f97" x="407.405076" y="489.1525" style="stroke: #000000; stroke-width: 0.8"/>
      </g>
     </g>
     <g id="text_4">
      <!-- 0 -->
      <g transform="translate(399.451951 515.148594) scale(0.25 -0.25)">
       <defs>
        <path id="DejaVuSans-30" d="M 2034 4250 
Q 1547 4250 1301 3770 
Q 1056 3291 1056 2328 
Q 1056 1369 1301 889 
Q 1547 409 2034 409 
Q 2525 409 2770 889 
Q 3016 1369 3016 2328 
Q 3016 3291 2770 3770 
Q 2525 4250 2034 4250 
z
M 2034 4750 
Q 2819 4750 3233 4129 
Q 3647 3509 3647 2328 
Q 3647 1150 3233 529 
Q 2819 -91 2034 -91 
Q 1250 -91 836 529 
Q 422 1150 422 2328 
Q 422 3509 836 4129 
Q 1250 4750 2034 4750 
z
" transform="scale(0.015625)"/>
       </defs>
       <use xlink:href="#DejaVuSans-30"/>
      </g>
     </g>
    </g>
    <g id="xtick_5">
     <g id="line2d_9">
      <path d="M 499.948384 489.1525 
L 499.948384 36.72 
" clip-path="url(#pd6854284b4)" style="fill: none; stroke: #b0b0b0; stroke-width: 0.8; stroke-linecap: square"/>
     </g>
     <g id="line2d_10">
      <g>
       <use xlink:href="#ma62b477f97" x="499.948384" y="489.1525" style="stroke: #000000; stroke-width: 0.8"/>
      </g>
     </g>
     <g id="text_5">
      <!-- 1 -->
      <g transform="translate(491.995259 515.148594) scale(0.25 -0.25)">
       <use xlink:href="#DejaVuSans-31"/>
      </g>
     </g>
    </g>
    <g id="xtick_6">
     <g id="line2d_11">
      <path d="M 592.491692 489.1525 
L 592.491692 36.72 
" clip-path="url(#pd6854284b4)" style="fill: none; stroke: #b0b0b0; stroke-width: 0.8; stroke-linecap: square"/>
     </g>
     <g id="line2d_12">
      <g>
       <use xlink:href="#ma62b477f97" x="592.491692" y="489.1525" style="stroke: #000000; stroke-width: 0.8"/>
      </g>
     </g>
     <g id="text_6">
      <!-- 2 -->
      <g transform="translate(584.538567 515.148594) scale(0.25 -0.25)">
       <use xlink:href="#DejaVuSans-32"/>
      </g>
     </g>
    </g>
    <g id="xtick_7">
     <g id="line2d_13">
      <path d="M 685.035 489.1525 
L 685.035 36.72 
" clip-path="url(#pd6854284b4)" style="fill: none; stroke: #b0b0b0; stroke-width: 0.8; stroke-linecap: square"/>
     </g>
     <g id="line2d_14">
      <g>
       <use xlink:href="#ma62b477f97" x="685.035" y="489.1525" style="stroke: #000000; stroke-width: 0.8"/>
      </g>
     </g>
     <g id="text_7">
      <!-- 3 -->
      <g transform="translate(677.081875 515.148594) scale(0.25 -0.25)">
       <use xlink:href="#DejaVuSans-33"/>
      </g>
     </g>
    </g>
    <g id="text_8">
     <!-- $\omega$ [-] -->
     <g transform="translate(382.530076 541.351719) scale(0.25 -0.25)">
      <defs>
       <path id="DejaVuSans-Oblique-3c9" d="M 1369 -91 
Q 72 -91 434 1766 
Q 575 2500 1256 3500 
L 1875 3500 
Q 1231 2500 1088 1750 
Q 819 397 1519 397 
Q 2166 397 2478 2078 
L 3009 2078 
Q 2669 388 3316 397 
Q 4013 403 4275 1750 
Q 4419 2500 4169 3500 
L 4788 3500 
Q 5075 2500 4934 1766 
Q 4578 -94 3278 -91 
Q 2428 -88 2503 844 
Q 2194 -91 1369 -91 
z
" transform="scale(0.015625)"/>
       <path id="Calibri-20" transform="scale(0.015625)"/>
       <path id="Calibri-5b" d="M 1684 -813 
Q 1684 -916 1661 -958 
Q 1638 -1000 1594 -1000 
L 794 -1000 
Q 756 -1000 722 -989 
Q 688 -978 659 -953 
Q 631 -928 614 -886 
Q 597 -844 597 -781 
L 597 4153 
Q 597 4213 614 4255 
Q 631 4297 659 4323 
Q 688 4350 722 4361 
Q 756 4372 794 4372 
L 1594 4372 
Q 1613 4372 1630 4362 
Q 1647 4353 1659 4328 
Q 1672 4303 1678 4267 
Q 1684 4231 1684 4178 
Q 1684 4078 1661 4034 
Q 1638 3991 1594 3991 
L 1084 3991 
L 1084 -622 
L 1594 -622 
Q 1613 -622 1630 -631 
Q 1647 -641 1659 -664 
Q 1672 -688 1678 -723 
Q 1684 -759 1684 -813 
z
" transform="scale(0.015625)"/>
       <path id="Calibri-2d" d="M 1744 1578 
Q 1744 1456 1716 1409 
Q 1688 1363 1634 1363 
L 328 1363 
Q 272 1363 244 1411 
Q 216 1459 216 1578 
Q 216 1697 244 1744 
Q 272 1791 328 1791 
L 1634 1791 
Q 1659 1791 1679 1781 
Q 1700 1772 1714 1745 
Q 1728 1719 1736 1678 
Q 1744 1638 1744 1578 
z
" transform="scale(0.015625)"/>
       <path id="Calibri-5d" d="M 1369 -781 
Q 1369 -844 1351 -886 
Q 1334 -928 1306 -953 
Q 1278 -978 1242 -989 
Q 1206 -1000 1169 -1000 
L 372 -1000 
Q 328 -1000 304 -958 
Q 281 -916 281 -813 
Q 281 -759 286 -723 
Q 291 -688 303 -664 
Q 316 -641 333 -631 
Q 350 -622 372 -622 
L 881 -622 
L 881 3991 
L 372 3991 
Q 328 3991 304 4034 
Q 281 4078 281 4178 
Q 281 4231 286 4267 
Q 291 4303 303 4328 
Q 316 4353 333 4362 
Q 350 4372 372 4372 
L 1169 4372 
Q 1206 4372 1242 4361 
Q 1278 4350 1306 4323 
Q 1334 4297 1351 4255 
Q 1369 4213 1369 4153 
L 1369 -781 
z
" transform="scale(0.015625)"/>
      </defs>
      <use xlink:href="#DejaVuSans-Oblique-3c9" transform="translate(0 0.6875)"/>
      <use xlink:href="#Calibri-20" transform="translate(83.740234 0.6875)"/>
      <use xlink:href="#Calibri-5b" transform="translate(106.347656 0.6875)"/>
      <use xlink:href="#Calibri-2d" transform="translate(137.011719 0.6875)"/>
      <use xlink:href="#Calibri-5d" transform="translate(167.626953 0.6875)"/>
     </g>
    </g>
   </g>
   <g id="matplotlib.axis_2">
    <g id="ytick_1">
     <g id="line2d_15">
      <path d="M 129.775152 489.1525 
L 685.035 489.1525 
" clip-path="url(#pd6854284b4)" style="fill: none; stroke: #b0b0b0; stroke-width: 0.8; stroke-linecap: square"/>
     </g>
     <g id="line2d_16">
      <defs>
       <path id="m3cd36d74a3" d="M 0 0 
L -3.5 0 
" style="stroke: #000000; stroke-width: 0.8"/>
      </defs>
      <g>
       <use xlink:href="#m3cd36d74a3" x="129.775152" y="489.1525" style="stroke: #000000; stroke-width: 0.8"/>
      </g>
     </g>
     <g id="text_9">
      <!-- 0.0 -->
      <g transform="translate(83.017339 498.650547) scale(0.25 -0.25)">
       <defs>
        <path id="DejaVuSans-2e" d="M 684 794 
L 1344 794 
L 1344 0 
L 684 0 
L 684 794 
z
" transform="scale(0.015625)"/>
       </defs>
       <use xlink:href="#DejaVuSans-30"/>
       <use xlink:href="#DejaVuSans-2e" x="63.623047"/>
       <use xlink:href="#DejaVuSans-30" x="95.410156"/>
      </g>
     </g>
    </g>
    <g id="ytick_2">
     <g id="line2d_17">
      <path d="M 129.775152 413.747083 
L 685.035 413.747083 
" clip-path="url(#pd6854284b4)" style="fill: none; stroke: #b0b0b0; stroke-width: 0.8; stroke-linecap: square"/>
     </g>
     <g id="line2d_18">
      <g>
       <use xlink:href="#m3cd36d74a3" x="129.775152" y="413.747083" style="stroke: #000000; stroke-width: 0.8"/>
      </g>
     </g>
     <g id="text_10">
      <!-- 0.2 -->
      <g transform="translate(83.017339 423.24513) scale(0.25 -0.25)">
       <use xlink:href="#DejaVuSans-30"/>
       <use xlink:href="#DejaVuSans-2e" x="63.623047"/>
       <use xlink:href="#DejaVuSans-32" x="95.410156"/>
      </g>
     </g>
    </g>
    <g id="ytick_3">
     <g id="line2d_19">
      <path d="M 129.775152 338.341667 
L 685.035 338.341667 
" clip-path="url(#pd6854284b4)" style="fill: none; stroke: #b0b0b0; stroke-width: 0.8; stroke-linecap: square"/>
     </g>
     <g id="line2d_20">
      <g>
       <use xlink:href="#m3cd36d74a3" x="129.775152" y="338.341667" style="stroke: #000000; stroke-width: 0.8"/>
      </g>
     </g>
     <g id="text_11">
      <!-- 0.4 -->
      <g transform="translate(83.017339 347.839714) scale(0.25 -0.25)">
       <defs>
        <path id="DejaVuSans-34" d="M 2419 4116 
L 825 1625 
L 2419 1625 
L 2419 4116 
z
M 2253 4666 
L 3047 4666 
L 3047 1625 
L 3713 1625 
L 3713 1100 
L 3047 1100 
L 3047 0 
L 2419 0 
L 2419 1100 
L 313 1100 
L 313 1709 
L 2253 4666 
z
" transform="scale(0.015625)"/>
       </defs>
       <use xlink:href="#DejaVuSans-30"/>
       <use xlink:href="#DejaVuSans-2e" x="63.623047"/>
       <use xlink:href="#DejaVuSans-34" x="95.410156"/>
      </g>
     </g>
    </g>
    <g id="ytick_4">
     <g id="line2d_21">
      <path d="M 129.775152 262.93625 
L 685.035 262.93625 
" clip-path="url(#pd6854284b4)" style="fill: none; stroke: #b0b0b0; stroke-width: 0.8; stroke-linecap: square"/>
     </g>
     <g id="line2d_22">
      <g>
       <use xlink:href="#m3cd36d74a3" x="129.775152" y="262.93625" style="stroke: #000000; stroke-width: 0.8"/>
      </g>
     </g>
     <g id="text_12">
      <!-- 0.6 -->
      <g transform="translate(83.017339 272.434297) scale(0.25 -0.25)">
       <defs>
        <path id="DejaVuSans-36" d="M 2113 2584 
Q 1688 2584 1439 2293 
Q 1191 2003 1191 1497 
Q 1191 994 1439 701 
Q 1688 409 2113 409 
Q 2538 409 2786 701 
Q 3034 994 3034 1497 
Q 3034 2003 2786 2293 
Q 2538 2584 2113 2584 
z
M 3366 4563 
L 3366 3988 
Q 3128 4100 2886 4159 
Q 2644 4219 2406 4219 
Q 1781 4219 1451 3797 
Q 1122 3375 1075 2522 
Q 1259 2794 1537 2939 
Q 1816 3084 2150 3084 
Q 2853 3084 3261 2657 
Q 3669 2231 3669 1497 
Q 3669 778 3244 343 
Q 2819 -91 2113 -91 
Q 1303 -91 875 529 
Q 447 1150 447 2328 
Q 447 3434 972 4092 
Q 1497 4750 2381 4750 
Q 2619 4750 2861 4703 
Q 3103 4656 3366 4563 
z
" transform="scale(0.015625)"/>
       </defs>
       <use xlink:href="#DejaVuSans-30"/>
       <use xlink:href="#DejaVuSans-2e" x="63.623047"/>
       <use xlink:href="#DejaVuSans-36" x="95.410156"/>
      </g>
     </g>
    </g>
    <g id="ytick_5">
     <g id="line2d_23">
      <path d="M 129.775152 187.530833 
L 685.035 187.530833 
" clip-path="url(#pd6854284b4)" style="fill: none; stroke: #b0b0b0; stroke-width: 0.8; stroke-linecap: square"/>
     </g>
     <g id="line2d_24">
      <g>
       <use xlink:href="#m3cd36d74a3" x="129.775152" y="187.530833" style="stroke: #000000; stroke-width: 0.8"/>
      </g>
     </g>
     <g id="text_13">
      <!-- 0.8 -->
      <g transform="translate(83.017339 197.02888) scale(0.25 -0.25)">
       <defs>
        <path id="DejaVuSans-38" d="M 2034 2216 
Q 1584 2216 1326 1975 
Q 1069 1734 1069 1313 
Q 1069 891 1326 650 
Q 1584 409 2034 409 
Q 2484 409 2743 651 
Q 3003 894 3003 1313 
Q 3003 1734 2745 1975 
Q 2488 2216 2034 2216 
z
M 1403 2484 
Q 997 2584 770 2862 
Q 544 3141 544 3541 
Q 544 4100 942 4425 
Q 1341 4750 2034 4750 
Q 2731 4750 3128 4425 
Q 3525 4100 3525 3541 
Q 3525 3141 3298 2862 
Q 3072 2584 2669 2484 
Q 3125 2378 3379 2068 
Q 3634 1759 3634 1313 
Q 3634 634 3220 271 
Q 2806 -91 2034 -91 
Q 1263 -91 848 271 
Q 434 634 434 1313 
Q 434 1759 690 2068 
Q 947 2378 1403 2484 
z
M 1172 3481 
Q 1172 3119 1398 2916 
Q 1625 2713 2034 2713 
Q 2441 2713 2670 2916 
Q 2900 3119 2900 3481 
Q 2900 3844 2670 4047 
Q 2441 4250 2034 4250 
Q 1625 4250 1398 4047 
Q 1172 3844 1172 3481 
z
" transform="scale(0.015625)"/>
       </defs>
       <use xlink:href="#DejaVuSans-30"/>
       <use xlink:href="#DejaVuSans-2e" x="63.623047"/>
       <use xlink:href="#DejaVuSans-38" x="95.410156"/>
      </g>
     </g>
    </g>
    <g id="ytick_6">
     <g id="line2d_25">
      <path d="M 129.775152 112.125417 
L 685.035 112.125417 
" clip-path="url(#pd6854284b4)" style="fill: none; stroke: #b0b0b0; stroke-width: 0.8; stroke-linecap: square"/>
     </g>
     <g id="line2d_26">
      <g>
       <use xlink:href="#m3cd36d74a3" x="129.775152" y="112.125417" style="stroke: #000000; stroke-width: 0.8"/>
      </g>
     </g>
     <g id="text_14">
      <!-- 1.0 -->
      <g transform="translate(83.017339 121.623464) scale(0.25 -0.25)">
       <use xlink:href="#DejaVuSans-31"/>
       <use xlink:href="#DejaVuSans-2e" x="63.623047"/>
       <use xlink:href="#DejaVuSans-30" x="95.410156"/>
      </g>
     </g>
    </g>
    <g id="ytick_7">
     <g id="line2d_27">
      <path d="M 129.775152 36.72 
L 685.035 36.72 
" clip-path="url(#pd6854284b4)" style="fill: none; stroke: #b0b0b0; stroke-width: 0.8; stroke-linecap: square"/>
     </g>
     <g id="line2d_28">
      <g>
       <use xlink:href="#m3cd36d74a3" x="129.775152" y="36.72" style="stroke: #000000; stroke-width: 0.8"/>
      </g>
     </g>
     <g id="text_15">
      <!-- 1.2 -->
      <g transform="translate(83.017339 46.218047) scale(0.25 -0.25)">
       <use xlink:href="#DejaVuSans-31"/>
       <use xlink:href="#DejaVuSans-2e" x="63.623047"/>
       <use xlink:href="#DejaVuSans-32" x="95.410156"/>
      </g>
     </g>
    </g>
    <g id="text_16">
     <!-- $\rho$($\omega$) -->
     <g transform="translate(27.017339 257.68625) scale(0.25 -0.25)">
      <defs>
       <path id="DejaVuSans-Oblique-3c1" d="M 1203 2875 
Q 1453 3194 1981 3475 
Q 2188 3584 2756 3584 
Q 3394 3584 3694 3078 
Q 3994 2572 3834 1747 
Q 3672 922 3175 415 
Q 2678 -91 2041 -91 
Q 1656 -91 1409 63 
Q 1163 213 1044 525 
L 681 -1331 
L 103 -1331 
L 697 1716 
Q 838 2438 1203 2875 
z
M 3238 1747 
Q 3359 2381 3169 2744 
Q 2978 3103 2522 3103 
Q 2066 3103 1734 2744 
Q 1403 2381 1281 1747 
Q 1156 1113 1347 750 
Q 1538 391 1994 391 
Q 2450 391 2781 750 
Q 3113 1113 3238 1747 
z
" transform="scale(0.015625)"/>
       <path id="Calibri-28" d="M 1547 4306 
Q 1250 3678 1104 3017 
Q 959 2356 959 1688 
Q 959 1016 1107 356 
Q 1256 -303 1541 -938 
Q 1556 -975 1557 -1001 
Q 1559 -1028 1537 -1045 
Q 1516 -1063 1470 -1070 
Q 1425 -1078 1347 -1078 
Q 1291 -1078 1250 -1075 
Q 1209 -1072 1179 -1062 
Q 1150 -1053 1131 -1040 
Q 1113 -1028 1103 -1013 
Q 934 -694 806 -367 
Q 678 -41 590 296 
Q 503 634 459 979 
Q 416 1325 416 1678 
Q 416 2031 464 2375 
Q 513 2719 602 3058 
Q 691 3397 819 3725 
Q 947 4053 1106 4375 
Q 1109 4388 1123 4397 
Q 1138 4406 1163 4415 
Q 1188 4425 1231 4429 
Q 1275 4434 1344 4434 
Q 1416 4434 1459 4425 
Q 1503 4416 1528 4400 
Q 1553 4384 1556 4359 
Q 1559 4334 1547 4306 
z
" transform="scale(0.015625)"/>
       <path id="Calibri-29" d="M 1522 1678 
Q 1522 1325 1478 979 
Q 1434 634 1346 296 
Q 1259 -41 1132 -367 
Q 1006 -694 838 -1013 
Q 828 -1028 809 -1040 
Q 791 -1053 761 -1062 
Q 731 -1072 690 -1075 
Q 650 -1078 594 -1078 
Q 513 -1078 467 -1070 
Q 422 -1063 401 -1045 
Q 381 -1028 382 -1001 
Q 384 -975 400 -938 
Q 688 -306 834 355 
Q 981 1016 981 1688 
Q 981 2356 834 3017 
Q 688 3678 394 4306 
Q 381 4334 384 4359 
Q 388 4384 413 4400 
Q 438 4416 481 4425 
Q 525 4434 597 4434 
Q 663 4434 706 4429 
Q 750 4425 776 4415 
Q 803 4406 815 4397 
Q 828 4388 834 4375 
Q 1156 3734 1339 3057 
Q 1522 2381 1522 1678 
z
" transform="scale(0.015625)"/>
      </defs>
      <use xlink:href="#DejaVuSans-Oblique-3c1" transform="translate(0 0.71875)"/>
      <use xlink:href="#Calibri-28" transform="translate(63.476562 0.71875)"/>
      <use xlink:href="#DejaVuSans-Oblique-3c9" transform="translate(93.798828 0.71875)"/>
      <use xlink:href="#Calibri-29" transform="translate(177.539062 0.71875)"/>
     </g>
    </g>
   </g>
   <g id="line2d_29">
    <path d="M 129.775152 485.191726 
L 155.334144 484.357906 
L 176.448095 483.454255 
L 194.413473 482.469183 
L 209.785911 481.409883 
L 223.121037 480.274568 
L 234.789273 479.065055 
L 245.161038 477.771976 
L 254.421542 476.397747 
L 262.755996 474.939311 
L 270.34961 473.384504 
L 277.202383 471.755119 
L 283.499526 470.028525 
L 289.241039 468.224518 
L 294.612132 466.300489 
L 299.427594 464.345993 
L 304.057846 462.22636 
L 308.317678 460.033592 
L 312.3923 457.683194 
L 316.096502 455.298572 
L 319.615494 452.781848 
L 322.949275 450.139362 
L 326.283057 447.210018 
L 329.431628 444.143156 
L 332.39499 440.953562 
L 335.358351 437.430254 
L 338.136503 433.783961 
L 340.914654 429.761674 
L 343.507595 425.624737 
L 346.100536 421.071059 
L 348.693478 416.047963 
L 351.101209 410.910933 
L 353.50894 405.262843 
L 355.916671 399.042223 
L 358.324402 392.180058 
L 360.732133 384.599258 
L 362.954655 376.889976 
L 365.177176 368.422113 
L 367.399697 359.116621 
L 369.622218 348.890039 
L 371.844739 337.656563 
L 374.06726 325.331472 
L 376.474991 310.656905 
L 378.882722 294.529465 
L 381.290453 276.905816 
L 383.883395 256.274469 
L 386.846756 230.785139 
L 390.736168 195.110677 
L 395.92205 147.552666 
L 398.144572 129.166202 
L 399.811462 116.958482 
L 401.293143 107.605845 
L 402.589614 100.797814 
L 403.700874 96.111069 
L 404.626925 93.080348 
L 405.367765 91.25699 
L 406.108605 89.984799 
L 406.664236 89.398989 
L 407.219866 89.132142 
L 407.775496 89.18554 
L 408.331126 89.558925 
L 408.886757 90.250509 
L 409.627597 91.661677 
L 410.368437 93.62062 
L 411.294488 96.81443 
L 412.220538 100.797814 
L 413.331799 106.550234 
L 414.628269 114.476259 
L 416.10995 124.921461 
L 417.962051 139.649877 
L 420.369782 160.732399 
L 425.370455 207.184476 
L 429.259867 242.165112 
L 432.223228 266.799083 
L 434.816169 286.582089 
L 437.40911 304.629373 
L 439.816842 319.854831 
L 442.224573 333.673552 
L 444.632304 346.179428 
L 447.040035 357.478458 
L 449.447766 367.679774 
L 451.855497 376.889976 
L 454.263229 385.209804 
L 456.67096 392.732397 
L 459.078691 399.542581 
L 461.486422 405.71681 
L 463.894153 411.323497 
L 466.487095 416.79648 
L 469.080036 421.749019 
L 471.672977 426.2401 
L 474.451128 430.598486 
L 477.22928 434.541835 
L 480.007431 438.118282 
L 482.970792 441.575775 
L 486.119364 444.893109 
L 489.267936 447.887771 
L 492.601717 450.750052 
L 496.120709 453.469814 
L 499.824911 456.040819 
L 503.714322 458.460175 
L 507.788944 460.727785 
L 512.048777 462.84582 
L 516.679029 464.895649 
L 521.679701 466.85643 
L 527.050794 468.713329 
L 532.792307 470.456826 
L 539.08945 472.127851 
L 545.942223 473.707031 
L 553.350626 475.181928 
L 561.49987 476.575283 
L 570.575165 477.897163 
L 580.76172 479.148937 
L 592.059535 480.309365 
L 604.839031 481.395631 
L 619.470628 482.411671 
L 636.324746 483.353856 
L 655.957016 484.222866 
L 679.108277 485.018852 
L 685.035 485.191726 
L 685.035 485.191726 
" clip-path="url(#pd6854284b4)" style="fill: none; stroke-dasharray: 14.8,6.4; stroke-dashoffset: 0; stroke: #ff0000; stroke-width: 4"/>
   </g>
   <g id="line2d_30">
    <path d="M 129.775152 483.982422 
L 130.145572 482.948407 
L 130.330782 483.637751 
L 130.515992 482.603735 
L 130.701202 482.603735 
L 130.886413 482.948407 
L 131.071623 482.948407 
L 131.256833 485.705782 
L 131.442043 486.050453 
L 131.627253 483.982422 
L 131.812463 483.982422 
L 131.997673 482.603735 
L 132.182883 483.982422 
L 132.368093 483.637751 
L 132.553303 484.671766 
L 132.738513 480.880376 
L 132.923723 482.259063 
L 133.108934 481.225048 
L 133.294144 481.914391 
L 133.479354 481.56972 
L 133.664564 483.982422 
L 133.849774 484.327094 
L 134.220194 482.603735 
L 134.405404 482.948407 
L 134.590614 482.948407 
L 134.961034 483.637751 
L 135.331455 481.914391 
L 135.516665 482.948407 
L 135.887085 481.225048 
L 136.257505 483.637751 
L 136.442715 482.259063 
L 136.627925 484.327094 
L 136.813135 481.914391 
L 137.368766 484.671766 
L 137.553976 485.36111 
L 137.739186 481.914391 
L 137.924396 485.016438 
L 138.294816 481.56972 
L 138.480026 483.637751 
L 138.665236 482.603735 
L 138.850446 478.467673 
L 139.035656 482.948407 
L 139.220867 482.948407 
L 139.406077 481.914391 
L 139.591287 482.259063 
L 139.961707 481.225048 
L 140.332127 483.293079 
L 140.517337 485.016438 
L 140.702547 483.982422 
L 140.887757 483.637751 
L 141.072967 484.327094 
L 141.258178 482.603735 
L 141.443388 482.259063 
L 141.628598 480.535704 
L 141.999018 482.948407 
L 142.184228 484.327094 
L 142.369438 483.637751 
L 142.554648 484.327094 
L 142.739858 480.191032 
L 142.925068 482.948407 
L 143.110278 483.982422 
L 143.295489 482.948407 
L 143.480699 482.603735 
L 143.665909 483.637751 
L 143.851119 481.225048 
L 144.036329 482.259063 
L 144.221539 481.914391 
L 144.591959 481.914391 
L 144.777169 480.535704 
L 144.962379 480.535704 
L 145.147589 483.637751 
L 145.332799 483.982422 
L 145.51801 481.914391 
L 145.70322 481.56972 
L 145.88843 483.293079 
L 146.07364 480.880376 
L 146.25885 484.327094 
L 146.44406 479.84636 
L 146.81448 483.637751 
L 146.99969 480.535704 
L 147.1849 482.259063 
L 147.37011 482.259063 
L 147.555321 480.880376 
L 147.740531 481.914391 
L 147.925741 483.982422 
L 148.110951 479.84636 
L 148.296161 482.603735 
L 148.481371 482.259063 
L 148.666581 482.603735 
L 149.037001 485.016438 
L 149.222211 484.671766 
L 149.592632 478.812345 
L 149.777842 482.603735 
L 149.963052 483.982422 
L 150.148262 480.535704 
L 150.333472 482.603735 
L 150.518682 482.948407 
L 150.703892 484.671766 
L 150.889102 483.982422 
L 151.259522 480.880376 
L 151.444732 485.36111 
L 151.629943 485.016438 
L 151.815153 480.880376 
L 152.000363 479.84636 
L 152.185573 482.603735 
L 152.555993 480.880376 
L 152.741203 482.259063 
L 152.926413 482.603735 
L 153.111623 481.56972 
L 153.482043 483.982422 
L 153.667254 481.56972 
L 153.852464 483.637751 
L 154.037674 481.225048 
L 154.222884 483.637751 
L 154.408094 481.914391 
L 154.593304 478.812345 
L 154.778514 483.982422 
L 154.963724 483.637751 
L 155.334144 480.191032 
L 155.519354 482.948407 
L 155.704564 483.637751 
L 155.889775 482.948407 
L 156.074985 477.433658 
L 156.260195 480.535704 
L 156.445405 480.880376 
L 156.630615 483.637751 
L 157.001035 482.259063 
L 157.186245 479.501689 
L 157.371455 480.535704 
L 157.556665 483.637751 
L 157.741875 479.501689 
L 157.927086 482.948407 
L 158.112296 483.293079 
L 158.297506 480.880376 
L 158.482716 482.259063 
L 158.667926 482.603735 
L 159.223556 481.56972 
L 159.408766 479.501689 
L 159.779186 482.948407 
L 159.964397 480.535704 
L 160.149607 482.259063 
L 160.334817 479.157017 
L 160.520027 479.501689 
L 160.705237 485.016438 
L 160.890447 478.812345 
L 161.075657 482.259063 
L 161.260867 482.259063 
L 161.446077 480.880376 
L 161.631287 481.56972 
L 161.816497 483.293079 
L 162.001708 483.293079 
L 162.186918 480.880376 
L 162.372128 480.535704 
L 162.557338 479.501689 
L 162.927758 485.705782 
L 163.112968 482.259063 
L 163.298178 481.56972 
L 163.483388 479.501689 
L 163.668598 481.914391 
L 163.853808 480.535704 
L 164.224229 482.259063 
L 164.409439 480.191032 
L 164.594649 481.914391 
L 164.779859 478.123001 
L 164.965069 481.225048 
L 165.150279 478.812345 
L 165.335489 482.259063 
L 165.520699 481.225048 
L 165.705909 485.016438 
L 166.07633 481.225048 
L 166.26154 483.637751 
L 166.63196 479.157017 
L 167.00238 483.982422 
L 167.3728 479.501689 
L 167.55801 483.637751 
L 167.74322 482.948407 
L 167.92843 483.293079 
L 168.11364 482.259063 
L 168.298851 482.259063 
L 168.669271 481.56972 
L 168.854481 481.56972 
L 169.039691 482.948407 
L 169.224901 482.259063 
L 169.410111 478.123001 
L 169.595321 479.157017 
L 169.780531 482.603735 
L 169.965741 480.191032 
L 170.150951 483.293079 
L 170.336162 480.535704 
L 170.521372 481.225048 
L 170.706582 479.501689 
L 170.891792 482.259063 
L 171.077002 482.259063 
L 171.262212 480.535704 
L 171.447422 481.914391 
L 171.632632 480.191032 
L 171.817842 481.225048 
L 172.003052 479.501689 
L 172.188262 480.880376 
L 172.373473 480.191032 
L 172.929103 481.914391 
L 173.114313 479.501689 
L 173.299523 481.225048 
L 173.484733 481.225048 
L 173.669943 479.501689 
L 173.855153 479.157017 
L 174.040363 481.914391 
L 174.225573 479.501689 
L 174.595994 482.948407 
L 174.781204 479.157017 
L 174.966414 481.914391 
L 175.151624 478.812345 
L 175.336834 480.880376 
L 175.522044 479.84636 
L 175.707254 481.914391 
L 175.892464 479.84636 
L 176.077674 482.259063 
L 176.262884 479.157017 
L 176.448095 481.56972 
L 176.633305 480.880376 
L 176.818515 481.914391 
L 177.003725 479.157017 
L 177.188935 480.880376 
L 177.374145 480.535704 
L 177.559355 480.880376 
L 177.744565 480.535704 
L 177.929775 480.880376 
L 178.114985 479.84636 
L 178.300195 480.535704 
L 178.485405 482.259063 
L 178.670616 481.914391 
L 178.855826 478.123001 
L 179.226246 484.671766 
L 179.596666 479.157017 
L 179.781876 480.535704 
L 179.967086 478.123001 
L 180.152296 478.812345 
L 180.337506 480.880376 
L 180.522716 480.880376 
L 180.707927 481.225048 
L 180.893137 477.778329 
L 181.078347 483.293079 
L 181.263557 481.914391 
L 181.633977 477.088986 
L 181.819187 481.914391 
L 182.004397 480.191032 
L 182.374817 479.501689 
L 182.560027 480.535704 
L 182.745238 475.020955 
L 182.930448 479.157017 
L 183.115658 478.467673 
L 183.300868 480.191032 
L 183.486078 479.157017 
L 183.671288 482.603735 
L 183.856498 480.191032 
L 184.041708 479.84636 
L 184.226918 481.914391 
L 184.412128 478.467673 
L 184.597338 480.535704 
L 184.782549 478.812345 
L 184.967759 480.880376 
L 185.152969 479.501689 
L 185.338179 482.259063 
L 185.523389 478.467673 
L 185.708599 478.123001 
L 185.893809 482.259063 
L 186.079019 479.157017 
L 186.264229 480.880376 
L 186.449439 476.744314 
L 186.81986 479.501689 
L 187.19028 476.05497 
L 187.37549 479.157017 
L 187.5607 479.157017 
L 187.93112 481.225048 
L 188.11633 477.778329 
L 188.30154 479.157017 
L 188.48675 477.088986 
L 188.67196 482.603735 
L 188.85717 481.225048 
L 189.042381 478.812345 
L 189.227591 483.293079 
L 189.412801 476.05497 
L 189.598011 481.56972 
L 189.783221 479.157017 
L 189.968431 479.84636 
L 190.338851 476.744314 
L 190.524061 481.914391 
L 190.709271 478.812345 
L 190.894481 481.225048 
L 191.079692 479.84636 
L 191.264902 481.914391 
L 191.450112 480.880376 
L 191.635322 478.123001 
L 191.820532 482.603735 
L 192.005742 475.710298 
L 192.190952 480.535704 
L 192.376162 479.84636 
L 192.561372 478.467673 
L 192.746582 481.914391 
L 192.931792 481.56972 
L 193.117003 479.84636 
L 193.302213 480.191032 
L 193.487423 480.880376 
L 193.672633 478.467673 
L 193.857843 478.467673 
L 194.043053 479.84636 
L 194.228263 479.501689 
L 194.598683 480.191032 
L 194.783893 478.123001 
L 194.969103 480.880376 
L 195.339524 475.710298 
L 195.524734 479.84636 
L 195.709944 478.467673 
L 195.895154 479.84636 
L 196.080364 478.467673 
L 196.265574 479.501689 
L 196.450784 477.778329 
L 196.635994 480.535704 
L 196.821204 479.84636 
L 197.191625 475.365627 
L 197.376835 480.191032 
L 197.562045 477.433658 
L 197.747255 481.56972 
L 197.932465 481.914391 
L 198.117675 478.812345 
L 198.302885 479.501689 
L 198.488095 476.399642 
L 198.673305 485.36111 
L 198.858515 480.535704 
L 199.043725 479.157017 
L 199.228936 482.948407 
L 199.414146 476.05497 
L 200.154986 483.982422 
L 200.340196 478.812345 
L 200.525406 479.157017 
L 200.710616 481.914391 
L 200.895826 480.191032 
L 201.081036 480.191032 
L 201.266246 479.157017 
L 201.451457 476.744314 
L 201.636667 476.744314 
L 201.821877 477.433658 
L 202.192297 480.880376 
L 202.377507 474.676283 
L 202.562717 479.157017 
L 202.747927 478.467673 
L 202.933137 485.016438 
L 203.118347 477.778329 
L 203.303557 480.535704 
L 203.488768 473.642267 
L 203.673978 477.088986 
L 203.859188 475.710298 
L 204.044398 477.433658 
L 204.229608 477.088986 
L 204.414818 479.157017 
L 204.600028 479.157017 
L 204.785238 475.020955 
L 204.970448 478.123001 
L 205.340868 480.191032 
L 205.526079 477.778329 
L 205.711289 477.088986 
L 205.896499 478.467673 
L 206.266919 476.744314 
L 206.637339 478.812345 
L 206.822549 476.399642 
L 207.007759 478.467673 
L 207.378179 480.191032 
L 207.56339 478.812345 
L 207.7486 475.365627 
L 207.93381 480.535704 
L 208.11902 475.365627 
L 208.30423 476.399642 
L 208.48944 476.744314 
L 208.67465 476.05497 
L 208.85986 479.84636 
L 209.23028 476.05497 
L 209.41549 476.744314 
L 209.600701 475.020955 
L 209.785911 478.467673 
L 209.971121 476.744314 
L 210.156331 480.191032 
L 210.341541 478.467673 
L 210.526751 480.535704 
L 210.711961 476.744314 
L 210.897171 479.157017 
L 211.267591 475.365627 
L 211.452801 477.778329 
L 211.638011 477.088986 
L 211.823222 474.676283 
L 212.193642 482.603735 
L 212.378852 479.501689 
L 212.564062 474.331611 
L 212.749272 478.123001 
L 212.934482 477.088986 
L 213.119692 478.123001 
L 213.304902 476.744314 
L 213.490112 480.880376 
L 213.675322 476.399642 
L 213.860533 475.365627 
L 214.045743 479.84636 
L 214.601373 476.05497 
L 214.786583 480.880376 
L 214.971793 476.399642 
L 215.157003 479.501689 
L 215.342213 476.744314 
L 215.527423 479.501689 
L 215.712633 478.812345 
L 215.897844 473.297596 
L 216.083054 476.744314 
L 216.268264 475.365627 
L 216.453474 478.123001 
L 216.638684 478.812345 
L 217.009104 473.297596 
L 217.194314 479.84636 
L 217.379524 472.952924 
L 217.564734 473.986939 
L 217.749944 477.433658 
L 217.935155 473.642267 
L 218.120365 475.365627 
L 218.305575 475.710298 
L 218.490785 478.123001 
L 218.861205 476.05497 
L 219.046415 476.399642 
L 219.231625 478.812345 
L 219.416835 475.365627 
L 219.602045 477.778329 
L 219.787255 476.05497 
L 219.972466 478.812345 
L 220.157676 477.088986 
L 220.342886 477.088986 
L 220.528096 472.26358 
L 220.713306 475.365627 
L 221.083726 475.365627 
L 221.268936 476.05497 
L 221.454146 473.642267 
L 221.639356 478.812345 
L 221.824566 473.642267 
L 222.009776 476.744314 
L 222.194987 472.952924 
L 222.380197 477.778329 
L 222.565407 477.778329 
L 222.750617 475.365627 
L 222.935827 475.710298 
L 223.121037 474.676283 
L 223.306247 476.744314 
L 223.491457 477.088986 
L 223.861877 476.399642 
L 224.047087 478.812345 
L 224.232298 474.331611 
L 224.417508 472.952924 
L 224.787928 476.399642 
L 224.973138 472.26358 
L 225.158348 477.778329 
L 225.343558 478.467673 
L 225.528768 473.986939 
L 225.713978 474.331611 
L 225.899188 475.365627 
L 226.084398 477.433658 
L 226.269609 475.710298 
L 226.454819 476.05497 
L 226.640029 475.710298 
L 226.825239 474.676283 
L 227.010449 477.778329 
L 227.380869 474.331611 
L 227.566079 471.229565 
L 227.751289 476.744314 
L 227.936499 473.986939 
L 228.121709 477.433658 
L 228.30692 478.123001 
L 228.49213 476.399642 
L 228.67734 477.088986 
L 228.86255 476.399642 
L 229.04776 473.986939 
L 229.23297 473.297596 
L 229.41818 475.365627 
L 229.60339 474.676283 
L 229.97381 476.05497 
L 230.15902 478.123001 
L 230.344231 474.676283 
L 230.529441 474.676283 
L 230.714651 478.467673 
L 230.899861 472.608252 
L 231.085071 473.986939 
L 231.270281 473.986939 
L 231.455491 479.501689 
L 231.640701 472.26358 
L 231.825911 477.433658 
L 232.011121 475.710298 
L 232.196331 475.365627 
L 232.381542 477.778329 
L 232.566752 475.020955 
L 232.751962 474.676283 
L 232.937172 475.020955 
L 233.122382 471.918908 
L 233.307592 475.365627 
L 233.492802 470.195549 
L 233.863222 476.744314 
L 234.048432 473.986939 
L 234.418852 478.467673 
L 234.604063 476.399642 
L 234.789273 476.05497 
L 235.159693 469.850877 
L 235.344903 477.778329 
L 235.530113 475.020955 
L 235.715323 478.812345 
L 235.900533 475.020955 
L 236.085743 475.020955 
L 236.270953 476.399642 
L 236.456163 474.331611 
L 236.641374 477.088986 
L 237.011794 471.918908 
L 237.197004 476.744314 
L 237.382214 472.952924 
L 237.567424 472.608252 
L 237.752634 476.399642 
L 237.937844 471.574236 
L 238.123054 477.433658 
L 238.493474 470.195549 
L 238.678685 470.195549 
L 238.863895 474.331611 
L 239.049105 472.26358 
L 239.234315 472.26358 
L 239.419525 473.297596 
L 239.604735 473.642267 
L 239.789945 474.676283 
L 239.975155 477.778329 
L 240.160365 468.127518 
L 240.530785 473.297596 
L 240.715996 472.26358 
L 240.901206 473.642267 
L 241.271626 471.229565 
L 241.456836 473.297596 
L 241.642046 470.884893 
L 242.012466 473.986939 
L 242.382886 471.574236 
L 242.753307 473.986939 
L 242.938517 473.642267 
L 243.123727 473.986939 
L 243.308937 476.744314 
L 243.494147 468.127518 
L 243.679357 472.952924 
L 243.864567 474.676283 
L 244.049777 475.020955 
L 244.234987 475.020955 
L 244.605407 470.195549 
L 244.790617 470.195549 
L 244.975828 473.986939 
L 245.161038 473.297596 
L 245.346248 474.676283 
L 245.531458 469.850877 
L 245.716668 471.574236 
L 245.901878 476.05497 
L 246.087088 470.540221 
L 246.272298 469.850877 
L 246.457508 473.986939 
L 246.642718 473.986939 
L 246.827928 469.506205 
L 247.013139 471.574236 
L 247.198349 475.365627 
L 247.383559 473.297596 
L 247.568769 473.642267 
L 247.753979 470.540221 
L 247.939189 473.642267 
L 248.309609 470.884893 
L 248.494819 472.608252 
L 248.680029 471.918908 
L 248.865239 473.642267 
L 249.05045 471.918908 
L 249.23566 472.608252 
L 249.42087 469.161534 
L 249.60608 469.850877 
L 249.79129 474.676283 
L 249.9765 470.195549 
L 250.16171 472.26358 
L 250.34692 471.918908 
L 250.71734 469.850877 
L 250.90255 472.608252 
L 251.087761 477.088986 
L 251.272971 470.884893 
L 251.458181 472.26358 
L 251.643391 471.229565 
L 251.828601 472.608252 
L 252.013811 471.918908 
L 252.199021 465.714815 
L 252.384231 473.642267 
L 252.569441 472.952924 
L 252.754651 466.059487 
L 252.939861 472.26358 
L 253.125072 468.816862 
L 253.310282 471.574236 
L 253.495492 468.816862 
L 253.680702 473.297596 
L 253.865912 470.540221 
L 254.051122 471.574236 
L 254.236332 468.127518 
L 254.421542 473.297596 
L 254.606752 470.540221 
L 254.791962 465.025472 
L 254.977172 473.297596 
L 255.347593 467.438174 
L 255.718013 470.884893 
L 255.903223 468.816862 
L 256.088433 469.850877 
L 256.273643 472.952924 
L 256.458853 465.714815 
L 256.644063 468.816862 
L 256.829273 468.816862 
L 257.014483 470.195549 
L 257.199693 472.608252 
L 257.384904 471.574236 
L 257.570114 474.331611 
L 257.755324 471.574236 
L 257.940534 471.918908 
L 258.125744 468.47219 
L 258.310954 471.229565 
L 258.496164 467.438174 
L 258.681374 468.816862 
L 258.866584 467.438174 
L 259.051794 471.229565 
L 259.237004 468.47219 
L 259.422215 470.195549 
L 259.607425 470.540221 
L 259.792635 469.506205 
L 259.977845 469.850877 
L 260.163055 472.608252 
L 260.348265 470.540221 
L 260.533475 470.884893 
L 260.718685 472.26358 
L 260.903895 467.782846 
L 261.089105 468.127518 
L 261.459526 471.574236 
L 261.644736 470.195549 
L 261.829946 465.025472 
L 262.015156 468.127518 
L 262.385576 465.370143 
L 262.755996 472.952924 
L 262.941206 468.47219 
L 263.311626 467.093503 
L 263.496837 467.782846 
L 263.682047 464.6808 
L 263.867257 470.540221 
L 264.052467 469.506205 
L 264.237677 469.161534 
L 264.422887 468.127518 
L 264.608097 466.059487 
L 264.793307 467.438174 
L 264.978517 467.782846 
L 265.163727 466.404159 
L 265.348937 469.850877 
L 265.534148 470.540221 
L 265.719358 464.6808 
L 265.904568 467.782846 
L 266.274988 466.404159 
L 266.460198 471.918908 
L 266.645408 470.195549 
L 266.830618 463.646784 
L 267.015828 468.816862 
L 267.201038 470.540221 
L 267.386248 469.161534 
L 267.571458 463.646784 
L 267.756669 472.26358 
L 268.127089 464.6808 
L 268.312299 467.093503 
L 268.497509 467.093503 
L 268.682719 460.200066 
L 268.867929 466.404159 
L 269.053139 468.127518 
L 269.238349 467.782846 
L 269.423559 470.540221 
L 269.608769 466.059487 
L 269.79398 470.884893 
L 269.97919 467.782846 
L 270.1644 469.850877 
L 270.34961 465.714815 
L 270.53482 465.370143 
L 270.90524 462.268097 
L 271.09045 462.612769 
L 271.46087 468.47219 
L 271.64608 463.302112 
L 271.831291 468.127518 
L 272.016501 463.646784 
L 272.201711 462.612769 
L 272.386921 463.646784 
L 272.572131 468.47219 
L 272.942551 462.268097 
L 273.127761 461.578753 
L 273.498181 469.506205 
L 273.683391 463.302112 
L 274.239022 469.850877 
L 274.424232 463.302112 
L 274.609442 462.957441 
L 274.794652 466.404159 
L 274.979862 462.957441 
L 275.165072 466.748831 
L 275.350282 466.404159 
L 275.535492 464.336128 
L 275.720702 467.438174 
L 275.905913 464.336128 
L 276.091123 464.6808 
L 276.276333 464.336128 
L 276.461543 462.957441 
L 276.646753 467.093503 
L 276.831963 462.268097 
L 277.017173 461.578753 
L 277.202383 467.093503 
L 277.387593 457.442691 
L 277.572803 462.268097 
L 277.758013 470.195549 
L 278.128434 458.132035 
L 278.313644 467.782846 
L 278.498854 467.782846 
L 278.684064 462.268097 
L 279.054484 468.47219 
L 279.239694 461.923425 
L 279.424904 462.612769 
L 279.610114 460.544738 
L 279.795324 460.88941 
L 279.980534 462.268097 
L 280.165745 460.544738 
L 280.350955 465.025472 
L 280.536165 465.370143 
L 280.721375 464.336128 
L 280.906585 464.336128 
L 281.091795 462.957441 
L 281.277005 457.787363 
L 281.462215 464.336128 
L 281.832635 459.855394 
L 282.017845 461.923425 
L 282.203056 458.821379 
L 282.388266 457.787363 
L 282.573476 459.510722 
L 282.758686 459.855394 
L 283.129106 464.6808 
L 283.314316 461.578753 
L 283.499526 462.612769 
L 283.684736 457.098019 
L 283.869946 460.544738 
L 284.055156 460.88941 
L 284.240367 457.098019 
L 284.425577 457.442691 
L 284.610787 460.88941 
L 284.795997 460.544738 
L 284.981207 462.268097 
L 285.166417 459.16605 
L 285.351627 466.404159 
L 285.722047 461.234081 
L 285.907257 464.336128 
L 286.092467 457.787363 
L 286.277678 458.132035 
L 286.462888 459.510722 
L 286.833308 464.6808 
L 287.018518 464.336128 
L 287.203728 459.510722 
L 287.574148 455.719332 
L 287.759358 464.336128 
L 288.129778 456.408676 
L 288.314989 465.370143 
L 288.870619 456.064004 
L 289.055829 460.544738 
L 289.241039 460.544738 
L 289.426249 457.098019 
L 289.611459 461.578753 
L 289.796669 455.37466 
L 289.981879 458.476707 
L 290.167089 456.408676 
L 290.352299 456.753348 
L 290.53751 461.923425 
L 290.72272 452.961957 
L 290.90793 458.476707 
L 291.09314 457.098019 
L 291.27835 457.442691 
L 291.46356 463.646784 
L 291.64877 463.991456 
L 292.01919 452.617286 
L 292.2044 457.442691 
L 292.38961 455.37466 
L 292.574821 458.132035 
L 292.760031 455.029988 
L 292.945241 463.991456 
L 293.315661 453.306629 
L 293.500871 459.855394 
L 293.686081 459.16605 
L 293.871291 453.651301 
L 294.056501 459.16605 
L 294.241711 455.37466 
L 294.426921 458.476707 
L 294.612132 455.719332 
L 294.797342 462.268097 
L 294.982552 456.064004 
L 295.167762 460.544738 
L 295.352972 459.16605 
L 295.538182 451.238598 
L 295.723392 455.719332 
L 295.908602 456.753348 
L 296.093812 453.306629 
L 296.279022 453.995973 
L 296.464232 457.442691 
L 296.649443 458.476707 
L 296.834653 454.340645 
L 297.019863 457.787363 
L 297.205073 464.336128 
L 297.390283 453.651301 
L 297.575493 451.927942 
L 297.760703 457.098019 
L 297.945913 454.340645 
L 298.131123 459.855394 
L 298.316333 460.200066 
L 298.501543 455.719332 
L 298.686754 460.88941 
L 298.871964 452.961957 
L 299.057174 455.719332 
L 299.242384 447.79188 
L 299.612804 453.995973 
L 299.798014 454.685317 
L 299.983224 452.272614 
L 300.353644 455.719332 
L 300.538854 456.064004 
L 300.724064 455.719332 
L 300.909275 455.029988 
L 301.094485 455.37466 
L 301.279695 455.37466 
L 301.464905 453.651301 
L 301.650115 457.098019 
L 301.835325 451.238598 
L 302.020535 455.37466 
L 302.205745 452.961957 
L 302.390955 454.340645 
L 302.761375 452.272614 
L 302.946586 447.102536 
L 303.131796 450.893926 
L 303.317006 449.170567 
L 303.502216 455.719332 
L 303.687426 453.306629 
L 303.872636 460.200066 
L 304.057846 450.204583 
L 304.243056 455.029988 
L 304.428266 453.651301 
L 304.613476 443.311146 
L 304.798686 442.966474 
L 305.169107 453.995973 
L 305.354317 454.340645 
L 305.539527 447.79188 
L 305.724737 450.893926 
L 305.909947 446.413193 
L 306.095157 447.79188 
L 306.280367 457.442691 
L 306.465577 450.893926 
L 306.835997 447.102536 
L 307.021208 449.859911 
L 307.206418 447.102536 
L 307.576838 449.170567 
L 307.762048 449.170567 
L 307.947258 448.136552 
L 308.132468 444.00049 
L 308.502888 447.102536 
L 308.688098 446.413193 
L 308.873308 448.825895 
L 309.058519 444.689833 
L 309.614149 451.58327 
L 309.799359 444.345162 
L 309.984569 453.306629 
L 310.169779 442.621802 
L 310.540199 444.00049 
L 310.725409 442.621802 
L 311.09583 450.549255 
L 311.46625 446.068521 
L 311.65146 438.830412 
L 311.83667 446.068521 
L 312.02188 436.762381 
L 312.3923 446.413193 
L 312.57751 447.102536 
L 312.76272 446.068521 
L 312.94793 440.2091 
L 313.13314 450.204583 
L 313.688771 439.175084 
L 313.873981 441.932459 
L 314.059191 441.932459 
L 314.244401 443.655818 
L 314.429611 449.859911 
L 314.614821 445.723849 
L 314.985241 447.79188 
L 315.170451 440.898443 
L 315.355662 439.175084 
L 315.540872 440.898443 
L 315.726082 446.068521 
L 315.911292 441.587787 
L 316.096502 442.277131 
L 316.281712 444.00049 
L 316.466922 438.141069 
L 316.837342 445.379177 
L 317.207762 438.141069 
L 317.392973 438.48574 
L 317.578183 439.175084 
L 317.763393 442.966474 
L 317.948603 435.383694 
L 318.133813 435.383694 
L 318.319023 444.689833 
L 318.689443 436.073038 
L 318.874653 446.413193 
L 319.059863 440.553771 
L 319.245073 442.621802 
L 319.430284 442.621802 
L 319.615494 435.383694 
L 319.800704 441.587787 
L 319.985914 440.2091 
L 320.171124 431.936976 
L 320.356334 435.383694 
L 320.541544 441.932459 
L 320.911964 436.762381 
L 321.097174 435.728366 
L 321.282384 441.932459 
L 321.652805 433.660335 
L 321.838015 439.519756 
L 322.023225 436.762381 
L 322.208435 439.519756 
L 322.393645 438.141069 
L 322.578855 432.970991 
L 322.764065 436.762381 
L 322.949275 437.107053 
L 323.134485 437.796397 
L 323.319695 433.315663 
L 323.504905 434.005007 
L 323.690116 434.005007 
L 323.875326 434.69435 
L 324.060536 436.073038 
L 324.245746 436.417709 
L 324.430956 439.519756 
L 324.616166 435.728366 
L 324.801376 426.766898 
L 324.986586 435.728366 
L 325.171796 436.073038 
L 325.357006 441.587787 
L 325.542216 432.626319 
L 325.727427 430.558288 
L 325.912637 425.388211 
L 326.097847 440.553771 
L 326.283057 428.834929 
L 326.468267 427.800914 
L 326.653477 430.558288 
L 326.838687 436.073038 
L 327.023897 429.179601 
L 327.209107 435.383694 
L 327.394317 427.800914 
L 327.579527 428.490257 
L 327.949948 421.596821 
L 328.135158 425.043539 
L 328.320368 426.077554 
L 328.505578 430.90296 
L 328.690788 425.732883 
L 329.246418 431.592304 
L 329.431628 430.213616 
L 329.616838 421.596821 
L 329.802049 430.558288 
L 329.987259 424.354195 
L 330.172469 424.009523 
L 330.357679 432.626319 
L 330.542889 422.630836 
L 330.728099 427.800914 
L 331.098519 423.32018 
L 331.468939 431.247632 
L 331.654149 426.766898 
L 331.83936 416.771415 
L 332.02457 425.043539 
L 332.39499 420.218133 
L 332.5802 425.043539 
L 332.95062 409.877978 
L 333.13583 423.664852 
L 333.32104 415.048056 
L 333.50625 425.388211 
L 333.87667 414.358712 
L 334.061881 420.562805 
L 334.247091 415.737399 
L 334.432301 420.907477 
L 334.617511 416.426743 
L 334.802721 406.086588 
L 334.987931 422.286164 
L 335.173141 416.771415 
L 335.358351 416.082071 
L 335.728771 408.843963 
L 336.099192 426.422226 
L 336.469612 411.601337 
L 336.654822 408.499291 
L 336.840032 414.358712 
L 337.025242 414.703384 
L 337.210452 401.261182 
L 337.395662 415.048056 
L 337.580872 420.218133 
L 337.766082 414.703384 
L 337.951292 415.392728 
L 338.136503 405.052573 
L 338.321713 413.324697 
L 338.506923 412.290681 
L 338.692133 404.363229 
L 338.877343 420.907477 
L 339.062553 418.150102 
L 339.247763 411.601337 
L 339.432973 416.426743 
L 339.618183 414.01404 
L 339.803393 408.154619 
L 339.988603 397.814464 
L 340.173814 415.737399 
L 340.544234 400.916511 
L 340.729444 411.256666 
L 341.099864 397.469792 
L 341.285074 402.984542 
L 341.470284 411.946009 
L 341.655494 410.911994 
L 341.840704 402.984542 
L 342.025914 411.256666 
L 342.581545 396.435777 
L 342.766755 400.571839 
L 342.951965 399.193151 
L 343.137175 404.707901 
L 343.322385 399.193151 
L 343.507595 406.43126 
L 343.692805 399.537823 
L 343.878015 400.916511 
L 344.063225 408.154619 
L 344.433646 388.508325 
L 344.804066 404.363229 
L 344.989276 396.435777 
L 345.174486 400.227167 
L 345.359696 394.023074 
L 345.544906 401.605854 
L 345.730116 399.882495 
L 346.100536 389.197668 
L 346.285746 395.057089 
L 346.656167 388.163653 
L 347.026587 398.503808 
L 347.211797 389.54234 
L 347.397007 386.440294 
L 347.582217 403.329213 
L 347.767427 386.784965 
L 347.952637 386.440294 
L 348.137847 396.435777 
L 348.323057 396.435777 
L 348.508268 395.057089 
L 348.693478 402.63987 
L 348.878688 396.780449 
L 349.063898 386.784965 
L 349.434318 391.610371 
L 349.619528 398.159136 
L 349.989948 382.648903 
L 350.175158 377.823498 
L 350.360368 378.512841 
L 350.545579 391.265699 
L 350.730789 380.236201 
L 350.915999 380.236201 
L 351.286419 389.197668 
L 351.471629 378.512841 
L 351.656839 385.061606 
L 351.842049 396.780449 
L 352.027259 380.236201 
L 352.212469 378.512841 
L 352.58289 385.406278 
L 352.7681 369.551374 
L 352.95331 383.682919 
L 353.32373 380.236201 
L 353.50894 373.342764 
L 353.69415 375.066123 
L 353.87936 369.896046 
L 354.06457 374.376779 
L 354.24978 363.002609 
L 354.43499 380.925544 
L 354.620201 375.410795 
L 354.805411 361.27925 
L 355.175831 371.964077 
L 355.361041 366.449327 
L 355.546251 377.823498 
L 355.731461 371.964077 
L 356.101881 353.007126 
L 356.287091 368.517358 
L 356.472301 362.313265 
L 356.657511 363.347281 
L 356.842722 376.789482 
L 357.213142 354.730485 
L 357.398352 376.44481 
L 357.583562 364.381296 
L 357.768772 362.657937 
L 357.953982 368.517358 
L 358.139192 366.793999 
L 358.694822 344.39033 
L 358.880033 353.007126 
L 359.250453 350.594423 
L 359.435663 361.27925 
L 359.620873 353.007126 
L 359.806083 360.589906 
L 359.991293 356.453844 
L 360.176503 349.560407 
L 360.361713 361.623921 
L 360.546923 346.113689 
L 360.732133 357.487859 
L 361.102554 343.011642 
L 361.287764 356.109172 
L 361.472974 351.283766 
L 361.658184 361.623921 
L 361.843394 343.356314 
L 362.028604 338.87558 
L 362.213814 346.458361 
L 362.584234 336.118206 
L 362.954655 341.977627 
L 363.325075 340.254268 
L 363.510285 343.700986 
L 363.695495 341.288283 
L 363.880705 321.641989 
L 364.065915 346.803033 
L 364.251125 341.632955 
L 364.436335 333.016159 
L 364.621545 338.186237 
L 364.806755 336.118206 
L 364.991966 331.982144 
L 365.177176 333.016159 
L 365.362386 304.408397 
L 365.547596 329.914113 
L 365.732806 336.462878 
L 365.918016 334.394847 
L 366.288436 318.19527 
L 366.658856 325.433379 
L 366.844066 336.118206 
L 367.029276 318.884614 
L 367.214487 315.437896 
L 367.584907 318.884614 
L 367.770117 323.71002 
L 368.140537 313.369865 
L 368.325747 317.505927 
L 368.510957 310.957162 
L 368.881377 305.097741 
L 369.251798 320.263301 
L 369.437008 301.306351 
L 369.622218 301.651022 
L 369.992638 312.680521 
L 370.177848 294.068242 
L 370.363058 299.927663 
L 370.548268 310.267818 
L 370.733478 301.306351 
L 370.918688 302.340366 
L 371.103898 301.651022 
L 371.289109 289.242836 
L 371.474319 289.587508 
L 371.659529 292.000211 
L 371.844739 304.408397 
L 372.029949 279.247353 
L 372.215159 300.961679 
L 372.400369 289.93218 
L 372.585579 295.446929 
L 372.955999 279.936697 
L 373.141209 280.281369 
L 373.32642 282.694072 
L 373.51163 288.898165 
L 373.69684 273.04326 
L 373.88205 283.383415 
L 374.06726 281.660056 
L 374.25247 283.383415 
L 374.43768 295.446929 
L 374.62289 269.941214 
L 374.8081 271.319901 
L 374.99331 260.979746 
L 375.17852 274.766619 
L 375.363731 266.149824 
L 375.548941 278.55801 
L 375.734151 262.013762 
L 375.919361 267.528511 
L 376.104571 277.523994 
L 376.289781 267.528511 
L 376.474991 269.941214 
L 376.660201 250.294919 
L 376.845411 242.712139 
L 377.215831 265.805152 
L 377.401042 242.367467 
L 377.586252 253.396966 
L 377.771462 253.052294 
L 377.956672 260.979746 
L 378.141882 252.707622 
L 378.327092 262.358433 
L 378.512302 257.8777 
L 378.697512 237.542061 
L 379.067932 241.333451 
L 379.253142 230.303953 
L 379.438352 250.639591 
L 379.623563 233.405999 
L 379.993983 239.610092 
L 380.179193 245.814185 
L 380.364403 226.512563 
L 380.549613 239.610092 
L 380.734823 227.546578 
L 381.105243 242.022795 
L 381.290453 208.589627 
L 381.660874 230.993296 
L 381.846084 229.614609 
L 382.031294 208.244955 
L 382.216504 217.895767 
L 382.401714 198.249472 
L 382.586924 216.172408 
L 382.772134 223.065844 
L 383.142554 198.594144 
L 383.327764 200.662175 
L 383.512974 214.104377 
L 383.698185 208.934299 
L 384.068605 194.802754 
L 384.439025 210.657658 
L 384.809445 192.390051 
L 384.994655 213.415033 
L 385.179865 204.453565 
L 385.365075 207.555612 
L 385.550285 193.768738 
L 385.735496 207.900284 
L 385.920706 181.360552 
L 386.105916 203.074878 
L 386.291126 206.176924 
L 386.476336 191.356036 
L 386.661546 198.938816 
L 386.846756 169.986382 
L 387.031966 187.564645 
L 387.217176 164.471633 
L 387.402386 188.943333 
L 387.587596 186.53063 
L 387.772807 194.802754 
L 387.958017 188.253989 
L 388.143227 163.437617 
L 388.328437 199.283488 
L 388.513647 177.913834 
L 388.698857 182.394568 
L 389.069277 179.292521 
L 389.254487 184.807271 
L 389.439697 178.94785 
L 389.624907 168.607695 
L 389.810117 182.394568 
L 389.995328 171.709741 
L 390.180538 168.952366 
L 390.365748 154.476149 
L 390.736168 172.743757 
L 390.921378 169.986382 
L 391.106588 169.986382 
L 391.291798 189.632676 
L 391.477008 182.049896 
L 391.662218 159.301555 
L 391.847428 177.913834 
L 392.032639 162.748273 
L 392.217849 164.126961 
L 392.403059 166.884335 
L 392.588269 172.399085 
L 392.773479 148.9614 
L 393.143899 173.4331 
L 393.329109 140.689276 
L 393.514319 167.918351 
L 393.699529 167.573679 
L 393.884739 173.777772 
L 394.06995 175.156459 
L 394.25516 157.922868 
L 394.44037 162.05893 
L 394.62558 157.233524 
L 394.81079 163.782289 
L 394.996 161.024914 
L 395.18121 174.122444 
L 395.36642 173.088428 
L 395.55163 141.723292 
L 395.92205 181.360552 
L 396.107261 198.938816 
L 396.292471 175.156459 
L 396.477681 176.190475 
L 396.662891 155.510165 
L 396.848101 172.743757 
L 397.033311 176.879819 
L 397.218521 184.462599 
L 397.403731 186.53063 
L 397.588941 184.462599 
L 397.774151 183.773255 
L 397.959361 169.297038 
L 398.144572 185.151943 
L 398.329782 177.569162 
L 398.514992 200.317503 
L 398.700202 174.811788 
L 398.885412 199.62816 
L 399.255832 182.049896 
L 399.441042 178.603178 
L 399.626252 177.913834 
L 399.996672 185.841286 
L 400.181883 176.535147 
L 400.367093 185.841286 
L 400.552303 202.385534 
L 400.922723 185.151943 
L 401.663563 257.8777 
L 401.848773 254.086309 
L 402.219193 295.446929 
L 402.404404 319.573958 
L 402.589614 307.510444 
L 402.774824 331.637472 
L 402.960034 336.807549 
L 403.145244 346.458361 
L 403.330454 372.308748 
L 403.515664 371.619405 
L 403.700874 376.100139 
L 403.886084 404.018557 
L 404.071294 405.741916 
L 404.626925 434.69435 
L 404.812135 431.936976 
L 404.997345 434.349678 
L 405.367765 454.340645 
L 405.552975 449.515239 
L 405.923395 460.88941 
L 406.293815 469.850877 
L 406.479026 466.748831 
L 406.664236 471.918908 
L 407.034656 474.676283 
L 407.405076 469.850877 
L 407.590286 477.433658 
L 407.960706 469.161534 
L 408.145916 478.123001 
L 408.331126 470.540221 
L 408.516337 468.816862 
L 408.886757 459.16605 
L 409.071967 459.855394 
L 409.257177 458.476707 
L 409.442387 443.655818 
L 409.627597 444.00049 
L 409.812807 443.655818 
L 410.183227 419.52879 
L 410.368437 425.388211 
L 410.553648 408.154619 
L 410.738858 408.499291 
L 410.924068 400.916511 
L 411.109278 404.707901 
L 411.294488 365.759983 
L 411.479698 359.55589 
L 411.664908 361.968593 
L 411.850118 340.59894 
L 412.035328 341.632955 
L 412.405748 305.787084 
L 412.590958 291.310867 
L 412.776169 264.081793 
L 412.961379 283.728087 
L 413.331799 230.648625 
L 413.517009 236.163374 
L 413.887429 191.700707 
L 414.072639 186.185958 
L 414.257849 170.331054 
L 414.443059 179.292521 
L 414.628269 197.560129 
L 414.81348 174.467116 
L 414.99869 193.768738 
L 415.1839 175.845803 
L 415.36911 180.671209 
L 415.55432 192.045379 
L 415.92474 162.05893 
L 416.10995 183.083912 
L 416.29516 187.909317 
L 416.48037 187.219974 
L 416.66558 187.564645 
L 416.850791 176.190475 
L 417.036001 176.190475 
L 417.221211 177.22449 
L 417.406421 183.428583 
L 417.591631 163.092945 
L 417.776841 170.331054 
L 417.962051 171.365069 
L 418.147261 157.578196 
L 418.517681 176.190475 
L 418.702891 155.165493 
L 418.888102 163.437617 
L 419.258522 167.573679 
L 419.443732 179.292521 
L 419.628942 162.403602 
L 419.999362 161.024914 
L 420.369782 183.428583 
L 420.554992 173.4331 
L 420.740202 148.616728 
L 420.925413 173.4331 
L 421.110623 149.306072 
L 421.295833 156.888852 
L 421.481043 158.26754 
L 421.666253 164.126961 
L 421.851463 177.569162 
L 422.036673 177.913834 
L 422.221883 158.612211 
L 422.407093 178.603178 
L 422.592303 159.301555 
L 422.777513 174.467116 
L 422.962723 165.85032 
L 423.147934 178.603178 
L 423.333144 163.092945 
L 423.518354 178.603178 
L 423.703564 164.816304 
L 423.888774 162.403602 
L 424.073984 165.160976 
L 424.259194 152.063447 
L 424.629614 172.054413 
L 424.814824 179.981865 
L 425.000034 168.263023 
L 425.185245 166.884335 
L 425.370455 191.700707 
L 425.555665 172.399085 
L 425.740875 176.879819 
L 425.926085 178.603178 
L 426.111295 165.505648 
L 426.481715 194.802754 
L 426.666925 164.816304 
L 426.852135 193.768738 
L 427.037345 187.564645 
L 427.222556 193.768738 
L 427.592976 167.573679 
L 427.778186 200.317503 
L 427.963396 210.312986 
L 428.148606 198.594144 
L 428.333816 205.142909 
L 428.519026 178.258506 
L 428.704236 197.560129 
L 429.074656 188.943333 
L 429.259867 211.691674 
L 429.630287 190.666692 
L 429.815497 191.011364 
L 430.000707 209.278971 
L 430.185917 187.909317 
L 430.556337 209.623643 
L 430.741547 205.832253 
L 430.926757 213.759705 
L 431.111967 208.589627 
L 431.297178 215.827736 
L 431.482388 208.934299 
L 431.667598 230.303953 
L 431.852808 209.623643 
L 432.038018 215.483064 
L 432.223228 213.759705 
L 432.408438 227.201906 
L 432.593648 225.478547 
L 432.778858 212.036346 
L 432.964068 215.827736 
L 433.334489 237.197389 
L 433.519699 218.58511 
L 433.704909 218.929782 
L 434.075329 240.644108 
L 434.260539 233.405999 
L 434.445749 230.993296 
L 434.630959 235.129358 
L 434.816169 242.367467 
L 435.001379 240.98878 
L 435.371799 255.809669 
L 435.55701 240.299436 
L 435.74222 257.188356 
L 435.92743 247.882216 
L 436.11264 251.328935 
L 436.29785 242.022795 
L 436.48306 268.562526 
L 436.66827 244.435498 
L 436.85348 242.367467 
L 437.03869 257.533028 
L 437.2239 256.15434 
L 437.40911 267.528511 
L 437.594321 256.499012 
L 437.964741 271.664573 
L 438.149951 249.605576 
L 438.335161 259.256387 
L 438.520371 259.945731 
L 438.705581 285.106774 
L 439.076001 276.83465 
L 439.261211 262.358433 
L 439.446421 278.902681 
L 439.816842 264.771136 
L 440.002052 283.728087 
L 440.187262 264.426464 
L 440.557682 288.553493 
L 440.742892 275.455963 
L 440.928102 296.136273 
L 441.113312 286.830134 
L 441.298522 286.485462 
L 441.483732 293.378898 
L 441.668943 275.111291 
L 441.854153 294.412914 
L 442.039363 299.23832 
L 442.224573 289.587508 
L 442.409783 289.587508 
L 442.594993 290.276852 
L 442.780203 286.485462 
L 442.965413 291.655539 
L 443.150623 285.451446 
L 443.335833 294.757586 
L 443.521043 292.000211 
L 443.706254 292.689555 
L 443.891464 299.927663 
L 444.076674 299.927663 
L 444.261884 298.893648 
L 444.447094 303.719053 
L 444.817514 287.174805 
L 445.002724 306.131756 
L 445.187934 306.131756 
L 445.373144 304.063725 
L 445.558354 318.19527 
L 445.743564 320.607973 
L 445.928775 299.927663 
L 446.113985 309.923146 
L 446.299195 301.995694 
L 446.484405 312.680521 
L 446.669615 335.428862 
L 447.225245 305.097741 
L 447.410455 310.61249 
L 447.595665 322.331332 
L 447.780875 323.365348 
L 447.966086 312.335849 
L 448.151296 327.156738 
L 448.336506 323.365348 
L 448.521716 336.118206 
L 448.706926 310.267818 
L 448.892136 318.539942 
L 449.077346 337.152221 
L 449.262556 331.982144 
L 449.447766 317.161255 
L 449.632976 323.365348 
L 449.818186 324.054692 
L 450.003397 322.676004 
L 450.188607 335.773534 
L 450.559027 327.846082 
L 450.929447 344.735002 
L 451.114657 339.220252 
L 451.299867 341.977627 
L 451.485077 347.147704 
L 451.855497 341.977627 
L 452.040708 323.365348 
L 452.411128 340.59894 
L 452.596338 337.152221 
L 452.781548 356.453844 
L 452.966758 354.730485 
L 453.151968 342.322299 
L 453.337178 347.492376 
L 453.522388 349.215735 
L 453.707598 369.896046 
L 453.892808 343.011642 
L 454.078019 347.147704 
L 454.263229 365.07064 
L 454.633649 355.419828 
L 454.818859 359.900562 
L 455.004069 358.177203 
L 455.189279 352.662454 
L 455.374489 365.759983 
L 455.559699 360.589906 
L 455.744909 348.871064 
L 456.11533 360.934578 
L 456.30054 360.245234 
L 456.48575 354.730485 
L 456.67096 364.381296 
L 456.85617 354.730485 
L 457.04138 370.585389 
L 457.22659 367.483343 
L 457.4118 370.930061 
L 457.59701 361.27925 
L 457.96743 373.342764 
L 458.15264 358.866547 
L 458.337851 360.934578 
L 458.523061 359.211219 
L 458.708271 369.896046 
L 458.893481 366.104655 
L 459.078691 369.206702 
L 459.263901 382.648903 
L 459.449111 364.036624 
L 459.634321 374.376779 
L 459.819531 375.410795 
L 460.004741 366.104655 
L 460.189951 388.852996 
L 460.375162 373.687436 
L 460.560372 373.687436 
L 460.745582 384.027591 
L 460.930792 380.236201 
L 461.116002 372.998092 
L 461.301212 373.687436 
L 461.486422 379.891529 
L 461.671632 370.240717 
L 461.856842 386.784965 
L 462.227262 375.410795 
L 462.412473 385.061606 
L 462.597683 379.546857 
L 462.782893 381.95956 
L 462.968103 386.784965 
L 463.153313 387.129637 
L 463.338523 365.759983 
L 463.523733 389.197668 
L 463.894153 374.376779 
L 464.264573 392.299715 
L 464.449784 386.784965 
L 464.634994 387.818981 
L 464.820204 386.440294 
L 465.005414 382.304232 
L 465.190624 391.265699 
L 465.375834 381.95956 
L 465.561044 385.061606 
L 465.746254 398.503808 
L 465.931464 389.197668 
L 466.116674 385.75095 
L 466.301884 395.057089 
L 466.487095 397.469792 
L 466.672305 384.716934 
L 466.857515 387.129637 
L 467.042725 385.75095 
L 467.227935 396.091105 
L 467.413145 397.12512 
L 467.598355 388.852996 
L 467.783565 388.508325 
L 467.968775 389.887012 
L 468.153985 395.746433 
L 468.339195 396.435777 
L 468.524405 403.329213 
L 468.709616 403.329213 
L 468.894826 402.984542 
L 469.080036 397.469792 
L 469.265246 400.227167 
L 469.450456 394.367746 
L 469.635666 401.261182 
L 469.820876 395.057089 
L 470.006086 407.809947 
L 470.191296 399.882495 
L 470.376506 406.43126 
L 470.561716 403.673885 
L 470.746927 408.499291 
L 471.117347 394.023074 
L 471.487767 411.601337 
L 471.858187 404.018557 
L 472.043397 400.227167 
L 472.228607 400.227167 
L 472.599027 412.635353 
L 472.784238 407.120604 
L 473.154658 412.635353 
L 473.339868 401.950526 
L 473.525078 407.465275 
L 473.710288 401.605854 
L 473.895498 410.911994 
L 474.080708 405.052573 
L 474.265918 405.052573 
L 474.636338 412.635353 
L 474.821549 406.43126 
L 475.006759 407.465275 
L 475.191969 413.324697 
L 475.377179 422.975508 
L 475.747599 407.465275 
L 475.932809 408.154619 
L 476.118019 413.669368 
L 476.303229 406.775932 
L 476.673649 416.426743 
L 476.85886 419.873461 
L 477.04407 408.499291 
L 477.22928 416.426743 
L 477.41449 414.703384 
L 477.5997 415.048056 
L 477.78491 408.843963 
L 477.97012 416.082071 
L 478.15533 408.843963 
L 478.34054 416.426743 
L 478.52575 416.771415 
L 478.71096 411.946009 
L 478.89617 411.601337 
L 479.081381 423.32018 
L 479.266591 422.286164 
L 479.451801 425.043539 
L 479.637011 414.01404 
L 479.822221 423.32018 
L 480.192641 414.358712 
L 480.377851 414.01404 
L 480.563061 424.009523 
L 480.748271 410.911994 
L 480.933481 424.009523 
L 481.118692 417.460759 
L 481.489112 424.354195 
L 481.674322 418.150102 
L 481.859532 420.562805 
L 482.044742 428.490257 
L 482.229952 422.286164 
L 482.415162 421.252149 
L 482.600372 421.252149 
L 482.785582 422.286164 
L 482.970792 418.839446 
L 483.156003 427.11157 
L 483.341213 428.145585 
L 483.526423 429.868945 
L 483.896843 419.52879 
L 484.082053 432.626319 
L 484.452473 420.218133 
L 484.637683 421.596821 
L 484.822893 430.558288 
L 485.008103 419.52879 
L 485.193314 432.281647 
L 485.378524 425.043539 
L 485.563734 427.800914 
L 485.748944 433.315663 
L 485.934154 433.315663 
L 486.119364 424.698867 
L 486.489784 430.558288 
L 486.674994 430.90296 
L 486.860204 428.490257 
L 487.045414 429.524273 
L 487.230625 425.388211 
L 487.415835 434.349678 
L 487.601045 432.970991 
L 487.786255 433.315663 
L 487.971465 426.077554 
L 488.156675 424.698867 
L 488.341885 436.417709 
L 488.712305 436.417709 
L 488.897515 440.2091 
L 489.082725 424.354195 
L 489.267936 434.349678 
L 489.453146 436.073038 
L 489.823566 432.626319 
L 490.008776 436.762381 
L 490.193986 431.247632 
L 490.379196 437.107053 
L 490.564406 430.90296 
L 490.749616 436.762381 
L 490.934826 437.451725 
L 491.120036 437.107053 
L 491.305246 435.728366 
L 491.490457 435.728366 
L 491.675667 437.451725 
L 491.860877 435.383694 
L 492.046087 435.728366 
L 492.231297 427.456242 
L 492.416507 436.073038 
L 492.601717 432.281647 
L 492.972137 441.243115 
L 493.157347 436.762381 
L 493.342557 439.864428 
L 493.527768 439.864428 
L 493.712978 436.073038 
L 494.083398 435.039022 
L 494.268608 436.073038 
L 494.453818 426.077554 
L 494.824238 444.345162 
L 495.009448 444.689833 
L 495.194658 439.175084 
L 495.379868 437.796397 
L 495.565079 445.723849 
L 495.935499 435.039022 
L 496.120709 437.451725 
L 496.305919 441.932459 
L 496.491129 441.932459 
L 496.676339 443.311146 
L 496.861549 440.553771 
L 497.046759 439.864428 
L 497.231969 442.966474 
L 497.417179 435.728366 
L 497.60239 444.00049 
L 497.7876 436.762381 
L 497.97281 451.58327 
L 498.15802 439.519756 
L 498.34323 440.2091 
L 498.52844 442.966474 
L 498.71365 437.796397 
L 498.89886 440.2091 
L 499.08407 438.48574 
L 499.45449 446.757864 
L 500.010121 435.728366 
L 500.195331 441.243115 
L 500.380541 441.243115 
L 500.565751 440.898443 
L 500.750961 441.243115 
L 500.936171 443.655818 
L 501.121381 448.825895 
L 501.306591 440.2091 
L 501.491801 444.00049 
L 501.677011 444.00049 
L 501.862222 441.932459 
L 502.047432 449.859911 
L 502.232642 444.00049 
L 502.417852 446.413193 
L 502.603062 444.689833 
L 502.788272 447.447208 
L 503.158692 446.068521 
L 503.343902 446.413193 
L 503.529112 439.864428 
L 503.714322 450.204583 
L 503.899533 445.379177 
L 504.084743 455.029988 
L 504.640373 446.068521 
L 504.825583 449.859911 
L 505.010793 448.481224 
L 505.196003 445.034505 
L 505.381213 445.034505 
L 505.566423 454.685317 
L 505.751633 446.413193 
L 505.936844 450.549255 
L 506.122054 444.345162 
L 506.307264 444.689833 
L 506.492474 445.379177 
L 506.862894 450.549255 
L 507.233314 444.689833 
L 507.418524 445.034505 
L 507.603734 446.068521 
L 507.788944 446.413193 
L 507.974155 445.379177 
L 508.159365 446.757864 
L 508.344575 449.859911 
L 508.529785 449.515239 
L 508.714995 456.408676 
L 508.900205 443.311146 
L 509.270625 454.685317 
L 509.641045 448.136552 
L 509.826255 449.170567 
L 510.011466 442.966474 
L 510.196676 450.549255 
L 510.381886 451.238598 
L 510.567096 453.651301 
L 510.752306 449.170567 
L 510.937516 451.238598 
L 511.122726 447.447208 
L 511.493146 455.719332 
L 511.678356 448.481224 
L 511.863566 451.238598 
L 512.048777 447.102536 
L 512.233987 453.995973 
L 512.419197 447.447208 
L 512.604407 451.927942 
L 512.789617 447.447208 
L 512.974827 455.719332 
L 513.160037 452.961957 
L 513.345247 452.272614 
L 513.530457 453.306629 
L 513.715667 455.37466 
L 513.900877 455.37466 
L 514.086087 451.58327 
L 514.271298 457.442691 
L 514.456508 453.995973 
L 514.826928 457.098019 
L 515.012138 453.995973 
L 515.382558 455.029988 
L 515.567768 453.306629 
L 515.752978 455.37466 
L 515.938188 460.544738 
L 516.123398 453.651301 
L 516.308609 451.238598 
L 516.493819 456.408676 
L 516.679029 450.549255 
L 517.049449 456.753348 
L 517.234659 447.447208 
L 517.419869 454.685317 
L 517.605079 453.306629 
L 517.790289 458.476707 
L 517.975499 458.821379 
L 518.160709 458.821379 
L 518.34592 453.651301 
L 518.53113 453.306629 
L 518.71634 458.476707 
L 518.90155 451.58327 
L 519.27197 459.855394 
L 519.64239 453.306629 
L 519.8276 454.685317 
L 520.01281 453.306629 
L 520.19802 450.893926 
L 520.568441 459.855394 
L 520.753651 455.719332 
L 520.938861 454.685317 
L 521.124071 459.510722 
L 521.309281 451.58327 
L 521.494491 457.442691 
L 521.679701 458.132035 
L 521.864911 449.170567 
L 522.235331 461.234081 
L 522.420542 455.37466 
L 522.605752 457.098019 
L 522.790962 464.6808 
L 522.976172 458.821379 
L 523.161382 462.612769 
L 523.346592 458.476707 
L 523.531802 458.132035 
L 523.717012 462.268097 
L 523.902222 456.064004 
L 524.087432 467.093503 
L 524.272642 466.748831 
L 524.457852 452.961957 
L 524.643063 463.991456 
L 524.828273 460.200066 
L 525.013483 459.510722 
L 525.198693 459.510722 
L 525.383903 460.544738 
L 525.569113 455.37466 
L 525.939533 463.646784 
L 526.124743 455.719332 
L 526.309953 454.340645 
L 526.680374 460.200066 
L 526.865584 466.748831 
L 527.050794 461.578753 
L 527.236004 461.578753 
L 527.421214 459.16605 
L 527.606424 464.336128 
L 527.791634 464.6808 
L 527.976844 461.234081 
L 528.162054 462.612769 
L 528.347264 458.476707 
L 528.532474 463.646784 
L 528.717685 457.098019 
L 529.088105 465.370143 
L 529.458525 458.476707 
L 529.643735 459.855394 
L 529.828945 458.132035 
L 530.014155 460.200066 
L 530.199365 463.991456 
L 530.384575 464.6808 
L 530.569785 458.132035 
L 530.754996 461.578753 
L 531.125416 456.753348 
L 531.310626 461.923425 
L 531.495836 460.200066 
L 531.681046 460.88941 
L 531.866256 468.47219 
L 532.236676 456.064004 
L 532.607096 462.957441 
L 532.792307 458.821379 
L 532.977517 462.268097 
L 533.162727 463.302112 
L 533.347937 457.442691 
L 533.533147 462.957441 
L 533.718357 456.408676 
L 533.903567 463.646784 
L 534.088777 461.234081 
L 534.459197 469.506205 
L 534.644407 462.268097 
L 534.829617 459.855394 
L 535.200038 467.438174 
L 535.570458 458.821379 
L 535.755668 460.544738 
L 535.940878 466.059487 
L 536.126088 461.923425 
L 536.311298 465.025472 
L 536.496508 463.991456 
L 536.681718 467.438174 
L 536.866928 460.544738 
L 537.052139 466.404159 
L 537.237349 463.646784 
L 537.422559 462.612769 
L 537.607769 460.544738 
L 537.792979 467.438174 
L 538.163399 465.714815 
L 538.348609 463.646784 
L 538.533819 465.370143 
L 538.719029 464.6808 
L 538.904239 465.714815 
L 539.08945 463.646784 
L 539.27466 464.6808 
L 539.45987 468.47219 
L 539.64508 463.991456 
L 539.83029 467.438174 
L 540.0155 465.025472 
L 540.20071 464.6808 
L 540.38592 465.714815 
L 540.75634 462.612769 
L 540.94155 460.88941 
L 541.126761 463.302112 
L 541.311971 468.816862 
L 541.497181 461.923425 
L 541.682391 463.302112 
L 541.867601 468.816862 
L 542.052811 464.6808 
L 542.238021 465.025472 
L 542.423231 468.816862 
L 542.608441 462.612769 
L 542.793651 465.370143 
L 542.978861 462.957441 
L 543.349282 470.195549 
L 543.534492 469.850877 
L 543.719702 469.850877 
L 543.904912 468.47219 
L 544.090122 462.268097 
L 544.460542 468.127518 
L 544.645752 465.370143 
L 544.830962 466.748831 
L 545.016172 465.370143 
L 545.201383 462.957441 
L 545.386593 466.059487 
L 545.571803 466.404159 
L 545.757013 471.918908 
L 545.942223 468.47219 
L 546.497853 470.195549 
L 546.868273 467.438174 
L 547.053483 467.093503 
L 547.238693 471.229565 
L 547.423904 471.229565 
L 547.609114 468.47219 
L 547.794324 463.991456 
L 547.979534 467.782846 
L 548.164744 462.612769 
L 548.349954 468.816862 
L 548.535164 466.404159 
L 548.720374 472.608252 
L 548.905584 471.574236 
L 549.090794 467.782846 
L 549.276004 467.093503 
L 549.461215 473.297596 
L 549.646425 469.161534 
L 549.831635 470.540221 
L 550.016845 466.404159 
L 550.387265 470.884893 
L 550.572475 472.26358 
L 550.757685 465.370143 
L 550.942895 464.6808 
L 551.128105 469.850877 
L 551.313315 470.195549 
L 551.498526 471.229565 
L 551.683736 463.646784 
L 551.868946 469.506205 
L 552.054156 465.025472 
L 552.239366 466.404159 
L 552.424576 465.370143 
L 552.609786 466.404159 
L 552.980206 471.229565 
L 553.165416 469.161534 
L 553.350626 465.025472 
L 553.535837 472.952924 
L 553.721047 472.26358 
L 553.906257 466.404159 
L 554.091467 468.47219 
L 554.276677 473.297596 
L 554.461887 468.816862 
L 554.647097 467.782846 
L 554.832307 468.47219 
L 555.017517 471.574236 
L 555.202727 469.506205 
L 555.387937 470.540221 
L 555.573148 470.884893 
L 555.758358 467.093503 
L 555.943568 467.782846 
L 556.128778 465.025472 
L 556.684408 471.229565 
L 556.869618 461.923425 
L 557.054828 469.161534 
L 557.240038 466.748831 
L 557.425248 468.47219 
L 557.610458 472.608252 
L 557.795669 469.850877 
L 557.980879 473.642267 
L 558.166089 469.161534 
L 558.351299 470.884893 
L 558.536509 468.47219 
L 558.721719 471.574236 
L 558.906929 468.127518 
L 559.092139 468.816862 
L 559.277349 468.47219 
L 559.647769 475.365627 
L 559.83298 473.642267 
L 560.01819 470.540221 
L 560.2034 474.331611 
L 560.38861 470.884893 
L 560.57382 472.608252 
L 560.75903 471.229565 
L 561.12945 467.438174 
L 561.31466 471.229565 
L 561.49987 468.816862 
L 561.68508 468.816862 
L 561.870291 469.161534 
L 562.055501 474.676283 
L 562.425921 470.540221 
L 562.611131 467.782846 
L 562.796341 474.331611 
L 562.981551 475.365627 
L 563.351971 466.059487 
L 563.537181 472.608252 
L 563.722391 474.331611 
L 563.907602 470.195549 
L 564.092812 470.540221 
L 564.463232 473.642267 
L 564.648442 470.540221 
L 564.833652 470.195549 
L 565.018862 473.986939 
L 565.204072 469.161534 
L 565.389282 472.608252 
L 565.574492 468.47219 
L 565.759702 472.608252 
L 566.130123 469.850877 
L 566.500543 476.05497 
L 566.685753 472.26358 
L 566.870963 471.918908 
L 567.056173 468.47219 
L 567.426593 472.952924 
L 567.611803 471.574236 
L 567.797013 476.05497 
L 568.167434 469.506205 
L 568.352644 475.020955 
L 568.537854 476.05497 
L 568.723064 470.884893 
L 568.908274 469.850877 
L 569.093484 473.642267 
L 569.278694 471.574236 
L 569.463904 471.229565 
L 569.649114 471.229565 
L 569.834324 474.676283 
L 570.019534 473.297596 
L 570.204745 474.676283 
L 570.575165 470.884893 
L 570.760375 474.676283 
L 570.945585 469.850877 
L 571.316005 474.331611 
L 571.501215 474.676283 
L 571.686425 470.884893 
L 571.871635 475.365627 
L 572.056845 473.297596 
L 572.242056 472.952924 
L 572.427266 472.26358 
L 572.612476 472.608252 
L 572.797686 472.26358 
L 572.982896 470.540221 
L 573.353316 475.365627 
L 573.538526 471.229565 
L 573.723736 472.952924 
L 573.908946 478.812345 
L 574.094156 473.642267 
L 574.279367 474.331611 
L 574.464577 469.506205 
L 574.649787 472.608252 
L 574.834997 472.26358 
L 575.205417 475.710298 
L 575.390627 473.986939 
L 575.575837 476.744314 
L 575.946257 472.608252 
L 576.131467 475.365627 
L 576.316678 474.331611 
L 576.501888 476.399642 
L 576.687098 474.676283 
L 576.872308 475.365627 
L 577.057518 475.365627 
L 577.242728 471.918908 
L 577.613148 476.744314 
L 577.798358 476.05497 
L 578.353989 470.195549 
L 578.539199 472.26358 
L 578.724409 477.433658 
L 578.909619 476.05497 
L 579.094829 470.884893 
L 579.280039 478.123001 
L 579.650459 470.540221 
L 579.835669 473.986939 
L 580.020879 472.952924 
L 580.206089 475.365627 
L 580.391299 471.574236 
L 580.76172 473.297596 
L 580.94693 472.608252 
L 581.13214 473.642267 
L 581.31735 473.986939 
L 581.50256 474.676283 
L 581.68777 474.676283 
L 581.87298 473.297596 
L 582.05819 469.850877 
L 582.2434 479.157017 
L 582.42861 472.608252 
L 582.613821 475.365627 
L 582.799031 474.331611 
L 582.984241 473.986939 
L 583.169451 476.744314 
L 583.354661 475.365627 
L 583.539871 472.26358 
L 583.725081 474.331611 
L 583.910291 478.812345 
L 584.095501 471.574236 
L 584.280711 476.399642 
L 584.465921 476.05497 
L 584.651132 477.433658 
L 584.836342 472.952924 
L 585.021552 474.331611 
L 585.577182 472.26358 
L 585.762392 476.744314 
L 585.947602 476.05497 
L 586.318022 473.297596 
L 586.503232 473.297596 
L 586.688443 474.331611 
L 586.873653 473.986939 
L 587.058863 474.331611 
L 587.244073 478.467673 
L 587.429283 473.297596 
L 587.614493 473.642267 
L 587.799703 476.744314 
L 587.984913 473.297596 
L 588.170123 478.467673 
L 588.355333 476.399642 
L 588.540543 471.574236 
L 588.725754 477.433658 
L 588.910964 473.986939 
L 589.096174 476.05497 
L 589.281384 473.297596 
L 589.466594 478.467673 
L 589.651804 479.157017 
L 590.022224 472.26358 
L 590.207434 473.297596 
L 590.392644 478.467673 
L 590.577854 478.123001 
L 590.763064 475.365627 
L 590.948275 476.399642 
L 591.133485 472.952924 
L 591.503905 477.088986 
L 591.689115 474.331611 
L 591.874325 475.020955 
L 592.059535 477.088986 
L 592.244745 470.884893 
L 592.429955 475.365627 
L 592.615165 473.642267 
L 592.800375 478.467673 
L 592.985586 475.710298 
L 593.170796 476.05497 
L 593.356006 475.710298 
L 593.541216 481.914391 
L 593.911636 474.331611 
L 594.096846 478.123001 
L 594.282056 477.778329 
L 594.467266 477.088986 
L 594.652476 474.676283 
L 594.837686 478.467673 
L 595.022897 478.123001 
L 595.393317 471.574236 
L 595.763737 478.812345 
L 595.948947 478.467673 
L 596.134157 474.676283 
L 596.319367 477.433658 
L 596.689787 475.020955 
L 596.874997 477.088986 
L 597.245418 473.986939 
L 597.430628 479.501689 
L 597.615838 477.778329 
L 597.801048 478.467673 
L 597.986258 477.088986 
L 598.171468 473.642267 
L 598.356678 472.952924 
L 598.541888 474.331611 
L 598.727098 474.676283 
L 598.912308 477.088986 
L 599.097519 475.710298 
L 599.282729 475.365627 
L 599.467939 474.331611 
L 599.653149 478.812345 
L 599.838359 476.399642 
L 600.023569 480.191032 
L 600.208779 476.744314 
L 600.393989 477.778329 
L 600.764409 480.191032 
L 600.949619 477.088986 
L 601.13483 479.84636 
L 601.50525 476.05497 
L 601.69046 478.812345 
L 601.87567 477.778329 
L 602.06088 478.467673 
L 602.24609 478.467673 
L 602.4313 476.744314 
L 602.61651 477.088986 
L 602.80172 478.467673 
L 602.98693 477.088986 
L 603.17214 480.535704 
L 603.357351 472.608252 
L 603.727771 480.191032 
L 603.912981 478.123001 
L 604.098191 478.467673 
L 604.283401 476.05497 
L 604.468611 478.123001 
L 604.653821 476.744314 
L 604.839031 479.501689 
L 605.024241 478.467673 
L 605.209451 474.676283 
L 605.394662 479.157017 
L 605.579872 472.608252 
L 605.765082 477.778329 
L 605.950292 478.123001 
L 606.135502 481.225048 
L 606.320712 479.501689 
L 606.505922 479.84636 
L 606.691132 478.123001 
L 606.876342 478.812345 
L 607.061552 477.778329 
L 607.246762 479.157017 
L 607.431973 477.088986 
L 607.617183 477.433658 
L 607.802393 479.157017 
L 607.987603 477.778329 
L 608.172813 483.637751 
L 608.358023 483.293079 
L 608.543233 474.331611 
L 608.728443 480.880376 
L 608.913653 477.088986 
L 609.284073 481.225048 
L 609.469284 477.778329 
L 609.839704 480.191032 
L 610.024914 478.123001 
L 610.210124 481.914391 
L 610.580544 477.088986 
L 610.765754 478.123001 
L 610.950964 479.84636 
L 611.136174 480.191032 
L 611.321384 477.088986 
L 611.506595 480.535704 
L 611.691805 479.501689 
L 611.877015 476.05497 
L 612.062225 477.778329 
L 612.432645 477.778329 
L 612.617855 479.157017 
L 612.803065 478.467673 
L 612.988275 481.914391 
L 613.358695 474.331611 
L 613.543905 482.603735 
L 613.729116 476.05497 
L 613.914326 480.191032 
L 614.099536 479.157017 
L 614.284746 477.433658 
L 614.469956 481.225048 
L 614.655166 476.05497 
L 614.840376 477.433658 
L 615.025586 481.914391 
L 615.210796 477.088986 
L 615.396006 480.191032 
L 615.766427 476.744314 
L 615.951637 480.191032 
L 616.136847 479.501689 
L 616.322057 480.191032 
L 616.507267 479.501689 
L 616.692477 476.744314 
L 616.877687 479.84636 
L 617.062897 475.020955 
L 617.618527 479.157017 
L 617.803738 477.433658 
L 617.988948 477.778329 
L 618.174158 479.157017 
L 618.359368 483.293079 
L 618.544578 473.986939 
L 618.729788 479.501689 
L 618.914998 479.84636 
L 619.100208 479.501689 
L 619.285418 478.467673 
L 619.470628 478.123001 
L 619.655838 477.088986 
L 619.841049 482.259063 
L 620.026259 477.778329 
L 620.211469 480.880376 
L 620.767099 476.744314 
L 620.952309 481.56972 
L 621.137519 478.467673 
L 621.322729 479.84636 
L 621.507939 477.433658 
L 621.693149 480.535704 
L 621.87836 478.467673 
L 622.06357 481.56972 
L 622.24878 481.56972 
L 622.43399 479.501689 
L 622.6192 480.535704 
L 622.80441 477.778329 
L 623.17483 480.880376 
L 623.36004 477.778329 
L 623.54525 478.467673 
L 623.73046 477.778329 
L 623.91567 475.710298 
L 624.100881 479.501689 
L 624.286091 479.501689 
L 624.471301 480.880376 
L 624.656511 480.535704 
L 624.841721 480.535704 
L 625.026931 479.157017 
L 625.397351 481.56972 
L 625.767771 479.84636 
L 625.952981 482.259063 
L 626.138192 480.535704 
L 626.323402 480.191032 
L 626.508612 480.535704 
L 626.693822 476.05497 
L 626.879032 477.433658 
L 627.064242 480.880376 
L 627.434662 479.501689 
L 627.619872 480.535704 
L 627.805082 479.84636 
L 627.990292 480.535704 
L 628.175503 478.123001 
L 628.360713 480.535704 
L 628.731133 477.433658 
L 628.916343 480.880376 
L 629.101553 480.535704 
L 629.286763 483.637751 
L 629.471973 479.84636 
L 629.657183 479.84636 
L 629.842393 480.191032 
L 630.027603 480.880376 
L 630.212814 480.880376 
L 630.398024 478.812345 
L 630.583234 480.880376 
L 630.768444 481.56972 
L 630.953654 479.501689 
L 631.138864 481.914391 
L 631.324074 479.501689 
L 631.509284 481.225048 
L 631.694494 479.501689 
L 631.879704 482.948407 
L 632.064914 479.84636 
L 632.250125 482.948407 
L 632.620545 477.778329 
L 632.805755 481.225048 
L 632.990965 476.05497 
L 633.176175 480.880376 
L 633.361385 477.088986 
L 633.546595 481.225048 
L 633.731805 479.84636 
L 633.917015 480.880376 
L 634.102225 480.191032 
L 634.287436 480.880376 
L 634.472646 485.016438 
L 634.657856 480.535704 
L 634.843066 481.225048 
L 635.213486 478.467673 
L 635.398696 479.501689 
L 635.583906 477.778329 
L 635.954326 480.535704 
L 636.139536 480.535704 
L 636.324746 479.84636 
L 636.509957 481.914391 
L 636.695167 482.259063 
L 636.880377 478.812345 
L 637.065587 480.880376 
L 637.250797 481.225048 
L 637.436007 476.744314 
L 637.621217 480.535704 
L 637.806427 479.501689 
L 637.991637 481.914391 
L 638.176847 477.778329 
L 638.547268 480.880376 
L 638.917688 476.05497 
L 639.288108 480.880376 
L 639.473318 478.812345 
L 639.658528 481.914391 
L 639.843738 482.603735 
L 640.028948 479.157017 
L 640.214158 481.56972 
L 640.399368 479.157017 
L 640.584579 479.84636 
L 640.769789 484.671766 
L 641.140209 480.880376 
L 641.325419 481.225048 
L 641.510629 479.84636 
L 641.695839 480.880376 
L 641.881049 479.157017 
L 642.066259 479.501689 
L 642.251469 483.293079 
L 642.62189 478.467673 
L 642.8071 482.948407 
L 642.99231 482.603735 
L 643.17752 479.157017 
L 643.36273 480.191032 
L 643.54794 482.603735 
L 643.73315 479.84636 
L 643.91836 481.914391 
L 644.10357 479.157017 
L 644.28878 480.880376 
L 644.47399 479.157017 
L 644.659201 482.948407 
L 644.844411 481.225048 
L 645.214831 481.914391 
L 645.400041 481.914391 
L 645.585251 481.56972 
L 645.770461 482.259063 
L 645.955671 477.778329 
L 646.140881 479.84636 
L 646.326091 480.191032 
L 646.511301 481.225048 
L 646.696511 481.56972 
L 646.881722 481.56972 
L 647.066932 482.259063 
L 647.252142 479.501689 
L 647.437352 481.56972 
L 647.622562 481.225048 
L 647.807772 481.56972 
L 647.992982 481.225048 
L 648.178192 480.535704 
L 648.548612 483.982422 
L 648.919033 478.812345 
L 649.104243 481.914391 
L 649.289453 482.948407 
L 649.474663 481.225048 
L 649.659873 483.293079 
L 649.845083 479.157017 
L 650.030293 481.56972 
L 650.400713 480.880376 
L 650.585923 477.778329 
L 650.771133 479.501689 
L 650.956344 483.293079 
L 651.141554 481.225048 
L 651.326764 480.880376 
L 651.511974 480.191032 
L 651.697184 481.914391 
L 651.882394 479.157017 
L 652.252814 483.293079 
L 652.438024 480.191032 
L 652.623234 480.191032 
L 652.808444 483.293079 
L 652.993655 482.603735 
L 653.178865 480.880376 
L 653.364075 480.880376 
L 653.549285 481.225048 
L 653.734495 482.948407 
L 654.290125 481.225048 
L 654.475335 482.259063 
L 654.660545 480.191032 
L 654.845755 480.535704 
L 655.030966 479.501689 
L 655.216176 483.982422 
L 655.401386 478.467673 
L 655.586596 483.293079 
L 655.771806 478.812345 
L 655.957016 480.191032 
L 656.142226 478.812345 
L 656.512646 484.327094 
L 656.697856 479.501689 
L 656.883066 485.016438 
L 657.253487 482.603735 
L 657.438697 482.948407 
L 657.623907 482.259063 
L 657.809117 480.535704 
L 657.994327 482.259063 
L 658.179537 481.914391 
L 658.364747 479.84636 
L 658.549957 483.293079 
L 658.735167 481.914391 
L 658.920377 483.293079 
L 659.105587 481.914391 
L 659.290798 481.56972 
L 659.476008 482.259063 
L 659.661218 483.982422 
L 659.846428 480.535704 
L 660.031638 482.259063 
L 660.216848 482.259063 
L 660.402058 480.535704 
L 660.587268 480.535704 
L 660.772478 479.84636 
L 660.957688 482.603735 
L 661.142898 481.225048 
L 661.328109 481.56972 
L 661.513319 483.637751 
L 661.698529 482.603735 
L 661.883739 480.535704 
L 662.254159 483.982422 
L 662.439369 479.84636 
L 662.624579 484.327094 
L 662.809789 482.948407 
L 662.994999 478.812345 
L 663.180209 483.293079 
L 663.36542 480.880376 
L 663.55063 482.948407 
L 663.73584 479.84636 
L 663.92105 480.880376 
L 664.10626 484.327094 
L 664.47668 482.259063 
L 664.66189 482.948407 
L 664.8471 479.501689 
L 665.03231 482.603735 
L 665.21752 481.914391 
L 665.402731 483.293079 
L 665.587941 481.225048 
L 665.773151 481.914391 
L 665.958361 484.671766 
L 666.143571 483.637751 
L 666.328781 483.982422 
L 666.513991 480.191032 
L 666.884411 482.259063 
L 667.069621 482.603735 
L 667.254831 481.914391 
L 667.440042 479.84636 
L 667.625252 484.327094 
L 667.810462 481.225048 
L 667.995672 485.016438 
L 668.180882 481.225048 
L 668.366092 481.914391 
L 668.551302 483.293079 
L 668.736512 483.293079 
L 668.921722 481.914391 
L 669.106932 483.982422 
L 669.292142 481.56972 
L 669.662563 483.982422 
L 669.847773 483.982422 
L 670.032983 481.914391 
L 670.218193 485.36111 
L 670.403403 482.259063 
L 670.588613 485.016438 
L 670.959033 481.56972 
L 671.144243 481.56972 
L 671.329453 483.637751 
L 671.514663 477.433658 
L 671.699874 481.56972 
L 671.885084 482.259063 
L 672.070294 483.982422 
L 672.255504 483.982422 
L 672.440714 484.671766 
L 672.625924 482.259063 
L 672.996344 482.259063 
L 673.181554 481.56972 
L 673.366764 483.982422 
L 673.551974 482.603735 
L 673.922395 482.603735 
L 674.107605 485.016438 
L 674.292815 484.327094 
L 674.478025 479.84636 
L 674.663235 482.259063 
L 675.033655 483.982422 
L 675.218865 481.56972 
L 675.404075 480.880376 
L 675.589285 483.293079 
L 675.774496 480.880376 
L 676.144916 484.327094 
L 676.330126 480.880376 
L 676.515336 483.293079 
L 676.700546 483.982422 
L 676.885756 483.637751 
L 677.256176 481.225048 
L 677.441386 481.914391 
L 677.626596 483.982422 
L 677.811807 484.327094 
L 677.997017 482.603735 
L 678.182227 482.259063 
L 678.367437 483.637751 
L 678.552647 482.603735 
L 678.737857 480.535704 
L 678.923067 482.948407 
L 679.108277 481.914391 
L 679.293487 482.259063 
L 679.663907 480.535704 
L 679.849117 481.914391 
L 680.034328 481.914391 
L 680.219538 483.982422 
L 680.589958 483.293079 
L 680.775168 485.016438 
L 680.960378 483.637751 
L 681.145588 483.982422 
L 681.330798 483.637751 
L 681.516008 480.191032 
L 681.701218 485.016438 
L 681.886428 485.016438 
L 682.256849 482.603735 
L 682.442059 484.327094 
L 682.627269 483.982422 
L 682.812479 480.191032 
L 682.997689 481.56972 
L 683.182899 480.535704 
L 683.368109 485.36111 
L 683.553319 484.327094 
L 683.923739 479.84636 
L 684.29416 485.016438 
L 684.47937 483.982422 
L 684.66458 480.535704 
L 684.84979 481.56972 
L 685.035 481.56972 
L 685.035 481.56972 
" clip-path="url(#pd6854284b4)" style="fill: none; stroke: #0000ff; stroke-width: 1.5; stroke-linecap: square"/>
   </g>
   <g id="patch_3">
    <path d="M 129.775152 489.1525 
L 129.775152 36.72 
" style="fill: none; stroke: #000000; stroke-width: 0.8; stroke-linejoin: miter; stroke-linecap: square"/>
   </g>
   <g id="patch_4">
    <path d="M 685.035 489.1525 
L 685.035 36.72 
" style="fill: none; stroke: #000000; stroke-width: 0.8; stroke-linejoin: miter; stroke-linecap: square"/>
   </g>
   <g id="patch_5">
    <path d="M 129.775152 489.1525 
L 685.035 489.1525 
" style="fill: none; stroke: #000000; stroke-width: 0.8; stroke-linejoin: miter; stroke-linecap: square"/>
   </g>
   <g id="patch_6">
    <path d="M 129.775152 36.72 
L 685.035 36.72 
" style="fill: none; stroke: #000000; stroke-width: 0.8; stroke-linejoin: miter; stroke-linecap: square"/>
   </g>
   <g id="legend_1">
    <g id="patch_7">
     <path d="M 492.425 100.294688 
L 676.535 100.294688 
L 676.535 45.22 
L 492.425 45.22 
z
" style="fill: #ffffff; opacity: 0.8; stroke: #000000; stroke-linejoin: miter"/>
    </g>
    <g id="line2d_31">
     <path d="M 499.225 58.987344 
L 516.225 58.987344 
L 533.225 58.987344 
" style="fill: none; stroke-dasharray: 14.8,6.4; stroke-dashoffset: 0; stroke: #ff0000; stroke-width: 4"/>
    </g>
    <g id="text_17">
     <!-- $\rho_0$ -->
     <g transform="translate(546.825 64.937344) scale(0.17 -0.17)">
      <use xlink:href="#DejaVuSans-Oblique-3c1"/>
      <use xlink:href="#DejaVuSans-30" transform="translate(63.476562 -16.40625) scale(0.7)"/>
     </g>
    </g>
    <g id="line2d_32">
     <path d="M 499.225 83.974688 
L 516.225 83.974688 
L 533.225 83.974688 
" style="fill: none; stroke: #0000ff; stroke-width: 1.5; stroke-linecap: square"/>
    </g>
    <g id="text_18">
     <!-- $\rho_0,\it{U=3,n=3}$ -->
     <g transform="translate(546.825 89.924688) scale(0.17 -0.17)">
      <defs>
       <path id="DejaVuSans-2c" d="M 750 794 
L 1409 794 
L 1409 256 
L 897 -744 
L 494 -744 
L 750 256 
L 750 794 
z
" transform="scale(0.015625)"/>
       <path id="DejaVuSans-Oblique-55" d="M 991 4666 
L 1625 4666 
L 1075 1831 
Q 1041 1641 1027 1517 
Q 1013 1394 1013 1300 
Q 1013 869 1253 645 
Q 1494 422 1959 422 
Q 2563 422 2898 753 
Q 3234 1084 3378 1831 
L 3928 4666 
L 4563 4666 
L 4000 1753 
Q 3816 809 3300 359 
Q 2784 -91 1888 -91 
Q 1188 -91 780 261 
Q 372 613 372 1216 
Q 372 1325 387 1461 
Q 403 1597 434 1753 
L 991 4666 
z
" transform="scale(0.015625)"/>
       <path id="DejaVuSans-3d" d="M 678 2906 
L 4684 2906 
L 4684 2381 
L 678 2381 
L 678 2906 
z
M 678 1631 
L 4684 1631 
L 4684 1100 
L 678 1100 
L 678 1631 
z
" transform="scale(0.015625)"/>
       <path id="DejaVuSans-Oblique-6e" d="M 3566 2113 
L 3156 0 
L 2578 0 
L 2988 2091 
Q 3016 2238 3031 2350 
Q 3047 2463 3047 2528 
Q 3047 2791 2881 2937 
Q 2716 3084 2419 3084 
Q 1956 3084 1622 2776 
Q 1288 2469 1184 1941 
L 800 0 
L 225 0 
L 903 3500 
L 1478 3500 
L 1363 2950 
Q 1603 3253 1940 3418 
Q 2278 3584 2650 3584 
Q 3113 3584 3367 3334 
Q 3622 3084 3622 2631 
Q 3622 2519 3608 2391 
Q 3594 2263 3566 2113 
z
" transform="scale(0.015625)"/>
      </defs>
      <use xlink:href="#DejaVuSans-Oblique-3c1" transform="translate(0 0.78125)"/>
      <use xlink:href="#DejaVuSans-30" transform="translate(63.476562 -15.625) scale(0.7)"/>
      <use xlink:href="#DejaVuSans-2c" transform="translate(110.74707 0.78125)"/>
      <use xlink:href="#DejaVuSans-Oblique-55" transform="translate(162.016602 0.78125)"/>
      <use xlink:href="#DejaVuSans-3d" transform="translate(254.692383 0.78125)"/>
      <use xlink:href="#DejaVuSans-33" transform="translate(357.963867 0.78125)"/>
      <use xlink:href="#DejaVuSans-2c" transform="translate(421.586914 0.78125)"/>
      <use xlink:href="#DejaVuSans-Oblique-6e" transform="translate(472.856445 0.78125)"/>
      <use xlink:href="#DejaVuSans-3d" transform="translate(555.717773 0.78125)"/>
      <use xlink:href="#DejaVuSans-33" transform="translate(658.989258 0.78125)"/>
     </g>
    </g>
   </g>
  </g>
 </g>
 <defs>
  <clipPath id="pd6854284b4">
   <rect x="129.775152" y="36.72" width="555.259848" height="452.4325"/>
  </clipPath>
 </defs>
</svg>
