<?xml version="1.0" encoding="utf-8" standalone="no"?>
<!DOCTYPE svg PUBLIC "-//W3C//DTD SVG 1.1//EN"
  "http://www.w3.org/Graphics/SVG/1.1/DTD/svg11.dtd">
<svg xmlns:xlink="http://www.w3.org/1999/xlink" width="720pt" height="576pt" viewBox="0 0 720 576" xmlns="http://www.w3.org/2000/svg" version="1.1">
 <metadata>
  <rdf:RDF xmlns:dc="http://purl.org/dc/elements/1.1/" xmlns:cc="http://creativecommons.org/ns#" xmlns:rdf="http://www.w3.org/1999/02/22-rdf-syntax-ns#">
   <cc:Work>
    <dc:type rdf:resource="http://purl.org/dc/dcmitype/StillImage"/>
    <dc:date>2023-04-12T23:09:02.455760</dc:date>
    <dc:format>image/svg+xml</dc:format>
    <dc:creator>
     <cc:Agent>
      <dc:title>Matplotlib v3.7.1, https://matplotlib.org/</dc:title>
     </cc:Agent>
    </dc:creator>
   </cc:Work>
  </rdf:RDF>
 </metadata>
 <defs>
  <style type="text/css">*{stroke-linejoin: round; stroke-linecap: butt}</style>
 </defs>
 <g id="figure_1">
  <g id="patch_1">
   <path d="M 0 576 
L 720 576 
L 720 0 
L 0 0 
z
" style="fill: #ffffff"/>
  </g>
  <g id="axes_1">
   <g id="patch_2">
    <path d="M 129.775152 489.1525 
L 685.035 489.1525 
L 685.035 36.72 
L 129.775152 36.72 
z
" style="fill: #ffffff"/>
   </g>
   <g id="matplotlib.axis_1">
    <g id="xtick_1">
     <g id="line2d_1">
      <path d="M 129.775152 489.1525 
L 129.775152 36.72 
" clip-path="url(#p9b208c53ea)" style="fill: none; stroke: #b0b0b0; stroke-width: 0.8; stroke-linecap: square"/>
     </g>
     <g id="line2d_2">
      <defs>
       <path id="m2442855999" d="M 0 0 
L 0 3.5 
" style="stroke: #000000; stroke-width: 0.8"/>
      </defs>
      <g>
       <use xlink:href="#m2442855999" x="129.775152" y="489.1525" style="stroke: #000000; stroke-width: 0.8"/>
      </g>
     </g>
     <g id="text_1">
      <!-- −3 -->
      <g transform="translate(111.347418 515.148594) scale(0.25 -0.25)">
       <defs>
        <path id="DejaVuSans-2212" d="M 678 2272 
L 4684 2272 
L 4684 1741 
L 678 1741 
L 678 2272 
z
" transform="scale(0.015625)"/>
        <path id="DejaVuSans-33" d="M 2597 2516 
Q 3050 2419 3304 2112 
Q 3559 1806 3559 1356 
Q 3559 666 3084 287 
Q 2609 -91 1734 -91 
Q 1441 -91 1130 -33 
Q 819 25 488 141 
L 488 750 
Q 750 597 1062 519 
Q 1375 441 1716 441 
Q 2309 441 2620 675 
Q 2931 909 2931 1356 
Q 2931 1769 2642 2001 
Q 2353 2234 1838 2234 
L 1294 2234 
L 1294 2753 
L 1863 2753 
Q 2328 2753 2575 2939 
Q 2822 3125 2822 3475 
Q 2822 3834 2567 4026 
Q 2313 4219 1838 4219 
Q 1578 4219 1281 4162 
Q 984 4106 628 3988 
L 628 4550 
Q 988 4650 1302 4700 
Q 1616 4750 1894 4750 
Q 2613 4750 3031 4423 
Q 3450 4097 3450 3541 
Q 3450 3153 3228 2886 
Q 3006 2619 2597 2516 
z
" transform="scale(0.015625)"/>
       </defs>
       <use xlink:href="#DejaVuSans-2212"/>
       <use xlink:href="#DejaVuSans-33" x="83.789062"/>
      </g>
     </g>
    </g>
    <g id="xtick_2">
     <g id="line2d_3">
      <path d="M 222.31846 489.1525 
L 222.31846 36.72 
" clip-path="url(#p9b208c53ea)" style="fill: none; stroke: #b0b0b0; stroke-width: 0.8; stroke-linecap: square"/>
     </g>
     <g id="line2d_4">
      <g>
       <use xlink:href="#m2442855999" x="222.31846" y="489.1525" style="stroke: #000000; stroke-width: 0.8"/>
      </g>
     </g>
     <g id="text_2">
      <!-- −2 -->
      <g transform="translate(203.890726 515.148594) scale(0.25 -0.25)">
       <defs>
        <path id="DejaVuSans-32" d="M 1228 531 
L 3431 531 
L 3431 0 
L 469 0 
L 469 531 
Q 828 903 1448 1529 
Q 2069 2156 2228 2338 
Q 2531 2678 2651 2914 
Q 2772 3150 2772 3378 
Q 2772 3750 2511 3984 
Q 2250 4219 1831 4219 
Q 1534 4219 1204 4116 
Q 875 4013 500 3803 
L 500 4441 
Q 881 4594 1212 4672 
Q 1544 4750 1819 4750 
Q 2544 4750 2975 4387 
Q 3406 4025 3406 3419 
Q 3406 3131 3298 2873 
Q 3191 2616 2906 2266 
Q 2828 2175 2409 1742 
Q 1991 1309 1228 531 
z
" transform="scale(0.015625)"/>
       </defs>
       <use xlink:href="#DejaVuSans-2212"/>
       <use xlink:href="#DejaVuSans-32" x="83.789062"/>
      </g>
     </g>
    </g>
    <g id="xtick_3">
     <g id="line2d_5">
      <path d="M 314.861768 489.1525 
L 314.861768 36.72 
" clip-path="url(#p9b208c53ea)" style="fill: none; stroke: #b0b0b0; stroke-width: 0.8; stroke-linecap: square"/>
     </g>
     <g id="line2d_6">
      <g>
       <use xlink:href="#m2442855999" x="314.861768" y="489.1525" style="stroke: #000000; stroke-width: 0.8"/>
      </g>
     </g>
     <g id="text_3">
      <!-- −1 -->
      <g transform="translate(296.434034 515.148594) scale(0.25 -0.25)">
       <defs>
        <path id="DejaVuSans-31" d="M 794 531 
L 1825 531 
L 1825 4091 
L 703 3866 
L 703 4441 
L 1819 4666 
L 2450 4666 
L 2450 531 
L 3481 531 
L 3481 0 
L 794 0 
L 794 531 
z
" transform="scale(0.015625)"/>
       </defs>
       <use xlink:href="#DejaVuSans-2212"/>
       <use xlink:href="#DejaVuSans-31" x="83.789062"/>
      </g>
     </g>
    </g>
    <g id="xtick_4">
     <g id="line2d_7">
      <path d="M 407.405076 489.1525 
L 407.405076 36.72 
" clip-path="url(#p9b208c53ea)" style="fill: none; stroke: #b0b0b0; stroke-width: 0.8; stroke-linecap: square"/>
     </g>
     <g id="line2d_8">
      <g>
       <use xlink:href="#m2442855999" x="407.405076" y="489.1525" style="stroke: #000000; stroke-width: 0.8"/>
      </g>
     </g>
     <g id="text_4">
      <!-- 0 -->
      <g transform="translate(399.451951 515.148594) scale(0.25 -0.25)">
       <defs>
        <path id="DejaVuSans-30" d="M 2034 4250 
Q 1547 4250 1301 3770 
Q 1056 3291 1056 2328 
Q 1056 1369 1301 889 
Q 1547 409 2034 409 
Q 2525 409 2770 889 
Q 3016 1369 3016 2328 
Q 3016 3291 2770 3770 
Q 2525 4250 2034 4250 
z
M 2034 4750 
Q 2819 4750 3233 4129 
Q 3647 3509 3647 2328 
Q 3647 1150 3233 529 
Q 2819 -91 2034 -91 
Q 1250 -91 836 529 
Q 422 1150 422 2328 
Q 422 3509 836 4129 
Q 1250 4750 2034 4750 
z
" transform="scale(0.015625)"/>
       </defs>
       <use xlink:href="#DejaVuSans-30"/>
      </g>
     </g>
    </g>
    <g id="xtick_5">
     <g id="line2d_9">
      <path d="M 499.948384 489.1525 
L 499.948384 36.72 
" clip-path="url(#p9b208c53ea)" style="fill: none; stroke: #b0b0b0; stroke-width: 0.8; stroke-linecap: square"/>
     </g>
     <g id="line2d_10">
      <g>
       <use xlink:href="#m2442855999" x="499.948384" y="489.1525" style="stroke: #000000; stroke-width: 0.8"/>
      </g>
     </g>
     <g id="text_5">
      <!-- 1 -->
      <g transform="translate(491.995259 515.148594) scale(0.25 -0.25)">
       <use xlink:href="#DejaVuSans-31"/>
      </g>
     </g>
    </g>
    <g id="xtick_6">
     <g id="line2d_11">
      <path d="M 592.491692 489.1525 
L 592.491692 36.72 
" clip-path="url(#p9b208c53ea)" style="fill: none; stroke: #b0b0b0; stroke-width: 0.8; stroke-linecap: square"/>
     </g>
     <g id="line2d_12">
      <g>
       <use xlink:href="#m2442855999" x="592.491692" y="489.1525" style="stroke: #000000; stroke-width: 0.8"/>
      </g>
     </g>
     <g id="text_6">
      <!-- 2 -->
      <g transform="translate(584.538567 515.148594) scale(0.25 -0.25)">
       <use xlink:href="#DejaVuSans-32"/>
      </g>
     </g>
    </g>
    <g id="xtick_7">
     <g id="line2d_13">
      <path d="M 685.035 489.1525 
L 685.035 36.72 
" clip-path="url(#p9b208c53ea)" style="fill: none; stroke: #b0b0b0; stroke-width: 0.8; stroke-linecap: square"/>
     </g>
     <g id="line2d_14">
      <g>
       <use xlink:href="#m2442855999" x="685.035" y="489.1525" style="stroke: #000000; stroke-width: 0.8"/>
      </g>
     </g>
     <g id="text_7">
      <!-- 3 -->
      <g transform="translate(677.081875 515.148594) scale(0.25 -0.25)">
       <use xlink:href="#DejaVuSans-33"/>
      </g>
     </g>
    </g>
    <g id="text_8">
     <!-- $\omega$ [-] -->
     <g transform="translate(382.530076 541.351719) scale(0.25 -0.25)">
      <defs>
       <path id="DejaVuSans-Oblique-3c9" d="M 1369 -91 
Q 72 -91 434 1766 
Q 575 2500 1256 3500 
L 1875 3500 
Q 1231 2500 1088 1750 
Q 819 397 1519 397 
Q 2166 397 2478 2078 
L 3009 2078 
Q 2669 388 3316 397 
Q 4013 403 4275 1750 
Q 4419 2500 4169 3500 
L 4788 3500 
Q 5075 2500 4934 1766 
Q 4578 -94 3278 -91 
Q 2428 -88 2503 844 
Q 2194 -91 1369 -91 
z
" transform="scale(0.015625)"/>
       <path id="Calibri-20" transform="scale(0.015625)"/>
       <path id="Calibri-5b" d="M 1684 -813 
Q 1684 -916 1661 -958 
Q 1638 -1000 1594 -1000 
L 794 -1000 
Q 756 -1000 722 -989 
Q 688 -978 659 -953 
Q 631 -928 614 -886 
Q 597 -844 597 -781 
L 597 4153 
Q 597 4213 614 4255 
Q 631 4297 659 4323 
Q 688 4350 722 4361 
Q 756 4372 794 4372 
L 1594 4372 
Q 1613 4372 1630 4362 
Q 1647 4353 1659 4328 
Q 1672 4303 1678 4267 
Q 1684 4231 1684 4178 
Q 1684 4078 1661 4034 
Q 1638 3991 1594 3991 
L 1084 3991 
L 1084 -622 
L 1594 -622 
Q 1613 -622 1630 -631 
Q 1647 -641 1659 -664 
Q 1672 -688 1678 -723 
Q 1684 -759 1684 -813 
z
" transform="scale(0.015625)"/>
       <path id="Calibri-2d" d="M 1744 1578 
Q 1744 1456 1716 1409 
Q 1688 1363 1634 1363 
L 328 1363 
Q 272 1363 244 1411 
Q 216 1459 216 1578 
Q 216 1697 244 1744 
Q 272 1791 328 1791 
L 1634 1791 
Q 1659 1791 1679 1781 
Q 1700 1772 1714 1745 
Q 1728 1719 1736 1678 
Q 1744 1638 1744 1578 
z
" transform="scale(0.015625)"/>
       <path id="Calibri-5d" d="M 1369 -781 
Q 1369 -844 1351 -886 
Q 1334 -928 1306 -953 
Q 1278 -978 1242 -989 
Q 1206 -1000 1169 -1000 
L 372 -1000 
Q 328 -1000 304 -958 
Q 281 -916 281 -813 
Q 281 -759 286 -723 
Q 291 -688 303 -664 
Q 316 -641 333 -631 
Q 350 -622 372 -622 
L 881 -622 
L 881 3991 
L 372 3991 
Q 328 3991 304 4034 
Q 281 4078 281 4178 
Q 281 4231 286 4267 
Q 291 4303 303 4328 
Q 316 4353 333 4362 
Q 350 4372 372 4372 
L 1169 4372 
Q 1206 4372 1242 4361 
Q 1278 4350 1306 4323 
Q 1334 4297 1351 4255 
Q 1369 4213 1369 4153 
L 1369 -781 
z
" transform="scale(0.015625)"/>
      </defs>
      <use xlink:href="#DejaVuSans-Oblique-3c9" transform="translate(0 0.6875)"/>
      <use xlink:href="#Calibri-20" transform="translate(83.740234 0.6875)"/>
      <use xlink:href="#Calibri-5b" transform="translate(106.347656 0.6875)"/>
      <use xlink:href="#Calibri-2d" transform="translate(137.011719 0.6875)"/>
      <use xlink:href="#Calibri-5d" transform="translate(167.626953 0.6875)"/>
     </g>
    </g>
   </g>
   <g id="matplotlib.axis_2">
    <g id="ytick_1">
     <g id="line2d_15">
      <path d="M 129.775152 489.1525 
L 685.035 489.1525 
" clip-path="url(#p9b208c53ea)" style="fill: none; stroke: #b0b0b0; stroke-width: 0.8; stroke-linecap: square"/>
     </g>
     <g id="line2d_16">
      <defs>
       <path id="mdb35f79ea7" d="M 0 0 
L -3.5 0 
" style="stroke: #000000; stroke-width: 0.8"/>
      </defs>
      <g>
       <use xlink:href="#mdb35f79ea7" x="129.775152" y="489.1525" style="stroke: #000000; stroke-width: 0.8"/>
      </g>
     </g>
     <g id="text_9">
      <!-- 0.0 -->
      <g transform="translate(83.017339 498.650547) scale(0.25 -0.25)">
       <defs>
        <path id="DejaVuSans-2e" d="M 684 794 
L 1344 794 
L 1344 0 
L 684 0 
L 684 794 
z
" transform="scale(0.015625)"/>
       </defs>
       <use xlink:href="#DejaVuSans-30"/>
       <use xlink:href="#DejaVuSans-2e" x="63.623047"/>
       <use xlink:href="#DejaVuSans-30" x="95.410156"/>
      </g>
     </g>
    </g>
    <g id="ytick_2">
     <g id="line2d_17">
      <path d="M 129.775152 413.747083 
L 685.035 413.747083 
" clip-path="url(#p9b208c53ea)" style="fill: none; stroke: #b0b0b0; stroke-width: 0.8; stroke-linecap: square"/>
     </g>
     <g id="line2d_18">
      <g>
       <use xlink:href="#mdb35f79ea7" x="129.775152" y="413.747083" style="stroke: #000000; stroke-width: 0.8"/>
      </g>
     </g>
     <g id="text_10">
      <!-- 0.2 -->
      <g transform="translate(83.017339 423.24513) scale(0.25 -0.25)">
       <use xlink:href="#DejaVuSans-30"/>
       <use xlink:href="#DejaVuSans-2e" x="63.623047"/>
       <use xlink:href="#DejaVuSans-32" x="95.410156"/>
      </g>
     </g>
    </g>
    <g id="ytick_3">
     <g id="line2d_19">
      <path d="M 129.775152 338.341667 
L 685.035 338.341667 
" clip-path="url(#p9b208c53ea)" style="fill: none; stroke: #b0b0b0; stroke-width: 0.8; stroke-linecap: square"/>
     </g>
     <g id="line2d_20">
      <g>
       <use xlink:href="#mdb35f79ea7" x="129.775152" y="338.341667" style="stroke: #000000; stroke-width: 0.8"/>
      </g>
     </g>
     <g id="text_11">
      <!-- 0.4 -->
      <g transform="translate(83.017339 347.839714) scale(0.25 -0.25)">
       <defs>
        <path id="DejaVuSans-34" d="M 2419 4116 
L 825 1625 
L 2419 1625 
L 2419 4116 
z
M 2253 4666 
L 3047 4666 
L 3047 1625 
L 3713 1625 
L 3713 1100 
L 3047 1100 
L 3047 0 
L 2419 0 
L 2419 1100 
L 313 1100 
L 313 1709 
L 2253 4666 
z
" transform="scale(0.015625)"/>
       </defs>
       <use xlink:href="#DejaVuSans-30"/>
       <use xlink:href="#DejaVuSans-2e" x="63.623047"/>
       <use xlink:href="#DejaVuSans-34" x="95.410156"/>
      </g>
     </g>
    </g>
    <g id="ytick_4">
     <g id="line2d_21">
      <path d="M 129.775152 262.93625 
L 685.035 262.93625 
" clip-path="url(#p9b208c53ea)" style="fill: none; stroke: #b0b0b0; stroke-width: 0.8; stroke-linecap: square"/>
     </g>
     <g id="line2d_22">
      <g>
       <use xlink:href="#mdb35f79ea7" x="129.775152" y="262.93625" style="stroke: #000000; stroke-width: 0.8"/>
      </g>
     </g>
     <g id="text_12">
      <!-- 0.6 -->
      <g transform="translate(83.017339 272.434297) scale(0.25 -0.25)">
       <defs>
        <path id="DejaVuSans-36" d="M 2113 2584 
Q 1688 2584 1439 2293 
Q 1191 2003 1191 1497 
Q 1191 994 1439 701 
Q 1688 409 2113 409 
Q 2538 409 2786 701 
Q 3034 994 3034 1497 
Q 3034 2003 2786 2293 
Q 2538 2584 2113 2584 
z
M 3366 4563 
L 3366 3988 
Q 3128 4100 2886 4159 
Q 2644 4219 2406 4219 
Q 1781 4219 1451 3797 
Q 1122 3375 1075 2522 
Q 1259 2794 1537 2939 
Q 1816 3084 2150 3084 
Q 2853 3084 3261 2657 
Q 3669 2231 3669 1497 
Q 3669 778 3244 343 
Q 2819 -91 2113 -91 
Q 1303 -91 875 529 
Q 447 1150 447 2328 
Q 447 3434 972 4092 
Q 1497 4750 2381 4750 
Q 2619 4750 2861 4703 
Q 3103 4656 3366 4563 
z
" transform="scale(0.015625)"/>
       </defs>
       <use xlink:href="#DejaVuSans-30"/>
       <use xlink:href="#DejaVuSans-2e" x="63.623047"/>
       <use xlink:href="#DejaVuSans-36" x="95.410156"/>
      </g>
     </g>
    </g>
    <g id="ytick_5">
     <g id="line2d_23">
      <path d="M 129.775152 187.530833 
L 685.035 187.530833 
" clip-path="url(#p9b208c53ea)" style="fill: none; stroke: #b0b0b0; stroke-width: 0.8; stroke-linecap: square"/>
     </g>
     <g id="line2d_24">
      <g>
       <use xlink:href="#mdb35f79ea7" x="129.775152" y="187.530833" style="stroke: #000000; stroke-width: 0.8"/>
      </g>
     </g>
     <g id="text_13">
      <!-- 0.8 -->
      <g transform="translate(83.017339 197.02888) scale(0.25 -0.25)">
       <defs>
        <path id="DejaVuSans-38" d="M 2034 2216 
Q 1584 2216 1326 1975 
Q 1069 1734 1069 1313 
Q 1069 891 1326 650 
Q 1584 409 2034 409 
Q 2484 409 2743 651 
Q 3003 894 3003 1313 
Q 3003 1734 2745 1975 
Q 2488 2216 2034 2216 
z
M 1403 2484 
Q 997 2584 770 2862 
Q 544 3141 544 3541 
Q 544 4100 942 4425 
Q 1341 4750 2034 4750 
Q 2731 4750 3128 4425 
Q 3525 4100 3525 3541 
Q 3525 3141 3298 2862 
Q 3072 2584 2669 2484 
Q 3125 2378 3379 2068 
Q 3634 1759 3634 1313 
Q 3634 634 3220 271 
Q 2806 -91 2034 -91 
Q 1263 -91 848 271 
Q 434 634 434 1313 
Q 434 1759 690 2068 
Q 947 2378 1403 2484 
z
M 1172 3481 
Q 1172 3119 1398 2916 
Q 1625 2713 2034 2713 
Q 2441 2713 2670 2916 
Q 2900 3119 2900 3481 
Q 2900 3844 2670 4047 
Q 2441 4250 2034 4250 
Q 1625 4250 1398 4047 
Q 1172 3844 1172 3481 
z
" transform="scale(0.015625)"/>
       </defs>
       <use xlink:href="#DejaVuSans-30"/>
       <use xlink:href="#DejaVuSans-2e" x="63.623047"/>
       <use xlink:href="#DejaVuSans-38" x="95.410156"/>
      </g>
     </g>
    </g>
    <g id="ytick_6">
     <g id="line2d_25">
      <path d="M 129.775152 112.125417 
L 685.035 112.125417 
" clip-path="url(#p9b208c53ea)" style="fill: none; stroke: #b0b0b0; stroke-width: 0.8; stroke-linecap: square"/>
     </g>
     <g id="line2d_26">
      <g>
       <use xlink:href="#mdb35f79ea7" x="129.775152" y="112.125417" style="stroke: #000000; stroke-width: 0.8"/>
      </g>
     </g>
     <g id="text_14">
      <!-- 1.0 -->
      <g transform="translate(83.017339 121.623464) scale(0.25 -0.25)">
       <use xlink:href="#DejaVuSans-31"/>
       <use xlink:href="#DejaVuSans-2e" x="63.623047"/>
       <use xlink:href="#DejaVuSans-30" x="95.410156"/>
      </g>
     </g>
    </g>
    <g id="ytick_7">
     <g id="line2d_27">
      <path d="M 129.775152 36.72 
L 685.035 36.72 
" clip-path="url(#p9b208c53ea)" style="fill: none; stroke: #b0b0b0; stroke-width: 0.8; stroke-linecap: square"/>
     </g>
     <g id="line2d_28">
      <g>
       <use xlink:href="#mdb35f79ea7" x="129.775152" y="36.72" style="stroke: #000000; stroke-width: 0.8"/>
      </g>
     </g>
     <g id="text_15">
      <!-- 1.2 -->
      <g transform="translate(83.017339 46.218047) scale(0.25 -0.25)">
       <use xlink:href="#DejaVuSans-31"/>
       <use xlink:href="#DejaVuSans-2e" x="63.623047"/>
       <use xlink:href="#DejaVuSans-32" x="95.410156"/>
      </g>
     </g>
    </g>
    <g id="text_16">
     <!-- $\rho$($\omega$) -->
     <g transform="translate(27.017339 257.68625) scale(0.25 -0.25)">
      <defs>
       <path id="DejaVuSans-Oblique-3c1" d="M 1203 2875 
Q 1453 3194 1981 3475 
Q 2188 3584 2756 3584 
Q 3394 3584 3694 3078 
Q 3994 2572 3834 1747 
Q 3672 922 3175 415 
Q 2678 -91 2041 -91 
Q 1656 -91 1409 63 
Q 1163 213 1044 525 
L 681 -1331 
L 103 -1331 
L 697 1716 
Q 838 2438 1203 2875 
z
M 3238 1747 
Q 3359 2381 3169 2744 
Q 2978 3103 2522 3103 
Q 2066 3103 1734 2744 
Q 1403 2381 1281 1747 
Q 1156 1113 1347 750 
Q 1538 391 1994 391 
Q 2450 391 2781 750 
Q 3113 1113 3238 1747 
z
" transform="scale(0.015625)"/>
       <path id="Calibri-28" d="M 1547 4306 
Q 1250 3678 1104 3017 
Q 959 2356 959 1688 
Q 959 1016 1107 356 
Q 1256 -303 1541 -938 
Q 1556 -975 1557 -1001 
Q 1559 -1028 1537 -1045 
Q 1516 -1063 1470 -1070 
Q 1425 -1078 1347 -1078 
Q 1291 -1078 1250 -1075 
Q 1209 -1072 1179 -1062 
Q 1150 -1053 1131 -1040 
Q 1113 -1028 1103 -1013 
Q 934 -694 806 -367 
Q 678 -41 590 296 
Q 503 634 459 979 
Q 416 1325 416 1678 
Q 416 2031 464 2375 
Q 513 2719 602 3058 
Q 691 3397 819 3725 
Q 947 4053 1106 4375 
Q 1109 4388 1123 4397 
Q 1138 4406 1163 4415 
Q 1188 4425 1231 4429 
Q 1275 4434 1344 4434 
Q 1416 4434 1459 4425 
Q 1503 4416 1528 4400 
Q 1553 4384 1556 4359 
Q 1559 4334 1547 4306 
z
" transform="scale(0.015625)"/>
       <path id="Calibri-29" d="M 1522 1678 
Q 1522 1325 1478 979 
Q 1434 634 1346 296 
Q 1259 -41 1132 -367 
Q 1006 -694 838 -1013 
Q 828 -1028 809 -1040 
Q 791 -1053 761 -1062 
Q 731 -1072 690 -1075 
Q 650 -1078 594 -1078 
Q 513 -1078 467 -1070 
Q 422 -1063 401 -1045 
Q 381 -1028 382 -1001 
Q 384 -975 400 -938 
Q 688 -306 834 355 
Q 981 1016 981 1688 
Q 981 2356 834 3017 
Q 688 3678 394 4306 
Q 381 4334 384 4359 
Q 388 4384 413 4400 
Q 438 4416 481 4425 
Q 525 4434 597 4434 
Q 663 4434 706 4429 
Q 750 4425 776 4415 
Q 803 4406 815 4397 
Q 828 4388 834 4375 
Q 1156 3734 1339 3057 
Q 1522 2381 1522 1678 
z
" transform="scale(0.015625)"/>
      </defs>
      <use xlink:href="#DejaVuSans-Oblique-3c1" transform="translate(0 0.71875)"/>
      <use xlink:href="#Calibri-28" transform="translate(63.476562 0.71875)"/>
      <use xlink:href="#DejaVuSans-Oblique-3c9" transform="translate(93.798828 0.71875)"/>
      <use xlink:href="#Calibri-29" transform="translate(177.539062 0.71875)"/>
     </g>
    </g>
   </g>
   <g id="line2d_29">
    <path d="M 129.775152 485.191726 
L 155.317105 484.358547 
L 176.416979 483.455768 
L 194.185294 482.483241 
L 209.73257 481.41398 
L 223.058806 480.280428 
L 234.719263 479.073027 
L 245.2692 477.757219 
L 254.708618 476.351279 
L 263.037516 474.885804 
L 270.255894 473.405198 
L 276.919012 471.827331 
L 283.02687 470.166711 
L 288.579469 468.444876 
L 294.132067 466.482825 
L 299.129406 464.47402 
L 303.571484 462.461225 
L 308.013563 460.198636 
L 311.900382 457.981343 
L 315.787201 455.507575 
L 319.67402 452.737724 
L 323.005579 450.092377 
L 326.337138 447.159915 
L 329.668697 443.899314 
L 332.444997 440.896992 
L 335.221296 437.601191 
L 337.997595 433.974823 
L 340.773894 429.975257 
L 343.550193 425.553428 
L 346.326493 420.652815 
L 349.102792 415.208293 
L 351.323831 410.411031 
L 353.544871 405.174383 
L 355.76591 399.4498 
L 357.98695 393.183265 
L 360.207989 386.314927 
L 362.429028 378.778877 
L 364.650068 370.503147 
L 366.871107 361.410081 
L 369.092146 351.417284 
L 371.313186 340.439429 
L 373.534225 328.391304 
L 375.755265 315.192611 
L 377.976304 300.775141 
L 380.197343 285.093043 
L 382.973643 263.70268 
L 385.749942 240.43442 
L 389.081501 210.496774 
L 396.299879 144.292017 
L 398.520918 126.273182 
L 400.186698 114.444594 
L 401.852478 104.500423 
L 402.962997 99.099692 
L 404.073517 94.793115 
L 405.184037 91.658303 
L 405.739296 90.549312 
L 406.294556 89.753379 
L 406.849816 89.274291 
L 407.405076 89.11434 
L 407.960336 89.274291 
L 408.515596 89.753379 
L 409.070856 90.549312 
L 409.626115 91.658303 
L 410.736635 94.793115 
L 411.847155 99.099692 
L 412.957674 104.500423 
L 414.068194 110.901592 
L 415.733974 122.145014 
L 417.399753 135.011069 
L 419.620793 153.999886 
L 423.507612 189.812362 
L 428.50495 235.578616 
L 431.281249 259.192647 
L 434.057549 280.972775 
L 436.833848 300.775141 
L 439.054887 315.192611 
L 441.275927 328.391304 
L 443.496966 340.439429 
L 445.718006 351.417284 
L 447.939045 361.410081 
L 450.160084 370.503147 
L 452.381124 378.778877 
L 454.602163 386.314927 
L 456.823202 393.183265 
L 459.044242 399.4498 
L 461.265281 405.174383 
L 464.04158 411.649757 
L 466.81788 417.455934 
L 469.594179 422.674476 
L 472.370478 427.376269 
L 475.146777 431.622852 
L 477.923077 435.467632 
L 480.699376 438.956987 
L 483.475675 442.13123 
L 486.807234 445.57346 
L 490.138793 448.664447 
L 493.470352 451.448621 
L 496.801912 453.963893 
L 500.68873 456.60155 
L 504.575549 458.960941 
L 508.462368 461.078859 
L 512.904447 463.243293 
L 517.346526 465.171697 
L 522.343865 467.099193 
L 527.896463 468.984814 
L 533.449061 470.642156 
L 539.55692 472.243001 
L 546.220038 473.766417 
L 553.438416 475.198135 
L 561.767314 476.617463 
L 570.651471 477.907387 
L 580.646149 479.13592 
L 591.751346 480.280428 
L 604.522322 481.37117 
L 618.959078 482.379585 
L 635.616874 483.318352 
L 655.050968 484.187177 
L 678.371882 484.996588 
L 685.035 485.191726 
L 685.035 485.191726 
" clip-path="url(#p9b208c53ea)" style="fill: none; stroke-dasharray: 14.8,6.4; stroke-dashoffset: 0; stroke: #ff0000; stroke-width: 4"/>
   </g>
   <g id="line2d_30">
    <path d="M 129.775152 475.612496 
L 134.217231 474.974118 
L 136.43827 474.433513 
L 143.656648 472.278937 
L 145.322428 472.090723 
L 148.098727 472.111061 
L 149.764507 472.043204 
L 151.430286 471.764932 
L 154.761845 470.848552 
L 157.538144 470.186105 
L 159.759184 469.816163 
L 162.535483 469.65186 
L 165.311782 469.387101 
L 169.753861 468.669259 
L 172.53016 468.058888 
L 174.7512 467.264901 
L 178.638019 465.712299 
L 180.859058 464.814416 
L 185.301137 462.766201 
L 186.966916 462.308112 
L 190.298475 461.6354 
L 191.964255 460.919834 
L 193.630035 459.942368 
L 195.851074 458.364252 
L 199.737893 455.435304 
L 200.848413 454.852446 
L 204.179972 453.457331 
L 206.956271 452.092163 
L 211.39835 450.43059 
L 213.064129 449.371362 
L 215.285169 447.958114 
L 217.506208 446.52197 
L 219.171988 445.139648 
L 221.393027 443.269541 
L 223.058806 441.912604 
L 224.724586 440.059757 
L 225.835106 438.825919 
L 226.945625 437.856446 
L 229.166665 436.149885 
L 231.942964 433.559668 
L 233.608744 432.431186 
L 235.274523 431.6134 
L 236.385043 431.281087 
L 238.606082 431.022117 
L 239.161342 430.762596 
L 240.271862 429.879278 
L 244.158681 426.14428 
L 246.37972 423.565932 
L 247.49024 422.699895 
L 248.600759 422.115458 
L 249.156019 422.030668 
L 249.711279 422.186357 
L 250.266539 422.58934 
L 251.932319 424.124286 
L 252.487578 424.2535 
L 253.042838 424.069865 
L 254.153358 423.078751 
L 255.263878 422.115348 
L 256.374397 421.609376 
L 258.595437 420.991544 
L 261.371736 419.972452 
L 261.926996 419.655665 
L 262.482256 419.194276 
L 263.037516 418.477783 
L 264.148035 416.283763 
L 265.258555 414.177379 
L 265.813815 413.515572 
L 266.924334 412.733504 
L 267.479594 412.548104 
L 268.034854 412.584879 
L 268.590114 412.923576 
L 269.145374 413.58705 
L 271.366413 417.200654 
L 271.921673 417.766374 
L 272.476933 418.126293 
L 273.032193 418.294937 
L 275.808492 418.504064 
L 276.919012 418.975488 
L 278.584791 419.885686 
L 280.250571 420.462886 
L 280.805831 420.511274 
L 281.91635 420.203912 
L 282.47161 420.008305 
L 283.02687 419.963551 
L 284.69265 420.280605 
L 285.247909 420.035222 
L 287.468949 418.200089 
L 289.134728 416.076886 
L 289.689988 415.928101 
L 290.245248 416.329149 
L 291.355768 417.684226 
L 291.911028 417.849983 
L 292.466287 417.508855 
L 293.576807 416.443996 
L 294.132067 416.611566 
L 294.687327 417.541268 
L 296.353106 421.626146 
L 297.463626 423.410568 
L 298.574146 424.862037 
L 299.129406 425.334665 
L 299.684665 425.359028 
L 301.350445 424.389289 
L 301.905705 424.210952 
L 302.460965 424.257248 
L 303.016225 424.713002 
L 304.126744 426.191859 
L 304.682004 426.612929 
L 305.237264 426.74115 
L 305.792524 426.559225 
L 306.347784 425.999446 
L 307.458303 424.233669 
L 308.013563 423.637014 
L 308.568823 423.412777 
L 309.679343 423.486928 
L 310.234603 423.29501 
L 311.345122 422.454993 
L 312.455642 421.528301 
L 313.010902 421.408943 
L 313.566162 421.912781 
L 314.121422 422.908538 
L 314.676681 423.611818 
L 315.231941 423.332323 
L 315.787201 422.219395 
L 316.897721 419.62683 
L 317.452981 418.811086 
L 318.00824 418.489922 
L 318.5635 418.415838 
L 319.11876 418.501094 
L 319.67402 419.035546 
L 321.3398 422.192876 
L 322.450319 423.658026 
L 324.116099 427.495649 
L 324.671359 427.777423 
L 325.226618 427.460742 
L 326.892398 425.918705 
L 328.558178 423.193202 
L 329.113437 423.205192 
L 329.668697 424.092231 
L 331.334477 428.311163 
L 331.889737 428.422068 
L 332.444997 426.972347 
L 334.110776 419.820283 
L 334.666036 419.43646 
L 335.221296 420.170303 
L 335.776556 421.146802 
L 336.331815 422.551972 
L 337.442335 426.141704 
L 337.997595 427.419775 
L 338.552855 427.640396 
L 339.108115 426.637722 
L 339.663375 425.246109 
L 340.218634 424.388038 
L 340.773894 424.315156 
L 341.884414 425.783985 
L 342.439674 425.88373 
L 342.994934 426.161626 
L 343.550193 426.761618 
L 344.105453 427.828979 
L 345.771233 430.368101 
L 346.326493 431.680604 
L 346.881753 432.6265 
L 347.437012 432.428622 
L 348.547532 430.375098 
L 349.102792 430.090754 
L 349.658052 431.197161 
L 350.213312 434.069239 
L 350.768571 437.574939 
L 351.323831 439.95396 
L 351.879091 440.978623 
L 352.434351 440.472347 
L 353.544871 436.267618 
L 354.100131 433.564234 
L 355.21065 426.236927 
L 355.76591 426.910639 
L 356.32117 429.938633 
L 356.87643 431.126155 
L 357.43169 430.790343 
L 357.98695 430.014418 
L 358.542209 429.602382 
L 359.097469 431.431551 
L 359.652729 434.443814 
L 360.207989 433.856044 
L 361.318509 428.031356 
L 361.873768 425.589952 
L 362.429028 425.819474 
L 362.984288 427.452164 
L 364.094808 431.367265 
L 364.650068 431.835635 
L 365.205328 430.670838 
L 365.760587 431.207921 
L 366.871107 436.911562 
L 367.426367 436.802111 
L 367.981627 436.421126 
L 368.536887 436.783672 
L 369.647406 435.902795 
L 370.202666 436.612119 
L 370.757926 435.462652 
L 371.313186 431.416888 
L 371.868446 433.193651 
L 372.423706 438.791973 
L 372.978965 440.555229 
L 373.534225 436.233469 
L 374.089485 433.469409 
L 374.644745 429.957923 
L 375.200005 421.581747 
L 375.755265 420.910354 
L 376.310524 424.028046 
L 376.865784 426.336908 
L 377.421044 424.415365 
L 377.976304 426.831904 
L 378.531564 423.67528 
L 379.086824 418.951922 
L 379.642084 422.986215 
L 380.197343 429.97169 
L 380.752603 429.879574 
L 381.307863 428.542921 
L 381.863123 437.389351 
L 382.418383 442.821025 
L 383.528903 432.418848 
L 384.639422 426.42634 
L 385.194682 422.459489 
L 385.749942 420.388205 
L 386.305202 419.411595 
L 386.860462 412.925346 
L 387.970981 430.18919 
L 388.526241 428.626052 
L 389.636761 394.034369 
L 390.747281 415.97993 
L 391.30254 418.033162 
L 391.8578 412.358656 
L 392.41306 400.363244 
L 392.96832 408.00204 
L 393.52358 405.700044 
L 394.07884 400.972662 
L 394.634099 410.688845 
L 395.189359 413.425778 
L 395.744619 378.770636 
L 396.299879 372.902288 
L 396.855139 371.131874 
L 397.410399 406.302189 
L 397.965659 423.708513 
L 398.520918 420.839045 
L 399.076178 389.352028 
L 399.631438 370.816887 
L 400.186698 387.133688 
L 400.741958 354.21128 
L 401.297218 340.629109 
L 401.852478 334.982868 
L 402.407737 340.703711 
L 402.962997 288.192553 
L 403.518257 287.288645 
L 404.073517 300.248537 
L 405.184037 242.632599 
L 405.739296 218.302394 
L 406.294556 201.979697 
L 406.849816 116.664852 
L 407.405076 121.976228 
L 407.960336 217.553484 
L 408.515596 123.951504 
L 409.626115 225.066524 
L 410.181375 295.77058 
L 410.736635 343.506811 
L 411.291895 265.649969 
L 411.847155 312.417684 
L 412.402415 308.48495 
L 412.957674 341.433724 
L 413.512934 344.712597 
L 414.068194 356.662994 
L 414.623454 346.155511 
L 415.178714 381.242113 
L 415.733974 389.925928 
L 416.289234 386.893318 
L 416.844493 373.534382 
L 417.399753 394.330581 
L 417.955013 399.871474 
L 418.510273 382.417246 
L 419.065533 395.471429 
L 419.620793 395.031037 
L 420.176052 380.730531 
L 420.731312 383.546676 
L 421.286572 402.318444 
L 421.841832 392.347984 
L 422.952352 424.106241 
L 423.507612 424.054388 
L 424.062871 418.938972 
L 424.618131 407.01993 
L 425.173391 424.679796 
L 425.728651 428.807665 
L 426.283911 423.273664 
L 426.839171 421.83181 
L 427.394431 425.463364 
L 427.94969 430.640148 
L 428.50495 431.43952 
L 429.06021 429.958694 
L 429.61547 428.953311 
L 430.17073 422.963388 
L 430.72599 412.811892 
L 431.281249 418.793649 
L 431.836509 420.387542 
L 432.391769 415.269212 
L 432.947029 426.385842 
L 434.612809 443.075503 
L 435.168068 437.30028 
L 435.723328 436.159234 
L 436.833848 432.675717 
L 437.389108 429.836807 
L 437.944368 422.313258 
L 438.499627 424.32193 
L 439.054887 432.965609 
L 439.610147 436.322235 
L 440.165407 434.879116 
L 440.720667 432.172008 
L 441.275927 431.329068 
L 441.831187 431.617837 
L 442.386446 434.483306 
L 442.941706 438.683331 
L 443.496966 440.179622 
L 444.052226 440.123434 
L 444.607486 441.455543 
L 445.162746 443.652624 
L 445.718006 444.483067 
L 446.273265 446.136309 
L 446.828525 446.546334 
L 447.383785 446.079324 
L 448.494305 439.463445 
L 449.604824 435.375762 
L 450.160084 433.701237 
L 450.715344 432.549955 
L 451.270604 433.51875 
L 452.381124 438.745291 
L 452.936384 439.841767 
L 453.491643 439.544881 
L 454.046903 438.368286 
L 454.602163 438.095478 
L 455.157423 437.402126 
L 455.712683 433.774749 
L 456.267943 429.132382 
L 456.823202 427.137792 
L 457.933722 426.842647 
L 458.488982 426.126901 
L 459.044242 426.156032 
L 459.599502 425.362949 
L 460.154762 423.261243 
L 460.710021 422.215072 
L 461.265281 422.8442 
L 462.931061 423.073105 
L 463.486321 422.533315 
L 464.04158 424.200309 
L 464.59684 427.717677 
L 465.1521 429.862199 
L 465.70736 430.890404 
L 466.26262 431.331672 
L 466.81788 430.879474 
L 467.37314 429.882823 
L 467.928399 429.448254 
L 468.483659 430.024783 
L 469.038919 431.066395 
L 470.149439 433.460859 
L 470.704699 433.219776 
L 471.259959 432.579756 
L 471.815218 432.966894 
L 472.925738 435.308252 
L 473.480998 435.440802 
L 474.591518 433.308279 
L 475.146777 432.610174 
L 475.702037 431.719726 
L 476.257297 429.736556 
L 476.812557 427.076711 
L 477.367817 425.700184 
L 477.923077 426.165509 
L 478.478337 426.836858 
L 479.033596 426.957778 
L 479.588856 427.381134 
L 480.144116 428.156914 
L 480.699376 428.317783 
L 481.254636 427.770176 
L 481.809896 427.529608 
L 482.365155 428.271128 
L 483.475675 430.731146 
L 484.030935 431.379999 
L 484.586195 431.295678 
L 485.141455 430.803586 
L 485.696715 430.531026 
L 486.251974 430.553082 
L 486.807234 430.723469 
L 487.362494 431.131679 
L 487.917754 431.959705 
L 489.028274 434.108541 
L 489.583533 434.766153 
L 490.138793 435.029065 
L 490.694053 434.727524 
L 491.249313 433.679159 
L 493.470352 427.220083 
L 494.025612 426.766202 
L 494.580872 426.87342 
L 495.691392 428.05689 
L 496.246652 428.022224 
L 497.912431 426.309425 
L 499.022951 426.181178 
L 499.578211 425.589584 
L 500.68873 423.590904 
L 502.90977 420.76049 
L 503.46503 420.143574 
L 504.02029 419.91703 
L 505.130809 420.062342 
L 506.796589 420.516879 
L 507.351849 420.346788 
L 507.907108 420.009699 
L 508.462368 419.808093 
L 509.017628 419.763788 
L 509.572888 419.582989 
L 510.128148 419.242903 
L 510.683408 419.158885 
L 511.238668 419.678105 
L 512.349187 421.56801 
L 512.904447 421.880575 
L 515.680746 420.756705 
L 516.236006 420.061266 
L 519.012305 415.310759 
L 519.567565 414.746865 
L 520.122825 414.551251 
L 520.678085 414.742928 
L 521.788605 415.851424 
L 523.454384 417.81168 
L 524.009644 418.261058 
L 524.564904 418.494587 
L 525.120164 418.540605 
L 526.230683 418.294153 
L 526.785943 418.073967 
L 527.341203 417.704795 
L 527.896463 417.026257 
L 528.451723 415.967335 
L 529.562243 413.086714 
L 530.672762 410.003901 
L 531.228022 409.083732 
L 531.783282 408.986609 
L 532.338542 409.620041 
L 534.559581 413.768501 
L 535.114841 414.178966 
L 535.670101 414.207819 
L 536.780621 413.655568 
L 537.33588 413.327225 
L 537.89114 413.131455 
L 538.4464 413.137405 
L 539.55692 413.348059 
L 541.222699 413.146808 
L 541.777959 413.293641 
L 542.888479 414.013224 
L 543.998999 414.729617 
L 544.554258 414.928794 
L 545.109518 414.962829 
L 545.664778 414.762803 
L 546.220038 414.281697 
L 546.775298 413.507426 
L 547.885818 411.210695 
L 548.996337 408.860051 
L 549.551597 408.151842 
L 550.106857 407.854667 
L 550.662117 407.909213 
L 551.217377 408.269072 
L 551.772636 408.972107 
L 552.327896 410.066248 
L 553.993676 414.623439 
L 555.659455 418.820431 
L 556.769975 420.979496 
L 557.325235 421.667755 
L 557.880495 422.072055 
L 558.435755 422.245793 
L 559.546274 422.16311 
L 560.656794 421.714832 
L 563.433093 419.986884 
L 563.988353 420.014896 
L 564.543613 420.266072 
L 565.654133 421.222749 
L 568.985692 424.436763 
L 570.096211 425.329508 
L 571.206731 425.80622 
L 572.872511 426.374716 
L 574.53829 427.205252 
L 576.20407 428.493267 
L 577.314589 429.312167 
L 578.425109 429.83 
L 580.646149 430.512226 
L 581.756668 431.163398 
L 583.422448 432.256269 
L 584.532968 432.614408 
L 586.754007 432.930146 
L 587.309267 433.176903 
L 587.864527 433.565032 
L 588.975046 434.783806 
L 590.085566 436.426141 
L 593.417125 441.698712 
L 595.082905 443.64309 
L 596.193424 444.660316 
L 597.859204 445.812522 
L 598.969724 446.315411 
L 600.080243 446.584073 
L 601.746023 446.868836 
L 602.856542 447.286276 
L 604.522322 448.323353 
L 606.188102 449.325782 
L 609.519661 451.054467 
L 612.29596 452.968194 
L 613.961739 453.659268 
L 617.293299 454.873606 
L 621.180117 456.693265 
L 623.401157 458.07955 
L 625.622196 459.396825 
L 626.732716 459.828421 
L 630.064275 460.805923 
L 631.730055 461.704634 
L 634.506354 463.278545 
L 636.727393 464.296289 
L 639.503692 465.317902 
L 653.385189 469.633689 
L 656.716748 470.898885 
L 660.048307 471.891052 
L 662.824606 472.533406 
L 666.711425 473.360348 
L 671.708764 474.579602 
L 676.706102 475.566937 
L 685.035 476.933686 
L 685.035 476.933686 
" clip-path="url(#p9b208c53ea)" style="fill: none; stroke: #0000ff; stroke-width: 1.5; stroke-linecap: square"/>
   </g>
   <g id="patch_3">
    <path d="M 129.775152 489.1525 
L 129.775152 36.72 
" style="fill: none; stroke: #000000; stroke-width: 0.8; stroke-linejoin: miter; stroke-linecap: square"/>
   </g>
   <g id="patch_4">
    <path d="M 685.035 489.1525 
L 685.035 36.72 
" style="fill: none; stroke: #000000; stroke-width: 0.8; stroke-linejoin: miter; stroke-linecap: square"/>
   </g>
   <g id="patch_5">
    <path d="M 129.775152 489.1525 
L 685.035 489.1525 
" style="fill: none; stroke: #000000; stroke-width: 0.8; stroke-linejoin: miter; stroke-linecap: square"/>
   </g>
   <g id="patch_6">
    <path d="M 129.775152 36.72 
L 685.035 36.72 
" style="fill: none; stroke: #000000; stroke-width: 0.8; stroke-linejoin: miter; stroke-linecap: square"/>
   </g>
   <g id="legend_1">
    <g id="patch_7">
     <path d="M 517.415 100.260156 
L 676.535 100.260156 
L 676.535 45.22 
L 517.415 45.22 
z
" style="fill: #ffffff; opacity: 0.8; stroke: #000000; stroke-linejoin: miter"/>
    </g>
    <g id="line2d_31">
     <path d="M 524.215 58.987344 
L 541.215 58.987344 
L 558.215 58.987344 
" style="fill: none; stroke-dasharray: 14.8,6.4; stroke-dashoffset: 0; stroke: #ff0000; stroke-width: 4"/>
    </g>
    <g id="text_17">
     <!-- $\rho_0$ -->
     <g transform="translate(571.815 64.937344) scale(0.17 -0.17)">
      <use xlink:href="#DejaVuSans-Oblique-3c1"/>
      <use xlink:href="#DejaVuSans-30" transform="translate(63.476562 -16.40625) scale(0.7)"/>
     </g>
    </g>
    <g id="line2d_32">
     <path d="M 524.215 83.974688 
L 541.215 83.974688 
L 558.215 83.974688 
" style="fill: none; stroke: #0000ff; stroke-width: 1.5; stroke-linecap: square"/>
    </g>
    <g id="text_18">
     <!-- $\it{k_bT= 0.010}$ -->
     <g transform="translate(571.815 89.924688) scale(0.17 -0.17)">
      <defs>
       <path id="DejaVuSans-Oblique-6b" d="M 1172 4863 
L 1747 4863 
L 1197 2028 
L 3169 3500 
L 3916 3500 
L 1716 1825 
L 3322 0 
L 2625 0 
L 1131 1709 
L 800 0 
L 225 0 
L 1172 4863 
z
" transform="scale(0.015625)"/>
       <path id="DejaVuSans-Oblique-62" d="M 3169 2138 
Q 3169 2591 2961 2847 
Q 2753 3103 2388 3103 
Q 2122 3103 1889 2973 
Q 1656 2844 1484 2597 
Q 1303 2338 1198 1995 
Q 1094 1653 1094 1313 
Q 1094 881 1298 636 
Q 1503 391 1863 391 
Q 2134 391 2365 517 
Q 2597 644 2772 891 
Q 2950 1147 3059 1487 
Q 3169 1828 3169 2138 
z
M 1381 2969 
Q 1594 3256 1914 3420 
Q 2234 3584 2584 3584 
Q 3122 3584 3439 3221 
Q 3756 2859 3756 2241 
Q 3756 1734 3570 1259 
Q 3384 784 3041 416 
Q 2816 172 2522 40 
Q 2228 -91 1906 -91 
Q 1566 -91 1316 65 
Q 1066 222 909 531 
L 806 0 
L 231 0 
L 1178 4863 
L 1753 4863 
L 1381 2969 
z
" transform="scale(0.015625)"/>
       <path id="DejaVuSans-Oblique-54" d="M 378 4666 
L 4325 4666 
L 4225 4134 
L 2559 4134 
L 1759 0 
L 1125 0 
L 1925 4134 
L 275 4134 
L 378 4666 
z
" transform="scale(0.015625)"/>
       <path id="DejaVuSans-3d" d="M 678 2906 
L 4684 2906 
L 4684 2381 
L 678 2381 
L 678 2906 
z
M 678 1631 
L 4684 1631 
L 4684 1100 
L 678 1100 
L 678 1631 
z
" transform="scale(0.015625)"/>
      </defs>
      <use xlink:href="#DejaVuSans-Oblique-6b" transform="translate(0 0.015625)"/>
      <use xlink:href="#DejaVuSans-Oblique-62" transform="translate(57.910156 -16.390625) scale(0.7)"/>
      <use xlink:href="#DejaVuSans-Oblique-54" transform="translate(105.078125 0.015625)"/>
      <use xlink:href="#DejaVuSans-3d" transform="translate(185.644531 0.015625)"/>
      <use xlink:href="#DejaVuSans-30" transform="translate(288.916016 0.015625)"/>
      <use xlink:href="#DejaVuSans-2e" transform="translate(352.539062 0.015625)"/>
      <use xlink:href="#DejaVuSans-30" transform="translate(384.326172 0.015625)"/>
      <use xlink:href="#DejaVuSans-31" transform="translate(447.949219 0.015625)"/>
      <use xlink:href="#DejaVuSans-30" transform="translate(511.572266 0.015625)"/>
     </g>
    </g>
   </g>
  </g>
 </g>
 <defs>
  <clipPath id="p9b208c53ea">
   <rect x="129.775152" y="36.72" width="555.259848" height="452.4325"/>
  </clipPath>
 </defs>
</svg>
