<?xml version="1.0" encoding="utf-8" standalone="no"?>
<!DOCTYPE svg PUBLIC "-//W3C//DTD SVG 1.1//EN"
  "http://www.w3.org/Graphics/SVG/1.1/DTD/svg11.dtd">
<svg xmlns:xlink="http://www.w3.org/1999/xlink" width="720pt" height="576pt" viewBox="0 0 720 576" xmlns="http://www.w3.org/2000/svg" version="1.1">
 <metadata>
  <rdf:RDF xmlns:dc="http://purl.org/dc/elements/1.1/" xmlns:cc="http://creativecommons.org/ns#" xmlns:rdf="http://www.w3.org/1999/02/22-rdf-syntax-ns#">
   <cc:Work>
    <dc:type rdf:resource="http://purl.org/dc/dcmitype/StillImage"/>
    <dc:date>2023-04-12T23:09:03.496674</dc:date>
    <dc:format>image/svg+xml</dc:format>
    <dc:creator>
     <cc:Agent>
      <dc:title>Matplotlib v3.7.1, https://matplotlib.org/</dc:title>
     </cc:Agent>
    </dc:creator>
   </cc:Work>
  </rdf:RDF>
 </metadata>
 <defs>
  <style type="text/css">*{stroke-linejoin: round; stroke-linecap: butt}</style>
 </defs>
 <g id="figure_1">
  <g id="patch_1">
   <path d="M 0 576 
L 720 576 
L 720 0 
L 0 0 
z
" style="fill: #ffffff"/>
  </g>
  <g id="axes_1">
   <g id="patch_2">
    <path d="M 129.775152 489.1525 
L 685.035 489.1525 
L 685.035 36.72 
L 129.775152 36.72 
z
" style="fill: #ffffff"/>
   </g>
   <g id="matplotlib.axis_1">
    <g id="xtick_1">
     <g id="line2d_1">
      <path d="M 129.775152 489.1525 
L 129.775152 36.72 
" clip-path="url(#p7dc365c9cb)" style="fill: none; stroke: #b0b0b0; stroke-width: 0.8; stroke-linecap: square"/>
     </g>
     <g id="line2d_2">
      <defs>
       <path id="m29511aea6b" d="M 0 0 
L 0 3.5 
" style="stroke: #000000; stroke-width: 0.8"/>
      </defs>
      <g>
       <use xlink:href="#m29511aea6b" x="129.775152" y="489.1525" style="stroke: #000000; stroke-width: 0.8"/>
      </g>
     </g>
     <g id="text_1">
      <!-- −3 -->
      <g transform="translate(111.347418 515.148594) scale(0.25 -0.25)">
       <defs>
        <path id="DejaVuSans-2212" d="M 678 2272 
L 4684 2272 
L 4684 1741 
L 678 1741 
L 678 2272 
z
" transform="scale(0.015625)"/>
        <path id="DejaVuSans-33" d="M 2597 2516 
Q 3050 2419 3304 2112 
Q 3559 1806 3559 1356 
Q 3559 666 3084 287 
Q 2609 -91 1734 -91 
Q 1441 -91 1130 -33 
Q 819 25 488 141 
L 488 750 
Q 750 597 1062 519 
Q 1375 441 1716 441 
Q 2309 441 2620 675 
Q 2931 909 2931 1356 
Q 2931 1769 2642 2001 
Q 2353 2234 1838 2234 
L 1294 2234 
L 1294 2753 
L 1863 2753 
Q 2328 2753 2575 2939 
Q 2822 3125 2822 3475 
Q 2822 3834 2567 4026 
Q 2313 4219 1838 4219 
Q 1578 4219 1281 4162 
Q 984 4106 628 3988 
L 628 4550 
Q 988 4650 1302 4700 
Q 1616 4750 1894 4750 
Q 2613 4750 3031 4423 
Q 3450 4097 3450 3541 
Q 3450 3153 3228 2886 
Q 3006 2619 2597 2516 
z
" transform="scale(0.015625)"/>
       </defs>
       <use xlink:href="#DejaVuSans-2212"/>
       <use xlink:href="#DejaVuSans-33" x="83.789062"/>
      </g>
     </g>
    </g>
    <g id="xtick_2">
     <g id="line2d_3">
      <path d="M 222.31846 489.1525 
L 222.31846 36.72 
" clip-path="url(#p7dc365c9cb)" style="fill: none; stroke: #b0b0b0; stroke-width: 0.8; stroke-linecap: square"/>
     </g>
     <g id="line2d_4">
      <g>
       <use xlink:href="#m29511aea6b" x="222.31846" y="489.1525" style="stroke: #000000; stroke-width: 0.8"/>
      </g>
     </g>
     <g id="text_2">
      <!-- −2 -->
      <g transform="translate(203.890726 515.148594) scale(0.25 -0.25)">
       <defs>
        <path id="DejaVuSans-32" d="M 1228 531 
L 3431 531 
L 3431 0 
L 469 0 
L 469 531 
Q 828 903 1448 1529 
Q 2069 2156 2228 2338 
Q 2531 2678 2651 2914 
Q 2772 3150 2772 3378 
Q 2772 3750 2511 3984 
Q 2250 4219 1831 4219 
Q 1534 4219 1204 4116 
Q 875 4013 500 3803 
L 500 4441 
Q 881 4594 1212 4672 
Q 1544 4750 1819 4750 
Q 2544 4750 2975 4387 
Q 3406 4025 3406 3419 
Q 3406 3131 3298 2873 
Q 3191 2616 2906 2266 
Q 2828 2175 2409 1742 
Q 1991 1309 1228 531 
z
" transform="scale(0.015625)"/>
       </defs>
       <use xlink:href="#DejaVuSans-2212"/>
       <use xlink:href="#DejaVuSans-32" x="83.789062"/>
      </g>
     </g>
    </g>
    <g id="xtick_3">
     <g id="line2d_5">
      <path d="M 314.861768 489.1525 
L 314.861768 36.72 
" clip-path="url(#p7dc365c9cb)" style="fill: none; stroke: #b0b0b0; stroke-width: 0.8; stroke-linecap: square"/>
     </g>
     <g id="line2d_6">
      <g>
       <use xlink:href="#m29511aea6b" x="314.861768" y="489.1525" style="stroke: #000000; stroke-width: 0.8"/>
      </g>
     </g>
     <g id="text_3">
      <!-- −1 -->
      <g transform="translate(296.434034 515.148594) scale(0.25 -0.25)">
       <defs>
        <path id="DejaVuSans-31" d="M 794 531 
L 1825 531 
L 1825 4091 
L 703 3866 
L 703 4441 
L 1819 4666 
L 2450 4666 
L 2450 531 
L 3481 531 
L 3481 0 
L 794 0 
L 794 531 
z
" transform="scale(0.015625)"/>
       </defs>
       <use xlink:href="#DejaVuSans-2212"/>
       <use xlink:href="#DejaVuSans-31" x="83.789062"/>
      </g>
     </g>
    </g>
    <g id="xtick_4">
     <g id="line2d_7">
      <path d="M 407.405076 489.1525 
L 407.405076 36.72 
" clip-path="url(#p7dc365c9cb)" style="fill: none; stroke: #b0b0b0; stroke-width: 0.8; stroke-linecap: square"/>
     </g>
     <g id="line2d_8">
      <g>
       <use xlink:href="#m29511aea6b" x="407.405076" y="489.1525" style="stroke: #000000; stroke-width: 0.8"/>
      </g>
     </g>
     <g id="text_4">
      <!-- 0 -->
      <g transform="translate(399.451951 515.148594) scale(0.25 -0.25)">
       <defs>
        <path id="DejaVuSans-30" d="M 2034 4250 
Q 1547 4250 1301 3770 
Q 1056 3291 1056 2328 
Q 1056 1369 1301 889 
Q 1547 409 2034 409 
Q 2525 409 2770 889 
Q 3016 1369 3016 2328 
Q 3016 3291 2770 3770 
Q 2525 4250 2034 4250 
z
M 2034 4750 
Q 2819 4750 3233 4129 
Q 3647 3509 3647 2328 
Q 3647 1150 3233 529 
Q 2819 -91 2034 -91 
Q 1250 -91 836 529 
Q 422 1150 422 2328 
Q 422 3509 836 4129 
Q 1250 4750 2034 4750 
z
" transform="scale(0.015625)"/>
       </defs>
       <use xlink:href="#DejaVuSans-30"/>
      </g>
     </g>
    </g>
    <g id="xtick_5">
     <g id="line2d_9">
      <path d="M 499.948384 489.1525 
L 499.948384 36.72 
" clip-path="url(#p7dc365c9cb)" style="fill: none; stroke: #b0b0b0; stroke-width: 0.8; stroke-linecap: square"/>
     </g>
     <g id="line2d_10">
      <g>
       <use xlink:href="#m29511aea6b" x="499.948384" y="489.1525" style="stroke: #000000; stroke-width: 0.8"/>
      </g>
     </g>
     <g id="text_5">
      <!-- 1 -->
      <g transform="translate(491.995259 515.148594) scale(0.25 -0.25)">
       <use xlink:href="#DejaVuSans-31"/>
      </g>
     </g>
    </g>
    <g id="xtick_6">
     <g id="line2d_11">
      <path d="M 592.491692 489.1525 
L 592.491692 36.72 
" clip-path="url(#p7dc365c9cb)" style="fill: none; stroke: #b0b0b0; stroke-width: 0.8; stroke-linecap: square"/>
     </g>
     <g id="line2d_12">
      <g>
       <use xlink:href="#m29511aea6b" x="592.491692" y="489.1525" style="stroke: #000000; stroke-width: 0.8"/>
      </g>
     </g>
     <g id="text_6">
      <!-- 2 -->
      <g transform="translate(584.538567 515.148594) scale(0.25 -0.25)">
       <use xlink:href="#DejaVuSans-32"/>
      </g>
     </g>
    </g>
    <g id="xtick_7">
     <g id="line2d_13">
      <path d="M 685.035 489.1525 
L 685.035 36.72 
" clip-path="url(#p7dc365c9cb)" style="fill: none; stroke: #b0b0b0; stroke-width: 0.8; stroke-linecap: square"/>
     </g>
     <g id="line2d_14">
      <g>
       <use xlink:href="#m29511aea6b" x="685.035" y="489.1525" style="stroke: #000000; stroke-width: 0.8"/>
      </g>
     </g>
     <g id="text_7">
      <!-- 3 -->
      <g transform="translate(677.081875 515.148594) scale(0.25 -0.25)">
       <use xlink:href="#DejaVuSans-33"/>
      </g>
     </g>
    </g>
    <g id="text_8">
     <!-- $\omega$ [-] -->
     <g transform="translate(382.530076 541.351719) scale(0.25 -0.25)">
      <defs>
       <path id="DejaVuSans-Oblique-3c9" d="M 1369 -91 
Q 72 -91 434 1766 
Q 575 2500 1256 3500 
L 1875 3500 
Q 1231 2500 1088 1750 
Q 819 397 1519 397 
Q 2166 397 2478 2078 
L 3009 2078 
Q 2669 388 3316 397 
Q 4013 403 4275 1750 
Q 4419 2500 4169 3500 
L 4788 3500 
Q 5075 2500 4934 1766 
Q 4578 -94 3278 -91 
Q 2428 -88 2503 844 
Q 2194 -91 1369 -91 
z
" transform="scale(0.015625)"/>
       <path id="Calibri-20" transform="scale(0.015625)"/>
       <path id="Calibri-5b" d="M 1684 -813 
Q 1684 -916 1661 -958 
Q 1638 -1000 1594 -1000 
L 794 -1000 
Q 756 -1000 722 -989 
Q 688 -978 659 -953 
Q 631 -928 614 -886 
Q 597 -844 597 -781 
L 597 4153 
Q 597 4213 614 4255 
Q 631 4297 659 4323 
Q 688 4350 722 4361 
Q 756 4372 794 4372 
L 1594 4372 
Q 1613 4372 1630 4362 
Q 1647 4353 1659 4328 
Q 1672 4303 1678 4267 
Q 1684 4231 1684 4178 
Q 1684 4078 1661 4034 
Q 1638 3991 1594 3991 
L 1084 3991 
L 1084 -622 
L 1594 -622 
Q 1613 -622 1630 -631 
Q 1647 -641 1659 -664 
Q 1672 -688 1678 -723 
Q 1684 -759 1684 -813 
z
" transform="scale(0.015625)"/>
       <path id="Calibri-2d" d="M 1744 1578 
Q 1744 1456 1716 1409 
Q 1688 1363 1634 1363 
L 328 1363 
Q 272 1363 244 1411 
Q 216 1459 216 1578 
Q 216 1697 244 1744 
Q 272 1791 328 1791 
L 1634 1791 
Q 1659 1791 1679 1781 
Q 1700 1772 1714 1745 
Q 1728 1719 1736 1678 
Q 1744 1638 1744 1578 
z
" transform="scale(0.015625)"/>
       <path id="Calibri-5d" d="M 1369 -781 
Q 1369 -844 1351 -886 
Q 1334 -928 1306 -953 
Q 1278 -978 1242 -989 
Q 1206 -1000 1169 -1000 
L 372 -1000 
Q 328 -1000 304 -958 
Q 281 -916 281 -813 
Q 281 -759 286 -723 
Q 291 -688 303 -664 
Q 316 -641 333 -631 
Q 350 -622 372 -622 
L 881 -622 
L 881 3991 
L 372 3991 
Q 328 3991 304 4034 
Q 281 4078 281 4178 
Q 281 4231 286 4267 
Q 291 4303 303 4328 
Q 316 4353 333 4362 
Q 350 4372 372 4372 
L 1169 4372 
Q 1206 4372 1242 4361 
Q 1278 4350 1306 4323 
Q 1334 4297 1351 4255 
Q 1369 4213 1369 4153 
L 1369 -781 
z
" transform="scale(0.015625)"/>
      </defs>
      <use xlink:href="#DejaVuSans-Oblique-3c9" transform="translate(0 0.6875)"/>
      <use xlink:href="#Calibri-20" transform="translate(83.740234 0.6875)"/>
      <use xlink:href="#Calibri-5b" transform="translate(106.347656 0.6875)"/>
      <use xlink:href="#Calibri-2d" transform="translate(137.011719 0.6875)"/>
      <use xlink:href="#Calibri-5d" transform="translate(167.626953 0.6875)"/>
     </g>
    </g>
   </g>
   <g id="matplotlib.axis_2">
    <g id="ytick_1">
     <g id="line2d_15">
      <path d="M 129.775152 489.1525 
L 685.035 489.1525 
" clip-path="url(#p7dc365c9cb)" style="fill: none; stroke: #b0b0b0; stroke-width: 0.8; stroke-linecap: square"/>
     </g>
     <g id="line2d_16">
      <defs>
       <path id="mcc53cc474d" d="M 0 0 
L -3.5 0 
" style="stroke: #000000; stroke-width: 0.8"/>
      </defs>
      <g>
       <use xlink:href="#mcc53cc474d" x="129.775152" y="489.1525" style="stroke: #000000; stroke-width: 0.8"/>
      </g>
     </g>
     <g id="text_9">
      <!-- 0.0 -->
      <g transform="translate(83.017339 498.650547) scale(0.25 -0.25)">
       <defs>
        <path id="DejaVuSans-2e" d="M 684 794 
L 1344 794 
L 1344 0 
L 684 0 
L 684 794 
z
" transform="scale(0.015625)"/>
       </defs>
       <use xlink:href="#DejaVuSans-30"/>
       <use xlink:href="#DejaVuSans-2e" x="63.623047"/>
       <use xlink:href="#DejaVuSans-30" x="95.410156"/>
      </g>
     </g>
    </g>
    <g id="ytick_2">
     <g id="line2d_17">
      <path d="M 129.775152 413.747083 
L 685.035 413.747083 
" clip-path="url(#p7dc365c9cb)" style="fill: none; stroke: #b0b0b0; stroke-width: 0.8; stroke-linecap: square"/>
     </g>
     <g id="line2d_18">
      <g>
       <use xlink:href="#mcc53cc474d" x="129.775152" y="413.747083" style="stroke: #000000; stroke-width: 0.8"/>
      </g>
     </g>
     <g id="text_10">
      <!-- 0.2 -->
      <g transform="translate(83.017339 423.24513) scale(0.25 -0.25)">
       <use xlink:href="#DejaVuSans-30"/>
       <use xlink:href="#DejaVuSans-2e" x="63.623047"/>
       <use xlink:href="#DejaVuSans-32" x="95.410156"/>
      </g>
     </g>
    </g>
    <g id="ytick_3">
     <g id="line2d_19">
      <path d="M 129.775152 338.341667 
L 685.035 338.341667 
" clip-path="url(#p7dc365c9cb)" style="fill: none; stroke: #b0b0b0; stroke-width: 0.8; stroke-linecap: square"/>
     </g>
     <g id="line2d_20">
      <g>
       <use xlink:href="#mcc53cc474d" x="129.775152" y="338.341667" style="stroke: #000000; stroke-width: 0.8"/>
      </g>
     </g>
     <g id="text_11">
      <!-- 0.4 -->
      <g transform="translate(83.017339 347.839714) scale(0.25 -0.25)">
       <defs>
        <path id="DejaVuSans-34" d="M 2419 4116 
L 825 1625 
L 2419 1625 
L 2419 4116 
z
M 2253 4666 
L 3047 4666 
L 3047 1625 
L 3713 1625 
L 3713 1100 
L 3047 1100 
L 3047 0 
L 2419 0 
L 2419 1100 
L 313 1100 
L 313 1709 
L 2253 4666 
z
" transform="scale(0.015625)"/>
       </defs>
       <use xlink:href="#DejaVuSans-30"/>
       <use xlink:href="#DejaVuSans-2e" x="63.623047"/>
       <use xlink:href="#DejaVuSans-34" x="95.410156"/>
      </g>
     </g>
    </g>
    <g id="ytick_4">
     <g id="line2d_21">
      <path d="M 129.775152 262.93625 
L 685.035 262.93625 
" clip-path="url(#p7dc365c9cb)" style="fill: none; stroke: #b0b0b0; stroke-width: 0.8; stroke-linecap: square"/>
     </g>
     <g id="line2d_22">
      <g>
       <use xlink:href="#mcc53cc474d" x="129.775152" y="262.93625" style="stroke: #000000; stroke-width: 0.8"/>
      </g>
     </g>
     <g id="text_12">
      <!-- 0.6 -->
      <g transform="translate(83.017339 272.434297) scale(0.25 -0.25)">
       <defs>
        <path id="DejaVuSans-36" d="M 2113 2584 
Q 1688 2584 1439 2293 
Q 1191 2003 1191 1497 
Q 1191 994 1439 701 
Q 1688 409 2113 409 
Q 2538 409 2786 701 
Q 3034 994 3034 1497 
Q 3034 2003 2786 2293 
Q 2538 2584 2113 2584 
z
M 3366 4563 
L 3366 3988 
Q 3128 4100 2886 4159 
Q 2644 4219 2406 4219 
Q 1781 4219 1451 3797 
Q 1122 3375 1075 2522 
Q 1259 2794 1537 2939 
Q 1816 3084 2150 3084 
Q 2853 3084 3261 2657 
Q 3669 2231 3669 1497 
Q 3669 778 3244 343 
Q 2819 -91 2113 -91 
Q 1303 -91 875 529 
Q 447 1150 447 2328 
Q 447 3434 972 4092 
Q 1497 4750 2381 4750 
Q 2619 4750 2861 4703 
Q 3103 4656 3366 4563 
z
" transform="scale(0.015625)"/>
       </defs>
       <use xlink:href="#DejaVuSans-30"/>
       <use xlink:href="#DejaVuSans-2e" x="63.623047"/>
       <use xlink:href="#DejaVuSans-36" x="95.410156"/>
      </g>
     </g>
    </g>
    <g id="ytick_5">
     <g id="line2d_23">
      <path d="M 129.775152 187.530833 
L 685.035 187.530833 
" clip-path="url(#p7dc365c9cb)" style="fill: none; stroke: #b0b0b0; stroke-width: 0.8; stroke-linecap: square"/>
     </g>
     <g id="line2d_24">
      <g>
       <use xlink:href="#mcc53cc474d" x="129.775152" y="187.530833" style="stroke: #000000; stroke-width: 0.8"/>
      </g>
     </g>
     <g id="text_13">
      <!-- 0.8 -->
      <g transform="translate(83.017339 197.02888) scale(0.25 -0.25)">
       <defs>
        <path id="DejaVuSans-38" d="M 2034 2216 
Q 1584 2216 1326 1975 
Q 1069 1734 1069 1313 
Q 1069 891 1326 650 
Q 1584 409 2034 409 
Q 2484 409 2743 651 
Q 3003 894 3003 1313 
Q 3003 1734 2745 1975 
Q 2488 2216 2034 2216 
z
M 1403 2484 
Q 997 2584 770 2862 
Q 544 3141 544 3541 
Q 544 4100 942 4425 
Q 1341 4750 2034 4750 
Q 2731 4750 3128 4425 
Q 3525 4100 3525 3541 
Q 3525 3141 3298 2862 
Q 3072 2584 2669 2484 
Q 3125 2378 3379 2068 
Q 3634 1759 3634 1313 
Q 3634 634 3220 271 
Q 2806 -91 2034 -91 
Q 1263 -91 848 271 
Q 434 634 434 1313 
Q 434 1759 690 2068 
Q 947 2378 1403 2484 
z
M 1172 3481 
Q 1172 3119 1398 2916 
Q 1625 2713 2034 2713 
Q 2441 2713 2670 2916 
Q 2900 3119 2900 3481 
Q 2900 3844 2670 4047 
Q 2441 4250 2034 4250 
Q 1625 4250 1398 4047 
Q 1172 3844 1172 3481 
z
" transform="scale(0.015625)"/>
       </defs>
       <use xlink:href="#DejaVuSans-30"/>
       <use xlink:href="#DejaVuSans-2e" x="63.623047"/>
       <use xlink:href="#DejaVuSans-38" x="95.410156"/>
      </g>
     </g>
    </g>
    <g id="ytick_6">
     <g id="line2d_25">
      <path d="M 129.775152 112.125417 
L 685.035 112.125417 
" clip-path="url(#p7dc365c9cb)" style="fill: none; stroke: #b0b0b0; stroke-width: 0.8; stroke-linecap: square"/>
     </g>
     <g id="line2d_26">
      <g>
       <use xlink:href="#mcc53cc474d" x="129.775152" y="112.125417" style="stroke: #000000; stroke-width: 0.8"/>
      </g>
     </g>
     <g id="text_14">
      <!-- 1.0 -->
      <g transform="translate(83.017339 121.623464) scale(0.25 -0.25)">
       <use xlink:href="#DejaVuSans-31"/>
       <use xlink:href="#DejaVuSans-2e" x="63.623047"/>
       <use xlink:href="#DejaVuSans-30" x="95.410156"/>
      </g>
     </g>
    </g>
    <g id="ytick_7">
     <g id="line2d_27">
      <path d="M 129.775152 36.72 
L 685.035 36.72 
" clip-path="url(#p7dc365c9cb)" style="fill: none; stroke: #b0b0b0; stroke-width: 0.8; stroke-linecap: square"/>
     </g>
     <g id="line2d_28">
      <g>
       <use xlink:href="#mcc53cc474d" x="129.775152" y="36.72" style="stroke: #000000; stroke-width: 0.8"/>
      </g>
     </g>
     <g id="text_15">
      <!-- 1.2 -->
      <g transform="translate(83.017339 46.218047) scale(0.25 -0.25)">
       <use xlink:href="#DejaVuSans-31"/>
       <use xlink:href="#DejaVuSans-2e" x="63.623047"/>
       <use xlink:href="#DejaVuSans-32" x="95.410156"/>
      </g>
     </g>
    </g>
    <g id="text_16">
     <!-- $\rho$($\omega$) -->
     <g transform="translate(27.017339 257.68625) scale(0.25 -0.25)">
      <defs>
       <path id="DejaVuSans-Oblique-3c1" d="M 1203 2875 
Q 1453 3194 1981 3475 
Q 2188 3584 2756 3584 
Q 3394 3584 3694 3078 
Q 3994 2572 3834 1747 
Q 3672 922 3175 415 
Q 2678 -91 2041 -91 
Q 1656 -91 1409 63 
Q 1163 213 1044 525 
L 681 -1331 
L 103 -1331 
L 697 1716 
Q 838 2438 1203 2875 
z
M 3238 1747 
Q 3359 2381 3169 2744 
Q 2978 3103 2522 3103 
Q 2066 3103 1734 2744 
Q 1403 2381 1281 1747 
Q 1156 1113 1347 750 
Q 1538 391 1994 391 
Q 2450 391 2781 750 
Q 3113 1113 3238 1747 
z
" transform="scale(0.015625)"/>
       <path id="Calibri-28" d="M 1547 4306 
Q 1250 3678 1104 3017 
Q 959 2356 959 1688 
Q 959 1016 1107 356 
Q 1256 -303 1541 -938 
Q 1556 -975 1557 -1001 
Q 1559 -1028 1537 -1045 
Q 1516 -1063 1470 -1070 
Q 1425 -1078 1347 -1078 
Q 1291 -1078 1250 -1075 
Q 1209 -1072 1179 -1062 
Q 1150 -1053 1131 -1040 
Q 1113 -1028 1103 -1013 
Q 934 -694 806 -367 
Q 678 -41 590 296 
Q 503 634 459 979 
Q 416 1325 416 1678 
Q 416 2031 464 2375 
Q 513 2719 602 3058 
Q 691 3397 819 3725 
Q 947 4053 1106 4375 
Q 1109 4388 1123 4397 
Q 1138 4406 1163 4415 
Q 1188 4425 1231 4429 
Q 1275 4434 1344 4434 
Q 1416 4434 1459 4425 
Q 1503 4416 1528 4400 
Q 1553 4384 1556 4359 
Q 1559 4334 1547 4306 
z
" transform="scale(0.015625)"/>
       <path id="Calibri-29" d="M 1522 1678 
Q 1522 1325 1478 979 
Q 1434 634 1346 296 
Q 1259 -41 1132 -367 
Q 1006 -694 838 -1013 
Q 828 -1028 809 -1040 
Q 791 -1053 761 -1062 
Q 731 -1072 690 -1075 
Q 650 -1078 594 -1078 
Q 513 -1078 467 -1070 
Q 422 -1063 401 -1045 
Q 381 -1028 382 -1001 
Q 384 -975 400 -938 
Q 688 -306 834 355 
Q 981 1016 981 1688 
Q 981 2356 834 3017 
Q 688 3678 394 4306 
Q 381 4334 384 4359 
Q 388 4384 413 4400 
Q 438 4416 481 4425 
Q 525 4434 597 4434 
Q 663 4434 706 4429 
Q 750 4425 776 4415 
Q 803 4406 815 4397 
Q 828 4388 834 4375 
Q 1156 3734 1339 3057 
Q 1522 2381 1522 1678 
z
" transform="scale(0.015625)"/>
      </defs>
      <use xlink:href="#DejaVuSans-Oblique-3c1" transform="translate(0 0.71875)"/>
      <use xlink:href="#Calibri-28" transform="translate(63.476562 0.71875)"/>
      <use xlink:href="#DejaVuSans-Oblique-3c9" transform="translate(93.798828 0.71875)"/>
      <use xlink:href="#Calibri-29" transform="translate(177.539062 0.71875)"/>
     </g>
    </g>
   </g>
   <g id="line2d_29">
    <path d="M 129.775152 485.191726 
L 155.317105 484.358547 
L 176.416979 483.455768 
L 194.185294 482.483241 
L 209.73257 481.41398 
L 223.058806 480.280428 
L 234.719263 479.073027 
L 245.2692 477.757219 
L 254.708618 476.351279 
L 263.037516 474.885804 
L 270.255894 473.405198 
L 276.919012 471.827331 
L 283.02687 470.166711 
L 288.579469 468.444876 
L 294.132067 466.482825 
L 299.129406 464.47402 
L 303.571484 462.461225 
L 308.013563 460.198636 
L 311.900382 457.981343 
L 315.787201 455.507575 
L 319.67402 452.737724 
L 323.005579 450.092377 
L 326.337138 447.159915 
L 329.668697 443.899314 
L 332.444997 440.896992 
L 335.221296 437.601191 
L 337.997595 433.974823 
L 340.773894 429.975257 
L 343.550193 425.553428 
L 346.326493 420.652815 
L 349.102792 415.208293 
L 351.323831 410.411031 
L 353.544871 405.174383 
L 355.76591 399.4498 
L 357.98695 393.183265 
L 360.207989 386.314927 
L 362.429028 378.778877 
L 364.650068 370.503147 
L 366.871107 361.410081 
L 369.092146 351.417284 
L 371.313186 340.439429 
L 373.534225 328.391304 
L 375.755265 315.192611 
L 377.976304 300.775141 
L 380.197343 285.093043 
L 382.973643 263.70268 
L 385.749942 240.43442 
L 389.081501 210.496774 
L 396.299879 144.292017 
L 398.520918 126.273182 
L 400.186698 114.444594 
L 401.852478 104.500423 
L 402.962997 99.099692 
L 404.073517 94.793115 
L 405.184037 91.658303 
L 405.739296 90.549312 
L 406.294556 89.753379 
L 406.849816 89.274291 
L 407.405076 89.11434 
L 407.960336 89.274291 
L 408.515596 89.753379 
L 409.070856 90.549312 
L 409.626115 91.658303 
L 410.736635 94.793115 
L 411.847155 99.099692 
L 412.957674 104.500423 
L 414.068194 110.901592 
L 415.733974 122.145014 
L 417.399753 135.011069 
L 419.620793 153.999886 
L 423.507612 189.812362 
L 428.50495 235.578616 
L 431.281249 259.192647 
L 434.057549 280.972775 
L 436.833848 300.775141 
L 439.054887 315.192611 
L 441.275927 328.391304 
L 443.496966 340.439429 
L 445.718006 351.417284 
L 447.939045 361.410081 
L 450.160084 370.503147 
L 452.381124 378.778877 
L 454.602163 386.314927 
L 456.823202 393.183265 
L 459.044242 399.4498 
L 461.265281 405.174383 
L 464.04158 411.649757 
L 466.81788 417.455934 
L 469.594179 422.674476 
L 472.370478 427.376269 
L 475.146777 431.622852 
L 477.923077 435.467632 
L 480.699376 438.956987 
L 483.475675 442.13123 
L 486.807234 445.57346 
L 490.138793 448.664447 
L 493.470352 451.448621 
L 496.801912 453.963893 
L 500.68873 456.60155 
L 504.575549 458.960941 
L 508.462368 461.078859 
L 512.904447 463.243293 
L 517.346526 465.171697 
L 522.343865 467.099193 
L 527.896463 468.984814 
L 533.449061 470.642156 
L 539.55692 472.243001 
L 546.220038 473.766417 
L 553.438416 475.198135 
L 561.767314 476.617463 
L 570.651471 477.907387 
L 580.646149 479.13592 
L 591.751346 480.280428 
L 604.522322 481.37117 
L 618.959078 482.379585 
L 635.616874 483.318352 
L 655.050968 484.187177 
L 678.371882 484.996588 
L 685.035 485.191726 
L 685.035 485.191726 
" clip-path="url(#p7dc365c9cb)" style="fill: none; stroke-dasharray: 14.8,6.4; stroke-dashoffset: 0; stroke: #ff0000; stroke-width: 4"/>
   </g>
   <g id="line2d_30">
    <path d="M 129.775152 476.45742 
L 133.661971 476.086961 
L 136.43827 475.584142 
L 153.651325 472.028335 
L 159.203924 471.095682 
L 161.424963 470.455212 
L 166.977562 468.688846 
L 173.08542 467.158967 
L 177.527499 466.450861 
L 179.193278 465.909093 
L 181.414318 464.885464 
L 184.190617 463.550729 
L 186.411656 462.7094 
L 196.961594 459.221355 
L 199.737893 457.981577 
L 202.514192 456.76631 
L 204.179972 456.21609 
L 206.956271 455.391391 
L 208.066791 454.771123 
L 209.17731 453.874485 
L 210.84309 452.08096 
L 213.619389 448.924952 
L 215.285169 447.445545 
L 216.950948 446.241854 
L 218.061468 445.66554 
L 219.171988 445.370162 
L 221.393027 445.065546 
L 222.503547 444.676048 
L 224.724586 443.598354 
L 226.390366 442.625861 
L 230.277184 439.793749 
L 231.387704 438.60616 
L 234.164003 434.921826 
L 235.274523 433.948831 
L 236.385043 433.231102 
L 239.716602 431.393375 
L 240.827122 430.272306 
L 244.713941 425.450952 
L 245.82446 424.595237 
L 248.0455 423.387638 
L 250.266539 421.780648 
L 252.487578 420.634372 
L 253.598098 420.258602 
L 259.705956 418.976871 
L 260.816476 418.380714 
L 261.926996 417.278461 
L 264.148035 414.724689 
L 267.479594 411.666145 
L 269.145374 409.50531 
L 270.255894 407.52022 
L 272.476933 402.837572 
L 273.032193 401.96024 
L 273.587453 401.333864 
L 274.142712 400.955552 
L 274.697972 400.828428 
L 275.253232 400.967892 
L 275.808492 401.376022 
L 276.919012 402.820122 
L 277.474272 403.564893 
L 278.029531 404.112246 
L 278.584791 404.437231 
L 279.695311 404.64996 
L 280.805831 404.551477 
L 281.36109 404.267978 
L 281.91635 403.698497 
L 283.02687 401.843997 
L 284.13739 400.137923 
L 284.69265 399.648485 
L 285.247909 399.391289 
L 285.803169 399.347612 
L 286.358429 399.518951 
L 287.468949 400.153029 
L 288.024209 400.321721 
L 289.134728 400.370292 
L 289.689988 400.539662 
L 290.800508 401.369993 
L 291.355768 401.782185 
L 291.911028 402.028125 
L 294.132067 402.444833 
L 295.242587 403.281978 
L 296.353106 404.793928 
L 296.908366 405.60797 
L 297.463626 406.17951 
L 298.018886 406.422536 
L 299.684665 406.464749 
L 300.239925 406.945436 
L 301.350445 408.217152 
L 301.905705 408.653942 
L 302.460965 408.792011 
L 303.016225 408.549284 
L 303.571484 408.095652 
L 304.126744 407.814647 
L 304.682004 408.052928 
L 305.237264 408.978417 
L 305.792524 410.573792 
L 306.903043 414.386449 
L 307.458303 415.722683 
L 308.013563 416.495433 
L 308.568823 416.752532 
L 309.124083 416.618165 
L 309.679343 416.147657 
L 311.345122 413.679912 
L 311.900382 413.678361 
L 312.455642 414.127765 
L 314.121422 416.644549 
L 315.787201 417.466877 
L 316.342461 417.541335 
L 317.452981 417.338703 
L 319.11876 417.988731 
L 319.67402 417.956953 
L 320.22928 417.547676 
L 320.78454 416.611852 
L 321.895059 414.423601 
L 322.450319 413.980781 
L 323.005579 413.928384 
L 323.560839 413.743915 
L 325.226618 412.271354 
L 326.337138 412.343943 
L 326.892398 412.419922 
L 327.447658 413.014738 
L 329.113437 417.040743 
L 329.668697 416.860542 
L 331.334477 413.964562 
L 331.889737 413.760566 
L 332.444997 414.705107 
L 333.555516 419.472338 
L 334.110776 421.6868 
L 334.666036 423.169848 
L 335.221296 423.643306 
L 335.776556 423.044097 
L 336.887075 420.487036 
L 337.997595 417.688384 
L 339.663375 413.622864 
L 340.218634 412.804831 
L 340.773894 412.778208 
L 341.329154 413.40101 
L 341.884414 414.781101 
L 342.994934 419.89722 
L 344.660713 424.918298 
L 345.771233 429.816909 
L 346.326493 430.760345 
L 346.881753 429.779684 
L 347.992272 426.309688 
L 348.547532 426.135482 
L 349.102792 426.479934 
L 349.658052 425.78322 
L 350.213312 424.335379 
L 350.768571 422.496427 
L 351.879091 418.219838 
L 352.434351 418.273051 
L 352.989611 420.663108 
L 353.544871 423.966435 
L 354.100131 425.241932 
L 354.65539 424.26864 
L 355.21065 423.545642 
L 356.32117 421.037202 
L 356.87643 422.716751 
L 357.98695 430.332487 
L 358.542209 432.135896 
L 359.097469 432.527458 
L 359.652729 431.878868 
L 360.207989 428.972774 
L 361.318509 421.870278 
L 361.873768 420.997791 
L 362.429028 423.971833 
L 363.539548 432.797631 
L 364.094808 434.29393 
L 364.650068 434.509884 
L 365.205328 434.590347 
L 365.760587 435.148893 
L 366.315847 436.269922 
L 367.426367 433.826218 
L 367.981627 434.553592 
L 368.536887 433.93194 
L 369.092146 434.092976 
L 369.647406 433.888782 
L 370.202666 435.489644 
L 370.757926 438.646067 
L 371.313186 439.655435 
L 372.423706 435.590442 
L 372.978965 437.640952 
L 373.534225 438.061639 
L 374.089485 435.230925 
L 374.644745 436.369499 
L 375.200005 435.57309 
L 375.755265 433.68077 
L 376.310524 434.073521 
L 376.865784 432.706483 
L 377.421044 431.984466 
L 377.976304 429.426791 
L 378.531564 432.848078 
L 379.086824 439.336949 
L 379.642084 442.016768 
L 380.197343 438.839979 
L 380.752603 440.141907 
L 381.307863 442.270517 
L 381.863123 437.548387 
L 382.418383 437.097709 
L 382.973643 438.052168 
L 383.528903 443.214783 
L 384.084162 438.354175 
L 384.639422 431.054236 
L 385.194682 435.389355 
L 385.749942 437.110193 
L 386.305202 438.36946 
L 386.860462 441.727924 
L 387.970981 427.596613 
L 388.526241 417.852656 
L 389.081501 419.098855 
L 389.636761 422.288782 
L 390.192021 426.202948 
L 390.747281 424.33587 
L 391.30254 426.324493 
L 391.8578 425.873418 
L 392.41306 415.401694 
L 392.96832 426.271832 
L 393.52358 429.857476 
L 394.634099 411.703255 
L 395.189359 414.32665 
L 395.744619 424.720246 
L 396.299879 417.800458 
L 396.855139 435.625523 
L 397.410399 422.155129 
L 397.965659 434.689328 
L 398.520918 425.870139 
L 399.631438 416.29955 
L 400.186698 398.175054 
L 400.741958 394.909183 
L 401.297218 400.222707 
L 401.852478 380.23231 
L 402.407737 378.246209 
L 402.962997 341.091275 
L 403.518257 361.845947 
L 404.073517 344.55719 
L 404.628777 336.781823 
L 405.184037 297.987534 
L 405.739296 329.643928 
L 406.849816 223.517159 
L 407.405076 257.502917 
L 407.960336 263.016766 
L 409.626115 316.692536 
L 410.181375 335.697368 
L 410.736635 320.042713 
L 411.291895 343.953748 
L 411.847155 346.748465 
L 412.402415 389.595806 
L 412.957674 387.065139 
L 413.512934 387.391596 
L 414.068194 405.233501 
L 414.623454 405.391817 
L 415.178714 416.574141 
L 415.733974 412.872372 
L 416.844493 409.588229 
L 417.399753 412.50607 
L 417.955013 420.656232 
L 418.510273 394.630023 
L 419.065533 409.796588 
L 419.620793 412.926119 
L 420.176052 418.877488 
L 420.731312 419.641338 
L 421.286572 423.184794 
L 421.841832 428.506938 
L 422.397092 431.643241 
L 422.952352 430.701722 
L 423.507612 431.90853 
L 424.062871 438.36515 
L 424.618131 435.949649 
L 425.173391 432.12809 
L 425.728651 431.915128 
L 426.283911 427.736698 
L 426.839171 425.26975 
L 427.394431 431.471572 
L 427.94969 431.033177 
L 428.50495 434.613943 
L 429.06021 432.132202 
L 429.61547 431.260429 
L 430.17073 434.553711 
L 430.72599 435.538232 
L 431.281249 432.923768 
L 431.836509 432.019713 
L 432.391769 433.22867 
L 432.947029 436.595058 
L 433.502289 442.360581 
L 434.057549 443.649483 
L 434.612809 445.315645 
L 435.168068 445.011463 
L 435.723328 441.180775 
L 436.278588 442.571335 
L 436.833848 444.538155 
L 437.389108 443.86058 
L 437.944368 440.732118 
L 439.054887 436.948338 
L 440.165407 438.86116 
L 440.720667 435.541639 
L 441.275927 433.079219 
L 441.831187 434.886909 
L 442.386446 435.312772 
L 442.941706 431.581251 
L 443.496966 431.473116 
L 444.052226 433.34489 
L 445.162746 430.059405 
L 445.718006 431.786876 
L 446.273265 432.8375 
L 446.828525 433.601311 
L 447.383785 437.228042 
L 447.939045 438.80368 
L 448.494305 438.947464 
L 449.049565 438.954628 
L 449.604824 439.633653 
L 450.160084 440.06775 
L 450.715344 439.847008 
L 451.270604 438.321803 
L 451.825864 435.790315 
L 452.936384 432.299717 
L 453.491643 429.980175 
L 454.602163 428.368922 
L 455.157423 426.113511 
L 455.712683 424.538312 
L 456.267943 425.461916 
L 456.823202 426.62784 
L 457.378462 426.95861 
L 457.933722 426.223535 
L 459.044242 422.420657 
L 459.599502 422.265386 
L 460.710021 426.109195 
L 461.265281 426.647905 
L 461.820541 426.927687 
L 462.375801 426.562363 
L 462.931061 425.609305 
L 463.486321 425.873333 
L 464.59684 430.826719 
L 465.1521 431.939059 
L 465.70736 431.646714 
L 466.26262 430.831302 
L 466.81788 429.524022 
L 467.37314 427.554315 
L 467.928399 425.102775 
L 468.483659 423.559976 
L 469.038919 423.31819 
L 469.594179 424.77954 
L 470.149439 426.903363 
L 470.704699 427.871614 
L 471.259959 427.58255 
L 471.815218 427.470783 
L 472.370478 427.624236 
L 473.480998 426.508172 
L 474.036258 426.306784 
L 475.702037 424.993073 
L 476.257297 424.633099 
L 477.367817 422.696595 
L 477.923077 422.235536 
L 478.478337 422.303443 
L 479.588856 422.737768 
L 480.144116 422.337234 
L 481.254636 420.856419 
L 481.809896 420.55186 
L 482.365155 420.682197 
L 482.920415 421.051887 
L 483.475675 421.155613 
L 484.030935 420.999641 
L 484.586195 420.634677 
L 485.696715 419.667437 
L 486.807234 419.164444 
L 487.362494 418.853227 
L 489.028274 418.244211 
L 490.138793 417.108144 
L 490.694053 416.943703 
L 491.249313 417.212746 
L 491.804573 417.33661 
L 492.359833 416.805781 
L 492.915093 415.6239 
L 494.025612 412.657955 
L 494.580872 411.610772 
L 495.136132 410.952136 
L 495.691392 410.618745 
L 496.801912 410.653791 
L 497.912431 410.761696 
L 498.467691 410.998071 
L 499.578211 411.77179 
L 500.133471 411.771616 
L 500.68873 411.585324 
L 501.24399 411.572662 
L 501.79925 411.761262 
L 502.35451 411.813934 
L 502.90977 411.312002 
L 503.46503 410.153692 
L 504.575549 407.471115 
L 505.130809 406.842398 
L 505.686069 406.671452 
L 506.796589 406.90059 
L 507.907108 407.272535 
L 508.462368 407.256898 
L 510.128148 406.584597 
L 511.793927 406.586106 
L 512.349187 406.320493 
L 512.904447 405.837133 
L 514.014967 404.579728 
L 514.570227 404.266203 
L 515.125487 404.379542 
L 515.680746 404.681168 
L 516.236006 404.832353 
L 516.791266 404.683007 
L 517.346526 404.312418 
L 518.457046 403.157155 
L 519.012305 402.508869 
L 519.567565 402.214135 
L 520.122825 402.494382 
L 521.788605 404.544809 
L 522.343865 404.739568 
L 522.899124 404.451846 
L 524.009644 402.902844 
L 525.120164 401.528631 
L 526.230683 400.566351 
L 527.341203 399.868377 
L 528.451723 399.465874 
L 529.562243 399.395735 
L 534.004321 399.701651 
L 536.225361 400.825988 
L 536.780621 400.823771 
L 537.89114 400.472215 
L 539.55692 399.734258 
L 540.11218 399.612804 
L 540.66744 399.620196 
L 541.777959 399.945292 
L 542.888479 400.597393 
L 543.443739 401.09787 
L 544.554258 402.508099 
L 546.775298 405.647747 
L 547.885818 407.710631 
L 550.106857 412.272404 
L 551.217377 414.088365 
L 552.327896 415.395828 
L 553.438416 416.310216 
L 554.548936 416.882077 
L 557.325235 417.57258 
L 557.880495 417.753523 
L 558.435755 417.775843 
L 558.991014 417.607453 
L 560.101534 416.914893 
L 561.767314 415.860599 
L 562.877833 415.477363 
L 563.433093 415.509687 
L 563.988353 415.751796 
L 564.543613 416.212765 
L 565.654133 417.666578 
L 567.319912 420.196583 
L 568.430432 421.331254 
L 569.540952 421.954367 
L 572.317251 423.013581 
L 573.427771 423.732356 
L 574.53829 424.734124 
L 575.64881 426.09755 
L 578.425109 429.93481 
L 579.535629 430.882068 
L 580.646149 431.389259 
L 581.756668 431.479452 
L 584.532968 431.098634 
L 585.088227 431.325297 
L 585.643487 431.73317 
L 586.198747 432.324586 
L 587.309267 433.978778 
L 589.530306 438.121932 
L 591.196086 441.112968 
L 592.306605 442.782865 
L 593.417125 444.168 
L 594.527645 445.299467 
L 596.193424 446.604451 
L 597.859204 447.599325 
L 599.524983 448.213802 
L 601.190763 448.802652 
L 602.301283 449.429596 
L 603.411802 450.346436 
L 606.188102 452.98445 
L 607.298621 453.607265 
L 608.409141 453.971669 
L 613.40648 455.146598 
L 614.516999 455.707675 
L 616.738039 457.207801 
L 618.403818 458.221184 
L 619.514338 458.683769 
L 621.735377 459.248627 
L 623.401157 459.770372 
L 630.619535 462.402344 
L 632.285314 463.013638 
L 633.951094 463.854611 
L 637.282653 465.682056 
L 640.058952 466.788233 
L 642.835252 467.677585 
L 646.166811 468.682443 
L 649.49837 469.974065 
L 653.385189 471.535832 
L 657.272008 472.74844 
L 660.048307 473.388414 
L 662.824606 473.787487 
L 669.487724 474.637109 
L 672.264023 475.227522 
L 678.371882 476.629753 
L 682.813961 477.411591 
L 685.035 477.678914 
L 685.035 477.678914 
" clip-path="url(#p7dc365c9cb)" style="fill: none; stroke: #0000ff; stroke-width: 1.5; stroke-linecap: square"/>
   </g>
   <g id="patch_3">
    <path d="M 129.775152 489.1525 
L 129.775152 36.72 
" style="fill: none; stroke: #000000; stroke-width: 0.8; stroke-linejoin: miter; stroke-linecap: square"/>
   </g>
   <g id="patch_4">
    <path d="M 685.035 489.1525 
L 685.035 36.72 
" style="fill: none; stroke: #000000; stroke-width: 0.8; stroke-linejoin: miter; stroke-linecap: square"/>
   </g>
   <g id="patch_5">
    <path d="M 129.775152 489.1525 
L 685.035 489.1525 
" style="fill: none; stroke: #000000; stroke-width: 0.8; stroke-linejoin: miter; stroke-linecap: square"/>
   </g>
   <g id="patch_6">
    <path d="M 129.775152 36.72 
L 685.035 36.72 
" style="fill: none; stroke: #000000; stroke-width: 0.8; stroke-linejoin: miter; stroke-linecap: square"/>
   </g>
   <g id="legend_1">
    <g id="patch_7">
     <path d="M 517.415 100.260156 
L 676.535 100.260156 
L 676.535 45.22 
L 517.415 45.22 
z
" style="fill: #ffffff; opacity: 0.8; stroke: #000000; stroke-linejoin: miter"/>
    </g>
    <g id="line2d_31">
     <path d="M 524.215 58.987344 
L 541.215 58.987344 
L 558.215 58.987344 
" style="fill: none; stroke-dasharray: 14.8,6.4; stroke-dashoffset: 0; stroke: #ff0000; stroke-width: 4"/>
    </g>
    <g id="text_17">
     <!-- $\rho_0$ -->
     <g transform="translate(571.815 64.937344) scale(0.17 -0.17)">
      <use xlink:href="#DejaVuSans-Oblique-3c1"/>
      <use xlink:href="#DejaVuSans-30" transform="translate(63.476562 -16.40625) scale(0.7)"/>
     </g>
    </g>
    <g id="line2d_32">
     <path d="M 524.215 83.974688 
L 541.215 83.974688 
L 558.215 83.974688 
" style="fill: none; stroke: #0000ff; stroke-width: 1.5; stroke-linecap: square"/>
    </g>
    <g id="text_18">
     <!-- $\it{k_bT= 0.100}$ -->
     <g transform="translate(571.815 89.924688) scale(0.17 -0.17)">
      <defs>
       <path id="DejaVuSans-Oblique-6b" d="M 1172 4863 
L 1747 4863 
L 1197 2028 
L 3169 3500 
L 3916 3500 
L 1716 1825 
L 3322 0 
L 2625 0 
L 1131 1709 
L 800 0 
L 225 0 
L 1172 4863 
z
" transform="scale(0.015625)"/>
       <path id="DejaVuSans-Oblique-62" d="M 3169 2138 
Q 3169 2591 2961 2847 
Q 2753 3103 2388 3103 
Q 2122 3103 1889 2973 
Q 1656 2844 1484 2597 
Q 1303 2338 1198 1995 
Q 1094 1653 1094 1313 
Q 1094 881 1298 636 
Q 1503 391 1863 391 
Q 2134 391 2365 517 
Q 2597 644 2772 891 
Q 2950 1147 3059 1487 
Q 3169 1828 3169 2138 
z
M 1381 2969 
Q 1594 3256 1914 3420 
Q 2234 3584 2584 3584 
Q 3122 3584 3439 3221 
Q 3756 2859 3756 2241 
Q 3756 1734 3570 1259 
Q 3384 784 3041 416 
Q 2816 172 2522 40 
Q 2228 -91 1906 -91 
Q 1566 -91 1316 65 
Q 1066 222 909 531 
L 806 0 
L 231 0 
L 1178 4863 
L 1753 4863 
L 1381 2969 
z
" transform="scale(0.015625)"/>
       <path id="DejaVuSans-Oblique-54" d="M 378 4666 
L 4325 4666 
L 4225 4134 
L 2559 4134 
L 1759 0 
L 1125 0 
L 1925 4134 
L 275 4134 
L 378 4666 
z
" transform="scale(0.015625)"/>
       <path id="DejaVuSans-3d" d="M 678 2906 
L 4684 2906 
L 4684 2381 
L 678 2381 
L 678 2906 
z
M 678 1631 
L 4684 1631 
L 4684 1100 
L 678 1100 
L 678 1631 
z
" transform="scale(0.015625)"/>
      </defs>
      <use xlink:href="#DejaVuSans-Oblique-6b" transform="translate(0 0.015625)"/>
      <use xlink:href="#DejaVuSans-Oblique-62" transform="translate(57.910156 -16.390625) scale(0.7)"/>
      <use xlink:href="#DejaVuSans-Oblique-54" transform="translate(105.078125 0.015625)"/>
      <use xlink:href="#DejaVuSans-3d" transform="translate(185.644531 0.015625)"/>
      <use xlink:href="#DejaVuSans-30" transform="translate(288.916016 0.015625)"/>
      <use xlink:href="#DejaVuSans-2e" transform="translate(352.539062 0.015625)"/>
      <use xlink:href="#DejaVuSans-31" transform="translate(384.326172 0.015625)"/>
      <use xlink:href="#DejaVuSans-30" transform="translate(447.949219 0.015625)"/>
      <use xlink:href="#DejaVuSans-30" transform="translate(511.572266 0.015625)"/>
     </g>
    </g>
   </g>
  </g>
 </g>
 <defs>
  <clipPath id="p7dc365c9cb">
   <rect x="129.775152" y="36.72" width="555.259848" height="452.4325"/>
  </clipPath>
 </defs>
</svg>
