<?xml version="1.0" encoding="utf-8" standalone="no"?>
<!DOCTYPE svg PUBLIC "-//W3C//DTD SVG 1.1//EN"
  "http://www.w3.org/Graphics/SVG/1.1/DTD/svg11.dtd">
<svg xmlns:xlink="http://www.w3.org/1999/xlink" width="720pt" height="576pt" viewBox="0 0 720 576" xmlns="http://www.w3.org/2000/svg" version="1.1">
 <metadata>
  <rdf:RDF xmlns:dc="http://purl.org/dc/elements/1.1/" xmlns:cc="http://creativecommons.org/ns#" xmlns:rdf="http://www.w3.org/1999/02/22-rdf-syntax-ns#">
   <cc:Work>
    <dc:type rdf:resource="http://purl.org/dc/dcmitype/StillImage"/>
    <dc:date>2023-04-15T17:12:54.741852</dc:date>
    <dc:format>image/svg+xml</dc:format>
    <dc:creator>
     <cc:Agent>
      <dc:title>Matplotlib v3.7.1, https://matplotlib.org/</dc:title>
     </cc:Agent>
    </dc:creator>
   </cc:Work>
  </rdf:RDF>
 </metadata>
 <defs>
  <style type="text/css">*{stroke-linejoin: round; stroke-linecap: butt}</style>
 </defs>
 <g id="figure_1">
  <g id="patch_1">
   <path d="M 0 576 
L 720 576 
L 720 0 
L 0 0 
z
" style="fill: #ffffff"/>
  </g>
  <g id="axes_1">
   <g id="patch_2">
    <path d="M 129.775152 489.1525 
L 685.035 489.1525 
L 685.035 36.72 
L 129.775152 36.72 
z
" style="fill: #ffffff"/>
   </g>
   <g id="matplotlib.axis_1">
    <g id="xtick_1">
     <g id="line2d_1">
      <path d="M 129.775152 489.1525 
L 129.775152 36.72 
" clip-path="url(#p09b46bb313)" style="fill: none; stroke: #b0b0b0; stroke-width: 0.8; stroke-linecap: square"/>
     </g>
     <g id="line2d_2">
      <defs>
       <path id="m509dd7141a" d="M 0 0 
L 0 3.5 
" style="stroke: #000000; stroke-width: 0.8"/>
      </defs>
      <g>
       <use xlink:href="#m509dd7141a" x="129.775152" y="489.1525" style="stroke: #000000; stroke-width: 0.8"/>
      </g>
     </g>
     <g id="text_1">
      <!-- −3 -->
      <g transform="translate(111.347418 515.148594) scale(0.25 -0.25)">
       <defs>
        <path id="DejaVuSans-2212" d="M 678 2272 
L 4684 2272 
L 4684 1741 
L 678 1741 
L 678 2272 
z
" transform="scale(0.015625)"/>
        <path id="DejaVuSans-33" d="M 2597 2516 
Q 3050 2419 3304 2112 
Q 3559 1806 3559 1356 
Q 3559 666 3084 287 
Q 2609 -91 1734 -91 
Q 1441 -91 1130 -33 
Q 819 25 488 141 
L 488 750 
Q 750 597 1062 519 
Q 1375 441 1716 441 
Q 2309 441 2620 675 
Q 2931 909 2931 1356 
Q 2931 1769 2642 2001 
Q 2353 2234 1838 2234 
L 1294 2234 
L 1294 2753 
L 1863 2753 
Q 2328 2753 2575 2939 
Q 2822 3125 2822 3475 
Q 2822 3834 2567 4026 
Q 2313 4219 1838 4219 
Q 1578 4219 1281 4162 
Q 984 4106 628 3988 
L 628 4550 
Q 988 4650 1302 4700 
Q 1616 4750 1894 4750 
Q 2613 4750 3031 4423 
Q 3450 4097 3450 3541 
Q 3450 3153 3228 2886 
Q 3006 2619 2597 2516 
z
" transform="scale(0.015625)"/>
       </defs>
       <use xlink:href="#DejaVuSans-2212"/>
       <use xlink:href="#DejaVuSans-33" x="83.789062"/>
      </g>
     </g>
    </g>
    <g id="xtick_2">
     <g id="line2d_3">
      <path d="M 222.31846 489.1525 
L 222.31846 36.72 
" clip-path="url(#p09b46bb313)" style="fill: none; stroke: #b0b0b0; stroke-width: 0.8; stroke-linecap: square"/>
     </g>
     <g id="line2d_4">
      <g>
       <use xlink:href="#m509dd7141a" x="222.31846" y="489.1525" style="stroke: #000000; stroke-width: 0.8"/>
      </g>
     </g>
     <g id="text_2">
      <!-- −2 -->
      <g transform="translate(203.890726 515.148594) scale(0.25 -0.25)">
       <defs>
        <path id="DejaVuSans-32" d="M 1228 531 
L 3431 531 
L 3431 0 
L 469 0 
L 469 531 
Q 828 903 1448 1529 
Q 2069 2156 2228 2338 
Q 2531 2678 2651 2914 
Q 2772 3150 2772 3378 
Q 2772 3750 2511 3984 
Q 2250 4219 1831 4219 
Q 1534 4219 1204 4116 
Q 875 4013 500 3803 
L 500 4441 
Q 881 4594 1212 4672 
Q 1544 4750 1819 4750 
Q 2544 4750 2975 4387 
Q 3406 4025 3406 3419 
Q 3406 3131 3298 2873 
Q 3191 2616 2906 2266 
Q 2828 2175 2409 1742 
Q 1991 1309 1228 531 
z
" transform="scale(0.015625)"/>
       </defs>
       <use xlink:href="#DejaVuSans-2212"/>
       <use xlink:href="#DejaVuSans-32" x="83.789062"/>
      </g>
     </g>
    </g>
    <g id="xtick_3">
     <g id="line2d_5">
      <path d="M 314.861768 489.1525 
L 314.861768 36.72 
" clip-path="url(#p09b46bb313)" style="fill: none; stroke: #b0b0b0; stroke-width: 0.8; stroke-linecap: square"/>
     </g>
     <g id="line2d_6">
      <g>
       <use xlink:href="#m509dd7141a" x="314.861768" y="489.1525" style="stroke: #000000; stroke-width: 0.8"/>
      </g>
     </g>
     <g id="text_3">
      <!-- −1 -->
      <g transform="translate(296.434034 515.148594) scale(0.25 -0.25)">
       <defs>
        <path id="DejaVuSans-31" d="M 794 531 
L 1825 531 
L 1825 4091 
L 703 3866 
L 703 4441 
L 1819 4666 
L 2450 4666 
L 2450 531 
L 3481 531 
L 3481 0 
L 794 0 
L 794 531 
z
" transform="scale(0.015625)"/>
       </defs>
       <use xlink:href="#DejaVuSans-2212"/>
       <use xlink:href="#DejaVuSans-31" x="83.789062"/>
      </g>
     </g>
    </g>
    <g id="xtick_4">
     <g id="line2d_7">
      <path d="M 407.405076 489.1525 
L 407.405076 36.72 
" clip-path="url(#p09b46bb313)" style="fill: none; stroke: #b0b0b0; stroke-width: 0.8; stroke-linecap: square"/>
     </g>
     <g id="line2d_8">
      <g>
       <use xlink:href="#m509dd7141a" x="407.405076" y="489.1525" style="stroke: #000000; stroke-width: 0.8"/>
      </g>
     </g>
     <g id="text_4">
      <!-- 0 -->
      <g transform="translate(399.451951 515.148594) scale(0.25 -0.25)">
       <defs>
        <path id="DejaVuSans-30" d="M 2034 4250 
Q 1547 4250 1301 3770 
Q 1056 3291 1056 2328 
Q 1056 1369 1301 889 
Q 1547 409 2034 409 
Q 2525 409 2770 889 
Q 3016 1369 3016 2328 
Q 3016 3291 2770 3770 
Q 2525 4250 2034 4250 
z
M 2034 4750 
Q 2819 4750 3233 4129 
Q 3647 3509 3647 2328 
Q 3647 1150 3233 529 
Q 2819 -91 2034 -91 
Q 1250 -91 836 529 
Q 422 1150 422 2328 
Q 422 3509 836 4129 
Q 1250 4750 2034 4750 
z
" transform="scale(0.015625)"/>
       </defs>
       <use xlink:href="#DejaVuSans-30"/>
      </g>
     </g>
    </g>
    <g id="xtick_5">
     <g id="line2d_9">
      <path d="M 499.948384 489.1525 
L 499.948384 36.72 
" clip-path="url(#p09b46bb313)" style="fill: none; stroke: #b0b0b0; stroke-width: 0.8; stroke-linecap: square"/>
     </g>
     <g id="line2d_10">
      <g>
       <use xlink:href="#m509dd7141a" x="499.948384" y="489.1525" style="stroke: #000000; stroke-width: 0.8"/>
      </g>
     </g>
     <g id="text_5">
      <!-- 1 -->
      <g transform="translate(491.995259 515.148594) scale(0.25 -0.25)">
       <use xlink:href="#DejaVuSans-31"/>
      </g>
     </g>
    </g>
    <g id="xtick_6">
     <g id="line2d_11">
      <path d="M 592.491692 489.1525 
L 592.491692 36.72 
" clip-path="url(#p09b46bb313)" style="fill: none; stroke: #b0b0b0; stroke-width: 0.8; stroke-linecap: square"/>
     </g>
     <g id="line2d_12">
      <g>
       <use xlink:href="#m509dd7141a" x="592.491692" y="489.1525" style="stroke: #000000; stroke-width: 0.8"/>
      </g>
     </g>
     <g id="text_6">
      <!-- 2 -->
      <g transform="translate(584.538567 515.148594) scale(0.25 -0.25)">
       <use xlink:href="#DejaVuSans-32"/>
      </g>
     </g>
    </g>
    <g id="xtick_7">
     <g id="line2d_13">
      <path d="M 685.035 489.1525 
L 685.035 36.72 
" clip-path="url(#p09b46bb313)" style="fill: none; stroke: #b0b0b0; stroke-width: 0.8; stroke-linecap: square"/>
     </g>
     <g id="line2d_14">
      <g>
       <use xlink:href="#m509dd7141a" x="685.035" y="489.1525" style="stroke: #000000; stroke-width: 0.8"/>
      </g>
     </g>
     <g id="text_7">
      <!-- 3 -->
      <g transform="translate(677.081875 515.148594) scale(0.25 -0.25)">
       <use xlink:href="#DejaVuSans-33"/>
      </g>
     </g>
    </g>
    <g id="text_8">
     <!-- $\omega$ [-] -->
     <g transform="translate(382.530076 541.351719) scale(0.25 -0.25)">
      <defs>
       <path id="DejaVuSans-Oblique-3c9" d="M 1369 -91 
Q 72 -91 434 1766 
Q 575 2500 1256 3500 
L 1875 3500 
Q 1231 2500 1088 1750 
Q 819 397 1519 397 
Q 2166 397 2478 2078 
L 3009 2078 
Q 2669 388 3316 397 
Q 4013 403 4275 1750 
Q 4419 2500 4169 3500 
L 4788 3500 
Q 5075 2500 4934 1766 
Q 4578 -94 3278 -91 
Q 2428 -88 2503 844 
Q 2194 -91 1369 -91 
z
" transform="scale(0.015625)"/>
       <path id="Calibri-20" transform="scale(0.015625)"/>
       <path id="Calibri-5b" d="M 1684 -813 
Q 1684 -916 1661 -958 
Q 1638 -1000 1594 -1000 
L 794 -1000 
Q 756 -1000 722 -989 
Q 688 -978 659 -953 
Q 631 -928 614 -886 
Q 597 -844 597 -781 
L 597 4153 
Q 597 4213 614 4255 
Q 631 4297 659 4323 
Q 688 4350 722 4361 
Q 756 4372 794 4372 
L 1594 4372 
Q 1613 4372 1630 4362 
Q 1647 4353 1659 4328 
Q 1672 4303 1678 4267 
Q 1684 4231 1684 4178 
Q 1684 4078 1661 4034 
Q 1638 3991 1594 3991 
L 1084 3991 
L 1084 -622 
L 1594 -622 
Q 1613 -622 1630 -631 
Q 1647 -641 1659 -664 
Q 1672 -688 1678 -723 
Q 1684 -759 1684 -813 
z
" transform="scale(0.015625)"/>
       <path id="Calibri-2d" d="M 1744 1578 
Q 1744 1456 1716 1409 
Q 1688 1363 1634 1363 
L 328 1363 
Q 272 1363 244 1411 
Q 216 1459 216 1578 
Q 216 1697 244 1744 
Q 272 1791 328 1791 
L 1634 1791 
Q 1659 1791 1679 1781 
Q 1700 1772 1714 1745 
Q 1728 1719 1736 1678 
Q 1744 1638 1744 1578 
z
" transform="scale(0.015625)"/>
       <path id="Calibri-5d" d="M 1369 -781 
Q 1369 -844 1351 -886 
Q 1334 -928 1306 -953 
Q 1278 -978 1242 -989 
Q 1206 -1000 1169 -1000 
L 372 -1000 
Q 328 -1000 304 -958 
Q 281 -916 281 -813 
Q 281 -759 286 -723 
Q 291 -688 303 -664 
Q 316 -641 333 -631 
Q 350 -622 372 -622 
L 881 -622 
L 881 3991 
L 372 3991 
Q 328 3991 304 4034 
Q 281 4078 281 4178 
Q 281 4231 286 4267 
Q 291 4303 303 4328 
Q 316 4353 333 4362 
Q 350 4372 372 4372 
L 1169 4372 
Q 1206 4372 1242 4361 
Q 1278 4350 1306 4323 
Q 1334 4297 1351 4255 
Q 1369 4213 1369 4153 
L 1369 -781 
z
" transform="scale(0.015625)"/>
      </defs>
      <use xlink:href="#DejaVuSans-Oblique-3c9" transform="translate(0 0.6875)"/>
      <use xlink:href="#Calibri-20" transform="translate(83.740234 0.6875)"/>
      <use xlink:href="#Calibri-5b" transform="translate(106.347656 0.6875)"/>
      <use xlink:href="#Calibri-2d" transform="translate(137.011719 0.6875)"/>
      <use xlink:href="#Calibri-5d" transform="translate(167.626953 0.6875)"/>
     </g>
    </g>
   </g>
   <g id="matplotlib.axis_2">
    <g id="ytick_1">
     <g id="line2d_15">
      <path d="M 129.775152 489.1525 
L 685.035 489.1525 
" clip-path="url(#p09b46bb313)" style="fill: none; stroke: #b0b0b0; stroke-width: 0.8; stroke-linecap: square"/>
     </g>
     <g id="line2d_16">
      <defs>
       <path id="m631b9d7233" d="M 0 0 
L -3.5 0 
" style="stroke: #000000; stroke-width: 0.8"/>
      </defs>
      <g>
       <use xlink:href="#m631b9d7233" x="129.775152" y="489.1525" style="stroke: #000000; stroke-width: 0.8"/>
      </g>
     </g>
     <g id="text_9">
      <!-- 0.0 -->
      <g transform="translate(83.017339 498.650547) scale(0.25 -0.25)">
       <defs>
        <path id="DejaVuSans-2e" d="M 684 794 
L 1344 794 
L 1344 0 
L 684 0 
L 684 794 
z
" transform="scale(0.015625)"/>
       </defs>
       <use xlink:href="#DejaVuSans-30"/>
       <use xlink:href="#DejaVuSans-2e" x="63.623047"/>
       <use xlink:href="#DejaVuSans-30" x="95.410156"/>
      </g>
     </g>
    </g>
    <g id="ytick_2">
     <g id="line2d_17">
      <path d="M 129.775152 413.747083 
L 685.035 413.747083 
" clip-path="url(#p09b46bb313)" style="fill: none; stroke: #b0b0b0; stroke-width: 0.8; stroke-linecap: square"/>
     </g>
     <g id="line2d_18">
      <g>
       <use xlink:href="#m631b9d7233" x="129.775152" y="413.747083" style="stroke: #000000; stroke-width: 0.8"/>
      </g>
     </g>
     <g id="text_10">
      <!-- 0.2 -->
      <g transform="translate(83.017339 423.24513) scale(0.25 -0.25)">
       <use xlink:href="#DejaVuSans-30"/>
       <use xlink:href="#DejaVuSans-2e" x="63.623047"/>
       <use xlink:href="#DejaVuSans-32" x="95.410156"/>
      </g>
     </g>
    </g>
    <g id="ytick_3">
     <g id="line2d_19">
      <path d="M 129.775152 338.341667 
L 685.035 338.341667 
" clip-path="url(#p09b46bb313)" style="fill: none; stroke: #b0b0b0; stroke-width: 0.8; stroke-linecap: square"/>
     </g>
     <g id="line2d_20">
      <g>
       <use xlink:href="#m631b9d7233" x="129.775152" y="338.341667" style="stroke: #000000; stroke-width: 0.8"/>
      </g>
     </g>
     <g id="text_11">
      <!-- 0.4 -->
      <g transform="translate(83.017339 347.839714) scale(0.25 -0.25)">
       <defs>
        <path id="DejaVuSans-34" d="M 2419 4116 
L 825 1625 
L 2419 1625 
L 2419 4116 
z
M 2253 4666 
L 3047 4666 
L 3047 1625 
L 3713 1625 
L 3713 1100 
L 3047 1100 
L 3047 0 
L 2419 0 
L 2419 1100 
L 313 1100 
L 313 1709 
L 2253 4666 
z
" transform="scale(0.015625)"/>
       </defs>
       <use xlink:href="#DejaVuSans-30"/>
       <use xlink:href="#DejaVuSans-2e" x="63.623047"/>
       <use xlink:href="#DejaVuSans-34" x="95.410156"/>
      </g>
     </g>
    </g>
    <g id="ytick_4">
     <g id="line2d_21">
      <path d="M 129.775152 262.93625 
L 685.035 262.93625 
" clip-path="url(#p09b46bb313)" style="fill: none; stroke: #b0b0b0; stroke-width: 0.8; stroke-linecap: square"/>
     </g>
     <g id="line2d_22">
      <g>
       <use xlink:href="#m631b9d7233" x="129.775152" y="262.93625" style="stroke: #000000; stroke-width: 0.8"/>
      </g>
     </g>
     <g id="text_12">
      <!-- 0.6 -->
      <g transform="translate(83.017339 272.434297) scale(0.25 -0.25)">
       <defs>
        <path id="DejaVuSans-36" d="M 2113 2584 
Q 1688 2584 1439 2293 
Q 1191 2003 1191 1497 
Q 1191 994 1439 701 
Q 1688 409 2113 409 
Q 2538 409 2786 701 
Q 3034 994 3034 1497 
Q 3034 2003 2786 2293 
Q 2538 2584 2113 2584 
z
M 3366 4563 
L 3366 3988 
Q 3128 4100 2886 4159 
Q 2644 4219 2406 4219 
Q 1781 4219 1451 3797 
Q 1122 3375 1075 2522 
Q 1259 2794 1537 2939 
Q 1816 3084 2150 3084 
Q 2853 3084 3261 2657 
Q 3669 2231 3669 1497 
Q 3669 778 3244 343 
Q 2819 -91 2113 -91 
Q 1303 -91 875 529 
Q 447 1150 447 2328 
Q 447 3434 972 4092 
Q 1497 4750 2381 4750 
Q 2619 4750 2861 4703 
Q 3103 4656 3366 4563 
z
" transform="scale(0.015625)"/>
       </defs>
       <use xlink:href="#DejaVuSans-30"/>
       <use xlink:href="#DejaVuSans-2e" x="63.623047"/>
       <use xlink:href="#DejaVuSans-36" x="95.410156"/>
      </g>
     </g>
    </g>
    <g id="ytick_5">
     <g id="line2d_23">
      <path d="M 129.775152 187.530833 
L 685.035 187.530833 
" clip-path="url(#p09b46bb313)" style="fill: none; stroke: #b0b0b0; stroke-width: 0.8; stroke-linecap: square"/>
     </g>
     <g id="line2d_24">
      <g>
       <use xlink:href="#m631b9d7233" x="129.775152" y="187.530833" style="stroke: #000000; stroke-width: 0.8"/>
      </g>
     </g>
     <g id="text_13">
      <!-- 0.8 -->
      <g transform="translate(83.017339 197.02888) scale(0.25 -0.25)">
       <defs>
        <path id="DejaVuSans-38" d="M 2034 2216 
Q 1584 2216 1326 1975 
Q 1069 1734 1069 1313 
Q 1069 891 1326 650 
Q 1584 409 2034 409 
Q 2484 409 2743 651 
Q 3003 894 3003 1313 
Q 3003 1734 2745 1975 
Q 2488 2216 2034 2216 
z
M 1403 2484 
Q 997 2584 770 2862 
Q 544 3141 544 3541 
Q 544 4100 942 4425 
Q 1341 4750 2034 4750 
Q 2731 4750 3128 4425 
Q 3525 4100 3525 3541 
Q 3525 3141 3298 2862 
Q 3072 2584 2669 2484 
Q 3125 2378 3379 2068 
Q 3634 1759 3634 1313 
Q 3634 634 3220 271 
Q 2806 -91 2034 -91 
Q 1263 -91 848 271 
Q 434 634 434 1313 
Q 434 1759 690 2068 
Q 947 2378 1403 2484 
z
M 1172 3481 
Q 1172 3119 1398 2916 
Q 1625 2713 2034 2713 
Q 2441 2713 2670 2916 
Q 2900 3119 2900 3481 
Q 2900 3844 2670 4047 
Q 2441 4250 2034 4250 
Q 1625 4250 1398 4047 
Q 1172 3844 1172 3481 
z
" transform="scale(0.015625)"/>
       </defs>
       <use xlink:href="#DejaVuSans-30"/>
       <use xlink:href="#DejaVuSans-2e" x="63.623047"/>
       <use xlink:href="#DejaVuSans-38" x="95.410156"/>
      </g>
     </g>
    </g>
    <g id="ytick_6">
     <g id="line2d_25">
      <path d="M 129.775152 112.125417 
L 685.035 112.125417 
" clip-path="url(#p09b46bb313)" style="fill: none; stroke: #b0b0b0; stroke-width: 0.8; stroke-linecap: square"/>
     </g>
     <g id="line2d_26">
      <g>
       <use xlink:href="#m631b9d7233" x="129.775152" y="112.125417" style="stroke: #000000; stroke-width: 0.8"/>
      </g>
     </g>
     <g id="text_14">
      <!-- 1.0 -->
      <g transform="translate(83.017339 121.623464) scale(0.25 -0.25)">
       <use xlink:href="#DejaVuSans-31"/>
       <use xlink:href="#DejaVuSans-2e" x="63.623047"/>
       <use xlink:href="#DejaVuSans-30" x="95.410156"/>
      </g>
     </g>
    </g>
    <g id="ytick_7">
     <g id="line2d_27">
      <path d="M 129.775152 36.72 
L 685.035 36.72 
" clip-path="url(#p09b46bb313)" style="fill: none; stroke: #b0b0b0; stroke-width: 0.8; stroke-linecap: square"/>
     </g>
     <g id="line2d_28">
      <g>
       <use xlink:href="#m631b9d7233" x="129.775152" y="36.72" style="stroke: #000000; stroke-width: 0.8"/>
      </g>
     </g>
     <g id="text_15">
      <!-- 1.2 -->
      <g transform="translate(83.017339 46.218047) scale(0.25 -0.25)">
       <use xlink:href="#DejaVuSans-31"/>
       <use xlink:href="#DejaVuSans-2e" x="63.623047"/>
       <use xlink:href="#DejaVuSans-32" x="95.410156"/>
      </g>
     </g>
    </g>
    <g id="text_16">
     <!-- $\rho$($\omega$) -->
     <g transform="translate(27.017339 257.68625) scale(0.25 -0.25)">
      <defs>
       <path id="DejaVuSans-Oblique-3c1" d="M 1203 2875 
Q 1453 3194 1981 3475 
Q 2188 3584 2756 3584 
Q 3394 3584 3694 3078 
Q 3994 2572 3834 1747 
Q 3672 922 3175 415 
Q 2678 -91 2041 -91 
Q 1656 -91 1409 63 
Q 1163 213 1044 525 
L 681 -1331 
L 103 -1331 
L 697 1716 
Q 838 2438 1203 2875 
z
M 3238 1747 
Q 3359 2381 3169 2744 
Q 2978 3103 2522 3103 
Q 2066 3103 1734 2744 
Q 1403 2381 1281 1747 
Q 1156 1113 1347 750 
Q 1538 391 1994 391 
Q 2450 391 2781 750 
Q 3113 1113 3238 1747 
z
" transform="scale(0.015625)"/>
       <path id="Calibri-28" d="M 1547 4306 
Q 1250 3678 1104 3017 
Q 959 2356 959 1688 
Q 959 1016 1107 356 
Q 1256 -303 1541 -938 
Q 1556 -975 1557 -1001 
Q 1559 -1028 1537 -1045 
Q 1516 -1063 1470 -1070 
Q 1425 -1078 1347 -1078 
Q 1291 -1078 1250 -1075 
Q 1209 -1072 1179 -1062 
Q 1150 -1053 1131 -1040 
Q 1113 -1028 1103 -1013 
Q 934 -694 806 -367 
Q 678 -41 590 296 
Q 503 634 459 979 
Q 416 1325 416 1678 
Q 416 2031 464 2375 
Q 513 2719 602 3058 
Q 691 3397 819 3725 
Q 947 4053 1106 4375 
Q 1109 4388 1123 4397 
Q 1138 4406 1163 4415 
Q 1188 4425 1231 4429 
Q 1275 4434 1344 4434 
Q 1416 4434 1459 4425 
Q 1503 4416 1528 4400 
Q 1553 4384 1556 4359 
Q 1559 4334 1547 4306 
z
" transform="scale(0.015625)"/>
       <path id="Calibri-29" d="M 1522 1678 
Q 1522 1325 1478 979 
Q 1434 634 1346 296 
Q 1259 -41 1132 -367 
Q 1006 -694 838 -1013 
Q 828 -1028 809 -1040 
Q 791 -1053 761 -1062 
Q 731 -1072 690 -1075 
Q 650 -1078 594 -1078 
Q 513 -1078 467 -1070 
Q 422 -1063 401 -1045 
Q 381 -1028 382 -1001 
Q 384 -975 400 -938 
Q 688 -306 834 355 
Q 981 1016 981 1688 
Q 981 2356 834 3017 
Q 688 3678 394 4306 
Q 381 4334 384 4359 
Q 388 4384 413 4400 
Q 438 4416 481 4425 
Q 525 4434 597 4434 
Q 663 4434 706 4429 
Q 750 4425 776 4415 
Q 803 4406 815 4397 
Q 828 4388 834 4375 
Q 1156 3734 1339 3057 
Q 1522 2381 1522 1678 
z
" transform="scale(0.015625)"/>
      </defs>
      <use xlink:href="#DejaVuSans-Oblique-3c1" transform="translate(0 0.71875)"/>
      <use xlink:href="#Calibri-28" transform="translate(63.476562 0.71875)"/>
      <use xlink:href="#DejaVuSans-Oblique-3c9" transform="translate(93.798828 0.71875)"/>
      <use xlink:href="#Calibri-29" transform="translate(177.539062 0.71875)"/>
     </g>
    </g>
   </g>
   <g id="line2d_29">
    <path d="M 129.775152 479.739837 
L 147.908082 478.469309 
L 164.015097 477.1184 
L 178.330253 475.697773 
L 191.429729 474.173563 
L 203.073585 472.5994 
L 213.754595 470.936635 
L 223.559151 469.190752 
L 232.564757 467.368585 
L 241.129228 465.408285 
L 249.000069 463.379547 
L 256.236755 461.2928 
L 263.142835 459.074951 
L 269.733412 456.723869 
L 276.022901 454.238389 
L 281.807723 451.717876 
L 287.337837 449.073697 
L 292.624457 446.308027 
L 297.868175 443.311063 
L 302.872336 440.192059 
L 307.647883 436.957855 
L 312.369994 433.491178 
L 317.025243 429.79146 
L 321.601189 425.862194 
L 326.086411 421.711648 
L 330.470536 417.35349 
L 334.869981 412.668991 
L 339.372245 407.544588 
L 343.925729 402.020701 
L 348.685137 395.889679 
L 353.742234 389.003434 
L 359.455611 380.833536 
L 367.4283 368.99782 
L 376.467291 355.660201 
L 381.02408 349.33614 
L 384.674728 344.636644 
L 387.820193 340.938251 
L 390.617831 337.980597 
L 393.164586 335.601084 
L 395.532391 333.686293 
L 397.743615 332.178821 
L 399.836933 331.017394 
L 401.82538 330.164713 
L 403.742071 329.581679 
L 405.610546 329.244132 
L 407.449243 329.137301 
L 409.275768 329.253391 
L 411.119185 329.594131 
L 412.994443 330.168255 
L 414.920971 330.991824 
L 416.933599 332.097232 
L 419.053717 333.520885 
L 421.304436 335.306909 
L 423.705272 337.501329 
L 426.323194 340.203023 
L 429.209993 343.511329 
L 432.450398 347.572246 
L 436.272173 352.734671 
L 441.082951 359.631433 
L 449.513825 372.188385 
L 457.824303 384.409296 
L 463.442412 392.2817 
L 468.511251 399.008124 
L 473.235651 404.915589 
L 477.835709 410.315587 
L 482.366716 415.291866 
L 486.775757 419.81274 
L 491.298705 424.131648 
L 495.772776 428.100537 
L 500.324385 431.845641 
L 504.941367 435.361977 
L 509.787759 438.768394 
L 514.688992 441.939535 
L 519.824857 444.991484 
L 525.00274 447.812153 
L 530.419109 450.512748 
L 536.084948 453.090533 
L 542.011746 455.543964 
L 548.211524 457.872601 
L 554.696854 460.077004 
L 561.747963 462.23627 
L 569.13662 464.265657 
L 577.17275 466.236551 
L 585.608181 468.075706 
L 594.786996 469.846985 
L 604.780127 471.54269 
L 615.66657 473.156374 
L 627.534378 474.682912 
L 640.481789 476.118526 
L 654.618509 477.460777 
L 670.522465 478.742285 
L 685.035 479.739837 
L 685.035 479.739837 
" clip-path="url(#p09b46bb313)" style="fill: none; stroke-dasharray: 14.8,6.4; stroke-dashoffset: 0; stroke: #ff0000; stroke-width: 4"/>
   </g>
   <g id="line2d_30">
    <path d="M 129.775152 472.558426 
L 162.747228 468.28125 
L 168.607993 467.419638 
L 175.134295 466.429526 
L 183.041924 465.051983 
L 189.928349 463.674876 
L 197.695825 462.322054 
L 209.687896 460.455251 
L 216.088098 459.198183 
L 223.240473 457.929075 
L 245.393187 454.338757 
L 248.174905 453.884547 
L 252.794652 452.753302 
L 258.058344 451.247261 
L 259.602226 450.996143 
L 263.142835 450.596194 
L 266.598628 449.861836 
L 268.536071 449.608001 
L 269.971639 449.184444 
L 272.331348 448.43166 
L 277.381073 447.416899 
L 279.392051 447.012708 
L 281.590013 446.525662 
L 285.240287 446.001307 
L 286.293603 445.919422 
L 288.57904 445.937936 
L 291.626201 445.302602 
L 293.416861 445.265492 
L 294.399678 445.069879 
L 296.147442 444.616791 
L 297.106715 444.638813 
L 298.435819 444.709375 
L 300.861809 444.561323 
L 302.145663 444.4398 
L 304.131963 444.21682 
L 305.022393 444.107112 
L 305.905146 443.761261 
L 307.474965 442.85832 
L 310.709751 440.836345 
L 311.874937 440.612107 
L 313.189395 440.371395 
L 314.163356 439.908522 
L 315.286925 439.35822 
L 315.922876 439.273642 
L 317.337758 439.234359 
L 318.268835 438.870389 
L 322.488192 437.004389 
L 323.656616 436.860438 
L 324.378703 436.441264 
L 326.227125 435.160125 
L 326.787548 435.031438 
L 327.482639 435.10107 
L 329.261958 435.440443 
L 329.80143 435.259595 
L 332.183335 434.008534 
L 334.744249 433.324413 
L 335.370737 433.089957 
L 336.238757 432.49659 
L 337.217978 431.803307 
L 338.183726 431.52018 
L 341.46039 430.660297 
L 342.028971 430.76293 
L 343.705469 431.228017 
L 344.145228 431.183057 
L 344.581951 430.931599 
L 345.123618 430.349103 
L 346.93059 428.087321 
L 348.583353 427.01857 
L 350.09177 426.456196 
L 350.97819 426.331975 
L 351.561506 425.937996 
L 352.329892 425.361856 
L 353.275524 424.885514 
L 356.459193 422.06718 
L 356.898453 421.708605 
L 357.679598 420.906763 
L 358.533377 420.3466 
L 359.455611 419.054291 
L 360.033406 417.823448 
L 360.523113 416.956935 
L 360.84677 416.774504 
L 361.725349 416.700167 
L 362.040706 416.296268 
L 363.050656 414.71306 
L 363.356863 414.65418 
L 364.48643 414.760917 
L 364.856478 414.358582 
L 365.587031 413.13727 
L 366.729914 410.654172 
L 367.220053 410.241888 
L 367.497476 409.9834 
L 367.841563 409.266699 
L 368.45346 407.875721 
L 368.789304 407.680983 
L 369.188497 407.500234 
L 369.714343 406.937416 
L 370.361487 405.859918 
L 370.744427 404.595327 
L 371.186191 403.239803 
L 371.436233 403.016032 
L 371.622631 403.129612 
L 372.540232 404.132202 
L 372.90065 404.043952 
L 373.138856 403.73265 
L 373.551766 402.675139 
L 374.760883 398.471368 
L 375.265765 396.904724 
L 375.542873 396.604423 
L 375.817592 396.629067 
L 376.03566 396.621765 
L 376.198223 396.396245 
L 376.467291 395.455286 
L 377.103628 392.926927 
L 377.468763 392.495751 
L 377.726876 392.460889 
L 378.48794 392.893783 
L 378.935179 392.676027 
L 379.278243 392.755037 
L 379.472421 392.4692 
L 379.809011 391.35696 
L 380.141546 390.466877 
L 380.656023 389.807456 
L 381.1153 388.150971 
L 382.359754 383.320098 
L 383.086394 381.570503 
L 383.71002 379.663671 
L 383.91432 379.7306 
L 384.317653 379.910307 
L 384.47704 379.758504 
L 384.674728 379.136828 
L 385.257622 376.148892 
L 385.675556 374.665015 
L 386.048649 373.271803 
L 386.305995 372.640632 
L 386.451656 372.68378 
L 386.775725 372.867295 
L 386.953594 372.772211 
L 387.094783 372.380647 
L 387.615618 370.482116 
L 387.854082 370.371434 
L 388.022653 369.78052 
L 388.421316 368.268104 
L 388.617562 368.23695 
L 388.843952 368.211737 
L 389.035829 367.761199 
L 389.382467 366.993949 
L 389.537859 367.103498 
L 389.691912 367.156637 
L 389.814197 366.814377 
L 390.877466 361.987299 
L 390.963116 362.120888 
L 391.133086 362.450741 
L 391.161243 362.437184 
L 391.273384 362.048764 
L 392.1695 357.073984 
L 392.457003 356.458528 
L 392.560199 356.536935 
L 392.764459 357.16436 
L 392.940879 357.616274 
L 392.965908 357.602309 
L 393.065591 357.270958 
L 393.720686 353.314452 
L 394.025343 351.440916 
L 394.094679 351.489333 
L 394.323216 352.347218 
L 394.680742 353.15772 
L 394.746683 353.170675 
L 394.768587 353.130785 
L 394.899217 352.453301 
L 395.135209 351.559826 
L 395.26205 351.289422 
L 395.573444 349.645874 
L 396.074791 346.364341 
L 396.307835 345.75014 
L 396.6298 344.63106 
L 396.796452 344.491184 
L 396.924287 344.301428 
L 396.960527 344.35466 
L 397.157622 344.818928 
L 397.228366 344.768932 
L 397.385761 344.490017 
L 398.040156 342.72861 
L 398.232776 342.559558 
L 398.311861 342.395875 
L 398.560377 341.053278 
L 398.920476 339.174123 
L 398.97905 339.183885 
L 399.008186 339.234206 
L 399.094989 339.374138 
L 399.138054 339.309693 
L 399.294057 338.390341 
L 399.583753 337.255206 
L 399.823814 336.756827 
L 400.094589 336.248333 
L 400.195179 336.025421 
L 400.392225 335.602989 
L 400.416474 335.626968 
L 400.524561 336.047333 
L 400.895509 338.347778 
L 400.97395 337.842538 
L 401.278374 335.694119 
L 401.435487 335.403586 
L 401.486957 335.359652 
L 401.527814 335.437858 
L 401.776853 336.726882 
L 401.815709 336.964445 
L 401.863901 336.487986 
L 402.126198 333.967927 
L 402.305917 333.346685 
L 402.323548 333.360781 
L 402.393468 333.657455 
L 402.453859 333.98844 
L 402.505042 333.749349 
L 402.647207 333.051529 
L 402.68823 333.125779 
L 402.769217 333.831182 
L 402.880269 335.718651 
L 402.934793 334.964007 
L 403.168468 332.253796 
L 403.417647 331.694137 
L 403.486111 331.795974 
L 403.553399 332.051586 
L 403.599812 331.848428 
L 403.823621 331.079332 
L 404.204931 330.656904 
L 404.292391 330.742236 
L 404.33522 330.832094 
L 404.387929 330.702739 
L 404.429444 330.653488 
L 404.475466 330.775998 
L 404.525767 331.060022 
L 404.580101 330.740366 
L 404.680999 330.443053 
L 404.72313 330.512148 
L 404.791905 331.239533 
L 404.814436 331.451053 
L 404.867721 330.794938 
L 405.029333 330.15581 
L 405.082225 330.264905 
L 405.141792 330.742818 
L 405.192179 330.294675 
L 405.35099 329.908448 
L 405.427782 330.008978 
L 405.488472 330.611001 
L 405.553722 333.795212 
L 405.613651 330.973302 
L 405.767933 329.73839 
L 406.025888 329.48785 
L 406.409169 329.370428 
L 406.416044 329.385273 
L 406.494939 329.873818 
L 406.533504 329.392455 
L 406.678423 329.248464 
L 407.382166 329.138363 
L 407.598577 329.236715 
L 407.613899 330.435804 
L 407.615715 330.654332 
L 407.691772 329.167305 
L 407.718247 329.168488 
L 408.454095 329.33808 
L 409.165742 329.696042 
L 409.315053 329.972586 
L 409.39267 330.694434 
L 409.462722 330.151257 
L 409.480618 330.145106 
L 409.516877 330.26403 
L 409.598893 331.299954 
L 409.652735 330.426238 
L 409.780819 330.063327 
L 409.793194 330.065297 
L 410.040974 330.236705 
L 410.380708 330.698781 
L 410.512375 331.278127 
L 410.627467 332.910865 
L 410.683761 331.924682 
L 410.799318 331.211054 
L 410.828838 331.233338 
L 410.925038 331.557197 
L 411.236793 333.1133 
L 411.256753 332.977628 
L 411.448136 331.609656 
L 411.469197 331.614909 
L 411.590633 331.807441 
L 411.753186 331.93361 
L 411.898646 332.103719 
L 412.162945 332.762946 
L 412.638439 334.942768 
L 412.729865 334.643117 
L 412.757603 334.62421 
L 412.804154 334.722338 
L 412.965478 335.139264 
L 413.004132 335.003101 
L 413.141549 334.352114 
L 413.191439 334.428975 
L 413.312954 335.101865 
L 413.426583 335.735054 
L 413.489481 335.681281 
L 413.553036 335.883967 
L 413.649615 336.268289 
L 413.703925 336.123615 
L 413.903378 335.406087 
L 413.959895 335.460199 
L 414.097547 335.94061 
L 414.44226 338.265859 
L 414.614973 339.395697 
L 414.652531 339.286388 
L 414.933999 337.87415 
L 414.999479 338.058398 
L 415.212865 339.00878 
L 415.28077 338.982694 
L 415.363036 339.154843 
L 415.4601 339.361183 
L 415.50206 339.304751 
L 415.787436 338.689665 
L 415.831102 338.74611 
L 415.978303 339.293919 
L 416.388718 340.912607 
L 416.498291 341.123956 
L 417.303657 344.411043 
L 417.389746 344.283464 
L 417.546597 344.172959 
L 417.564176 344.188015 
L 417.670293 344.465688 
L 418.833901 349.708473 
L 419.053717 350.695628 
L 419.094136 350.645437 
L 419.216234 349.899419 
L 419.401778 349.10002 
L 419.422573 349.113066 
L 419.548102 349.478221 
L 419.760238 349.966008 
L 419.997871 349.910903 
L 420.129409 350.537182 
L 420.509612 352.510019 
L 420.948003 353.32049 
L 421.20848 354.065692 
L 421.232407 354.046679 
L 421.376841 353.94408 
L 421.40106 353.969774 
L 421.522784 354.342329 
L 421.794316 356.079316 
L 422.327283 359.397203 
L 422.561698 359.870221 
L 422.853213 359.876479 
L 423.09589 360.122917 
L 423.232354 360.22934 
L 423.397679 360.847957 
L 424.018782 364.664988 
L 424.634141 368.447229 
L 424.723891 368.194279 
L 425.056992 367.06049 
L 425.179701 367.147266 
L 425.710806 367.980223 
L 425.742537 367.957484 
L 425.870012 367.644574 
L 426.09523 366.988035 
L 426.127627 367.010177 
L 426.257779 367.468509 
L 426.687055 369.365196 
L 426.95607 369.602611 
L 427.297621 369.707958 
L 427.435907 369.890425 
L 427.610117 370.597249 
L 427.963094 371.930922 
L 428.249911 372.531755 
L 428.687657 373.684592 
L 428.909965 373.671747 
L 429.059459 373.762982 
L 429.247789 374.285407 
L 429.6679 376.321393 
L 430.174825 378.46467 
L 430.333112 378.668026 
L 430.372855 378.644026 
L 430.572608 378.210741 
L 430.855183 377.709921 
L 431.0182 377.725468 
L 431.223565 378.033282 
L 431.597733 379.165815 
L 433.154117 383.768616 
L 433.786072 384.920593 
L 434.107843 386.028507 
L 434.905719 389.080189 
L 435.241146 389.879883 
L 435.678427 390.760219 
L 436.222222 392.403056 
L 436.878388 394.112763 
L 437.393281 395.266815 
L 438.774492 397.617241 
L 439.711807 400.032646 
L 439.8801 399.945014 
L 440.562082 399.187504 
L 440.850451 399.568837 
L 441.317067 400.169884 
L 442.149364 400.921365 
L 442.451538 401.540929 
L 442.817618 402.983505 
L 443.875742 407.364855 
L 444.19293 407.876464 
L 444.835606 408.242312 
L 445.161142 408.240528 
L 445.754258 408.028133 
L 446.087784 408.466808 
L 446.491846 408.862176 
L 446.763563 409.122218 
L 447.037168 409.769238 
L 448.362996 413.593063 
L 449.586816 415.526315 
L 450.027427 415.874995 
L 450.472641 415.874554 
L 450.922505 415.949586 
L 451.30098 416.257904 
L 451.83638 417.074743 
L 452.300489 417.583219 
L 452.612586 417.620944 
L 453.084803 417.63133 
L 453.641961 418.013723 
L 454.287038 418.643654 
L 455.271569 420.076866 
L 456.107787 421.22867 
L 456.701816 421.610294 
L 458.616347 422.763702 
L 459.061735 423.061473 
L 460.237957 423.435685 
L 462.194848 425.197314 
L 463.442412 425.536731 
L 464.322711 426.099683 
L 465.317051 426.464096 
L 466.944251 428.191001 
L 467.774917 429.099607 
L 468.194586 429.296442 
L 469.686534 429.637946 
L 470.337098 430.157388 
L 470.994458 431.021922 
L 471.88163 432.140946 
L 472.329848 432.333572 
L 472.781181 432.204424 
L 473.46407 431.646694 
L 474.154092 431.15608 
L 474.851322 430.950022 
L 476.029594 430.835022 
L 477.22845 431.03322 
L 477.713836 431.259703 
L 478.202597 431.737901 
L 479.564279 433.262256 
L 480.444408 433.766467 
L 481.335272 434.361262 
L 482.237002 434.929369 
L 483.018663 435.131911 
L 485.008722 435.365513 
L 485.819334 435.541364 
L 486.364441 435.459766 
L 488.022604 434.96963 
L 488.864698 435.124437 
L 489.858265 435.288448 
L 491.589799 435.382726 
L 492.616604 435.696678 
L 493.357695 436.176206 
L 495.467219 437.916516 
L 496.233102 438.026141 
L 497.160959 438.130056 
L 497.784909 438.430592 
L 499.523227 439.499585 
L 500.163598 439.546935 
L 501.947666 439.441058 
L 502.76991 439.750684 
L 504.268012 440.361939 
L 507.508406 441.274911 
L 508.379012 441.865199 
L 509.43374 442.581498 
L 510.321091 442.913357 
L 511.576363 443.091456 
L 513.029717 443.291335 
L 516.752434 444.161215 
L 520.019725 444.628463 
L 525.41078 446.277386 
L 526.643414 446.635783 
L 527.680439 446.665944 
L 529.781624 446.615053 
L 531.488971 446.880596 
L 534.534346 447.454314 
L 536.308001 447.637034 
L 548.700093 449.752597 
L 550.671383 450.207865 
L 554.187549 451.169755 
L 556.751808 452.132226 
L 558.573397 452.543878 
L 562.820897 453.102094 
L 567.187743 453.803906 
L 572.819247 454.843116 
L 580.437972 455.967846 
L 584.684695 456.885133 
L 589.350482 457.873425 
L 594.786996 458.874014 
L 598.391 459.305037 
L 603.078342 459.86192 
L 608.925044 460.707457 
L 622.261193 463.350781 
L 629.833749 464.427885 
L 638.472181 465.752007 
L 642.508875 466.36432 
L 652.487012 468.068498 
L 658.502025 468.790884 
L 663.775112 469.489613 
L 676.047983 471.383082 
L 685.035 472.623678 
L 685.035 472.623678 
" clip-path="url(#p09b46bb313)" style="fill: none; stroke: #0000ff; stroke-width: 1.5; stroke-linecap: square"/>
   </g>
   <g id="patch_3">
    <path d="M 129.775152 489.1525 
L 129.775152 36.72 
" style="fill: none; stroke: #000000; stroke-width: 0.8; stroke-linejoin: miter; stroke-linecap: square"/>
   </g>
   <g id="patch_4">
    <path d="M 685.035 489.1525 
L 685.035 36.72 
" style="fill: none; stroke: #000000; stroke-width: 0.8; stroke-linejoin: miter; stroke-linecap: square"/>
   </g>
   <g id="patch_5">
    <path d="M 129.775152 489.1525 
L 685.035 489.1525 
" style="fill: none; stroke: #000000; stroke-width: 0.8; stroke-linejoin: miter; stroke-linecap: square"/>
   </g>
   <g id="patch_6">
    <path d="M 129.775152 36.72 
L 685.035 36.72 
" style="fill: none; stroke: #000000; stroke-width: 0.8; stroke-linejoin: miter; stroke-linecap: square"/>
   </g>
   <g id="legend_1">
    <g id="patch_7">
     <path d="M 548.355 100.260156 
L 676.535 100.260156 
L 676.535 45.22 
L 548.355 45.22 
z
" style="fill: #ffffff; opacity: 0.8; stroke: #000000; stroke-linejoin: miter"/>
    </g>
    <g id="line2d_31">
     <path d="M 555.155 58.987344 
L 572.155 58.987344 
L 589.155 58.987344 
" style="fill: none; stroke-dasharray: 14.8,6.4; stroke-dashoffset: 0; stroke: #ff0000; stroke-width: 4"/>
    </g>
    <g id="text_17">
     <!-- $\rho_0$ -->
     <g transform="translate(602.755 64.937344) scale(0.17 -0.17)">
      <use xlink:href="#DejaVuSans-Oblique-3c1"/>
      <use xlink:href="#DejaVuSans-30" transform="translate(63.476562 -16.40625) scale(0.7)"/>
     </g>
    </g>
    <g id="line2d_32">
     <path d="M 555.155 83.974688 
L 572.155 83.974688 
L 589.155 83.974688 
" style="fill: none; stroke: #0000ff; stroke-width: 1.5; stroke-linecap: square"/>
    </g>
    <g id="text_18">
     <!-- $\Gamma\it{=0.75}$ -->
     <g transform="translate(602.755 89.924688) scale(0.17 -0.17)">
      <defs>
       <path id="DejaVuSans-393" d="M 628 0 
L 628 4666 
L 3531 4666 
L 3531 4134 
L 1259 4134 
L 1259 0 
L 628 0 
z
" transform="scale(0.015625)"/>
       <path id="DejaVuSans-3d" d="M 678 2906 
L 4684 2906 
L 4684 2381 
L 678 2381 
L 678 2906 
z
M 678 1631 
L 4684 1631 
L 4684 1100 
L 678 1100 
L 678 1631 
z
" transform="scale(0.015625)"/>
       <path id="DejaVuSans-37" d="M 525 4666 
L 3525 4666 
L 3525 4397 
L 1831 0 
L 1172 0 
L 2766 4134 
L 525 4134 
L 525 4666 
z
" transform="scale(0.015625)"/>
       <path id="DejaVuSans-35" d="M 691 4666 
L 3169 4666 
L 3169 4134 
L 1269 4134 
L 1269 2991 
Q 1406 3038 1543 3061 
Q 1681 3084 1819 3084 
Q 2600 3084 3056 2656 
Q 3513 2228 3513 1497 
Q 3513 744 3044 326 
Q 2575 -91 1722 -91 
Q 1428 -91 1123 -41 
Q 819 9 494 109 
L 494 744 
Q 775 591 1075 516 
Q 1375 441 1709 441 
Q 2250 441 2565 725 
Q 2881 1009 2881 1497 
Q 2881 1984 2565 2268 
Q 2250 2553 1709 2553 
Q 1456 2553 1204 2497 
Q 953 2441 691 2322 
L 691 4666 
z
" transform="scale(0.015625)"/>
      </defs>
      <use xlink:href="#DejaVuSans-393" transform="translate(0 0.78125)"/>
      <use xlink:href="#DejaVuSans-3d" transform="translate(75.195312 0.78125)"/>
      <use xlink:href="#DejaVuSans-30" transform="translate(178.466797 0.78125)"/>
      <use xlink:href="#DejaVuSans-2e" transform="translate(242.089844 0.78125)"/>
      <use xlink:href="#DejaVuSans-37" transform="translate(266.126953 0.78125)"/>
      <use xlink:href="#DejaVuSans-35" transform="translate(329.75 0.78125)"/>
     </g>
    </g>
   </g>
  </g>
 </g>
 <defs>
  <clipPath id="p09b46bb313">
   <rect x="129.775152" y="36.72" width="555.259848" height="452.4325"/>
  </clipPath>
 </defs>
</svg>
