<?xml version="1.0" encoding="utf-8" standalone="no"?>
<!DOCTYPE svg PUBLIC "-//W3C//DTD SVG 1.1//EN"
  "http://www.w3.org/Graphics/SVG/1.1/DTD/svg11.dtd">
<svg xmlns:xlink="http://www.w3.org/1999/xlink" width="720pt" height="576pt" viewBox="0 0 720 576" xmlns="http://www.w3.org/2000/svg" version="1.1">
 <metadata>
  <rdf:RDF xmlns:dc="http://purl.org/dc/elements/1.1/" xmlns:cc="http://creativecommons.org/ns#" xmlns:rdf="http://www.w3.org/1999/02/22-rdf-syntax-ns#">
   <cc:Work>
    <dc:type rdf:resource="http://purl.org/dc/dcmitype/StillImage"/>
    <dc:date>2023-04-13T05:38:45.531225</dc:date>
    <dc:format>image/svg+xml</dc:format>
    <dc:creator>
     <cc:Agent>
      <dc:title>Matplotlib v3.7.1, https://matplotlib.org/</dc:title>
     </cc:Agent>
    </dc:creator>
   </cc:Work>
  </rdf:RDF>
 </metadata>
 <defs>
  <style type="text/css">*{stroke-linejoin: round; stroke-linecap: butt}</style>
 </defs>
 <g id="figure_1">
  <g id="patch_1">
   <path d="M 0 576 
L 720 576 
L 720 0 
L 0 0 
z
" style="fill: #ffffff"/>
  </g>
  <g id="axes_1">
   <g id="patch_2">
    <path d="M 129.775152 489.1525 
L 685.035 489.1525 
L 685.035 36.72 
L 129.775152 36.72 
z
" style="fill: #ffffff"/>
   </g>
   <g id="matplotlib.axis_1">
    <g id="xtick_1">
     <g id="line2d_1">
      <path d="M 129.775152 489.1525 
L 129.775152 36.72 
" clip-path="url(#p82a2e917b7)" style="fill: none; stroke: #b0b0b0; stroke-width: 0.8; stroke-linecap: square"/>
     </g>
     <g id="line2d_2">
      <defs>
       <path id="m21d71837d5" d="M 0 0 
L 0 3.5 
" style="stroke: #000000; stroke-width: 0.8"/>
      </defs>
      <g>
       <use xlink:href="#m21d71837d5" x="129.775152" y="489.1525" style="stroke: #000000; stroke-width: 0.8"/>
      </g>
     </g>
     <g id="text_1">
      <!-- −3 -->
      <g transform="translate(111.347418 515.148594) scale(0.25 -0.25)">
       <defs>
        <path id="DejaVuSans-2212" d="M 678 2272 
L 4684 2272 
L 4684 1741 
L 678 1741 
L 678 2272 
z
" transform="scale(0.015625)"/>
        <path id="DejaVuSans-33" d="M 2597 2516 
Q 3050 2419 3304 2112 
Q 3559 1806 3559 1356 
Q 3559 666 3084 287 
Q 2609 -91 1734 -91 
Q 1441 -91 1130 -33 
Q 819 25 488 141 
L 488 750 
Q 750 597 1062 519 
Q 1375 441 1716 441 
Q 2309 441 2620 675 
Q 2931 909 2931 1356 
Q 2931 1769 2642 2001 
Q 2353 2234 1838 2234 
L 1294 2234 
L 1294 2753 
L 1863 2753 
Q 2328 2753 2575 2939 
Q 2822 3125 2822 3475 
Q 2822 3834 2567 4026 
Q 2313 4219 1838 4219 
Q 1578 4219 1281 4162 
Q 984 4106 628 3988 
L 628 4550 
Q 988 4650 1302 4700 
Q 1616 4750 1894 4750 
Q 2613 4750 3031 4423 
Q 3450 4097 3450 3541 
Q 3450 3153 3228 2886 
Q 3006 2619 2597 2516 
z
" transform="scale(0.015625)"/>
       </defs>
       <use xlink:href="#DejaVuSans-2212"/>
       <use xlink:href="#DejaVuSans-33" x="83.789062"/>
      </g>
     </g>
    </g>
    <g id="xtick_2">
     <g id="line2d_3">
      <path d="M 222.31846 489.1525 
L 222.31846 36.72 
" clip-path="url(#p82a2e917b7)" style="fill: none; stroke: #b0b0b0; stroke-width: 0.8; stroke-linecap: square"/>
     </g>
     <g id="line2d_4">
      <g>
       <use xlink:href="#m21d71837d5" x="222.31846" y="489.1525" style="stroke: #000000; stroke-width: 0.8"/>
      </g>
     </g>
     <g id="text_2">
      <!-- −2 -->
      <g transform="translate(203.890726 515.148594) scale(0.25 -0.25)">
       <defs>
        <path id="DejaVuSans-32" d="M 1228 531 
L 3431 531 
L 3431 0 
L 469 0 
L 469 531 
Q 828 903 1448 1529 
Q 2069 2156 2228 2338 
Q 2531 2678 2651 2914 
Q 2772 3150 2772 3378 
Q 2772 3750 2511 3984 
Q 2250 4219 1831 4219 
Q 1534 4219 1204 4116 
Q 875 4013 500 3803 
L 500 4441 
Q 881 4594 1212 4672 
Q 1544 4750 1819 4750 
Q 2544 4750 2975 4387 
Q 3406 4025 3406 3419 
Q 3406 3131 3298 2873 
Q 3191 2616 2906 2266 
Q 2828 2175 2409 1742 
Q 1991 1309 1228 531 
z
" transform="scale(0.015625)"/>
       </defs>
       <use xlink:href="#DejaVuSans-2212"/>
       <use xlink:href="#DejaVuSans-32" x="83.789062"/>
      </g>
     </g>
    </g>
    <g id="xtick_3">
     <g id="line2d_5">
      <path d="M 314.861768 489.1525 
L 314.861768 36.72 
" clip-path="url(#p82a2e917b7)" style="fill: none; stroke: #b0b0b0; stroke-width: 0.8; stroke-linecap: square"/>
     </g>
     <g id="line2d_6">
      <g>
       <use xlink:href="#m21d71837d5" x="314.861768" y="489.1525" style="stroke: #000000; stroke-width: 0.8"/>
      </g>
     </g>
     <g id="text_3">
      <!-- −1 -->
      <g transform="translate(296.434034 515.148594) scale(0.25 -0.25)">
       <defs>
        <path id="DejaVuSans-31" d="M 794 531 
L 1825 531 
L 1825 4091 
L 703 3866 
L 703 4441 
L 1819 4666 
L 2450 4666 
L 2450 531 
L 3481 531 
L 3481 0 
L 794 0 
L 794 531 
z
" transform="scale(0.015625)"/>
       </defs>
       <use xlink:href="#DejaVuSans-2212"/>
       <use xlink:href="#DejaVuSans-31" x="83.789062"/>
      </g>
     </g>
    </g>
    <g id="xtick_4">
     <g id="line2d_7">
      <path d="M 407.405076 489.1525 
L 407.405076 36.72 
" clip-path="url(#p82a2e917b7)" style="fill: none; stroke: #b0b0b0; stroke-width: 0.8; stroke-linecap: square"/>
     </g>
     <g id="line2d_8">
      <g>
       <use xlink:href="#m21d71837d5" x="407.405076" y="489.1525" style="stroke: #000000; stroke-width: 0.8"/>
      </g>
     </g>
     <g id="text_4">
      <!-- 0 -->
      <g transform="translate(399.451951 515.148594) scale(0.25 -0.25)">
       <defs>
        <path id="DejaVuSans-30" d="M 2034 4250 
Q 1547 4250 1301 3770 
Q 1056 3291 1056 2328 
Q 1056 1369 1301 889 
Q 1547 409 2034 409 
Q 2525 409 2770 889 
Q 3016 1369 3016 2328 
Q 3016 3291 2770 3770 
Q 2525 4250 2034 4250 
z
M 2034 4750 
Q 2819 4750 3233 4129 
Q 3647 3509 3647 2328 
Q 3647 1150 3233 529 
Q 2819 -91 2034 -91 
Q 1250 -91 836 529 
Q 422 1150 422 2328 
Q 422 3509 836 4129 
Q 1250 4750 2034 4750 
z
" transform="scale(0.015625)"/>
       </defs>
       <use xlink:href="#DejaVuSans-30"/>
      </g>
     </g>
    </g>
    <g id="xtick_5">
     <g id="line2d_9">
      <path d="M 499.948384 489.1525 
L 499.948384 36.72 
" clip-path="url(#p82a2e917b7)" style="fill: none; stroke: #b0b0b0; stroke-width: 0.8; stroke-linecap: square"/>
     </g>
     <g id="line2d_10">
      <g>
       <use xlink:href="#m21d71837d5" x="499.948384" y="489.1525" style="stroke: #000000; stroke-width: 0.8"/>
      </g>
     </g>
     <g id="text_5">
      <!-- 1 -->
      <g transform="translate(491.995259 515.148594) scale(0.25 -0.25)">
       <use xlink:href="#DejaVuSans-31"/>
      </g>
     </g>
    </g>
    <g id="xtick_6">
     <g id="line2d_11">
      <path d="M 592.491692 489.1525 
L 592.491692 36.72 
" clip-path="url(#p82a2e917b7)" style="fill: none; stroke: #b0b0b0; stroke-width: 0.8; stroke-linecap: square"/>
     </g>
     <g id="line2d_12">
      <g>
       <use xlink:href="#m21d71837d5" x="592.491692" y="489.1525" style="stroke: #000000; stroke-width: 0.8"/>
      </g>
     </g>
     <g id="text_6">
      <!-- 2 -->
      <g transform="translate(584.538567 515.148594) scale(0.25 -0.25)">
       <use xlink:href="#DejaVuSans-32"/>
      </g>
     </g>
    </g>
    <g id="xtick_7">
     <g id="line2d_13">
      <path d="M 685.035 489.1525 
L 685.035 36.72 
" clip-path="url(#p82a2e917b7)" style="fill: none; stroke: #b0b0b0; stroke-width: 0.8; stroke-linecap: square"/>
     </g>
     <g id="line2d_14">
      <g>
       <use xlink:href="#m21d71837d5" x="685.035" y="489.1525" style="stroke: #000000; stroke-width: 0.8"/>
      </g>
     </g>
     <g id="text_7">
      <!-- 3 -->
      <g transform="translate(677.081875 515.148594) scale(0.25 -0.25)">
       <use xlink:href="#DejaVuSans-33"/>
      </g>
     </g>
    </g>
    <g id="text_8">
     <!-- $\omega$ [-] -->
     <g transform="translate(382.530076 541.351719) scale(0.25 -0.25)">
      <defs>
       <path id="DejaVuSans-Oblique-3c9" d="M 1369 -91 
Q 72 -91 434 1766 
Q 575 2500 1256 3500 
L 1875 3500 
Q 1231 2500 1088 1750 
Q 819 397 1519 397 
Q 2166 397 2478 2078 
L 3009 2078 
Q 2669 388 3316 397 
Q 4013 403 4275 1750 
Q 4419 2500 4169 3500 
L 4788 3500 
Q 5075 2500 4934 1766 
Q 4578 -94 3278 -91 
Q 2428 -88 2503 844 
Q 2194 -91 1369 -91 
z
" transform="scale(0.015625)"/>
       <path id="Calibri-20" transform="scale(0.015625)"/>
       <path id="Calibri-5b" d="M 1684 -813 
Q 1684 -916 1661 -958 
Q 1638 -1000 1594 -1000 
L 794 -1000 
Q 756 -1000 722 -989 
Q 688 -978 659 -953 
Q 631 -928 614 -886 
Q 597 -844 597 -781 
L 597 4153 
Q 597 4213 614 4255 
Q 631 4297 659 4323 
Q 688 4350 722 4361 
Q 756 4372 794 4372 
L 1594 4372 
Q 1613 4372 1630 4362 
Q 1647 4353 1659 4328 
Q 1672 4303 1678 4267 
Q 1684 4231 1684 4178 
Q 1684 4078 1661 4034 
Q 1638 3991 1594 3991 
L 1084 3991 
L 1084 -622 
L 1594 -622 
Q 1613 -622 1630 -631 
Q 1647 -641 1659 -664 
Q 1672 -688 1678 -723 
Q 1684 -759 1684 -813 
z
" transform="scale(0.015625)"/>
       <path id="Calibri-2d" d="M 1744 1578 
Q 1744 1456 1716 1409 
Q 1688 1363 1634 1363 
L 328 1363 
Q 272 1363 244 1411 
Q 216 1459 216 1578 
Q 216 1697 244 1744 
Q 272 1791 328 1791 
L 1634 1791 
Q 1659 1791 1679 1781 
Q 1700 1772 1714 1745 
Q 1728 1719 1736 1678 
Q 1744 1638 1744 1578 
z
" transform="scale(0.015625)"/>
       <path id="Calibri-5d" d="M 1369 -781 
Q 1369 -844 1351 -886 
Q 1334 -928 1306 -953 
Q 1278 -978 1242 -989 
Q 1206 -1000 1169 -1000 
L 372 -1000 
Q 328 -1000 304 -958 
Q 281 -916 281 -813 
Q 281 -759 286 -723 
Q 291 -688 303 -664 
Q 316 -641 333 -631 
Q 350 -622 372 -622 
L 881 -622 
L 881 3991 
L 372 3991 
Q 328 3991 304 4034 
Q 281 4078 281 4178 
Q 281 4231 286 4267 
Q 291 4303 303 4328 
Q 316 4353 333 4362 
Q 350 4372 372 4372 
L 1169 4372 
Q 1206 4372 1242 4361 
Q 1278 4350 1306 4323 
Q 1334 4297 1351 4255 
Q 1369 4213 1369 4153 
L 1369 -781 
z
" transform="scale(0.015625)"/>
      </defs>
      <use xlink:href="#DejaVuSans-Oblique-3c9" transform="translate(0 0.6875)"/>
      <use xlink:href="#Calibri-20" transform="translate(83.740234 0.6875)"/>
      <use xlink:href="#Calibri-5b" transform="translate(106.347656 0.6875)"/>
      <use xlink:href="#Calibri-2d" transform="translate(137.011719 0.6875)"/>
      <use xlink:href="#Calibri-5d" transform="translate(167.626953 0.6875)"/>
     </g>
    </g>
   </g>
   <g id="matplotlib.axis_2">
    <g id="ytick_1">
     <g id="line2d_15">
      <path d="M 129.775152 489.1525 
L 685.035 489.1525 
" clip-path="url(#p82a2e917b7)" style="fill: none; stroke: #b0b0b0; stroke-width: 0.8; stroke-linecap: square"/>
     </g>
     <g id="line2d_16">
      <defs>
       <path id="mf8de0f0c26" d="M 0 0 
L -3.5 0 
" style="stroke: #000000; stroke-width: 0.8"/>
      </defs>
      <g>
       <use xlink:href="#mf8de0f0c26" x="129.775152" y="489.1525" style="stroke: #000000; stroke-width: 0.8"/>
      </g>
     </g>
     <g id="text_9">
      <!-- 0.0 -->
      <g transform="translate(83.017339 498.650547) scale(0.25 -0.25)">
       <defs>
        <path id="DejaVuSans-2e" d="M 684 794 
L 1344 794 
L 1344 0 
L 684 0 
L 684 794 
z
" transform="scale(0.015625)"/>
       </defs>
       <use xlink:href="#DejaVuSans-30"/>
       <use xlink:href="#DejaVuSans-2e" x="63.623047"/>
       <use xlink:href="#DejaVuSans-30" x="95.410156"/>
      </g>
     </g>
    </g>
    <g id="ytick_2">
     <g id="line2d_17">
      <path d="M 129.775152 413.747083 
L 685.035 413.747083 
" clip-path="url(#p82a2e917b7)" style="fill: none; stroke: #b0b0b0; stroke-width: 0.8; stroke-linecap: square"/>
     </g>
     <g id="line2d_18">
      <g>
       <use xlink:href="#mf8de0f0c26" x="129.775152" y="413.747083" style="stroke: #000000; stroke-width: 0.8"/>
      </g>
     </g>
     <g id="text_10">
      <!-- 0.2 -->
      <g transform="translate(83.017339 423.24513) scale(0.25 -0.25)">
       <use xlink:href="#DejaVuSans-30"/>
       <use xlink:href="#DejaVuSans-2e" x="63.623047"/>
       <use xlink:href="#DejaVuSans-32" x="95.410156"/>
      </g>
     </g>
    </g>
    <g id="ytick_3">
     <g id="line2d_19">
      <path d="M 129.775152 338.341667 
L 685.035 338.341667 
" clip-path="url(#p82a2e917b7)" style="fill: none; stroke: #b0b0b0; stroke-width: 0.8; stroke-linecap: square"/>
     </g>
     <g id="line2d_20">
      <g>
       <use xlink:href="#mf8de0f0c26" x="129.775152" y="338.341667" style="stroke: #000000; stroke-width: 0.8"/>
      </g>
     </g>
     <g id="text_11">
      <!-- 0.4 -->
      <g transform="translate(83.017339 347.839714) scale(0.25 -0.25)">
       <defs>
        <path id="DejaVuSans-34" d="M 2419 4116 
L 825 1625 
L 2419 1625 
L 2419 4116 
z
M 2253 4666 
L 3047 4666 
L 3047 1625 
L 3713 1625 
L 3713 1100 
L 3047 1100 
L 3047 0 
L 2419 0 
L 2419 1100 
L 313 1100 
L 313 1709 
L 2253 4666 
z
" transform="scale(0.015625)"/>
       </defs>
       <use xlink:href="#DejaVuSans-30"/>
       <use xlink:href="#DejaVuSans-2e" x="63.623047"/>
       <use xlink:href="#DejaVuSans-34" x="95.410156"/>
      </g>
     </g>
    </g>
    <g id="ytick_4">
     <g id="line2d_21">
      <path d="M 129.775152 262.93625 
L 685.035 262.93625 
" clip-path="url(#p82a2e917b7)" style="fill: none; stroke: #b0b0b0; stroke-width: 0.8; stroke-linecap: square"/>
     </g>
     <g id="line2d_22">
      <g>
       <use xlink:href="#mf8de0f0c26" x="129.775152" y="262.93625" style="stroke: #000000; stroke-width: 0.8"/>
      </g>
     </g>
     <g id="text_12">
      <!-- 0.6 -->
      <g transform="translate(83.017339 272.434297) scale(0.25 -0.25)">
       <defs>
        <path id="DejaVuSans-36" d="M 2113 2584 
Q 1688 2584 1439 2293 
Q 1191 2003 1191 1497 
Q 1191 994 1439 701 
Q 1688 409 2113 409 
Q 2538 409 2786 701 
Q 3034 994 3034 1497 
Q 3034 2003 2786 2293 
Q 2538 2584 2113 2584 
z
M 3366 4563 
L 3366 3988 
Q 3128 4100 2886 4159 
Q 2644 4219 2406 4219 
Q 1781 4219 1451 3797 
Q 1122 3375 1075 2522 
Q 1259 2794 1537 2939 
Q 1816 3084 2150 3084 
Q 2853 3084 3261 2657 
Q 3669 2231 3669 1497 
Q 3669 778 3244 343 
Q 2819 -91 2113 -91 
Q 1303 -91 875 529 
Q 447 1150 447 2328 
Q 447 3434 972 4092 
Q 1497 4750 2381 4750 
Q 2619 4750 2861 4703 
Q 3103 4656 3366 4563 
z
" transform="scale(0.015625)"/>
       </defs>
       <use xlink:href="#DejaVuSans-30"/>
       <use xlink:href="#DejaVuSans-2e" x="63.623047"/>
       <use xlink:href="#DejaVuSans-36" x="95.410156"/>
      </g>
     </g>
    </g>
    <g id="ytick_5">
     <g id="line2d_23">
      <path d="M 129.775152 187.530833 
L 685.035 187.530833 
" clip-path="url(#p82a2e917b7)" style="fill: none; stroke: #b0b0b0; stroke-width: 0.8; stroke-linecap: square"/>
     </g>
     <g id="line2d_24">
      <g>
       <use xlink:href="#mf8de0f0c26" x="129.775152" y="187.530833" style="stroke: #000000; stroke-width: 0.8"/>
      </g>
     </g>
     <g id="text_13">
      <!-- 0.8 -->
      <g transform="translate(83.017339 197.02888) scale(0.25 -0.25)">
       <defs>
        <path id="DejaVuSans-38" d="M 2034 2216 
Q 1584 2216 1326 1975 
Q 1069 1734 1069 1313 
Q 1069 891 1326 650 
Q 1584 409 2034 409 
Q 2484 409 2743 651 
Q 3003 894 3003 1313 
Q 3003 1734 2745 1975 
Q 2488 2216 2034 2216 
z
M 1403 2484 
Q 997 2584 770 2862 
Q 544 3141 544 3541 
Q 544 4100 942 4425 
Q 1341 4750 2034 4750 
Q 2731 4750 3128 4425 
Q 3525 4100 3525 3541 
Q 3525 3141 3298 2862 
Q 3072 2584 2669 2484 
Q 3125 2378 3379 2068 
Q 3634 1759 3634 1313 
Q 3634 634 3220 271 
Q 2806 -91 2034 -91 
Q 1263 -91 848 271 
Q 434 634 434 1313 
Q 434 1759 690 2068 
Q 947 2378 1403 2484 
z
M 1172 3481 
Q 1172 3119 1398 2916 
Q 1625 2713 2034 2713 
Q 2441 2713 2670 2916 
Q 2900 3119 2900 3481 
Q 2900 3844 2670 4047 
Q 2441 4250 2034 4250 
Q 1625 4250 1398 4047 
Q 1172 3844 1172 3481 
z
" transform="scale(0.015625)"/>
       </defs>
       <use xlink:href="#DejaVuSans-30"/>
       <use xlink:href="#DejaVuSans-2e" x="63.623047"/>
       <use xlink:href="#DejaVuSans-38" x="95.410156"/>
      </g>
     </g>
    </g>
    <g id="ytick_6">
     <g id="line2d_25">
      <path d="M 129.775152 112.125417 
L 685.035 112.125417 
" clip-path="url(#p82a2e917b7)" style="fill: none; stroke: #b0b0b0; stroke-width: 0.8; stroke-linecap: square"/>
     </g>
     <g id="line2d_26">
      <g>
       <use xlink:href="#mf8de0f0c26" x="129.775152" y="112.125417" style="stroke: #000000; stroke-width: 0.8"/>
      </g>
     </g>
     <g id="text_14">
      <!-- 1.0 -->
      <g transform="translate(83.017339 121.623464) scale(0.25 -0.25)">
       <use xlink:href="#DejaVuSans-31"/>
       <use xlink:href="#DejaVuSans-2e" x="63.623047"/>
       <use xlink:href="#DejaVuSans-30" x="95.410156"/>
      </g>
     </g>
    </g>
    <g id="ytick_7">
     <g id="line2d_27">
      <path d="M 129.775152 36.72 
L 685.035 36.72 
" clip-path="url(#p82a2e917b7)" style="fill: none; stroke: #b0b0b0; stroke-width: 0.8; stroke-linecap: square"/>
     </g>
     <g id="line2d_28">
      <g>
       <use xlink:href="#mf8de0f0c26" x="129.775152" y="36.72" style="stroke: #000000; stroke-width: 0.8"/>
      </g>
     </g>
     <g id="text_15">
      <!-- 1.2 -->
      <g transform="translate(83.017339 46.218047) scale(0.25 -0.25)">
       <use xlink:href="#DejaVuSans-31"/>
       <use xlink:href="#DejaVuSans-2e" x="63.623047"/>
       <use xlink:href="#DejaVuSans-32" x="95.410156"/>
      </g>
     </g>
    </g>
    <g id="text_16">
     <!-- $\rho$($\omega$) -->
     <g transform="translate(27.017339 257.68625) scale(0.25 -0.25)">
      <defs>
       <path id="DejaVuSans-Oblique-3c1" d="M 1203 2875 
Q 1453 3194 1981 3475 
Q 2188 3584 2756 3584 
Q 3394 3584 3694 3078 
Q 3994 2572 3834 1747 
Q 3672 922 3175 415 
Q 2678 -91 2041 -91 
Q 1656 -91 1409 63 
Q 1163 213 1044 525 
L 681 -1331 
L 103 -1331 
L 697 1716 
Q 838 2438 1203 2875 
z
M 3238 1747 
Q 3359 2381 3169 2744 
Q 2978 3103 2522 3103 
Q 2066 3103 1734 2744 
Q 1403 2381 1281 1747 
Q 1156 1113 1347 750 
Q 1538 391 1994 391 
Q 2450 391 2781 750 
Q 3113 1113 3238 1747 
z
" transform="scale(0.015625)"/>
       <path id="Calibri-28" d="M 1547 4306 
Q 1250 3678 1104 3017 
Q 959 2356 959 1688 
Q 959 1016 1107 356 
Q 1256 -303 1541 -938 
Q 1556 -975 1557 -1001 
Q 1559 -1028 1537 -1045 
Q 1516 -1063 1470 -1070 
Q 1425 -1078 1347 -1078 
Q 1291 -1078 1250 -1075 
Q 1209 -1072 1179 -1062 
Q 1150 -1053 1131 -1040 
Q 1113 -1028 1103 -1013 
Q 934 -694 806 -367 
Q 678 -41 590 296 
Q 503 634 459 979 
Q 416 1325 416 1678 
Q 416 2031 464 2375 
Q 513 2719 602 3058 
Q 691 3397 819 3725 
Q 947 4053 1106 4375 
Q 1109 4388 1123 4397 
Q 1138 4406 1163 4415 
Q 1188 4425 1231 4429 
Q 1275 4434 1344 4434 
Q 1416 4434 1459 4425 
Q 1503 4416 1528 4400 
Q 1553 4384 1556 4359 
Q 1559 4334 1547 4306 
z
" transform="scale(0.015625)"/>
       <path id="Calibri-29" d="M 1522 1678 
Q 1522 1325 1478 979 
Q 1434 634 1346 296 
Q 1259 -41 1132 -367 
Q 1006 -694 838 -1013 
Q 828 -1028 809 -1040 
Q 791 -1053 761 -1062 
Q 731 -1072 690 -1075 
Q 650 -1078 594 -1078 
Q 513 -1078 467 -1070 
Q 422 -1063 401 -1045 
Q 381 -1028 382 -1001 
Q 384 -975 400 -938 
Q 688 -306 834 355 
Q 981 1016 981 1688 
Q 981 2356 834 3017 
Q 688 3678 394 4306 
Q 381 4334 384 4359 
Q 388 4384 413 4400 
Q 438 4416 481 4425 
Q 525 4434 597 4434 
Q 663 4434 706 4429 
Q 750 4425 776 4415 
Q 803 4406 815 4397 
Q 828 4388 834 4375 
Q 1156 3734 1339 3057 
Q 1522 2381 1522 1678 
z
" transform="scale(0.015625)"/>
      </defs>
      <use xlink:href="#DejaVuSans-Oblique-3c1" transform="translate(0 0.71875)"/>
      <use xlink:href="#Calibri-28" transform="translate(63.476562 0.71875)"/>
      <use xlink:href="#DejaVuSans-Oblique-3c9" transform="translate(93.798828 0.71875)"/>
      <use xlink:href="#Calibri-29" transform="translate(177.539062 0.71875)"/>
     </g>
    </g>
   </g>
   <g id="line2d_29">
    <path d="M 129.775152 485.191726 
L 155.317105 484.358547 
L 176.416979 483.455768 
L 194.185294 482.483241 
L 209.73257 481.41398 
L 223.058806 480.280428 
L 234.719263 479.073027 
L 245.2692 477.757219 
L 254.708618 476.351279 
L 263.037516 474.885804 
L 270.255894 473.405198 
L 276.919012 471.827331 
L 283.02687 470.166711 
L 288.579469 468.444876 
L 294.132067 466.482825 
L 299.129406 464.47402 
L 303.571484 462.461225 
L 308.013563 460.198636 
L 311.900382 457.981343 
L 315.787201 455.507575 
L 319.67402 452.737724 
L 323.005579 450.092377 
L 326.337138 447.159915 
L 329.668697 443.899314 
L 332.444997 440.896992 
L 335.221296 437.601191 
L 337.997595 433.974823 
L 340.773894 429.975257 
L 343.550193 425.553428 
L 346.326493 420.652815 
L 349.102792 415.208293 
L 351.323831 410.411031 
L 353.544871 405.174383 
L 355.76591 399.4498 
L 357.98695 393.183265 
L 360.207989 386.314927 
L 362.429028 378.778877 
L 364.650068 370.503147 
L 366.871107 361.410081 
L 369.092146 351.417284 
L 371.313186 340.439429 
L 373.534225 328.391304 
L 375.755265 315.192611 
L 377.976304 300.775141 
L 380.197343 285.093043 
L 382.973643 263.70268 
L 385.749942 240.43442 
L 389.081501 210.496774 
L 396.299879 144.292017 
L 398.520918 126.273182 
L 400.186698 114.444594 
L 401.852478 104.500423 
L 402.962997 99.099692 
L 404.073517 94.793115 
L 405.184037 91.658303 
L 405.739296 90.549312 
L 406.294556 89.753379 
L 406.849816 89.274291 
L 407.405076 89.11434 
L 407.960336 89.274291 
L 408.515596 89.753379 
L 409.070856 90.549312 
L 409.626115 91.658303 
L 410.736635 94.793115 
L 411.847155 99.099692 
L 412.957674 104.500423 
L 414.068194 110.901592 
L 415.733974 122.145014 
L 417.399753 135.011069 
L 419.620793 153.999886 
L 423.507612 189.812362 
L 428.50495 235.578616 
L 431.281249 259.192647 
L 434.057549 280.972775 
L 436.833848 300.775141 
L 439.054887 315.192611 
L 441.275927 328.391304 
L 443.496966 340.439429 
L 445.718006 351.417284 
L 447.939045 361.410081 
L 450.160084 370.503147 
L 452.381124 378.778877 
L 454.602163 386.314927 
L 456.823202 393.183265 
L 459.044242 399.4498 
L 461.265281 405.174383 
L 464.04158 411.649757 
L 466.81788 417.455934 
L 469.594179 422.674476 
L 472.370478 427.376269 
L 475.146777 431.622852 
L 477.923077 435.467632 
L 480.699376 438.956987 
L 483.475675 442.13123 
L 486.807234 445.57346 
L 490.138793 448.664447 
L 493.470352 451.448621 
L 496.801912 453.963893 
L 500.68873 456.60155 
L 504.575549 458.960941 
L 508.462368 461.078859 
L 512.904447 463.243293 
L 517.346526 465.171697 
L 522.343865 467.099193 
L 527.896463 468.984814 
L 533.449061 470.642156 
L 539.55692 472.243001 
L 546.220038 473.766417 
L 553.438416 475.198135 
L 561.767314 476.617463 
L 570.651471 477.907387 
L 580.646149 479.13592 
L 591.751346 480.280428 
L 604.522322 481.37117 
L 618.959078 482.379585 
L 635.616874 483.318352 
L 655.050968 484.187177 
L 678.371882 484.996588 
L 685.035 485.191726 
L 685.035 485.191726 
" clip-path="url(#p82a2e917b7)" style="fill: none; stroke-dasharray: 14.8,6.4; stroke-dashoffset: 0; stroke: #ff0000; stroke-width: 4"/>
   </g>
   <g id="line2d_30">
    <path d="M 129.775152 477.159419 
L 135.88301 476.241491 
L 141.435609 475.210814 
L 144.767168 474.955125 
L 153.096066 474.413208 
L 155.317105 473.859786 
L 163.090743 471.329103 
L 166.422302 470.143106 
L 169.198601 468.810128 
L 171.419641 467.796482 
L 173.64068 467.015645 
L 176.416979 466.091956 
L 180.303798 464.592691 
L 184.745877 463.723985 
L 188.077436 462.773849 
L 190.853735 462.211284 
L 191.964255 461.686202 
L 193.074775 460.899747 
L 195.295814 458.900377 
L 197.516853 456.991781 
L 200.293153 454.739504 
L 203.069452 452.175116 
L 204.179972 451.492799 
L 206.956271 450.008727 
L 208.62205 449.176967 
L 209.73257 448.890728 
L 210.84309 448.831014 
L 211.953609 448.972775 
L 213.619389 449.295002 
L 214.729909 449.241592 
L 215.840428 448.768206 
L 216.950948 447.803529 
L 218.061468 446.334441 
L 220.837767 442.086375 
L 221.948287 440.980564 
L 223.058806 440.244045 
L 224.724586 439.318786 
L 226.390366 438.036194 
L 228.611405 436.022142 
L 229.721925 434.727726 
L 231.387704 432.327139 
L 232.498224 430.699328 
L 233.608744 429.434535 
L 234.719263 428.605884 
L 235.829783 428.193232 
L 236.940303 428.193779 
L 240.271862 428.576979 
L 243.048161 428.60811 
L 244.158681 428.40875 
L 245.2692 427.880828 
L 248.0455 426.333735 
L 249.156019 425.631311 
L 251.377059 423.819595 
L 251.932319 423.684818 
L 253.042838 423.928748 
L 253.598098 424.068583 
L 254.153358 424.028579 
L 254.708618 423.724885 
L 255.263878 423.162698 
L 256.929657 421.084413 
L 259.150697 419.21548 
L 261.371736 416.386644 
L 261.926996 416.070085 
L 262.482256 416.036788 
L 263.037516 416.284989 
L 263.592775 416.776322 
L 265.258555 418.754311 
L 265.813815 419.162303 
L 266.369075 419.322506 
L 267.479594 419.199483 
L 268.590114 419.112667 
L 270.255894 419.239847 
L 270.811153 419.139112 
L 271.921673 418.546185 
L 273.032193 417.841876 
L 273.587453 417.633063 
L 274.142712 417.576664 
L 274.697972 417.696066 
L 276.363752 418.395845 
L 276.919012 418.202615 
L 277.474272 417.640534 
L 279.140051 415.366138 
L 280.805831 413.807849 
L 281.91635 412.257218 
L 282.47161 411.360917 
L 283.02687 410.128109 
L 284.13739 406.316772 
L 285.247909 402.770867 
L 285.803169 401.603648 
L 286.358429 400.855594 
L 286.913689 400.617723 
L 287.468949 401.030389 
L 288.024209 402.109023 
L 289.689988 406.49508 
L 290.245248 407.493999 
L 291.355768 408.901987 
L 292.466287 410.317093 
L 293.576807 412.339527 
L 296.353106 418.039184 
L 296.908366 418.756286 
L 297.463626 419.210767 
L 298.018886 419.458889 
L 298.574146 419.433344 
L 299.129406 419.005154 
L 300.239925 417.266316 
L 301.350445 415.454946 
L 301.905705 414.868453 
L 302.460965 414.656528 
L 303.571484 414.581158 
L 305.237264 414.123306 
L 305.792524 413.822072 
L 306.347784 413.6992 
L 306.903043 414.076688 
L 307.458303 415.136772 
L 309.124083 419.683943 
L 311.345122 423.257026 
L 311.900382 423.873293 
L 312.455642 424.204262 
L 313.010902 424.323644 
L 314.676681 424.236538 
L 315.231941 424.029462 
L 315.787201 423.261133 
L 316.342461 422.082724 
L 316.897721 421.328388 
L 317.452981 421.791365 
L 318.5635 425.136658 
L 319.11876 426.200542 
L 319.67402 426.224284 
L 320.22928 425.346577 
L 320.78454 424.248557 
L 321.3398 423.71532 
L 321.895059 423.831048 
L 322.450319 424.171552 
L 323.005579 424.66766 
L 323.560839 425.515608 
L 324.116099 426.64578 
L 324.671359 427.469403 
L 325.226618 427.619825 
L 325.781878 427.50364 
L 326.337138 427.72046 
L 328.558178 429.80016 
L 329.668697 429.682415 
L 330.223957 430.135244 
L 330.779217 431.172673 
L 331.889737 433.707129 
L 332.444997 434.589849 
L 333.000256 434.39375 
L 333.555516 432.682896 
L 334.666036 427.035976 
L 335.221296 426.57505 
L 336.887075 432.146774 
L 337.997595 434.52158 
L 338.552855 434.792356 
L 339.663375 433.556368 
L 340.218634 433.103718 
L 340.773894 432.352511 
L 342.439674 429.18942 
L 342.994934 429.708994 
L 344.660713 434.298473 
L 345.215973 434.735966 
L 345.771233 434.454391 
L 347.437012 434.704902 
L 347.992272 435.072004 
L 348.547532 435.697345 
L 349.102792 436.103072 
L 350.768571 438.984828 
L 351.323831 439.482827 
L 351.879091 439.606292 
L 352.434351 438.777667 
L 353.544871 434.444273 
L 354.100131 433.229983 
L 354.65539 433.028973 
L 355.21065 433.74418 
L 355.76591 433.789046 
L 356.32117 433.240219 
L 357.43169 431.216249 
L 357.98695 431.389583 
L 358.542209 430.131391 
L 359.097469 427.669049 
L 359.652729 426.579599 
L 360.207989 428.329467 
L 360.763249 430.665055 
L 361.318509 432.078384 
L 361.873768 430.401453 
L 362.984288 421.68826 
L 363.539548 421.972199 
L 364.094808 423.595223 
L 364.650068 423.20352 
L 366.315847 428.950046 
L 368.536887 438.800495 
L 369.092146 437.020224 
L 369.647406 432.301376 
L 370.202666 433.272989 
L 370.757926 433.988922 
L 371.313186 433.867932 
L 372.423706 438.550406 
L 372.978965 438.922101 
L 373.534225 440.095879 
L 374.089485 443.41364 
L 374.644745 442.598396 
L 375.200005 436.618923 
L 375.755265 432.883205 
L 376.865784 440.103857 
L 377.421044 439.463749 
L 377.976304 440.431416 
L 378.531564 438.454315 
L 379.086824 432.009257 
L 379.642084 432.306436 
L 380.197343 432.917591 
L 380.752603 435.035862 
L 381.307863 433.165707 
L 381.863123 439.784711 
L 382.418383 437.134298 
L 382.973643 435.172908 
L 383.528903 432.228338 
L 384.084162 428.52621 
L 384.639422 428.744905 
L 385.194682 430.350976 
L 385.749942 432.635233 
L 386.305202 433.929193 
L 386.860462 424.479605 
L 387.415721 407.53752 
L 387.970981 418.412268 
L 388.526241 412.662345 
L 389.081501 409.185662 
L 390.192021 427.483241 
L 390.747281 435.741871 
L 391.30254 421.263909 
L 391.8578 423.176702 
L 392.41306 424.243154 
L 393.52358 396.385126 
L 394.07884 400.286076 
L 394.634099 411.400833 
L 395.189359 408.989276 
L 395.744619 399.805448 
L 396.299879 400.224477 
L 396.855139 401.523293 
L 397.410399 392.58603 
L 397.965659 371.995702 
L 398.520918 364.119537 
L 399.076178 334.182802 
L 399.631438 393.640227 
L 400.186698 351.491609 
L 400.741958 326.219482 
L 401.297218 364.926984 
L 401.852478 321.055651 
L 402.407737 343.077134 
L 402.962997 290.94377 
L 403.518257 278.85301 
L 404.073517 263.551915 
L 404.628777 197.684933 
L 405.184037 208.871709 
L 405.739296 143.72726 
L 406.294556 112.805602 
L 406.849816 94.495493 
L 407.405076 96.785235 
L 407.960336 100.204182 
L 408.515596 126.402494 
L 409.070856 202.217954 
L 409.626115 222.990161 
L 410.181375 192.141628 
L 410.736635 244.057227 
L 411.291895 312.164904 
L 411.847155 278.44363 
L 412.957674 349.280816 
L 413.512934 293.826329 
L 414.068194 357.584322 
L 414.623454 377.164821 
L 415.178714 357.963644 
L 415.733974 359.881894 
L 416.289234 382.270381 
L 416.844493 366.633976 
L 417.399753 394.728348 
L 417.955013 396.053679 
L 418.510273 395.923062 
L 419.620793 405.500957 
L 420.176052 416.271292 
L 420.731312 419.641554 
L 421.286572 423.697946 
L 421.841832 426.780173 
L 422.397092 419.815871 
L 422.952352 425.080319 
L 423.507612 427.721686 
L 424.062871 423.19372 
L 424.618131 429.154242 
L 425.173391 431.689749 
L 425.728651 435.199454 
L 426.283911 428.32231 
L 426.839171 430.6744 
L 427.394431 431.233241 
L 427.94969 418.82329 
L 428.50495 425.983757 
L 429.06021 437.132336 
L 429.61547 435.319907 
L 430.72599 420.892418 
L 431.281249 428.56698 
L 431.836509 425.225126 
L 432.391769 419.216022 
L 432.947029 419.46065 
L 433.502289 427.55375 
L 434.057549 425.790411 
L 434.612809 423.120477 
L 435.168068 430.854027 
L 435.723328 432.036197 
L 436.278588 432.269845 
L 436.833848 433.688695 
L 437.389108 434.510008 
L 437.944368 432.98424 
L 438.499627 432.268116 
L 439.054887 426.721759 
L 439.610147 431.024657 
L 440.165407 437.269365 
L 440.720667 438.570805 
L 441.275927 436.707601 
L 441.831187 432.21288 
L 442.386446 432.838417 
L 442.941706 434.146958 
L 443.496966 434.08845 
L 444.052226 433.898795 
L 444.607486 436.203108 
L 445.162746 439.08397 
L 445.718006 438.75686 
L 446.273265 436.795167 
L 446.828525 435.633606 
L 447.939045 440.176588 
L 448.494305 439.997307 
L 449.049565 438.174818 
L 449.604824 436.805421 
L 450.160084 437.806497 
L 450.715344 440.779159 
L 451.270604 442.917794 
L 451.825864 441.828204 
L 452.381124 438.816856 
L 453.491643 425.995502 
L 454.046903 424.832027 
L 455.712683 430.453412 
L 456.267943 431.521358 
L 456.823202 432.273067 
L 457.378462 433.358359 
L 457.933722 433.680338 
L 459.044242 436.277447 
L 459.599502 436.583568 
L 460.154762 436.306881 
L 460.710021 435.895628 
L 461.820541 439.608141 
L 462.375801 439.771051 
L 462.931061 439.794698 
L 463.486321 438.718749 
L 465.1521 431.453662 
L 465.70736 431.378993 
L 466.26262 432.733175 
L 466.81788 434.399559 
L 467.37314 435.129634 
L 467.928399 434.240231 
L 469.038919 430.217432 
L 469.594179 430.564703 
L 470.149439 432.949618 
L 471.259959 439.257481 
L 471.815218 441.454434 
L 472.370478 442.512597 
L 472.925738 441.952507 
L 474.591518 436.724994 
L 475.146777 436.095509 
L 475.702037 435.926357 
L 476.257297 435.89428 
L 476.812557 435.66627 
L 477.923077 434.445984 
L 479.033596 434.011991 
L 479.588856 433.91981 
L 480.144116 433.628015 
L 480.699376 432.811549 
L 481.254636 431.744531 
L 481.809896 430.957846 
L 482.365155 430.388148 
L 482.920415 429.529491 
L 485.141455 424.54264 
L 485.696715 424.322843 
L 487.362494 424.885647 
L 487.917754 424.517603 
L 489.028274 423.151426 
L 490.694053 420.406925 
L 491.804573 419.348875 
L 492.359833 419.18889 
L 492.915093 419.41715 
L 493.470352 419.956148 
L 494.025612 420.685729 
L 494.580872 421.72118 
L 495.691392 424.331841 
L 496.246652 425.280878 
L 497.912431 427.161776 
L 498.467691 427.427844 
L 499.022951 426.958791 
L 499.578211 425.678586 
L 501.24399 420.419607 
L 501.79925 419.70419 
L 502.35451 419.678615 
L 502.90977 420.050204 
L 503.46503 420.664223 
L 504.575549 422.289562 
L 505.130809 422.795049 
L 505.686069 422.778656 
L 506.241329 422.247711 
L 507.907108 419.650227 
L 509.017628 418.872844 
L 510.683408 418.018047 
L 512.349187 417.928509 
L 513.459707 417.672765 
L 514.570227 417.724958 
L 515.680746 417.796015 
L 516.791266 417.470787 
L 517.346526 417.179072 
L 517.901786 416.674861 
L 519.012305 415.464861 
L 519.567565 415.380606 
L 520.122825 415.768381 
L 521.788605 417.6448 
L 522.343865 417.943251 
L 522.899124 417.809329 
L 523.454384 417.304513 
L 524.564904 415.757679 
L 525.120164 414.580374 
L 526.230683 411.644449 
L 526.785943 410.598967 
L 527.341203 410.239224 
L 527.896463 410.591116 
L 529.006983 412.023233 
L 529.562243 412.202124 
L 530.117502 411.765725 
L 530.672762 410.824452 
L 532.338542 407.143941 
L 532.893802 406.268544 
L 533.449061 405.699395 
L 534.004321 405.538552 
L 534.559581 406.065347 
L 535.114841 407.538656 
L 536.225361 412.515234 
L 537.33588 417.344645 
L 537.89114 419.188629 
L 538.4464 420.572122 
L 539.00166 421.389269 
L 539.55692 421.5622 
L 540.11218 421.16462 
L 541.222699 419.7263 
L 541.777959 419.225135 
L 542.333219 418.979721 
L 543.443739 418.802977 
L 543.998999 418.59337 
L 545.664778 417.706454 
L 546.775298 417.467822 
L 547.330558 417.172974 
L 548.441077 416.124397 
L 549.551597 415.06409 
L 550.662117 414.405211 
L 551.217377 414.251511 
L 552.327896 414.312013 
L 553.438416 414.313918 
L 554.548936 414.180196 
L 555.104196 414.432745 
L 555.659455 415.038749 
L 557.325235 417.715443 
L 557.880495 418.285508 
L 558.435755 418.553058 
L 558.991014 418.566053 
L 560.101534 418.306094 
L 560.656794 418.299629 
L 561.212054 418.510983 
L 561.767314 419.008606 
L 562.322574 419.839742 
L 563.433093 422.374203 
L 564.543613 425.067143 
L 565.098873 426.052788 
L 565.654133 426.696222 
L 566.209393 427.028754 
L 566.764652 427.133085 
L 567.875172 426.938409 
L 570.096211 426.026916 
L 570.651471 426.006569 
L 571.761991 426.309054 
L 572.872511 426.542073 
L 573.98303 426.504704 
L 574.53829 426.650874 
L 575.09355 427.083406 
L 575.64881 427.832277 
L 576.75933 429.954388 
L 577.869849 432.143722 
L 578.980369 433.798829 
L 579.535629 434.345802 
L 580.090889 434.702541 
L 581.201408 435.015312 
L 582.311928 435.246144 
L 583.422448 435.739675 
L 586.198747 437.511173 
L 587.864527 438.76199 
L 590.085566 440.702664 
L 591.196086 441.311449 
L 593.417125 442.137889 
L 594.527645 442.941554 
L 597.859204 445.761877 
L 599.524983 447.296178 
L 601.746023 449.40151 
L 603.967062 451.283319 
L 606.188102 453.674157 
L 607.853881 455.40429 
L 609.519661 456.798335 
L 611.18544 457.792992 
L 612.29596 458.239897 
L 613.40648 458.506924 
L 615.072259 458.649551 
L 621.180117 459.016288 
L 623.401157 459.570429 
L 625.066936 460.204105 
L 626.732716 461.193314 
L 633.395834 465.656345 
L 635.061614 466.43805 
L 636.727393 466.899237 
L 640.614212 467.711806 
L 642.835252 468.515688 
L 646.166811 469.749665 
L 648.38785 470.237145 
L 653.940449 471.215582 
L 656.716748 471.957301 
L 660.603567 473.03154 
L 663.935126 473.707161 
L 670.598244 474.855023 
L 675.595583 475.907702 
L 677.816622 476.12432 
L 681.703441 476.341341 
L 684.47974 476.847639 
L 685.035 476.957707 
L 685.035 476.957707 
" clip-path="url(#p82a2e917b7)" style="fill: none; stroke: #0000ff; stroke-width: 1.5; stroke-linecap: square"/>
   </g>
   <g id="patch_3">
    <path d="M 129.775152 489.1525 
L 129.775152 36.72 
" style="fill: none; stroke: #000000; stroke-width: 0.8; stroke-linejoin: miter; stroke-linecap: square"/>
   </g>
   <g id="patch_4">
    <path d="M 685.035 489.1525 
L 685.035 36.72 
" style="fill: none; stroke: #000000; stroke-width: 0.8; stroke-linejoin: miter; stroke-linecap: square"/>
   </g>
   <g id="patch_5">
    <path d="M 129.775152 489.1525 
L 685.035 489.1525 
" style="fill: none; stroke: #000000; stroke-width: 0.8; stroke-linejoin: miter; stroke-linecap: square"/>
   </g>
   <g id="patch_6">
    <path d="M 129.775152 36.72 
L 685.035 36.72 
" style="fill: none; stroke: #000000; stroke-width: 0.8; stroke-linejoin: miter; stroke-linecap: square"/>
   </g>
   <g id="legend_1">
    <g id="patch_7">
     <path d="M 517.415 100.260156 
L 676.535 100.260156 
L 676.535 45.22 
L 517.415 45.22 
z
" style="fill: #ffffff; opacity: 0.8; stroke: #000000; stroke-linejoin: miter"/>
    </g>
    <g id="line2d_31">
     <path d="M 524.215 58.987344 
L 541.215 58.987344 
L 558.215 58.987344 
" style="fill: none; stroke-dasharray: 14.8,6.4; stroke-dashoffset: 0; stroke: #ff0000; stroke-width: 4"/>
    </g>
    <g id="text_17">
     <!-- $\rho_0$ -->
     <g transform="translate(571.815 64.937344) scale(0.17 -0.17)">
      <use xlink:href="#DejaVuSans-Oblique-3c1"/>
      <use xlink:href="#DejaVuSans-30" transform="translate(63.476562 -16.40625) scale(0.7)"/>
     </g>
    </g>
    <g id="line2d_32">
     <path d="M 524.215 83.974688 
L 541.215 83.974688 
L 558.215 83.974688 
" style="fill: none; stroke: #0000ff; stroke-width: 1.5; stroke-linecap: square"/>
    </g>
    <g id="text_18">
     <!-- $\it{k_bT= 0.000}$ -->
     <g transform="translate(571.815 89.924688) scale(0.17 -0.17)">
      <defs>
       <path id="DejaVuSans-Oblique-6b" d="M 1172 4863 
L 1747 4863 
L 1197 2028 
L 3169 3500 
L 3916 3500 
L 1716 1825 
L 3322 0 
L 2625 0 
L 1131 1709 
L 800 0 
L 225 0 
L 1172 4863 
z
" transform="scale(0.015625)"/>
       <path id="DejaVuSans-Oblique-62" d="M 3169 2138 
Q 3169 2591 2961 2847 
Q 2753 3103 2388 3103 
Q 2122 3103 1889 2973 
Q 1656 2844 1484 2597 
Q 1303 2338 1198 1995 
Q 1094 1653 1094 1313 
Q 1094 881 1298 636 
Q 1503 391 1863 391 
Q 2134 391 2365 517 
Q 2597 644 2772 891 
Q 2950 1147 3059 1487 
Q 3169 1828 3169 2138 
z
M 1381 2969 
Q 1594 3256 1914 3420 
Q 2234 3584 2584 3584 
Q 3122 3584 3439 3221 
Q 3756 2859 3756 2241 
Q 3756 1734 3570 1259 
Q 3384 784 3041 416 
Q 2816 172 2522 40 
Q 2228 -91 1906 -91 
Q 1566 -91 1316 65 
Q 1066 222 909 531 
L 806 0 
L 231 0 
L 1178 4863 
L 1753 4863 
L 1381 2969 
z
" transform="scale(0.015625)"/>
       <path id="DejaVuSans-Oblique-54" d="M 378 4666 
L 4325 4666 
L 4225 4134 
L 2559 4134 
L 1759 0 
L 1125 0 
L 1925 4134 
L 275 4134 
L 378 4666 
z
" transform="scale(0.015625)"/>
       <path id="DejaVuSans-3d" d="M 678 2906 
L 4684 2906 
L 4684 2381 
L 678 2381 
L 678 2906 
z
M 678 1631 
L 4684 1631 
L 4684 1100 
L 678 1100 
L 678 1631 
z
" transform="scale(0.015625)"/>
      </defs>
      <use xlink:href="#DejaVuSans-Oblique-6b" transform="translate(0 0.015625)"/>
      <use xlink:href="#DejaVuSans-Oblique-62" transform="translate(57.910156 -16.390625) scale(0.7)"/>
      <use xlink:href="#DejaVuSans-Oblique-54" transform="translate(105.078125 0.015625)"/>
      <use xlink:href="#DejaVuSans-3d" transform="translate(185.644531 0.015625)"/>
      <use xlink:href="#DejaVuSans-30" transform="translate(288.916016 0.015625)"/>
      <use xlink:href="#DejaVuSans-2e" transform="translate(352.539062 0.015625)"/>
      <use xlink:href="#DejaVuSans-30" transform="translate(384.326172 0.015625)"/>
      <use xlink:href="#DejaVuSans-30" transform="translate(447.949219 0.015625)"/>
      <use xlink:href="#DejaVuSans-30" transform="translate(511.572266 0.015625)"/>
     </g>
    </g>
   </g>
  </g>
 </g>
 <defs>
  <clipPath id="p82a2e917b7">
   <rect x="129.775152" y="36.72" width="555.259848" height="452.4325"/>
  </clipPath>
 </defs>
</svg>
