<?xml version="1.0" encoding="utf-8" standalone="no"?>
<!DOCTYPE svg PUBLIC "-//W3C//DTD SVG 1.1//EN"
  "http://www.w3.org/Graphics/SVG/1.1/DTD/svg11.dtd">
<svg xmlns:xlink="http://www.w3.org/1999/xlink" width="720pt" height="576pt" viewBox="0 0 720 576" xmlns="http://www.w3.org/2000/svg" version="1.1">
 <metadata>
  <rdf:RDF xmlns:dc="http://purl.org/dc/elements/1.1/" xmlns:cc="http://creativecommons.org/ns#" xmlns:rdf="http://www.w3.org/1999/02/22-rdf-syntax-ns#">
   <cc:Work>
    <dc:type rdf:resource="http://purl.org/dc/dcmitype/StillImage"/>
    <dc:date>2023-04-13T05:38:48.323033</dc:date>
    <dc:format>image/svg+xml</dc:format>
    <dc:creator>
     <cc:Agent>
      <dc:title>Matplotlib v3.7.1, https://matplotlib.org/</dc:title>
     </cc:Agent>
    </dc:creator>
   </cc:Work>
  </rdf:RDF>
 </metadata>
 <defs>
  <style type="text/css">*{stroke-linejoin: round; stroke-linecap: butt}</style>
 </defs>
 <g id="figure_1">
  <g id="patch_1">
   <path d="M 0 576 
L 720 576 
L 720 0 
L 0 0 
z
" style="fill: #ffffff"/>
  </g>
  <g id="axes_1">
   <g id="patch_2">
    <path d="M 129.775152 489.1525 
L 685.035 489.1525 
L 685.035 36.72 
L 129.775152 36.72 
z
" style="fill: #ffffff"/>
   </g>
   <g id="matplotlib.axis_1">
    <g id="xtick_1">
     <g id="line2d_1">
      <path d="M 129.775152 489.1525 
L 129.775152 36.72 
" clip-path="url(#pb1e8ad4d80)" style="fill: none; stroke: #b0b0b0; stroke-width: 0.8; stroke-linecap: square"/>
     </g>
     <g id="line2d_2">
      <defs>
       <path id="m8dae9a99ae" d="M 0 0 
L 0 3.5 
" style="stroke: #000000; stroke-width: 0.8"/>
      </defs>
      <g>
       <use xlink:href="#m8dae9a99ae" x="129.775152" y="489.1525" style="stroke: #000000; stroke-width: 0.8"/>
      </g>
     </g>
     <g id="text_1">
      <!-- −3 -->
      <g transform="translate(111.347418 515.148594) scale(0.25 -0.25)">
       <defs>
        <path id="DejaVuSans-2212" d="M 678 2272 
L 4684 2272 
L 4684 1741 
L 678 1741 
L 678 2272 
z
" transform="scale(0.015625)"/>
        <path id="DejaVuSans-33" d="M 2597 2516 
Q 3050 2419 3304 2112 
Q 3559 1806 3559 1356 
Q 3559 666 3084 287 
Q 2609 -91 1734 -91 
Q 1441 -91 1130 -33 
Q 819 25 488 141 
L 488 750 
Q 750 597 1062 519 
Q 1375 441 1716 441 
Q 2309 441 2620 675 
Q 2931 909 2931 1356 
Q 2931 1769 2642 2001 
Q 2353 2234 1838 2234 
L 1294 2234 
L 1294 2753 
L 1863 2753 
Q 2328 2753 2575 2939 
Q 2822 3125 2822 3475 
Q 2822 3834 2567 4026 
Q 2313 4219 1838 4219 
Q 1578 4219 1281 4162 
Q 984 4106 628 3988 
L 628 4550 
Q 988 4650 1302 4700 
Q 1616 4750 1894 4750 
Q 2613 4750 3031 4423 
Q 3450 4097 3450 3541 
Q 3450 3153 3228 2886 
Q 3006 2619 2597 2516 
z
" transform="scale(0.015625)"/>
       </defs>
       <use xlink:href="#DejaVuSans-2212"/>
       <use xlink:href="#DejaVuSans-33" x="83.789062"/>
      </g>
     </g>
    </g>
    <g id="xtick_2">
     <g id="line2d_3">
      <path d="M 222.31846 489.1525 
L 222.31846 36.72 
" clip-path="url(#pb1e8ad4d80)" style="fill: none; stroke: #b0b0b0; stroke-width: 0.8; stroke-linecap: square"/>
     </g>
     <g id="line2d_4">
      <g>
       <use xlink:href="#m8dae9a99ae" x="222.31846" y="489.1525" style="stroke: #000000; stroke-width: 0.8"/>
      </g>
     </g>
     <g id="text_2">
      <!-- −2 -->
      <g transform="translate(203.890726 515.148594) scale(0.25 -0.25)">
       <defs>
        <path id="DejaVuSans-32" d="M 1228 531 
L 3431 531 
L 3431 0 
L 469 0 
L 469 531 
Q 828 903 1448 1529 
Q 2069 2156 2228 2338 
Q 2531 2678 2651 2914 
Q 2772 3150 2772 3378 
Q 2772 3750 2511 3984 
Q 2250 4219 1831 4219 
Q 1534 4219 1204 4116 
Q 875 4013 500 3803 
L 500 4441 
Q 881 4594 1212 4672 
Q 1544 4750 1819 4750 
Q 2544 4750 2975 4387 
Q 3406 4025 3406 3419 
Q 3406 3131 3298 2873 
Q 3191 2616 2906 2266 
Q 2828 2175 2409 1742 
Q 1991 1309 1228 531 
z
" transform="scale(0.015625)"/>
       </defs>
       <use xlink:href="#DejaVuSans-2212"/>
       <use xlink:href="#DejaVuSans-32" x="83.789062"/>
      </g>
     </g>
    </g>
    <g id="xtick_3">
     <g id="line2d_5">
      <path d="M 314.861768 489.1525 
L 314.861768 36.72 
" clip-path="url(#pb1e8ad4d80)" style="fill: none; stroke: #b0b0b0; stroke-width: 0.8; stroke-linecap: square"/>
     </g>
     <g id="line2d_6">
      <g>
       <use xlink:href="#m8dae9a99ae" x="314.861768" y="489.1525" style="stroke: #000000; stroke-width: 0.8"/>
      </g>
     </g>
     <g id="text_3">
      <!-- −1 -->
      <g transform="translate(296.434034 515.148594) scale(0.25 -0.25)">
       <defs>
        <path id="DejaVuSans-31" d="M 794 531 
L 1825 531 
L 1825 4091 
L 703 3866 
L 703 4441 
L 1819 4666 
L 2450 4666 
L 2450 531 
L 3481 531 
L 3481 0 
L 794 0 
L 794 531 
z
" transform="scale(0.015625)"/>
       </defs>
       <use xlink:href="#DejaVuSans-2212"/>
       <use xlink:href="#DejaVuSans-31" x="83.789062"/>
      </g>
     </g>
    </g>
    <g id="xtick_4">
     <g id="line2d_7">
      <path d="M 407.405076 489.1525 
L 407.405076 36.72 
" clip-path="url(#pb1e8ad4d80)" style="fill: none; stroke: #b0b0b0; stroke-width: 0.8; stroke-linecap: square"/>
     </g>
     <g id="line2d_8">
      <g>
       <use xlink:href="#m8dae9a99ae" x="407.405076" y="489.1525" style="stroke: #000000; stroke-width: 0.8"/>
      </g>
     </g>
     <g id="text_4">
      <!-- 0 -->
      <g transform="translate(399.451951 515.148594) scale(0.25 -0.25)">
       <defs>
        <path id="DejaVuSans-30" d="M 2034 4250 
Q 1547 4250 1301 3770 
Q 1056 3291 1056 2328 
Q 1056 1369 1301 889 
Q 1547 409 2034 409 
Q 2525 409 2770 889 
Q 3016 1369 3016 2328 
Q 3016 3291 2770 3770 
Q 2525 4250 2034 4250 
z
M 2034 4750 
Q 2819 4750 3233 4129 
Q 3647 3509 3647 2328 
Q 3647 1150 3233 529 
Q 2819 -91 2034 -91 
Q 1250 -91 836 529 
Q 422 1150 422 2328 
Q 422 3509 836 4129 
Q 1250 4750 2034 4750 
z
" transform="scale(0.015625)"/>
       </defs>
       <use xlink:href="#DejaVuSans-30"/>
      </g>
     </g>
    </g>
    <g id="xtick_5">
     <g id="line2d_9">
      <path d="M 499.948384 489.1525 
L 499.948384 36.72 
" clip-path="url(#pb1e8ad4d80)" style="fill: none; stroke: #b0b0b0; stroke-width: 0.8; stroke-linecap: square"/>
     </g>
     <g id="line2d_10">
      <g>
       <use xlink:href="#m8dae9a99ae" x="499.948384" y="489.1525" style="stroke: #000000; stroke-width: 0.8"/>
      </g>
     </g>
     <g id="text_5">
      <!-- 1 -->
      <g transform="translate(491.995259 515.148594) scale(0.25 -0.25)">
       <use xlink:href="#DejaVuSans-31"/>
      </g>
     </g>
    </g>
    <g id="xtick_6">
     <g id="line2d_11">
      <path d="M 592.491692 489.1525 
L 592.491692 36.72 
" clip-path="url(#pb1e8ad4d80)" style="fill: none; stroke: #b0b0b0; stroke-width: 0.8; stroke-linecap: square"/>
     </g>
     <g id="line2d_12">
      <g>
       <use xlink:href="#m8dae9a99ae" x="592.491692" y="489.1525" style="stroke: #000000; stroke-width: 0.8"/>
      </g>
     </g>
     <g id="text_6">
      <!-- 2 -->
      <g transform="translate(584.538567 515.148594) scale(0.25 -0.25)">
       <use xlink:href="#DejaVuSans-32"/>
      </g>
     </g>
    </g>
    <g id="xtick_7">
     <g id="line2d_13">
      <path d="M 685.035 489.1525 
L 685.035 36.72 
" clip-path="url(#pb1e8ad4d80)" style="fill: none; stroke: #b0b0b0; stroke-width: 0.8; stroke-linecap: square"/>
     </g>
     <g id="line2d_14">
      <g>
       <use xlink:href="#m8dae9a99ae" x="685.035" y="489.1525" style="stroke: #000000; stroke-width: 0.8"/>
      </g>
     </g>
     <g id="text_7">
      <!-- 3 -->
      <g transform="translate(677.081875 515.148594) scale(0.25 -0.25)">
       <use xlink:href="#DejaVuSans-33"/>
      </g>
     </g>
    </g>
    <g id="text_8">
     <!-- $\omega$ [-] -->
     <g transform="translate(382.530076 541.351719) scale(0.25 -0.25)">
      <defs>
       <path id="DejaVuSans-Oblique-3c9" d="M 1369 -91 
Q 72 -91 434 1766 
Q 575 2500 1256 3500 
L 1875 3500 
Q 1231 2500 1088 1750 
Q 819 397 1519 397 
Q 2166 397 2478 2078 
L 3009 2078 
Q 2669 388 3316 397 
Q 4013 403 4275 1750 
Q 4419 2500 4169 3500 
L 4788 3500 
Q 5075 2500 4934 1766 
Q 4578 -94 3278 -91 
Q 2428 -88 2503 844 
Q 2194 -91 1369 -91 
z
" transform="scale(0.015625)"/>
       <path id="Calibri-20" transform="scale(0.015625)"/>
       <path id="Calibri-5b" d="M 1684 -813 
Q 1684 -916 1661 -958 
Q 1638 -1000 1594 -1000 
L 794 -1000 
Q 756 -1000 722 -989 
Q 688 -978 659 -953 
Q 631 -928 614 -886 
Q 597 -844 597 -781 
L 597 4153 
Q 597 4213 614 4255 
Q 631 4297 659 4323 
Q 688 4350 722 4361 
Q 756 4372 794 4372 
L 1594 4372 
Q 1613 4372 1630 4362 
Q 1647 4353 1659 4328 
Q 1672 4303 1678 4267 
Q 1684 4231 1684 4178 
Q 1684 4078 1661 4034 
Q 1638 3991 1594 3991 
L 1084 3991 
L 1084 -622 
L 1594 -622 
Q 1613 -622 1630 -631 
Q 1647 -641 1659 -664 
Q 1672 -688 1678 -723 
Q 1684 -759 1684 -813 
z
" transform="scale(0.015625)"/>
       <path id="Calibri-2d" d="M 1744 1578 
Q 1744 1456 1716 1409 
Q 1688 1363 1634 1363 
L 328 1363 
Q 272 1363 244 1411 
Q 216 1459 216 1578 
Q 216 1697 244 1744 
Q 272 1791 328 1791 
L 1634 1791 
Q 1659 1791 1679 1781 
Q 1700 1772 1714 1745 
Q 1728 1719 1736 1678 
Q 1744 1638 1744 1578 
z
" transform="scale(0.015625)"/>
       <path id="Calibri-5d" d="M 1369 -781 
Q 1369 -844 1351 -886 
Q 1334 -928 1306 -953 
Q 1278 -978 1242 -989 
Q 1206 -1000 1169 -1000 
L 372 -1000 
Q 328 -1000 304 -958 
Q 281 -916 281 -813 
Q 281 -759 286 -723 
Q 291 -688 303 -664 
Q 316 -641 333 -631 
Q 350 -622 372 -622 
L 881 -622 
L 881 3991 
L 372 3991 
Q 328 3991 304 4034 
Q 281 4078 281 4178 
Q 281 4231 286 4267 
Q 291 4303 303 4328 
Q 316 4353 333 4362 
Q 350 4372 372 4372 
L 1169 4372 
Q 1206 4372 1242 4361 
Q 1278 4350 1306 4323 
Q 1334 4297 1351 4255 
Q 1369 4213 1369 4153 
L 1369 -781 
z
" transform="scale(0.015625)"/>
      </defs>
      <use xlink:href="#DejaVuSans-Oblique-3c9" transform="translate(0 0.6875)"/>
      <use xlink:href="#Calibri-20" transform="translate(83.740234 0.6875)"/>
      <use xlink:href="#Calibri-5b" transform="translate(106.347656 0.6875)"/>
      <use xlink:href="#Calibri-2d" transform="translate(137.011719 0.6875)"/>
      <use xlink:href="#Calibri-5d" transform="translate(167.626953 0.6875)"/>
     </g>
    </g>
   </g>
   <g id="matplotlib.axis_2">
    <g id="ytick_1">
     <g id="line2d_15">
      <path d="M 129.775152 489.1525 
L 685.035 489.1525 
" clip-path="url(#pb1e8ad4d80)" style="fill: none; stroke: #b0b0b0; stroke-width: 0.8; stroke-linecap: square"/>
     </g>
     <g id="line2d_16">
      <defs>
       <path id="mf04bf3736c" d="M 0 0 
L -3.5 0 
" style="stroke: #000000; stroke-width: 0.8"/>
      </defs>
      <g>
       <use xlink:href="#mf04bf3736c" x="129.775152" y="489.1525" style="stroke: #000000; stroke-width: 0.8"/>
      </g>
     </g>
     <g id="text_9">
      <!-- 0.0 -->
      <g transform="translate(83.017339 498.650547) scale(0.25 -0.25)">
       <defs>
        <path id="DejaVuSans-2e" d="M 684 794 
L 1344 794 
L 1344 0 
L 684 0 
L 684 794 
z
" transform="scale(0.015625)"/>
       </defs>
       <use xlink:href="#DejaVuSans-30"/>
       <use xlink:href="#DejaVuSans-2e" x="63.623047"/>
       <use xlink:href="#DejaVuSans-30" x="95.410156"/>
      </g>
     </g>
    </g>
    <g id="ytick_2">
     <g id="line2d_17">
      <path d="M 129.775152 413.747083 
L 685.035 413.747083 
" clip-path="url(#pb1e8ad4d80)" style="fill: none; stroke: #b0b0b0; stroke-width: 0.8; stroke-linecap: square"/>
     </g>
     <g id="line2d_18">
      <g>
       <use xlink:href="#mf04bf3736c" x="129.775152" y="413.747083" style="stroke: #000000; stroke-width: 0.8"/>
      </g>
     </g>
     <g id="text_10">
      <!-- 0.2 -->
      <g transform="translate(83.017339 423.24513) scale(0.25 -0.25)">
       <use xlink:href="#DejaVuSans-30"/>
       <use xlink:href="#DejaVuSans-2e" x="63.623047"/>
       <use xlink:href="#DejaVuSans-32" x="95.410156"/>
      </g>
     </g>
    </g>
    <g id="ytick_3">
     <g id="line2d_19">
      <path d="M 129.775152 338.341667 
L 685.035 338.341667 
" clip-path="url(#pb1e8ad4d80)" style="fill: none; stroke: #b0b0b0; stroke-width: 0.8; stroke-linecap: square"/>
     </g>
     <g id="line2d_20">
      <g>
       <use xlink:href="#mf04bf3736c" x="129.775152" y="338.341667" style="stroke: #000000; stroke-width: 0.8"/>
      </g>
     </g>
     <g id="text_11">
      <!-- 0.4 -->
      <g transform="translate(83.017339 347.839714) scale(0.25 -0.25)">
       <defs>
        <path id="DejaVuSans-34" d="M 2419 4116 
L 825 1625 
L 2419 1625 
L 2419 4116 
z
M 2253 4666 
L 3047 4666 
L 3047 1625 
L 3713 1625 
L 3713 1100 
L 3047 1100 
L 3047 0 
L 2419 0 
L 2419 1100 
L 313 1100 
L 313 1709 
L 2253 4666 
z
" transform="scale(0.015625)"/>
       </defs>
       <use xlink:href="#DejaVuSans-30"/>
       <use xlink:href="#DejaVuSans-2e" x="63.623047"/>
       <use xlink:href="#DejaVuSans-34" x="95.410156"/>
      </g>
     </g>
    </g>
    <g id="ytick_4">
     <g id="line2d_21">
      <path d="M 129.775152 262.93625 
L 685.035 262.93625 
" clip-path="url(#pb1e8ad4d80)" style="fill: none; stroke: #b0b0b0; stroke-width: 0.8; stroke-linecap: square"/>
     </g>
     <g id="line2d_22">
      <g>
       <use xlink:href="#mf04bf3736c" x="129.775152" y="262.93625" style="stroke: #000000; stroke-width: 0.8"/>
      </g>
     </g>
     <g id="text_12">
      <!-- 0.6 -->
      <g transform="translate(83.017339 272.434297) scale(0.25 -0.25)">
       <defs>
        <path id="DejaVuSans-36" d="M 2113 2584 
Q 1688 2584 1439 2293 
Q 1191 2003 1191 1497 
Q 1191 994 1439 701 
Q 1688 409 2113 409 
Q 2538 409 2786 701 
Q 3034 994 3034 1497 
Q 3034 2003 2786 2293 
Q 2538 2584 2113 2584 
z
M 3366 4563 
L 3366 3988 
Q 3128 4100 2886 4159 
Q 2644 4219 2406 4219 
Q 1781 4219 1451 3797 
Q 1122 3375 1075 2522 
Q 1259 2794 1537 2939 
Q 1816 3084 2150 3084 
Q 2853 3084 3261 2657 
Q 3669 2231 3669 1497 
Q 3669 778 3244 343 
Q 2819 -91 2113 -91 
Q 1303 -91 875 529 
Q 447 1150 447 2328 
Q 447 3434 972 4092 
Q 1497 4750 2381 4750 
Q 2619 4750 2861 4703 
Q 3103 4656 3366 4563 
z
" transform="scale(0.015625)"/>
       </defs>
       <use xlink:href="#DejaVuSans-30"/>
       <use xlink:href="#DejaVuSans-2e" x="63.623047"/>
       <use xlink:href="#DejaVuSans-36" x="95.410156"/>
      </g>
     </g>
    </g>
    <g id="ytick_5">
     <g id="line2d_23">
      <path d="M 129.775152 187.530833 
L 685.035 187.530833 
" clip-path="url(#pb1e8ad4d80)" style="fill: none; stroke: #b0b0b0; stroke-width: 0.8; stroke-linecap: square"/>
     </g>
     <g id="line2d_24">
      <g>
       <use xlink:href="#mf04bf3736c" x="129.775152" y="187.530833" style="stroke: #000000; stroke-width: 0.8"/>
      </g>
     </g>
     <g id="text_13">
      <!-- 0.8 -->
      <g transform="translate(83.017339 197.02888) scale(0.25 -0.25)">
       <defs>
        <path id="DejaVuSans-38" d="M 2034 2216 
Q 1584 2216 1326 1975 
Q 1069 1734 1069 1313 
Q 1069 891 1326 650 
Q 1584 409 2034 409 
Q 2484 409 2743 651 
Q 3003 894 3003 1313 
Q 3003 1734 2745 1975 
Q 2488 2216 2034 2216 
z
M 1403 2484 
Q 997 2584 770 2862 
Q 544 3141 544 3541 
Q 544 4100 942 4425 
Q 1341 4750 2034 4750 
Q 2731 4750 3128 4425 
Q 3525 4100 3525 3541 
Q 3525 3141 3298 2862 
Q 3072 2584 2669 2484 
Q 3125 2378 3379 2068 
Q 3634 1759 3634 1313 
Q 3634 634 3220 271 
Q 2806 -91 2034 -91 
Q 1263 -91 848 271 
Q 434 634 434 1313 
Q 434 1759 690 2068 
Q 947 2378 1403 2484 
z
M 1172 3481 
Q 1172 3119 1398 2916 
Q 1625 2713 2034 2713 
Q 2441 2713 2670 2916 
Q 2900 3119 2900 3481 
Q 2900 3844 2670 4047 
Q 2441 4250 2034 4250 
Q 1625 4250 1398 4047 
Q 1172 3844 1172 3481 
z
" transform="scale(0.015625)"/>
       </defs>
       <use xlink:href="#DejaVuSans-30"/>
       <use xlink:href="#DejaVuSans-2e" x="63.623047"/>
       <use xlink:href="#DejaVuSans-38" x="95.410156"/>
      </g>
     </g>
    </g>
    <g id="ytick_6">
     <g id="line2d_25">
      <path d="M 129.775152 112.125417 
L 685.035 112.125417 
" clip-path="url(#pb1e8ad4d80)" style="fill: none; stroke: #b0b0b0; stroke-width: 0.8; stroke-linecap: square"/>
     </g>
     <g id="line2d_26">
      <g>
       <use xlink:href="#mf04bf3736c" x="129.775152" y="112.125417" style="stroke: #000000; stroke-width: 0.8"/>
      </g>
     </g>
     <g id="text_14">
      <!-- 1.0 -->
      <g transform="translate(83.017339 121.623464) scale(0.25 -0.25)">
       <use xlink:href="#DejaVuSans-31"/>
       <use xlink:href="#DejaVuSans-2e" x="63.623047"/>
       <use xlink:href="#DejaVuSans-30" x="95.410156"/>
      </g>
     </g>
    </g>
    <g id="ytick_7">
     <g id="line2d_27">
      <path d="M 129.775152 36.72 
L 685.035 36.72 
" clip-path="url(#pb1e8ad4d80)" style="fill: none; stroke: #b0b0b0; stroke-width: 0.8; stroke-linecap: square"/>
     </g>
     <g id="line2d_28">
      <g>
       <use xlink:href="#mf04bf3736c" x="129.775152" y="36.72" style="stroke: #000000; stroke-width: 0.8"/>
      </g>
     </g>
     <g id="text_15">
      <!-- 1.2 -->
      <g transform="translate(83.017339 46.218047) scale(0.25 -0.25)">
       <use xlink:href="#DejaVuSans-31"/>
       <use xlink:href="#DejaVuSans-2e" x="63.623047"/>
       <use xlink:href="#DejaVuSans-32" x="95.410156"/>
      </g>
     </g>
    </g>
    <g id="text_16">
     <!-- $\rho$($\omega$) -->
     <g transform="translate(27.017339 257.68625) scale(0.25 -0.25)">
      <defs>
       <path id="DejaVuSans-Oblique-3c1" d="M 1203 2875 
Q 1453 3194 1981 3475 
Q 2188 3584 2756 3584 
Q 3394 3584 3694 3078 
Q 3994 2572 3834 1747 
Q 3672 922 3175 415 
Q 2678 -91 2041 -91 
Q 1656 -91 1409 63 
Q 1163 213 1044 525 
L 681 -1331 
L 103 -1331 
L 697 1716 
Q 838 2438 1203 2875 
z
M 3238 1747 
Q 3359 2381 3169 2744 
Q 2978 3103 2522 3103 
Q 2066 3103 1734 2744 
Q 1403 2381 1281 1747 
Q 1156 1113 1347 750 
Q 1538 391 1994 391 
Q 2450 391 2781 750 
Q 3113 1113 3238 1747 
z
" transform="scale(0.015625)"/>
       <path id="Calibri-28" d="M 1547 4306 
Q 1250 3678 1104 3017 
Q 959 2356 959 1688 
Q 959 1016 1107 356 
Q 1256 -303 1541 -938 
Q 1556 -975 1557 -1001 
Q 1559 -1028 1537 -1045 
Q 1516 -1063 1470 -1070 
Q 1425 -1078 1347 -1078 
Q 1291 -1078 1250 -1075 
Q 1209 -1072 1179 -1062 
Q 1150 -1053 1131 -1040 
Q 1113 -1028 1103 -1013 
Q 934 -694 806 -367 
Q 678 -41 590 296 
Q 503 634 459 979 
Q 416 1325 416 1678 
Q 416 2031 464 2375 
Q 513 2719 602 3058 
Q 691 3397 819 3725 
Q 947 4053 1106 4375 
Q 1109 4388 1123 4397 
Q 1138 4406 1163 4415 
Q 1188 4425 1231 4429 
Q 1275 4434 1344 4434 
Q 1416 4434 1459 4425 
Q 1503 4416 1528 4400 
Q 1553 4384 1556 4359 
Q 1559 4334 1547 4306 
z
" transform="scale(0.015625)"/>
       <path id="Calibri-29" d="M 1522 1678 
Q 1522 1325 1478 979 
Q 1434 634 1346 296 
Q 1259 -41 1132 -367 
Q 1006 -694 838 -1013 
Q 828 -1028 809 -1040 
Q 791 -1053 761 -1062 
Q 731 -1072 690 -1075 
Q 650 -1078 594 -1078 
Q 513 -1078 467 -1070 
Q 422 -1063 401 -1045 
Q 381 -1028 382 -1001 
Q 384 -975 400 -938 
Q 688 -306 834 355 
Q 981 1016 981 1688 
Q 981 2356 834 3017 
Q 688 3678 394 4306 
Q 381 4334 384 4359 
Q 388 4384 413 4400 
Q 438 4416 481 4425 
Q 525 4434 597 4434 
Q 663 4434 706 4429 
Q 750 4425 776 4415 
Q 803 4406 815 4397 
Q 828 4388 834 4375 
Q 1156 3734 1339 3057 
Q 1522 2381 1522 1678 
z
" transform="scale(0.015625)"/>
      </defs>
      <use xlink:href="#DejaVuSans-Oblique-3c1" transform="translate(0 0.71875)"/>
      <use xlink:href="#Calibri-28" transform="translate(63.476562 0.71875)"/>
      <use xlink:href="#DejaVuSans-Oblique-3c9" transform="translate(93.798828 0.71875)"/>
      <use xlink:href="#Calibri-29" transform="translate(177.539062 0.71875)"/>
     </g>
    </g>
   </g>
   <g id="line2d_29">
    <path d="M 129.775152 485.191726 
L 155.317105 484.358547 
L 176.416979 483.455768 
L 194.185294 482.483241 
L 209.73257 481.41398 
L 223.058806 480.280428 
L 234.719263 479.073027 
L 245.2692 477.757219 
L 254.708618 476.351279 
L 263.037516 474.885804 
L 270.255894 473.405198 
L 276.919012 471.827331 
L 283.02687 470.166711 
L 288.579469 468.444876 
L 294.132067 466.482825 
L 299.129406 464.47402 
L 303.571484 462.461225 
L 308.013563 460.198636 
L 311.900382 457.981343 
L 315.787201 455.507575 
L 319.67402 452.737724 
L 323.005579 450.092377 
L 326.337138 447.159915 
L 329.668697 443.899314 
L 332.444997 440.896992 
L 335.221296 437.601191 
L 337.997595 433.974823 
L 340.773894 429.975257 
L 343.550193 425.553428 
L 346.326493 420.652815 
L 349.102792 415.208293 
L 351.323831 410.411031 
L 353.544871 405.174383 
L 355.76591 399.4498 
L 357.98695 393.183265 
L 360.207989 386.314927 
L 362.429028 378.778877 
L 364.650068 370.503147 
L 366.871107 361.410081 
L 369.092146 351.417284 
L 371.313186 340.439429 
L 373.534225 328.391304 
L 375.755265 315.192611 
L 377.976304 300.775141 
L 380.197343 285.093043 
L 382.973643 263.70268 
L 385.749942 240.43442 
L 389.081501 210.496774 
L 396.299879 144.292017 
L 398.520918 126.273182 
L 400.186698 114.444594 
L 401.852478 104.500423 
L 402.962997 99.099692 
L 404.073517 94.793115 
L 405.184037 91.658303 
L 405.739296 90.549312 
L 406.294556 89.753379 
L 406.849816 89.274291 
L 407.405076 89.11434 
L 407.960336 89.274291 
L 408.515596 89.753379 
L 409.070856 90.549312 
L 409.626115 91.658303 
L 410.736635 94.793115 
L 411.847155 99.099692 
L 412.957674 104.500423 
L 414.068194 110.901592 
L 415.733974 122.145014 
L 417.399753 135.011069 
L 419.620793 153.999886 
L 423.507612 189.812362 
L 428.50495 235.578616 
L 431.281249 259.192647 
L 434.057549 280.972775 
L 436.833848 300.775141 
L 439.054887 315.192611 
L 441.275927 328.391304 
L 443.496966 340.439429 
L 445.718006 351.417284 
L 447.939045 361.410081 
L 450.160084 370.503147 
L 452.381124 378.778877 
L 454.602163 386.314927 
L 456.823202 393.183265 
L 459.044242 399.4498 
L 461.265281 405.174383 
L 464.04158 411.649757 
L 466.81788 417.455934 
L 469.594179 422.674476 
L 472.370478 427.376269 
L 475.146777 431.622852 
L 477.923077 435.467632 
L 480.699376 438.956987 
L 483.475675 442.13123 
L 486.807234 445.57346 
L 490.138793 448.664447 
L 493.470352 451.448621 
L 496.801912 453.963893 
L 500.68873 456.60155 
L 504.575549 458.960941 
L 508.462368 461.078859 
L 512.904447 463.243293 
L 517.346526 465.171697 
L 522.343865 467.099193 
L 527.896463 468.984814 
L 533.449061 470.642156 
L 539.55692 472.243001 
L 546.220038 473.766417 
L 553.438416 475.198135 
L 561.767314 476.617463 
L 570.651471 477.907387 
L 580.646149 479.13592 
L 591.751346 480.280428 
L 604.522322 481.37117 
L 618.959078 482.379585 
L 635.616874 483.318352 
L 655.050968 484.187177 
L 678.371882 484.996588 
L 685.035 485.191726 
L 685.035 485.191726 
" clip-path="url(#pb1e8ad4d80)" style="fill: none; stroke-dasharray: 14.8,6.4; stroke-dashoffset: 0; stroke: #ff0000; stroke-width: 4"/>
   </g>
   <g id="line2d_30">
    <path d="M 129.775152 477.821935 
L 133.661971 477.23476 
L 138.65931 476.474806 
L 146.432947 475.513183 
L 149.764507 474.874523 
L 159.759184 472.395389 
L 172.53016 468.307676 
L 174.7512 467.920549 
L 178.638019 467.265243 
L 181.414318 466.539631 
L 184.190617 465.573933 
L 186.411656 464.574788 
L 191.408995 462.046046 
L 196.406334 460.161896 
L 198.627373 458.981315 
L 201.403672 457.211645 
L 204.179972 455.213802 
L 205.845751 453.729408 
L 210.28783 449.27313 
L 211.39835 448.566874 
L 212.508869 448.183587 
L 214.174649 447.963452 
L 216.395688 447.646355 
L 218.061468 447.131348 
L 219.727247 446.33549 
L 220.837767 445.528053 
L 223.614066 443.047808 
L 224.724586 442.44087 
L 226.390366 441.716409 
L 227.500885 440.932303 
L 229.166665 439.246168 
L 231.387704 436.996117 
L 233.053484 435.574519 
L 234.719263 434.527404 
L 235.829783 433.856393 
L 236.385043 433.396189 
L 236.940303 432.788677 
L 238.050822 431.07258 
L 240.271862 426.880825 
L 240.827122 426.113601 
L 241.382381 425.574696 
L 241.937641 425.262381 
L 243.048161 425.088636 
L 244.158681 424.988576 
L 248.0455 424.220438 
L 249.711279 423.983002 
L 250.821799 423.515727 
L 251.377059 423.086296 
L 251.932319 422.456007 
L 253.042838 420.544062 
L 254.153358 418.432602 
L 254.708618 417.704548 
L 255.263878 417.297558 
L 256.929657 416.830048 
L 257.484917 416.418117 
L 259.150697 414.663753 
L 259.705956 414.315528 
L 260.261216 414.182057 
L 260.816476 414.233554 
L 263.037516 414.999221 
L 263.592775 414.930521 
L 264.148035 414.588547 
L 264.703295 413.93363 
L 266.924334 410.163725 
L 267.479594 409.589708 
L 268.590114 408.972448 
L 270.811153 408.312748 
L 271.921673 407.92286 
L 272.476933 407.451869 
L 273.032193 406.613725 
L 274.142712 404.03447 
L 275.253232 401.244255 
L 275.808492 400.069855 
L 276.363752 399.193315 
L 276.919012 398.727162 
L 277.474272 398.696929 
L 278.029531 398.999327 
L 279.140051 399.848028 
L 279.695311 400.009145 
L 280.250571 399.805074 
L 280.805831 399.191359 
L 282.47161 396.516919 
L 283.02687 396.252359 
L 283.58213 396.4394 
L 284.69265 397.126399 
L 285.247909 397.113794 
L 285.803169 396.780557 
L 286.913689 395.834592 
L 287.468949 395.768843 
L 288.024209 396.126781 
L 289.134728 397.510549 
L 290.245248 399.172573 
L 291.355768 401.131061 
L 291.911028 401.848725 
L 295.797847 405.407259 
L 296.353106 405.671739 
L 296.908366 405.450502 
L 297.463626 404.566497 
L 298.574146 401.532063 
L 300.239925 396.606881 
L 300.795185 395.394955 
L 301.350445 394.805118 
L 301.905705 394.907902 
L 302.460965 395.5278 
L 303.571484 397.54178 
L 304.682004 400.471543 
L 305.792524 403.710154 
L 306.903043 406.031215 
L 307.458303 406.785858 
L 308.013563 407.15681 
L 309.124083 407.199772 
L 309.679343 407.50595 
L 310.789862 408.751838 
L 311.345122 409.171248 
L 311.900382 409.387106 
L 312.455642 409.283516 
L 314.676681 407.552858 
L 315.231941 406.564961 
L 316.342461 404.129157 
L 316.897721 403.100911 
L 317.452981 402.363264 
L 318.00824 402.437955 
L 318.5635 403.382901 
L 319.67402 405.912222 
L 321.3398 408.952882 
L 322.450319 412.166299 
L 324.116099 417.733201 
L 324.671359 418.661717 
L 325.226618 418.59951 
L 325.781878 417.724607 
L 326.337138 416.224503 
L 327.447658 412.335447 
L 328.002918 411.444818 
L 328.558178 411.619242 
L 329.113437 412.420059 
L 330.223957 415.211549 
L 331.334477 417.772081 
L 333.000256 421.346908 
L 333.555516 421.75759 
L 334.110776 421.401813 
L 334.666036 420.675603 
L 335.221296 420.186034 
L 335.776556 420.345754 
L 336.331815 421.27573 
L 336.887075 422.488395 
L 337.442335 423.317536 
L 337.997595 423.556266 
L 340.218634 422.62196 
L 340.773894 423.166586 
L 341.884414 425.494598 
L 342.439674 425.676075 
L 344.105453 422.978285 
L 344.660713 422.71034 
L 345.215973 423.285305 
L 345.771233 424.029793 
L 346.881753 424.13532 
L 347.437012 425.012577 
L 347.992272 426.286026 
L 348.547532 426.797998 
L 349.102792 425.982386 
L 349.658052 425.51934 
L 350.768571 427.309167 
L 351.323831 426.739388 
L 351.879091 425.57748 
L 352.434351 425.911623 
L 353.544871 430.688999 
L 354.100131 431.73642 
L 354.65539 431.307428 
L 355.21065 429.472354 
L 355.76591 428.501884 
L 356.87643 428.718197 
L 357.43169 429.165252 
L 357.98695 429.94198 
L 358.542209 430.308549 
L 359.652729 427.014082 
L 360.207989 427.04072 
L 360.763249 427.932731 
L 361.318509 430.506513 
L 361.873768 434.750421 
L 362.429028 436.20079 
L 362.984288 434.906401 
L 363.539548 433.071475 
L 364.094808 431.9935 
L 364.650068 432.501341 
L 365.205328 433.280727 
L 365.760587 432.263719 
L 366.871107 427.130125 
L 367.426367 425.665395 
L 367.981627 426.742206 
L 368.536887 428.818336 
L 369.092146 429.882496 
L 370.202666 426.438289 
L 370.757926 425.893092 
L 371.313186 426.85506 
L 371.868446 427.002872 
L 372.978965 424.981945 
L 373.534225 422.683928 
L 374.089485 422.237468 
L 374.644745 423.549871 
L 375.200005 429.602714 
L 375.755265 427.089819 
L 376.310524 425.814204 
L 376.865784 428.874046 
L 377.421044 430.396163 
L 377.976304 435.228985 
L 379.086824 440.794042 
L 379.642084 444.312107 
L 380.197343 445.45238 
L 380.752603 442.349098 
L 381.307863 441.285857 
L 381.863123 446.481278 
L 382.973643 443.675413 
L 383.528903 437.67647 
L 384.084162 435.104591 
L 384.639422 433.470878 
L 385.749942 422.982466 
L 386.305202 422.902135 
L 386.860462 430.702925 
L 387.415721 435.022338 
L 387.970981 432.201022 
L 388.526241 432.142108 
L 389.081501 430.011206 
L 389.636761 434.998573 
L 390.192021 436.723894 
L 390.747281 428.08409 
L 391.30254 427.223755 
L 391.8578 419.22784 
L 392.41306 419.309582 
L 392.96832 427.146551 
L 393.52358 424.094241 
L 394.07884 419.440852 
L 394.634099 427.724755 
L 395.189359 432.505345 
L 395.744619 418.670746 
L 396.299879 418.420323 
L 396.855139 424.253882 
L 397.410399 415.247229 
L 397.965659 415.024806 
L 398.520918 417.860211 
L 399.076178 430.095393 
L 399.631438 427.663503 
L 400.186698 407.931504 
L 400.741958 406.649054 
L 401.297218 406.610279 
L 401.852478 393.457603 
L 402.407737 392.420302 
L 402.962997 362.3516 
L 403.518257 374.017103 
L 404.073517 365.741417 
L 404.628777 334.118895 
L 405.184037 344.730765 
L 405.739296 288.284608 
L 406.294556 279.963163 
L 406.849816 273.925359 
L 407.405076 274.209119 
L 407.960336 292.309743 
L 408.515596 287.602843 
L 409.070856 325.42629 
L 409.626115 305.363033 
L 410.181375 344.93812 
L 410.736635 340.490936 
L 411.291895 343.635013 
L 411.847155 380.71242 
L 412.402415 384.858232 
L 412.957674 400.165839 
L 413.512934 406.29502 
L 414.068194 414.081105 
L 414.623454 412.103435 
L 415.178714 423.520143 
L 415.733974 422.190773 
L 416.289234 431.973382 
L 416.844493 414.19544 
L 417.399753 434.337773 
L 417.955013 417.688152 
L 418.510273 416.83348 
L 419.065533 417.849612 
L 419.620793 420.544258 
L 420.176052 419.662426 
L 421.286572 415.725384 
L 421.841832 428.005414 
L 422.397092 428.653274 
L 422.952352 424.085651 
L 423.507612 431.478415 
L 424.062871 434.376712 
L 424.618131 442.018897 
L 425.173391 437.487447 
L 425.728651 437.985234 
L 426.283911 438.022505 
L 426.839171 437.884357 
L 427.394431 429.69299 
L 427.94969 431.431974 
L 429.06021 425.446748 
L 429.61547 432.312535 
L 430.72599 431.910249 
L 431.281249 428.296582 
L 431.836509 429.705869 
L 432.391769 430.658837 
L 432.947029 438.36962 
L 433.502289 439.736851 
L 434.057549 439.9225 
L 434.612809 436.346554 
L 435.168068 435.23599 
L 435.723328 432.804208 
L 436.278588 432.45461 
L 436.833848 431.446144 
L 437.389108 424.514356 
L 437.944368 423.552946 
L 438.499627 425.10703 
L 439.054887 424.673767 
L 439.610147 426.461843 
L 440.165407 430.88796 
L 440.720667 436.486067 
L 441.275927 436.177859 
L 442.386446 429.336489 
L 442.941706 427.946588 
L 443.496966 428.530917 
L 444.607486 438.708969 
L 445.162746 438.148004 
L 446.273265 429.200534 
L 446.828525 428.643299 
L 447.383785 429.863726 
L 447.939045 431.790074 
L 448.494305 434.390095 
L 449.049565 434.449927 
L 449.604824 432.358996 
L 450.160084 431.246513 
L 450.715344 431.182344 
L 451.270604 431.383091 
L 451.825864 432.783221 
L 452.936384 432.213279 
L 453.491643 432.312914 
L 454.046903 431.576917 
L 455.157423 430.586547 
L 455.712683 430.828016 
L 456.267943 432.452321 
L 456.823202 432.94764 
L 457.378462 432.919018 
L 458.488982 431.791936 
L 459.044242 431.682079 
L 459.599502 431.742922 
L 460.154762 432.411586 
L 460.710021 433.732711 
L 461.265281 433.936849 
L 462.931061 431.145143 
L 464.04158 427.412328 
L 464.59684 427.510163 
L 465.1521 429.298149 
L 465.70736 430.241381 
L 466.26262 430.094726 
L 466.81788 429.26027 
L 468.483659 425.15573 
L 469.594179 425.192635 
L 470.149439 424.383827 
L 470.704699 423.370709 
L 471.815218 421.993895 
L 472.370478 421.701765 
L 472.925738 421.980152 
L 474.036258 422.834672 
L 474.591518 422.633136 
L 475.702037 421.067554 
L 476.257297 420.571742 
L 477.367817 419.286169 
L 477.923077 419.44032 
L 479.033596 420.653821 
L 479.588856 420.858468 
L 480.144116 420.625766 
L 481.809896 419.036267 
L 483.475675 415.639682 
L 484.030935 415.610811 
L 484.586195 416.086102 
L 485.141455 416.901901 
L 486.251974 419.215956 
L 486.807234 419.910421 
L 487.362494 419.3629 
L 487.917754 417.320316 
L 488.473014 414.685176 
L 489.028274 412.854729 
L 489.583533 412.264539 
L 490.138793 412.256609 
L 490.694053 412.09953 
L 491.249313 411.442449 
L 492.359833 409.549361 
L 492.915093 409.108723 
L 494.580872 408.89983 
L 495.136132 409.185522 
L 497.912431 412.232116 
L 498.467691 412.673754 
L 499.022951 412.78155 
L 499.578211 412.377152 
L 500.133471 411.36428 
L 500.68873 409.772691 
L 502.35451 403.958674 
L 503.46503 401.14594 
L 504.02029 400.146006 
L 504.575549 399.780918 
L 505.130809 400.343664 
L 505.686069 401.314347 
L 506.241329 401.840616 
L 506.796589 401.610161 
L 507.907108 400.009828 
L 509.017628 398.257711 
L 509.572888 397.272607 
L 510.128148 396.548034 
L 510.683408 396.459137 
L 511.238668 397.041193 
L 512.349187 398.756751 
L 512.904447 399.176152 
L 513.459707 399.032547 
L 514.570227 398.072378 
L 515.125487 398.320646 
L 515.680746 399.255408 
L 516.791266 401.527639 
L 519.012305 404.840334 
L 519.567565 405.772184 
L 520.122825 406.406079 
L 520.678085 406.626307 
L 521.233345 406.391082 
L 521.788605 405.756055 
L 524.009644 402.454072 
L 524.564904 402.155169 
L 525.120164 402.386102 
L 526.230683 403.862354 
L 527.341203 405.291957 
L 528.451723 406.361104 
L 529.006983 406.550279 
L 529.562243 406.369795 
L 530.117502 405.858231 
L 530.672762 405.06042 
L 533.449061 399.854594 
L 534.004321 399.288029 
L 534.559581 399.097004 
L 535.114841 399.32883 
L 536.780621 400.920657 
L 537.33588 401.231791 
L 537.89114 401.397477 
L 538.4464 401.444296 
L 539.00166 401.350569 
L 540.11218 400.741115 
L 541.777959 399.332168 
L 542.333219 399.105521 
L 542.888479 399.267794 
L 543.443739 399.824677 
L 545.664778 402.833115 
L 547.885818 405.436339 
L 548.996337 407.475428 
L 551.217377 412.222993 
L 552.327896 413.865249 
L 554.548936 416.544024 
L 555.659455 417.550487 
L 556.214715 417.85147 
L 556.769975 418.012599 
L 557.325235 418.04666 
L 557.880495 417.961326 
L 558.991014 417.449579 
L 560.656794 416.490429 
L 561.767314 416.242859 
L 562.322574 416.254223 
L 562.877833 416.416362 
L 563.433093 416.799609 
L 563.988353 417.448373 
L 564.543613 418.36552 
L 565.654133 420.822285 
L 567.319912 424.661349 
L 568.430432 426.475427 
L 569.540952 427.577716 
L 570.651471 428.267939 
L 572.317251 429.002313 
L 573.427771 429.470152 
L 574.53829 430.221742 
L 577.869849 433.248077 
L 579.535629 434.894047 
L 580.646149 436.226192 
L 583.977708 440.60012 
L 585.088227 441.473061 
L 586.198747 441.998966 
L 588.975046 442.998862 
L 590.085566 443.737798 
L 591.196086 444.798078 
L 596.193424 450.275611 
L 597.303944 451.082398 
L 598.969724 451.956569 
L 608.409141 456.206109 
L 610.63018 456.797539 
L 612.85122 457.347988 
L 614.516999 458.078508 
L 618.959078 460.374794 
L 623.401157 461.969752 
L 626.177456 463.114288 
L 640.614212 467.935666 
L 645.056291 469.528838 
L 647.83259 470.235258 
L 652.829929 471.430157 
L 655.606228 472.4236 
L 658.382527 473.358776 
L 660.603567 473.83519 
L 675.040323 476.104802 
L 682.813961 476.883075 
L 685.035 477.219423 
L 685.035 477.219423 
" clip-path="url(#pb1e8ad4d80)" style="fill: none; stroke: #0000ff; stroke-width: 1.5; stroke-linecap: square"/>
   </g>
   <g id="patch_3">
    <path d="M 129.775152 489.1525 
L 129.775152 36.72 
" style="fill: none; stroke: #000000; stroke-width: 0.8; stroke-linejoin: miter; stroke-linecap: square"/>
   </g>
   <g id="patch_4">
    <path d="M 685.035 489.1525 
L 685.035 36.72 
" style="fill: none; stroke: #000000; stroke-width: 0.8; stroke-linejoin: miter; stroke-linecap: square"/>
   </g>
   <g id="patch_5">
    <path d="M 129.775152 489.1525 
L 685.035 489.1525 
" style="fill: none; stroke: #000000; stroke-width: 0.8; stroke-linejoin: miter; stroke-linecap: square"/>
   </g>
   <g id="patch_6">
    <path d="M 129.775152 36.72 
L 685.035 36.72 
" style="fill: none; stroke: #000000; stroke-width: 0.8; stroke-linejoin: miter; stroke-linecap: square"/>
   </g>
   <g id="legend_1">
    <g id="patch_7">
     <path d="M 517.415 100.260156 
L 676.535 100.260156 
L 676.535 45.22 
L 517.415 45.22 
z
" style="fill: #ffffff; opacity: 0.8; stroke: #000000; stroke-linejoin: miter"/>
    </g>
    <g id="line2d_31">
     <path d="M 524.215 58.987344 
L 541.215 58.987344 
L 558.215 58.987344 
" style="fill: none; stroke-dasharray: 14.8,6.4; stroke-dashoffset: 0; stroke: #ff0000; stroke-width: 4"/>
    </g>
    <g id="text_17">
     <!-- $\rho_0$ -->
     <g transform="translate(571.815 64.937344) scale(0.17 -0.17)">
      <use xlink:href="#DejaVuSans-Oblique-3c1"/>
      <use xlink:href="#DejaVuSans-30" transform="translate(63.476562 -16.40625) scale(0.7)"/>
     </g>
    </g>
    <g id="line2d_32">
     <path d="M 524.215 83.974688 
L 541.215 83.974688 
L 558.215 83.974688 
" style="fill: none; stroke: #0000ff; stroke-width: 1.5; stroke-linecap: square"/>
    </g>
    <g id="text_18">
     <!-- $\it{k_bT= 0.100}$ -->
     <g transform="translate(571.815 89.924688) scale(0.17 -0.17)">
      <defs>
       <path id="DejaVuSans-Oblique-6b" d="M 1172 4863 
L 1747 4863 
L 1197 2028 
L 3169 3500 
L 3916 3500 
L 1716 1825 
L 3322 0 
L 2625 0 
L 1131 1709 
L 800 0 
L 225 0 
L 1172 4863 
z
" transform="scale(0.015625)"/>
       <path id="DejaVuSans-Oblique-62" d="M 3169 2138 
Q 3169 2591 2961 2847 
Q 2753 3103 2388 3103 
Q 2122 3103 1889 2973 
Q 1656 2844 1484 2597 
Q 1303 2338 1198 1995 
Q 1094 1653 1094 1313 
Q 1094 881 1298 636 
Q 1503 391 1863 391 
Q 2134 391 2365 517 
Q 2597 644 2772 891 
Q 2950 1147 3059 1487 
Q 3169 1828 3169 2138 
z
M 1381 2969 
Q 1594 3256 1914 3420 
Q 2234 3584 2584 3584 
Q 3122 3584 3439 3221 
Q 3756 2859 3756 2241 
Q 3756 1734 3570 1259 
Q 3384 784 3041 416 
Q 2816 172 2522 40 
Q 2228 -91 1906 -91 
Q 1566 -91 1316 65 
Q 1066 222 909 531 
L 806 0 
L 231 0 
L 1178 4863 
L 1753 4863 
L 1381 2969 
z
" transform="scale(0.015625)"/>
       <path id="DejaVuSans-Oblique-54" d="M 378 4666 
L 4325 4666 
L 4225 4134 
L 2559 4134 
L 1759 0 
L 1125 0 
L 1925 4134 
L 275 4134 
L 378 4666 
z
" transform="scale(0.015625)"/>
       <path id="DejaVuSans-3d" d="M 678 2906 
L 4684 2906 
L 4684 2381 
L 678 2381 
L 678 2906 
z
M 678 1631 
L 4684 1631 
L 4684 1100 
L 678 1100 
L 678 1631 
z
" transform="scale(0.015625)"/>
      </defs>
      <use xlink:href="#DejaVuSans-Oblique-6b" transform="translate(0 0.015625)"/>
      <use xlink:href="#DejaVuSans-Oblique-62" transform="translate(57.910156 -16.390625) scale(0.7)"/>
      <use xlink:href="#DejaVuSans-Oblique-54" transform="translate(105.078125 0.015625)"/>
      <use xlink:href="#DejaVuSans-3d" transform="translate(185.644531 0.015625)"/>
      <use xlink:href="#DejaVuSans-30" transform="translate(288.916016 0.015625)"/>
      <use xlink:href="#DejaVuSans-2e" transform="translate(352.539062 0.015625)"/>
      <use xlink:href="#DejaVuSans-31" transform="translate(384.326172 0.015625)"/>
      <use xlink:href="#DejaVuSans-30" transform="translate(447.949219 0.015625)"/>
      <use xlink:href="#DejaVuSans-30" transform="translate(511.572266 0.015625)"/>
     </g>
    </g>
   </g>
  </g>
 </g>
 <defs>
  <clipPath id="pb1e8ad4d80">
   <rect x="129.775152" y="36.72" width="555.259848" height="452.4325"/>
  </clipPath>
 </defs>
</svg>
