<?xml version="1.0" encoding="utf-8" standalone="no"?>
<!DOCTYPE svg PUBLIC "-//W3C//DTD SVG 1.1//EN"
  "http://www.w3.org/Graphics/SVG/1.1/DTD/svg11.dtd">
<svg xmlns:xlink="http://www.w3.org/1999/xlink" width="720pt" height="576pt" viewBox="0 0 720 576" xmlns="http://www.w3.org/2000/svg" version="1.1">
 <metadata>
  <rdf:RDF xmlns:dc="http://purl.org/dc/elements/1.1/" xmlns:cc="http://creativecommons.org/ns#" xmlns:rdf="http://www.w3.org/1999/02/22-rdf-syntax-ns#">
   <cc:Work>
    <dc:type rdf:resource="http://purl.org/dc/dcmitype/StillImage"/>
    <dc:date>2023-04-12T23:09:01.507989</dc:date>
    <dc:format>image/svg+xml</dc:format>
    <dc:creator>
     <cc:Agent>
      <dc:title>Matplotlib v3.7.1, https://matplotlib.org/</dc:title>
     </cc:Agent>
    </dc:creator>
   </cc:Work>
  </rdf:RDF>
 </metadata>
 <defs>
  <style type="text/css">*{stroke-linejoin: round; stroke-linecap: butt}</style>
 </defs>
 <g id="figure_1">
  <g id="patch_1">
   <path d="M 0 576 
L 720 576 
L 720 0 
L 0 0 
z
" style="fill: #ffffff"/>
  </g>
  <g id="axes_1">
   <g id="patch_2">
    <path d="M 129.775152 489.1525 
L 685.035 489.1525 
L 685.035 36.72 
L 129.775152 36.72 
z
" style="fill: #ffffff"/>
   </g>
   <g id="matplotlib.axis_1">
    <g id="xtick_1">
     <g id="line2d_1">
      <path d="M 129.775152 489.1525 
L 129.775152 36.72 
" clip-path="url(#p810e7825de)" style="fill: none; stroke: #b0b0b0; stroke-width: 0.8; stroke-linecap: square"/>
     </g>
     <g id="line2d_2">
      <defs>
       <path id="mb2e0448e79" d="M 0 0 
L 0 3.5 
" style="stroke: #000000; stroke-width: 0.8"/>
      </defs>
      <g>
       <use xlink:href="#mb2e0448e79" x="129.775152" y="489.1525" style="stroke: #000000; stroke-width: 0.8"/>
      </g>
     </g>
     <g id="text_1">
      <!-- −3 -->
      <g transform="translate(111.347418 515.148594) scale(0.25 -0.25)">
       <defs>
        <path id="DejaVuSans-2212" d="M 678 2272 
L 4684 2272 
L 4684 1741 
L 678 1741 
L 678 2272 
z
" transform="scale(0.015625)"/>
        <path id="DejaVuSans-33" d="M 2597 2516 
Q 3050 2419 3304 2112 
Q 3559 1806 3559 1356 
Q 3559 666 3084 287 
Q 2609 -91 1734 -91 
Q 1441 -91 1130 -33 
Q 819 25 488 141 
L 488 750 
Q 750 597 1062 519 
Q 1375 441 1716 441 
Q 2309 441 2620 675 
Q 2931 909 2931 1356 
Q 2931 1769 2642 2001 
Q 2353 2234 1838 2234 
L 1294 2234 
L 1294 2753 
L 1863 2753 
Q 2328 2753 2575 2939 
Q 2822 3125 2822 3475 
Q 2822 3834 2567 4026 
Q 2313 4219 1838 4219 
Q 1578 4219 1281 4162 
Q 984 4106 628 3988 
L 628 4550 
Q 988 4650 1302 4700 
Q 1616 4750 1894 4750 
Q 2613 4750 3031 4423 
Q 3450 4097 3450 3541 
Q 3450 3153 3228 2886 
Q 3006 2619 2597 2516 
z
" transform="scale(0.015625)"/>
       </defs>
       <use xlink:href="#DejaVuSans-2212"/>
       <use xlink:href="#DejaVuSans-33" x="83.789062"/>
      </g>
     </g>
    </g>
    <g id="xtick_2">
     <g id="line2d_3">
      <path d="M 222.31846 489.1525 
L 222.31846 36.72 
" clip-path="url(#p810e7825de)" style="fill: none; stroke: #b0b0b0; stroke-width: 0.8; stroke-linecap: square"/>
     </g>
     <g id="line2d_4">
      <g>
       <use xlink:href="#mb2e0448e79" x="222.31846" y="489.1525" style="stroke: #000000; stroke-width: 0.8"/>
      </g>
     </g>
     <g id="text_2">
      <!-- −2 -->
      <g transform="translate(203.890726 515.148594) scale(0.25 -0.25)">
       <defs>
        <path id="DejaVuSans-32" d="M 1228 531 
L 3431 531 
L 3431 0 
L 469 0 
L 469 531 
Q 828 903 1448 1529 
Q 2069 2156 2228 2338 
Q 2531 2678 2651 2914 
Q 2772 3150 2772 3378 
Q 2772 3750 2511 3984 
Q 2250 4219 1831 4219 
Q 1534 4219 1204 4116 
Q 875 4013 500 3803 
L 500 4441 
Q 881 4594 1212 4672 
Q 1544 4750 1819 4750 
Q 2544 4750 2975 4387 
Q 3406 4025 3406 3419 
Q 3406 3131 3298 2873 
Q 3191 2616 2906 2266 
Q 2828 2175 2409 1742 
Q 1991 1309 1228 531 
z
" transform="scale(0.015625)"/>
       </defs>
       <use xlink:href="#DejaVuSans-2212"/>
       <use xlink:href="#DejaVuSans-32" x="83.789062"/>
      </g>
     </g>
    </g>
    <g id="xtick_3">
     <g id="line2d_5">
      <path d="M 314.861768 489.1525 
L 314.861768 36.72 
" clip-path="url(#p810e7825de)" style="fill: none; stroke: #b0b0b0; stroke-width: 0.8; stroke-linecap: square"/>
     </g>
     <g id="line2d_6">
      <g>
       <use xlink:href="#mb2e0448e79" x="314.861768" y="489.1525" style="stroke: #000000; stroke-width: 0.8"/>
      </g>
     </g>
     <g id="text_3">
      <!-- −1 -->
      <g transform="translate(296.434034 515.148594) scale(0.25 -0.25)">
       <defs>
        <path id="DejaVuSans-31" d="M 794 531 
L 1825 531 
L 1825 4091 
L 703 3866 
L 703 4441 
L 1819 4666 
L 2450 4666 
L 2450 531 
L 3481 531 
L 3481 0 
L 794 0 
L 794 531 
z
" transform="scale(0.015625)"/>
       </defs>
       <use xlink:href="#DejaVuSans-2212"/>
       <use xlink:href="#DejaVuSans-31" x="83.789062"/>
      </g>
     </g>
    </g>
    <g id="xtick_4">
     <g id="line2d_7">
      <path d="M 407.405076 489.1525 
L 407.405076 36.72 
" clip-path="url(#p810e7825de)" style="fill: none; stroke: #b0b0b0; stroke-width: 0.8; stroke-linecap: square"/>
     </g>
     <g id="line2d_8">
      <g>
       <use xlink:href="#mb2e0448e79" x="407.405076" y="489.1525" style="stroke: #000000; stroke-width: 0.8"/>
      </g>
     </g>
     <g id="text_4">
      <!-- 0 -->
      <g transform="translate(399.451951 515.148594) scale(0.25 -0.25)">
       <defs>
        <path id="DejaVuSans-30" d="M 2034 4250 
Q 1547 4250 1301 3770 
Q 1056 3291 1056 2328 
Q 1056 1369 1301 889 
Q 1547 409 2034 409 
Q 2525 409 2770 889 
Q 3016 1369 3016 2328 
Q 3016 3291 2770 3770 
Q 2525 4250 2034 4250 
z
M 2034 4750 
Q 2819 4750 3233 4129 
Q 3647 3509 3647 2328 
Q 3647 1150 3233 529 
Q 2819 -91 2034 -91 
Q 1250 -91 836 529 
Q 422 1150 422 2328 
Q 422 3509 836 4129 
Q 1250 4750 2034 4750 
z
" transform="scale(0.015625)"/>
       </defs>
       <use xlink:href="#DejaVuSans-30"/>
      </g>
     </g>
    </g>
    <g id="xtick_5">
     <g id="line2d_9">
      <path d="M 499.948384 489.1525 
L 499.948384 36.72 
" clip-path="url(#p810e7825de)" style="fill: none; stroke: #b0b0b0; stroke-width: 0.8; stroke-linecap: square"/>
     </g>
     <g id="line2d_10">
      <g>
       <use xlink:href="#mb2e0448e79" x="499.948384" y="489.1525" style="stroke: #000000; stroke-width: 0.8"/>
      </g>
     </g>
     <g id="text_5">
      <!-- 1 -->
      <g transform="translate(491.995259 515.148594) scale(0.25 -0.25)">
       <use xlink:href="#DejaVuSans-31"/>
      </g>
     </g>
    </g>
    <g id="xtick_6">
     <g id="line2d_11">
      <path d="M 592.491692 489.1525 
L 592.491692 36.72 
" clip-path="url(#p810e7825de)" style="fill: none; stroke: #b0b0b0; stroke-width: 0.8; stroke-linecap: square"/>
     </g>
     <g id="line2d_12">
      <g>
       <use xlink:href="#mb2e0448e79" x="592.491692" y="489.1525" style="stroke: #000000; stroke-width: 0.8"/>
      </g>
     </g>
     <g id="text_6">
      <!-- 2 -->
      <g transform="translate(584.538567 515.148594) scale(0.25 -0.25)">
       <use xlink:href="#DejaVuSans-32"/>
      </g>
     </g>
    </g>
    <g id="xtick_7">
     <g id="line2d_13">
      <path d="M 685.035 489.1525 
L 685.035 36.72 
" clip-path="url(#p810e7825de)" style="fill: none; stroke: #b0b0b0; stroke-width: 0.8; stroke-linecap: square"/>
     </g>
     <g id="line2d_14">
      <g>
       <use xlink:href="#mb2e0448e79" x="685.035" y="489.1525" style="stroke: #000000; stroke-width: 0.8"/>
      </g>
     </g>
     <g id="text_7">
      <!-- 3 -->
      <g transform="translate(677.081875 515.148594) scale(0.25 -0.25)">
       <use xlink:href="#DejaVuSans-33"/>
      </g>
     </g>
    </g>
    <g id="text_8">
     <!-- $\omega$ [-] -->
     <g transform="translate(382.530076 541.351719) scale(0.25 -0.25)">
      <defs>
       <path id="DejaVuSans-Oblique-3c9" d="M 1369 -91 
Q 72 -91 434 1766 
Q 575 2500 1256 3500 
L 1875 3500 
Q 1231 2500 1088 1750 
Q 819 397 1519 397 
Q 2166 397 2478 2078 
L 3009 2078 
Q 2669 388 3316 397 
Q 4013 403 4275 1750 
Q 4419 2500 4169 3500 
L 4788 3500 
Q 5075 2500 4934 1766 
Q 4578 -94 3278 -91 
Q 2428 -88 2503 844 
Q 2194 -91 1369 -91 
z
" transform="scale(0.015625)"/>
       <path id="Calibri-20" transform="scale(0.015625)"/>
       <path id="Calibri-5b" d="M 1684 -813 
Q 1684 -916 1661 -958 
Q 1638 -1000 1594 -1000 
L 794 -1000 
Q 756 -1000 722 -989 
Q 688 -978 659 -953 
Q 631 -928 614 -886 
Q 597 -844 597 -781 
L 597 4153 
Q 597 4213 614 4255 
Q 631 4297 659 4323 
Q 688 4350 722 4361 
Q 756 4372 794 4372 
L 1594 4372 
Q 1613 4372 1630 4362 
Q 1647 4353 1659 4328 
Q 1672 4303 1678 4267 
Q 1684 4231 1684 4178 
Q 1684 4078 1661 4034 
Q 1638 3991 1594 3991 
L 1084 3991 
L 1084 -622 
L 1594 -622 
Q 1613 -622 1630 -631 
Q 1647 -641 1659 -664 
Q 1672 -688 1678 -723 
Q 1684 -759 1684 -813 
z
" transform="scale(0.015625)"/>
       <path id="Calibri-2d" d="M 1744 1578 
Q 1744 1456 1716 1409 
Q 1688 1363 1634 1363 
L 328 1363 
Q 272 1363 244 1411 
Q 216 1459 216 1578 
Q 216 1697 244 1744 
Q 272 1791 328 1791 
L 1634 1791 
Q 1659 1791 1679 1781 
Q 1700 1772 1714 1745 
Q 1728 1719 1736 1678 
Q 1744 1638 1744 1578 
z
" transform="scale(0.015625)"/>
       <path id="Calibri-5d" d="M 1369 -781 
Q 1369 -844 1351 -886 
Q 1334 -928 1306 -953 
Q 1278 -978 1242 -989 
Q 1206 -1000 1169 -1000 
L 372 -1000 
Q 328 -1000 304 -958 
Q 281 -916 281 -813 
Q 281 -759 286 -723 
Q 291 -688 303 -664 
Q 316 -641 333 -631 
Q 350 -622 372 -622 
L 881 -622 
L 881 3991 
L 372 3991 
Q 328 3991 304 4034 
Q 281 4078 281 4178 
Q 281 4231 286 4267 
Q 291 4303 303 4328 
Q 316 4353 333 4362 
Q 350 4372 372 4372 
L 1169 4372 
Q 1206 4372 1242 4361 
Q 1278 4350 1306 4323 
Q 1334 4297 1351 4255 
Q 1369 4213 1369 4153 
L 1369 -781 
z
" transform="scale(0.015625)"/>
      </defs>
      <use xlink:href="#DejaVuSans-Oblique-3c9" transform="translate(0 0.6875)"/>
      <use xlink:href="#Calibri-20" transform="translate(83.740234 0.6875)"/>
      <use xlink:href="#Calibri-5b" transform="translate(106.347656 0.6875)"/>
      <use xlink:href="#Calibri-2d" transform="translate(137.011719 0.6875)"/>
      <use xlink:href="#Calibri-5d" transform="translate(167.626953 0.6875)"/>
     </g>
    </g>
   </g>
   <g id="matplotlib.axis_2">
    <g id="ytick_1">
     <g id="line2d_15">
      <path d="M 129.775152 489.1525 
L 685.035 489.1525 
" clip-path="url(#p810e7825de)" style="fill: none; stroke: #b0b0b0; stroke-width: 0.8; stroke-linecap: square"/>
     </g>
     <g id="line2d_16">
      <defs>
       <path id="m16f0e842eb" d="M 0 0 
L -3.5 0 
" style="stroke: #000000; stroke-width: 0.8"/>
      </defs>
      <g>
       <use xlink:href="#m16f0e842eb" x="129.775152" y="489.1525" style="stroke: #000000; stroke-width: 0.8"/>
      </g>
     </g>
     <g id="text_9">
      <!-- 0.0 -->
      <g transform="translate(83.017339 498.650547) scale(0.25 -0.25)">
       <defs>
        <path id="DejaVuSans-2e" d="M 684 794 
L 1344 794 
L 1344 0 
L 684 0 
L 684 794 
z
" transform="scale(0.015625)"/>
       </defs>
       <use xlink:href="#DejaVuSans-30"/>
       <use xlink:href="#DejaVuSans-2e" x="63.623047"/>
       <use xlink:href="#DejaVuSans-30" x="95.410156"/>
      </g>
     </g>
    </g>
    <g id="ytick_2">
     <g id="line2d_17">
      <path d="M 129.775152 413.747083 
L 685.035 413.747083 
" clip-path="url(#p810e7825de)" style="fill: none; stroke: #b0b0b0; stroke-width: 0.8; stroke-linecap: square"/>
     </g>
     <g id="line2d_18">
      <g>
       <use xlink:href="#m16f0e842eb" x="129.775152" y="413.747083" style="stroke: #000000; stroke-width: 0.8"/>
      </g>
     </g>
     <g id="text_10">
      <!-- 0.2 -->
      <g transform="translate(83.017339 423.24513) scale(0.25 -0.25)">
       <use xlink:href="#DejaVuSans-30"/>
       <use xlink:href="#DejaVuSans-2e" x="63.623047"/>
       <use xlink:href="#DejaVuSans-32" x="95.410156"/>
      </g>
     </g>
    </g>
    <g id="ytick_3">
     <g id="line2d_19">
      <path d="M 129.775152 338.341667 
L 685.035 338.341667 
" clip-path="url(#p810e7825de)" style="fill: none; stroke: #b0b0b0; stroke-width: 0.8; stroke-linecap: square"/>
     </g>
     <g id="line2d_20">
      <g>
       <use xlink:href="#m16f0e842eb" x="129.775152" y="338.341667" style="stroke: #000000; stroke-width: 0.8"/>
      </g>
     </g>
     <g id="text_11">
      <!-- 0.4 -->
      <g transform="translate(83.017339 347.839714) scale(0.25 -0.25)">
       <defs>
        <path id="DejaVuSans-34" d="M 2419 4116 
L 825 1625 
L 2419 1625 
L 2419 4116 
z
M 2253 4666 
L 3047 4666 
L 3047 1625 
L 3713 1625 
L 3713 1100 
L 3047 1100 
L 3047 0 
L 2419 0 
L 2419 1100 
L 313 1100 
L 313 1709 
L 2253 4666 
z
" transform="scale(0.015625)"/>
       </defs>
       <use xlink:href="#DejaVuSans-30"/>
       <use xlink:href="#DejaVuSans-2e" x="63.623047"/>
       <use xlink:href="#DejaVuSans-34" x="95.410156"/>
      </g>
     </g>
    </g>
    <g id="ytick_4">
     <g id="line2d_21">
      <path d="M 129.775152 262.93625 
L 685.035 262.93625 
" clip-path="url(#p810e7825de)" style="fill: none; stroke: #b0b0b0; stroke-width: 0.8; stroke-linecap: square"/>
     </g>
     <g id="line2d_22">
      <g>
       <use xlink:href="#m16f0e842eb" x="129.775152" y="262.93625" style="stroke: #000000; stroke-width: 0.8"/>
      </g>
     </g>
     <g id="text_12">
      <!-- 0.6 -->
      <g transform="translate(83.017339 272.434297) scale(0.25 -0.25)">
       <defs>
        <path id="DejaVuSans-36" d="M 2113 2584 
Q 1688 2584 1439 2293 
Q 1191 2003 1191 1497 
Q 1191 994 1439 701 
Q 1688 409 2113 409 
Q 2538 409 2786 701 
Q 3034 994 3034 1497 
Q 3034 2003 2786 2293 
Q 2538 2584 2113 2584 
z
M 3366 4563 
L 3366 3988 
Q 3128 4100 2886 4159 
Q 2644 4219 2406 4219 
Q 1781 4219 1451 3797 
Q 1122 3375 1075 2522 
Q 1259 2794 1537 2939 
Q 1816 3084 2150 3084 
Q 2853 3084 3261 2657 
Q 3669 2231 3669 1497 
Q 3669 778 3244 343 
Q 2819 -91 2113 -91 
Q 1303 -91 875 529 
Q 447 1150 447 2328 
Q 447 3434 972 4092 
Q 1497 4750 2381 4750 
Q 2619 4750 2861 4703 
Q 3103 4656 3366 4563 
z
" transform="scale(0.015625)"/>
       </defs>
       <use xlink:href="#DejaVuSans-30"/>
       <use xlink:href="#DejaVuSans-2e" x="63.623047"/>
       <use xlink:href="#DejaVuSans-36" x="95.410156"/>
      </g>
     </g>
    </g>
    <g id="ytick_5">
     <g id="line2d_23">
      <path d="M 129.775152 187.530833 
L 685.035 187.530833 
" clip-path="url(#p810e7825de)" style="fill: none; stroke: #b0b0b0; stroke-width: 0.8; stroke-linecap: square"/>
     </g>
     <g id="line2d_24">
      <g>
       <use xlink:href="#m16f0e842eb" x="129.775152" y="187.530833" style="stroke: #000000; stroke-width: 0.8"/>
      </g>
     </g>
     <g id="text_13">
      <!-- 0.8 -->
      <g transform="translate(83.017339 197.02888) scale(0.25 -0.25)">
       <defs>
        <path id="DejaVuSans-38" d="M 2034 2216 
Q 1584 2216 1326 1975 
Q 1069 1734 1069 1313 
Q 1069 891 1326 650 
Q 1584 409 2034 409 
Q 2484 409 2743 651 
Q 3003 894 3003 1313 
Q 3003 1734 2745 1975 
Q 2488 2216 2034 2216 
z
M 1403 2484 
Q 997 2584 770 2862 
Q 544 3141 544 3541 
Q 544 4100 942 4425 
Q 1341 4750 2034 4750 
Q 2731 4750 3128 4425 
Q 3525 4100 3525 3541 
Q 3525 3141 3298 2862 
Q 3072 2584 2669 2484 
Q 3125 2378 3379 2068 
Q 3634 1759 3634 1313 
Q 3634 634 3220 271 
Q 2806 -91 2034 -91 
Q 1263 -91 848 271 
Q 434 634 434 1313 
Q 434 1759 690 2068 
Q 947 2378 1403 2484 
z
M 1172 3481 
Q 1172 3119 1398 2916 
Q 1625 2713 2034 2713 
Q 2441 2713 2670 2916 
Q 2900 3119 2900 3481 
Q 2900 3844 2670 4047 
Q 2441 4250 2034 4250 
Q 1625 4250 1398 4047 
Q 1172 3844 1172 3481 
z
" transform="scale(0.015625)"/>
       </defs>
       <use xlink:href="#DejaVuSans-30"/>
       <use xlink:href="#DejaVuSans-2e" x="63.623047"/>
       <use xlink:href="#DejaVuSans-38" x="95.410156"/>
      </g>
     </g>
    </g>
    <g id="ytick_6">
     <g id="line2d_25">
      <path d="M 129.775152 112.125417 
L 685.035 112.125417 
" clip-path="url(#p810e7825de)" style="fill: none; stroke: #b0b0b0; stroke-width: 0.8; stroke-linecap: square"/>
     </g>
     <g id="line2d_26">
      <g>
       <use xlink:href="#m16f0e842eb" x="129.775152" y="112.125417" style="stroke: #000000; stroke-width: 0.8"/>
      </g>
     </g>
     <g id="text_14">
      <!-- 1.0 -->
      <g transform="translate(83.017339 121.623464) scale(0.25 -0.25)">
       <use xlink:href="#DejaVuSans-31"/>
       <use xlink:href="#DejaVuSans-2e" x="63.623047"/>
       <use xlink:href="#DejaVuSans-30" x="95.410156"/>
      </g>
     </g>
    </g>
    <g id="ytick_7">
     <g id="line2d_27">
      <path d="M 129.775152 36.72 
L 685.035 36.72 
" clip-path="url(#p810e7825de)" style="fill: none; stroke: #b0b0b0; stroke-width: 0.8; stroke-linecap: square"/>
     </g>
     <g id="line2d_28">
      <g>
       <use xlink:href="#m16f0e842eb" x="129.775152" y="36.72" style="stroke: #000000; stroke-width: 0.8"/>
      </g>
     </g>
     <g id="text_15">
      <!-- 1.2 -->
      <g transform="translate(83.017339 46.218047) scale(0.25 -0.25)">
       <use xlink:href="#DejaVuSans-31"/>
       <use xlink:href="#DejaVuSans-2e" x="63.623047"/>
       <use xlink:href="#DejaVuSans-32" x="95.410156"/>
      </g>
     </g>
    </g>
    <g id="text_16">
     <!-- $\rho$($\omega$) -->
     <g transform="translate(27.017339 257.68625) scale(0.25 -0.25)">
      <defs>
       <path id="DejaVuSans-Oblique-3c1" d="M 1203 2875 
Q 1453 3194 1981 3475 
Q 2188 3584 2756 3584 
Q 3394 3584 3694 3078 
Q 3994 2572 3834 1747 
Q 3672 922 3175 415 
Q 2678 -91 2041 -91 
Q 1656 -91 1409 63 
Q 1163 213 1044 525 
L 681 -1331 
L 103 -1331 
L 697 1716 
Q 838 2438 1203 2875 
z
M 3238 1747 
Q 3359 2381 3169 2744 
Q 2978 3103 2522 3103 
Q 2066 3103 1734 2744 
Q 1403 2381 1281 1747 
Q 1156 1113 1347 750 
Q 1538 391 1994 391 
Q 2450 391 2781 750 
Q 3113 1113 3238 1747 
z
" transform="scale(0.015625)"/>
       <path id="Calibri-28" d="M 1547 4306 
Q 1250 3678 1104 3017 
Q 959 2356 959 1688 
Q 959 1016 1107 356 
Q 1256 -303 1541 -938 
Q 1556 -975 1557 -1001 
Q 1559 -1028 1537 -1045 
Q 1516 -1063 1470 -1070 
Q 1425 -1078 1347 -1078 
Q 1291 -1078 1250 -1075 
Q 1209 -1072 1179 -1062 
Q 1150 -1053 1131 -1040 
Q 1113 -1028 1103 -1013 
Q 934 -694 806 -367 
Q 678 -41 590 296 
Q 503 634 459 979 
Q 416 1325 416 1678 
Q 416 2031 464 2375 
Q 513 2719 602 3058 
Q 691 3397 819 3725 
Q 947 4053 1106 4375 
Q 1109 4388 1123 4397 
Q 1138 4406 1163 4415 
Q 1188 4425 1231 4429 
Q 1275 4434 1344 4434 
Q 1416 4434 1459 4425 
Q 1503 4416 1528 4400 
Q 1553 4384 1556 4359 
Q 1559 4334 1547 4306 
z
" transform="scale(0.015625)"/>
       <path id="Calibri-29" d="M 1522 1678 
Q 1522 1325 1478 979 
Q 1434 634 1346 296 
Q 1259 -41 1132 -367 
Q 1006 -694 838 -1013 
Q 828 -1028 809 -1040 
Q 791 -1053 761 -1062 
Q 731 -1072 690 -1075 
Q 650 -1078 594 -1078 
Q 513 -1078 467 -1070 
Q 422 -1063 401 -1045 
Q 381 -1028 382 -1001 
Q 384 -975 400 -938 
Q 688 -306 834 355 
Q 981 1016 981 1688 
Q 981 2356 834 3017 
Q 688 3678 394 4306 
Q 381 4334 384 4359 
Q 388 4384 413 4400 
Q 438 4416 481 4425 
Q 525 4434 597 4434 
Q 663 4434 706 4429 
Q 750 4425 776 4415 
Q 803 4406 815 4397 
Q 828 4388 834 4375 
Q 1156 3734 1339 3057 
Q 1522 2381 1522 1678 
z
" transform="scale(0.015625)"/>
      </defs>
      <use xlink:href="#DejaVuSans-Oblique-3c1" transform="translate(0 0.71875)"/>
      <use xlink:href="#Calibri-28" transform="translate(63.476562 0.71875)"/>
      <use xlink:href="#DejaVuSans-Oblique-3c9" transform="translate(93.798828 0.71875)"/>
      <use xlink:href="#Calibri-29" transform="translate(177.539062 0.71875)"/>
     </g>
    </g>
   </g>
   <g id="line2d_29">
    <path d="M 129.775152 485.191726 
L 155.317105 484.358547 
L 176.416979 483.455768 
L 194.185294 482.483241 
L 209.73257 481.41398 
L 223.058806 480.280428 
L 234.719263 479.073027 
L 245.2692 477.757219 
L 254.708618 476.351279 
L 263.037516 474.885804 
L 270.255894 473.405198 
L 276.919012 471.827331 
L 283.02687 470.166711 
L 288.579469 468.444876 
L 294.132067 466.482825 
L 299.129406 464.47402 
L 303.571484 462.461225 
L 308.013563 460.198636 
L 311.900382 457.981343 
L 315.787201 455.507575 
L 319.67402 452.737724 
L 323.005579 450.092377 
L 326.337138 447.159915 
L 329.668697 443.899314 
L 332.444997 440.896992 
L 335.221296 437.601191 
L 337.997595 433.974823 
L 340.773894 429.975257 
L 343.550193 425.553428 
L 346.326493 420.652815 
L 349.102792 415.208293 
L 351.323831 410.411031 
L 353.544871 405.174383 
L 355.76591 399.4498 
L 357.98695 393.183265 
L 360.207989 386.314927 
L 362.429028 378.778877 
L 364.650068 370.503147 
L 366.871107 361.410081 
L 369.092146 351.417284 
L 371.313186 340.439429 
L 373.534225 328.391304 
L 375.755265 315.192611 
L 377.976304 300.775141 
L 380.197343 285.093043 
L 382.973643 263.70268 
L 385.749942 240.43442 
L 389.081501 210.496774 
L 396.299879 144.292017 
L 398.520918 126.273182 
L 400.186698 114.444594 
L 401.852478 104.500423 
L 402.962997 99.099692 
L 404.073517 94.793115 
L 405.184037 91.658303 
L 405.739296 90.549312 
L 406.294556 89.753379 
L 406.849816 89.274291 
L 407.405076 89.11434 
L 407.960336 89.274291 
L 408.515596 89.753379 
L 409.070856 90.549312 
L 409.626115 91.658303 
L 410.736635 94.793115 
L 411.847155 99.099692 
L 412.957674 104.500423 
L 414.068194 110.901592 
L 415.733974 122.145014 
L 417.399753 135.011069 
L 419.620793 153.999886 
L 423.507612 189.812362 
L 428.50495 235.578616 
L 431.281249 259.192647 
L 434.057549 280.972775 
L 436.833848 300.775141 
L 439.054887 315.192611 
L 441.275927 328.391304 
L 443.496966 340.439429 
L 445.718006 351.417284 
L 447.939045 361.410081 
L 450.160084 370.503147 
L 452.381124 378.778877 
L 454.602163 386.314927 
L 456.823202 393.183265 
L 459.044242 399.4498 
L 461.265281 405.174383 
L 464.04158 411.649757 
L 466.81788 417.455934 
L 469.594179 422.674476 
L 472.370478 427.376269 
L 475.146777 431.622852 
L 477.923077 435.467632 
L 480.699376 438.956987 
L 483.475675 442.13123 
L 486.807234 445.57346 
L 490.138793 448.664447 
L 493.470352 451.448621 
L 496.801912 453.963893 
L 500.68873 456.60155 
L 504.575549 458.960941 
L 508.462368 461.078859 
L 512.904447 463.243293 
L 517.346526 465.171697 
L 522.343865 467.099193 
L 527.896463 468.984814 
L 533.449061 470.642156 
L 539.55692 472.243001 
L 546.220038 473.766417 
L 553.438416 475.198135 
L 561.767314 476.617463 
L 570.651471 477.907387 
L 580.646149 479.13592 
L 591.751346 480.280428 
L 604.522322 481.37117 
L 618.959078 482.379585 
L 635.616874 483.318352 
L 655.050968 484.187177 
L 678.371882 484.996588 
L 685.035 485.191726 
L 685.035 485.191726 
" clip-path="url(#p810e7825de)" style="fill: none; stroke-dasharray: 14.8,6.4; stroke-dashoffset: 0; stroke: #ff0000; stroke-width: 4"/>
   </g>
   <g id="line2d_30">
    <path d="M 129.775152 475.62972 
L 133.106711 475.133294 
L 135.88301 474.467306 
L 143.101388 472.367923 
L 145.322428 472.093984 
L 150.319766 471.782927 
L 152.540806 471.262157 
L 155.872365 470.454947 
L 158.648664 470.106808 
L 163.646003 469.641553 
L 167.532822 468.898529 
L 173.64068 467.358425 
L 181.969578 464.439078 
L 185.301137 463.030181 
L 188.077436 462.21962 
L 189.743216 461.696449 
L 190.853735 461.155054 
L 191.964255 460.401914 
L 193.630035 458.960874 
L 195.295814 457.21513 
L 198.072113 454.212875 
L 199.182633 453.386477 
L 200.293153 452.940498 
L 204.179972 452.087088 
L 206.401011 451.229093 
L 210.84309 449.886744 
L 213.064129 448.76011 
L 218.061468 445.951069 
L 221.948287 443.527229 
L 223.614066 442.639781 
L 228.611405 439.440161 
L 229.721925 438.394543 
L 231.387704 436.443842 
L 234.164003 432.597028 
L 235.274523 431.641168 
L 236.385043 431.143594 
L 238.050822 430.622567 
L 239.161342 429.949642 
L 240.271862 429.121018 
L 240.827122 428.822601 
L 241.382381 428.680193 
L 242.492901 428.773499 
L 243.048161 428.826475 
L 243.603421 428.735717 
L 244.158681 428.432313 
L 244.713941 427.910251 
L 246.37972 425.685702 
L 247.49024 424.339735 
L 248.600759 423.247919 
L 249.711279 422.527596 
L 250.821799 422.350142 
L 251.932319 422.221394 
L 252.487578 421.968716 
L 253.598098 421.066638 
L 254.708618 420.102046 
L 255.263878 419.78924 
L 255.819137 419.641808 
L 256.374397 419.65952 
L 258.040177 420.077031 
L 259.150697 419.986728 
L 260.261216 419.845657 
L 261.926996 419.892879 
L 262.482256 419.642356 
L 263.037516 419.0301 
L 265.258555 415.430686 
L 265.813815 415.19507 
L 266.924334 415.179052 
L 267.479594 415.229233 
L 268.034854 415.412272 
L 268.590114 415.846055 
L 269.145374 416.561452 
L 270.811153 419.201188 
L 271.366413 419.822922 
L 271.921673 420.220754 
L 272.476933 420.350582 
L 273.032193 420.168946 
L 273.587453 419.697161 
L 274.697972 418.415573 
L 275.253232 417.983891 
L 275.808492 417.905573 
L 276.363752 418.199815 
L 277.474272 419.190989 
L 278.029531 419.423472 
L 278.584791 419.328267 
L 280.250571 418.403548 
L 280.805831 418.412861 
L 283.02687 419.199904 
L 283.58213 419.597882 
L 284.69265 420.690291 
L 285.247909 420.993101 
L 285.803169 420.992053 
L 286.358429 420.733511 
L 287.468949 419.710318 
L 288.579469 418.697792 
L 289.134728 418.616461 
L 289.689988 418.957209 
L 290.800508 420.314171 
L 291.355768 420.636498 
L 291.911028 420.347424 
L 293.021547 418.867319 
L 293.576807 418.643357 
L 294.132067 419.081896 
L 295.242587 421.140009 
L 295.797847 422.149469 
L 296.353106 422.887448 
L 296.908366 423.332086 
L 297.463626 423.609586 
L 298.018886 424.023569 
L 298.574146 424.812985 
L 299.684665 426.761695 
L 301.350445 429.012005 
L 301.905705 429.536559 
L 302.460965 429.632588 
L 304.126744 429.183947 
L 304.682004 429.077702 
L 305.237264 428.728782 
L 306.347784 427.307227 
L 307.458303 425.387072 
L 308.568823 423.056105 
L 309.124083 422.372646 
L 309.679343 422.219887 
L 310.234603 422.478518 
L 311.345122 423.359536 
L 311.900382 423.40577 
L 312.455642 423.137779 
L 314.676681 421.177448 
L 315.231941 419.811754 
L 316.342461 415.839873 
L 316.897721 414.569507 
L 317.452981 414.223302 
L 318.00824 414.564693 
L 318.5635 415.287293 
L 319.11876 416.56274 
L 321.3398 423.620524 
L 323.560839 430.203739 
L 324.116099 431.171341 
L 324.671359 431.336994 
L 325.226618 430.916666 
L 326.337138 429.378756 
L 327.447658 427.487404 
L 328.002918 427.150729 
L 328.558178 427.676069 
L 329.668697 429.586343 
L 331.334477 430.192471 
L 331.889737 429.642512 
L 332.444997 428.313078 
L 333.000256 427.370544 
L 334.110776 427.013393 
L 334.666036 425.861844 
L 335.221296 424.383454 
L 335.776556 424.121008 
L 336.887075 426.148887 
L 337.997595 427.388234 
L 338.552855 427.374759 
L 339.663375 425.827012 
L 340.218634 425.265217 
L 340.773894 425.021291 
L 341.329154 425.232516 
L 341.884414 424.571334 
L 342.439674 424.085011 
L 342.994934 424.922323 
L 343.550193 426.196806 
L 344.660713 428.312914 
L 346.326493 436.983814 
L 346.881753 437.528359 
L 347.437012 437.043837 
L 348.547532 434.825936 
L 349.102792 434.415472 
L 349.658052 434.649783 
L 350.213312 435.081846 
L 350.768571 435.322998 
L 351.323831 435.380497 
L 351.879091 435.869002 
L 352.989611 438.465239 
L 353.544871 437.83652 
L 354.65539 431.921399 
L 355.21065 431.443935 
L 355.76591 432.678275 
L 356.87643 435.7725 
L 357.43169 436.612216 
L 357.98695 436.455989 
L 358.542209 437.446866 
L 359.097469 438.727591 
L 359.652729 438.476262 
L 360.207989 436.763178 
L 361.318509 436.121827 
L 361.873768 433.201088 
L 362.429028 431.814884 
L 362.984288 432.993245 
L 363.539548 434.584769 
L 364.094808 436.78852 
L 364.650068 439.496775 
L 365.205328 441.342572 
L 365.760587 441.03916 
L 366.315847 441.198229 
L 366.871107 443.954409 
L 367.426367 445.945353 
L 367.981627 446.008208 
L 368.536887 442.092625 
L 369.092146 437.00938 
L 369.647406 435.860228 
L 370.202666 438.445704 
L 370.757926 441.827873 
L 371.313186 442.599326 
L 372.423706 437.775519 
L 373.534225 429.709894 
L 374.089485 429.673946 
L 374.644745 430.729208 
L 375.755265 427.994386 
L 376.310524 425.927613 
L 377.421044 426.587846 
L 377.976304 433.485226 
L 378.531564 438.057212 
L 379.086824 436.827353 
L 379.642084 432.931562 
L 380.197343 425.657876 
L 380.752603 427.586578 
L 381.307863 425.96969 
L 381.863123 433.199974 
L 382.418383 438.48121 
L 382.973643 440.921008 
L 383.528903 439.280488 
L 384.084162 433.278493 
L 384.639422 425.395271 
L 385.194682 424.429513 
L 385.749942 424.257609 
L 386.305202 423.928939 
L 386.860462 408.905603 
L 387.415721 415.621113 
L 387.970981 433.472432 
L 388.526241 427.876746 
L 389.081501 430.346454 
L 389.636761 438.472362 
L 390.192021 436.444583 
L 390.747281 418.284049 
L 391.30254 420.768067 
L 391.8578 417.277781 
L 392.41306 415.800833 
L 392.96832 399.784777 
L 393.52358 408.167913 
L 394.07884 408.541894 
L 394.634099 397.780961 
L 395.189359 398.036125 
L 395.744619 367.431787 
L 396.299879 353.024836 
L 396.855139 342.956992 
L 397.410399 411.755671 
L 397.965659 406.018446 
L 399.076178 370.730133 
L 399.631438 371.981465 
L 400.186698 363.07404 
L 400.741958 336.545459 
L 401.297218 331.871975 
L 401.852478 295.89868 
L 402.407737 348.897777 
L 403.518257 219.340572 
L 404.073517 221.520386 
L 404.628777 308.996284 
L 405.184037 195.150248 
L 405.739296 212.423249 
L 406.294556 125.768662 
L 406.849816 99.18647 
L 407.405076 92.796256 
L 407.960336 135.483386 
L 408.515596 123.616398 
L 409.070856 124.100728 
L 410.181375 194.929356 
L 411.847155 329.313738 
L 412.402415 318.508208 
L 412.957674 315.272243 
L 413.512934 307.534798 
L 414.068194 345.801254 
L 414.623454 357.17728 
L 415.178714 350.563939 
L 415.733974 355.222345 
L 416.289234 374.978049 
L 416.844493 384.561589 
L 417.399753 396.386612 
L 417.955013 399.222897 
L 418.510273 369.245866 
L 419.620793 404.765428 
L 420.176052 402.596012 
L 420.731312 405.152886 
L 421.286572 412.559246 
L 421.841832 407.93628 
L 422.397092 406.000158 
L 422.952352 388.047057 
L 424.618131 428.882875 
L 425.173391 429.408643 
L 425.728651 422.849179 
L 426.283911 423.197985 
L 426.839171 424.455061 
L 427.394431 433.15583 
L 427.94969 428.154593 
L 428.50495 429.833478 
L 429.06021 430.209835 
L 429.61547 424.044581 
L 430.17073 428.093904 
L 430.72599 434.653419 
L 431.281249 437.96444 
L 431.836509 434.373592 
L 432.391769 436.106559 
L 432.947029 442.070685 
L 433.502289 442.200377 
L 434.057549 436.081454 
L 434.612809 432.87059 
L 435.168068 433.599378 
L 435.723328 437.886786 
L 436.278588 438.35134 
L 436.833848 439.841349 
L 437.389108 439.052249 
L 437.944368 434.503594 
L 438.499627 432.924203 
L 439.054887 434.686143 
L 439.610147 438.063689 
L 440.165407 438.938035 
L 440.720667 436.755561 
L 441.275927 436.166661 
L 442.386446 433.15188 
L 442.941706 434.788742 
L 443.496966 435.565658 
L 444.052226 434.74659 
L 444.607486 435.07676 
L 445.162746 436.879788 
L 446.273265 436.160871 
L 446.828525 440.325332 
L 447.383785 443.618201 
L 448.494305 446.79468 
L 449.049565 446.10441 
L 449.604824 444.977104 
L 450.160084 445.174138 
L 450.715344 446.431184 
L 451.270604 446.085068 
L 452.381124 444.03901 
L 452.936384 442.904239 
L 453.491643 441.397969 
L 454.046903 439.554037 
L 454.602163 438.779696 
L 455.157423 439.406122 
L 455.712683 439.794942 
L 456.823202 435.747418 
L 457.378462 434.874022 
L 457.933722 435.622775 
L 458.488982 436.780704 
L 459.044242 437.213855 
L 459.599502 436.705127 
L 460.154762 433.984361 
L 461.265281 422.663054 
L 461.820541 422.737682 
L 462.931061 427.876389 
L 463.486321 428.988874 
L 464.04158 428.427803 
L 464.59684 428.049465 
L 465.1521 428.236842 
L 465.70736 428.595766 
L 466.81788 427.455122 
L 467.37314 426.786179 
L 468.483659 424.436409 
L 469.038919 425.135539 
L 469.594179 428.040478 
L 470.149439 431.652347 
L 470.704699 434.270347 
L 471.259959 435.36073 
L 471.815218 435.786453 
L 472.370478 435.80445 
L 472.925738 435.364247 
L 474.591518 432.370787 
L 475.146777 432.14988 
L 475.702037 432.416398 
L 476.257297 432.887643 
L 476.812557 432.799382 
L 478.478337 431.715846 
L 479.588856 430.387661 
L 480.144116 430.19431 
L 481.254636 431.035217 
L 481.809896 431.5435 
L 482.365155 432.357866 
L 482.920415 433.437127 
L 483.475675 434.178623 
L 484.030935 434.122529 
L 485.141455 433.068764 
L 485.696715 433.060628 
L 486.251974 433.453946 
L 486.807234 433.618953 
L 487.362494 433.406705 
L 487.917754 433.513024 
L 489.028274 434.412012 
L 490.138793 434.485092 
L 491.249313 434.325233 
L 491.804573 434.150899 
L 492.359833 433.670019 
L 494.025612 430.962247 
L 494.580872 430.900112 
L 495.136132 431.231098 
L 495.691392 431.245932 
L 496.246652 430.225596 
L 496.801912 428.018934 
L 497.912431 422.70323 
L 498.467691 421.578848 
L 499.022951 421.661667 
L 500.133471 422.652376 
L 500.68873 422.963488 
L 501.24399 423.048015 
L 501.79925 422.759694 
L 502.35451 421.976955 
L 502.90977 420.922945 
L 503.46503 420.277768 
L 504.02029 420.493254 
L 506.796589 424.309966 
L 507.351849 424.503511 
L 507.907108 424.201546 
L 509.572888 422.471388 
L 510.128148 421.733267 
L 510.683408 421.219315 
L 511.238668 421.341995 
L 512.349187 422.758734 
L 512.904447 423.049306 
L 513.459707 422.782498 
L 515.125487 421.036242 
L 516.236006 420.351184 
L 516.791266 420.142661 
L 519.012305 419.728483 
L 519.567565 419.467438 
L 520.122825 419.395006 
L 520.678085 419.630377 
L 521.788605 420.333502 
L 522.343865 420.367111 
L 523.454384 419.9984 
L 524.564904 419.181824 
L 526.230683 417.744721 
L 527.341203 417.160682 
L 527.896463 416.89427 
L 528.451723 416.464381 
L 529.006983 415.796232 
L 530.117502 413.749251 
L 530.672762 412.643113 
L 531.228022 411.886871 
L 531.783282 411.75446 
L 532.338542 412.297193 
L 533.449061 414.513827 
L 534.559581 416.670624 
L 535.114841 417.37922 
L 535.670101 417.798516 
L 536.225361 417.99381 
L 539.00166 418.397392 
L 539.55692 418.252352 
L 540.11218 417.822786 
L 541.222699 416.633911 
L 541.777959 416.252916 
L 542.333219 416.143696 
L 543.998999 416.401418 
L 544.554258 416.147211 
L 545.109518 415.647578 
L 547.330558 412.898908 
L 548.441077 411.12555 
L 549.551597 409.258024 
L 550.106857 408.672942 
L 550.662117 408.419903 
L 551.217377 408.499715 
L 551.772636 408.972944 
L 552.327896 409.926232 
L 552.883156 411.34516 
L 555.104196 418.04237 
L 556.214715 420.305672 
L 556.769975 421.107514 
L 557.325235 421.684899 
L 557.880495 422.060224 
L 558.991014 422.405397 
L 560.101534 422.378624 
L 561.212054 422.003943 
L 562.322574 421.620068 
L 562.877833 421.593355 
L 563.433093 421.721437 
L 563.988353 422.006305 
L 565.098873 422.962112 
L 566.764652 424.571856 
L 568.985692 426.183736 
L 569.540952 426.502155 
L 570.096211 426.67458 
L 570.651471 426.663861 
L 572.872511 426.100258 
L 573.98303 426.324259 
L 575.09355 426.838566 
L 581.756668 430.904361 
L 583.422448 431.696075 
L 587.864527 434.221869 
L 590.085566 435.184867 
L 591.196086 435.961808 
L 592.306605 437.04403 
L 594.527645 439.684902 
L 596.748684 442.818069 
L 597.859204 444.308341 
L 598.969724 445.385312 
L 600.080243 445.988611 
L 602.856542 447.051419 
L 605.077582 448.381668 
L 610.074921 451.517983 
L 611.7407 452.695648 
L 613.40648 453.528273 
L 615.627519 454.34827 
L 620.069598 455.55949 
L 621.180117 456.229651 
L 625.622196 459.497955 
L 626.732716 459.888937 
L 629.509015 460.539533 
L 630.619535 461.057062 
L 635.061614 463.570161 
L 637.837913 464.631755 
L 646.166811 467.467208 
L 647.83259 467.820215 
L 651.719409 468.487052 
L 653.940449 469.14961 
L 660.048307 471.308687 
L 664.490386 472.544426 
L 668.377205 473.678186 
L 671.153504 474.439282 
L 674.485063 475.081653 
L 681.148181 476.320574 
L 685.035 476.986756 
L 685.035 476.986756 
" clip-path="url(#p810e7825de)" style="fill: none; stroke: #0000ff; stroke-width: 1.5; stroke-linecap: square"/>
   </g>
   <g id="patch_3">
    <path d="M 129.775152 489.1525 
L 129.775152 36.72 
" style="fill: none; stroke: #000000; stroke-width: 0.8; stroke-linejoin: miter; stroke-linecap: square"/>
   </g>
   <g id="patch_4">
    <path d="M 685.035 489.1525 
L 685.035 36.72 
" style="fill: none; stroke: #000000; stroke-width: 0.8; stroke-linejoin: miter; stroke-linecap: square"/>
   </g>
   <g id="patch_5">
    <path d="M 129.775152 489.1525 
L 685.035 489.1525 
" style="fill: none; stroke: #000000; stroke-width: 0.8; stroke-linejoin: miter; stroke-linecap: square"/>
   </g>
   <g id="patch_6">
    <path d="M 129.775152 36.72 
L 685.035 36.72 
" style="fill: none; stroke: #000000; stroke-width: 0.8; stroke-linejoin: miter; stroke-linecap: square"/>
   </g>
   <g id="legend_1">
    <g id="patch_7">
     <path d="M 517.415 100.260156 
L 676.535 100.260156 
L 676.535 45.22 
L 517.415 45.22 
z
" style="fill: #ffffff; opacity: 0.8; stroke: #000000; stroke-linejoin: miter"/>
    </g>
    <g id="line2d_31">
     <path d="M 524.215 58.987344 
L 541.215 58.987344 
L 558.215 58.987344 
" style="fill: none; stroke-dasharray: 14.8,6.4; stroke-dashoffset: 0; stroke: #ff0000; stroke-width: 4"/>
    </g>
    <g id="text_17">
     <!-- $\rho_0$ -->
     <g transform="translate(571.815 64.937344) scale(0.17 -0.17)">
      <use xlink:href="#DejaVuSans-Oblique-3c1"/>
      <use xlink:href="#DejaVuSans-30" transform="translate(63.476562 -16.40625) scale(0.7)"/>
     </g>
    </g>
    <g id="line2d_32">
     <path d="M 524.215 83.974688 
L 541.215 83.974688 
L 558.215 83.974688 
" style="fill: none; stroke: #0000ff; stroke-width: 1.5; stroke-linecap: square"/>
    </g>
    <g id="text_18">
     <!-- $\it{k_bT= 0.001}$ -->
     <g transform="translate(571.815 89.924688) scale(0.17 -0.17)">
      <defs>
       <path id="DejaVuSans-Oblique-6b" d="M 1172 4863 
L 1747 4863 
L 1197 2028 
L 3169 3500 
L 3916 3500 
L 1716 1825 
L 3322 0 
L 2625 0 
L 1131 1709 
L 800 0 
L 225 0 
L 1172 4863 
z
" transform="scale(0.015625)"/>
       <path id="DejaVuSans-Oblique-62" d="M 3169 2138 
Q 3169 2591 2961 2847 
Q 2753 3103 2388 3103 
Q 2122 3103 1889 2973 
Q 1656 2844 1484 2597 
Q 1303 2338 1198 1995 
Q 1094 1653 1094 1313 
Q 1094 881 1298 636 
Q 1503 391 1863 391 
Q 2134 391 2365 517 
Q 2597 644 2772 891 
Q 2950 1147 3059 1487 
Q 3169 1828 3169 2138 
z
M 1381 2969 
Q 1594 3256 1914 3420 
Q 2234 3584 2584 3584 
Q 3122 3584 3439 3221 
Q 3756 2859 3756 2241 
Q 3756 1734 3570 1259 
Q 3384 784 3041 416 
Q 2816 172 2522 40 
Q 2228 -91 1906 -91 
Q 1566 -91 1316 65 
Q 1066 222 909 531 
L 806 0 
L 231 0 
L 1178 4863 
L 1753 4863 
L 1381 2969 
z
" transform="scale(0.015625)"/>
       <path id="DejaVuSans-Oblique-54" d="M 378 4666 
L 4325 4666 
L 4225 4134 
L 2559 4134 
L 1759 0 
L 1125 0 
L 1925 4134 
L 275 4134 
L 378 4666 
z
" transform="scale(0.015625)"/>
       <path id="DejaVuSans-3d" d="M 678 2906 
L 4684 2906 
L 4684 2381 
L 678 2381 
L 678 2906 
z
M 678 1631 
L 4684 1631 
L 4684 1100 
L 678 1100 
L 678 1631 
z
" transform="scale(0.015625)"/>
      </defs>
      <use xlink:href="#DejaVuSans-Oblique-6b" transform="translate(0 0.015625)"/>
      <use xlink:href="#DejaVuSans-Oblique-62" transform="translate(57.910156 -16.390625) scale(0.7)"/>
      <use xlink:href="#DejaVuSans-Oblique-54" transform="translate(105.078125 0.015625)"/>
      <use xlink:href="#DejaVuSans-3d" transform="translate(185.644531 0.015625)"/>
      <use xlink:href="#DejaVuSans-30" transform="translate(288.916016 0.015625)"/>
      <use xlink:href="#DejaVuSans-2e" transform="translate(352.539062 0.015625)"/>
      <use xlink:href="#DejaVuSans-30" transform="translate(384.326172 0.015625)"/>
      <use xlink:href="#DejaVuSans-30" transform="translate(447.949219 0.015625)"/>
      <use xlink:href="#DejaVuSans-31" transform="translate(511.572266 0.015625)"/>
     </g>
    </g>
   </g>
  </g>
 </g>
 <defs>
  <clipPath id="p810e7825de">
   <rect x="129.775152" y="36.72" width="555.259848" height="452.4325"/>
  </clipPath>
 </defs>
</svg>
