<?xml version="1.0" encoding="utf-8" standalone="no"?>
<!DOCTYPE svg PUBLIC "-//W3C//DTD SVG 1.1//EN"
  "http://www.w3.org/Graphics/SVG/1.1/DTD/svg11.dtd">
<svg xmlns:xlink="http://www.w3.org/1999/xlink" width="720pt" height="576pt" viewBox="0 0 720 576" xmlns="http://www.w3.org/2000/svg" version="1.1">
 <metadata>
  <rdf:RDF xmlns:dc="http://purl.org/dc/elements/1.1/" xmlns:cc="http://creativecommons.org/ns#" xmlns:rdf="http://www.w3.org/1999/02/22-rdf-syntax-ns#">
   <cc:Work>
    <dc:type rdf:resource="http://purl.org/dc/dcmitype/StillImage"/>
    <dc:date>2023-04-13T05:38:47.444264</dc:date>
    <dc:format>image/svg+xml</dc:format>
    <dc:creator>
     <cc:Agent>
      <dc:title>Matplotlib v3.7.1, https://matplotlib.org/</dc:title>
     </cc:Agent>
    </dc:creator>
   </cc:Work>
  </rdf:RDF>
 </metadata>
 <defs>
  <style type="text/css">*{stroke-linejoin: round; stroke-linecap: butt}</style>
 </defs>
 <g id="figure_1">
  <g id="patch_1">
   <path d="M 0 576 
L 720 576 
L 720 0 
L 0 0 
z
" style="fill: #ffffff"/>
  </g>
  <g id="axes_1">
   <g id="patch_2">
    <path d="M 129.775152 489.1525 
L 685.035 489.1525 
L 685.035 36.72 
L 129.775152 36.72 
z
" style="fill: #ffffff"/>
   </g>
   <g id="matplotlib.axis_1">
    <g id="xtick_1">
     <g id="line2d_1">
      <path d="M 129.775152 489.1525 
L 129.775152 36.72 
" clip-path="url(#p72d0d949ea)" style="fill: none; stroke: #b0b0b0; stroke-width: 0.8; stroke-linecap: square"/>
     </g>
     <g id="line2d_2">
      <defs>
       <path id="m17ac9863ae" d="M 0 0 
L 0 3.5 
" style="stroke: #000000; stroke-width: 0.8"/>
      </defs>
      <g>
       <use xlink:href="#m17ac9863ae" x="129.775152" y="489.1525" style="stroke: #000000; stroke-width: 0.8"/>
      </g>
     </g>
     <g id="text_1">
      <!-- −3 -->
      <g transform="translate(111.347418 515.148594) scale(0.25 -0.25)">
       <defs>
        <path id="DejaVuSans-2212" d="M 678 2272 
L 4684 2272 
L 4684 1741 
L 678 1741 
L 678 2272 
z
" transform="scale(0.015625)"/>
        <path id="DejaVuSans-33" d="M 2597 2516 
Q 3050 2419 3304 2112 
Q 3559 1806 3559 1356 
Q 3559 666 3084 287 
Q 2609 -91 1734 -91 
Q 1441 -91 1130 -33 
Q 819 25 488 141 
L 488 750 
Q 750 597 1062 519 
Q 1375 441 1716 441 
Q 2309 441 2620 675 
Q 2931 909 2931 1356 
Q 2931 1769 2642 2001 
Q 2353 2234 1838 2234 
L 1294 2234 
L 1294 2753 
L 1863 2753 
Q 2328 2753 2575 2939 
Q 2822 3125 2822 3475 
Q 2822 3834 2567 4026 
Q 2313 4219 1838 4219 
Q 1578 4219 1281 4162 
Q 984 4106 628 3988 
L 628 4550 
Q 988 4650 1302 4700 
Q 1616 4750 1894 4750 
Q 2613 4750 3031 4423 
Q 3450 4097 3450 3541 
Q 3450 3153 3228 2886 
Q 3006 2619 2597 2516 
z
" transform="scale(0.015625)"/>
       </defs>
       <use xlink:href="#DejaVuSans-2212"/>
       <use xlink:href="#DejaVuSans-33" x="83.789062"/>
      </g>
     </g>
    </g>
    <g id="xtick_2">
     <g id="line2d_3">
      <path d="M 222.31846 489.1525 
L 222.31846 36.72 
" clip-path="url(#p72d0d949ea)" style="fill: none; stroke: #b0b0b0; stroke-width: 0.8; stroke-linecap: square"/>
     </g>
     <g id="line2d_4">
      <g>
       <use xlink:href="#m17ac9863ae" x="222.31846" y="489.1525" style="stroke: #000000; stroke-width: 0.8"/>
      </g>
     </g>
     <g id="text_2">
      <!-- −2 -->
      <g transform="translate(203.890726 515.148594) scale(0.25 -0.25)">
       <defs>
        <path id="DejaVuSans-32" d="M 1228 531 
L 3431 531 
L 3431 0 
L 469 0 
L 469 531 
Q 828 903 1448 1529 
Q 2069 2156 2228 2338 
Q 2531 2678 2651 2914 
Q 2772 3150 2772 3378 
Q 2772 3750 2511 3984 
Q 2250 4219 1831 4219 
Q 1534 4219 1204 4116 
Q 875 4013 500 3803 
L 500 4441 
Q 881 4594 1212 4672 
Q 1544 4750 1819 4750 
Q 2544 4750 2975 4387 
Q 3406 4025 3406 3419 
Q 3406 3131 3298 2873 
Q 3191 2616 2906 2266 
Q 2828 2175 2409 1742 
Q 1991 1309 1228 531 
z
" transform="scale(0.015625)"/>
       </defs>
       <use xlink:href="#DejaVuSans-2212"/>
       <use xlink:href="#DejaVuSans-32" x="83.789062"/>
      </g>
     </g>
    </g>
    <g id="xtick_3">
     <g id="line2d_5">
      <path d="M 314.861768 489.1525 
L 314.861768 36.72 
" clip-path="url(#p72d0d949ea)" style="fill: none; stroke: #b0b0b0; stroke-width: 0.8; stroke-linecap: square"/>
     </g>
     <g id="line2d_6">
      <g>
       <use xlink:href="#m17ac9863ae" x="314.861768" y="489.1525" style="stroke: #000000; stroke-width: 0.8"/>
      </g>
     </g>
     <g id="text_3">
      <!-- −1 -->
      <g transform="translate(296.434034 515.148594) scale(0.25 -0.25)">
       <defs>
        <path id="DejaVuSans-31" d="M 794 531 
L 1825 531 
L 1825 4091 
L 703 3866 
L 703 4441 
L 1819 4666 
L 2450 4666 
L 2450 531 
L 3481 531 
L 3481 0 
L 794 0 
L 794 531 
z
" transform="scale(0.015625)"/>
       </defs>
       <use xlink:href="#DejaVuSans-2212"/>
       <use xlink:href="#DejaVuSans-31" x="83.789062"/>
      </g>
     </g>
    </g>
    <g id="xtick_4">
     <g id="line2d_7">
      <path d="M 407.405076 489.1525 
L 407.405076 36.72 
" clip-path="url(#p72d0d949ea)" style="fill: none; stroke: #b0b0b0; stroke-width: 0.8; stroke-linecap: square"/>
     </g>
     <g id="line2d_8">
      <g>
       <use xlink:href="#m17ac9863ae" x="407.405076" y="489.1525" style="stroke: #000000; stroke-width: 0.8"/>
      </g>
     </g>
     <g id="text_4">
      <!-- 0 -->
      <g transform="translate(399.451951 515.148594) scale(0.25 -0.25)">
       <defs>
        <path id="DejaVuSans-30" d="M 2034 4250 
Q 1547 4250 1301 3770 
Q 1056 3291 1056 2328 
Q 1056 1369 1301 889 
Q 1547 409 2034 409 
Q 2525 409 2770 889 
Q 3016 1369 3016 2328 
Q 3016 3291 2770 3770 
Q 2525 4250 2034 4250 
z
M 2034 4750 
Q 2819 4750 3233 4129 
Q 3647 3509 3647 2328 
Q 3647 1150 3233 529 
Q 2819 -91 2034 -91 
Q 1250 -91 836 529 
Q 422 1150 422 2328 
Q 422 3509 836 4129 
Q 1250 4750 2034 4750 
z
" transform="scale(0.015625)"/>
       </defs>
       <use xlink:href="#DejaVuSans-30"/>
      </g>
     </g>
    </g>
    <g id="xtick_5">
     <g id="line2d_9">
      <path d="M 499.948384 489.1525 
L 499.948384 36.72 
" clip-path="url(#p72d0d949ea)" style="fill: none; stroke: #b0b0b0; stroke-width: 0.8; stroke-linecap: square"/>
     </g>
     <g id="line2d_10">
      <g>
       <use xlink:href="#m17ac9863ae" x="499.948384" y="489.1525" style="stroke: #000000; stroke-width: 0.8"/>
      </g>
     </g>
     <g id="text_5">
      <!-- 1 -->
      <g transform="translate(491.995259 515.148594) scale(0.25 -0.25)">
       <use xlink:href="#DejaVuSans-31"/>
      </g>
     </g>
    </g>
    <g id="xtick_6">
     <g id="line2d_11">
      <path d="M 592.491692 489.1525 
L 592.491692 36.72 
" clip-path="url(#p72d0d949ea)" style="fill: none; stroke: #b0b0b0; stroke-width: 0.8; stroke-linecap: square"/>
     </g>
     <g id="line2d_12">
      <g>
       <use xlink:href="#m17ac9863ae" x="592.491692" y="489.1525" style="stroke: #000000; stroke-width: 0.8"/>
      </g>
     </g>
     <g id="text_6">
      <!-- 2 -->
      <g transform="translate(584.538567 515.148594) scale(0.25 -0.25)">
       <use xlink:href="#DejaVuSans-32"/>
      </g>
     </g>
    </g>
    <g id="xtick_7">
     <g id="line2d_13">
      <path d="M 685.035 489.1525 
L 685.035 36.72 
" clip-path="url(#p72d0d949ea)" style="fill: none; stroke: #b0b0b0; stroke-width: 0.8; stroke-linecap: square"/>
     </g>
     <g id="line2d_14">
      <g>
       <use xlink:href="#m17ac9863ae" x="685.035" y="489.1525" style="stroke: #000000; stroke-width: 0.8"/>
      </g>
     </g>
     <g id="text_7">
      <!-- 3 -->
      <g transform="translate(677.081875 515.148594) scale(0.25 -0.25)">
       <use xlink:href="#DejaVuSans-33"/>
      </g>
     </g>
    </g>
    <g id="text_8">
     <!-- $\omega$ [-] -->
     <g transform="translate(382.530076 541.351719) scale(0.25 -0.25)">
      <defs>
       <path id="DejaVuSans-Oblique-3c9" d="M 1369 -91 
Q 72 -91 434 1766 
Q 575 2500 1256 3500 
L 1875 3500 
Q 1231 2500 1088 1750 
Q 819 397 1519 397 
Q 2166 397 2478 2078 
L 3009 2078 
Q 2669 388 3316 397 
Q 4013 403 4275 1750 
Q 4419 2500 4169 3500 
L 4788 3500 
Q 5075 2500 4934 1766 
Q 4578 -94 3278 -91 
Q 2428 -88 2503 844 
Q 2194 -91 1369 -91 
z
" transform="scale(0.015625)"/>
       <path id="Calibri-20" transform="scale(0.015625)"/>
       <path id="Calibri-5b" d="M 1684 -813 
Q 1684 -916 1661 -958 
Q 1638 -1000 1594 -1000 
L 794 -1000 
Q 756 -1000 722 -989 
Q 688 -978 659 -953 
Q 631 -928 614 -886 
Q 597 -844 597 -781 
L 597 4153 
Q 597 4213 614 4255 
Q 631 4297 659 4323 
Q 688 4350 722 4361 
Q 756 4372 794 4372 
L 1594 4372 
Q 1613 4372 1630 4362 
Q 1647 4353 1659 4328 
Q 1672 4303 1678 4267 
Q 1684 4231 1684 4178 
Q 1684 4078 1661 4034 
Q 1638 3991 1594 3991 
L 1084 3991 
L 1084 -622 
L 1594 -622 
Q 1613 -622 1630 -631 
Q 1647 -641 1659 -664 
Q 1672 -688 1678 -723 
Q 1684 -759 1684 -813 
z
" transform="scale(0.015625)"/>
       <path id="Calibri-2d" d="M 1744 1578 
Q 1744 1456 1716 1409 
Q 1688 1363 1634 1363 
L 328 1363 
Q 272 1363 244 1411 
Q 216 1459 216 1578 
Q 216 1697 244 1744 
Q 272 1791 328 1791 
L 1634 1791 
Q 1659 1791 1679 1781 
Q 1700 1772 1714 1745 
Q 1728 1719 1736 1678 
Q 1744 1638 1744 1578 
z
" transform="scale(0.015625)"/>
       <path id="Calibri-5d" d="M 1369 -781 
Q 1369 -844 1351 -886 
Q 1334 -928 1306 -953 
Q 1278 -978 1242 -989 
Q 1206 -1000 1169 -1000 
L 372 -1000 
Q 328 -1000 304 -958 
Q 281 -916 281 -813 
Q 281 -759 286 -723 
Q 291 -688 303 -664 
Q 316 -641 333 -631 
Q 350 -622 372 -622 
L 881 -622 
L 881 3991 
L 372 3991 
Q 328 3991 304 4034 
Q 281 4078 281 4178 
Q 281 4231 286 4267 
Q 291 4303 303 4328 
Q 316 4353 333 4362 
Q 350 4372 372 4372 
L 1169 4372 
Q 1206 4372 1242 4361 
Q 1278 4350 1306 4323 
Q 1334 4297 1351 4255 
Q 1369 4213 1369 4153 
L 1369 -781 
z
" transform="scale(0.015625)"/>
      </defs>
      <use xlink:href="#DejaVuSans-Oblique-3c9" transform="translate(0 0.6875)"/>
      <use xlink:href="#Calibri-20" transform="translate(83.740234 0.6875)"/>
      <use xlink:href="#Calibri-5b" transform="translate(106.347656 0.6875)"/>
      <use xlink:href="#Calibri-2d" transform="translate(137.011719 0.6875)"/>
      <use xlink:href="#Calibri-5d" transform="translate(167.626953 0.6875)"/>
     </g>
    </g>
   </g>
   <g id="matplotlib.axis_2">
    <g id="ytick_1">
     <g id="line2d_15">
      <path d="M 129.775152 489.1525 
L 685.035 489.1525 
" clip-path="url(#p72d0d949ea)" style="fill: none; stroke: #b0b0b0; stroke-width: 0.8; stroke-linecap: square"/>
     </g>
     <g id="line2d_16">
      <defs>
       <path id="mbdd64a5360" d="M 0 0 
L -3.5 0 
" style="stroke: #000000; stroke-width: 0.8"/>
      </defs>
      <g>
       <use xlink:href="#mbdd64a5360" x="129.775152" y="489.1525" style="stroke: #000000; stroke-width: 0.8"/>
      </g>
     </g>
     <g id="text_9">
      <!-- 0.0 -->
      <g transform="translate(83.017339 498.650547) scale(0.25 -0.25)">
       <defs>
        <path id="DejaVuSans-2e" d="M 684 794 
L 1344 794 
L 1344 0 
L 684 0 
L 684 794 
z
" transform="scale(0.015625)"/>
       </defs>
       <use xlink:href="#DejaVuSans-30"/>
       <use xlink:href="#DejaVuSans-2e" x="63.623047"/>
       <use xlink:href="#DejaVuSans-30" x="95.410156"/>
      </g>
     </g>
    </g>
    <g id="ytick_2">
     <g id="line2d_17">
      <path d="M 129.775152 413.747083 
L 685.035 413.747083 
" clip-path="url(#p72d0d949ea)" style="fill: none; stroke: #b0b0b0; stroke-width: 0.8; stroke-linecap: square"/>
     </g>
     <g id="line2d_18">
      <g>
       <use xlink:href="#mbdd64a5360" x="129.775152" y="413.747083" style="stroke: #000000; stroke-width: 0.8"/>
      </g>
     </g>
     <g id="text_10">
      <!-- 0.2 -->
      <g transform="translate(83.017339 423.24513) scale(0.25 -0.25)">
       <use xlink:href="#DejaVuSans-30"/>
       <use xlink:href="#DejaVuSans-2e" x="63.623047"/>
       <use xlink:href="#DejaVuSans-32" x="95.410156"/>
      </g>
     </g>
    </g>
    <g id="ytick_3">
     <g id="line2d_19">
      <path d="M 129.775152 338.341667 
L 685.035 338.341667 
" clip-path="url(#p72d0d949ea)" style="fill: none; stroke: #b0b0b0; stroke-width: 0.8; stroke-linecap: square"/>
     </g>
     <g id="line2d_20">
      <g>
       <use xlink:href="#mbdd64a5360" x="129.775152" y="338.341667" style="stroke: #000000; stroke-width: 0.8"/>
      </g>
     </g>
     <g id="text_11">
      <!-- 0.4 -->
      <g transform="translate(83.017339 347.839714) scale(0.25 -0.25)">
       <defs>
        <path id="DejaVuSans-34" d="M 2419 4116 
L 825 1625 
L 2419 1625 
L 2419 4116 
z
M 2253 4666 
L 3047 4666 
L 3047 1625 
L 3713 1625 
L 3713 1100 
L 3047 1100 
L 3047 0 
L 2419 0 
L 2419 1100 
L 313 1100 
L 313 1709 
L 2253 4666 
z
" transform="scale(0.015625)"/>
       </defs>
       <use xlink:href="#DejaVuSans-30"/>
       <use xlink:href="#DejaVuSans-2e" x="63.623047"/>
       <use xlink:href="#DejaVuSans-34" x="95.410156"/>
      </g>
     </g>
    </g>
    <g id="ytick_4">
     <g id="line2d_21">
      <path d="M 129.775152 262.93625 
L 685.035 262.93625 
" clip-path="url(#p72d0d949ea)" style="fill: none; stroke: #b0b0b0; stroke-width: 0.8; stroke-linecap: square"/>
     </g>
     <g id="line2d_22">
      <g>
       <use xlink:href="#mbdd64a5360" x="129.775152" y="262.93625" style="stroke: #000000; stroke-width: 0.8"/>
      </g>
     </g>
     <g id="text_12">
      <!-- 0.6 -->
      <g transform="translate(83.017339 272.434297) scale(0.25 -0.25)">
       <defs>
        <path id="DejaVuSans-36" d="M 2113 2584 
Q 1688 2584 1439 2293 
Q 1191 2003 1191 1497 
Q 1191 994 1439 701 
Q 1688 409 2113 409 
Q 2538 409 2786 701 
Q 3034 994 3034 1497 
Q 3034 2003 2786 2293 
Q 2538 2584 2113 2584 
z
M 3366 4563 
L 3366 3988 
Q 3128 4100 2886 4159 
Q 2644 4219 2406 4219 
Q 1781 4219 1451 3797 
Q 1122 3375 1075 2522 
Q 1259 2794 1537 2939 
Q 1816 3084 2150 3084 
Q 2853 3084 3261 2657 
Q 3669 2231 3669 1497 
Q 3669 778 3244 343 
Q 2819 -91 2113 -91 
Q 1303 -91 875 529 
Q 447 1150 447 2328 
Q 447 3434 972 4092 
Q 1497 4750 2381 4750 
Q 2619 4750 2861 4703 
Q 3103 4656 3366 4563 
z
" transform="scale(0.015625)"/>
       </defs>
       <use xlink:href="#DejaVuSans-30"/>
       <use xlink:href="#DejaVuSans-2e" x="63.623047"/>
       <use xlink:href="#DejaVuSans-36" x="95.410156"/>
      </g>
     </g>
    </g>
    <g id="ytick_5">
     <g id="line2d_23">
      <path d="M 129.775152 187.530833 
L 685.035 187.530833 
" clip-path="url(#p72d0d949ea)" style="fill: none; stroke: #b0b0b0; stroke-width: 0.8; stroke-linecap: square"/>
     </g>
     <g id="line2d_24">
      <g>
       <use xlink:href="#mbdd64a5360" x="129.775152" y="187.530833" style="stroke: #000000; stroke-width: 0.8"/>
      </g>
     </g>
     <g id="text_13">
      <!-- 0.8 -->
      <g transform="translate(83.017339 197.02888) scale(0.25 -0.25)">
       <defs>
        <path id="DejaVuSans-38" d="M 2034 2216 
Q 1584 2216 1326 1975 
Q 1069 1734 1069 1313 
Q 1069 891 1326 650 
Q 1584 409 2034 409 
Q 2484 409 2743 651 
Q 3003 894 3003 1313 
Q 3003 1734 2745 1975 
Q 2488 2216 2034 2216 
z
M 1403 2484 
Q 997 2584 770 2862 
Q 544 3141 544 3541 
Q 544 4100 942 4425 
Q 1341 4750 2034 4750 
Q 2731 4750 3128 4425 
Q 3525 4100 3525 3541 
Q 3525 3141 3298 2862 
Q 3072 2584 2669 2484 
Q 3125 2378 3379 2068 
Q 3634 1759 3634 1313 
Q 3634 634 3220 271 
Q 2806 -91 2034 -91 
Q 1263 -91 848 271 
Q 434 634 434 1313 
Q 434 1759 690 2068 
Q 947 2378 1403 2484 
z
M 1172 3481 
Q 1172 3119 1398 2916 
Q 1625 2713 2034 2713 
Q 2441 2713 2670 2916 
Q 2900 3119 2900 3481 
Q 2900 3844 2670 4047 
Q 2441 4250 2034 4250 
Q 1625 4250 1398 4047 
Q 1172 3844 1172 3481 
z
" transform="scale(0.015625)"/>
       </defs>
       <use xlink:href="#DejaVuSans-30"/>
       <use xlink:href="#DejaVuSans-2e" x="63.623047"/>
       <use xlink:href="#DejaVuSans-38" x="95.410156"/>
      </g>
     </g>
    </g>
    <g id="ytick_6">
     <g id="line2d_25">
      <path d="M 129.775152 112.125417 
L 685.035 112.125417 
" clip-path="url(#p72d0d949ea)" style="fill: none; stroke: #b0b0b0; stroke-width: 0.8; stroke-linecap: square"/>
     </g>
     <g id="line2d_26">
      <g>
       <use xlink:href="#mbdd64a5360" x="129.775152" y="112.125417" style="stroke: #000000; stroke-width: 0.8"/>
      </g>
     </g>
     <g id="text_14">
      <!-- 1.0 -->
      <g transform="translate(83.017339 121.623464) scale(0.25 -0.25)">
       <use xlink:href="#DejaVuSans-31"/>
       <use xlink:href="#DejaVuSans-2e" x="63.623047"/>
       <use xlink:href="#DejaVuSans-30" x="95.410156"/>
      </g>
     </g>
    </g>
    <g id="ytick_7">
     <g id="line2d_27">
      <path d="M 129.775152 36.72 
L 685.035 36.72 
" clip-path="url(#p72d0d949ea)" style="fill: none; stroke: #b0b0b0; stroke-width: 0.8; stroke-linecap: square"/>
     </g>
     <g id="line2d_28">
      <g>
       <use xlink:href="#mbdd64a5360" x="129.775152" y="36.72" style="stroke: #000000; stroke-width: 0.8"/>
      </g>
     </g>
     <g id="text_15">
      <!-- 1.2 -->
      <g transform="translate(83.017339 46.218047) scale(0.25 -0.25)">
       <use xlink:href="#DejaVuSans-31"/>
       <use xlink:href="#DejaVuSans-2e" x="63.623047"/>
       <use xlink:href="#DejaVuSans-32" x="95.410156"/>
      </g>
     </g>
    </g>
    <g id="text_16">
     <!-- $\rho$($\omega$) -->
     <g transform="translate(27.017339 257.68625) scale(0.25 -0.25)">
      <defs>
       <path id="DejaVuSans-Oblique-3c1" d="M 1203 2875 
Q 1453 3194 1981 3475 
Q 2188 3584 2756 3584 
Q 3394 3584 3694 3078 
Q 3994 2572 3834 1747 
Q 3672 922 3175 415 
Q 2678 -91 2041 -91 
Q 1656 -91 1409 63 
Q 1163 213 1044 525 
L 681 -1331 
L 103 -1331 
L 697 1716 
Q 838 2438 1203 2875 
z
M 3238 1747 
Q 3359 2381 3169 2744 
Q 2978 3103 2522 3103 
Q 2066 3103 1734 2744 
Q 1403 2381 1281 1747 
Q 1156 1113 1347 750 
Q 1538 391 1994 391 
Q 2450 391 2781 750 
Q 3113 1113 3238 1747 
z
" transform="scale(0.015625)"/>
       <path id="Calibri-28" d="M 1547 4306 
Q 1250 3678 1104 3017 
Q 959 2356 959 1688 
Q 959 1016 1107 356 
Q 1256 -303 1541 -938 
Q 1556 -975 1557 -1001 
Q 1559 -1028 1537 -1045 
Q 1516 -1063 1470 -1070 
Q 1425 -1078 1347 -1078 
Q 1291 -1078 1250 -1075 
Q 1209 -1072 1179 -1062 
Q 1150 -1053 1131 -1040 
Q 1113 -1028 1103 -1013 
Q 934 -694 806 -367 
Q 678 -41 590 296 
Q 503 634 459 979 
Q 416 1325 416 1678 
Q 416 2031 464 2375 
Q 513 2719 602 3058 
Q 691 3397 819 3725 
Q 947 4053 1106 4375 
Q 1109 4388 1123 4397 
Q 1138 4406 1163 4415 
Q 1188 4425 1231 4429 
Q 1275 4434 1344 4434 
Q 1416 4434 1459 4425 
Q 1503 4416 1528 4400 
Q 1553 4384 1556 4359 
Q 1559 4334 1547 4306 
z
" transform="scale(0.015625)"/>
       <path id="Calibri-29" d="M 1522 1678 
Q 1522 1325 1478 979 
Q 1434 634 1346 296 
Q 1259 -41 1132 -367 
Q 1006 -694 838 -1013 
Q 828 -1028 809 -1040 
Q 791 -1053 761 -1062 
Q 731 -1072 690 -1075 
Q 650 -1078 594 -1078 
Q 513 -1078 467 -1070 
Q 422 -1063 401 -1045 
Q 381 -1028 382 -1001 
Q 384 -975 400 -938 
Q 688 -306 834 355 
Q 981 1016 981 1688 
Q 981 2356 834 3017 
Q 688 3678 394 4306 
Q 381 4334 384 4359 
Q 388 4384 413 4400 
Q 438 4416 481 4425 
Q 525 4434 597 4434 
Q 663 4434 706 4429 
Q 750 4425 776 4415 
Q 803 4406 815 4397 
Q 828 4388 834 4375 
Q 1156 3734 1339 3057 
Q 1522 2381 1522 1678 
z
" transform="scale(0.015625)"/>
      </defs>
      <use xlink:href="#DejaVuSans-Oblique-3c1" transform="translate(0 0.71875)"/>
      <use xlink:href="#Calibri-28" transform="translate(63.476562 0.71875)"/>
      <use xlink:href="#DejaVuSans-Oblique-3c9" transform="translate(93.798828 0.71875)"/>
      <use xlink:href="#Calibri-29" transform="translate(177.539062 0.71875)"/>
     </g>
    </g>
   </g>
   <g id="line2d_29">
    <path d="M 129.775152 485.191726 
L 155.317105 484.358547 
L 176.416979 483.455768 
L 194.185294 482.483241 
L 209.73257 481.41398 
L 223.058806 480.280428 
L 234.719263 479.073027 
L 245.2692 477.757219 
L 254.708618 476.351279 
L 263.037516 474.885804 
L 270.255894 473.405198 
L 276.919012 471.827331 
L 283.02687 470.166711 
L 288.579469 468.444876 
L 294.132067 466.482825 
L 299.129406 464.47402 
L 303.571484 462.461225 
L 308.013563 460.198636 
L 311.900382 457.981343 
L 315.787201 455.507575 
L 319.67402 452.737724 
L 323.005579 450.092377 
L 326.337138 447.159915 
L 329.668697 443.899314 
L 332.444997 440.896992 
L 335.221296 437.601191 
L 337.997595 433.974823 
L 340.773894 429.975257 
L 343.550193 425.553428 
L 346.326493 420.652815 
L 349.102792 415.208293 
L 351.323831 410.411031 
L 353.544871 405.174383 
L 355.76591 399.4498 
L 357.98695 393.183265 
L 360.207989 386.314927 
L 362.429028 378.778877 
L 364.650068 370.503147 
L 366.871107 361.410081 
L 369.092146 351.417284 
L 371.313186 340.439429 
L 373.534225 328.391304 
L 375.755265 315.192611 
L 377.976304 300.775141 
L 380.197343 285.093043 
L 382.973643 263.70268 
L 385.749942 240.43442 
L 389.081501 210.496774 
L 396.299879 144.292017 
L 398.520918 126.273182 
L 400.186698 114.444594 
L 401.852478 104.500423 
L 402.962997 99.099692 
L 404.073517 94.793115 
L 405.184037 91.658303 
L 405.739296 90.549312 
L 406.294556 89.753379 
L 406.849816 89.274291 
L 407.405076 89.11434 
L 407.960336 89.274291 
L 408.515596 89.753379 
L 409.070856 90.549312 
L 409.626115 91.658303 
L 410.736635 94.793115 
L 411.847155 99.099692 
L 412.957674 104.500423 
L 414.068194 110.901592 
L 415.733974 122.145014 
L 417.399753 135.011069 
L 419.620793 153.999886 
L 423.507612 189.812362 
L 428.50495 235.578616 
L 431.281249 259.192647 
L 434.057549 280.972775 
L 436.833848 300.775141 
L 439.054887 315.192611 
L 441.275927 328.391304 
L 443.496966 340.439429 
L 445.718006 351.417284 
L 447.939045 361.410081 
L 450.160084 370.503147 
L 452.381124 378.778877 
L 454.602163 386.314927 
L 456.823202 393.183265 
L 459.044242 399.4498 
L 461.265281 405.174383 
L 464.04158 411.649757 
L 466.81788 417.455934 
L 469.594179 422.674476 
L 472.370478 427.376269 
L 475.146777 431.622852 
L 477.923077 435.467632 
L 480.699376 438.956987 
L 483.475675 442.13123 
L 486.807234 445.57346 
L 490.138793 448.664447 
L 493.470352 451.448621 
L 496.801912 453.963893 
L 500.68873 456.60155 
L 504.575549 458.960941 
L 508.462368 461.078859 
L 512.904447 463.243293 
L 517.346526 465.171697 
L 522.343865 467.099193 
L 527.896463 468.984814 
L 533.449061 470.642156 
L 539.55692 472.243001 
L 546.220038 473.766417 
L 553.438416 475.198135 
L 561.767314 476.617463 
L 570.651471 477.907387 
L 580.646149 479.13592 
L 591.751346 480.280428 
L 604.522322 481.37117 
L 618.959078 482.379585 
L 635.616874 483.318352 
L 655.050968 484.187177 
L 678.371882 484.996588 
L 685.035 485.191726 
L 685.035 485.191726 
" clip-path="url(#p72d0d949ea)" style="fill: none; stroke-dasharray: 14.8,6.4; stroke-dashoffset: 0; stroke: #ff0000; stroke-width: 4"/>
   </g>
   <g id="line2d_30">
    <path d="M 129.775152 477.059004 
L 136.99353 476.014463 
L 140.325089 475.524045 
L 146.988207 474.955886 
L 153.096066 474.354162 
L 155.317105 473.837122 
L 160.869703 472.058409 
L 167.532822 469.666437 
L 171.419641 468.109218 
L 174.7512 467.046811 
L 176.972239 466.301316 
L 180.303798 464.932704 
L 188.077436 462.943436 
L 190.853735 462.337621 
L 191.964255 461.855268 
L 193.074775 461.118873 
L 194.740554 459.657542 
L 199.182633 455.445418 
L 201.958932 453.332667 
L 203.624712 452.307388 
L 206.401011 451.031895 
L 208.62205 449.53349 
L 210.84309 448.047751 
L 211.953609 447.650742 
L 213.064129 447.652245 
L 215.285169 448.051437 
L 215.840428 448.018209 
L 216.395688 447.872346 
L 216.950948 447.59484 
L 218.061468 446.630232 
L 219.171988 445.241311 
L 221.393027 442.357652 
L 222.503547 441.404203 
L 223.614066 440.837501 
L 225.279846 440.043977 
L 226.945625 438.820622 
L 228.611405 437.363613 
L 229.721925 436.102812 
L 231.387704 433.669414 
L 232.498224 432.076284 
L 233.608744 430.873131 
L 234.719263 430.031315 
L 235.829783 429.450038 
L 236.940303 429.253376 
L 238.050822 429.398728 
L 240.271862 429.920297 
L 241.382381 429.850733 
L 242.492901 429.504733 
L 243.603421 428.888562 
L 246.37972 426.922971 
L 247.49024 426.482305 
L 248.600759 426.051727 
L 249.156019 425.66187 
L 250.266539 424.507459 
L 251.932319 422.759201 
L 253.042838 421.770952 
L 254.153358 420.393668 
L 255.819137 417.661049 
L 256.374397 417.087757 
L 256.929657 416.922499 
L 257.484917 417.142927 
L 258.595437 417.962802 
L 259.150697 418.087814 
L 259.705956 417.848356 
L 260.816476 416.608711 
L 261.371736 416.011175 
L 261.926996 415.683654 
L 262.482256 415.699482 
L 263.037516 416.040685 
L 263.592775 416.652046 
L 264.703295 418.396514 
L 265.813815 420.088651 
L 266.369075 420.630707 
L 266.924334 420.950459 
L 268.034854 421.21553 
L 269.145374 421.241739 
L 269.700634 421.087743 
L 270.255894 420.741412 
L 271.366413 419.526068 
L 274.142712 416.088473 
L 274.697972 415.586789 
L 275.253232 415.292078 
L 280.250571 414.410687 
L 280.805831 414.19699 
L 281.36109 413.847344 
L 281.91635 413.295381 
L 282.47161 412.483565 
L 283.02687 411.294734 
L 284.13739 407.805782 
L 285.247909 404.452252 
L 286.358429 402.151419 
L 286.913689 401.438457 
L 287.468949 401.138756 
L 288.024209 401.387847 
L 288.579469 402.261695 
L 289.689988 405.230345 
L 290.800508 407.925003 
L 291.355768 408.643755 
L 291.911028 408.825088 
L 293.021547 408.539198 
L 293.576807 408.762058 
L 294.132067 409.324267 
L 295.242587 410.991969 
L 296.353106 413.10241 
L 298.018886 416.726594 
L 298.574146 417.57219 
L 299.129406 417.847762 
L 299.684665 417.524074 
L 300.239925 416.722115 
L 300.795185 415.505431 
L 301.905705 412.526852 
L 302.460965 411.795107 
L 303.016225 412.047868 
L 304.682004 415.142969 
L 305.237264 415.432023 
L 305.792524 415.092103 
L 306.347784 414.517737 
L 306.903043 414.220603 
L 307.458303 414.530298 
L 309.679343 417.780956 
L 310.234603 417.910916 
L 311.900382 417.691455 
L 312.455642 418.285606 
L 313.010902 419.652442 
L 313.566162 421.333348 
L 314.121422 422.648332 
L 314.676681 423.275583 
L 315.231941 423.207783 
L 315.787201 422.574659 
L 316.342461 421.688949 
L 316.897721 421.131811 
L 317.452981 421.310152 
L 318.5635 422.752039 
L 319.11876 423.121855 
L 319.67402 422.985773 
L 320.22928 422.167234 
L 320.78454 421.053226 
L 321.3398 420.4536 
L 321.895059 420.879073 
L 322.450319 422.299441 
L 323.560839 426.311243 
L 324.116099 427.616304 
L 324.671359 427.7349 
L 325.226618 426.463292 
L 325.781878 424.337103 
L 326.337138 422.675944 
L 326.892398 422.502542 
L 327.447658 423.721091 
L 328.558178 427.227496 
L 329.113437 428.380361 
L 329.668697 428.772303 
L 330.223957 428.652802 
L 331.334477 427.965421 
L 331.889737 428.377577 
L 332.444997 429.568997 
L 333.000256 430.439669 
L 333.555516 430.254011 
L 334.110776 429.18332 
L 335.221296 425.695968 
L 335.776556 425.744519 
L 336.331815 426.432617 
L 337.442335 427.039195 
L 337.997595 427.904734 
L 339.108115 430.557345 
L 339.663375 431.231125 
L 340.218634 431.350399 
L 340.773894 430.714332 
L 341.329154 429.402893 
L 341.884414 428.564877 
L 342.439674 428.893114 
L 343.550193 432.223962 
L 344.105453 433.126482 
L 344.660713 434.292675 
L 346.326493 440.53859 
L 346.881753 440.661203 
L 347.437012 439.134873 
L 347.992272 436.737842 
L 348.547532 435.565224 
L 349.102792 436.120355 
L 349.658052 436.931562 
L 350.213312 436.239133 
L 351.323831 432.054999 
L 352.434351 429.046203 
L 352.989611 429.050621 
L 354.100131 430.752774 
L 354.65539 430.817889 
L 355.76591 429.452186 
L 356.87643 425.657956 
L 357.43169 425.972443 
L 358.542209 427.559655 
L 359.652729 432.440035 
L 360.207989 432.843668 
L 361.873768 430.370185 
L 362.429028 429.30534 
L 362.984288 425.05662 
L 363.539548 421.752546 
L 364.650068 417.492622 
L 365.205328 416.119139 
L 365.760587 416.698766 
L 366.315847 420.530951 
L 366.871107 422.75484 
L 367.426367 425.531661 
L 367.981627 425.976069 
L 368.536887 428.022678 
L 369.092146 428.968012 
L 369.647406 426.732682 
L 370.202666 425.250716 
L 370.757926 427.604576 
L 371.313186 429.374708 
L 372.423706 420.674577 
L 372.978965 421.643942 
L 373.534225 423.245093 
L 374.089485 425.664421 
L 374.644745 428.852008 
L 375.200005 432.702904 
L 376.310524 436.738993 
L 376.865784 440.297833 
L 377.421044 440.176156 
L 377.976304 440.902178 
L 378.531564 438.860124 
L 379.086824 434.644912 
L 379.642084 431.714951 
L 380.197343 432.044293 
L 380.752603 436.005732 
L 381.307863 428.916879 
L 381.863123 427.859165 
L 382.418383 431.712276 
L 382.973643 434.620744 
L 383.528903 429.770273 
L 384.084162 422.470604 
L 384.639422 416.89202 
L 385.194682 431.789497 
L 385.749942 429.264565 
L 386.305202 423.135679 
L 386.860462 409.673483 
L 387.415721 415.596505 
L 387.970981 428.184828 
L 388.526241 428.561749 
L 389.081501 425.481071 
L 389.636761 418.769778 
L 390.192021 408.597094 
L 390.747281 404.380881 
L 391.30254 424.021727 
L 391.8578 415.076138 
L 392.41306 398.364499 
L 392.96832 393.991764 
L 393.52358 401.697572 
L 394.07884 377.781851 
L 395.189359 413.434717 
L 395.744619 400.430036 
L 396.299879 416.998276 
L 396.855139 408.904665 
L 397.410399 390.56756 
L 397.965659 389.22118 
L 398.520918 404.354222 
L 399.076178 391.896377 
L 399.631438 391.906954 
L 400.186698 377.873005 
L 400.741958 305.889789 
L 401.297218 395.439078 
L 401.852478 340.97724 
L 402.407737 330.23337 
L 402.962997 283.644905 
L 403.518257 345.389488 
L 404.073517 275.144433 
L 404.628777 251.811747 
L 405.184037 268.920474 
L 406.294556 198.428017 
L 406.849816 129.303988 
L 407.405076 124.429262 
L 407.960336 145.645478 
L 408.515596 121.68526 
L 409.070856 204.20559 
L 409.626115 214.755459 
L 410.181375 281.744983 
L 410.736635 333.599894 
L 411.291895 330.899925 
L 411.847155 326.795455 
L 412.402415 327.467021 
L 412.957674 323.802109 
L 413.512934 359.29037 
L 414.068194 372.897426 
L 414.623454 394.852796 
L 415.178714 355.993892 
L 415.733974 386.364127 
L 416.289234 399.359227 
L 416.844493 385.488962 
L 417.399753 421.535185 
L 417.955013 409.125902 
L 418.510273 414.377648 
L 419.065533 417.661091 
L 419.620793 403.571253 
L 420.176052 401.896894 
L 420.731312 423.859931 
L 421.286572 419.413101 
L 421.841832 412.749935 
L 422.397092 417.844422 
L 422.952352 416.761236 
L 423.507612 417.031915 
L 424.062871 420.309255 
L 424.618131 404.814532 
L 425.173391 416.520311 
L 425.728651 424.352625 
L 426.839171 401.548522 
L 427.394431 413.787728 
L 427.94969 429.235383 
L 428.50495 424.420888 
L 429.06021 411.8029 
L 429.61547 415.531167 
L 430.17073 412.813079 
L 430.72599 416.610508 
L 431.281249 412.050769 
L 431.836509 411.076289 
L 432.947029 430.678342 
L 433.502289 432.782076 
L 434.057549 432.337144 
L 435.168068 429.180645 
L 435.723328 438.262601 
L 436.278588 440.240827 
L 436.833848 438.849132 
L 438.499627 418.75731 
L 439.054887 418.482008 
L 439.610147 416.679771 
L 440.165407 416.846498 
L 440.720667 420.206547 
L 441.275927 421.99143 
L 441.831187 425.18263 
L 442.386446 431.430273 
L 442.941706 435.940322 
L 443.496966 437.106694 
L 444.052226 439.745257 
L 444.607486 441.838567 
L 445.162746 440.184126 
L 446.273265 435.915443 
L 446.828525 434.752212 
L 447.383785 434.518153 
L 447.939045 432.831974 
L 448.494305 431.62871 
L 449.049565 431.001498 
L 449.604824 431.978812 
L 450.160084 431.8361 
L 450.715344 428.709748 
L 451.270604 428.817466 
L 451.825864 431.401595 
L 452.381124 431.029566 
L 452.936384 429.054827 
L 453.491643 429.001736 
L 454.602163 432.506736 
L 455.157423 432.505892 
L 455.712683 430.36034 
L 456.267943 429.747794 
L 456.823202 430.475428 
L 457.378462 432.754625 
L 457.933722 435.765009 
L 458.488982 436.690278 
L 459.599502 436.400303 
L 460.154762 434.6991 
L 460.710021 432.447714 
L 461.265281 432.949945 
L 462.375801 435.885935 
L 462.931061 436.770877 
L 463.486321 434.619769 
L 464.04158 430.2023 
L 464.59684 427.226403 
L 465.1521 426.968702 
L 466.26262 428.759006 
L 466.81788 430.295449 
L 467.928399 435.209022 
L 468.483659 435.577077 
L 469.594179 434.639624 
L 470.149439 434.819442 
L 470.704699 435.834101 
L 471.815218 438.870493 
L 472.370478 440.333513 
L 472.925738 440.156157 
L 473.480998 438.378296 
L 474.591518 433.785367 
L 475.146777 432.558502 
L 476.257297 431.128138 
L 476.812557 430.893114 
L 477.923077 431.532762 
L 478.478337 431.57798 
L 479.033596 431.117643 
L 479.588856 430.035366 
L 480.699376 427.139634 
L 481.254636 425.597787 
L 481.809896 424.915455 
L 482.365155 424.918769 
L 482.920415 424.805545 
L 484.030935 423.932202 
L 485.141455 422.736768 
L 485.696715 422.475123 
L 486.807234 421.758999 
L 487.362494 421.987478 
L 487.917754 422.089704 
L 488.473014 421.155838 
L 489.583533 417.978181 
L 490.138793 417.538358 
L 490.694053 417.880562 
L 491.249313 418.067057 
L 491.804573 417.586709 
L 492.359833 416.952763 
L 492.915093 416.988059 
L 493.470352 417.4415 
L 494.025612 417.56938 
L 494.580872 417.579545 
L 495.136132 418.291989 
L 496.801912 423.214862 
L 497.357171 423.80168 
L 497.912431 423.683818 
L 499.022951 423.074834 
L 500.133471 422.690957 
L 501.24399 422.519137 
L 501.79925 422.241064 
L 502.35451 421.655006 
L 503.46503 420.152674 
L 504.02029 419.860069 
L 505.130809 420.054888 
L 505.686069 419.720702 
L 506.796589 418.087567 
L 507.351849 417.584951 
L 507.907108 417.588233 
L 508.462368 417.855381 
L 509.017628 417.962854 
L 510.683408 417.397488 
L 512.904447 417.34007 
L 515.125487 417.114355 
L 515.680746 416.624768 
L 516.236006 415.592423 
L 517.901786 411.326939 
L 518.457046 410.579359 
L 519.012305 410.668331 
L 519.567565 411.662637 
L 521.233345 416.389474 
L 521.788605 417.232304 
L 522.343865 417.41573 
L 522.899124 417.030385 
L 524.009644 415.392841 
L 525.675424 412.527278 
L 526.230683 411.903823 
L 526.785943 411.627209 
L 527.341203 411.70729 
L 527.896463 412.121579 
L 528.451723 412.676706 
L 529.006983 413.020974 
L 529.562243 412.897475 
L 530.117502 412.308587 
L 531.783282 409.734455 
L 532.338542 409.213973 
L 532.893802 408.928365 
L 533.449061 408.82683 
L 534.004321 408.942367 
L 534.559581 409.434471 
L 535.114841 410.443449 
L 536.225361 413.616045 
L 537.33588 416.852318 
L 537.89114 418.04452 
L 538.4464 418.773318 
L 539.00166 418.935547 
L 539.55692 418.552765 
L 540.66744 417.208472 
L 541.222699 416.906905 
L 541.777959 416.985892 
L 542.888479 417.467237 
L 543.443739 417.42132 
L 543.998999 417.063146 
L 545.109518 415.925158 
L 545.664778 415.535897 
L 546.220038 415.3805 
L 547.885818 415.287187 
L 551.217377 414.461895 
L 552.327896 414.411014 
L 552.883156 414.27012 
L 554.548936 413.521703 
L 555.104196 413.61491 
L 555.659455 414.066796 
L 556.214715 414.855265 
L 557.880495 417.747205 
L 558.435755 418.358669 
L 558.991014 418.706386 
L 560.101534 418.900578 
L 561.212054 418.989516 
L 561.767314 419.227257 
L 562.322574 419.73735 
L 562.877833 420.558026 
L 564.543613 423.755362 
L 565.098873 424.501316 
L 565.654133 424.901363 
L 566.209393 424.969209 
L 566.764652 424.793042 
L 568.985692 423.689381 
L 569.540952 423.614443 
L 570.096211 423.676645 
L 571.206731 424.180603 
L 572.317251 424.812493 
L 573.98303 425.521018 
L 574.53829 425.999673 
L 575.09355 426.758802 
L 576.20407 429.043695 
L 577.869849 432.778496 
L 578.980369 434.551386 
L 579.535629 435.159907 
L 580.090889 435.589259 
L 581.201408 436.052533 
L 586.198747 437.355885 
L 587.309267 438.037196 
L 588.975046 439.60728 
L 590.085566 440.620652 
L 591.751346 441.718852 
L 593.417125 442.807216 
L 595.082905 444.327005 
L 597.303944 446.410462 
L 600.080243 448.901121 
L 601.746023 450.292829 
L 604.522322 452.370531 
L 610.074921 457.136379 
L 611.7407 458.19876 
L 612.85122 458.664102 
L 613.961739 458.909071 
L 618.403818 459.333664 
L 621.735377 459.532145 
L 623.401157 459.945121 
L 625.066936 460.645081 
L 626.732716 461.650618 
L 629.509015 463.401872 
L 631.730055 464.492202 
L 635.061614 465.787828 
L 639.503692 467.360608 
L 643.390511 468.719321 
L 646.72207 469.850946 
L 649.49837 470.447425 
L 655.050968 471.695646 
L 662.824606 473.792214 
L 666.156165 474.188147 
L 668.932464 474.550278 
L 672.264023 475.268224 
L 675.595583 475.922615 
L 677.816622 476.133365 
L 682.813961 476.408107 
L 685.035 476.757602 
L 685.035 476.757602 
" clip-path="url(#p72d0d949ea)" style="fill: none; stroke: #0000ff; stroke-width: 1.5; stroke-linecap: square"/>
   </g>
   <g id="patch_3">
    <path d="M 129.775152 489.1525 
L 129.775152 36.72 
" style="fill: none; stroke: #000000; stroke-width: 0.8; stroke-linejoin: miter; stroke-linecap: square"/>
   </g>
   <g id="patch_4">
    <path d="M 685.035 489.1525 
L 685.035 36.72 
" style="fill: none; stroke: #000000; stroke-width: 0.8; stroke-linejoin: miter; stroke-linecap: square"/>
   </g>
   <g id="patch_5">
    <path d="M 129.775152 489.1525 
L 685.035 489.1525 
" style="fill: none; stroke: #000000; stroke-width: 0.8; stroke-linejoin: miter; stroke-linecap: square"/>
   </g>
   <g id="patch_6">
    <path d="M 129.775152 36.72 
L 685.035 36.72 
" style="fill: none; stroke: #000000; stroke-width: 0.8; stroke-linejoin: miter; stroke-linecap: square"/>
   </g>
   <g id="legend_1">
    <g id="patch_7">
     <path d="M 517.415 100.260156 
L 676.535 100.260156 
L 676.535 45.22 
L 517.415 45.22 
z
" style="fill: #ffffff; opacity: 0.8; stroke: #000000; stroke-linejoin: miter"/>
    </g>
    <g id="line2d_31">
     <path d="M 524.215 58.987344 
L 541.215 58.987344 
L 558.215 58.987344 
" style="fill: none; stroke-dasharray: 14.8,6.4; stroke-dashoffset: 0; stroke: #ff0000; stroke-width: 4"/>
    </g>
    <g id="text_17">
     <!-- $\rho_0$ -->
     <g transform="translate(571.815 64.937344) scale(0.17 -0.17)">
      <use xlink:href="#DejaVuSans-Oblique-3c1"/>
      <use xlink:href="#DejaVuSans-30" transform="translate(63.476562 -16.40625) scale(0.7)"/>
     </g>
    </g>
    <g id="line2d_32">
     <path d="M 524.215 83.974688 
L 541.215 83.974688 
L 558.215 83.974688 
" style="fill: none; stroke: #0000ff; stroke-width: 1.5; stroke-linecap: square"/>
    </g>
    <g id="text_18">
     <!-- $\it{k_bT= 0.010}$ -->
     <g transform="translate(571.815 89.924688) scale(0.17 -0.17)">
      <defs>
       <path id="DejaVuSans-Oblique-6b" d="M 1172 4863 
L 1747 4863 
L 1197 2028 
L 3169 3500 
L 3916 3500 
L 1716 1825 
L 3322 0 
L 2625 0 
L 1131 1709 
L 800 0 
L 225 0 
L 1172 4863 
z
" transform="scale(0.015625)"/>
       <path id="DejaVuSans-Oblique-62" d="M 3169 2138 
Q 3169 2591 2961 2847 
Q 2753 3103 2388 3103 
Q 2122 3103 1889 2973 
Q 1656 2844 1484 2597 
Q 1303 2338 1198 1995 
Q 1094 1653 1094 1313 
Q 1094 881 1298 636 
Q 1503 391 1863 391 
Q 2134 391 2365 517 
Q 2597 644 2772 891 
Q 2950 1147 3059 1487 
Q 3169 1828 3169 2138 
z
M 1381 2969 
Q 1594 3256 1914 3420 
Q 2234 3584 2584 3584 
Q 3122 3584 3439 3221 
Q 3756 2859 3756 2241 
Q 3756 1734 3570 1259 
Q 3384 784 3041 416 
Q 2816 172 2522 40 
Q 2228 -91 1906 -91 
Q 1566 -91 1316 65 
Q 1066 222 909 531 
L 806 0 
L 231 0 
L 1178 4863 
L 1753 4863 
L 1381 2969 
z
" transform="scale(0.015625)"/>
       <path id="DejaVuSans-Oblique-54" d="M 378 4666 
L 4325 4666 
L 4225 4134 
L 2559 4134 
L 1759 0 
L 1125 0 
L 1925 4134 
L 275 4134 
L 378 4666 
z
" transform="scale(0.015625)"/>
       <path id="DejaVuSans-3d" d="M 678 2906 
L 4684 2906 
L 4684 2381 
L 678 2381 
L 678 2906 
z
M 678 1631 
L 4684 1631 
L 4684 1100 
L 678 1100 
L 678 1631 
z
" transform="scale(0.015625)"/>
      </defs>
      <use xlink:href="#DejaVuSans-Oblique-6b" transform="translate(0 0.015625)"/>
      <use xlink:href="#DejaVuSans-Oblique-62" transform="translate(57.910156 -16.390625) scale(0.7)"/>
      <use xlink:href="#DejaVuSans-Oblique-54" transform="translate(105.078125 0.015625)"/>
      <use xlink:href="#DejaVuSans-3d" transform="translate(185.644531 0.015625)"/>
      <use xlink:href="#DejaVuSans-30" transform="translate(288.916016 0.015625)"/>
      <use xlink:href="#DejaVuSans-2e" transform="translate(352.539062 0.015625)"/>
      <use xlink:href="#DejaVuSans-30" transform="translate(384.326172 0.015625)"/>
      <use xlink:href="#DejaVuSans-31" transform="translate(447.949219 0.015625)"/>
      <use xlink:href="#DejaVuSans-30" transform="translate(511.572266 0.015625)"/>
     </g>
    </g>
   </g>
  </g>
 </g>
 <defs>
  <clipPath id="p72d0d949ea">
   <rect x="129.775152" y="36.72" width="555.259848" height="452.4325"/>
  </clipPath>
 </defs>
</svg>
