<?xml version="1.0" encoding="utf-8" standalone="no"?>
<!DOCTYPE svg PUBLIC "-//W3C//DTD SVG 1.1//EN"
  "http://www.w3.org/Graphics/SVG/1.1/DTD/svg11.dtd">
<svg xmlns:xlink="http://www.w3.org/1999/xlink" width="720pt" height="576pt" viewBox="0 0 720 576" xmlns="http://www.w3.org/2000/svg" version="1.1">
 <metadata>
  <rdf:RDF xmlns:dc="http://purl.org/dc/elements/1.1/" xmlns:cc="http://creativecommons.org/ns#" xmlns:rdf="http://www.w3.org/1999/02/22-rdf-syntax-ns#">
   <cc:Work>
    <dc:type rdf:resource="http://purl.org/dc/dcmitype/StillImage"/>
    <dc:date>2023-04-12T23:09:00.483437</dc:date>
    <dc:format>image/svg+xml</dc:format>
    <dc:creator>
     <cc:Agent>
      <dc:title>Matplotlib v3.7.1, https://matplotlib.org/</dc:title>
     </cc:Agent>
    </dc:creator>
   </cc:Work>
  </rdf:RDF>
 </metadata>
 <defs>
  <style type="text/css">*{stroke-linejoin: round; stroke-linecap: butt}</style>
 </defs>
 <g id="figure_1">
  <g id="patch_1">
   <path d="M 0 576 
L 720 576 
L 720 0 
L 0 0 
z
" style="fill: #ffffff"/>
  </g>
  <g id="axes_1">
   <g id="patch_2">
    <path d="M 129.775152 489.1525 
L 685.035 489.1525 
L 685.035 36.72 
L 129.775152 36.72 
z
" style="fill: #ffffff"/>
   </g>
   <g id="matplotlib.axis_1">
    <g id="xtick_1">
     <g id="line2d_1">
      <path d="M 129.775152 489.1525 
L 129.775152 36.72 
" clip-path="url(#pde9be2db35)" style="fill: none; stroke: #b0b0b0; stroke-width: 0.8; stroke-linecap: square"/>
     </g>
     <g id="line2d_2">
      <defs>
       <path id="m86caca1e84" d="M 0 0 
L 0 3.5 
" style="stroke: #000000; stroke-width: 0.8"/>
      </defs>
      <g>
       <use xlink:href="#m86caca1e84" x="129.775152" y="489.1525" style="stroke: #000000; stroke-width: 0.8"/>
      </g>
     </g>
     <g id="text_1">
      <!-- −3 -->
      <g transform="translate(111.347418 515.148594) scale(0.25 -0.25)">
       <defs>
        <path id="DejaVuSans-2212" d="M 678 2272 
L 4684 2272 
L 4684 1741 
L 678 1741 
L 678 2272 
z
" transform="scale(0.015625)"/>
        <path id="DejaVuSans-33" d="M 2597 2516 
Q 3050 2419 3304 2112 
Q 3559 1806 3559 1356 
Q 3559 666 3084 287 
Q 2609 -91 1734 -91 
Q 1441 -91 1130 -33 
Q 819 25 488 141 
L 488 750 
Q 750 597 1062 519 
Q 1375 441 1716 441 
Q 2309 441 2620 675 
Q 2931 909 2931 1356 
Q 2931 1769 2642 2001 
Q 2353 2234 1838 2234 
L 1294 2234 
L 1294 2753 
L 1863 2753 
Q 2328 2753 2575 2939 
Q 2822 3125 2822 3475 
Q 2822 3834 2567 4026 
Q 2313 4219 1838 4219 
Q 1578 4219 1281 4162 
Q 984 4106 628 3988 
L 628 4550 
Q 988 4650 1302 4700 
Q 1616 4750 1894 4750 
Q 2613 4750 3031 4423 
Q 3450 4097 3450 3541 
Q 3450 3153 3228 2886 
Q 3006 2619 2597 2516 
z
" transform="scale(0.015625)"/>
       </defs>
       <use xlink:href="#DejaVuSans-2212"/>
       <use xlink:href="#DejaVuSans-33" x="83.789062"/>
      </g>
     </g>
    </g>
    <g id="xtick_2">
     <g id="line2d_3">
      <path d="M 222.31846 489.1525 
L 222.31846 36.72 
" clip-path="url(#pde9be2db35)" style="fill: none; stroke: #b0b0b0; stroke-width: 0.8; stroke-linecap: square"/>
     </g>
     <g id="line2d_4">
      <g>
       <use xlink:href="#m86caca1e84" x="222.31846" y="489.1525" style="stroke: #000000; stroke-width: 0.8"/>
      </g>
     </g>
     <g id="text_2">
      <!-- −2 -->
      <g transform="translate(203.890726 515.148594) scale(0.25 -0.25)">
       <defs>
        <path id="DejaVuSans-32" d="M 1228 531 
L 3431 531 
L 3431 0 
L 469 0 
L 469 531 
Q 828 903 1448 1529 
Q 2069 2156 2228 2338 
Q 2531 2678 2651 2914 
Q 2772 3150 2772 3378 
Q 2772 3750 2511 3984 
Q 2250 4219 1831 4219 
Q 1534 4219 1204 4116 
Q 875 4013 500 3803 
L 500 4441 
Q 881 4594 1212 4672 
Q 1544 4750 1819 4750 
Q 2544 4750 2975 4387 
Q 3406 4025 3406 3419 
Q 3406 3131 3298 2873 
Q 3191 2616 2906 2266 
Q 2828 2175 2409 1742 
Q 1991 1309 1228 531 
z
" transform="scale(0.015625)"/>
       </defs>
       <use xlink:href="#DejaVuSans-2212"/>
       <use xlink:href="#DejaVuSans-32" x="83.789062"/>
      </g>
     </g>
    </g>
    <g id="xtick_3">
     <g id="line2d_5">
      <path d="M 314.861768 489.1525 
L 314.861768 36.72 
" clip-path="url(#pde9be2db35)" style="fill: none; stroke: #b0b0b0; stroke-width: 0.8; stroke-linecap: square"/>
     </g>
     <g id="line2d_6">
      <g>
       <use xlink:href="#m86caca1e84" x="314.861768" y="489.1525" style="stroke: #000000; stroke-width: 0.8"/>
      </g>
     </g>
     <g id="text_3">
      <!-- −1 -->
      <g transform="translate(296.434034 515.148594) scale(0.25 -0.25)">
       <defs>
        <path id="DejaVuSans-31" d="M 794 531 
L 1825 531 
L 1825 4091 
L 703 3866 
L 703 4441 
L 1819 4666 
L 2450 4666 
L 2450 531 
L 3481 531 
L 3481 0 
L 794 0 
L 794 531 
z
" transform="scale(0.015625)"/>
       </defs>
       <use xlink:href="#DejaVuSans-2212"/>
       <use xlink:href="#DejaVuSans-31" x="83.789062"/>
      </g>
     </g>
    </g>
    <g id="xtick_4">
     <g id="line2d_7">
      <path d="M 407.405076 489.1525 
L 407.405076 36.72 
" clip-path="url(#pde9be2db35)" style="fill: none; stroke: #b0b0b0; stroke-width: 0.8; stroke-linecap: square"/>
     </g>
     <g id="line2d_8">
      <g>
       <use xlink:href="#m86caca1e84" x="407.405076" y="489.1525" style="stroke: #000000; stroke-width: 0.8"/>
      </g>
     </g>
     <g id="text_4">
      <!-- 0 -->
      <g transform="translate(399.451951 515.148594) scale(0.25 -0.25)">
       <defs>
        <path id="DejaVuSans-30" d="M 2034 4250 
Q 1547 4250 1301 3770 
Q 1056 3291 1056 2328 
Q 1056 1369 1301 889 
Q 1547 409 2034 409 
Q 2525 409 2770 889 
Q 3016 1369 3016 2328 
Q 3016 3291 2770 3770 
Q 2525 4250 2034 4250 
z
M 2034 4750 
Q 2819 4750 3233 4129 
Q 3647 3509 3647 2328 
Q 3647 1150 3233 529 
Q 2819 -91 2034 -91 
Q 1250 -91 836 529 
Q 422 1150 422 2328 
Q 422 3509 836 4129 
Q 1250 4750 2034 4750 
z
" transform="scale(0.015625)"/>
       </defs>
       <use xlink:href="#DejaVuSans-30"/>
      </g>
     </g>
    </g>
    <g id="xtick_5">
     <g id="line2d_9">
      <path d="M 499.948384 489.1525 
L 499.948384 36.72 
" clip-path="url(#pde9be2db35)" style="fill: none; stroke: #b0b0b0; stroke-width: 0.8; stroke-linecap: square"/>
     </g>
     <g id="line2d_10">
      <g>
       <use xlink:href="#m86caca1e84" x="499.948384" y="489.1525" style="stroke: #000000; stroke-width: 0.8"/>
      </g>
     </g>
     <g id="text_5">
      <!-- 1 -->
      <g transform="translate(491.995259 515.148594) scale(0.25 -0.25)">
       <use xlink:href="#DejaVuSans-31"/>
      </g>
     </g>
    </g>
    <g id="xtick_6">
     <g id="line2d_11">
      <path d="M 592.491692 489.1525 
L 592.491692 36.72 
" clip-path="url(#pde9be2db35)" style="fill: none; stroke: #b0b0b0; stroke-width: 0.8; stroke-linecap: square"/>
     </g>
     <g id="line2d_12">
      <g>
       <use xlink:href="#m86caca1e84" x="592.491692" y="489.1525" style="stroke: #000000; stroke-width: 0.8"/>
      </g>
     </g>
     <g id="text_6">
      <!-- 2 -->
      <g transform="translate(584.538567 515.148594) scale(0.25 -0.25)">
       <use xlink:href="#DejaVuSans-32"/>
      </g>
     </g>
    </g>
    <g id="xtick_7">
     <g id="line2d_13">
      <path d="M 685.035 489.1525 
L 685.035 36.72 
" clip-path="url(#pde9be2db35)" style="fill: none; stroke: #b0b0b0; stroke-width: 0.8; stroke-linecap: square"/>
     </g>
     <g id="line2d_14">
      <g>
       <use xlink:href="#m86caca1e84" x="685.035" y="489.1525" style="stroke: #000000; stroke-width: 0.8"/>
      </g>
     </g>
     <g id="text_7">
      <!-- 3 -->
      <g transform="translate(677.081875 515.148594) scale(0.25 -0.25)">
       <use xlink:href="#DejaVuSans-33"/>
      </g>
     </g>
    </g>
    <g id="text_8">
     <!-- $\omega$ [-] -->
     <g transform="translate(382.530076 541.351719) scale(0.25 -0.25)">
      <defs>
       <path id="DejaVuSans-Oblique-3c9" d="M 1369 -91 
Q 72 -91 434 1766 
Q 575 2500 1256 3500 
L 1875 3500 
Q 1231 2500 1088 1750 
Q 819 397 1519 397 
Q 2166 397 2478 2078 
L 3009 2078 
Q 2669 388 3316 397 
Q 4013 403 4275 1750 
Q 4419 2500 4169 3500 
L 4788 3500 
Q 5075 2500 4934 1766 
Q 4578 -94 3278 -91 
Q 2428 -88 2503 844 
Q 2194 -91 1369 -91 
z
" transform="scale(0.015625)"/>
       <path id="Calibri-20" transform="scale(0.015625)"/>
       <path id="Calibri-5b" d="M 1684 -813 
Q 1684 -916 1661 -958 
Q 1638 -1000 1594 -1000 
L 794 -1000 
Q 756 -1000 722 -989 
Q 688 -978 659 -953 
Q 631 -928 614 -886 
Q 597 -844 597 -781 
L 597 4153 
Q 597 4213 614 4255 
Q 631 4297 659 4323 
Q 688 4350 722 4361 
Q 756 4372 794 4372 
L 1594 4372 
Q 1613 4372 1630 4362 
Q 1647 4353 1659 4328 
Q 1672 4303 1678 4267 
Q 1684 4231 1684 4178 
Q 1684 4078 1661 4034 
Q 1638 3991 1594 3991 
L 1084 3991 
L 1084 -622 
L 1594 -622 
Q 1613 -622 1630 -631 
Q 1647 -641 1659 -664 
Q 1672 -688 1678 -723 
Q 1684 -759 1684 -813 
z
" transform="scale(0.015625)"/>
       <path id="Calibri-2d" d="M 1744 1578 
Q 1744 1456 1716 1409 
Q 1688 1363 1634 1363 
L 328 1363 
Q 272 1363 244 1411 
Q 216 1459 216 1578 
Q 216 1697 244 1744 
Q 272 1791 328 1791 
L 1634 1791 
Q 1659 1791 1679 1781 
Q 1700 1772 1714 1745 
Q 1728 1719 1736 1678 
Q 1744 1638 1744 1578 
z
" transform="scale(0.015625)"/>
       <path id="Calibri-5d" d="M 1369 -781 
Q 1369 -844 1351 -886 
Q 1334 -928 1306 -953 
Q 1278 -978 1242 -989 
Q 1206 -1000 1169 -1000 
L 372 -1000 
Q 328 -1000 304 -958 
Q 281 -916 281 -813 
Q 281 -759 286 -723 
Q 291 -688 303 -664 
Q 316 -641 333 -631 
Q 350 -622 372 -622 
L 881 -622 
L 881 3991 
L 372 3991 
Q 328 3991 304 4034 
Q 281 4078 281 4178 
Q 281 4231 286 4267 
Q 291 4303 303 4328 
Q 316 4353 333 4362 
Q 350 4372 372 4372 
L 1169 4372 
Q 1206 4372 1242 4361 
Q 1278 4350 1306 4323 
Q 1334 4297 1351 4255 
Q 1369 4213 1369 4153 
L 1369 -781 
z
" transform="scale(0.015625)"/>
      </defs>
      <use xlink:href="#DejaVuSans-Oblique-3c9" transform="translate(0 0.6875)"/>
      <use xlink:href="#Calibri-20" transform="translate(83.740234 0.6875)"/>
      <use xlink:href="#Calibri-5b" transform="translate(106.347656 0.6875)"/>
      <use xlink:href="#Calibri-2d" transform="translate(137.011719 0.6875)"/>
      <use xlink:href="#Calibri-5d" transform="translate(167.626953 0.6875)"/>
     </g>
    </g>
   </g>
   <g id="matplotlib.axis_2">
    <g id="ytick_1">
     <g id="line2d_15">
      <path d="M 129.775152 489.1525 
L 685.035 489.1525 
" clip-path="url(#pde9be2db35)" style="fill: none; stroke: #b0b0b0; stroke-width: 0.8; stroke-linecap: square"/>
     </g>
     <g id="line2d_16">
      <defs>
       <path id="ma305c676fa" d="M 0 0 
L -3.5 0 
" style="stroke: #000000; stroke-width: 0.8"/>
      </defs>
      <g>
       <use xlink:href="#ma305c676fa" x="129.775152" y="489.1525" style="stroke: #000000; stroke-width: 0.8"/>
      </g>
     </g>
     <g id="text_9">
      <!-- 0.0 -->
      <g transform="translate(83.017339 498.650547) scale(0.25 -0.25)">
       <defs>
        <path id="DejaVuSans-2e" d="M 684 794 
L 1344 794 
L 1344 0 
L 684 0 
L 684 794 
z
" transform="scale(0.015625)"/>
       </defs>
       <use xlink:href="#DejaVuSans-30"/>
       <use xlink:href="#DejaVuSans-2e" x="63.623047"/>
       <use xlink:href="#DejaVuSans-30" x="95.410156"/>
      </g>
     </g>
    </g>
    <g id="ytick_2">
     <g id="line2d_17">
      <path d="M 129.775152 413.747083 
L 685.035 413.747083 
" clip-path="url(#pde9be2db35)" style="fill: none; stroke: #b0b0b0; stroke-width: 0.8; stroke-linecap: square"/>
     </g>
     <g id="line2d_18">
      <g>
       <use xlink:href="#ma305c676fa" x="129.775152" y="413.747083" style="stroke: #000000; stroke-width: 0.8"/>
      </g>
     </g>
     <g id="text_10">
      <!-- 0.2 -->
      <g transform="translate(83.017339 423.24513) scale(0.25 -0.25)">
       <use xlink:href="#DejaVuSans-30"/>
       <use xlink:href="#DejaVuSans-2e" x="63.623047"/>
       <use xlink:href="#DejaVuSans-32" x="95.410156"/>
      </g>
     </g>
    </g>
    <g id="ytick_3">
     <g id="line2d_19">
      <path d="M 129.775152 338.341667 
L 685.035 338.341667 
" clip-path="url(#pde9be2db35)" style="fill: none; stroke: #b0b0b0; stroke-width: 0.8; stroke-linecap: square"/>
     </g>
     <g id="line2d_20">
      <g>
       <use xlink:href="#ma305c676fa" x="129.775152" y="338.341667" style="stroke: #000000; stroke-width: 0.8"/>
      </g>
     </g>
     <g id="text_11">
      <!-- 0.4 -->
      <g transform="translate(83.017339 347.839714) scale(0.25 -0.25)">
       <defs>
        <path id="DejaVuSans-34" d="M 2419 4116 
L 825 1625 
L 2419 1625 
L 2419 4116 
z
M 2253 4666 
L 3047 4666 
L 3047 1625 
L 3713 1625 
L 3713 1100 
L 3047 1100 
L 3047 0 
L 2419 0 
L 2419 1100 
L 313 1100 
L 313 1709 
L 2253 4666 
z
" transform="scale(0.015625)"/>
       </defs>
       <use xlink:href="#DejaVuSans-30"/>
       <use xlink:href="#DejaVuSans-2e" x="63.623047"/>
       <use xlink:href="#DejaVuSans-34" x="95.410156"/>
      </g>
     </g>
    </g>
    <g id="ytick_4">
     <g id="line2d_21">
      <path d="M 129.775152 262.93625 
L 685.035 262.93625 
" clip-path="url(#pde9be2db35)" style="fill: none; stroke: #b0b0b0; stroke-width: 0.8; stroke-linecap: square"/>
     </g>
     <g id="line2d_22">
      <g>
       <use xlink:href="#ma305c676fa" x="129.775152" y="262.93625" style="stroke: #000000; stroke-width: 0.8"/>
      </g>
     </g>
     <g id="text_12">
      <!-- 0.6 -->
      <g transform="translate(83.017339 272.434297) scale(0.25 -0.25)">
       <defs>
        <path id="DejaVuSans-36" d="M 2113 2584 
Q 1688 2584 1439 2293 
Q 1191 2003 1191 1497 
Q 1191 994 1439 701 
Q 1688 409 2113 409 
Q 2538 409 2786 701 
Q 3034 994 3034 1497 
Q 3034 2003 2786 2293 
Q 2538 2584 2113 2584 
z
M 3366 4563 
L 3366 3988 
Q 3128 4100 2886 4159 
Q 2644 4219 2406 4219 
Q 1781 4219 1451 3797 
Q 1122 3375 1075 2522 
Q 1259 2794 1537 2939 
Q 1816 3084 2150 3084 
Q 2853 3084 3261 2657 
Q 3669 2231 3669 1497 
Q 3669 778 3244 343 
Q 2819 -91 2113 -91 
Q 1303 -91 875 529 
Q 447 1150 447 2328 
Q 447 3434 972 4092 
Q 1497 4750 2381 4750 
Q 2619 4750 2861 4703 
Q 3103 4656 3366 4563 
z
" transform="scale(0.015625)"/>
       </defs>
       <use xlink:href="#DejaVuSans-30"/>
       <use xlink:href="#DejaVuSans-2e" x="63.623047"/>
       <use xlink:href="#DejaVuSans-36" x="95.410156"/>
      </g>
     </g>
    </g>
    <g id="ytick_5">
     <g id="line2d_23">
      <path d="M 129.775152 187.530833 
L 685.035 187.530833 
" clip-path="url(#pde9be2db35)" style="fill: none; stroke: #b0b0b0; stroke-width: 0.8; stroke-linecap: square"/>
     </g>
     <g id="line2d_24">
      <g>
       <use xlink:href="#ma305c676fa" x="129.775152" y="187.530833" style="stroke: #000000; stroke-width: 0.8"/>
      </g>
     </g>
     <g id="text_13">
      <!-- 0.8 -->
      <g transform="translate(83.017339 197.02888) scale(0.25 -0.25)">
       <defs>
        <path id="DejaVuSans-38" d="M 2034 2216 
Q 1584 2216 1326 1975 
Q 1069 1734 1069 1313 
Q 1069 891 1326 650 
Q 1584 409 2034 409 
Q 2484 409 2743 651 
Q 3003 894 3003 1313 
Q 3003 1734 2745 1975 
Q 2488 2216 2034 2216 
z
M 1403 2484 
Q 997 2584 770 2862 
Q 544 3141 544 3541 
Q 544 4100 942 4425 
Q 1341 4750 2034 4750 
Q 2731 4750 3128 4425 
Q 3525 4100 3525 3541 
Q 3525 3141 3298 2862 
Q 3072 2584 2669 2484 
Q 3125 2378 3379 2068 
Q 3634 1759 3634 1313 
Q 3634 634 3220 271 
Q 2806 -91 2034 -91 
Q 1263 -91 848 271 
Q 434 634 434 1313 
Q 434 1759 690 2068 
Q 947 2378 1403 2484 
z
M 1172 3481 
Q 1172 3119 1398 2916 
Q 1625 2713 2034 2713 
Q 2441 2713 2670 2916 
Q 2900 3119 2900 3481 
Q 2900 3844 2670 4047 
Q 2441 4250 2034 4250 
Q 1625 4250 1398 4047 
Q 1172 3844 1172 3481 
z
" transform="scale(0.015625)"/>
       </defs>
       <use xlink:href="#DejaVuSans-30"/>
       <use xlink:href="#DejaVuSans-2e" x="63.623047"/>
       <use xlink:href="#DejaVuSans-38" x="95.410156"/>
      </g>
     </g>
    </g>
    <g id="ytick_6">
     <g id="line2d_25">
      <path d="M 129.775152 112.125417 
L 685.035 112.125417 
" clip-path="url(#pde9be2db35)" style="fill: none; stroke: #b0b0b0; stroke-width: 0.8; stroke-linecap: square"/>
     </g>
     <g id="line2d_26">
      <g>
       <use xlink:href="#ma305c676fa" x="129.775152" y="112.125417" style="stroke: #000000; stroke-width: 0.8"/>
      </g>
     </g>
     <g id="text_14">
      <!-- 1.0 -->
      <g transform="translate(83.017339 121.623464) scale(0.25 -0.25)">
       <use xlink:href="#DejaVuSans-31"/>
       <use xlink:href="#DejaVuSans-2e" x="63.623047"/>
       <use xlink:href="#DejaVuSans-30" x="95.410156"/>
      </g>
     </g>
    </g>
    <g id="ytick_7">
     <g id="line2d_27">
      <path d="M 129.775152 36.72 
L 685.035 36.72 
" clip-path="url(#pde9be2db35)" style="fill: none; stroke: #b0b0b0; stroke-width: 0.8; stroke-linecap: square"/>
     </g>
     <g id="line2d_28">
      <g>
       <use xlink:href="#ma305c676fa" x="129.775152" y="36.72" style="stroke: #000000; stroke-width: 0.8"/>
      </g>
     </g>
     <g id="text_15">
      <!-- 1.2 -->
      <g transform="translate(83.017339 46.218047) scale(0.25 -0.25)">
       <use xlink:href="#DejaVuSans-31"/>
       <use xlink:href="#DejaVuSans-2e" x="63.623047"/>
       <use xlink:href="#DejaVuSans-32" x="95.410156"/>
      </g>
     </g>
    </g>
    <g id="text_16">
     <!-- $\rho$($\omega$) -->
     <g transform="translate(27.017339 257.68625) scale(0.25 -0.25)">
      <defs>
       <path id="DejaVuSans-Oblique-3c1" d="M 1203 2875 
Q 1453 3194 1981 3475 
Q 2188 3584 2756 3584 
Q 3394 3584 3694 3078 
Q 3994 2572 3834 1747 
Q 3672 922 3175 415 
Q 2678 -91 2041 -91 
Q 1656 -91 1409 63 
Q 1163 213 1044 525 
L 681 -1331 
L 103 -1331 
L 697 1716 
Q 838 2438 1203 2875 
z
M 3238 1747 
Q 3359 2381 3169 2744 
Q 2978 3103 2522 3103 
Q 2066 3103 1734 2744 
Q 1403 2381 1281 1747 
Q 1156 1113 1347 750 
Q 1538 391 1994 391 
Q 2450 391 2781 750 
Q 3113 1113 3238 1747 
z
" transform="scale(0.015625)"/>
       <path id="Calibri-28" d="M 1547 4306 
Q 1250 3678 1104 3017 
Q 959 2356 959 1688 
Q 959 1016 1107 356 
Q 1256 -303 1541 -938 
Q 1556 -975 1557 -1001 
Q 1559 -1028 1537 -1045 
Q 1516 -1063 1470 -1070 
Q 1425 -1078 1347 -1078 
Q 1291 -1078 1250 -1075 
Q 1209 -1072 1179 -1062 
Q 1150 -1053 1131 -1040 
Q 1113 -1028 1103 -1013 
Q 934 -694 806 -367 
Q 678 -41 590 296 
Q 503 634 459 979 
Q 416 1325 416 1678 
Q 416 2031 464 2375 
Q 513 2719 602 3058 
Q 691 3397 819 3725 
Q 947 4053 1106 4375 
Q 1109 4388 1123 4397 
Q 1138 4406 1163 4415 
Q 1188 4425 1231 4429 
Q 1275 4434 1344 4434 
Q 1416 4434 1459 4425 
Q 1503 4416 1528 4400 
Q 1553 4384 1556 4359 
Q 1559 4334 1547 4306 
z
" transform="scale(0.015625)"/>
       <path id="Calibri-29" d="M 1522 1678 
Q 1522 1325 1478 979 
Q 1434 634 1346 296 
Q 1259 -41 1132 -367 
Q 1006 -694 838 -1013 
Q 828 -1028 809 -1040 
Q 791 -1053 761 -1062 
Q 731 -1072 690 -1075 
Q 650 -1078 594 -1078 
Q 513 -1078 467 -1070 
Q 422 -1063 401 -1045 
Q 381 -1028 382 -1001 
Q 384 -975 400 -938 
Q 688 -306 834 355 
Q 981 1016 981 1688 
Q 981 2356 834 3017 
Q 688 3678 394 4306 
Q 381 4334 384 4359 
Q 388 4384 413 4400 
Q 438 4416 481 4425 
Q 525 4434 597 4434 
Q 663 4434 706 4429 
Q 750 4425 776 4415 
Q 803 4406 815 4397 
Q 828 4388 834 4375 
Q 1156 3734 1339 3057 
Q 1522 2381 1522 1678 
z
" transform="scale(0.015625)"/>
      </defs>
      <use xlink:href="#DejaVuSans-Oblique-3c1" transform="translate(0 0.71875)"/>
      <use xlink:href="#Calibri-28" transform="translate(63.476562 0.71875)"/>
      <use xlink:href="#DejaVuSans-Oblique-3c9" transform="translate(93.798828 0.71875)"/>
      <use xlink:href="#Calibri-29" transform="translate(177.539062 0.71875)"/>
     </g>
    </g>
   </g>
   <g id="line2d_29">
    <path d="M 129.775152 485.191726 
L 155.317105 484.358547 
L 176.416979 483.455768 
L 194.185294 482.483241 
L 209.73257 481.41398 
L 223.058806 480.280428 
L 234.719263 479.073027 
L 245.2692 477.757219 
L 254.708618 476.351279 
L 263.037516 474.885804 
L 270.255894 473.405198 
L 276.919012 471.827331 
L 283.02687 470.166711 
L 288.579469 468.444876 
L 294.132067 466.482825 
L 299.129406 464.47402 
L 303.571484 462.461225 
L 308.013563 460.198636 
L 311.900382 457.981343 
L 315.787201 455.507575 
L 319.67402 452.737724 
L 323.005579 450.092377 
L 326.337138 447.159915 
L 329.668697 443.899314 
L 332.444997 440.896992 
L 335.221296 437.601191 
L 337.997595 433.974823 
L 340.773894 429.975257 
L 343.550193 425.553428 
L 346.326493 420.652815 
L 349.102792 415.208293 
L 351.323831 410.411031 
L 353.544871 405.174383 
L 355.76591 399.4498 
L 357.98695 393.183265 
L 360.207989 386.314927 
L 362.429028 378.778877 
L 364.650068 370.503147 
L 366.871107 361.410081 
L 369.092146 351.417284 
L 371.313186 340.439429 
L 373.534225 328.391304 
L 375.755265 315.192611 
L 377.976304 300.775141 
L 380.197343 285.093043 
L 382.973643 263.70268 
L 385.749942 240.43442 
L 389.081501 210.496774 
L 396.299879 144.292017 
L 398.520918 126.273182 
L 400.186698 114.444594 
L 401.852478 104.500423 
L 402.962997 99.099692 
L 404.073517 94.793115 
L 405.184037 91.658303 
L 405.739296 90.549312 
L 406.294556 89.753379 
L 406.849816 89.274291 
L 407.405076 89.11434 
L 407.960336 89.274291 
L 408.515596 89.753379 
L 409.070856 90.549312 
L 409.626115 91.658303 
L 410.736635 94.793115 
L 411.847155 99.099692 
L 412.957674 104.500423 
L 414.068194 110.901592 
L 415.733974 122.145014 
L 417.399753 135.011069 
L 419.620793 153.999886 
L 423.507612 189.812362 
L 428.50495 235.578616 
L 431.281249 259.192647 
L 434.057549 280.972775 
L 436.833848 300.775141 
L 439.054887 315.192611 
L 441.275927 328.391304 
L 443.496966 340.439429 
L 445.718006 351.417284 
L 447.939045 361.410081 
L 450.160084 370.503147 
L 452.381124 378.778877 
L 454.602163 386.314927 
L 456.823202 393.183265 
L 459.044242 399.4498 
L 461.265281 405.174383 
L 464.04158 411.649757 
L 466.81788 417.455934 
L 469.594179 422.674476 
L 472.370478 427.376269 
L 475.146777 431.622852 
L 477.923077 435.467632 
L 480.699376 438.956987 
L 483.475675 442.13123 
L 486.807234 445.57346 
L 490.138793 448.664447 
L 493.470352 451.448621 
L 496.801912 453.963893 
L 500.68873 456.60155 
L 504.575549 458.960941 
L 508.462368 461.078859 
L 512.904447 463.243293 
L 517.346526 465.171697 
L 522.343865 467.099193 
L 527.896463 468.984814 
L 533.449061 470.642156 
L 539.55692 472.243001 
L 546.220038 473.766417 
L 553.438416 475.198135 
L 561.767314 476.617463 
L 570.651471 477.907387 
L 580.646149 479.13592 
L 591.751346 480.280428 
L 604.522322 481.37117 
L 618.959078 482.379585 
L 635.616874 483.318352 
L 655.050968 484.187177 
L 678.371882 484.996588 
L 685.035 485.191726 
L 685.035 485.191726 
" clip-path="url(#pde9be2db35)" style="fill: none; stroke-dasharray: 14.8,6.4; stroke-dashoffset: 0; stroke: #ff0000; stroke-width: 4"/>
   </g>
   <g id="line2d_30">
    <path d="M 129.775152 475.562783 
L 133.106711 475.065298 
L 135.88301 474.416114 
L 141.990869 472.707098 
L 144.767168 472.25426 
L 147.543467 472.068316 
L 149.764507 471.862235 
L 151.985546 471.380109 
L 155.872365 470.395257 
L 158.648664 470.013425 
L 164.201263 469.408613 
L 168.643341 468.634769 
L 174.19594 467.330012 
L 180.859058 464.990556 
L 183.635357 463.696976 
L 185.856397 462.75566 
L 188.632696 461.922437 
L 190.298475 461.297751 
L 191.408995 460.641928 
L 193.074775 459.341288 
L 195.295814 457.247603 
L 198.072113 454.417116 
L 199.182633 453.556615 
L 200.293153 453.027303 
L 203.624712 452.077971 
L 205.845751 451.124203 
L 207.511531 450.774575 
L 209.73257 450.370341 
L 211.39835 449.787667 
L 213.064129 448.891678 
L 216.950948 446.374557 
L 220.282507 444.252468 
L 221.948287 443.591791 
L 223.058806 443.15272 
L 225.279846 441.896888 
L 228.056145 440.265858 
L 229.166665 439.206376 
L 230.832444 437.178493 
L 234.164003 432.77641 
L 235.274523 432.068868 
L 236.385043 431.748814 
L 237.495562 431.476038 
L 238.606082 430.908626 
L 240.827122 429.26323 
L 241.382381 429.074719 
L 243.603421 428.775482 
L 244.158681 428.36361 
L 245.2692 426.956725 
L 246.93498 424.479965 
L 248.0455 423.186312 
L 249.156019 422.252704 
L 249.711279 421.991467 
L 250.821799 421.864192 
L 251.932319 421.752177 
L 252.487578 421.523716 
L 253.598098 420.700225 
L 254.708618 419.789238 
L 255.263878 419.488283 
L 255.819137 419.34763 
L 256.374397 419.37274 
L 258.595437 419.985571 
L 260.261216 420.023658 
L 261.371736 419.954292 
L 261.926996 419.829745 
L 262.482256 419.484758 
L 263.037516 418.798878 
L 264.703295 415.795487 
L 265.258555 415.30275 
L 265.813815 415.221837 
L 266.924334 415.603142 
L 268.034854 416.195376 
L 268.590114 416.705351 
L 270.811153 419.406877 
L 271.366413 419.74737 
L 271.921673 419.914411 
L 272.476933 419.883405 
L 273.032193 419.605262 
L 274.142712 418.43415 
L 274.697972 417.812464 
L 275.253232 417.402102 
L 275.808492 417.338124 
L 276.363752 417.640467 
L 277.474272 418.692715 
L 278.029531 418.997884 
L 278.584791 419.007125 
L 279.695311 418.620977 
L 280.250571 418.614958 
L 280.805831 418.845758 
L 281.91635 419.517765 
L 283.58213 420.178926 
L 284.69265 420.973912 
L 285.247909 421.193356 
L 285.803169 421.154329 
L 286.358429 420.895784 
L 287.468949 420.001188 
L 288.024209 419.522999 
L 288.579469 419.195958 
L 289.134728 419.187737 
L 289.689988 419.586212 
L 290.800508 421.001067 
L 291.355768 421.299465 
L 291.911028 420.964213 
L 293.021547 419.335009 
L 293.576807 418.939264 
L 294.132067 419.154586 
L 294.687327 419.903941 
L 295.797847 421.911365 
L 296.353106 422.659252 
L 296.908366 423.118245 
L 297.463626 423.401723 
L 298.018886 423.819058 
L 298.574146 424.618392 
L 299.684665 426.487584 
L 301.905705 428.985037 
L 302.460965 429.113721 
L 304.126744 428.843509 
L 304.682004 428.727507 
L 305.237264 428.347759 
L 306.347784 427.070995 
L 306.903043 426.363441 
L 307.458303 425.471063 
L 308.568823 423.177913 
L 309.124083 422.476663 
L 309.679343 422.341738 
L 310.234603 422.630806 
L 311.345122 423.497101 
L 311.900382 423.512415 
L 312.455642 423.185209 
L 314.676681 420.87394 
L 315.231941 419.418515 
L 316.342461 415.373945 
L 316.897721 414.18693 
L 317.452981 413.973609 
L 318.00824 414.437161 
L 318.5635 415.234914 
L 319.11876 416.618912 
L 321.895059 426.733808 
L 323.005579 429.540339 
L 323.560839 430.589389 
L 324.116099 431.153486 
L 324.671359 431.075024 
L 325.781878 429.908958 
L 326.892398 428.684002 
L 327.447658 427.846549 
L 328.002918 427.355703 
L 328.558178 427.78118 
L 329.668697 430.340693 
L 330.223957 431.029033 
L 330.779217 431.367002 
L 331.334477 431.452667 
L 331.889737 430.544333 
L 332.444997 428.769318 
L 333.000256 427.493847 
L 333.555516 427.448573 
L 334.110776 427.840878 
L 334.666036 427.49451 
L 335.221296 426.534167 
L 335.776556 426.209446 
L 336.887075 427.511235 
L 337.442335 427.70981 
L 337.997595 427.452955 
L 338.552855 426.182674 
L 339.108115 424.416276 
L 339.663375 423.518279 
L 340.218634 423.312051 
L 340.773894 423.471538 
L 341.329154 423.974345 
L 342.439674 423.036928 
L 342.994934 423.612263 
L 344.105453 425.895879 
L 344.660713 427.38177 
L 345.771233 434.630132 
L 346.326493 436.851523 
L 346.881753 437.581979 
L 347.437012 437.183743 
L 348.547532 434.75047 
L 349.102792 434.367315 
L 349.658052 434.736301 
L 350.768571 435.926628 
L 351.323831 436.696437 
L 352.989611 439.922925 
L 353.544871 439.814516 
L 354.100131 437.840532 
L 354.65539 434.906086 
L 355.21065 433.576522 
L 356.32117 437.421385 
L 357.43169 439.593474 
L 357.98695 439.632382 
L 359.097469 440.273095 
L 359.652729 439.266973 
L 360.207989 436.783962 
L 360.763249 435.643276 
L 361.318509 434.180951 
L 361.873768 430.849886 
L 362.429028 430.467962 
L 363.539548 433.185627 
L 365.205328 439.785858 
L 365.760587 439.685858 
L 366.315847 440.802763 
L 366.871107 443.924472 
L 367.426367 445.666151 
L 367.981627 445.353602 
L 368.536887 439.489264 
L 369.092146 435.258601 
L 369.647406 436.797265 
L 370.202666 440.09908 
L 370.757926 442.533506 
L 371.313186 443.080366 
L 371.868446 441.778996 
L 372.423706 438.368397 
L 372.978965 436.258011 
L 373.534225 437.094187 
L 374.089485 436.632506 
L 374.644745 436.366745 
L 375.200005 433.41473 
L 376.310524 430.597235 
L 376.865784 431.461472 
L 377.421044 435.13376 
L 377.976304 437.969977 
L 378.531564 437.733097 
L 379.086824 432.031541 
L 379.642084 428.078681 
L 380.197343 422.117224 
L 380.752603 426.282178 
L 381.307863 431.451001 
L 381.863123 432.539639 
L 382.418383 434.143281 
L 382.973643 436.19977 
L 383.528903 436.628993 
L 384.084162 426.804607 
L 384.639422 424.595237 
L 385.194682 425.221052 
L 385.749942 426.290223 
L 386.305202 415.519818 
L 386.860462 411.182598 
L 387.415721 425.502063 
L 387.970981 436.020096 
L 388.526241 430.218522 
L 389.081501 426.317918 
L 389.636761 437.261663 
L 390.192021 432.800039 
L 390.747281 414.820496 
L 391.30254 423.954973 
L 391.8578 416.482575 
L 392.41306 411.945786 
L 392.96832 394.364253 
L 393.52358 409.916299 
L 394.07884 406.453292 
L 394.634099 388.081668 
L 395.189359 383.799787 
L 395.744619 344.441046 
L 396.299879 397.443813 
L 396.855139 418.266968 
L 397.410399 399.927472 
L 397.965659 400.003215 
L 398.520918 384.769416 
L 399.076178 379.85902 
L 399.631438 360.665713 
L 400.186698 351.60363 
L 400.741958 333.408781 
L 401.297218 330.280964 
L 401.852478 331.120114 
L 402.407737 311.691283 
L 403.518257 223.964903 
L 404.073517 231.896699 
L 404.628777 244.169035 
L 405.184037 188.616939 
L 406.294556 116.963879 
L 406.849816 97.071511 
L 407.405076 89.905212 
L 407.960336 94.472104 
L 408.515596 111.756719 
L 409.070856 137.873476 
L 409.626115 131.848647 
L 412.402415 355.384087 
L 412.957674 317.128209 
L 413.512934 324.080904 
L 414.068194 311.893449 
L 414.623454 355.777306 
L 415.178714 348.345111 
L 415.733974 372.357111 
L 416.289234 362.019563 
L 416.844493 365.91863 
L 417.399753 381.971384 
L 417.955013 390.827173 
L 418.510273 402.937071 
L 419.065533 408.884623 
L 419.620793 385.79724 
L 420.176052 400.033841 
L 420.731312 407.945397 
L 421.286572 406.712299 
L 421.841832 421.14039 
L 422.397092 405.180187 
L 422.952352 394.184787 
L 423.507612 403.257173 
L 424.062871 403.648956 
L 424.618131 423.824449 
L 425.173391 426.832293 
L 425.728651 427.720825 
L 426.839171 422.675211 
L 427.394431 425.321172 
L 427.94969 423.729839 
L 429.06021 431.447647 
L 429.61547 432.820274 
L 430.17073 436.983474 
L 430.72599 436.641344 
L 431.281249 442.030847 
L 431.836509 440.34739 
L 432.391769 434.674321 
L 433.502289 445.449792 
L 434.612809 433.533179 
L 435.168068 431.472217 
L 435.723328 435.803383 
L 436.278588 435.821545 
L 436.833848 434.698164 
L 437.389108 435.148792 
L 437.944368 433.163106 
L 438.499627 434.223971 
L 439.054887 436.451401 
L 439.610147 439.369469 
L 440.165407 440.498075 
L 440.720667 439.947549 
L 441.275927 438.737787 
L 442.386446 434.270748 
L 442.941706 437.684816 
L 443.496966 438.442136 
L 444.607486 434.008331 
L 445.162746 436.765713 
L 445.718006 438.785031 
L 446.273265 438.159427 
L 446.828525 441.360009 
L 447.383785 443.425941 
L 447.939045 444.736768 
L 448.494305 446.42274 
L 449.049565 445.769646 
L 449.604824 444.797735 
L 450.160084 445.497146 
L 450.715344 446.754995 
L 451.270604 446.095289 
L 452.381124 443.950334 
L 452.936384 443.381239 
L 453.491643 441.94807 
L 454.046903 440.079758 
L 454.602163 439.308468 
L 455.157423 440.233434 
L 455.712683 440.173059 
L 456.823202 434.909785 
L 457.378462 433.93737 
L 458.488982 436.096279 
L 459.044242 436.41393 
L 459.599502 435.760857 
L 460.154762 433.031286 
L 461.265281 422.343441 
L 461.820541 423.631118 
L 462.375801 427.717974 
L 462.931061 430.678075 
L 463.486321 431.604856 
L 464.59684 429.461978 
L 465.1521 429.149417 
L 465.70736 429.439802 
L 466.81788 428.147234 
L 467.37314 427.935932 
L 468.483659 425.908773 
L 469.038919 426.383138 
L 469.594179 428.7116 
L 470.149439 431.756897 
L 470.704699 434.169657 
L 471.259959 435.412241 
L 471.815218 436.334799 
L 472.370478 436.834552 
L 472.925738 436.642858 
L 473.480998 435.683655 
L 474.591518 433.04894 
L 475.146777 432.502988 
L 476.257297 432.454638 
L 477.923077 430.920128 
L 479.033596 430.264989 
L 479.588856 429.948174 
L 480.144116 429.99618 
L 480.699376 430.405906 
L 481.254636 430.987529 
L 481.809896 431.736516 
L 483.475675 434.7077 
L 484.030935 434.506582 
L 485.141455 432.97771 
L 485.696715 432.805748 
L 486.251974 433.122546 
L 486.807234 433.238134 
L 487.362494 432.960225 
L 487.917754 432.997317 
L 489.028274 433.907688 
L 490.694053 434.488197 
L 491.249313 434.312515 
L 491.804573 433.957521 
L 492.359833 433.330074 
L 493.470352 431.499881 
L 494.025612 430.981442 
L 494.580872 430.823386 
L 495.136132 430.884175 
L 495.691392 430.703524 
L 496.246652 429.667599 
L 496.801912 427.538596 
L 497.912431 422.574044 
L 498.467691 421.732098 
L 499.022951 422.14118 
L 500.133471 423.828993 
L 500.68873 424.225491 
L 501.24399 424.071594 
L 501.79925 423.338981 
L 502.90977 420.78761 
L 503.46503 419.983693 
L 504.02029 420.126442 
L 506.796589 423.652368 
L 507.351849 423.585758 
L 507.907108 423.042309 
L 509.017628 421.697886 
L 510.128148 420.545666 
L 510.683408 420.239966 
L 511.238668 420.601039 
L 512.349187 422.649415 
L 512.904447 423.243577 
L 513.459707 423.155553 
L 514.570227 421.792187 
L 515.680746 420.547814 
L 516.791266 419.650318 
L 517.346526 419.435496 
L 519.567565 419.132995 
L 520.122825 419.2045 
L 520.678085 419.602899 
L 521.788605 420.667282 
L 522.343865 420.84103 
L 522.899124 420.772139 
L 523.454384 420.524828 
L 526.230683 418.561104 
L 527.896463 417.963959 
L 528.451723 417.567259 
L 529.006983 416.947245 
L 530.672762 414.316566 
L 531.228022 413.905916 
L 531.783282 414.045673 
L 532.338542 414.614406 
L 535.114841 418.381828 
L 535.670101 418.870944 
L 536.225361 419.201109 
L 537.33588 419.469017 
L 538.4464 419.625416 
L 539.00166 419.580714 
L 539.55692 419.268139 
L 540.11218 418.63303 
L 541.222699 416.941719 
L 541.777959 416.31722 
L 542.333219 416.029883 
L 542.888479 416.062604 
L 543.998999 416.436369 
L 544.554258 416.391951 
L 545.109518 416.074492 
L 546.220038 414.877817 
L 547.330558 413.302249 
L 548.441077 411.236179 
L 549.551597 409.144592 
L 550.106857 408.4729 
L 550.662117 408.188993 
L 551.217377 408.305215 
L 551.772636 408.84722 
L 552.327896 409.847414 
L 553.438416 412.914683 
L 555.104196 417.702109 
L 556.214715 420.068716 
L 556.769975 420.929203 
L 557.325235 421.526454 
L 557.880495 421.87955 
L 558.435755 422.050594 
L 559.546274 422.042748 
L 560.656794 421.662914 
L 561.767314 421.115617 
L 562.322574 420.954917 
L 562.877833 420.958218 
L 563.433093 421.143046 
L 563.988353 421.496444 
L 565.098873 422.609409 
L 566.764652 424.542771 
L 567.875172 425.457143 
L 568.985692 426.153892 
L 569.540952 426.398842 
L 570.096211 426.492345 
L 570.651471 426.398597 
L 572.317251 425.668088 
L 572.872511 425.60088 
L 573.427771 425.677966 
L 574.53829 426.159039 
L 575.64881 426.991562 
L 577.314589 428.371831 
L 578.425109 428.972189 
L 582.311928 430.803924 
L 583.977708 431.793817 
L 586.198747 433.265672 
L 587.864527 434.10343 
L 590.085566 435.167969 
L 591.196086 435.978427 
L 592.861865 437.6402 
L 594.527645 439.604571 
L 596.193424 441.933667 
L 597.859204 444.254472 
L 598.969724 445.334385 
L 600.080243 445.929444 
L 602.856542 447.000671 
L 605.077582 448.358846 
L 607.853881 449.935317 
L 609.519661 451.020527 
L 611.7407 452.570586 
L 613.40648 453.402329 
L 615.627519 454.30016 
L 619.514338 455.671981 
L 620.624858 456.304075 
L 622.290637 457.586968 
L 623.956417 458.84387 
L 625.066936 459.44741 
L 626.177456 459.815983 
L 630.064275 460.690131 
L 631.730055 461.650502 
L 633.951094 462.975903 
L 636.172133 463.963273 
L 640.058952 465.34491 
L 647.27733 467.700489 
L 652.829929 468.710346 
L 655.050968 469.566093 
L 657.827267 470.621101 
L 662.824606 472.096276 
L 667.821945 473.503154 
L 671.153504 474.446058 
L 674.485063 475.091399 
L 681.148181 476.325895 
L 685.035 477.025777 
L 685.035 477.025777 
" clip-path="url(#pde9be2db35)" style="fill: none; stroke: #0000ff; stroke-width: 1.5; stroke-linecap: square"/>
   </g>
   <g id="patch_3">
    <path d="M 129.775152 489.1525 
L 129.775152 36.72 
" style="fill: none; stroke: #000000; stroke-width: 0.8; stroke-linejoin: miter; stroke-linecap: square"/>
   </g>
   <g id="patch_4">
    <path d="M 685.035 489.1525 
L 685.035 36.72 
" style="fill: none; stroke: #000000; stroke-width: 0.8; stroke-linejoin: miter; stroke-linecap: square"/>
   </g>
   <g id="patch_5">
    <path d="M 129.775152 489.1525 
L 685.035 489.1525 
" style="fill: none; stroke: #000000; stroke-width: 0.8; stroke-linejoin: miter; stroke-linecap: square"/>
   </g>
   <g id="patch_6">
    <path d="M 129.775152 36.72 
L 685.035 36.72 
" style="fill: none; stroke: #000000; stroke-width: 0.8; stroke-linejoin: miter; stroke-linecap: square"/>
   </g>
   <g id="legend_1">
    <g id="patch_7">
     <path d="M 517.415 100.260156 
L 676.535 100.260156 
L 676.535 45.22 
L 517.415 45.22 
z
" style="fill: #ffffff; opacity: 0.8; stroke: #000000; stroke-linejoin: miter"/>
    </g>
    <g id="line2d_31">
     <path d="M 524.215 58.987344 
L 541.215 58.987344 
L 558.215 58.987344 
" style="fill: none; stroke-dasharray: 14.8,6.4; stroke-dashoffset: 0; stroke: #ff0000; stroke-width: 4"/>
    </g>
    <g id="text_17">
     <!-- $\rho_0$ -->
     <g transform="translate(571.815 64.937344) scale(0.17 -0.17)">
      <use xlink:href="#DejaVuSans-Oblique-3c1"/>
      <use xlink:href="#DejaVuSans-30" transform="translate(63.476562 -16.40625) scale(0.7)"/>
     </g>
    </g>
    <g id="line2d_32">
     <path d="M 524.215 83.974688 
L 541.215 83.974688 
L 558.215 83.974688 
" style="fill: none; stroke: #0000ff; stroke-width: 1.5; stroke-linecap: square"/>
    </g>
    <g id="text_18">
     <!-- $\it{k_bT= 0.000}$ -->
     <g transform="translate(571.815 89.924688) scale(0.17 -0.17)">
      <defs>
       <path id="DejaVuSans-Oblique-6b" d="M 1172 4863 
L 1747 4863 
L 1197 2028 
L 3169 3500 
L 3916 3500 
L 1716 1825 
L 3322 0 
L 2625 0 
L 1131 1709 
L 800 0 
L 225 0 
L 1172 4863 
z
" transform="scale(0.015625)"/>
       <path id="DejaVuSans-Oblique-62" d="M 3169 2138 
Q 3169 2591 2961 2847 
Q 2753 3103 2388 3103 
Q 2122 3103 1889 2973 
Q 1656 2844 1484 2597 
Q 1303 2338 1198 1995 
Q 1094 1653 1094 1313 
Q 1094 881 1298 636 
Q 1503 391 1863 391 
Q 2134 391 2365 517 
Q 2597 644 2772 891 
Q 2950 1147 3059 1487 
Q 3169 1828 3169 2138 
z
M 1381 2969 
Q 1594 3256 1914 3420 
Q 2234 3584 2584 3584 
Q 3122 3584 3439 3221 
Q 3756 2859 3756 2241 
Q 3756 1734 3570 1259 
Q 3384 784 3041 416 
Q 2816 172 2522 40 
Q 2228 -91 1906 -91 
Q 1566 -91 1316 65 
Q 1066 222 909 531 
L 806 0 
L 231 0 
L 1178 4863 
L 1753 4863 
L 1381 2969 
z
" transform="scale(0.015625)"/>
       <path id="DejaVuSans-Oblique-54" d="M 378 4666 
L 4325 4666 
L 4225 4134 
L 2559 4134 
L 1759 0 
L 1125 0 
L 1925 4134 
L 275 4134 
L 378 4666 
z
" transform="scale(0.015625)"/>
       <path id="DejaVuSans-3d" d="M 678 2906 
L 4684 2906 
L 4684 2381 
L 678 2381 
L 678 2906 
z
M 678 1631 
L 4684 1631 
L 4684 1100 
L 678 1100 
L 678 1631 
z
" transform="scale(0.015625)"/>
      </defs>
      <use xlink:href="#DejaVuSans-Oblique-6b" transform="translate(0 0.015625)"/>
      <use xlink:href="#DejaVuSans-Oblique-62" transform="translate(57.910156 -16.390625) scale(0.7)"/>
      <use xlink:href="#DejaVuSans-Oblique-54" transform="translate(105.078125 0.015625)"/>
      <use xlink:href="#DejaVuSans-3d" transform="translate(185.644531 0.015625)"/>
      <use xlink:href="#DejaVuSans-30" transform="translate(288.916016 0.015625)"/>
      <use xlink:href="#DejaVuSans-2e" transform="translate(352.539062 0.015625)"/>
      <use xlink:href="#DejaVuSans-30" transform="translate(384.326172 0.015625)"/>
      <use xlink:href="#DejaVuSans-30" transform="translate(447.949219 0.015625)"/>
      <use xlink:href="#DejaVuSans-30" transform="translate(511.572266 0.015625)"/>
     </g>
    </g>
   </g>
  </g>
 </g>
 <defs>
  <clipPath id="pde9be2db35">
   <rect x="129.775152" y="36.72" width="555.259848" height="452.4325"/>
  </clipPath>
 </defs>
</svg>
