<?xml version="1.0" encoding="utf-8" standalone="no"?>
<!DOCTYPE svg PUBLIC "-//W3C//DTD SVG 1.1//EN"
  "http://www.w3.org/Graphics/SVG/1.1/DTD/svg11.dtd">
<svg xmlns:xlink="http://www.w3.org/1999/xlink" width="720pt" height="576pt" viewBox="0 0 720 576" xmlns="http://www.w3.org/2000/svg" version="1.1">
 <metadata>
  <rdf:RDF xmlns:dc="http://purl.org/dc/elements/1.1/" xmlns:cc="http://creativecommons.org/ns#" xmlns:rdf="http://www.w3.org/1999/02/22-rdf-syntax-ns#">
   <cc:Work>
    <dc:type rdf:resource="http://purl.org/dc/dcmitype/StillImage"/>
    <dc:date>2023-04-10T23:48:22.005214</dc:date>
    <dc:format>image/svg+xml</dc:format>
    <dc:creator>
     <cc:Agent>
      <dc:title>Matplotlib v3.7.1, https://matplotlib.org/</dc:title>
     </cc:Agent>
    </dc:creator>
   </cc:Work>
  </rdf:RDF>
 </metadata>
 <defs>
  <style type="text/css">*{stroke-linejoin: round; stroke-linecap: butt}</style>
 </defs>
 <g id="figure_1">
  <g id="patch_1">
   <path d="M 0 576 
L 720 576 
L 720 0 
L 0 0 
z
" style="fill: #ffffff"/>
  </g>
  <g id="axes_1">
   <g id="patch_2">
    <path d="M 148.197319 489.1525 
L 685.035 489.1525 
L 685.035 37.512 
L 148.197319 37.512 
z
" style="fill: #ffffff"/>
   </g>
   <g id="matplotlib.axis_1">
    <g id="xtick_1">
     <g id="line2d_1">
      <path d="M 148.197319 489.1525 
L 148.197319 37.512 
" clip-path="url(#pd08738ee71)" style="fill: none; stroke: #b0b0b0; stroke-width: 0.8; stroke-linecap: square"/>
     </g>
     <g id="line2d_2">
      <defs>
       <path id="m20f0b859b6" d="M 0 0 
L 0 3.5 
" style="stroke: #000000; stroke-width: 0.8"/>
      </defs>
      <g>
       <use xlink:href="#m20f0b859b6" x="148.197319" y="489.1525" style="stroke: #000000; stroke-width: 0.8"/>
      </g>
     </g>
     <g id="text_1">
      <!-- −8 -->
      <g transform="translate(129.769585 515.148594) scale(0.25 -0.25)">
       <defs>
        <path id="DejaVuSans-2212" d="M 678 2272 
L 4684 2272 
L 4684 1741 
L 678 1741 
L 678 2272 
z
" transform="scale(0.015625)"/>
        <path id="DejaVuSans-38" d="M 2034 2216 
Q 1584 2216 1326 1975 
Q 1069 1734 1069 1313 
Q 1069 891 1326 650 
Q 1584 409 2034 409 
Q 2484 409 2743 651 
Q 3003 894 3003 1313 
Q 3003 1734 2745 1975 
Q 2488 2216 2034 2216 
z
M 1403 2484 
Q 997 2584 770 2862 
Q 544 3141 544 3541 
Q 544 4100 942 4425 
Q 1341 4750 2034 4750 
Q 2731 4750 3128 4425 
Q 3525 4100 3525 3541 
Q 3525 3141 3298 2862 
Q 3072 2584 2669 2484 
Q 3125 2378 3379 2068 
Q 3634 1759 3634 1313 
Q 3634 634 3220 271 
Q 2806 -91 2034 -91 
Q 1263 -91 848 271 
Q 434 634 434 1313 
Q 434 1759 690 2068 
Q 947 2378 1403 2484 
z
M 1172 3481 
Q 1172 3119 1398 2916 
Q 1625 2713 2034 2713 
Q 2441 2713 2670 2916 
Q 2900 3119 2900 3481 
Q 2900 3844 2670 4047 
Q 2441 4250 2034 4250 
Q 1625 4250 1398 4047 
Q 1172 3844 1172 3481 
z
" transform="scale(0.015625)"/>
       </defs>
       <use xlink:href="#DejaVuSans-2212"/>
       <use xlink:href="#DejaVuSans-38" x="83.789062"/>
      </g>
     </g>
    </g>
    <g id="xtick_2">
     <g id="line2d_3">
      <path d="M 215.302029 489.1525 
L 215.302029 37.512 
" clip-path="url(#pd08738ee71)" style="fill: none; stroke: #b0b0b0; stroke-width: 0.8; stroke-linecap: square"/>
     </g>
     <g id="line2d_4">
      <g>
       <use xlink:href="#m20f0b859b6" x="215.302029" y="489.1525" style="stroke: #000000; stroke-width: 0.8"/>
      </g>
     </g>
     <g id="text_2">
      <!-- −6 -->
      <g transform="translate(196.874295 515.148594) scale(0.25 -0.25)">
       <defs>
        <path id="DejaVuSans-36" d="M 2113 2584 
Q 1688 2584 1439 2293 
Q 1191 2003 1191 1497 
Q 1191 994 1439 701 
Q 1688 409 2113 409 
Q 2538 409 2786 701 
Q 3034 994 3034 1497 
Q 3034 2003 2786 2293 
Q 2538 2584 2113 2584 
z
M 3366 4563 
L 3366 3988 
Q 3128 4100 2886 4159 
Q 2644 4219 2406 4219 
Q 1781 4219 1451 3797 
Q 1122 3375 1075 2522 
Q 1259 2794 1537 2939 
Q 1816 3084 2150 3084 
Q 2853 3084 3261 2657 
Q 3669 2231 3669 1497 
Q 3669 778 3244 343 
Q 2819 -91 2113 -91 
Q 1303 -91 875 529 
Q 447 1150 447 2328 
Q 447 3434 972 4092 
Q 1497 4750 2381 4750 
Q 2619 4750 2861 4703 
Q 3103 4656 3366 4563 
z
" transform="scale(0.015625)"/>
       </defs>
       <use xlink:href="#DejaVuSans-2212"/>
       <use xlink:href="#DejaVuSans-36" x="83.789062"/>
      </g>
     </g>
    </g>
    <g id="xtick_3">
     <g id="line2d_5">
      <path d="M 282.406739 489.1525 
L 282.406739 37.512 
" clip-path="url(#pd08738ee71)" style="fill: none; stroke: #b0b0b0; stroke-width: 0.8; stroke-linecap: square"/>
     </g>
     <g id="line2d_6">
      <g>
       <use xlink:href="#m20f0b859b6" x="282.406739" y="489.1525" style="stroke: #000000; stroke-width: 0.8"/>
      </g>
     </g>
     <g id="text_3">
      <!-- −4 -->
      <g transform="translate(263.979005 515.148594) scale(0.25 -0.25)">
       <defs>
        <path id="DejaVuSans-34" d="M 2419 4116 
L 825 1625 
L 2419 1625 
L 2419 4116 
z
M 2253 4666 
L 3047 4666 
L 3047 1625 
L 3713 1625 
L 3713 1100 
L 3047 1100 
L 3047 0 
L 2419 0 
L 2419 1100 
L 313 1100 
L 313 1709 
L 2253 4666 
z
" transform="scale(0.015625)"/>
       </defs>
       <use xlink:href="#DejaVuSans-2212"/>
       <use xlink:href="#DejaVuSans-34" x="83.789062"/>
      </g>
     </g>
    </g>
    <g id="xtick_4">
     <g id="line2d_7">
      <path d="M 349.51145 489.1525 
L 349.51145 37.512 
" clip-path="url(#pd08738ee71)" style="fill: none; stroke: #b0b0b0; stroke-width: 0.8; stroke-linecap: square"/>
     </g>
     <g id="line2d_8">
      <g>
       <use xlink:href="#m20f0b859b6" x="349.51145" y="489.1525" style="stroke: #000000; stroke-width: 0.8"/>
      </g>
     </g>
     <g id="text_4">
      <!-- −2 -->
      <g transform="translate(331.083715 515.148594) scale(0.25 -0.25)">
       <defs>
        <path id="DejaVuSans-32" d="M 1228 531 
L 3431 531 
L 3431 0 
L 469 0 
L 469 531 
Q 828 903 1448 1529 
Q 2069 2156 2228 2338 
Q 2531 2678 2651 2914 
Q 2772 3150 2772 3378 
Q 2772 3750 2511 3984 
Q 2250 4219 1831 4219 
Q 1534 4219 1204 4116 
Q 875 4013 500 3803 
L 500 4441 
Q 881 4594 1212 4672 
Q 1544 4750 1819 4750 
Q 2544 4750 2975 4387 
Q 3406 4025 3406 3419 
Q 3406 3131 3298 2873 
Q 3191 2616 2906 2266 
Q 2828 2175 2409 1742 
Q 1991 1309 1228 531 
z
" transform="scale(0.015625)"/>
       </defs>
       <use xlink:href="#DejaVuSans-2212"/>
       <use xlink:href="#DejaVuSans-32" x="83.789062"/>
      </g>
     </g>
    </g>
    <g id="xtick_5">
     <g id="line2d_9">
      <path d="M 416.61616 489.1525 
L 416.61616 37.512 
" clip-path="url(#pd08738ee71)" style="fill: none; stroke: #b0b0b0; stroke-width: 0.8; stroke-linecap: square"/>
     </g>
     <g id="line2d_10">
      <g>
       <use xlink:href="#m20f0b859b6" x="416.61616" y="489.1525" style="stroke: #000000; stroke-width: 0.8"/>
      </g>
     </g>
     <g id="text_5">
      <!-- 0 -->
      <g transform="translate(408.663035 515.148594) scale(0.25 -0.25)">
       <defs>
        <path id="DejaVuSans-30" d="M 2034 4250 
Q 1547 4250 1301 3770 
Q 1056 3291 1056 2328 
Q 1056 1369 1301 889 
Q 1547 409 2034 409 
Q 2525 409 2770 889 
Q 3016 1369 3016 2328 
Q 3016 3291 2770 3770 
Q 2525 4250 2034 4250 
z
M 2034 4750 
Q 2819 4750 3233 4129 
Q 3647 3509 3647 2328 
Q 3647 1150 3233 529 
Q 2819 -91 2034 -91 
Q 1250 -91 836 529 
Q 422 1150 422 2328 
Q 422 3509 836 4129 
Q 1250 4750 2034 4750 
z
" transform="scale(0.015625)"/>
       </defs>
       <use xlink:href="#DejaVuSans-30"/>
      </g>
     </g>
    </g>
    <g id="xtick_6">
     <g id="line2d_11">
      <path d="M 483.72087 489.1525 
L 483.72087 37.512 
" clip-path="url(#pd08738ee71)" style="fill: none; stroke: #b0b0b0; stroke-width: 0.8; stroke-linecap: square"/>
     </g>
     <g id="line2d_12">
      <g>
       <use xlink:href="#m20f0b859b6" x="483.72087" y="489.1525" style="stroke: #000000; stroke-width: 0.8"/>
      </g>
     </g>
     <g id="text_6">
      <!-- 2 -->
      <g transform="translate(475.767745 515.148594) scale(0.25 -0.25)">
       <use xlink:href="#DejaVuSans-32"/>
      </g>
     </g>
    </g>
    <g id="xtick_7">
     <g id="line2d_13">
      <path d="M 550.82558 489.1525 
L 550.82558 37.512 
" clip-path="url(#pd08738ee71)" style="fill: none; stroke: #b0b0b0; stroke-width: 0.8; stroke-linecap: square"/>
     </g>
     <g id="line2d_14">
      <g>
       <use xlink:href="#m20f0b859b6" x="550.82558" y="489.1525" style="stroke: #000000; stroke-width: 0.8"/>
      </g>
     </g>
     <g id="text_7">
      <!-- 4 -->
      <g transform="translate(542.872455 515.148594) scale(0.25 -0.25)">
       <use xlink:href="#DejaVuSans-34"/>
      </g>
     </g>
    </g>
    <g id="xtick_8">
     <g id="line2d_15">
      <path d="M 617.93029 489.1525 
L 617.93029 37.512 
" clip-path="url(#pd08738ee71)" style="fill: none; stroke: #b0b0b0; stroke-width: 0.8; stroke-linecap: square"/>
     </g>
     <g id="line2d_16">
      <g>
       <use xlink:href="#m20f0b859b6" x="617.93029" y="489.1525" style="stroke: #000000; stroke-width: 0.8"/>
      </g>
     </g>
     <g id="text_8">
      <!-- 6 -->
      <g transform="translate(609.977165 515.148594) scale(0.25 -0.25)">
       <use xlink:href="#DejaVuSans-36"/>
      </g>
     </g>
    </g>
    <g id="xtick_9">
     <g id="line2d_17">
      <path d="M 685.035 489.1525 
L 685.035 37.512 
" clip-path="url(#pd08738ee71)" style="fill: none; stroke: #b0b0b0; stroke-width: 0.8; stroke-linecap: square"/>
     </g>
     <g id="line2d_18">
      <g>
       <use xlink:href="#m20f0b859b6" x="685.035" y="489.1525" style="stroke: #000000; stroke-width: 0.8"/>
      </g>
     </g>
     <g id="text_9">
      <!-- 8 -->
      <g transform="translate(677.081875 515.148594) scale(0.25 -0.25)">
       <use xlink:href="#DejaVuSans-38"/>
      </g>
     </g>
    </g>
    <g id="text_10">
     <!-- $\omega$ [-] -->
     <g transform="translate(391.74116 541.351719) scale(0.25 -0.25)">
      <defs>
       <path id="DejaVuSans-Oblique-3c9" d="M 1369 -91 
Q 72 -91 434 1766 
Q 575 2500 1256 3500 
L 1875 3500 
Q 1231 2500 1088 1750 
Q 819 397 1519 397 
Q 2166 397 2478 2078 
L 3009 2078 
Q 2669 388 3316 397 
Q 4013 403 4275 1750 
Q 4419 2500 4169 3500 
L 4788 3500 
Q 5075 2500 4934 1766 
Q 4578 -94 3278 -91 
Q 2428 -88 2503 844 
Q 2194 -91 1369 -91 
z
" transform="scale(0.015625)"/>
       <path id="Calibri-20" transform="scale(0.015625)"/>
       <path id="Calibri-5b" d="M 1684 -813 
Q 1684 -916 1661 -958 
Q 1638 -1000 1594 -1000 
L 794 -1000 
Q 756 -1000 722 -989 
Q 688 -978 659 -953 
Q 631 -928 614 -886 
Q 597 -844 597 -781 
L 597 4153 
Q 597 4213 614 4255 
Q 631 4297 659 4323 
Q 688 4350 722 4361 
Q 756 4372 794 4372 
L 1594 4372 
Q 1613 4372 1630 4362 
Q 1647 4353 1659 4328 
Q 1672 4303 1678 4267 
Q 1684 4231 1684 4178 
Q 1684 4078 1661 4034 
Q 1638 3991 1594 3991 
L 1084 3991 
L 1084 -622 
L 1594 -622 
Q 1613 -622 1630 -631 
Q 1647 -641 1659 -664 
Q 1672 -688 1678 -723 
Q 1684 -759 1684 -813 
z
" transform="scale(0.015625)"/>
       <path id="Calibri-2d" d="M 1744 1578 
Q 1744 1456 1716 1409 
Q 1688 1363 1634 1363 
L 328 1363 
Q 272 1363 244 1411 
Q 216 1459 216 1578 
Q 216 1697 244 1744 
Q 272 1791 328 1791 
L 1634 1791 
Q 1659 1791 1679 1781 
Q 1700 1772 1714 1745 
Q 1728 1719 1736 1678 
Q 1744 1638 1744 1578 
z
" transform="scale(0.015625)"/>
       <path id="Calibri-5d" d="M 1369 -781 
Q 1369 -844 1351 -886 
Q 1334 -928 1306 -953 
Q 1278 -978 1242 -989 
Q 1206 -1000 1169 -1000 
L 372 -1000 
Q 328 -1000 304 -958 
Q 281 -916 281 -813 
Q 281 -759 286 -723 
Q 291 -688 303 -664 
Q 316 -641 333 -631 
Q 350 -622 372 -622 
L 881 -622 
L 881 3991 
L 372 3991 
Q 328 3991 304 4034 
Q 281 4078 281 4178 
Q 281 4231 286 4267 
Q 291 4303 303 4328 
Q 316 4353 333 4362 
Q 350 4372 372 4372 
L 1169 4372 
Q 1206 4372 1242 4361 
Q 1278 4350 1306 4323 
Q 1334 4297 1351 4255 
Q 1369 4213 1369 4153 
L 1369 -781 
z
" transform="scale(0.015625)"/>
      </defs>
      <use xlink:href="#DejaVuSans-Oblique-3c9" transform="translate(0 0.6875)"/>
      <use xlink:href="#Calibri-20" transform="translate(83.740234 0.6875)"/>
      <use xlink:href="#Calibri-5b" transform="translate(106.347656 0.6875)"/>
      <use xlink:href="#Calibri-2d" transform="translate(137.011719 0.6875)"/>
      <use xlink:href="#Calibri-5d" transform="translate(167.626953 0.6875)"/>
     </g>
    </g>
   </g>
   <g id="matplotlib.axis_2">
    <g id="ytick_1">
     <g id="line2d_19">
      <path d="M 148.197319 489.1525 
L 685.035 489.1525 
" clip-path="url(#pd08738ee71)" style="fill: none; stroke: #b0b0b0; stroke-width: 0.8; stroke-linecap: square"/>
     </g>
     <g id="line2d_20">
      <defs>
       <path id="m85e4b5a9b9" d="M 0 0 
L -3.5 0 
" style="stroke: #000000; stroke-width: 0.8"/>
      </defs>
      <g>
       <use xlink:href="#m85e4b5a9b9" x="148.197319" y="489.1525" style="stroke: #000000; stroke-width: 0.8"/>
      </g>
     </g>
     <g id="text_11">
      <!-- $\mathdefault{10^{-4}}$ -->
      <g transform="translate(82.447319 498.650547) scale(0.25 -0.25)">
       <defs>
        <path id="DejaVuSans-31" d="M 794 531 
L 1825 531 
L 1825 4091 
L 703 3866 
L 703 4441 
L 1819 4666 
L 2450 4666 
L 2450 531 
L 3481 531 
L 3481 0 
L 794 0 
L 794 531 
z
" transform="scale(0.015625)"/>
       </defs>
       <use xlink:href="#DejaVuSans-31" transform="translate(0 0.684375)"/>
       <use xlink:href="#DejaVuSans-30" transform="translate(63.623047 0.684375)"/>
       <use xlink:href="#DejaVuSans-2212" transform="translate(128.203125 38.965625) scale(0.7)"/>
       <use xlink:href="#DejaVuSans-34" transform="translate(186.855469 38.965625) scale(0.7)"/>
      </g>
     </g>
    </g>
    <g id="ytick_2">
     <g id="line2d_21">
      <path d="M 148.197319 398.8244 
L 685.035 398.8244 
" clip-path="url(#pd08738ee71)" style="fill: none; stroke: #b0b0b0; stroke-width: 0.8; stroke-linecap: square"/>
     </g>
     <g id="line2d_22">
      <g>
       <use xlink:href="#m85e4b5a9b9" x="148.197319" y="398.8244" style="stroke: #000000; stroke-width: 0.8"/>
      </g>
     </g>
     <g id="text_12">
      <!-- $\mathdefault{10^{-3}}$ -->
      <g transform="translate(82.447319 408.322447) scale(0.25 -0.25)">
       <defs>
        <path id="DejaVuSans-33" d="M 2597 2516 
Q 3050 2419 3304 2112 
Q 3559 1806 3559 1356 
Q 3559 666 3084 287 
Q 2609 -91 1734 -91 
Q 1441 -91 1130 -33 
Q 819 25 488 141 
L 488 750 
Q 750 597 1062 519 
Q 1375 441 1716 441 
Q 2309 441 2620 675 
Q 2931 909 2931 1356 
Q 2931 1769 2642 2001 
Q 2353 2234 1838 2234 
L 1294 2234 
L 1294 2753 
L 1863 2753 
Q 2328 2753 2575 2939 
Q 2822 3125 2822 3475 
Q 2822 3834 2567 4026 
Q 2313 4219 1838 4219 
Q 1578 4219 1281 4162 
Q 984 4106 628 3988 
L 628 4550 
Q 988 4650 1302 4700 
Q 1616 4750 1894 4750 
Q 2613 4750 3031 4423 
Q 3450 4097 3450 3541 
Q 3450 3153 3228 2886 
Q 3006 2619 2597 2516 
z
" transform="scale(0.015625)"/>
       </defs>
       <use xlink:href="#DejaVuSans-31" transform="translate(0 0.765625)"/>
       <use xlink:href="#DejaVuSans-30" transform="translate(63.623047 0.765625)"/>
       <use xlink:href="#DejaVuSans-2212" transform="translate(128.203125 39.046875) scale(0.7)"/>
       <use xlink:href="#DejaVuSans-33" transform="translate(186.855469 39.046875) scale(0.7)"/>
      </g>
     </g>
    </g>
    <g id="ytick_3">
     <g id="line2d_23">
      <path d="M 148.197319 308.4963 
L 685.035 308.4963 
" clip-path="url(#pd08738ee71)" style="fill: none; stroke: #b0b0b0; stroke-width: 0.8; stroke-linecap: square"/>
     </g>
     <g id="line2d_24">
      <g>
       <use xlink:href="#m85e4b5a9b9" x="148.197319" y="308.4963" style="stroke: #000000; stroke-width: 0.8"/>
      </g>
     </g>
     <g id="text_13">
      <!-- $\mathdefault{10^{-2}}$ -->
      <g transform="translate(82.447319 317.994347) scale(0.25 -0.25)">
       <use xlink:href="#DejaVuSans-31" transform="translate(0 0.765625)"/>
       <use xlink:href="#DejaVuSans-30" transform="translate(63.623047 0.765625)"/>
       <use xlink:href="#DejaVuSans-2212" transform="translate(128.203125 39.046875) scale(0.7)"/>
       <use xlink:href="#DejaVuSans-32" transform="translate(186.855469 39.046875) scale(0.7)"/>
      </g>
     </g>
    </g>
    <g id="ytick_4">
     <g id="line2d_25">
      <path d="M 148.197319 218.1682 
L 685.035 218.1682 
" clip-path="url(#pd08738ee71)" style="fill: none; stroke: #b0b0b0; stroke-width: 0.8; stroke-linecap: square"/>
     </g>
     <g id="line2d_26">
      <g>
       <use xlink:href="#m85e4b5a9b9" x="148.197319" y="218.1682" style="stroke: #000000; stroke-width: 0.8"/>
      </g>
     </g>
     <g id="text_14">
      <!-- $\mathdefault{10^{-1}}$ -->
      <g transform="translate(82.447319 227.666247) scale(0.25 -0.25)">
       <use xlink:href="#DejaVuSans-31" transform="translate(0 0.684375)"/>
       <use xlink:href="#DejaVuSans-30" transform="translate(63.623047 0.684375)"/>
       <use xlink:href="#DejaVuSans-2212" transform="translate(128.203125 38.965625) scale(0.7)"/>
       <use xlink:href="#DejaVuSans-31" transform="translate(186.855469 38.965625) scale(0.7)"/>
      </g>
     </g>
    </g>
    <g id="ytick_5">
     <g id="line2d_27">
      <path d="M 148.197319 127.8401 
L 685.035 127.8401 
" clip-path="url(#pd08738ee71)" style="fill: none; stroke: #b0b0b0; stroke-width: 0.8; stroke-linecap: square"/>
     </g>
     <g id="line2d_28">
      <g>
       <use xlink:href="#m85e4b5a9b9" x="148.197319" y="127.8401" style="stroke: #000000; stroke-width: 0.8"/>
      </g>
     </g>
     <g id="text_15">
      <!-- $\mathdefault{10^{0}}$ -->
      <g transform="translate(97.197319 137.338147) scale(0.25 -0.25)">
       <use xlink:href="#DejaVuSans-31" transform="translate(0 0.765625)"/>
       <use xlink:href="#DejaVuSans-30" transform="translate(63.623047 0.765625)"/>
       <use xlink:href="#DejaVuSans-30" transform="translate(128.203125 39.046875) scale(0.7)"/>
      </g>
     </g>
    </g>
    <g id="ytick_6">
     <g id="line2d_29">
      <path d="M 148.197319 37.512 
L 685.035 37.512 
" clip-path="url(#pd08738ee71)" style="fill: none; stroke: #b0b0b0; stroke-width: 0.8; stroke-linecap: square"/>
     </g>
     <g id="line2d_30">
      <g>
       <use xlink:href="#m85e4b5a9b9" x="148.197319" y="37.512" style="stroke: #000000; stroke-width: 0.8"/>
      </g>
     </g>
     <g id="text_16">
      <!-- $\mathdefault{10^{1}}$ -->
      <g transform="translate(97.197319 47.010047) scale(0.25 -0.25)">
       <use xlink:href="#DejaVuSans-31" transform="translate(0 0.684375)"/>
       <use xlink:href="#DejaVuSans-30" transform="translate(63.623047 0.684375)"/>
       <use xlink:href="#DejaVuSans-31" transform="translate(128.203125 38.965625) scale(0.7)"/>
      </g>
     </g>
    </g>
    <g id="ytick_7">
     <g id="line2d_31">
      <defs>
       <path id="m9cf99301fb" d="M 0 0 
L -2 0 
" style="stroke: #000000; stroke-width: 0.6"/>
      </defs>
      <g>
       <use xlink:href="#m9cf99301fb" x="148.197319" y="461.961032" style="stroke: #000000; stroke-width: 0.6"/>
      </g>
     </g>
    </g>
    <g id="ytick_8">
     <g id="line2d_32">
      <g>
       <use xlink:href="#m9cf99301fb" x="148.197319" y="446.055044" style="stroke: #000000; stroke-width: 0.6"/>
      </g>
     </g>
    </g>
    <g id="ytick_9">
     <g id="line2d_33">
      <g>
       <use xlink:href="#m9cf99301fb" x="148.197319" y="434.769565" style="stroke: #000000; stroke-width: 0.6"/>
      </g>
     </g>
    </g>
    <g id="ytick_10">
     <g id="line2d_34">
      <g>
       <use xlink:href="#m9cf99301fb" x="148.197319" y="426.015868" style="stroke: #000000; stroke-width: 0.6"/>
      </g>
     </g>
    </g>
    <g id="ytick_11">
     <g id="line2d_35">
      <g>
       <use xlink:href="#m9cf99301fb" x="148.197319" y="418.863576" style="stroke: #000000; stroke-width: 0.6"/>
      </g>
     </g>
    </g>
    <g id="ytick_12">
     <g id="line2d_36">
      <g>
       <use xlink:href="#m9cf99301fb" x="148.197319" y="412.8164" style="stroke: #000000; stroke-width: 0.6"/>
      </g>
     </g>
    </g>
    <g id="ytick_13">
     <g id="line2d_37">
      <g>
       <use xlink:href="#m9cf99301fb" x="148.197319" y="407.578097" style="stroke: #000000; stroke-width: 0.6"/>
      </g>
     </g>
    </g>
    <g id="ytick_14">
     <g id="line2d_38">
      <g>
       <use xlink:href="#m9cf99301fb" x="148.197319" y="402.957587" style="stroke: #000000; stroke-width: 0.6"/>
      </g>
     </g>
    </g>
    <g id="ytick_15">
     <g id="line2d_39">
      <g>
       <use xlink:href="#m9cf99301fb" x="148.197319" y="371.632932" style="stroke: #000000; stroke-width: 0.6"/>
      </g>
     </g>
    </g>
    <g id="ytick_16">
     <g id="line2d_40">
      <g>
       <use xlink:href="#m9cf99301fb" x="148.197319" y="355.726944" style="stroke: #000000; stroke-width: 0.6"/>
      </g>
     </g>
    </g>
    <g id="ytick_17">
     <g id="line2d_41">
      <g>
       <use xlink:href="#m9cf99301fb" x="148.197319" y="344.441465" style="stroke: #000000; stroke-width: 0.6"/>
      </g>
     </g>
    </g>
    <g id="ytick_18">
     <g id="line2d_42">
      <g>
       <use xlink:href="#m9cf99301fb" x="148.197319" y="335.687768" style="stroke: #000000; stroke-width: 0.6"/>
      </g>
     </g>
    </g>
    <g id="ytick_19">
     <g id="line2d_43">
      <g>
       <use xlink:href="#m9cf99301fb" x="148.197319" y="328.535476" style="stroke: #000000; stroke-width: 0.6"/>
      </g>
     </g>
    </g>
    <g id="ytick_20">
     <g id="line2d_44">
      <g>
       <use xlink:href="#m9cf99301fb" x="148.197319" y="322.4883" style="stroke: #000000; stroke-width: 0.6"/>
      </g>
     </g>
    </g>
    <g id="ytick_21">
     <g id="line2d_45">
      <g>
       <use xlink:href="#m9cf99301fb" x="148.197319" y="317.249997" style="stroke: #000000; stroke-width: 0.6"/>
      </g>
     </g>
    </g>
    <g id="ytick_22">
     <g id="line2d_46">
      <g>
       <use xlink:href="#m9cf99301fb" x="148.197319" y="312.629487" style="stroke: #000000; stroke-width: 0.6"/>
      </g>
     </g>
    </g>
    <g id="ytick_23">
     <g id="line2d_47">
      <g>
       <use xlink:href="#m9cf99301fb" x="148.197319" y="281.304832" style="stroke: #000000; stroke-width: 0.6"/>
      </g>
     </g>
    </g>
    <g id="ytick_24">
     <g id="line2d_48">
      <g>
       <use xlink:href="#m9cf99301fb" x="148.197319" y="265.398844" style="stroke: #000000; stroke-width: 0.6"/>
      </g>
     </g>
    </g>
    <g id="ytick_25">
     <g id="line2d_49">
      <g>
       <use xlink:href="#m9cf99301fb" x="148.197319" y="254.113365" style="stroke: #000000; stroke-width: 0.6"/>
      </g>
     </g>
    </g>
    <g id="ytick_26">
     <g id="line2d_50">
      <g>
       <use xlink:href="#m9cf99301fb" x="148.197319" y="245.359668" style="stroke: #000000; stroke-width: 0.6"/>
      </g>
     </g>
    </g>
    <g id="ytick_27">
     <g id="line2d_51">
      <g>
       <use xlink:href="#m9cf99301fb" x="148.197319" y="238.207376" style="stroke: #000000; stroke-width: 0.6"/>
      </g>
     </g>
    </g>
    <g id="ytick_28">
     <g id="line2d_52">
      <g>
       <use xlink:href="#m9cf99301fb" x="148.197319" y="232.1602" style="stroke: #000000; stroke-width: 0.6"/>
      </g>
     </g>
    </g>
    <g id="ytick_29">
     <g id="line2d_53">
      <g>
       <use xlink:href="#m9cf99301fb" x="148.197319" y="226.921897" style="stroke: #000000; stroke-width: 0.6"/>
      </g>
     </g>
    </g>
    <g id="ytick_30">
     <g id="line2d_54">
      <g>
       <use xlink:href="#m9cf99301fb" x="148.197319" y="222.301387" style="stroke: #000000; stroke-width: 0.6"/>
      </g>
     </g>
    </g>
    <g id="ytick_31">
     <g id="line2d_55">
      <g>
       <use xlink:href="#m9cf99301fb" x="148.197319" y="190.976732" style="stroke: #000000; stroke-width: 0.6"/>
      </g>
     </g>
    </g>
    <g id="ytick_32">
     <g id="line2d_56">
      <g>
       <use xlink:href="#m9cf99301fb" x="148.197319" y="175.070744" style="stroke: #000000; stroke-width: 0.6"/>
      </g>
     </g>
    </g>
    <g id="ytick_33">
     <g id="line2d_57">
      <g>
       <use xlink:href="#m9cf99301fb" x="148.197319" y="163.785265" style="stroke: #000000; stroke-width: 0.6"/>
      </g>
     </g>
    </g>
    <g id="ytick_34">
     <g id="line2d_58">
      <g>
       <use xlink:href="#m9cf99301fb" x="148.197319" y="155.031568" style="stroke: #000000; stroke-width: 0.6"/>
      </g>
     </g>
    </g>
    <g id="ytick_35">
     <g id="line2d_59">
      <g>
       <use xlink:href="#m9cf99301fb" x="148.197319" y="147.879276" style="stroke: #000000; stroke-width: 0.6"/>
      </g>
     </g>
    </g>
    <g id="ytick_36">
     <g id="line2d_60">
      <g>
       <use xlink:href="#m9cf99301fb" x="148.197319" y="141.8321" style="stroke: #000000; stroke-width: 0.6"/>
      </g>
     </g>
    </g>
    <g id="ytick_37">
     <g id="line2d_61">
      <g>
       <use xlink:href="#m9cf99301fb" x="148.197319" y="136.593797" style="stroke: #000000; stroke-width: 0.6"/>
      </g>
     </g>
    </g>
    <g id="ytick_38">
     <g id="line2d_62">
      <g>
       <use xlink:href="#m9cf99301fb" x="148.197319" y="131.973287" style="stroke: #000000; stroke-width: 0.6"/>
      </g>
     </g>
    </g>
    <g id="ytick_39">
     <g id="line2d_63">
      <g>
       <use xlink:href="#m9cf99301fb" x="148.197319" y="100.648632" style="stroke: #000000; stroke-width: 0.6"/>
      </g>
     </g>
    </g>
    <g id="ytick_40">
     <g id="line2d_64">
      <g>
       <use xlink:href="#m9cf99301fb" x="148.197319" y="84.742644" style="stroke: #000000; stroke-width: 0.6"/>
      </g>
     </g>
    </g>
    <g id="ytick_41">
     <g id="line2d_65">
      <g>
       <use xlink:href="#m9cf99301fb" x="148.197319" y="73.457165" style="stroke: #000000; stroke-width: 0.6"/>
      </g>
     </g>
    </g>
    <g id="ytick_42">
     <g id="line2d_66">
      <g>
       <use xlink:href="#m9cf99301fb" x="148.197319" y="64.703468" style="stroke: #000000; stroke-width: 0.6"/>
      </g>
     </g>
    </g>
    <g id="ytick_43">
     <g id="line2d_67">
      <g>
       <use xlink:href="#m9cf99301fb" x="148.197319" y="57.551176" style="stroke: #000000; stroke-width: 0.6"/>
      </g>
     </g>
    </g>
    <g id="ytick_44">
     <g id="line2d_68">
      <g>
       <use xlink:href="#m9cf99301fb" x="148.197319" y="51.504" style="stroke: #000000; stroke-width: 0.6"/>
      </g>
     </g>
    </g>
    <g id="ytick_45">
     <g id="line2d_69">
      <g>
       <use xlink:href="#m9cf99301fb" x="148.197319" y="46.265697" style="stroke: #000000; stroke-width: 0.6"/>
      </g>
     </g>
    </g>
    <g id="ytick_46">
     <g id="line2d_70">
      <g>
       <use xlink:href="#m9cf99301fb" x="148.197319" y="41.645187" style="stroke: #000000; stroke-width: 0.6"/>
      </g>
     </g>
    </g>
    <g id="text_17">
     <!-- $\rho$($\omega$) -->
     <g transform="translate(26.447319 258.08225) scale(0.25 -0.25)">
      <defs>
       <path id="DejaVuSans-Oblique-3c1" d="M 1203 2875 
Q 1453 3194 1981 3475 
Q 2188 3584 2756 3584 
Q 3394 3584 3694 3078 
Q 3994 2572 3834 1747 
Q 3672 922 3175 415 
Q 2678 -91 2041 -91 
Q 1656 -91 1409 63 
Q 1163 213 1044 525 
L 681 -1331 
L 103 -1331 
L 697 1716 
Q 838 2438 1203 2875 
z
M 3238 1747 
Q 3359 2381 3169 2744 
Q 2978 3103 2522 3103 
Q 2066 3103 1734 2744 
Q 1403 2381 1281 1747 
Q 1156 1113 1347 750 
Q 1538 391 1994 391 
Q 2450 391 2781 750 
Q 3113 1113 3238 1747 
z
" transform="scale(0.015625)"/>
       <path id="Calibri-28" d="M 1547 4306 
Q 1250 3678 1104 3017 
Q 959 2356 959 1688 
Q 959 1016 1107 356 
Q 1256 -303 1541 -938 
Q 1556 -975 1557 -1001 
Q 1559 -1028 1537 -1045 
Q 1516 -1063 1470 -1070 
Q 1425 -1078 1347 -1078 
Q 1291 -1078 1250 -1075 
Q 1209 -1072 1179 -1062 
Q 1150 -1053 1131 -1040 
Q 1113 -1028 1103 -1013 
Q 934 -694 806 -367 
Q 678 -41 590 296 
Q 503 634 459 979 
Q 416 1325 416 1678 
Q 416 2031 464 2375 
Q 513 2719 602 3058 
Q 691 3397 819 3725 
Q 947 4053 1106 4375 
Q 1109 4388 1123 4397 
Q 1138 4406 1163 4415 
Q 1188 4425 1231 4429 
Q 1275 4434 1344 4434 
Q 1416 4434 1459 4425 
Q 1503 4416 1528 4400 
Q 1553 4384 1556 4359 
Q 1559 4334 1547 4306 
z
" transform="scale(0.015625)"/>
       <path id="Calibri-29" d="M 1522 1678 
Q 1522 1325 1478 979 
Q 1434 634 1346 296 
Q 1259 -41 1132 -367 
Q 1006 -694 838 -1013 
Q 828 -1028 809 -1040 
Q 791 -1053 761 -1062 
Q 731 -1072 690 -1075 
Q 650 -1078 594 -1078 
Q 513 -1078 467 -1070 
Q 422 -1063 401 -1045 
Q 381 -1028 382 -1001 
Q 384 -975 400 -938 
Q 688 -306 834 355 
Q 981 1016 981 1688 
Q 981 2356 834 3017 
Q 688 3678 394 4306 
Q 381 4334 384 4359 
Q 388 4384 413 4400 
Q 438 4416 481 4425 
Q 525 4434 597 4434 
Q 663 4434 706 4429 
Q 750 4425 776 4415 
Q 803 4406 815 4397 
Q 828 4388 834 4375 
Q 1156 3734 1339 3057 
Q 1522 2381 1522 1678 
z
" transform="scale(0.015625)"/>
      </defs>
      <use xlink:href="#DejaVuSans-Oblique-3c1" transform="translate(0 0.71875)"/>
      <use xlink:href="#Calibri-28" transform="translate(63.476562 0.71875)"/>
      <use xlink:href="#DejaVuSans-Oblique-3c9" transform="translate(93.798828 0.71875)"/>
      <use xlink:href="#Calibri-29" transform="translate(177.539062 0.71875)"/>
     </g>
    </g>
   </g>
   <g id="line2d_71">
    <path d="M 148.197319 401.924147 
L 162.020889 399.143312 
L 174.636575 396.383285 
L 186.312795 393.603275 
L 196.915339 390.854735 
L 206.712626 388.088442 
L 215.704658 385.320877 
L 223.891432 382.5739 
L 231.40716 379.824512 
L 238.38605 377.038728 
L 244.828102 374.229627 
L 250.733316 371.415143 
L 256.235902 368.545953 
L 261.201651 365.712538 
L 265.898981 362.777084 
L 270.193682 359.833299 
L 274.219965 356.802858 
L 277.977829 353.69037 
L 281.467273 350.504169 
L 284.6883 347.257541 
L 287.640907 343.970201 
L 290.459305 340.496068 
L 293.009284 337.010028 
L 295.425053 333.342668 
L 297.706613 329.482558 
L 299.853964 325.419633 
L 301.867105 321.14641 
L 303.746037 316.659685 
L 305.624969 311.57699 
L 307.369692 306.191886 
L 308.980205 300.507268 
L 310.590718 293.956701 
L 312.067021 286.984493 
L 313.409115 279.619163 
L 314.75121 270.995462 
L 315.959094 261.843667 
L 317.166979 250.968002 
L 318.240655 239.407483 
L 319.31433 225.514254 
L 320.388005 208.650574 
L 321.59589 185.810923 
L 322.803775 163.280353 
L 323.206403 158.820833 
L 323.474822 157.569806 
L 323.609031 157.534553 
L 323.743241 157.900351 
L 324.01166 159.784153 
L 324.414288 165.044074 
L 325.085335 177.646959 
L 326.964267 214.170418 
L 328.037942 230.384171 
L 329.111618 243.25856 
L 330.185293 253.341869 
L 331.124759 260.228842 
L 332.064225 265.551278 
L 332.869481 269.00574 
L 333.674738 271.535844 
L 334.345785 272.994094 
L 335.016832 273.901903 
L 335.55367 274.253713 
L 335.956298 274.308604 
L 336.358926 274.190216 
L 336.895764 273.770574 
L 337.432602 273.059793 
L 338.103649 271.771992 
L 338.908905 269.65108 
L 339.714162 266.904633 
L 340.653628 262.894903 
L 341.727303 257.193442 
L 342.800978 250.17797 
L 343.874654 241.642212 
L 344.948329 231.260605 
L 346.022005 218.524288 
L 346.961471 204.82781 
L 347.900936 187.904052 
L 348.840402 166.657097 
L 350.048287 132.973903 
L 350.585125 119.982665 
L 350.853544 116.390923 
L 350.987753 115.694694 
L 351.121963 115.807211 
L 351.390381 118.40164 
L 351.79301 126.966877 
L 354.477198 197.057138 
L 355.550873 215.729817 
L 356.624549 230.326123 
L 357.564015 240.376826 
L 358.503481 248.072307 
L 359.174528 252.030909 
L 359.711365 254.109132 
L 360.113994 254.89543 
L 360.382413 254.977702 
L 360.650831 254.643824 
L 360.91925 253.82579 
L 361.321878 251.506096 
L 361.724507 247.567509 
L 362.127135 241.631708 
L 362.663973 230.237907 
L 363.469229 211.062877 
L 363.737648 208.682608 
L 363.871857 209.027071 
L 364.140276 212.703678 
L 364.677114 226.97304 
L 365.482371 248.157425 
L 366.153418 260.28828 
L 366.824465 268.316513 
L 367.495512 273.534799 
L 368.032349 276.290049 
L 368.569187 278.106584 
L 369.106025 279.180102 
L 369.508653 279.579241 
L 369.911281 279.675766 
L 370.31391 279.499642 
L 370.716538 279.073376 
L 371.253376 278.144176 
L 371.924423 276.439271 
L 372.729679 273.633096 
L 373.534936 270.008157 
L 374.474402 264.7106 
L 375.413868 258.163901 
L 376.353334 250.185619 
L 377.292799 240.479075 
L 378.232265 228.567437 
L 379.171731 213.659438 
L 379.976988 197.463287 
L 380.782244 176.463202 
L 381.453292 153.20897 
L 382.124339 121.859882 
L 382.929595 81.366355 
L 383.063805 79.684589 
L 383.198014 81.077312 
L 383.466433 91.517421 
L 384.808527 161.469285 
L 385.613784 189.411674 
L 386.553249 213.809144 
L 387.626925 235.29545 
L 388.7006 252.524096 
L 389.908485 268.546923 
L 391.250579 283.456084 
L 392.726883 297.340756 
L 394.337396 310.268504 
L 395.947909 321.411874 
L 397.558422 331.107182 
L 399.168935 339.555127 
L 400.779448 346.859922 
L 402.255752 352.574028 
L 403.597846 356.922678 
L 404.805731 360.087812 
L 405.745197 362.003181 
L 406.550453 363.217285 
L 407.2215 363.891679 
L 407.758338 364.186025 
L 408.295176 364.239714 
L 408.832013 364.027707 
L 409.368851 363.520215 
L 409.905689 362.681469 
L 410.442526 361.467972 
L 411.113573 359.340919 
L 411.78462 356.40566 
L 412.455668 352.469479 
L 413.126715 347.246263 
L 413.797762 340.276347 
L 414.468809 330.734634 
L 415.005647 320.13851 
L 415.542484 304.728568 
L 415.945113 286.533744 
L 416.213531 266.594454 
L 416.48195 223.546987 
L 416.537498 -1 
M 416.694821 -1 
L 416.750369 223.546987 
L 417.018788 266.594454 
L 417.421416 293.617437 
L 417.958254 313.258663 
L 418.629301 328.393067 
L 419.300348 338.61056 
L 420.105605 347.246263 
L 420.910861 353.348717 
L 421.716118 357.687521 
L 422.521374 360.704382 
L 423.192421 362.415129 
L 423.863468 363.520215 
L 424.400306 364.027707 
L 424.937144 364.239714 
L 425.473981 364.186025 
L 426.010819 363.891679 
L 426.681866 363.217285 
L 427.487123 362.003181 
L 428.426589 360.087812 
L 429.500264 357.310779 
L 430.708149 353.509987 
L 432.050243 348.512043 
L 433.526547 342.1143 
L 435.13706 334.054862 
L 436.747573 324.792337 
L 438.358086 314.161183 
L 439.834389 302.973317 
L 441.310693 290.047035 
L 442.652787 276.320921 
L 443.860672 261.786089 
L 445.068557 244.334331 
L 446.142232 225.211049 
L 447.081698 204.165106 
L 447.886955 181.008173 
L 448.558002 155.885636 
L 449.229049 122.58041 
L 450.034305 81.077312 
L 450.168515 79.684589 
L 450.302724 81.366355 
L 450.571143 91.95829 
L 451.779028 153.20897 
L 452.584284 180.398992 
L 453.389541 200.44106 
L 454.329007 218.290109 
L 455.268473 232.23395 
L 456.342148 244.875981 
L 457.415823 254.93409 
L 458.489499 262.973838 
L 459.563174 269.32325 
L 460.50264 273.633096 
L 461.307897 276.439271 
L 461.978944 278.144176 
L 462.515781 279.073376 
L 463.052619 279.587122 
L 463.455247 279.675192 
L 463.857876 279.481554 
L 464.260504 278.973271 
L 464.663132 278.106584 
L 465.19997 276.290049 
L 465.736807 273.534799 
L 466.273645 269.550848 
L 466.810483 263.911003 
L 467.34732 256.010645 
L 467.884158 245.116952 
L 468.689415 223.041722 
L 469.226252 210.408575 
L 469.494671 208.682608 
L 469.628881 209.39273 
L 469.897299 213.512707 
L 471.507812 247.567509 
L 472.04465 252.441002 
L 472.447278 254.300132 
L 472.715697 254.866707 
L 472.984116 254.984862 
L 473.252535 254.715898 
L 473.655163 253.691685 
L 474.192001 251.35186 
L 474.863048 247.120213 
L 475.668304 240.376826 
L 476.60777 230.326123 
L 477.547236 217.755718 
L 478.486702 202.172653 
L 479.426168 182.728641 
L 480.365634 158.41627 
L 481.841938 118.40164 
L 482.110357 115.807211 
L 482.244566 115.694694 
L 482.378776 116.390923 
L 482.647194 119.982665 
L 483.184032 132.973903 
L 484.794545 176.364522 
L 485.734011 195.618018 
L 486.807686 212.99001 
L 487.881362 226.795631 
L 488.955037 237.987868 
L 490.162922 248.196866 
L 491.370807 256.391692 
L 492.444482 262.249198 
L 493.518157 266.904633 
L 494.457623 270.047927 
L 495.26288 272.064635 
L 495.933927 273.264375 
L 496.604974 274.017295 
L 497.141812 274.288157 
L 497.54444 274.291571 
L 497.947068 274.118314 
L 498.483906 273.602647 
L 499.020744 272.747607 
L 499.691791 271.174918 
L 500.362838 269.00574 
L 501.168094 265.551278 
L 501.973351 261.080317 
L 502.912817 254.429565 
L 503.852283 246.021516 
L 504.791749 235.572583 
L 505.731215 222.72966 
L 506.80489 204.664778 
L 508.281194 174.920122 
L 508.952241 163.01711 
L 509.354869 158.657337 
L 509.623288 157.534553 
L 509.757497 157.569806 
L 509.891707 158.0035 
L 510.160125 159.996274 
L 510.562754 165.307445 
L 511.36801 180.388707 
L 512.978523 210.94084 
L 514.186408 229.240648 
L 515.394293 243.984234 
L 516.602178 256.04569 
L 517.944272 267.112443 
L 519.286366 276.339212 
L 520.76267 284.889071 
L 522.238973 292.157055 
L 523.849486 298.958984 
L 525.459999 304.841331 
L 527.204722 310.396663 
L 529.083654 315.625183 
L 531.096795 320.53733 
L 533.109936 324.877913 
L 535.257287 328.999276 
L 537.538847 332.910051 
L 539.954617 336.621367 
L 542.504596 340.145597 
L 545.322994 343.654496 
L 548.275601 346.971877 
L 551.496627 350.245615 
L 554.851862 353.338336 
L 558.475517 356.376241 
L 562.36759 359.347751 
L 566.528082 362.245457 
L 571.091202 365.146767 
L 575.922741 367.954442 
L 581.156909 370.73897 
L 586.793704 373.486553 
L 592.967338 376.244855 
L 599.677809 378.993139 
L 606.925117 381.715851 
L 614.709264 384.401676 
L 623.164457 387.083541 
L 632.424907 389.784088 
L 642.490614 392.483379 
L 653.361577 395.16628 
L 665.172006 397.850892 
L 678.05611 400.549381 
L 685.035 401.924147 
L 685.035 401.924147 
" clip-path="url(#pd08738ee71)" style="fill: none; stroke-dasharray: 14.8,6.4; stroke-dashoffset: 0; stroke: #ff0000; stroke-width: 4"/>
   </g>
   <g id="line2d_72">
    <path d="M 148.197319 387.633703 
L 158.934073 381.480507 
L 162.691937 379.094132 
L 165.510334 377.615485 
L 169.268198 375.910278 
L 173.5629 374.037493 
L 175.173413 373.011336 
L 177.320763 371.349096 
L 184.433863 365.689677 
L 188.460145 362.974623 
L 194.096941 359.142981 
L 198.525852 355.598756 
L 199.867946 354.925174 
L 201.612668 354.351146 
L 203.760019 353.622316 
L 205.102113 352.939608 
L 206.309998 352.072901 
L 207.517883 350.899345 
L 208.859977 349.25358 
L 211.007328 346.187248 
L 214.362563 341.358756 
L 215.570448 340.045537 
L 217.046752 338.8176 
L 219.999359 336.697841 
L 221.475663 335.944267 
L 222.683547 335.56125 
L 224.025642 335.397136 
L 226.307202 335.167011 
L 227.380877 334.824135 
L 228.588762 334.17909 
L 230.333484 332.931762 
L 232.212416 331.362561 
L 233.55451 329.943106 
L 235.433442 327.565192 
L 237.580793 324.553507 
L 238.922887 322.256192 
L 243.486008 313.928985 
L 244.425473 312.832566 
L 245.23073 312.205185 
L 246.170196 311.775136 
L 248.585966 310.881656 
L 250.330688 309.78511 
L 253.283295 307.758549 
L 256.504321 305.26807 
L 259.0543 303.425685 
L 259.725347 303.25995 
L 260.396394 303.364483 
L 261.201651 303.787616 
L 262.812164 304.772343 
L 263.349002 304.868649 
L 263.885839 304.749738 
L 264.422677 304.388407 
L 265.093724 303.600189 
L 265.898981 302.230471 
L 266.972656 299.87004 
L 268.583169 295.641666 
L 270.864729 289.655389 
L 271.804195 287.830319 
L 272.609452 286.716294 
L 275.42785 283.368059 
L 276.367316 281.659976 
L 277.306781 279.444269 
L 278.783085 275.229322 
L 280.662017 270.031788 
L 282.138321 266.618472 
L 283.748834 263.527741 
L 285.225137 261.105808 
L 286.298813 259.739516 
L 287.104069 259.041851 
L 287.909326 258.656496 
L 288.714582 258.530294 
L 289.788258 258.59721 
L 290.593514 258.839004 
L 291.398771 259.311573 
L 292.204027 260.050287 
L 293.009284 261.105121 
L 294.888215 263.69581 
L 295.827681 264.600354 
L 296.364519 264.895887 
L 296.901357 264.93947 
L 297.438194 264.744783 
L 298.243451 264.188952 
L 299.048708 263.383747 
L 299.719755 262.344562 
L 300.390802 260.834058 
L 301.196058 258.441233 
L 302.806571 252.720827 
L 304.953922 245.20245 
L 306.430226 240.815865 
L 307.369692 238.647884 
L 308.174948 237.363159 
L 309.114414 236.354036 
L 310.05388 235.330977 
L 310.859136 234.070182 
L 311.664393 232.368128 
L 312.46965 230.117723 
L 313.274906 227.058769 
L 314.348581 221.780399 
L 315.959094 213.842855 
L 317.435398 207.890911 
L 318.374864 204.847274 
L 319.045911 203.423975 
L 319.716958 202.620961 
L 320.388005 201.856428 
L 320.924843 200.787568 
L 321.461681 199.108909 
L 322.132728 196.114441 
L 323.206403 189.849714 
L 323.87745 186.557565 
L 324.145869 185.903573 
L 324.280079 185.790935 
L 324.414288 185.843158 
L 324.682707 186.495844 
L 324.951126 187.937069 
L 325.353754 191.582178 
L 325.890592 198.745211 
L 328.977408 245.083452 
L 329.782665 252.532103 
L 330.587921 257.879264 
L 331.258968 260.876223 
L 331.795806 262.400656 
L 332.198434 263.072487 
L 332.601063 263.36912 
L 332.869481 263.372063 
L 333.27211 263.099556 
L 333.674738 262.504994 
L 334.211576 261.246098 
L 335.016832 258.661686 
L 336.224717 254.187204 
L 336.895764 250.851145 
L 339.445743 235.834361 
L 340.11679 230.322097 
L 341.056256 220.454488 
L 342.129931 206.424898 
L 343.472026 188.371572 
L 344.277282 180.437262 
L 344.81412 176.78809 
L 345.216748 175.050013 
L 345.619376 174.195153 
L 345.887795 174.087087 
L 346.156214 174.300495 
L 346.558842 175.038135 
L 347.364099 176.650494 
L 347.766727 177.082014 
L 348.169355 177.217811 
L 348.571984 177.124959 
L 349.243031 176.891381 
L 349.51145 177.023144 
L 349.779868 177.431027 
L 350.182497 178.576877 
L 351.121963 181.732339 
L 351.390381 182.120283 
L 351.6588 182.165547 
L 352.061428 181.809989 
L 352.866685 180.995208 
L 353.135104 180.979125 
L 353.403523 181.167614 
L 353.806151 181.843277 
L 354.208779 183.104364 
L 354.611407 185.314125 
L 355.148245 190.073111 
L 356.087711 201.245652 
L 360.248203 252.823982 
L 360.650831 255.072351 
L 360.91925 255.693106 
L 361.05346 255.719052 
L 361.187669 255.546986 
L 361.456088 254.583975 
L 361.724507 252.75223 
L 362.127135 248.246996 
L 362.663973 238.757903 
L 363.737648 216.201338 
L 363.871857 215.256849 
L 364.006067 215.229853 
L 364.140276 216.15522 
L 364.408695 220.559833 
L 365.079742 238.6934 
L 365.884999 257.92749 
L 366.556046 268.262095 
L 367.092884 273.535979 
L 367.629721 276.878748 
L 368.032349 278.392709 
L 368.434978 279.20994 
L 368.703397 279.413009 
L 368.971815 279.354029 
L 369.240234 279.033888 
L 369.642863 278.057758 
L 370.045491 276.463268 
L 370.582328 273.375561 
L 371.521794 266.337149 
L 372.327051 258.377959 
L 372.863889 251.123057 
L 373.803355 234.631208 
L 375.682286 200.535315 
L 375.950705 198.823581 
L 376.353334 197.810895 
L 376.621752 197.104531 
L 377.024381 195.284132 
L 377.561218 192.824504 
L 377.963847 192.175098 
L 378.232265 191.645749 
L 378.769103 189.789589 
L 379.305941 186.969726 
L 380.379616 179.141702 
L 381.050663 172.247948 
L 381.587501 167.324113 
L 381.990129 165.603889 
L 382.258548 165.066513 
L 382.392757 165.207441 
L 382.526967 165.843331 
L 382.795386 168.88907 
L 383.600642 180.970261 
L 384.00327 183.843515 
L 384.808527 188.144614 
L 384.942736 188.235805 
L 385.076946 187.921089 
L 385.345365 186.137158 
L 386.284831 176.453476 
L 386.687459 167.969897 
L 387.224297 150.252758 
L 387.761134 130.211598 
L 387.895344 128.785537 
L 388.029553 129.067391 
L 388.7006 136.91059 
L 389.640066 155.436189 
L 389.908485 157.855989 
L 390.176904 158.190792 
L 390.311113 159.492604 
L 390.579532 168.4553 
L 391.518998 214.875658 
L 392.592673 248.742006 
L 393.129511 259.466932 
L 393.666349 268.98916 
L 394.337396 281.668823 
L 395.276862 294.795523 
L 396.216328 305.080626 
L 397.96105 321.354022 
L 398.497888 324.691699 
L 398.766307 326.211828 
L 400.511029 339.303834 
L 401.316286 343.482797 
L 401.718914 345.49576 
L 403.329427 353.547878 
L 404.537312 358.065866 
L 405.610987 361.221532 
L 406.550453 363.306788 
L 407.35571 364.534363 
L 407.892547 365.033482 
L 408.295176 365.20961 
L 408.697804 365.159476 
L 409.100432 364.761336 
L 409.905689 363.309714 
L 410.174107 362.44391 
L 410.442526 361.13496 
L 410.710945 358.360429 
L 410.845155 358.589186 
L 411.113573 349.912015 
L 411.381992 355.299837 
L 411.516202 354.493375 
L 412.053039 347.390088 
L 412.187249 348.456844 
L 412.321458 346.690344 
L 412.455668 346.715248 
L 412.589877 348.646139 
L 412.858296 342.305704 
L 412.992505 339.832812 
L 413.126715 340.45954 
L 413.395134 321.148105 
L 413.529343 321.590729 
L 413.663552 314.270727 
L 413.797762 325.828337 
L 414.066181 311.576024 
L 414.20039 309.322516 
L 414.334599 316.183013 
L 414.468809 297.959641 
L 414.603018 295.96302 
L 414.737228 286.079689 
L 414.871437 315.249277 
L 415.139856 306.319403 
L 415.408275 264.513948 
L 415.542484 281.150108 
L 415.676694 243.778509 
L 415.810903 238.514987 
L 415.945113 249.292265 
L 416.079322 210.520584 
L 416.213531 219.162444 
L 416.347741 213.150436 
L 416.48195 160.322862 
L 416.48257 577 
M 416.749644 577 
L 416.750369 88.67415 
L 416.884578 70.629358 
L 417.018788 80.457239 
L 417.152997 196.793732 
L 417.287207 214.638857 
L 417.421416 191.526836 
L 417.555626 193.203934 
L 417.689835 208.086023 
L 417.824044 255.508488 
L 418.092463 272.150189 
L 418.360882 261.170472 
L 418.495091 305.051023 
L 418.629301 305.011025 
L 418.76351 301.961004 
L 419.031929 323.250368 
L 419.166139 313.175977 
L 419.434557 319.463112 
L 419.568767 328.527679 
L 419.702976 318.686691 
L 419.837186 317.543329 
L 420.105605 338.141539 
L 420.374023 333.430608 
L 420.508233 340.227876 
L 420.642442 338.425726 
L 420.910861 340.010633 
L 421.04507 340.654607 
L 421.17928 340.273706 
L 421.313489 336.907365 
L 421.581908 349.982438 
L 421.984536 352.119145 
L 422.789793 358.78297 
L 422.924002 358.800834 
L 423.058212 358.621751 
L 423.46084 361.437398 
L 423.863468 362.723268 
L 424.266097 363.43723 
L 424.937144 364.03626 
L 425.339772 364.116752 
L 425.87661 363.958646 
L 426.413447 363.530376 
L 427.084494 362.648857 
L 427.889751 361.117332 
L 428.829217 358.762329 
L 429.902892 355.330921 
L 430.976568 351.113934 
L 431.647615 347.86197 
L 432.184452 345.063061 
L 432.72129 342.598717 
L 433.526547 337.65965 
L 433.929175 334.203964 
L 434.600222 327.705433 
L 434.734431 327.81824 
L 434.868641 327.782385 
L 435.13706 326.886996 
L 435.673897 323.498672 
L 436.613363 315.83978 
L 437.552829 306.501137 
L 439.297552 284.793631 
L 440.773855 258.011667 
L 441.310693 243.062062 
L 442.384368 203.512577 
L 443.189625 167.263046 
L 443.323834 165.931761 
L 443.458044 166.584781 
L 443.994881 172.178643 
L 444.2633 173.056401 
L 444.39751 172.323132 
L 444.665928 167.426258 
L 445.739604 135.724658 
L 445.873813 135.522764 
L 446.142232 138.94254 
L 446.67907 150.435279 
L 447.484326 168.511944 
L 448.021164 176.25763 
L 448.423792 179.742857 
L 448.692211 180.655841 
L 448.82642 180.697219 
L 449.094839 180.281606 
L 449.363258 179.307871 
L 449.765886 176.577681 
L 451.24219 162.700606 
L 451.510609 161.761113 
L 451.644818 161.691828 
L 451.779028 161.87238 
L 452.047447 162.894205 
L 452.450075 165.975256 
L 453.389541 174.856522 
L 453.792169 176.290033 
L 454.463216 177.38276 
L 455.134263 179.775344 
L 455.536891 179.973477 
L 455.80531 180.769172 
L 456.073729 182.586075 
L 457.013195 190.670444 
L 457.281614 191.00982 
L 457.415823 191.118378 
L 457.550033 191.387388 
L 457.818452 192.862407 
L 458.08687 196.045598 
L 458.489499 204.040179 
L 460.100012 239.784711 
L 460.905268 251.237837 
L 461.844734 261.800376 
L 462.7842 269.81833 
L 463.321038 272.866468 
L 463.857876 274.841345 
L 464.260504 275.689412 
L 464.663132 276.070334 
L 464.931551 276.045215 
L 465.19997 275.742727 
L 465.468389 275.113835 
L 465.871017 273.468295 
L 466.273645 270.852578 
L 466.810483 265.506476 
L 467.34732 257.440672 
L 467.884158 246.012926 
L 469.226252 214.528303 
L 469.360462 214.217722 
L 469.494671 214.867046 
L 469.76309 218.595564 
L 471.507812 251.905236 
L 471.910441 254.862736 
L 472.17886 255.767465 
L 472.313069 255.918518 
L 472.447278 255.877492 
L 472.715697 255.247534 
L 473.118326 253.056937 
L 473.655163 248.262128 
L 474.594629 237.104004 
L 476.876189 210.015972 
L 478.486702 192.152495 
L 479.02354 188.066341 
L 479.426168 186.203797 
L 479.828797 185.151869 
L 480.231425 184.630668 
L 481.170891 183.716881 
L 481.573519 182.874427 
L 482.244566 180.765289 
L 483.989289 174.851649 
L 484.391917 174.316096 
L 484.928754 174.196849 
L 485.197173 174.065974 
L 485.599802 173.519985 
L 486.136639 172.16742 
L 486.941896 169.409735 
L 487.612943 167.220458 
L 487.881362 166.820957 
L 488.015571 166.787957 
L 488.28399 167.098278 
L 488.552409 167.931973 
L 488.955037 170.167253 
L 489.491875 174.836559 
L 490.297131 184.357182 
L 492.578691 213.462406 
L 493.786576 224.463548 
L 495.397089 238.00544 
L 496.336555 243.768888 
L 497.54444 249.581574 
L 498.752325 254.252584 
L 499.557581 256.557517 
L 500.228628 257.817599 
L 500.631257 258.21061 
L 501.033885 258.292149 
L 501.436513 258.035712 
L 501.839141 257.407607 
L 502.24177 256.372478 
L 502.778607 254.306748 
L 503.315445 251.398652 
L 503.986492 246.476376 
L 504.791749 238.508878 
L 505.597005 228.214322 
L 506.80489 209.34386 
L 507.878565 193.092594 
L 508.415403 187.53482 
L 508.818031 185.159144 
L 509.08645 184.433871 
L 509.354869 184.300894 
L 509.623288 184.64088 
L 510.025916 185.764148 
L 512.173267 193.230879 
L 512.710104 194.056774 
L 513.246942 194.385698 
L 514.052199 194.720407 
L 514.454827 195.167585 
L 514.991665 196.245657 
L 515.662712 198.256436 
L 516.467968 201.416381 
L 517.273225 205.492923 
L 519.554785 217.853019 
L 520.360041 220.752724 
L 521.299507 223.280896 
L 522.104764 224.87928 
L 522.91002 225.987493 
L 523.715277 226.673678 
L 525.32579 227.789652 
L 525.862628 228.579311 
L 526.399465 229.770408 
L 527.204722 232.145143 
L 532.036261 248.142637 
L 533.109936 251.492934 
L 533.915193 253.269782 
L 534.720449 254.489294 
L 536.196753 256.251577 
L 536.8678 256.799274 
L 537.404638 256.952711 
L 537.941475 256.813214 
L 538.612523 256.307257 
L 539.686198 255.113771 
L 541.967758 252.524314 
L 542.638805 252.107051 
L 543.309852 251.955072 
L 543.980899 252.038083 
L 544.651946 252.337801 
L 545.322994 252.868524 
L 546.12825 253.802156 
L 547.336135 255.592407 
L 548.678229 257.938142 
L 549.751904 260.303444 
L 551.362417 264.553624 
L 554.851862 273.900622 
L 556.193957 276.541271 
L 557.80447 279.219048 
L 561.830752 285.265895 
L 562.904428 286.913689 
L 563.843894 288.767425 
L 566.259663 293.857656 
L 567.06492 294.968078 
L 567.870176 295.727745 
L 568.541223 296.107023 
L 569.21227 296.241403 
L 569.883317 296.144561 
L 570.956993 295.698954 
L 572.164878 295.251256 
L 572.970134 295.214235 
L 573.641181 295.392787 
L 574.446438 295.862315 
L 575.251694 296.59348 
L 576.593788 298.176469 
L 578.070092 299.794978 
L 579.143767 300.663864 
L 580.351652 301.361086 
L 581.962165 302.00655 
L 585.183191 303.249259 
L 586.391076 303.978946 
L 587.598961 304.981699 
L 588.672636 306.181887 
L 589.612102 307.588984 
L 590.819987 309.85667 
L 592.833128 313.685299 
L 594.175223 315.690092 
L 595.785736 317.676544 
L 597.530458 319.456145 
L 599.006762 320.685554 
L 601.959369 322.956424 
L 604.240929 325.332194 
L 609.609306 330.722964 
L 612.561913 333.189354 
L 614.575054 335.037437 
L 616.990824 337.644785 
L 624.103923 345.555094 
L 626.251274 348.078055 
L 627.593368 349.3482 
L 628.935462 350.310795 
L 631.485441 351.740353 
L 644.369546 359.34248 
L 650.140551 363.431487 
L 652.55632 365.664684 
L 656.448393 369.237277 
L 659.266791 371.499903 
L 661.548351 373.038562 
L 664.500959 374.735703 
L 667.319357 376.097534 
L 672.419315 378.423125 
L 675.103503 380.066857 
L 678.995576 382.472168 
L 681.948183 383.916808 
L 685.035 385.471872 
L 685.035 385.471872 
" clip-path="url(#pd08738ee71)" style="fill: none; stroke: #0000ff; stroke-width: 1.5; stroke-linecap: square"/>
   </g>
   <g id="patch_3">
    <path d="M 148.197319 489.1525 
L 148.197319 37.512 
" style="fill: none; stroke: #000000; stroke-width: 0.8; stroke-linejoin: miter; stroke-linecap: square"/>
   </g>
   <g id="patch_4">
    <path d="M 685.035 489.1525 
L 685.035 37.512 
" style="fill: none; stroke: #000000; stroke-width: 0.8; stroke-linejoin: miter; stroke-linecap: square"/>
   </g>
   <g id="patch_5">
    <path d="M 148.197319 489.1525 
L 685.035 489.1525 
" style="fill: none; stroke: #000000; stroke-width: 0.8; stroke-linejoin: miter; stroke-linecap: square"/>
   </g>
   <g id="patch_6">
    <path d="M 148.197319 37.512 
L 685.035 37.512 
" style="fill: none; stroke: #000000; stroke-width: 0.8; stroke-linejoin: miter; stroke-linecap: square"/>
   </g>
   <g id="legend_1">
    <g id="patch_7">
     <path d="M 554.985 101.052156 
L 676.535 101.052156 
L 676.535 46.012 
L 554.985 46.012 
z
" style="fill: #ffffff; opacity: 0.8; stroke: #000000; stroke-linejoin: miter"/>
    </g>
    <g id="line2d_73">
     <path d="M 561.785 59.779344 
L 578.785 59.779344 
L 595.785 59.779344 
" style="fill: none; stroke-dasharray: 14.8,6.4; stroke-dashoffset: 0; stroke: #ff0000; stroke-width: 4"/>
    </g>
    <g id="text_18">
     <!-- $\rho_0$ -->
     <g transform="translate(609.385 65.729344) scale(0.17 -0.17)">
      <use xlink:href="#DejaVuSans-Oblique-3c1"/>
      <use xlink:href="#DejaVuSans-30" transform="translate(63.476562 -16.40625) scale(0.7)"/>
     </g>
    </g>
    <g id="line2d_74">
     <path d="M 561.785 84.766687 
L 578.785 84.766687 
L 595.785 84.766687 
" style="fill: none; stroke: #0000ff; stroke-width: 1.5; stroke-linecap: square"/>
    </g>
    <g id="text_19">
     <!-- $\it{U=3.0}$ -->
     <g transform="translate(609.385 90.716687) scale(0.17 -0.17)">
      <defs>
       <path id="DejaVuSans-Oblique-55" d="M 991 4666 
L 1625 4666 
L 1075 1831 
Q 1041 1641 1027 1517 
Q 1013 1394 1013 1300 
Q 1013 869 1253 645 
Q 1494 422 1959 422 
Q 2563 422 2898 753 
Q 3234 1084 3378 1831 
L 3928 4666 
L 4563 4666 
L 4000 1753 
Q 3816 809 3300 359 
Q 2784 -91 1888 -91 
Q 1188 -91 780 261 
Q 372 613 372 1216 
Q 372 1325 387 1461 
Q 403 1597 434 1753 
L 991 4666 
z
" transform="scale(0.015625)"/>
       <path id="DejaVuSans-3d" d="M 678 2906 
L 4684 2906 
L 4684 2381 
L 678 2381 
L 678 2906 
z
M 678 1631 
L 4684 1631 
L 4684 1100 
L 678 1100 
L 678 1631 
z
" transform="scale(0.015625)"/>
       <path id="DejaVuSans-2e" d="M 684 794 
L 1344 794 
L 1344 0 
L 684 0 
L 684 794 
z
" transform="scale(0.015625)"/>
      </defs>
      <use xlink:href="#DejaVuSans-Oblique-55" transform="translate(0 0.78125)"/>
      <use xlink:href="#DejaVuSans-3d" transform="translate(92.675781 0.78125)"/>
      <use xlink:href="#DejaVuSans-33" transform="translate(195.947266 0.78125)"/>
      <use xlink:href="#DejaVuSans-2e" transform="translate(259.570312 0.78125)"/>
      <use xlink:href="#DejaVuSans-30" transform="translate(291.357422 0.78125)"/>
     </g>
    </g>
   </g>
  </g>
 </g>
 <defs>
  <clipPath id="pd08738ee71">
   <rect x="148.197319" y="37.512" width="536.837681" height="451.6405"/>
  </clipPath>
 </defs>
</svg>
