<?xml version="1.0" encoding="utf-8" standalone="no"?>
<!DOCTYPE svg PUBLIC "-//W3C//DTD SVG 1.1//EN"
  "http://www.w3.org/Graphics/SVG/1.1/DTD/svg11.dtd">
<svg xmlns:xlink="http://www.w3.org/1999/xlink" width="720pt" height="576pt" viewBox="0 0 720 576" xmlns="http://www.w3.org/2000/svg" version="1.1">
 <metadata>
  <rdf:RDF xmlns:dc="http://purl.org/dc/elements/1.1/" xmlns:cc="http://creativecommons.org/ns#" xmlns:rdf="http://www.w3.org/1999/02/22-rdf-syntax-ns#">
   <cc:Work>
    <dc:type rdf:resource="http://purl.org/dc/dcmitype/StillImage"/>
    <dc:date>2023-04-10T23:52:27.840268</dc:date>
    <dc:format>image/svg+xml</dc:format>
    <dc:creator>
     <cc:Agent>
      <dc:title>Matplotlib v3.7.1, https://matplotlib.org/</dc:title>
     </cc:Agent>
    </dc:creator>
   </cc:Work>
  </rdf:RDF>
 </metadata>
 <defs>
  <style type="text/css">*{stroke-linejoin: round; stroke-linecap: butt}</style>
 </defs>
 <g id="figure_1">
  <g id="patch_1">
   <path d="M 0 576 
L 720 576 
L 720 0 
L 0 0 
z
" style="fill: #ffffff"/>
  </g>
  <g id="axes_1">
   <g id="patch_2">
    <path d="M 148.197319 489.1525 
L 685.035 489.1525 
L 685.035 37.512 
L 148.197319 37.512 
z
" style="fill: #ffffff"/>
   </g>
   <g id="matplotlib.axis_1">
    <g id="xtick_1">
     <g id="line2d_1">
      <path d="M 148.197319 489.1525 
L 148.197319 37.512 
" clip-path="url(#pfd1efcb9b1)" style="fill: none; stroke: #b0b0b0; stroke-width: 0.8; stroke-linecap: square"/>
     </g>
     <g id="line2d_2">
      <defs>
       <path id="m8696b24e23" d="M 0 0 
L 0 3.5 
" style="stroke: #000000; stroke-width: 0.8"/>
      </defs>
      <g>
       <use xlink:href="#m8696b24e23" x="148.197319" y="489.1525" style="stroke: #000000; stroke-width: 0.8"/>
      </g>
     </g>
     <g id="text_1">
      <!-- −8 -->
      <g transform="translate(129.769585 515.148594) scale(0.25 -0.25)">
       <defs>
        <path id="DejaVuSans-2212" d="M 678 2272 
L 4684 2272 
L 4684 1741 
L 678 1741 
L 678 2272 
z
" transform="scale(0.015625)"/>
        <path id="DejaVuSans-38" d="M 2034 2216 
Q 1584 2216 1326 1975 
Q 1069 1734 1069 1313 
Q 1069 891 1326 650 
Q 1584 409 2034 409 
Q 2484 409 2743 651 
Q 3003 894 3003 1313 
Q 3003 1734 2745 1975 
Q 2488 2216 2034 2216 
z
M 1403 2484 
Q 997 2584 770 2862 
Q 544 3141 544 3541 
Q 544 4100 942 4425 
Q 1341 4750 2034 4750 
Q 2731 4750 3128 4425 
Q 3525 4100 3525 3541 
Q 3525 3141 3298 2862 
Q 3072 2584 2669 2484 
Q 3125 2378 3379 2068 
Q 3634 1759 3634 1313 
Q 3634 634 3220 271 
Q 2806 -91 2034 -91 
Q 1263 -91 848 271 
Q 434 634 434 1313 
Q 434 1759 690 2068 
Q 947 2378 1403 2484 
z
M 1172 3481 
Q 1172 3119 1398 2916 
Q 1625 2713 2034 2713 
Q 2441 2713 2670 2916 
Q 2900 3119 2900 3481 
Q 2900 3844 2670 4047 
Q 2441 4250 2034 4250 
Q 1625 4250 1398 4047 
Q 1172 3844 1172 3481 
z
" transform="scale(0.015625)"/>
       </defs>
       <use xlink:href="#DejaVuSans-2212"/>
       <use xlink:href="#DejaVuSans-38" x="83.789062"/>
      </g>
     </g>
    </g>
    <g id="xtick_2">
     <g id="line2d_3">
      <path d="M 215.302029 489.1525 
L 215.302029 37.512 
" clip-path="url(#pfd1efcb9b1)" style="fill: none; stroke: #b0b0b0; stroke-width: 0.8; stroke-linecap: square"/>
     </g>
     <g id="line2d_4">
      <g>
       <use xlink:href="#m8696b24e23" x="215.302029" y="489.1525" style="stroke: #000000; stroke-width: 0.8"/>
      </g>
     </g>
     <g id="text_2">
      <!-- −6 -->
      <g transform="translate(196.874295 515.148594) scale(0.25 -0.25)">
       <defs>
        <path id="DejaVuSans-36" d="M 2113 2584 
Q 1688 2584 1439 2293 
Q 1191 2003 1191 1497 
Q 1191 994 1439 701 
Q 1688 409 2113 409 
Q 2538 409 2786 701 
Q 3034 994 3034 1497 
Q 3034 2003 2786 2293 
Q 2538 2584 2113 2584 
z
M 3366 4563 
L 3366 3988 
Q 3128 4100 2886 4159 
Q 2644 4219 2406 4219 
Q 1781 4219 1451 3797 
Q 1122 3375 1075 2522 
Q 1259 2794 1537 2939 
Q 1816 3084 2150 3084 
Q 2853 3084 3261 2657 
Q 3669 2231 3669 1497 
Q 3669 778 3244 343 
Q 2819 -91 2113 -91 
Q 1303 -91 875 529 
Q 447 1150 447 2328 
Q 447 3434 972 4092 
Q 1497 4750 2381 4750 
Q 2619 4750 2861 4703 
Q 3103 4656 3366 4563 
z
" transform="scale(0.015625)"/>
       </defs>
       <use xlink:href="#DejaVuSans-2212"/>
       <use xlink:href="#DejaVuSans-36" x="83.789062"/>
      </g>
     </g>
    </g>
    <g id="xtick_3">
     <g id="line2d_5">
      <path d="M 282.406739 489.1525 
L 282.406739 37.512 
" clip-path="url(#pfd1efcb9b1)" style="fill: none; stroke: #b0b0b0; stroke-width: 0.8; stroke-linecap: square"/>
     </g>
     <g id="line2d_6">
      <g>
       <use xlink:href="#m8696b24e23" x="282.406739" y="489.1525" style="stroke: #000000; stroke-width: 0.8"/>
      </g>
     </g>
     <g id="text_3">
      <!-- −4 -->
      <g transform="translate(263.979005 515.148594) scale(0.25 -0.25)">
       <defs>
        <path id="DejaVuSans-34" d="M 2419 4116 
L 825 1625 
L 2419 1625 
L 2419 4116 
z
M 2253 4666 
L 3047 4666 
L 3047 1625 
L 3713 1625 
L 3713 1100 
L 3047 1100 
L 3047 0 
L 2419 0 
L 2419 1100 
L 313 1100 
L 313 1709 
L 2253 4666 
z
" transform="scale(0.015625)"/>
       </defs>
       <use xlink:href="#DejaVuSans-2212"/>
       <use xlink:href="#DejaVuSans-34" x="83.789062"/>
      </g>
     </g>
    </g>
    <g id="xtick_4">
     <g id="line2d_7">
      <path d="M 349.51145 489.1525 
L 349.51145 37.512 
" clip-path="url(#pfd1efcb9b1)" style="fill: none; stroke: #b0b0b0; stroke-width: 0.8; stroke-linecap: square"/>
     </g>
     <g id="line2d_8">
      <g>
       <use xlink:href="#m8696b24e23" x="349.51145" y="489.1525" style="stroke: #000000; stroke-width: 0.8"/>
      </g>
     </g>
     <g id="text_4">
      <!-- −2 -->
      <g transform="translate(331.083715 515.148594) scale(0.25 -0.25)">
       <defs>
        <path id="DejaVuSans-32" d="M 1228 531 
L 3431 531 
L 3431 0 
L 469 0 
L 469 531 
Q 828 903 1448 1529 
Q 2069 2156 2228 2338 
Q 2531 2678 2651 2914 
Q 2772 3150 2772 3378 
Q 2772 3750 2511 3984 
Q 2250 4219 1831 4219 
Q 1534 4219 1204 4116 
Q 875 4013 500 3803 
L 500 4441 
Q 881 4594 1212 4672 
Q 1544 4750 1819 4750 
Q 2544 4750 2975 4387 
Q 3406 4025 3406 3419 
Q 3406 3131 3298 2873 
Q 3191 2616 2906 2266 
Q 2828 2175 2409 1742 
Q 1991 1309 1228 531 
z
" transform="scale(0.015625)"/>
       </defs>
       <use xlink:href="#DejaVuSans-2212"/>
       <use xlink:href="#DejaVuSans-32" x="83.789062"/>
      </g>
     </g>
    </g>
    <g id="xtick_5">
     <g id="line2d_9">
      <path d="M 416.61616 489.1525 
L 416.61616 37.512 
" clip-path="url(#pfd1efcb9b1)" style="fill: none; stroke: #b0b0b0; stroke-width: 0.8; stroke-linecap: square"/>
     </g>
     <g id="line2d_10">
      <g>
       <use xlink:href="#m8696b24e23" x="416.61616" y="489.1525" style="stroke: #000000; stroke-width: 0.8"/>
      </g>
     </g>
     <g id="text_5">
      <!-- 0 -->
      <g transform="translate(408.663035 515.148594) scale(0.25 -0.25)">
       <defs>
        <path id="DejaVuSans-30" d="M 2034 4250 
Q 1547 4250 1301 3770 
Q 1056 3291 1056 2328 
Q 1056 1369 1301 889 
Q 1547 409 2034 409 
Q 2525 409 2770 889 
Q 3016 1369 3016 2328 
Q 3016 3291 2770 3770 
Q 2525 4250 2034 4250 
z
M 2034 4750 
Q 2819 4750 3233 4129 
Q 3647 3509 3647 2328 
Q 3647 1150 3233 529 
Q 2819 -91 2034 -91 
Q 1250 -91 836 529 
Q 422 1150 422 2328 
Q 422 3509 836 4129 
Q 1250 4750 2034 4750 
z
" transform="scale(0.015625)"/>
       </defs>
       <use xlink:href="#DejaVuSans-30"/>
      </g>
     </g>
    </g>
    <g id="xtick_6">
     <g id="line2d_11">
      <path d="M 483.72087 489.1525 
L 483.72087 37.512 
" clip-path="url(#pfd1efcb9b1)" style="fill: none; stroke: #b0b0b0; stroke-width: 0.8; stroke-linecap: square"/>
     </g>
     <g id="line2d_12">
      <g>
       <use xlink:href="#m8696b24e23" x="483.72087" y="489.1525" style="stroke: #000000; stroke-width: 0.8"/>
      </g>
     </g>
     <g id="text_6">
      <!-- 2 -->
      <g transform="translate(475.767745 515.148594) scale(0.25 -0.25)">
       <use xlink:href="#DejaVuSans-32"/>
      </g>
     </g>
    </g>
    <g id="xtick_7">
     <g id="line2d_13">
      <path d="M 550.82558 489.1525 
L 550.82558 37.512 
" clip-path="url(#pfd1efcb9b1)" style="fill: none; stroke: #b0b0b0; stroke-width: 0.8; stroke-linecap: square"/>
     </g>
     <g id="line2d_14">
      <g>
       <use xlink:href="#m8696b24e23" x="550.82558" y="489.1525" style="stroke: #000000; stroke-width: 0.8"/>
      </g>
     </g>
     <g id="text_7">
      <!-- 4 -->
      <g transform="translate(542.872455 515.148594) scale(0.25 -0.25)">
       <use xlink:href="#DejaVuSans-34"/>
      </g>
     </g>
    </g>
    <g id="xtick_8">
     <g id="line2d_15">
      <path d="M 617.93029 489.1525 
L 617.93029 37.512 
" clip-path="url(#pfd1efcb9b1)" style="fill: none; stroke: #b0b0b0; stroke-width: 0.8; stroke-linecap: square"/>
     </g>
     <g id="line2d_16">
      <g>
       <use xlink:href="#m8696b24e23" x="617.93029" y="489.1525" style="stroke: #000000; stroke-width: 0.8"/>
      </g>
     </g>
     <g id="text_8">
      <!-- 6 -->
      <g transform="translate(609.977165 515.148594) scale(0.25 -0.25)">
       <use xlink:href="#DejaVuSans-36"/>
      </g>
     </g>
    </g>
    <g id="xtick_9">
     <g id="line2d_17">
      <path d="M 685.035 489.1525 
L 685.035 37.512 
" clip-path="url(#pfd1efcb9b1)" style="fill: none; stroke: #b0b0b0; stroke-width: 0.8; stroke-linecap: square"/>
     </g>
     <g id="line2d_18">
      <g>
       <use xlink:href="#m8696b24e23" x="685.035" y="489.1525" style="stroke: #000000; stroke-width: 0.8"/>
      </g>
     </g>
     <g id="text_9">
      <!-- 8 -->
      <g transform="translate(677.081875 515.148594) scale(0.25 -0.25)">
       <use xlink:href="#DejaVuSans-38"/>
      </g>
     </g>
    </g>
    <g id="text_10">
     <!-- $\omega$ [-] -->
     <g transform="translate(391.74116 541.351719) scale(0.25 -0.25)">
      <defs>
       <path id="DejaVuSans-Oblique-3c9" d="M 1369 -91 
Q 72 -91 434 1766 
Q 575 2500 1256 3500 
L 1875 3500 
Q 1231 2500 1088 1750 
Q 819 397 1519 397 
Q 2166 397 2478 2078 
L 3009 2078 
Q 2669 388 3316 397 
Q 4013 403 4275 1750 
Q 4419 2500 4169 3500 
L 4788 3500 
Q 5075 2500 4934 1766 
Q 4578 -94 3278 -91 
Q 2428 -88 2503 844 
Q 2194 -91 1369 -91 
z
" transform="scale(0.015625)"/>
       <path id="Calibri-20" transform="scale(0.015625)"/>
       <path id="Calibri-5b" d="M 1684 -813 
Q 1684 -916 1661 -958 
Q 1638 -1000 1594 -1000 
L 794 -1000 
Q 756 -1000 722 -989 
Q 688 -978 659 -953 
Q 631 -928 614 -886 
Q 597 -844 597 -781 
L 597 4153 
Q 597 4213 614 4255 
Q 631 4297 659 4323 
Q 688 4350 722 4361 
Q 756 4372 794 4372 
L 1594 4372 
Q 1613 4372 1630 4362 
Q 1647 4353 1659 4328 
Q 1672 4303 1678 4267 
Q 1684 4231 1684 4178 
Q 1684 4078 1661 4034 
Q 1638 3991 1594 3991 
L 1084 3991 
L 1084 -622 
L 1594 -622 
Q 1613 -622 1630 -631 
Q 1647 -641 1659 -664 
Q 1672 -688 1678 -723 
Q 1684 -759 1684 -813 
z
" transform="scale(0.015625)"/>
       <path id="Calibri-2d" d="M 1744 1578 
Q 1744 1456 1716 1409 
Q 1688 1363 1634 1363 
L 328 1363 
Q 272 1363 244 1411 
Q 216 1459 216 1578 
Q 216 1697 244 1744 
Q 272 1791 328 1791 
L 1634 1791 
Q 1659 1791 1679 1781 
Q 1700 1772 1714 1745 
Q 1728 1719 1736 1678 
Q 1744 1638 1744 1578 
z
" transform="scale(0.015625)"/>
       <path id="Calibri-5d" d="M 1369 -781 
Q 1369 -844 1351 -886 
Q 1334 -928 1306 -953 
Q 1278 -978 1242 -989 
Q 1206 -1000 1169 -1000 
L 372 -1000 
Q 328 -1000 304 -958 
Q 281 -916 281 -813 
Q 281 -759 286 -723 
Q 291 -688 303 -664 
Q 316 -641 333 -631 
Q 350 -622 372 -622 
L 881 -622 
L 881 3991 
L 372 3991 
Q 328 3991 304 4034 
Q 281 4078 281 4178 
Q 281 4231 286 4267 
Q 291 4303 303 4328 
Q 316 4353 333 4362 
Q 350 4372 372 4372 
L 1169 4372 
Q 1206 4372 1242 4361 
Q 1278 4350 1306 4323 
Q 1334 4297 1351 4255 
Q 1369 4213 1369 4153 
L 1369 -781 
z
" transform="scale(0.015625)"/>
      </defs>
      <use xlink:href="#DejaVuSans-Oblique-3c9" transform="translate(0 0.6875)"/>
      <use xlink:href="#Calibri-20" transform="translate(83.740234 0.6875)"/>
      <use xlink:href="#Calibri-5b" transform="translate(106.347656 0.6875)"/>
      <use xlink:href="#Calibri-2d" transform="translate(137.011719 0.6875)"/>
      <use xlink:href="#Calibri-5d" transform="translate(167.626953 0.6875)"/>
     </g>
    </g>
   </g>
   <g id="matplotlib.axis_2">
    <g id="ytick_1">
     <g id="line2d_19">
      <path d="M 148.197319 489.1525 
L 685.035 489.1525 
" clip-path="url(#pfd1efcb9b1)" style="fill: none; stroke: #b0b0b0; stroke-width: 0.8; stroke-linecap: square"/>
     </g>
     <g id="line2d_20">
      <defs>
       <path id="m8dcdd63574" d="M 0 0 
L -3.5 0 
" style="stroke: #000000; stroke-width: 0.8"/>
      </defs>
      <g>
       <use xlink:href="#m8dcdd63574" x="148.197319" y="489.1525" style="stroke: #000000; stroke-width: 0.8"/>
      </g>
     </g>
     <g id="text_11">
      <!-- $\mathdefault{10^{-4}}$ -->
      <g transform="translate(82.447319 498.650547) scale(0.25 -0.25)">
       <defs>
        <path id="DejaVuSans-31" d="M 794 531 
L 1825 531 
L 1825 4091 
L 703 3866 
L 703 4441 
L 1819 4666 
L 2450 4666 
L 2450 531 
L 3481 531 
L 3481 0 
L 794 0 
L 794 531 
z
" transform="scale(0.015625)"/>
       </defs>
       <use xlink:href="#DejaVuSans-31" transform="translate(0 0.684375)"/>
       <use xlink:href="#DejaVuSans-30" transform="translate(63.623047 0.684375)"/>
       <use xlink:href="#DejaVuSans-2212" transform="translate(128.203125 38.965625) scale(0.7)"/>
       <use xlink:href="#DejaVuSans-34" transform="translate(186.855469 38.965625) scale(0.7)"/>
      </g>
     </g>
    </g>
    <g id="ytick_2">
     <g id="line2d_21">
      <path d="M 148.197319 398.8244 
L 685.035 398.8244 
" clip-path="url(#pfd1efcb9b1)" style="fill: none; stroke: #b0b0b0; stroke-width: 0.8; stroke-linecap: square"/>
     </g>
     <g id="line2d_22">
      <g>
       <use xlink:href="#m8dcdd63574" x="148.197319" y="398.8244" style="stroke: #000000; stroke-width: 0.8"/>
      </g>
     </g>
     <g id="text_12">
      <!-- $\mathdefault{10^{-3}}$ -->
      <g transform="translate(82.447319 408.322447) scale(0.25 -0.25)">
       <defs>
        <path id="DejaVuSans-33" d="M 2597 2516 
Q 3050 2419 3304 2112 
Q 3559 1806 3559 1356 
Q 3559 666 3084 287 
Q 2609 -91 1734 -91 
Q 1441 -91 1130 -33 
Q 819 25 488 141 
L 488 750 
Q 750 597 1062 519 
Q 1375 441 1716 441 
Q 2309 441 2620 675 
Q 2931 909 2931 1356 
Q 2931 1769 2642 2001 
Q 2353 2234 1838 2234 
L 1294 2234 
L 1294 2753 
L 1863 2753 
Q 2328 2753 2575 2939 
Q 2822 3125 2822 3475 
Q 2822 3834 2567 4026 
Q 2313 4219 1838 4219 
Q 1578 4219 1281 4162 
Q 984 4106 628 3988 
L 628 4550 
Q 988 4650 1302 4700 
Q 1616 4750 1894 4750 
Q 2613 4750 3031 4423 
Q 3450 4097 3450 3541 
Q 3450 3153 3228 2886 
Q 3006 2619 2597 2516 
z
" transform="scale(0.015625)"/>
       </defs>
       <use xlink:href="#DejaVuSans-31" transform="translate(0 0.765625)"/>
       <use xlink:href="#DejaVuSans-30" transform="translate(63.623047 0.765625)"/>
       <use xlink:href="#DejaVuSans-2212" transform="translate(128.203125 39.046875) scale(0.7)"/>
       <use xlink:href="#DejaVuSans-33" transform="translate(186.855469 39.046875) scale(0.7)"/>
      </g>
     </g>
    </g>
    <g id="ytick_3">
     <g id="line2d_23">
      <path d="M 148.197319 308.4963 
L 685.035 308.4963 
" clip-path="url(#pfd1efcb9b1)" style="fill: none; stroke: #b0b0b0; stroke-width: 0.8; stroke-linecap: square"/>
     </g>
     <g id="line2d_24">
      <g>
       <use xlink:href="#m8dcdd63574" x="148.197319" y="308.4963" style="stroke: #000000; stroke-width: 0.8"/>
      </g>
     </g>
     <g id="text_13">
      <!-- $\mathdefault{10^{-2}}$ -->
      <g transform="translate(82.447319 317.994347) scale(0.25 -0.25)">
       <use xlink:href="#DejaVuSans-31" transform="translate(0 0.765625)"/>
       <use xlink:href="#DejaVuSans-30" transform="translate(63.623047 0.765625)"/>
       <use xlink:href="#DejaVuSans-2212" transform="translate(128.203125 39.046875) scale(0.7)"/>
       <use xlink:href="#DejaVuSans-32" transform="translate(186.855469 39.046875) scale(0.7)"/>
      </g>
     </g>
    </g>
    <g id="ytick_4">
     <g id="line2d_25">
      <path d="M 148.197319 218.1682 
L 685.035 218.1682 
" clip-path="url(#pfd1efcb9b1)" style="fill: none; stroke: #b0b0b0; stroke-width: 0.8; stroke-linecap: square"/>
     </g>
     <g id="line2d_26">
      <g>
       <use xlink:href="#m8dcdd63574" x="148.197319" y="218.1682" style="stroke: #000000; stroke-width: 0.8"/>
      </g>
     </g>
     <g id="text_14">
      <!-- $\mathdefault{10^{-1}}$ -->
      <g transform="translate(82.447319 227.666247) scale(0.25 -0.25)">
       <use xlink:href="#DejaVuSans-31" transform="translate(0 0.684375)"/>
       <use xlink:href="#DejaVuSans-30" transform="translate(63.623047 0.684375)"/>
       <use xlink:href="#DejaVuSans-2212" transform="translate(128.203125 38.965625) scale(0.7)"/>
       <use xlink:href="#DejaVuSans-31" transform="translate(186.855469 38.965625) scale(0.7)"/>
      </g>
     </g>
    </g>
    <g id="ytick_5">
     <g id="line2d_27">
      <path d="M 148.197319 127.8401 
L 685.035 127.8401 
" clip-path="url(#pfd1efcb9b1)" style="fill: none; stroke: #b0b0b0; stroke-width: 0.8; stroke-linecap: square"/>
     </g>
     <g id="line2d_28">
      <g>
       <use xlink:href="#m8dcdd63574" x="148.197319" y="127.8401" style="stroke: #000000; stroke-width: 0.8"/>
      </g>
     </g>
     <g id="text_15">
      <!-- $\mathdefault{10^{0}}$ -->
      <g transform="translate(97.197319 137.338147) scale(0.25 -0.25)">
       <use xlink:href="#DejaVuSans-31" transform="translate(0 0.765625)"/>
       <use xlink:href="#DejaVuSans-30" transform="translate(63.623047 0.765625)"/>
       <use xlink:href="#DejaVuSans-30" transform="translate(128.203125 39.046875) scale(0.7)"/>
      </g>
     </g>
    </g>
    <g id="ytick_6">
     <g id="line2d_29">
      <path d="M 148.197319 37.512 
L 685.035 37.512 
" clip-path="url(#pfd1efcb9b1)" style="fill: none; stroke: #b0b0b0; stroke-width: 0.8; stroke-linecap: square"/>
     </g>
     <g id="line2d_30">
      <g>
       <use xlink:href="#m8dcdd63574" x="148.197319" y="37.512" style="stroke: #000000; stroke-width: 0.8"/>
      </g>
     </g>
     <g id="text_16">
      <!-- $\mathdefault{10^{1}}$ -->
      <g transform="translate(97.197319 47.010047) scale(0.25 -0.25)">
       <use xlink:href="#DejaVuSans-31" transform="translate(0 0.684375)"/>
       <use xlink:href="#DejaVuSans-30" transform="translate(63.623047 0.684375)"/>
       <use xlink:href="#DejaVuSans-31" transform="translate(128.203125 38.965625) scale(0.7)"/>
      </g>
     </g>
    </g>
    <g id="ytick_7">
     <g id="line2d_31">
      <defs>
       <path id="maf906d9ab4" d="M 0 0 
L -2 0 
" style="stroke: #000000; stroke-width: 0.6"/>
      </defs>
      <g>
       <use xlink:href="#maf906d9ab4" x="148.197319" y="461.961032" style="stroke: #000000; stroke-width: 0.6"/>
      </g>
     </g>
    </g>
    <g id="ytick_8">
     <g id="line2d_32">
      <g>
       <use xlink:href="#maf906d9ab4" x="148.197319" y="446.055044" style="stroke: #000000; stroke-width: 0.6"/>
      </g>
     </g>
    </g>
    <g id="ytick_9">
     <g id="line2d_33">
      <g>
       <use xlink:href="#maf906d9ab4" x="148.197319" y="434.769565" style="stroke: #000000; stroke-width: 0.6"/>
      </g>
     </g>
    </g>
    <g id="ytick_10">
     <g id="line2d_34">
      <g>
       <use xlink:href="#maf906d9ab4" x="148.197319" y="426.015868" style="stroke: #000000; stroke-width: 0.6"/>
      </g>
     </g>
    </g>
    <g id="ytick_11">
     <g id="line2d_35">
      <g>
       <use xlink:href="#maf906d9ab4" x="148.197319" y="418.863576" style="stroke: #000000; stroke-width: 0.6"/>
      </g>
     </g>
    </g>
    <g id="ytick_12">
     <g id="line2d_36">
      <g>
       <use xlink:href="#maf906d9ab4" x="148.197319" y="412.8164" style="stroke: #000000; stroke-width: 0.6"/>
      </g>
     </g>
    </g>
    <g id="ytick_13">
     <g id="line2d_37">
      <g>
       <use xlink:href="#maf906d9ab4" x="148.197319" y="407.578097" style="stroke: #000000; stroke-width: 0.6"/>
      </g>
     </g>
    </g>
    <g id="ytick_14">
     <g id="line2d_38">
      <g>
       <use xlink:href="#maf906d9ab4" x="148.197319" y="402.957587" style="stroke: #000000; stroke-width: 0.6"/>
      </g>
     </g>
    </g>
    <g id="ytick_15">
     <g id="line2d_39">
      <g>
       <use xlink:href="#maf906d9ab4" x="148.197319" y="371.632932" style="stroke: #000000; stroke-width: 0.6"/>
      </g>
     </g>
    </g>
    <g id="ytick_16">
     <g id="line2d_40">
      <g>
       <use xlink:href="#maf906d9ab4" x="148.197319" y="355.726944" style="stroke: #000000; stroke-width: 0.6"/>
      </g>
     </g>
    </g>
    <g id="ytick_17">
     <g id="line2d_41">
      <g>
       <use xlink:href="#maf906d9ab4" x="148.197319" y="344.441465" style="stroke: #000000; stroke-width: 0.6"/>
      </g>
     </g>
    </g>
    <g id="ytick_18">
     <g id="line2d_42">
      <g>
       <use xlink:href="#maf906d9ab4" x="148.197319" y="335.687768" style="stroke: #000000; stroke-width: 0.6"/>
      </g>
     </g>
    </g>
    <g id="ytick_19">
     <g id="line2d_43">
      <g>
       <use xlink:href="#maf906d9ab4" x="148.197319" y="328.535476" style="stroke: #000000; stroke-width: 0.6"/>
      </g>
     </g>
    </g>
    <g id="ytick_20">
     <g id="line2d_44">
      <g>
       <use xlink:href="#maf906d9ab4" x="148.197319" y="322.4883" style="stroke: #000000; stroke-width: 0.6"/>
      </g>
     </g>
    </g>
    <g id="ytick_21">
     <g id="line2d_45">
      <g>
       <use xlink:href="#maf906d9ab4" x="148.197319" y="317.249997" style="stroke: #000000; stroke-width: 0.6"/>
      </g>
     </g>
    </g>
    <g id="ytick_22">
     <g id="line2d_46">
      <g>
       <use xlink:href="#maf906d9ab4" x="148.197319" y="312.629487" style="stroke: #000000; stroke-width: 0.6"/>
      </g>
     </g>
    </g>
    <g id="ytick_23">
     <g id="line2d_47">
      <g>
       <use xlink:href="#maf906d9ab4" x="148.197319" y="281.304832" style="stroke: #000000; stroke-width: 0.6"/>
      </g>
     </g>
    </g>
    <g id="ytick_24">
     <g id="line2d_48">
      <g>
       <use xlink:href="#maf906d9ab4" x="148.197319" y="265.398844" style="stroke: #000000; stroke-width: 0.6"/>
      </g>
     </g>
    </g>
    <g id="ytick_25">
     <g id="line2d_49">
      <g>
       <use xlink:href="#maf906d9ab4" x="148.197319" y="254.113365" style="stroke: #000000; stroke-width: 0.6"/>
      </g>
     </g>
    </g>
    <g id="ytick_26">
     <g id="line2d_50">
      <g>
       <use xlink:href="#maf906d9ab4" x="148.197319" y="245.359668" style="stroke: #000000; stroke-width: 0.6"/>
      </g>
     </g>
    </g>
    <g id="ytick_27">
     <g id="line2d_51">
      <g>
       <use xlink:href="#maf906d9ab4" x="148.197319" y="238.207376" style="stroke: #000000; stroke-width: 0.6"/>
      </g>
     </g>
    </g>
    <g id="ytick_28">
     <g id="line2d_52">
      <g>
       <use xlink:href="#maf906d9ab4" x="148.197319" y="232.1602" style="stroke: #000000; stroke-width: 0.6"/>
      </g>
     </g>
    </g>
    <g id="ytick_29">
     <g id="line2d_53">
      <g>
       <use xlink:href="#maf906d9ab4" x="148.197319" y="226.921897" style="stroke: #000000; stroke-width: 0.6"/>
      </g>
     </g>
    </g>
    <g id="ytick_30">
     <g id="line2d_54">
      <g>
       <use xlink:href="#maf906d9ab4" x="148.197319" y="222.301387" style="stroke: #000000; stroke-width: 0.6"/>
      </g>
     </g>
    </g>
    <g id="ytick_31">
     <g id="line2d_55">
      <g>
       <use xlink:href="#maf906d9ab4" x="148.197319" y="190.976732" style="stroke: #000000; stroke-width: 0.6"/>
      </g>
     </g>
    </g>
    <g id="ytick_32">
     <g id="line2d_56">
      <g>
       <use xlink:href="#maf906d9ab4" x="148.197319" y="175.070744" style="stroke: #000000; stroke-width: 0.6"/>
      </g>
     </g>
    </g>
    <g id="ytick_33">
     <g id="line2d_57">
      <g>
       <use xlink:href="#maf906d9ab4" x="148.197319" y="163.785265" style="stroke: #000000; stroke-width: 0.6"/>
      </g>
     </g>
    </g>
    <g id="ytick_34">
     <g id="line2d_58">
      <g>
       <use xlink:href="#maf906d9ab4" x="148.197319" y="155.031568" style="stroke: #000000; stroke-width: 0.6"/>
      </g>
     </g>
    </g>
    <g id="ytick_35">
     <g id="line2d_59">
      <g>
       <use xlink:href="#maf906d9ab4" x="148.197319" y="147.879276" style="stroke: #000000; stroke-width: 0.6"/>
      </g>
     </g>
    </g>
    <g id="ytick_36">
     <g id="line2d_60">
      <g>
       <use xlink:href="#maf906d9ab4" x="148.197319" y="141.8321" style="stroke: #000000; stroke-width: 0.6"/>
      </g>
     </g>
    </g>
    <g id="ytick_37">
     <g id="line2d_61">
      <g>
       <use xlink:href="#maf906d9ab4" x="148.197319" y="136.593797" style="stroke: #000000; stroke-width: 0.6"/>
      </g>
     </g>
    </g>
    <g id="ytick_38">
     <g id="line2d_62">
      <g>
       <use xlink:href="#maf906d9ab4" x="148.197319" y="131.973287" style="stroke: #000000; stroke-width: 0.6"/>
      </g>
     </g>
    </g>
    <g id="ytick_39">
     <g id="line2d_63">
      <g>
       <use xlink:href="#maf906d9ab4" x="148.197319" y="100.648632" style="stroke: #000000; stroke-width: 0.6"/>
      </g>
     </g>
    </g>
    <g id="ytick_40">
     <g id="line2d_64">
      <g>
       <use xlink:href="#maf906d9ab4" x="148.197319" y="84.742644" style="stroke: #000000; stroke-width: 0.6"/>
      </g>
     </g>
    </g>
    <g id="ytick_41">
     <g id="line2d_65">
      <g>
       <use xlink:href="#maf906d9ab4" x="148.197319" y="73.457165" style="stroke: #000000; stroke-width: 0.6"/>
      </g>
     </g>
    </g>
    <g id="ytick_42">
     <g id="line2d_66">
      <g>
       <use xlink:href="#maf906d9ab4" x="148.197319" y="64.703468" style="stroke: #000000; stroke-width: 0.6"/>
      </g>
     </g>
    </g>
    <g id="ytick_43">
     <g id="line2d_67">
      <g>
       <use xlink:href="#maf906d9ab4" x="148.197319" y="57.551176" style="stroke: #000000; stroke-width: 0.6"/>
      </g>
     </g>
    </g>
    <g id="ytick_44">
     <g id="line2d_68">
      <g>
       <use xlink:href="#maf906d9ab4" x="148.197319" y="51.504" style="stroke: #000000; stroke-width: 0.6"/>
      </g>
     </g>
    </g>
    <g id="ytick_45">
     <g id="line2d_69">
      <g>
       <use xlink:href="#maf906d9ab4" x="148.197319" y="46.265697" style="stroke: #000000; stroke-width: 0.6"/>
      </g>
     </g>
    </g>
    <g id="ytick_46">
     <g id="line2d_70">
      <g>
       <use xlink:href="#maf906d9ab4" x="148.197319" y="41.645187" style="stroke: #000000; stroke-width: 0.6"/>
      </g>
     </g>
    </g>
    <g id="text_17">
     <!-- $\rho$($\omega$) -->
     <g transform="translate(26.447319 258.08225) scale(0.25 -0.25)">
      <defs>
       <path id="DejaVuSans-Oblique-3c1" d="M 1203 2875 
Q 1453 3194 1981 3475 
Q 2188 3584 2756 3584 
Q 3394 3584 3694 3078 
Q 3994 2572 3834 1747 
Q 3672 922 3175 415 
Q 2678 -91 2041 -91 
Q 1656 -91 1409 63 
Q 1163 213 1044 525 
L 681 -1331 
L 103 -1331 
L 697 1716 
Q 838 2438 1203 2875 
z
M 3238 1747 
Q 3359 2381 3169 2744 
Q 2978 3103 2522 3103 
Q 2066 3103 1734 2744 
Q 1403 2381 1281 1747 
Q 1156 1113 1347 750 
Q 1538 391 1994 391 
Q 2450 391 2781 750 
Q 3113 1113 3238 1747 
z
" transform="scale(0.015625)"/>
       <path id="Calibri-28" d="M 1547 4306 
Q 1250 3678 1104 3017 
Q 959 2356 959 1688 
Q 959 1016 1107 356 
Q 1256 -303 1541 -938 
Q 1556 -975 1557 -1001 
Q 1559 -1028 1537 -1045 
Q 1516 -1063 1470 -1070 
Q 1425 -1078 1347 -1078 
Q 1291 -1078 1250 -1075 
Q 1209 -1072 1179 -1062 
Q 1150 -1053 1131 -1040 
Q 1113 -1028 1103 -1013 
Q 934 -694 806 -367 
Q 678 -41 590 296 
Q 503 634 459 979 
Q 416 1325 416 1678 
Q 416 2031 464 2375 
Q 513 2719 602 3058 
Q 691 3397 819 3725 
Q 947 4053 1106 4375 
Q 1109 4388 1123 4397 
Q 1138 4406 1163 4415 
Q 1188 4425 1231 4429 
Q 1275 4434 1344 4434 
Q 1416 4434 1459 4425 
Q 1503 4416 1528 4400 
Q 1553 4384 1556 4359 
Q 1559 4334 1547 4306 
z
" transform="scale(0.015625)"/>
       <path id="Calibri-29" d="M 1522 1678 
Q 1522 1325 1478 979 
Q 1434 634 1346 296 
Q 1259 -41 1132 -367 
Q 1006 -694 838 -1013 
Q 828 -1028 809 -1040 
Q 791 -1053 761 -1062 
Q 731 -1072 690 -1075 
Q 650 -1078 594 -1078 
Q 513 -1078 467 -1070 
Q 422 -1063 401 -1045 
Q 381 -1028 382 -1001 
Q 384 -975 400 -938 
Q 688 -306 834 355 
Q 981 1016 981 1688 
Q 981 2356 834 3017 
Q 688 3678 394 4306 
Q 381 4334 384 4359 
Q 388 4384 413 4400 
Q 438 4416 481 4425 
Q 525 4434 597 4434 
Q 663 4434 706 4429 
Q 750 4425 776 4415 
Q 803 4406 815 4397 
Q 828 4388 834 4375 
Q 1156 3734 1339 3057 
Q 1522 2381 1522 1678 
z
" transform="scale(0.015625)"/>
      </defs>
      <use xlink:href="#DejaVuSans-Oblique-3c1" transform="translate(0 0.71875)"/>
      <use xlink:href="#Calibri-28" transform="translate(63.476562 0.71875)"/>
      <use xlink:href="#DejaVuSans-Oblique-3c9" transform="translate(93.798828 0.71875)"/>
      <use xlink:href="#Calibri-29" transform="translate(177.539062 0.71875)"/>
     </g>
    </g>
   </g>
   <g id="line2d_71">
    <path d="M 148.197319 401.924147 
L 162.020889 399.143312 
L 174.636575 396.383285 
L 186.312795 393.603275 
L 196.915339 390.854735 
L 206.712626 388.088442 
L 215.704658 385.320877 
L 223.891432 382.5739 
L 231.40716 379.824512 
L 238.38605 377.038728 
L 244.828102 374.229627 
L 250.733316 371.415143 
L 256.235902 368.545953 
L 261.201651 365.712538 
L 265.898981 362.777084 
L 270.193682 359.833299 
L 274.219965 356.802858 
L 277.977829 353.69037 
L 281.467273 350.504169 
L 284.6883 347.257541 
L 287.640907 343.970201 
L 290.459305 340.496068 
L 293.009284 337.010028 
L 295.425053 333.342668 
L 297.706613 329.482558 
L 299.853964 325.419633 
L 301.867105 321.14641 
L 303.746037 316.659685 
L 305.624969 311.57699 
L 307.369692 306.191886 
L 308.980205 300.507268 
L 310.590718 293.956701 
L 312.067021 286.984493 
L 313.409115 279.619163 
L 314.75121 270.995462 
L 315.959094 261.843667 
L 317.166979 250.968002 
L 318.240655 239.407483 
L 319.31433 225.514254 
L 320.388005 208.650574 
L 321.59589 185.810923 
L 322.803775 163.280353 
L 323.206403 158.820833 
L 323.474822 157.569806 
L 323.609031 157.534553 
L 323.743241 157.900351 
L 324.01166 159.784153 
L 324.414288 165.044074 
L 325.085335 177.646959 
L 326.964267 214.170418 
L 328.037942 230.384171 
L 329.111618 243.25856 
L 330.185293 253.341869 
L 331.124759 260.228842 
L 332.064225 265.551278 
L 332.869481 269.00574 
L 333.674738 271.535844 
L 334.345785 272.994094 
L 335.016832 273.901903 
L 335.55367 274.253713 
L 335.956298 274.308604 
L 336.358926 274.190216 
L 336.895764 273.770574 
L 337.432602 273.059793 
L 338.103649 271.771992 
L 338.908905 269.65108 
L 339.714162 266.904633 
L 340.653628 262.894903 
L 341.727303 257.193442 
L 342.800978 250.17797 
L 343.874654 241.642212 
L 344.948329 231.260605 
L 346.022005 218.524288 
L 346.961471 204.82781 
L 347.900936 187.904052 
L 348.840402 166.657097 
L 350.048287 132.973903 
L 350.585125 119.982665 
L 350.853544 116.390923 
L 350.987753 115.694694 
L 351.121963 115.807211 
L 351.390381 118.40164 
L 351.79301 126.966877 
L 354.477198 197.057138 
L 355.550873 215.729817 
L 356.624549 230.326123 
L 357.564015 240.376826 
L 358.503481 248.072307 
L 359.174528 252.030909 
L 359.711365 254.109132 
L 360.113994 254.89543 
L 360.382413 254.977702 
L 360.650831 254.643824 
L 360.91925 253.82579 
L 361.321878 251.506096 
L 361.724507 247.567509 
L 362.127135 241.631708 
L 362.663973 230.237907 
L 363.469229 211.062877 
L 363.737648 208.682608 
L 363.871857 209.027071 
L 364.140276 212.703678 
L 364.677114 226.97304 
L 365.482371 248.157425 
L 366.153418 260.28828 
L 366.824465 268.316513 
L 367.495512 273.534799 
L 368.032349 276.290049 
L 368.569187 278.106584 
L 369.106025 279.180102 
L 369.508653 279.579241 
L 369.911281 279.675766 
L 370.31391 279.499642 
L 370.716538 279.073376 
L 371.253376 278.144176 
L 371.924423 276.439271 
L 372.729679 273.633096 
L 373.534936 270.008157 
L 374.474402 264.7106 
L 375.413868 258.163901 
L 376.353334 250.185619 
L 377.292799 240.479075 
L 378.232265 228.567437 
L 379.171731 213.659438 
L 379.976988 197.463287 
L 380.782244 176.463202 
L 381.453292 153.20897 
L 382.124339 121.859882 
L 382.929595 81.366355 
L 383.063805 79.684589 
L 383.198014 81.077312 
L 383.466433 91.517421 
L 384.808527 161.469285 
L 385.613784 189.411674 
L 386.553249 213.809144 
L 387.626925 235.29545 
L 388.7006 252.524096 
L 389.908485 268.546923 
L 391.250579 283.456084 
L 392.726883 297.340756 
L 394.337396 310.268504 
L 395.947909 321.411874 
L 397.558422 331.107182 
L 399.168935 339.555127 
L 400.779448 346.859922 
L 402.255752 352.574028 
L 403.597846 356.922678 
L 404.805731 360.087812 
L 405.745197 362.003181 
L 406.550453 363.217285 
L 407.2215 363.891679 
L 407.758338 364.186025 
L 408.295176 364.239714 
L 408.832013 364.027707 
L 409.368851 363.520215 
L 409.905689 362.681469 
L 410.442526 361.467972 
L 411.113573 359.340919 
L 411.78462 356.40566 
L 412.455668 352.469479 
L 413.126715 347.246263 
L 413.797762 340.276347 
L 414.468809 330.734634 
L 415.005647 320.13851 
L 415.542484 304.728568 
L 415.945113 286.533744 
L 416.213531 266.594454 
L 416.48195 223.546987 
L 416.537498 -1 
M 416.694821 -1 
L 416.750369 223.546987 
L 417.018788 266.594454 
L 417.421416 293.617437 
L 417.958254 313.258663 
L 418.629301 328.393067 
L 419.300348 338.61056 
L 420.105605 347.246263 
L 420.910861 353.348717 
L 421.716118 357.687521 
L 422.521374 360.704382 
L 423.192421 362.415129 
L 423.863468 363.520215 
L 424.400306 364.027707 
L 424.937144 364.239714 
L 425.473981 364.186025 
L 426.010819 363.891679 
L 426.681866 363.217285 
L 427.487123 362.003181 
L 428.426589 360.087812 
L 429.500264 357.310779 
L 430.708149 353.509987 
L 432.050243 348.512043 
L 433.526547 342.1143 
L 435.13706 334.054862 
L 436.747573 324.792337 
L 438.358086 314.161183 
L 439.834389 302.973317 
L 441.310693 290.047035 
L 442.652787 276.320921 
L 443.860672 261.786089 
L 445.068557 244.334331 
L 446.142232 225.211049 
L 447.081698 204.165106 
L 447.886955 181.008173 
L 448.558002 155.885636 
L 449.229049 122.58041 
L 450.034305 81.077312 
L 450.168515 79.684589 
L 450.302724 81.366355 
L 450.571143 91.95829 
L 451.779028 153.20897 
L 452.584284 180.398992 
L 453.389541 200.44106 
L 454.329007 218.290109 
L 455.268473 232.23395 
L 456.342148 244.875981 
L 457.415823 254.93409 
L 458.489499 262.973838 
L 459.563174 269.32325 
L 460.50264 273.633096 
L 461.307897 276.439271 
L 461.978944 278.144176 
L 462.515781 279.073376 
L 463.052619 279.587122 
L 463.455247 279.675192 
L 463.857876 279.481554 
L 464.260504 278.973271 
L 464.663132 278.106584 
L 465.19997 276.290049 
L 465.736807 273.534799 
L 466.273645 269.550848 
L 466.810483 263.911003 
L 467.34732 256.010645 
L 467.884158 245.116952 
L 468.689415 223.041722 
L 469.226252 210.408575 
L 469.494671 208.682608 
L 469.628881 209.39273 
L 469.897299 213.512707 
L 471.507812 247.567509 
L 472.04465 252.441002 
L 472.447278 254.300132 
L 472.715697 254.866707 
L 472.984116 254.984862 
L 473.252535 254.715898 
L 473.655163 253.691685 
L 474.192001 251.35186 
L 474.863048 247.120213 
L 475.668304 240.376826 
L 476.60777 230.326123 
L 477.547236 217.755718 
L 478.486702 202.172653 
L 479.426168 182.728641 
L 480.365634 158.41627 
L 481.841938 118.40164 
L 482.110357 115.807211 
L 482.244566 115.694694 
L 482.378776 116.390923 
L 482.647194 119.982665 
L 483.184032 132.973903 
L 484.794545 176.364522 
L 485.734011 195.618018 
L 486.807686 212.99001 
L 487.881362 226.795631 
L 488.955037 237.987868 
L 490.162922 248.196866 
L 491.370807 256.391692 
L 492.444482 262.249198 
L 493.518157 266.904633 
L 494.457623 270.047927 
L 495.26288 272.064635 
L 495.933927 273.264375 
L 496.604974 274.017295 
L 497.141812 274.288157 
L 497.54444 274.291571 
L 497.947068 274.118314 
L 498.483906 273.602647 
L 499.020744 272.747607 
L 499.691791 271.174918 
L 500.362838 269.00574 
L 501.168094 265.551278 
L 501.973351 261.080317 
L 502.912817 254.429565 
L 503.852283 246.021516 
L 504.791749 235.572583 
L 505.731215 222.72966 
L 506.80489 204.664778 
L 508.281194 174.920122 
L 508.952241 163.01711 
L 509.354869 158.657337 
L 509.623288 157.534553 
L 509.757497 157.569806 
L 509.891707 158.0035 
L 510.160125 159.996274 
L 510.562754 165.307445 
L 511.36801 180.388707 
L 512.978523 210.94084 
L 514.186408 229.240648 
L 515.394293 243.984234 
L 516.602178 256.04569 
L 517.944272 267.112443 
L 519.286366 276.339212 
L 520.76267 284.889071 
L 522.238973 292.157055 
L 523.849486 298.958984 
L 525.459999 304.841331 
L 527.204722 310.396663 
L 529.083654 315.625183 
L 531.096795 320.53733 
L 533.109936 324.877913 
L 535.257287 328.999276 
L 537.538847 332.910051 
L 539.954617 336.621367 
L 542.504596 340.145597 
L 545.322994 343.654496 
L 548.275601 346.971877 
L 551.496627 350.245615 
L 554.851862 353.338336 
L 558.475517 356.376241 
L 562.36759 359.347751 
L 566.528082 362.245457 
L 571.091202 365.146767 
L 575.922741 367.954442 
L 581.156909 370.73897 
L 586.793704 373.486553 
L 592.967338 376.244855 
L 599.677809 378.993139 
L 606.925117 381.715851 
L 614.709264 384.401676 
L 623.164457 387.083541 
L 632.424907 389.784088 
L 642.490614 392.483379 
L 653.361577 395.16628 
L 665.172006 397.850892 
L 678.05611 400.549381 
L 685.035 401.924147 
L 685.035 401.924147 
" clip-path="url(#pfd1efcb9b1)" style="fill: none; stroke-dasharray: 14.8,6.4; stroke-dashoffset: 0; stroke: #ff0000; stroke-width: 4"/>
   </g>
   <g id="line2d_72">
    <path d="M 148.197319 356.091757 
L 153.565696 352.255096 
L 154.773581 350.960469 
L 156.115675 349.18678 
L 160.544586 342.961386 
L 161.752471 341.827761 
L 163.362984 340.641506 
L 167.255057 338.131799 
L 168.86557 337.355026 
L 170.610292 336.786685 
L 172.757643 336.062162 
L 174.099737 335.366862 
L 175.576041 334.332634 
L 177.454973 332.718114 
L 183.360187 327.448699 
L 185.507538 325.622339 
L 186.849632 324.159342 
L 188.594355 321.895169 
L 192.218009 317.089291 
L 193.560103 315.672146 
L 194.499569 314.957941 
L 195.304826 314.586155 
L 196.110082 314.434876 
L 197.317967 314.476507 
L 198.794271 314.494239 
L 200.002155 314.239343 
L 202.015297 313.74874 
L 203.223181 313.720681 
L 205.236323 313.724445 
L 206.175789 313.460483 
L 206.981045 313.01607 
L 207.920511 312.222632 
L 208.859977 311.109901 
L 209.799443 309.649944 
L 210.873118 307.567979 
L 212.483631 303.889711 
L 215.03361 298.10171 
L 216.375705 295.621462 
L 217.315171 294.283654 
L 218.120427 293.454981 
L 218.925684 292.9221 
L 219.86515 292.581788 
L 221.744081 291.987275 
L 224.696689 290.704917 
L 225.904574 290.559182 
L 227.246668 290.626037 
L 228.454552 290.927948 
L 231.541369 291.927792 
L 232.346626 291.859367 
L 233.151882 291.583822 
L 233.957139 291.0737 
L 234.762395 290.288287 
L 235.701861 289.012462 
L 237.446584 286.083317 
L 238.520259 284.504101 
L 239.459725 283.4882 
L 240.66761 282.546138 
L 242.546542 281.378837 
L 243.754426 280.83712 
L 244.693892 280.62539 
L 245.767568 280.637309 
L 246.975452 280.639347 
L 247.6465 280.423223 
L 248.317547 279.991784 
L 249.257013 279.083306 
L 250.599107 277.421344 
L 251.806992 275.567536 
L 252.746458 273.669781 
L 253.685923 271.239993 
L 257.846416 259.610239 
L 259.18851 256.866768 
L 261.201651 253.239056 
L 262.006908 252.155216 
L 262.677955 251.605025 
L 263.214792 251.465137 
L 263.617421 251.561682 
L 264.154258 251.971317 
L 264.825305 252.881638 
L 267.241075 256.696773 
L 267.777913 257.068331 
L 268.31475 257.156254 
L 268.851588 256.980283 
L 269.522635 256.498258 
L 270.73052 255.305009 
L 271.535776 254.211213 
L 272.341033 252.675308 
L 275.29364 246.395409 
L 275.964687 245.723356 
L 276.501525 245.483485 
L 277.038363 245.498748 
L 277.5752 245.763725 
L 278.246247 246.414095 
L 280.527808 249.061355 
L 281.064645 249.182564 
L 281.601483 249.05389 
L 282.27253 248.637433 
L 283.211996 247.749285 
L 284.956718 245.677396 
L 285.761975 244.416339 
L 287.238279 241.504703 
L 288.043535 240.189194 
L 288.580373 239.742815 
L 288.983001 239.699298 
L 289.385629 239.877145 
L 290.996142 240.966286 
L 291.398771 240.856308 
L 291.801399 240.481388 
L 292.338237 239.596024 
L 293.411912 237.152343 
L 294.217168 235.56867 
L 294.888215 234.677018 
L 295.559263 234.155185 
L 296.0961 234.004642 
L 297.706613 233.858929 
L 298.243451 233.511981 
L 298.914498 232.780039 
L 299.585545 231.690872 
L 301.061849 228.678009 
L 303.2092 224.407558 
L 305.35655 220.870556 
L 306.161807 218.724902 
L 309.517042 208.900418 
L 310.724927 206.471792 
L 312.46965 203.253326 
L 314.214372 199.545815 
L 315.019629 198.464165 
L 316.093304 197.435449 
L 316.630142 197.119498 
L 317.03277 197.110972 
L 317.435398 197.331138 
L 318.106445 198.049546 
L 319.180121 199.595968 
L 320.388005 201.333463 
L 320.924843 201.695831 
L 321.327471 201.699959 
L 321.7301 201.46666 
L 322.266937 200.809917 
L 323.609031 198.799556 
L 323.87745 198.841245 
L 324.145869 199.22612 
L 324.414288 200.014843 
L 324.816916 202.025377 
L 325.353754 206.232179 
L 326.15901 215.071511 
L 328.57478 243.832621 
L 329.245827 248.633188 
L 329.782665 251.023939 
L 330.185293 252.040231 
L 330.587921 252.470912 
L 330.85634 252.466483 
L 331.124759 252.249355 
L 331.527387 251.567481 
L 332.064225 250.116039 
L 332.869481 247.10066 
L 333.674738 243.200259 
L 334.479994 237.990598 
L 336.627345 222.761556 
L 337.83523 214.04944 
L 338.774696 205.322776 
L 341.056256 183.578332 
L 341.593094 180.335349 
L 341.995722 179.004751 
L 342.264141 178.664923 
L 342.39835 178.6634 
L 342.666769 178.994869 
L 343.069397 180.243501 
L 343.874654 184.093921 
L 346.693052 198.199363 
L 347.766727 204.511862 
L 348.303565 206.620378 
L 348.974612 208.338138 
L 349.37724 209.005243 
L 349.645659 209.191298 
L 349.914078 209.108252 
L 350.182497 208.755531 
L 350.585125 207.825509 
L 352.866685 201.644522 
L 353.135104 201.500832 
L 353.403523 201.571849 
L 353.806151 201.927158 
L 354.342989 202.728727 
L 354.745617 203.717824 
L 355.148245 205.406505 
L 355.550873 208.141076 
L 356.221921 214.806485 
L 357.027177 222.620406 
L 358.369271 234.185655 
L 359.577156 248.444342 
L 360.382413 257.121449 
L 360.785041 259.418536 
L 361.05346 259.813258 
L 361.187669 259.641035 
L 361.456088 258.548294 
L 361.858716 255.110793 
L 362.395554 247.723606 
L 363.603439 229.413592 
L 363.871857 227.460186 
L 364.006067 227.144747 
L 364.140276 227.363029 
L 364.408695 229.567402 
L 364.811323 236.914355 
L 366.019208 263.716689 
L 366.556046 270.245626 
L 366.958674 272.645015 
L 367.227093 273.263221 
L 367.361302 273.32301 
L 367.629721 273.035672 
L 368.569187 271.240532 
L 369.106025 271.087013 
L 369.508653 270.476174 
L 371.119166 267.274019 
L 371.521794 265.027292 
L 372.327051 258.016778 
L 373.266517 248.048491 
L 374.87703 227.999901 
L 377.561218 176.332138 
L 377.963847 172.241477 
L 378.232265 171.462664 
L 378.366475 171.515665 
L 378.634894 172.195061 
L 379.037522 174.311296 
L 379.842778 178.556729 
L 380.648035 182.282793 
L 381.050663 184.358863 
L 381.319082 184.919466 
L 381.72171 185.097488 
L 382.258548 185.023955 
L 382.526967 185.447804 
L 383.063805 186.894434 
L 383.466433 189.601307 
L 384.271689 194.640823 
L 384.674318 196.770357 
L 385.076946 197.940998 
L 385.211155 198.031386 
L 385.345365 197.924293 
L 385.747993 197.124176 
L 385.882202 197.151183 
L 386.284831 198.194311 
L 386.553249 198.77428 
L 386.687459 198.792068 
L 386.821668 198.487306 
L 387.090087 196.892303 
L 387.626925 191.601005 
L 388.969019 175.280569 
L 389.371647 174.405757 
L 390.042694 169.056359 
L 390.311113 168.83957 
L 390.445323 168.354647 
L 390.579532 167.208694 
L 390.847951 161.978956 
L 391.250579 153.592211 
L 391.384789 152.894802 
L 391.518998 153.165717 
L 391.653207 154.51989 
L 391.921626 160.90674 
L 392.726883 185.14693 
L 393.129511 193.240212 
L 393.532139 207.093695 
L 394.203186 236.159523 
L 394.605815 247.093272 
L 395.008443 252.039533 
L 395.276862 252.529167 
L 395.411071 253.77338 
L 395.67949 260.918265 
L 396.082118 271.204107 
L 396.350537 272.680472 
L 396.484747 272.628873 
L 396.618956 272.723831 
L 396.887375 273.174872 
L 397.021584 272.739929 
L 397.155794 272.812708 
L 397.424213 275.189356 
L 397.96105 282.111785 
L 398.900516 312.19271 
L 399.168935 314.791812 
L 399.303144 314.734094 
L 399.571563 313.680783 
L 399.705773 314.370774 
L 400.24261 320.901135 
L 400.511029 320.511348 
L 400.645239 320.604292 
L 400.779448 321.154651 
L 401.047867 325.175408 
L 401.853123 340.319528 
L 402.255752 343.769575 
L 402.52417 345.220126 
L 402.926799 348.261093 
L 403.195218 349.491945 
L 404.000474 355.195888 
L 404.537312 357.553395 
L 405.745197 361.600454 
L 406.416244 363.075457 
L 406.953081 363.831748 
L 407.758338 364.328757 
L 408.026757 364.249422 
L 408.295176 363.838667 
L 408.697804 362.374762 
L 408.832013 361.690004 
L 408.966223 361.78059 
L 409.100432 362.132849 
L 409.234641 361.394214 
L 409.50306 359.341763 
L 409.63727 358.963743 
L 409.771479 359.481668 
L 409.905689 358.74272 
L 410.174107 354.116561 
L 410.308317 355.792215 
L 410.442526 352.255111 
L 410.710945 353.769152 
L 410.845155 353.780335 
L 410.979364 355.76396 
L 411.113573 355.42694 
L 411.247783 353.454834 
L 411.381992 347.909575 
L 411.516202 348.072113 
L 411.650411 343.686347 
L 411.91883 348.903488 
L 412.053039 347.903763 
L 412.187249 345.024789 
L 412.455668 332.385806 
L 412.724086 303.080626 
L 412.858296 310.2816 
L 413.260924 292.023716 
L 413.663552 316.162107 
L 414.066181 271.246748 
L 414.20039 276.412174 
L 414.334599 299.630447 
L 414.603018 274.254688 
L 414.737228 255.722886 
L 415.005647 272.702544 
L 415.139856 206.244615 
L 415.274065 250.170602 
L 415.408275 233.508992 
L 415.542484 233.754698 
L 415.945113 136.859462 
L 416.079322 125.399097 
L 416.213531 127.889817 
L 416.347741 152.831847 
L 416.48195 201.992296 
L 416.482508 577 
M 416.74991 577 
L 416.750369 268.557881 
L 416.884578 61.357932 
L 417.018788 269.252912 
L 417.152997 281.063976 
L 417.287207 191.683834 
L 417.555626 250.049129 
L 417.689835 290.914188 
L 417.824044 218.390372 
L 417.958254 223.603149 
L 418.092463 271.941451 
L 418.226673 275.66164 
L 418.360882 246.029638 
L 418.495091 252.114728 
L 418.76351 305.171738 
L 419.031929 275.550249 
L 419.166139 299.081555 
L 419.300348 297.598046 
L 419.434557 317.811485 
L 419.568767 319.103857 
L 419.702976 312.958027 
L 419.971395 326.572393 
L 420.105605 322.109221 
L 420.374023 337.37336 
L 420.642442 323.923127 
L 420.910861 347.950492 
L 421.17928 351.779552 
L 421.313489 347.205284 
L 421.447699 334.670423 
L 421.581908 342.524677 
L 421.716118 332.886618 
L 421.850327 332.348518 
L 422.387165 345.725589 
L 422.655584 333.347714 
L 423.326631 360.202028 
L 423.46084 359.741726 
L 423.595049 358.188556 
L 423.863468 361.631956 
L 424.131887 362.504722 
L 424.266097 362.53694 
L 424.400306 363.39131 
L 424.534515 363.231282 
L 424.802934 363.49071 
L 425.071353 364.197389 
L 425.205562 363.985368 
L 425.339772 363.440391 
L 425.7424 364.673346 
L 426.010819 364.517408 
L 426.681866 363.384872 
L 427.352913 361.495664 
L 428.15817 358.389274 
L 428.829217 354.776605 
L 429.634473 349.128417 
L 429.902892 347.172154 
L 430.171311 346.080523 
L 430.43973 343.630899 
L 431.244986 331.80673 
L 431.513405 327.354001 
L 432.050243 323.477546 
L 432.452871 314.24289 
L 432.855499 302.859958 
L 433.123918 300.049038 
L 433.660756 290.059297 
L 434.063384 294.757118 
L 434.197594 293.469831 
L 434.466012 284.796624 
L 434.868641 270.826622 
L 435.271269 265.500535 
L 435.808107 250.872981 
L 435.942316 249.568133 
L 436.076526 249.460071 
L 436.881782 252.762152 
L 437.015991 252.826485 
L 437.28441 251.272286 
L 437.687039 248.467861 
L 437.955457 241.940855 
L 438.492295 225.583866 
L 438.760714 218.780515 
L 439.431761 193.353431 
L 440.505436 174.709453 
L 440.639646 174.718573 
L 440.908065 175.821808 
L 441.042274 175.61749 
L 441.176484 174.599463 
L 442.384368 158.519346 
L 442.652787 159.189594 
L 442.921206 160.171584 
L 443.189625 163.724244 
L 443.860672 176.736574 
L 444.2633 180.76305 
L 445.471185 189.749582 
L 446.008023 194.099869 
L 447.081698 198.125258 
L 447.215907 198.093056 
L 447.484326 197.390059 
L 448.289583 193.750349 
L 448.692211 190.960963 
L 449.229049 186.793167 
L 449.631677 185.310307 
L 449.900096 184.92608 
L 450.168515 185.219904 
L 450.839562 186.236921 
L 450.973771 186.210103 
L 451.24219 185.558794 
L 451.779028 183.707721 
L 452.181656 182.650207 
L 452.986912 179.660528 
L 453.792169 178.429309 
L 454.060588 177.846416 
L 454.194797 177.786692 
L 454.329007 178.029374 
L 454.597426 179.334468 
L 455.134263 183.249064 
L 455.536891 188.526647 
L 456.610567 204.227727 
L 457.684242 218.989434 
L 459.294755 253.554742 
L 459.831593 259.087913 
L 460.234221 260.971608 
L 460.636849 261.518313 
L 460.905268 261.96147 
L 461.173687 263.032001 
L 461.710525 266.86097 
L 462.515781 272.542671 
L 463.186828 275.787351 
L 463.723666 277.741339 
L 464.126294 278.465542 
L 464.528923 278.695072 
L 464.931551 278.634779 
L 465.334179 278.294568 
L 465.736807 277.705289 
L 466.005226 276.99046 
L 466.273645 275.774741 
L 466.676273 272.631772 
L 467.078902 267.505664 
L 467.615739 257.308988 
L 468.823624 232.231119 
L 469.092043 230.154853 
L 469.226252 229.769204 
L 469.360462 229.793031 
L 469.494671 230.208496 
L 469.76309 232.14751 
L 470.165718 237.386884 
L 471.373603 255.574873 
L 471.776231 258.85769 
L 472.04465 259.855672 
L 472.17886 259.982323 
L 472.313069 259.864351 
L 472.581488 258.92746 
L 472.984116 255.95307 
L 473.520954 249.705087 
L 475.399886 225.220535 
L 476.339352 216.946571 
L 477.278818 210.042679 
L 477.815655 207.445741 
L 479.02354 203.434532 
L 479.694587 201.443116 
L 480.097215 200.868173 
L 480.365634 200.828809 
L 480.634053 201.020211 
L 481.036681 201.682717 
L 481.573519 203.192244 
L 482.244566 205.169522 
L 482.647194 205.746621 
L 482.915613 205.818541 
L 483.318241 205.656408 
L 483.855079 205.21145 
L 484.257707 204.497336 
L 484.660336 203.252872 
L 486.941896 194.090785 
L 487.478733 191.017207 
L 488.28399 184.77859 
L 489.357665 176.581777 
L 489.760294 174.492548 
L 490.028712 173.93765 
L 490.162922 174.002606 
L 490.431341 174.875818 
L 490.833969 177.834295 
L 491.370807 183.811509 
L 494.189204 219.27018 
L 495.12867 226.360881 
L 496.470765 234.801673 
L 499.423372 251.451873 
L 499.96021 253.340044 
L 500.497047 254.577871 
L 501.168094 255.614131 
L 501.704932 256.107576 
L 502.10756 256.164942 
L 502.375979 256.001986 
L 502.778607 255.388833 
L 503.181236 254.254653 
L 503.718073 251.787582 
L 504.254911 248.08765 
L 504.925958 241.666709 
L 505.865424 229.946287 
L 507.475937 209.226981 
L 508.146984 203.299676 
L 508.683822 200.281953 
L 509.08645 198.955529 
L 509.489078 198.307192 
L 509.757497 198.200691 
L 510.025916 198.326113 
L 510.428544 198.88451 
L 511.099591 200.410605 
L 512.575895 203.84105 
L 513.112733 204.541139 
L 513.64957 204.84546 
L 514.186408 204.849701 
L 514.723246 204.555095 
L 515.528502 203.700675 
L 516.199549 203.070403 
L 516.736387 202.878403 
L 517.273225 202.973211 
L 518.078481 203.39271 
L 518.883738 204.039619 
L 519.420575 204.721349 
L 520.091623 205.987413 
L 521.031089 208.347537 
L 522.238973 211.919135 
L 526.399465 225.891082 
L 528.949444 234.407706 
L 529.754701 236.453029 
L 530.559957 237.971432 
L 531.365214 239.064209 
L 532.17047 239.803971 
L 535.391496 242.383762 
L 536.196753 243.678252 
L 537.538847 245.90683 
L 538.344104 246.778426 
L 539.015151 247.218017 
L 539.686198 247.424187 
L 540.491454 247.408328 
L 542.907224 247.060204 
L 543.578271 247.2581 
L 544.249318 247.703027 
L 544.920365 248.460385 
L 545.725622 249.7985 
L 546.933507 252.366518 
L 549.215067 257.214399 
L 550.020323 258.47338 
L 550.557161 258.966921 
L 550.959789 259.095385 
L 551.362417 259.006818 
L 551.899255 258.586862 
L 552.570302 257.722037 
L 554.583444 254.909605 
L 555.254491 254.393224 
L 555.791328 254.263927 
L 556.193957 254.358306 
L 556.730794 254.751287 
L 557.267632 255.447723 
L 557.938679 256.716531 
L 559.280773 259.96553 
L 560.354449 262.215985 
L 561.428124 263.912139 
L 562.501799 265.217719 
L 563.172846 265.708276 
L 563.709684 265.798617 
L 564.112312 265.659531 
L 564.64915 265.215264 
L 565.320197 264.341309 
L 566.259663 262.734588 
L 567.735967 259.659973 
L 568.809642 257.596834 
L 569.480689 256.745306 
L 570.017527 256.411983 
L 570.420155 256.384497 
L 570.822783 256.552041 
L 571.359621 257.07929 
L 571.896459 257.950926 
L 572.567506 259.506057 
L 573.372762 261.963079 
L 574.849066 267.363403 
L 576.996417 275.058588 
L 578.070092 278.239768 
L 578.875349 280.027124 
L 579.546396 281.038628 
L 580.217443 281.629697 
L 580.754281 281.842188 
L 581.425328 281.877111 
L 583.304259 281.815142 
L 585.048982 282.161582 
L 585.988448 282.53069 
L 587.062123 283.246955 
L 589.343683 284.869882 
L 594.577851 287.978241 
L 596.859411 289.147898 
L 599.677809 290.726236 
L 600.483065 290.796662 
L 601.825159 290.627892 
L 603.435673 290.492745 
L 605.717233 290.57736 
L 606.925117 290.814438 
L 607.998793 291.295731 
L 609.475096 292.247136 
L 616.051358 297.021546 
L 617.79608 298.818141 
L 619.540803 300.924524 
L 621.419735 303.605617 
L 623.835504 306.990269 
L 625.311808 308.686159 
L 626.519693 309.785987 
L 627.727578 310.600215 
L 630.948604 312.326869 
L 632.559117 313.024392 
L 633.901211 313.353963 
L 637.390656 313.955662 
L 638.195912 314.442294 
L 639.135378 315.296089 
L 640.209054 316.59208 
L 641.953776 319.113502 
L 645.174802 323.816925 
L 647.053734 326.128266 
L 649.335294 328.587668 
L 650.945807 330.039087 
L 652.55632 331.17534 
L 656.448393 333.763705 
L 659.132582 335.929257 
L 664.769378 340.526283 
L 666.916728 341.871164 
L 669.869336 343.696939 
L 671.479849 345.000378 
L 674.164037 347.538915 
L 676.848225 350.287805 
L 679.263995 353.173101 
L 681.277136 355.45828 
L 683.021859 357.082246 
L 685.035 358.727338 
L 685.035 358.727338 
" clip-path="url(#pfd1efcb9b1)" style="fill: none; stroke: #0000ff; stroke-width: 1.5; stroke-linecap: square"/>
   </g>
   <g id="patch_3">
    <path d="M 148.197319 489.1525 
L 148.197319 37.512 
" style="fill: none; stroke: #000000; stroke-width: 0.8; stroke-linejoin: miter; stroke-linecap: square"/>
   </g>
   <g id="patch_4">
    <path d="M 685.035 489.1525 
L 685.035 37.512 
" style="fill: none; stroke: #000000; stroke-width: 0.8; stroke-linejoin: miter; stroke-linecap: square"/>
   </g>
   <g id="patch_5">
    <path d="M 148.197319 489.1525 
L 685.035 489.1525 
" style="fill: none; stroke: #000000; stroke-width: 0.8; stroke-linejoin: miter; stroke-linecap: square"/>
   </g>
   <g id="patch_6">
    <path d="M 148.197319 37.512 
L 685.035 37.512 
" style="fill: none; stroke: #000000; stroke-width: 0.8; stroke-linejoin: miter; stroke-linecap: square"/>
   </g>
   <g id="legend_1">
    <g id="patch_7">
     <path d="M 554.985 101.052156 
L 676.535 101.052156 
L 676.535 46.012 
L 554.985 46.012 
z
" style="fill: #ffffff; opacity: 0.8; stroke: #000000; stroke-linejoin: miter"/>
    </g>
    <g id="line2d_73">
     <path d="M 561.785 59.779344 
L 578.785 59.779344 
L 595.785 59.779344 
" style="fill: none; stroke-dasharray: 14.8,6.4; stroke-dashoffset: 0; stroke: #ff0000; stroke-width: 4"/>
    </g>
    <g id="text_18">
     <!-- $\rho_0$ -->
     <g transform="translate(609.385 65.729344) scale(0.17 -0.17)">
      <use xlink:href="#DejaVuSans-Oblique-3c1"/>
      <use xlink:href="#DejaVuSans-30" transform="translate(63.476562 -16.40625) scale(0.7)"/>
     </g>
    </g>
    <g id="line2d_74">
     <path d="M 561.785 84.766687 
L 578.785 84.766687 
L 595.785 84.766687 
" style="fill: none; stroke: #0000ff; stroke-width: 1.5; stroke-linecap: square"/>
    </g>
    <g id="text_19">
     <!-- $\it{U=6.0}$ -->
     <g transform="translate(609.385 90.716687) scale(0.17 -0.17)">
      <defs>
       <path id="DejaVuSans-Oblique-55" d="M 991 4666 
L 1625 4666 
L 1075 1831 
Q 1041 1641 1027 1517 
Q 1013 1394 1013 1300 
Q 1013 869 1253 645 
Q 1494 422 1959 422 
Q 2563 422 2898 753 
Q 3234 1084 3378 1831 
L 3928 4666 
L 4563 4666 
L 4000 1753 
Q 3816 809 3300 359 
Q 2784 -91 1888 -91 
Q 1188 -91 780 261 
Q 372 613 372 1216 
Q 372 1325 387 1461 
Q 403 1597 434 1753 
L 991 4666 
z
" transform="scale(0.015625)"/>
       <path id="DejaVuSans-3d" d="M 678 2906 
L 4684 2906 
L 4684 2381 
L 678 2381 
L 678 2906 
z
M 678 1631 
L 4684 1631 
L 4684 1100 
L 678 1100 
L 678 1631 
z
" transform="scale(0.015625)"/>
       <path id="DejaVuSans-2e" d="M 684 794 
L 1344 794 
L 1344 0 
L 684 0 
L 684 794 
z
" transform="scale(0.015625)"/>
      </defs>
      <use xlink:href="#DejaVuSans-Oblique-55" transform="translate(0 0.78125)"/>
      <use xlink:href="#DejaVuSans-3d" transform="translate(92.675781 0.78125)"/>
      <use xlink:href="#DejaVuSans-36" transform="translate(195.947266 0.78125)"/>
      <use xlink:href="#DejaVuSans-2e" transform="translate(259.570312 0.78125)"/>
      <use xlink:href="#DejaVuSans-30" transform="translate(291.357422 0.78125)"/>
     </g>
    </g>
   </g>
  </g>
 </g>
 <defs>
  <clipPath id="pfd1efcb9b1">
   <rect x="148.197319" y="37.512" width="536.837681" height="451.6405"/>
  </clipPath>
 </defs>
</svg>
