<?xml version="1.0" encoding="utf-8" standalone="no"?>
<!DOCTYPE svg PUBLIC "-//W3C//DTD SVG 1.1//EN"
  "http://www.w3.org/Graphics/SVG/1.1/DTD/svg11.dtd">
<svg xmlns:xlink="http://www.w3.org/1999/xlink" width="720pt" height="576pt" viewBox="0 0 720 576" xmlns="http://www.w3.org/2000/svg" version="1.1">
 <metadata>
  <rdf:RDF xmlns:dc="http://purl.org/dc/elements/1.1/" xmlns:cc="http://creativecommons.org/ns#" xmlns:rdf="http://www.w3.org/1999/02/22-rdf-syntax-ns#">
   <cc:Work>
    <dc:type rdf:resource="http://purl.org/dc/dcmitype/StillImage"/>
    <dc:date>2023-04-16T00:50:30.970524</dc:date>
    <dc:format>image/svg+xml</dc:format>
    <dc:creator>
     <cc:Agent>
      <dc:title>Matplotlib v3.7.1, https://matplotlib.org/</dc:title>
     </cc:Agent>
    </dc:creator>
   </cc:Work>
  </rdf:RDF>
 </metadata>
 <defs>
  <style type="text/css">*{stroke-linejoin: round; stroke-linecap: butt}</style>
 </defs>
 <g id="figure_1">
  <g id="patch_1">
   <path d="M 0 576 
L 720 576 
L 720 0 
L 0 0 
z
" style="fill: #ffffff"/>
  </g>
  <g id="axes_1">
   <g id="patch_2">
    <path d="M 148.197319 489.1525 
L 685.035 489.1525 
L 685.035 37.512 
L 148.197319 37.512 
z
" style="fill: #ffffff"/>
   </g>
   <g id="matplotlib.axis_1">
    <g id="xtick_1">
     <g id="line2d_1">
      <path d="M 148.197319 489.1525 
L 148.197319 37.512 
" clip-path="url(#p0fbb2628d0)" style="fill: none; stroke: #b0b0b0; stroke-width: 0.8; stroke-linecap: square"/>
     </g>
     <g id="line2d_2">
      <defs>
       <path id="m31a20a6379" d="M 0 0 
L 0 3.5 
" style="stroke: #000000; stroke-width: 0.8"/>
      </defs>
      <g>
       <use xlink:href="#m31a20a6379" x="148.197319" y="489.1525" style="stroke: #000000; stroke-width: 0.8"/>
      </g>
     </g>
     <g id="text_1">
      <!-- −8 -->
      <g transform="translate(129.769585 515.148594) scale(0.25 -0.25)">
       <defs>
        <path id="DejaVuSans-2212" d="M 678 2272 
L 4684 2272 
L 4684 1741 
L 678 1741 
L 678 2272 
z
" transform="scale(0.015625)"/>
        <path id="DejaVuSans-38" d="M 2034 2216 
Q 1584 2216 1326 1975 
Q 1069 1734 1069 1313 
Q 1069 891 1326 650 
Q 1584 409 2034 409 
Q 2484 409 2743 651 
Q 3003 894 3003 1313 
Q 3003 1734 2745 1975 
Q 2488 2216 2034 2216 
z
M 1403 2484 
Q 997 2584 770 2862 
Q 544 3141 544 3541 
Q 544 4100 942 4425 
Q 1341 4750 2034 4750 
Q 2731 4750 3128 4425 
Q 3525 4100 3525 3541 
Q 3525 3141 3298 2862 
Q 3072 2584 2669 2484 
Q 3125 2378 3379 2068 
Q 3634 1759 3634 1313 
Q 3634 634 3220 271 
Q 2806 -91 2034 -91 
Q 1263 -91 848 271 
Q 434 634 434 1313 
Q 434 1759 690 2068 
Q 947 2378 1403 2484 
z
M 1172 3481 
Q 1172 3119 1398 2916 
Q 1625 2713 2034 2713 
Q 2441 2713 2670 2916 
Q 2900 3119 2900 3481 
Q 2900 3844 2670 4047 
Q 2441 4250 2034 4250 
Q 1625 4250 1398 4047 
Q 1172 3844 1172 3481 
z
" transform="scale(0.015625)"/>
       </defs>
       <use xlink:href="#DejaVuSans-2212"/>
       <use xlink:href="#DejaVuSans-38" x="83.789062"/>
      </g>
     </g>
    </g>
    <g id="xtick_2">
     <g id="line2d_3">
      <path d="M 215.302029 489.1525 
L 215.302029 37.512 
" clip-path="url(#p0fbb2628d0)" style="fill: none; stroke: #b0b0b0; stroke-width: 0.8; stroke-linecap: square"/>
     </g>
     <g id="line2d_4">
      <g>
       <use xlink:href="#m31a20a6379" x="215.302029" y="489.1525" style="stroke: #000000; stroke-width: 0.8"/>
      </g>
     </g>
     <g id="text_2">
      <!-- −6 -->
      <g transform="translate(196.874295 515.148594) scale(0.25 -0.25)">
       <defs>
        <path id="DejaVuSans-36" d="M 2113 2584 
Q 1688 2584 1439 2293 
Q 1191 2003 1191 1497 
Q 1191 994 1439 701 
Q 1688 409 2113 409 
Q 2538 409 2786 701 
Q 3034 994 3034 1497 
Q 3034 2003 2786 2293 
Q 2538 2584 2113 2584 
z
M 3366 4563 
L 3366 3988 
Q 3128 4100 2886 4159 
Q 2644 4219 2406 4219 
Q 1781 4219 1451 3797 
Q 1122 3375 1075 2522 
Q 1259 2794 1537 2939 
Q 1816 3084 2150 3084 
Q 2853 3084 3261 2657 
Q 3669 2231 3669 1497 
Q 3669 778 3244 343 
Q 2819 -91 2113 -91 
Q 1303 -91 875 529 
Q 447 1150 447 2328 
Q 447 3434 972 4092 
Q 1497 4750 2381 4750 
Q 2619 4750 2861 4703 
Q 3103 4656 3366 4563 
z
" transform="scale(0.015625)"/>
       </defs>
       <use xlink:href="#DejaVuSans-2212"/>
       <use xlink:href="#DejaVuSans-36" x="83.789062"/>
      </g>
     </g>
    </g>
    <g id="xtick_3">
     <g id="line2d_5">
      <path d="M 282.406739 489.1525 
L 282.406739 37.512 
" clip-path="url(#p0fbb2628d0)" style="fill: none; stroke: #b0b0b0; stroke-width: 0.8; stroke-linecap: square"/>
     </g>
     <g id="line2d_6">
      <g>
       <use xlink:href="#m31a20a6379" x="282.406739" y="489.1525" style="stroke: #000000; stroke-width: 0.8"/>
      </g>
     </g>
     <g id="text_3">
      <!-- −4 -->
      <g transform="translate(263.979005 515.148594) scale(0.25 -0.25)">
       <defs>
        <path id="DejaVuSans-34" d="M 2419 4116 
L 825 1625 
L 2419 1625 
L 2419 4116 
z
M 2253 4666 
L 3047 4666 
L 3047 1625 
L 3713 1625 
L 3713 1100 
L 3047 1100 
L 3047 0 
L 2419 0 
L 2419 1100 
L 313 1100 
L 313 1709 
L 2253 4666 
z
" transform="scale(0.015625)"/>
       </defs>
       <use xlink:href="#DejaVuSans-2212"/>
       <use xlink:href="#DejaVuSans-34" x="83.789062"/>
      </g>
     </g>
    </g>
    <g id="xtick_4">
     <g id="line2d_7">
      <path d="M 349.51145 489.1525 
L 349.51145 37.512 
" clip-path="url(#p0fbb2628d0)" style="fill: none; stroke: #b0b0b0; stroke-width: 0.8; stroke-linecap: square"/>
     </g>
     <g id="line2d_8">
      <g>
       <use xlink:href="#m31a20a6379" x="349.51145" y="489.1525" style="stroke: #000000; stroke-width: 0.8"/>
      </g>
     </g>
     <g id="text_4">
      <!-- −2 -->
      <g transform="translate(331.083715 515.148594) scale(0.25 -0.25)">
       <defs>
        <path id="DejaVuSans-32" d="M 1228 531 
L 3431 531 
L 3431 0 
L 469 0 
L 469 531 
Q 828 903 1448 1529 
Q 2069 2156 2228 2338 
Q 2531 2678 2651 2914 
Q 2772 3150 2772 3378 
Q 2772 3750 2511 3984 
Q 2250 4219 1831 4219 
Q 1534 4219 1204 4116 
Q 875 4013 500 3803 
L 500 4441 
Q 881 4594 1212 4672 
Q 1544 4750 1819 4750 
Q 2544 4750 2975 4387 
Q 3406 4025 3406 3419 
Q 3406 3131 3298 2873 
Q 3191 2616 2906 2266 
Q 2828 2175 2409 1742 
Q 1991 1309 1228 531 
z
" transform="scale(0.015625)"/>
       </defs>
       <use xlink:href="#DejaVuSans-2212"/>
       <use xlink:href="#DejaVuSans-32" x="83.789062"/>
      </g>
     </g>
    </g>
    <g id="xtick_5">
     <g id="line2d_9">
      <path d="M 416.61616 489.1525 
L 416.61616 37.512 
" clip-path="url(#p0fbb2628d0)" style="fill: none; stroke: #b0b0b0; stroke-width: 0.8; stroke-linecap: square"/>
     </g>
     <g id="line2d_10">
      <g>
       <use xlink:href="#m31a20a6379" x="416.61616" y="489.1525" style="stroke: #000000; stroke-width: 0.8"/>
      </g>
     </g>
     <g id="text_5">
      <!-- 0 -->
      <g transform="translate(408.663035 515.148594) scale(0.25 -0.25)">
       <defs>
        <path id="DejaVuSans-30" d="M 2034 4250 
Q 1547 4250 1301 3770 
Q 1056 3291 1056 2328 
Q 1056 1369 1301 889 
Q 1547 409 2034 409 
Q 2525 409 2770 889 
Q 3016 1369 3016 2328 
Q 3016 3291 2770 3770 
Q 2525 4250 2034 4250 
z
M 2034 4750 
Q 2819 4750 3233 4129 
Q 3647 3509 3647 2328 
Q 3647 1150 3233 529 
Q 2819 -91 2034 -91 
Q 1250 -91 836 529 
Q 422 1150 422 2328 
Q 422 3509 836 4129 
Q 1250 4750 2034 4750 
z
" transform="scale(0.015625)"/>
       </defs>
       <use xlink:href="#DejaVuSans-30"/>
      </g>
     </g>
    </g>
    <g id="xtick_6">
     <g id="line2d_11">
      <path d="M 483.72087 489.1525 
L 483.72087 37.512 
" clip-path="url(#p0fbb2628d0)" style="fill: none; stroke: #b0b0b0; stroke-width: 0.8; stroke-linecap: square"/>
     </g>
     <g id="line2d_12">
      <g>
       <use xlink:href="#m31a20a6379" x="483.72087" y="489.1525" style="stroke: #000000; stroke-width: 0.8"/>
      </g>
     </g>
     <g id="text_6">
      <!-- 2 -->
      <g transform="translate(475.767745 515.148594) scale(0.25 -0.25)">
       <use xlink:href="#DejaVuSans-32"/>
      </g>
     </g>
    </g>
    <g id="xtick_7">
     <g id="line2d_13">
      <path d="M 550.82558 489.1525 
L 550.82558 37.512 
" clip-path="url(#p0fbb2628d0)" style="fill: none; stroke: #b0b0b0; stroke-width: 0.8; stroke-linecap: square"/>
     </g>
     <g id="line2d_14">
      <g>
       <use xlink:href="#m31a20a6379" x="550.82558" y="489.1525" style="stroke: #000000; stroke-width: 0.8"/>
      </g>
     </g>
     <g id="text_7">
      <!-- 4 -->
      <g transform="translate(542.872455 515.148594) scale(0.25 -0.25)">
       <use xlink:href="#DejaVuSans-34"/>
      </g>
     </g>
    </g>
    <g id="xtick_8">
     <g id="line2d_15">
      <path d="M 617.93029 489.1525 
L 617.93029 37.512 
" clip-path="url(#p0fbb2628d0)" style="fill: none; stroke: #b0b0b0; stroke-width: 0.8; stroke-linecap: square"/>
     </g>
     <g id="line2d_16">
      <g>
       <use xlink:href="#m31a20a6379" x="617.93029" y="489.1525" style="stroke: #000000; stroke-width: 0.8"/>
      </g>
     </g>
     <g id="text_8">
      <!-- 6 -->
      <g transform="translate(609.977165 515.148594) scale(0.25 -0.25)">
       <use xlink:href="#DejaVuSans-36"/>
      </g>
     </g>
    </g>
    <g id="xtick_9">
     <g id="line2d_17">
      <path d="M 685.035 489.1525 
L 685.035 37.512 
" clip-path="url(#p0fbb2628d0)" style="fill: none; stroke: #b0b0b0; stroke-width: 0.8; stroke-linecap: square"/>
     </g>
     <g id="line2d_18">
      <g>
       <use xlink:href="#m31a20a6379" x="685.035" y="489.1525" style="stroke: #000000; stroke-width: 0.8"/>
      </g>
     </g>
     <g id="text_9">
      <!-- 8 -->
      <g transform="translate(677.081875 515.148594) scale(0.25 -0.25)">
       <use xlink:href="#DejaVuSans-38"/>
      </g>
     </g>
    </g>
    <g id="text_10">
     <!-- $\omega$ [-] -->
     <g transform="translate(391.74116 541.351719) scale(0.25 -0.25)">
      <defs>
       <path id="DejaVuSans-Oblique-3c9" d="M 1369 -91 
Q 72 -91 434 1766 
Q 575 2500 1256 3500 
L 1875 3500 
Q 1231 2500 1088 1750 
Q 819 397 1519 397 
Q 2166 397 2478 2078 
L 3009 2078 
Q 2669 388 3316 397 
Q 4013 403 4275 1750 
Q 4419 2500 4169 3500 
L 4788 3500 
Q 5075 2500 4934 1766 
Q 4578 -94 3278 -91 
Q 2428 -88 2503 844 
Q 2194 -91 1369 -91 
z
" transform="scale(0.015625)"/>
       <path id="Calibri-20" transform="scale(0.015625)"/>
       <path id="Calibri-5b" d="M 1684 -813 
Q 1684 -916 1661 -958 
Q 1638 -1000 1594 -1000 
L 794 -1000 
Q 756 -1000 722 -989 
Q 688 -978 659 -953 
Q 631 -928 614 -886 
Q 597 -844 597 -781 
L 597 4153 
Q 597 4213 614 4255 
Q 631 4297 659 4323 
Q 688 4350 722 4361 
Q 756 4372 794 4372 
L 1594 4372 
Q 1613 4372 1630 4362 
Q 1647 4353 1659 4328 
Q 1672 4303 1678 4267 
Q 1684 4231 1684 4178 
Q 1684 4078 1661 4034 
Q 1638 3991 1594 3991 
L 1084 3991 
L 1084 -622 
L 1594 -622 
Q 1613 -622 1630 -631 
Q 1647 -641 1659 -664 
Q 1672 -688 1678 -723 
Q 1684 -759 1684 -813 
z
" transform="scale(0.015625)"/>
       <path id="Calibri-2d" d="M 1744 1578 
Q 1744 1456 1716 1409 
Q 1688 1363 1634 1363 
L 328 1363 
Q 272 1363 244 1411 
Q 216 1459 216 1578 
Q 216 1697 244 1744 
Q 272 1791 328 1791 
L 1634 1791 
Q 1659 1791 1679 1781 
Q 1700 1772 1714 1745 
Q 1728 1719 1736 1678 
Q 1744 1638 1744 1578 
z
" transform="scale(0.015625)"/>
       <path id="Calibri-5d" d="M 1369 -781 
Q 1369 -844 1351 -886 
Q 1334 -928 1306 -953 
Q 1278 -978 1242 -989 
Q 1206 -1000 1169 -1000 
L 372 -1000 
Q 328 -1000 304 -958 
Q 281 -916 281 -813 
Q 281 -759 286 -723 
Q 291 -688 303 -664 
Q 316 -641 333 -631 
Q 350 -622 372 -622 
L 881 -622 
L 881 3991 
L 372 3991 
Q 328 3991 304 4034 
Q 281 4078 281 4178 
Q 281 4231 286 4267 
Q 291 4303 303 4328 
Q 316 4353 333 4362 
Q 350 4372 372 4372 
L 1169 4372 
Q 1206 4372 1242 4361 
Q 1278 4350 1306 4323 
Q 1334 4297 1351 4255 
Q 1369 4213 1369 4153 
L 1369 -781 
z
" transform="scale(0.015625)"/>
      </defs>
      <use xlink:href="#DejaVuSans-Oblique-3c9" transform="translate(0 0.6875)"/>
      <use xlink:href="#Calibri-20" transform="translate(83.740234 0.6875)"/>
      <use xlink:href="#Calibri-5b" transform="translate(106.347656 0.6875)"/>
      <use xlink:href="#Calibri-2d" transform="translate(137.011719 0.6875)"/>
      <use xlink:href="#Calibri-5d" transform="translate(167.626953 0.6875)"/>
     </g>
    </g>
   </g>
   <g id="matplotlib.axis_2">
    <g id="ytick_1">
     <g id="line2d_19">
      <path d="M 148.197319 489.1525 
L 685.035 489.1525 
" clip-path="url(#p0fbb2628d0)" style="fill: none; stroke: #b0b0b0; stroke-width: 0.8; stroke-linecap: square"/>
     </g>
     <g id="line2d_20">
      <defs>
       <path id="m5641e60417" d="M 0 0 
L -3.5 0 
" style="stroke: #000000; stroke-width: 0.8"/>
      </defs>
      <g>
       <use xlink:href="#m5641e60417" x="148.197319" y="489.1525" style="stroke: #000000; stroke-width: 0.8"/>
      </g>
     </g>
     <g id="text_11">
      <!-- $\mathdefault{10^{-4}}$ -->
      <g transform="translate(82.447319 498.650547) scale(0.25 -0.25)">
       <defs>
        <path id="DejaVuSans-31" d="M 794 531 
L 1825 531 
L 1825 4091 
L 703 3866 
L 703 4441 
L 1819 4666 
L 2450 4666 
L 2450 531 
L 3481 531 
L 3481 0 
L 794 0 
L 794 531 
z
" transform="scale(0.015625)"/>
       </defs>
       <use xlink:href="#DejaVuSans-31" transform="translate(0 0.684375)"/>
       <use xlink:href="#DejaVuSans-30" transform="translate(63.623047 0.684375)"/>
       <use xlink:href="#DejaVuSans-2212" transform="translate(128.203125 38.965625) scale(0.7)"/>
       <use xlink:href="#DejaVuSans-34" transform="translate(186.855469 38.965625) scale(0.7)"/>
      </g>
     </g>
    </g>
    <g id="ytick_2">
     <g id="line2d_21">
      <path d="M 148.197319 398.8244 
L 685.035 398.8244 
" clip-path="url(#p0fbb2628d0)" style="fill: none; stroke: #b0b0b0; stroke-width: 0.8; stroke-linecap: square"/>
     </g>
     <g id="line2d_22">
      <g>
       <use xlink:href="#m5641e60417" x="148.197319" y="398.8244" style="stroke: #000000; stroke-width: 0.8"/>
      </g>
     </g>
     <g id="text_12">
      <!-- $\mathdefault{10^{-3}}$ -->
      <g transform="translate(82.447319 408.322447) scale(0.25 -0.25)">
       <defs>
        <path id="DejaVuSans-33" d="M 2597 2516 
Q 3050 2419 3304 2112 
Q 3559 1806 3559 1356 
Q 3559 666 3084 287 
Q 2609 -91 1734 -91 
Q 1441 -91 1130 -33 
Q 819 25 488 141 
L 488 750 
Q 750 597 1062 519 
Q 1375 441 1716 441 
Q 2309 441 2620 675 
Q 2931 909 2931 1356 
Q 2931 1769 2642 2001 
Q 2353 2234 1838 2234 
L 1294 2234 
L 1294 2753 
L 1863 2753 
Q 2328 2753 2575 2939 
Q 2822 3125 2822 3475 
Q 2822 3834 2567 4026 
Q 2313 4219 1838 4219 
Q 1578 4219 1281 4162 
Q 984 4106 628 3988 
L 628 4550 
Q 988 4650 1302 4700 
Q 1616 4750 1894 4750 
Q 2613 4750 3031 4423 
Q 3450 4097 3450 3541 
Q 3450 3153 3228 2886 
Q 3006 2619 2597 2516 
z
" transform="scale(0.015625)"/>
       </defs>
       <use xlink:href="#DejaVuSans-31" transform="translate(0 0.765625)"/>
       <use xlink:href="#DejaVuSans-30" transform="translate(63.623047 0.765625)"/>
       <use xlink:href="#DejaVuSans-2212" transform="translate(128.203125 39.046875) scale(0.7)"/>
       <use xlink:href="#DejaVuSans-33" transform="translate(186.855469 39.046875) scale(0.7)"/>
      </g>
     </g>
    </g>
    <g id="ytick_3">
     <g id="line2d_23">
      <path d="M 148.197319 308.4963 
L 685.035 308.4963 
" clip-path="url(#p0fbb2628d0)" style="fill: none; stroke: #b0b0b0; stroke-width: 0.8; stroke-linecap: square"/>
     </g>
     <g id="line2d_24">
      <g>
       <use xlink:href="#m5641e60417" x="148.197319" y="308.4963" style="stroke: #000000; stroke-width: 0.8"/>
      </g>
     </g>
     <g id="text_13">
      <!-- $\mathdefault{10^{-2}}$ -->
      <g transform="translate(82.447319 317.994347) scale(0.25 -0.25)">
       <use xlink:href="#DejaVuSans-31" transform="translate(0 0.765625)"/>
       <use xlink:href="#DejaVuSans-30" transform="translate(63.623047 0.765625)"/>
       <use xlink:href="#DejaVuSans-2212" transform="translate(128.203125 39.046875) scale(0.7)"/>
       <use xlink:href="#DejaVuSans-32" transform="translate(186.855469 39.046875) scale(0.7)"/>
      </g>
     </g>
    </g>
    <g id="ytick_4">
     <g id="line2d_25">
      <path d="M 148.197319 218.1682 
L 685.035 218.1682 
" clip-path="url(#p0fbb2628d0)" style="fill: none; stroke: #b0b0b0; stroke-width: 0.8; stroke-linecap: square"/>
     </g>
     <g id="line2d_26">
      <g>
       <use xlink:href="#m5641e60417" x="148.197319" y="218.1682" style="stroke: #000000; stroke-width: 0.8"/>
      </g>
     </g>
     <g id="text_14">
      <!-- $\mathdefault{10^{-1}}$ -->
      <g transform="translate(82.447319 227.666247) scale(0.25 -0.25)">
       <use xlink:href="#DejaVuSans-31" transform="translate(0 0.684375)"/>
       <use xlink:href="#DejaVuSans-30" transform="translate(63.623047 0.684375)"/>
       <use xlink:href="#DejaVuSans-2212" transform="translate(128.203125 38.965625) scale(0.7)"/>
       <use xlink:href="#DejaVuSans-31" transform="translate(186.855469 38.965625) scale(0.7)"/>
      </g>
     </g>
    </g>
    <g id="ytick_5">
     <g id="line2d_27">
      <path d="M 148.197319 127.8401 
L 685.035 127.8401 
" clip-path="url(#p0fbb2628d0)" style="fill: none; stroke: #b0b0b0; stroke-width: 0.8; stroke-linecap: square"/>
     </g>
     <g id="line2d_28">
      <g>
       <use xlink:href="#m5641e60417" x="148.197319" y="127.8401" style="stroke: #000000; stroke-width: 0.8"/>
      </g>
     </g>
     <g id="text_15">
      <!-- $\mathdefault{10^{0}}$ -->
      <g transform="translate(97.197319 137.338147) scale(0.25 -0.25)">
       <use xlink:href="#DejaVuSans-31" transform="translate(0 0.765625)"/>
       <use xlink:href="#DejaVuSans-30" transform="translate(63.623047 0.765625)"/>
       <use xlink:href="#DejaVuSans-30" transform="translate(128.203125 39.046875) scale(0.7)"/>
      </g>
     </g>
    </g>
    <g id="ytick_6">
     <g id="line2d_29">
      <path d="M 148.197319 37.512 
L 685.035 37.512 
" clip-path="url(#p0fbb2628d0)" style="fill: none; stroke: #b0b0b0; stroke-width: 0.8; stroke-linecap: square"/>
     </g>
     <g id="line2d_30">
      <g>
       <use xlink:href="#m5641e60417" x="148.197319" y="37.512" style="stroke: #000000; stroke-width: 0.8"/>
      </g>
     </g>
     <g id="text_16">
      <!-- $\mathdefault{10^{1}}$ -->
      <g transform="translate(97.197319 47.010047) scale(0.25 -0.25)">
       <use xlink:href="#DejaVuSans-31" transform="translate(0 0.684375)"/>
       <use xlink:href="#DejaVuSans-30" transform="translate(63.623047 0.684375)"/>
       <use xlink:href="#DejaVuSans-31" transform="translate(128.203125 38.965625) scale(0.7)"/>
      </g>
     </g>
    </g>
    <g id="ytick_7">
     <g id="line2d_31">
      <defs>
       <path id="maea817b866" d="M 0 0 
L -2 0 
" style="stroke: #000000; stroke-width: 0.6"/>
      </defs>
      <g>
       <use xlink:href="#maea817b866" x="148.197319" y="461.961032" style="stroke: #000000; stroke-width: 0.6"/>
      </g>
     </g>
    </g>
    <g id="ytick_8">
     <g id="line2d_32">
      <g>
       <use xlink:href="#maea817b866" x="148.197319" y="446.055044" style="stroke: #000000; stroke-width: 0.6"/>
      </g>
     </g>
    </g>
    <g id="ytick_9">
     <g id="line2d_33">
      <g>
       <use xlink:href="#maea817b866" x="148.197319" y="434.769565" style="stroke: #000000; stroke-width: 0.6"/>
      </g>
     </g>
    </g>
    <g id="ytick_10">
     <g id="line2d_34">
      <g>
       <use xlink:href="#maea817b866" x="148.197319" y="426.015868" style="stroke: #000000; stroke-width: 0.6"/>
      </g>
     </g>
    </g>
    <g id="ytick_11">
     <g id="line2d_35">
      <g>
       <use xlink:href="#maea817b866" x="148.197319" y="418.863576" style="stroke: #000000; stroke-width: 0.6"/>
      </g>
     </g>
    </g>
    <g id="ytick_12">
     <g id="line2d_36">
      <g>
       <use xlink:href="#maea817b866" x="148.197319" y="412.8164" style="stroke: #000000; stroke-width: 0.6"/>
      </g>
     </g>
    </g>
    <g id="ytick_13">
     <g id="line2d_37">
      <g>
       <use xlink:href="#maea817b866" x="148.197319" y="407.578097" style="stroke: #000000; stroke-width: 0.6"/>
      </g>
     </g>
    </g>
    <g id="ytick_14">
     <g id="line2d_38">
      <g>
       <use xlink:href="#maea817b866" x="148.197319" y="402.957587" style="stroke: #000000; stroke-width: 0.6"/>
      </g>
     </g>
    </g>
    <g id="ytick_15">
     <g id="line2d_39">
      <g>
       <use xlink:href="#maea817b866" x="148.197319" y="371.632932" style="stroke: #000000; stroke-width: 0.6"/>
      </g>
     </g>
    </g>
    <g id="ytick_16">
     <g id="line2d_40">
      <g>
       <use xlink:href="#maea817b866" x="148.197319" y="355.726944" style="stroke: #000000; stroke-width: 0.6"/>
      </g>
     </g>
    </g>
    <g id="ytick_17">
     <g id="line2d_41">
      <g>
       <use xlink:href="#maea817b866" x="148.197319" y="344.441465" style="stroke: #000000; stroke-width: 0.6"/>
      </g>
     </g>
    </g>
    <g id="ytick_18">
     <g id="line2d_42">
      <g>
       <use xlink:href="#maea817b866" x="148.197319" y="335.687768" style="stroke: #000000; stroke-width: 0.6"/>
      </g>
     </g>
    </g>
    <g id="ytick_19">
     <g id="line2d_43">
      <g>
       <use xlink:href="#maea817b866" x="148.197319" y="328.535476" style="stroke: #000000; stroke-width: 0.6"/>
      </g>
     </g>
    </g>
    <g id="ytick_20">
     <g id="line2d_44">
      <g>
       <use xlink:href="#maea817b866" x="148.197319" y="322.4883" style="stroke: #000000; stroke-width: 0.6"/>
      </g>
     </g>
    </g>
    <g id="ytick_21">
     <g id="line2d_45">
      <g>
       <use xlink:href="#maea817b866" x="148.197319" y="317.249997" style="stroke: #000000; stroke-width: 0.6"/>
      </g>
     </g>
    </g>
    <g id="ytick_22">
     <g id="line2d_46">
      <g>
       <use xlink:href="#maea817b866" x="148.197319" y="312.629487" style="stroke: #000000; stroke-width: 0.6"/>
      </g>
     </g>
    </g>
    <g id="ytick_23">
     <g id="line2d_47">
      <g>
       <use xlink:href="#maea817b866" x="148.197319" y="281.304832" style="stroke: #000000; stroke-width: 0.6"/>
      </g>
     </g>
    </g>
    <g id="ytick_24">
     <g id="line2d_48">
      <g>
       <use xlink:href="#maea817b866" x="148.197319" y="265.398844" style="stroke: #000000; stroke-width: 0.6"/>
      </g>
     </g>
    </g>
    <g id="ytick_25">
     <g id="line2d_49">
      <g>
       <use xlink:href="#maea817b866" x="148.197319" y="254.113365" style="stroke: #000000; stroke-width: 0.6"/>
      </g>
     </g>
    </g>
    <g id="ytick_26">
     <g id="line2d_50">
      <g>
       <use xlink:href="#maea817b866" x="148.197319" y="245.359668" style="stroke: #000000; stroke-width: 0.6"/>
      </g>
     </g>
    </g>
    <g id="ytick_27">
     <g id="line2d_51">
      <g>
       <use xlink:href="#maea817b866" x="148.197319" y="238.207376" style="stroke: #000000; stroke-width: 0.6"/>
      </g>
     </g>
    </g>
    <g id="ytick_28">
     <g id="line2d_52">
      <g>
       <use xlink:href="#maea817b866" x="148.197319" y="232.1602" style="stroke: #000000; stroke-width: 0.6"/>
      </g>
     </g>
    </g>
    <g id="ytick_29">
     <g id="line2d_53">
      <g>
       <use xlink:href="#maea817b866" x="148.197319" y="226.921897" style="stroke: #000000; stroke-width: 0.6"/>
      </g>
     </g>
    </g>
    <g id="ytick_30">
     <g id="line2d_54">
      <g>
       <use xlink:href="#maea817b866" x="148.197319" y="222.301387" style="stroke: #000000; stroke-width: 0.6"/>
      </g>
     </g>
    </g>
    <g id="ytick_31">
     <g id="line2d_55">
      <g>
       <use xlink:href="#maea817b866" x="148.197319" y="190.976732" style="stroke: #000000; stroke-width: 0.6"/>
      </g>
     </g>
    </g>
    <g id="ytick_32">
     <g id="line2d_56">
      <g>
       <use xlink:href="#maea817b866" x="148.197319" y="175.070744" style="stroke: #000000; stroke-width: 0.6"/>
      </g>
     </g>
    </g>
    <g id="ytick_33">
     <g id="line2d_57">
      <g>
       <use xlink:href="#maea817b866" x="148.197319" y="163.785265" style="stroke: #000000; stroke-width: 0.6"/>
      </g>
     </g>
    </g>
    <g id="ytick_34">
     <g id="line2d_58">
      <g>
       <use xlink:href="#maea817b866" x="148.197319" y="155.031568" style="stroke: #000000; stroke-width: 0.6"/>
      </g>
     </g>
    </g>
    <g id="ytick_35">
     <g id="line2d_59">
      <g>
       <use xlink:href="#maea817b866" x="148.197319" y="147.879276" style="stroke: #000000; stroke-width: 0.6"/>
      </g>
     </g>
    </g>
    <g id="ytick_36">
     <g id="line2d_60">
      <g>
       <use xlink:href="#maea817b866" x="148.197319" y="141.8321" style="stroke: #000000; stroke-width: 0.6"/>
      </g>
     </g>
    </g>
    <g id="ytick_37">
     <g id="line2d_61">
      <g>
       <use xlink:href="#maea817b866" x="148.197319" y="136.593797" style="stroke: #000000; stroke-width: 0.6"/>
      </g>
     </g>
    </g>
    <g id="ytick_38">
     <g id="line2d_62">
      <g>
       <use xlink:href="#maea817b866" x="148.197319" y="131.973287" style="stroke: #000000; stroke-width: 0.6"/>
      </g>
     </g>
    </g>
    <g id="ytick_39">
     <g id="line2d_63">
      <g>
       <use xlink:href="#maea817b866" x="148.197319" y="100.648632" style="stroke: #000000; stroke-width: 0.6"/>
      </g>
     </g>
    </g>
    <g id="ytick_40">
     <g id="line2d_64">
      <g>
       <use xlink:href="#maea817b866" x="148.197319" y="84.742644" style="stroke: #000000; stroke-width: 0.6"/>
      </g>
     </g>
    </g>
    <g id="ytick_41">
     <g id="line2d_65">
      <g>
       <use xlink:href="#maea817b866" x="148.197319" y="73.457165" style="stroke: #000000; stroke-width: 0.6"/>
      </g>
     </g>
    </g>
    <g id="ytick_42">
     <g id="line2d_66">
      <g>
       <use xlink:href="#maea817b866" x="148.197319" y="64.703468" style="stroke: #000000; stroke-width: 0.6"/>
      </g>
     </g>
    </g>
    <g id="ytick_43">
     <g id="line2d_67">
      <g>
       <use xlink:href="#maea817b866" x="148.197319" y="57.551176" style="stroke: #000000; stroke-width: 0.6"/>
      </g>
     </g>
    </g>
    <g id="ytick_44">
     <g id="line2d_68">
      <g>
       <use xlink:href="#maea817b866" x="148.197319" y="51.504" style="stroke: #000000; stroke-width: 0.6"/>
      </g>
     </g>
    </g>
    <g id="ytick_45">
     <g id="line2d_69">
      <g>
       <use xlink:href="#maea817b866" x="148.197319" y="46.265697" style="stroke: #000000; stroke-width: 0.6"/>
      </g>
     </g>
    </g>
    <g id="ytick_46">
     <g id="line2d_70">
      <g>
       <use xlink:href="#maea817b866" x="148.197319" y="41.645187" style="stroke: #000000; stroke-width: 0.6"/>
      </g>
     </g>
    </g>
    <g id="text_17">
     <!-- $\rho$($\omega$) -->
     <g transform="translate(26.447319 258.08225) scale(0.25 -0.25)">
      <defs>
       <path id="DejaVuSans-Oblique-3c1" d="M 1203 2875 
Q 1453 3194 1981 3475 
Q 2188 3584 2756 3584 
Q 3394 3584 3694 3078 
Q 3994 2572 3834 1747 
Q 3672 922 3175 415 
Q 2678 -91 2041 -91 
Q 1656 -91 1409 63 
Q 1163 213 1044 525 
L 681 -1331 
L 103 -1331 
L 697 1716 
Q 838 2438 1203 2875 
z
M 3238 1747 
Q 3359 2381 3169 2744 
Q 2978 3103 2522 3103 
Q 2066 3103 1734 2744 
Q 1403 2381 1281 1747 
Q 1156 1113 1347 750 
Q 1538 391 1994 391 
Q 2450 391 2781 750 
Q 3113 1113 3238 1747 
z
" transform="scale(0.015625)"/>
       <path id="Calibri-28" d="M 1547 4306 
Q 1250 3678 1104 3017 
Q 959 2356 959 1688 
Q 959 1016 1107 356 
Q 1256 -303 1541 -938 
Q 1556 -975 1557 -1001 
Q 1559 -1028 1537 -1045 
Q 1516 -1063 1470 -1070 
Q 1425 -1078 1347 -1078 
Q 1291 -1078 1250 -1075 
Q 1209 -1072 1179 -1062 
Q 1150 -1053 1131 -1040 
Q 1113 -1028 1103 -1013 
Q 934 -694 806 -367 
Q 678 -41 590 296 
Q 503 634 459 979 
Q 416 1325 416 1678 
Q 416 2031 464 2375 
Q 513 2719 602 3058 
Q 691 3397 819 3725 
Q 947 4053 1106 4375 
Q 1109 4388 1123 4397 
Q 1138 4406 1163 4415 
Q 1188 4425 1231 4429 
Q 1275 4434 1344 4434 
Q 1416 4434 1459 4425 
Q 1503 4416 1528 4400 
Q 1553 4384 1556 4359 
Q 1559 4334 1547 4306 
z
" transform="scale(0.015625)"/>
       <path id="Calibri-29" d="M 1522 1678 
Q 1522 1325 1478 979 
Q 1434 634 1346 296 
Q 1259 -41 1132 -367 
Q 1006 -694 838 -1013 
Q 828 -1028 809 -1040 
Q 791 -1053 761 -1062 
Q 731 -1072 690 -1075 
Q 650 -1078 594 -1078 
Q 513 -1078 467 -1070 
Q 422 -1063 401 -1045 
Q 381 -1028 382 -1001 
Q 384 -975 400 -938 
Q 688 -306 834 355 
Q 981 1016 981 1688 
Q 981 2356 834 3017 
Q 688 3678 394 4306 
Q 381 4334 384 4359 
Q 388 4384 413 4400 
Q 438 4416 481 4425 
Q 525 4434 597 4434 
Q 663 4434 706 4429 
Q 750 4425 776 4415 
Q 803 4406 815 4397 
Q 828 4388 834 4375 
Q 1156 3734 1339 3057 
Q 1522 2381 1522 1678 
z
" transform="scale(0.015625)"/>
      </defs>
      <use xlink:href="#DejaVuSans-Oblique-3c1" transform="translate(0 0.71875)"/>
      <use xlink:href="#Calibri-28" transform="translate(63.476562 0.71875)"/>
      <use xlink:href="#DejaVuSans-Oblique-3c9" transform="translate(93.798828 0.71875)"/>
      <use xlink:href="#Calibri-29" transform="translate(177.539062 0.71875)"/>
     </g>
    </g>
   </g>
   <g id="line2d_71">
    <path d="M 148.197319 401.924147 
L 162.070824 399.132831 
L 174.785118 396.349364 
L 186.443519 393.570767 
L 197.138607 390.794269 
L 206.953412 388.017365 
L 215.962453 385.23789 
L 224.232644 382.454102 
L 231.824111 379.66478 
L 238.790898 376.869349 
L 245.181596 374.068018 
L 251.039899 371.26195 
L 256.405095 368.453472 
L 261.312498 365.646306 
L 266.069582 362.665193 
L 270.413649 359.67495 
L 274.3723 356.682374 
L 277.970276 353.696937 
L 281.477244 350.494601 
L 284.654237 347.293614 
L 287.520515 344.110833 
L 290.324535 340.670667 
L 292.841352 337.250956 
L 295.308012 333.529631 
L 297.507747 329.836406 
L 299.667593 325.791055 
L 301.788274 321.323411 
L 303.663988 316.867119 
L 305.509062 311.910377 
L 307.323996 306.342413 
L 308.912368 300.762749 
L 310.477655 294.449485 
L 312.020193 287.222363 
L 313.351513 279.958854 
L 314.665888 271.587829 
L 315.963533 261.807147 
L 317.244661 250.197533 
L 318.329784 238.3513 
L 319.403058 224.241995 
L 320.464613 207.319179 
L 321.68845 183.942447 
L 322.725048 164.44275 
L 323.239094 158.587618 
L 323.409817 157.730752 
L 323.580227 157.508216 
L 323.750326 157.930675 
L 324.089592 160.596332 
L 324.596167 168.129469 
L 325.767418 191.761542 
L 327.087746 216.222229 
L 328.227283 232.880739 
L 329.192478 244.108821 
L 330.147132 253.025966 
L 331.091363 260.012038 
L 332.025282 265.359261 
L 332.949003 269.295368 
L 333.711061 271.62947 
L 334.466177 273.196478 
L 335.065316 273.947068 
L 335.5118 274.237855 
L 335.95584 274.308641 
L 336.397449 274.169979 
L 336.83664 273.831201 
L 337.41849 273.082142 
L 338.139838 271.690095 
L 338.854617 269.813696 
L 339.703762 266.944118 
L 340.68272 262.756514 
L 341.649217 257.650498 
L 342.738731 250.623761 
L 343.812411 242.183615 
L 344.870486 232.084972 
L 345.913185 219.942489 
L 346.940729 205.161447 
L 347.827573 189.366077 
L 348.703129 170.07279 
L 349.690127 143.29599 
L 350.541976 120.794083 
L 350.903727 116.037893 
L 351.02387 115.644611 
L 351.143793 115.902565 
L 351.382982 118.290962 
L 351.740129 125.611628 
L 352.682989 153.083767 
L 353.727337 180.887574 
L 354.754626 202.338785 
L 355.765134 218.934998 
L 356.759136 231.913242 
L 357.736901 241.970334 
L 358.592608 248.676252 
L 359.331144 252.746274 
L 359.852908 254.468575 
L 360.163682 254.939375 
L 360.369919 254.982634 
L 360.575403 254.783365 
L 360.882222 253.970315 
L 361.18736 252.442956 
L 361.591615 249.069875 
L 361.992921 243.853931 
L 362.490441 234.339636 
L 363.666078 208.933628 
L 363.762888 208.665807 
L 363.85952 208.951017 
L 364.052255 211.104117 
L 364.435615 219.979414 
L 365.662333 251.895756 
L 366.310884 262.4868 
L 366.95118 269.484704 
L 367.583327 274.06044 
L 368.207427 276.974547 
L 368.736044 278.512599 
L 369.258889 279.36956 
L 369.690228 279.658243 
L 370.03247 279.650282 
L 370.456763 279.376058 
L 370.960818 278.700125 
L 371.541929 277.483148 
L 372.197004 275.581039 
L 373.002477 272.497227 
L 373.871637 268.24528 
L 374.800069 262.589973 
L 375.783127 255.212167 
L 376.815975 245.64592 
L 377.822698 234.07266 
L 378.734697 221.036846 
L 379.625256 205.012975 
L 380.428716 186.42154 
L 381.149882 164.544875 
L 381.793008 138.524009 
L 382.611668 94.554531 
L 382.982993 80.340508 
L 383.044485 79.739568 
L 383.105864 79.78957 
L 383.228287 81.801312 
L 383.471792 91.796555 
L 385.011862 169.357553 
L 385.811275 195.127948 
L 386.754855 218.267036 
L 387.775282 237.888443 
L 388.913345 255.56826 
L 390.152186 271.451096 
L 391.520004 286.163185 
L 392.990696 299.600307 
L 394.537411 311.740999 
L 396.170797 322.834272 
L 397.821427 332.568191 
L 399.464803 340.981061 
L 401.050177 347.978491 
L 402.514837 353.477986 
L 403.818283 357.555468 
L 404.958658 360.433805 
L 405.919404 362.300953 
L 406.728861 363.428002 
L 407.40992 364.020999 
L 407.981089 364.238851 
L 408.487124 364.195863 
L 408.977495 363.920742 
L 409.490636 363.360413 
L 410.041888 362.411 
L 410.649576 360.888787 
L 411.299287 358.616434 
L 411.98116 355.366982 
L 412.677788 350.900959 
L 413.37222 344.931522 
L 414.040231 337.187475 
L 414.665725 327.236503 
L 415.223334 314.666416 
L 415.696795 298.748047 
L 416.074403 278.192154 
L 416.350791 250.271969 
L 416.525849 208.010104 
L 416.60521 125.240667 
L 416.615721 -1 
M 416.616598 -1 
L 416.730099 217.125578 
L 416.9705 261.595437 
L 417.327737 288.814913 
L 417.797483 308.393029 
L 418.366977 323.253622 
L 419.023447 334.815329 
L 419.743518 343.742789 
L 420.504402 350.526303 
L 421.276675 355.506852 
L 422.031226 359.007377 
L 422.748793 361.358441 
L 423.423037 362.858322 
L 424.034408 363.715914 
L 424.583195 364.131513 
L 425.094647 364.250302 
L 425.605969 364.135092 
L 426.165587 363.765215 
L 426.815885 363.044638 
L 427.57044 361.854187 
L 428.467249 359.993666 
L 429.508059 357.288477 
L 430.6917 353.566286 
L 432.040364 348.551703 
L 433.518251 342.152866 
L 435.070079 334.413225 
L 436.654074 325.365422 
L 438.215347 315.164989 
L 439.728466 303.828803 
L 441.167215 291.39304 
L 442.552743 277.422625 
L 443.816626 262.360963 
L 444.985921 245.646132 
L 446.043483 227.155598 
L 446.973349 206.866114 
L 447.818191 183.23659 
L 448.569382 155.397317 
L 449.278831 119.737047 
L 450.065188 80.488057 
L 450.187834 79.739568 
L 450.310931 81.563199 
L 450.55848 91.314742 
L 452.017594 162.247147 
L 452.803603 186.42154 
L 453.674818 206.377255 
L 454.636522 223.212729 
L 455.623182 236.745416 
L 456.708748 248.565949 
L 457.749184 257.627387 
L 458.816621 265.076798 
L 459.8326 270.674619 
L 460.792124 274.736012 
L 461.60798 277.274244 
L 462.271501 278.700125 
L 462.860104 279.45295 
L 463.285175 279.670761 
L 463.628043 279.628305 
L 463.973431 279.36956 
L 464.408735 278.698609 
L 464.848041 277.57311 
L 465.380542 275.480158 
L 465.918921 272.339072 
L 466.463245 267.775254 
L 467.013578 261.226551 
L 467.569987 251.895756 
L 468.226899 236.379059 
L 469.276344 209.777486 
L 469.469432 208.665807 
L 469.566241 208.933628 
L 469.760392 211.020919 
L 470.150832 219.48529 
L 471.139529 242.22442 
L 471.640704 249.069875 
L 472.146486 253.03899 
L 472.554456 254.584619 
L 472.8624 254.982634 
L 473.068637 254.939375 
L 473.379411 254.468575 
L 473.79644 253.176252 
L 474.322037 250.638265 
L 474.959134 246.407615 
L 475.71131 239.968202 
L 476.582821 230.624174 
L 477.578643 217.287156 
L 478.477693 202.338785 
L 479.390001 183.561769 
L 480.315764 159.835092 
L 481.849337 118.290962 
L 482.088526 115.902565 
L 482.20845 115.644611 
L 482.328592 116.037893 
L 482.569539 118.671922 
L 482.932616 126.242966 
L 485.656972 194.199098 
L 486.675157 211.062869 
L 487.708359 224.767591 
L 488.888934 237.361752 
L 490.089115 247.635021 
L 491.172664 255.16999 
L 492.272193 261.392841 
L 493.387937 266.401232 
L 494.377703 269.813696 
L 495.236223 272.0079 
L 495.958893 273.300465 
L 496.541809 273.965834 
L 497.129007 274.285207 
L 497.572235 274.285348 
L 498.017903 274.069145 
L 498.466025 273.625197 
L 499.06736 272.656793 
L 499.673113 271.226568 
L 500.436566 268.729171 
L 501.207037 265.359261 
L 501.98459 261.010217 
L 502.927094 254.315566 
L 503.880004 245.743991 
L 504.843434 234.931766 
L 505.8175 221.416558 
L 506.802321 204.712503 
L 509.312205 158.976748 
L 509.652092 157.508216 
L 509.822502 157.730752 
L 509.993225 158.587618 
L 510.335609 162.016301 
L 510.85154 170.296284 
L 513.651525 221.630714 
L 514.722836 236.171808 
L 515.987658 250.197533 
L 517.268787 261.807147 
L 518.566432 271.587829 
L 519.880806 279.958854 
L 521.403711 288.183327 
L 522.949075 295.284403 
L 524.517229 301.497177 
L 526.309062 307.639384 
L 528.130652 313.060324 
L 529.982491 317.897308 
L 532.076179 322.712971 
L 534.208535 327.04547 
L 536.380271 330.978586 
L 538.815535 334.921091 
L 541.300317 338.52675 
L 544.068647 342.138125 
L 546.898442 345.465924 
L 550.034998 348.800542 
L 553.247066 351.895835 
L 556.792752 355.001037 
L 560.693871 358.103544 
L 564.703559 361.007011 
L 569.10363 363.915474 
L 573.922045 366.821831 
L 578.892715 369.564394 
L 584.327081 372.313499 
L 590.260911 375.06516 
L 596.734 377.816756 
L 603.790605 380.566812 
L 611.479944 383.314808 
L 619.856757 386.061018 
L 628.981944 388.806368 
L 638.923286 391.552327 
L 649.330005 394.19694 
L 660.670094 396.853341 
L 673.031591 399.523092 
L 685.035 401.924147 
L 685.035 401.924147 
" clip-path="url(#p0fbb2628d0)" style="fill: none; stroke-dasharray: 14.8,6.4; stroke-dashoffset: 0; stroke: #ff0000; stroke-width: 4"/>
   </g>
   <g id="line2d_72">
    <path d="M 148.197319 355.301503 
L 150.642133 353.65805 
L 152.581941 352.109051 
L 154.507602 350.316718 
L 156.894941 347.784273 
L 163.464439 340.505164 
L 165.310731 338.884833 
L 166.686609 337.921817 
L 168.509401 336.948162 
L 171.218694 335.868051 
L 173.898401 334.7253 
L 176.109124 333.505047 
L 178.299711 332.002509 
L 181.333054 329.587384 
L 183.902315 327.241311 
L 186.02192 325.002359 
L 191.030539 319.4687 
L 192.265603 318.472065 
L 193.493904 317.709809 
L 194.715481 317.192187 
L 195.930369 316.891112 
L 201.512489 315.893092 
L 204.250375 314.957651 
L 205.799206 314.242 
L 206.953412 313.506786 
L 208.101299 312.529878 
L 209.242902 311.295136 
L 210.755321 309.33982 
L 213.74715 304.995436 
L 216.695498 300.742311 
L 217.790048 299.561817 
L 218.878605 298.812826 
L 219.961202 298.434126 
L 223.527235 297.616076 
L 224.935476 296.885202 
L 227.028603 295.727594 
L 228.06658 295.372321 
L 229.098874 295.235827 
L 230.80682 295.321639 
L 232.161969 295.305806 
L 233.171841 295.003943 
L 234.176184 294.354229 
L 235.175029 293.384753 
L 239.440545 288.695291 
L 241.695674 286.839283 
L 242.971408 286.03533 
L 243.9221 285.708906 
L 244.867586 285.633033 
L 247.053639 285.638072 
L 247.98198 285.420171 
L 249.211867 284.869181 
L 250.128392 284.24465 
L 251.039899 283.406331 
L 252.247484 281.929774 
L 253.446262 280.051543 
L 255.228055 276.697104 
L 259.884958 267.609492 
L 262.445162 262.970574 
L 263.289236 261.958215 
L 263.849383 261.648944 
L 264.407484 261.675843 
L 264.963546 262.016757 
L 265.793832 262.960187 
L 267.713531 265.485231 
L 268.528761 266.076401 
L 269.069766 266.229213 
L 269.608795 266.189271 
L 270.145855 265.955542 
L 270.680953 265.523355 
L 271.479937 264.500421 
L 272.274546 263.06534 
L 273.589239 260.065634 
L 275.925584 254.556147 
L 276.439567 253.746485 
L 276.951672 253.272446 
L 277.461906 253.169282 
L 277.970276 253.418856 
L 278.476789 253.96448 
L 279.233091 255.175451 
L 281.229715 258.756756 
L 281.72432 259.283829 
L 282.217119 259.554665 
L 282.708117 259.567847 
L 283.197321 259.345026 
L 283.684738 258.916221 
L 284.412527 257.944747 
L 285.376718 256.167624 
L 288.696344 249.426681 
L 289.629292 248.088935 
L 290.555436 247.124688 
L 291.703623 246.272181 
L 293.744069 244.852758 
L 294.863213 243.742891 
L 295.751185 242.533853 
L 297.942884 239.331938 
L 303.042179 232.988458 
L 303.8705 231.351691 
L 304.89741 228.687759 
L 306.722336 223.719857 
L 307.922362 221.206343 
L 309.502037 217.926269 
L 312.972874 210.023984 
L 314.292068 207.923394 
L 315.409434 206.499038 
L 316.331245 205.663387 
L 317.062646 205.261216 
L 317.788712 205.15087 
L 320.112055 205.131904 
L 320.640408 204.872504 
L 321.165867 204.343845 
L 321.68845 203.50218 
L 322.553071 201.573237 
L 323.239094 200.100129 
L 323.580227 199.665733 
L 323.920114 199.58648 
L 324.258759 199.963393 
L 324.596167 200.881181 
L 324.932343 202.407212 
L 325.434304 205.914394 
L 326.099314 212.747048 
L 327.087746 225.951703 
L 328.388885 242.85199 
L 329.192478 250.37232 
L 329.830078 254.377374 
L 330.305225 256.335596 
L 330.77777 257.525612 
L 331.247729 258.053028 
L 331.559604 258.08393 
L 331.87034 257.887785 
L 332.334317 257.215052 
L 332.949003 255.723836 
L 333.862637 252.675097 
L 335.065316 247.804566 
L 336.103312 242.579322 
L 336.982502 236.894838 
L 337.852091 229.542128 
L 339.138702 216.122224 
L 342.195968 184.283523 
L 342.738731 180.782308 
L 343.143204 179.448476 
L 343.411622 179.130874 
L 343.679059 179.199739 
L 343.945519 179.619967 
L 344.343385 180.903463 
L 344.870486 183.779032 
L 345.913185 191.505745 
L 346.813108 197.329099 
L 347.575348 200.726168 
L 348.204185 202.561493 
L 348.703129 203.420394 
L 349.198434 203.858105 
L 349.690127 203.959366 
L 350.056542 203.826856 
L 350.42095 203.502071 
L 350.903727 202.729892 
L 351.502249 201.222849 
L 352.448566 198.749771 
L 352.799879 198.379187 
L 353.033018 198.392034 
L 353.381131 198.750267 
L 353.842318 199.677282 
L 354.414075 201.319864 
L 355.093313 203.927154 
L 355.765134 207.434685 
L 356.42962 212.224793 
L 357.304326 220.316961 
L 358.273185 231.418984 
L 360.472755 257.512787 
L 360.882222 259.81559 
L 361.085834 260.208537 
L 361.18736 260.20053 
L 361.389858 259.768285 
L 361.692217 258.092303 
L 362.09279 254.091747 
L 362.688178 245.231867 
L 363.762888 228.518621 
L 364.052255 226.952251 
L 364.148358 227.001166 
L 364.340038 228.072259 
L 364.626246 232.073065 
L 365.099781 243.051388 
L 366.03395 264.533674 
L 366.586301 272.266194 
L 367.041983 275.981555 
L 367.493515 277.899556 
L 367.851778 278.539025 
L 368.118759 278.674896 
L 368.384278 278.596846 
L 368.648344 278.302538 
L 368.998184 277.513666 
L 369.518166 275.621744 
L 370.541157 271.868061 
L 371.870665 267.736191 
L 372.35928 265.048461 
L 373.082216 259.402633 
L 373.793343 252.186315 
L 374.723476 240.004238 
L 375.633405 225.3365 
L 376.743075 203.568777 
L 378.105627 176.031405 
L 378.456389 172.972511 
L 378.734697 172.045345 
L 378.873089 172.028723 
L 379.079729 172.461032 
L 379.421619 174.011679 
L 381.983662 188.687057 
L 382.236244 189.045788 
L 382.424471 188.96659 
L 382.735896 188.429134 
L 383.105864 187.868461 
L 383.289331 187.921012 
L 383.532391 188.424458 
L 383.953488 189.965894 
L 384.60441 193.352475 
L 385.528118 197.807985 
L 385.867596 198.39939 
L 386.091852 198.43942 
L 386.314472 198.170272 
L 386.645363 197.205876 
L 387.080936 195.145695 
L 388.246398 187.439666 
L 388.913345 181.713291 
L 390.055151 176.308915 
L 390.345194 172.85775 
L 391.242932 159.241024 
L 391.289322 159.27481 
L 391.427984 160.205745 
L 392.288721 169.606683 
L 392.466146 169.706793 
L 392.642278 169.517427 
L 393.033891 168.75948 
L 393.077007 168.797843 
L 393.205882 169.336184 
L 393.376618 171.451193 
L 393.672416 178.793374 
L 394.211803 198.542756 
L 395.213702 234.059531 
L 395.982865 251.025923 
L 396.282734 253.478018 
L 396.869461 256.73453 
L 397.262986 260.781373 
L 397.717961 269.381614 
L 399.243683 300.988907 
L 399.464803 302.122557 
L 399.652094 303.063292 
L 400.141597 306.101763 
L 400.381026 306.426187 
L 400.499433 307.453664 
L 400.762699 312.83685 
L 401.800596 333.217585 
L 402.592041 342.133895 
L 403.12076 345.759815 
L 403.534135 349.206071 
L 404.435254 355.025952 
L 405.315737 359.241092 
L 406.453697 363.163256 
L 407.101619 364.532377 
L 407.659193 365.285252 
L 408.012635 365.455517 
L 408.442373 365.382879 
L 408.764911 365.082342 
L 408.991461 365.046944 
L 409.568446 363.318167 
L 409.721526 361.792551 
L 409.908208 358.974877 
L 409.969305 359.336611 
L 410.196443 361.029084 
L 410.231591 360.961424 
L 410.370267 360.128193 
L 410.874521 354.904436 
L 410.916396 355.080496 
L 411.019752 356.087436 
L 411.070725 355.547173 
L 411.220876 349.863153 
L 411.366962 348.537996 
L 411.414772 348.627183 
L 411.490366 349.700198 
L 411.674577 352.444435 
L 411.701632 352.380748 
L 411.764185 351.365682 
L 411.87825 347.055307 
L 411.955644 348.264129 
L 412.006536 348.673381 
L 412.056873 348.300123 
L 412.139548 347.412353 
L 412.196528 347.816116 
L 412.228761 347.987318 
L 412.268722 347.490854 
L 412.394169 341.513192 
L 412.590346 335.611531 
L 412.763332 332.960368 
L 412.853908 330.315119 
L 412.922131 331.492506 
L 412.935626 331.439951 
L 412.989116 329.016213 
L 413.182872 322.730305 
L 413.269715 319.918348 
L 413.505923 310.859857 
L 413.59567 308.294924 
L 413.623181 307.444327 
L 413.68819 309.029403 
L 413.698887 308.986061 
L 413.783065 307.016176 
L 413.834439 308.544098 
L 413.849669 308.823026 
L 413.889875 307.053921 
L 414.208872 289.412765 
L 413.978215 307.272133 
L 414.235159 291.863728 
L 414.265465 294.074374 
L 414.324925 289.861908 
L 414.447322 280.476487 
L 414.490544 282.089146 
L 414.536713 278.149322 
L 414.58188 283.144424 
L 414.68349 286.805222 
L 414.704595 284.784172 
L 414.773293 270.256167 
L 414.826469 282.021297 
L 414.865342 287.959838 
L 414.912748 276.0867 
L 414.949747 267.911018 
L 415.015504 279.512819 
L 415.032983 278.785457 
L 415.347444 242.841502 
L 415.430505 247.769749 
L 415.432672 247.768592 
L 415.434836 247.852436 
L 415.526227 262.644223 
L 415.483526 247.301967 
L 415.57115 250.041503 
L 415.657274 219.800229 
L 415.724956 232.363883 
L 415.884779 246.584529 
L 415.896726 245.435878 
L 415.921311 226.343375 
L 415.951168 250.565688 
L 415.983226 248.703281 
L 415.99584 257.443708 
L 416.067419 214.942078 
L 416.07737 221.69317 
L 416.12448 269.764238 
L 416.212655 263.725829 
L 416.293393 249.728808 
L 416.241136 282.542478 
L 416.313971 275.225934 
L 416.318363 276.925218 
L 416.340394 227.21828 
L 416.352244 229.083089 
L 416.441956 210.173604 
L 416.409258 281.933432 
L 416.458636 245.04106 
L 416.55611 306.34105 
L 416.498405 216.069375 
L 416.568301 237.530439 
L 416.569852 191.392641 
L 416.616119 577 
M 416.6162 577 
L 416.666167 170.205132 
L 416.727624 181.60009 
L 416.730936 184.135952 
L 416.749519 136.464804 
L 416.802648 -1 
M 416.816329 -1 
L 416.937747 186.695166 
L 416.948516 182.631074 
L 417.005163 132.981601 
L 417.055906 185.986587 
L 417.133689 160.555313 
L 417.184315 224.052796 
L 417.195868 226.185558 
L 417.227464 200.489235 
L 417.272687 179.700002 
L 417.338231 200.736616 
L 417.370651 217.346166 
L 417.449018 200.648494 
L 417.464399 191.439429 
L 417.504107 204.789816 
L 417.56111 199.082842 
L 417.562841 199.093536 
L 417.566312 198.562206 
L 417.58209 193.267203 
L 417.634736 210.577117 
L 417.744656 215.076721 
L 417.680469 206.902937 
L 417.757115 212.908693 
L 417.791015 208.979261 
L 417.828139 224.357025 
L 417.898882 244.627016 
L 417.954024 229.799888 
L 417.966321 228.184036 
L 418.024362 239.143942 
L 418.037306 240.025168 
L 418.087588 234.909052 
L 418.090284 234.862123 
L 418.109288 236.242789 
L 418.159291 238.776794 
L 418.196442 233.108053 
L 418.205141 232.641381 
L 418.237451 240.078858 
L 418.402578 256.125344 
L 418.415702 255.801611 
L 418.493061 245.794097 
L 418.563028 253.010606 
L 419.117759 284.477718 
L 419.145378 282.329714 
L 419.201533 276.005571 
L 419.254104 282.595749 
L 419.317613 287.355421 
L 419.387718 285.582774 
L 419.459642 281.823602 
L 419.501576 284.850357 
L 419.703713 297.001219 
L 420.005747 309.883073 
L 420.04317 310.367762 
L 420.09371 309.524705 
L 420.10008 309.499791 
L 420.119259 309.703416 
L 420.21675 314.36748 
L 420.310188 318.884602 
L 420.371532 318.008721 
L 420.412993 317.463527 
L 420.454912 318.319126 
L 420.876959 328.781086 
L 420.939795 329.446811 
L 421.302332 337.602828 
L 421.328129 337.400223 
L 421.423942 334.864069 
L 421.477022 336.45365 
L 421.741954 344.617094 
L 421.962302 346.570266 
L 422.212567 350.325275 
L 422.357798 351.677753 
L 422.615589 354.127383 
L 422.737581 354.052677 
L 422.862052 353.29727 
L 422.942576 352.971651 
L 422.989055 353.072623 
L 423.118641 353.543631 
L 423.178411 353.445626 
L 423.226623 353.398236 
L 423.250861 353.472785 
L 423.993794 357.961101 
L 424.061608 357.879973 
L 424.102596 357.896953 
L 424.116308 357.933088 
L 424.353304 359.276964 
L 425.079145 363.046332 
L 425.267047 363.162809 
L 425.45912 363.274888 
L 425.638932 363.539799 
L 425.890036 363.763469 
L 426.218158 363.781432 
L 426.557889 363.460258 
L 427.004257 362.712924 
L 427.610606 361.185488 
L 428.467249 358.327928 
L 429.067514 355.353244 
L 429.531673 352.507736 
L 431.03057 341.21323 
L 431.35061 338.706372 
L 431.705343 334.112051 
L 432.267834 322.294961 
L 432.940669 307.511468 
L 433.030536 307.777176 
L 433.364303 309.307973 
L 433.39498 309.292621 
L 433.487349 309.031979 
L 433.673614 307.502262 
L 434.116269 300.971867 
L 434.537585 291.38746 
L 435.070079 275.211562 
L 435.583652 260.033405 
L 435.93395 256.612211 
L 436.111518 256.250322 
L 436.326755 256.439457 
L 436.471565 256.880854 
L 436.986829 258.99228 
L 437.098971 258.902538 
L 437.249454 258.173763 
L 437.515465 255.281975 
L 438.374032 242.930596 
L 438.775864 234.941197 
L 439.601928 211.245495 
L 440.198428 196.423317 
L 440.590042 191.665951 
L 441.529283 182.76334 
L 442.647844 166.474363 
L 442.695525 166.52512 
L 442.839094 167.142354 
L 443.667706 172.046844 
L 443.966366 172.35311 
L 444.167303 172.67633 
L 444.369716 173.548086 
L 444.676127 175.998081 
L 446.151383 190.225333 
L 446.53216 192.016098 
L 446.807146 192.488807 
L 447.028953 192.469854 
L 447.590627 192.072724 
L 447.875342 191.474006 
L 449.040615 188.46802 
L 450.004032 186.211929 
L 450.620651 184.390261 
L 450.870475 184.244892 
L 451.185339 184.439362 
L 451.503096 184.550679 
L 451.695151 184.338929 
L 451.952869 183.599635 
L 453.069465 178.8386 
L 454.015459 173.687556 
L 454.91585 167.98894 
L 455.056283 167.846978 
L 455.19723 167.978033 
L 455.409621 168.67871 
L 455.694629 170.566283 
L 456.053836 174.527181 
L 456.489245 181.82662 
L 457.598914 206.981261 
L 458.66245 227.616081 
L 459.595993 241.571539 
L 460.309728 249.565139 
L 461.525721 259.635723 
L 462.188029 263.326119 
L 464.321355 273.18951 
L 464.759858 274.105577 
L 465.202391 274.581707 
L 465.469861 274.645811 
L 465.738804 274.446868 
L 466.009227 273.871562 
L 466.281139 272.778326 
L 466.646018 270.240434 
L 467.013578 266.142828 
L 467.476827 258.433004 
L 468.132539 243.216377 
L 468.796704 228.815683 
L 469.083961 225.915868 
L 469.276344 225.53683 
L 469.469432 226.3404 
L 469.760392 229.342935 
L 470.347127 238.877225 
L 471.239398 253.27133 
L 471.741491 258.179041 
L 472.044959 259.568959 
L 472.248199 259.808267 
L 472.452183 259.506374 
L 472.759564 258.106177 
L 473.172039 254.762587 
L 474.006102 245.347037 
L 475.819552 225.121744 
L 476.912941 214.615187 
L 477.690306 209.099755 
L 478.477693 205.193048 
L 479.160671 202.797098 
L 479.735575 201.595652 
L 480.083051 201.253514 
L 480.43244 201.222661 
L 480.783753 201.471577 
L 481.373577 202.261399 
L 482.690343 204.199193 
L 483.175778 204.465204 
L 483.542192 204.408505 
L 483.910624 204.113535 
L 484.405024 203.344945 
L 484.903055 202.155212 
L 485.530743 200.053897 
L 486.164201 197.164227 
L 487.189867 191.149242 
L 489.820698 175.187277 
L 490.223693 174.066982 
L 490.493588 173.844003 
L 490.764473 174.092498 
L 491.036351 174.831994 
L 491.446039 176.826396 
L 491.9958 180.8717 
L 492.828023 188.862215 
L 494.949002 212.20654 
L 496.249817 225.604159 
L 497.276479 233.869612 
L 498.167004 239.390993 
L 499.218383 244.421782 
L 500.436566 249.23644 
L 501.207037 251.560183 
L 501.82851 252.73186 
L 502.140957 253.014489 
L 502.454549 253.054092 
L 502.769291 252.815088 
L 503.085187 252.258853 
L 503.561204 250.7442 
L 504.039842 248.308299 
L 504.682127 243.502413 
L 505.491622 235.101986 
L 507.133005 214.170741 
L 507.965029 204.955017 
L 508.636152 199.780056 
L 509.142727 197.502784 
L 509.481993 196.703185 
L 509.822502 196.367373 
L 510.16426 196.373564 
L 510.679248 196.781357 
L 511.543869 197.915122 
L 512.591911 199.209462 
L 513.120264 199.574536 
L 513.651525 199.670816 
L 514.18571 199.502424 
L 514.902535 198.96873 
L 515.987658 198.080994 
L 516.534704 197.863774 
L 517.268787 197.825413 
L 518.193978 198.018155 
L 518.940251 198.392783 
L 519.692006 199.072612 
L 520.449284 200.144827 
L 521.403711 202.009952 
L 523.730282 206.865143 
L 524.714867 209.049842 
L 525.708502 211.937273 
L 529.568331 224.287599 
L 530.606579 226.38054 
L 532.499534 229.452887 
L 542.216347 244.244274 
L 543.139108 245.174038 
L 545.240181 247.03873 
L 546.185157 248.401783 
L 549.061944 253.018378 
L 549.791066 253.689104 
L 550.279376 253.937952 
L 550.769477 253.998687 
L 551.261374 253.852596 
L 551.755075 253.490179 
L 552.499023 252.553074 
L 553.748048 250.322628 
L 554.75553 248.746422 
L 555.262043 248.27999 
L 555.770413 248.103502 
L 556.280647 248.234589 
L 556.792752 248.659944 
L 557.564433 249.75929 
L 558.599953 251.78884 
L 562.284551 259.60328 
L 563.086464 260.816884 
L 563.623524 261.378299 
L 564.162553 261.701084 
L 564.703559 261.776031 
L 565.246548 261.617996 
L 566.064767 261.020174 
L 568.54655 258.589687 
L 569.10363 258.432794 
L 569.662753 258.555338 
L 570.223926 258.975963 
L 570.787157 259.678998 
L 571.635878 261.153091 
L 573.63444 265.399449 
L 578.596022 275.646681 
L 579.786057 277.697115 
L 580.684317 278.907617 
L 581.587522 279.82925 
L 582.4957 280.500435 
L 583.714385 281.092673 
L 584.942023 281.441808 
L 586.489262 281.656172 
L 589.626537 281.815043 
L 590.260911 282.129928 
L 591.216836 282.943115 
L 592.499593 284.472644 
L 594.767137 287.207928 
L 598.38963 291.051413 
L 599.390304 291.751392 
L 600.060478 292.019203 
L 600.73311 292.122849 
L 601.746685 292.02007 
L 604.821011 291.31167 
L 605.85709 291.411272 
L 606.898873 291.778863 
L 608.296843 292.591665 
L 612.194447 295.068022 
L 614.353714 296.49609 
L 616.171304 297.983679 
L 618.374477 300.042137 
L 620.601975 302.432278 
L 626.278907 308.952638 
L 627.819258 310.2125 
L 629.370927 311.186695 
L 631.71983 312.396484 
L 633.300155 313.017457 
L 634.892091 313.41805 
L 637.30195 313.942562 
L 638.516838 314.442912 
L 639.738415 315.21749 
L 641.377651 316.621874 
L 643.443642 318.773807 
L 649.330005 325.362237 
L 651.899265 327.687164 
L 657.563723 332.53547 
L 658.890154 333.356557 
L 660.670094 334.151976 
L 666.088761 336.104419 
L 667.462123 336.983725 
L 668.843045 338.132969 
L 671.161496 340.443263 
L 676.8131 346.226687 
L 681.618507 350.804827 
L 685.035 354.173966 
L 685.035 354.173966 
" clip-path="url(#p0fbb2628d0)" style="fill: none; stroke: #0000ff; stroke-width: 1.5; stroke-linecap: square"/>
   </g>
   <g id="patch_3">
    <path d="M 148.197319 489.1525 
L 148.197319 37.512 
" style="fill: none; stroke: #000000; stroke-width: 0.8; stroke-linejoin: miter; stroke-linecap: square"/>
   </g>
   <g id="patch_4">
    <path d="M 685.035 489.1525 
L 685.035 37.512 
" style="fill: none; stroke: #000000; stroke-width: 0.8; stroke-linejoin: miter; stroke-linecap: square"/>
   </g>
   <g id="patch_5">
    <path d="M 148.197319 489.1525 
L 685.035 489.1525 
" style="fill: none; stroke: #000000; stroke-width: 0.8; stroke-linejoin: miter; stroke-linecap: square"/>
   </g>
   <g id="patch_6">
    <path d="M 148.197319 37.512 
L 685.035 37.512 
" style="fill: none; stroke: #000000; stroke-width: 0.8; stroke-linejoin: miter; stroke-linecap: square"/>
   </g>
   <g id="legend_1">
    <g id="patch_7">
     <path d="M 554.985 101.052156 
L 676.535 101.052156 
L 676.535 46.012 
L 554.985 46.012 
z
" style="fill: #ffffff; opacity: 0.8; stroke: #000000; stroke-linejoin: miter"/>
    </g>
    <g id="line2d_73">
     <path d="M 561.785 59.779344 
L 578.785 59.779344 
L 595.785 59.779344 
" style="fill: none; stroke-dasharray: 14.8,6.4; stroke-dashoffset: 0; stroke: #ff0000; stroke-width: 4"/>
    </g>
    <g id="text_18">
     <!-- $\rho_0$ -->
     <g transform="translate(609.385 65.729344) scale(0.17 -0.17)">
      <use xlink:href="#DejaVuSans-Oblique-3c1"/>
      <use xlink:href="#DejaVuSans-30" transform="translate(63.476562 -16.40625) scale(0.7)"/>
     </g>
    </g>
    <g id="line2d_74">
     <path d="M 561.785 84.766687 
L 578.785 84.766687 
L 595.785 84.766687 
" style="fill: none; stroke: #0000ff; stroke-width: 1.5; stroke-linecap: square"/>
    </g>
    <g id="text_19">
     <!-- $\it{U=6.0}$ -->
     <g transform="translate(609.385 90.716687) scale(0.17 -0.17)">
      <defs>
       <path id="DejaVuSans-Oblique-55" d="M 991 4666 
L 1625 4666 
L 1075 1831 
Q 1041 1641 1027 1517 
Q 1013 1394 1013 1300 
Q 1013 869 1253 645 
Q 1494 422 1959 422 
Q 2563 422 2898 753 
Q 3234 1084 3378 1831 
L 3928 4666 
L 4563 4666 
L 4000 1753 
Q 3816 809 3300 359 
Q 2784 -91 1888 -91 
Q 1188 -91 780 261 
Q 372 613 372 1216 
Q 372 1325 387 1461 
Q 403 1597 434 1753 
L 991 4666 
z
" transform="scale(0.015625)"/>
       <path id="DejaVuSans-3d" d="M 678 2906 
L 4684 2906 
L 4684 2381 
L 678 2381 
L 678 2906 
z
M 678 1631 
L 4684 1631 
L 4684 1100 
L 678 1100 
L 678 1631 
z
" transform="scale(0.015625)"/>
       <path id="DejaVuSans-2e" d="M 684 794 
L 1344 794 
L 1344 0 
L 684 0 
L 684 794 
z
" transform="scale(0.015625)"/>
      </defs>
      <use xlink:href="#DejaVuSans-Oblique-55" transform="translate(0 0.78125)"/>
      <use xlink:href="#DejaVuSans-3d" transform="translate(92.675781 0.78125)"/>
      <use xlink:href="#DejaVuSans-36" transform="translate(195.947266 0.78125)"/>
      <use xlink:href="#DejaVuSans-2e" transform="translate(259.570312 0.78125)"/>
      <use xlink:href="#DejaVuSans-30" transform="translate(291.357422 0.78125)"/>
     </g>
    </g>
   </g>
  </g>
 </g>
 <defs>
  <clipPath id="p0fbb2628d0">
   <rect x="148.197319" y="37.512" width="536.837681" height="451.6405"/>
  </clipPath>
 </defs>
</svg>
