<?xml version="1.0" encoding="utf-8" standalone="no"?>
<!DOCTYPE svg PUBLIC "-//W3C//DTD SVG 1.1//EN"
  "http://www.w3.org/Graphics/SVG/1.1/DTD/svg11.dtd">
<svg xmlns:xlink="http://www.w3.org/1999/xlink" width="460.8pt" height="345.6pt" viewBox="0 0 460.8 345.6" xmlns="http://www.w3.org/2000/svg" version="1.1">
 <metadata>
  <rdf:RDF xmlns:dc="http://purl.org/dc/elements/1.1/" xmlns:cc="http://creativecommons.org/ns#" xmlns:rdf="http://www.w3.org/1999/02/22-rdf-syntax-ns#">
   <cc:Work>
    <dc:type rdf:resource="http://purl.org/dc/dcmitype/StillImage"/>
    <dc:date>2023-04-21T19:42:47.284842</dc:date>
    <dc:format>image/svg+xml</dc:format>
    <dc:creator>
     <cc:Agent>
      <dc:title>Matplotlib v3.7.1, https://matplotlib.org/</dc:title>
     </cc:Agent>
    </dc:creator>
   </cc:Work>
  </rdf:RDF>
 </metadata>
 <defs>
  <style type="text/css">*{stroke-linejoin: round; stroke-linecap: butt}</style>
 </defs>
 <g id="figure_1">
  <g id="patch_1">
   <path d="M 0 345.6 
L 460.8 345.6 
L 460.8 0 
L 0 0 
z
" style="fill: #ffffff"/>
  </g>
  <g id="axes_1">
   <g id="patch_2">
    <path d="M 148.197319 258.7525 
L 425.835 258.7525 
L 425.835 27 
L 148.197319 27 
z
" style="fill: #ffffff"/>
   </g>
   <g id="matplotlib.axis_1">
    <g id="xtick_1">
     <g id="line2d_1">
      <path d="M 148.197319 258.7525 
L 148.197319 27 
" clip-path="url(#pc274199dbf)" style="fill: none; stroke: #b0b0b0; stroke-width: 0.8; stroke-linecap: square"/>
     </g>
     <g id="line2d_2">
      <defs>
       <path id="m4be5a905b1" d="M 0 0 
L 0 3.5 
" style="stroke: #000000; stroke-width: 0.8"/>
      </defs>
      <g>
       <use xlink:href="#m4be5a905b1" x="148.197319" y="258.7525" style="stroke: #000000; stroke-width: 0.8"/>
      </g>
     </g>
     <g id="text_1">
      <!-- −8 -->
      <g transform="translate(129.769585 284.748594) scale(0.25 -0.25)">
       <defs>
        <path id="DejaVuSans-2212" d="M 678 2272 
L 4684 2272 
L 4684 1741 
L 678 1741 
L 678 2272 
z
" transform="scale(0.015625)"/>
        <path id="DejaVuSans-38" d="M 2034 2216 
Q 1584 2216 1326 1975 
Q 1069 1734 1069 1313 
Q 1069 891 1326 650 
Q 1584 409 2034 409 
Q 2484 409 2743 651 
Q 3003 894 3003 1313 
Q 3003 1734 2745 1975 
Q 2488 2216 2034 2216 
z
M 1403 2484 
Q 997 2584 770 2862 
Q 544 3141 544 3541 
Q 544 4100 942 4425 
Q 1341 4750 2034 4750 
Q 2731 4750 3128 4425 
Q 3525 4100 3525 3541 
Q 3525 3141 3298 2862 
Q 3072 2584 2669 2484 
Q 3125 2378 3379 2068 
Q 3634 1759 3634 1313 
Q 3634 634 3220 271 
Q 2806 -91 2034 -91 
Q 1263 -91 848 271 
Q 434 634 434 1313 
Q 434 1759 690 2068 
Q 947 2378 1403 2484 
z
M 1172 3481 
Q 1172 3119 1398 2916 
Q 1625 2713 2034 2713 
Q 2441 2713 2670 2916 
Q 2900 3119 2900 3481 
Q 2900 3844 2670 4047 
Q 2441 4250 2034 4250 
Q 1625 4250 1398 4047 
Q 1172 3844 1172 3481 
z
" transform="scale(0.015625)"/>
       </defs>
       <use xlink:href="#DejaVuSans-2212"/>
       <use xlink:href="#DejaVuSans-38" x="83.789062"/>
      </g>
     </g>
    </g>
    <g id="xtick_2">
     <g id="line2d_3">
      <path d="M 182.902029 258.7525 
L 182.902029 27 
" clip-path="url(#pc274199dbf)" style="fill: none; stroke: #b0b0b0; stroke-width: 0.8; stroke-linecap: square"/>
     </g>
     <g id="line2d_4">
      <g>
       <use xlink:href="#m4be5a905b1" x="182.902029" y="258.7525" style="stroke: #000000; stroke-width: 0.8"/>
      </g>
     </g>
     <g id="text_2">
      <!-- −6 -->
      <g transform="translate(164.474295 284.748594) scale(0.25 -0.25)">
       <defs>
        <path id="DejaVuSans-36" d="M 2113 2584 
Q 1688 2584 1439 2293 
Q 1191 2003 1191 1497 
Q 1191 994 1439 701 
Q 1688 409 2113 409 
Q 2538 409 2786 701 
Q 3034 994 3034 1497 
Q 3034 2003 2786 2293 
Q 2538 2584 2113 2584 
z
M 3366 4563 
L 3366 3988 
Q 3128 4100 2886 4159 
Q 2644 4219 2406 4219 
Q 1781 4219 1451 3797 
Q 1122 3375 1075 2522 
Q 1259 2794 1537 2939 
Q 1816 3084 2150 3084 
Q 2853 3084 3261 2657 
Q 3669 2231 3669 1497 
Q 3669 778 3244 343 
Q 2819 -91 2113 -91 
Q 1303 -91 875 529 
Q 447 1150 447 2328 
Q 447 3434 972 4092 
Q 1497 4750 2381 4750 
Q 2619 4750 2861 4703 
Q 3103 4656 3366 4563 
z
" transform="scale(0.015625)"/>
       </defs>
       <use xlink:href="#DejaVuSans-2212"/>
       <use xlink:href="#DejaVuSans-36" x="83.789062"/>
      </g>
     </g>
    </g>
    <g id="xtick_3">
     <g id="line2d_5">
      <path d="M 217.606739 258.7525 
L 217.606739 27 
" clip-path="url(#pc274199dbf)" style="fill: none; stroke: #b0b0b0; stroke-width: 0.8; stroke-linecap: square"/>
     </g>
     <g id="line2d_6">
      <g>
       <use xlink:href="#m4be5a905b1" x="217.606739" y="258.7525" style="stroke: #000000; stroke-width: 0.8"/>
      </g>
     </g>
     <g id="text_3">
      <!-- −4 -->
      <g transform="translate(199.179005 284.748594) scale(0.25 -0.25)">
       <defs>
        <path id="DejaVuSans-34" d="M 2419 4116 
L 825 1625 
L 2419 1625 
L 2419 4116 
z
M 2253 4666 
L 3047 4666 
L 3047 1625 
L 3713 1625 
L 3713 1100 
L 3047 1100 
L 3047 0 
L 2419 0 
L 2419 1100 
L 313 1100 
L 313 1709 
L 2253 4666 
z
" transform="scale(0.015625)"/>
       </defs>
       <use xlink:href="#DejaVuSans-2212"/>
       <use xlink:href="#DejaVuSans-34" x="83.789062"/>
      </g>
     </g>
    </g>
    <g id="xtick_4">
     <g id="line2d_7">
      <path d="M 252.31145 258.7525 
L 252.31145 27 
" clip-path="url(#pc274199dbf)" style="fill: none; stroke: #b0b0b0; stroke-width: 0.8; stroke-linecap: square"/>
     </g>
     <g id="line2d_8">
      <g>
       <use xlink:href="#m4be5a905b1" x="252.31145" y="258.7525" style="stroke: #000000; stroke-width: 0.8"/>
      </g>
     </g>
     <g id="text_4">
      <!-- −2 -->
      <g transform="translate(233.883715 284.748594) scale(0.25 -0.25)">
       <defs>
        <path id="DejaVuSans-32" d="M 1228 531 
L 3431 531 
L 3431 0 
L 469 0 
L 469 531 
Q 828 903 1448 1529 
Q 2069 2156 2228 2338 
Q 2531 2678 2651 2914 
Q 2772 3150 2772 3378 
Q 2772 3750 2511 3984 
Q 2250 4219 1831 4219 
Q 1534 4219 1204 4116 
Q 875 4013 500 3803 
L 500 4441 
Q 881 4594 1212 4672 
Q 1544 4750 1819 4750 
Q 2544 4750 2975 4387 
Q 3406 4025 3406 3419 
Q 3406 3131 3298 2873 
Q 3191 2616 2906 2266 
Q 2828 2175 2409 1742 
Q 1991 1309 1228 531 
z
" transform="scale(0.015625)"/>
       </defs>
       <use xlink:href="#DejaVuSans-2212"/>
       <use xlink:href="#DejaVuSans-32" x="83.789062"/>
      </g>
     </g>
    </g>
    <g id="xtick_5">
     <g id="line2d_9">
      <path d="M 287.01616 258.7525 
L 287.01616 27 
" clip-path="url(#pc274199dbf)" style="fill: none; stroke: #b0b0b0; stroke-width: 0.8; stroke-linecap: square"/>
     </g>
     <g id="line2d_10">
      <g>
       <use xlink:href="#m4be5a905b1" x="287.01616" y="258.7525" style="stroke: #000000; stroke-width: 0.8"/>
      </g>
     </g>
     <g id="text_5">
      <!-- 0 -->
      <g transform="translate(279.063035 284.748594) scale(0.25 -0.25)">
       <defs>
        <path id="DejaVuSans-30" d="M 2034 4250 
Q 1547 4250 1301 3770 
Q 1056 3291 1056 2328 
Q 1056 1369 1301 889 
Q 1547 409 2034 409 
Q 2525 409 2770 889 
Q 3016 1369 3016 2328 
Q 3016 3291 2770 3770 
Q 2525 4250 2034 4250 
z
M 2034 4750 
Q 2819 4750 3233 4129 
Q 3647 3509 3647 2328 
Q 3647 1150 3233 529 
Q 2819 -91 2034 -91 
Q 1250 -91 836 529 
Q 422 1150 422 2328 
Q 422 3509 836 4129 
Q 1250 4750 2034 4750 
z
" transform="scale(0.015625)"/>
       </defs>
       <use xlink:href="#DejaVuSans-30"/>
      </g>
     </g>
    </g>
    <g id="xtick_6">
     <g id="line2d_11">
      <path d="M 321.72087 258.7525 
L 321.72087 27 
" clip-path="url(#pc274199dbf)" style="fill: none; stroke: #b0b0b0; stroke-width: 0.8; stroke-linecap: square"/>
     </g>
     <g id="line2d_12">
      <g>
       <use xlink:href="#m4be5a905b1" x="321.72087" y="258.7525" style="stroke: #000000; stroke-width: 0.8"/>
      </g>
     </g>
     <g id="text_6">
      <!-- 2 -->
      <g transform="translate(313.767745 284.748594) scale(0.25 -0.25)">
       <use xlink:href="#DejaVuSans-32"/>
      </g>
     </g>
    </g>
    <g id="xtick_7">
     <g id="line2d_13">
      <path d="M 356.42558 258.7525 
L 356.42558 27 
" clip-path="url(#pc274199dbf)" style="fill: none; stroke: #b0b0b0; stroke-width: 0.8; stroke-linecap: square"/>
     </g>
     <g id="line2d_14">
      <g>
       <use xlink:href="#m4be5a905b1" x="356.42558" y="258.7525" style="stroke: #000000; stroke-width: 0.8"/>
      </g>
     </g>
     <g id="text_7">
      <!-- 4 -->
      <g transform="translate(348.472455 284.748594) scale(0.25 -0.25)">
       <use xlink:href="#DejaVuSans-34"/>
      </g>
     </g>
    </g>
    <g id="xtick_8">
     <g id="line2d_15">
      <path d="M 391.13029 258.7525 
L 391.13029 27 
" clip-path="url(#pc274199dbf)" style="fill: none; stroke: #b0b0b0; stroke-width: 0.8; stroke-linecap: square"/>
     </g>
     <g id="line2d_16">
      <g>
       <use xlink:href="#m4be5a905b1" x="391.13029" y="258.7525" style="stroke: #000000; stroke-width: 0.8"/>
      </g>
     </g>
     <g id="text_8">
      <!-- 6 -->
      <g transform="translate(383.177165 284.748594) scale(0.25 -0.25)">
       <use xlink:href="#DejaVuSans-36"/>
      </g>
     </g>
    </g>
    <g id="xtick_9">
     <g id="line2d_17">
      <path d="M 425.835 258.7525 
L 425.835 27 
" clip-path="url(#pc274199dbf)" style="fill: none; stroke: #b0b0b0; stroke-width: 0.8; stroke-linecap: square"/>
     </g>
     <g id="line2d_18">
      <g>
       <use xlink:href="#m4be5a905b1" x="425.835" y="258.7525" style="stroke: #000000; stroke-width: 0.8"/>
      </g>
     </g>
     <g id="text_9">
      <!-- 8 -->
      <g transform="translate(417.881875 284.748594) scale(0.25 -0.25)">
       <use xlink:href="#DejaVuSans-38"/>
      </g>
     </g>
    </g>
    <g id="text_10">
     <!-- $\omega$ [-] -->
     <g transform="translate(262.14116 310.951719) scale(0.25 -0.25)">
      <defs>
       <path id="DejaVuSans-Oblique-3c9" d="M 1369 -91 
Q 72 -91 434 1766 
Q 575 2500 1256 3500 
L 1875 3500 
Q 1231 2500 1088 1750 
Q 819 397 1519 397 
Q 2166 397 2478 2078 
L 3009 2078 
Q 2669 388 3316 397 
Q 4013 403 4275 1750 
Q 4419 2500 4169 3500 
L 4788 3500 
Q 5075 2500 4934 1766 
Q 4578 -94 3278 -91 
Q 2428 -88 2503 844 
Q 2194 -91 1369 -91 
z
" transform="scale(0.015625)"/>
       <path id="Calibri-20" transform="scale(0.015625)"/>
       <path id="Calibri-5b" d="M 1684 -813 
Q 1684 -916 1661 -958 
Q 1638 -1000 1594 -1000 
L 794 -1000 
Q 756 -1000 722 -989 
Q 688 -978 659 -953 
Q 631 -928 614 -886 
Q 597 -844 597 -781 
L 597 4153 
Q 597 4213 614 4255 
Q 631 4297 659 4323 
Q 688 4350 722 4361 
Q 756 4372 794 4372 
L 1594 4372 
Q 1613 4372 1630 4362 
Q 1647 4353 1659 4328 
Q 1672 4303 1678 4267 
Q 1684 4231 1684 4178 
Q 1684 4078 1661 4034 
Q 1638 3991 1594 3991 
L 1084 3991 
L 1084 -622 
L 1594 -622 
Q 1613 -622 1630 -631 
Q 1647 -641 1659 -664 
Q 1672 -688 1678 -723 
Q 1684 -759 1684 -813 
z
" transform="scale(0.015625)"/>
       <path id="Calibri-2d" d="M 1744 1578 
Q 1744 1456 1716 1409 
Q 1688 1363 1634 1363 
L 328 1363 
Q 272 1363 244 1411 
Q 216 1459 216 1578 
Q 216 1697 244 1744 
Q 272 1791 328 1791 
L 1634 1791 
Q 1659 1791 1679 1781 
Q 1700 1772 1714 1745 
Q 1728 1719 1736 1678 
Q 1744 1638 1744 1578 
z
" transform="scale(0.015625)"/>
       <path id="Calibri-5d" d="M 1369 -781 
Q 1369 -844 1351 -886 
Q 1334 -928 1306 -953 
Q 1278 -978 1242 -989 
Q 1206 -1000 1169 -1000 
L 372 -1000 
Q 328 -1000 304 -958 
Q 281 -916 281 -813 
Q 281 -759 286 -723 
Q 291 -688 303 -664 
Q 316 -641 333 -631 
Q 350 -622 372 -622 
L 881 -622 
L 881 3991 
L 372 3991 
Q 328 3991 304 4034 
Q 281 4078 281 4178 
Q 281 4231 286 4267 
Q 291 4303 303 4328 
Q 316 4353 333 4362 
Q 350 4372 372 4372 
L 1169 4372 
Q 1206 4372 1242 4361 
Q 1278 4350 1306 4323 
Q 1334 4297 1351 4255 
Q 1369 4213 1369 4153 
L 1369 -781 
z
" transform="scale(0.015625)"/>
      </defs>
      <use xlink:href="#DejaVuSans-Oblique-3c9" transform="translate(0 0.6875)"/>
      <use xlink:href="#Calibri-20" transform="translate(83.740234 0.6875)"/>
      <use xlink:href="#Calibri-5b" transform="translate(106.347656 0.6875)"/>
      <use xlink:href="#Calibri-2d" transform="translate(137.011719 0.6875)"/>
      <use xlink:href="#Calibri-5d" transform="translate(167.626953 0.6875)"/>
     </g>
    </g>
   </g>
   <g id="matplotlib.axis_2">
    <g id="ytick_1">
     <g id="line2d_19">
      <path d="M 148.197319 258.7525 
L 425.835 258.7525 
" clip-path="url(#pc274199dbf)" style="fill: none; stroke: #b0b0b0; stroke-width: 0.8; stroke-linecap: square"/>
     </g>
     <g id="line2d_20">
      <defs>
       <path id="m5997a8657f" d="M 0 0 
L -3.5 0 
" style="stroke: #000000; stroke-width: 0.8"/>
      </defs>
      <g>
       <use xlink:href="#m5997a8657f" x="148.197319" y="258.7525" style="stroke: #000000; stroke-width: 0.8"/>
      </g>
     </g>
     <g id="text_11">
      <!-- $\mathdefault{10^{-4}}$ -->
      <g transform="translate(82.447319 268.250547) scale(0.25 -0.25)">
       <defs>
        <path id="DejaVuSans-31" d="M 794 531 
L 1825 531 
L 1825 4091 
L 703 3866 
L 703 4441 
L 1819 4666 
L 2450 4666 
L 2450 531 
L 3481 531 
L 3481 0 
L 794 0 
L 794 531 
z
" transform="scale(0.015625)"/>
       </defs>
       <use xlink:href="#DejaVuSans-31" transform="translate(0 0.684375)"/>
       <use xlink:href="#DejaVuSans-30" transform="translate(63.623047 0.684375)"/>
       <use xlink:href="#DejaVuSans-2212" transform="translate(128.203125 38.965625) scale(0.7)"/>
       <use xlink:href="#DejaVuSans-34" transform="translate(186.855469 38.965625) scale(0.7)"/>
      </g>
     </g>
    </g>
    <g id="ytick_2">
     <g id="line2d_21">
      <path d="M 148.197319 166.0515 
L 425.835 166.0515 
" clip-path="url(#pc274199dbf)" style="fill: none; stroke: #b0b0b0; stroke-width: 0.8; stroke-linecap: square"/>
     </g>
     <g id="line2d_22">
      <g>
       <use xlink:href="#m5997a8657f" x="148.197319" y="166.0515" style="stroke: #000000; stroke-width: 0.8"/>
      </g>
     </g>
     <g id="text_12">
      <!-- $\mathdefault{10^{-2}}$ -->
      <g transform="translate(82.447319 175.549547) scale(0.25 -0.25)">
       <use xlink:href="#DejaVuSans-31" transform="translate(0 0.765625)"/>
       <use xlink:href="#DejaVuSans-30" transform="translate(63.623047 0.765625)"/>
       <use xlink:href="#DejaVuSans-2212" transform="translate(128.203125 39.046875) scale(0.7)"/>
       <use xlink:href="#DejaVuSans-32" transform="translate(186.855469 39.046875) scale(0.7)"/>
      </g>
     </g>
    </g>
    <g id="ytick_3">
     <g id="line2d_23">
      <path d="M 148.197319 73.3505 
L 425.835 73.3505 
" clip-path="url(#pc274199dbf)" style="fill: none; stroke: #b0b0b0; stroke-width: 0.8; stroke-linecap: square"/>
     </g>
     <g id="line2d_24">
      <g>
       <use xlink:href="#m5997a8657f" x="148.197319" y="73.3505" style="stroke: #000000; stroke-width: 0.8"/>
      </g>
     </g>
     <g id="text_13">
      <!-- $\mathdefault{10^{0}}$ -->
      <g transform="translate(97.197319 82.848547) scale(0.25 -0.25)">
       <use xlink:href="#DejaVuSans-31" transform="translate(0 0.765625)"/>
       <use xlink:href="#DejaVuSans-30" transform="translate(63.623047 0.765625)"/>
       <use xlink:href="#DejaVuSans-30" transform="translate(128.203125 39.046875) scale(0.7)"/>
      </g>
     </g>
    </g>
    <g id="text_14">
     <!-- $\rho$($\omega$) -->
     <g transform="translate(26.447319 137.62625) scale(0.25 -0.25)">
      <defs>
       <path id="DejaVuSans-Oblique-3c1" d="M 1203 2875 
Q 1453 3194 1981 3475 
Q 2188 3584 2756 3584 
Q 3394 3584 3694 3078 
Q 3994 2572 3834 1747 
Q 3672 922 3175 415 
Q 2678 -91 2041 -91 
Q 1656 -91 1409 63 
Q 1163 213 1044 525 
L 681 -1331 
L 103 -1331 
L 697 1716 
Q 838 2438 1203 2875 
z
M 3238 1747 
Q 3359 2381 3169 2744 
Q 2978 3103 2522 3103 
Q 2066 3103 1734 2744 
Q 1403 2381 1281 1747 
Q 1156 1113 1347 750 
Q 1538 391 1994 391 
Q 2450 391 2781 750 
Q 3113 1113 3238 1747 
z
" transform="scale(0.015625)"/>
       <path id="Calibri-28" d="M 1547 4306 
Q 1250 3678 1104 3017 
Q 959 2356 959 1688 
Q 959 1016 1107 356 
Q 1256 -303 1541 -938 
Q 1556 -975 1557 -1001 
Q 1559 -1028 1537 -1045 
Q 1516 -1063 1470 -1070 
Q 1425 -1078 1347 -1078 
Q 1291 -1078 1250 -1075 
Q 1209 -1072 1179 -1062 
Q 1150 -1053 1131 -1040 
Q 1113 -1028 1103 -1013 
Q 934 -694 806 -367 
Q 678 -41 590 296 
Q 503 634 459 979 
Q 416 1325 416 1678 
Q 416 2031 464 2375 
Q 513 2719 602 3058 
Q 691 3397 819 3725 
Q 947 4053 1106 4375 
Q 1109 4388 1123 4397 
Q 1138 4406 1163 4415 
Q 1188 4425 1231 4429 
Q 1275 4434 1344 4434 
Q 1416 4434 1459 4425 
Q 1503 4416 1528 4400 
Q 1553 4384 1556 4359 
Q 1559 4334 1547 4306 
z
" transform="scale(0.015625)"/>
       <path id="Calibri-29" d="M 1522 1678 
Q 1522 1325 1478 979 
Q 1434 634 1346 296 
Q 1259 -41 1132 -367 
Q 1006 -694 838 -1013 
Q 828 -1028 809 -1040 
Q 791 -1053 761 -1062 
Q 731 -1072 690 -1075 
Q 650 -1078 594 -1078 
Q 513 -1078 467 -1070 
Q 422 -1063 401 -1045 
Q 381 -1028 382 -1001 
Q 384 -975 400 -938 
Q 688 -306 834 355 
Q 981 1016 981 1688 
Q 981 2356 834 3017 
Q 688 3678 394 4306 
Q 381 4334 384 4359 
Q 388 4384 413 4400 
Q 438 4416 481 4425 
Q 525 4434 597 4434 
Q 663 4434 706 4429 
Q 750 4425 776 4415 
Q 803 4406 815 4397 
Q 828 4388 834 4375 
Q 1156 3734 1339 3057 
Q 1522 2381 1522 1678 
z
" transform="scale(0.015625)"/>
      </defs>
      <use xlink:href="#DejaVuSans-Oblique-3c1" transform="translate(0 0.71875)"/>
      <use xlink:href="#Calibri-28" transform="translate(63.476562 0.71875)"/>
      <use xlink:href="#DejaVuSans-Oblique-3c9" transform="translate(93.798828 0.71875)"/>
      <use xlink:href="#Calibri-29" transform="translate(177.539062 0.71875)"/>
     </g>
    </g>
   </g>
   <g id="line2d_25">
    <path d="M 148.197319 213.996791 
L 158.053457 211.999236 
L 166.799044 210.005448 
L 174.572899 208.009915 
L 181.444431 206.022565 
L 187.62187 204.007512 
L 193.105214 201.987879 
L 197.963873 199.967344 
L 202.336667 197.91333 
L 206.293004 195.811307 
L 209.832884 193.682331 
L 213.025718 191.508152 
L 215.940913 189.257896 
L 218.578471 186.947431 
L 221.007801 184.52898 
L 223.228902 182.011228 
L 225.311185 179.315402 
L 227.254649 176.428667 
L 229.059294 173.340565 
L 230.72512 170.044976 
L 232.252127 166.542837 
L 233.709725 162.645675 
L 235.097913 158.277168 
L 236.347283 153.621872 
L 237.527243 148.382593 
L 238.637794 142.434501 
L 239.678935 135.609366 
L 240.650667 127.673038 
L 241.552989 118.291314 
L 242.316493 108.06329 
L 243.079997 94.682623 
L 244.468185 68.107711 
L 244.537594 68.040803 
L 244.676413 68.701749 
L 244.884642 71.448557 
L 245.370507 82.154251 
L 246.342239 103.201935 
L 247.175152 116.534857 
L 248.077475 127.498299 
L 249.049207 136.629132 
L 250.090348 144.276691 
L 251.131489 150.282623 
L 252.172631 154.982933 
L 253.144363 158.374274 
L 254.046685 160.762201 
L 254.879598 162.371976 
L 255.643102 163.3792 
L 256.337196 163.925602 
L 256.961881 164.128009 
L 257.517156 164.083961 
L 258.072431 163.832873 
L 258.697116 163.305328 
L 259.39121 162.41477 
L 260.154714 161.05927 
L 260.987627 159.113527 
L 261.889949 156.413886 
L 262.792272 153.0226 
L 263.764004 148.451058 
L 264.666326 143.131574 
L 265.568649 136.420385 
L 266.401562 128.458133 
L 267.165065 118.870048 
L 267.85916 107.004661 
L 268.414435 93.68933 
L 268.900301 76.815581 
L 269.663805 41.87621 
L 269.733214 42.591107 
L 269.941442 51.762535 
L 270.635536 86.617088 
L 271.260221 105.923258 
L 271.954315 120.830833 
L 272.787228 134.101034 
L 273.75896 146.061855 
L 274.869511 157.015384 
L 276.18829 167.74146 
L 277.715297 178.27311 
L 279.658761 190.043677 
L 283.268051 211.535985 
L 284.309192 219.346822 
L 285.072696 226.676243 
L 285.697381 234.85833 
L 286.183247 244.301197 
L 286.530294 255.235271 
L 286.807931 272.326611 
L 286.94675 294.448505 
L 286.987786 346.6 
M 287.044533 346.6 
L 287.154978 280.492957 
L 287.432616 258.349805 
L 287.849073 244.301197 
L 288.404348 233.791157 
L 289.098442 225.183953 
L 289.931355 217.636709 
L 291.041906 209.689275 
L 292.638323 199.997655 
L 296.52525 176.92282 
L 297.982848 166.697933 
L 299.232218 156.391959 
L 300.342768 145.295464 
L 301.245091 134.101034 
L 302.078004 120.830833 
L 302.772098 105.923258 
L 303.327373 89.192598 
L 303.813239 67.719194 
L 304.368515 41.87621 
L 304.507333 44.979427 
L 305.756703 97.471751 
L 306.381388 110.992393 
L 307.144891 122.682201 
L 307.977805 132.029482 
L 308.880127 139.721764 
L 309.851859 146.142205 
L 310.893 151.509547 
L 311.934141 155.696324 
L 312.905873 158.739675 
L 313.808196 160.916087 
L 314.641109 162.41477 
L 315.404612 163.376732 
L 316.098707 163.914918 
L 316.723391 164.1249 
L 317.278667 164.090471 
L 317.833942 163.843738 
L 318.458627 163.305491 
L 319.152721 162.371976 
L 319.916225 160.917522 
L 320.749138 158.787436 
L 321.65146 155.785907 
L 322.553783 151.982367 
L 323.525515 146.853323 
L 324.497247 140.431663 
L 325.399569 132.991954 
L 326.301891 123.620332 
L 327.134804 112.5018 
L 327.898308 99.216718 
L 328.731221 80.486597 
L 329.286497 69.406753 
L 329.494725 68.040803 
L 329.564134 68.107711 
L 329.702953 69.017197 
L 329.980591 73.312242 
L 331.924054 111.116622 
L 332.826377 122.185104 
L 333.798109 131.299417 
L 334.83925 138.973477 
L 335.949801 145.552813 
L 337.129761 151.274006 
L 338.44854 156.559662 
L 339.836728 161.199005 
L 341.294326 165.31113 
L 342.890743 169.140579 
L 344.556569 172.561036 
L 346.361214 175.754486 
L 348.304678 178.729964 
L 350.38696 181.500543 
L 352.608062 184.081338 
L 355.037391 186.554465 
L 357.674949 188.91204 
L 360.520736 191.152337 
L 363.64416 193.323164 
L 367.045221 195.414162 
L 370.79333 197.45637 
L 374.957895 199.469037 
L 379.608326 201.463217 
L 384.744623 203.419497 
L 390.505605 205.370274 
L 396.891272 207.294625 
L 404.040442 209.214407 
L 412.091935 211.142036 
L 421.115159 213.069352 
L 425.835 213.996791 
L 425.835 213.996791 
" clip-path="url(#pc274199dbf)" style="fill: none; stroke-dasharray: 14.8,6.4; stroke-dashoffset: 0; stroke: #ff0000; stroke-width: 4"/>
   </g>
   <g id="line2d_26">
    <path d="M 148.197319 210.524937 
L 150.349011 209.350618 
L 152.223066 208.069142 
L 154.166529 206.452601 
L 157.914638 203.261599 
L 159.094598 202.580513 
L 159.996921 202.306902 
L 160.829834 202.274656 
L 161.801566 202.466001 
L 163.536801 203.093637 
L 165.202627 203.60345 
L 166.521406 203.780484 
L 167.840185 203.726197 
L 169.158964 203.446263 
L 170.547153 202.924814 
L 171.935341 202.168911 
L 173.323529 201.165556 
L 174.642308 199.946329 
L 175.961087 198.424339 
L 177.210457 196.639406 
L 178.459826 194.452044 
L 179.848015 191.553932 
L 182.554982 185.760708 
L 183.457305 184.412967 
L 184.220808 183.66135 
L 184.845493 183.345489 
L 185.400768 183.311898 
L 185.956044 183.523461 
L 186.511319 183.977462 
L 187.205413 184.842421 
L 188.315964 186.652222 
L 190.259428 189.814394 
L 191.300569 191.084425 
L 192.272301 191.92266 
L 193.174624 192.409486 
L 194.007537 192.623209 
L 194.909859 192.619278 
L 195.881591 192.381902 
L 196.853323 191.92116 
L 197.894464 191.172915 
L 198.935605 190.143173 
L 199.976747 188.800223 
L 201.017888 187.110348 
L 202.059029 184.977103 
L 203.100171 182.309453 
L 204.34954 178.429009 
L 206.917689 170.209216 
L 207.820011 168.118246 
L 208.444696 167.164253 
L 208.999971 166.701436 
L 209.485837 166.58213 
L 209.902294 166.686242 
L 210.38816 167.051594 
L 210.943435 167.781994 
L 211.637529 169.102262 
L 212.678671 171.634312 
L 214.552725 176.239083 
L 215.455047 177.839885 
L 216.218551 178.770647 
L 216.912645 179.305617 
L 217.676149 179.608011 
L 218.439652 179.655771 
L 219.203156 179.463217 
L 220.036069 179.008317 
L 220.938392 178.263374 
L 221.979533 177.106145 
L 223.159493 175.451166 
L 224.270044 173.507316 
L 225.450004 170.996714 
L 226.560555 168.113774 
L 227.532286 165.008663 
L 228.504018 161.125088 
L 229.47575 156.297168 
L 230.586301 149.581994 
L 231.835671 142.204759 
L 232.737993 138.328362 
L 233.779134 134.710719 
L 234.33441 133.459275 
L 234.820276 132.875795 
L 235.306142 132.667299 
L 236.347283 132.587355 
L 236.833149 132.725712 
L 237.388424 133.170955 
L 238.221337 133.838555 
L 238.637794 133.888289 
L 238.984841 133.727476 
L 239.401297 133.245602 
L 239.817754 132.376615 
L 240.30362 130.760474 
L 240.858895 127.971757 
L 241.48358 123.562598 
L 242.177674 116.958759 
L 242.871768 108.140039 
L 243.565863 96.402878 
L 244.954051 71.187982 
L 245.02346 71.188249 
L 245.162279 71.949344 
L 245.439917 76.033007 
L 246.27283 94.997375 
L 247.105743 111.023424 
L 247.938656 123.075819 
L 248.840978 133.070457 
L 249.81271 141.413485 
L 250.784442 147.95478 
L 251.756174 153.111205 
L 252.727906 157.138141 
L 253.630228 160.012028 
L 254.463142 162.007975 
L 255.226645 163.33016 
L 255.920739 164.139829 
L 256.545424 164.566186 
L 257.170109 164.71793 
L 257.725384 164.625388 
L 258.350069 164.273622 
L 259.044163 163.589952 
L 259.738257 162.578988 
L 260.571171 160.936007 
L 261.404084 158.806915 
L 262.306406 155.888418 
L 263.278138 151.947492 
L 264.24987 146.982188 
L 265.152192 141.198614 
L 265.985105 134.458 
L 266.818018 125.773972 
L 267.512113 116.225776 
L 268.136797 104.646986 
L 268.692073 90.156176 
L 269.177939 71.295158 
L 269.802623 42.016452 
L 269.872033 42.561966 
L 270.080261 51.560462 
L 270.774355 86.746805 
L 271.39904 106.183711 
L 272.093134 121.161754 
L 272.926047 134.481343 
L 273.897779 146.481174 
L 275.00833 157.469408 
L 276.327109 168.231817 
L 277.854116 178.805825 
L 279.79758 190.642675 
L 283.268051 211.484168 
L 284.309192 219.319605 
L 285.072696 226.661936 
L 285.697381 234.851487 
L 286.183247 244.298272 
L 286.530294 255.234144 
L 286.807931 272.326327 
L 286.94675 294.448443 
L 286.987786 346.6 
M 287.044533 346.6 
L 287.154978 280.492982 
L 287.432616 258.349482 
L 287.849073 244.299359 
L 288.404348 233.78544 
L 289.098442 225.170363 
L 289.931355 217.609135 
L 291.041906 209.635 
L 292.707732 199.483179 
L 296.386431 177.466513 
L 297.913439 166.677398 
L 299.162808 156.241863 
L 300.203949 145.752125 
L 301.106272 134.533988 
L 301.939185 121.234704 
L 302.633279 106.287993 
L 303.188555 89.495849 
L 303.67442 67.902247 
L 304.229696 41.99745 
L 304.368515 45.276548 
L 305.548475 96.115614 
L 306.17316 110.180144 
L 306.936663 122.220102 
L 307.769576 131.77534 
L 308.671899 139.599043 
L 309.643631 146.136445 
L 310.684772 151.599608 
L 311.725913 155.865255 
L 312.767054 159.179514 
L 313.738786 161.523371 
L 314.571699 163.007027 
L 315.335203 163.964859 
L 316.029297 164.494944 
L 316.653982 164.699229 
L 317.209257 164.659373 
L 317.764533 164.40485 
L 318.389218 163.853841 
L 319.083312 162.897093 
L 319.846815 161.403868 
L 320.610319 159.414179 
L 321.443232 156.624087 
L 322.345554 152.784386 
L 323.247877 147.959591 
L 324.150199 141.943236 
L 325.052522 134.410037 
L 325.885435 125.642597 
L 326.718348 114.3946 
L 327.481852 100.904118 
L 329.008859 71.171302 
L 329.078268 71.165587 
L 329.217087 71.907569 
L 329.494725 75.84755 
L 331.507598 112.817087 
L 332.271102 121.116095 
L 333.034605 127.06224 
L 333.65929 130.432521 
L 334.214565 132.358254 
L 334.700431 133.300414 
L 335.116888 133.69486 
L 335.533344 133.811809 
L 335.949801 133.692833 
L 336.505076 133.259974 
L 337.337989 132.63671 
L 337.893265 132.526115 
L 338.726178 132.628159 
L 339.212044 132.895583 
L 339.6285 133.400456 
L 340.114366 134.41087 
L 340.739051 136.330236 
L 341.849602 140.627756 
L 342.613105 144.419238 
L 344.070703 153.35947 
L 345.250663 159.698725 
L 346.291804 164.125341 
L 347.402355 167.888238 
L 348.512906 170.892471 
L 349.692866 173.431888 
L 351.011645 175.724807 
L 352.191605 177.344514 
L 353.232746 178.42268 
L 354.204478 179.127949 
L 355.106801 179.535176 
L 355.939714 179.683734 
L 356.633808 179.593775 
L 357.258493 179.301921 
L 357.952587 178.716226 
L 358.646681 177.823102 
L 359.410185 176.459069 
L 360.381917 174.228518 
L 362.950065 168.028335 
L 363.64416 167.040438 
L 364.199435 166.61146 
L 364.685301 166.520796 
L 365.101757 166.668157 
L 365.587623 167.116367 
L 366.142899 167.988766 
L 366.836993 169.538057 
L 367.878134 172.500772 
L 370.168645 179.990791 
L 371.418015 183.557471 
L 372.528565 186.094112 
L 373.639116 188.119725 
L 374.749667 189.704003 
L 375.860217 190.912856 
L 376.970768 191.7975 
L 378.011909 192.353234 
L 378.983641 192.640233 
L 379.885964 192.688349 
L 380.718877 192.512981 
L 381.55179 192.104855 
L 382.454112 191.392012 
L 383.356435 190.391105 
L 384.397576 188.889038 
L 387.659819 183.844774 
L 388.284504 183.437428 
L 388.839779 183.33425 
L 389.395054 183.469426 
L 390.019739 183.884918 
L 390.713833 184.642225 
L 391.546746 185.91877 
L 392.587888 187.966608 
L 396.335996 195.807924 
L 397.654775 197.816505 
L 398.973554 199.424337 
L 400.361743 200.771498 
L 401.819341 201.886367 
L 403.346348 202.776587 
L 404.803946 203.379452 
L 406.192134 203.712004 
L 407.510913 203.791094 
L 408.760283 203.646814 
L 410.148471 203.257449 
L 413.202486 202.280194 
L 414.104808 202.311154 
L 414.937721 202.564031 
L 415.909453 203.101623 
L 417.228232 204.109544 
L 420.282246 206.834486 
L 422.364529 208.492614 
L 424.238583 209.693435 
L 425.835 210.532136 
L 425.835 210.532136 
" clip-path="url(#pc274199dbf)" style="fill: none; stroke: #0000ff; stroke-width: 1.5; stroke-linecap: square"/>
   </g>
   <g id="patch_3">
    <path d="M 148.197319 258.7525 
L 148.197319 27 
" style="fill: none; stroke: #000000; stroke-width: 0.8; stroke-linejoin: miter; stroke-linecap: square"/>
   </g>
   <g id="patch_4">
    <path d="M 425.835 258.7525 
L 425.835 27 
" style="fill: none; stroke: #000000; stroke-width: 0.8; stroke-linejoin: miter; stroke-linecap: square"/>
   </g>
   <g id="patch_5">
    <path d="M 148.197319 258.7525 
L 425.835 258.7525 
" style="fill: none; stroke: #000000; stroke-width: 0.8; stroke-linejoin: miter; stroke-linecap: square"/>
   </g>
   <g id="patch_6">
    <path d="M 148.197319 27 
L 425.835 27 
" style="fill: none; stroke: #000000; stroke-width: 0.8; stroke-linejoin: miter; stroke-linecap: square"/>
   </g>
   <g id="legend_1">
    <g id="patch_7">
     <path d="M 295.785 90.540156 
L 417.335 90.540156 
L 417.335 35.5 
L 295.785 35.5 
z
" style="fill: #ffffff; opacity: 0.8; stroke: #000000; stroke-linejoin: miter"/>
    </g>
    <g id="line2d_27">
     <path d="M 302.585 49.267344 
L 319.585 49.267344 
L 336.585 49.267344 
" style="fill: none; stroke-dasharray: 14.8,6.4; stroke-dashoffset: 0; stroke: #ff0000; stroke-width: 4"/>
    </g>
    <g id="text_15">
     <!-- $\rho_0$ -->
     <g transform="translate(350.185 55.217344) scale(0.17 -0.17)">
      <use xlink:href="#DejaVuSans-Oblique-3c1"/>
      <use xlink:href="#DejaVuSans-30" transform="translate(63.476562 -16.40625) scale(0.7)"/>
     </g>
    </g>
    <g id="line2d_28">
     <path d="M 302.585 74.254687 
L 319.585 74.254687 
L 336.585 74.254687 
" style="fill: none; stroke: #0000ff; stroke-width: 1.5; stroke-linecap: square"/>
    </g>
    <g id="text_16">
     <!-- $\it{U=1.5}$ -->
     <g transform="translate(350.185 80.204687) scale(0.17 -0.17)">
      <defs>
       <path id="DejaVuSans-Oblique-55" d="M 991 4666 
L 1625 4666 
L 1075 1831 
Q 1041 1641 1027 1517 
Q 1013 1394 1013 1300 
Q 1013 869 1253 645 
Q 1494 422 1959 422 
Q 2563 422 2898 753 
Q 3234 1084 3378 1831 
L 3928 4666 
L 4563 4666 
L 4000 1753 
Q 3816 809 3300 359 
Q 2784 -91 1888 -91 
Q 1188 -91 780 261 
Q 372 613 372 1216 
Q 372 1325 387 1461 
Q 403 1597 434 1753 
L 991 4666 
z
" transform="scale(0.015625)"/>
       <path id="DejaVuSans-3d" d="M 678 2906 
L 4684 2906 
L 4684 2381 
L 678 2381 
L 678 2906 
z
M 678 1631 
L 4684 1631 
L 4684 1100 
L 678 1100 
L 678 1631 
z
" transform="scale(0.015625)"/>
       <path id="DejaVuSans-2e" d="M 684 794 
L 1344 794 
L 1344 0 
L 684 0 
L 684 794 
z
" transform="scale(0.015625)"/>
       <path id="DejaVuSans-35" d="M 691 4666 
L 3169 4666 
L 3169 4134 
L 1269 4134 
L 1269 2991 
Q 1406 3038 1543 3061 
Q 1681 3084 1819 3084 
Q 2600 3084 3056 2656 
Q 3513 2228 3513 1497 
Q 3513 744 3044 326 
Q 2575 -91 1722 -91 
Q 1428 -91 1123 -41 
Q 819 9 494 109 
L 494 744 
Q 775 591 1075 516 
Q 1375 441 1709 441 
Q 2250 441 2565 725 
Q 2881 1009 2881 1497 
Q 2881 1984 2565 2268 
Q 2250 2553 1709 2553 
Q 1456 2553 1204 2497 
Q 953 2441 691 2322 
L 691 4666 
z
" transform="scale(0.015625)"/>
      </defs>
      <use xlink:href="#DejaVuSans-Oblique-55" transform="translate(0 0.09375)"/>
      <use xlink:href="#DejaVuSans-3d" transform="translate(92.675781 0.09375)"/>
      <use xlink:href="#DejaVuSans-31" transform="translate(195.947266 0.09375)"/>
      <use xlink:href="#DejaVuSans-2e" transform="translate(259.570312 0.09375)"/>
      <use xlink:href="#DejaVuSans-35" transform="translate(291.357422 0.09375)"/>
     </g>
    </g>
   </g>
  </g>
 </g>
 <defs>
  <clipPath id="pc274199dbf">
   <rect x="148.197319" y="27" width="277.637681" height="231.7525"/>
  </clipPath>
 </defs>
</svg>
