<?xml version="1.0" encoding="utf-8" standalone="no"?>
<!DOCTYPE svg PUBLIC "-//W3C//DTD SVG 1.1//EN"
  "http://www.w3.org/Graphics/SVG/1.1/DTD/svg11.dtd">
<svg xmlns:xlink="http://www.w3.org/1999/xlink" width="720pt" height="576pt" viewBox="0 0 720 576" xmlns="http://www.w3.org/2000/svg" version="1.1">
 <metadata>
  <rdf:RDF xmlns:dc="http://purl.org/dc/elements/1.1/" xmlns:cc="http://creativecommons.org/ns#" xmlns:rdf="http://www.w3.org/1999/02/22-rdf-syntax-ns#">
   <cc:Work>
    <dc:type rdf:resource="http://purl.org/dc/dcmitype/StillImage"/>
    <dc:date>2023-04-10T23:50:24.017148</dc:date>
    <dc:format>image/svg+xml</dc:format>
    <dc:creator>
     <cc:Agent>
      <dc:title>Matplotlib v3.7.1, https://matplotlib.org/</dc:title>
     </cc:Agent>
    </dc:creator>
   </cc:Work>
  </rdf:RDF>
 </metadata>
 <defs>
  <style type="text/css">*{stroke-linejoin: round; stroke-linecap: butt}</style>
 </defs>
 <g id="figure_1">
  <g id="patch_1">
   <path d="M 0 576 
L 720 576 
L 720 0 
L 0 0 
z
" style="fill: #ffffff"/>
  </g>
  <g id="axes_1">
   <g id="patch_2">
    <path d="M 148.197319 489.1525 
L 685.035 489.1525 
L 685.035 37.512 
L 148.197319 37.512 
z
" style="fill: #ffffff"/>
   </g>
   <g id="matplotlib.axis_1">
    <g id="xtick_1">
     <g id="line2d_1">
      <path d="M 148.197319 489.1525 
L 148.197319 37.512 
" clip-path="url(#p0f3e58000c)" style="fill: none; stroke: #b0b0b0; stroke-width: 0.8; stroke-linecap: square"/>
     </g>
     <g id="line2d_2">
      <defs>
       <path id="me06372c4b2" d="M 0 0 
L 0 3.5 
" style="stroke: #000000; stroke-width: 0.8"/>
      </defs>
      <g>
       <use xlink:href="#me06372c4b2" x="148.197319" y="489.1525" style="stroke: #000000; stroke-width: 0.8"/>
      </g>
     </g>
     <g id="text_1">
      <!-- −8 -->
      <g transform="translate(129.769585 515.148594) scale(0.25 -0.25)">
       <defs>
        <path id="DejaVuSans-2212" d="M 678 2272 
L 4684 2272 
L 4684 1741 
L 678 1741 
L 678 2272 
z
" transform="scale(0.015625)"/>
        <path id="DejaVuSans-38" d="M 2034 2216 
Q 1584 2216 1326 1975 
Q 1069 1734 1069 1313 
Q 1069 891 1326 650 
Q 1584 409 2034 409 
Q 2484 409 2743 651 
Q 3003 894 3003 1313 
Q 3003 1734 2745 1975 
Q 2488 2216 2034 2216 
z
M 1403 2484 
Q 997 2584 770 2862 
Q 544 3141 544 3541 
Q 544 4100 942 4425 
Q 1341 4750 2034 4750 
Q 2731 4750 3128 4425 
Q 3525 4100 3525 3541 
Q 3525 3141 3298 2862 
Q 3072 2584 2669 2484 
Q 3125 2378 3379 2068 
Q 3634 1759 3634 1313 
Q 3634 634 3220 271 
Q 2806 -91 2034 -91 
Q 1263 -91 848 271 
Q 434 634 434 1313 
Q 434 1759 690 2068 
Q 947 2378 1403 2484 
z
M 1172 3481 
Q 1172 3119 1398 2916 
Q 1625 2713 2034 2713 
Q 2441 2713 2670 2916 
Q 2900 3119 2900 3481 
Q 2900 3844 2670 4047 
Q 2441 4250 2034 4250 
Q 1625 4250 1398 4047 
Q 1172 3844 1172 3481 
z
" transform="scale(0.015625)"/>
       </defs>
       <use xlink:href="#DejaVuSans-2212"/>
       <use xlink:href="#DejaVuSans-38" x="83.789062"/>
      </g>
     </g>
    </g>
    <g id="xtick_2">
     <g id="line2d_3">
      <path d="M 215.302029 489.1525 
L 215.302029 37.512 
" clip-path="url(#p0f3e58000c)" style="fill: none; stroke: #b0b0b0; stroke-width: 0.8; stroke-linecap: square"/>
     </g>
     <g id="line2d_4">
      <g>
       <use xlink:href="#me06372c4b2" x="215.302029" y="489.1525" style="stroke: #000000; stroke-width: 0.8"/>
      </g>
     </g>
     <g id="text_2">
      <!-- −6 -->
      <g transform="translate(196.874295 515.148594) scale(0.25 -0.25)">
       <defs>
        <path id="DejaVuSans-36" d="M 2113 2584 
Q 1688 2584 1439 2293 
Q 1191 2003 1191 1497 
Q 1191 994 1439 701 
Q 1688 409 2113 409 
Q 2538 409 2786 701 
Q 3034 994 3034 1497 
Q 3034 2003 2786 2293 
Q 2538 2584 2113 2584 
z
M 3366 4563 
L 3366 3988 
Q 3128 4100 2886 4159 
Q 2644 4219 2406 4219 
Q 1781 4219 1451 3797 
Q 1122 3375 1075 2522 
Q 1259 2794 1537 2939 
Q 1816 3084 2150 3084 
Q 2853 3084 3261 2657 
Q 3669 2231 3669 1497 
Q 3669 778 3244 343 
Q 2819 -91 2113 -91 
Q 1303 -91 875 529 
Q 447 1150 447 2328 
Q 447 3434 972 4092 
Q 1497 4750 2381 4750 
Q 2619 4750 2861 4703 
Q 3103 4656 3366 4563 
z
" transform="scale(0.015625)"/>
       </defs>
       <use xlink:href="#DejaVuSans-2212"/>
       <use xlink:href="#DejaVuSans-36" x="83.789062"/>
      </g>
     </g>
    </g>
    <g id="xtick_3">
     <g id="line2d_5">
      <path d="M 282.406739 489.1525 
L 282.406739 37.512 
" clip-path="url(#p0f3e58000c)" style="fill: none; stroke: #b0b0b0; stroke-width: 0.8; stroke-linecap: square"/>
     </g>
     <g id="line2d_6">
      <g>
       <use xlink:href="#me06372c4b2" x="282.406739" y="489.1525" style="stroke: #000000; stroke-width: 0.8"/>
      </g>
     </g>
     <g id="text_3">
      <!-- −4 -->
      <g transform="translate(263.979005 515.148594) scale(0.25 -0.25)">
       <defs>
        <path id="DejaVuSans-34" d="M 2419 4116 
L 825 1625 
L 2419 1625 
L 2419 4116 
z
M 2253 4666 
L 3047 4666 
L 3047 1625 
L 3713 1625 
L 3713 1100 
L 3047 1100 
L 3047 0 
L 2419 0 
L 2419 1100 
L 313 1100 
L 313 1709 
L 2253 4666 
z
" transform="scale(0.015625)"/>
       </defs>
       <use xlink:href="#DejaVuSans-2212"/>
       <use xlink:href="#DejaVuSans-34" x="83.789062"/>
      </g>
     </g>
    </g>
    <g id="xtick_4">
     <g id="line2d_7">
      <path d="M 349.51145 489.1525 
L 349.51145 37.512 
" clip-path="url(#p0f3e58000c)" style="fill: none; stroke: #b0b0b0; stroke-width: 0.8; stroke-linecap: square"/>
     </g>
     <g id="line2d_8">
      <g>
       <use xlink:href="#me06372c4b2" x="349.51145" y="489.1525" style="stroke: #000000; stroke-width: 0.8"/>
      </g>
     </g>
     <g id="text_4">
      <!-- −2 -->
      <g transform="translate(331.083715 515.148594) scale(0.25 -0.25)">
       <defs>
        <path id="DejaVuSans-32" d="M 1228 531 
L 3431 531 
L 3431 0 
L 469 0 
L 469 531 
Q 828 903 1448 1529 
Q 2069 2156 2228 2338 
Q 2531 2678 2651 2914 
Q 2772 3150 2772 3378 
Q 2772 3750 2511 3984 
Q 2250 4219 1831 4219 
Q 1534 4219 1204 4116 
Q 875 4013 500 3803 
L 500 4441 
Q 881 4594 1212 4672 
Q 1544 4750 1819 4750 
Q 2544 4750 2975 4387 
Q 3406 4025 3406 3419 
Q 3406 3131 3298 2873 
Q 3191 2616 2906 2266 
Q 2828 2175 2409 1742 
Q 1991 1309 1228 531 
z
" transform="scale(0.015625)"/>
       </defs>
       <use xlink:href="#DejaVuSans-2212"/>
       <use xlink:href="#DejaVuSans-32" x="83.789062"/>
      </g>
     </g>
    </g>
    <g id="xtick_5">
     <g id="line2d_9">
      <path d="M 416.61616 489.1525 
L 416.61616 37.512 
" clip-path="url(#p0f3e58000c)" style="fill: none; stroke: #b0b0b0; stroke-width: 0.8; stroke-linecap: square"/>
     </g>
     <g id="line2d_10">
      <g>
       <use xlink:href="#me06372c4b2" x="416.61616" y="489.1525" style="stroke: #000000; stroke-width: 0.8"/>
      </g>
     </g>
     <g id="text_5">
      <!-- 0 -->
      <g transform="translate(408.663035 515.148594) scale(0.25 -0.25)">
       <defs>
        <path id="DejaVuSans-30" d="M 2034 4250 
Q 1547 4250 1301 3770 
Q 1056 3291 1056 2328 
Q 1056 1369 1301 889 
Q 1547 409 2034 409 
Q 2525 409 2770 889 
Q 3016 1369 3016 2328 
Q 3016 3291 2770 3770 
Q 2525 4250 2034 4250 
z
M 2034 4750 
Q 2819 4750 3233 4129 
Q 3647 3509 3647 2328 
Q 3647 1150 3233 529 
Q 2819 -91 2034 -91 
Q 1250 -91 836 529 
Q 422 1150 422 2328 
Q 422 3509 836 4129 
Q 1250 4750 2034 4750 
z
" transform="scale(0.015625)"/>
       </defs>
       <use xlink:href="#DejaVuSans-30"/>
      </g>
     </g>
    </g>
    <g id="xtick_6">
     <g id="line2d_11">
      <path d="M 483.72087 489.1525 
L 483.72087 37.512 
" clip-path="url(#p0f3e58000c)" style="fill: none; stroke: #b0b0b0; stroke-width: 0.8; stroke-linecap: square"/>
     </g>
     <g id="line2d_12">
      <g>
       <use xlink:href="#me06372c4b2" x="483.72087" y="489.1525" style="stroke: #000000; stroke-width: 0.8"/>
      </g>
     </g>
     <g id="text_6">
      <!-- 2 -->
      <g transform="translate(475.767745 515.148594) scale(0.25 -0.25)">
       <use xlink:href="#DejaVuSans-32"/>
      </g>
     </g>
    </g>
    <g id="xtick_7">
     <g id="line2d_13">
      <path d="M 550.82558 489.1525 
L 550.82558 37.512 
" clip-path="url(#p0f3e58000c)" style="fill: none; stroke: #b0b0b0; stroke-width: 0.8; stroke-linecap: square"/>
     </g>
     <g id="line2d_14">
      <g>
       <use xlink:href="#me06372c4b2" x="550.82558" y="489.1525" style="stroke: #000000; stroke-width: 0.8"/>
      </g>
     </g>
     <g id="text_7">
      <!-- 4 -->
      <g transform="translate(542.872455 515.148594) scale(0.25 -0.25)">
       <use xlink:href="#DejaVuSans-34"/>
      </g>
     </g>
    </g>
    <g id="xtick_8">
     <g id="line2d_15">
      <path d="M 617.93029 489.1525 
L 617.93029 37.512 
" clip-path="url(#p0f3e58000c)" style="fill: none; stroke: #b0b0b0; stroke-width: 0.8; stroke-linecap: square"/>
     </g>
     <g id="line2d_16">
      <g>
       <use xlink:href="#me06372c4b2" x="617.93029" y="489.1525" style="stroke: #000000; stroke-width: 0.8"/>
      </g>
     </g>
     <g id="text_8">
      <!-- 6 -->
      <g transform="translate(609.977165 515.148594) scale(0.25 -0.25)">
       <use xlink:href="#DejaVuSans-36"/>
      </g>
     </g>
    </g>
    <g id="xtick_9">
     <g id="line2d_17">
      <path d="M 685.035 489.1525 
L 685.035 37.512 
" clip-path="url(#p0f3e58000c)" style="fill: none; stroke: #b0b0b0; stroke-width: 0.8; stroke-linecap: square"/>
     </g>
     <g id="line2d_18">
      <g>
       <use xlink:href="#me06372c4b2" x="685.035" y="489.1525" style="stroke: #000000; stroke-width: 0.8"/>
      </g>
     </g>
     <g id="text_9">
      <!-- 8 -->
      <g transform="translate(677.081875 515.148594) scale(0.25 -0.25)">
       <use xlink:href="#DejaVuSans-38"/>
      </g>
     </g>
    </g>
    <g id="text_10">
     <!-- $\omega$ [-] -->
     <g transform="translate(391.74116 541.351719) scale(0.25 -0.25)">
      <defs>
       <path id="DejaVuSans-Oblique-3c9" d="M 1369 -91 
Q 72 -91 434 1766 
Q 575 2500 1256 3500 
L 1875 3500 
Q 1231 2500 1088 1750 
Q 819 397 1519 397 
Q 2166 397 2478 2078 
L 3009 2078 
Q 2669 388 3316 397 
Q 4013 403 4275 1750 
Q 4419 2500 4169 3500 
L 4788 3500 
Q 5075 2500 4934 1766 
Q 4578 -94 3278 -91 
Q 2428 -88 2503 844 
Q 2194 -91 1369 -91 
z
" transform="scale(0.015625)"/>
       <path id="Calibri-20" transform="scale(0.015625)"/>
       <path id="Calibri-5b" d="M 1684 -813 
Q 1684 -916 1661 -958 
Q 1638 -1000 1594 -1000 
L 794 -1000 
Q 756 -1000 722 -989 
Q 688 -978 659 -953 
Q 631 -928 614 -886 
Q 597 -844 597 -781 
L 597 4153 
Q 597 4213 614 4255 
Q 631 4297 659 4323 
Q 688 4350 722 4361 
Q 756 4372 794 4372 
L 1594 4372 
Q 1613 4372 1630 4362 
Q 1647 4353 1659 4328 
Q 1672 4303 1678 4267 
Q 1684 4231 1684 4178 
Q 1684 4078 1661 4034 
Q 1638 3991 1594 3991 
L 1084 3991 
L 1084 -622 
L 1594 -622 
Q 1613 -622 1630 -631 
Q 1647 -641 1659 -664 
Q 1672 -688 1678 -723 
Q 1684 -759 1684 -813 
z
" transform="scale(0.015625)"/>
       <path id="Calibri-2d" d="M 1744 1578 
Q 1744 1456 1716 1409 
Q 1688 1363 1634 1363 
L 328 1363 
Q 272 1363 244 1411 
Q 216 1459 216 1578 
Q 216 1697 244 1744 
Q 272 1791 328 1791 
L 1634 1791 
Q 1659 1791 1679 1781 
Q 1700 1772 1714 1745 
Q 1728 1719 1736 1678 
Q 1744 1638 1744 1578 
z
" transform="scale(0.015625)"/>
       <path id="Calibri-5d" d="M 1369 -781 
Q 1369 -844 1351 -886 
Q 1334 -928 1306 -953 
Q 1278 -978 1242 -989 
Q 1206 -1000 1169 -1000 
L 372 -1000 
Q 328 -1000 304 -958 
Q 281 -916 281 -813 
Q 281 -759 286 -723 
Q 291 -688 303 -664 
Q 316 -641 333 -631 
Q 350 -622 372 -622 
L 881 -622 
L 881 3991 
L 372 3991 
Q 328 3991 304 4034 
Q 281 4078 281 4178 
Q 281 4231 286 4267 
Q 291 4303 303 4328 
Q 316 4353 333 4362 
Q 350 4372 372 4372 
L 1169 4372 
Q 1206 4372 1242 4361 
Q 1278 4350 1306 4323 
Q 1334 4297 1351 4255 
Q 1369 4213 1369 4153 
L 1369 -781 
z
" transform="scale(0.015625)"/>
      </defs>
      <use xlink:href="#DejaVuSans-Oblique-3c9" transform="translate(0 0.6875)"/>
      <use xlink:href="#Calibri-20" transform="translate(83.740234 0.6875)"/>
      <use xlink:href="#Calibri-5b" transform="translate(106.347656 0.6875)"/>
      <use xlink:href="#Calibri-2d" transform="translate(137.011719 0.6875)"/>
      <use xlink:href="#Calibri-5d" transform="translate(167.626953 0.6875)"/>
     </g>
    </g>
   </g>
   <g id="matplotlib.axis_2">
    <g id="ytick_1">
     <g id="line2d_19">
      <path d="M 148.197319 489.1525 
L 685.035 489.1525 
" clip-path="url(#p0f3e58000c)" style="fill: none; stroke: #b0b0b0; stroke-width: 0.8; stroke-linecap: square"/>
     </g>
     <g id="line2d_20">
      <defs>
       <path id="m7b504329b2" d="M 0 0 
L -3.5 0 
" style="stroke: #000000; stroke-width: 0.8"/>
      </defs>
      <g>
       <use xlink:href="#m7b504329b2" x="148.197319" y="489.1525" style="stroke: #000000; stroke-width: 0.8"/>
      </g>
     </g>
     <g id="text_11">
      <!-- $\mathdefault{10^{-4}}$ -->
      <g transform="translate(82.447319 498.650547) scale(0.25 -0.25)">
       <defs>
        <path id="DejaVuSans-31" d="M 794 531 
L 1825 531 
L 1825 4091 
L 703 3866 
L 703 4441 
L 1819 4666 
L 2450 4666 
L 2450 531 
L 3481 531 
L 3481 0 
L 794 0 
L 794 531 
z
" transform="scale(0.015625)"/>
       </defs>
       <use xlink:href="#DejaVuSans-31" transform="translate(0 0.684375)"/>
       <use xlink:href="#DejaVuSans-30" transform="translate(63.623047 0.684375)"/>
       <use xlink:href="#DejaVuSans-2212" transform="translate(128.203125 38.965625) scale(0.7)"/>
       <use xlink:href="#DejaVuSans-34" transform="translate(186.855469 38.965625) scale(0.7)"/>
      </g>
     </g>
    </g>
    <g id="ytick_2">
     <g id="line2d_21">
      <path d="M 148.197319 398.8244 
L 685.035 398.8244 
" clip-path="url(#p0f3e58000c)" style="fill: none; stroke: #b0b0b0; stroke-width: 0.8; stroke-linecap: square"/>
     </g>
     <g id="line2d_22">
      <g>
       <use xlink:href="#m7b504329b2" x="148.197319" y="398.8244" style="stroke: #000000; stroke-width: 0.8"/>
      </g>
     </g>
     <g id="text_12">
      <!-- $\mathdefault{10^{-3}}$ -->
      <g transform="translate(82.447319 408.322447) scale(0.25 -0.25)">
       <defs>
        <path id="DejaVuSans-33" d="M 2597 2516 
Q 3050 2419 3304 2112 
Q 3559 1806 3559 1356 
Q 3559 666 3084 287 
Q 2609 -91 1734 -91 
Q 1441 -91 1130 -33 
Q 819 25 488 141 
L 488 750 
Q 750 597 1062 519 
Q 1375 441 1716 441 
Q 2309 441 2620 675 
Q 2931 909 2931 1356 
Q 2931 1769 2642 2001 
Q 2353 2234 1838 2234 
L 1294 2234 
L 1294 2753 
L 1863 2753 
Q 2328 2753 2575 2939 
Q 2822 3125 2822 3475 
Q 2822 3834 2567 4026 
Q 2313 4219 1838 4219 
Q 1578 4219 1281 4162 
Q 984 4106 628 3988 
L 628 4550 
Q 988 4650 1302 4700 
Q 1616 4750 1894 4750 
Q 2613 4750 3031 4423 
Q 3450 4097 3450 3541 
Q 3450 3153 3228 2886 
Q 3006 2619 2597 2516 
z
" transform="scale(0.015625)"/>
       </defs>
       <use xlink:href="#DejaVuSans-31" transform="translate(0 0.765625)"/>
       <use xlink:href="#DejaVuSans-30" transform="translate(63.623047 0.765625)"/>
       <use xlink:href="#DejaVuSans-2212" transform="translate(128.203125 39.046875) scale(0.7)"/>
       <use xlink:href="#DejaVuSans-33" transform="translate(186.855469 39.046875) scale(0.7)"/>
      </g>
     </g>
    </g>
    <g id="ytick_3">
     <g id="line2d_23">
      <path d="M 148.197319 308.4963 
L 685.035 308.4963 
" clip-path="url(#p0f3e58000c)" style="fill: none; stroke: #b0b0b0; stroke-width: 0.8; stroke-linecap: square"/>
     </g>
     <g id="line2d_24">
      <g>
       <use xlink:href="#m7b504329b2" x="148.197319" y="308.4963" style="stroke: #000000; stroke-width: 0.8"/>
      </g>
     </g>
     <g id="text_13">
      <!-- $\mathdefault{10^{-2}}$ -->
      <g transform="translate(82.447319 317.994347) scale(0.25 -0.25)">
       <use xlink:href="#DejaVuSans-31" transform="translate(0 0.765625)"/>
       <use xlink:href="#DejaVuSans-30" transform="translate(63.623047 0.765625)"/>
       <use xlink:href="#DejaVuSans-2212" transform="translate(128.203125 39.046875) scale(0.7)"/>
       <use xlink:href="#DejaVuSans-32" transform="translate(186.855469 39.046875) scale(0.7)"/>
      </g>
     </g>
    </g>
    <g id="ytick_4">
     <g id="line2d_25">
      <path d="M 148.197319 218.1682 
L 685.035 218.1682 
" clip-path="url(#p0f3e58000c)" style="fill: none; stroke: #b0b0b0; stroke-width: 0.8; stroke-linecap: square"/>
     </g>
     <g id="line2d_26">
      <g>
       <use xlink:href="#m7b504329b2" x="148.197319" y="218.1682" style="stroke: #000000; stroke-width: 0.8"/>
      </g>
     </g>
     <g id="text_14">
      <!-- $\mathdefault{10^{-1}}$ -->
      <g transform="translate(82.447319 227.666247) scale(0.25 -0.25)">
       <use xlink:href="#DejaVuSans-31" transform="translate(0 0.684375)"/>
       <use xlink:href="#DejaVuSans-30" transform="translate(63.623047 0.684375)"/>
       <use xlink:href="#DejaVuSans-2212" transform="translate(128.203125 38.965625) scale(0.7)"/>
       <use xlink:href="#DejaVuSans-31" transform="translate(186.855469 38.965625) scale(0.7)"/>
      </g>
     </g>
    </g>
    <g id="ytick_5">
     <g id="line2d_27">
      <path d="M 148.197319 127.8401 
L 685.035 127.8401 
" clip-path="url(#p0f3e58000c)" style="fill: none; stroke: #b0b0b0; stroke-width: 0.8; stroke-linecap: square"/>
     </g>
     <g id="line2d_28">
      <g>
       <use xlink:href="#m7b504329b2" x="148.197319" y="127.8401" style="stroke: #000000; stroke-width: 0.8"/>
      </g>
     </g>
     <g id="text_15">
      <!-- $\mathdefault{10^{0}}$ -->
      <g transform="translate(97.197319 137.338147) scale(0.25 -0.25)">
       <use xlink:href="#DejaVuSans-31" transform="translate(0 0.765625)"/>
       <use xlink:href="#DejaVuSans-30" transform="translate(63.623047 0.765625)"/>
       <use xlink:href="#DejaVuSans-30" transform="translate(128.203125 39.046875) scale(0.7)"/>
      </g>
     </g>
    </g>
    <g id="ytick_6">
     <g id="line2d_29">
      <path d="M 148.197319 37.512 
L 685.035 37.512 
" clip-path="url(#p0f3e58000c)" style="fill: none; stroke: #b0b0b0; stroke-width: 0.8; stroke-linecap: square"/>
     </g>
     <g id="line2d_30">
      <g>
       <use xlink:href="#m7b504329b2" x="148.197319" y="37.512" style="stroke: #000000; stroke-width: 0.8"/>
      </g>
     </g>
     <g id="text_16">
      <!-- $\mathdefault{10^{1}}$ -->
      <g transform="translate(97.197319 47.010047) scale(0.25 -0.25)">
       <use xlink:href="#DejaVuSans-31" transform="translate(0 0.684375)"/>
       <use xlink:href="#DejaVuSans-30" transform="translate(63.623047 0.684375)"/>
       <use xlink:href="#DejaVuSans-31" transform="translate(128.203125 38.965625) scale(0.7)"/>
      </g>
     </g>
    </g>
    <g id="ytick_7">
     <g id="line2d_31">
      <defs>
       <path id="m30835d0c22" d="M 0 0 
L -2 0 
" style="stroke: #000000; stroke-width: 0.6"/>
      </defs>
      <g>
       <use xlink:href="#m30835d0c22" x="148.197319" y="461.961032" style="stroke: #000000; stroke-width: 0.6"/>
      </g>
     </g>
    </g>
    <g id="ytick_8">
     <g id="line2d_32">
      <g>
       <use xlink:href="#m30835d0c22" x="148.197319" y="446.055044" style="stroke: #000000; stroke-width: 0.6"/>
      </g>
     </g>
    </g>
    <g id="ytick_9">
     <g id="line2d_33">
      <g>
       <use xlink:href="#m30835d0c22" x="148.197319" y="434.769565" style="stroke: #000000; stroke-width: 0.6"/>
      </g>
     </g>
    </g>
    <g id="ytick_10">
     <g id="line2d_34">
      <g>
       <use xlink:href="#m30835d0c22" x="148.197319" y="426.015868" style="stroke: #000000; stroke-width: 0.6"/>
      </g>
     </g>
    </g>
    <g id="ytick_11">
     <g id="line2d_35">
      <g>
       <use xlink:href="#m30835d0c22" x="148.197319" y="418.863576" style="stroke: #000000; stroke-width: 0.6"/>
      </g>
     </g>
    </g>
    <g id="ytick_12">
     <g id="line2d_36">
      <g>
       <use xlink:href="#m30835d0c22" x="148.197319" y="412.8164" style="stroke: #000000; stroke-width: 0.6"/>
      </g>
     </g>
    </g>
    <g id="ytick_13">
     <g id="line2d_37">
      <g>
       <use xlink:href="#m30835d0c22" x="148.197319" y="407.578097" style="stroke: #000000; stroke-width: 0.6"/>
      </g>
     </g>
    </g>
    <g id="ytick_14">
     <g id="line2d_38">
      <g>
       <use xlink:href="#m30835d0c22" x="148.197319" y="402.957587" style="stroke: #000000; stroke-width: 0.6"/>
      </g>
     </g>
    </g>
    <g id="ytick_15">
     <g id="line2d_39">
      <g>
       <use xlink:href="#m30835d0c22" x="148.197319" y="371.632932" style="stroke: #000000; stroke-width: 0.6"/>
      </g>
     </g>
    </g>
    <g id="ytick_16">
     <g id="line2d_40">
      <g>
       <use xlink:href="#m30835d0c22" x="148.197319" y="355.726944" style="stroke: #000000; stroke-width: 0.6"/>
      </g>
     </g>
    </g>
    <g id="ytick_17">
     <g id="line2d_41">
      <g>
       <use xlink:href="#m30835d0c22" x="148.197319" y="344.441465" style="stroke: #000000; stroke-width: 0.6"/>
      </g>
     </g>
    </g>
    <g id="ytick_18">
     <g id="line2d_42">
      <g>
       <use xlink:href="#m30835d0c22" x="148.197319" y="335.687768" style="stroke: #000000; stroke-width: 0.6"/>
      </g>
     </g>
    </g>
    <g id="ytick_19">
     <g id="line2d_43">
      <g>
       <use xlink:href="#m30835d0c22" x="148.197319" y="328.535476" style="stroke: #000000; stroke-width: 0.6"/>
      </g>
     </g>
    </g>
    <g id="ytick_20">
     <g id="line2d_44">
      <g>
       <use xlink:href="#m30835d0c22" x="148.197319" y="322.4883" style="stroke: #000000; stroke-width: 0.6"/>
      </g>
     </g>
    </g>
    <g id="ytick_21">
     <g id="line2d_45">
      <g>
       <use xlink:href="#m30835d0c22" x="148.197319" y="317.249997" style="stroke: #000000; stroke-width: 0.6"/>
      </g>
     </g>
    </g>
    <g id="ytick_22">
     <g id="line2d_46">
      <g>
       <use xlink:href="#m30835d0c22" x="148.197319" y="312.629487" style="stroke: #000000; stroke-width: 0.6"/>
      </g>
     </g>
    </g>
    <g id="ytick_23">
     <g id="line2d_47">
      <g>
       <use xlink:href="#m30835d0c22" x="148.197319" y="281.304832" style="stroke: #000000; stroke-width: 0.6"/>
      </g>
     </g>
    </g>
    <g id="ytick_24">
     <g id="line2d_48">
      <g>
       <use xlink:href="#m30835d0c22" x="148.197319" y="265.398844" style="stroke: #000000; stroke-width: 0.6"/>
      </g>
     </g>
    </g>
    <g id="ytick_25">
     <g id="line2d_49">
      <g>
       <use xlink:href="#m30835d0c22" x="148.197319" y="254.113365" style="stroke: #000000; stroke-width: 0.6"/>
      </g>
     </g>
    </g>
    <g id="ytick_26">
     <g id="line2d_50">
      <g>
       <use xlink:href="#m30835d0c22" x="148.197319" y="245.359668" style="stroke: #000000; stroke-width: 0.6"/>
      </g>
     </g>
    </g>
    <g id="ytick_27">
     <g id="line2d_51">
      <g>
       <use xlink:href="#m30835d0c22" x="148.197319" y="238.207376" style="stroke: #000000; stroke-width: 0.6"/>
      </g>
     </g>
    </g>
    <g id="ytick_28">
     <g id="line2d_52">
      <g>
       <use xlink:href="#m30835d0c22" x="148.197319" y="232.1602" style="stroke: #000000; stroke-width: 0.6"/>
      </g>
     </g>
    </g>
    <g id="ytick_29">
     <g id="line2d_53">
      <g>
       <use xlink:href="#m30835d0c22" x="148.197319" y="226.921897" style="stroke: #000000; stroke-width: 0.6"/>
      </g>
     </g>
    </g>
    <g id="ytick_30">
     <g id="line2d_54">
      <g>
       <use xlink:href="#m30835d0c22" x="148.197319" y="222.301387" style="stroke: #000000; stroke-width: 0.6"/>
      </g>
     </g>
    </g>
    <g id="ytick_31">
     <g id="line2d_55">
      <g>
       <use xlink:href="#m30835d0c22" x="148.197319" y="190.976732" style="stroke: #000000; stroke-width: 0.6"/>
      </g>
     </g>
    </g>
    <g id="ytick_32">
     <g id="line2d_56">
      <g>
       <use xlink:href="#m30835d0c22" x="148.197319" y="175.070744" style="stroke: #000000; stroke-width: 0.6"/>
      </g>
     </g>
    </g>
    <g id="ytick_33">
     <g id="line2d_57">
      <g>
       <use xlink:href="#m30835d0c22" x="148.197319" y="163.785265" style="stroke: #000000; stroke-width: 0.6"/>
      </g>
     </g>
    </g>
    <g id="ytick_34">
     <g id="line2d_58">
      <g>
       <use xlink:href="#m30835d0c22" x="148.197319" y="155.031568" style="stroke: #000000; stroke-width: 0.6"/>
      </g>
     </g>
    </g>
    <g id="ytick_35">
     <g id="line2d_59">
      <g>
       <use xlink:href="#m30835d0c22" x="148.197319" y="147.879276" style="stroke: #000000; stroke-width: 0.6"/>
      </g>
     </g>
    </g>
    <g id="ytick_36">
     <g id="line2d_60">
      <g>
       <use xlink:href="#m30835d0c22" x="148.197319" y="141.8321" style="stroke: #000000; stroke-width: 0.6"/>
      </g>
     </g>
    </g>
    <g id="ytick_37">
     <g id="line2d_61">
      <g>
       <use xlink:href="#m30835d0c22" x="148.197319" y="136.593797" style="stroke: #000000; stroke-width: 0.6"/>
      </g>
     </g>
    </g>
    <g id="ytick_38">
     <g id="line2d_62">
      <g>
       <use xlink:href="#m30835d0c22" x="148.197319" y="131.973287" style="stroke: #000000; stroke-width: 0.6"/>
      </g>
     </g>
    </g>
    <g id="ytick_39">
     <g id="line2d_63">
      <g>
       <use xlink:href="#m30835d0c22" x="148.197319" y="100.648632" style="stroke: #000000; stroke-width: 0.6"/>
      </g>
     </g>
    </g>
    <g id="ytick_40">
     <g id="line2d_64">
      <g>
       <use xlink:href="#m30835d0c22" x="148.197319" y="84.742644" style="stroke: #000000; stroke-width: 0.6"/>
      </g>
     </g>
    </g>
    <g id="ytick_41">
     <g id="line2d_65">
      <g>
       <use xlink:href="#m30835d0c22" x="148.197319" y="73.457165" style="stroke: #000000; stroke-width: 0.6"/>
      </g>
     </g>
    </g>
    <g id="ytick_42">
     <g id="line2d_66">
      <g>
       <use xlink:href="#m30835d0c22" x="148.197319" y="64.703468" style="stroke: #000000; stroke-width: 0.6"/>
      </g>
     </g>
    </g>
    <g id="ytick_43">
     <g id="line2d_67">
      <g>
       <use xlink:href="#m30835d0c22" x="148.197319" y="57.551176" style="stroke: #000000; stroke-width: 0.6"/>
      </g>
     </g>
    </g>
    <g id="ytick_44">
     <g id="line2d_68">
      <g>
       <use xlink:href="#m30835d0c22" x="148.197319" y="51.504" style="stroke: #000000; stroke-width: 0.6"/>
      </g>
     </g>
    </g>
    <g id="ytick_45">
     <g id="line2d_69">
      <g>
       <use xlink:href="#m30835d0c22" x="148.197319" y="46.265697" style="stroke: #000000; stroke-width: 0.6"/>
      </g>
     </g>
    </g>
    <g id="ytick_46">
     <g id="line2d_70">
      <g>
       <use xlink:href="#m30835d0c22" x="148.197319" y="41.645187" style="stroke: #000000; stroke-width: 0.6"/>
      </g>
     </g>
    </g>
    <g id="text_17">
     <!-- $\rho$($\omega$) -->
     <g transform="translate(26.447319 258.08225) scale(0.25 -0.25)">
      <defs>
       <path id="DejaVuSans-Oblique-3c1" d="M 1203 2875 
Q 1453 3194 1981 3475 
Q 2188 3584 2756 3584 
Q 3394 3584 3694 3078 
Q 3994 2572 3834 1747 
Q 3672 922 3175 415 
Q 2678 -91 2041 -91 
Q 1656 -91 1409 63 
Q 1163 213 1044 525 
L 681 -1331 
L 103 -1331 
L 697 1716 
Q 838 2438 1203 2875 
z
M 3238 1747 
Q 3359 2381 3169 2744 
Q 2978 3103 2522 3103 
Q 2066 3103 1734 2744 
Q 1403 2381 1281 1747 
Q 1156 1113 1347 750 
Q 1538 391 1994 391 
Q 2450 391 2781 750 
Q 3113 1113 3238 1747 
z
" transform="scale(0.015625)"/>
       <path id="Calibri-28" d="M 1547 4306 
Q 1250 3678 1104 3017 
Q 959 2356 959 1688 
Q 959 1016 1107 356 
Q 1256 -303 1541 -938 
Q 1556 -975 1557 -1001 
Q 1559 -1028 1537 -1045 
Q 1516 -1063 1470 -1070 
Q 1425 -1078 1347 -1078 
Q 1291 -1078 1250 -1075 
Q 1209 -1072 1179 -1062 
Q 1150 -1053 1131 -1040 
Q 1113 -1028 1103 -1013 
Q 934 -694 806 -367 
Q 678 -41 590 296 
Q 503 634 459 979 
Q 416 1325 416 1678 
Q 416 2031 464 2375 
Q 513 2719 602 3058 
Q 691 3397 819 3725 
Q 947 4053 1106 4375 
Q 1109 4388 1123 4397 
Q 1138 4406 1163 4415 
Q 1188 4425 1231 4429 
Q 1275 4434 1344 4434 
Q 1416 4434 1459 4425 
Q 1503 4416 1528 4400 
Q 1553 4384 1556 4359 
Q 1559 4334 1547 4306 
z
" transform="scale(0.015625)"/>
       <path id="Calibri-29" d="M 1522 1678 
Q 1522 1325 1478 979 
Q 1434 634 1346 296 
Q 1259 -41 1132 -367 
Q 1006 -694 838 -1013 
Q 828 -1028 809 -1040 
Q 791 -1053 761 -1062 
Q 731 -1072 690 -1075 
Q 650 -1078 594 -1078 
Q 513 -1078 467 -1070 
Q 422 -1063 401 -1045 
Q 381 -1028 382 -1001 
Q 384 -975 400 -938 
Q 688 -306 834 355 
Q 981 1016 981 1688 
Q 981 2356 834 3017 
Q 688 3678 394 4306 
Q 381 4334 384 4359 
Q 388 4384 413 4400 
Q 438 4416 481 4425 
Q 525 4434 597 4434 
Q 663 4434 706 4429 
Q 750 4425 776 4415 
Q 803 4406 815 4397 
Q 828 4388 834 4375 
Q 1156 3734 1339 3057 
Q 1522 2381 1522 1678 
z
" transform="scale(0.015625)"/>
      </defs>
      <use xlink:href="#DejaVuSans-Oblique-3c1" transform="translate(0 0.71875)"/>
      <use xlink:href="#Calibri-28" transform="translate(63.476562 0.71875)"/>
      <use xlink:href="#DejaVuSans-Oblique-3c9" transform="translate(93.798828 0.71875)"/>
      <use xlink:href="#Calibri-29" transform="translate(177.539062 0.71875)"/>
     </g>
    </g>
   </g>
   <g id="line2d_71">
    <path d="M 148.197319 401.924147 
L 162.020889 399.143312 
L 174.636575 396.383285 
L 186.312795 393.603275 
L 196.915339 390.854735 
L 206.712626 388.088442 
L 215.704658 385.320877 
L 223.891432 382.5739 
L 231.40716 379.824512 
L 238.38605 377.038728 
L 244.828102 374.229627 
L 250.733316 371.415143 
L 256.235902 368.545953 
L 261.201651 365.712538 
L 265.898981 362.777084 
L 270.193682 359.833299 
L 274.219965 356.802858 
L 277.977829 353.69037 
L 281.467273 350.504169 
L 284.6883 347.257541 
L 287.640907 343.970201 
L 290.459305 340.496068 
L 293.009284 337.010028 
L 295.425053 333.342668 
L 297.706613 329.482558 
L 299.853964 325.419633 
L 301.867105 321.14641 
L 303.746037 316.659685 
L 305.624969 311.57699 
L 307.369692 306.191886 
L 308.980205 300.507268 
L 310.590718 293.956701 
L 312.067021 286.984493 
L 313.409115 279.619163 
L 314.75121 270.995462 
L 315.959094 261.843667 
L 317.166979 250.968002 
L 318.240655 239.407483 
L 319.31433 225.514254 
L 320.388005 208.650574 
L 321.59589 185.810923 
L 322.803775 163.280353 
L 323.206403 158.820833 
L 323.474822 157.569806 
L 323.609031 157.534553 
L 323.743241 157.900351 
L 324.01166 159.784153 
L 324.414288 165.044074 
L 325.085335 177.646959 
L 326.964267 214.170418 
L 328.037942 230.384171 
L 329.111618 243.25856 
L 330.185293 253.341869 
L 331.124759 260.228842 
L 332.064225 265.551278 
L 332.869481 269.00574 
L 333.674738 271.535844 
L 334.345785 272.994094 
L 335.016832 273.901903 
L 335.55367 274.253713 
L 335.956298 274.308604 
L 336.358926 274.190216 
L 336.895764 273.770574 
L 337.432602 273.059793 
L 338.103649 271.771992 
L 338.908905 269.65108 
L 339.714162 266.904633 
L 340.653628 262.894903 
L 341.727303 257.193442 
L 342.800978 250.17797 
L 343.874654 241.642212 
L 344.948329 231.260605 
L 346.022005 218.524288 
L 346.961471 204.82781 
L 347.900936 187.904052 
L 348.840402 166.657097 
L 350.048287 132.973903 
L 350.585125 119.982665 
L 350.853544 116.390923 
L 350.987753 115.694694 
L 351.121963 115.807211 
L 351.390381 118.40164 
L 351.79301 126.966877 
L 354.477198 197.057138 
L 355.550873 215.729817 
L 356.624549 230.326123 
L 357.564015 240.376826 
L 358.503481 248.072307 
L 359.174528 252.030909 
L 359.711365 254.109132 
L 360.113994 254.89543 
L 360.382413 254.977702 
L 360.650831 254.643824 
L 360.91925 253.82579 
L 361.321878 251.506096 
L 361.724507 247.567509 
L 362.127135 241.631708 
L 362.663973 230.237907 
L 363.469229 211.062877 
L 363.737648 208.682608 
L 363.871857 209.027071 
L 364.140276 212.703678 
L 364.677114 226.97304 
L 365.482371 248.157425 
L 366.153418 260.28828 
L 366.824465 268.316513 
L 367.495512 273.534799 
L 368.032349 276.290049 
L 368.569187 278.106584 
L 369.106025 279.180102 
L 369.508653 279.579241 
L 369.911281 279.675766 
L 370.31391 279.499642 
L 370.716538 279.073376 
L 371.253376 278.144176 
L 371.924423 276.439271 
L 372.729679 273.633096 
L 373.534936 270.008157 
L 374.474402 264.7106 
L 375.413868 258.163901 
L 376.353334 250.185619 
L 377.292799 240.479075 
L 378.232265 228.567437 
L 379.171731 213.659438 
L 379.976988 197.463287 
L 380.782244 176.463202 
L 381.453292 153.20897 
L 382.124339 121.859882 
L 382.929595 81.366355 
L 383.063805 79.684589 
L 383.198014 81.077312 
L 383.466433 91.517421 
L 384.808527 161.469285 
L 385.613784 189.411674 
L 386.553249 213.809144 
L 387.626925 235.29545 
L 388.7006 252.524096 
L 389.908485 268.546923 
L 391.250579 283.456084 
L 392.726883 297.340756 
L 394.337396 310.268504 
L 395.947909 321.411874 
L 397.558422 331.107182 
L 399.168935 339.555127 
L 400.779448 346.859922 
L 402.255752 352.574028 
L 403.597846 356.922678 
L 404.805731 360.087812 
L 405.745197 362.003181 
L 406.550453 363.217285 
L 407.2215 363.891679 
L 407.758338 364.186025 
L 408.295176 364.239714 
L 408.832013 364.027707 
L 409.368851 363.520215 
L 409.905689 362.681469 
L 410.442526 361.467972 
L 411.113573 359.340919 
L 411.78462 356.40566 
L 412.455668 352.469479 
L 413.126715 347.246263 
L 413.797762 340.276347 
L 414.468809 330.734634 
L 415.005647 320.13851 
L 415.542484 304.728568 
L 415.945113 286.533744 
L 416.213531 266.594454 
L 416.48195 223.546987 
L 416.537498 -1 
M 416.694821 -1 
L 416.750369 223.546987 
L 417.018788 266.594454 
L 417.421416 293.617437 
L 417.958254 313.258663 
L 418.629301 328.393067 
L 419.300348 338.61056 
L 420.105605 347.246263 
L 420.910861 353.348717 
L 421.716118 357.687521 
L 422.521374 360.704382 
L 423.192421 362.415129 
L 423.863468 363.520215 
L 424.400306 364.027707 
L 424.937144 364.239714 
L 425.473981 364.186025 
L 426.010819 363.891679 
L 426.681866 363.217285 
L 427.487123 362.003181 
L 428.426589 360.087812 
L 429.500264 357.310779 
L 430.708149 353.509987 
L 432.050243 348.512043 
L 433.526547 342.1143 
L 435.13706 334.054862 
L 436.747573 324.792337 
L 438.358086 314.161183 
L 439.834389 302.973317 
L 441.310693 290.047035 
L 442.652787 276.320921 
L 443.860672 261.786089 
L 445.068557 244.334331 
L 446.142232 225.211049 
L 447.081698 204.165106 
L 447.886955 181.008173 
L 448.558002 155.885636 
L 449.229049 122.58041 
L 450.034305 81.077312 
L 450.168515 79.684589 
L 450.302724 81.366355 
L 450.571143 91.95829 
L 451.779028 153.20897 
L 452.584284 180.398992 
L 453.389541 200.44106 
L 454.329007 218.290109 
L 455.268473 232.23395 
L 456.342148 244.875981 
L 457.415823 254.93409 
L 458.489499 262.973838 
L 459.563174 269.32325 
L 460.50264 273.633096 
L 461.307897 276.439271 
L 461.978944 278.144176 
L 462.515781 279.073376 
L 463.052619 279.587122 
L 463.455247 279.675192 
L 463.857876 279.481554 
L 464.260504 278.973271 
L 464.663132 278.106584 
L 465.19997 276.290049 
L 465.736807 273.534799 
L 466.273645 269.550848 
L 466.810483 263.911003 
L 467.34732 256.010645 
L 467.884158 245.116952 
L 468.689415 223.041722 
L 469.226252 210.408575 
L 469.494671 208.682608 
L 469.628881 209.39273 
L 469.897299 213.512707 
L 471.507812 247.567509 
L 472.04465 252.441002 
L 472.447278 254.300132 
L 472.715697 254.866707 
L 472.984116 254.984862 
L 473.252535 254.715898 
L 473.655163 253.691685 
L 474.192001 251.35186 
L 474.863048 247.120213 
L 475.668304 240.376826 
L 476.60777 230.326123 
L 477.547236 217.755718 
L 478.486702 202.172653 
L 479.426168 182.728641 
L 480.365634 158.41627 
L 481.841938 118.40164 
L 482.110357 115.807211 
L 482.244566 115.694694 
L 482.378776 116.390923 
L 482.647194 119.982665 
L 483.184032 132.973903 
L 484.794545 176.364522 
L 485.734011 195.618018 
L 486.807686 212.99001 
L 487.881362 226.795631 
L 488.955037 237.987868 
L 490.162922 248.196866 
L 491.370807 256.391692 
L 492.444482 262.249198 
L 493.518157 266.904633 
L 494.457623 270.047927 
L 495.26288 272.064635 
L 495.933927 273.264375 
L 496.604974 274.017295 
L 497.141812 274.288157 
L 497.54444 274.291571 
L 497.947068 274.118314 
L 498.483906 273.602647 
L 499.020744 272.747607 
L 499.691791 271.174918 
L 500.362838 269.00574 
L 501.168094 265.551278 
L 501.973351 261.080317 
L 502.912817 254.429565 
L 503.852283 246.021516 
L 504.791749 235.572583 
L 505.731215 222.72966 
L 506.80489 204.664778 
L 508.281194 174.920122 
L 508.952241 163.01711 
L 509.354869 158.657337 
L 509.623288 157.534553 
L 509.757497 157.569806 
L 509.891707 158.0035 
L 510.160125 159.996274 
L 510.562754 165.307445 
L 511.36801 180.388707 
L 512.978523 210.94084 
L 514.186408 229.240648 
L 515.394293 243.984234 
L 516.602178 256.04569 
L 517.944272 267.112443 
L 519.286366 276.339212 
L 520.76267 284.889071 
L 522.238973 292.157055 
L 523.849486 298.958984 
L 525.459999 304.841331 
L 527.204722 310.396663 
L 529.083654 315.625183 
L 531.096795 320.53733 
L 533.109936 324.877913 
L 535.257287 328.999276 
L 537.538847 332.910051 
L 539.954617 336.621367 
L 542.504596 340.145597 
L 545.322994 343.654496 
L 548.275601 346.971877 
L 551.496627 350.245615 
L 554.851862 353.338336 
L 558.475517 356.376241 
L 562.36759 359.347751 
L 566.528082 362.245457 
L 571.091202 365.146767 
L 575.922741 367.954442 
L 581.156909 370.73897 
L 586.793704 373.486553 
L 592.967338 376.244855 
L 599.677809 378.993139 
L 606.925117 381.715851 
L 614.709264 384.401676 
L 623.164457 387.083541 
L 632.424907 389.784088 
L 642.490614 392.483379 
L 653.361577 395.16628 
L 665.172006 397.850892 
L 678.05611 400.549381 
L 685.035 401.924147 
L 685.035 401.924147 
" clip-path="url(#p0f3e58000c)" style="fill: none; stroke-dasharray: 14.8,6.4; stroke-dashoffset: 0; stroke: #ff0000; stroke-width: 4"/>
   </g>
   <g id="line2d_72">
    <path d="M 148.197319 374.75534 
L 155.713047 369.410316 
L 160.813005 366.074373 
L 162.960355 364.328369 
L 168.731361 359.442434 
L 171.14713 357.677199 
L 173.965528 355.170879 
L 175.978669 353.591666 
L 184.165444 347.579198 
L 187.923308 344.478468 
L 189.533821 343.495653 
L 192.620637 341.710666 
L 194.096941 340.55455 
L 196.244292 338.532845 
L 203.223181 331.889761 
L 205.370532 330.007654 
L 206.578417 329.252839 
L 207.920511 328.717808 
L 210.738909 327.646516 
L 212.617841 326.749676 
L 214.362563 325.637009 
L 217.046752 323.634186 
L 218.925684 321.984423 
L 220.938825 319.882505 
L 222.817757 317.635286 
L 224.29406 315.476714 
L 226.978249 311.427065 
L 228.722971 309.32895 
L 231.004531 306.53744 
L 233.286092 303.676329 
L 234.225558 302.886522 
L 235.165024 302.393584 
L 236.238699 302.080476 
L 237.849212 301.87373 
L 239.057097 301.6337 
L 239.862353 301.235181 
L 240.801819 300.487807 
L 243.083379 298.502089 
L 244.291264 297.841579 
L 246.170196 296.847961 
L 247.51229 295.808089 
L 251.806992 291.962265 
L 253.685923 289.986653 
L 255.028018 288.299851 
L 256.90695 285.440416 
L 258.114834 283.834832 
L 258.920091 283.080315 
L 259.725347 282.601667 
L 263.75163 280.685404 
L 265.227934 279.863078 
L 266.03319 279.115095 
L 266.838447 277.987558 
L 267.777913 276.220043 
L 270.998939 269.673604 
L 272.072614 268.196913 
L 273.01208 267.242264 
L 273.817337 266.717041 
L 274.488384 266.51719 
L 276.769944 266.150574 
L 277.306781 265.749749 
L 277.843619 265.101064 
L 278.514666 263.895761 
L 279.319923 261.925256 
L 281.064645 256.796624 
L 284.55409 246.737095 
L 285.090928 245.947741 
L 285.493556 245.683906 
L 285.896184 245.665297 
L 286.433022 245.907879 
L 288.580373 247.260457 
L 289.11721 247.281332 
L 289.788258 247.059206 
L 291.398771 246.375241 
L 292.472446 246.252637 
L 295.425053 246.322485 
L 298.109242 246.554925 
L 299.317126 246.735747 
L 299.853964 246.596111 
L 300.390802 246.228722 
L 301.061849 245.469662 
L 303.2092 242.706359 
L 303.746037 242.495405 
L 304.148665 242.559921 
L 304.685503 242.885332 
L 305.893388 244.000448 
L 308.040739 245.973746 
L 308.577576 246.227741 
L 308.980205 246.250451 
L 309.382833 246.075243 
L 309.785461 245.649074 
L 310.188089 244.924553 
L 310.724927 243.465228 
L 311.530184 240.48025 
L 314.75121 227.139496 
L 316.764351 217.63674 
L 317.838026 213.624937 
L 318.777492 210.962046 
L 321.59589 203.79248 
L 323.340613 198.435864 
L 323.87745 197.562983 
L 324.145869 197.436254 
L 324.414288 197.597053 
L 324.682707 198.113251 
L 325.085335 199.68377 
L 325.487963 202.313538 
L 326.024801 207.469422 
L 326.830057 218.114944 
L 328.843199 246.844461 
L 329.648455 254.6663 
L 330.319502 259.213832 
L 330.99055 262.264696 
L 331.527387 263.839256 
L 332.064225 264.79411 
L 332.466853 265.173166 
L 332.869481 265.291684 
L 333.27211 265.152415 
L 333.674738 264.74148 
L 334.077366 264.036686 
L 334.614204 262.608708 
L 335.285251 260.017539 
L 336.358926 254.554973 
L 338.103649 244.722908 
L 338.908905 238.418546 
L 340.787837 221.005281 
L 341.861513 208.438422 
L 343.337816 191.076292 
L 343.874654 187.45154 
L 344.277282 186.096438 
L 344.67991 185.458194 
L 345.082539 185.20445 
L 345.350957 185.286819 
L 345.619376 185.648764 
L 346.022005 186.736103 
L 347.632518 192.272534 
L 348.169355 192.955519 
L 348.571984 193.195374 
L 348.974612 193.171553 
L 349.243031 192.931716 
L 349.51145 192.428465 
L 349.914078 191.08907 
L 350.585125 187.706535 
L 351.256172 184.418207 
L 351.6588 183.223872 
L 352.061428 182.599036 
L 352.329847 182.474884 
L 352.598266 182.678525 
L 352.866685 183.2825 
L 353.403523 185.435215 
L 354.342989 190.293951 
L 354.879826 194.60813 
L 357.429805 218.814618 
L 358.503481 232.479357 
L 360.113994 252.915747 
L 360.650831 257.081738 
L 360.91925 258.067126 
L 361.05346 258.24434 
L 361.187669 258.201433 
L 361.456088 257.437919 
L 361.724507 255.758318 
L 362.127135 251.517136 
L 362.663973 242.778346 
L 363.737648 223.393507 
L 364.006067 221.953344 
L 364.140276 222.306366 
L 364.408695 225.282295 
L 364.811323 234.093877 
L 365.884999 260.347435 
L 366.421836 268.642217 
L 366.958674 273.607408 
L 367.361302 275.697938 
L 367.763931 276.763636 
L 368.032349 277.048082 
L 368.300768 277.006165 
L 368.569187 276.576622 
L 368.971815 275.156333 
L 369.374444 272.822775 
L 370.045491 267.270558 
L 371.790213 251.191466 
L 373.132307 231.800818 
L 373.803355 226.593787 
L 374.340192 222.098622 
L 374.87703 217.783129 
L 375.548077 214.458187 
L 375.816496 213.914514 
L 375.950705 214.001812 
L 376.219124 214.918737 
L 376.755962 218.551117 
L 377.15859 220.800094 
L 377.292799 221.058102 
L 377.427009 220.968906 
L 377.695428 219.870654 
L 378.903313 211.796639 
L 379.57436 206.040471 
L 379.842778 205.138893 
L 379.976988 205.092035 
L 380.379616 205.193932 
L 380.648035 204.807747 
L 381.050663 203.60034 
L 381.319082 202.01886 
L 382.795386 189.519231 
L 383.332223 184.186389 
L 383.600642 183.486548 
L 383.734852 183.708306 
L 384.00327 184.864548 
L 385.076946 190.654189 
L 385.345365 190.779932 
L 385.747993 190.817734 
L 386.016412 191.543792 
L 386.284831 192.38384 
L 386.41904 192.37732 
L 386.687459 191.358847 
L 387.492715 187.540317 
L 387.895344 186.465439 
L 388.163763 185.660861 
L 388.432181 183.441024 
L 388.7006 179.19657 
L 389.103228 167.466601 
L 389.505857 146.886464 
L 390.042694 118.034719 
L 390.176904 116.690342 
L 390.311113 118.412893 
L 390.713742 133.642961 
L 391.250579 150.152526 
L 391.787417 172.112126 
L 392.861092 216.946361 
L 393.26372 226.15488 
L 393.39793 227.108168 
L 393.532139 226.768549 
L 393.800558 222.940729 
L 394.068977 218.663641 
L 394.203186 218.027034 
L 394.337396 219.289271 
L 394.605815 226.902223 
L 395.276862 248.065097 
L 396.216328 269.027876 
L 396.484747 271.510701 
L 396.887375 277.484354 
L 397.021584 277.71238 
L 397.290003 276.472154 
L 397.558422 277.905656 
L 397.96105 282.41684 
L 398.229469 281.56485 
L 398.363678 283.041341 
L 399.839982 321.955209 
L 400.511029 330.075231 
L 401.316286 336.878597 
L 401.987333 341.243097 
L 402.52417 345.428485 
L 403.866265 353.091421 
L 405.208359 358.943785 
L 406.147825 362.276897 
L 406.953081 364.383724 
L 407.758338 365.900939 
L 408.160966 366.230899 
L 408.697804 366.202974 
L 408.832013 366.04608 
L 409.100432 365.411037 
L 409.368851 365.09705 
L 409.63727 364.205284 
L 409.771479 364.109969 
L 409.905689 363.673873 
L 410.174107 358.368451 
L 410.308317 360.967642 
L 410.442526 360.91497 
L 410.576736 359.636281 
L 410.845155 363.077207 
L 410.979364 362.754062 
L 411.247783 357.41766 
L 411.381992 360.367298 
L 411.516202 358.738823 
L 411.650411 349.882949 
L 411.78462 351.83263 
L 411.91883 358.846696 
L 412.053039 360.016412 
L 412.187249 359.294909 
L 412.321458 356.108382 
L 412.455668 344.573268 
L 412.724086 356.173058 
L 412.858296 355.150437 
L 413.126715 339.655186 
L 413.260924 350.382105 
L 413.395134 350.119481 
L 413.663552 344.62226 
L 414.066181 307.910909 
L 414.20039 310.507447 
L 414.468809 325.585488 
L 414.603018 326.293214 
L 414.737228 316.700525 
L 414.871437 290.612479 
L 415.005647 291.484389 
L 415.139856 293.38345 
L 415.274065 269.272107 
L 415.408275 286.391372 
L 415.676694 254.177354 
L 415.810903 258.871689 
L 415.945113 306.947492 
L 416.079322 219.414334 
L 416.213531 265.370656 
L 416.347741 169.771023 
L 416.48195 186.2379 
L 416.482531 577 
M 416.749855 577 
L 416.750369 231.73261 
L 416.884578 136.562687 
L 417.018788 144.753929 
L 417.152997 101.613207 
L 417.287207 108.988802 
L 417.421416 169.639902 
L 417.555626 174.96798 
L 417.689835 169.218265 
L 417.824044 211.630635 
L 417.958254 201.264754 
L 418.092463 249.640678 
L 418.226673 251.517414 
L 418.360882 264.741682 
L 418.495091 247.573691 
L 418.629301 249.626227 
L 418.76351 275.170778 
L 418.89772 272.64271 
L 419.031929 276.009568 
L 419.300348 304.346671 
L 419.568767 295.693991 
L 419.837186 325.990638 
L 419.971395 323.436977 
L 420.239814 311.985281 
L 420.374023 316.573836 
L 420.508233 315.212368 
L 420.776652 331.89692 
L 420.910861 336.556477 
L 421.04507 331.87486 
L 421.313489 343.751577 
L 421.447699 339.767288 
L 421.716118 347.368697 
L 421.984536 348.075253 
L 422.252955 350.402149 
L 423.058212 355.548698 
L 423.192421 355.532253 
L 423.326631 355.697506 
L 423.46084 355.506448 
L 423.729259 357.554754 
L 424.937144 362.72819 
L 425.205562 363.147197 
L 425.473981 363.348001 
L 425.7424 363.54558 
L 426.145028 363.537206 
L 426.547657 363.305131 
L 427.084494 362.711162 
L 427.755541 361.514546 
L 428.829217 358.784172 
L 429.500264 356.50009 
L 430.037102 354.046443 
L 430.43973 351.070546 
L 431.110777 344.661325 
L 431.244986 344.675201 
L 431.513405 345.350309 
L 431.647615 345.030084 
L 431.916034 343.524321 
L 432.989709 334.191547 
L 433.392337 327.670768 
L 433.929175 316.825882 
L 435.13706 281.598141 
L 435.673897 277.242578 
L 435.808107 277.501699 
L 436.076526 280.425965 
L 436.344944 284.410357 
L 436.479154 284.676067 
L 436.747573 281.276794 
L 437.41862 271.02337 
L 437.955457 255.549353 
L 438.358086 240.752817 
L 438.626505 238.103021 
L 438.760714 238.899685 
L 439.834389 253.760988 
L 439.968599 253.991531 
L 440.639646 251.092237 
L 440.773855 251.122911 
L 440.908065 250.882316 
L 441.042274 249.975265 
L 441.310693 245.760063 
L 441.847531 231.251732 
L 442.384368 210.815929 
L 442.921206 193.435467 
L 443.592253 171.815243 
L 444.129091 149.889644 
L 444.2633 147.777323 
L 444.39751 147.487248 
L 445.336976 154.113214 
L 446.008023 162.459439 
L 446.276441 163.961337 
L 446.54486 166.924434 
L 447.350117 178.765661 
L 447.752745 181.604962 
L 448.021164 182.232191 
L 448.155373 182.168683 
L 448.423792 181.502215 
L 449.363258 178.456038 
L 450.034305 174.589735 
L 450.302724 174.093326 
L 450.571143 174.01191 
L 450.973771 174.276546 
L 451.376399 174.771442 
L 451.644818 175.431705 
L 452.450075 178.977353 
L 452.852703 181.673163 
L 453.65796 188.082852 
L 454.060588 190.20716 
L 454.463216 193.926646 
L 455.134263 200.786004 
L 455.671101 203.798127 
L 455.93952 204.760663 
L 456.073729 204.972891 
L 456.207939 204.953383 
L 456.476357 204.271946 
L 457.147405 201.090031 
L 457.684242 198.43944 
L 457.818452 198.283364 
L 457.952661 198.437688 
L 458.22108 199.564095 
L 459.160546 205.236264 
L 460.234221 208.71048 
L 460.50264 210.276356 
L 461.039478 215.526833 
L 461.710525 223.864084 
L 464.260504 260.571159 
L 464.797341 263.952838 
L 465.468389 266.570157 
L 465.871017 267.413291 
L 466.005226 267.472935 
L 466.139436 267.393119 
L 466.407854 266.772332 
L 466.676273 265.474473 
L 467.078902 262.042288 
L 467.48153 256.520506 
L 468.018368 245.746274 
L 469.092043 222.18691 
L 469.360462 220.148518 
L 469.494671 220.137627 
L 469.628881 220.771736 
L 469.897299 223.6596 
L 470.434137 233.174059 
L 471.373603 250.21753 
L 471.910441 256.132336 
L 472.313069 258.192301 
L 472.581488 258.474424 
L 472.715697 258.313798 
L 472.984116 257.448293 
L 473.386744 254.978382 
L 473.923582 249.984934 
L 475.936723 228.839583 
L 479.291959 200.847491 
L 481.036681 192.251948 
L 481.841938 189.222591 
L 482.378776 187.989408 
L 482.781404 187.580763 
L 483.184032 187.504804 
L 484.123498 187.621583 
L 484.526126 187.360973 
L 485.465592 186.360271 
L 486.00243 185.524252 
L 486.539268 184.135588 
L 487.076105 181.980449 
L 487.612943 178.868319 
L 488.28399 173.619615 
L 489.089247 167.477699 
L 489.491875 165.889969 
L 489.760294 165.480125 
L 489.894503 165.475441 
L 490.162922 165.898643 
L 490.431341 166.913003 
L 490.833969 169.446991 
L 491.370807 174.424083 
L 492.310273 186.065301 
L 493.652367 201.974806 
L 494.457623 209.227282 
L 496.470765 226.195756 
L 497.678649 235.923326 
L 498.618115 241.775135 
L 499.691791 247.239728 
L 500.497047 250.244684 
L 501.033885 251.538159 
L 501.570723 252.258766 
L 501.973351 252.419127 
L 502.24177 252.329553 
L 502.510189 252.062062 
L 502.912817 251.277752 
L 503.315445 249.972032 
L 503.852283 247.330579 
L 504.38912 243.577454 
L 505.060168 237.272807 
L 505.999633 225.887382 
L 507.878565 202.268105 
L 508.683822 195.221865 
L 509.354869 191.415771 
L 509.891707 189.630214 
L 510.294335 189.011336 
L 510.562754 188.953027 
L 510.831173 189.165142 
L 511.233801 189.900096 
L 512.039057 192.104715 
L 512.844314 194.087444 
L 513.381152 194.871021 
L 513.78378 195.113331 
L 514.186408 195.084209 
L 514.723246 194.760123 
L 515.931131 193.916324 
L 516.333759 193.911688 
L 516.736387 194.190175 
L 517.139015 194.790362 
L 517.675853 196.099027 
L 518.3469 198.462671 
L 521.836345 212.166762 
L 523.312649 217.269763 
L 525.32579 223.449083 
L 525.862628 224.463884 
L 526.399465 225.033642 
L 526.802094 225.205957 
L 527.338931 225.168721 
L 528.009978 224.818371 
L 528.681025 224.208252 
L 529.88891 223.018311 
L 530.291539 222.910909 
L 530.694167 223.055097 
L 531.096795 223.446547 
L 531.767842 224.492864 
L 533.378355 227.208935 
L 534.317821 228.316407 
L 535.257287 229.08736 
L 537.00201 230.318816 
L 539.015151 232.186614 
L 543.041433 234.482118 
L 543.712481 234.53891 
L 544.383528 234.347883 
L 545.322994 233.804965 
L 548.007182 232.004906 
L 548.54402 232.040883 
L 549.080857 232.355822 
L 549.617695 232.982746 
L 550.288742 234.217011 
L 551.093999 236.28835 
L 552.301883 240.161849 
L 554.315025 246.683492 
L 555.791328 250.629502 
L 556.865004 253.000326 
L 557.67026 254.31912 
L 558.475517 255.238581 
L 559.414983 255.964086 
L 561.025496 257.1689 
L 561.964962 258.152572 
L 562.904428 259.436792 
L 563.978103 261.28222 
L 566.796501 266.481981 
L 568.004386 267.987002 
L 569.34648 269.349834 
L 570.285946 269.993361 
L 571.359621 270.383192 
L 572.433296 270.810466 
L 573.238553 271.363637 
L 574.178019 272.281988 
L 575.788532 274.254783 
L 577.399045 276.118624 
L 578.875349 277.448768 
L 583.841097 281.403928 
L 586.659495 283.368262 
L 587.86738 284.12697 
L 588.941055 284.538299 
L 590.417359 285.082913 
L 591.491034 285.755572 
L 593.906804 287.399946 
L 597.933086 289.584485 
L 598.872552 290.457001 
L 599.946228 291.787357 
L 604.240929 297.547144 
L 606.119861 300.079186 
L 609.072468 304.151923 
L 612.293494 308.029011 
L 615.246101 311.264262 
L 618.601337 314.626225 
L 619.943431 315.71751 
L 621.151316 316.414786 
L 622.224991 316.784388 
L 623.432876 316.951363 
L 625.580227 317.181086 
L 626.519693 317.536666 
L 627.459159 318.132932 
L 628.532834 319.09919 
L 630.009138 320.764587 
L 632.290698 323.694073 
L 636.719609 329.529109 
L 638.061703 330.899746 
L 639.403797 331.956267 
L 641.416938 333.205679 
L 646.248478 336.139258 
L 648.127409 337.731949 
L 653.227367 342.164573 
L 655.508928 343.815255 
L 660.608886 347.333454 
L 662.756236 348.800194 
L 668.393032 352.291098 
L 670.003545 353.735762 
L 683.021859 366.320124 
L 685.035 367.993388 
L 685.035 367.993388 
" clip-path="url(#p0f3e58000c)" style="fill: none; stroke: #0000ff; stroke-width: 1.5; stroke-linecap: square"/>
   </g>
   <g id="patch_3">
    <path d="M 148.197319 489.1525 
L 148.197319 37.512 
" style="fill: none; stroke: #000000; stroke-width: 0.8; stroke-linejoin: miter; stroke-linecap: square"/>
   </g>
   <g id="patch_4">
    <path d="M 685.035 489.1525 
L 685.035 37.512 
" style="fill: none; stroke: #000000; stroke-width: 0.8; stroke-linejoin: miter; stroke-linecap: square"/>
   </g>
   <g id="patch_5">
    <path d="M 148.197319 489.1525 
L 685.035 489.1525 
" style="fill: none; stroke: #000000; stroke-width: 0.8; stroke-linejoin: miter; stroke-linecap: square"/>
   </g>
   <g id="patch_6">
    <path d="M 148.197319 37.512 
L 685.035 37.512 
" style="fill: none; stroke: #000000; stroke-width: 0.8; stroke-linejoin: miter; stroke-linecap: square"/>
   </g>
   <g id="legend_1">
    <g id="patch_7">
     <path d="M 554.985 101.052156 
L 676.535 101.052156 
L 676.535 46.012 
L 554.985 46.012 
z
" style="fill: #ffffff; opacity: 0.8; stroke: #000000; stroke-linejoin: miter"/>
    </g>
    <g id="line2d_73">
     <path d="M 561.785 59.779344 
L 578.785 59.779344 
L 595.785 59.779344 
" style="fill: none; stroke-dasharray: 14.8,6.4; stroke-dashoffset: 0; stroke: #ff0000; stroke-width: 4"/>
    </g>
    <g id="text_18">
     <!-- $\rho_0$ -->
     <g transform="translate(609.385 65.729344) scale(0.17 -0.17)">
      <use xlink:href="#DejaVuSans-Oblique-3c1"/>
      <use xlink:href="#DejaVuSans-30" transform="translate(63.476562 -16.40625) scale(0.7)"/>
     </g>
    </g>
    <g id="line2d_74">
     <path d="M 561.785 84.766687 
L 578.785 84.766687 
L 595.785 84.766687 
" style="fill: none; stroke: #0000ff; stroke-width: 1.5; stroke-linecap: square"/>
    </g>
    <g id="text_19">
     <!-- $\it{U=4.5}$ -->
     <g transform="translate(609.385 90.716687) scale(0.17 -0.17)">
      <defs>
       <path id="DejaVuSans-Oblique-55" d="M 991 4666 
L 1625 4666 
L 1075 1831 
Q 1041 1641 1027 1517 
Q 1013 1394 1013 1300 
Q 1013 869 1253 645 
Q 1494 422 1959 422 
Q 2563 422 2898 753 
Q 3234 1084 3378 1831 
L 3928 4666 
L 4563 4666 
L 4000 1753 
Q 3816 809 3300 359 
Q 2784 -91 1888 -91 
Q 1188 -91 780 261 
Q 372 613 372 1216 
Q 372 1325 387 1461 
Q 403 1597 434 1753 
L 991 4666 
z
" transform="scale(0.015625)"/>
       <path id="DejaVuSans-3d" d="M 678 2906 
L 4684 2906 
L 4684 2381 
L 678 2381 
L 678 2906 
z
M 678 1631 
L 4684 1631 
L 4684 1100 
L 678 1100 
L 678 1631 
z
" transform="scale(0.015625)"/>
       <path id="DejaVuSans-2e" d="M 684 794 
L 1344 794 
L 1344 0 
L 684 0 
L 684 794 
z
" transform="scale(0.015625)"/>
       <path id="DejaVuSans-35" d="M 691 4666 
L 3169 4666 
L 3169 4134 
L 1269 4134 
L 1269 2991 
Q 1406 3038 1543 3061 
Q 1681 3084 1819 3084 
Q 2600 3084 3056 2656 
Q 3513 2228 3513 1497 
Q 3513 744 3044 326 
Q 2575 -91 1722 -91 
Q 1428 -91 1123 -41 
Q 819 9 494 109 
L 494 744 
Q 775 591 1075 516 
Q 1375 441 1709 441 
Q 2250 441 2565 725 
Q 2881 1009 2881 1497 
Q 2881 1984 2565 2268 
Q 2250 2553 1709 2553 
Q 1456 2553 1204 2497 
Q 953 2441 691 2322 
L 691 4666 
z
" transform="scale(0.015625)"/>
      </defs>
      <use xlink:href="#DejaVuSans-Oblique-55" transform="translate(0 0.09375)"/>
      <use xlink:href="#DejaVuSans-3d" transform="translate(92.675781 0.09375)"/>
      <use xlink:href="#DejaVuSans-34" transform="translate(195.947266 0.09375)"/>
      <use xlink:href="#DejaVuSans-2e" transform="translate(259.570312 0.09375)"/>
      <use xlink:href="#DejaVuSans-35" transform="translate(291.357422 0.09375)"/>
     </g>
    </g>
   </g>
  </g>
 </g>
 <defs>
  <clipPath id="p0f3e58000c">
   <rect x="148.197319" y="37.512" width="536.837681" height="451.6405"/>
  </clipPath>
 </defs>
</svg>
