<?xml version="1.0" encoding="utf-8" standalone="no"?>
<!DOCTYPE svg PUBLIC "-//W3C//DTD SVG 1.1//EN"
  "http://www.w3.org/Graphics/SVG/1.1/DTD/svg11.dtd">
<svg xmlns:xlink="http://www.w3.org/1999/xlink" width="720pt" height="576pt" viewBox="0 0 720 576" xmlns="http://www.w3.org/2000/svg" version="1.1">
 <metadata>
  <rdf:RDF xmlns:dc="http://purl.org/dc/elements/1.1/" xmlns:cc="http://creativecommons.org/ns#" xmlns:rdf="http://www.w3.org/1999/02/22-rdf-syntax-ns#">
   <cc:Work>
    <dc:type rdf:resource="http://purl.org/dc/dcmitype/StillImage"/>
    <dc:date>2023-04-21T20:09:16.845780</dc:date>
    <dc:format>image/svg+xml</dc:format>
    <dc:creator>
     <cc:Agent>
      <dc:title>Matplotlib v3.7.1, https://matplotlib.org/</dc:title>
     </cc:Agent>
    </dc:creator>
   </cc:Work>
  </rdf:RDF>
 </metadata>
 <defs>
  <style type="text/css">*{stroke-linejoin: round; stroke-linecap: butt}</style>
 </defs>
 <g id="figure_1">
  <g id="patch_1">
   <path d="M 0 576 
L 720 576 
L 720 0 
L 0 0 
z
" style="fill: #ffffff"/>
  </g>
  <g id="axes_1">
   <g id="patch_2">
    <path d="M 148.197319 489.1525 
L 685.035 489.1525 
L 685.035 37.512 
L 148.197319 37.512 
z
" style="fill: #ffffff"/>
   </g>
   <g id="matplotlib.axis_1">
    <g id="xtick_1">
     <g id="line2d_1">
      <path d="M 148.197319 489.1525 
L 148.197319 37.512 
" clip-path="url(#p882b2eada3)" style="fill: none; stroke: #b0b0b0; stroke-width: 0.8; stroke-linecap: square"/>
     </g>
     <g id="line2d_2">
      <defs>
       <path id="m2336e503f1" d="M 0 0 
L 0 3.5 
" style="stroke: #000000; stroke-width: 0.8"/>
      </defs>
      <g>
       <use xlink:href="#m2336e503f1" x="148.197319" y="489.1525" style="stroke: #000000; stroke-width: 0.8"/>
      </g>
     </g>
     <g id="text_1">
      <!-- −8 -->
      <g transform="translate(129.769585 515.148594) scale(0.25 -0.25)">
       <defs>
        <path id="DejaVuSans-2212" d="M 678 2272 
L 4684 2272 
L 4684 1741 
L 678 1741 
L 678 2272 
z
" transform="scale(0.015625)"/>
        <path id="DejaVuSans-38" d="M 2034 2216 
Q 1584 2216 1326 1975 
Q 1069 1734 1069 1313 
Q 1069 891 1326 650 
Q 1584 409 2034 409 
Q 2484 409 2743 651 
Q 3003 894 3003 1313 
Q 3003 1734 2745 1975 
Q 2488 2216 2034 2216 
z
M 1403 2484 
Q 997 2584 770 2862 
Q 544 3141 544 3541 
Q 544 4100 942 4425 
Q 1341 4750 2034 4750 
Q 2731 4750 3128 4425 
Q 3525 4100 3525 3541 
Q 3525 3141 3298 2862 
Q 3072 2584 2669 2484 
Q 3125 2378 3379 2068 
Q 3634 1759 3634 1313 
Q 3634 634 3220 271 
Q 2806 -91 2034 -91 
Q 1263 -91 848 271 
Q 434 634 434 1313 
Q 434 1759 690 2068 
Q 947 2378 1403 2484 
z
M 1172 3481 
Q 1172 3119 1398 2916 
Q 1625 2713 2034 2713 
Q 2441 2713 2670 2916 
Q 2900 3119 2900 3481 
Q 2900 3844 2670 4047 
Q 2441 4250 2034 4250 
Q 1625 4250 1398 4047 
Q 1172 3844 1172 3481 
z
" transform="scale(0.015625)"/>
       </defs>
       <use xlink:href="#DejaVuSans-2212"/>
       <use xlink:href="#DejaVuSans-38" x="83.789062"/>
      </g>
     </g>
    </g>
    <g id="xtick_2">
     <g id="line2d_3">
      <path d="M 215.302029 489.1525 
L 215.302029 37.512 
" clip-path="url(#p882b2eada3)" style="fill: none; stroke: #b0b0b0; stroke-width: 0.8; stroke-linecap: square"/>
     </g>
     <g id="line2d_4">
      <g>
       <use xlink:href="#m2336e503f1" x="215.302029" y="489.1525" style="stroke: #000000; stroke-width: 0.8"/>
      </g>
     </g>
     <g id="text_2">
      <!-- −6 -->
      <g transform="translate(196.874295 515.148594) scale(0.25 -0.25)">
       <defs>
        <path id="DejaVuSans-36" d="M 2113 2584 
Q 1688 2584 1439 2293 
Q 1191 2003 1191 1497 
Q 1191 994 1439 701 
Q 1688 409 2113 409 
Q 2538 409 2786 701 
Q 3034 994 3034 1497 
Q 3034 2003 2786 2293 
Q 2538 2584 2113 2584 
z
M 3366 4563 
L 3366 3988 
Q 3128 4100 2886 4159 
Q 2644 4219 2406 4219 
Q 1781 4219 1451 3797 
Q 1122 3375 1075 2522 
Q 1259 2794 1537 2939 
Q 1816 3084 2150 3084 
Q 2853 3084 3261 2657 
Q 3669 2231 3669 1497 
Q 3669 778 3244 343 
Q 2819 -91 2113 -91 
Q 1303 -91 875 529 
Q 447 1150 447 2328 
Q 447 3434 972 4092 
Q 1497 4750 2381 4750 
Q 2619 4750 2861 4703 
Q 3103 4656 3366 4563 
z
" transform="scale(0.015625)"/>
       </defs>
       <use xlink:href="#DejaVuSans-2212"/>
       <use xlink:href="#DejaVuSans-36" x="83.789062"/>
      </g>
     </g>
    </g>
    <g id="xtick_3">
     <g id="line2d_5">
      <path d="M 282.406739 489.1525 
L 282.406739 37.512 
" clip-path="url(#p882b2eada3)" style="fill: none; stroke: #b0b0b0; stroke-width: 0.8; stroke-linecap: square"/>
     </g>
     <g id="line2d_6">
      <g>
       <use xlink:href="#m2336e503f1" x="282.406739" y="489.1525" style="stroke: #000000; stroke-width: 0.8"/>
      </g>
     </g>
     <g id="text_3">
      <!-- −4 -->
      <g transform="translate(263.979005 515.148594) scale(0.25 -0.25)">
       <defs>
        <path id="DejaVuSans-34" d="M 2419 4116 
L 825 1625 
L 2419 1625 
L 2419 4116 
z
M 2253 4666 
L 3047 4666 
L 3047 1625 
L 3713 1625 
L 3713 1100 
L 3047 1100 
L 3047 0 
L 2419 0 
L 2419 1100 
L 313 1100 
L 313 1709 
L 2253 4666 
z
" transform="scale(0.015625)"/>
       </defs>
       <use xlink:href="#DejaVuSans-2212"/>
       <use xlink:href="#DejaVuSans-34" x="83.789062"/>
      </g>
     </g>
    </g>
    <g id="xtick_4">
     <g id="line2d_7">
      <path d="M 349.51145 489.1525 
L 349.51145 37.512 
" clip-path="url(#p882b2eada3)" style="fill: none; stroke: #b0b0b0; stroke-width: 0.8; stroke-linecap: square"/>
     </g>
     <g id="line2d_8">
      <g>
       <use xlink:href="#m2336e503f1" x="349.51145" y="489.1525" style="stroke: #000000; stroke-width: 0.8"/>
      </g>
     </g>
     <g id="text_4">
      <!-- −2 -->
      <g transform="translate(331.083715 515.148594) scale(0.25 -0.25)">
       <defs>
        <path id="DejaVuSans-32" d="M 1228 531 
L 3431 531 
L 3431 0 
L 469 0 
L 469 531 
Q 828 903 1448 1529 
Q 2069 2156 2228 2338 
Q 2531 2678 2651 2914 
Q 2772 3150 2772 3378 
Q 2772 3750 2511 3984 
Q 2250 4219 1831 4219 
Q 1534 4219 1204 4116 
Q 875 4013 500 3803 
L 500 4441 
Q 881 4594 1212 4672 
Q 1544 4750 1819 4750 
Q 2544 4750 2975 4387 
Q 3406 4025 3406 3419 
Q 3406 3131 3298 2873 
Q 3191 2616 2906 2266 
Q 2828 2175 2409 1742 
Q 1991 1309 1228 531 
z
" transform="scale(0.015625)"/>
       </defs>
       <use xlink:href="#DejaVuSans-2212"/>
       <use xlink:href="#DejaVuSans-32" x="83.789062"/>
      </g>
     </g>
    </g>
    <g id="xtick_5">
     <g id="line2d_9">
      <path d="M 416.61616 489.1525 
L 416.61616 37.512 
" clip-path="url(#p882b2eada3)" style="fill: none; stroke: #b0b0b0; stroke-width: 0.8; stroke-linecap: square"/>
     </g>
     <g id="line2d_10">
      <g>
       <use xlink:href="#m2336e503f1" x="416.61616" y="489.1525" style="stroke: #000000; stroke-width: 0.8"/>
      </g>
     </g>
     <g id="text_5">
      <!-- 0 -->
      <g transform="translate(408.663035 515.148594) scale(0.25 -0.25)">
       <defs>
        <path id="DejaVuSans-30" d="M 2034 4250 
Q 1547 4250 1301 3770 
Q 1056 3291 1056 2328 
Q 1056 1369 1301 889 
Q 1547 409 2034 409 
Q 2525 409 2770 889 
Q 3016 1369 3016 2328 
Q 3016 3291 2770 3770 
Q 2525 4250 2034 4250 
z
M 2034 4750 
Q 2819 4750 3233 4129 
Q 3647 3509 3647 2328 
Q 3647 1150 3233 529 
Q 2819 -91 2034 -91 
Q 1250 -91 836 529 
Q 422 1150 422 2328 
Q 422 3509 836 4129 
Q 1250 4750 2034 4750 
z
" transform="scale(0.015625)"/>
       </defs>
       <use xlink:href="#DejaVuSans-30"/>
      </g>
     </g>
    </g>
    <g id="xtick_6">
     <g id="line2d_11">
      <path d="M 483.72087 489.1525 
L 483.72087 37.512 
" clip-path="url(#p882b2eada3)" style="fill: none; stroke: #b0b0b0; stroke-width: 0.8; stroke-linecap: square"/>
     </g>
     <g id="line2d_12">
      <g>
       <use xlink:href="#m2336e503f1" x="483.72087" y="489.1525" style="stroke: #000000; stroke-width: 0.8"/>
      </g>
     </g>
     <g id="text_6">
      <!-- 2 -->
      <g transform="translate(475.767745 515.148594) scale(0.25 -0.25)">
       <use xlink:href="#DejaVuSans-32"/>
      </g>
     </g>
    </g>
    <g id="xtick_7">
     <g id="line2d_13">
      <path d="M 550.82558 489.1525 
L 550.82558 37.512 
" clip-path="url(#p882b2eada3)" style="fill: none; stroke: #b0b0b0; stroke-width: 0.8; stroke-linecap: square"/>
     </g>
     <g id="line2d_14">
      <g>
       <use xlink:href="#m2336e503f1" x="550.82558" y="489.1525" style="stroke: #000000; stroke-width: 0.8"/>
      </g>
     </g>
     <g id="text_7">
      <!-- 4 -->
      <g transform="translate(542.872455 515.148594) scale(0.25 -0.25)">
       <use xlink:href="#DejaVuSans-34"/>
      </g>
     </g>
    </g>
    <g id="xtick_8">
     <g id="line2d_15">
      <path d="M 617.93029 489.1525 
L 617.93029 37.512 
" clip-path="url(#p882b2eada3)" style="fill: none; stroke: #b0b0b0; stroke-width: 0.8; stroke-linecap: square"/>
     </g>
     <g id="line2d_16">
      <g>
       <use xlink:href="#m2336e503f1" x="617.93029" y="489.1525" style="stroke: #000000; stroke-width: 0.8"/>
      </g>
     </g>
     <g id="text_8">
      <!-- 6 -->
      <g transform="translate(609.977165 515.148594) scale(0.25 -0.25)">
       <use xlink:href="#DejaVuSans-36"/>
      </g>
     </g>
    </g>
    <g id="xtick_9">
     <g id="line2d_17">
      <path d="M 685.035 489.1525 
L 685.035 37.512 
" clip-path="url(#p882b2eada3)" style="fill: none; stroke: #b0b0b0; stroke-width: 0.8; stroke-linecap: square"/>
     </g>
     <g id="line2d_18">
      <g>
       <use xlink:href="#m2336e503f1" x="685.035" y="489.1525" style="stroke: #000000; stroke-width: 0.8"/>
      </g>
     </g>
     <g id="text_9">
      <!-- 8 -->
      <g transform="translate(677.081875 515.148594) scale(0.25 -0.25)">
       <use xlink:href="#DejaVuSans-38"/>
      </g>
     </g>
    </g>
    <g id="text_10">
     <!-- $\omega$ [-] -->
     <g transform="translate(391.74116 541.351719) scale(0.25 -0.25)">
      <defs>
       <path id="DejaVuSans-Oblique-3c9" d="M 1369 -91 
Q 72 -91 434 1766 
Q 575 2500 1256 3500 
L 1875 3500 
Q 1231 2500 1088 1750 
Q 819 397 1519 397 
Q 2166 397 2478 2078 
L 3009 2078 
Q 2669 388 3316 397 
Q 4013 403 4275 1750 
Q 4419 2500 4169 3500 
L 4788 3500 
Q 5075 2500 4934 1766 
Q 4578 -94 3278 -91 
Q 2428 -88 2503 844 
Q 2194 -91 1369 -91 
z
" transform="scale(0.015625)"/>
       <path id="Calibri-20" transform="scale(0.015625)"/>
       <path id="Calibri-5b" d="M 1684 -813 
Q 1684 -916 1661 -958 
Q 1638 -1000 1594 -1000 
L 794 -1000 
Q 756 -1000 722 -989 
Q 688 -978 659 -953 
Q 631 -928 614 -886 
Q 597 -844 597 -781 
L 597 4153 
Q 597 4213 614 4255 
Q 631 4297 659 4323 
Q 688 4350 722 4361 
Q 756 4372 794 4372 
L 1594 4372 
Q 1613 4372 1630 4362 
Q 1647 4353 1659 4328 
Q 1672 4303 1678 4267 
Q 1684 4231 1684 4178 
Q 1684 4078 1661 4034 
Q 1638 3991 1594 3991 
L 1084 3991 
L 1084 -622 
L 1594 -622 
Q 1613 -622 1630 -631 
Q 1647 -641 1659 -664 
Q 1672 -688 1678 -723 
Q 1684 -759 1684 -813 
z
" transform="scale(0.015625)"/>
       <path id="Calibri-2d" d="M 1744 1578 
Q 1744 1456 1716 1409 
Q 1688 1363 1634 1363 
L 328 1363 
Q 272 1363 244 1411 
Q 216 1459 216 1578 
Q 216 1697 244 1744 
Q 272 1791 328 1791 
L 1634 1791 
Q 1659 1791 1679 1781 
Q 1700 1772 1714 1745 
Q 1728 1719 1736 1678 
Q 1744 1638 1744 1578 
z
" transform="scale(0.015625)"/>
       <path id="Calibri-5d" d="M 1369 -781 
Q 1369 -844 1351 -886 
Q 1334 -928 1306 -953 
Q 1278 -978 1242 -989 
Q 1206 -1000 1169 -1000 
L 372 -1000 
Q 328 -1000 304 -958 
Q 281 -916 281 -813 
Q 281 -759 286 -723 
Q 291 -688 303 -664 
Q 316 -641 333 -631 
Q 350 -622 372 -622 
L 881 -622 
L 881 3991 
L 372 3991 
Q 328 3991 304 4034 
Q 281 4078 281 4178 
Q 281 4231 286 4267 
Q 291 4303 303 4328 
Q 316 4353 333 4362 
Q 350 4372 372 4372 
L 1169 4372 
Q 1206 4372 1242 4361 
Q 1278 4350 1306 4323 
Q 1334 4297 1351 4255 
Q 1369 4213 1369 4153 
L 1369 -781 
z
" transform="scale(0.015625)"/>
      </defs>
      <use xlink:href="#DejaVuSans-Oblique-3c9" transform="translate(0 0.6875)"/>
      <use xlink:href="#Calibri-20" transform="translate(83.740234 0.6875)"/>
      <use xlink:href="#Calibri-5b" transform="translate(106.347656 0.6875)"/>
      <use xlink:href="#Calibri-2d" transform="translate(137.011719 0.6875)"/>
      <use xlink:href="#Calibri-5d" transform="translate(167.626953 0.6875)"/>
     </g>
    </g>
   </g>
   <g id="matplotlib.axis_2">
    <g id="ytick_1">
     <g id="line2d_19">
      <path d="M 148.197319 489.1525 
L 685.035 489.1525 
" clip-path="url(#p882b2eada3)" style="fill: none; stroke: #b0b0b0; stroke-width: 0.8; stroke-linecap: square"/>
     </g>
     <g id="line2d_20">
      <defs>
       <path id="m22fad4dfff" d="M 0 0 
L -3.5 0 
" style="stroke: #000000; stroke-width: 0.8"/>
      </defs>
      <g>
       <use xlink:href="#m22fad4dfff" x="148.197319" y="489.1525" style="stroke: #000000; stroke-width: 0.8"/>
      </g>
     </g>
     <g id="text_11">
      <!-- $\mathdefault{10^{-4}}$ -->
      <g transform="translate(82.447319 498.650547) scale(0.25 -0.25)">
       <defs>
        <path id="DejaVuSans-31" d="M 794 531 
L 1825 531 
L 1825 4091 
L 703 3866 
L 703 4441 
L 1819 4666 
L 2450 4666 
L 2450 531 
L 3481 531 
L 3481 0 
L 794 0 
L 794 531 
z
" transform="scale(0.015625)"/>
       </defs>
       <use xlink:href="#DejaVuSans-31" transform="translate(0 0.684375)"/>
       <use xlink:href="#DejaVuSans-30" transform="translate(63.623047 0.684375)"/>
       <use xlink:href="#DejaVuSans-2212" transform="translate(128.203125 38.965625) scale(0.7)"/>
       <use xlink:href="#DejaVuSans-34" transform="translate(186.855469 38.965625) scale(0.7)"/>
      </g>
     </g>
    </g>
    <g id="ytick_2">
     <g id="line2d_21">
      <path d="M 148.197319 398.8244 
L 685.035 398.8244 
" clip-path="url(#p882b2eada3)" style="fill: none; stroke: #b0b0b0; stroke-width: 0.8; stroke-linecap: square"/>
     </g>
     <g id="line2d_22">
      <g>
       <use xlink:href="#m22fad4dfff" x="148.197319" y="398.8244" style="stroke: #000000; stroke-width: 0.8"/>
      </g>
     </g>
     <g id="text_12">
      <!-- $\mathdefault{10^{-3}}$ -->
      <g transform="translate(82.447319 408.322447) scale(0.25 -0.25)">
       <defs>
        <path id="DejaVuSans-33" d="M 2597 2516 
Q 3050 2419 3304 2112 
Q 3559 1806 3559 1356 
Q 3559 666 3084 287 
Q 2609 -91 1734 -91 
Q 1441 -91 1130 -33 
Q 819 25 488 141 
L 488 750 
Q 750 597 1062 519 
Q 1375 441 1716 441 
Q 2309 441 2620 675 
Q 2931 909 2931 1356 
Q 2931 1769 2642 2001 
Q 2353 2234 1838 2234 
L 1294 2234 
L 1294 2753 
L 1863 2753 
Q 2328 2753 2575 2939 
Q 2822 3125 2822 3475 
Q 2822 3834 2567 4026 
Q 2313 4219 1838 4219 
Q 1578 4219 1281 4162 
Q 984 4106 628 3988 
L 628 4550 
Q 988 4650 1302 4700 
Q 1616 4750 1894 4750 
Q 2613 4750 3031 4423 
Q 3450 4097 3450 3541 
Q 3450 3153 3228 2886 
Q 3006 2619 2597 2516 
z
" transform="scale(0.015625)"/>
       </defs>
       <use xlink:href="#DejaVuSans-31" transform="translate(0 0.765625)"/>
       <use xlink:href="#DejaVuSans-30" transform="translate(63.623047 0.765625)"/>
       <use xlink:href="#DejaVuSans-2212" transform="translate(128.203125 39.046875) scale(0.7)"/>
       <use xlink:href="#DejaVuSans-33" transform="translate(186.855469 39.046875) scale(0.7)"/>
      </g>
     </g>
    </g>
    <g id="ytick_3">
     <g id="line2d_23">
      <path d="M 148.197319 308.4963 
L 685.035 308.4963 
" clip-path="url(#p882b2eada3)" style="fill: none; stroke: #b0b0b0; stroke-width: 0.8; stroke-linecap: square"/>
     </g>
     <g id="line2d_24">
      <g>
       <use xlink:href="#m22fad4dfff" x="148.197319" y="308.4963" style="stroke: #000000; stroke-width: 0.8"/>
      </g>
     </g>
     <g id="text_13">
      <!-- $\mathdefault{10^{-2}}$ -->
      <g transform="translate(82.447319 317.994347) scale(0.25 -0.25)">
       <use xlink:href="#DejaVuSans-31" transform="translate(0 0.765625)"/>
       <use xlink:href="#DejaVuSans-30" transform="translate(63.623047 0.765625)"/>
       <use xlink:href="#DejaVuSans-2212" transform="translate(128.203125 39.046875) scale(0.7)"/>
       <use xlink:href="#DejaVuSans-32" transform="translate(186.855469 39.046875) scale(0.7)"/>
      </g>
     </g>
    </g>
    <g id="ytick_4">
     <g id="line2d_25">
      <path d="M 148.197319 218.1682 
L 685.035 218.1682 
" clip-path="url(#p882b2eada3)" style="fill: none; stroke: #b0b0b0; stroke-width: 0.8; stroke-linecap: square"/>
     </g>
     <g id="line2d_26">
      <g>
       <use xlink:href="#m22fad4dfff" x="148.197319" y="218.1682" style="stroke: #000000; stroke-width: 0.8"/>
      </g>
     </g>
     <g id="text_14">
      <!-- $\mathdefault{10^{-1}}$ -->
      <g transform="translate(82.447319 227.666247) scale(0.25 -0.25)">
       <use xlink:href="#DejaVuSans-31" transform="translate(0 0.684375)"/>
       <use xlink:href="#DejaVuSans-30" transform="translate(63.623047 0.684375)"/>
       <use xlink:href="#DejaVuSans-2212" transform="translate(128.203125 38.965625) scale(0.7)"/>
       <use xlink:href="#DejaVuSans-31" transform="translate(186.855469 38.965625) scale(0.7)"/>
      </g>
     </g>
    </g>
    <g id="ytick_5">
     <g id="line2d_27">
      <path d="M 148.197319 127.8401 
L 685.035 127.8401 
" clip-path="url(#p882b2eada3)" style="fill: none; stroke: #b0b0b0; stroke-width: 0.8; stroke-linecap: square"/>
     </g>
     <g id="line2d_28">
      <g>
       <use xlink:href="#m22fad4dfff" x="148.197319" y="127.8401" style="stroke: #000000; stroke-width: 0.8"/>
      </g>
     </g>
     <g id="text_15">
      <!-- $\mathdefault{10^{0}}$ -->
      <g transform="translate(97.197319 137.338147) scale(0.25 -0.25)">
       <use xlink:href="#DejaVuSans-31" transform="translate(0 0.765625)"/>
       <use xlink:href="#DejaVuSans-30" transform="translate(63.623047 0.765625)"/>
       <use xlink:href="#DejaVuSans-30" transform="translate(128.203125 39.046875) scale(0.7)"/>
      </g>
     </g>
    </g>
    <g id="ytick_6">
     <g id="line2d_29">
      <path d="M 148.197319 37.512 
L 685.035 37.512 
" clip-path="url(#p882b2eada3)" style="fill: none; stroke: #b0b0b0; stroke-width: 0.8; stroke-linecap: square"/>
     </g>
     <g id="line2d_30">
      <g>
       <use xlink:href="#m22fad4dfff" x="148.197319" y="37.512" style="stroke: #000000; stroke-width: 0.8"/>
      </g>
     </g>
     <g id="text_16">
      <!-- $\mathdefault{10^{1}}$ -->
      <g transform="translate(97.197319 47.010047) scale(0.25 -0.25)">
       <use xlink:href="#DejaVuSans-31" transform="translate(0 0.684375)"/>
       <use xlink:href="#DejaVuSans-30" transform="translate(63.623047 0.684375)"/>
       <use xlink:href="#DejaVuSans-31" transform="translate(128.203125 38.965625) scale(0.7)"/>
      </g>
     </g>
    </g>
    <g id="ytick_7">
     <g id="line2d_31">
      <defs>
       <path id="m293aa53a21" d="M 0 0 
L -2 0 
" style="stroke: #000000; stroke-width: 0.6"/>
      </defs>
      <g>
       <use xlink:href="#m293aa53a21" x="148.197319" y="461.961032" style="stroke: #000000; stroke-width: 0.6"/>
      </g>
     </g>
    </g>
    <g id="ytick_8">
     <g id="line2d_32">
      <g>
       <use xlink:href="#m293aa53a21" x="148.197319" y="446.055044" style="stroke: #000000; stroke-width: 0.6"/>
      </g>
     </g>
    </g>
    <g id="ytick_9">
     <g id="line2d_33">
      <g>
       <use xlink:href="#m293aa53a21" x="148.197319" y="434.769565" style="stroke: #000000; stroke-width: 0.6"/>
      </g>
     </g>
    </g>
    <g id="ytick_10">
     <g id="line2d_34">
      <g>
       <use xlink:href="#m293aa53a21" x="148.197319" y="426.015868" style="stroke: #000000; stroke-width: 0.6"/>
      </g>
     </g>
    </g>
    <g id="ytick_11">
     <g id="line2d_35">
      <g>
       <use xlink:href="#m293aa53a21" x="148.197319" y="418.863576" style="stroke: #000000; stroke-width: 0.6"/>
      </g>
     </g>
    </g>
    <g id="ytick_12">
     <g id="line2d_36">
      <g>
       <use xlink:href="#m293aa53a21" x="148.197319" y="412.8164" style="stroke: #000000; stroke-width: 0.6"/>
      </g>
     </g>
    </g>
    <g id="ytick_13">
     <g id="line2d_37">
      <g>
       <use xlink:href="#m293aa53a21" x="148.197319" y="407.578097" style="stroke: #000000; stroke-width: 0.6"/>
      </g>
     </g>
    </g>
    <g id="ytick_14">
     <g id="line2d_38">
      <g>
       <use xlink:href="#m293aa53a21" x="148.197319" y="402.957587" style="stroke: #000000; stroke-width: 0.6"/>
      </g>
     </g>
    </g>
    <g id="ytick_15">
     <g id="line2d_39">
      <g>
       <use xlink:href="#m293aa53a21" x="148.197319" y="371.632932" style="stroke: #000000; stroke-width: 0.6"/>
      </g>
     </g>
    </g>
    <g id="ytick_16">
     <g id="line2d_40">
      <g>
       <use xlink:href="#m293aa53a21" x="148.197319" y="355.726944" style="stroke: #000000; stroke-width: 0.6"/>
      </g>
     </g>
    </g>
    <g id="ytick_17">
     <g id="line2d_41">
      <g>
       <use xlink:href="#m293aa53a21" x="148.197319" y="344.441465" style="stroke: #000000; stroke-width: 0.6"/>
      </g>
     </g>
    </g>
    <g id="ytick_18">
     <g id="line2d_42">
      <g>
       <use xlink:href="#m293aa53a21" x="148.197319" y="335.687768" style="stroke: #000000; stroke-width: 0.6"/>
      </g>
     </g>
    </g>
    <g id="ytick_19">
     <g id="line2d_43">
      <g>
       <use xlink:href="#m293aa53a21" x="148.197319" y="328.535476" style="stroke: #000000; stroke-width: 0.6"/>
      </g>
     </g>
    </g>
    <g id="ytick_20">
     <g id="line2d_44">
      <g>
       <use xlink:href="#m293aa53a21" x="148.197319" y="322.4883" style="stroke: #000000; stroke-width: 0.6"/>
      </g>
     </g>
    </g>
    <g id="ytick_21">
     <g id="line2d_45">
      <g>
       <use xlink:href="#m293aa53a21" x="148.197319" y="317.249997" style="stroke: #000000; stroke-width: 0.6"/>
      </g>
     </g>
    </g>
    <g id="ytick_22">
     <g id="line2d_46">
      <g>
       <use xlink:href="#m293aa53a21" x="148.197319" y="312.629487" style="stroke: #000000; stroke-width: 0.6"/>
      </g>
     </g>
    </g>
    <g id="ytick_23">
     <g id="line2d_47">
      <g>
       <use xlink:href="#m293aa53a21" x="148.197319" y="281.304832" style="stroke: #000000; stroke-width: 0.6"/>
      </g>
     </g>
    </g>
    <g id="ytick_24">
     <g id="line2d_48">
      <g>
       <use xlink:href="#m293aa53a21" x="148.197319" y="265.398844" style="stroke: #000000; stroke-width: 0.6"/>
      </g>
     </g>
    </g>
    <g id="ytick_25">
     <g id="line2d_49">
      <g>
       <use xlink:href="#m293aa53a21" x="148.197319" y="254.113365" style="stroke: #000000; stroke-width: 0.6"/>
      </g>
     </g>
    </g>
    <g id="ytick_26">
     <g id="line2d_50">
      <g>
       <use xlink:href="#m293aa53a21" x="148.197319" y="245.359668" style="stroke: #000000; stroke-width: 0.6"/>
      </g>
     </g>
    </g>
    <g id="ytick_27">
     <g id="line2d_51">
      <g>
       <use xlink:href="#m293aa53a21" x="148.197319" y="238.207376" style="stroke: #000000; stroke-width: 0.6"/>
      </g>
     </g>
    </g>
    <g id="ytick_28">
     <g id="line2d_52">
      <g>
       <use xlink:href="#m293aa53a21" x="148.197319" y="232.1602" style="stroke: #000000; stroke-width: 0.6"/>
      </g>
     </g>
    </g>
    <g id="ytick_29">
     <g id="line2d_53">
      <g>
       <use xlink:href="#m293aa53a21" x="148.197319" y="226.921897" style="stroke: #000000; stroke-width: 0.6"/>
      </g>
     </g>
    </g>
    <g id="ytick_30">
     <g id="line2d_54">
      <g>
       <use xlink:href="#m293aa53a21" x="148.197319" y="222.301387" style="stroke: #000000; stroke-width: 0.6"/>
      </g>
     </g>
    </g>
    <g id="ytick_31">
     <g id="line2d_55">
      <g>
       <use xlink:href="#m293aa53a21" x="148.197319" y="190.976732" style="stroke: #000000; stroke-width: 0.6"/>
      </g>
     </g>
    </g>
    <g id="ytick_32">
     <g id="line2d_56">
      <g>
       <use xlink:href="#m293aa53a21" x="148.197319" y="175.070744" style="stroke: #000000; stroke-width: 0.6"/>
      </g>
     </g>
    </g>
    <g id="ytick_33">
     <g id="line2d_57">
      <g>
       <use xlink:href="#m293aa53a21" x="148.197319" y="163.785265" style="stroke: #000000; stroke-width: 0.6"/>
      </g>
     </g>
    </g>
    <g id="ytick_34">
     <g id="line2d_58">
      <g>
       <use xlink:href="#m293aa53a21" x="148.197319" y="155.031568" style="stroke: #000000; stroke-width: 0.6"/>
      </g>
     </g>
    </g>
    <g id="ytick_35">
     <g id="line2d_59">
      <g>
       <use xlink:href="#m293aa53a21" x="148.197319" y="147.879276" style="stroke: #000000; stroke-width: 0.6"/>
      </g>
     </g>
    </g>
    <g id="ytick_36">
     <g id="line2d_60">
      <g>
       <use xlink:href="#m293aa53a21" x="148.197319" y="141.8321" style="stroke: #000000; stroke-width: 0.6"/>
      </g>
     </g>
    </g>
    <g id="ytick_37">
     <g id="line2d_61">
      <g>
       <use xlink:href="#m293aa53a21" x="148.197319" y="136.593797" style="stroke: #000000; stroke-width: 0.6"/>
      </g>
     </g>
    </g>
    <g id="ytick_38">
     <g id="line2d_62">
      <g>
       <use xlink:href="#m293aa53a21" x="148.197319" y="131.973287" style="stroke: #000000; stroke-width: 0.6"/>
      </g>
     </g>
    </g>
    <g id="ytick_39">
     <g id="line2d_63">
      <g>
       <use xlink:href="#m293aa53a21" x="148.197319" y="100.648632" style="stroke: #000000; stroke-width: 0.6"/>
      </g>
     </g>
    </g>
    <g id="ytick_40">
     <g id="line2d_64">
      <g>
       <use xlink:href="#m293aa53a21" x="148.197319" y="84.742644" style="stroke: #000000; stroke-width: 0.6"/>
      </g>
     </g>
    </g>
    <g id="ytick_41">
     <g id="line2d_65">
      <g>
       <use xlink:href="#m293aa53a21" x="148.197319" y="73.457165" style="stroke: #000000; stroke-width: 0.6"/>
      </g>
     </g>
    </g>
    <g id="ytick_42">
     <g id="line2d_66">
      <g>
       <use xlink:href="#m293aa53a21" x="148.197319" y="64.703468" style="stroke: #000000; stroke-width: 0.6"/>
      </g>
     </g>
    </g>
    <g id="ytick_43">
     <g id="line2d_67">
      <g>
       <use xlink:href="#m293aa53a21" x="148.197319" y="57.551176" style="stroke: #000000; stroke-width: 0.6"/>
      </g>
     </g>
    </g>
    <g id="ytick_44">
     <g id="line2d_68">
      <g>
       <use xlink:href="#m293aa53a21" x="148.197319" y="51.504" style="stroke: #000000; stroke-width: 0.6"/>
      </g>
     </g>
    </g>
    <g id="ytick_45">
     <g id="line2d_69">
      <g>
       <use xlink:href="#m293aa53a21" x="148.197319" y="46.265697" style="stroke: #000000; stroke-width: 0.6"/>
      </g>
     </g>
    </g>
    <g id="ytick_46">
     <g id="line2d_70">
      <g>
       <use xlink:href="#m293aa53a21" x="148.197319" y="41.645187" style="stroke: #000000; stroke-width: 0.6"/>
      </g>
     </g>
    </g>
    <g id="text_17">
     <!-- $\rho$($\omega$) -->
     <g transform="translate(26.447319 258.08225) scale(0.25 -0.25)">
      <defs>
       <path id="DejaVuSans-Oblique-3c1" d="M 1203 2875 
Q 1453 3194 1981 3475 
Q 2188 3584 2756 3584 
Q 3394 3584 3694 3078 
Q 3994 2572 3834 1747 
Q 3672 922 3175 415 
Q 2678 -91 2041 -91 
Q 1656 -91 1409 63 
Q 1163 213 1044 525 
L 681 -1331 
L 103 -1331 
L 697 1716 
Q 838 2438 1203 2875 
z
M 3238 1747 
Q 3359 2381 3169 2744 
Q 2978 3103 2522 3103 
Q 2066 3103 1734 2744 
Q 1403 2381 1281 1747 
Q 1156 1113 1347 750 
Q 1538 391 1994 391 
Q 2450 391 2781 750 
Q 3113 1113 3238 1747 
z
" transform="scale(0.015625)"/>
       <path id="Calibri-28" d="M 1547 4306 
Q 1250 3678 1104 3017 
Q 959 2356 959 1688 
Q 959 1016 1107 356 
Q 1256 -303 1541 -938 
Q 1556 -975 1557 -1001 
Q 1559 -1028 1537 -1045 
Q 1516 -1063 1470 -1070 
Q 1425 -1078 1347 -1078 
Q 1291 -1078 1250 -1075 
Q 1209 -1072 1179 -1062 
Q 1150 -1053 1131 -1040 
Q 1113 -1028 1103 -1013 
Q 934 -694 806 -367 
Q 678 -41 590 296 
Q 503 634 459 979 
Q 416 1325 416 1678 
Q 416 2031 464 2375 
Q 513 2719 602 3058 
Q 691 3397 819 3725 
Q 947 4053 1106 4375 
Q 1109 4388 1123 4397 
Q 1138 4406 1163 4415 
Q 1188 4425 1231 4429 
Q 1275 4434 1344 4434 
Q 1416 4434 1459 4425 
Q 1503 4416 1528 4400 
Q 1553 4384 1556 4359 
Q 1559 4334 1547 4306 
z
" transform="scale(0.015625)"/>
       <path id="Calibri-29" d="M 1522 1678 
Q 1522 1325 1478 979 
Q 1434 634 1346 296 
Q 1259 -41 1132 -367 
Q 1006 -694 838 -1013 
Q 828 -1028 809 -1040 
Q 791 -1053 761 -1062 
Q 731 -1072 690 -1075 
Q 650 -1078 594 -1078 
Q 513 -1078 467 -1070 
Q 422 -1063 401 -1045 
Q 381 -1028 382 -1001 
Q 384 -975 400 -938 
Q 688 -306 834 355 
Q 981 1016 981 1688 
Q 981 2356 834 3017 
Q 688 3678 394 4306 
Q 381 4334 384 4359 
Q 388 4384 413 4400 
Q 438 4416 481 4425 
Q 525 4434 597 4434 
Q 663 4434 706 4429 
Q 750 4425 776 4415 
Q 803 4406 815 4397 
Q 828 4388 834 4375 
Q 1156 3734 1339 3057 
Q 1522 2381 1522 1678 
z
" transform="scale(0.015625)"/>
      </defs>
      <use xlink:href="#DejaVuSans-Oblique-3c1" transform="translate(0 0.71875)"/>
      <use xlink:href="#Calibri-28" transform="translate(63.476562 0.71875)"/>
      <use xlink:href="#DejaVuSans-Oblique-3c9" transform="translate(93.798828 0.71875)"/>
      <use xlink:href="#Calibri-29" transform="translate(177.539062 0.71875)"/>
     </g>
    </g>
   </g>
   <g id="line2d_71">
    <path d="M 148.197319 401.932336 
L 162.020889 399.154914 
L 174.770784 396.368975 
L 186.447004 393.5927 
L 197.183758 390.813609 
L 206.981045 388.0525 
L 215.973076 385.293338 
L 224.29406 382.512055 
L 231.943997 379.725375 
L 239.057097 376.899821 
L 245.633358 374.048993 
L 251.672782 371.191485 
L 257.309578 368.279438 
L 262.543745 365.324583 
L 267.375284 362.343409 
L 271.938405 359.263436 
L 276.098897 356.190825 
L 279.99097 353.047041 
L 283.614624 349.844366 
L 287.104069 346.464116 
L 290.325095 343.039788 
L 293.411912 339.434618 
L 296.364519 335.635785 
L 299.048708 331.830475 
L 301.598686 327.848141 
L 304.148665 323.441139 
L 306.564435 318.798707 
L 308.845995 313.913206 
L 310.993346 308.780363 
L 313.006487 303.400661 
L 315.019629 297.354461 
L 316.89856 290.976792 
L 318.643283 284.273376 
L 320.388005 276.636221 
L 321.998518 268.548351 
L 323.474822 260.026861 
L 324.951126 250.148903 
L 326.29322 239.643042 
L 327.501105 228.557779 
L 328.708989 215.420996 
L 329.782665 201.438919 
L 330.85634 184.535042 
L 331.930015 163.850193 
L 334.077366 119.395336 
L 334.345785 117.622926 
L 334.479994 117.492535 
L 334.614204 117.882703 
L 334.882623 120.154504 
L 335.285251 126.620793 
L 336.090507 144.996897 
L 337.566811 178.248322 
L 338.774696 199.928634 
L 339.982581 217.45132 
L 341.190465 231.910152 
L 342.53256 245.302803 
L 343.874654 256.537845 
L 345.216748 266.061437 
L 346.693052 274.914628 
L 348.035146 281.708629 
L 349.37724 287.456791 
L 350.719334 292.263907 
L 351.927219 295.851479 
L 353.135104 298.786221 
L 354.208779 300.876539 
L 355.282455 302.501319 
L 356.221921 303.55531 
L 357.161386 304.276873 
L 357.966643 304.637352 
L 358.7719 304.764487 
L 359.577156 304.66195 
L 360.382413 304.332518 
L 361.187669 303.778002 
L 362.127135 302.84753 
L 363.066601 301.610846 
L 364.140276 299.818168 
L 365.348161 297.305919 
L 366.556046 294.246977 
L 367.763931 290.606918 
L 369.106025 285.819993 
L 370.448119 280.156866 
L 371.790213 273.477663 
L 373.132307 265.579757 
L 374.340192 257.18477 
L 375.548077 247.235961 
L 376.755962 235.234147 
L 377.829637 222.197275 
L 378.769103 208.197737 
L 379.708569 190.636488 
L 380.513826 171.250083 
L 381.184873 150.284976 
L 381.85592 122.423716 
L 383.063805 66.502836 
L 383.198014 67.896033 
L 383.466433 78.341268 
L 384.808527 148.397471 
L 385.613784 176.461021 
L 386.553249 201.051427 
L 387.626925 222.823485 
L 388.83481 242.388059 
L 390.176904 260.222914 
L 391.653207 276.694044 
L 393.26372 292.088216 
L 395.008443 306.640695 
L 397.021584 321.497971 
L 399.303144 336.607055 
L 402.121542 353.682929 
L 408.832013 393.537827 
L 410.442526 404.83905 
L 411.78462 415.891642 
L 412.858296 426.642121 
L 413.797762 438.522698 
L 414.468809 449.51062 
L 415.139856 464.442832 
L 415.676694 482.298105 
L 416.079322 504.308239 
L 416.347741 531.520419 
L 416.496224 577 
M 416.736095 577 
L 416.750369 558.717064 
L 417.018788 515.6058 
L 417.421416 488.367726 
L 417.958254 468.218032 
L 418.629301 452.096013 
L 419.434557 438.522698 
L 420.374023 426.642121 
L 421.447699 415.891642 
L 422.789793 404.83905 
L 424.400306 393.537827 
L 426.547657 380.181418 
L 435.539688 326.101808 
L 437.552829 311.789703 
L 439.431761 296.767668 
L 441.042274 282.078528 
L 442.518578 266.530647 
L 443.860672 249.924554 
L 445.068557 232.030876 
L 446.142232 212.58763 
L 447.081698 191.318063 
L 447.886955 168.012489 
L 448.558002 142.797758 
L 449.229049 109.430668 
L 450.034305 67.896033 
L 450.168515 66.502836 
L 450.302724 68.185548 
L 450.571143 78.783728 
L 451.779028 140.139307 
L 452.584284 167.476521 
L 453.389541 187.736396 
L 454.329007 205.941191 
L 455.402682 222.197275 
L 456.476357 235.234147 
L 457.684242 247.235961 
L 458.892127 257.18477 
L 460.234221 266.43195 
L 461.576315 274.196465 
L 462.91841 280.766185 
L 464.260504 286.336227 
L 465.602598 291.041455 
L 466.944692 294.975541 
L 468.286786 298.202745 
L 469.494671 300.5383 
L 470.568347 302.1785 
L 471.642022 303.416617 
L 472.581488 304.172629 
L 473.386744 304.57724 
L 474.192001 304.755671 
L 474.997257 304.705458 
L 475.802514 304.423222 
L 476.60777 303.904718 
L 477.547236 302.994352 
L 478.486702 301.745927 
L 479.560378 299.890818 
L 480.634053 297.559977 
L 481.841938 294.340054 
L 483.049823 290.448456 
L 484.257707 285.835336 
L 485.599802 279.785865 
L 486.941896 272.652435 
L 488.28399 264.277688 
L 489.626084 254.43946 
L 490.968178 242.814629 
L 492.176063 230.428556 
L 493.383948 215.672746 
L 494.457623 199.928634 
L 495.531299 180.901368 
L 496.604974 157.840148 
L 498.215487 121.957723 
L 498.618115 117.882703 
L 498.752325 117.492535 
L 498.886534 117.622926 
L 499.154953 119.395336 
L 499.557581 125.213102 
L 500.228628 139.542846 
L 501.839141 174.710865 
L 502.912817 193.40632 
L 504.120702 210.468896 
L 505.328586 224.43699 
L 506.670681 237.328806 
L 508.012775 248.177198 
L 509.489078 258.341965 
L 511.099591 267.8214 
L 512.710104 276.003637 
L 514.454827 283.721686 
L 516.333759 290.976792 
L 518.212691 297.354461 
L 520.225832 303.400661 
L 522.373183 309.118298 
L 524.520533 314.215761 
L 526.802094 319.070036 
L 529.217863 323.684938 
L 531.767842 328.067682 
L 534.452031 332.227786 
L 537.270428 336.176222 
L 540.223036 339.924771 
L 543.309852 343.485538 
L 546.530878 346.870593 
L 550.020323 350.214771 
L 553.778187 353.49781 
L 557.67026 356.603014 
L 561.830752 359.640597 
L 566.259663 362.602193 
L 571.091202 365.561437 
L 576.19116 368.424097 
L 581.693746 371.257772 
L 587.598961 374.048993 
L 594.041013 376.844071 
L 601.019903 379.623104 
L 608.53563 382.371218 
L 616.588196 385.077691 
L 625.311808 387.774972 
L 634.840677 390.485603 
L 645.174802 393.190619 
L 656.448393 395.906748 
L 668.661451 398.616198 
L 681.948183 401.331915 
L 685.035 401.932336 
L 685.035 401.932336 
" clip-path="url(#p882b2eada3)" style="fill: none; stroke-dasharray: 14.8,6.4; stroke-dashoffset: 0; stroke: #ff0000; stroke-width: 4"/>
   </g>
   <g id="line2d_72">
    <path d="M 148.197319 394.193587 
L 150.478879 392.659647 
L 152.894649 390.723755 
L 156.786722 387.312379 
L 158.934073 385.113825 
L 162.960355 380.882811 
L 165.644544 378.415409 
L 167.255057 377.239821 
L 168.86557 376.341604 
L 169.939245 375.970664 
L 170.878711 375.895579 
L 171.683968 376.045082 
L 172.623434 376.438767 
L 173.965528 377.263177 
L 177.186554 379.327007 
L 178.797067 380.049622 
L 184.9707 382.32713 
L 186.178585 382.378297 
L 187.38647 382.190984 
L 188.728564 381.738062 
L 190.607496 380.831404 
L 192.889056 379.466676 
L 196.378501 377.08185 
L 197.720595 375.911351 
L 198.92848 374.562807 
L 200.404784 372.554966 
L 202.686344 368.999448 
L 208.457349 359.629279 
L 209.665234 357.157246 
L 211.007328 353.847771 
L 215.16782 342.950621 
L 216.509914 340.404399 
L 217.717799 338.570904 
L 218.523055 337.704842 
L 219.194102 337.301512 
L 219.73094 337.226624 
L 220.267778 337.385913 
L 220.804616 337.776896 
L 221.475663 338.566867 
L 222.280919 339.888396 
L 223.354595 342.109313 
L 225.636155 347.530944 
L 227.515087 351.753791 
L 228.857181 354.276883 
L 230.601903 357.023124 
L 232.212416 359.206828 
L 233.55451 360.668255 
L 234.896605 361.819327 
L 236.104489 362.594709 
L 237.043955 362.966217 
L 237.849212 363.080645 
L 238.788678 362.979491 
L 240.264981 362.530231 
L 242.143913 361.755642 
L 243.620217 360.877575 
L 246.975452 358.536927 
L 247.914918 357.503185 
L 248.854384 356.145815 
L 250.062269 353.973936 
L 251.538573 350.81824 
L 252.746458 347.751715 
L 254.222761 343.292749 
L 257.309578 333.880572 
L 260.127976 324.950365 
L 262.141117 318.483702 
L 262.946373 316.668621 
L 263.617421 315.672057 
L 264.422677 314.931237 
L 265.496352 314.30094 
L 267.643703 313.339896 
L 268.180541 313.294149 
L 268.717379 313.46738 
L 269.254216 313.868699 
L 270.059473 314.787298 
L 270.998939 316.235342 
L 271.938405 318.165544 
L 275.025221 325.40563 
L 276.367316 329.859706 
L 277.440991 333.057178 
L 278.246247 334.794445 
L 279.051504 335.964708 
L 279.85676 336.701095 
L 280.662017 337.120751 
L 281.333064 337.235145 
L 282.004111 337.119558 
L 282.675158 336.785859 
L 283.748834 335.942275 
L 285.493556 334.53973 
L 287.775116 333.071561 
L 288.446163 332.153387 
L 289.25142 330.630212 
L 290.996142 327.140383 
L 291.667189 326.373326 
L 292.338237 325.939669 
L 293.94875 325.059852 
L 294.754006 324.293735 
L 295.693472 323.036512 
L 297.438194 320.271449 
L 298.37766 318.350801 
L 299.317126 315.900013 
L 300.256592 312.779043 
L 301.330268 308.315549 
L 304.417084 293.666603 
L 305.35655 287.715303 
L 306.564435 278.442498 
L 307.77232 269.545081 
L 308.577576 265.366891 
L 309.651252 261.277607 
L 310.724927 256.948717 
L 312.46965 249.554016 
L 313.274906 247.248821 
L 314.080163 245.514728 
L 314.75121 244.57945 
L 315.288047 244.19447 
L 316.89856 243.341538 
L 317.435398 242.749039 
L 319.045911 240.509219 
L 319.31433 240.525205 
L 319.582749 240.77553 
L 319.985377 241.609317 
L 320.522215 243.424312 
L 321.998518 248.883069 
L 322.401147 249.536046 
L 322.669565 249.637252 
L 322.937984 249.466752 
L 323.340613 248.758057 
L 324.01166 246.808342 
L 326.29322 239.169361 
L 326.964267 235.584441 
L 327.635314 230.861134 
L 328.440571 223.570224 
L 329.514246 211.500699 
L 331.258968 189.19195 
L 332.198434 174.902348 
L 333.1379 157.212474 
L 334.748413 125.933197 
L 335.016832 123.690639 
L 335.151042 123.281867 
L 335.285251 123.381971 
L 335.55367 125.086823 
L 335.956298 130.843122 
L 336.627345 145.147456 
L 338.506277 186.540095 
L 339.579952 205.490855 
L 340.787837 222.854479 
L 341.995722 237.087059 
L 343.337816 250.183859 
L 344.67991 261.091827 
L 346.022005 270.282165 
L 347.364099 278.047678 
L 348.706193 284.592338 
L 350.048287 290.067574 
L 351.390381 294.584234 
L 352.598266 297.899334 
L 353.806151 300.554145 
L 354.879826 302.391382 
L 355.819292 303.614344 
L 356.758758 304.491946 
L 357.564015 304.977692 
L 358.369271 305.223694 
L 359.174528 305.23486 
L 359.979784 305.015117 
L 360.785041 304.567367 
L 361.724507 303.759162 
L 362.663973 302.643836 
L 363.737648 300.990863 
L 364.811323 298.927501 
L 366.019208 296.09968 
L 367.227093 292.707899 
L 368.569187 288.226111 
L 369.911281 282.912049 
L 371.253376 276.644725 
L 372.59547 269.249448 
L 373.937564 260.47025 
L 375.145449 251.070388 
L 376.353334 239.807671 
L 377.427009 227.686229 
L 378.500684 212.76374 
L 379.44015 196.344613 
L 380.245407 178.479889 
L 381.050663 155.073702 
L 381.72171 128.75535 
L 382.526967 86.037223 
L 382.929595 68.409722 
L 383.063805 66.878831 
L 383.198014 68.425299 
L 383.466433 79.070774 
L 384.808527 149.038099 
L 385.613784 177.029578 
L 386.553249 201.571116 
L 387.626925 223.309826 
L 388.83481 242.850824 
L 390.176904 260.668209 
L 391.653207 277.125565 
L 393.26372 292.507917 
L 395.008443 307.049088 
L 397.021584 321.893286 
L 399.303144 336.98554 
L 402.121542 354.035001 
L 408.966223 394.668103 
L 410.576736 406.066297 
L 411.78462 416.063876 
L 412.858296 426.782006 
L 413.797762 438.631661 
L 414.468809 449.595916 
L 415.139856 464.503081 
L 415.676694 482.337285 
L 416.079322 504.330994 
L 416.347741 531.53192 
L 416.49622 577 
M 416.736091 577 
L 416.750369 558.711219 
L 417.018788 515.588075 
L 417.421416 488.331695 
L 417.958254 468.156663 
L 418.629301 452.001427 
L 419.434557 438.385884 
L 420.374023 426.452598 
L 421.447699 415.637032 
L 422.789793 404.495187 
L 424.400306 393.073984 
L 426.547657 379.532206 
L 435.00285 327.836046 
L 437.015991 313.422556 
L 438.894923 298.314713 
L 440.505436 283.554804 
L 441.98174 267.940891 
L 443.323834 251.269776 
L 444.531719 233.307638 
L 445.605394 213.786113 
L 446.54486 192.418166 
L 447.350117 168.976724 
L 448.021164 143.560883 
L 448.692211 109.793705 
L 449.497468 67.781751 
L 449.631677 66.572902 
L 449.765886 68.533217 
L 450.034305 79.697063 
L 451.24219 141.651518 
L 452.047447 168.961515 
L 452.852703 189.18196 
L 453.792169 207.347532 
L 454.865844 223.568993 
L 455.93952 236.580058 
L 457.147405 248.561278 
L 458.355289 258.497097 
L 459.697383 267.737903 
L 461.039478 275.504114 
L 462.381572 282.083404 
L 463.723666 287.670662 
L 465.06576 292.400117 
L 466.407854 296.36364 
L 467.749949 299.620407 
L 468.957833 301.969934 
L 470.031509 303.580324 
L 470.836765 304.439368 
L 471.507812 304.844596 
L 472.715697 305.30143 
L 473.789373 306.131755 
L 474.46042 306.290636 
L 475.131467 306.204905 
L 475.936723 305.835453 
L 476.74198 305.199157 
L 477.681446 304.12713 
L 478.620912 302.695493 
L 479.694587 300.60421 
L 480.768262 298.00935 
L 481.976147 294.448572 
L 483.184032 290.167969 
L 484.391917 285.090094 
L 485.734011 278.407582 
L 487.076105 270.478539 
L 488.418199 261.081299 
L 489.626084 251.103579 
L 490.833969 239.326875 
L 492.041854 225.225832 
L 493.115529 210.098412 
L 494.189204 191.736657 
L 495.397089 166.884445 
L 497.141812 130.369802 
L 497.54444 125.443268 
L 497.812859 124.302971 
L 497.947068 124.483175 
L 498.215487 126.328199 
L 498.618115 132.211796 
L 499.423372 149.581397 
L 500.765466 177.87814 
L 501.839141 195.846775 
L 502.912817 210.244429 
L 503.986492 221.759888 
L 504.925958 229.626707 
L 505.865424 235.473228 
L 506.80489 239.884162 
L 507.475937 242.036849 
L 508.012775 243.111548 
L 508.415403 243.517321 
L 508.818031 243.639581 
L 509.757497 243.536815 
L 511.233801 243.429754 
L 511.904848 243.661147 
L 512.710104 243.900747 
L 513.64957 244.088842 
L 514.320618 244.517463 
L 514.991665 244.920857 
L 515.528502 244.998225 
L 516.602178 244.986289 
L 517.004806 245.305597 
L 517.407434 245.959015 
L 517.944272 247.36837 
L 519.152157 251.651783 
L 520.62846 256.877855 
L 521.567926 261.966994 
L 524.520533 279.057313 
L 525.996837 287.519806 
L 526.802094 290.891283 
L 528.681025 298.078091 
L 532.841517 316.232486 
L 533.915193 319.70524 
L 534.854659 322.0873 
L 536.196753 324.794924 
L 539.417779 330.893155 
L 540.491454 332.266841 
L 541.967758 333.724078 
L 543.578271 334.996608 
L 545.859831 336.53333 
L 546.665088 336.811201 
L 547.336135 336.830605 
L 548.007182 336.608924 
L 548.812439 336.04712 
L 550.154533 334.73736 
L 552.972931 331.912946 
L 554.046606 331.175332 
L 555.120281 330.448839 
L 555.657119 329.790363 
L 556.193957 328.806208 
L 556.865004 327.112652 
L 557.938679 323.641065 
L 559.95182 317.011044 
L 561.964962 311.500257 
L 563.575475 307.401683 
L 564.380731 305.913045 
L 565.185988 304.894816 
L 566.125454 304.094312 
L 566.796501 303.759469 
L 567.333338 303.710555 
L 567.870176 303.92075 
L 568.407014 304.429349 
L 568.943852 305.275017 
L 569.480689 306.510509 
L 570.151736 308.651131 
L 571.091202 312.587272 
L 574.714857 328.873783 
L 577.667464 339.628684 
L 579.277977 344.979939 
L 580.351652 347.745949 
L 581.425328 349.832225 
L 585.317401 356.275681 
L 586.793704 358.283717 
L 588.001589 359.591179 
L 589.075265 360.426358 
L 590.417359 361.155103 
L 592.162081 361.875816 
L 593.235757 362.105586 
L 594.443641 362.130253 
L 597.396249 361.853825 
L 598.469924 361.504965 
L 599.677809 360.837512 
L 600.885694 359.924228 
L 602.093578 358.715336 
L 603.435673 357.031704 
L 604.911976 354.799355 
L 608.804049 348.533402 
L 611.085609 345.626801 
L 611.890866 344.967541 
L 612.561913 344.682771 
L 613.36717 344.603613 
L 615.51452 344.79441 
L 616.722405 344.992069 
L 617.527662 345.358328 
L 618.198709 345.889298 
L 619.003965 346.831413 
L 619.943431 348.321655 
L 621.151316 350.709969 
L 622.761829 354.451008 
L 626.519693 363.421948 
L 627.861787 365.965236 
L 628.935462 367.558708 
L 630.143347 368.967765 
L 637.927494 376.9839 
L 640.477472 379.278543 
L 642.759033 381.037101 
L 644.772174 382.320766 
L 646.248478 383.023821 
L 647.456362 383.358609 
L 648.530038 383.428061 
L 649.603713 383.264123 
L 650.677388 382.862178 
L 651.885273 382.160529 
L 654.569462 380.225827 
L 657.656278 378.157238 
L 659.132582 377.400077 
L 660.206257 377.070344 
L 661.145723 376.992525 
L 662.085189 377.128917 
L 663.158865 377.515103 
L 664.500959 378.253934 
L 665.977262 379.330093 
L 667.856194 381.012913 
L 673.761409 386.543255 
L 679.800833 391.22371 
L 682.082393 392.655376 
L 685.035 394.267756 
L 685.035 394.267756 
" clip-path="url(#p882b2eada3)" style="fill: none; stroke: #0000ff; stroke-width: 1.5; stroke-linecap: square"/>
   </g>
   <g id="patch_3">
    <path d="M 148.197319 489.1525 
L 148.197319 37.512 
" style="fill: none; stroke: #000000; stroke-width: 0.8; stroke-linejoin: miter; stroke-linecap: square"/>
   </g>
   <g id="patch_4">
    <path d="M 685.035 489.1525 
L 685.035 37.512 
" style="fill: none; stroke: #000000; stroke-width: 0.8; stroke-linejoin: miter; stroke-linecap: square"/>
   </g>
   <g id="patch_5">
    <path d="M 148.197319 489.1525 
L 685.035 489.1525 
" style="fill: none; stroke: #000000; stroke-width: 0.8; stroke-linejoin: miter; stroke-linecap: square"/>
   </g>
   <g id="patch_6">
    <path d="M 148.197319 37.512 
L 685.035 37.512 
" style="fill: none; stroke: #000000; stroke-width: 0.8; stroke-linejoin: miter; stroke-linecap: square"/>
   </g>
   <g id="legend_1">
    <g id="patch_7">
     <path d="M 554.985 101.052156 
L 676.535 101.052156 
L 676.535 46.012 
L 554.985 46.012 
z
" style="fill: #ffffff; opacity: 0.8; stroke: #000000; stroke-linejoin: miter"/>
    </g>
    <g id="line2d_73">
     <path d="M 561.785 59.779344 
L 578.785 59.779344 
L 595.785 59.779344 
" style="fill: none; stroke-dasharray: 14.8,6.4; stroke-dashoffset: 0; stroke: #ff0000; stroke-width: 4"/>
    </g>
    <g id="text_18">
     <!-- $\rho_0$ -->
     <g transform="translate(609.385 65.729344) scale(0.17 -0.17)">
      <use xlink:href="#DejaVuSans-Oblique-3c1"/>
      <use xlink:href="#DejaVuSans-30" transform="translate(63.476562 -16.40625) scale(0.7)"/>
     </g>
    </g>
    <g id="line2d_74">
     <path d="M 561.785 84.766687 
L 578.785 84.766687 
L 595.785 84.766687 
" style="fill: none; stroke: #0000ff; stroke-width: 1.5; stroke-linecap: square"/>
    </g>
    <g id="text_19">
     <!-- $\it{U=1.5}$ -->
     <g transform="translate(609.385 90.716687) scale(0.17 -0.17)">
      <defs>
       <path id="DejaVuSans-Oblique-55" d="M 991 4666 
L 1625 4666 
L 1075 1831 
Q 1041 1641 1027 1517 
Q 1013 1394 1013 1300 
Q 1013 869 1253 645 
Q 1494 422 1959 422 
Q 2563 422 2898 753 
Q 3234 1084 3378 1831 
L 3928 4666 
L 4563 4666 
L 4000 1753 
Q 3816 809 3300 359 
Q 2784 -91 1888 -91 
Q 1188 -91 780 261 
Q 372 613 372 1216 
Q 372 1325 387 1461 
Q 403 1597 434 1753 
L 991 4666 
z
" transform="scale(0.015625)"/>
       <path id="DejaVuSans-3d" d="M 678 2906 
L 4684 2906 
L 4684 2381 
L 678 2381 
L 678 2906 
z
M 678 1631 
L 4684 1631 
L 4684 1100 
L 678 1100 
L 678 1631 
z
" transform="scale(0.015625)"/>
       <path id="DejaVuSans-2e" d="M 684 794 
L 1344 794 
L 1344 0 
L 684 0 
L 684 794 
z
" transform="scale(0.015625)"/>
       <path id="DejaVuSans-35" d="M 691 4666 
L 3169 4666 
L 3169 4134 
L 1269 4134 
L 1269 2991 
Q 1406 3038 1543 3061 
Q 1681 3084 1819 3084 
Q 2600 3084 3056 2656 
Q 3513 2228 3513 1497 
Q 3513 744 3044 326 
Q 2575 -91 1722 -91 
Q 1428 -91 1123 -41 
Q 819 9 494 109 
L 494 744 
Q 775 591 1075 516 
Q 1375 441 1709 441 
Q 2250 441 2565 725 
Q 2881 1009 2881 1497 
Q 2881 1984 2565 2268 
Q 2250 2553 1709 2553 
Q 1456 2553 1204 2497 
Q 953 2441 691 2322 
L 691 4666 
z
" transform="scale(0.015625)"/>
      </defs>
      <use xlink:href="#DejaVuSans-Oblique-55" transform="translate(0 0.09375)"/>
      <use xlink:href="#DejaVuSans-3d" transform="translate(92.675781 0.09375)"/>
      <use xlink:href="#DejaVuSans-31" transform="translate(195.947266 0.09375)"/>
      <use xlink:href="#DejaVuSans-2e" transform="translate(259.570312 0.09375)"/>
      <use xlink:href="#DejaVuSans-35" transform="translate(291.357422 0.09375)"/>
     </g>
    </g>
   </g>
  </g>
 </g>
 <defs>
  <clipPath id="p882b2eada3">
   <rect x="148.197319" y="37.512" width="536.837681" height="451.6405"/>
  </clipPath>
 </defs>
</svg>
