<?xml version="1.0" encoding="utf-8" standalone="no"?>
<!DOCTYPE svg PUBLIC "-//W3C//DTD SVG 1.1//EN"
  "http://www.w3.org/Graphics/SVG/1.1/DTD/svg11.dtd">
<svg xmlns:xlink="http://www.w3.org/1999/xlink" width="720pt" height="576pt" viewBox="0 0 720 576" xmlns="http://www.w3.org/2000/svg" version="1.1">
 <metadata>
  <rdf:RDF xmlns:dc="http://purl.org/dc/elements/1.1/" xmlns:cc="http://creativecommons.org/ns#" xmlns:rdf="http://www.w3.org/1999/02/22-rdf-syntax-ns#">
   <cc:Work>
    <dc:type rdf:resource="http://purl.org/dc/dcmitype/StillImage"/>
    <dc:date>2023-04-15T21:59:30.991769</dc:date>
    <dc:format>image/svg+xml</dc:format>
    <dc:creator>
     <cc:Agent>
      <dc:title>Matplotlib v3.7.1, https://matplotlib.org/</dc:title>
     </cc:Agent>
    </dc:creator>
   </cc:Work>
  </rdf:RDF>
 </metadata>
 <defs>
  <style type="text/css">*{stroke-linejoin: round; stroke-linecap: butt}</style>
 </defs>
 <g id="figure_1">
  <g id="patch_1">
   <path d="M 0 576 
L 720 576 
L 720 0 
L 0 0 
z
" style="fill: #ffffff"/>
  </g>
  <g id="axes_1">
   <g id="patch_2">
    <path d="M 99.217392 517.52 
L 622.051584 517.52 
L 622.051584 27 
L 99.217392 27 
z
" style="fill: #ffffff"/>
   </g>
   <g id="LineCollection_1">
    <path d="M 122.982583 255.108951 
L 122.982583 186.504755 
" clip-path="url(#pdaa0826461)" style="fill: none; stroke: #000000; stroke-width: 7.129557"/>
    <path d="M 122.982583 255.108951 
L 182.395559 289.411049 
" clip-path="url(#pdaa0826461)" style="fill: none; stroke: #000000; stroke-width: 7.129557"/>
    <path d="M 182.395559 152.202657 
L 122.982583 186.504755 
" clip-path="url(#pdaa0826461)" style="fill: none; stroke: #000000; stroke-width: 7.129557"/>
    <path d="M 182.395559 152.202657 
L 182.395559 83.598462 
" clip-path="url(#pdaa0826461)" style="fill: none; stroke: #000000; stroke-width: 7.129557"/>
    <path d="M 182.395559 152.202657 
L 241.808536 186.504755 
" clip-path="url(#pdaa0826461)" style="fill: none; stroke: #000000; stroke-width: 7.129557"/>
    <path d="M 241.808536 49.296364 
L 182.395559 83.598462 
" clip-path="url(#pdaa0826461)" style="fill: none; stroke: #000000; stroke-width: 7.129557"/>
    <path d="M 241.808536 49.296364 
L 301.221512 83.598462 
" clip-path="url(#pdaa0826461)" style="fill: none; stroke: #000000; stroke-width: 7.129557"/>
    <path d="M 182.395559 358.015245 
L 182.395559 289.411049 
" clip-path="url(#pdaa0826461)" style="fill: none; stroke: #000000; stroke-width: 7.129557"/>
    <path d="M 182.395559 358.015245 
L 241.808536 392.317343 
" clip-path="url(#pdaa0826461)" style="fill: none; stroke: #000000; stroke-width: 7.129557"/>
    <path d="M 241.808536 255.108951 
L 182.395559 289.411049 
" clip-path="url(#pdaa0826461)" style="fill: none; stroke: #000000; stroke-width: 7.129557"/>
    <path d="M 241.808536 255.108951 
L 241.808536 186.504755 
" clip-path="url(#pdaa0826461)" style="fill: none; stroke: #000000; stroke-width: 7.129557"/>
    <path d="M 241.808536 255.108951 
L 301.221512 289.411049 
" clip-path="url(#pdaa0826461)" style="fill: none; stroke: #000000; stroke-width: 7.129557"/>
    <path d="M 301.221512 152.202657 
L 241.808536 186.504755 
" clip-path="url(#pdaa0826461)" style="fill: none; stroke: #000000; stroke-width: 7.129557"/>
    <path d="M 301.221512 152.202657 
L 301.221512 83.598462 
" clip-path="url(#pdaa0826461)" style="fill: none; stroke: #000000; stroke-width: 7.129557"/>
    <path d="M 301.221512 152.202657 
L 360.634488 186.504755 
" clip-path="url(#pdaa0826461)" style="fill: none; stroke: #000000; stroke-width: 7.129557"/>
    <path d="M 360.634488 49.296364 
L 301.221512 83.598462 
" clip-path="url(#pdaa0826461)" style="fill: none; stroke: #000000; stroke-width: 7.129557"/>
    <path d="M 360.634488 49.296364 
L 420.047465 83.598462 
" clip-path="url(#pdaa0826461)" style="fill: none; stroke: #000000; stroke-width: 7.129557"/>
    <path d="M 241.808536 460.921538 
L 241.808536 392.317343 
" clip-path="url(#pdaa0826461)" style="fill: none; stroke: #000000; stroke-width: 7.129557"/>
    <path d="M 241.808536 460.921538 
L 301.221512 495.223636 
" clip-path="url(#pdaa0826461)" style="fill: none; stroke: #000000; stroke-width: 7.129557"/>
    <path d="M 301.221512 358.015245 
L 241.808536 392.317343 
" clip-path="url(#pdaa0826461)" style="fill: none; stroke: #000000; stroke-width: 7.129557"/>
    <path d="M 301.221512 358.015245 
L 301.221512 289.411049 
" clip-path="url(#pdaa0826461)" style="fill: none; stroke: #000000; stroke-width: 7.129557"/>
    <path d="M 301.221512 358.015245 
L 360.634488 392.317343 
" clip-path="url(#pdaa0826461)" style="fill: none; stroke: #000000; stroke-width: 7.129557"/>
    <path d="M 360.634488 255.108951 
L 301.221512 289.411049 
" clip-path="url(#pdaa0826461)" style="fill: none; stroke: #000000; stroke-width: 7.129557"/>
    <path d="M 360.634488 255.108951 
L 360.634488 186.504755 
" clip-path="url(#pdaa0826461)" style="fill: none; stroke: #000000; stroke-width: 7.129557"/>
    <path d="M 360.634488 255.108951 
L 420.047465 289.411049 
" clip-path="url(#pdaa0826461)" style="fill: none; stroke: #000000; stroke-width: 7.129557"/>
    <path d="M 420.047465 152.202657 
L 360.634488 186.504755 
" clip-path="url(#pdaa0826461)" style="fill: none; stroke: #000000; stroke-width: 7.129557"/>
    <path d="M 420.047465 152.202657 
L 420.047465 83.598462 
" clip-path="url(#pdaa0826461)" style="fill: none; stroke: #000000; stroke-width: 7.129557"/>
    <path d="M 420.047465 152.202657 
L 479.460441 186.504755 
" clip-path="url(#pdaa0826461)" style="fill: none; stroke: #000000; stroke-width: 7.129557"/>
    <path d="M 479.460441 49.296364 
L 420.047465 83.598462 
" clip-path="url(#pdaa0826461)" style="fill: none; stroke: #000000; stroke-width: 7.129557"/>
    <path d="M 479.460441 49.296364 
L 538.873417 83.598462 
" clip-path="url(#pdaa0826461)" style="fill: none; stroke: #000000; stroke-width: 7.129557"/>
    <path d="M 360.634488 460.921538 
L 301.221512 495.223636 
" clip-path="url(#pdaa0826461)" style="fill: none; stroke: #000000; stroke-width: 7.129557"/>
    <path d="M 360.634488 460.921538 
L 360.634488 392.317343 
" clip-path="url(#pdaa0826461)" style="fill: none; stroke: #000000; stroke-width: 7.129557"/>
    <path d="M 360.634488 460.921538 
L 420.047465 495.223636 
" clip-path="url(#pdaa0826461)" style="fill: none; stroke: #000000; stroke-width: 7.129557"/>
    <path d="M 420.047465 358.015245 
L 360.634488 392.317343 
" clip-path="url(#pdaa0826461)" style="fill: none; stroke: #000000; stroke-width: 7.129557"/>
    <path d="M 420.047465 358.015245 
L 420.047465 289.411049 
" clip-path="url(#pdaa0826461)" style="fill: none; stroke: #000000; stroke-width: 7.129557"/>
    <path d="M 420.047465 358.015245 
L 479.460441 392.317343 
" clip-path="url(#pdaa0826461)" style="fill: none; stroke: #000000; stroke-width: 7.129557"/>
    <path d="M 479.460441 255.108951 
L 420.047465 289.411049 
" clip-path="url(#pdaa0826461)" style="fill: none; stroke: #000000; stroke-width: 7.129557"/>
    <path d="M 479.460441 255.108951 
L 479.460441 186.504755 
" clip-path="url(#pdaa0826461)" style="fill: none; stroke: #000000; stroke-width: 7.129557"/>
    <path d="M 479.460441 255.108951 
L 538.873417 289.411049 
" clip-path="url(#pdaa0826461)" style="fill: none; stroke: #000000; stroke-width: 7.129557"/>
    <path d="M 538.873417 152.202657 
L 479.460441 186.504755 
" clip-path="url(#pdaa0826461)" style="fill: none; stroke: #000000; stroke-width: 7.129557"/>
    <path d="M 538.873417 152.202657 
L 538.873417 83.598462 
" clip-path="url(#pdaa0826461)" style="fill: none; stroke: #000000; stroke-width: 7.129557"/>
    <path d="M 538.873417 152.202657 
L 598.286394 186.504755 
" clip-path="url(#pdaa0826461)" style="fill: none; stroke: #000000; stroke-width: 7.129557"/>
    <path d="M 479.460441 460.921538 
L 420.047465 495.223636 
" clip-path="url(#pdaa0826461)" style="fill: none; stroke: #000000; stroke-width: 7.129557"/>
    <path d="M 479.460441 460.921538 
L 479.460441 392.317343 
" clip-path="url(#pdaa0826461)" style="fill: none; stroke: #000000; stroke-width: 7.129557"/>
    <path d="M 538.873417 358.015245 
L 479.460441 392.317343 
" clip-path="url(#pdaa0826461)" style="fill: none; stroke: #000000; stroke-width: 7.129557"/>
    <path d="M 538.873417 358.015245 
L 538.873417 289.411049 
" clip-path="url(#pdaa0826461)" style="fill: none; stroke: #000000; stroke-width: 7.129557"/>
    <path d="M 598.286394 255.108951 
L 538.873417 289.411049 
" clip-path="url(#pdaa0826461)" style="fill: none; stroke: #000000; stroke-width: 7.129557"/>
    <path d="M 598.286394 255.108951 
L 598.286394 186.504755 
" clip-path="url(#pdaa0826461)" style="fill: none; stroke: #000000; stroke-width: 7.129557"/>
   </g>
   <g id="matplotlib.axis_1">
    <g id="xtick_1">
     <g id="line2d_1">
      <defs>
       <path id="m9d0be8ec21" d="M 0 0 
L 0 3.5 
" style="stroke: #000000; stroke-width: 0.8"/>
      </defs>
      <g>
       <use xlink:href="#m9d0be8ec21" x="122.982583" y="517.52" style="stroke: #000000; stroke-width: 0.8"/>
      </g>
     </g>
     <g id="text_1">
      <!-- −2 -->
      <g transform="translate(104.554848 543.516094) scale(0.25 -0.25)">
       <defs>
        <path id="DejaVuSans-2212" d="M 678 2272 
L 4684 2272 
L 4684 1741 
L 678 1741 
L 678 2272 
z
" transform="scale(0.015625)"/>
        <path id="DejaVuSans-32" d="M 1228 531 
L 3431 531 
L 3431 0 
L 469 0 
L 469 531 
Q 828 903 1448 1529 
Q 2069 2156 2228 2338 
Q 2531 2678 2651 2914 
Q 2772 3150 2772 3378 
Q 2772 3750 2511 3984 
Q 2250 4219 1831 4219 
Q 1534 4219 1204 4116 
Q 875 4013 500 3803 
L 500 4441 
Q 881 4594 1212 4672 
Q 1544 4750 1819 4750 
Q 2544 4750 2975 4387 
Q 3406 4025 3406 3419 
Q 3406 3131 3298 2873 
Q 3191 2616 2906 2266 
Q 2828 2175 2409 1742 
Q 1991 1309 1228 531 
z
" transform="scale(0.015625)"/>
       </defs>
       <use xlink:href="#DejaVuSans-2212"/>
       <use xlink:href="#DejaVuSans-32" x="83.789062"/>
      </g>
     </g>
    </g>
    <g id="xtick_2">
     <g id="line2d_2">
      <g>
       <use xlink:href="#m9d0be8ec21" x="241.808536" y="517.52" style="stroke: #000000; stroke-width: 0.8"/>
      </g>
     </g>
     <g id="text_2">
      <!-- −1 -->
      <g transform="translate(223.380801 543.516094) scale(0.25 -0.25)">
       <defs>
        <path id="DejaVuSans-31" d="M 794 531 
L 1825 531 
L 1825 4091 
L 703 3866 
L 703 4441 
L 1819 4666 
L 2450 4666 
L 2450 531 
L 3481 531 
L 3481 0 
L 794 0 
L 794 531 
z
" transform="scale(0.015625)"/>
       </defs>
       <use xlink:href="#DejaVuSans-2212"/>
       <use xlink:href="#DejaVuSans-31" x="83.789062"/>
      </g>
     </g>
    </g>
    <g id="xtick_3">
     <g id="line2d_3">
      <g>
       <use xlink:href="#m9d0be8ec21" x="360.634488" y="517.52" style="stroke: #000000; stroke-width: 0.8"/>
      </g>
     </g>
     <g id="text_3">
      <!-- 0 -->
      <g transform="translate(352.681363 543.516094) scale(0.25 -0.25)">
       <defs>
        <path id="DejaVuSans-30" d="M 2034 4250 
Q 1547 4250 1301 3770 
Q 1056 3291 1056 2328 
Q 1056 1369 1301 889 
Q 1547 409 2034 409 
Q 2525 409 2770 889 
Q 3016 1369 3016 2328 
Q 3016 3291 2770 3770 
Q 2525 4250 2034 4250 
z
M 2034 4750 
Q 2819 4750 3233 4129 
Q 3647 3509 3647 2328 
Q 3647 1150 3233 529 
Q 2819 -91 2034 -91 
Q 1250 -91 836 529 
Q 422 1150 422 2328 
Q 422 3509 836 4129 
Q 1250 4750 2034 4750 
z
" transform="scale(0.015625)"/>
       </defs>
       <use xlink:href="#DejaVuSans-30"/>
      </g>
     </g>
    </g>
    <g id="xtick_4">
     <g id="line2d_4">
      <g>
       <use xlink:href="#m9d0be8ec21" x="479.460441" y="517.52" style="stroke: #000000; stroke-width: 0.8"/>
      </g>
     </g>
     <g id="text_4">
      <!-- 1 -->
      <g transform="translate(471.507316 543.516094) scale(0.25 -0.25)">
       <use xlink:href="#DejaVuSans-31"/>
      </g>
     </g>
    </g>
    <g id="xtick_5">
     <g id="line2d_5">
      <g>
       <use xlink:href="#m9d0be8ec21" x="598.286394" y="517.52" style="stroke: #000000; stroke-width: 0.8"/>
      </g>
     </g>
     <g id="text_5">
      <!-- 2 -->
      <g transform="translate(590.333269 543.516094) scale(0.25 -0.25)">
       <use xlink:href="#DejaVuSans-32"/>
      </g>
     </g>
    </g>
   </g>
   <g id="matplotlib.axis_2">
    <g id="ytick_1">
     <g id="line2d_6">
      <defs>
       <path id="mcd9eb5dfe2" d="M 0 0 
L -3.5 0 
" style="stroke: #000000; stroke-width: 0.8"/>
      </defs>
      <g>
       <use xlink:href="#mcd9eb5dfe2" x="99.217392" y="492.760857" style="stroke: #000000; stroke-width: 0.8"/>
      </g>
     </g>
     <g id="text_6">
      <!-- −2.0 -->
      <g transform="translate(31.510361 502.258903) scale(0.25 -0.25)">
       <defs>
        <path id="DejaVuSans-2e" d="M 684 794 
L 1344 794 
L 1344 0 
L 684 0 
L 684 794 
z
" transform="scale(0.015625)"/>
       </defs>
       <use xlink:href="#DejaVuSans-2212"/>
       <use xlink:href="#DejaVuSans-32" x="83.789062"/>
       <use xlink:href="#DejaVuSans-2e" x="147.412109"/>
       <use xlink:href="#DejaVuSans-30" x="179.199219"/>
      </g>
     </g>
    </g>
    <g id="ytick_2">
     <g id="line2d_7">
      <g>
       <use xlink:href="#mcd9eb5dfe2" x="99.217392" y="433.34788" style="stroke: #000000; stroke-width: 0.8"/>
      </g>
     </g>
     <g id="text_7">
      <!-- −1.5 -->
      <g transform="translate(31.510361 442.845927) scale(0.25 -0.25)">
       <defs>
        <path id="DejaVuSans-35" d="M 691 4666 
L 3169 4666 
L 3169 4134 
L 1269 4134 
L 1269 2991 
Q 1406 3038 1543 3061 
Q 1681 3084 1819 3084 
Q 2600 3084 3056 2656 
Q 3513 2228 3513 1497 
Q 3513 744 3044 326 
Q 2575 -91 1722 -91 
Q 1428 -91 1123 -41 
Q 819 9 494 109 
L 494 744 
Q 775 591 1075 516 
Q 1375 441 1709 441 
Q 2250 441 2565 725 
Q 2881 1009 2881 1497 
Q 2881 1984 2565 2268 
Q 2250 2553 1709 2553 
Q 1456 2553 1204 2497 
Q 953 2441 691 2322 
L 691 4666 
z
" transform="scale(0.015625)"/>
       </defs>
       <use xlink:href="#DejaVuSans-2212"/>
       <use xlink:href="#DejaVuSans-31" x="83.789062"/>
       <use xlink:href="#DejaVuSans-2e" x="147.412109"/>
       <use xlink:href="#DejaVuSans-35" x="179.199219"/>
      </g>
     </g>
    </g>
    <g id="ytick_3">
     <g id="line2d_8">
      <g>
       <use xlink:href="#mcd9eb5dfe2" x="99.217392" y="373.934904" style="stroke: #000000; stroke-width: 0.8"/>
      </g>
     </g>
     <g id="text_8">
      <!-- −1.0 -->
      <g transform="translate(31.510361 383.432951) scale(0.25 -0.25)">
       <use xlink:href="#DejaVuSans-2212"/>
       <use xlink:href="#DejaVuSans-31" x="83.789062"/>
       <use xlink:href="#DejaVuSans-2e" x="147.412109"/>
       <use xlink:href="#DejaVuSans-30" x="179.199219"/>
      </g>
     </g>
    </g>
    <g id="ytick_4">
     <g id="line2d_9">
      <g>
       <use xlink:href="#mcd9eb5dfe2" x="99.217392" y="314.521927" style="stroke: #000000; stroke-width: 0.8"/>
      </g>
     </g>
     <g id="text_9">
      <!-- −0.5 -->
      <g transform="translate(31.510361 324.019974) scale(0.25 -0.25)">
       <use xlink:href="#DejaVuSans-2212"/>
       <use xlink:href="#DejaVuSans-30" x="83.789062"/>
       <use xlink:href="#DejaVuSans-2e" x="147.412109"/>
       <use xlink:href="#DejaVuSans-35" x="179.199219"/>
      </g>
     </g>
    </g>
    <g id="ytick_5">
     <g id="line2d_10">
      <g>
       <use xlink:href="#mcd9eb5dfe2" x="99.217392" y="255.108951" style="stroke: #000000; stroke-width: 0.8"/>
      </g>
     </g>
     <g id="text_10">
      <!-- 0.0 -->
      <g transform="translate(52.45958 264.606998) scale(0.25 -0.25)">
       <use xlink:href="#DejaVuSans-30"/>
       <use xlink:href="#DejaVuSans-2e" x="63.623047"/>
       <use xlink:href="#DejaVuSans-30" x="95.410156"/>
      </g>
     </g>
    </g>
    <g id="ytick_6">
     <g id="line2d_11">
      <g>
       <use xlink:href="#mcd9eb5dfe2" x="99.217392" y="195.695975" style="stroke: #000000; stroke-width: 0.8"/>
      </g>
     </g>
     <g id="text_11">
      <!-- 0.5 -->
      <g transform="translate(52.45958 205.194022) scale(0.25 -0.25)">
       <use xlink:href="#DejaVuSans-30"/>
       <use xlink:href="#DejaVuSans-2e" x="63.623047"/>
       <use xlink:href="#DejaVuSans-35" x="95.410156"/>
      </g>
     </g>
    </g>
    <g id="ytick_7">
     <g id="line2d_12">
      <g>
       <use xlink:href="#mcd9eb5dfe2" x="99.217392" y="136.282998" style="stroke: #000000; stroke-width: 0.8"/>
      </g>
     </g>
     <g id="text_12">
      <!-- 1.0 -->
      <g transform="translate(52.45958 145.781045) scale(0.25 -0.25)">
       <use xlink:href="#DejaVuSans-31"/>
       <use xlink:href="#DejaVuSans-2e" x="63.623047"/>
       <use xlink:href="#DejaVuSans-30" x="95.410156"/>
      </g>
     </g>
    </g>
    <g id="ytick_8">
     <g id="line2d_13">
      <g>
       <use xlink:href="#mcd9eb5dfe2" x="99.217392" y="76.870022" style="stroke: #000000; stroke-width: 0.8"/>
      </g>
     </g>
     <g id="text_13">
      <!-- 1.5 -->
      <g transform="translate(52.45958 86.368069) scale(0.25 -0.25)">
       <use xlink:href="#DejaVuSans-31"/>
       <use xlink:href="#DejaVuSans-2e" x="63.623047"/>
       <use xlink:href="#DejaVuSans-35" x="95.410156"/>
      </g>
     </g>
    </g>
   </g>
   <g id="PathCollection_1">
    <path d="M 122.982583 272.932844 
C 127.709534 272.932844 132.243519 271.054806 135.585978 267.712347 
C 138.928438 264.369887 140.806476 259.835903 140.806476 255.108951 
C 140.806476 250.381999 138.928438 245.848015 135.585978 242.505556 
C 132.243519 239.163096 127.709534 237.285058 122.982583 237.285058 
C 118.255631 237.285058 113.721647 239.163096 110.379187 242.505556 
C 107.036728 245.848015 105.15869 250.381999 105.15869 255.108951 
C 105.15869 259.835903 107.036728 264.369887 110.379187 267.712347 
C 113.721647 271.054806 118.255631 272.932844 122.982583 272.932844 
z
" clip-path="url(#pdaa0826461)" style="fill: #1f77b4; stroke: #000000; stroke-width: 2.851823"/>
    <path d="M 182.395559 170.02655 
C 187.122511 170.02655 191.656495 168.148512 194.998955 164.806053 
C 198.341414 161.463593 200.219452 156.929609 200.219452 152.202657 
C 200.219452 147.475706 198.341414 142.941721 194.998955 139.599262 
C 191.656495 136.256802 187.122511 134.378764 182.395559 134.378764 
C 177.668608 134.378764 173.134623 136.256802 169.792164 139.599262 
C 166.449704 142.941721 164.571666 147.475706 164.571666 152.202657 
C 164.571666 156.929609 166.449704 161.463593 169.792164 164.806053 
C 173.134623 168.148512 177.668608 170.02655 182.395559 170.02655 
z
" clip-path="url(#pdaa0826461)" style="fill: #1f77b4; stroke: #000000; stroke-width: 2.851823"/>
    <path d="M 241.808536 67.120257 
C 246.535487 67.120257 251.069472 65.242219 254.411931 61.899759 
C 257.754391 58.5573 259.632429 54.023315 259.632429 49.296364 
C 259.632429 44.569412 257.754391 40.035428 254.411931 36.692968 
C 251.069472 33.350509 246.535487 31.472471 241.808536 31.472471 
C 237.081584 31.472471 232.5476 33.350509 229.20514 36.692968 
C 225.86268 40.035428 223.984643 44.569412 223.984643 49.296364 
C 223.984643 54.023315 225.86268 58.5573 229.20514 61.899759 
C 232.5476 65.242219 237.081584 67.120257 241.808536 67.120257 
z
" clip-path="url(#pdaa0826461)" style="fill: #1f77b4; stroke: #000000; stroke-width: 2.851823"/>
    <path d="M 182.395559 375.839138 
C 187.122511 375.839138 191.656495 373.9611 194.998955 370.61864 
C 198.341414 367.276181 200.219452 362.742196 200.219452 358.015245 
C 200.219452 353.288293 198.341414 348.754309 194.998955 345.411849 
C 191.656495 342.06939 187.122511 340.191352 182.395559 340.191352 
C 177.668608 340.191352 173.134623 342.06939 169.792164 345.411849 
C 166.449704 348.754309 164.571666 353.288293 164.571666 358.015245 
C 164.571666 362.742196 166.449704 367.276181 169.792164 370.61864 
C 173.134623 373.9611 177.668608 375.839138 182.395559 375.839138 
z
" clip-path="url(#pdaa0826461)" style="fill: #1f77b4; stroke: #000000; stroke-width: 2.851823"/>
    <path d="M 241.808536 272.932844 
C 246.535487 272.932844 251.069472 271.054806 254.411931 267.712347 
C 257.754391 264.369887 259.632429 259.835903 259.632429 255.108951 
C 259.632429 250.381999 257.754391 245.848015 254.411931 242.505556 
C 251.069472 239.163096 246.535487 237.285058 241.808536 237.285058 
C 237.081584 237.285058 232.5476 239.163096 229.20514 242.505556 
C 225.86268 245.848015 223.984643 250.381999 223.984643 255.108951 
C 223.984643 259.835903 225.86268 264.369887 229.20514 267.712347 
C 232.5476 271.054806 237.081584 272.932844 241.808536 272.932844 
z
" clip-path="url(#pdaa0826461)" style="fill: #1f77b4; stroke: #000000; stroke-width: 2.851823"/>
    <path d="M 301.221512 170.02655 
C 305.948464 170.02655 310.482448 168.148512 313.824908 164.806053 
C 317.167367 161.463593 319.045405 156.929609 319.045405 152.202657 
C 319.045405 147.475706 317.167367 142.941721 313.824908 139.599262 
C 310.482448 136.256802 305.948464 134.378764 301.221512 134.378764 
C 296.49456 134.378764 291.960576 136.256802 288.618116 139.599262 
C 285.275657 142.941721 283.397619 147.475706 283.397619 152.202657 
C 283.397619 156.929609 285.275657 161.463593 288.618116 164.806053 
C 291.960576 168.148512 296.49456 170.02655 301.221512 170.02655 
z
" clip-path="url(#pdaa0826461)" style="fill: #1f77b4; stroke: #000000; stroke-width: 2.851823"/>
    <path d="M 360.634488 67.120257 
C 365.36144 67.120257 369.895424 65.242219 373.237884 61.899759 
C 376.580343 58.5573 378.458381 54.023315 378.458381 49.296364 
C 378.458381 44.569412 376.580343 40.035428 373.237884 36.692968 
C 369.895424 33.350509 365.36144 31.472471 360.634488 31.472471 
C 355.907537 31.472471 351.373552 33.350509 348.031093 36.692968 
C 344.688633 40.035428 342.810595 44.569412 342.810595 49.296364 
C 342.810595 54.023315 344.688633 58.5573 348.031093 61.899759 
C 351.373552 65.242219 355.907537 67.120257 360.634488 67.120257 
z
" clip-path="url(#pdaa0826461)" style="fill: #1f77b4; stroke: #000000; stroke-width: 2.851823"/>
    <path d="M 241.808536 478.745431 
C 246.535487 478.745431 251.069472 476.867394 254.411931 473.524934 
C 257.754391 470.182474 259.632429 465.64849 259.632429 460.921538 
C 259.632429 456.194587 257.754391 451.660602 254.411931 448.318143 
C 251.069472 444.975683 246.535487 443.097646 241.808536 443.097646 
C 237.081584 443.097646 232.5476 444.975683 229.20514 448.318143 
C 225.86268 451.660602 223.984643 456.194587 223.984643 460.921538 
C 223.984643 465.64849 225.86268 470.182474 229.20514 473.524934 
C 232.5476 476.867394 237.081584 478.745431 241.808536 478.745431 
z
" clip-path="url(#pdaa0826461)" style="fill: #1f77b4; stroke: #000000; stroke-width: 2.851823"/>
    <path d="M 301.221512 375.839138 
C 305.948464 375.839138 310.482448 373.9611 313.824908 370.61864 
C 317.167367 367.276181 319.045405 362.742196 319.045405 358.015245 
C 319.045405 353.288293 317.167367 348.754309 313.824908 345.411849 
C 310.482448 342.06939 305.948464 340.191352 301.221512 340.191352 
C 296.49456 340.191352 291.960576 342.06939 288.618116 345.411849 
C 285.275657 348.754309 283.397619 353.288293 283.397619 358.015245 
C 283.397619 362.742196 285.275657 367.276181 288.618116 370.61864 
C 291.960576 373.9611 296.49456 375.839138 301.221512 375.839138 
z
" clip-path="url(#pdaa0826461)" style="fill: #1f77b4; stroke: #000000; stroke-width: 2.851823"/>
    <path d="M 360.634488 284.767909 
C 368.500136 284.767909 376.044686 281.642854 381.606539 276.081001 
C 387.168391 270.519149 390.293446 262.974599 390.293446 255.108951 
C 390.293446 247.243303 387.168391 239.698754 381.606539 234.136901 
C 376.044686 228.575048 368.500136 225.449993 360.634488 225.449993 
C 352.768841 225.449993 345.224291 228.575048 339.662438 234.136901 
C 334.100585 239.698754 330.975531 247.243303 330.975531 255.108951 
C 330.975531 262.974599 334.100585 270.519149 339.662438 276.081001 
C 345.224291 281.642854 352.768841 284.767909 360.634488 284.767909 
z
" clip-path="url(#pdaa0826461)" style="fill: #800080; stroke: #000000; stroke-width: 2.851823"/>
    <path d="M 420.047465 170.02655 
C 424.774416 170.02655 429.308401 168.148512 432.65086 164.806053 
C 435.99332 161.463593 437.871358 156.929609 437.871358 152.202657 
C 437.871358 147.475706 435.99332 142.941721 432.65086 139.599262 
C 429.308401 136.256802 424.774416 134.378764 420.047465 134.378764 
C 415.320513 134.378764 410.786529 136.256802 407.444069 139.599262 
C 404.10161 142.941721 402.223572 147.475706 402.223572 152.202657 
C 402.223572 156.929609 404.10161 161.463593 407.444069 164.806053 
C 410.786529 168.148512 415.320513 170.02655 420.047465 170.02655 
z
" clip-path="url(#pdaa0826461)" style="fill: #1f77b4; stroke: #000000; stroke-width: 2.851823"/>
    <path d="M 479.460441 67.120257 
C 484.187393 67.120257 488.721377 65.242219 492.063837 61.899759 
C 495.406296 58.5573 497.284334 54.023315 497.284334 49.296364 
C 497.284334 44.569412 495.406296 40.035428 492.063837 36.692968 
C 488.721377 33.350509 484.187393 31.472471 479.460441 31.472471 
C 474.733489 31.472471 470.199505 33.350509 466.857046 36.692968 
C 463.514586 40.035428 461.636548 44.569412 461.636548 49.296364 
C 461.636548 54.023315 463.514586 58.5573 466.857046 61.899759 
C 470.199505 65.242219 474.733489 67.120257 479.460441 67.120257 
z
" clip-path="url(#pdaa0826461)" style="fill: #1f77b4; stroke: #000000; stroke-width: 2.851823"/>
    <path d="M 360.634488 478.745431 
C 365.36144 478.745431 369.895424 476.867394 373.237884 473.524934 
C 376.580343 470.182474 378.458381 465.64849 378.458381 460.921538 
C 378.458381 456.194587 376.580343 451.660602 373.237884 448.318143 
C 369.895424 444.975683 365.36144 443.097646 360.634488 443.097646 
C 355.907537 443.097646 351.373552 444.975683 348.031093 448.318143 
C 344.688633 451.660602 342.810595 456.194587 342.810595 460.921538 
C 342.810595 465.64849 344.688633 470.182474 348.031093 473.524934 
C 351.373552 476.867394 355.907537 478.745431 360.634488 478.745431 
z
" clip-path="url(#pdaa0826461)" style="fill: #1f77b4; stroke: #000000; stroke-width: 2.851823"/>
    <path d="M 420.047465 375.839138 
C 424.774416 375.839138 429.308401 373.9611 432.65086 370.61864 
C 435.99332 367.276181 437.871358 362.742196 437.871358 358.015245 
C 437.871358 353.288293 435.99332 348.754309 432.65086 345.411849 
C 429.308401 342.06939 424.774416 340.191352 420.047465 340.191352 
C 415.320513 340.191352 410.786529 342.06939 407.444069 345.411849 
C 404.10161 348.754309 402.223572 353.288293 402.223572 358.015245 
C 402.223572 362.742196 404.10161 367.276181 407.444069 370.61864 
C 410.786529 373.9611 415.320513 375.839138 420.047465 375.839138 
z
" clip-path="url(#pdaa0826461)" style="fill: #1f77b4; stroke: #000000; stroke-width: 2.851823"/>
    <path d="M 479.460441 272.932844 
C 484.187393 272.932844 488.721377 271.054806 492.063837 267.712347 
C 495.406296 264.369887 497.284334 259.835903 497.284334 255.108951 
C 497.284334 250.381999 495.406296 245.848015 492.063837 242.505556 
C 488.721377 239.163096 484.187393 237.285058 479.460441 237.285058 
C 474.733489 237.285058 470.199505 239.163096 466.857046 242.505556 
C 463.514586 245.848015 461.636548 250.381999 461.636548 255.108951 
C 461.636548 259.835903 463.514586 264.369887 466.857046 267.712347 
C 470.199505 271.054806 474.733489 272.932844 479.460441 272.932844 
z
" clip-path="url(#pdaa0826461)" style="fill: #1f77b4; stroke: #000000; stroke-width: 2.851823"/>
    <path d="M 538.873417 170.02655 
C 543.600369 170.02655 548.134353 168.148512 551.476813 164.806053 
C 554.819273 161.463593 556.69731 156.929609 556.69731 152.202657 
C 556.69731 147.475706 554.819273 142.941721 551.476813 139.599262 
C 548.134353 136.256802 543.600369 134.378764 538.873417 134.378764 
C 534.146466 134.378764 529.612481 136.256802 526.270022 139.599262 
C 522.927562 142.941721 521.049525 147.475706 521.049525 152.202657 
C 521.049525 156.929609 522.927562 161.463593 526.270022 164.806053 
C 529.612481 168.148512 534.146466 170.02655 538.873417 170.02655 
z
" clip-path="url(#pdaa0826461)" style="fill: #1f77b4; stroke: #000000; stroke-width: 2.851823"/>
    <path d="M 479.460441 478.745431 
C 484.187393 478.745431 488.721377 476.867394 492.063837 473.524934 
C 495.406296 470.182474 497.284334 465.64849 497.284334 460.921538 
C 497.284334 456.194587 495.406296 451.660602 492.063837 448.318143 
C 488.721377 444.975683 484.187393 443.097646 479.460441 443.097646 
C 474.733489 443.097646 470.199505 444.975683 466.857046 448.318143 
C 463.514586 451.660602 461.636548 456.194587 461.636548 460.921538 
C 461.636548 465.64849 463.514586 470.182474 466.857046 473.524934 
C 470.199505 476.867394 474.733489 478.745431 479.460441 478.745431 
z
" clip-path="url(#pdaa0826461)" style="fill: #1f77b4; stroke: #000000; stroke-width: 2.851823"/>
    <path d="M 538.873417 375.839138 
C 543.600369 375.839138 548.134353 373.9611 551.476813 370.61864 
C 554.819273 367.276181 556.69731 362.742196 556.69731 358.015245 
C 556.69731 353.288293 554.819273 348.754309 551.476813 345.411849 
C 548.134353 342.06939 543.600369 340.191352 538.873417 340.191352 
C 534.146466 340.191352 529.612481 342.06939 526.270022 345.411849 
C 522.927562 348.754309 521.049525 353.288293 521.049525 358.015245 
C 521.049525 362.742196 522.927562 367.276181 526.270022 370.61864 
C 529.612481 373.9611 534.146466 375.839138 538.873417 375.839138 
z
" clip-path="url(#pdaa0826461)" style="fill: #1f77b4; stroke: #000000; stroke-width: 2.851823"/>
    <path d="M 598.286394 272.932844 
C 603.013345 272.932844 607.54733 271.054806 610.889789 267.712347 
C 614.232249 264.369887 616.110287 259.835903 616.110287 255.108951 
C 616.110287 250.381999 614.232249 245.848015 610.889789 242.505556 
C 607.54733 239.163096 603.013345 237.285058 598.286394 237.285058 
C 593.559442 237.285058 589.025458 239.163096 585.682998 242.505556 
C 582.340539 245.848015 580.462501 250.381999 580.462501 255.108951 
C 580.462501 259.835903 582.340539 264.369887 585.682998 267.712347 
C 589.025458 271.054806 593.559442 272.932844 598.286394 272.932844 
z
" clip-path="url(#pdaa0826461)" style="fill: #1f77b4; stroke: #000000; stroke-width: 2.851823"/>
    <path d="M 122.982583 204.328648 
C 127.709534 204.328648 132.243519 202.45061 135.585978 199.108151 
C 138.928438 195.765691 140.806476 191.231707 140.806476 186.504755 
C 140.806476 181.777804 138.928438 177.243819 135.585978 173.90136 
C 132.243519 170.5589 127.709534 168.680862 122.982583 168.680862 
C 118.255631 168.680862 113.721647 170.5589 110.379187 173.90136 
C 107.036728 177.243819 105.15869 181.777804 105.15869 186.504755 
C 105.15869 191.231707 107.036728 195.765691 110.379187 199.108151 
C 113.721647 202.45061 118.255631 204.328648 122.982583 204.328648 
z
" clip-path="url(#pdaa0826461)" style="fill: #ff7f0e; stroke: #000000; stroke-width: 2.851823"/>
    <path d="M 182.395559 101.422354 
C 187.122511 101.422354 191.656495 99.544317 194.998955 96.201857 
C 198.341414 92.859398 200.219452 88.325413 200.219452 83.598462 
C 200.219452 78.87151 198.341414 74.337526 194.998955 70.995066 
C 191.656495 67.652606 187.122511 65.774569 182.395559 65.774569 
C 177.668608 65.774569 173.134623 67.652606 169.792164 70.995066 
C 166.449704 74.337526 164.571666 78.87151 164.571666 83.598462 
C 164.571666 88.325413 166.449704 92.859398 169.792164 96.201857 
C 173.134623 99.544317 177.668608 101.422354 182.395559 101.422354 
z
" clip-path="url(#pdaa0826461)" style="fill: #ff7f0e; stroke: #000000; stroke-width: 2.851823"/>
    <path d="M 182.395559 307.234942 
C 187.122511 307.234942 191.656495 305.356904 194.998955 302.014444 
C 198.341414 298.671985 200.219452 294.138001 200.219452 289.411049 
C 200.219452 284.684097 198.341414 280.150113 194.998955 276.807653 
C 191.656495 273.465194 187.122511 271.587156 182.395559 271.587156 
C 177.668608 271.587156 173.134623 273.465194 169.792164 276.807653 
C 166.449704 280.150113 164.571666 284.684097 164.571666 289.411049 
C 164.571666 294.138001 166.449704 298.671985 169.792164 302.014444 
C 173.134623 305.356904 177.668608 307.234942 182.395559 307.234942 
z
" clip-path="url(#pdaa0826461)" style="fill: #ff7f0e; stroke: #000000; stroke-width: 2.851823"/>
    <path d="M 241.808536 204.328648 
C 246.535487 204.328648 251.069472 202.45061 254.411931 199.108151 
C 257.754391 195.765691 259.632429 191.231707 259.632429 186.504755 
C 259.632429 181.777804 257.754391 177.243819 254.411931 173.90136 
C 251.069472 170.5589 246.535487 168.680862 241.808536 168.680862 
C 237.081584 168.680862 232.5476 170.5589 229.20514 173.90136 
C 225.86268 177.243819 223.984643 181.777804 223.984643 186.504755 
C 223.984643 191.231707 225.86268 195.765691 229.20514 199.108151 
C 232.5476 202.45061 237.081584 204.328648 241.808536 204.328648 
z
" clip-path="url(#pdaa0826461)" style="fill: #ff7f0e; stroke: #000000; stroke-width: 2.851823"/>
    <path d="M 301.221512 101.422354 
C 305.948464 101.422354 310.482448 99.544317 313.824908 96.201857 
C 317.167367 92.859398 319.045405 88.325413 319.045405 83.598462 
C 319.045405 78.87151 317.167367 74.337526 313.824908 70.995066 
C 310.482448 67.652606 305.948464 65.774569 301.221512 65.774569 
C 296.49456 65.774569 291.960576 67.652606 288.618116 70.995066 
C 285.275657 74.337526 283.397619 78.87151 283.397619 83.598462 
C 283.397619 88.325413 285.275657 92.859398 288.618116 96.201857 
C 291.960576 99.544317 296.49456 101.422354 301.221512 101.422354 
z
" clip-path="url(#pdaa0826461)" style="fill: #ff7f0e; stroke: #000000; stroke-width: 2.851823"/>
    <path d="M 241.808536 410.141236 
C 246.535487 410.141236 251.069472 408.263198 254.411931 404.920738 
C 257.754391 401.578279 259.632429 397.044294 259.632429 392.317343 
C 259.632429 387.590391 257.754391 383.056407 254.411931 379.713947 
C 251.069472 376.371488 246.535487 374.49345 241.808536 374.49345 
C 237.081584 374.49345 232.5476 376.371488 229.20514 379.713947 
C 225.86268 383.056407 223.984643 387.590391 223.984643 392.317343 
C 223.984643 397.044294 225.86268 401.578279 229.20514 404.920738 
C 232.5476 408.263198 237.081584 410.141236 241.808536 410.141236 
z
" clip-path="url(#pdaa0826461)" style="fill: #ff7f0e; stroke: #000000; stroke-width: 2.851823"/>
    <path d="M 301.221512 307.234942 
C 305.948464 307.234942 310.482448 305.356904 313.824908 302.014444 
C 317.167367 298.671985 319.045405 294.138001 319.045405 289.411049 
C 319.045405 284.684097 317.167367 280.150113 313.824908 276.807653 
C 310.482448 273.465194 305.948464 271.587156 301.221512 271.587156 
C 296.49456 271.587156 291.960576 273.465194 288.618116 276.807653 
C 285.275657 280.150113 283.397619 284.684097 283.397619 289.411049 
C 283.397619 294.138001 285.275657 298.671985 288.618116 302.014444 
C 291.960576 305.356904 296.49456 307.234942 301.221512 307.234942 
z
" clip-path="url(#pdaa0826461)" style="fill: #ff7f0e; stroke: #000000; stroke-width: 2.851823"/>
    <path d="M 360.634488 204.328648 
C 365.36144 204.328648 369.895424 202.45061 373.237884 199.108151 
C 376.580343 195.765691 378.458381 191.231707 378.458381 186.504755 
C 378.458381 181.777804 376.580343 177.243819 373.237884 173.90136 
C 369.895424 170.5589 365.36144 168.680862 360.634488 168.680862 
C 355.907537 168.680862 351.373552 170.5589 348.031093 173.90136 
C 344.688633 177.243819 342.810595 181.777804 342.810595 186.504755 
C 342.810595 191.231707 344.688633 195.765691 348.031093 199.108151 
C 351.373552 202.45061 355.907537 204.328648 360.634488 204.328648 
z
" clip-path="url(#pdaa0826461)" style="fill: #ff7f0e; stroke: #000000; stroke-width: 2.851823"/>
    <path d="M 420.047465 101.422354 
C 424.774416 101.422354 429.308401 99.544317 432.65086 96.201857 
C 435.99332 92.859398 437.871358 88.325413 437.871358 83.598462 
C 437.871358 78.87151 435.99332 74.337526 432.65086 70.995066 
C 429.308401 67.652606 424.774416 65.774569 420.047465 65.774569 
C 415.320513 65.774569 410.786529 67.652606 407.444069 70.995066 
C 404.10161 74.337526 402.223572 78.87151 402.223572 83.598462 
C 402.223572 88.325413 404.10161 92.859398 407.444069 96.201857 
C 410.786529 99.544317 415.320513 101.422354 420.047465 101.422354 
z
" clip-path="url(#pdaa0826461)" style="fill: #ff7f0e; stroke: #000000; stroke-width: 2.851823"/>
    <path d="M 301.221512 513.047529 
C 305.948464 513.047529 310.482448 511.169491 313.824908 507.827032 
C 317.167367 504.484572 319.045405 499.950588 319.045405 495.223636 
C 319.045405 490.496685 317.167367 485.9627 313.824908 482.620241 
C 310.482448 479.277781 305.948464 477.399743 301.221512 477.399743 
C 296.49456 477.399743 291.960576 479.277781 288.618116 482.620241 
C 285.275657 485.9627 283.397619 490.496685 283.397619 495.223636 
C 283.397619 499.950588 285.275657 504.484572 288.618116 507.827032 
C 291.960576 511.169491 296.49456 513.047529 301.221512 513.047529 
z
" clip-path="url(#pdaa0826461)" style="fill: #ff7f0e; stroke: #000000; stroke-width: 2.851823"/>
    <path d="M 360.634488 410.141236 
C 365.36144 410.141236 369.895424 408.263198 373.237884 404.920738 
C 376.580343 401.578279 378.458381 397.044294 378.458381 392.317343 
C 378.458381 387.590391 376.580343 383.056407 373.237884 379.713947 
C 369.895424 376.371488 365.36144 374.49345 360.634488 374.49345 
C 355.907537 374.49345 351.373552 376.371488 348.031093 379.713947 
C 344.688633 383.056407 342.810595 387.590391 342.810595 392.317343 
C 342.810595 397.044294 344.688633 401.578279 348.031093 404.920738 
C 351.373552 408.263198 355.907537 410.141236 360.634488 410.141236 
z
" clip-path="url(#pdaa0826461)" style="fill: #ff7f0e; stroke: #000000; stroke-width: 2.851823"/>
    <path d="M 420.047465 307.234942 
C 424.774416 307.234942 429.308401 305.356904 432.65086 302.014444 
C 435.99332 298.671985 437.871358 294.138001 437.871358 289.411049 
C 437.871358 284.684097 435.99332 280.150113 432.65086 276.807653 
C 429.308401 273.465194 424.774416 271.587156 420.047465 271.587156 
C 415.320513 271.587156 410.786529 273.465194 407.444069 276.807653 
C 404.10161 280.150113 402.223572 284.684097 402.223572 289.411049 
C 402.223572 294.138001 404.10161 298.671985 407.444069 302.014444 
C 410.786529 305.356904 415.320513 307.234942 420.047465 307.234942 
z
" clip-path="url(#pdaa0826461)" style="fill: #ff7f0e; stroke: #000000; stroke-width: 2.851823"/>
    <path d="M 479.460441 204.328648 
C 484.187393 204.328648 488.721377 202.45061 492.063837 199.108151 
C 495.406296 195.765691 497.284334 191.231707 497.284334 186.504755 
C 497.284334 181.777804 495.406296 177.243819 492.063837 173.90136 
C 488.721377 170.5589 484.187393 168.680862 479.460441 168.680862 
C 474.733489 168.680862 470.199505 170.5589 466.857046 173.90136 
C 463.514586 177.243819 461.636548 181.777804 461.636548 186.504755 
C 461.636548 191.231707 463.514586 195.765691 466.857046 199.108151 
C 470.199505 202.45061 474.733489 204.328648 479.460441 204.328648 
z
" clip-path="url(#pdaa0826461)" style="fill: #ff7f0e; stroke: #000000; stroke-width: 2.851823"/>
    <path d="M 538.873417 101.422354 
C 543.600369 101.422354 548.134353 99.544317 551.476813 96.201857 
C 554.819273 92.859398 556.69731 88.325413 556.69731 83.598462 
C 556.69731 78.87151 554.819273 74.337526 551.476813 70.995066 
C 548.134353 67.652606 543.600369 65.774569 538.873417 65.774569 
C 534.146466 65.774569 529.612481 67.652606 526.270022 70.995066 
C 522.927562 74.337526 521.049525 78.87151 521.049525 83.598462 
C 521.049525 88.325413 522.927562 92.859398 526.270022 96.201857 
C 529.612481 99.544317 534.146466 101.422354 538.873417 101.422354 
z
" clip-path="url(#pdaa0826461)" style="fill: #ff7f0e; stroke: #000000; stroke-width: 2.851823"/>
    <path d="M 420.047465 513.047529 
C 424.774416 513.047529 429.308401 511.169491 432.65086 507.827032 
C 435.99332 504.484572 437.871358 499.950588 437.871358 495.223636 
C 437.871358 490.496685 435.99332 485.9627 432.65086 482.620241 
C 429.308401 479.277781 424.774416 477.399743 420.047465 477.399743 
C 415.320513 477.399743 410.786529 479.277781 407.444069 482.620241 
C 404.10161 485.9627 402.223572 490.496685 402.223572 495.223636 
C 402.223572 499.950588 404.10161 504.484572 407.444069 507.827032 
C 410.786529 511.169491 415.320513 513.047529 420.047465 513.047529 
z
" clip-path="url(#pdaa0826461)" style="fill: #ff7f0e; stroke: #000000; stroke-width: 2.851823"/>
    <path d="M 479.460441 410.141236 
C 484.187393 410.141236 488.721377 408.263198 492.063837 404.920738 
C 495.406296 401.578279 497.284334 397.044294 497.284334 392.317343 
C 497.284334 387.590391 495.406296 383.056407 492.063837 379.713947 
C 488.721377 376.371488 484.187393 374.49345 479.460441 374.49345 
C 474.733489 374.49345 470.199505 376.371488 466.857046 379.713947 
C 463.514586 383.056407 461.636548 387.590391 461.636548 392.317343 
C 461.636548 397.044294 463.514586 401.578279 466.857046 404.920738 
C 470.199505 408.263198 474.733489 410.141236 479.460441 410.141236 
z
" clip-path="url(#pdaa0826461)" style="fill: #ff7f0e; stroke: #000000; stroke-width: 2.851823"/>
    <path d="M 538.873417 307.234942 
C 543.600369 307.234942 548.134353 305.356904 551.476813 302.014444 
C 554.819273 298.671985 556.69731 294.138001 556.69731 289.411049 
C 556.69731 284.684097 554.819273 280.150113 551.476813 276.807653 
C 548.134353 273.465194 543.600369 271.587156 538.873417 271.587156 
C 534.146466 271.587156 529.612481 273.465194 526.270022 276.807653 
C 522.927562 280.150113 521.049525 284.684097 521.049525 289.411049 
C 521.049525 294.138001 522.927562 298.671985 526.270022 302.014444 
C 529.612481 305.356904 534.146466 307.234942 538.873417 307.234942 
z
" clip-path="url(#pdaa0826461)" style="fill: #ff7f0e; stroke: #000000; stroke-width: 2.851823"/>
    <path d="M 598.286394 204.328648 
C 603.013345 204.328648 607.54733 202.45061 610.889789 199.108151 
C 614.232249 195.765691 616.110287 191.231707 616.110287 186.504755 
C 616.110287 181.777804 614.232249 177.243819 610.889789 173.90136 
C 607.54733 170.5589 603.013345 168.680862 598.286394 168.680862 
C 593.559442 168.680862 589.025458 170.5589 585.682998 173.90136 
C 582.340539 177.243819 580.462501 181.777804 580.462501 186.504755 
C 580.462501 191.231707 582.340539 195.765691 585.682998 199.108151 
C 589.025458 202.45061 593.559442 204.328648 598.286394 204.328648 
z
" clip-path="url(#pdaa0826461)" style="fill: #ff7f0e; stroke: #000000; stroke-width: 2.851823"/>
   </g>
   <g id="patch_3">
    <path d="M 99.217392 517.52 
L 99.217392 27 
" style="fill: none; stroke: #000000; stroke-width: 0.8; stroke-linejoin: miter; stroke-linecap: square"/>
   </g>
   <g id="patch_4">
    <path d="M 622.051584 517.52 
L 622.051584 27 
" style="fill: none; stroke: #000000; stroke-width: 0.8; stroke-linejoin: miter; stroke-linecap: square"/>
   </g>
   <g id="patch_5">
    <path d="M 99.217392 517.52 
L 622.051584 517.52 
" style="fill: none; stroke: #000000; stroke-width: 0.8; stroke-linejoin: miter; stroke-linecap: square"/>
   </g>
   <g id="patch_6">
    <path d="M 99.217392 27 
L 622.051584 27 
" style="fill: none; stroke: #000000; stroke-width: 0.8; stroke-linejoin: miter; stroke-linecap: square"/>
   </g>
  </g>
 </g>
 <defs>
  <clipPath id="pdaa0826461">
   <rect x="99.217392" y="27" width="522.834192" height="490.52"/>
  </clipPath>
 </defs>
</svg>
