<?xml version="1.0" encoding="utf-8" standalone="no"?>
<!DOCTYPE svg PUBLIC "-//W3C//DTD SVG 1.1//EN"
  "http://www.w3.org/Graphics/SVG/1.1/DTD/svg11.dtd">
<svg xmlns:xlink="http://www.w3.org/1999/xlink" width="720pt" height="576pt" viewBox="0 0 720 576" xmlns="http://www.w3.org/2000/svg" version="1.1">
 <metadata>
  <rdf:RDF xmlns:dc="http://purl.org/dc/elements/1.1/" xmlns:cc="http://creativecommons.org/ns#" xmlns:rdf="http://www.w3.org/1999/02/22-rdf-syntax-ns#">
   <cc:Work>
    <dc:type rdf:resource="http://purl.org/dc/dcmitype/StillImage"/>
    <dc:date>2023-04-16T00:50:32.662359</dc:date>
    <dc:format>image/svg+xml</dc:format>
    <dc:creator>
     <cc:Agent>
      <dc:title>Matplotlib v3.7.1, https://matplotlib.org/</dc:title>
     </cc:Agent>
    </dc:creator>
   </cc:Work>
  </rdf:RDF>
 </metadata>
 <defs>
  <style type="text/css">*{stroke-linejoin: round; stroke-linecap: butt}</style>
 </defs>
 <g id="figure_1">
  <g id="patch_1">
   <path d="M 0 576 
L 720 576 
L 720 0 
L 0 0 
z
" style="fill: #ffffff"/>
  </g>
  <g id="axes_1">
   <g id="patch_2">
    <path d="M 95.448113 517.52 
L 632.0411 517.52 
L 632.0411 27 
L 95.448113 27 
z
" style="fill: #ffffff"/>
   </g>
   <g id="LineCollection_1">
    <path d="M 119.838703 260.525072 
L 119.838703 213.585359 
" clip-path="url(#pe63e4ef0d2)" style="fill: none; stroke: #000000; stroke-width: 4.878118"/>
    <path d="M 119.838703 260.525072 
L 160.489687 283.994928 
" clip-path="url(#pe63e4ef0d2)" style="fill: none; stroke: #000000; stroke-width: 4.878118"/>
    <path d="M 160.489687 190.115502 
L 119.838703 213.585359 
" clip-path="url(#pe63e4ef0d2)" style="fill: none; stroke: #000000; stroke-width: 4.878118"/>
    <path d="M 160.489687 190.115502 
L 160.489687 143.175789 
" clip-path="url(#pe63e4ef0d2)" style="fill: none; stroke: #000000; stroke-width: 4.878118"/>
    <path d="M 160.489687 190.115502 
L 201.140671 213.585359 
" clip-path="url(#pe63e4ef0d2)" style="fill: none; stroke: #000000; stroke-width: 4.878118"/>
    <path d="M 201.140671 119.705933 
L 160.489687 143.175789 
" clip-path="url(#pe63e4ef0d2)" style="fill: none; stroke: #000000; stroke-width: 4.878118"/>
    <path d="M 201.140671 119.705933 
L 201.140671 72.76622 
" clip-path="url(#pe63e4ef0d2)" style="fill: none; stroke: #000000; stroke-width: 4.878118"/>
    <path d="M 201.140671 119.705933 
L 241.791655 143.175789 
" clip-path="url(#pe63e4ef0d2)" style="fill: none; stroke: #000000; stroke-width: 4.878118"/>
    <path d="M 241.791655 49.296364 
L 201.140671 72.76622 
" clip-path="url(#pe63e4ef0d2)" style="fill: none; stroke: #000000; stroke-width: 4.878118"/>
    <path d="M 241.791655 49.296364 
L 282.442639 72.76622 
" clip-path="url(#pe63e4ef0d2)" style="fill: none; stroke: #000000; stroke-width: 4.878118"/>
    <path d="M 160.489687 330.934641 
L 160.489687 283.994928 
" clip-path="url(#pe63e4ef0d2)" style="fill: none; stroke: #000000; stroke-width: 4.878118"/>
    <path d="M 160.489687 330.934641 
L 201.140671 354.404498 
" clip-path="url(#pe63e4ef0d2)" style="fill: none; stroke: #000000; stroke-width: 4.878118"/>
    <path d="M 201.140671 260.525072 
L 160.489687 283.994928 
" clip-path="url(#pe63e4ef0d2)" style="fill: none; stroke: #000000; stroke-width: 4.878118"/>
    <path d="M 201.140671 260.525072 
L 201.140671 213.585359 
" clip-path="url(#pe63e4ef0d2)" style="fill: none; stroke: #000000; stroke-width: 4.878118"/>
    <path d="M 201.140671 260.525072 
L 241.791655 283.994928 
" clip-path="url(#pe63e4ef0d2)" style="fill: none; stroke: #000000; stroke-width: 4.878118"/>
    <path d="M 241.791655 190.115502 
L 201.140671 213.585359 
" clip-path="url(#pe63e4ef0d2)" style="fill: none; stroke: #000000; stroke-width: 4.878118"/>
    <path d="M 241.791655 190.115502 
L 241.791655 143.175789 
" clip-path="url(#pe63e4ef0d2)" style="fill: none; stroke: #000000; stroke-width: 4.878118"/>
    <path d="M 241.791655 190.115502 
L 282.442639 213.585359 
" clip-path="url(#pe63e4ef0d2)" style="fill: none; stroke: #000000; stroke-width: 4.878118"/>
    <path d="M 282.442639 119.705933 
L 241.791655 143.175789 
" clip-path="url(#pe63e4ef0d2)" style="fill: none; stroke: #000000; stroke-width: 4.878118"/>
    <path d="M 282.442639 119.705933 
L 282.442639 72.76622 
" clip-path="url(#pe63e4ef0d2)" style="fill: none; stroke: #000000; stroke-width: 4.878118"/>
    <path d="M 282.442639 119.705933 
L 323.093623 143.175789 
" clip-path="url(#pe63e4ef0d2)" style="fill: none; stroke: #000000; stroke-width: 4.878118"/>
    <path d="M 323.093623 49.296364 
L 282.442639 72.76622 
" clip-path="url(#pe63e4ef0d2)" style="fill: none; stroke: #000000; stroke-width: 4.878118"/>
    <path d="M 323.093623 49.296364 
L 363.744606 72.76622 
" clip-path="url(#pe63e4ef0d2)" style="fill: none; stroke: #000000; stroke-width: 4.878118"/>
    <path d="M 201.140671 401.344211 
L 201.140671 354.404498 
" clip-path="url(#pe63e4ef0d2)" style="fill: none; stroke: #000000; stroke-width: 4.878118"/>
    <path d="M 201.140671 401.344211 
L 241.791655 424.814067 
" clip-path="url(#pe63e4ef0d2)" style="fill: none; stroke: #000000; stroke-width: 4.878118"/>
    <path d="M 241.791655 330.934641 
L 201.140671 354.404498 
" clip-path="url(#pe63e4ef0d2)" style="fill: none; stroke: #000000; stroke-width: 4.878118"/>
    <path d="M 241.791655 330.934641 
L 241.791655 283.994928 
" clip-path="url(#pe63e4ef0d2)" style="fill: none; stroke: #000000; stroke-width: 4.878118"/>
    <path d="M 241.791655 330.934641 
L 282.442639 354.404498 
" clip-path="url(#pe63e4ef0d2)" style="fill: none; stroke: #000000; stroke-width: 4.878118"/>
    <path d="M 282.442639 260.525072 
L 241.791655 283.994928 
" clip-path="url(#pe63e4ef0d2)" style="fill: none; stroke: #000000; stroke-width: 4.878118"/>
    <path d="M 282.442639 260.525072 
L 282.442639 213.585359 
" clip-path="url(#pe63e4ef0d2)" style="fill: none; stroke: #000000; stroke-width: 4.878118"/>
    <path d="M 282.442639 260.525072 
L 323.093623 283.994928 
" clip-path="url(#pe63e4ef0d2)" style="fill: none; stroke: #000000; stroke-width: 4.878118"/>
    <path d="M 323.093623 190.115502 
L 282.442639 213.585359 
" clip-path="url(#pe63e4ef0d2)" style="fill: none; stroke: #000000; stroke-width: 4.878118"/>
    <path d="M 323.093623 190.115502 
L 323.093623 143.175789 
" clip-path="url(#pe63e4ef0d2)" style="fill: none; stroke: #000000; stroke-width: 4.878118"/>
    <path d="M 323.093623 190.115502 
L 363.744606 213.585359 
" clip-path="url(#pe63e4ef0d2)" style="fill: none; stroke: #000000; stroke-width: 4.878118"/>
    <path d="M 363.744606 119.705933 
L 323.093623 143.175789 
" clip-path="url(#pe63e4ef0d2)" style="fill: none; stroke: #000000; stroke-width: 4.878118"/>
    <path d="M 363.744606 119.705933 
L 363.744606 72.76622 
" clip-path="url(#pe63e4ef0d2)" style="fill: none; stroke: #000000; stroke-width: 4.878118"/>
    <path d="M 363.744606 119.705933 
L 404.39559 143.175789 
" clip-path="url(#pe63e4ef0d2)" style="fill: none; stroke: #000000; stroke-width: 4.878118"/>
    <path d="M 404.39559 49.296364 
L 363.744606 72.76622 
" clip-path="url(#pe63e4ef0d2)" style="fill: none; stroke: #000000; stroke-width: 4.878118"/>
    <path d="M 404.39559 49.296364 
L 445.046574 72.76622 
" clip-path="url(#pe63e4ef0d2)" style="fill: none; stroke: #000000; stroke-width: 4.878118"/>
    <path d="M 241.791655 471.75378 
L 241.791655 424.814067 
" clip-path="url(#pe63e4ef0d2)" style="fill: none; stroke: #000000; stroke-width: 4.878118"/>
    <path d="M 241.791655 471.75378 
L 282.442639 495.223636 
" clip-path="url(#pe63e4ef0d2)" style="fill: none; stroke: #000000; stroke-width: 4.878118"/>
    <path d="M 282.442639 401.344211 
L 241.791655 424.814067 
" clip-path="url(#pe63e4ef0d2)" style="fill: none; stroke: #000000; stroke-width: 4.878118"/>
    <path d="M 282.442639 401.344211 
L 282.442639 354.404498 
" clip-path="url(#pe63e4ef0d2)" style="fill: none; stroke: #000000; stroke-width: 4.878118"/>
    <path d="M 282.442639 401.344211 
L 323.093623 424.814067 
" clip-path="url(#pe63e4ef0d2)" style="fill: none; stroke: #000000; stroke-width: 4.878118"/>
    <path d="M 323.093623 330.934641 
L 282.442639 354.404498 
" clip-path="url(#pe63e4ef0d2)" style="fill: none; stroke: #000000; stroke-width: 4.878118"/>
    <path d="M 323.093623 330.934641 
L 323.093623 283.994928 
" clip-path="url(#pe63e4ef0d2)" style="fill: none; stroke: #000000; stroke-width: 4.878118"/>
    <path d="M 323.093623 330.934641 
L 363.744606 354.404498 
" clip-path="url(#pe63e4ef0d2)" style="fill: none; stroke: #000000; stroke-width: 4.878118"/>
    <path d="M 363.744606 260.525072 
L 323.093623 283.994928 
" clip-path="url(#pe63e4ef0d2)" style="fill: none; stroke: #000000; stroke-width: 4.878118"/>
    <path d="M 363.744606 260.525072 
L 363.744606 213.585359 
" clip-path="url(#pe63e4ef0d2)" style="fill: none; stroke: #000000; stroke-width: 4.878118"/>
    <path d="M 363.744606 260.525072 
L 404.39559 283.994928 
" clip-path="url(#pe63e4ef0d2)" style="fill: none; stroke: #000000; stroke-width: 4.878118"/>
    <path d="M 404.39559 190.115502 
L 363.744606 213.585359 
" clip-path="url(#pe63e4ef0d2)" style="fill: none; stroke: #000000; stroke-width: 4.878118"/>
    <path d="M 404.39559 190.115502 
L 404.39559 143.175789 
" clip-path="url(#pe63e4ef0d2)" style="fill: none; stroke: #000000; stroke-width: 4.878118"/>
    <path d="M 404.39559 190.115502 
L 445.046574 213.585359 
" clip-path="url(#pe63e4ef0d2)" style="fill: none; stroke: #000000; stroke-width: 4.878118"/>
    <path d="M 445.046574 119.705933 
L 404.39559 143.175789 
" clip-path="url(#pe63e4ef0d2)" style="fill: none; stroke: #000000; stroke-width: 4.878118"/>
    <path d="M 445.046574 119.705933 
L 445.046574 72.76622 
" clip-path="url(#pe63e4ef0d2)" style="fill: none; stroke: #000000; stroke-width: 4.878118"/>
    <path d="M 445.046574 119.705933 
L 485.697558 143.175789 
" clip-path="url(#pe63e4ef0d2)" style="fill: none; stroke: #000000; stroke-width: 4.878118"/>
    <path d="M 485.697558 49.296364 
L 445.046574 72.76622 
" clip-path="url(#pe63e4ef0d2)" style="fill: none; stroke: #000000; stroke-width: 4.878118"/>
    <path d="M 485.697558 49.296364 
L 526.348542 72.76622 
" clip-path="url(#pe63e4ef0d2)" style="fill: none; stroke: #000000; stroke-width: 4.878118"/>
    <path d="M 323.093623 471.75378 
L 282.442639 495.223636 
" clip-path="url(#pe63e4ef0d2)" style="fill: none; stroke: #000000; stroke-width: 4.878118"/>
    <path d="M 323.093623 471.75378 
L 323.093623 424.814067 
" clip-path="url(#pe63e4ef0d2)" style="fill: none; stroke: #000000; stroke-width: 4.878118"/>
    <path d="M 323.093623 471.75378 
L 363.744606 495.223636 
" clip-path="url(#pe63e4ef0d2)" style="fill: none; stroke: #000000; stroke-width: 4.878118"/>
    <path d="M 363.744606 401.344211 
L 323.093623 424.814067 
" clip-path="url(#pe63e4ef0d2)" style="fill: none; stroke: #000000; stroke-width: 4.878118"/>
    <path d="M 363.744606 401.344211 
L 363.744606 354.404498 
" clip-path="url(#pe63e4ef0d2)" style="fill: none; stroke: #000000; stroke-width: 4.878118"/>
    <path d="M 363.744606 401.344211 
L 404.39559 424.814067 
" clip-path="url(#pe63e4ef0d2)" style="fill: none; stroke: #000000; stroke-width: 4.878118"/>
    <path d="M 404.39559 330.934641 
L 363.744606 354.404498 
" clip-path="url(#pe63e4ef0d2)" style="fill: none; stroke: #000000; stroke-width: 4.878118"/>
    <path d="M 404.39559 330.934641 
L 404.39559 283.994928 
" clip-path="url(#pe63e4ef0d2)" style="fill: none; stroke: #000000; stroke-width: 4.878118"/>
    <path d="M 404.39559 330.934641 
L 445.046574 354.404498 
" clip-path="url(#pe63e4ef0d2)" style="fill: none; stroke: #000000; stroke-width: 4.878118"/>
    <path d="M 445.046574 260.525072 
L 404.39559 283.994928 
" clip-path="url(#pe63e4ef0d2)" style="fill: none; stroke: #000000; stroke-width: 4.878118"/>
    <path d="M 445.046574 260.525072 
L 445.046574 213.585359 
" clip-path="url(#pe63e4ef0d2)" style="fill: none; stroke: #000000; stroke-width: 4.878118"/>
    <path d="M 445.046574 260.525072 
L 485.697558 283.994928 
" clip-path="url(#pe63e4ef0d2)" style="fill: none; stroke: #000000; stroke-width: 4.878118"/>
    <path d="M 485.697558 190.115502 
L 445.046574 213.585359 
" clip-path="url(#pe63e4ef0d2)" style="fill: none; stroke: #000000; stroke-width: 4.878118"/>
    <path d="M 485.697558 190.115502 
L 485.697558 143.175789 
" clip-path="url(#pe63e4ef0d2)" style="fill: none; stroke: #000000; stroke-width: 4.878118"/>
    <path d="M 485.697558 190.115502 
L 526.348542 213.585359 
" clip-path="url(#pe63e4ef0d2)" style="fill: none; stroke: #000000; stroke-width: 4.878118"/>
    <path d="M 526.348542 119.705933 
L 485.697558 143.175789 
" clip-path="url(#pe63e4ef0d2)" style="fill: none; stroke: #000000; stroke-width: 4.878118"/>
    <path d="M 526.348542 119.705933 
L 526.348542 72.76622 
" clip-path="url(#pe63e4ef0d2)" style="fill: none; stroke: #000000; stroke-width: 4.878118"/>
    <path d="M 526.348542 119.705933 
L 566.999526 143.175789 
" clip-path="url(#pe63e4ef0d2)" style="fill: none; stroke: #000000; stroke-width: 4.878118"/>
    <path d="M 404.39559 471.75378 
L 363.744606 495.223636 
" clip-path="url(#pe63e4ef0d2)" style="fill: none; stroke: #000000; stroke-width: 4.878118"/>
    <path d="M 404.39559 471.75378 
L 404.39559 424.814067 
" clip-path="url(#pe63e4ef0d2)" style="fill: none; stroke: #000000; stroke-width: 4.878118"/>
    <path d="M 404.39559 471.75378 
L 445.046574 495.223636 
" clip-path="url(#pe63e4ef0d2)" style="fill: none; stroke: #000000; stroke-width: 4.878118"/>
    <path d="M 445.046574 401.344211 
L 404.39559 424.814067 
" clip-path="url(#pe63e4ef0d2)" style="fill: none; stroke: #000000; stroke-width: 4.878118"/>
    <path d="M 445.046574 401.344211 
L 445.046574 354.404498 
" clip-path="url(#pe63e4ef0d2)" style="fill: none; stroke: #000000; stroke-width: 4.878118"/>
    <path d="M 445.046574 401.344211 
L 485.697558 424.814067 
" clip-path="url(#pe63e4ef0d2)" style="fill: none; stroke: #000000; stroke-width: 4.878118"/>
    <path d="M 485.697558 330.934641 
L 445.046574 354.404498 
" clip-path="url(#pe63e4ef0d2)" style="fill: none; stroke: #000000; stroke-width: 4.878118"/>
    <path d="M 485.697558 330.934641 
L 485.697558 283.994928 
" clip-path="url(#pe63e4ef0d2)" style="fill: none; stroke: #000000; stroke-width: 4.878118"/>
    <path d="M 485.697558 330.934641 
L 526.348542 354.404498 
" clip-path="url(#pe63e4ef0d2)" style="fill: none; stroke: #000000; stroke-width: 4.878118"/>
    <path d="M 526.348542 260.525072 
L 485.697558 283.994928 
" clip-path="url(#pe63e4ef0d2)" style="fill: none; stroke: #000000; stroke-width: 4.878118"/>
    <path d="M 526.348542 260.525072 
L 526.348542 213.585359 
" clip-path="url(#pe63e4ef0d2)" style="fill: none; stroke: #000000; stroke-width: 4.878118"/>
    <path d="M 526.348542 260.525072 
L 566.999526 283.994928 
" clip-path="url(#pe63e4ef0d2)" style="fill: none; stroke: #000000; stroke-width: 4.878118"/>
    <path d="M 566.999526 190.115502 
L 526.348542 213.585359 
" clip-path="url(#pe63e4ef0d2)" style="fill: none; stroke: #000000; stroke-width: 4.878118"/>
    <path d="M 566.999526 190.115502 
L 566.999526 143.175789 
" clip-path="url(#pe63e4ef0d2)" style="fill: none; stroke: #000000; stroke-width: 4.878118"/>
    <path d="M 566.999526 190.115502 
L 607.650509 213.585359 
" clip-path="url(#pe63e4ef0d2)" style="fill: none; stroke: #000000; stroke-width: 4.878118"/>
    <path d="M 485.697558 471.75378 
L 445.046574 495.223636 
" clip-path="url(#pe63e4ef0d2)" style="fill: none; stroke: #000000; stroke-width: 4.878118"/>
    <path d="M 485.697558 471.75378 
L 485.697558 424.814067 
" clip-path="url(#pe63e4ef0d2)" style="fill: none; stroke: #000000; stroke-width: 4.878118"/>
    <path d="M 526.348542 401.344211 
L 485.697558 424.814067 
" clip-path="url(#pe63e4ef0d2)" style="fill: none; stroke: #000000; stroke-width: 4.878118"/>
    <path d="M 526.348542 401.344211 
L 526.348542 354.404498 
" clip-path="url(#pe63e4ef0d2)" style="fill: none; stroke: #000000; stroke-width: 4.878118"/>
    <path d="M 566.999526 330.934641 
L 526.348542 354.404498 
" clip-path="url(#pe63e4ef0d2)" style="fill: none; stroke: #000000; stroke-width: 4.878118"/>
    <path d="M 566.999526 330.934641 
L 566.999526 283.994928 
" clip-path="url(#pe63e4ef0d2)" style="fill: none; stroke: #000000; stroke-width: 4.878118"/>
    <path d="M 607.650509 260.525072 
L 566.999526 283.994928 
" clip-path="url(#pe63e4ef0d2)" style="fill: none; stroke: #000000; stroke-width: 4.878118"/>
    <path d="M 607.650509 260.525072 
L 607.650509 213.585359 
" clip-path="url(#pe63e4ef0d2)" style="fill: none; stroke: #000000; stroke-width: 4.878118"/>
   </g>
   <g id="matplotlib.axis_1">
    <g id="xtick_1">
     <g id="line2d_1">
      <defs>
       <path id="m4ac5745dc5" d="M 0 0 
L 0 3.5 
" style="stroke: #000000; stroke-width: 0.8"/>
      </defs>
      <g>
       <use xlink:href="#m4ac5745dc5" x="119.838703" y="517.52" style="stroke: #000000; stroke-width: 0.8"/>
      </g>
     </g>
     <g id="text_1">
      <!-- −3 -->
      <g transform="translate(101.410969 543.516094) scale(0.25 -0.25)">
       <defs>
        <path id="DejaVuSans-2212" d="M 678 2272 
L 4684 2272 
L 4684 1741 
L 678 1741 
L 678 2272 
z
" transform="scale(0.015625)"/>
        <path id="DejaVuSans-33" d="M 2597 2516 
Q 3050 2419 3304 2112 
Q 3559 1806 3559 1356 
Q 3559 666 3084 287 
Q 2609 -91 1734 -91 
Q 1441 -91 1130 -33 
Q 819 25 488 141 
L 488 750 
Q 750 597 1062 519 
Q 1375 441 1716 441 
Q 2309 441 2620 675 
Q 2931 909 2931 1356 
Q 2931 1769 2642 2001 
Q 2353 2234 1838 2234 
L 1294 2234 
L 1294 2753 
L 1863 2753 
Q 2328 2753 2575 2939 
Q 2822 3125 2822 3475 
Q 2822 3834 2567 4026 
Q 2313 4219 1838 4219 
Q 1578 4219 1281 4162 
Q 984 4106 628 3988 
L 628 4550 
Q 988 4650 1302 4700 
Q 1616 4750 1894 4750 
Q 2613 4750 3031 4423 
Q 3450 4097 3450 3541 
Q 3450 3153 3228 2886 
Q 3006 2619 2597 2516 
z
" transform="scale(0.015625)"/>
       </defs>
       <use xlink:href="#DejaVuSans-2212"/>
       <use xlink:href="#DejaVuSans-33" x="83.789062"/>
      </g>
     </g>
    </g>
    <g id="xtick_2">
     <g id="line2d_2">
      <g>
       <use xlink:href="#m4ac5745dc5" x="201.140671" y="517.52" style="stroke: #000000; stroke-width: 0.8"/>
      </g>
     </g>
     <g id="text_2">
      <!-- −2 -->
      <g transform="translate(182.712937 543.516094) scale(0.25 -0.25)">
       <defs>
        <path id="DejaVuSans-32" d="M 1228 531 
L 3431 531 
L 3431 0 
L 469 0 
L 469 531 
Q 828 903 1448 1529 
Q 2069 2156 2228 2338 
Q 2531 2678 2651 2914 
Q 2772 3150 2772 3378 
Q 2772 3750 2511 3984 
Q 2250 4219 1831 4219 
Q 1534 4219 1204 4116 
Q 875 4013 500 3803 
L 500 4441 
Q 881 4594 1212 4672 
Q 1544 4750 1819 4750 
Q 2544 4750 2975 4387 
Q 3406 4025 3406 3419 
Q 3406 3131 3298 2873 
Q 3191 2616 2906 2266 
Q 2828 2175 2409 1742 
Q 1991 1309 1228 531 
z
" transform="scale(0.015625)"/>
       </defs>
       <use xlink:href="#DejaVuSans-2212"/>
       <use xlink:href="#DejaVuSans-32" x="83.789062"/>
      </g>
     </g>
    </g>
    <g id="xtick_3">
     <g id="line2d_3">
      <g>
       <use xlink:href="#m4ac5745dc5" x="282.442639" y="517.52" style="stroke: #000000; stroke-width: 0.8"/>
      </g>
     </g>
     <g id="text_3">
      <!-- −1 -->
      <g transform="translate(264.014904 543.516094) scale(0.25 -0.25)">
       <defs>
        <path id="DejaVuSans-31" d="M 794 531 
L 1825 531 
L 1825 4091 
L 703 3866 
L 703 4441 
L 1819 4666 
L 2450 4666 
L 2450 531 
L 3481 531 
L 3481 0 
L 794 0 
L 794 531 
z
" transform="scale(0.015625)"/>
       </defs>
       <use xlink:href="#DejaVuSans-2212"/>
       <use xlink:href="#DejaVuSans-31" x="83.789062"/>
      </g>
     </g>
    </g>
    <g id="xtick_4">
     <g id="line2d_4">
      <g>
       <use xlink:href="#m4ac5745dc5" x="363.744606" y="517.52" style="stroke: #000000; stroke-width: 0.8"/>
      </g>
     </g>
     <g id="text_4">
      <!-- 0 -->
      <g transform="translate(355.791481 543.516094) scale(0.25 -0.25)">
       <defs>
        <path id="DejaVuSans-30" d="M 2034 4250 
Q 1547 4250 1301 3770 
Q 1056 3291 1056 2328 
Q 1056 1369 1301 889 
Q 1547 409 2034 409 
Q 2525 409 2770 889 
Q 3016 1369 3016 2328 
Q 3016 3291 2770 3770 
Q 2525 4250 2034 4250 
z
M 2034 4750 
Q 2819 4750 3233 4129 
Q 3647 3509 3647 2328 
Q 3647 1150 3233 529 
Q 2819 -91 2034 -91 
Q 1250 -91 836 529 
Q 422 1150 422 2328 
Q 422 3509 836 4129 
Q 1250 4750 2034 4750 
z
" transform="scale(0.015625)"/>
       </defs>
       <use xlink:href="#DejaVuSans-30"/>
      </g>
     </g>
    </g>
    <g id="xtick_5">
     <g id="line2d_5">
      <g>
       <use xlink:href="#m4ac5745dc5" x="445.046574" y="517.52" style="stroke: #000000; stroke-width: 0.8"/>
      </g>
     </g>
     <g id="text_5">
      <!-- 1 -->
      <g transform="translate(437.093449 543.516094) scale(0.25 -0.25)">
       <use xlink:href="#DejaVuSans-31"/>
      </g>
     </g>
    </g>
    <g id="xtick_6">
     <g id="line2d_6">
      <g>
       <use xlink:href="#m4ac5745dc5" x="526.348542" y="517.52" style="stroke: #000000; stroke-width: 0.8"/>
      </g>
     </g>
     <g id="text_6">
      <!-- 2 -->
      <g transform="translate(518.395417 543.516094) scale(0.25 -0.25)">
       <use xlink:href="#DejaVuSans-32"/>
      </g>
     </g>
    </g>
    <g id="xtick_7">
     <g id="line2d_7">
      <g>
       <use xlink:href="#m4ac5745dc5" x="607.650509" y="517.52" style="stroke: #000000; stroke-width: 0.8"/>
      </g>
     </g>
     <g id="text_7">
      <!-- 3 -->
      <g transform="translate(599.697384 543.516094) scale(0.25 -0.25)">
       <use xlink:href="#DejaVuSans-33"/>
      </g>
     </g>
    </g>
   </g>
   <g id="matplotlib.axis_2">
    <g id="ytick_1">
     <g id="line2d_8">
      <defs>
       <path id="m17be460591" d="M 0 0 
L -3.5 0 
" style="stroke: #000000; stroke-width: 0.8"/>
      </defs>
      <g>
       <use xlink:href="#m17be460591" x="95.448113" y="504.430975" style="stroke: #000000; stroke-width: 0.8"/>
      </g>
     </g>
     <g id="text_8">
      <!-- −3 -->
      <g transform="translate(51.592644 513.929022) scale(0.25 -0.25)">
       <use xlink:href="#DejaVuSans-2212"/>
       <use xlink:href="#DejaVuSans-33" x="83.789062"/>
      </g>
     </g>
    </g>
    <g id="ytick_2">
     <g id="line2d_9">
      <g>
       <use xlink:href="#m17be460591" x="95.448113" y="423.129007" style="stroke: #000000; stroke-width: 0.8"/>
      </g>
     </g>
     <g id="text_9">
      <!-- −2 -->
      <g transform="translate(51.592644 432.627054) scale(0.25 -0.25)">
       <use xlink:href="#DejaVuSans-2212"/>
       <use xlink:href="#DejaVuSans-32" x="83.789062"/>
      </g>
     </g>
    </g>
    <g id="ytick_3">
     <g id="line2d_10">
      <g>
       <use xlink:href="#m17be460591" x="95.448113" y="341.827039" style="stroke: #000000; stroke-width: 0.8"/>
      </g>
     </g>
     <g id="text_10">
      <!-- −1 -->
      <g transform="translate(51.592644 351.325086) scale(0.25 -0.25)">
       <use xlink:href="#DejaVuSans-2212"/>
       <use xlink:href="#DejaVuSans-31" x="83.789062"/>
      </g>
     </g>
    </g>
    <g id="ytick_4">
     <g id="line2d_11">
      <g>
       <use xlink:href="#m17be460591" x="95.448113" y="260.525072" style="stroke: #000000; stroke-width: 0.8"/>
      </g>
     </g>
     <g id="text_11">
      <!-- 0 -->
      <g transform="translate(72.541863 270.023119) scale(0.25 -0.25)">
       <use xlink:href="#DejaVuSans-30"/>
      </g>
     </g>
    </g>
    <g id="ytick_5">
     <g id="line2d_12">
      <g>
       <use xlink:href="#m17be460591" x="95.448113" y="179.223104" style="stroke: #000000; stroke-width: 0.8"/>
      </g>
     </g>
     <g id="text_12">
      <!-- 1 -->
      <g transform="translate(72.541863 188.721151) scale(0.25 -0.25)">
       <use xlink:href="#DejaVuSans-31"/>
      </g>
     </g>
    </g>
    <g id="ytick_6">
     <g id="line2d_13">
      <g>
       <use xlink:href="#m17be460591" x="95.448113" y="97.921136" style="stroke: #000000; stroke-width: 0.8"/>
      </g>
     </g>
     <g id="text_13">
      <!-- 2 -->
      <g transform="translate(72.541863 107.419183) scale(0.25 -0.25)">
       <use xlink:href="#DejaVuSans-32"/>
      </g>
     </g>
    </g>
   </g>
   <g id="PathCollection_1">
    <path d="M 119.838703 272.720367 
C 123.072934 272.720367 126.175133 271.435394 128.462079 269.148448 
C 130.749025 266.861502 132.033999 263.759302 132.033999 260.525072 
C 132.033999 257.290842 130.749025 254.188642 128.462079 251.901696 
C 126.175133 249.61475 123.072934 248.329777 119.838703 248.329777 
C 116.604473 248.329777 113.502274 249.61475 111.215328 251.901696 
C 108.928382 254.188642 107.643408 257.290842 107.643408 260.525072 
C 107.643408 263.759302 108.928382 266.861502 111.215328 269.148448 
C 113.502274 271.435394 116.604473 272.720367 119.838703 272.720367 
z
" clip-path="url(#pe63e4ef0d2)" style="fill: #1f77b4; stroke: #000000; stroke-width: 1.951247"/>
    <path d="M 160.489687 202.310798 
C 163.723917 202.310798 166.826117 201.025824 169.113063 198.738878 
C 171.400009 196.451932 172.684982 193.349732 172.684982 190.115502 
C 172.684982 186.881272 171.400009 183.779073 169.113063 181.492126 
C 166.826117 179.20518 163.723917 177.920207 160.489687 177.920207 
C 157.255457 177.920207 154.153257 179.20518 151.866311 181.492126 
C 149.579365 183.779073 148.294392 186.881272 148.294392 190.115502 
C 148.294392 193.349732 149.579365 196.451932 151.866311 198.738878 
C 154.153257 201.025824 157.255457 202.310798 160.489687 202.310798 
z
" clip-path="url(#pe63e4ef0d2)" style="fill: #1f77b4; stroke: #000000; stroke-width: 1.951247"/>
    <path d="M 201.140671 131.901228 
C 204.374901 131.901228 207.477101 130.616255 209.764047 128.329309 
C 212.050993 126.042363 213.335966 122.940163 213.335966 119.705933 
C 213.335966 116.471703 212.050993 113.369503 209.764047 111.082557 
C 207.477101 108.795611 204.374901 107.510638 201.140671 107.510638 
C 197.906441 107.510638 194.804241 108.795611 192.517295 111.082557 
C 190.230349 113.369503 188.945376 116.471703 188.945376 119.705933 
C 188.945376 122.940163 190.230349 126.042363 192.517295 128.329309 
C 194.804241 130.616255 197.906441 131.901228 201.140671 131.901228 
z
" clip-path="url(#pe63e4ef0d2)" style="fill: #1f77b4; stroke: #000000; stroke-width: 1.951247"/>
    <path d="M 241.791655 61.491659 
C 245.025885 61.491659 248.128085 60.206686 250.415031 57.91974 
C 252.701977 55.632794 253.98695 52.530594 253.98695 49.296364 
C 253.98695 46.062134 252.701977 42.959934 250.415031 40.672988 
C 248.128085 38.386042 245.025885 37.101068 241.791655 37.101068 
C 238.557425 37.101068 235.455225 38.386042 233.168279 40.672988 
C 230.881333 42.959934 229.59636 46.062134 229.59636 49.296364 
C 229.59636 52.530594 230.881333 55.632794 233.168279 57.91974 
C 235.455225 60.206686 238.557425 61.491659 241.791655 61.491659 
z
" clip-path="url(#pe63e4ef0d2)" style="fill: #1f77b4; stroke: #000000; stroke-width: 1.951247"/>
    <path d="M 160.489687 343.129936 
C 163.723917 343.129936 166.826117 341.844963 169.113063 339.558017 
C 171.400009 337.271071 172.684982 334.168871 172.684982 330.934641 
C 172.684982 327.700411 171.400009 324.598211 169.113063 322.311265 
C 166.826117 320.024319 163.723917 318.739346 160.489687 318.739346 
C 157.255457 318.739346 154.153257 320.024319 151.866311 322.311265 
C 149.579365 324.598211 148.294392 327.700411 148.294392 330.934641 
C 148.294392 334.168871 149.579365 337.271071 151.866311 339.558017 
C 154.153257 341.844963 157.255457 343.129936 160.489687 343.129936 
z
" clip-path="url(#pe63e4ef0d2)" style="fill: #1f77b4; stroke: #000000; stroke-width: 1.951247"/>
    <path d="M 201.140671 272.720367 
C 204.374901 272.720367 207.477101 271.435394 209.764047 269.148448 
C 212.050993 266.861502 213.335966 263.759302 213.335966 260.525072 
C 213.335966 257.290842 212.050993 254.188642 209.764047 251.901696 
C 207.477101 249.61475 204.374901 248.329777 201.140671 248.329777 
C 197.906441 248.329777 194.804241 249.61475 192.517295 251.901696 
C 190.230349 254.188642 188.945376 257.290842 188.945376 260.525072 
C 188.945376 263.759302 190.230349 266.861502 192.517295 269.148448 
C 194.804241 271.435394 197.906441 272.720367 201.140671 272.720367 
z
" clip-path="url(#pe63e4ef0d2)" style="fill: #1f77b4; stroke: #000000; stroke-width: 1.951247"/>
    <path d="M 241.791655 202.310798 
C 245.025885 202.310798 248.128085 201.025824 250.415031 198.738878 
C 252.701977 196.451932 253.98695 193.349732 253.98695 190.115502 
C 253.98695 186.881272 252.701977 183.779073 250.415031 181.492126 
C 248.128085 179.20518 245.025885 177.920207 241.791655 177.920207 
C 238.557425 177.920207 235.455225 179.20518 233.168279 181.492126 
C 230.881333 183.779073 229.59636 186.881272 229.59636 190.115502 
C 229.59636 193.349732 230.881333 196.451932 233.168279 198.738878 
C 235.455225 201.025824 238.557425 202.310798 241.791655 202.310798 
z
" clip-path="url(#pe63e4ef0d2)" style="fill: #1f77b4; stroke: #000000; stroke-width: 1.951247"/>
    <path d="M 282.442639 131.901228 
C 285.676869 131.901228 288.779069 130.616255 291.066015 128.329309 
C 293.352961 126.042363 294.637934 122.940163 294.637934 119.705933 
C 294.637934 116.471703 293.352961 113.369503 291.066015 111.082557 
C 288.779069 108.795611 285.676869 107.510638 282.442639 107.510638 
C 279.208409 107.510638 276.106209 108.795611 273.819263 111.082557 
C 271.532317 113.369503 270.247344 116.471703 270.247344 119.705933 
C 270.247344 122.940163 271.532317 126.042363 273.819263 128.329309 
C 276.106209 130.616255 279.208409 131.901228 282.442639 131.901228 
z
" clip-path="url(#pe63e4ef0d2)" style="fill: #1f77b4; stroke: #000000; stroke-width: 1.951247"/>
    <path d="M 323.093623 61.491659 
C 326.327853 61.491659 329.430052 60.206686 331.716999 57.91974 
C 334.003945 55.632794 335.288918 52.530594 335.288918 49.296364 
C 335.288918 46.062134 334.003945 42.959934 331.716999 40.672988 
C 329.430052 38.386042 326.327853 37.101068 323.093623 37.101068 
C 319.859393 37.101068 316.757193 38.386042 314.470247 40.672988 
C 312.183301 42.959934 310.898327 46.062134 310.898327 49.296364 
C 310.898327 52.530594 312.183301 55.632794 314.470247 57.91974 
C 316.757193 60.206686 319.859393 61.491659 323.093623 61.491659 
z
" clip-path="url(#pe63e4ef0d2)" style="fill: #1f77b4; stroke: #000000; stroke-width: 1.951247"/>
    <path d="M 201.140671 413.539506 
C 204.374901 413.539506 207.477101 412.254532 209.764047 409.967586 
C 212.050993 407.68064 213.335966 404.578441 213.335966 401.344211 
C 213.335966 398.10998 212.050993 395.007781 209.764047 392.720835 
C 207.477101 390.433889 204.374901 389.148915 201.140671 389.148915 
C 197.906441 389.148915 194.804241 390.433889 192.517295 392.720835 
C 190.230349 395.007781 188.945376 398.10998 188.945376 401.344211 
C 188.945376 404.578441 190.230349 407.68064 192.517295 409.967586 
C 194.804241 412.254532 197.906441 413.539506 201.140671 413.539506 
z
" clip-path="url(#pe63e4ef0d2)" style="fill: #1f77b4; stroke: #000000; stroke-width: 1.951247"/>
    <path d="M 241.791655 343.129936 
C 245.025885 343.129936 248.128085 341.844963 250.415031 339.558017 
C 252.701977 337.271071 253.98695 334.168871 253.98695 330.934641 
C 253.98695 327.700411 252.701977 324.598211 250.415031 322.311265 
C 248.128085 320.024319 245.025885 318.739346 241.791655 318.739346 
C 238.557425 318.739346 235.455225 320.024319 233.168279 322.311265 
C 230.881333 324.598211 229.59636 327.700411 229.59636 330.934641 
C 229.59636 334.168871 230.881333 337.271071 233.168279 339.558017 
C 235.455225 341.844963 238.557425 343.129936 241.791655 343.129936 
z
" clip-path="url(#pe63e4ef0d2)" style="fill: #1f77b4; stroke: #000000; stroke-width: 1.951247"/>
    <path d="M 282.442639 272.720367 
C 285.676869 272.720367 288.779069 271.435394 291.066015 269.148448 
C 293.352961 266.861502 294.637934 263.759302 294.637934 260.525072 
C 294.637934 257.290842 293.352961 254.188642 291.066015 251.901696 
C 288.779069 249.61475 285.676869 248.329777 282.442639 248.329777 
C 279.208409 248.329777 276.106209 249.61475 273.819263 251.901696 
C 271.532317 254.188642 270.247344 257.290842 270.247344 260.525072 
C 270.247344 263.759302 271.532317 266.861502 273.819263 269.148448 
C 276.106209 271.435394 279.208409 272.720367 282.442639 272.720367 
z
" clip-path="url(#pe63e4ef0d2)" style="fill: #1f77b4; stroke: #000000; stroke-width: 1.951247"/>
    <path d="M 323.093623 202.310798 
C 326.327853 202.310798 329.430052 201.025824 331.716999 198.738878 
C 334.003945 196.451932 335.288918 193.349732 335.288918 190.115502 
C 335.288918 186.881272 334.003945 183.779073 331.716999 181.492126 
C 329.430052 179.20518 326.327853 177.920207 323.093623 177.920207 
C 319.859393 177.920207 316.757193 179.20518 314.470247 181.492126 
C 312.183301 183.779073 310.898327 186.881272 310.898327 190.115502 
C 310.898327 193.349732 312.183301 196.451932 314.470247 198.738878 
C 316.757193 201.025824 319.859393 202.310798 323.093623 202.310798 
z
" clip-path="url(#pe63e4ef0d2)" style="fill: #1f77b4; stroke: #000000; stroke-width: 1.951247"/>
    <path d="M 363.744606 131.901228 
C 366.978837 131.901228 370.081036 130.616255 372.367982 128.329309 
C 374.654928 126.042363 375.939902 122.940163 375.939902 119.705933 
C 375.939902 116.471703 374.654928 113.369503 372.367982 111.082557 
C 370.081036 108.795611 366.978837 107.510638 363.744606 107.510638 
C 360.510376 107.510638 357.408177 108.795611 355.121231 111.082557 
C 352.834285 113.369503 351.549311 116.471703 351.549311 119.705933 
C 351.549311 122.940163 352.834285 126.042363 355.121231 128.329309 
C 357.408177 130.616255 360.510376 131.901228 363.744606 131.901228 
z
" clip-path="url(#pe63e4ef0d2)" style="fill: #1f77b4; stroke: #000000; stroke-width: 1.951247"/>
    <path d="M 404.39559 61.491659 
C 407.62982 61.491659 410.73202 60.206686 413.018966 57.91974 
C 415.305912 55.632794 416.590885 52.530594 416.590885 49.296364 
C 416.590885 46.062134 415.305912 42.959934 413.018966 40.672988 
C 410.73202 38.386042 407.62982 37.101068 404.39559 37.101068 
C 401.16136 37.101068 398.05916 38.386042 395.772214 40.672988 
C 393.485268 42.959934 392.200295 46.062134 392.200295 49.296364 
C 392.200295 52.530594 393.485268 55.632794 395.772214 57.91974 
C 398.05916 60.206686 401.16136 61.491659 404.39559 61.491659 
z
" clip-path="url(#pe63e4ef0d2)" style="fill: #1f77b4; stroke: #000000; stroke-width: 1.951247"/>
    <path d="M 241.791655 483.949075 
C 245.025885 483.949075 248.128085 482.664102 250.415031 480.377156 
C 252.701977 478.09021 253.98695 474.98801 253.98695 471.75378 
C 253.98695 468.51955 252.701977 465.41735 250.415031 463.130404 
C 248.128085 460.843458 245.025885 459.558485 241.791655 459.558485 
C 238.557425 459.558485 235.455225 460.843458 233.168279 463.130404 
C 230.881333 465.41735 229.59636 468.51955 229.59636 471.75378 
C 229.59636 474.98801 230.881333 478.09021 233.168279 480.377156 
C 235.455225 482.664102 238.557425 483.949075 241.791655 483.949075 
z
" clip-path="url(#pe63e4ef0d2)" style="fill: #1f77b4; stroke: #000000; stroke-width: 1.951247"/>
    <path d="M 282.442639 413.539506 
C 285.676869 413.539506 288.779069 412.254532 291.066015 409.967586 
C 293.352961 407.68064 294.637934 404.578441 294.637934 401.344211 
C 294.637934 398.10998 293.352961 395.007781 291.066015 392.720835 
C 288.779069 390.433889 285.676869 389.148915 282.442639 389.148915 
C 279.208409 389.148915 276.106209 390.433889 273.819263 392.720835 
C 271.532317 395.007781 270.247344 398.10998 270.247344 401.344211 
C 270.247344 404.578441 271.532317 407.68064 273.819263 409.967586 
C 276.106209 412.254532 279.208409 413.539506 282.442639 413.539506 
z
" clip-path="url(#pe63e4ef0d2)" style="fill: #1f77b4; stroke: #000000; stroke-width: 1.951247"/>
    <path d="M 323.093623 343.129936 
C 326.327853 343.129936 329.430052 341.844963 331.716999 339.558017 
C 334.003945 337.271071 335.288918 334.168871 335.288918 330.934641 
C 335.288918 327.700411 334.003945 324.598211 331.716999 322.311265 
C 329.430052 320.024319 326.327853 318.739346 323.093623 318.739346 
C 319.859393 318.739346 316.757193 320.024319 314.470247 322.311265 
C 312.183301 324.598211 310.898327 327.700411 310.898327 330.934641 
C 310.898327 334.168871 312.183301 337.271071 314.470247 339.558017 
C 316.757193 341.844963 319.859393 343.129936 323.093623 343.129936 
z
" clip-path="url(#pe63e4ef0d2)" style="fill: #1f77b4; stroke: #000000; stroke-width: 1.951247"/>
    <path d="M 363.744606 280.818043 
C 369.126365 280.818043 374.288426 278.679847 378.093904 274.874369 
C 381.899382 271.068891 384.037578 265.906831 384.037578 260.525072 
C 384.037578 255.143313 381.899382 249.981252 378.093904 246.175774 
C 374.288426 242.370296 369.126365 240.232101 363.744606 240.232101 
C 358.362848 240.232101 353.200787 242.370296 349.395309 246.175774 
C 345.589831 249.981252 343.451635 255.143313 343.451635 260.525072 
C 343.451635 265.906831 345.589831 271.068891 349.395309 274.874369 
C 353.200787 278.679847 358.362848 280.818043 363.744606 280.818043 
z
" clip-path="url(#pe63e4ef0d2)" style="fill: #800080; stroke: #000000; stroke-width: 1.951247"/>
    <path d="M 404.39559 202.310798 
C 407.62982 202.310798 410.73202 201.025824 413.018966 198.738878 
C 415.305912 196.451932 416.590885 193.349732 416.590885 190.115502 
C 416.590885 186.881272 415.305912 183.779073 413.018966 181.492126 
C 410.73202 179.20518 407.62982 177.920207 404.39559 177.920207 
C 401.16136 177.920207 398.05916 179.20518 395.772214 181.492126 
C 393.485268 183.779073 392.200295 186.881272 392.200295 190.115502 
C 392.200295 193.349732 393.485268 196.451932 395.772214 198.738878 
C 398.05916 201.025824 401.16136 202.310798 404.39559 202.310798 
z
" clip-path="url(#pe63e4ef0d2)" style="fill: #1f77b4; stroke: #000000; stroke-width: 1.951247"/>
    <path d="M 445.046574 131.901228 
C 448.280804 131.901228 451.383004 130.616255 453.66995 128.329309 
C 455.956896 126.042363 457.241869 122.940163 457.241869 119.705933 
C 457.241869 116.471703 455.956896 113.369503 453.66995 111.082557 
C 451.383004 108.795611 448.280804 107.510638 445.046574 107.510638 
C 441.812344 107.510638 438.710144 108.795611 436.423198 111.082557 
C 434.136252 113.369503 432.851279 116.471703 432.851279 119.705933 
C 432.851279 122.940163 434.136252 126.042363 436.423198 128.329309 
C 438.710144 130.616255 441.812344 131.901228 445.046574 131.901228 
z
" clip-path="url(#pe63e4ef0d2)" style="fill: #1f77b4; stroke: #000000; stroke-width: 1.951247"/>
    <path d="M 485.697558 61.491659 
C 488.931788 61.491659 492.033988 60.206686 494.320934 57.91974 
C 496.60788 55.632794 497.892853 52.530594 497.892853 49.296364 
C 497.892853 46.062134 496.60788 42.959934 494.320934 40.672988 
C 492.033988 38.386042 488.931788 37.101068 485.697558 37.101068 
C 482.463328 37.101068 479.361128 38.386042 477.074182 40.672988 
C 474.787236 42.959934 473.502263 46.062134 473.502263 49.296364 
C 473.502263 52.530594 474.787236 55.632794 477.074182 57.91974 
C 479.361128 60.206686 482.463328 61.491659 485.697558 61.491659 
z
" clip-path="url(#pe63e4ef0d2)" style="fill: #1f77b4; stroke: #000000; stroke-width: 1.951247"/>
    <path d="M 323.093623 483.949075 
C 326.327853 483.949075 329.430052 482.664102 331.716999 480.377156 
C 334.003945 478.09021 335.288918 474.98801 335.288918 471.75378 
C 335.288918 468.51955 334.003945 465.41735 331.716999 463.130404 
C 329.430052 460.843458 326.327853 459.558485 323.093623 459.558485 
C 319.859393 459.558485 316.757193 460.843458 314.470247 463.130404 
C 312.183301 465.41735 310.898327 468.51955 310.898327 471.75378 
C 310.898327 474.98801 312.183301 478.09021 314.470247 480.377156 
C 316.757193 482.664102 319.859393 483.949075 323.093623 483.949075 
z
" clip-path="url(#pe63e4ef0d2)" style="fill: #1f77b4; stroke: #000000; stroke-width: 1.951247"/>
    <path d="M 363.744606 413.539506 
C 366.978837 413.539506 370.081036 412.254532 372.367982 409.967586 
C 374.654928 407.68064 375.939902 404.578441 375.939902 401.344211 
C 375.939902 398.10998 374.654928 395.007781 372.367982 392.720835 
C 370.081036 390.433889 366.978837 389.148915 363.744606 389.148915 
C 360.510376 389.148915 357.408177 390.433889 355.121231 392.720835 
C 352.834285 395.007781 351.549311 398.10998 351.549311 401.344211 
C 351.549311 404.578441 352.834285 407.68064 355.121231 409.967586 
C 357.408177 412.254532 360.510376 413.539506 363.744606 413.539506 
z
" clip-path="url(#pe63e4ef0d2)" style="fill: #1f77b4; stroke: #000000; stroke-width: 1.951247"/>
    <path d="M 404.39559 343.129936 
C 407.62982 343.129936 410.73202 341.844963 413.018966 339.558017 
C 415.305912 337.271071 416.590885 334.168871 416.590885 330.934641 
C 416.590885 327.700411 415.305912 324.598211 413.018966 322.311265 
C 410.73202 320.024319 407.62982 318.739346 404.39559 318.739346 
C 401.16136 318.739346 398.05916 320.024319 395.772214 322.311265 
C 393.485268 324.598211 392.200295 327.700411 392.200295 330.934641 
C 392.200295 334.168871 393.485268 337.271071 395.772214 339.558017 
C 398.05916 341.844963 401.16136 343.129936 404.39559 343.129936 
z
" clip-path="url(#pe63e4ef0d2)" style="fill: #1f77b4; stroke: #000000; stroke-width: 1.951247"/>
    <path d="M 445.046574 272.720367 
C 448.280804 272.720367 451.383004 271.435394 453.66995 269.148448 
C 455.956896 266.861502 457.241869 263.759302 457.241869 260.525072 
C 457.241869 257.290842 455.956896 254.188642 453.66995 251.901696 
C 451.383004 249.61475 448.280804 248.329777 445.046574 248.329777 
C 441.812344 248.329777 438.710144 249.61475 436.423198 251.901696 
C 434.136252 254.188642 432.851279 257.290842 432.851279 260.525072 
C 432.851279 263.759302 434.136252 266.861502 436.423198 269.148448 
C 438.710144 271.435394 441.812344 272.720367 445.046574 272.720367 
z
" clip-path="url(#pe63e4ef0d2)" style="fill: #1f77b4; stroke: #000000; stroke-width: 1.951247"/>
    <path d="M 485.697558 202.310798 
C 488.931788 202.310798 492.033988 201.025824 494.320934 198.738878 
C 496.60788 196.451932 497.892853 193.349732 497.892853 190.115502 
C 497.892853 186.881272 496.60788 183.779073 494.320934 181.492126 
C 492.033988 179.20518 488.931788 177.920207 485.697558 177.920207 
C 482.463328 177.920207 479.361128 179.20518 477.074182 181.492126 
C 474.787236 183.779073 473.502263 186.881272 473.502263 190.115502 
C 473.502263 193.349732 474.787236 196.451932 477.074182 198.738878 
C 479.361128 201.025824 482.463328 202.310798 485.697558 202.310798 
z
" clip-path="url(#pe63e4ef0d2)" style="fill: #1f77b4; stroke: #000000; stroke-width: 1.951247"/>
    <path d="M 526.348542 131.901228 
C 529.582772 131.901228 532.684972 130.616255 534.971918 128.329309 
C 537.258864 126.042363 538.543837 122.940163 538.543837 119.705933 
C 538.543837 116.471703 537.258864 113.369503 534.971918 111.082557 
C 532.684972 108.795611 529.582772 107.510638 526.348542 107.510638 
C 523.114312 107.510638 520.012112 108.795611 517.725166 111.082557 
C 515.43822 113.369503 514.153247 116.471703 514.153247 119.705933 
C 514.153247 122.940163 515.43822 126.042363 517.725166 128.329309 
C 520.012112 130.616255 523.114312 131.901228 526.348542 131.901228 
z
" clip-path="url(#pe63e4ef0d2)" style="fill: #1f77b4; stroke: #000000; stroke-width: 1.951247"/>
    <path d="M 404.39559 483.949075 
C 407.62982 483.949075 410.73202 482.664102 413.018966 480.377156 
C 415.305912 478.09021 416.590885 474.98801 416.590885 471.75378 
C 416.590885 468.51955 415.305912 465.41735 413.018966 463.130404 
C 410.73202 460.843458 407.62982 459.558485 404.39559 459.558485 
C 401.16136 459.558485 398.05916 460.843458 395.772214 463.130404 
C 393.485268 465.41735 392.200295 468.51955 392.200295 471.75378 
C 392.200295 474.98801 393.485268 478.09021 395.772214 480.377156 
C 398.05916 482.664102 401.16136 483.949075 404.39559 483.949075 
z
" clip-path="url(#pe63e4ef0d2)" style="fill: #1f77b4; stroke: #000000; stroke-width: 1.951247"/>
    <path d="M 445.046574 413.539506 
C 448.280804 413.539506 451.383004 412.254532 453.66995 409.967586 
C 455.956896 407.68064 457.241869 404.578441 457.241869 401.344211 
C 457.241869 398.10998 455.956896 395.007781 453.66995 392.720835 
C 451.383004 390.433889 448.280804 389.148915 445.046574 389.148915 
C 441.812344 389.148915 438.710144 390.433889 436.423198 392.720835 
C 434.136252 395.007781 432.851279 398.10998 432.851279 401.344211 
C 432.851279 404.578441 434.136252 407.68064 436.423198 409.967586 
C 438.710144 412.254532 441.812344 413.539506 445.046574 413.539506 
z
" clip-path="url(#pe63e4ef0d2)" style="fill: #1f77b4; stroke: #000000; stroke-width: 1.951247"/>
    <path d="M 485.697558 343.129936 
C 488.931788 343.129936 492.033988 341.844963 494.320934 339.558017 
C 496.60788 337.271071 497.892853 334.168871 497.892853 330.934641 
C 497.892853 327.700411 496.60788 324.598211 494.320934 322.311265 
C 492.033988 320.024319 488.931788 318.739346 485.697558 318.739346 
C 482.463328 318.739346 479.361128 320.024319 477.074182 322.311265 
C 474.787236 324.598211 473.502263 327.700411 473.502263 330.934641 
C 473.502263 334.168871 474.787236 337.271071 477.074182 339.558017 
C 479.361128 341.844963 482.463328 343.129936 485.697558 343.129936 
z
" clip-path="url(#pe63e4ef0d2)" style="fill: #1f77b4; stroke: #000000; stroke-width: 1.951247"/>
    <path d="M 526.348542 272.720367 
C 529.582772 272.720367 532.684972 271.435394 534.971918 269.148448 
C 537.258864 266.861502 538.543837 263.759302 538.543837 260.525072 
C 538.543837 257.290842 537.258864 254.188642 534.971918 251.901696 
C 532.684972 249.61475 529.582772 248.329777 526.348542 248.329777 
C 523.114312 248.329777 520.012112 249.61475 517.725166 251.901696 
C 515.43822 254.188642 514.153247 257.290842 514.153247 260.525072 
C 514.153247 263.759302 515.43822 266.861502 517.725166 269.148448 
C 520.012112 271.435394 523.114312 272.720367 526.348542 272.720367 
z
" clip-path="url(#pe63e4ef0d2)" style="fill: #1f77b4; stroke: #000000; stroke-width: 1.951247"/>
    <path d="M 566.999526 202.310798 
C 570.233756 202.310798 573.335955 201.025824 575.622902 198.738878 
C 577.909848 196.451932 579.194821 193.349732 579.194821 190.115502 
C 579.194821 186.881272 577.909848 183.779073 575.622902 181.492126 
C 573.335955 179.20518 570.233756 177.920207 566.999526 177.920207 
C 563.765296 177.920207 560.663096 179.20518 558.37615 181.492126 
C 556.089204 183.779073 554.80423 186.881272 554.80423 190.115502 
C 554.80423 193.349732 556.089204 196.451932 558.37615 198.738878 
C 560.663096 201.025824 563.765296 202.310798 566.999526 202.310798 
z
" clip-path="url(#pe63e4ef0d2)" style="fill: #1f77b4; stroke: #000000; stroke-width: 1.951247"/>
    <path d="M 485.697558 483.949075 
C 488.931788 483.949075 492.033988 482.664102 494.320934 480.377156 
C 496.60788 478.09021 497.892853 474.98801 497.892853 471.75378 
C 497.892853 468.51955 496.60788 465.41735 494.320934 463.130404 
C 492.033988 460.843458 488.931788 459.558485 485.697558 459.558485 
C 482.463328 459.558485 479.361128 460.843458 477.074182 463.130404 
C 474.787236 465.41735 473.502263 468.51955 473.502263 471.75378 
C 473.502263 474.98801 474.787236 478.09021 477.074182 480.377156 
C 479.361128 482.664102 482.463328 483.949075 485.697558 483.949075 
z
" clip-path="url(#pe63e4ef0d2)" style="fill: #1f77b4; stroke: #000000; stroke-width: 1.951247"/>
    <path d="M 526.348542 413.539506 
C 529.582772 413.539506 532.684972 412.254532 534.971918 409.967586 
C 537.258864 407.68064 538.543837 404.578441 538.543837 401.344211 
C 538.543837 398.10998 537.258864 395.007781 534.971918 392.720835 
C 532.684972 390.433889 529.582772 389.148915 526.348542 389.148915 
C 523.114312 389.148915 520.012112 390.433889 517.725166 392.720835 
C 515.43822 395.007781 514.153247 398.10998 514.153247 401.344211 
C 514.153247 404.578441 515.43822 407.68064 517.725166 409.967586 
C 520.012112 412.254532 523.114312 413.539506 526.348542 413.539506 
z
" clip-path="url(#pe63e4ef0d2)" style="fill: #1f77b4; stroke: #000000; stroke-width: 1.951247"/>
    <path d="M 566.999526 343.129936 
C 570.233756 343.129936 573.335955 341.844963 575.622902 339.558017 
C 577.909848 337.271071 579.194821 334.168871 579.194821 330.934641 
C 579.194821 327.700411 577.909848 324.598211 575.622902 322.311265 
C 573.335955 320.024319 570.233756 318.739346 566.999526 318.739346 
C 563.765296 318.739346 560.663096 320.024319 558.37615 322.311265 
C 556.089204 324.598211 554.80423 327.700411 554.80423 330.934641 
C 554.80423 334.168871 556.089204 337.271071 558.37615 339.558017 
C 560.663096 341.844963 563.765296 343.129936 566.999526 343.129936 
z
" clip-path="url(#pe63e4ef0d2)" style="fill: #1f77b4; stroke: #000000; stroke-width: 1.951247"/>
    <path d="M 607.650509 272.720367 
C 610.88474 272.720367 613.986939 271.435394 616.273885 269.148448 
C 618.560831 266.861502 619.845805 263.759302 619.845805 260.525072 
C 619.845805 257.290842 618.560831 254.188642 616.273885 251.901696 
C 613.986939 249.61475 610.88474 248.329777 607.650509 248.329777 
C 604.416279 248.329777 601.31408 249.61475 599.027134 251.901696 
C 596.740188 254.188642 595.455214 257.290842 595.455214 260.525072 
C 595.455214 263.759302 596.740188 266.861502 599.027134 269.148448 
C 601.31408 271.435394 604.416279 272.720367 607.650509 272.720367 
z
" clip-path="url(#pe63e4ef0d2)" style="fill: #1f77b4; stroke: #000000; stroke-width: 1.951247"/>
    <path d="M 119.838703 225.780654 
C 123.072934 225.780654 126.175133 224.495681 128.462079 222.208735 
C 130.749025 219.921789 132.033999 216.819589 132.033999 213.585359 
C 132.033999 210.351129 130.749025 207.248929 128.462079 204.961983 
C 126.175133 202.675037 123.072934 201.390064 119.838703 201.390064 
C 116.604473 201.390064 113.502274 202.675037 111.215328 204.961983 
C 108.928382 207.248929 107.643408 210.351129 107.643408 213.585359 
C 107.643408 216.819589 108.928382 219.921789 111.215328 222.208735 
C 113.502274 224.495681 116.604473 225.780654 119.838703 225.780654 
z
" clip-path="url(#pe63e4ef0d2)" style="fill: #ff7f0e; stroke: #000000; stroke-width: 1.951247"/>
    <path d="M 160.489687 155.371085 
C 163.723917 155.371085 166.826117 154.086111 169.113063 151.799165 
C 171.400009 149.512219 172.684982 146.41002 172.684982 143.175789 
C 172.684982 139.941559 171.400009 136.83936 169.113063 134.552414 
C 166.826117 132.265468 163.723917 130.980494 160.489687 130.980494 
C 157.255457 130.980494 154.153257 132.265468 151.866311 134.552414 
C 149.579365 136.83936 148.294392 139.941559 148.294392 143.175789 
C 148.294392 146.41002 149.579365 149.512219 151.866311 151.799165 
C 154.153257 154.086111 157.255457 155.371085 160.489687 155.371085 
z
" clip-path="url(#pe63e4ef0d2)" style="fill: #ff7f0e; stroke: #000000; stroke-width: 1.951247"/>
    <path d="M 201.140671 84.961515 
C 204.374901 84.961515 207.477101 83.676542 209.764047 81.389596 
C 212.050993 79.10265 213.335966 76.00045 213.335966 72.76622 
C 213.335966 69.53199 212.050993 66.42979 209.764047 64.142844 
C 207.477101 61.855898 204.374901 60.570925 201.140671 60.570925 
C 197.906441 60.570925 194.804241 61.855898 192.517295 64.142844 
C 190.230349 66.42979 188.945376 69.53199 188.945376 72.76622 
C 188.945376 76.00045 190.230349 79.10265 192.517295 81.389596 
C 194.804241 83.676542 197.906441 84.961515 201.140671 84.961515 
z
" clip-path="url(#pe63e4ef0d2)" style="fill: #ff7f0e; stroke: #000000; stroke-width: 1.951247"/>
    <path d="M 160.489687 296.190223 
C 163.723917 296.190223 166.826117 294.90525 169.113063 292.618304 
C 171.400009 290.331358 172.684982 287.229158 172.684982 283.994928 
C 172.684982 280.760698 171.400009 277.658498 169.113063 275.371552 
C 166.826117 273.084606 163.723917 271.799633 160.489687 271.799633 
C 157.255457 271.799633 154.153257 273.084606 151.866311 275.371552 
C 149.579365 277.658498 148.294392 280.760698 148.294392 283.994928 
C 148.294392 287.229158 149.579365 290.331358 151.866311 292.618304 
C 154.153257 294.90525 157.255457 296.190223 160.489687 296.190223 
z
" clip-path="url(#pe63e4ef0d2)" style="fill: #ff7f0e; stroke: #000000; stroke-width: 1.951247"/>
    <path d="M 201.140671 225.780654 
C 204.374901 225.780654 207.477101 224.495681 209.764047 222.208735 
C 212.050993 219.921789 213.335966 216.819589 213.335966 213.585359 
C 213.335966 210.351129 212.050993 207.248929 209.764047 204.961983 
C 207.477101 202.675037 204.374901 201.390064 201.140671 201.390064 
C 197.906441 201.390064 194.804241 202.675037 192.517295 204.961983 
C 190.230349 207.248929 188.945376 210.351129 188.945376 213.585359 
C 188.945376 216.819589 190.230349 219.921789 192.517295 222.208735 
C 194.804241 224.495681 197.906441 225.780654 201.140671 225.780654 
z
" clip-path="url(#pe63e4ef0d2)" style="fill: #ff7f0e; stroke: #000000; stroke-width: 1.951247"/>
    <path d="M 241.791655 155.371085 
C 245.025885 155.371085 248.128085 154.086111 250.415031 151.799165 
C 252.701977 149.512219 253.98695 146.41002 253.98695 143.175789 
C 253.98695 139.941559 252.701977 136.83936 250.415031 134.552414 
C 248.128085 132.265468 245.025885 130.980494 241.791655 130.980494 
C 238.557425 130.980494 235.455225 132.265468 233.168279 134.552414 
C 230.881333 136.83936 229.59636 139.941559 229.59636 143.175789 
C 229.59636 146.41002 230.881333 149.512219 233.168279 151.799165 
C 235.455225 154.086111 238.557425 155.371085 241.791655 155.371085 
z
" clip-path="url(#pe63e4ef0d2)" style="fill: #ff7f0e; stroke: #000000; stroke-width: 1.951247"/>
    <path d="M 282.442639 84.961515 
C 285.676869 84.961515 288.779069 83.676542 291.066015 81.389596 
C 293.352961 79.10265 294.637934 76.00045 294.637934 72.76622 
C 294.637934 69.53199 293.352961 66.42979 291.066015 64.142844 
C 288.779069 61.855898 285.676869 60.570925 282.442639 60.570925 
C 279.208409 60.570925 276.106209 61.855898 273.819263 64.142844 
C 271.532317 66.42979 270.247344 69.53199 270.247344 72.76622 
C 270.247344 76.00045 271.532317 79.10265 273.819263 81.389596 
C 276.106209 83.676542 279.208409 84.961515 282.442639 84.961515 
z
" clip-path="url(#pe63e4ef0d2)" style="fill: #ff7f0e; stroke: #000000; stroke-width: 1.951247"/>
    <path d="M 201.140671 366.599793 
C 204.374901 366.599793 207.477101 365.31482 209.764047 363.027874 
C 212.050993 360.740927 213.335966 357.638728 213.335966 354.404498 
C 213.335966 351.170268 212.050993 348.068068 209.764047 345.781122 
C 207.477101 343.494176 204.374901 342.209202 201.140671 342.209202 
C 197.906441 342.209202 194.804241 343.494176 192.517295 345.781122 
C 190.230349 348.068068 188.945376 351.170268 188.945376 354.404498 
C 188.945376 357.638728 190.230349 360.740927 192.517295 363.027874 
C 194.804241 365.31482 197.906441 366.599793 201.140671 366.599793 
z
" clip-path="url(#pe63e4ef0d2)" style="fill: #ff7f0e; stroke: #000000; stroke-width: 1.951247"/>
    <path d="M 241.791655 296.190223 
C 245.025885 296.190223 248.128085 294.90525 250.415031 292.618304 
C 252.701977 290.331358 253.98695 287.229158 253.98695 283.994928 
C 253.98695 280.760698 252.701977 277.658498 250.415031 275.371552 
C 248.128085 273.084606 245.025885 271.799633 241.791655 271.799633 
C 238.557425 271.799633 235.455225 273.084606 233.168279 275.371552 
C 230.881333 277.658498 229.59636 280.760698 229.59636 283.994928 
C 229.59636 287.229158 230.881333 290.331358 233.168279 292.618304 
C 235.455225 294.90525 238.557425 296.190223 241.791655 296.190223 
z
" clip-path="url(#pe63e4ef0d2)" style="fill: #ff7f0e; stroke: #000000; stroke-width: 1.951247"/>
    <path d="M 282.442639 225.780654 
C 285.676869 225.780654 288.779069 224.495681 291.066015 222.208735 
C 293.352961 219.921789 294.637934 216.819589 294.637934 213.585359 
C 294.637934 210.351129 293.352961 207.248929 291.066015 204.961983 
C 288.779069 202.675037 285.676869 201.390064 282.442639 201.390064 
C 279.208409 201.390064 276.106209 202.675037 273.819263 204.961983 
C 271.532317 207.248929 270.247344 210.351129 270.247344 213.585359 
C 270.247344 216.819589 271.532317 219.921789 273.819263 222.208735 
C 276.106209 224.495681 279.208409 225.780654 282.442639 225.780654 
z
" clip-path="url(#pe63e4ef0d2)" style="fill: #ff7f0e; stroke: #000000; stroke-width: 1.951247"/>
    <path d="M 323.093623 155.371085 
C 326.327853 155.371085 329.430052 154.086111 331.716999 151.799165 
C 334.003945 149.512219 335.288918 146.41002 335.288918 143.175789 
C 335.288918 139.941559 334.003945 136.83936 331.716999 134.552414 
C 329.430052 132.265468 326.327853 130.980494 323.093623 130.980494 
C 319.859393 130.980494 316.757193 132.265468 314.470247 134.552414 
C 312.183301 136.83936 310.898327 139.941559 310.898327 143.175789 
C 310.898327 146.41002 312.183301 149.512219 314.470247 151.799165 
C 316.757193 154.086111 319.859393 155.371085 323.093623 155.371085 
z
" clip-path="url(#pe63e4ef0d2)" style="fill: #ff7f0e; stroke: #000000; stroke-width: 1.951247"/>
    <path d="M 363.744606 84.961515 
C 366.978837 84.961515 370.081036 83.676542 372.367982 81.389596 
C 374.654928 79.10265 375.939902 76.00045 375.939902 72.76622 
C 375.939902 69.53199 374.654928 66.42979 372.367982 64.142844 
C 370.081036 61.855898 366.978837 60.570925 363.744606 60.570925 
C 360.510376 60.570925 357.408177 61.855898 355.121231 64.142844 
C 352.834285 66.42979 351.549311 69.53199 351.549311 72.76622 
C 351.549311 76.00045 352.834285 79.10265 355.121231 81.389596 
C 357.408177 83.676542 360.510376 84.961515 363.744606 84.961515 
z
" clip-path="url(#pe63e4ef0d2)" style="fill: #ff7f0e; stroke: #000000; stroke-width: 1.951247"/>
    <path d="M 241.791655 437.009362 
C 245.025885 437.009362 248.128085 435.724389 250.415031 433.437443 
C 252.701977 431.150497 253.98695 428.048297 253.98695 424.814067 
C 253.98695 421.579837 252.701977 418.477637 250.415031 416.190691 
C 248.128085 413.903745 245.025885 412.618772 241.791655 412.618772 
C 238.557425 412.618772 235.455225 413.903745 233.168279 416.190691 
C 230.881333 418.477637 229.59636 421.579837 229.59636 424.814067 
C 229.59636 428.048297 230.881333 431.150497 233.168279 433.437443 
C 235.455225 435.724389 238.557425 437.009362 241.791655 437.009362 
z
" clip-path="url(#pe63e4ef0d2)" style="fill: #ff7f0e; stroke: #000000; stroke-width: 1.951247"/>
    <path d="M 282.442639 366.599793 
C 285.676869 366.599793 288.779069 365.31482 291.066015 363.027874 
C 293.352961 360.740927 294.637934 357.638728 294.637934 354.404498 
C 294.637934 351.170268 293.352961 348.068068 291.066015 345.781122 
C 288.779069 343.494176 285.676869 342.209202 282.442639 342.209202 
C 279.208409 342.209202 276.106209 343.494176 273.819263 345.781122 
C 271.532317 348.068068 270.247344 351.170268 270.247344 354.404498 
C 270.247344 357.638728 271.532317 360.740927 273.819263 363.027874 
C 276.106209 365.31482 279.208409 366.599793 282.442639 366.599793 
z
" clip-path="url(#pe63e4ef0d2)" style="fill: #ff7f0e; stroke: #000000; stroke-width: 1.951247"/>
    <path d="M 323.093623 296.190223 
C 326.327853 296.190223 329.430052 294.90525 331.716999 292.618304 
C 334.003945 290.331358 335.288918 287.229158 335.288918 283.994928 
C 335.288918 280.760698 334.003945 277.658498 331.716999 275.371552 
C 329.430052 273.084606 326.327853 271.799633 323.093623 271.799633 
C 319.859393 271.799633 316.757193 273.084606 314.470247 275.371552 
C 312.183301 277.658498 310.898327 280.760698 310.898327 283.994928 
C 310.898327 287.229158 312.183301 290.331358 314.470247 292.618304 
C 316.757193 294.90525 319.859393 296.190223 323.093623 296.190223 
z
" clip-path="url(#pe63e4ef0d2)" style="fill: #ff7f0e; stroke: #000000; stroke-width: 1.951247"/>
    <path d="M 363.744606 225.780654 
C 366.978837 225.780654 370.081036 224.495681 372.367982 222.208735 
C 374.654928 219.921789 375.939902 216.819589 375.939902 213.585359 
C 375.939902 210.351129 374.654928 207.248929 372.367982 204.961983 
C 370.081036 202.675037 366.978837 201.390064 363.744606 201.390064 
C 360.510376 201.390064 357.408177 202.675037 355.121231 204.961983 
C 352.834285 207.248929 351.549311 210.351129 351.549311 213.585359 
C 351.549311 216.819589 352.834285 219.921789 355.121231 222.208735 
C 357.408177 224.495681 360.510376 225.780654 363.744606 225.780654 
z
" clip-path="url(#pe63e4ef0d2)" style="fill: #ff7f0e; stroke: #000000; stroke-width: 1.951247"/>
    <path d="M 404.39559 155.371085 
C 407.62982 155.371085 410.73202 154.086111 413.018966 151.799165 
C 415.305912 149.512219 416.590885 146.41002 416.590885 143.175789 
C 416.590885 139.941559 415.305912 136.83936 413.018966 134.552414 
C 410.73202 132.265468 407.62982 130.980494 404.39559 130.980494 
C 401.16136 130.980494 398.05916 132.265468 395.772214 134.552414 
C 393.485268 136.83936 392.200295 139.941559 392.200295 143.175789 
C 392.200295 146.41002 393.485268 149.512219 395.772214 151.799165 
C 398.05916 154.086111 401.16136 155.371085 404.39559 155.371085 
z
" clip-path="url(#pe63e4ef0d2)" style="fill: #ff7f0e; stroke: #000000; stroke-width: 1.951247"/>
    <path d="M 445.046574 84.961515 
C 448.280804 84.961515 451.383004 83.676542 453.66995 81.389596 
C 455.956896 79.10265 457.241869 76.00045 457.241869 72.76622 
C 457.241869 69.53199 455.956896 66.42979 453.66995 64.142844 
C 451.383004 61.855898 448.280804 60.570925 445.046574 60.570925 
C 441.812344 60.570925 438.710144 61.855898 436.423198 64.142844 
C 434.136252 66.42979 432.851279 69.53199 432.851279 72.76622 
C 432.851279 76.00045 434.136252 79.10265 436.423198 81.389596 
C 438.710144 83.676542 441.812344 84.961515 445.046574 84.961515 
z
" clip-path="url(#pe63e4ef0d2)" style="fill: #ff7f0e; stroke: #000000; stroke-width: 1.951247"/>
    <path d="M 282.442639 507.418932 
C 285.676869 507.418932 288.779069 506.133958 291.066015 503.847012 
C 293.352961 501.560066 294.637934 498.457866 294.637934 495.223636 
C 294.637934 491.989406 293.352961 488.887206 291.066015 486.60026 
C 288.779069 484.313314 285.676869 483.028341 282.442639 483.028341 
C 279.208409 483.028341 276.106209 484.313314 273.819263 486.60026 
C 271.532317 488.887206 270.247344 491.989406 270.247344 495.223636 
C 270.247344 498.457866 271.532317 501.560066 273.819263 503.847012 
C 276.106209 506.133958 279.208409 507.418932 282.442639 507.418932 
z
" clip-path="url(#pe63e4ef0d2)" style="fill: #ff7f0e; stroke: #000000; stroke-width: 1.951247"/>
    <path d="M 323.093623 437.009362 
C 326.327853 437.009362 329.430052 435.724389 331.716999 433.437443 
C 334.003945 431.150497 335.288918 428.048297 335.288918 424.814067 
C 335.288918 421.579837 334.003945 418.477637 331.716999 416.190691 
C 329.430052 413.903745 326.327853 412.618772 323.093623 412.618772 
C 319.859393 412.618772 316.757193 413.903745 314.470247 416.190691 
C 312.183301 418.477637 310.898327 421.579837 310.898327 424.814067 
C 310.898327 428.048297 312.183301 431.150497 314.470247 433.437443 
C 316.757193 435.724389 319.859393 437.009362 323.093623 437.009362 
z
" clip-path="url(#pe63e4ef0d2)" style="fill: #ff7f0e; stroke: #000000; stroke-width: 1.951247"/>
    <path d="M 363.744606 366.599793 
C 366.978837 366.599793 370.081036 365.31482 372.367982 363.027874 
C 374.654928 360.740927 375.939902 357.638728 375.939902 354.404498 
C 375.939902 351.170268 374.654928 348.068068 372.367982 345.781122 
C 370.081036 343.494176 366.978837 342.209202 363.744606 342.209202 
C 360.510376 342.209202 357.408177 343.494176 355.121231 345.781122 
C 352.834285 348.068068 351.549311 351.170268 351.549311 354.404498 
C 351.549311 357.638728 352.834285 360.740927 355.121231 363.027874 
C 357.408177 365.31482 360.510376 366.599793 363.744606 366.599793 
z
" clip-path="url(#pe63e4ef0d2)" style="fill: #ff7f0e; stroke: #000000; stroke-width: 1.951247"/>
    <path d="M 404.39559 296.190223 
C 407.62982 296.190223 410.73202 294.90525 413.018966 292.618304 
C 415.305912 290.331358 416.590885 287.229158 416.590885 283.994928 
C 416.590885 280.760698 415.305912 277.658498 413.018966 275.371552 
C 410.73202 273.084606 407.62982 271.799633 404.39559 271.799633 
C 401.16136 271.799633 398.05916 273.084606 395.772214 275.371552 
C 393.485268 277.658498 392.200295 280.760698 392.200295 283.994928 
C 392.200295 287.229158 393.485268 290.331358 395.772214 292.618304 
C 398.05916 294.90525 401.16136 296.190223 404.39559 296.190223 
z
" clip-path="url(#pe63e4ef0d2)" style="fill: #ff7f0e; stroke: #000000; stroke-width: 1.951247"/>
    <path d="M 445.046574 225.780654 
C 448.280804 225.780654 451.383004 224.495681 453.66995 222.208735 
C 455.956896 219.921789 457.241869 216.819589 457.241869 213.585359 
C 457.241869 210.351129 455.956896 207.248929 453.66995 204.961983 
C 451.383004 202.675037 448.280804 201.390064 445.046574 201.390064 
C 441.812344 201.390064 438.710144 202.675037 436.423198 204.961983 
C 434.136252 207.248929 432.851279 210.351129 432.851279 213.585359 
C 432.851279 216.819589 434.136252 219.921789 436.423198 222.208735 
C 438.710144 224.495681 441.812344 225.780654 445.046574 225.780654 
z
" clip-path="url(#pe63e4ef0d2)" style="fill: #ff7f0e; stroke: #000000; stroke-width: 1.951247"/>
    <path d="M 485.697558 155.371085 
C 488.931788 155.371085 492.033988 154.086111 494.320934 151.799165 
C 496.60788 149.512219 497.892853 146.41002 497.892853 143.175789 
C 497.892853 139.941559 496.60788 136.83936 494.320934 134.552414 
C 492.033988 132.265468 488.931788 130.980494 485.697558 130.980494 
C 482.463328 130.980494 479.361128 132.265468 477.074182 134.552414 
C 474.787236 136.83936 473.502263 139.941559 473.502263 143.175789 
C 473.502263 146.41002 474.787236 149.512219 477.074182 151.799165 
C 479.361128 154.086111 482.463328 155.371085 485.697558 155.371085 
z
" clip-path="url(#pe63e4ef0d2)" style="fill: #ff7f0e; stroke: #000000; stroke-width: 1.951247"/>
    <path d="M 526.348542 84.961515 
C 529.582772 84.961515 532.684972 83.676542 534.971918 81.389596 
C 537.258864 79.10265 538.543837 76.00045 538.543837 72.76622 
C 538.543837 69.53199 537.258864 66.42979 534.971918 64.142844 
C 532.684972 61.855898 529.582772 60.570925 526.348542 60.570925 
C 523.114312 60.570925 520.012112 61.855898 517.725166 64.142844 
C 515.43822 66.42979 514.153247 69.53199 514.153247 72.76622 
C 514.153247 76.00045 515.43822 79.10265 517.725166 81.389596 
C 520.012112 83.676542 523.114312 84.961515 526.348542 84.961515 
z
" clip-path="url(#pe63e4ef0d2)" style="fill: #ff7f0e; stroke: #000000; stroke-width: 1.951247"/>
    <path d="M 363.744606 507.418932 
C 366.978837 507.418932 370.081036 506.133958 372.367982 503.847012 
C 374.654928 501.560066 375.939902 498.457866 375.939902 495.223636 
C 375.939902 491.989406 374.654928 488.887206 372.367982 486.60026 
C 370.081036 484.313314 366.978837 483.028341 363.744606 483.028341 
C 360.510376 483.028341 357.408177 484.313314 355.121231 486.60026 
C 352.834285 488.887206 351.549311 491.989406 351.549311 495.223636 
C 351.549311 498.457866 352.834285 501.560066 355.121231 503.847012 
C 357.408177 506.133958 360.510376 507.418932 363.744606 507.418932 
z
" clip-path="url(#pe63e4ef0d2)" style="fill: #ff7f0e; stroke: #000000; stroke-width: 1.951247"/>
    <path d="M 404.39559 437.009362 
C 407.62982 437.009362 410.73202 435.724389 413.018966 433.437443 
C 415.305912 431.150497 416.590885 428.048297 416.590885 424.814067 
C 416.590885 421.579837 415.305912 418.477637 413.018966 416.190691 
C 410.73202 413.903745 407.62982 412.618772 404.39559 412.618772 
C 401.16136 412.618772 398.05916 413.903745 395.772214 416.190691 
C 393.485268 418.477637 392.200295 421.579837 392.200295 424.814067 
C 392.200295 428.048297 393.485268 431.150497 395.772214 433.437443 
C 398.05916 435.724389 401.16136 437.009362 404.39559 437.009362 
z
" clip-path="url(#pe63e4ef0d2)" style="fill: #ff7f0e; stroke: #000000; stroke-width: 1.951247"/>
    <path d="M 445.046574 366.599793 
C 448.280804 366.599793 451.383004 365.31482 453.66995 363.027874 
C 455.956896 360.740927 457.241869 357.638728 457.241869 354.404498 
C 457.241869 351.170268 455.956896 348.068068 453.66995 345.781122 
C 451.383004 343.494176 448.280804 342.209202 445.046574 342.209202 
C 441.812344 342.209202 438.710144 343.494176 436.423198 345.781122 
C 434.136252 348.068068 432.851279 351.170268 432.851279 354.404498 
C 432.851279 357.638728 434.136252 360.740927 436.423198 363.027874 
C 438.710144 365.31482 441.812344 366.599793 445.046574 366.599793 
z
" clip-path="url(#pe63e4ef0d2)" style="fill: #ff7f0e; stroke: #000000; stroke-width: 1.951247"/>
    <path d="M 485.697558 296.190223 
C 488.931788 296.190223 492.033988 294.90525 494.320934 292.618304 
C 496.60788 290.331358 497.892853 287.229158 497.892853 283.994928 
C 497.892853 280.760698 496.60788 277.658498 494.320934 275.371552 
C 492.033988 273.084606 488.931788 271.799633 485.697558 271.799633 
C 482.463328 271.799633 479.361128 273.084606 477.074182 275.371552 
C 474.787236 277.658498 473.502263 280.760698 473.502263 283.994928 
C 473.502263 287.229158 474.787236 290.331358 477.074182 292.618304 
C 479.361128 294.90525 482.463328 296.190223 485.697558 296.190223 
z
" clip-path="url(#pe63e4ef0d2)" style="fill: #ff7f0e; stroke: #000000; stroke-width: 1.951247"/>
    <path d="M 526.348542 225.780654 
C 529.582772 225.780654 532.684972 224.495681 534.971918 222.208735 
C 537.258864 219.921789 538.543837 216.819589 538.543837 213.585359 
C 538.543837 210.351129 537.258864 207.248929 534.971918 204.961983 
C 532.684972 202.675037 529.582772 201.390064 526.348542 201.390064 
C 523.114312 201.390064 520.012112 202.675037 517.725166 204.961983 
C 515.43822 207.248929 514.153247 210.351129 514.153247 213.585359 
C 514.153247 216.819589 515.43822 219.921789 517.725166 222.208735 
C 520.012112 224.495681 523.114312 225.780654 526.348542 225.780654 
z
" clip-path="url(#pe63e4ef0d2)" style="fill: #ff7f0e; stroke: #000000; stroke-width: 1.951247"/>
    <path d="M 566.999526 155.371085 
C 570.233756 155.371085 573.335955 154.086111 575.622902 151.799165 
C 577.909848 149.512219 579.194821 146.41002 579.194821 143.175789 
C 579.194821 139.941559 577.909848 136.83936 575.622902 134.552414 
C 573.335955 132.265468 570.233756 130.980494 566.999526 130.980494 
C 563.765296 130.980494 560.663096 132.265468 558.37615 134.552414 
C 556.089204 136.83936 554.80423 139.941559 554.80423 143.175789 
C 554.80423 146.41002 556.089204 149.512219 558.37615 151.799165 
C 560.663096 154.086111 563.765296 155.371085 566.999526 155.371085 
z
" clip-path="url(#pe63e4ef0d2)" style="fill: #ff7f0e; stroke: #000000; stroke-width: 1.951247"/>
    <path d="M 445.046574 507.418932 
C 448.280804 507.418932 451.383004 506.133958 453.66995 503.847012 
C 455.956896 501.560066 457.241869 498.457866 457.241869 495.223636 
C 457.241869 491.989406 455.956896 488.887206 453.66995 486.60026 
C 451.383004 484.313314 448.280804 483.028341 445.046574 483.028341 
C 441.812344 483.028341 438.710144 484.313314 436.423198 486.60026 
C 434.136252 488.887206 432.851279 491.989406 432.851279 495.223636 
C 432.851279 498.457866 434.136252 501.560066 436.423198 503.847012 
C 438.710144 506.133958 441.812344 507.418932 445.046574 507.418932 
z
" clip-path="url(#pe63e4ef0d2)" style="fill: #ff7f0e; stroke: #000000; stroke-width: 1.951247"/>
    <path d="M 485.697558 437.009362 
C 488.931788 437.009362 492.033988 435.724389 494.320934 433.437443 
C 496.60788 431.150497 497.892853 428.048297 497.892853 424.814067 
C 497.892853 421.579837 496.60788 418.477637 494.320934 416.190691 
C 492.033988 413.903745 488.931788 412.618772 485.697558 412.618772 
C 482.463328 412.618772 479.361128 413.903745 477.074182 416.190691 
C 474.787236 418.477637 473.502263 421.579837 473.502263 424.814067 
C 473.502263 428.048297 474.787236 431.150497 477.074182 433.437443 
C 479.361128 435.724389 482.463328 437.009362 485.697558 437.009362 
z
" clip-path="url(#pe63e4ef0d2)" style="fill: #ff7f0e; stroke: #000000; stroke-width: 1.951247"/>
    <path d="M 526.348542 366.599793 
C 529.582772 366.599793 532.684972 365.31482 534.971918 363.027874 
C 537.258864 360.740927 538.543837 357.638728 538.543837 354.404498 
C 538.543837 351.170268 537.258864 348.068068 534.971918 345.781122 
C 532.684972 343.494176 529.582772 342.209202 526.348542 342.209202 
C 523.114312 342.209202 520.012112 343.494176 517.725166 345.781122 
C 515.43822 348.068068 514.153247 351.170268 514.153247 354.404498 
C 514.153247 357.638728 515.43822 360.740927 517.725166 363.027874 
C 520.012112 365.31482 523.114312 366.599793 526.348542 366.599793 
z
" clip-path="url(#pe63e4ef0d2)" style="fill: #ff7f0e; stroke: #000000; stroke-width: 1.951247"/>
    <path d="M 566.999526 296.190223 
C 570.233756 296.190223 573.335955 294.90525 575.622902 292.618304 
C 577.909848 290.331358 579.194821 287.229158 579.194821 283.994928 
C 579.194821 280.760698 577.909848 277.658498 575.622902 275.371552 
C 573.335955 273.084606 570.233756 271.799633 566.999526 271.799633 
C 563.765296 271.799633 560.663096 273.084606 558.37615 275.371552 
C 556.089204 277.658498 554.80423 280.760698 554.80423 283.994928 
C 554.80423 287.229158 556.089204 290.331358 558.37615 292.618304 
C 560.663096 294.90525 563.765296 296.190223 566.999526 296.190223 
z
" clip-path="url(#pe63e4ef0d2)" style="fill: #ff7f0e; stroke: #000000; stroke-width: 1.951247"/>
    <path d="M 607.650509 225.780654 
C 610.88474 225.780654 613.986939 224.495681 616.273885 222.208735 
C 618.560831 219.921789 619.845805 216.819589 619.845805 213.585359 
C 619.845805 210.351129 618.560831 207.248929 616.273885 204.961983 
C 613.986939 202.675037 610.88474 201.390064 607.650509 201.390064 
C 604.416279 201.390064 601.31408 202.675037 599.027134 204.961983 
C 596.740188 207.248929 595.455214 210.351129 595.455214 213.585359 
C 595.455214 216.819589 596.740188 219.921789 599.027134 222.208735 
C 601.31408 224.495681 604.416279 225.780654 607.650509 225.780654 
z
" clip-path="url(#pe63e4ef0d2)" style="fill: #ff7f0e; stroke: #000000; stroke-width: 1.951247"/>
   </g>
   <g id="patch_3">
    <path d="M 95.448113 517.52 
L 95.448113 27 
" style="fill: none; stroke: #000000; stroke-width: 0.8; stroke-linejoin: miter; stroke-linecap: square"/>
   </g>
   <g id="patch_4">
    <path d="M 632.0411 517.52 
L 632.0411 27 
" style="fill: none; stroke: #000000; stroke-width: 0.8; stroke-linejoin: miter; stroke-linecap: square"/>
   </g>
   <g id="patch_5">
    <path d="M 95.448113 517.52 
L 632.0411 517.52 
" style="fill: none; stroke: #000000; stroke-width: 0.8; stroke-linejoin: miter; stroke-linecap: square"/>
   </g>
   <g id="patch_6">
    <path d="M 95.448113 27 
L 632.0411 27 
" style="fill: none; stroke: #000000; stroke-width: 0.8; stroke-linejoin: miter; stroke-linecap: square"/>
   </g>
  </g>
 </g>
 <defs>
  <clipPath id="pe63e4ef0d2">
   <rect x="95.448113" y="27" width="536.592987" height="490.52"/>
  </clipPath>
 </defs>
</svg>
