<?xml version="1.0" encoding="utf-8" standalone="no"?>
<!DOCTYPE svg PUBLIC "-//W3C//DTD SVG 1.1//EN"
  "http://www.w3.org/Graphics/SVG/1.1/DTD/svg11.dtd">
<svg xmlns:xlink="http://www.w3.org/1999/xlink" width="720pt" height="576pt" viewBox="0 0 720 576" xmlns="http://www.w3.org/2000/svg" version="1.1">
 <metadata>
  <rdf:RDF xmlns:dc="http://purl.org/dc/elements/1.1/" xmlns:cc="http://creativecommons.org/ns#" xmlns:rdf="http://www.w3.org/1999/02/22-rdf-syntax-ns#">
   <cc:Work>
    <dc:type rdf:resource="http://purl.org/dc/dcmitype/StillImage"/>
    <dc:date>2023-04-11T00:28:25.842555</dc:date>
    <dc:format>image/svg+xml</dc:format>
    <dc:creator>
     <cc:Agent>
      <dc:title>Matplotlib v3.7.1, https://matplotlib.org/</dc:title>
     </cc:Agent>
    </dc:creator>
   </cc:Work>
  </rdf:RDF>
 </metadata>
 <defs>
  <style type="text/css">*{stroke-linejoin: round; stroke-linecap: butt}</style>
 </defs>
 <g id="figure_1">
  <g id="patch_1">
   <path d="M 0 576 
L 720 576 
L 720 0 
L 0 0 
z
" style="fill: #ffffff"/>
  </g>
  <g id="axes_1">
   <g id="patch_2">
    <path d="M 120.04 517.52 
L 610.56 517.52 
L 610.56 27 
L 120.04 27 
z
" style="fill: #ffffff"/>
   </g>
   <g id="LineCollection_1">
    <path d="M 179.49697 245.441643 
L 179.49697 138.168213 
" clip-path="url(#p459ea1c9b8)" style="fill: none; stroke: #000000; stroke-width: 11.148182"/>
    <path d="M 179.49697 245.441643 
L 272.398485 299.078357 
" clip-path="url(#p459ea1c9b8)" style="fill: none; stroke: #000000; stroke-width: 11.148182"/>
    <path d="M 272.398485 84.531498 
L 179.49697 138.168213 
" clip-path="url(#p459ea1c9b8)" style="fill: none; stroke: #000000; stroke-width: 11.148182"/>
    <path d="M 272.398485 84.531498 
L 365.3 138.168213 
" clip-path="url(#p459ea1c9b8)" style="fill: none; stroke: #000000; stroke-width: 11.148182"/>
    <path d="M 272.398485 406.351787 
L 272.398485 299.078357 
" clip-path="url(#p459ea1c9b8)" style="fill: none; stroke: #000000; stroke-width: 11.148182"/>
    <path d="M 272.398485 406.351787 
L 365.3 459.988502 
" clip-path="url(#p459ea1c9b8)" style="fill: none; stroke: #000000; stroke-width: 11.148182"/>
    <path d="M 365.3 245.441643 
L 272.398485 299.078357 
" clip-path="url(#p459ea1c9b8)" style="fill: none; stroke: #000000; stroke-width: 11.148182"/>
    <path d="M 365.3 245.441643 
L 365.3 138.168213 
" clip-path="url(#p459ea1c9b8)" style="fill: none; stroke: #000000; stroke-width: 11.148182"/>
    <path d="M 365.3 245.441643 
L 458.201515 299.078357 
" clip-path="url(#p459ea1c9b8)" style="fill: none; stroke: #000000; stroke-width: 11.148182"/>
    <path d="M 458.201515 84.531498 
L 365.3 138.168213 
" clip-path="url(#p459ea1c9b8)" style="fill: none; stroke: #000000; stroke-width: 11.148182"/>
    <path d="M 458.201515 84.531498 
L 551.10303 138.168213 
" clip-path="url(#p459ea1c9b8)" style="fill: none; stroke: #000000; stroke-width: 11.148182"/>
    <path d="M 458.201515 406.351787 
L 365.3 459.988502 
" clip-path="url(#p459ea1c9b8)" style="fill: none; stroke: #000000; stroke-width: 11.148182"/>
    <path d="M 458.201515 406.351787 
L 458.201515 299.078357 
" clip-path="url(#p459ea1c9b8)" style="fill: none; stroke: #000000; stroke-width: 11.148182"/>
    <path d="M 551.10303 245.441643 
L 458.201515 299.078357 
" clip-path="url(#p459ea1c9b8)" style="fill: none; stroke: #000000; stroke-width: 11.148182"/>
    <path d="M 551.10303 245.441643 
L 551.10303 138.168213 
" clip-path="url(#p459ea1c9b8)" style="fill: none; stroke: #000000; stroke-width: 11.148182"/>
   </g>
   <g id="matplotlib.axis_1">
    <g id="xtick_1">
     <g id="line2d_1">
      <defs>
       <path id="m3c9884a47b" d="M 0 0 
L 0 3.5 
" style="stroke: #000000; stroke-width: 0.8"/>
      </defs>
      <g>
       <use xlink:href="#m3c9884a47b" x="179.49697" y="517.52" style="stroke: #000000; stroke-width: 0.8"/>
      </g>
     </g>
     <g id="text_1">
      <!-- −1.0 -->
      <g transform="translate(149.143454 543.516094) scale(0.25 -0.25)">
       <defs>
        <path id="DejaVuSans-2212" d="M 678 2272 
L 4684 2272 
L 4684 1741 
L 678 1741 
L 678 2272 
z
" transform="scale(0.015625)"/>
        <path id="DejaVuSans-31" d="M 794 531 
L 1825 531 
L 1825 4091 
L 703 3866 
L 703 4441 
L 1819 4666 
L 2450 4666 
L 2450 531 
L 3481 531 
L 3481 0 
L 794 0 
L 794 531 
z
" transform="scale(0.015625)"/>
        <path id="DejaVuSans-2e" d="M 684 794 
L 1344 794 
L 1344 0 
L 684 0 
L 684 794 
z
" transform="scale(0.015625)"/>
        <path id="DejaVuSans-30" d="M 2034 4250 
Q 1547 4250 1301 3770 
Q 1056 3291 1056 2328 
Q 1056 1369 1301 889 
Q 1547 409 2034 409 
Q 2525 409 2770 889 
Q 3016 1369 3016 2328 
Q 3016 3291 2770 3770 
Q 2525 4250 2034 4250 
z
M 2034 4750 
Q 2819 4750 3233 4129 
Q 3647 3509 3647 2328 
Q 3647 1150 3233 529 
Q 2819 -91 2034 -91 
Q 1250 -91 836 529 
Q 422 1150 422 2328 
Q 422 3509 836 4129 
Q 1250 4750 2034 4750 
z
" transform="scale(0.015625)"/>
       </defs>
       <use xlink:href="#DejaVuSans-2212"/>
       <use xlink:href="#DejaVuSans-31" x="83.789062"/>
       <use xlink:href="#DejaVuSans-2e" x="147.412109"/>
       <use xlink:href="#DejaVuSans-30" x="179.199219"/>
      </g>
     </g>
    </g>
    <g id="xtick_2">
     <g id="line2d_2">
      <g>
       <use xlink:href="#m3c9884a47b" x="272.398485" y="517.52" style="stroke: #000000; stroke-width: 0.8"/>
      </g>
     </g>
     <g id="text_2">
      <!-- −0.5 -->
      <g transform="translate(242.044969 543.516094) scale(0.25 -0.25)">
       <defs>
        <path id="DejaVuSans-35" d="M 691 4666 
L 3169 4666 
L 3169 4134 
L 1269 4134 
L 1269 2991 
Q 1406 3038 1543 3061 
Q 1681 3084 1819 3084 
Q 2600 3084 3056 2656 
Q 3513 2228 3513 1497 
Q 3513 744 3044 326 
Q 2575 -91 1722 -91 
Q 1428 -91 1123 -41 
Q 819 9 494 109 
L 494 744 
Q 775 591 1075 516 
Q 1375 441 1709 441 
Q 2250 441 2565 725 
Q 2881 1009 2881 1497 
Q 2881 1984 2565 2268 
Q 2250 2553 1709 2553 
Q 1456 2553 1204 2497 
Q 953 2441 691 2322 
L 691 4666 
z
" transform="scale(0.015625)"/>
       </defs>
       <use xlink:href="#DejaVuSans-2212"/>
       <use xlink:href="#DejaVuSans-30" x="83.789062"/>
       <use xlink:href="#DejaVuSans-2e" x="147.412109"/>
       <use xlink:href="#DejaVuSans-35" x="179.199219"/>
      </g>
     </g>
    </g>
    <g id="xtick_3">
     <g id="line2d_3">
      <g>
       <use xlink:href="#m3c9884a47b" x="365.3" y="517.52" style="stroke: #000000; stroke-width: 0.8"/>
      </g>
     </g>
     <g id="text_3">
      <!-- 0.0 -->
      <g transform="translate(345.421094 543.516094) scale(0.25 -0.25)">
       <use xlink:href="#DejaVuSans-30"/>
       <use xlink:href="#DejaVuSans-2e" x="63.623047"/>
       <use xlink:href="#DejaVuSans-30" x="95.410156"/>
      </g>
     </g>
    </g>
    <g id="xtick_4">
     <g id="line2d_4">
      <g>
       <use xlink:href="#m3c9884a47b" x="458.201515" y="517.52" style="stroke: #000000; stroke-width: 0.8"/>
      </g>
     </g>
     <g id="text_4">
      <!-- 0.5 -->
      <g transform="translate(438.322609 543.516094) scale(0.25 -0.25)">
       <use xlink:href="#DejaVuSans-30"/>
       <use xlink:href="#DejaVuSans-2e" x="63.623047"/>
       <use xlink:href="#DejaVuSans-35" x="95.410156"/>
      </g>
     </g>
    </g>
    <g id="xtick_5">
     <g id="line2d_5">
      <g>
       <use xlink:href="#m3c9884a47b" x="551.10303" y="517.52" style="stroke: #000000; stroke-width: 0.8"/>
      </g>
     </g>
     <g id="text_5">
      <!-- 1.0 -->
      <g transform="translate(531.224124 543.516094) scale(0.25 -0.25)">
       <use xlink:href="#DejaVuSans-31"/>
       <use xlink:href="#DejaVuSans-2e" x="63.623047"/>
       <use xlink:href="#DejaVuSans-30" x="95.410156"/>
      </g>
     </g>
    </g>
   </g>
   <g id="matplotlib.axis_2">
    <g id="ytick_1">
     <g id="line2d_6">
      <defs>
       <path id="m7ddfaf8bb8" d="M 0 0 
L -3.5 0 
" style="stroke: #000000; stroke-width: 0.8"/>
      </defs>
      <g>
       <use xlink:href="#m7ddfaf8bb8" x="120.04" y="431.244673" style="stroke: #000000; stroke-width: 0.8"/>
      </g>
     </g>
     <g id="text_6">
      <!-- −1.0 -->
      <g transform="translate(52.332969 440.74272) scale(0.25 -0.25)">
       <use xlink:href="#DejaVuSans-2212"/>
       <use xlink:href="#DejaVuSans-31" x="83.789062"/>
       <use xlink:href="#DejaVuSans-2e" x="147.412109"/>
       <use xlink:href="#DejaVuSans-30" x="179.199219"/>
      </g>
     </g>
    </g>
    <g id="ytick_2">
     <g id="line2d_7">
      <g>
       <use xlink:href="#m7ddfaf8bb8" x="120.04" y="338.343158" style="stroke: #000000; stroke-width: 0.8"/>
      </g>
     </g>
     <g id="text_7">
      <!-- −0.5 -->
      <g transform="translate(52.332969 347.841205) scale(0.25 -0.25)">
       <use xlink:href="#DejaVuSans-2212"/>
       <use xlink:href="#DejaVuSans-30" x="83.789062"/>
       <use xlink:href="#DejaVuSans-2e" x="147.412109"/>
       <use xlink:href="#DejaVuSans-35" x="179.199219"/>
      </g>
     </g>
    </g>
    <g id="ytick_3">
     <g id="line2d_8">
      <g>
       <use xlink:href="#m7ddfaf8bb8" x="120.04" y="245.441643" style="stroke: #000000; stroke-width: 0.8"/>
      </g>
     </g>
     <g id="text_8">
      <!-- 0.0 -->
      <g transform="translate(73.282188 254.939689) scale(0.25 -0.25)">
       <use xlink:href="#DejaVuSans-30"/>
       <use xlink:href="#DejaVuSans-2e" x="63.623047"/>
       <use xlink:href="#DejaVuSans-30" x="95.410156"/>
      </g>
     </g>
    </g>
    <g id="ytick_4">
     <g id="line2d_9">
      <g>
       <use xlink:href="#m7ddfaf8bb8" x="120.04" y="152.540127" style="stroke: #000000; stroke-width: 0.8"/>
      </g>
     </g>
     <g id="text_9">
      <!-- 0.5 -->
      <g transform="translate(73.282188 162.038174) scale(0.25 -0.25)">
       <use xlink:href="#DejaVuSans-30"/>
       <use xlink:href="#DejaVuSans-2e" x="63.623047"/>
       <use xlink:href="#DejaVuSans-35" x="95.410156"/>
      </g>
     </g>
    </g>
    <g id="ytick_5">
     <g id="line2d_10">
      <g>
       <use xlink:href="#m7ddfaf8bb8" x="120.04" y="59.638612" style="stroke: #000000; stroke-width: 0.8"/>
      </g>
     </g>
     <g id="text_10">
      <!-- 1.0 -->
      <g transform="translate(73.282188 69.136659) scale(0.25 -0.25)">
       <use xlink:href="#DejaVuSans-31"/>
       <use xlink:href="#DejaVuSans-2e" x="63.623047"/>
       <use xlink:href="#DejaVuSans-30" x="95.410156"/>
      </g>
     </g>
    </g>
   </g>
   <g id="PathCollection_1">
    <path d="M 179.49697 273.312097 
C 186.888301 273.312097 193.977897 270.37549 199.204357 265.14903 
C 204.430817 259.92257 207.367424 252.832974 207.367424 245.441643 
C 207.367424 238.050312 204.430817 230.960715 199.204357 225.734255 
C 193.977897 220.507795 186.888301 217.571188 179.49697 217.571188 
C 172.105639 217.571188 165.016043 220.507795 159.789582 225.734255 
C 154.563122 230.960715 151.626515 238.050312 151.626515 245.441643 
C 151.626515 252.832974 154.563122 259.92257 159.789582 265.14903 
C 165.016043 270.37549 172.105639 273.312097 179.49697 273.312097 
z
" clip-path="url(#p459ea1c9b8)" style="fill: #1f77b4; stroke: #000000; stroke-width: 4.459273"/>
    <path d="M 272.398485 112.401953 
C 279.789816 112.401953 286.879412 109.465346 292.105872 104.238886 
C 297.332332 99.012425 300.268939 91.922829 300.268939 84.531498 
C 300.268939 77.140167 297.332332 70.050571 292.105872 64.824111 
C 286.879412 59.597651 279.789816 56.661044 272.398485 56.661044 
C 265.007154 56.661044 257.917558 59.597651 252.691097 64.824111 
C 247.464637 70.050571 244.52803 77.140167 244.52803 84.531498 
C 244.52803 91.922829 247.464637 99.012425 252.691097 104.238886 
C 257.917558 109.465346 265.007154 112.401953 272.398485 112.401953 
z
" clip-path="url(#p459ea1c9b8)" style="fill: #1f77b4; stroke: #000000; stroke-width: 4.459273"/>
    <path d="M 272.398485 434.222241 
C 279.789816 434.222241 286.879412 431.285635 292.105872 426.059174 
C 297.332332 420.832714 300.268939 413.743118 300.268939 406.351787 
C 300.268939 398.960456 297.332332 391.87086 292.105872 386.6444 
C 286.879412 381.417939 279.789816 378.481332 272.398485 378.481332 
C 265.007154 378.481332 257.917558 381.417939 252.691097 386.6444 
C 247.464637 391.87086 244.52803 398.960456 244.52803 406.351787 
C 244.52803 413.743118 247.464637 420.832714 252.691097 426.059174 
C 257.917558 431.285635 265.007154 434.222241 272.398485 434.222241 
z
" clip-path="url(#p459ea1c9b8)" style="fill: #1f77b4; stroke: #000000; stroke-width: 4.459273"/>
    <path d="M 365.3 291.818079 
C 377.599175 291.818079 389.396263 286.931565 398.093093 278.234735 
C 406.789922 269.537905 411.676436 257.740817 411.676436 245.441643 
C 411.676436 233.142468 406.789922 221.34538 398.093093 212.64855 
C 389.396263 203.95172 377.599175 199.065206 365.3 199.065206 
C 353.000825 199.065206 341.203737 203.95172 332.506907 212.64855 
C 323.810078 221.34538 318.923564 233.142468 318.923564 245.441643 
C 318.923564 257.740817 323.810078 269.537905 332.506907 278.234735 
C 341.203737 286.931565 353.000825 291.818079 365.3 291.818079 
z
" clip-path="url(#p459ea1c9b8)" style="fill: #800080; stroke: #000000; stroke-width: 4.459273"/>
    <path d="M 458.201515 112.401953 
C 465.592846 112.401953 472.682442 109.465346 477.908903 104.238886 
C 483.135363 99.012425 486.07197 91.922829 486.07197 84.531498 
C 486.07197 77.140167 483.135363 70.050571 477.908903 64.824111 
C 472.682442 59.597651 465.592846 56.661044 458.201515 56.661044 
C 450.810184 56.661044 443.720588 59.597651 438.494128 64.824111 
C 433.267668 70.050571 430.331061 77.140167 430.331061 84.531498 
C 430.331061 91.922829 433.267668 99.012425 438.494128 104.238886 
C 443.720588 109.465346 450.810184 112.401953 458.201515 112.401953 
z
" clip-path="url(#p459ea1c9b8)" style="fill: #1f77b4; stroke: #000000; stroke-width: 4.459273"/>
    <path d="M 458.201515 434.222241 
C 465.592846 434.222241 472.682442 431.285635 477.908903 426.059174 
C 483.135363 420.832714 486.07197 413.743118 486.07197 406.351787 
C 486.07197 398.960456 483.135363 391.87086 477.908903 386.6444 
C 472.682442 381.417939 465.592846 378.481332 458.201515 378.481332 
C 450.810184 378.481332 443.720588 381.417939 438.494128 386.6444 
C 433.267668 391.87086 430.331061 398.960456 430.331061 406.351787 
C 430.331061 413.743118 433.267668 420.832714 438.494128 426.059174 
C 443.720588 431.285635 450.810184 434.222241 458.201515 434.222241 
z
" clip-path="url(#p459ea1c9b8)" style="fill: #1f77b4; stroke: #000000; stroke-width: 4.459273"/>
    <path d="M 551.10303 273.312097 
C 558.494361 273.312097 565.583957 270.37549 570.810418 265.14903 
C 576.036878 259.92257 578.973485 252.832974 578.973485 245.441643 
C 578.973485 238.050312 576.036878 230.960715 570.810418 225.734255 
C 565.583957 220.507795 558.494361 217.571188 551.10303 217.571188 
C 543.711699 217.571188 536.622103 220.507795 531.395643 225.734255 
C 526.169183 230.960715 523.232576 238.050312 523.232576 245.441643 
C 523.232576 252.832974 526.169183 259.92257 531.395643 265.14903 
C 536.622103 270.37549 543.711699 273.312097 551.10303 273.312097 
z
" clip-path="url(#p459ea1c9b8)" style="fill: #1f77b4; stroke: #000000; stroke-width: 4.459273"/>
    <path d="M 179.49697 166.038668 
C 186.888301 166.038668 193.977897 163.102061 199.204357 157.8756 
C 204.430817 152.64914 207.367424 145.559544 207.367424 138.168213 
C 207.367424 130.776882 204.430817 123.687286 199.204357 118.460826 
C 193.977897 113.234365 186.888301 110.297759 179.49697 110.297759 
C 172.105639 110.297759 165.016043 113.234365 159.789582 118.460826 
C 154.563122 123.687286 151.626515 130.776882 151.626515 138.168213 
C 151.626515 145.559544 154.563122 152.64914 159.789582 157.8756 
C 165.016043 163.102061 172.105639 166.038668 179.49697 166.038668 
z
" clip-path="url(#p459ea1c9b8)" style="fill: #ff7f0e; stroke: #000000; stroke-width: 4.459273"/>
    <path d="M 272.398485 326.948812 
C 279.789816 326.948812 286.879412 324.012205 292.105872 318.785745 
C 297.332332 313.559285 300.268939 306.469688 300.268939 299.078357 
C 300.268939 291.687026 297.332332 284.59743 292.105872 279.37097 
C 286.879412 274.14451 279.789816 271.207903 272.398485 271.207903 
C 265.007154 271.207903 257.917558 274.14451 252.691097 279.37097 
C 247.464637 284.59743 244.52803 291.687026 244.52803 299.078357 
C 244.52803 306.469688 247.464637 313.559285 252.691097 318.785745 
C 257.917558 324.012205 265.007154 326.948812 272.398485 326.948812 
z
" clip-path="url(#p459ea1c9b8)" style="fill: #ff7f0e; stroke: #000000; stroke-width: 4.459273"/>
    <path d="M 365.3 166.038668 
C 372.691331 166.038668 379.780927 163.102061 385.007387 157.8756 
C 390.233848 152.64914 393.170455 145.559544 393.170455 138.168213 
C 393.170455 130.776882 390.233848 123.687286 385.007387 118.460826 
C 379.780927 113.234365 372.691331 110.297759 365.3 110.297759 
C 357.908669 110.297759 350.819073 113.234365 345.592613 118.460826 
C 340.366152 123.687286 337.429545 130.776882 337.429545 138.168213 
C 337.429545 145.559544 340.366152 152.64914 345.592613 157.8756 
C 350.819073 163.102061 357.908669 166.038668 365.3 166.038668 
z
" clip-path="url(#p459ea1c9b8)" style="fill: #ff7f0e; stroke: #000000; stroke-width: 4.459273"/>
    <path d="M 365.3 487.858956 
C 372.691331 487.858956 379.780927 484.922349 385.007387 479.695889 
C 390.233848 474.469429 393.170455 467.379833 393.170455 459.988502 
C 393.170455 452.597171 390.233848 445.507575 385.007387 440.281114 
C 379.780927 435.054654 372.691331 432.118047 365.3 432.118047 
C 357.908669 432.118047 350.819073 435.054654 345.592613 440.281114 
C 340.366152 445.507575 337.429545 452.597171 337.429545 459.988502 
C 337.429545 467.379833 340.366152 474.469429 345.592613 479.695889 
C 350.819073 484.922349 357.908669 487.858956 365.3 487.858956 
z
" clip-path="url(#p459ea1c9b8)" style="fill: #ff7f0e; stroke: #000000; stroke-width: 4.459273"/>
    <path d="M 458.201515 326.948812 
C 465.592846 326.948812 472.682442 324.012205 477.908903 318.785745 
C 483.135363 313.559285 486.07197 306.469688 486.07197 299.078357 
C 486.07197 291.687026 483.135363 284.59743 477.908903 279.37097 
C 472.682442 274.14451 465.592846 271.207903 458.201515 271.207903 
C 450.810184 271.207903 443.720588 274.14451 438.494128 279.37097 
C 433.267668 284.59743 430.331061 291.687026 430.331061 299.078357 
C 430.331061 306.469688 433.267668 313.559285 438.494128 318.785745 
C 443.720588 324.012205 450.810184 326.948812 458.201515 326.948812 
z
" clip-path="url(#p459ea1c9b8)" style="fill: #ff7f0e; stroke: #000000; stroke-width: 4.459273"/>
    <path d="M 551.10303 166.038668 
C 558.494361 166.038668 565.583957 163.102061 570.810418 157.8756 
C 576.036878 152.64914 578.973485 145.559544 578.973485 138.168213 
C 578.973485 130.776882 576.036878 123.687286 570.810418 118.460826 
C 565.583957 113.234365 558.494361 110.297759 551.10303 110.297759 
C 543.711699 110.297759 536.622103 113.234365 531.395643 118.460826 
C 526.169183 123.687286 523.232576 130.776882 523.232576 138.168213 
C 523.232576 145.559544 526.169183 152.64914 531.395643 157.8756 
C 536.622103 163.102061 543.711699 166.038668 551.10303 166.038668 
z
" clip-path="url(#p459ea1c9b8)" style="fill: #ff7f0e; stroke: #000000; stroke-width: 4.459273"/>
   </g>
   <g id="patch_3">
    <path d="M 120.04 517.52 
L 120.04 27 
" style="fill: none; stroke: #000000; stroke-width: 0.8; stroke-linejoin: miter; stroke-linecap: square"/>
   </g>
   <g id="patch_4">
    <path d="M 610.56 517.52 
L 610.56 27 
" style="fill: none; stroke: #000000; stroke-width: 0.8; stroke-linejoin: miter; stroke-linecap: square"/>
   </g>
   <g id="patch_5">
    <path d="M 120.04 517.52 
L 610.56 517.52 
" style="fill: none; stroke: #000000; stroke-width: 0.8; stroke-linejoin: miter; stroke-linecap: square"/>
   </g>
   <g id="patch_6">
    <path d="M 120.04 27 
L 610.56 27 
" style="fill: none; stroke: #000000; stroke-width: 0.8; stroke-linejoin: miter; stroke-linecap: square"/>
   </g>
  </g>
 </g>
 <defs>
  <clipPath id="p459ea1c9b8">
   <rect x="120.04" y="27" width="490.52" height="490.52"/>
  </clipPath>
 </defs>
</svg>
