<?xml version="1.0" encoding="utf-8" standalone="no"?>
<!DOCTYPE svg PUBLIC "-//W3C//DTD SVG 1.1//EN"
  "http://www.w3.org/Graphics/SVG/1.1/DTD/svg11.dtd">
<svg xmlns:xlink="http://www.w3.org/1999/xlink" width="720pt" height="576pt" viewBox="0 0 720 576" xmlns="http://www.w3.org/2000/svg" version="1.1">
 <metadata>
  <rdf:RDF xmlns:dc="http://purl.org/dc/elements/1.1/" xmlns:cc="http://creativecommons.org/ns#" xmlns:rdf="http://www.w3.org/1999/02/22-rdf-syntax-ns#">
   <cc:Work>
    <dc:type rdf:resource="http://purl.org/dc/dcmitype/StillImage"/>
    <dc:date>2023-04-11T02:37:36.559903</dc:date>
    <dc:format>image/svg+xml</dc:format>
    <dc:creator>
     <cc:Agent>
      <dc:title>Matplotlib v3.7.1, https://matplotlib.org/</dc:title>
     </cc:Agent>
    </dc:creator>
   </cc:Work>
  </rdf:RDF>
 </metadata>
 <defs>
  <style type="text/css">*{stroke-linejoin: round; stroke-linecap: butt}</style>
 </defs>
 <g id="figure_1">
  <g id="patch_1">
   <path d="M 0 576 
L 720 576 
L 720 0 
L 0 0 
z
" style="fill: #ffffff"/>
  </g>
  <g id="axes_1">
   <g id="patch_2">
    <path d="M 103.912891 509.9875 
L 694.845 509.9875 
L 694.845 26.28 
L 103.912891 26.28 
z
" style="fill: #ffffff"/>
   </g>
   <g id="matplotlib.axis_1">
    <g id="xtick_1">
     <g id="line2d_1">
      <path d="M 103.912891 509.9875 
L 103.912891 26.28 
" clip-path="url(#pf5024d3485)" style="fill: none; stroke: #b0b0b0; stroke-width: 0.8; stroke-linecap: square"/>
     </g>
     <g id="line2d_2">
      <defs>
       <path id="m39f130bcba" d="M 0 0 
L 0 3.5 
" style="stroke: #000000; stroke-width: 0.8"/>
      </defs>
      <g>
       <use xlink:href="#m39f130bcba" x="103.912891" y="509.9875" style="stroke: #000000; stroke-width: 0.8"/>
      </g>
     </g>
     <g id="text_1">
      <!-- −3 -->
      <g transform="translate(90.644922 530.664688) scale(0.18 -0.18)">
       <defs>
        <path id="DejaVuSans-2212" d="M 678 2272 
L 4684 2272 
L 4684 1741 
L 678 1741 
L 678 2272 
z
" transform="scale(0.015625)"/>
        <path id="DejaVuSans-33" d="M 2597 2516 
Q 3050 2419 3304 2112 
Q 3559 1806 3559 1356 
Q 3559 666 3084 287 
Q 2609 -91 1734 -91 
Q 1441 -91 1130 -33 
Q 819 25 488 141 
L 488 750 
Q 750 597 1062 519 
Q 1375 441 1716 441 
Q 2309 441 2620 675 
Q 2931 909 2931 1356 
Q 2931 1769 2642 2001 
Q 2353 2234 1838 2234 
L 1294 2234 
L 1294 2753 
L 1863 2753 
Q 2328 2753 2575 2939 
Q 2822 3125 2822 3475 
Q 2822 3834 2567 4026 
Q 2313 4219 1838 4219 
Q 1578 4219 1281 4162 
Q 984 4106 628 3988 
L 628 4550 
Q 988 4650 1302 4700 
Q 1616 4750 1894 4750 
Q 2613 4750 3031 4423 
Q 3450 4097 3450 3541 
Q 3450 3153 3228 2886 
Q 3006 2619 2597 2516 
z
" transform="scale(0.015625)"/>
       </defs>
       <use xlink:href="#DejaVuSans-2212"/>
       <use xlink:href="#DejaVuSans-33" x="83.789062"/>
      </g>
     </g>
    </g>
    <g id="xtick_2">
     <g id="line2d_3">
      <path d="M 202.401576 509.9875 
L 202.401576 26.28 
" clip-path="url(#pf5024d3485)" style="fill: none; stroke: #b0b0b0; stroke-width: 0.8; stroke-linecap: square"/>
     </g>
     <g id="line2d_4">
      <g>
       <use xlink:href="#m39f130bcba" x="202.401576" y="509.9875" style="stroke: #000000; stroke-width: 0.8"/>
      </g>
     </g>
     <g id="text_2">
      <!-- −2 -->
      <g transform="translate(189.133607 530.664688) scale(0.18 -0.18)">
       <defs>
        <path id="DejaVuSans-32" d="M 1228 531 
L 3431 531 
L 3431 0 
L 469 0 
L 469 531 
Q 828 903 1448 1529 
Q 2069 2156 2228 2338 
Q 2531 2678 2651 2914 
Q 2772 3150 2772 3378 
Q 2772 3750 2511 3984 
Q 2250 4219 1831 4219 
Q 1534 4219 1204 4116 
Q 875 4013 500 3803 
L 500 4441 
Q 881 4594 1212 4672 
Q 1544 4750 1819 4750 
Q 2544 4750 2975 4387 
Q 3406 4025 3406 3419 
Q 3406 3131 3298 2873 
Q 3191 2616 2906 2266 
Q 2828 2175 2409 1742 
Q 1991 1309 1228 531 
z
" transform="scale(0.015625)"/>
       </defs>
       <use xlink:href="#DejaVuSans-2212"/>
       <use xlink:href="#DejaVuSans-32" x="83.789062"/>
      </g>
     </g>
    </g>
    <g id="xtick_3">
     <g id="line2d_5">
      <path d="M 300.89026 509.9875 
L 300.89026 26.28 
" clip-path="url(#pf5024d3485)" style="fill: none; stroke: #b0b0b0; stroke-width: 0.8; stroke-linecap: square"/>
     </g>
     <g id="line2d_6">
      <g>
       <use xlink:href="#m39f130bcba" x="300.89026" y="509.9875" style="stroke: #000000; stroke-width: 0.8"/>
      </g>
     </g>
     <g id="text_3">
      <!-- −1 -->
      <g transform="translate(287.622292 530.664688) scale(0.18 -0.18)">
       <defs>
        <path id="DejaVuSans-31" d="M 794 531 
L 1825 531 
L 1825 4091 
L 703 3866 
L 703 4441 
L 1819 4666 
L 2450 4666 
L 2450 531 
L 3481 531 
L 3481 0 
L 794 0 
L 794 531 
z
" transform="scale(0.015625)"/>
       </defs>
       <use xlink:href="#DejaVuSans-2212"/>
       <use xlink:href="#DejaVuSans-31" x="83.789062"/>
      </g>
     </g>
    </g>
    <g id="xtick_4">
     <g id="line2d_7">
      <path d="M 399.378945 509.9875 
L 399.378945 26.28 
" clip-path="url(#pf5024d3485)" style="fill: none; stroke: #b0b0b0; stroke-width: 0.8; stroke-linecap: square"/>
     </g>
     <g id="line2d_8">
      <g>
       <use xlink:href="#m39f130bcba" x="399.378945" y="509.9875" style="stroke: #000000; stroke-width: 0.8"/>
      </g>
     </g>
     <g id="text_4">
      <!-- 0 -->
      <g transform="translate(393.652695 530.664688) scale(0.18 -0.18)">
       <defs>
        <path id="DejaVuSans-30" d="M 2034 4250 
Q 1547 4250 1301 3770 
Q 1056 3291 1056 2328 
Q 1056 1369 1301 889 
Q 1547 409 2034 409 
Q 2525 409 2770 889 
Q 3016 1369 3016 2328 
Q 3016 3291 2770 3770 
Q 2525 4250 2034 4250 
z
M 2034 4750 
Q 2819 4750 3233 4129 
Q 3647 3509 3647 2328 
Q 3647 1150 3233 529 
Q 2819 -91 2034 -91 
Q 1250 -91 836 529 
Q 422 1150 422 2328 
Q 422 3509 836 4129 
Q 1250 4750 2034 4750 
z
" transform="scale(0.015625)"/>
       </defs>
       <use xlink:href="#DejaVuSans-30"/>
      </g>
     </g>
    </g>
    <g id="xtick_5">
     <g id="line2d_9">
      <path d="M 497.86763 509.9875 
L 497.86763 26.28 
" clip-path="url(#pf5024d3485)" style="fill: none; stroke: #b0b0b0; stroke-width: 0.8; stroke-linecap: square"/>
     </g>
     <g id="line2d_10">
      <g>
       <use xlink:href="#m39f130bcba" x="497.86763" y="509.9875" style="stroke: #000000; stroke-width: 0.8"/>
      </g>
     </g>
     <g id="text_5">
      <!-- 1 -->
      <g transform="translate(492.14138 530.664688) scale(0.18 -0.18)">
       <use xlink:href="#DejaVuSans-31"/>
      </g>
     </g>
    </g>
    <g id="xtick_6">
     <g id="line2d_11">
      <path d="M 596.356315 509.9875 
L 596.356315 26.28 
" clip-path="url(#pf5024d3485)" style="fill: none; stroke: #b0b0b0; stroke-width: 0.8; stroke-linecap: square"/>
     </g>
     <g id="line2d_12">
      <g>
       <use xlink:href="#m39f130bcba" x="596.356315" y="509.9875" style="stroke: #000000; stroke-width: 0.8"/>
      </g>
     </g>
     <g id="text_6">
      <!-- 2 -->
      <g transform="translate(590.630065 530.664688) scale(0.18 -0.18)">
       <use xlink:href="#DejaVuSans-32"/>
      </g>
     </g>
    </g>
    <g id="xtick_7">
     <g id="line2d_13">
      <path d="M 694.845 509.9875 
L 694.845 26.28 
" clip-path="url(#pf5024d3485)" style="fill: none; stroke: #b0b0b0; stroke-width: 0.8; stroke-linecap: square"/>
     </g>
     <g id="line2d_14">
      <g>
       <use xlink:href="#m39f130bcba" x="694.845" y="509.9875" style="stroke: #000000; stroke-width: 0.8"/>
      </g>
     </g>
     <g id="text_7">
      <!-- 3 -->
      <g transform="translate(689.11875 530.664688) scale(0.18 -0.18)">
       <use xlink:href="#DejaVuSans-33"/>
      </g>
     </g>
    </g>
    <g id="text_8">
     <!-- $\omega$ [-] -->
     <g transform="translate(381.468945 550.650937) scale(0.18 -0.18)">
      <defs>
       <path id="DejaVuSans-Oblique-3c9" d="M 1369 -91 
Q 72 -91 434 1766 
Q 575 2500 1256 3500 
L 1875 3500 
Q 1231 2500 1088 1750 
Q 819 397 1519 397 
Q 2166 397 2478 2078 
L 3009 2078 
Q 2669 388 3316 397 
Q 4013 403 4275 1750 
Q 4419 2500 4169 3500 
L 4788 3500 
Q 5075 2500 4934 1766 
Q 4578 -94 3278 -91 
Q 2428 -88 2503 844 
Q 2194 -91 1369 -91 
z
" transform="scale(0.015625)"/>
       <path id="Calibri-20" transform="scale(0.015625)"/>
       <path id="Calibri-5b" d="M 1684 -813 
Q 1684 -916 1661 -958 
Q 1638 -1000 1594 -1000 
L 794 -1000 
Q 756 -1000 722 -989 
Q 688 -978 659 -953 
Q 631 -928 614 -886 
Q 597 -844 597 -781 
L 597 4153 
Q 597 4213 614 4255 
Q 631 4297 659 4323 
Q 688 4350 722 4361 
Q 756 4372 794 4372 
L 1594 4372 
Q 1613 4372 1630 4362 
Q 1647 4353 1659 4328 
Q 1672 4303 1678 4267 
Q 1684 4231 1684 4178 
Q 1684 4078 1661 4034 
Q 1638 3991 1594 3991 
L 1084 3991 
L 1084 -622 
L 1594 -622 
Q 1613 -622 1630 -631 
Q 1647 -641 1659 -664 
Q 1672 -688 1678 -723 
Q 1684 -759 1684 -813 
z
" transform="scale(0.015625)"/>
       <path id="Calibri-2d" d="M 1744 1578 
Q 1744 1456 1716 1409 
Q 1688 1363 1634 1363 
L 328 1363 
Q 272 1363 244 1411 
Q 216 1459 216 1578 
Q 216 1697 244 1744 
Q 272 1791 328 1791 
L 1634 1791 
Q 1659 1791 1679 1781 
Q 1700 1772 1714 1745 
Q 1728 1719 1736 1678 
Q 1744 1638 1744 1578 
z
" transform="scale(0.015625)"/>
       <path id="Calibri-5d" d="M 1369 -781 
Q 1369 -844 1351 -886 
Q 1334 -928 1306 -953 
Q 1278 -978 1242 -989 
Q 1206 -1000 1169 -1000 
L 372 -1000 
Q 328 -1000 304 -958 
Q 281 -916 281 -813 
Q 281 -759 286 -723 
Q 291 -688 303 -664 
Q 316 -641 333 -631 
Q 350 -622 372 -622 
L 881 -622 
L 881 3991 
L 372 3991 
Q 328 3991 304 4034 
Q 281 4078 281 4178 
Q 281 4231 286 4267 
Q 291 4303 303 4328 
Q 316 4353 333 4362 
Q 350 4372 372 4372 
L 1169 4372 
Q 1206 4372 1242 4361 
Q 1278 4350 1306 4323 
Q 1334 4297 1351 4255 
Q 1369 4213 1369 4153 
L 1369 -781 
z
" transform="scale(0.015625)"/>
      </defs>
      <use xlink:href="#DejaVuSans-Oblique-3c9" transform="translate(0 0.6875)"/>
      <use xlink:href="#Calibri-20" transform="translate(83.740234 0.6875)"/>
      <use xlink:href="#Calibri-5b" transform="translate(106.347656 0.6875)"/>
      <use xlink:href="#Calibri-2d" transform="translate(137.011719 0.6875)"/>
      <use xlink:href="#Calibri-5d" transform="translate(167.626953 0.6875)"/>
     </g>
    </g>
   </g>
   <g id="matplotlib.axis_2">
    <g id="ytick_1">
     <g id="line2d_15">
      <path d="M 103.912891 509.9875 
L 694.845 509.9875 
" clip-path="url(#pf5024d3485)" style="fill: none; stroke: #b0b0b0; stroke-width: 0.8; stroke-linecap: square"/>
     </g>
     <g id="line2d_16">
      <defs>
       <path id="m4d750a4eda" d="M 0 0 
L -3.5 0 
" style="stroke: #000000; stroke-width: 0.8"/>
      </defs>
      <g>
       <use xlink:href="#m4d750a4eda" x="103.912891" y="509.9875" style="stroke: #000000; stroke-width: 0.8"/>
      </g>
     </g>
     <g id="text_9">
      <!-- 0.0 -->
      <g transform="translate(68.287266 516.826094) scale(0.18 -0.18)">
       <defs>
        <path id="DejaVuSans-2e" d="M 684 794 
L 1344 794 
L 1344 0 
L 684 0 
L 684 794 
z
" transform="scale(0.015625)"/>
       </defs>
       <use xlink:href="#DejaVuSans-30"/>
       <use xlink:href="#DejaVuSans-2e" x="63.623047"/>
       <use xlink:href="#DejaVuSans-30" x="95.410156"/>
      </g>
     </g>
    </g>
    <g id="ytick_2">
     <g id="line2d_17">
      <path d="M 103.912891 429.369583 
L 694.845 429.369583 
" clip-path="url(#pf5024d3485)" style="fill: none; stroke: #b0b0b0; stroke-width: 0.8; stroke-linecap: square"/>
     </g>
     <g id="line2d_18">
      <g>
       <use xlink:href="#m4d750a4eda" x="103.912891" y="429.369583" style="stroke: #000000; stroke-width: 0.8"/>
      </g>
     </g>
     <g id="text_10">
      <!-- 0.2 -->
      <g transform="translate(68.287266 436.208177) scale(0.18 -0.18)">
       <use xlink:href="#DejaVuSans-30"/>
       <use xlink:href="#DejaVuSans-2e" x="63.623047"/>
       <use xlink:href="#DejaVuSans-32" x="95.410156"/>
      </g>
     </g>
    </g>
    <g id="ytick_3">
     <g id="line2d_19">
      <path d="M 103.912891 348.751667 
L 694.845 348.751667 
" clip-path="url(#pf5024d3485)" style="fill: none; stroke: #b0b0b0; stroke-width: 0.8; stroke-linecap: square"/>
     </g>
     <g id="line2d_20">
      <g>
       <use xlink:href="#m4d750a4eda" x="103.912891" y="348.751667" style="stroke: #000000; stroke-width: 0.8"/>
      </g>
     </g>
     <g id="text_11">
      <!-- 0.4 -->
      <g transform="translate(68.287266 355.59026) scale(0.18 -0.18)">
       <defs>
        <path id="DejaVuSans-34" d="M 2419 4116 
L 825 1625 
L 2419 1625 
L 2419 4116 
z
M 2253 4666 
L 3047 4666 
L 3047 1625 
L 3713 1625 
L 3713 1100 
L 3047 1100 
L 3047 0 
L 2419 0 
L 2419 1100 
L 313 1100 
L 313 1709 
L 2253 4666 
z
" transform="scale(0.015625)"/>
       </defs>
       <use xlink:href="#DejaVuSans-30"/>
       <use xlink:href="#DejaVuSans-2e" x="63.623047"/>
       <use xlink:href="#DejaVuSans-34" x="95.410156"/>
      </g>
     </g>
    </g>
    <g id="ytick_4">
     <g id="line2d_21">
      <path d="M 103.912891 268.13375 
L 694.845 268.13375 
" clip-path="url(#pf5024d3485)" style="fill: none; stroke: #b0b0b0; stroke-width: 0.8; stroke-linecap: square"/>
     </g>
     <g id="line2d_22">
      <g>
       <use xlink:href="#m4d750a4eda" x="103.912891" y="268.13375" style="stroke: #000000; stroke-width: 0.8"/>
      </g>
     </g>
     <g id="text_12">
      <!-- 0.6 -->
      <g transform="translate(68.287266 274.972344) scale(0.18 -0.18)">
       <defs>
        <path id="DejaVuSans-36" d="M 2113 2584 
Q 1688 2584 1439 2293 
Q 1191 2003 1191 1497 
Q 1191 994 1439 701 
Q 1688 409 2113 409 
Q 2538 409 2786 701 
Q 3034 994 3034 1497 
Q 3034 2003 2786 2293 
Q 2538 2584 2113 2584 
z
M 3366 4563 
L 3366 3988 
Q 3128 4100 2886 4159 
Q 2644 4219 2406 4219 
Q 1781 4219 1451 3797 
Q 1122 3375 1075 2522 
Q 1259 2794 1537 2939 
Q 1816 3084 2150 3084 
Q 2853 3084 3261 2657 
Q 3669 2231 3669 1497 
Q 3669 778 3244 343 
Q 2819 -91 2113 -91 
Q 1303 -91 875 529 
Q 447 1150 447 2328 
Q 447 3434 972 4092 
Q 1497 4750 2381 4750 
Q 2619 4750 2861 4703 
Q 3103 4656 3366 4563 
z
" transform="scale(0.015625)"/>
       </defs>
       <use xlink:href="#DejaVuSans-30"/>
       <use xlink:href="#DejaVuSans-2e" x="63.623047"/>
       <use xlink:href="#DejaVuSans-36" x="95.410156"/>
      </g>
     </g>
    </g>
    <g id="ytick_5">
     <g id="line2d_23">
      <path d="M 103.912891 187.515833 
L 694.845 187.515833 
" clip-path="url(#pf5024d3485)" style="fill: none; stroke: #b0b0b0; stroke-width: 0.8; stroke-linecap: square"/>
     </g>
     <g id="line2d_24">
      <g>
       <use xlink:href="#m4d750a4eda" x="103.912891" y="187.515833" style="stroke: #000000; stroke-width: 0.8"/>
      </g>
     </g>
     <g id="text_13">
      <!-- 0.8 -->
      <g transform="translate(68.287266 194.354427) scale(0.18 -0.18)">
       <defs>
        <path id="DejaVuSans-38" d="M 2034 2216 
Q 1584 2216 1326 1975 
Q 1069 1734 1069 1313 
Q 1069 891 1326 650 
Q 1584 409 2034 409 
Q 2484 409 2743 651 
Q 3003 894 3003 1313 
Q 3003 1734 2745 1975 
Q 2488 2216 2034 2216 
z
M 1403 2484 
Q 997 2584 770 2862 
Q 544 3141 544 3541 
Q 544 4100 942 4425 
Q 1341 4750 2034 4750 
Q 2731 4750 3128 4425 
Q 3525 4100 3525 3541 
Q 3525 3141 3298 2862 
Q 3072 2584 2669 2484 
Q 3125 2378 3379 2068 
Q 3634 1759 3634 1313 
Q 3634 634 3220 271 
Q 2806 -91 2034 -91 
Q 1263 -91 848 271 
Q 434 634 434 1313 
Q 434 1759 690 2068 
Q 947 2378 1403 2484 
z
M 1172 3481 
Q 1172 3119 1398 2916 
Q 1625 2713 2034 2713 
Q 2441 2713 2670 2916 
Q 2900 3119 2900 3481 
Q 2900 3844 2670 4047 
Q 2441 4250 2034 4250 
Q 1625 4250 1398 4047 
Q 1172 3844 1172 3481 
z
" transform="scale(0.015625)"/>
       </defs>
       <use xlink:href="#DejaVuSans-30"/>
       <use xlink:href="#DejaVuSans-2e" x="63.623047"/>
       <use xlink:href="#DejaVuSans-38" x="95.410156"/>
      </g>
     </g>
    </g>
    <g id="ytick_6">
     <g id="line2d_25">
      <path d="M 103.912891 106.897917 
L 694.845 106.897917 
" clip-path="url(#pf5024d3485)" style="fill: none; stroke: #b0b0b0; stroke-width: 0.8; stroke-linecap: square"/>
     </g>
     <g id="line2d_26">
      <g>
       <use xlink:href="#m4d750a4eda" x="103.912891" y="106.897917" style="stroke: #000000; stroke-width: 0.8"/>
      </g>
     </g>
     <g id="text_14">
      <!-- 1.0 -->
      <g transform="translate(68.287266 113.73651) scale(0.18 -0.18)">
       <use xlink:href="#DejaVuSans-31"/>
       <use xlink:href="#DejaVuSans-2e" x="63.623047"/>
       <use xlink:href="#DejaVuSans-30" x="95.410156"/>
      </g>
     </g>
    </g>
    <g id="ytick_7">
     <g id="line2d_27">
      <path d="M 103.912891 26.28 
L 694.845 26.28 
" clip-path="url(#pf5024d3485)" style="fill: none; stroke: #b0b0b0; stroke-width: 0.8; stroke-linecap: square"/>
     </g>
     <g id="line2d_28">
      <g>
       <use xlink:href="#m4d750a4eda" x="103.912891" y="26.28" style="stroke: #000000; stroke-width: 0.8"/>
      </g>
     </g>
     <g id="text_15">
      <!-- 1.2 -->
      <g transform="translate(68.287266 33.118594) scale(0.18 -0.18)">
       <use xlink:href="#DejaVuSans-31"/>
       <use xlink:href="#DejaVuSans-2e" x="63.623047"/>
       <use xlink:href="#DejaVuSans-32" x="95.410156"/>
      </g>
     </g>
    </g>
    <g id="text_16">
     <!-- $\rho$($\omega$) -->
     <g transform="translate(19.567266 264.35375) scale(0.18 -0.18)">
      <defs>
       <path id="DejaVuSans-Oblique-3c1" d="M 1203 2875 
Q 1453 3194 1981 3475 
Q 2188 3584 2756 3584 
Q 3394 3584 3694 3078 
Q 3994 2572 3834 1747 
Q 3672 922 3175 415 
Q 2678 -91 2041 -91 
Q 1656 -91 1409 63 
Q 1163 213 1044 525 
L 681 -1331 
L 103 -1331 
L 697 1716 
Q 838 2438 1203 2875 
z
M 3238 1747 
Q 3359 2381 3169 2744 
Q 2978 3103 2522 3103 
Q 2066 3103 1734 2744 
Q 1403 2381 1281 1747 
Q 1156 1113 1347 750 
Q 1538 391 1994 391 
Q 2450 391 2781 750 
Q 3113 1113 3238 1747 
z
" transform="scale(0.015625)"/>
       <path id="Calibri-28" d="M 1547 4306 
Q 1250 3678 1104 3017 
Q 959 2356 959 1688 
Q 959 1016 1107 356 
Q 1256 -303 1541 -938 
Q 1556 -975 1557 -1001 
Q 1559 -1028 1537 -1045 
Q 1516 -1063 1470 -1070 
Q 1425 -1078 1347 -1078 
Q 1291 -1078 1250 -1075 
Q 1209 -1072 1179 -1062 
Q 1150 -1053 1131 -1040 
Q 1113 -1028 1103 -1013 
Q 934 -694 806 -367 
Q 678 -41 590 296 
Q 503 634 459 979 
Q 416 1325 416 1678 
Q 416 2031 464 2375 
Q 513 2719 602 3058 
Q 691 3397 819 3725 
Q 947 4053 1106 4375 
Q 1109 4388 1123 4397 
Q 1138 4406 1163 4415 
Q 1188 4425 1231 4429 
Q 1275 4434 1344 4434 
Q 1416 4434 1459 4425 
Q 1503 4416 1528 4400 
Q 1553 4384 1556 4359 
Q 1559 4334 1547 4306 
z
" transform="scale(0.015625)"/>
       <path id="Calibri-29" d="M 1522 1678 
Q 1522 1325 1478 979 
Q 1434 634 1346 296 
Q 1259 -41 1132 -367 
Q 1006 -694 838 -1013 
Q 828 -1028 809 -1040 
Q 791 -1053 761 -1062 
Q 731 -1072 690 -1075 
Q 650 -1078 594 -1078 
Q 513 -1078 467 -1070 
Q 422 -1063 401 -1045 
Q 381 -1028 382 -1001 
Q 384 -975 400 -938 
Q 688 -306 834 355 
Q 981 1016 981 1688 
Q 981 2356 834 3017 
Q 688 3678 394 4306 
Q 381 4334 384 4359 
Q 388 4384 413 4400 
Q 438 4416 481 4425 
Q 525 4434 597 4434 
Q 663 4434 706 4429 
Q 750 4425 776 4415 
Q 803 4406 815 4397 
Q 828 4388 834 4375 
Q 1156 3734 1339 3057 
Q 1522 2381 1522 1678 
z
" transform="scale(0.015625)"/>
      </defs>
      <use xlink:href="#DejaVuSans-Oblique-3c1" transform="translate(0 0.71875)"/>
      <use xlink:href="#Calibri-28" transform="translate(63.476562 0.71875)"/>
      <use xlink:href="#DejaVuSans-Oblique-3c9" transform="translate(93.798828 0.71875)"/>
      <use xlink:href="#Calibri-29" transform="translate(177.539062 0.71875)"/>
     </g>
    </g>
   </g>
   <g id="line2d_29">
    <path d="M 103.912891 505.752932 
L 129.913903 504.906486 
L 151.778391 503.982657 
L 170.688219 502.96553 
L 186.643386 501.893417 
L 200.825757 500.721769 
L 213.235331 499.476531 
L 224.463041 498.122478 
L 234.508887 496.678874 
L 243.372868 495.177423 
L 251.054986 493.663653 
L 258.146171 492.053746 
L 264.646424 490.36287 
L 270.555745 488.613193 
L 276.465067 486.623539 
L 281.783456 484.590756 
L 286.510912 482.558026 
L 291.238369 480.277635 
L 295.374894 478.047354 
L 299.511419 475.564 
L 303.647944 472.789186 
L 307.193536 470.144441 
L 310.739129 467.218367 
L 314.284722 463.971476 
L 317.239382 460.987531 
L 320.194043 457.717832 
L 323.148703 454.12687 
L 326.103364 450.173877 
L 329.058024 445.811981 
L 332.012685 440.987221 
L 334.967345 435.637432 
L 337.331074 430.931801 
L 339.694802 425.802922 
L 342.058531 420.204283 
L 344.422259 414.083981 
L 346.785988 407.384263 
L 349.149716 400.041142 
L 351.513444 391.984153 
L 353.877173 383.136352 
L 356.240901 373.414716 
L 358.60463 362.731154 
L 360.968358 350.99444 
L 363.332087 338.113472 
L 365.695815 324.002402 
L 368.059544 308.588305 
L 370.423272 291.822161 
L 372.787 273.693947 
L 375.741661 249.200103 
L 379.287254 217.528986 
L 388.151235 136.262114 
L 389.924032 122.023665 
L 391.696828 109.377411 
L 392.878692 102.040789 
L 394.060556 95.718485 
L 395.242421 90.517775 
L 396.424285 86.530736 
L 397.015217 85.015986 
L 397.606149 83.830334 
L 398.197081 82.979382 
L 398.788013 82.467177 
L 399.378945 82.296169 
L 399.969877 82.467177 
L 400.56081 82.979382 
L 401.151742 83.830334 
L 401.742674 85.015986 
L 402.333606 86.530736 
L 403.51547 90.517775 
L 404.697334 95.718485 
L 405.879199 102.040789 
L 407.061063 109.377411 
L 408.833859 122.023665 
L 410.606655 136.262114 
L 412.970384 156.990363 
L 417.697841 201.05126 
L 421.834365 238.884983 
L 424.789026 264.131366 
L 427.743687 287.417074 
L 430.107415 304.524716 
L 432.471143 320.27346 
L 434.834872 334.704167 
L 437.1986 347.884964 
L 439.562329 359.899301 
L 441.926057 370.837535 
L 444.289786 380.79123 
L 446.653514 389.849486 
L 449.017242 398.096716 
L 451.380971 405.611443 
L 453.744699 412.465763 
L 456.108428 418.725266 
L 458.472156 424.449234 
L 460.835885 429.69099 
L 463.790545 435.637432 
L 466.745206 440.987221 
L 469.699866 445.811981 
L 472.654527 450.173877 
L 475.609187 454.12687 
L 478.563848 457.717832 
L 481.518509 460.987531 
L 484.473169 463.971476 
L 488.018762 467.218367 
L 491.564354 470.144441 
L 495.109947 472.789186 
L 498.65554 475.186422 
L 502.792064 477.708909 
L 506.928589 479.973231 
L 511.656046 482.287284 
L 516.383503 484.348992 
L 521.701892 486.409729 
L 527.020281 488.235764 
L 532.929602 490.030274 
L 539.429855 491.762742 
L 546.521041 493.410574 
L 554.203158 494.958428 
L 562.476207 496.397227 
L 571.931121 497.804506 
L 581.976967 499.074891 
L 593.204677 500.27466 
L 606.205184 501.433673 
L 620.978486 502.516909 
L 637.524585 503.503752 
L 657.025345 504.435836 
L 679.480765 505.280892 
L 694.845 505.752932 
L 694.845 505.752932 
" clip-path="url(#pf5024d3485)" style="fill: none; stroke-dasharray: 14.8,6.4; stroke-dashoffset: 0; stroke: #000000; stroke-width: 4"/>
   </g>
   <g id="line2d_30">
    <path d="M 399.378945 509.9875 
L 399.378945 509.9875 
L 399.378945 509.9875 
L 399.378945 509.9875 
L 399.378945 509.9875 
L 399.378945 509.9875 
L 399.378945 509.9875 
L 399.378945 509.9875 
L 399.378945 509.9875 
L 399.378945 509.9875 
L 399.378945 509.9875 
L 399.378945 509.9875 
L 399.378945 509.9875 
L 399.378945 509.9875 
L 399.378945 509.9875 
L 399.378945 509.9875 
L 399.378945 509.9875 
L 399.378945 509.9875 
L 399.378945 509.9875 
L 399.378945 509.9875 
L 399.378945 509.9875 
L 399.378945 509.9875 
L 399.378945 509.9875 
L 399.378945 509.9875 
L 399.378945 509.9875 
L 399.378945 509.9875 
L 399.378945 509.9875 
L 399.378945 509.9875 
L 399.378945 509.9875 
L 399.378945 509.9875 
L 399.378945 509.9875 
L 399.378945 509.9875 
L 399.378945 509.9875 
L 399.378945 509.9875 
L 399.378945 509.9875 
L 399.378945 509.9875 
L 399.378945 509.9875 
L 399.378945 509.9875 
L 399.378945 509.9875 
L 399.378945 509.9875 
L 399.378945 509.9875 
L 399.378945 509.9875 
L 399.378945 509.9875 
L 399.378945 509.9875 
L 399.378945 509.9875 
L 399.378945 509.9875 
L 399.378945 509.9875 
L 399.378945 509.9875 
L 399.378945 509.9875 
L 399.378945 509.9875 
L 399.378945 509.9875 
L 399.378945 509.9875 
L 399.378945 509.9875 
L 399.378945 509.9875 
L 399.378945 509.9875 
L 399.378945 509.9875 
L 399.378945 509.9875 
L 399.378945 509.9875 
L 399.378945 509.9875 
L 399.378945 509.9875 
L 399.378945 509.9875 
L 399.378945 509.9875 
L 399.378945 509.9875 
L 399.378945 509.9875 
L 399.378945 509.9875 
L 399.378945 509.9875 
L 399.378945 509.9875 
L 399.378945 509.9875 
L 399.378945 509.9875 
L 399.378945 509.9875 
L 399.378945 509.9875 
L 399.378945 509.9875 
L 399.378945 509.9875 
L 399.378945 509.9875 
L 399.378945 509.9875 
L 399.378945 509.9875 
L 399.378945 509.9875 
L 399.378945 509.9875 
L 399.378945 509.9875 
" clip-path="url(#pf5024d3485)" style="fill: none; stroke: #dc143c; stroke-width: 2; stroke-linecap: square"/>
   </g>
   <g id="line2d_31">
    <path d="M 103.912891 494.952525 
L 111.488943 509.9875 
L 119.064996 509.9875 
L 126.641049 479.91755 
L 134.217101 509.9875 
L 141.793154 494.952525 
L 149.369207 509.9875 
L 156.945259 509.9875 
L 164.521312 494.952525 
L 172.097365 479.91755 
L 179.673417 494.952525 
L 187.24947 479.91755 
L 194.825523 509.9875 
L 202.401576 494.952525 
L 209.977628 509.9875 
L 217.553681 479.91755 
L 225.129734 509.9875 
L 232.705786 479.91755 
L 240.281839 509.9875 
L 247.857892 449.8476 
L 255.433944 479.91755 
L 263.009997 419.77765 
L 270.58605 494.952525 
L 278.162102 464.882575 
L 285.738155 479.91755 
L 293.314208 479.91755 
L 300.89026 449.8476 
L 308.466313 449.8476 
L 316.042366 449.8476 
L 323.618418 419.77765 
L 331.194471 404.742675 
L 338.770524 434.812625 
L 346.346577 374.672725 
L 353.922629 344.602775 
L 361.498682 314.532825 
L 369.074735 299.49785 
L 376.650787 104.043175 
L 384.22684 104.043175 
L 391.802893 374.672725 
L 399.378945 509.9875 
L 406.954998 374.672725 
L 414.531051 89.0082 
L 422.107103 194.253025 
L 429.683156 239.35795 
L 437.259209 299.49785 
L 444.835261 254.392925 
L 452.411314 419.77765 
L 459.987367 389.7077 
L 467.563419 449.8476 
L 475.139472 494.952525 
L 482.715525 419.77765 
L 490.291578 449.8476 
L 497.86763 344.602775 
L 505.443683 494.952525 
L 513.019736 509.9875 
L 520.595788 494.952525 
L 528.171841 509.9875 
L 535.747894 434.812625 
L 543.323946 494.952525 
L 550.899999 464.882575 
L 558.476052 464.882575 
L 566.052104 494.952525 
L 573.628157 509.9875 
L 581.20421 494.952525 
L 588.780262 479.91755 
L 596.356315 494.952525 
L 603.932368 509.9875 
L 611.50842 449.8476 
L 619.084473 494.952525 
L 626.660526 509.9875 
L 634.236579 494.952525 
L 641.812631 509.9875 
L 649.388684 479.91755 
L 656.964737 509.9875 
L 664.540789 509.9875 
L 672.116842 494.952525 
L 679.692895 494.952525 
L 687.268947 509.9875 
L 694.845 479.91755 
" clip-path="url(#pf5024d3485)" style="fill: none; stroke: #ff8c00; stroke-width: 2; stroke-linecap: square"/>
   </g>
   <g id="line2d_32">
    <path d="M 399.378945 509.9875 
L 399.378945 509.9875 
L 399.378945 509.9875 
L 399.378945 509.9875 
L 399.378945 509.9875 
L 399.378945 509.9875 
L 399.378945 509.9875 
L 399.378945 509.9875 
L 399.378945 509.9875 
L 399.378945 509.9875 
L 399.378945 509.9875 
L 399.378945 509.9875 
L 399.378945 509.9875 
L 399.378945 509.9875 
L 399.378945 509.9875 
L 399.378945 509.9875 
L 399.378945 509.9875 
L 399.378945 509.9875 
L 399.378945 509.9875 
L 399.378945 509.9875 
L 399.378945 509.9875 
L 399.378945 509.9875 
L 399.378945 509.9875 
L 399.378945 509.9875 
L 399.378945 509.9875 
L 399.378945 509.9875 
L 399.378945 509.9875 
L 399.378945 509.9875 
L 399.378945 509.9875 
L 399.378945 509.9875 
L 399.378945 509.9875 
L 399.378945 509.9875 
L 399.378945 509.9875 
L 399.378945 509.9875 
L 399.378945 509.9875 
L 399.378945 509.9875 
L 399.378945 509.9875 
L 399.378945 509.9875 
L 399.378945 509.9875 
L 399.378945 509.9875 
L 399.378945 509.9875 
L 399.378945 509.9875 
L 399.378945 509.9875 
L 399.378945 509.9875 
L 399.378945 509.9875 
L 399.378945 509.9875 
L 399.378945 509.9875 
L 399.378945 509.9875 
L 399.378945 509.9875 
L 399.378945 509.9875 
L 399.378945 509.9875 
L 399.378945 509.9875 
L 399.378945 509.9875 
L 399.378945 509.9875 
L 399.378945 509.9875 
L 399.378945 509.9875 
L 399.378945 509.9875 
L 399.378945 509.9875 
L 399.378945 509.9875 
L 399.378945 509.9875 
L 399.378945 509.9875 
L 399.378945 509.9875 
L 399.378945 509.9875 
L 399.378945 509.9875 
L 399.378945 509.9875 
L 399.378945 509.9875 
L 399.378945 509.9875 
L 399.378945 509.9875 
L 399.378945 509.9875 
L 399.378945 509.9875 
L 399.378945 509.9875 
L 399.378945 509.9875 
L 399.378945 509.9875 
L 399.378945 509.9875 
L 399.378945 509.9875 
L 399.378945 509.9875 
L 399.378945 509.9875 
L 399.378945 509.9875 
L 399.378945 509.9875 
L 399.378945 509.9875 
L 399.378945 509.9875 
L 399.378945 509.9875 
L 399.378945 509.9875 
L 399.378945 509.9875 
L 399.378945 509.9875 
L 399.378945 509.9875 
L 399.378945 509.9875 
L 399.378945 509.9875 
L 399.378945 509.9875 
L 399.378945 509.9875 
L 399.378945 509.9875 
L 399.378945 509.9875 
L 399.378945 509.9875 
L 399.378945 509.9875 
L 399.378945 509.9875 
L 399.378945 509.9875 
L 399.378945 509.9875 
L 399.378945 509.9875 
L 399.378945 509.9875 
L 399.378945 509.9875 
L 399.378945 509.9875 
L 399.378945 509.9875 
L 399.378945 509.9875 
L 399.378945 509.9875 
L 399.378945 509.9875 
L 399.378945 509.9875 
L 399.378945 509.9875 
L 399.378945 509.9875 
L 399.378945 509.9875 
L 399.378945 509.9875 
L 399.378945 509.9875 
L 399.378945 509.9875 
L 399.378945 509.9875 
L 399.378945 509.9875 
L 399.378945 509.9875 
L 399.378945 509.9875 
L 399.378945 509.9875 
L 399.378945 509.9875 
L 399.378945 509.9875 
" clip-path="url(#pf5024d3485)" style="fill: none; stroke: #00ff00; stroke-width: 2; stroke-linecap: square"/>
   </g>
   <g id="line2d_33">
    <path d="M 399.378945 509.9875 
L 399.378945 509.9875 
" clip-path="url(#pf5024d3485)" style="fill: none; stroke: #40e0d0; stroke-width: 2; stroke-linecap: square"/>
   </g>
   <g id="line2d_34">
    <path d="M 399.378945 509.9875 
L 399.378945 509.9875 
" clip-path="url(#pf5024d3485)" style="fill: none; stroke: #00ffff; stroke-width: 2; stroke-linecap: square"/>
   </g>
   <g id="line2d_35">
    <path d="M 399.378945 509.9875 
L 399.378945 509.9875 
" clip-path="url(#pf5024d3485)" style="fill: none; stroke: #1e90ff; stroke-width: 2; stroke-linecap: square"/>
   </g>
   <g id="patch_3">
    <path d="M 103.912891 509.9875 
L 103.912891 26.28 
" style="fill: none; stroke: #000000; stroke-width: 0.8; stroke-linejoin: miter; stroke-linecap: square"/>
   </g>
   <g id="patch_4">
    <path d="M 694.845 509.9875 
L 694.845 26.28 
" style="fill: none; stroke: #000000; stroke-width: 0.8; stroke-linejoin: miter; stroke-linecap: square"/>
   </g>
   <g id="patch_5">
    <path d="M 103.912891 509.9875 
L 694.845 509.9875 
" style="fill: none; stroke: #000000; stroke-width: 0.8; stroke-linejoin: miter; stroke-linecap: square"/>
   </g>
   <g id="patch_6">
    <path d="M 103.912891 26.28 
L 694.845 26.28 
" style="fill: none; stroke: #000000; stroke-width: 0.8; stroke-linejoin: miter; stroke-linecap: square"/>
   </g>
   <g id="legend_1">
    <g id="patch_7">
     <path d="M 439.605 225.880313 
L 685.845 225.880313 
L 685.845 35.28 
L 439.605 35.28 
z
" style="fill: #ffffff; opacity: 0.8; stroke: #000000; stroke-linejoin: miter"/>
    </g>
    <g id="line2d_36">
     <path d="M 446.805 49.857188 
L 464.805 49.857188 
L 482.805 49.857188 
" style="fill: none; stroke-dasharray: 14.8,6.4; stroke-dashoffset: 0; stroke: #000000; stroke-width: 4"/>
    </g>
    <g id="text_17">
     <!-- $\rho_0$ -->
     <g transform="translate(497.205 56.157188) scale(0.18 -0.18)">
      <use xlink:href="#DejaVuSans-Oblique-3c1"/>
      <use xlink:href="#DejaVuSans-30" transform="translate(63.476562 -16.40625) scale(0.7)"/>
     </g>
    </g>
    <g id="line2d_37">
     <path d="M 446.805 76.314375 
L 464.805 76.314375 
L 482.805 76.314375 
" style="fill: none; stroke: #dc143c; stroke-width: 2; stroke-linecap: square"/>
    </g>
    <g id="text_18">
     <!-- $\rho_0,\it{U=0,n=2}$ -->
     <g transform="translate(497.205 82.614375) scale(0.18 -0.18)">
      <defs>
       <path id="DejaVuSans-2c" d="M 750 794 
L 1409 794 
L 1409 256 
L 897 -744 
L 494 -744 
L 750 256 
L 750 794 
z
" transform="scale(0.015625)"/>
       <path id="DejaVuSans-Oblique-55" d="M 991 4666 
L 1625 4666 
L 1075 1831 
Q 1041 1641 1027 1517 
Q 1013 1394 1013 1300 
Q 1013 869 1253 645 
Q 1494 422 1959 422 
Q 2563 422 2898 753 
Q 3234 1084 3378 1831 
L 3928 4666 
L 4563 4666 
L 4000 1753 
Q 3816 809 3300 359 
Q 2784 -91 1888 -91 
Q 1188 -91 780 261 
Q 372 613 372 1216 
Q 372 1325 387 1461 
Q 403 1597 434 1753 
L 991 4666 
z
" transform="scale(0.015625)"/>
       <path id="DejaVuSans-3d" d="M 678 2906 
L 4684 2906 
L 4684 2381 
L 678 2381 
L 678 2906 
z
M 678 1631 
L 4684 1631 
L 4684 1100 
L 678 1100 
L 678 1631 
z
" transform="scale(0.015625)"/>
       <path id="DejaVuSans-Oblique-6e" d="M 3566 2113 
L 3156 0 
L 2578 0 
L 2988 2091 
Q 3016 2238 3031 2350 
Q 3047 2463 3047 2528 
Q 3047 2791 2881 2937 
Q 2716 3084 2419 3084 
Q 1956 3084 1622 2776 
Q 1288 2469 1184 1941 
L 800 0 
L 225 0 
L 903 3500 
L 1478 3500 
L 1363 2950 
Q 1603 3253 1940 3418 
Q 2278 3584 2650 3584 
Q 3113 3584 3367 3334 
Q 3622 3084 3622 2631 
Q 3622 2519 3608 2391 
Q 3594 2263 3566 2113 
z
" transform="scale(0.015625)"/>
      </defs>
      <use xlink:href="#DejaVuSans-Oblique-3c1" transform="translate(0 0.78125)"/>
      <use xlink:href="#DejaVuSans-30" transform="translate(63.476562 -15.625) scale(0.7)"/>
      <use xlink:href="#DejaVuSans-2c" transform="translate(110.74707 0.78125)"/>
      <use xlink:href="#DejaVuSans-Oblique-55" transform="translate(162.016602 0.78125)"/>
      <use xlink:href="#DejaVuSans-3d" transform="translate(254.692383 0.78125)"/>
      <use xlink:href="#DejaVuSans-30" transform="translate(357.963867 0.78125)"/>
      <use xlink:href="#DejaVuSans-2c" transform="translate(421.586914 0.78125)"/>
      <use xlink:href="#DejaVuSans-Oblique-6e" transform="translate(472.856445 0.78125)"/>
      <use xlink:href="#DejaVuSans-3d" transform="translate(555.717773 0.78125)"/>
      <use xlink:href="#DejaVuSans-32" transform="translate(658.989258 0.78125)"/>
     </g>
    </g>
    <g id="line2d_38">
     <path d="M 446.805 102.771563 
L 464.805 102.771563 
L 482.805 102.771563 
" style="fill: none; stroke: #ff8c00; stroke-width: 2; stroke-linecap: square"/>
    </g>
    <g id="text_19">
     <!-- $\rho_0,\it{U=3,n=2}$ -->
     <g transform="translate(497.205 109.071563) scale(0.18 -0.18)">
      <use xlink:href="#DejaVuSans-Oblique-3c1" transform="translate(0 0.78125)"/>
      <use xlink:href="#DejaVuSans-30" transform="translate(63.476562 -15.625) scale(0.7)"/>
      <use xlink:href="#DejaVuSans-2c" transform="translate(110.74707 0.78125)"/>
      <use xlink:href="#DejaVuSans-Oblique-55" transform="translate(162.016602 0.78125)"/>
      <use xlink:href="#DejaVuSans-3d" transform="translate(254.692383 0.78125)"/>
      <use xlink:href="#DejaVuSans-33" transform="translate(357.963867 0.78125)"/>
      <use xlink:href="#DejaVuSans-2c" transform="translate(421.586914 0.78125)"/>
      <use xlink:href="#DejaVuSans-Oblique-6e" transform="translate(472.856445 0.78125)"/>
      <use xlink:href="#DejaVuSans-3d" transform="translate(555.717773 0.78125)"/>
      <use xlink:href="#DejaVuSans-32" transform="translate(658.989258 0.78125)"/>
     </g>
    </g>
    <g id="line2d_39">
     <path d="M 446.805 129.22875 
L 464.805 129.22875 
L 482.805 129.22875 
" style="fill: none; stroke: #00ff00; stroke-width: 2; stroke-linecap: square"/>
    </g>
    <g id="text_20">
     <!-- $\rho_0,\it{U=3,n=3}$ -->
     <g transform="translate(497.205 135.52875) scale(0.18 -0.18)">
      <use xlink:href="#DejaVuSans-Oblique-3c1" transform="translate(0 0.78125)"/>
      <use xlink:href="#DejaVuSans-30" transform="translate(63.476562 -15.625) scale(0.7)"/>
      <use xlink:href="#DejaVuSans-2c" transform="translate(110.74707 0.78125)"/>
      <use xlink:href="#DejaVuSans-Oblique-55" transform="translate(162.016602 0.78125)"/>
      <use xlink:href="#DejaVuSans-3d" transform="translate(254.692383 0.78125)"/>
      <use xlink:href="#DejaVuSans-33" transform="translate(357.963867 0.78125)"/>
      <use xlink:href="#DejaVuSans-2c" transform="translate(421.586914 0.78125)"/>
      <use xlink:href="#DejaVuSans-Oblique-6e" transform="translate(472.856445 0.78125)"/>
      <use xlink:href="#DejaVuSans-3d" transform="translate(555.717773 0.78125)"/>
      <use xlink:href="#DejaVuSans-33" transform="translate(658.989258 0.78125)"/>
     </g>
    </g>
    <g id="line2d_40">
     <path d="M 446.805 155.685938 
L 464.805 155.685938 
L 482.805 155.685938 
" style="fill: none; stroke: #40e0d0; stroke-width: 2; stroke-linecap: square"/>
    </g>
    <g id="text_21">
     <!-- $\rho_0,\it{U=3,n=4}$ -->
     <g transform="translate(497.205 161.985938) scale(0.18 -0.18)">
      <use xlink:href="#DejaVuSans-Oblique-3c1" transform="translate(0 0.78125)"/>
      <use xlink:href="#DejaVuSans-30" transform="translate(63.476562 -15.625) scale(0.7)"/>
      <use xlink:href="#DejaVuSans-2c" transform="translate(110.74707 0.78125)"/>
      <use xlink:href="#DejaVuSans-Oblique-55" transform="translate(162.016602 0.78125)"/>
      <use xlink:href="#DejaVuSans-3d" transform="translate(254.692383 0.78125)"/>
      <use xlink:href="#DejaVuSans-33" transform="translate(357.963867 0.78125)"/>
      <use xlink:href="#DejaVuSans-2c" transform="translate(421.586914 0.78125)"/>
      <use xlink:href="#DejaVuSans-Oblique-6e" transform="translate(472.856445 0.78125)"/>
      <use xlink:href="#DejaVuSans-3d" transform="translate(555.717773 0.78125)"/>
      <use xlink:href="#DejaVuSans-34" transform="translate(658.989258 0.78125)"/>
     </g>
    </g>
    <g id="line2d_41">
     <path d="M 446.805 182.143125 
L 464.805 182.143125 
L 482.805 182.143125 
" style="fill: none; stroke: #00ffff; stroke-width: 2; stroke-linecap: square"/>
    </g>
    <g id="text_22">
     <!-- $\rho_0,\it{U=3,n=5}$ -->
     <g transform="translate(497.205 188.443125) scale(0.18 -0.18)">
      <defs>
       <path id="DejaVuSans-35" d="M 691 4666 
L 3169 4666 
L 3169 4134 
L 1269 4134 
L 1269 2991 
Q 1406 3038 1543 3061 
Q 1681 3084 1819 3084 
Q 2600 3084 3056 2656 
Q 3513 2228 3513 1497 
Q 3513 744 3044 326 
Q 2575 -91 1722 -91 
Q 1428 -91 1123 -41 
Q 819 9 494 109 
L 494 744 
Q 775 591 1075 516 
Q 1375 441 1709 441 
Q 2250 441 2565 725 
Q 2881 1009 2881 1497 
Q 2881 1984 2565 2268 
Q 2250 2553 1709 2553 
Q 1456 2553 1204 2497 
Q 953 2441 691 2322 
L 691 4666 
z
" transform="scale(0.015625)"/>
      </defs>
      <use xlink:href="#DejaVuSans-Oblique-3c1" transform="translate(0 0.78125)"/>
      <use xlink:href="#DejaVuSans-30" transform="translate(63.476562 -15.625) scale(0.7)"/>
      <use xlink:href="#DejaVuSans-2c" transform="translate(110.74707 0.78125)"/>
      <use xlink:href="#DejaVuSans-Oblique-55" transform="translate(162.016602 0.78125)"/>
      <use xlink:href="#DejaVuSans-3d" transform="translate(254.692383 0.78125)"/>
      <use xlink:href="#DejaVuSans-33" transform="translate(357.963867 0.78125)"/>
      <use xlink:href="#DejaVuSans-2c" transform="translate(421.586914 0.78125)"/>
      <use xlink:href="#DejaVuSans-Oblique-6e" transform="translate(472.856445 0.78125)"/>
      <use xlink:href="#DejaVuSans-3d" transform="translate(555.717773 0.78125)"/>
      <use xlink:href="#DejaVuSans-35" transform="translate(658.989258 0.78125)"/>
     </g>
    </g>
    <g id="line2d_42">
     <path d="M 446.805 208.600313 
L 464.805 208.600313 
L 482.805 208.600313 
" style="fill: none; stroke: #1e90ff; stroke-width: 2; stroke-linecap: square"/>
    </g>
    <g id="text_23">
     <!-- $\rho_0,\it{U=3,n=4},N\%$2 -->
     <g transform="translate(497.205 214.900313) scale(0.18 -0.18)">
      <defs>
       <path id="DejaVuSans-Oblique-4e" d="M 1081 4666 
L 1931 4666 
L 3219 666 
L 4000 4666 
L 4616 4666 
L 3706 0 
L 2853 0 
L 1569 4025 
L 788 0 
L 172 0 
L 1081 4666 
z
" transform="scale(0.015625)"/>
       <path id="DejaVuSans-25" d="M 4653 2053 
Q 4381 2053 4226 1822 
Q 4072 1591 4072 1178 
Q 4072 772 4226 539 
Q 4381 306 4653 306 
Q 4919 306 5073 539 
Q 5228 772 5228 1178 
Q 5228 1588 5073 1820 
Q 4919 2053 4653 2053 
z
M 4653 2450 
Q 5147 2450 5437 2106 
Q 5728 1763 5728 1178 
Q 5728 594 5436 251 
Q 5144 -91 4653 -91 
Q 4153 -91 3862 251 
Q 3572 594 3572 1178 
Q 3572 1766 3864 2108 
Q 4156 2450 4653 2450 
z
M 1428 4353 
Q 1159 4353 1004 4120 
Q 850 3888 850 3481 
Q 850 3069 1003 2837 
Q 1156 2606 1428 2606 
Q 1700 2606 1854 2837 
Q 2009 3069 2009 3481 
Q 2009 3884 1853 4118 
Q 1697 4353 1428 4353 
z
M 4250 4750 
L 4750 4750 
L 1831 -91 
L 1331 -91 
L 4250 4750 
z
M 1428 4750 
Q 1922 4750 2215 4408 
Q 2509 4066 2509 3481 
Q 2509 2891 2217 2550 
Q 1925 2209 1428 2209 
Q 931 2209 642 2551 
Q 353 2894 353 3481 
Q 353 4063 643 4406 
Q 934 4750 1428 4750 
z
" transform="scale(0.015625)"/>
      </defs>
      <use xlink:href="#DejaVuSans-Oblique-3c1" transform="translate(0 0.78125)"/>
      <use xlink:href="#DejaVuSans-30" transform="translate(63.476562 -15.625) scale(0.7)"/>
      <use xlink:href="#DejaVuSans-2c" transform="translate(110.74707 0.78125)"/>
      <use xlink:href="#DejaVuSans-Oblique-55" transform="translate(162.016602 0.78125)"/>
      <use xlink:href="#DejaVuSans-3d" transform="translate(254.692383 0.78125)"/>
      <use xlink:href="#DejaVuSans-33" transform="translate(357.963867 0.78125)"/>
      <use xlink:href="#DejaVuSans-2c" transform="translate(421.586914 0.78125)"/>
      <use xlink:href="#DejaVuSans-Oblique-6e" transform="translate(472.856445 0.78125)"/>
      <use xlink:href="#DejaVuSans-3d" transform="translate(555.717773 0.78125)"/>
      <use xlink:href="#DejaVuSans-34" transform="translate(658.989258 0.78125)"/>
      <use xlink:href="#DejaVuSans-2c" transform="translate(722.612305 0.78125)"/>
      <use xlink:href="#DejaVuSans-Oblique-4e" transform="translate(773.881836 0.78125)"/>
      <use xlink:href="#DejaVuSans-25" transform="translate(848.686523 0.78125)"/>
      <use xlink:href="#DejaVuSans-32" transform="translate(943.706055 0.78125)"/>
     </g>
    </g>
   </g>
  </g>
 </g>
 <defs>
  <clipPath id="pf5024d3485">
   <rect x="103.912891" y="26.28" width="590.932109" height="483.7075"/>
  </clipPath>
 </defs>
</svg>
