<?xml version="1.0" encoding="utf-8" standalone="no"?>
<!DOCTYPE svg PUBLIC "-//W3C//DTD SVG 1.1//EN"
  "http://www.w3.org/Graphics/SVG/1.1/DTD/svg11.dtd">
<svg xmlns:xlink="http://www.w3.org/1999/xlink" width="720pt" height="576pt" viewBox="0 0 720 576" xmlns="http://www.w3.org/2000/svg" version="1.1">
 <metadata>
  <rdf:RDF xmlns:dc="http://purl.org/dc/elements/1.1/" xmlns:cc="http://creativecommons.org/ns#" xmlns:rdf="http://www.w3.org/1999/02/22-rdf-syntax-ns#">
   <cc:Work>
    <dc:type rdf:resource="http://purl.org/dc/dcmitype/StillImage"/>
    <dc:date>2023-04-13T05:38:50.103796</dc:date>
    <dc:format>image/svg+xml</dc:format>
    <dc:creator>
     <cc:Agent>
      <dc:title>Matplotlib v3.7.1, https://matplotlib.org/</dc:title>
     </cc:Agent>
    </dc:creator>
   </cc:Work>
  </rdf:RDF>
 </metadata>
 <defs>
  <style type="text/css">*{stroke-linejoin: round; stroke-linecap: butt}</style>
 </defs>
 <g id="figure_1">
  <g id="patch_1">
   <path d="M 0 576 
L 720 576 
L 720 0 
L 0 0 
z
" style="fill: #ffffff"/>
  </g>
  <g id="axes_1">
   <g id="patch_2">
    <path d="M 103.912891 509.9875 
L 694.845 509.9875 
L 694.845 26.28 
L 103.912891 26.28 
z
" style="fill: #ffffff"/>
   </g>
   <g id="matplotlib.axis_1">
    <g id="xtick_1">
     <g id="line2d_1">
      <path d="M 103.912891 509.9875 
L 103.912891 26.28 
" clip-path="url(#p85923dfe06)" style="fill: none; stroke: #b0b0b0; stroke-width: 0.8; stroke-linecap: square"/>
     </g>
     <g id="line2d_2">
      <defs>
       <path id="m08417b456e" d="M 0 0 
L 0 3.5 
" style="stroke: #000000; stroke-width: 0.8"/>
      </defs>
      <g>
       <use xlink:href="#m08417b456e" x="103.912891" y="509.9875" style="stroke: #000000; stroke-width: 0.8"/>
      </g>
     </g>
     <g id="text_1">
      <!-- −3 -->
      <g transform="translate(90.644922 530.664688) scale(0.18 -0.18)">
       <defs>
        <path id="DejaVuSans-2212" d="M 678 2272 
L 4684 2272 
L 4684 1741 
L 678 1741 
L 678 2272 
z
" transform="scale(0.015625)"/>
        <path id="DejaVuSans-33" d="M 2597 2516 
Q 3050 2419 3304 2112 
Q 3559 1806 3559 1356 
Q 3559 666 3084 287 
Q 2609 -91 1734 -91 
Q 1441 -91 1130 -33 
Q 819 25 488 141 
L 488 750 
Q 750 597 1062 519 
Q 1375 441 1716 441 
Q 2309 441 2620 675 
Q 2931 909 2931 1356 
Q 2931 1769 2642 2001 
Q 2353 2234 1838 2234 
L 1294 2234 
L 1294 2753 
L 1863 2753 
Q 2328 2753 2575 2939 
Q 2822 3125 2822 3475 
Q 2822 3834 2567 4026 
Q 2313 4219 1838 4219 
Q 1578 4219 1281 4162 
Q 984 4106 628 3988 
L 628 4550 
Q 988 4650 1302 4700 
Q 1616 4750 1894 4750 
Q 2613 4750 3031 4423 
Q 3450 4097 3450 3541 
Q 3450 3153 3228 2886 
Q 3006 2619 2597 2516 
z
" transform="scale(0.015625)"/>
       </defs>
       <use xlink:href="#DejaVuSans-2212"/>
       <use xlink:href="#DejaVuSans-33" x="83.789062"/>
      </g>
     </g>
    </g>
    <g id="xtick_2">
     <g id="line2d_3">
      <path d="M 202.401576 509.9875 
L 202.401576 26.28 
" clip-path="url(#p85923dfe06)" style="fill: none; stroke: #b0b0b0; stroke-width: 0.8; stroke-linecap: square"/>
     </g>
     <g id="line2d_4">
      <g>
       <use xlink:href="#m08417b456e" x="202.401576" y="509.9875" style="stroke: #000000; stroke-width: 0.8"/>
      </g>
     </g>
     <g id="text_2">
      <!-- −2 -->
      <g transform="translate(189.133607 530.664688) scale(0.18 -0.18)">
       <defs>
        <path id="DejaVuSans-32" d="M 1228 531 
L 3431 531 
L 3431 0 
L 469 0 
L 469 531 
Q 828 903 1448 1529 
Q 2069 2156 2228 2338 
Q 2531 2678 2651 2914 
Q 2772 3150 2772 3378 
Q 2772 3750 2511 3984 
Q 2250 4219 1831 4219 
Q 1534 4219 1204 4116 
Q 875 4013 500 3803 
L 500 4441 
Q 881 4594 1212 4672 
Q 1544 4750 1819 4750 
Q 2544 4750 2975 4387 
Q 3406 4025 3406 3419 
Q 3406 3131 3298 2873 
Q 3191 2616 2906 2266 
Q 2828 2175 2409 1742 
Q 1991 1309 1228 531 
z
" transform="scale(0.015625)"/>
       </defs>
       <use xlink:href="#DejaVuSans-2212"/>
       <use xlink:href="#DejaVuSans-32" x="83.789062"/>
      </g>
     </g>
    </g>
    <g id="xtick_3">
     <g id="line2d_5">
      <path d="M 300.89026 509.9875 
L 300.89026 26.28 
" clip-path="url(#p85923dfe06)" style="fill: none; stroke: #b0b0b0; stroke-width: 0.8; stroke-linecap: square"/>
     </g>
     <g id="line2d_6">
      <g>
       <use xlink:href="#m08417b456e" x="300.89026" y="509.9875" style="stroke: #000000; stroke-width: 0.8"/>
      </g>
     </g>
     <g id="text_3">
      <!-- −1 -->
      <g transform="translate(287.622292 530.664688) scale(0.18 -0.18)">
       <defs>
        <path id="DejaVuSans-31" d="M 794 531 
L 1825 531 
L 1825 4091 
L 703 3866 
L 703 4441 
L 1819 4666 
L 2450 4666 
L 2450 531 
L 3481 531 
L 3481 0 
L 794 0 
L 794 531 
z
" transform="scale(0.015625)"/>
       </defs>
       <use xlink:href="#DejaVuSans-2212"/>
       <use xlink:href="#DejaVuSans-31" x="83.789062"/>
      </g>
     </g>
    </g>
    <g id="xtick_4">
     <g id="line2d_7">
      <path d="M 399.378945 509.9875 
L 399.378945 26.28 
" clip-path="url(#p85923dfe06)" style="fill: none; stroke: #b0b0b0; stroke-width: 0.8; stroke-linecap: square"/>
     </g>
     <g id="line2d_8">
      <g>
       <use xlink:href="#m08417b456e" x="399.378945" y="509.9875" style="stroke: #000000; stroke-width: 0.8"/>
      </g>
     </g>
     <g id="text_4">
      <!-- 0 -->
      <g transform="translate(393.652695 530.664688) scale(0.18 -0.18)">
       <defs>
        <path id="DejaVuSans-30" d="M 2034 4250 
Q 1547 4250 1301 3770 
Q 1056 3291 1056 2328 
Q 1056 1369 1301 889 
Q 1547 409 2034 409 
Q 2525 409 2770 889 
Q 3016 1369 3016 2328 
Q 3016 3291 2770 3770 
Q 2525 4250 2034 4250 
z
M 2034 4750 
Q 2819 4750 3233 4129 
Q 3647 3509 3647 2328 
Q 3647 1150 3233 529 
Q 2819 -91 2034 -91 
Q 1250 -91 836 529 
Q 422 1150 422 2328 
Q 422 3509 836 4129 
Q 1250 4750 2034 4750 
z
" transform="scale(0.015625)"/>
       </defs>
       <use xlink:href="#DejaVuSans-30"/>
      </g>
     </g>
    </g>
    <g id="xtick_5">
     <g id="line2d_9">
      <path d="M 497.86763 509.9875 
L 497.86763 26.28 
" clip-path="url(#p85923dfe06)" style="fill: none; stroke: #b0b0b0; stroke-width: 0.8; stroke-linecap: square"/>
     </g>
     <g id="line2d_10">
      <g>
       <use xlink:href="#m08417b456e" x="497.86763" y="509.9875" style="stroke: #000000; stroke-width: 0.8"/>
      </g>
     </g>
     <g id="text_5">
      <!-- 1 -->
      <g transform="translate(492.14138 530.664688) scale(0.18 -0.18)">
       <use xlink:href="#DejaVuSans-31"/>
      </g>
     </g>
    </g>
    <g id="xtick_6">
     <g id="line2d_11">
      <path d="M 596.356315 509.9875 
L 596.356315 26.28 
" clip-path="url(#p85923dfe06)" style="fill: none; stroke: #b0b0b0; stroke-width: 0.8; stroke-linecap: square"/>
     </g>
     <g id="line2d_12">
      <g>
       <use xlink:href="#m08417b456e" x="596.356315" y="509.9875" style="stroke: #000000; stroke-width: 0.8"/>
      </g>
     </g>
     <g id="text_6">
      <!-- 2 -->
      <g transform="translate(590.630065 530.664688) scale(0.18 -0.18)">
       <use xlink:href="#DejaVuSans-32"/>
      </g>
     </g>
    </g>
    <g id="xtick_7">
     <g id="line2d_13">
      <path d="M 694.845 509.9875 
L 694.845 26.28 
" clip-path="url(#p85923dfe06)" style="fill: none; stroke: #b0b0b0; stroke-width: 0.8; stroke-linecap: square"/>
     </g>
     <g id="line2d_14">
      <g>
       <use xlink:href="#m08417b456e" x="694.845" y="509.9875" style="stroke: #000000; stroke-width: 0.8"/>
      </g>
     </g>
     <g id="text_7">
      <!-- 3 -->
      <g transform="translate(689.11875 530.664688) scale(0.18 -0.18)">
       <use xlink:href="#DejaVuSans-33"/>
      </g>
     </g>
    </g>
    <g id="text_8">
     <!-- $\omega$ [-] -->
     <g transform="translate(381.468945 550.650937) scale(0.18 -0.18)">
      <defs>
       <path id="DejaVuSans-Oblique-3c9" d="M 1369 -91 
Q 72 -91 434 1766 
Q 575 2500 1256 3500 
L 1875 3500 
Q 1231 2500 1088 1750 
Q 819 397 1519 397 
Q 2166 397 2478 2078 
L 3009 2078 
Q 2669 388 3316 397 
Q 4013 403 4275 1750 
Q 4419 2500 4169 3500 
L 4788 3500 
Q 5075 2500 4934 1766 
Q 4578 -94 3278 -91 
Q 2428 -88 2503 844 
Q 2194 -91 1369 -91 
z
" transform="scale(0.015625)"/>
       <path id="Calibri-20" transform="scale(0.015625)"/>
       <path id="Calibri-5b" d="M 1684 -813 
Q 1684 -916 1661 -958 
Q 1638 -1000 1594 -1000 
L 794 -1000 
Q 756 -1000 722 -989 
Q 688 -978 659 -953 
Q 631 -928 614 -886 
Q 597 -844 597 -781 
L 597 4153 
Q 597 4213 614 4255 
Q 631 4297 659 4323 
Q 688 4350 722 4361 
Q 756 4372 794 4372 
L 1594 4372 
Q 1613 4372 1630 4362 
Q 1647 4353 1659 4328 
Q 1672 4303 1678 4267 
Q 1684 4231 1684 4178 
Q 1684 4078 1661 4034 
Q 1638 3991 1594 3991 
L 1084 3991 
L 1084 -622 
L 1594 -622 
Q 1613 -622 1630 -631 
Q 1647 -641 1659 -664 
Q 1672 -688 1678 -723 
Q 1684 -759 1684 -813 
z
" transform="scale(0.015625)"/>
       <path id="Calibri-2d" d="M 1744 1578 
Q 1744 1456 1716 1409 
Q 1688 1363 1634 1363 
L 328 1363 
Q 272 1363 244 1411 
Q 216 1459 216 1578 
Q 216 1697 244 1744 
Q 272 1791 328 1791 
L 1634 1791 
Q 1659 1791 1679 1781 
Q 1700 1772 1714 1745 
Q 1728 1719 1736 1678 
Q 1744 1638 1744 1578 
z
" transform="scale(0.015625)"/>
       <path id="Calibri-5d" d="M 1369 -781 
Q 1369 -844 1351 -886 
Q 1334 -928 1306 -953 
Q 1278 -978 1242 -989 
Q 1206 -1000 1169 -1000 
L 372 -1000 
Q 328 -1000 304 -958 
Q 281 -916 281 -813 
Q 281 -759 286 -723 
Q 291 -688 303 -664 
Q 316 -641 333 -631 
Q 350 -622 372 -622 
L 881 -622 
L 881 3991 
L 372 3991 
Q 328 3991 304 4034 
Q 281 4078 281 4178 
Q 281 4231 286 4267 
Q 291 4303 303 4328 
Q 316 4353 333 4362 
Q 350 4372 372 4372 
L 1169 4372 
Q 1206 4372 1242 4361 
Q 1278 4350 1306 4323 
Q 1334 4297 1351 4255 
Q 1369 4213 1369 4153 
L 1369 -781 
z
" transform="scale(0.015625)"/>
      </defs>
      <use xlink:href="#DejaVuSans-Oblique-3c9" transform="translate(0 0.6875)"/>
      <use xlink:href="#Calibri-20" transform="translate(83.740234 0.6875)"/>
      <use xlink:href="#Calibri-5b" transform="translate(106.347656 0.6875)"/>
      <use xlink:href="#Calibri-2d" transform="translate(137.011719 0.6875)"/>
      <use xlink:href="#Calibri-5d" transform="translate(167.626953 0.6875)"/>
     </g>
    </g>
   </g>
   <g id="matplotlib.axis_2">
    <g id="ytick_1">
     <g id="line2d_15">
      <path d="M 103.912891 509.9875 
L 694.845 509.9875 
" clip-path="url(#p85923dfe06)" style="fill: none; stroke: #b0b0b0; stroke-width: 0.8; stroke-linecap: square"/>
     </g>
     <g id="line2d_16">
      <defs>
       <path id="mb7224c839a" d="M 0 0 
L -3.5 0 
" style="stroke: #000000; stroke-width: 0.8"/>
      </defs>
      <g>
       <use xlink:href="#mb7224c839a" x="103.912891" y="509.9875" style="stroke: #000000; stroke-width: 0.8"/>
      </g>
     </g>
     <g id="text_9">
      <!-- 0.0 -->
      <g transform="translate(68.287266 516.826094) scale(0.18 -0.18)">
       <defs>
        <path id="DejaVuSans-2e" d="M 684 794 
L 1344 794 
L 1344 0 
L 684 0 
L 684 794 
z
" transform="scale(0.015625)"/>
       </defs>
       <use xlink:href="#DejaVuSans-30"/>
       <use xlink:href="#DejaVuSans-2e" x="63.623047"/>
       <use xlink:href="#DejaVuSans-30" x="95.410156"/>
      </g>
     </g>
    </g>
    <g id="ytick_2">
     <g id="line2d_17">
      <path d="M 103.912891 429.369583 
L 694.845 429.369583 
" clip-path="url(#p85923dfe06)" style="fill: none; stroke: #b0b0b0; stroke-width: 0.8; stroke-linecap: square"/>
     </g>
     <g id="line2d_18">
      <g>
       <use xlink:href="#mb7224c839a" x="103.912891" y="429.369583" style="stroke: #000000; stroke-width: 0.8"/>
      </g>
     </g>
     <g id="text_10">
      <!-- 0.2 -->
      <g transform="translate(68.287266 436.208177) scale(0.18 -0.18)">
       <use xlink:href="#DejaVuSans-30"/>
       <use xlink:href="#DejaVuSans-2e" x="63.623047"/>
       <use xlink:href="#DejaVuSans-32" x="95.410156"/>
      </g>
     </g>
    </g>
    <g id="ytick_3">
     <g id="line2d_19">
      <path d="M 103.912891 348.751667 
L 694.845 348.751667 
" clip-path="url(#p85923dfe06)" style="fill: none; stroke: #b0b0b0; stroke-width: 0.8; stroke-linecap: square"/>
     </g>
     <g id="line2d_20">
      <g>
       <use xlink:href="#mb7224c839a" x="103.912891" y="348.751667" style="stroke: #000000; stroke-width: 0.8"/>
      </g>
     </g>
     <g id="text_11">
      <!-- 0.4 -->
      <g transform="translate(68.287266 355.59026) scale(0.18 -0.18)">
       <defs>
        <path id="DejaVuSans-34" d="M 2419 4116 
L 825 1625 
L 2419 1625 
L 2419 4116 
z
M 2253 4666 
L 3047 4666 
L 3047 1625 
L 3713 1625 
L 3713 1100 
L 3047 1100 
L 3047 0 
L 2419 0 
L 2419 1100 
L 313 1100 
L 313 1709 
L 2253 4666 
z
" transform="scale(0.015625)"/>
       </defs>
       <use xlink:href="#DejaVuSans-30"/>
       <use xlink:href="#DejaVuSans-2e" x="63.623047"/>
       <use xlink:href="#DejaVuSans-34" x="95.410156"/>
      </g>
     </g>
    </g>
    <g id="ytick_4">
     <g id="line2d_21">
      <path d="M 103.912891 268.13375 
L 694.845 268.13375 
" clip-path="url(#p85923dfe06)" style="fill: none; stroke: #b0b0b0; stroke-width: 0.8; stroke-linecap: square"/>
     </g>
     <g id="line2d_22">
      <g>
       <use xlink:href="#mb7224c839a" x="103.912891" y="268.13375" style="stroke: #000000; stroke-width: 0.8"/>
      </g>
     </g>
     <g id="text_12">
      <!-- 0.6 -->
      <g transform="translate(68.287266 274.972344) scale(0.18 -0.18)">
       <defs>
        <path id="DejaVuSans-36" d="M 2113 2584 
Q 1688 2584 1439 2293 
Q 1191 2003 1191 1497 
Q 1191 994 1439 701 
Q 1688 409 2113 409 
Q 2538 409 2786 701 
Q 3034 994 3034 1497 
Q 3034 2003 2786 2293 
Q 2538 2584 2113 2584 
z
M 3366 4563 
L 3366 3988 
Q 3128 4100 2886 4159 
Q 2644 4219 2406 4219 
Q 1781 4219 1451 3797 
Q 1122 3375 1075 2522 
Q 1259 2794 1537 2939 
Q 1816 3084 2150 3084 
Q 2853 3084 3261 2657 
Q 3669 2231 3669 1497 
Q 3669 778 3244 343 
Q 2819 -91 2113 -91 
Q 1303 -91 875 529 
Q 447 1150 447 2328 
Q 447 3434 972 4092 
Q 1497 4750 2381 4750 
Q 2619 4750 2861 4703 
Q 3103 4656 3366 4563 
z
" transform="scale(0.015625)"/>
       </defs>
       <use xlink:href="#DejaVuSans-30"/>
       <use xlink:href="#DejaVuSans-2e" x="63.623047"/>
       <use xlink:href="#DejaVuSans-36" x="95.410156"/>
      </g>
     </g>
    </g>
    <g id="ytick_5">
     <g id="line2d_23">
      <path d="M 103.912891 187.515833 
L 694.845 187.515833 
" clip-path="url(#p85923dfe06)" style="fill: none; stroke: #b0b0b0; stroke-width: 0.8; stroke-linecap: square"/>
     </g>
     <g id="line2d_24">
      <g>
       <use xlink:href="#mb7224c839a" x="103.912891" y="187.515833" style="stroke: #000000; stroke-width: 0.8"/>
      </g>
     </g>
     <g id="text_13">
      <!-- 0.8 -->
      <g transform="translate(68.287266 194.354427) scale(0.18 -0.18)">
       <defs>
        <path id="DejaVuSans-38" d="M 2034 2216 
Q 1584 2216 1326 1975 
Q 1069 1734 1069 1313 
Q 1069 891 1326 650 
Q 1584 409 2034 409 
Q 2484 409 2743 651 
Q 3003 894 3003 1313 
Q 3003 1734 2745 1975 
Q 2488 2216 2034 2216 
z
M 1403 2484 
Q 997 2584 770 2862 
Q 544 3141 544 3541 
Q 544 4100 942 4425 
Q 1341 4750 2034 4750 
Q 2731 4750 3128 4425 
Q 3525 4100 3525 3541 
Q 3525 3141 3298 2862 
Q 3072 2584 2669 2484 
Q 3125 2378 3379 2068 
Q 3634 1759 3634 1313 
Q 3634 634 3220 271 
Q 2806 -91 2034 -91 
Q 1263 -91 848 271 
Q 434 634 434 1313 
Q 434 1759 690 2068 
Q 947 2378 1403 2484 
z
M 1172 3481 
Q 1172 3119 1398 2916 
Q 1625 2713 2034 2713 
Q 2441 2713 2670 2916 
Q 2900 3119 2900 3481 
Q 2900 3844 2670 4047 
Q 2441 4250 2034 4250 
Q 1625 4250 1398 4047 
Q 1172 3844 1172 3481 
z
" transform="scale(0.015625)"/>
       </defs>
       <use xlink:href="#DejaVuSans-30"/>
       <use xlink:href="#DejaVuSans-2e" x="63.623047"/>
       <use xlink:href="#DejaVuSans-38" x="95.410156"/>
      </g>
     </g>
    </g>
    <g id="ytick_6">
     <g id="line2d_25">
      <path d="M 103.912891 106.897917 
L 694.845 106.897917 
" clip-path="url(#p85923dfe06)" style="fill: none; stroke: #b0b0b0; stroke-width: 0.8; stroke-linecap: square"/>
     </g>
     <g id="line2d_26">
      <g>
       <use xlink:href="#mb7224c839a" x="103.912891" y="106.897917" style="stroke: #000000; stroke-width: 0.8"/>
      </g>
     </g>
     <g id="text_14">
      <!-- 1.0 -->
      <g transform="translate(68.287266 113.73651) scale(0.18 -0.18)">
       <use xlink:href="#DejaVuSans-31"/>
       <use xlink:href="#DejaVuSans-2e" x="63.623047"/>
       <use xlink:href="#DejaVuSans-30" x="95.410156"/>
      </g>
     </g>
    </g>
    <g id="ytick_7">
     <g id="line2d_27">
      <path d="M 103.912891 26.28 
L 694.845 26.28 
" clip-path="url(#p85923dfe06)" style="fill: none; stroke: #b0b0b0; stroke-width: 0.8; stroke-linecap: square"/>
     </g>
     <g id="line2d_28">
      <g>
       <use xlink:href="#mb7224c839a" x="103.912891" y="26.28" style="stroke: #000000; stroke-width: 0.8"/>
      </g>
     </g>
     <g id="text_15">
      <!-- 1.2 -->
      <g transform="translate(68.287266 33.118594) scale(0.18 -0.18)">
       <use xlink:href="#DejaVuSans-31"/>
       <use xlink:href="#DejaVuSans-2e" x="63.623047"/>
       <use xlink:href="#DejaVuSans-32" x="95.410156"/>
      </g>
     </g>
    </g>
    <g id="text_16">
     <!-- $\rho$($\omega$) -->
     <g transform="translate(19.567266 264.35375) scale(0.18 -0.18)">
      <defs>
       <path id="DejaVuSans-Oblique-3c1" d="M 1203 2875 
Q 1453 3194 1981 3475 
Q 2188 3584 2756 3584 
Q 3394 3584 3694 3078 
Q 3994 2572 3834 1747 
Q 3672 922 3175 415 
Q 2678 -91 2041 -91 
Q 1656 -91 1409 63 
Q 1163 213 1044 525 
L 681 -1331 
L 103 -1331 
L 697 1716 
Q 838 2438 1203 2875 
z
M 3238 1747 
Q 3359 2381 3169 2744 
Q 2978 3103 2522 3103 
Q 2066 3103 1734 2744 
Q 1403 2381 1281 1747 
Q 1156 1113 1347 750 
Q 1538 391 1994 391 
Q 2450 391 2781 750 
Q 3113 1113 3238 1747 
z
" transform="scale(0.015625)"/>
       <path id="Calibri-28" d="M 1547 4306 
Q 1250 3678 1104 3017 
Q 959 2356 959 1688 
Q 959 1016 1107 356 
Q 1256 -303 1541 -938 
Q 1556 -975 1557 -1001 
Q 1559 -1028 1537 -1045 
Q 1516 -1063 1470 -1070 
Q 1425 -1078 1347 -1078 
Q 1291 -1078 1250 -1075 
Q 1209 -1072 1179 -1062 
Q 1150 -1053 1131 -1040 
Q 1113 -1028 1103 -1013 
Q 934 -694 806 -367 
Q 678 -41 590 296 
Q 503 634 459 979 
Q 416 1325 416 1678 
Q 416 2031 464 2375 
Q 513 2719 602 3058 
Q 691 3397 819 3725 
Q 947 4053 1106 4375 
Q 1109 4388 1123 4397 
Q 1138 4406 1163 4415 
Q 1188 4425 1231 4429 
Q 1275 4434 1344 4434 
Q 1416 4434 1459 4425 
Q 1503 4416 1528 4400 
Q 1553 4384 1556 4359 
Q 1559 4334 1547 4306 
z
" transform="scale(0.015625)"/>
       <path id="Calibri-29" d="M 1522 1678 
Q 1522 1325 1478 979 
Q 1434 634 1346 296 
Q 1259 -41 1132 -367 
Q 1006 -694 838 -1013 
Q 828 -1028 809 -1040 
Q 791 -1053 761 -1062 
Q 731 -1072 690 -1075 
Q 650 -1078 594 -1078 
Q 513 -1078 467 -1070 
Q 422 -1063 401 -1045 
Q 381 -1028 382 -1001 
Q 384 -975 400 -938 
Q 688 -306 834 355 
Q 981 1016 981 1688 
Q 981 2356 834 3017 
Q 688 3678 394 4306 
Q 381 4334 384 4359 
Q 388 4384 413 4400 
Q 438 4416 481 4425 
Q 525 4434 597 4434 
Q 663 4434 706 4429 
Q 750 4425 776 4415 
Q 803 4406 815 4397 
Q 828 4388 834 4375 
Q 1156 3734 1339 3057 
Q 1522 2381 1522 1678 
z
" transform="scale(0.015625)"/>
      </defs>
      <use xlink:href="#DejaVuSans-Oblique-3c1" transform="translate(0 0.71875)"/>
      <use xlink:href="#Calibri-28" transform="translate(63.476562 0.71875)"/>
      <use xlink:href="#DejaVuSans-Oblique-3c9" transform="translate(93.798828 0.71875)"/>
      <use xlink:href="#Calibri-29" transform="translate(177.539062 0.71875)"/>
     </g>
    </g>
   </g>
   <g id="line2d_29">
    <path d="M 103.912891 505.752932 
L 129.913903 504.906486 
L 151.778391 503.982657 
L 170.688219 502.96553 
L 186.643386 501.893417 
L 200.825757 500.721769 
L 213.235331 499.476531 
L 224.463041 498.122478 
L 234.508887 496.678874 
L 243.372868 495.177423 
L 251.054986 493.663653 
L 258.146171 492.053746 
L 264.646424 490.36287 
L 270.555745 488.613193 
L 276.465067 486.623539 
L 281.783456 484.590756 
L 286.510912 482.558026 
L 291.238369 480.277635 
L 295.374894 478.047354 
L 299.511419 475.564 
L 303.647944 472.789186 
L 307.193536 470.144441 
L 310.739129 467.218367 
L 314.284722 463.971476 
L 317.239382 460.987531 
L 320.194043 457.717832 
L 323.148703 454.12687 
L 326.103364 450.173877 
L 329.058024 445.811981 
L 332.012685 440.987221 
L 334.967345 435.637432 
L 337.331074 430.931801 
L 339.694802 425.802922 
L 342.058531 420.204283 
L 344.422259 414.083981 
L 346.785988 407.384263 
L 349.149716 400.041142 
L 351.513444 391.984153 
L 353.877173 383.136352 
L 356.240901 373.414716 
L 358.60463 362.731154 
L 360.968358 350.99444 
L 363.332087 338.113472 
L 365.695815 324.002402 
L 368.059544 308.588305 
L 370.423272 291.822161 
L 372.787 273.693947 
L 375.741661 249.200103 
L 379.287254 217.528986 
L 388.151235 136.262114 
L 389.924032 122.023665 
L 391.696828 109.377411 
L 392.878692 102.040789 
L 394.060556 95.718485 
L 395.242421 90.517775 
L 396.424285 86.530736 
L 397.015217 85.015986 
L 397.606149 83.830334 
L 398.197081 82.979382 
L 398.788013 82.467177 
L 399.378945 82.296169 
L 399.969877 82.467177 
L 400.56081 82.979382 
L 401.151742 83.830334 
L 401.742674 85.015986 
L 402.333606 86.530736 
L 403.51547 90.517775 
L 404.697334 95.718485 
L 405.879199 102.040789 
L 407.061063 109.377411 
L 408.833859 122.023665 
L 410.606655 136.262114 
L 412.970384 156.990363 
L 417.697841 201.05126 
L 421.834365 238.884983 
L 424.789026 264.131366 
L 427.743687 287.417074 
L 430.107415 304.524716 
L 432.471143 320.27346 
L 434.834872 334.704167 
L 437.1986 347.884964 
L 439.562329 359.899301 
L 441.926057 370.837535 
L 444.289786 380.79123 
L 446.653514 389.849486 
L 449.017242 398.096716 
L 451.380971 405.611443 
L 453.744699 412.465763 
L 456.108428 418.725266 
L 458.472156 424.449234 
L 460.835885 429.69099 
L 463.790545 435.637432 
L 466.745206 440.987221 
L 469.699866 445.811981 
L 472.654527 450.173877 
L 475.609187 454.12687 
L 478.563848 457.717832 
L 481.518509 460.987531 
L 484.473169 463.971476 
L 488.018762 467.218367 
L 491.564354 470.144441 
L 495.109947 472.789186 
L 498.65554 475.186422 
L 502.792064 477.708909 
L 506.928589 479.973231 
L 511.656046 482.287284 
L 516.383503 484.348992 
L 521.701892 486.409729 
L 527.020281 488.235764 
L 532.929602 490.030274 
L 539.429855 491.762742 
L 546.521041 493.410574 
L 554.203158 494.958428 
L 562.476207 496.397227 
L 571.931121 497.804506 
L 581.976967 499.074891 
L 593.204677 500.27466 
L 606.205184 501.433673 
L 620.978486 502.516909 
L 637.524585 503.503752 
L 657.025345 504.435836 
L 679.480765 505.280892 
L 694.845 505.752932 
L 694.845 505.752932 
" clip-path="url(#p85923dfe06)" style="fill: none; stroke-dasharray: 14.8,6.4; stroke-dashoffset: 0; stroke: #000000; stroke-width: 4"/>
   </g>
   <g id="line2d_30">
    <path d="M 103.912891 497.165381 
L 110.413144 496.184 
L 116.322465 495.082077 
L 119.868058 494.808713 
L 128.732039 494.229335 
L 131.095768 493.637657 
L 138.777885 491.129292 
L 142.91441 489.664057 
L 145.86907 488.238934 
L 148.232799 487.155219 
L 150.596527 486.320405 
L 153.551188 485.332865 
L 157.09678 483.877016 
L 158.869577 483.536553 
L 161.233305 483.126604 
L 164.187966 482.242435 
L 165.960762 481.785389 
L 168.915423 481.183936 
L 170.097287 480.622558 
L 171.279151 479.781738 
L 173.64288 477.644158 
L 176.006608 475.603628 
L 178.370336 473.732056 
L 182.506861 470.055929 
L 187.234318 467.494807 
L 188.416182 467.064415 
L 189.598046 466.881362 
L 190.779911 466.931261 
L 193.734571 467.39472 
L 194.325503 467.317697 
L 194.916435 467.126755 
L 195.507368 466.811588 
L 196.689232 465.780227 
L 197.871096 464.209586 
L 200.825757 459.667866 
L 202.007621 458.485615 
L 203.189485 457.698183 
L 204.962281 456.708964 
L 206.735078 455.337711 
L 209.098806 453.184436 
L 210.28067 451.800541 
L 212.053467 449.23401 
L 213.235331 447.493675 
L 214.417195 446.141451 
L 215.599059 445.255518 
L 216.780924 444.814342 
L 217.962788 444.814926 
L 221.50838 445.224615 
L 223.872109 445.275215 
L 225.053973 445.192474 
L 226.235837 444.800653 
L 230.372362 442.492243 
L 231.554226 441.568914 
L 232.73609 440.503835 
L 233.327023 440.138371 
L 233.917955 439.994277 
L 234.508887 440.065986 
L 235.690751 440.40457 
L 236.281683 440.361801 
L 236.872615 440.037114 
L 237.463547 439.436065 
L 239.236344 437.214115 
L 241.600072 435.215991 
L 243.963801 432.191607 
L 244.554733 431.853165 
L 245.145665 431.817566 
L 245.736597 432.082925 
L 246.327529 432.608223 
L 248.100325 434.722942 
L 248.691257 435.159137 
L 249.28219 435.330414 
L 250.464054 435.198888 
L 251.645918 435.10607 
L 253.418714 435.242042 
L 254.009646 435.134344 
L 255.191511 434.500429 
L 256.373375 433.747434 
L 256.964307 433.524187 
L 257.555239 433.463889 
L 258.146171 433.591544 
L 259.918968 434.339697 
L 260.5099 434.13311 
L 261.100832 433.532174 
L 262.873628 431.100558 
L 264.646424 429.43455 
L 265.828289 427.776729 
L 266.419221 426.818471 
L 267.010153 425.500442 
L 268.192017 421.425642 
L 269.373881 417.634621 
L 269.964813 416.386717 
L 270.555745 415.586952 
L 271.146678 415.332638 
L 271.73761 415.773831 
L 272.328542 416.927027 
L 274.101338 421.616276 
L 274.69227 422.684246 
L 275.874134 424.189563 
L 277.055999 425.702491 
L 278.237863 427.864728 
L 281.192523 433.958381 
L 281.783456 434.725054 
L 282.374388 435.210951 
L 282.96532 435.476226 
L 283.556252 435.448914 
L 284.147184 434.991125 
L 285.329048 433.132088 
L 286.510912 431.195505 
L 287.101845 430.568469 
L 287.692777 430.341895 
L 288.874641 430.261314 
L 290.647437 429.771813 
L 291.238369 429.449755 
L 291.829301 429.31839 
L 292.420234 429.721972 
L 293.011166 430.855336 
L 294.783962 435.716836 
L 297.14769 439.536914 
L 297.738622 440.195781 
L 298.329555 440.549628 
L 298.920487 440.677263 
L 300.693283 440.584135 
L 301.284215 440.362746 
L 301.875147 439.541304 
L 302.466079 438.281437 
L 303.057011 437.474956 
L 303.647944 437.969937 
L 304.829808 441.546477 
L 305.42074 442.683904 
L 306.011672 442.709287 
L 306.602604 441.770907 
L 307.193536 440.596985 
L 307.784468 440.026887 
L 308.3754 440.150616 
L 308.966333 440.514657 
L 309.557265 441.045059 
L 310.148197 441.951623 
L 310.739129 443.159919 
L 311.330061 444.040477 
L 311.920993 444.201297 
L 312.511925 444.07708 
L 313.102857 444.308889 
L 315.466586 446.53235 
L 316.64845 446.406466 
L 317.239382 446.890597 
L 317.830314 447.99974 
L 319.012178 450.709393 
L 319.603111 451.653133 
L 320.194043 451.443478 
L 320.784975 449.61436 
L 321.966839 443.577088 
L 322.557771 443.0843 
L 324.330567 449.041177 
L 325.512432 451.580144 
L 326.103364 451.869638 
L 327.285228 450.548211 
L 327.87616 450.064271 
L 328.467092 449.261136 
L 330.239889 445.879392 
L 330.830821 446.434882 
L 332.603617 451.341615 
L 333.194549 451.809351 
L 333.785481 451.508311 
L 335.558277 451.776139 
L 336.14921 452.168617 
L 336.740142 452.837186 
L 337.331074 453.270959 
L 339.10387 456.351921 
L 339.694802 456.884345 
L 340.285734 457.016344 
L 340.876666 456.13044 
L 342.058531 451.497494 
L 342.649463 450.199265 
L 343.240395 449.98436 
L 343.831327 450.749006 
L 344.422259 450.796973 
L 345.013191 450.210208 
L 346.195055 448.046328 
L 346.785988 448.231645 
L 347.37692 446.886478 
L 347.967852 444.253923 
L 348.558784 443.089164 
L 349.149716 444.959994 
L 349.740648 447.457032 
L 350.33158 448.96806 
L 350.922512 447.175209 
L 352.104377 437.859705 
L 352.695309 438.163271 
L 353.286241 439.898489 
L 353.877173 439.479709 
L 355.649969 445.623471 
L 358.013698 456.154846 
L 358.60463 454.251511 
L 359.195562 449.206466 
L 359.786494 450.245244 
L 360.377426 451.010666 
L 360.968358 450.881312 
L 362.150222 455.887469 
L 362.741155 456.284857 
L 363.332087 457.539775 
L 363.923019 461.08688 
L 364.513951 460.215281 
L 365.104883 453.82247 
L 365.695815 449.828515 
L 366.877679 457.548304 
L 367.468611 456.863948 
L 368.059544 457.898506 
L 368.650476 455.784736 
L 369.241408 448.894155 
L 369.83234 449.211876 
L 370.423272 449.865278 
L 371.014204 452.129977 
L 371.605136 450.130545 
L 372.196068 457.207097 
L 372.787 454.373471 
L 373.377932 452.276496 
L 373.968865 449.128379 
L 374.559797 445.170336 
L 375.150729 445.404149 
L 375.741661 447.121243 
L 376.332593 449.563402 
L 376.923525 450.946808 
L 377.514457 440.844005 
L 378.105389 422.730776 
L 378.696321 434.357255 
L 379.287254 428.209861 
L 379.878186 424.492848 
L 380.469118 435.362609 
L 381.650982 452.88479 
L 382.241914 437.40602 
L 382.832846 439.451037 
L 383.423778 440.591209 
L 384.605643 410.807457 
L 385.196575 414.978066 
L 385.787507 426.861145 
L 386.378439 424.282886 
L 386.969371 414.464214 
L 387.560303 414.912209 
L 388.151235 416.300807 
L 388.742167 406.745744 
L 389.333099 384.732082 
L 389.924032 376.311466 
L 390.514964 344.305315 
L 391.105896 407.872813 
L 391.696828 362.810616 
L 392.28776 335.79152 
L 392.878692 377.17473 
L 393.469624 330.270732 
L 394.060556 353.81448 
L 394.651488 298.077327 
L 395.242421 285.150777 
L 395.833353 268.791974 
L 396.424285 198.371849 
L 397.015217 210.331925 
L 397.606149 140.68428 
L 398.197081 107.625121 
L 398.788013 88.049301 
L 399.378945 90.497324 
L 399.969877 94.152611 
L 400.56081 122.161916 
L 401.151742 203.218221 
L 401.742674 225.426334 
L 402.333606 192.445356 
L 402.924538 247.949689 
L 403.51547 320.7654 
L 404.106402 284.713099 
L 405.288266 360.447 
L 405.879199 301.159147 
L 406.470131 369.324496 
L 407.061063 390.258524 
L 407.651995 369.730039 
L 408.242927 371.780891 
L 408.833859 395.717012 
L 409.424791 378.999719 
L 410.015723 409.036153 
L 410.606655 410.453098 
L 411.197587 410.313453 
L 412.379452 420.553433 
L 412.970384 432.068281 
L 413.561316 435.671518 
L 414.152248 440.008313 
L 414.74318 443.303603 
L 415.334112 435.857884 
L 415.925044 441.486244 
L 416.515976 444.310199 
L 417.106909 439.469231 
L 417.697841 445.841782 
L 418.288773 448.55256 
L 418.879705 452.304878 
L 419.470637 444.952342 
L 420.061569 447.467023 
L 420.652501 448.064495 
L 421.243433 434.796689 
L 421.834365 442.452134 
L 422.425298 454.371372 
L 423.01623 452.433657 
L 424.198094 437.008849 
L 424.789026 445.213926 
L 425.379958 441.641061 
L 425.97089 435.21657 
L 426.561822 435.478108 
L 427.152754 444.130654 
L 427.743687 442.245423 
L 428.334619 439.390925 
L 428.925551 447.659068 
L 429.516483 448.922956 
L 430.107415 449.172755 
L 430.698347 450.689685 
L 431.289279 451.567773 
L 431.880211 449.936534 
L 432.471143 449.170907 
L 433.062076 443.24115 
L 433.653008 447.841493 
L 434.24394 454.517874 
L 434.834872 455.909278 
L 435.425804 453.917278 
L 436.016736 449.111852 
L 436.607668 449.78063 
L 437.1986 451.179627 
L 437.789532 451.117074 
L 438.380465 450.914309 
L 438.971397 453.37791 
L 439.562329 456.457916 
L 440.153261 456.108195 
L 440.744193 454.010897 
L 441.335125 452.769041 
L 442.516989 457.626063 
L 443.107921 457.434389 
L 443.698854 455.485918 
L 444.289786 454.021859 
L 444.880718 455.092136 
L 445.47165 458.270287 
L 446.062582 460.556758 
L 446.653514 459.391849 
L 447.244446 456.172337 
L 448.42631 442.46469 
L 449.017242 441.220789 
L 450.790039 447.230759 
L 451.380971 448.372529 
L 451.971903 449.1762 
L 452.562835 450.336515 
L 453.153767 450.680751 
L 454.335631 453.457388 
L 454.926564 453.78467 
L 455.517496 453.488857 
L 456.108428 453.049175 
L 457.290292 457.018321 
L 457.881224 457.192492 
L 458.472156 457.217774 
L 459.063088 456.067449 
L 460.835885 448.300153 
L 461.426817 448.220322 
L 462.017749 449.668114 
L 462.608681 451.449689 
L 463.199613 452.230231 
L 463.790545 451.279347 
L 464.972409 446.978467 
L 465.563342 447.349744 
L 466.154274 449.899519 
L 467.336138 456.643421 
L 467.92707 458.992242 
L 468.518002 460.123552 
L 469.108934 459.524745 
L 470.881731 453.935872 
L 471.472663 453.262873 
L 472.063595 453.082028 
L 472.654527 453.047735 
L 473.245459 452.803963 
L 474.427323 451.499323 
L 475.609187 451.035329 
L 476.20012 450.936776 
L 476.791052 450.624811 
L 477.381984 449.751906 
L 477.972916 448.611129 
L 478.563848 447.770062 
L 479.15478 447.160984 
L 479.745712 446.242971 
L 482.109441 440.911397 
L 482.700373 440.676407 
L 484.473169 441.278115 
L 485.064101 440.88463 
L 486.245965 439.424014 
L 488.018762 436.489795 
L 489.200626 435.358606 
L 489.791558 435.187562 
L 490.38249 435.4316 
L 490.973422 436.007858 
L 491.564354 436.787872 
L 492.155286 437.894901 
L 493.337151 440.686026 
L 493.928083 441.700667 
L 495.700879 443.711585 
L 496.291811 443.996045 
L 496.882743 443.494568 
L 497.473675 442.125867 
L 499.246472 436.503354 
L 499.837404 435.738483 
L 500.428336 435.71114 
L 501.019268 436.108416 
L 501.6102 436.76488 
L 502.792064 438.502572 
L 503.382997 439.043002 
L 503.973929 439.025476 
L 504.564861 438.457829 
L 506.337657 435.68079 
L 507.519521 434.849669 
L 509.292318 433.935783 
L 511.065114 433.840056 
L 512.246978 433.566633 
L 513.428842 433.622434 
L 514.610707 433.698403 
L 515.792571 433.350693 
L 516.383503 433.038812 
L 516.974435 432.499747 
L 518.156299 431.206105 
L 518.747231 431.116025 
L 519.338164 431.530606 
L 521.11096 433.536735 
L 521.701892 433.855817 
L 522.292824 433.712637 
L 522.883756 433.172926 
L 523.474688 432.437137 
L 524.06562 431.519165 
L 524.656552 430.260476 
L 525.838417 427.121602 
L 526.429349 426.003849 
L 527.020281 425.619238 
L 527.611213 425.995456 
L 528.793077 427.52657 
L 529.384009 427.717826 
L 529.974941 427.251261 
L 530.565874 426.244921 
L 532.33867 422.30999 
L 532.929602 421.37408 
L 533.520534 420.765588 
L 534.111466 420.593627 
L 534.702398 421.156836 
L 535.29333 422.73199 
L 536.475195 428.05258 
L 537.657059 433.215831 
L 538.247991 435.187283 
L 538.838923 436.666412 
L 539.429855 437.540045 
L 540.020787 437.72493 
L 540.611719 437.299867 
L 541.793584 435.762121 
L 542.384516 435.226313 
L 542.975448 434.963934 
L 544.157312 434.774972 
L 544.748244 434.550876 
L 545.930108 433.829726 
L 547.111973 433.49154 
L 547.702905 433.347523 
L 548.293837 433.032293 
L 549.475701 431.911232 
L 550.657565 430.77763 
L 551.83943 430.073205 
L 552.430362 429.908881 
L 553.612226 429.973564 
L 554.79409 429.975602 
L 555.975954 429.832635 
L 556.566886 430.102643 
L 557.157819 430.750537 
L 558.930615 433.612261 
L 559.521547 434.221733 
L 560.112479 434.507778 
L 560.703411 434.521671 
L 561.885275 434.243742 
L 562.476207 434.23683 
L 563.06714 434.462794 
L 563.658072 434.994816 
L 564.249004 435.883405 
L 565.430868 438.593065 
L 566.612732 441.472157 
L 567.203664 442.525937 
L 567.794596 443.213848 
L 568.385529 443.569367 
L 568.976461 443.68091 
L 569.567393 443.632731 
L 570.749257 443.227958 
L 571.931121 442.669322 
L 572.522053 442.498275 
L 573.112985 442.476522 
L 574.29485 442.799917 
L 575.476714 443.049044 
L 576.658578 443.009092 
L 577.24951 443.165366 
L 577.840442 443.627797 
L 578.431374 444.428435 
L 579.613239 446.697239 
L 580.795103 449.037915 
L 581.976967 450.807433 
L 582.567899 451.392216 
L 583.158831 451.773615 
L 584.340696 452.108006 
L 585.52256 452.354795 
L 586.704424 452.882443 
L 589.659085 454.776398 
L 591.431881 456.113679 
L 593.795609 458.188504 
L 594.977474 458.839373 
L 597.341202 459.722941 
L 598.523066 460.582161 
L 601.477727 463.125343 
L 603.250523 464.650319 
L 606.205184 467.48867 
L 608.568912 469.500561 
L 610.341708 471.396116 
L 612.705437 473.9064 
L 614.478233 475.39681 
L 615.660097 476.152319 
L 616.841962 476.722441 
L 618.023826 477.105021 
L 619.20569 477.299305 
L 623.342215 477.50752 
L 625.705943 477.584619 
L 627.47874 477.896987 
L 629.842468 478.549031 
L 631.024332 479.038009 
L 632.797129 480.095598 
L 639.888314 484.867142 
L 641.66111 485.702883 
L 643.433906 486.19595 
L 647.570431 487.064689 
L 649.93416 487.924141 
L 652.88882 489.060852 
L 654.661617 489.541907 
L 657.616277 490.038787 
L 661.16187 490.680815 
L 664.11653 491.428447 
L 669.434919 492.889954 
L 672.980512 493.568446 
L 678.298901 494.433678 
L 685.390086 495.909809 
L 687.753815 496.081033 
L 690.708475 496.222085 
L 693.072204 496.591428 
L 694.845 496.949725 
L 694.845 496.949725 
" clip-path="url(#p85923dfe06)" style="fill: none; stroke: #dc143c; stroke-width: 2; stroke-linecap: square"/>
   </g>
   <g id="line2d_31">
    <path d="M 103.912891 497.162575 
L 110.413144 496.17504 
L 116.322465 495.082683 
L 119.868058 494.812986 
L 128.141107 494.338226 
L 129.913903 493.978012 
L 132.277632 493.269222 
L 143.505342 489.409282 
L 149.414663 486.73015 
L 154.733052 484.853783 
L 156.505848 484.104084 
L 157.687713 483.769396 
L 162.415169 482.823774 
L 165.960762 481.80403 
L 168.915423 481.222704 
L 170.097287 480.67479 
L 171.279151 479.844835 
L 173.051947 478.241175 
L 175.415676 476.013364 
L 182.506861 470.221178 
L 187.234318 467.48582 
L 188.416182 467.038337 
L 189.598046 466.823112 
L 190.779911 466.845721 
L 193.734571 467.351077 
L 194.325503 467.293433 
L 194.916435 467.121678 
L 195.507368 466.824535 
L 196.0983 466.393934 
L 197.280164 465.113456 
L 198.462028 463.345022 
L 200.234824 460.543691 
L 201.416689 459.135904 
L 202.598553 458.183113 
L 206.144146 455.978406 
L 207.916942 454.396804 
L 209.098806 453.175268 
L 210.871602 450.909504 
L 213.235331 447.561572 
L 214.417195 446.303709 
L 215.599059 445.461918 
L 216.780924 445.020129 
L 217.962788 445.005129 
L 220.326516 445.230689 
L 222.690245 445.199019 
L 225.053973 445.051787 
L 226.235837 444.638291 
L 229.78143 442.881013 
L 230.963294 442.170818 
L 233.327023 440.2215 
L 233.917955 440.038178 
L 236.281683 439.957075 
L 236.872615 439.454561 
L 239.236344 436.461558 
L 241.600072 435.209658 
L 243.963801 432.537028 
L 244.554733 432.211815 
L 245.145665 432.153413 
L 245.736597 432.363327 
L 246.327529 432.810395 
L 248.691257 435.167498 
L 249.28219 435.394398 
L 250.464054 435.394505 
L 251.645918 435.347747 
L 253.418714 435.436081 
L 254.009646 435.286796 
L 254.600579 434.962874 
L 256.964307 433.014672 
L 257.555239 432.864522 
L 258.146171 433.023801 
L 259.918968 434.271071 
L 260.5099 434.176475 
L 261.100832 433.631038 
L 262.282696 432.027263 
L 262.873628 431.438363 
L 264.646424 430.10945 
L 265.828289 428.60114 
L 266.419221 427.721961 
L 267.010153 426.47329 
L 267.601085 424.637219 
L 269.373881 418.217324 
L 269.964813 416.720131 
L 270.555745 415.723533 
L 271.146678 415.357611 
L 271.73761 415.753123 
L 272.328542 416.89087 
L 274.101338 421.615656 
L 274.69227 422.74214 
L 275.874134 424.335502 
L 277.055999 425.792525 
L 278.237863 427.779578 
L 281.783456 434.080253 
L 282.96532 435.447217 
L 283.556252 435.804262 
L 284.147184 435.666819 
L 284.738116 434.983745 
L 285.91998 432.674577 
L 287.101845 430.420499 
L 287.692777 429.959839 
L 288.283709 429.961806 
L 290.056505 430.379416 
L 290.647437 430.262335 
L 291.829301 429.431674 
L 292.420234 429.495232 
L 293.011166 430.290547 
L 294.783962 434.773648 
L 295.965826 436.640401 
L 297.738622 439.17102 
L 299.511419 441.275614 
L 300.102351 441.672958 
L 300.693283 441.74996 
L 301.284215 441.388706 
L 301.875147 440.379111 
L 302.466079 438.935539 
L 303.057011 437.832097 
L 303.647944 437.846183 
L 305.42074 441.159996 
L 306.011672 441.066482 
L 306.602604 440.014339 
L 307.193536 438.733604 
L 307.784468 438.285939 
L 308.3754 438.691381 
L 308.966333 439.300256 
L 309.557265 440.070677 
L 310.148197 441.249395 
L 310.739129 442.681353 
L 311.330061 443.630222 
L 311.920993 443.653351 
L 312.511925 443.193163 
L 313.102857 443.03006 
L 313.693789 443.515393 
L 314.284722 444.576175 
L 314.875654 445.871303 
L 315.466586 446.643076 
L 316.057518 446.412058 
L 316.64845 445.840125 
L 317.239382 445.863528 
L 317.830314 446.775555 
L 319.012178 449.796399 
L 319.603111 450.748129 
L 320.194043 450.416038 
L 320.784975 448.75944 
L 321.966839 443.550967 
L 322.557771 442.844139 
L 323.148703 444.368665 
L 324.330567 447.913643 
L 325.512432 451.101471 
L 326.103364 451.743899 
L 326.694296 451.392846 
L 328.467092 449.75778 
L 329.648956 448.213793 
L 330.239889 447.405843 
L 330.830821 447.607366 
L 332.012685 450.425843 
L 332.603617 451.804954 
L 333.194549 452.297136 
L 333.785481 451.967535 
L 334.376413 451.98715 
L 334.967345 452.338541 
L 336.740142 453.725242 
L 337.331074 453.498971 
L 338.512938 452.682493 
L 339.10387 452.97511 
L 339.694802 453.65556 
L 340.285734 454.647561 
L 340.876666 455.114184 
L 342.058531 452.533491 
L 342.649463 452.22422 
L 343.240395 452.188622 
L 343.831327 452.326559 
L 344.422259 451.684782 
L 345.604123 449.791225 
L 346.195055 448.503486 
L 346.785988 448.657093 
L 347.37692 447.524424 
L 347.967852 444.538086 
L 348.558784 443.443648 
L 349.740648 448.405827 
L 350.33158 447.878016 
L 350.922512 443.867011 
L 351.513444 438.316352 
L 352.104377 434.515109 
L 352.695309 435.39069 
L 353.286241 437.933661 
L 353.877173 437.808867 
L 355.059037 442.739486 
L 355.649969 443.25874 
L 356.240901 444.231 
L 356.831833 445.617503 
L 357.422766 447.765006 
L 358.60463 450.111578 
L 359.195562 449.339881 
L 359.786494 451.77958 
L 360.377426 453.554379 
L 360.968358 453.637413 
L 362.150222 456.961432 
L 362.741155 457.283168 
L 363.332087 458.725747 
L 363.923019 462.585378 
L 364.513951 460.237521 
L 365.104883 450.088301 
L 365.695815 444.780279 
L 366.286747 454.820161 
L 366.877679 462.102961 
L 367.468611 460.736084 
L 368.650476 453.456731 
L 369.241408 447.955523 
L 369.83234 452.330214 
L 370.423272 453.029574 
L 371.014204 451.161511 
L 371.605136 444.241046 
L 372.196068 453.450995 
L 372.787 452.742359 
L 373.377932 455.202778 
L 374.559797 443.749303 
L 375.150729 442.500171 
L 375.741661 443.468423 
L 376.332593 448.42106 
L 376.923525 445.620761 
L 377.514457 446.823184 
L 378.105389 434.173803 
L 378.696321 434.156104 
L 379.287254 435.088471 
L 379.878186 428.391563 
L 380.469118 432.134368 
L 381.06005 450.200888 
L 381.650982 445.819027 
L 382.241914 427.753794 
L 382.832846 430.57609 
L 383.423778 432.63726 
L 384.01471 430.486391 
L 384.605643 413.656011 
L 385.787507 421.582215 
L 386.378439 414.335716 
L 386.969371 427.403167 
L 387.560303 431.083772 
L 388.151235 422.598038 
L 388.742167 390.212974 
L 389.333099 394.18245 
L 389.924032 383.146125 
L 390.514964 383.280806 
L 391.105896 357.413895 
L 391.696828 322.325562 
L 392.28776 389.240051 
L 392.878692 355.148489 
L 393.469624 365.155942 
L 394.060556 294.832419 
L 394.651488 323.902892 
L 395.242421 287.952136 
L 395.833353 293.542359 
L 397.015217 190.982693 
L 398.197081 115.031316 
L 398.788013 89.909327 
L 399.378945 92.593983 
L 399.969877 99.616335 
L 400.56081 242.249012 
L 401.151742 123.952345 
L 402.333606 231.106837 
L 402.924538 300.594539 
L 403.51547 305.711385 
L 404.106402 353.457027 
L 404.697334 324.881127 
L 405.288266 308.560185 
L 405.879199 316.953856 
L 406.470131 364.216817 
L 407.061063 389.174421 
L 407.651995 370.832766 
L 408.242927 360.156694 
L 408.833859 398.93716 
L 409.424791 387.426252 
L 410.015723 415.899531 
L 410.606655 412.870055 
L 411.197587 405.26551 
L 411.78852 415.187693 
L 412.379452 430.452148 
L 412.970384 437.683027 
L 413.561316 435.501698 
L 414.152248 446.649166 
L 414.74318 435.584422 
L 415.334112 438.208414 
L 415.925044 449.651199 
L 417.106909 434.277309 
L 417.697841 444.98243 
L 418.288773 449.844462 
L 418.879705 445.52935 
L 419.470637 440.135782 
L 420.061569 443.657621 
L 420.652501 448.383851 
L 421.243433 436.591261 
L 422.425298 449.321414 
L 423.607162 428.231622 
L 424.198094 432.192072 
L 424.789026 441.056973 
L 425.379958 434.134621 
L 425.97089 435.657236 
L 426.561822 443.355561 
L 427.152754 448.130034 
L 427.743687 446.060202 
L 428.334619 446.724177 
L 428.925551 449.868135 
L 429.516483 449.616374 
L 430.107415 450.53235 
L 430.698347 448.610016 
L 431.289279 447.427553 
L 431.880211 450.906444 
L 432.471143 451.778266 
L 433.062076 445.862001 
L 434.24394 456.306749 
L 434.834872 455.471496 
L 436.016736 446.40266 
L 436.607668 449.216994 
L 437.1986 451.327268 
L 437.789532 450.897975 
L 438.380465 449.872585 
L 438.971397 451.856537 
L 439.562329 454.626673 
L 440.153261 453.931325 
L 440.744193 451.879442 
L 441.335125 452.074811 
L 441.926057 455.081077 
L 442.516989 457.021084 
L 443.107921 456.883446 
L 443.698854 454.707046 
L 444.289786 453.119448 
L 444.880718 454.253814 
L 445.47165 457.789633 
L 446.062582 460.050758 
L 446.653514 458.887846 
L 447.244446 455.867312 
L 448.42631 442.762655 
L 449.017242 440.859965 
L 449.608175 443.45947 
L 450.199107 446.633115 
L 450.790039 448.757232 
L 451.380971 448.987577 
L 451.971903 447.968069 
L 452.562835 448.283427 
L 453.153767 449.058705 
L 454.335631 453.507225 
L 454.926564 453.499717 
L 455.517496 452.99976 
L 456.108428 453.242331 
L 456.69936 455.746182 
L 457.290292 457.376894 
L 457.881224 457.294534 
L 458.472156 457.392015 
L 459.063088 456.377257 
L 460.835885 448.517126 
L 461.426817 448.024963 
L 462.017749 449.044482 
L 462.608681 450.55528 
L 463.199613 451.425018 
L 463.790545 450.979798 
L 464.972409 447.963611 
L 465.563342 448.378609 
L 466.154274 450.341294 
L 467.92707 459.054911 
L 468.518002 460.416891 
L 469.108934 460.036942 
L 470.290798 456.650812 
L 470.881731 454.994219 
L 471.472663 453.797765 
L 472.063595 453.196127 
L 473.245459 453.037845 
L 473.836391 452.393856 
L 475.018255 450.425696 
L 475.609187 449.902412 
L 476.791052 450.371823 
L 477.381984 450.0489 
L 477.972916 449.216971 
L 479.15478 447.011376 
L 479.745712 445.693344 
L 481.518509 440.682812 
L 482.109441 439.960413 
L 482.700373 440.044381 
L 483.882237 440.641563 
L 484.473169 440.793769 
L 485.064101 440.681146 
L 485.655033 440.21892 
L 486.245965 439.465476 
L 488.018762 436.128632 
L 489.200626 434.650715 
L 489.791558 434.217725 
L 490.38249 434.2639 
L 491.564354 435.148988 
L 492.155286 435.899121 
L 493.337151 438.247034 
L 494.519015 440.897261 
L 495.700879 443.751775 
L 496.291811 444.374513 
L 496.882743 444.082798 
L 497.473675 442.907165 
L 499.246472 437.763783 
L 499.837404 436.951125 
L 500.428336 436.721591 
L 501.019268 436.871681 
L 501.6102 437.276604 
L 503.382997 439.035207 
L 503.973929 439.050174 
L 504.564861 438.473858 
L 506.337657 435.268615 
L 507.519521 434.043651 
L 508.701386 433.038672 
L 509.292318 432.75504 
L 510.474182 432.909505 
L 511.656046 433.068638 
L 512.83791 433.511977 
L 514.019775 433.966131 
L 514.610707 433.939669 
L 515.201639 433.597495 
L 516.383503 432.373228 
L 517.565367 430.851632 
L 518.156299 430.356059 
L 518.747231 430.387693 
L 519.338164 430.915024 
L 521.11096 433.144393 
L 521.701892 433.448753 
L 522.292824 433.256923 
L 523.474688 431.963494 
L 524.06562 431.104485 
L 524.656552 429.954645 
L 525.838417 427.216595 
L 526.429349 426.335744 
L 527.020281 426.127072 
L 527.611213 426.577522 
L 528.793077 428.051858 
L 529.384009 428.196969 
L 529.974941 427.699532 
L 530.565874 426.68003 
L 532.33867 422.779311 
L 532.929602 421.867485 
L 533.520534 421.286402 
L 534.111466 421.145428 
L 534.702398 421.741837 
L 535.29333 423.345355 
L 536.475195 428.666017 
L 537.657059 433.714676 
L 538.247991 435.576565 
L 538.838923 436.903231 
L 539.429855 437.578942 
L 540.020787 437.53052 
L 540.611719 436.870074 
L 541.793584 435.054701 
L 542.384516 434.530734 
L 542.975448 434.378041 
L 544.748244 434.540706 
L 547.111973 433.65535 
L 547.702905 433.491875 
L 548.293837 433.165402 
L 549.475701 432.015604 
L 550.657565 430.867188 
L 551.248497 430.483709 
L 551.83943 430.244786 
L 552.430362 430.158679 
L 554.203158 430.391734 
L 554.79409 430.277403 
L 555.975954 429.844 
L 556.566886 429.888522 
L 557.157819 430.304907 
L 558.339683 432.013611 
L 559.521547 433.639448 
L 560.112479 434.081657 
L 560.703411 434.258209 
L 562.476207 434.198047 
L 563.06714 434.383187 
L 563.658072 434.829764 
L 564.249004 435.604978 
L 564.839936 436.720099 
L 567.203664 441.951371 
L 567.794596 442.661563 
L 568.385529 443.038703 
L 568.976461 443.17045 
L 570.158325 443.020147 
L 572.522053 442.333428 
L 573.112985 442.39375 
L 575.476714 443.067431 
L 576.658578 443.005225 
L 577.24951 443.150063 
L 577.840442 443.602508 
L 578.431374 444.39514 
L 579.613239 446.655508 
L 580.795103 449.003688 
L 581.976967 450.810767 
L 582.567899 451.426876 
L 583.158831 451.843671 
L 584.340696 452.237624 
L 585.52256 452.504811 
L 586.704424 453.021066 
L 588.47722 454.145448 
L 590.250017 455.475908 
L 592.022813 457.13559 
L 593.204677 458.266755 
L 594.386541 459.060429 
L 595.568406 459.42613 
L 596.75027 459.674168 
L 597.932134 460.190813 
L 599.113998 461.048319 
L 603.250523 464.401728 
L 606.796116 468.156736 
L 609.159844 470.315079 
L 613.296369 474.515493 
L 615.069165 475.866647 
L 616.251029 476.537648 
L 617.432894 477.013039 
L 618.614758 477.285656 
L 620.387554 477.406809 
L 626.296875 477.655792 
L 628.660604 478.219056 
L 630.4334 478.792286 
L 631.615264 479.364325 
L 633.388061 480.504721 
L 639.888314 484.942138 
L 641.66111 485.742932 
L 643.433906 486.210624 
L 647.570431 487.07154 
L 649.93416 487.931833 
L 652.88882 489.07227 
L 654.661617 489.5544 
L 657.616277 490.04917 
L 661.752802 490.825764 
L 664.707462 491.601956 
L 668.843987 492.717342 
L 672.38958 493.442088 
L 679.480765 494.689437 
L 684.208222 495.716527 
L 686.57195 496.006511 
L 692.481272 496.434204 
L 694.845 496.886614 
L 694.845 496.886614 
" clip-path="url(#p85923dfe06)" style="fill: none; stroke: #ff8c00; stroke-width: 2; stroke-linecap: square"/>
   </g>
   <g id="line2d_32">
    <path d="M 103.912891 497.058025 
L 111.595008 495.941279 
L 115.140601 495.416959 
L 121.640854 494.857447 
L 128.141107 494.260213 
L 130.504836 493.777972 
L 133.459496 492.860451 
L 142.323478 489.875154 
L 151.187459 486.528999 
L 154.14212 485.556698 
L 157.687713 484.093479 
L 165.960762 481.9667 
L 168.915423 481.319007 
L 170.097287 480.803311 
L 171.279151 480.016011 
L 173.051947 478.453663 
L 177.779404 473.950371 
L 180.734065 471.691573 
L 181.915929 470.909158 
L 183.688725 470.090835 
L 185.461522 469.231757 
L 187.82525 467.629774 
L 190.188979 466.04133 
L 191.370843 465.616878 
L 192.552707 465.618484 
L 194.916435 466.045271 
L 195.507368 466.009746 
L 196.0983 465.8538 
L 196.689232 465.557111 
L 197.280164 465.111699 
L 198.462028 463.823615 
L 201.416689 459.957896 
L 202.598553 458.938539 
L 203.780417 458.332662 
L 205.553213 457.484285 
L 207.32601 456.176363 
L 209.098806 454.618637 
L 210.28067 453.270682 
L 212.053467 450.669072 
L 213.235331 448.965814 
L 214.417195 447.679492 
L 215.599059 446.779484 
L 216.780924 446.158025 
L 217.962788 445.947769 
L 219.144652 446.103168 
L 221.50838 446.660792 
L 222.690245 446.586419 
L 223.872109 446.216501 
L 225.053973 445.557737 
L 228.008634 443.456272 
L 229.190498 442.985145 
L 230.372362 442.524802 
L 230.963294 442.107995 
L 232.145158 440.873784 
L 233.327023 439.561779 
L 235.690751 437.293836 
L 236.872615 435.504497 
L 238.054479 433.554107 
L 238.645412 432.941186 
L 239.236344 432.764504 
L 239.827276 433.000169 
L 241.00914 433.87672 
L 241.600072 434.010373 
L 242.191004 433.754362 
L 243.372868 432.429025 
L 243.963801 431.790184 
L 244.554733 431.440022 
L 245.145665 431.456944 
L 245.736597 431.821733 
L 246.327529 432.475355 
L 247.509393 434.340412 
L 248.691257 436.14952 
L 249.28219 436.729047 
L 249.873122 437.070902 
L 251.054986 437.354297 
L 252.23685 437.382318 
L 252.827782 437.217676 
L 253.418714 436.847405 
L 254.600579 435.548048 
L 257.555239 431.872824 
L 258.146171 431.336461 
L 258.737103 431.021377 
L 264.055492 430.079059 
L 264.646424 429.85059 
L 265.237356 429.476774 
L 265.828289 428.886657 
L 266.419221 428.018723 
L 267.010153 426.747712 
L 268.192017 423.017582 
L 269.373881 419.432234 
L 270.555745 416.972354 
L 271.146678 416.210107 
L 271.73761 415.889688 
L 272.328542 416.155998 
L 272.919474 417.090252 
L 274.101338 420.264114 
L 274.69227 421.87004 
L 275.283202 423.145044 
L 275.874134 423.913481 
L 276.465067 424.107348 
L 277.646931 423.801696 
L 278.237863 424.039962 
L 278.828795 424.641034 
L 280.010659 426.424018 
L 281.192523 428.680346 
L 282.96532 432.555057 
L 283.556252 433.459106 
L 284.147184 433.753727 
L 284.738116 433.407664 
L 285.329048 432.550269 
L 285.91998 431.249479 
L 287.101845 428.065001 
L 287.692777 427.282674 
L 288.283709 427.552907 
L 288.874641 428.598666 
L 289.465573 429.875733 
L 290.056505 430.861961 
L 290.647437 431.170997 
L 291.238369 430.807579 
L 291.829301 430.193509 
L 292.420234 429.875836 
L 293.011166 430.206939 
L 294.783962 433.173255 
L 295.374894 433.682303 
L 295.965826 433.821247 
L 297.738622 433.586615 
L 298.329555 434.221837 
L 298.920487 435.683158 
L 299.511419 437.480258 
L 300.102351 438.886142 
L 300.693283 439.556754 
L 301.284215 439.484267 
L 301.875147 438.807377 
L 302.466079 437.860441 
L 303.057011 437.264791 
L 303.647944 437.45546 
L 304.829808 438.997018 
L 305.42074 439.392398 
L 306.011672 439.24691 
L 306.602604 438.371789 
L 307.193536 437.180773 
L 307.784468 436.539697 
L 308.3754 436.994582 
L 308.966333 438.513134 
L 310.148197 442.802257 
L 310.739129 444.197532 
L 311.330061 444.324327 
L 311.920993 442.964817 
L 312.511925 440.691652 
L 313.102857 438.915663 
L 313.693789 438.730274 
L 314.284722 440.033057 
L 315.466586 443.781848 
L 316.057518 445.014406 
L 316.64845 445.433442 
L 317.239382 445.30568 
L 318.421246 444.570782 
L 319.012178 445.011429 
L 319.603111 446.285208 
L 320.194043 447.216066 
L 320.784975 447.017574 
L 321.375907 445.87287 
L 322.557771 442.144451 
L 323.148703 442.196357 
L 323.739635 442.932021 
L 324.9215 443.58053 
L 325.512432 444.5059 
L 326.694296 447.341876 
L 327.285228 448.062233 
L 327.87616 448.189752 
L 328.467092 447.509715 
L 329.058024 446.107622 
L 329.648956 445.211677 
L 330.239889 445.562604 
L 331.421753 449.123701 
L 332.012685 450.088609 
L 332.603617 451.335416 
L 333.785481 456.328403 
L 334.376413 458.013089 
L 334.967345 458.144177 
L 335.558277 456.512337 
L 336.14921 453.949609 
L 336.740142 452.695932 
L 337.331074 453.289438 
L 337.922006 454.15672 
L 338.512938 453.416426 
L 339.694802 448.943058 
L 340.876666 445.726275 
L 341.467599 445.730998 
L 342.649463 447.550815 
L 343.240395 447.620431 
L 344.422259 446.160322 
L 345.604123 442.103811 
L 346.195055 442.440037 
L 347.37692 444.136967 
L 348.558784 449.35471 
L 349.149716 449.786245 
L 350.922512 447.141779 
L 351.513444 446.003325 
L 352.104377 441.460906 
L 352.695309 437.928434 
L 353.877173 433.374038 
L 354.468105 431.90561 
L 355.059037 432.525305 
L 355.649969 436.622395 
L 356.240901 439.000014 
L 356.831833 441.968786 
L 357.422766 442.443914 
L 358.013698 444.631997 
L 358.60463 445.642679 
L 359.195562 443.252829 
L 359.786494 441.66842 
L 360.377426 444.184993 
L 360.968358 446.077488 
L 362.150222 436.775949 
L 362.741155 437.812323 
L 363.332087 439.524155 
L 363.923019 442.110723 
L 364.513951 445.518656 
L 365.104883 449.63575 
L 366.286747 453.950839 
L 366.877679 457.755689 
L 367.468611 457.625601 
L 368.059544 458.40181 
L 368.650476 456.218597 
L 369.241408 451.712003 
L 369.83234 448.579504 
L 370.423272 448.931612 
L 371.014204 453.16689 
L 371.605136 445.588012 
L 372.196068 444.457181 
L 372.787 448.576644 
L 373.377932 451.686164 
L 373.968865 446.500397 
L 374.559797 438.696129 
L 375.150729 432.731918 
L 375.741661 448.659203 
L 376.332593 445.959732 
L 376.923525 439.407178 
L 377.514457 425.01439 
L 378.105389 431.346849 
L 378.696321 444.805356 
L 379.287254 445.208333 
L 379.878186 441.914698 
L 380.469118 434.739479 
L 381.06005 423.863594 
L 381.650982 419.35593 
L 382.241914 440.354476 
L 382.832846 430.790511 
L 383.423778 412.923657 
L 384.01471 408.248651 
L 384.605643 416.487133 
L 385.196575 390.918206 
L 385.787507 408.337942 
L 386.378439 429.035624 
L 386.969371 415.131978 
L 387.560303 432.845519 
L 388.151235 424.192426 
L 388.742167 404.587745 
L 389.333099 403.148295 
L 389.924032 419.327428 
L 390.514964 406.008417 
L 391.105896 406.019725 
L 391.696828 391.015661 
L 392.28776 314.056509 
L 392.878692 409.796012 
L 393.469624 351.569428 
L 394.060556 340.082873 
L 394.651488 290.273918 
L 395.242421 356.286678 
L 395.833353 281.18584 
L 396.424285 256.240251 
L 397.015217 274.531642 
L 398.197081 199.166299 
L 398.788013 125.26398 
L 399.378945 120.052281 
L 399.969877 142.735097 
L 400.56081 117.118597 
L 401.151742 205.343255 
L 401.742674 216.622398 
L 402.333606 288.242662 
L 402.924538 343.682112 
L 403.51547 340.795505 
L 404.106402 336.407307 
L 404.697334 337.125296 
L 405.288266 333.207042 
L 405.879199 371.148477 
L 406.470131 385.696139 
L 407.061063 409.169203 
L 407.651995 367.624126 
L 408.242927 400.093743 
L 408.833859 413.987147 
L 409.424791 399.158082 
L 410.015723 437.696048 
L 410.606655 424.428956 
L 411.197587 430.043736 
L 411.78852 433.554153 
L 412.379452 418.490336 
L 412.970384 416.700234 
L 413.561316 440.181495 
L 414.152248 435.427273 
L 414.74318 428.303505 
L 415.334112 433.750156 
L 415.925044 432.592094 
L 416.515976 432.881483 
L 417.106909 436.385374 
L 417.697841 419.819558 
L 418.288773 432.334514 
L 418.879705 440.708248 
L 420.061569 416.32778 
L 420.652501 429.413037 
L 421.243433 445.928532 
L 421.834365 440.781229 
L 422.425298 427.291006 
L 423.01623 431.276994 
L 423.607162 428.371015 
L 424.198094 432.430946 
L 424.789026 427.556009 
L 425.379958 426.514167 
L 426.561822 447.471237 
L 427.152754 449.720396 
L 427.743687 449.244706 
L 428.925551 445.870011 
L 429.516483 455.579768 
L 430.107415 457.694742 
L 430.698347 456.206845 
L 432.471143 434.726149 
L 433.062076 434.431816 
L 433.653008 432.504997 
L 434.24394 432.683249 
L 434.834872 436.275566 
L 435.425804 438.183832 
L 436.016736 441.595628 
L 436.607668 448.275147 
L 437.1986 453.096959 
L 437.789532 454.343958 
L 438.380465 457.164916 
L 438.971397 459.402928 
L 439.562329 457.634122 
L 440.744193 453.070361 
L 441.335125 451.826719 
L 441.926057 451.576481 
L 442.516989 449.773743 
L 443.107921 448.487301 
L 443.698854 447.816732 
L 444.289786 448.861604 
L 444.880718 448.709027 
L 445.47165 445.366562 
L 446.062582 445.481726 
L 446.653514 448.244487 
L 447.244446 447.846741 
L 447.835378 445.735495 
L 448.42631 445.678734 
L 449.608175 449.426022 
L 450.199107 449.425119 
L 450.790039 447.131253 
L 451.380971 446.476364 
L 451.971903 447.254297 
L 452.562835 449.691047 
L 453.153767 452.909527 
L 453.744699 453.898756 
L 454.926564 453.588737 
L 455.517496 451.769936 
L 456.108428 449.36292 
L 456.69936 449.899869 
L 457.881224 453.038812 
L 458.472156 453.984927 
L 459.063088 451.685122 
L 459.65402 446.962289 
L 460.244953 443.780679 
L 460.835885 443.505164 
L 462.017749 445.419225 
L 462.608681 447.061876 
L 463.199613 449.98442 
L 463.790545 452.315107 
L 464.381477 452.708604 
L 465.563342 451.706349 
L 466.154274 451.898596 
L 466.745206 452.983395 
L 467.92707 456.229682 
L 468.518002 457.793835 
L 469.108934 457.60422 
L 469.699866 455.703461 
L 470.881731 450.79304 
L 471.472663 449.481366 
L 472.654527 447.952127 
L 473.245459 447.700857 
L 474.427323 448.384721 
L 475.018255 448.433065 
L 475.609187 447.940906 
L 476.20012 446.783815 
L 477.381984 443.687912 
L 477.972916 442.039483 
L 478.563848 441.309983 
L 479.15478 441.313526 
L 479.745712 441.192476 
L 480.336644 440.796194 
L 480.927576 440.258762 
L 482.109441 438.980691 
L 482.700373 438.700961 
L 483.882237 437.935333 
L 484.473169 438.179606 
L 485.064101 438.288899 
L 485.655033 437.290478 
L 486.836897 433.893161 
L 487.42783 433.422935 
L 488.018762 433.788794 
L 488.609694 433.988181 
L 489.200626 433.474628 
L 489.791558 432.79686 
L 490.38249 432.834596 
L 490.973422 433.319382 
L 491.564354 433.456101 
L 492.155286 433.466969 
L 492.746219 434.228661 
L 494.519015 439.491835 
L 495.109947 440.119217 
L 495.700879 439.993208 
L 496.882743 439.342127 
L 498.064608 438.931714 
L 499.246472 438.748017 
L 499.837404 438.450722 
L 500.428336 437.824152 
L 501.6102 436.217969 
L 502.201132 435.905138 
L 503.382997 436.113424 
L 503.973929 435.756137 
L 505.155793 434.010109 
L 505.746725 433.472748 
L 506.337657 433.476257 
L 506.928589 433.761873 
L 507.519521 433.876775 
L 509.292318 433.272328 
L 511.065114 433.287957 
L 512.83791 433.107236 
L 514.019775 432.969622 
L 514.610707 432.446192 
L 515.201639 431.342485 
L 516.974435 426.782143 
L 517.565367 425.982886 
L 518.156299 426.078009 
L 518.747231 427.141047 
L 520.520028 432.194633 
L 521.11096 433.095725 
L 521.701892 433.29183 
L 522.292824 432.879847 
L 523.474688 431.129106 
L 525.247485 428.065458 
L 525.838417 427.398905 
L 526.429349 427.103169 
L 527.020281 427.188787 
L 527.611213 427.631714 
L 528.202145 428.225214 
L 528.793077 428.59328 
L 529.384009 428.461245 
L 529.974941 427.83165 
L 531.747738 425.079577 
L 532.33867 424.523116 
L 532.929602 424.217765 
L 533.520534 424.109211 
L 534.111466 424.232734 
L 534.702398 424.758856 
L 535.29333 425.837581 
L 536.475195 429.229487 
L 537.657059 432.689472 
L 538.247991 433.964086 
L 538.838923 434.743263 
L 539.429855 434.916706 
L 540.020787 434.507464 
L 541.202652 433.070245 
L 541.793584 432.747832 
L 542.384516 432.832279 
L 543.56638 433.346898 
L 544.157312 433.297807 
L 544.748244 432.914874 
L 545.930108 431.698221 
L 546.521041 431.282052 
L 547.111973 431.115913 
L 548.884769 431.016149 
L 552.430362 430.133807 
L 553.612226 430.079409 
L 554.203158 429.928776 
L 555.975954 429.128623 
L 556.566886 429.228274 
L 557.157819 429.711397 
L 557.748751 430.554369 
L 559.521547 433.646219 
L 560.112479 434.299951 
L 560.703411 434.671704 
L 561.294343 434.833103 
L 563.06714 434.974406 
L 563.658072 435.228582 
L 564.249004 435.773935 
L 564.839936 436.651342 
L 566.612732 440.069698 
L 567.203664 440.867217 
L 567.794596 441.294918 
L 568.385529 441.367454 
L 568.976461 441.179109 
L 571.340189 439.999155 
L 571.931121 439.919038 
L 572.522053 439.985539 
L 573.703918 440.524334 
L 574.885782 441.199904 
L 576.658578 441.957407 
L 577.24951 442.46915 
L 577.840442 443.280755 
L 579.022307 445.723594 
L 580.795103 449.716568 
L 581.976967 451.612011 
L 582.567899 452.262597 
L 583.158831 452.721628 
L 584.340696 453.216927 
L 589.659085 454.610375 
L 590.840949 455.338783 
L 592.022813 456.421114 
L 593.795609 458.100824 
L 594.977474 458.923661 
L 597.341202 460.438537 
L 598.523066 461.479248 
L 601.477727 464.290862 
L 604.432387 466.953691 
L 606.205184 468.441602 
L 609.159844 470.662928 
L 615.069165 475.758222 
L 616.841962 476.894042 
L 618.023826 477.391551 
L 619.20569 477.653453 
L 623.933147 478.107397 
L 627.47874 478.319599 
L 629.251536 478.761122 
L 631.024332 479.509468 
L 632.797129 480.584513 
L 635.751789 482.456825 
L 638.115517 483.622526 
L 641.070178 484.785685 
L 646.388567 486.689214 
L 650.525092 488.141851 
L 653.479752 489.184752 
L 655.843481 489.753111 
L 661.752802 491.021743 
L 664.707462 491.853944 
L 668.843987 493.087503 
L 671.207716 493.565413 
L 674.753308 493.988716 
L 677.707969 494.37588 
L 681.253561 495.143455 
L 684.799154 495.843081 
L 687.162883 496.0684 
L 691.890339 496.288502 
L 694.845 496.735788 
L 694.845 496.735788 
" clip-path="url(#p85923dfe06)" style="fill: none; stroke: #00ff00; stroke-width: 2; stroke-linecap: square"/>
   </g>
   <g id="line2d_33">
    <path d="M 103.912891 497.873694 
L 108.049415 497.24593 
L 113.367804 496.433443 
L 121.640854 495.405347 
L 125.186447 494.722538 
L 135.232292 492.249855 
L 137.596021 491.457037 
L 141.141614 490.261132 
L 145.86907 488.823394 
L 148.823731 487.850015 
L 150.596527 487.468596 
L 156.505848 486.454602 
L 159.460509 485.624173 
L 162.415169 484.539527 
L 164.778898 483.395808 
L 168.324491 481.499638 
L 170.097287 480.795091 
L 173.64288 479.538535 
L 176.006608 478.389605 
L 178.370336 477.01293 
L 181.324997 475.011029 
L 183.688725 473.214708 
L 185.461522 471.511045 
L 189.007114 467.846761 
L 190.188979 466.930486 
L 191.370843 466.351692 
L 192.552707 466.080281 
L 196.0983 465.612187 
L 197.871096 465.06158 
L 199.05296 464.541215 
L 200.234824 463.814728 
L 201.416689 462.8168 
L 203.189485 461.14755 
L 204.371349 460.333041 
L 207.32601 458.901692 
L 208.507874 457.878415 
L 212.644399 453.678465 
L 214.417195 452.291262 
L 217.371856 450.37696 
L 217.962788 449.727452 
L 219.144652 447.892728 
L 221.50838 443.411212 
L 222.099312 442.590953 
L 222.690245 442.014796 
L 223.281177 441.680891 
L 224.463041 441.495136 
L 225.644905 441.388159 
L 229.190498 440.624986 
L 231.554226 440.313074 
L 232.73609 439.813497 
L 233.327023 439.354381 
L 233.917955 438.680523 
L 235.099819 436.636412 
L 236.281683 434.378995 
L 236.872615 433.600613 
L 237.463547 433.16549 
L 239.236344 432.665662 
L 239.827276 432.225255 
L 241.600072 430.349619 
L 242.191004 429.977322 
L 242.781936 429.834625 
L 243.372868 429.889682 
L 245.736597 430.708277 
L 246.327529 430.634827 
L 246.918461 430.269214 
L 247.509393 429.569026 
L 249.873122 425.538521 
L 250.464054 424.924824 
L 251.054986 424.526381 
L 252.23685 424.063493 
L 255.191511 423.142753 
L 255.782443 422.639204 
L 256.373375 421.743122 
L 257.555239 418.985572 
L 258.737103 416.00248 
L 259.328035 414.746898 
L 259.918968 413.809766 
L 260.5099 413.31139 
L 261.100832 413.279067 
L 261.691764 413.602369 
L 262.873628 414.509737 
L 263.46456 414.681992 
L 264.055492 414.463814 
L 264.646424 413.807675 
L 266.419221 410.948361 
L 267.010153 410.665512 
L 267.601085 410.865484 
L 268.782949 411.599972 
L 269.373881 411.586495 
L 269.964813 411.230223 
L 271.146678 410.218867 
L 271.73761 410.148573 
L 272.328542 410.531255 
L 273.510406 412.010677 
L 274.69227 413.78759 
L 275.874134 415.881461 
L 276.465067 416.648735 
L 280.601591 420.453258 
L 281.192523 420.73602 
L 281.783456 420.499489 
L 282.374388 419.554377 
L 283.556252 416.310184 
L 285.329048 411.044542 
L 285.91998 409.74884 
L 286.510912 409.11823 
L 287.101845 409.228118 
L 287.692777 409.890868 
L 288.874641 412.044066 
L 289.465573 413.457071 
L 291.829301 419.996423 
L 292.420234 421.120346 
L 293.011166 421.927154 
L 293.602098 422.323748 
L 294.783962 422.369681 
L 295.374894 422.697023 
L 296.556758 424.029035 
L 297.14769 424.477438 
L 297.738622 424.708217 
L 298.329555 424.597466 
L 300.693283 422.747174 
L 301.284215 421.690987 
L 302.466079 419.086805 
L 303.057011 417.98748 
L 303.647944 417.198842 
L 304.238876 417.278697 
L 304.829808 418.288963 
L 306.011672 420.993127 
L 307.784468 424.243976 
L 308.3754 425.803043 
L 309.557265 429.763616 
L 310.739129 433.631247 
L 311.330061 434.623948 
L 311.920993 434.557441 
L 312.511925 433.622058 
L 313.102857 432.018258 
L 314.284722 427.860366 
L 314.875654 426.908171 
L 315.466586 427.094652 
L 316.057518 427.950826 
L 317.239382 430.935282 
L 318.421246 433.672815 
L 320.194043 437.494757 
L 320.784975 437.933827 
L 321.375907 437.553456 
L 321.966839 436.777046 
L 322.557771 436.253635 
L 323.148703 436.424396 
L 323.739635 437.418658 
L 324.330567 438.71515 
L 324.9215 439.601607 
L 325.512432 439.856839 
L 327.87616 438.857948 
L 328.467092 439.440221 
L 329.058024 440.829014 
L 329.648956 441.929161 
L 330.239889 442.123182 
L 332.012685 439.238905 
L 332.603617 438.952438 
L 333.194549 439.567147 
L 333.785481 440.3631 
L 334.967345 440.475921 
L 335.558277 441.41382 
L 336.14921 442.775297 
L 336.740142 443.32266 
L 337.331074 442.450668 
L 337.922006 441.955613 
L 339.10387 443.869164 
L 339.694802 443.259998 
L 340.285734 442.017772 
L 340.876666 442.375013 
L 342.058531 447.482631 
L 342.649463 448.602456 
L 343.240395 448.143811 
L 343.831327 446.181884 
L 344.422259 445.14433 
L 345.604123 445.375595 
L 346.195055 445.853554 
L 346.785988 446.683974 
L 347.37692 447.075883 
L 348.558784 443.553681 
L 349.149716 443.58216 
L 349.740648 444.535833 
L 350.33158 447.287531 
L 350.922512 451.824804 
L 351.513444 453.375433 
L 352.104377 451.991568 
L 352.695309 450.029799 
L 353.286241 448.877307 
L 353.877173 449.420255 
L 354.468105 450.253516 
L 355.059037 449.166206 
L 356.240901 443.677745 
L 356.831833 442.111764 
L 357.422766 443.263011 
L 358.013698 445.482656 
L 358.60463 446.620378 
L 359.786494 442.938086 
L 360.377426 442.355201 
L 360.968358 443.383666 
L 361.55929 443.541696 
L 362.741155 441.38107 
L 363.332087 438.9242 
L 363.923019 438.446877 
L 364.513951 439.850001 
L 365.104883 446.321256 
L 365.695815 443.634653 
L 366.286747 442.270859 
L 366.877679 445.542217 
L 367.468611 447.169553 
L 368.059544 452.33645 
L 369.241408 458.286199 
L 369.83234 462.047455 
L 370.423272 463.266551 
L 371.014204 459.94875 
L 371.605136 458.812012 
L 372.196068 464.366573 
L 373.377932 461.366749 
L 373.968865 454.953121 
L 374.559797 452.203457 
L 375.150729 450.456811 
L 376.332593 439.243374 
L 376.923525 439.15749 
L 377.514457 447.49752 
L 378.105389 452.115519 
L 378.696321 449.099175 
L 379.287254 449.036189 
L 379.878186 446.757986 
L 380.469118 452.090111 
L 381.06005 453.934697 
L 381.650982 444.697654 
L 382.241914 443.777848 
L 382.832846 435.229205 
L 383.423778 435.316597 
L 384.01471 443.695307 
L 384.605643 440.432002 
L 385.196575 435.456941 
L 385.787507 444.31348 
L 386.378439 449.424534 
L 386.969371 434.633601 
L 387.560303 434.365867 
L 388.151235 440.602678 
L 388.742167 430.973428 
L 389.333099 430.73563 
L 389.924032 433.767037 
L 390.514964 446.847992 
L 391.105896 444.247994 
L 391.696828 423.151995 
L 392.28776 421.780893 
L 392.878692 421.739438 
L 393.469624 407.677565 
L 394.060556 406.56856 
L 394.651488 374.421319 
L 395.242421 386.893215 
L 395.833353 378.045461 
L 396.424285 344.23699 
L 397.015217 355.58242 
L 397.606149 295.234347 
L 398.197081 286.337671 
L 398.788013 279.882496 
L 399.378945 280.185871 
L 399.969877 299.537725 
L 400.56081 294.505454 
L 401.151742 334.943497 
L 401.742674 313.493341 
L 402.333606 355.804109 
L 402.924538 351.049508 
L 403.51547 354.410923 
L 404.106402 394.051355 
L 404.697334 398.483751 
L 405.288266 414.849517 
L 405.879199 421.402386 
L 406.470131 429.726695 
L 407.061063 427.612316 
L 407.651995 439.818219 
L 408.242927 438.396954 
L 408.833859 448.855799 
L 409.424791 429.848934 
L 410.015723 451.383632 
L 410.606655 433.583083 
L 411.197587 432.669331 
L 411.78852 433.755705 
L 412.379452 436.636622 
L 412.970384 435.693832 
L 414.152248 431.484637 
L 414.74318 444.61354 
L 415.334112 445.306184 
L 415.925044 440.422818 
L 416.515976 448.326617 
L 417.106909 451.425263 
L 417.697841 459.595723 
L 418.288773 454.751031 
L 418.879705 455.283229 
L 419.470637 455.323076 
L 420.061569 455.175378 
L 420.652501 446.417773 
L 421.243433 448.276966 
L 422.425298 441.878003 
L 423.01623 449.218396 
L 424.198094 448.788302 
L 424.789026 444.924835 
L 425.379958 446.431541 
L 425.97089 447.450385 
L 426.561822 455.694186 
L 427.152754 457.155928 
L 427.743687 457.35441 
L 428.334619 453.531273 
L 428.925551 452.343939 
L 429.516483 449.744057 
L 430.107415 449.370293 
L 430.698347 448.292115 
L 431.289279 440.881158 
L 431.880211 439.853289 
L 432.471143 441.514802 
L 433.062076 441.051589 
L 433.653008 442.963268 
L 434.24394 447.695346 
L 434.834872 453.68043 
L 435.425804 453.350916 
L 436.607668 446.036627 
L 437.1986 444.550648 
L 437.789532 445.175369 
L 438.971397 456.056993 
L 439.562329 455.457251 
L 440.744193 445.891274 
L 441.335125 445.295519 
L 441.926057 446.60031 
L 442.516989 448.65982 
L 443.107921 451.43957 
L 443.698854 451.503538 
L 444.289786 449.268069 
L 444.880718 448.078685 
L 445.47165 448.010079 
L 446.062582 448.224704 
L 446.653514 449.72162 
L 447.835378 449.112279 
L 448.42631 449.218802 
L 449.017242 448.431929 
L 450.199107 447.373097 
L 450.790039 447.631258 
L 451.380971 449.367846 
L 451.971903 449.897405 
L 452.562835 449.866803 
L 453.744699 448.661811 
L 454.335631 448.54436 
L 454.926564 448.609408 
L 455.517496 449.324294 
L 456.108428 450.736745 
L 456.69936 450.954994 
L 458.472156 447.970307 
L 459.65402 443.979457 
L 460.244953 444.084054 
L 460.835885 445.995638 
L 461.426817 447.004071 
L 462.017749 446.847278 
L 462.608681 445.955139 
L 464.381477 441.566867 
L 465.563342 441.606324 
L 466.154274 440.741607 
L 466.745206 439.658455 
L 467.92707 438.186466 
L 468.518002 437.874143 
L 469.108934 438.171774 
L 470.290798 439.085364 
L 470.881731 438.869896 
L 472.063595 437.196092 
L 472.654527 436.666006 
L 473.836391 435.291566 
L 474.427323 435.456373 
L 475.018255 436.197811 
L 475.609187 436.753759 
L 476.20012 436.972552 
L 476.791052 436.723764 
L 477.972916 435.716668 
L 478.563848 435.024389 
L 480.336644 431.39301 
L 480.927576 431.362144 
L 481.518509 431.87029 
L 482.109441 432.742482 
L 483.291305 435.216499 
L 483.882237 435.95897 
L 484.473169 435.3736 
L 485.064101 433.189821 
L 485.655033 430.372523 
L 486.245965 428.415544 
L 486.836897 427.784557 
L 487.42783 427.776078 
L 488.018762 427.60814 
L 488.609694 426.905638 
L 489.791558 424.881688 
L 490.38249 424.41059 
L 492.155286 424.187257 
L 492.746219 424.492698 
L 495.700879 427.749892 
L 496.291811 428.222059 
L 496.882743 428.337306 
L 497.473675 427.904954 
L 498.064608 426.822066 
L 498.65554 425.120456 
L 500.428336 418.904537 
L 501.6102 415.89737 
L 502.201132 414.828313 
L 502.792064 414.437988 
L 503.382997 415.039635 
L 503.973929 416.077418 
L 504.564861 416.640066 
L 505.155793 416.39368 
L 506.337657 414.682722 
L 507.519521 412.809487 
L 508.110453 411.756287 
L 508.701386 410.981627 
L 509.292318 410.886584 
L 509.88325 411.508876 
L 511.065114 413.343024 
L 511.656046 413.791417 
L 512.246978 413.637885 
L 513.428842 412.611343 
L 514.019775 412.876773 
L 514.610707 413.876151 
L 515.792571 416.305454 
L 518.156299 419.847143 
L 518.747231 420.843409 
L 519.338164 421.521122 
L 519.929096 421.756574 
L 520.520028 421.505089 
L 521.11096 420.826164 
L 523.474688 417.295928 
L 524.06562 416.976362 
L 524.656552 417.223259 
L 525.247485 417.925532 
L 526.429349 419.620676 
L 527.611213 420.968121 
L 528.202145 421.473038 
L 528.793077 421.67529 
L 529.384009 421.48233 
L 529.974941 420.935404 
L 530.565874 420.082443 
L 531.747738 417.65501 
L 532.929602 415.3754 
L 533.520534 414.516757 
L 534.111466 413.911028 
L 534.702398 413.706797 
L 535.29333 413.954649 
L 537.066127 415.656513 
L 537.657059 415.989155 
L 538.247991 416.166294 
L 538.838923 416.216349 
L 539.429855 416.116143 
L 540.020787 415.85386 
L 541.202652 414.983834 
L 542.384516 413.958218 
L 542.975448 413.715904 
L 543.56638 413.889394 
L 544.157312 414.484772 
L 546.521041 417.701172 
L 548.884769 420.484347 
L 549.475701 421.465389 
L 550.657565 424.006623 
L 551.83943 426.632847 
L 553.021294 428.68311 
L 554.79409 430.958031 
L 556.566886 432.962184 
L 557.157819 433.435903 
L 557.748751 433.757691 
L 558.339683 433.929958 
L 558.930615 433.966374 
L 559.521547 433.875141 
L 560.703411 433.328019 
L 561.885275 432.578373 
L 563.06714 432.126694 
L 564.249004 432.050033 
L 564.839936 432.22338 
L 565.430868 432.633119 
L 566.0218 433.32673 
L 566.612732 434.307275 
L 567.794596 436.933868 
L 569.567393 441.038312 
L 570.749257 442.977791 
L 571.931121 444.156277 
L 573.112985 444.894212 
L 574.885782 445.679351 
L 576.067646 446.17953 
L 577.24951 446.983075 
L 580.795103 450.218609 
L 582.567899 451.978359 
L 583.749763 453.40259 
L 587.295356 458.078872 
L 588.47722 459.012156 
L 589.659085 459.574415 
L 592.613745 460.64343 
L 593.795609 461.433446 
L 594.977474 462.56702 
L 600.295862 468.423194 
L 601.477727 469.285752 
L 603.250523 470.220351 
L 613.296369 474.763645 
L 615.660097 475.395959 
L 618.023826 475.984459 
L 619.796622 476.765477 
L 623.933147 478.995845 
L 626.296875 479.785027 
L 628.660604 480.666373 
L 632.206196 482.149362 
L 646.979499 487.086499 
L 652.88882 489.17692 
L 656.434413 490.028162 
L 660.570938 491.040076 
L 663.525598 492.102192 
L 665.889327 492.932722 
L 668.253055 493.50546 
L 675.935172 494.770421 
L 683.61729 495.978522 
L 694.254068 497.142191 
L 694.845 497.229534 
L 694.845 497.229534 
" clip-path="url(#p85923dfe06)" style="fill: none; stroke: #40e0d0; stroke-width: 2; stroke-linecap: square"/>
   </g>
   <g id="line2d_34">
    <path d="M 103.912891 499.061156 
L 113.958736 497.761291 
L 130.504836 495.02281 
L 135.823225 493.942114 
L 142.91441 492.144953 
L 154.14212 489.160642 
L 158.869577 487.615751 
L 164.187966 485.728892 
L 167.733558 484.263694 
L 170.097287 483.060584 
L 172.461015 481.591887 
L 177.779404 478.140419 
L 184.87059 474.582484 
L 187.82525 473.231905 
L 189.598046 472.115636 
L 191.961775 470.327343 
L 196.689232 466.590305 
L 199.05296 464.739489 
L 201.416689 462.525786 
L 204.371349 459.761878 
L 208.507874 455.988894 
L 210.28067 453.976042 
L 216.189991 446.605276 
L 218.55372 442.830502 
L 222.099312 436.882466 
L 225.053973 431.286309 
L 226.235837 429.544622 
L 227.417701 428.3273 
L 229.190498 427.141361 
L 230.372362 426.248206 
L 231.554226 425.080934 
L 232.73609 423.689743 
L 233.917955 422.037203 
L 235.690751 419.126872 
L 238.645412 414.199286 
L 239.827276 412.755866 
L 243.372868 409.423699 
L 244.554733 407.857362 
L 245.736597 405.792458 
L 247.509393 401.915951 
L 249.28219 398.111611 
L 250.464054 396.222575 
L 252.23685 394.016534 
L 253.418714 391.723925 
L 254.600579 389.071201 
L 255.191511 388.000563 
L 255.782443 387.221784 
L 256.373375 386.720839 
L 256.964307 386.43923 
L 258.146171 386.262137 
L 261.100832 386.087741 
L 262.873628 385.621006 
L 264.055492 385.623573 
L 264.646424 385.402257 
L 265.237356 384.895018 
L 266.419221 383.487167 
L 267.010153 382.966296 
L 267.601085 382.724848 
L 268.192017 382.75112 
L 272.328542 384.068702 
L 274.69227 384.659042 
L 276.465067 384.724183 
L 277.055999 385.193068 
L 277.646931 386.088349 
L 278.828795 388.793386 
L 279.419727 390.154604 
L 280.010659 391.1599 
L 280.601591 391.754357 
L 281.783456 392.645541 
L 282.374388 393.344582 
L 284.147184 396.087084 
L 284.738116 396.668422 
L 285.91998 397.25988 
L 286.510912 397.798608 
L 287.101845 398.758188 
L 288.874641 402.508307 
L 290.647437 405.516681 
L 291.829301 407.122417 
L 293.011166 408.113567 
L 293.602098 408.640742 
L 294.19303 409.524261 
L 295.374894 411.960932 
L 295.965826 412.711589 
L 296.556758 412.906702 
L 297.738622 412.888817 
L 298.920487 413.303519 
L 300.102351 413.105944 
L 300.693283 413.381763 
L 301.284215 414.523304 
L 302.466079 418.901446 
L 303.057011 421.06336 
L 304.238876 424.130877 
L 304.829808 425.376306 
L 305.42074 426.319209 
L 306.602604 427.572701 
L 307.784468 429.764421 
L 308.3754 430.8354 
L 308.966333 431.530803 
L 309.557265 431.731636 
L 310.148197 431.764256 
L 310.739129 432.119399 
L 311.330061 432.870792 
L 312.511925 434.74212 
L 313.102857 435.217467 
L 314.284722 435.248894 
L 315.466586 435.790386 
L 316.057518 436.237843 
L 316.64845 436.974431 
L 319.603111 443.000869 
L 320.194043 443.606371 
L 321.375907 443.659907 
L 321.966839 444.083754 
L 323.148703 446.118269 
L 323.739635 446.589895 
L 325.512432 446.981382 
L 326.103364 446.573696 
L 327.285228 444.684624 
L 327.87616 444.292294 
L 329.648956 444.837528 
L 330.239889 445.629648 
L 331.421753 448.354244 
L 332.012685 449.2317 
L 333.194549 450.50752 
L 334.967345 453.135569 
L 336.740142 454.947409 
L 337.922006 455.936727 
L 338.512938 456.052076 
L 339.10387 455.434364 
L 339.694802 454.490865 
L 340.285734 454.116829 
L 340.876666 454.931695 
L 342.058531 457.589895 
L 342.649463 458.323668 
L 343.831327 460.160443 
L 345.013191 460.693522 
L 345.604123 461.546689 
L 346.195055 461.841247 
L 347.37692 460.265073 
L 347.967852 460.716164 
L 348.558784 461.535404 
L 349.740648 462.581683 
L 350.922512 464.254039 
L 351.513444 464.366336 
L 352.695309 463.697958 
L 353.286241 462.334012 
L 353.877173 460.070375 
L 354.468105 458.778483 
L 355.059037 458.180304 
L 356.240901 455.380779 
L 356.831833 454.805806 
L 357.422766 455.449789 
L 358.60463 458.015547 
L 359.195562 458.69631 
L 359.786494 458.87788 
L 360.377426 458.80956 
L 360.968358 457.641753 
L 362.150222 456.473488 
L 362.741155 456.871012 
L 363.923019 461.3762 
L 365.104883 460.675987 
L 366.877679 463.96579 
L 367.468611 463.975832 
L 368.059544 460.293911 
L 368.650476 457.948656 
L 369.241408 459.202452 
L 369.83234 463.167297 
L 370.423272 462.231957 
L 371.014204 464.015569 
L 371.605136 467.050781 
L 372.196068 466.423819 
L 372.787 463.828317 
L 373.377932 461.879241 
L 373.968865 461.491404 
L 374.559797 462.986712 
L 375.150729 461.157063 
L 375.741661 458.317966 
L 376.332593 457.490495 
L 376.923525 458.834963 
L 377.514457 459.493486 
L 378.105389 456.097324 
L 378.696321 460.283908 
L 379.287254 459.917472 
L 379.878186 460.160775 
L 380.469118 461.875801 
L 381.06005 461.363557 
L 381.650982 462.990957 
L 382.241914 459.193842 
L 382.832846 459.678971 
L 383.423778 457.675625 
L 384.01471 459.789343 
L 384.605643 460.431366 
L 385.196575 456.124591 
L 385.787507 455.02292 
L 386.378439 459.564135 
L 386.969371 462.688201 
L 387.560303 463.114402 
L 388.151235 463.996806 
L 388.742167 450.717723 
L 389.333099 451.485692 
L 389.924032 452.81157 
L 391.105896 460.621807 
L 391.696828 454.522112 
L 392.28776 453.708595 
L 392.878692 439.170552 
L 393.469624 443.530959 
L 394.060556 444.749336 
L 394.651488 430.769793 
L 395.242421 429.124089 
L 395.833353 418.898015 
L 396.424285 419.587255 
L 397.015217 431.213617 
L 397.606149 411.074145 
L 398.197081 395.189082 
L 398.788013 392.156152 
L 399.378945 398.924152 
L 399.969877 389.500693 
L 400.56081 414.639169 
L 401.151742 408.023631 
L 401.742674 419.314493 
L 402.333606 419.535289 
L 402.924538 435.31659 
L 403.51547 435.725402 
L 404.106402 439.994763 
L 404.697334 446.053683 
L 405.288266 445.735297 
L 405.879199 449.648 
L 406.470131 445.263628 
L 407.061063 453.352849 
L 407.651995 453.184373 
L 408.242927 454.639959 
L 408.833859 456.492101 
L 409.424791 451.892361 
L 410.015723 451.471152 
L 410.606655 458.708228 
L 411.197587 457.523354 
L 411.78852 462.739263 
L 412.379452 455.85671 
L 412.970384 454.172514 
L 413.561316 456.533951 
L 414.152248 461.629847 
L 414.74318 465.289298 
L 415.334112 465.451848 
L 415.925044 461.724817 
L 416.515976 458.944955 
L 417.106909 459.115562 
L 417.697841 461.675291 
L 418.288773 462.106696 
L 418.879705 460.479154 
L 419.470637 459.990121 
L 420.061569 465.354589 
L 420.652501 468.221134 
L 421.243433 463.865545 
L 421.834365 465.874262 
L 422.425298 465.898598 
L 423.607162 459.950584 
L 424.198094 462.039063 
L 424.789026 461.611443 
L 425.379958 463.57395 
L 425.97089 463.189652 
L 426.561822 463.295508 
L 427.152754 460.505879 
L 427.743687 459.399459 
L 428.334619 462.408291 
L 428.925551 461.970579 
L 429.516483 460.933537 
L 430.107415 462.574147 
L 430.698347 461.358196 
L 431.289279 459.253905 
L 431.880211 457.821851 
L 432.471143 458.351923 
L 433.062076 458.681428 
L 433.653008 458.770069 
L 434.24394 457.292054 
L 434.834872 456.977037 
L 436.016736 454.184844 
L 437.1986 456.944838 
L 437.789532 457.202321 
L 438.380465 457.743296 
L 438.971397 459.483275 
L 439.562329 459.462203 
L 440.153261 458.759088 
L 440.744193 458.908433 
L 441.335125 459.227694 
L 441.926057 459.230864 
L 442.516989 459.453966 
L 443.107921 461.079043 
L 443.698854 461.944717 
L 444.289786 462.43223 
L 444.880718 462.074087 
L 446.062582 460.899404 
L 446.653514 460.303508 
L 447.244446 459.250993 
L 447.835378 458.560753 
L 448.42631 459.302223 
L 449.608175 461.217261 
L 450.199107 461.981684 
L 450.790039 461.970161 
L 451.971903 461.444131 
L 452.562835 460.424784 
L 453.153767 459.060887 
L 453.744699 458.853734 
L 454.926564 459.492149 
L 455.517496 459.744747 
L 456.69936 459.989114 
L 457.290292 459.5318 
L 458.472156 457.62227 
L 459.063088 457.230864 
L 459.65402 457.450476 
L 460.244953 458.24884 
L 460.835885 458.646133 
L 462.017749 458.335183 
L 462.608681 458.099348 
L 463.199613 457.154504 
L 464.381477 453.680566 
L 464.972409 452.696984 
L 465.563342 452.542844 
L 466.154274 452.769346 
L 466.745206 452.75544 
L 467.92707 452.011899 
L 469.108934 451.91269 
L 471.472663 451.444192 
L 472.063595 451.065616 
L 472.654527 450.041369 
L 473.836391 447.069074 
L 475.018255 445.196858 
L 475.609187 444.618154 
L 476.20012 444.34716 
L 477.381984 444.176014 
L 477.972916 443.992771 
L 478.563848 443.647612 
L 479.15478 443.101215 
L 479.745712 441.999897 
L 480.927576 438.675305 
L 483.882237 431.995749 
L 484.473169 431.365946 
L 485.655033 430.61003 
L 486.245965 430.42046 
L 487.42783 430.361578 
L 488.018762 429.948799 
L 488.609694 429.031761 
L 490.38249 424.63191 
L 490.973422 423.797245 
L 491.564354 423.336175 
L 492.155286 423.159783 
L 493.928083 423.214142 
L 494.519015 422.831074 
L 495.109947 422.184877 
L 495.700879 421.327061 
L 496.882743 419.049601 
L 498.064608 416.909589 
L 499.246472 415.393952 
L 499.837404 414.392617 
L 503.382997 407.032169 
L 504.564861 405.211748 
L 506.337657 401.62689 
L 506.928589 401.028323 
L 507.519521 401.176562 
L 508.110453 401.987495 
L 508.701386 403.015286 
L 509.292318 403.693004 
L 509.88325 403.730504 
L 510.474182 403.249193 
L 511.656046 401.937612 
L 512.83791 401.149501 
L 516.974435 398.945057 
L 517.565367 398.356262 
L 518.156299 397.380307 
L 518.747231 395.940109 
L 522.292824 385.07669 
L 522.883756 383.826566 
L 523.474688 382.919883 
L 524.06562 382.36203 
L 525.247485 381.871239 
L 526.429349 381.545771 
L 527.020281 381.523548 
L 528.202145 381.929206 
L 529.384009 382.352373 
L 530.565874 382.37589 
L 531.747738 382.16718 
L 532.929602 381.917573 
L 533.520534 382.038869 
L 534.111466 382.402548 
L 534.702398 382.992933 
L 535.884263 384.729247 
L 537.066127 387.173658 
L 538.838923 391.20707 
L 539.429855 392.177002 
L 540.020787 392.841563 
L 540.611719 393.226869 
L 541.793584 393.562014 
L 544.748244 394.200664 
L 545.930108 394.956997 
L 546.521041 395.539695 
L 547.111973 396.344993 
L 548.293837 398.591554 
L 549.475701 401.041684 
L 550.657565 402.887692 
L 551.248497 403.4717 
L 552.430362 404.173192 
L 553.612226 404.840519 
L 554.79409 405.928905 
L 555.975954 407.548529 
L 561.294343 416.261912 
L 563.06714 419.649618 
L 564.839936 422.961096 
L 566.0218 424.707066 
L 570.158325 430.175577 
L 571.340189 432.22941 
L 573.112985 435.771471 
L 575.476714 440.502458 
L 576.658578 442.320434 
L 577.840442 443.641355 
L 580.795103 446.370484 
L 583.158831 449.168346 
L 586.113492 453.077059 
L 588.47722 456.168156 
L 590.250017 458.038827 
L 592.022813 459.504815 
L 594.386541 461.490695 
L 597.341202 464.119964 
L 599.70493 465.852317 
L 603.250523 468.287455 
L 606.205184 470.803547 
L 607.97798 472.236997 
L 610.341708 473.80699 
L 616.251029 477.324065 
L 618.614758 478.565342 
L 623.342215 480.633817 
L 626.296875 481.772075 
L 630.4334 483.038954 
L 633.978993 484.236917 
L 638.70645 485.874302 
L 644.615771 487.794519 
L 656.434413 492.211698 
L 659.389073 492.891787 
L 664.11653 493.728613 
L 670.025851 494.762228 
L 676.526105 495.968581 
L 694.845 498.672581 
L 694.845 498.672581 
" clip-path="url(#p85923dfe06)" style="fill: none; stroke: #00ffff; stroke-width: 2; stroke-linecap: square"/>
   </g>
   <g id="patch_3">
    <path d="M 103.912891 509.9875 
L 103.912891 26.28 
" style="fill: none; stroke: #000000; stroke-width: 0.8; stroke-linejoin: miter; stroke-linecap: square"/>
   </g>
   <g id="patch_4">
    <path d="M 694.845 509.9875 
L 694.845 26.28 
" style="fill: none; stroke: #000000; stroke-width: 0.8; stroke-linejoin: miter; stroke-linecap: square"/>
   </g>
   <g id="patch_5">
    <path d="M 103.912891 509.9875 
L 694.845 509.9875 
" style="fill: none; stroke: #000000; stroke-width: 0.8; stroke-linejoin: miter; stroke-linecap: square"/>
   </g>
   <g id="patch_6">
    <path d="M 103.912891 26.28 
L 694.845 26.28 
" style="fill: none; stroke: #000000; stroke-width: 0.8; stroke-linejoin: miter; stroke-linecap: square"/>
   </g>
   <g id="legend_1">
    <g id="patch_7">
     <path d="M 517.365 199.240313 
L 685.845 199.240313 
L 685.845 35.28 
L 517.365 35.28 
z
" style="fill: #ffffff; opacity: 0.8; stroke: #000000; stroke-linejoin: miter"/>
    </g>
    <g id="line2d_35">
     <path d="M 524.565 49.857188 
L 542.565 49.857188 
L 560.565 49.857188 
" style="fill: none; stroke-dasharray: 14.8,6.4; stroke-dashoffset: 0; stroke: #000000; stroke-width: 4"/>
    </g>
    <g id="text_17">
     <!-- $\rho_0$ -->
     <g transform="translate(574.965 56.157188) scale(0.18 -0.18)">
      <use xlink:href="#DejaVuSans-Oblique-3c1"/>
      <use xlink:href="#DejaVuSans-30" transform="translate(63.476562 -16.40625) scale(0.7)"/>
     </g>
    </g>
    <g id="line2d_36">
     <path d="M 524.565 76.314375 
L 542.565 76.314375 
L 560.565 76.314375 
" style="fill: none; stroke: #dc143c; stroke-width: 2; stroke-linecap: square"/>
    </g>
    <g id="text_18">
     <!-- $\it{k_bT= 0.000}$ -->
     <g transform="translate(574.965 82.614375) scale(0.18 -0.18)">
      <defs>
       <path id="DejaVuSans-Oblique-6b" d="M 1172 4863 
L 1747 4863 
L 1197 2028 
L 3169 3500 
L 3916 3500 
L 1716 1825 
L 3322 0 
L 2625 0 
L 1131 1709 
L 800 0 
L 225 0 
L 1172 4863 
z
" transform="scale(0.015625)"/>
       <path id="DejaVuSans-Oblique-62" d="M 3169 2138 
Q 3169 2591 2961 2847 
Q 2753 3103 2388 3103 
Q 2122 3103 1889 2973 
Q 1656 2844 1484 2597 
Q 1303 2338 1198 1995 
Q 1094 1653 1094 1313 
Q 1094 881 1298 636 
Q 1503 391 1863 391 
Q 2134 391 2365 517 
Q 2597 644 2772 891 
Q 2950 1147 3059 1487 
Q 3169 1828 3169 2138 
z
M 1381 2969 
Q 1594 3256 1914 3420 
Q 2234 3584 2584 3584 
Q 3122 3584 3439 3221 
Q 3756 2859 3756 2241 
Q 3756 1734 3570 1259 
Q 3384 784 3041 416 
Q 2816 172 2522 40 
Q 2228 -91 1906 -91 
Q 1566 -91 1316 65 
Q 1066 222 909 531 
L 806 0 
L 231 0 
L 1178 4863 
L 1753 4863 
L 1381 2969 
z
" transform="scale(0.015625)"/>
       <path id="DejaVuSans-Oblique-54" d="M 378 4666 
L 4325 4666 
L 4225 4134 
L 2559 4134 
L 1759 0 
L 1125 0 
L 1925 4134 
L 275 4134 
L 378 4666 
z
" transform="scale(0.015625)"/>
       <path id="DejaVuSans-3d" d="M 678 2906 
L 4684 2906 
L 4684 2381 
L 678 2381 
L 678 2906 
z
M 678 1631 
L 4684 1631 
L 4684 1100 
L 678 1100 
L 678 1631 
z
" transform="scale(0.015625)"/>
      </defs>
      <use xlink:href="#DejaVuSans-Oblique-6b" transform="translate(0 0.015625)"/>
      <use xlink:href="#DejaVuSans-Oblique-62" transform="translate(57.910156 -16.390625) scale(0.7)"/>
      <use xlink:href="#DejaVuSans-Oblique-54" transform="translate(105.078125 0.015625)"/>
      <use xlink:href="#DejaVuSans-3d" transform="translate(185.644531 0.015625)"/>
      <use xlink:href="#DejaVuSans-30" transform="translate(288.916016 0.015625)"/>
      <use xlink:href="#DejaVuSans-2e" transform="translate(352.539062 0.015625)"/>
      <use xlink:href="#DejaVuSans-30" transform="translate(384.326172 0.015625)"/>
      <use xlink:href="#DejaVuSans-30" transform="translate(447.949219 0.015625)"/>
      <use xlink:href="#DejaVuSans-30" transform="translate(511.572266 0.015625)"/>
     </g>
    </g>
    <g id="line2d_37">
     <path d="M 524.565 102.735 
L 542.565 102.735 
L 560.565 102.735 
" style="fill: none; stroke: #ff8c00; stroke-width: 2; stroke-linecap: square"/>
    </g>
    <g id="text_19">
     <!-- $\it{k_bT= 0.001}$ -->
     <g transform="translate(574.965 109.035) scale(0.18 -0.18)">
      <use xlink:href="#DejaVuSans-Oblique-6b" transform="translate(0 0.015625)"/>
      <use xlink:href="#DejaVuSans-Oblique-62" transform="translate(57.910156 -16.390625) scale(0.7)"/>
      <use xlink:href="#DejaVuSans-Oblique-54" transform="translate(105.078125 0.015625)"/>
      <use xlink:href="#DejaVuSans-3d" transform="translate(185.644531 0.015625)"/>
      <use xlink:href="#DejaVuSans-30" transform="translate(288.916016 0.015625)"/>
      <use xlink:href="#DejaVuSans-2e" transform="translate(352.539062 0.015625)"/>
      <use xlink:href="#DejaVuSans-30" transform="translate(384.326172 0.015625)"/>
      <use xlink:href="#DejaVuSans-30" transform="translate(447.949219 0.015625)"/>
      <use xlink:href="#DejaVuSans-31" transform="translate(511.572266 0.015625)"/>
     </g>
    </g>
    <g id="line2d_38">
     <path d="M 524.565 129.155625 
L 542.565 129.155625 
L 560.565 129.155625 
" style="fill: none; stroke: #00ff00; stroke-width: 2; stroke-linecap: square"/>
    </g>
    <g id="text_20">
     <!-- $\it{k_bT= 0.010}$ -->
     <g transform="translate(574.965 135.455625) scale(0.18 -0.18)">
      <use xlink:href="#DejaVuSans-Oblique-6b" transform="translate(0 0.015625)"/>
      <use xlink:href="#DejaVuSans-Oblique-62" transform="translate(57.910156 -16.390625) scale(0.7)"/>
      <use xlink:href="#DejaVuSans-Oblique-54" transform="translate(105.078125 0.015625)"/>
      <use xlink:href="#DejaVuSans-3d" transform="translate(185.644531 0.015625)"/>
      <use xlink:href="#DejaVuSans-30" transform="translate(288.916016 0.015625)"/>
      <use xlink:href="#DejaVuSans-2e" transform="translate(352.539062 0.015625)"/>
      <use xlink:href="#DejaVuSans-30" transform="translate(384.326172 0.015625)"/>
      <use xlink:href="#DejaVuSans-31" transform="translate(447.949219 0.015625)"/>
      <use xlink:href="#DejaVuSans-30" transform="translate(511.572266 0.015625)"/>
     </g>
    </g>
    <g id="line2d_39">
     <path d="M 524.565 155.57625 
L 542.565 155.57625 
L 560.565 155.57625 
" style="fill: none; stroke: #40e0d0; stroke-width: 2; stroke-linecap: square"/>
    </g>
    <g id="text_21">
     <!-- $\it{k_bT= 0.100}$ -->
     <g transform="translate(574.965 161.87625) scale(0.18 -0.18)">
      <use xlink:href="#DejaVuSans-Oblique-6b" transform="translate(0 0.015625)"/>
      <use xlink:href="#DejaVuSans-Oblique-62" transform="translate(57.910156 -16.390625) scale(0.7)"/>
      <use xlink:href="#DejaVuSans-Oblique-54" transform="translate(105.078125 0.015625)"/>
      <use xlink:href="#DejaVuSans-3d" transform="translate(185.644531 0.015625)"/>
      <use xlink:href="#DejaVuSans-30" transform="translate(288.916016 0.015625)"/>
      <use xlink:href="#DejaVuSans-2e" transform="translate(352.539062 0.015625)"/>
      <use xlink:href="#DejaVuSans-31" transform="translate(384.326172 0.015625)"/>
      <use xlink:href="#DejaVuSans-30" transform="translate(447.949219 0.015625)"/>
      <use xlink:href="#DejaVuSans-30" transform="translate(511.572266 0.015625)"/>
     </g>
    </g>
    <g id="line2d_40">
     <path d="M 524.565 181.996875 
L 542.565 181.996875 
L 560.565 181.996875 
" style="fill: none; stroke: #00ffff; stroke-width: 2; stroke-linecap: square"/>
    </g>
    <g id="text_22">
     <!-- $\it{k_bT= 1.000}$ -->
     <g transform="translate(574.965 188.296875) scale(0.18 -0.18)">
      <use xlink:href="#DejaVuSans-Oblique-6b" transform="translate(0 0.015625)"/>
      <use xlink:href="#DejaVuSans-Oblique-62" transform="translate(57.910156 -16.390625) scale(0.7)"/>
      <use xlink:href="#DejaVuSans-Oblique-54" transform="translate(105.078125 0.015625)"/>
      <use xlink:href="#DejaVuSans-3d" transform="translate(185.644531 0.015625)"/>
      <use xlink:href="#DejaVuSans-31" transform="translate(288.916016 0.015625)"/>
      <use xlink:href="#DejaVuSans-2e" transform="translate(352.539062 0.015625)"/>
      <use xlink:href="#DejaVuSans-30" transform="translate(384.326172 0.015625)"/>
      <use xlink:href="#DejaVuSans-30" transform="translate(447.949219 0.015625)"/>
      <use xlink:href="#DejaVuSans-30" transform="translate(511.572266 0.015625)"/>
     </g>
    </g>
   </g>
  </g>
 </g>
 <defs>
  <clipPath id="p85923dfe06">
   <rect x="103.912891" y="26.28" width="590.932109" height="483.7075"/>
  </clipPath>
 </defs>
</svg>
