<?xml version="1.0" encoding="utf-8" standalone="no"?>
<!DOCTYPE svg PUBLIC "-//W3C//DTD SVG 1.1//EN"
  "http://www.w3.org/Graphics/SVG/1.1/DTD/svg11.dtd">
<svg xmlns:xlink="http://www.w3.org/1999/xlink" width="720pt" height="576pt" viewBox="0 0 720 576" xmlns="http://www.w3.org/2000/svg" version="1.1">
 <metadata>
  <rdf:RDF xmlns:dc="http://purl.org/dc/elements/1.1/" xmlns:cc="http://creativecommons.org/ns#" xmlns:rdf="http://www.w3.org/1999/02/22-rdf-syntax-ns#">
   <cc:Work>
    <dc:type rdf:resource="http://purl.org/dc/dcmitype/StillImage"/>
    <dc:date>2023-04-12T23:09:05.388855</dc:date>
    <dc:format>image/svg+xml</dc:format>
    <dc:creator>
     <cc:Agent>
      <dc:title>Matplotlib v3.7.1, https://matplotlib.org/</dc:title>
     </cc:Agent>
    </dc:creator>
   </cc:Work>
  </rdf:RDF>
 </metadata>
 <defs>
  <style type="text/css">*{stroke-linejoin: round; stroke-linecap: butt}</style>
 </defs>
 <g id="figure_1">
  <g id="patch_1">
   <path d="M 0 576 
L 720 576 
L 720 0 
L 0 0 
z
" style="fill: #ffffff"/>
  </g>
  <g id="axes_1">
   <g id="patch_2">
    <path d="M 103.912891 509.9875 
L 694.845 509.9875 
L 694.845 26.28 
L 103.912891 26.28 
z
" style="fill: #ffffff"/>
   </g>
   <g id="matplotlib.axis_1">
    <g id="xtick_1">
     <g id="line2d_1">
      <path d="M 103.912891 509.9875 
L 103.912891 26.28 
" clip-path="url(#p017358f8bb)" style="fill: none; stroke: #b0b0b0; stroke-width: 0.8; stroke-linecap: square"/>
     </g>
     <g id="line2d_2">
      <defs>
       <path id="m17a700ff82" d="M 0 0 
L 0 3.5 
" style="stroke: #000000; stroke-width: 0.8"/>
      </defs>
      <g>
       <use xlink:href="#m17a700ff82" x="103.912891" y="509.9875" style="stroke: #000000; stroke-width: 0.8"/>
      </g>
     </g>
     <g id="text_1">
      <!-- −3 -->
      <g transform="translate(90.644922 530.664688) scale(0.18 -0.18)">
       <defs>
        <path id="DejaVuSans-2212" d="M 678 2272 
L 4684 2272 
L 4684 1741 
L 678 1741 
L 678 2272 
z
" transform="scale(0.015625)"/>
        <path id="DejaVuSans-33" d="M 2597 2516 
Q 3050 2419 3304 2112 
Q 3559 1806 3559 1356 
Q 3559 666 3084 287 
Q 2609 -91 1734 -91 
Q 1441 -91 1130 -33 
Q 819 25 488 141 
L 488 750 
Q 750 597 1062 519 
Q 1375 441 1716 441 
Q 2309 441 2620 675 
Q 2931 909 2931 1356 
Q 2931 1769 2642 2001 
Q 2353 2234 1838 2234 
L 1294 2234 
L 1294 2753 
L 1863 2753 
Q 2328 2753 2575 2939 
Q 2822 3125 2822 3475 
Q 2822 3834 2567 4026 
Q 2313 4219 1838 4219 
Q 1578 4219 1281 4162 
Q 984 4106 628 3988 
L 628 4550 
Q 988 4650 1302 4700 
Q 1616 4750 1894 4750 
Q 2613 4750 3031 4423 
Q 3450 4097 3450 3541 
Q 3450 3153 3228 2886 
Q 3006 2619 2597 2516 
z
" transform="scale(0.015625)"/>
       </defs>
       <use xlink:href="#DejaVuSans-2212"/>
       <use xlink:href="#DejaVuSans-33" x="83.789062"/>
      </g>
     </g>
    </g>
    <g id="xtick_2">
     <g id="line2d_3">
      <path d="M 202.401576 509.9875 
L 202.401576 26.28 
" clip-path="url(#p017358f8bb)" style="fill: none; stroke: #b0b0b0; stroke-width: 0.8; stroke-linecap: square"/>
     </g>
     <g id="line2d_4">
      <g>
       <use xlink:href="#m17a700ff82" x="202.401576" y="509.9875" style="stroke: #000000; stroke-width: 0.8"/>
      </g>
     </g>
     <g id="text_2">
      <!-- −2 -->
      <g transform="translate(189.133607 530.664688) scale(0.18 -0.18)">
       <defs>
        <path id="DejaVuSans-32" d="M 1228 531 
L 3431 531 
L 3431 0 
L 469 0 
L 469 531 
Q 828 903 1448 1529 
Q 2069 2156 2228 2338 
Q 2531 2678 2651 2914 
Q 2772 3150 2772 3378 
Q 2772 3750 2511 3984 
Q 2250 4219 1831 4219 
Q 1534 4219 1204 4116 
Q 875 4013 500 3803 
L 500 4441 
Q 881 4594 1212 4672 
Q 1544 4750 1819 4750 
Q 2544 4750 2975 4387 
Q 3406 4025 3406 3419 
Q 3406 3131 3298 2873 
Q 3191 2616 2906 2266 
Q 2828 2175 2409 1742 
Q 1991 1309 1228 531 
z
" transform="scale(0.015625)"/>
       </defs>
       <use xlink:href="#DejaVuSans-2212"/>
       <use xlink:href="#DejaVuSans-32" x="83.789062"/>
      </g>
     </g>
    </g>
    <g id="xtick_3">
     <g id="line2d_5">
      <path d="M 300.89026 509.9875 
L 300.89026 26.28 
" clip-path="url(#p017358f8bb)" style="fill: none; stroke: #b0b0b0; stroke-width: 0.8; stroke-linecap: square"/>
     </g>
     <g id="line2d_6">
      <g>
       <use xlink:href="#m17a700ff82" x="300.89026" y="509.9875" style="stroke: #000000; stroke-width: 0.8"/>
      </g>
     </g>
     <g id="text_3">
      <!-- −1 -->
      <g transform="translate(287.622292 530.664688) scale(0.18 -0.18)">
       <defs>
        <path id="DejaVuSans-31" d="M 794 531 
L 1825 531 
L 1825 4091 
L 703 3866 
L 703 4441 
L 1819 4666 
L 2450 4666 
L 2450 531 
L 3481 531 
L 3481 0 
L 794 0 
L 794 531 
z
" transform="scale(0.015625)"/>
       </defs>
       <use xlink:href="#DejaVuSans-2212"/>
       <use xlink:href="#DejaVuSans-31" x="83.789062"/>
      </g>
     </g>
    </g>
    <g id="xtick_4">
     <g id="line2d_7">
      <path d="M 399.378945 509.9875 
L 399.378945 26.28 
" clip-path="url(#p017358f8bb)" style="fill: none; stroke: #b0b0b0; stroke-width: 0.8; stroke-linecap: square"/>
     </g>
     <g id="line2d_8">
      <g>
       <use xlink:href="#m17a700ff82" x="399.378945" y="509.9875" style="stroke: #000000; stroke-width: 0.8"/>
      </g>
     </g>
     <g id="text_4">
      <!-- 0 -->
      <g transform="translate(393.652695 530.664688) scale(0.18 -0.18)">
       <defs>
        <path id="DejaVuSans-30" d="M 2034 4250 
Q 1547 4250 1301 3770 
Q 1056 3291 1056 2328 
Q 1056 1369 1301 889 
Q 1547 409 2034 409 
Q 2525 409 2770 889 
Q 3016 1369 3016 2328 
Q 3016 3291 2770 3770 
Q 2525 4250 2034 4250 
z
M 2034 4750 
Q 2819 4750 3233 4129 
Q 3647 3509 3647 2328 
Q 3647 1150 3233 529 
Q 2819 -91 2034 -91 
Q 1250 -91 836 529 
Q 422 1150 422 2328 
Q 422 3509 836 4129 
Q 1250 4750 2034 4750 
z
" transform="scale(0.015625)"/>
       </defs>
       <use xlink:href="#DejaVuSans-30"/>
      </g>
     </g>
    </g>
    <g id="xtick_5">
     <g id="line2d_9">
      <path d="M 497.86763 509.9875 
L 497.86763 26.28 
" clip-path="url(#p017358f8bb)" style="fill: none; stroke: #b0b0b0; stroke-width: 0.8; stroke-linecap: square"/>
     </g>
     <g id="line2d_10">
      <g>
       <use xlink:href="#m17a700ff82" x="497.86763" y="509.9875" style="stroke: #000000; stroke-width: 0.8"/>
      </g>
     </g>
     <g id="text_5">
      <!-- 1 -->
      <g transform="translate(492.14138 530.664688) scale(0.18 -0.18)">
       <use xlink:href="#DejaVuSans-31"/>
      </g>
     </g>
    </g>
    <g id="xtick_6">
     <g id="line2d_11">
      <path d="M 596.356315 509.9875 
L 596.356315 26.28 
" clip-path="url(#p017358f8bb)" style="fill: none; stroke: #b0b0b0; stroke-width: 0.8; stroke-linecap: square"/>
     </g>
     <g id="line2d_12">
      <g>
       <use xlink:href="#m17a700ff82" x="596.356315" y="509.9875" style="stroke: #000000; stroke-width: 0.8"/>
      </g>
     </g>
     <g id="text_6">
      <!-- 2 -->
      <g transform="translate(590.630065 530.664688) scale(0.18 -0.18)">
       <use xlink:href="#DejaVuSans-32"/>
      </g>
     </g>
    </g>
    <g id="xtick_7">
     <g id="line2d_13">
      <path d="M 694.845 509.9875 
L 694.845 26.28 
" clip-path="url(#p017358f8bb)" style="fill: none; stroke: #b0b0b0; stroke-width: 0.8; stroke-linecap: square"/>
     </g>
     <g id="line2d_14">
      <g>
       <use xlink:href="#m17a700ff82" x="694.845" y="509.9875" style="stroke: #000000; stroke-width: 0.8"/>
      </g>
     </g>
     <g id="text_7">
      <!-- 3 -->
      <g transform="translate(689.11875 530.664688) scale(0.18 -0.18)">
       <use xlink:href="#DejaVuSans-33"/>
      </g>
     </g>
    </g>
    <g id="text_8">
     <!-- $\omega$ [-] -->
     <g transform="translate(381.468945 550.650937) scale(0.18 -0.18)">
      <defs>
       <path id="DejaVuSans-Oblique-3c9" d="M 1369 -91 
Q 72 -91 434 1766 
Q 575 2500 1256 3500 
L 1875 3500 
Q 1231 2500 1088 1750 
Q 819 397 1519 397 
Q 2166 397 2478 2078 
L 3009 2078 
Q 2669 388 3316 397 
Q 4013 403 4275 1750 
Q 4419 2500 4169 3500 
L 4788 3500 
Q 5075 2500 4934 1766 
Q 4578 -94 3278 -91 
Q 2428 -88 2503 844 
Q 2194 -91 1369 -91 
z
" transform="scale(0.015625)"/>
       <path id="Calibri-20" transform="scale(0.015625)"/>
       <path id="Calibri-5b" d="M 1684 -813 
Q 1684 -916 1661 -958 
Q 1638 -1000 1594 -1000 
L 794 -1000 
Q 756 -1000 722 -989 
Q 688 -978 659 -953 
Q 631 -928 614 -886 
Q 597 -844 597 -781 
L 597 4153 
Q 597 4213 614 4255 
Q 631 4297 659 4323 
Q 688 4350 722 4361 
Q 756 4372 794 4372 
L 1594 4372 
Q 1613 4372 1630 4362 
Q 1647 4353 1659 4328 
Q 1672 4303 1678 4267 
Q 1684 4231 1684 4178 
Q 1684 4078 1661 4034 
Q 1638 3991 1594 3991 
L 1084 3991 
L 1084 -622 
L 1594 -622 
Q 1613 -622 1630 -631 
Q 1647 -641 1659 -664 
Q 1672 -688 1678 -723 
Q 1684 -759 1684 -813 
z
" transform="scale(0.015625)"/>
       <path id="Calibri-2d" d="M 1744 1578 
Q 1744 1456 1716 1409 
Q 1688 1363 1634 1363 
L 328 1363 
Q 272 1363 244 1411 
Q 216 1459 216 1578 
Q 216 1697 244 1744 
Q 272 1791 328 1791 
L 1634 1791 
Q 1659 1791 1679 1781 
Q 1700 1772 1714 1745 
Q 1728 1719 1736 1678 
Q 1744 1638 1744 1578 
z
" transform="scale(0.015625)"/>
       <path id="Calibri-5d" d="M 1369 -781 
Q 1369 -844 1351 -886 
Q 1334 -928 1306 -953 
Q 1278 -978 1242 -989 
Q 1206 -1000 1169 -1000 
L 372 -1000 
Q 328 -1000 304 -958 
Q 281 -916 281 -813 
Q 281 -759 286 -723 
Q 291 -688 303 -664 
Q 316 -641 333 -631 
Q 350 -622 372 -622 
L 881 -622 
L 881 3991 
L 372 3991 
Q 328 3991 304 4034 
Q 281 4078 281 4178 
Q 281 4231 286 4267 
Q 291 4303 303 4328 
Q 316 4353 333 4362 
Q 350 4372 372 4372 
L 1169 4372 
Q 1206 4372 1242 4361 
Q 1278 4350 1306 4323 
Q 1334 4297 1351 4255 
Q 1369 4213 1369 4153 
L 1369 -781 
z
" transform="scale(0.015625)"/>
      </defs>
      <use xlink:href="#DejaVuSans-Oblique-3c9" transform="translate(0 0.6875)"/>
      <use xlink:href="#Calibri-20" transform="translate(83.740234 0.6875)"/>
      <use xlink:href="#Calibri-5b" transform="translate(106.347656 0.6875)"/>
      <use xlink:href="#Calibri-2d" transform="translate(137.011719 0.6875)"/>
      <use xlink:href="#Calibri-5d" transform="translate(167.626953 0.6875)"/>
     </g>
    </g>
   </g>
   <g id="matplotlib.axis_2">
    <g id="ytick_1">
     <g id="line2d_15">
      <path d="M 103.912891 509.9875 
L 694.845 509.9875 
" clip-path="url(#p017358f8bb)" style="fill: none; stroke: #b0b0b0; stroke-width: 0.8; stroke-linecap: square"/>
     </g>
     <g id="line2d_16">
      <defs>
       <path id="mfcff252b3a" d="M 0 0 
L -3.5 0 
" style="stroke: #000000; stroke-width: 0.8"/>
      </defs>
      <g>
       <use xlink:href="#mfcff252b3a" x="103.912891" y="509.9875" style="stroke: #000000; stroke-width: 0.8"/>
      </g>
     </g>
     <g id="text_9">
      <!-- 0.0 -->
      <g transform="translate(68.287266 516.826094) scale(0.18 -0.18)">
       <defs>
        <path id="DejaVuSans-2e" d="M 684 794 
L 1344 794 
L 1344 0 
L 684 0 
L 684 794 
z
" transform="scale(0.015625)"/>
       </defs>
       <use xlink:href="#DejaVuSans-30"/>
       <use xlink:href="#DejaVuSans-2e" x="63.623047"/>
       <use xlink:href="#DejaVuSans-30" x="95.410156"/>
      </g>
     </g>
    </g>
    <g id="ytick_2">
     <g id="line2d_17">
      <path d="M 103.912891 429.369583 
L 694.845 429.369583 
" clip-path="url(#p017358f8bb)" style="fill: none; stroke: #b0b0b0; stroke-width: 0.8; stroke-linecap: square"/>
     </g>
     <g id="line2d_18">
      <g>
       <use xlink:href="#mfcff252b3a" x="103.912891" y="429.369583" style="stroke: #000000; stroke-width: 0.8"/>
      </g>
     </g>
     <g id="text_10">
      <!-- 0.2 -->
      <g transform="translate(68.287266 436.208177) scale(0.18 -0.18)">
       <use xlink:href="#DejaVuSans-30"/>
       <use xlink:href="#DejaVuSans-2e" x="63.623047"/>
       <use xlink:href="#DejaVuSans-32" x="95.410156"/>
      </g>
     </g>
    </g>
    <g id="ytick_3">
     <g id="line2d_19">
      <path d="M 103.912891 348.751667 
L 694.845 348.751667 
" clip-path="url(#p017358f8bb)" style="fill: none; stroke: #b0b0b0; stroke-width: 0.8; stroke-linecap: square"/>
     </g>
     <g id="line2d_20">
      <g>
       <use xlink:href="#mfcff252b3a" x="103.912891" y="348.751667" style="stroke: #000000; stroke-width: 0.8"/>
      </g>
     </g>
     <g id="text_11">
      <!-- 0.4 -->
      <g transform="translate(68.287266 355.59026) scale(0.18 -0.18)">
       <defs>
        <path id="DejaVuSans-34" d="M 2419 4116 
L 825 1625 
L 2419 1625 
L 2419 4116 
z
M 2253 4666 
L 3047 4666 
L 3047 1625 
L 3713 1625 
L 3713 1100 
L 3047 1100 
L 3047 0 
L 2419 0 
L 2419 1100 
L 313 1100 
L 313 1709 
L 2253 4666 
z
" transform="scale(0.015625)"/>
       </defs>
       <use xlink:href="#DejaVuSans-30"/>
       <use xlink:href="#DejaVuSans-2e" x="63.623047"/>
       <use xlink:href="#DejaVuSans-34" x="95.410156"/>
      </g>
     </g>
    </g>
    <g id="ytick_4">
     <g id="line2d_21">
      <path d="M 103.912891 268.13375 
L 694.845 268.13375 
" clip-path="url(#p017358f8bb)" style="fill: none; stroke: #b0b0b0; stroke-width: 0.8; stroke-linecap: square"/>
     </g>
     <g id="line2d_22">
      <g>
       <use xlink:href="#mfcff252b3a" x="103.912891" y="268.13375" style="stroke: #000000; stroke-width: 0.8"/>
      </g>
     </g>
     <g id="text_12">
      <!-- 0.6 -->
      <g transform="translate(68.287266 274.972344) scale(0.18 -0.18)">
       <defs>
        <path id="DejaVuSans-36" d="M 2113 2584 
Q 1688 2584 1439 2293 
Q 1191 2003 1191 1497 
Q 1191 994 1439 701 
Q 1688 409 2113 409 
Q 2538 409 2786 701 
Q 3034 994 3034 1497 
Q 3034 2003 2786 2293 
Q 2538 2584 2113 2584 
z
M 3366 4563 
L 3366 3988 
Q 3128 4100 2886 4159 
Q 2644 4219 2406 4219 
Q 1781 4219 1451 3797 
Q 1122 3375 1075 2522 
Q 1259 2794 1537 2939 
Q 1816 3084 2150 3084 
Q 2853 3084 3261 2657 
Q 3669 2231 3669 1497 
Q 3669 778 3244 343 
Q 2819 -91 2113 -91 
Q 1303 -91 875 529 
Q 447 1150 447 2328 
Q 447 3434 972 4092 
Q 1497 4750 2381 4750 
Q 2619 4750 2861 4703 
Q 3103 4656 3366 4563 
z
" transform="scale(0.015625)"/>
       </defs>
       <use xlink:href="#DejaVuSans-30"/>
       <use xlink:href="#DejaVuSans-2e" x="63.623047"/>
       <use xlink:href="#DejaVuSans-36" x="95.410156"/>
      </g>
     </g>
    </g>
    <g id="ytick_5">
     <g id="line2d_23">
      <path d="M 103.912891 187.515833 
L 694.845 187.515833 
" clip-path="url(#p017358f8bb)" style="fill: none; stroke: #b0b0b0; stroke-width: 0.8; stroke-linecap: square"/>
     </g>
     <g id="line2d_24">
      <g>
       <use xlink:href="#mfcff252b3a" x="103.912891" y="187.515833" style="stroke: #000000; stroke-width: 0.8"/>
      </g>
     </g>
     <g id="text_13">
      <!-- 0.8 -->
      <g transform="translate(68.287266 194.354427) scale(0.18 -0.18)">
       <defs>
        <path id="DejaVuSans-38" d="M 2034 2216 
Q 1584 2216 1326 1975 
Q 1069 1734 1069 1313 
Q 1069 891 1326 650 
Q 1584 409 2034 409 
Q 2484 409 2743 651 
Q 3003 894 3003 1313 
Q 3003 1734 2745 1975 
Q 2488 2216 2034 2216 
z
M 1403 2484 
Q 997 2584 770 2862 
Q 544 3141 544 3541 
Q 544 4100 942 4425 
Q 1341 4750 2034 4750 
Q 2731 4750 3128 4425 
Q 3525 4100 3525 3541 
Q 3525 3141 3298 2862 
Q 3072 2584 2669 2484 
Q 3125 2378 3379 2068 
Q 3634 1759 3634 1313 
Q 3634 634 3220 271 
Q 2806 -91 2034 -91 
Q 1263 -91 848 271 
Q 434 634 434 1313 
Q 434 1759 690 2068 
Q 947 2378 1403 2484 
z
M 1172 3481 
Q 1172 3119 1398 2916 
Q 1625 2713 2034 2713 
Q 2441 2713 2670 2916 
Q 2900 3119 2900 3481 
Q 2900 3844 2670 4047 
Q 2441 4250 2034 4250 
Q 1625 4250 1398 4047 
Q 1172 3844 1172 3481 
z
" transform="scale(0.015625)"/>
       </defs>
       <use xlink:href="#DejaVuSans-30"/>
       <use xlink:href="#DejaVuSans-2e" x="63.623047"/>
       <use xlink:href="#DejaVuSans-38" x="95.410156"/>
      </g>
     </g>
    </g>
    <g id="ytick_6">
     <g id="line2d_25">
      <path d="M 103.912891 106.897917 
L 694.845 106.897917 
" clip-path="url(#p017358f8bb)" style="fill: none; stroke: #b0b0b0; stroke-width: 0.8; stroke-linecap: square"/>
     </g>
     <g id="line2d_26">
      <g>
       <use xlink:href="#mfcff252b3a" x="103.912891" y="106.897917" style="stroke: #000000; stroke-width: 0.8"/>
      </g>
     </g>
     <g id="text_14">
      <!-- 1.0 -->
      <g transform="translate(68.287266 113.73651) scale(0.18 -0.18)">
       <use xlink:href="#DejaVuSans-31"/>
       <use xlink:href="#DejaVuSans-2e" x="63.623047"/>
       <use xlink:href="#DejaVuSans-30" x="95.410156"/>
      </g>
     </g>
    </g>
    <g id="ytick_7">
     <g id="line2d_27">
      <path d="M 103.912891 26.28 
L 694.845 26.28 
" clip-path="url(#p017358f8bb)" style="fill: none; stroke: #b0b0b0; stroke-width: 0.8; stroke-linecap: square"/>
     </g>
     <g id="line2d_28">
      <g>
       <use xlink:href="#mfcff252b3a" x="103.912891" y="26.28" style="stroke: #000000; stroke-width: 0.8"/>
      </g>
     </g>
     <g id="text_15">
      <!-- 1.2 -->
      <g transform="translate(68.287266 33.118594) scale(0.18 -0.18)">
       <use xlink:href="#DejaVuSans-31"/>
       <use xlink:href="#DejaVuSans-2e" x="63.623047"/>
       <use xlink:href="#DejaVuSans-32" x="95.410156"/>
      </g>
     </g>
    </g>
    <g id="text_16">
     <!-- $\rho$($\omega$) -->
     <g transform="translate(19.567266 264.35375) scale(0.18 -0.18)">
      <defs>
       <path id="DejaVuSans-Oblique-3c1" d="M 1203 2875 
Q 1453 3194 1981 3475 
Q 2188 3584 2756 3584 
Q 3394 3584 3694 3078 
Q 3994 2572 3834 1747 
Q 3672 922 3175 415 
Q 2678 -91 2041 -91 
Q 1656 -91 1409 63 
Q 1163 213 1044 525 
L 681 -1331 
L 103 -1331 
L 697 1716 
Q 838 2438 1203 2875 
z
M 3238 1747 
Q 3359 2381 3169 2744 
Q 2978 3103 2522 3103 
Q 2066 3103 1734 2744 
Q 1403 2381 1281 1747 
Q 1156 1113 1347 750 
Q 1538 391 1994 391 
Q 2450 391 2781 750 
Q 3113 1113 3238 1747 
z
" transform="scale(0.015625)"/>
       <path id="Calibri-28" d="M 1547 4306 
Q 1250 3678 1104 3017 
Q 959 2356 959 1688 
Q 959 1016 1107 356 
Q 1256 -303 1541 -938 
Q 1556 -975 1557 -1001 
Q 1559 -1028 1537 -1045 
Q 1516 -1063 1470 -1070 
Q 1425 -1078 1347 -1078 
Q 1291 -1078 1250 -1075 
Q 1209 -1072 1179 -1062 
Q 1150 -1053 1131 -1040 
Q 1113 -1028 1103 -1013 
Q 934 -694 806 -367 
Q 678 -41 590 296 
Q 503 634 459 979 
Q 416 1325 416 1678 
Q 416 2031 464 2375 
Q 513 2719 602 3058 
Q 691 3397 819 3725 
Q 947 4053 1106 4375 
Q 1109 4388 1123 4397 
Q 1138 4406 1163 4415 
Q 1188 4425 1231 4429 
Q 1275 4434 1344 4434 
Q 1416 4434 1459 4425 
Q 1503 4416 1528 4400 
Q 1553 4384 1556 4359 
Q 1559 4334 1547 4306 
z
" transform="scale(0.015625)"/>
       <path id="Calibri-29" d="M 1522 1678 
Q 1522 1325 1478 979 
Q 1434 634 1346 296 
Q 1259 -41 1132 -367 
Q 1006 -694 838 -1013 
Q 828 -1028 809 -1040 
Q 791 -1053 761 -1062 
Q 731 -1072 690 -1075 
Q 650 -1078 594 -1078 
Q 513 -1078 467 -1070 
Q 422 -1063 401 -1045 
Q 381 -1028 382 -1001 
Q 384 -975 400 -938 
Q 688 -306 834 355 
Q 981 1016 981 1688 
Q 981 2356 834 3017 
Q 688 3678 394 4306 
Q 381 4334 384 4359 
Q 388 4384 413 4400 
Q 438 4416 481 4425 
Q 525 4434 597 4434 
Q 663 4434 706 4429 
Q 750 4425 776 4415 
Q 803 4406 815 4397 
Q 828 4388 834 4375 
Q 1156 3734 1339 3057 
Q 1522 2381 1522 1678 
z
" transform="scale(0.015625)"/>
      </defs>
      <use xlink:href="#DejaVuSans-Oblique-3c1" transform="translate(0 0.71875)"/>
      <use xlink:href="#Calibri-28" transform="translate(63.476562 0.71875)"/>
      <use xlink:href="#DejaVuSans-Oblique-3c9" transform="translate(93.798828 0.71875)"/>
      <use xlink:href="#Calibri-29" transform="translate(177.539062 0.71875)"/>
     </g>
    </g>
   </g>
   <g id="line2d_29">
    <path d="M 103.912891 505.752932 
L 129.913903 504.906486 
L 151.778391 503.982657 
L 170.688219 502.96553 
L 186.643386 501.893417 
L 200.825757 500.721769 
L 213.235331 499.476531 
L 224.463041 498.122478 
L 234.508887 496.678874 
L 243.372868 495.177423 
L 251.054986 493.663653 
L 258.146171 492.053746 
L 264.646424 490.36287 
L 270.555745 488.613193 
L 276.465067 486.623539 
L 281.783456 484.590756 
L 286.510912 482.558026 
L 291.238369 480.277635 
L 295.374894 478.047354 
L 299.511419 475.564 
L 303.647944 472.789186 
L 307.193536 470.144441 
L 310.739129 467.218367 
L 314.284722 463.971476 
L 317.239382 460.987531 
L 320.194043 457.717832 
L 323.148703 454.12687 
L 326.103364 450.173877 
L 329.058024 445.811981 
L 332.012685 440.987221 
L 334.967345 435.637432 
L 337.331074 430.931801 
L 339.694802 425.802922 
L 342.058531 420.204283 
L 344.422259 414.083981 
L 346.785988 407.384263 
L 349.149716 400.041142 
L 351.513444 391.984153 
L 353.877173 383.136352 
L 356.240901 373.414716 
L 358.60463 362.731154 
L 360.968358 350.99444 
L 363.332087 338.113472 
L 365.695815 324.002402 
L 368.059544 308.588305 
L 370.423272 291.822161 
L 372.787 273.693947 
L 375.741661 249.200103 
L 379.287254 217.528986 
L 388.151235 136.262114 
L 389.924032 122.023665 
L 391.696828 109.377411 
L 392.878692 102.040789 
L 394.060556 95.718485 
L 395.242421 90.517775 
L 396.424285 86.530736 
L 397.015217 85.015986 
L 397.606149 83.830334 
L 398.197081 82.979382 
L 398.788013 82.467177 
L 399.378945 82.296169 
L 399.969877 82.467177 
L 400.56081 82.979382 
L 401.151742 83.830334 
L 401.742674 85.015986 
L 402.333606 86.530736 
L 403.51547 90.517775 
L 404.697334 95.718485 
L 405.879199 102.040789 
L 407.061063 109.377411 
L 408.833859 122.023665 
L 410.606655 136.262114 
L 412.970384 156.990363 
L 417.697841 201.05126 
L 421.834365 238.884983 
L 424.789026 264.131366 
L 427.743687 287.417074 
L 430.107415 304.524716 
L 432.471143 320.27346 
L 434.834872 334.704167 
L 437.1986 347.884964 
L 439.562329 359.899301 
L 441.926057 370.837535 
L 444.289786 380.79123 
L 446.653514 389.849486 
L 449.017242 398.096716 
L 451.380971 405.611443 
L 453.744699 412.465763 
L 456.108428 418.725266 
L 458.472156 424.449234 
L 460.835885 429.69099 
L 463.790545 435.637432 
L 466.745206 440.987221 
L 469.699866 445.811981 
L 472.654527 450.173877 
L 475.609187 454.12687 
L 478.563848 457.717832 
L 481.518509 460.987531 
L 484.473169 463.971476 
L 488.018762 467.218367 
L 491.564354 470.144441 
L 495.109947 472.789186 
L 498.65554 475.186422 
L 502.792064 477.708909 
L 506.928589 479.973231 
L 511.656046 482.287284 
L 516.383503 484.348992 
L 521.701892 486.409729 
L 527.020281 488.235764 
L 532.929602 490.030274 
L 539.429855 491.762742 
L 546.521041 493.410574 
L 554.203158 494.958428 
L 562.476207 496.397227 
L 571.931121 497.804506 
L 581.976967 499.074891 
L 593.204677 500.27466 
L 606.205184 501.433673 
L 620.978486 502.516909 
L 637.524585 503.503752 
L 657.025345 504.435836 
L 679.480765 505.280892 
L 694.845 505.752932 
L 694.845 505.752932 
" clip-path="url(#p017358f8bb)" style="fill: none; stroke-dasharray: 14.8,6.4; stroke-dashoffset: 0; stroke: #000000; stroke-width: 4"/>
   </g>
   <g id="line2d_30">
    <path d="M 103.912891 495.458375 
L 107.458483 494.926502 
L 110.413144 494.232442 
L 116.913397 492.405288 
L 119.868058 491.921147 
L 122.822718 491.722349 
L 125.186447 491.502023 
L 127.550175 490.986569 
L 131.6867 489.933637 
L 134.050428 489.587532 
L 142.323478 488.606249 
L 145.278138 488.051454 
L 150.596527 486.84026 
L 152.960256 486.020266 
L 156.505848 484.817379 
L 158.869577 483.900132 
L 164.187966 481.564822 
L 168.324491 480.207255 
L 169.506355 479.506097 
L 171.279151 478.115549 
L 173.051947 476.475612 
L 177.188472 472.350883 
L 178.370336 471.603084 
L 179.552201 471.198822 
L 181.915929 470.595926 
L 185.461522 469.169153 
L 190.188979 468.150246 
L 191.961775 467.291266 
L 194.916435 465.432795 
L 200.234824 461.983693 
L 202.007621 461.277346 
L 203.189485 460.807923 
L 204.962281 459.809628 
L 208.507874 457.721503 
L 209.689738 456.588783 
L 211.462535 454.42072 
L 215.008127 449.714338 
L 216.189991 448.957886 
L 217.371856 448.615708 
L 218.55372 448.324075 
L 219.735584 447.717441 
L 222.099312 445.958305 
L 222.690245 445.756762 
L 225.053973 445.43684 
L 225.644905 444.996497 
L 226.235837 444.328431 
L 229.78143 439.461311 
L 230.963294 438.463167 
L 231.554226 438.183871 
L 232.73609 438.047798 
L 233.917955 437.92804 
L 234.508887 437.683786 
L 235.690751 436.80337 
L 236.872615 435.82941 
L 237.463547 435.507651 
L 238.054479 435.357275 
L 238.645412 435.384121 
L 241.00914 436.039314 
L 242.781936 436.080034 
L 243.963801 436.005874 
L 244.554733 435.872717 
L 245.145665 435.503882 
L 245.736597 434.77059 
L 247.509393 431.559585 
L 248.100325 431.032788 
L 248.691257 430.946281 
L 249.873122 431.353944 
L 251.054986 431.987117 
L 251.645918 432.532345 
L 254.009646 435.420618 
L 254.600579 435.784647 
L 255.191511 435.963236 
L 255.782443 435.930086 
L 256.373375 435.632717 
L 257.555239 434.38065 
L 258.146171 433.715989 
L 258.737103 433.27726 
L 259.328035 433.20886 
L 259.918968 433.532103 
L 261.100832 434.657088 
L 261.691764 434.983352 
L 262.282696 434.993233 
L 263.46456 434.580391 
L 264.055492 434.573957 
L 264.646424 434.820711 
L 265.828289 435.539171 
L 267.601085 436.246035 
L 268.782949 437.095976 
L 269.373881 437.33059 
L 269.964813 437.288865 
L 270.555745 437.012448 
L 271.73761 436.056011 
L 272.328542 435.544767 
L 272.919474 435.195118 
L 273.510406 435.186329 
L 274.101338 435.612349 
L 275.283202 437.125008 
L 275.874134 437.444034 
L 276.465067 437.085607 
L 277.646931 435.343782 
L 278.237863 434.92068 
L 278.828795 435.150886 
L 279.419727 435.952042 
L 280.601591 438.098232 
L 281.192523 438.897818 
L 281.783456 439.388539 
L 282.374388 439.691613 
L 282.96532 440.137796 
L 283.556252 440.992386 
L 284.738116 442.990789 
L 287.101845 445.660881 
L 287.692777 445.79846 
L 288.874641 445.54058 
L 290.056505 445.385549 
L 290.647437 444.979551 
L 291.829301 443.614528 
L 292.420234 442.858064 
L 293.011166 441.903998 
L 294.19303 439.452331 
L 294.783962 438.702607 
L 295.374894 438.558355 
L 295.965826 438.867405 
L 297.14769 439.793584 
L 297.738622 439.809956 
L 298.329555 439.460132 
L 300.693283 436.989094 
L 301.284215 435.43306 
L 302.466079 431.108904 
L 303.057011 429.839835 
L 303.647944 429.611767 
L 304.238876 430.107364 
L 304.829808 430.960262 
L 305.42074 432.439931 
L 308.3754 443.254032 
L 309.557265 446.254569 
L 310.148197 447.376136 
L 310.739129 447.979227 
L 311.330061 447.895341 
L 312.511925 446.648669 
L 313.693789 445.339036 
L 314.284722 444.443693 
L 314.875654 443.918917 
L 315.466586 444.373806 
L 316.64845 447.110248 
L 317.239382 447.84617 
L 317.830314 448.207502 
L 318.421246 448.299089 
L 319.012178 447.327965 
L 319.603111 445.43025 
L 320.194043 444.06661 
L 320.784975 444.018207 
L 321.375907 444.437631 
L 321.966839 444.06732 
L 322.557771 443.040591 
L 323.148703 442.693424 
L 324.330567 444.085201 
L 324.9215 444.297502 
L 325.512432 444.022891 
L 326.103364 442.6648 
L 326.694296 440.776299 
L 327.285228 439.816226 
L 327.87616 439.595742 
L 328.467092 439.766254 
L 329.058024 440.303818 
L 330.239889 439.3016 
L 330.830821 439.916707 
L 332.012685 442.358181 
L 332.603617 443.946786 
L 333.785481 451.696201 
L 334.376413 454.071148 
L 334.967345 454.852098 
L 335.558277 454.426333 
L 336.740142 451.824857 
L 337.331074 451.415216 
L 337.922006 451.809709 
L 339.10387 453.082319 
L 339.694802 453.905341 
L 340.876666 456.389321 
L 341.467599 457.354865 
L 342.058531 457.238962 
L 342.649463 455.128524 
L 343.240395 451.99123 
L 343.831327 450.569759 
L 345.013191 454.680403 
L 346.195055 457.00264 
L 346.785988 457.044237 
L 347.967852 457.729241 
L 348.558784 456.653569 
L 349.149716 453.998917 
L 349.740648 452.77938 
L 350.33158 451.21597 
L 350.922512 447.654641 
L 351.513444 447.246316 
L 352.695309 450.151842 
L 354.468105 457.208323 
L 355.059037 457.10141 
L 355.649969 458.295523 
L 356.240901 461.633024 
L 356.831833 463.495099 
L 357.422766 463.160944 
L 358.013698 456.891226 
L 358.60463 452.368114 
L 359.195562 454.01314 
L 359.786494 457.543197 
L 360.377426 460.145906 
L 360.968358 460.730568 
L 361.55929 459.339239 
L 362.150222 455.692878 
L 362.741155 453.436609 
L 363.332087 454.330587 
L 363.923019 453.836992 
L 364.513951 453.552859 
L 365.104883 450.396782 
L 365.695815 448.721058 
L 366.286747 447.384524 
L 366.877679 448.308503 
L 367.468611 452.234642 
L 368.059544 455.266917 
L 368.650476 455.013662 
L 369.241408 448.917979 
L 369.83234 444.691871 
L 370.423272 438.318321 
L 371.014204 442.771183 
L 371.605136 448.297307 
L 372.196068 449.4612 
L 372.787 451.175696 
L 373.377932 453.374342 
L 373.968865 453.833235 
L 374.559797 443.329725 
L 375.150729 440.96763 
L 375.741661 441.636705 
L 376.332593 442.779785 
L 376.923525 431.264861 
L 377.514457 426.627824 
L 378.105389 441.937142 
L 378.696321 453.182248 
L 379.287254 446.979632 
L 379.878186 442.809393 
L 380.469118 454.50964 
L 381.06005 449.7396 
L 381.650982 430.517197 
L 382.241914 440.283107 
L 382.832846 432.29417 
L 383.423778 427.443769 
L 384.01471 408.646889 
L 384.605643 425.273991 
L 385.196575 421.571599 
L 385.787507 401.930012 
L 386.378439 397.35214 
L 386.969371 355.272674 
L 387.560303 411.939328 
L 388.151235 434.201911 
L 388.742167 414.594673 
L 389.333099 414.675651 
L 389.924032 398.388796 
L 390.514964 393.138963 
L 391.105896 372.618892 
L 391.696828 362.93038 
L 392.28776 343.477789 
L 392.878692 340.133757 
L 393.469624 341.030915 
L 394.060556 320.259039 
L 395.242421 226.468456 
L 395.833353 234.948548 
L 396.424285 248.069227 
L 397.015217 188.677017 
L 397.606149 146.234131 
L 398.197081 112.070844 
L 398.788013 90.803389 
L 399.378945 83.141711 
L 399.969877 88.024295 
L 400.56081 106.503733 
L 401.151742 134.425845 
L 401.742674 127.984542 
L 402.924538 215.659785 
L 404.106402 303.999934 
L 404.697334 366.972167 
L 405.288266 326.071801 
L 405.879199 333.50511 
L 406.470131 320.47518 
L 407.061063 367.392568 
L 407.651995 359.446612 
L 408.242927 385.118474 
L 408.833859 374.066329 
L 409.424791 378.234924 
L 410.015723 395.397347 
L 410.606655 404.865304 
L 411.197587 417.812315 
L 411.78852 424.170999 
L 412.379452 399.48767 
L 412.970384 414.708395 
L 413.561316 423.166847 
L 414.152248 421.84851 
L 414.74318 437.273962 
L 415.334112 420.210488 
L 415.925044 408.455017 
L 416.515976 418.154544 
L 417.106909 418.57341 
L 417.697841 440.143561 
L 418.288773 443.359325 
L 418.879705 444.309279 
L 420.061569 438.91488 
L 420.652501 441.743747 
L 421.243433 440.04241 
L 422.425298 448.293723 
L 423.01623 449.761234 
L 423.607162 454.212221 
L 424.198094 453.84644 
L 424.789026 459.6085 
L 425.379958 457.808672 
L 425.97089 451.743444 
L 426.561822 458.123768 
L 427.152754 463.263784 
L 428.334619 450.523419 
L 428.925551 448.31999 
L 429.516483 452.950554 
L 430.107415 452.969971 
L 430.698347 451.768936 
L 431.289279 452.250714 
L 431.880211 450.127765 
L 432.471143 451.261963 
L 433.062076 453.643367 
L 433.653008 456.763151 
L 434.24394 457.969773 
L 434.834872 457.381191 
L 435.425804 456.087802 
L 436.607668 451.311973 
L 437.1986 454.962043 
L 437.789532 455.771715 
L 438.380465 453.137445 
L 438.971397 451.031417 
L 439.562329 453.979407 
L 440.153261 456.138312 
L 440.744193 455.469463 
L 441.335125 458.891289 
L 441.926057 461.100032 
L 442.516989 462.501472 
L 443.107921 464.303989 
L 443.698854 463.605749 
L 444.289786 462.566652 
L 444.880718 463.314411 
L 445.47165 464.659211 
L 446.062582 463.953901 
L 447.244446 461.660674 
L 447.835378 461.052239 
L 448.42631 459.520001 
L 449.017242 457.52254 
L 449.608175 456.697933 
L 450.199107 457.686838 
L 450.790039 457.62229 
L 451.971903 451.995185 
L 452.562835 450.95555 
L 453.744699 453.263697 
L 454.335631 453.603306 
L 454.926564 452.905088 
L 455.517496 449.986832 
L 456.69936 438.560176 
L 457.290292 439.936865 
L 457.881224 444.306231 
L 458.472156 447.470952 
L 459.063088 448.461798 
L 460.244953 446.170791 
L 460.835885 445.836624 
L 461.426817 446.147082 
L 462.608681 444.765164 
L 463.199613 444.539255 
L 464.381477 442.371966 
L 464.972409 442.879122 
L 465.563342 445.368542 
L 466.154274 448.62435 
L 466.745206 451.203895 
L 467.336138 452.532374 
L 467.92707 453.518704 
L 468.518002 454.053004 
L 469.108934 453.848059 
L 469.699866 452.82255 
L 470.881731 450.005706 
L 471.472663 449.422015 
L 472.654527 449.370323 
L 474.427323 447.729737 
L 475.609187 447.029311 
L 476.20012 446.690596 
L 476.791052 446.74192 
L 477.381984 447.17997 
L 477.972916 447.801797 
L 478.563848 448.602559 
L 480.336644 451.779131 
L 480.927576 451.56411 
L 482.109441 449.929553 
L 482.700373 449.745704 
L 483.291305 450.0844 
L 483.882237 450.207979 
L 484.473169 449.910859 
L 485.064101 449.950515 
L 486.245965 450.923817 
L 488.018762 451.544455 
L 488.609694 451.356628 
L 489.200626 450.977095 
L 489.791558 450.306274 
L 490.973422 448.349566 
L 491.564354 447.79529 
L 492.155286 447.626308 
L 492.746219 447.691299 
L 493.337151 447.498161 
L 493.928083 446.390626 
L 494.519015 444.114453 
L 495.700879 438.806719 
L 496.291811 437.906572 
L 496.882743 438.343933 
L 498.064608 440.148419 
L 498.65554 440.572325 
L 499.246472 440.407789 
L 499.837404 439.624534 
L 501.019268 436.896795 
L 501.6102 436.037307 
L 502.201132 436.189924 
L 505.155793 439.959584 
L 505.746725 439.888369 
L 506.337657 439.307354 
L 507.519521 437.869996 
L 508.701386 436.638127 
L 509.292318 436.311295 
L 509.88325 436.697328 
L 511.065114 438.887301 
L 511.656046 439.522534 
L 512.246978 439.428426 
L 512.83791 438.785966 
L 514.019775 437.257062 
L 515.201639 436.087606 
L 515.792571 435.680887 
L 516.383503 435.451215 
L 518.747231 435.127804 
L 519.338164 435.204251 
L 519.929096 435.63019 
L 521.11096 436.76815 
L 521.701892 436.953909 
L 522.292824 436.880255 
L 522.883756 436.615848 
L 525.838417 434.51638 
L 527.611213 433.877956 
L 528.202145 433.453833 
L 528.793077 432.79096 
L 530.565874 429.978432 
L 531.156806 429.539395 
L 531.747738 429.688813 
L 532.33867 430.29686 
L 535.29333 434.324711 
L 535.884263 434.847638 
L 536.475195 435.200626 
L 537.657059 435.487053 
L 538.838923 435.654264 
L 539.429855 435.606472 
L 540.020787 435.272289 
L 540.611719 434.593278 
L 541.793584 432.785052 
L 542.384516 432.117384 
L 542.975448 431.810184 
L 543.56638 431.845167 
L 544.748244 432.24477 
L 545.339176 432.197281 
L 545.930108 431.857877 
L 547.111973 430.578481 
L 548.293837 428.893999 
L 549.475701 426.68511 
L 550.657565 424.448938 
L 551.248497 423.730815 
L 551.83943 423.427283 
L 552.430362 423.551538 
L 553.021294 424.13101 
L 553.612226 425.200344 
L 554.79409 428.479642 
L 555.975954 432.04343 
L 557.157819 434.963522 
L 558.339683 437.048176 
L 558.930615 437.686713 
L 559.521547 438.064218 
L 560.112479 438.247086 
L 561.294343 438.238697 
L 562.476207 437.832606 
L 563.658072 437.247477 
L 564.249004 437.075668 
L 564.839936 437.079198 
L 565.430868 437.276802 
L 566.0218 437.654629 
L 567.203664 438.844529 
L 568.976461 440.911537 
L 570.158325 441.889116 
L 571.340189 442.63403 
L 571.931121 442.895912 
L 572.522053 442.995879 
L 573.112985 442.89565 
L 574.885782 442.114644 
L 575.476714 442.04279 
L 576.067646 442.125204 
L 577.24951 442.639532 
L 578.431374 443.529605 
L 580.204171 445.005287 
L 581.386035 445.647145 
L 585.52256 447.605501 
L 586.704424 448.270091 
L 590.250017 450.5642 
L 594.386541 452.667026 
L 595.568406 453.679361 
L 597.341202 455.579754 
L 599.113998 457.802911 
L 602.659591 462.633749 
L 603.841455 463.511036 
L 605.023319 463.982059 
L 606.796116 464.629967 
L 608.568912 465.617634 
L 611.523573 467.408856 
L 613.887301 468.799546 
L 617.432894 471.202546 
L 619.796622 472.276926 
L 622.160351 473.108141 
L 624.524079 473.928577 
L 625.705943 474.502674 
L 626.887807 475.289711 
L 630.4334 477.937407 
L 631.615264 478.456403 
L 632.797129 478.739446 
L 635.160857 479.122297 
L 636.342721 479.557631 
L 638.115517 480.584389 
L 640.479246 482.001411 
L 642.842974 483.057034 
L 646.979499 484.534178 
L 654.661617 487.05259 
L 660.570938 488.132254 
L 662.934666 489.047157 
L 665.889327 490.175094 
L 671.207716 491.752241 
L 676.526105 493.256372 
L 680.071697 494.264456 
L 683.61729 494.954406 
L 690.117543 496.159861 
L 694.845 497.022501 
L 694.845 497.022501 
" clip-path="url(#p017358f8bb)" style="fill: none; stroke: #dc143c; stroke-width: 2; stroke-linecap: square"/>
   </g>
   <g id="line2d_31">
    <path d="M 103.912891 495.52994 
L 107.458483 494.999197 
L 109.822212 494.455054 
L 112.776872 493.514074 
L 115.731533 492.577595 
L 118.095261 492.042667 
L 120.45899 491.749792 
L 125.777379 491.417232 
L 128.141107 490.860463 
L 131.6867 489.997454 
L 134.050428 489.679558 
L 141.141614 488.924014 
L 144.687206 488.194331 
L 150.596527 486.686881 
L 159.460509 483.565729 
L 163.006102 482.059441 
L 165.36983 481.351406 
L 167.733558 480.633513 
L 168.915423 480.054693 
L 170.097287 479.249492 
L 171.870083 477.708838 
L 173.64288 475.842417 
L 176.59754 472.632627 
L 177.779404 471.749103 
L 178.961269 471.272295 
L 183.097793 470.359892 
L 185.461522 469.442587 
L 189.598046 468.258415 
L 191.370843 467.433769 
L 196.689232 464.51846 
L 199.05296 462.99828 
L 200.825757 461.812295 
L 204.962281 459.493139 
L 209.098806 456.83873 
L 210.28067 455.720831 
L 211.462535 454.389096 
L 212.644399 452.813566 
L 214.417195 450.237783 
L 215.599059 448.941965 
L 216.780924 448.185865 
L 219.735584 447.097434 
L 222.099312 445.487216 
L 222.690245 445.334965 
L 223.872109 445.43472 
L 224.463041 445.491358 
L 225.053973 445.394326 
L 225.644905 445.069949 
L 226.235837 444.511799 
L 228.008634 442.133475 
L 229.190498 440.694466 
L 230.372362 439.527177 
L 230.963294 439.069592 
L 231.554226 438.75706 
L 232.73609 438.56734 
L 233.917955 438.429692 
L 234.508887 438.159548 
L 235.690751 437.195112 
L 236.872615 436.163841 
L 237.463547 435.829412 
L 238.054479 435.671788 
L 238.645412 435.690725 
L 240.418208 436.137097 
L 241.600072 436.040552 
L 242.781936 435.889729 
L 244.554733 435.940215 
L 245.145665 435.672375 
L 245.736597 435.017796 
L 248.100325 431.169567 
L 248.691257 430.917664 
L 249.873122 430.900538 
L 250.464054 430.954188 
L 251.054986 431.14988 
L 251.645918 431.613649 
L 252.23685 432.378499 
L 254.009646 435.200711 
L 254.600579 435.865422 
L 255.191511 436.290755 
L 255.782443 436.429558 
L 256.373375 436.235366 
L 256.964307 435.730968 
L 258.146171 434.360789 
L 258.737103 433.899266 
L 259.328035 433.815534 
L 259.918968 434.130116 
L 261.100832 435.189806 
L 261.691764 435.43836 
L 262.282696 435.336574 
L 264.055492 434.347933 
L 264.646424 434.357889 
L 266.419221 434.949366 
L 267.010153 435.199337 
L 267.601085 435.624827 
L 268.782949 436.792749 
L 269.373881 437.116492 
L 269.964813 437.115371 
L 270.555745 436.838957 
L 271.73761 435.745034 
L 272.328542 435.11736 
L 272.919474 434.662517 
L 273.510406 434.575563 
L 274.101338 434.939866 
L 275.283202 436.390629 
L 275.874134 436.735238 
L 276.465067 436.426181 
L 277.646931 434.843762 
L 278.237863 434.604319 
L 278.828795 435.073172 
L 280.010659 437.273555 
L 280.601591 438.352795 
L 281.192523 439.141788 
L 281.783456 439.617162 
L 282.374388 439.913844 
L 282.96532 440.356444 
L 283.556252 441.20043 
L 284.738116 443.283848 
L 286.510912 445.689713 
L 287.101845 446.250527 
L 287.692777 446.353195 
L 289.465573 445.873541 
L 290.056505 445.759951 
L 290.647437 445.386912 
L 291.238369 444.713663 
L 292.420234 442.921521 
L 293.602098 440.526022 
L 294.19303 439.322104 
L 294.783962 438.591399 
L 295.374894 438.428081 
L 295.965826 438.70459 
L 297.14769 439.64651 
L 297.738622 439.695939 
L 298.329555 439.409423 
L 300.693283 437.313581 
L 301.284215 435.853483 
L 302.466079 431.60704 
L 303.057011 430.248858 
L 303.647944 429.878721 
L 304.238876 430.243711 
L 304.829808 431.016262 
L 305.42074 432.379876 
L 307.784468 439.925538 
L 310.148197 446.963828 
L 310.739129 447.998316 
L 311.330061 448.17542 
L 311.920993 447.726036 
L 313.102857 446.081816 
L 314.284722 444.059722 
L 314.875654 443.699774 
L 315.466586 444.261429 
L 316.057518 445.404448 
L 316.64845 446.303753 
L 318.421246 446.95178 
L 319.012178 446.363804 
L 319.603111 444.942472 
L 320.194043 443.934784 
L 321.375907 443.552945 
L 321.966839 442.321793 
L 322.557771 440.741207 
L 323.148703 440.460619 
L 324.330567 442.628679 
L 325.512432 443.953696 
L 326.103364 443.93929 
L 327.285228 442.284553 
L 327.87616 441.683923 
L 328.467092 441.423135 
L 329.058024 441.648962 
L 329.648956 440.942074 
L 330.239889 440.422134 
L 330.830821 441.317326 
L 331.421753 442.67991 
L 332.603617 444.942297 
L 334.376413 454.212584 
L 334.967345 454.794771 
L 335.558277 454.276756 
L 336.740142 451.905539 
L 337.331074 451.466702 
L 337.922006 451.71721 
L 338.512938 452.17914 
L 339.10387 452.436961 
L 339.694802 452.498435 
L 340.285734 453.02071 
L 341.467599 455.796414 
L 342.058531 455.124234 
L 343.240395 448.800223 
L 343.831327 448.289753 
L 344.422259 449.609419 
L 345.604123 452.917536 
L 346.195055 453.815298 
L 346.785988 453.648272 
L 347.37692 454.707645 
L 347.967852 456.076902 
L 348.558784 455.808199 
L 349.149716 453.976696 
L 350.33158 453.291011 
L 350.922512 450.168373 
L 351.513444 448.686345 
L 352.104377 449.946162 
L 352.695309 451.647702 
L 353.286241 454.00379 
L 353.877173 456.899256 
L 354.468105 458.872647 
L 355.059037 458.548261 
L 355.649969 458.718326 
L 356.240901 461.66503 
L 356.831833 463.793601 
L 357.422766 463.860801 
L 358.013698 459.674548 
L 358.60463 454.239918 
L 359.195562 453.011329 
L 359.786494 455.775529 
L 360.377426 459.391496 
L 360.968358 460.216276 
L 362.150222 455.059017 
L 363.332087 446.435845 
L 363.923019 446.397412 
L 364.513951 447.52562 
L 365.695815 444.60175 
L 366.286747 442.392108 
L 367.468611 443.097981 
L 368.059544 450.472151 
L 368.650476 455.360182 
L 369.241408 454.045307 
L 369.83234 449.880214 
L 370.423272 442.103725 
L 371.014204 444.165752 
L 371.605136 442.437094 
L 372.196068 450.167181 
L 372.787 455.813489 
L 373.377932 458.421942 
L 373.968865 456.668019 
L 374.559797 450.251128 
L 375.150729 441.822967 
L 375.741661 440.79045 
L 376.332593 440.606663 
L 376.923525 440.255273 
L 377.514457 424.193429 
L 378.105389 431.373158 
L 378.696321 450.458473 
L 379.287254 444.475977 
L 379.878186 447.116407 
L 380.469118 455.80403 
L 381.06005 453.636078 
L 381.650982 434.220173 
L 382.241914 436.875902 
L 382.832846 433.144345 
L 383.423778 431.565301 
L 384.01471 414.442114 
L 384.605643 423.404746 
L 385.196575 423.804578 
L 385.787507 412.299781 
L 386.378439 412.572584 
L 386.969371 379.85268 
L 387.560303 364.44983 
L 388.151235 353.686033 
L 388.742167 427.240512 
L 389.333099 421.106694 
L 390.514964 383.379029 
L 391.105896 384.716861 
L 391.696828 375.193698 
L 392.28776 346.831294 
L 392.878692 341.834749 
L 393.469624 303.374752 
L 394.060556 360.037482 
L 395.242421 221.524463 
L 395.833353 223.854959 
L 396.424285 317.377745 
L 397.015217 195.66195 
L 397.606149 214.128971 
L 398.197081 121.48427 
L 398.788013 93.064549 
L 399.378945 86.232602 
L 399.969877 131.870537 
L 400.56081 119.183227 
L 401.151742 119.701037 
L 402.333606 195.425789 
L 404.106402 339.099671 
L 404.697334 327.547193 
L 405.288266 324.087538 
L 405.879199 315.815232 
L 406.470131 356.726908 
L 407.061063 368.889317 
L 407.651995 361.818819 
L 408.242927 366.799244 
L 408.833859 387.920587 
L 409.424791 398.166603 
L 410.015723 410.809047 
L 410.606655 413.841393 
L 411.197587 381.79216 
L 412.379452 419.767059 
L 412.970384 417.447679 
L 413.561316 420.1813 
L 414.152248 428.099635 
L 414.74318 423.157101 
L 415.334112 421.087141 
L 415.925044 401.893008 
L 417.697841 445.551657 
L 418.288773 446.113769 
L 418.879705 439.100874 
L 419.470637 439.473792 
L 420.061569 440.817765 
L 420.652501 450.119986 
L 421.243433 444.773032 
L 421.834365 446.567971 
L 422.425298 446.970344 
L 423.01623 440.37891 
L 423.607162 444.708147 
L 424.198094 451.721097 
L 424.789026 455.260997 
L 425.379958 451.421927 
L 425.97089 453.274687 
L 426.561822 459.651092 
L 427.152754 459.789749 
L 427.743687 453.247847 
L 428.334619 449.815028 
L 428.925551 450.594194 
L 429.516483 455.177975 
L 430.107415 455.674642 
L 430.698347 457.267649 
L 431.289279 456.424003 
L 431.880211 451.560915 
L 432.471143 449.872347 
L 433.062076 451.756083 
L 433.653008 455.367107 
L 434.24394 456.301893 
L 434.834872 453.968553 
L 435.425804 453.338944 
L 436.607668 450.115762 
L 437.1986 451.865775 
L 437.789532 452.696396 
L 438.380465 451.820709 
L 438.971397 452.173702 
L 439.562329 454.101367 
L 440.744193 453.332754 
L 441.335125 457.785089 
L 441.926057 461.305581 
L 443.107921 464.70164 
L 443.698854 463.963653 
L 444.289786 462.758421 
L 444.880718 462.969075 
L 445.47165 464.313016 
L 446.062582 463.942974 
L 447.244446 461.75548 
L 447.835378 460.542266 
L 448.42631 458.931873 
L 449.017242 456.960477 
L 449.608175 456.132609 
L 450.199107 456.802337 
L 450.790039 457.218035 
L 451.971903 452.890721 
L 452.562835 451.95695 
L 453.153767 452.757462 
L 453.744699 453.995433 
L 454.335631 454.458527 
L 454.926564 453.914633 
L 455.517496 451.00579 
L 456.69936 438.901883 
L 457.290292 438.981669 
L 458.472156 444.475596 
L 459.063088 445.664983 
L 459.65402 445.065128 
L 460.244953 444.660636 
L 460.835885 444.860965 
L 461.426817 445.244701 
L 462.608681 444.025209 
L 463.199613 443.310024 
L 464.381477 440.797823 
L 464.972409 441.545281 
L 465.563342 444.651028 
L 466.154274 448.512572 
L 466.745206 451.311544 
L 467.336138 452.477302 
L 467.92707 452.932453 
L 468.518002 452.951695 
L 469.108934 452.481062 
L 470.881731 449.280675 
L 471.472663 449.044498 
L 472.063595 449.329439 
L 472.654527 449.83326 
L 473.245459 449.738898 
L 475.018255 448.58046 
L 476.20012 447.160463 
L 476.791052 446.953746 
L 477.972916 447.852782 
L 478.563848 448.396201 
L 479.15478 449.266861 
L 479.745712 450.420727 
L 480.336644 451.21348 
L 480.927576 451.153509 
L 482.109441 450.026901 
L 482.700373 450.018202 
L 483.291305 450.438709 
L 483.882237 450.615122 
L 484.473169 450.388202 
L 485.064101 450.501871 
L 486.245965 451.463003 
L 487.42783 451.541134 
L 488.609694 451.370226 
L 489.200626 451.18384 
L 489.791558 450.669718 
L 491.564354 447.774768 
L 492.155286 447.708338 
L 492.746219 448.062203 
L 493.337151 448.078063 
L 493.928083 446.987196 
L 494.519015 444.627995 
L 495.700879 438.944836 
L 496.291811 437.742729 
L 496.882743 437.831273 
L 498.064608 438.890467 
L 498.65554 439.223084 
L 499.246472 439.313455 
L 499.837404 439.005203 
L 500.428336 438.168355 
L 501.019268 437.041486 
L 501.6102 436.35171 
L 502.201132 436.582092 
L 505.155793 440.662639 
L 505.746725 440.869564 
L 506.337657 440.546724 
L 508.110453 438.696967 
L 508.701386 437.907823 
L 509.292318 437.358343 
L 509.88325 437.489504 
L 511.065114 439.004177 
L 511.656046 439.314835 
L 512.246978 439.029583 
L 514.019775 437.162614 
L 515.201639 436.430201 
L 515.792571 436.207264 
L 518.156299 435.764455 
L 518.747231 435.485365 
L 519.338164 435.407926 
L 519.929096 435.659567 
L 521.11096 436.411297 
L 521.701892 436.44723 
L 522.883756 436.05303 
L 524.06562 435.180008 
L 525.838417 433.643563 
L 527.020281 433.019152 
L 527.611213 432.734324 
L 528.202145 432.274718 
L 528.793077 431.560382 
L 529.974941 429.371901 
L 530.565874 428.189299 
L 531.156806 427.380782 
L 531.747738 427.239217 
L 532.33867 427.819467 
L 533.520534 430.189329 
L 534.702398 432.495218 
L 535.29333 433.252797 
L 535.884263 433.701077 
L 536.475195 433.90987 
L 539.429855 434.34135 
L 540.020787 434.186285 
L 540.611719 433.727024 
L 541.793584 432.455967 
L 542.384516 432.048635 
L 542.975448 431.931865 
L 544.748244 432.207403 
L 545.339176 431.935623 
L 545.930108 431.401452 
L 548.293837 428.462777 
L 549.475701 426.566833 
L 550.657565 424.570212 
L 551.248497 423.944685 
L 551.83943 423.674154 
L 552.430362 423.759484 
L 553.021294 424.265426 
L 553.612226 425.284611 
L 554.203158 426.801624 
L 556.566886 433.961787 
L 557.748751 436.381543 
L 558.339683 437.238813 
L 558.930615 437.856112 
L 559.521547 438.257381 
L 560.703411 438.626414 
L 561.885275 438.597791 
L 563.06714 438.19721 
L 564.249004 437.786798 
L 564.839936 437.758239 
L 565.430868 437.895175 
L 566.0218 438.199735 
L 567.203664 439.221613 
L 568.976461 440.942633 
L 571.340189 442.665936 
L 571.931121 443.006367 
L 572.522053 443.19071 
L 573.112985 443.17925 
L 575.476714 442.576688 
L 576.658578 442.816173 
L 577.840442 443.366032 
L 584.931628 447.712881 
L 586.704424 448.559323 
L 591.431881 451.259715 
L 593.795609 452.289282 
L 594.977474 453.11993 
L 596.159338 454.276962 
L 597.932134 456.348986 
L 599.70493 458.725764 
L 602.068659 462.043428 
L 603.250523 463.194847 
L 604.432387 463.83985 
L 607.387048 464.976125 
L 609.159844 466.024398 
L 612.114505 467.765712 
L 613.887301 468.862974 
L 617.432894 471.342503 
L 619.20569 472.149767 
L 620.978486 472.777381 
L 625.705943 474.072329 
L 626.887807 474.788816 
L 631.024332 477.978765 
L 632.206196 478.522246 
L 633.978993 478.944005 
L 635.751789 479.396623 
L 636.933653 479.949927 
L 641.66111 482.636747 
L 644.615771 483.771726 
L 653.479752 486.803183 
L 655.252549 487.180593 
L 659.389073 487.893525 
L 661.752802 488.601884 
L 668.253055 490.91021 
L 672.38958 492.07892 
L 676.526105 493.259635 
L 680.071697 494.257211 
L 683.61729 494.943987 
L 690.708475 496.26855 
L 694.845 496.980783 
L 694.845 496.980783 
" clip-path="url(#p017358f8bb)" style="fill: none; stroke: #ff8c00; stroke-width: 2; stroke-linecap: square"/>
   </g>
   <g id="line2d_32">
    <path d="M 103.912891 495.511525 
L 108.640348 494.829019 
L 111.004076 494.251043 
L 118.686193 491.947529 
L 120.45899 491.746305 
L 122.822718 491.756825 
L 125.186447 491.695501 
L 126.959243 491.397993 
L 129.913903 490.584776 
L 132.868564 489.836685 
L 135.823225 489.314513 
L 138.777885 489.138852 
L 141.732546 488.855792 
L 146.460003 488.088328 
L 148.823731 487.597172 
L 150.596527 487.050103 
L 153.551188 485.826487 
L 160.051441 483.082959 
L 162.415169 481.993826 
L 164.187966 481.424578 
L 166.551694 480.978058 
L 168.324491 480.568244 
L 169.506355 480.096947 
L 171.279151 479.130053 
L 173.64288 477.516886 
L 178.961269 473.599254 
L 180.734065 472.861882 
L 182.506861 472.125193 
L 186.052454 470.365318 
L 190.779911 468.588886 
L 192.552707 467.456438 
L 194.916435 465.945497 
L 197.280164 464.410078 
L 199.05296 462.9322 
L 201.416689 460.932821 
L 203.189485 459.482083 
L 204.371349 458.202876 
L 206.144146 456.182027 
L 207.32601 455.145538 
L 209.689738 453.321009 
L 212.644399 450.551739 
L 213.826263 449.701014 
L 215.599059 448.733908 
L 216.780924 448.257552 
L 217.962788 448.047077 
L 219.144652 447.975079 
L 219.735584 447.838776 
L 220.326516 447.561317 
L 221.50838 446.616937 
L 225.644905 442.623752 
L 228.008634 439.867173 
L 229.190498 438.94127 
L 230.372362 438.316433 
L 230.963294 438.225782 
L 231.554226 438.392233 
L 232.145158 438.823073 
L 233.327023 440.02895 
L 233.917955 440.464124 
L 234.508887 440.60227 
L 235.099819 440.405941 
L 236.281683 439.346314 
L 237.463547 438.316315 
L 238.645412 437.775368 
L 241.00914 437.114827 
L 243.963801 436.025289 
L 244.554733 435.686603 
L 245.145665 435.19332 
L 245.736597 434.427299 
L 246.918461 432.081614 
L 248.100325 429.829624 
L 248.691257 429.122068 
L 249.873122 428.285939 
L 250.464054 428.087723 
L 251.054986 428.12704 
L 251.645918 428.48915 
L 252.23685 429.198487 
L 254.600579 433.061886 
L 255.191511 433.666713 
L 255.782443 434.051511 
L 256.373375 434.231813 
L 259.328035 434.455397 
L 260.5099 434.959408 
L 262.282696 435.932525 
L 264.055492 436.549625 
L 264.646424 436.601358 
L 265.237356 436.497165 
L 266.419221 436.063621 
L 267.010153 436.015772 
L 268.782949 436.354743 
L 269.373881 436.092398 
L 271.73761 434.130409 
L 273.510406 431.860437 
L 274.101338 431.701367 
L 274.69227 432.130138 
L 275.874134 433.578886 
L 276.465067 433.756101 
L 277.055999 433.391392 
L 277.646931 432.73395 
L 278.237863 432.252924 
L 278.828795 432.432077 
L 279.419727 433.426046 
L 281.192523 437.793297 
L 282.374388 439.701069 
L 283.556252 441.252873 
L 284.147184 441.758172 
L 284.738116 441.784219 
L 286.510912 440.747446 
L 287.101845 440.556781 
L 287.692777 440.606278 
L 288.283709 441.093536 
L 289.465573 442.674621 
L 290.056505 443.124798 
L 290.647437 443.261882 
L 291.238369 443.067381 
L 291.829301 442.468906 
L 293.011166 440.581069 
L 293.602098 439.943169 
L 294.19303 439.703431 
L 295.374894 439.782708 
L 295.965826 439.577523 
L 297.14769 438.679439 
L 298.329555 437.688688 
L 298.920487 437.56108 
L 299.511419 438.099746 
L 300.102351 439.164336 
L 300.693283 439.916231 
L 301.284215 439.617415 
L 301.875147 438.427555 
L 303.057011 435.655775 
L 303.647944 434.783642 
L 304.238876 434.440277 
L 304.829808 434.361072 
L 305.42074 434.452221 
L 306.011672 435.023618 
L 307.784468 438.399203 
L 308.966333 439.965633 
L 310.739129 444.068537 
L 311.330061 444.369789 
L 311.920993 444.031217 
L 313.693789 442.382584 
L 315.466586 439.468677 
L 316.057518 439.481496 
L 316.64845 440.429854 
L 317.830314 443.701366 
L 318.421246 444.940425 
L 319.012178 445.058996 
L 319.603111 443.509061 
L 321.375907 435.862601 
L 321.966839 435.452246 
L 322.557771 436.236816 
L 323.148703 437.280817 
L 323.739635 438.783121 
L 324.9215 442.620998 
L 325.512432 443.987418 
L 326.103364 444.22329 
L 326.694296 443.151304 
L 327.285228 441.663494 
L 327.87616 440.746108 
L 328.467092 440.668188 
L 329.648956 442.238552 
L 330.239889 442.345192 
L 330.830821 442.642298 
L 331.421753 443.283765 
L 332.012685 444.424909 
L 333.194549 445.939188 
L 334.967345 449.554065 
L 335.558277 449.342509 
L 336.740142 447.147032 
L 337.331074 446.843032 
L 337.922006 448.025921 
L 338.512938 451.096535 
L 339.10387 454.844571 
L 339.694802 457.388046 
L 340.285734 458.48354 
L 340.876666 457.942266 
L 342.058531 453.44688 
L 342.649463 450.556621 
L 343.831327 442.722804 
L 344.422259 443.443088 
L 345.013191 446.680396 
L 345.604123 447.950006 
L 346.195055 447.590981 
L 346.785988 446.761419 
L 347.37692 446.3209 
L 347.967852 448.276513 
L 348.558784 451.497003 
L 349.149716 450.868602 
L 350.33158 444.641276 
L 350.922512 442.031106 
L 351.513444 442.276494 
L 352.104377 444.022046 
L 353.286241 448.207783 
L 353.877173 448.70853 
L 354.468105 447.463215 
L 355.059037 448.037424 
L 356.240901 454.135337 
L 356.831833 454.018321 
L 357.422766 453.611 
L 358.013698 453.998607 
L 359.195562 453.056839 
L 359.786494 453.815195 
L 360.377426 452.58627 
L 360.968358 448.260836 
L 361.55929 450.16042 
L 362.150222 456.145735 
L 362.741155 458.030878 
L 363.332087 453.41037 
L 363.923019 450.455241 
L 364.513951 446.701019 
L 365.104883 437.745829 
L 365.695815 437.028025 
L 366.286747 440.361231 
L 366.877679 442.829696 
L 367.468611 440.775324 
L 368.059544 443.35891 
L 368.650476 439.98408 
L 369.241408 434.934214 
L 369.83234 439.247382 
L 370.423272 446.715738 
L 371.014204 446.617254 
L 371.605136 445.188203 
L 372.196068 454.646154 
L 372.787 460.4533 
L 373.968865 449.332059 
L 375.150729 442.925311 
L 375.741661 438.684246 
L 376.332593 436.469781 
L 376.923525 435.425662 
L 377.514457 428.491042 
L 378.696321 446.948272 
L 379.287254 445.277081 
L 380.469118 408.294201 
L 381.650982 431.756779 
L 382.241914 433.951943 
L 382.832846 427.885179 
L 383.423778 415.060568 
L 384.01471 423.227406 
L 384.605643 420.766281 
L 385.196575 415.712113 
L 385.787507 426.099941 
L 386.378439 429.026067 
L 386.969371 391.975342 
L 387.560303 385.701337 
L 388.151235 383.808541 
L 388.742167 421.410051 
L 389.333099 440.019611 
L 389.924032 436.951786 
L 390.514964 403.288187 
L 391.105896 383.47178 
L 391.696828 400.916501 
L 392.28776 365.718288 
L 392.878692 351.197232 
L 393.469624 345.160686 
L 394.060556 351.276991 
L 394.651488 295.135929 
L 395.242421 294.169537 
L 395.833353 308.025299 
L 397.015217 246.426582 
L 397.606149 220.41452 
L 398.197081 202.963493 
L 398.788013 111.751147 
L 399.378945 117.429678 
L 399.969877 219.61384 
L 400.56081 119.541498 
L 401.742674 227.646229 
L 402.333606 303.237797 
L 402.924538 354.273858 
L 403.51547 271.035058 
L 404.106402 321.035654 
L 404.697334 316.831065 
L 405.288266 352.057467 
L 405.879199 355.562996 
L 406.470131 368.33948 
L 407.061063 357.105653 
L 407.651995 394.617663 
L 408.242927 403.901759 
L 408.833859 400.659515 
L 409.424791 386.377125 
L 410.015723 408.61089 
L 410.606655 414.534804 
L 411.197587 395.87403 
L 411.78852 409.8306 
L 412.379452 409.359766 
L 412.970384 394.070717 
L 413.561316 397.081533 
L 414.152248 417.150925 
L 414.74318 406.491243 
L 415.925044 440.444831 
L 416.515976 440.389395 
L 417.106909 434.920368 
L 417.697841 422.177407 
L 418.288773 441.058034 
L 418.879705 445.471247 
L 419.470637 439.554702 
L 420.061569 438.013178 
L 420.652501 441.895767 
L 421.243433 447.430404 
L 421.834365 448.285034 
L 422.425298 446.701843 
L 423.01623 445.626961 
L 423.607162 439.222977 
L 424.198094 428.369745 
L 424.789026 434.765 
L 425.379958 436.469072 
L 425.97089 430.996931 
L 426.561822 442.882013 
L 428.334619 460.725369 
L 428.925551 454.550926 
L 429.516483 453.331004 
L 430.698347 449.606684 
L 431.289279 446.571531 
L 431.880211 438.527907 
L 432.471143 440.67543 
L 433.062076 449.916615 
L 433.653008 453.505272 
L 434.24394 451.962396 
L 434.834872 449.068155 
L 435.425804 448.166946 
L 436.016736 448.475677 
L 436.607668 451.539225 
L 437.1986 456.029582 
L 437.789532 457.629306 
L 438.380465 457.569234 
L 438.971397 458.993427 
L 439.562329 461.342384 
L 440.153261 462.230232 
L 440.744193 463.997758 
L 441.335125 464.436126 
L 441.926057 463.936833 
L 443.107921 456.863622 
L 444.289786 452.493373 
L 444.880718 450.703094 
L 445.47165 449.472229 
L 446.062582 450.507993 
L 447.244446 456.095826 
L 447.835378 457.268096 
L 448.42631 456.950688 
L 449.017242 455.692759 
L 449.608175 455.401094 
L 450.199107 454.659813 
L 450.790039 450.781688 
L 451.380971 445.818411 
L 451.971903 443.685943 
L 453.153767 443.370395 
L 453.744699 442.605173 
L 454.335631 442.636318 
L 454.926564 441.788411 
L 455.517496 439.541422 
L 456.108428 438.422933 
L 456.69936 439.09555 
L 458.472156 439.340279 
L 459.063088 438.763175 
L 459.65402 440.545402 
L 460.244953 444.305913 
L 460.835885 446.598678 
L 461.426817 447.697959 
L 462.017749 448.169731 
L 462.608681 447.686273 
L 463.199613 446.620727 
L 463.790545 446.156119 
L 464.381477 446.772501 
L 464.972409 447.886116 
L 465.563342 449.32111 
L 466.154274 450.4461 
L 466.745206 450.188352 
L 467.336138 449.50409 
L 467.92707 449.917989 
L 469.108934 452.421196 
L 469.699866 452.562909 
L 470.881731 450.282973 
L 471.472663 449.536611 
L 472.063595 448.584609 
L 472.654527 446.464349 
L 473.245459 443.62064 
L 473.836391 442.148958 
L 474.427323 442.64645 
L 475.018255 443.364206 
L 475.609187 443.493485 
L 476.20012 443.946106 
L 476.791052 444.775513 
L 477.381984 444.947502 
L 477.972916 444.362041 
L 478.563848 444.104844 
L 479.15478 444.897622 
L 480.336644 447.527692 
L 480.927576 448.221398 
L 481.518509 448.131248 
L 482.109441 447.60514 
L 482.700373 447.313738 
L 483.291305 447.337319 
L 483.882237 447.519484 
L 484.473169 447.955912 
L 485.064101 448.841176 
L 486.245965 451.138554 
L 486.836897 451.841624 
L 487.42783 452.12271 
L 488.018762 451.800325 
L 488.609694 450.679491 
L 489.791558 446.833188 
L 490.38249 444.966143 
L 490.973422 443.773922 
L 491.564354 443.288665 
L 492.155286 443.403295 
L 493.337151 444.668574 
L 493.928083 444.631512 
L 495.700879 442.800313 
L 496.882743 442.663202 
L 497.473675 442.030713 
L 498.65554 439.893871 
L 499.837404 438.433928 
L 501.6102 436.20824 
L 502.201132 435.966036 
L 503.382997 436.121392 
L 505.155793 436.60735 
L 505.746725 436.425501 
L 506.337657 436.06511 
L 506.928589 435.849568 
L 507.519521 435.8022 
L 508.110453 435.608903 
L 508.701386 435.245308 
L 509.292318 435.155484 
L 509.88325 435.710595 
L 511.065114 437.731142 
L 511.656046 438.065314 
L 512.246978 437.826997 
L 512.83791 437.460692 
L 514.610707 436.863754 
L 515.201639 436.120243 
L 518.156299 431.041351 
L 518.747231 430.438477 
L 519.338164 430.22934 
L 519.929096 430.434268 
L 521.11096 431.61939 
L 522.883756 433.71515 
L 523.474688 434.195592 
L 524.06562 434.445265 
L 524.656552 434.494464 
L 525.838417 434.230975 
L 526.429349 433.995568 
L 527.020281 433.600877 
L 527.611213 432.875434 
L 528.202145 431.743312 
L 529.384009 428.663565 
L 530.565874 425.367649 
L 531.156806 424.383871 
L 531.747738 424.280035 
L 532.33867 424.957254 
L 534.702398 429.392481 
L 535.29333 429.83132 
L 535.884263 429.862168 
L 536.475195 429.628019 
L 537.657059 428.920702 
L 538.247991 428.711399 
L 538.838923 428.71776 
L 540.020787 428.942976 
L 541.793584 428.727814 
L 542.384516 428.884796 
L 543.56638 429.654122 
L 544.748244 430.420036 
L 545.339176 430.632981 
L 545.930108 430.669369 
L 546.521041 430.455516 
L 547.111973 429.941153 
L 547.702905 429.11336 
L 548.884769 426.657864 
L 550.066633 424.144729 
L 550.657565 423.387563 
L 551.248497 423.069845 
L 551.83943 423.128162 
L 552.430362 423.512897 
L 553.021294 424.264531 
L 553.612226 425.434305 
L 554.79409 428.635842 
L 556.566886 433.384086 
L 557.748751 436.063965 
L 558.339683 437.101946 
L 558.930615 437.837782 
L 559.521547 438.27003 
L 560.112479 438.455778 
L 560.703411 438.469337 
L 561.885275 438.174136 
L 563.06714 437.508963 
L 564.839936 436.242865 
L 565.430868 436.040719 
L 566.0218 436.070667 
L 566.612732 436.339205 
L 567.794596 437.362014 
L 571.340189 440.798201 
L 572.522053 441.752659 
L 573.703918 442.262324 
L 575.476714 442.870118 
L 576.658578 443.414859 
L 577.840442 444.170151 
L 580.204171 446.010624 
L 581.386035 446.564253 
L 583.749763 447.293639 
L 584.931628 447.989825 
L 586.704424 449.158241 
L 587.886288 449.541137 
L 590.250017 449.8787 
L 590.840949 450.142515 
L 591.431881 450.557475 
L 592.613745 451.860497 
L 593.795609 453.616361 
L 597.341202 459.253405 
L 598.523066 460.699497 
L 599.70493 461.905313 
L 600.886795 462.880272 
L 602.068659 463.651588 
L 603.250523 464.18924 
L 604.432387 464.476473 
L 606.205184 464.780921 
L 607.387048 465.227218 
L 609.159844 466.335984 
L 610.93264 467.407707 
L 614.478233 469.255889 
L 617.432894 471.301906 
L 619.20569 472.040751 
L 622.751283 473.339031 
L 626.887807 475.284477 
L 629.251536 476.766591 
L 631.615264 478.174924 
L 632.797129 478.636355 
L 636.342721 479.681428 
L 638.115517 480.642263 
L 641.070178 482.324973 
L 643.433906 483.413071 
L 646.388567 484.505304 
L 661.16187 489.119425 
L 664.707462 490.472079 
L 668.253055 491.532831 
L 671.207716 492.219588 
L 675.34424 493.103695 
L 680.662629 494.407231 
L 685.981018 495.462817 
L 694.845 496.924045 
L 694.845 496.924045 
" clip-path="url(#p017358f8bb)" style="fill: none; stroke: #00ff00; stroke-width: 2; stroke-linecap: square"/>
   </g>
   <g id="line2d_33">
    <path d="M 103.912891 496.414856 
L 108.049415 496.018788 
L 111.004076 495.481211 
L 129.322971 491.679604 
L 135.232292 490.682481 
L 137.596021 489.997737 
L 142.91441 488.270482 
L 149.414663 486.579069 
L 151.778391 486.237059 
L 154.14212 485.861776 
L 155.914916 485.354631 
L 157.687713 484.628875 
L 163.006102 482.13753 
L 165.960762 481.157943 
L 170.097287 479.796665 
L 173.64288 478.601038 
L 176.006608 477.745238 
L 182.506861 474.946919 
L 186.052454 473.892609 
L 187.234318 473.229465 
L 188.416182 472.270845 
L 189.598046 471.041075 
L 193.143639 466.979169 
L 194.916435 465.397496 
L 196.689232 464.110598 
L 197.871096 463.494446 
L 199.05296 463.17865 
L 201.416689 462.852977 
L 202.598553 462.436554 
L 204.962281 461.284363 
L 206.735078 460.244645 
L 210.871602 457.216759 
L 212.053467 455.947077 
L 215.008127 452.008059 
L 216.189991 450.967803 
L 217.371856 450.200461 
L 220.917448 448.235699 
L 222.099312 447.037134 
L 224.463041 443.902879 
L 225.644905 442.48227 
L 226.826769 441.374565 
L 228.008634 440.649887 
L 229.190498 440.064769 
L 230.372362 439.217182 
L 231.554226 438.318835 
L 233.327023 437.328437 
L 235.099819 436.499155 
L 236.281683 436.21567 
L 240.418208 435.487959 
L 242.191004 434.960887 
L 243.372868 434.323519 
L 244.554733 433.145072 
L 246.918461 430.414768 
L 250.464054 427.144798 
L 252.23685 424.834591 
L 253.418714 422.71228 
L 255.782443 417.705938 
L 256.373375 416.767958 
L 256.964307 416.098284 
L 257.555239 415.69382 
L 258.146171 415.557908 
L 258.737103 415.707014 
L 259.328035 416.143355 
L 260.5099 417.687281 
L 261.100832 418.483536 
L 261.691764 419.068725 
L 262.282696 419.416175 
L 263.46456 419.64361 
L 264.646424 419.538318 
L 265.237356 419.235222 
L 265.828289 418.626375 
L 267.010153 416.64368 
L 267.601085 415.619616 
L 268.192017 414.819672 
L 268.782949 414.2964 
L 269.373881 414.021425 
L 269.964813 413.974729 
L 270.555745 414.157913 
L 271.73761 414.835821 
L 272.328542 415.016175 
L 273.510406 415.068103 
L 274.101338 415.249181 
L 275.283202 416.13691 
L 275.874134 416.577595 
L 276.465067 416.840536 
L 278.828795 417.28605 
L 279.419727 417.666982 
L 280.010659 418.181064 
L 280.601591 418.898419 
L 281.783456 420.667843 
L 282.374388 421.278891 
L 282.96532 421.538717 
L 284.147184 421.432761 
L 284.738116 421.583848 
L 285.329048 422.097763 
L 286.510912 423.457388 
L 287.101845 423.924372 
L 287.692777 424.071986 
L 288.283709 423.812479 
L 288.874641 423.32749 
L 289.465573 423.027059 
L 290.056505 423.281812 
L 290.647437 424.271277 
L 291.238369 425.976934 
L 292.420234 430.053146 
L 293.011166 431.481749 
L 293.602098 432.307916 
L 294.19303 432.582788 
L 294.783962 432.439132 
L 295.374894 431.9361 
L 297.14769 429.297769 
L 297.738622 429.29611 
L 298.329555 429.77658 
L 300.102351 432.46734 
L 301.284215 433.068657 
L 301.875147 433.346513 
L 302.466079 433.426117 
L 303.647944 433.209478 
L 305.42074 433.90444 
L 306.011672 433.870466 
L 306.602604 433.432898 
L 307.193536 432.432383 
L 308.3754 430.092866 
L 308.966333 429.619436 
L 309.557265 429.563416 
L 310.148197 429.366196 
L 311.920993 427.791842 
L 313.102857 427.869449 
L 313.693789 427.95068 
L 314.284722 428.586614 
L 316.057518 432.890922 
L 316.64845 432.698264 
L 318.421246 429.602096 
L 319.012178 429.383999 
L 319.603111 430.393832 
L 320.194043 432.714432 
L 321.375907 437.858144 
L 321.966839 439.443709 
L 322.557771 439.949895 
L 323.148703 439.309266 
L 323.739635 438.075352 
L 327.285228 429.236778 
L 327.87616 428.362197 
L 328.467092 428.333733 
L 329.058024 428.999587 
L 329.648956 430.475079 
L 330.830821 435.944856 
L 332.603617 441.313023 
L 333.785481 446.550257 
L 334.376413 447.55891 
L 334.967345 446.510459 
L 335.558277 444.448571 
L 336.14921 442.800595 
L 336.740142 442.614346 
L 337.331074 442.98261 
L 337.922006 442.237734 
L 338.512938 440.689809 
L 339.10387 438.723737 
L 340.285734 434.151523 
L 340.876666 434.208415 
L 341.467599 436.763687 
L 342.058531 440.295362 
L 342.649463 441.659028 
L 343.240395 440.618456 
L 343.831327 439.845481 
L 345.013191 437.163641 
L 345.604123 438.959291 
L 346.785988 447.101475 
L 347.37692 449.029547 
L 347.967852 449.448176 
L 348.558784 448.754752 
L 349.149716 445.64777 
L 350.33158 438.054304 
L 350.922512 437.121506 
L 351.513444 440.301133 
L 352.695309 449.737025 
L 353.286241 451.336758 
L 353.877173 451.56764 
L 354.468105 451.653666 
L 355.059037 452.250821 
L 355.649969 453.449343 
L 356.831833 450.836715 
L 357.422766 451.614369 
L 358.013698 450.949745 
L 358.60463 451.121913 
L 359.195562 450.903604 
L 359.786494 452.615128 
L 360.377426 455.989742 
L 360.968358 457.068884 
L 362.150222 452.722894 
L 362.741155 454.915148 
L 363.332087 455.364915 
L 363.923019 452.338524 
L 364.513951 453.555804 
L 365.104883 452.704341 
L 365.695815 450.681213 
L 366.286747 451.101114 
L 366.877679 449.639576 
L 367.468611 448.867649 
L 368.059544 446.133172 
L 368.650476 449.79096 
L 369.241408 456.728383 
L 369.83234 459.593447 
L 370.423272 456.197059 
L 371.014204 457.588984 
L 371.605136 459.864738 
L 372.196068 454.816184 
L 372.787 454.334352 
L 373.377932 455.354789 
L 373.968865 460.874277 
L 374.559797 455.677673 
L 375.150729 447.873116 
L 375.741661 452.507906 
L 376.332593 454.347699 
L 376.923525 455.694015 
L 377.514457 459.284637 
L 378.696321 444.17648 
L 379.287254 433.75896 
L 379.878186 435.091303 
L 380.469118 438.501739 
L 381.06005 442.686477 
L 381.650982 440.690334 
L 382.241914 442.816424 
L 382.832846 442.334167 
L 383.423778 431.138572 
L 384.01471 442.760122 
L 384.605643 446.593628 
L 385.787507 427.184473 
L 386.378439 429.989213 
L 386.969371 441.10128 
L 387.560303 433.703153 
L 388.151235 452.760399 
L 388.742167 438.358847 
L 389.333099 451.759489 
L 389.924032 442.330662 
L 391.105896 432.098493 
L 391.696828 412.721116 
L 392.28776 409.229488 
L 392.878692 414.910316 
L 393.469624 393.538056 
L 394.060556 391.414663 
L 394.651488 351.691345 
L 395.242421 373.880712 
L 395.833353 355.396846 
L 396.424285 347.083996 
L 397.015217 305.608001 
L 397.606149 339.452686 
L 398.197081 276.559343 
L 398.788013 225.989762 
L 399.378945 262.324831 
L 399.969877 268.219832 
L 401.742674 325.606011 
L 402.333606 345.924577 
L 402.924538 329.187773 
L 403.51547 354.75169 
L 404.106402 357.739597 
L 404.697334 403.548817 
L 405.288266 400.843214 
L 405.879199 401.192238 
L 406.470131 420.267488 
L 407.061063 420.436748 
L 407.651995 432.392065 
L 408.242927 428.434406 
L 409.424791 424.923243 
L 410.015723 428.042783 
L 410.606655 436.756336 
L 411.197587 408.931031 
L 411.78852 425.146005 
L 412.379452 428.491869 
L 412.970384 434.854634 
L 413.561316 435.671286 
L 414.152248 439.459689 
L 414.74318 445.149733 
L 415.334112 448.502837 
L 415.925044 447.496234 
L 416.515976 448.786464 
L 417.106909 455.689407 
L 417.697841 453.106931 
L 418.288773 449.021202 
L 418.879705 448.793519 
L 419.470637 444.326249 
L 420.061569 441.68877 
L 420.652501 448.319301 
L 421.243433 447.850602 
L 421.834365 451.678892 
L 422.425298 449.025597 
L 423.01623 448.093562 
L 423.607162 451.614497 
L 424.198094 452.667075 
L 424.789026 449.871882 
L 425.379958 448.905333 
L 425.97089 450.197861 
L 426.561822 453.796955 
L 427.152754 459.961027 
L 427.743687 461.339026 
L 428.334619 463.120364 
L 428.925551 462.795155 
L 429.516483 458.699665 
L 430.107415 460.18635 
L 430.698347 462.289129 
L 431.289279 461.564715 
L 431.880211 458.219995 
L 433.062076 454.174655 
L 434.24394 456.219704 
L 434.834872 452.670717 
L 435.425804 450.038079 
L 436.016736 451.970728 
L 436.607668 452.426029 
L 437.1986 448.436561 
L 437.789532 448.320952 
L 438.380465 450.322115 
L 439.562329 446.809515 
L 440.153261 448.656401 
L 440.744193 449.77965 
L 441.335125 450.59626 
L 441.926057 454.473694 
L 442.516989 456.158251 
L 443.107921 456.311974 
L 443.698854 456.319633 
L 444.289786 457.045597 
L 444.880718 457.509701 
L 445.47165 457.2737 
L 446.062582 455.643063 
L 446.653514 452.936583 
L 447.835378 449.204693 
L 448.42631 446.724809 
L 449.608175 445.002176 
L 450.199107 442.590857 
L 450.790039 440.90677 
L 451.380971 441.894219 
L 451.971903 443.14074 
L 452.562835 443.494374 
L 453.153767 442.708487 
L 454.335631 438.642729 
L 454.926564 438.476725 
L 456.108428 442.586243 
L 456.69936 443.162192 
L 457.290292 443.461313 
L 457.881224 443.070736 
L 458.472156 442.051797 
L 459.063088 442.334076 
L 460.244953 447.629871 
L 460.835885 448.819103 
L 461.426817 448.50655 
L 462.017749 447.634771 
L 462.608681 446.237124 
L 463.199613 444.131259 
L 463.790545 441.510252 
L 464.381477 439.860805 
L 464.972409 439.602306 
L 465.563342 441.164673 
L 466.154274 443.435308 
L 466.745206 444.470491 
L 467.336138 444.161445 
L 467.92707 444.041952 
L 468.518002 444.206013 
L 469.699866 443.012799 
L 470.290798 442.79749 
L 472.063595 441.392967 
L 472.654527 441.008109 
L 473.836391 438.937742 
L 474.427323 438.444811 
L 475.018255 438.517413 
L 475.609187 438.81473 
L 476.20012 438.981762 
L 476.791052 438.553539 
L 477.972916 436.970361 
L 478.563848 436.644749 
L 479.15478 436.784096 
L 479.745712 437.179341 
L 480.336644 437.290237 
L 480.927576 437.123484 
L 481.518509 436.733291 
L 482.700373 435.699189 
L 483.882237 435.161427 
L 484.473169 434.828696 
L 486.245965 434.177581 
L 487.42783 432.962982 
L 488.018762 432.787173 
L 488.609694 433.074814 
L 489.200626 433.207241 
L 489.791558 432.639717 
L 490.38249 431.376137 
L 491.564354 428.205167 
L 492.155286 427.085596 
L 492.746219 426.381432 
L 493.337151 426.024994 
L 494.519015 426.062463 
L 495.700879 426.177827 
L 496.291811 426.430542 
L 497.473675 427.257745 
L 498.064608 427.257559 
L 498.65554 427.05839 
L 499.246472 427.044853 
L 499.837404 427.24649 
L 500.428336 427.302802 
L 501.019268 426.766174 
L 501.6102 425.527794 
L 502.792064 422.65978 
L 503.382997 421.987602 
L 503.973929 421.80484 
L 504.564861 421.870993 
L 506.337657 422.447474 
L 506.928589 422.430755 
L 508.701386 421.71198 
L 510.474182 421.713593 
L 511.065114 421.42962 
L 511.656046 420.912847 
L 512.83791 419.568522 
L 513.428842 419.233325 
L 514.019775 419.354498 
L 514.610707 419.676975 
L 515.201639 419.838611 
L 515.792571 419.678941 
L 516.383503 419.282734 
L 516.974435 418.741603 
L 518.156299 417.354512 
L 518.747231 417.039404 
L 519.338164 417.339024 
L 521.11096 419.531189 
L 521.701892 419.739411 
L 522.292824 419.4318 
L 523.474688 417.775722 
L 524.656552 416.306514 
L 525.838417 415.277715 
L 527.020281 414.531493 
L 528.202145 414.101166 
L 529.384009 414.026178 
L 534.111466 414.353241 
L 536.475195 415.555301 
L 537.066127 415.55293 
L 538.247991 415.177072 
L 540.020787 414.388103 
L 540.611719 414.258253 
L 541.202652 414.266156 
L 542.384516 414.613725 
L 543.56638 415.310903 
L 544.157312 415.845976 
L 545.339176 417.353689 
L 547.702905 420.710369 
L 548.884769 422.915854 
L 551.248497 427.792965 
L 552.430362 429.734456 
L 553.612226 431.132299 
L 554.79409 432.109896 
L 555.975954 432.721287 
L 558.930615 433.459522 
L 559.521547 433.652973 
L 560.112479 433.676837 
L 560.703411 433.496806 
L 561.885275 432.756372 
L 563.658072 431.629198 
L 564.839936 431.219471 
L 565.430868 431.254029 
L 566.0218 431.512875 
L 566.612732 432.005709 
L 567.794596 433.560019 
L 569.567393 436.264913 
L 570.749257 437.47802 
L 571.931121 438.144206 
L 574.885782 439.27664 
L 576.067646 440.045102 
L 577.24951 441.116118 
L 578.431374 442.573792 
L 581.386035 446.676308 
L 582.567899 447.689046 
L 583.749763 448.231298 
L 584.931628 448.327725 
L 587.886288 447.920583 
L 588.47722 448.162914 
L 589.068152 448.598982 
L 589.659085 449.23128 
L 590.840949 450.999821 
L 593.204677 455.429376 
L 594.977474 458.627172 
L 596.159338 460.412503 
L 597.341202 461.893386 
L 598.523066 463.103068 
L 600.295862 464.498261 
L 602.068659 465.561907 
L 603.841455 466.21886 
L 605.614251 466.848414 
L 606.796116 467.518697 
L 607.97798 468.498915 
L 610.93264 471.319285 
L 612.114505 471.985153 
L 613.296369 472.374747 
L 618.614758 473.630895 
L 619.796622 474.230757 
L 622.160351 475.834581 
L 623.933147 476.918015 
L 625.115011 477.412577 
L 627.47874 478.016482 
L 629.251536 478.574293 
L 636.933653 481.388204 
L 638.70645 482.041755 
L 640.479246 482.940861 
L 644.024839 484.89463 
L 646.979499 486.077274 
L 649.93416 487.028103 
L 653.479752 488.102423 
L 656.434413 489.234916 
L 661.752802 491.355989 
L 665.298395 492.449487 
L 668.253055 493.133701 
L 671.207716 493.56036 
L 678.298901 494.468714 
L 681.253561 495.099939 
L 687.162883 496.480931 
L 692.481272 497.434985 
L 694.845 497.720787 
L 694.845 497.720787 
" clip-path="url(#p017358f8bb)" style="fill: none; stroke: #40e0d0; stroke-width: 2; stroke-linecap: square"/>
   </g>
   <g id="line2d_34">
    <path d="M 103.912891 498.62138 
L 109.23128 497.851044 
L 130.504836 494.224956 
L 135.232292 492.969479 
L 154.14212 487.535556 
L 158.278645 486.011313 
L 163.006102 484.063879 
L 169.506355 480.999197 
L 173.64288 479.127684 
L 176.006608 477.992706 
L 178.370336 476.622048 
L 185.461522 472.135365 
L 190.188979 468.504043 
L 193.143639 465.898732 
L 194.916435 464.504624 
L 202.007621 459.761679 
L 204.962281 457.367388 
L 211.462535 451.742367 
L 212.644399 450.359553 
L 214.417195 447.900792 
L 219.144652 440.959607 
L 220.326516 439.688102 
L 221.50838 438.943924 
L 223.281177 438.156477 
L 224.463041 437.133661 
L 225.644905 435.644984 
L 229.78143 429.843274 
L 231.554226 427.782394 
L 232.73609 426.400278 
L 233.917955 424.69573 
L 235.099819 422.595322 
L 236.872615 418.764799 
L 238.054479 416.241626 
L 239.236344 414.204406 
L 241.00914 411.832802 
L 242.191004 410.569491 
L 244.554733 408.710485 
L 245.145665 407.982035 
L 246.327529 406.024045 
L 248.691257 401.756356 
L 250.464054 399.067357 
L 254.009646 394.455504 
L 255.191511 393.118973 
L 256.373375 392.252168 
L 257.555239 391.561873 
L 259.328035 390.417924 
L 260.5099 390.187164 
L 261.100832 390.080766 
L 261.691764 389.773658 
L 262.282696 389.188834 
L 264.646424 386.026512 
L 265.237356 385.54126 
L 265.828289 385.286088 
L 266.419221 385.240265 
L 267.601085 385.555296 
L 268.782949 386.214759 
L 271.146678 387.855734 
L 273.510406 390.306329 
L 275.283202 390.935977 
L 276.465067 391.88731 
L 277.646931 393.227552 
L 278.828795 395.053957 
L 281.783456 400.602085 
L 282.374388 401.25296 
L 282.96532 401.573208 
L 284.147184 401.869594 
L 284.738116 402.263279 
L 285.329048 403.07759 
L 286.510912 405.766236 
L 289.465573 412.977205 
L 290.056505 413.973376 
L 290.647437 414.547265 
L 291.238369 414.654711 
L 291.829301 414.290403 
L 293.011166 412.951118 
L 293.602098 412.55413 
L 294.19303 412.660254 
L 294.783962 413.314378 
L 295.965826 415.21446 
L 297.14769 416.457547 
L 297.738622 417.032202 
L 298.329555 417.849226 
L 300.693283 422.500974 
L 302.466079 424.853906 
L 303.057011 426.063222 
L 305.42074 432.44543 
L 306.011672 433.324198 
L 306.602604 433.545885 
L 307.193536 433.293657 
L 308.3754 432.328399 
L 308.966333 431.787992 
L 309.557265 431.632402 
L 310.148197 432.099047 
L 311.920993 434.709365 
L 312.511925 435.153528 
L 314.284722 435.757985 
L 315.466586 436.777655 
L 316.057518 436.605598 
L 317.830314 434.313205 
L 318.421246 434.151981 
L 319.012178 434.861229 
L 320.194043 437.598663 
L 322.557771 444.85151 
L 323.148703 445.832397 
L 323.739635 446.552663 
L 324.330567 446.853621 
L 324.9215 446.687121 
L 325.512432 446.307051 
L 326.694296 445.320704 
L 327.285228 445.212425 
L 328.467092 445.634051 
L 329.648956 445.379629 
L 330.239889 445.787675 
L 331.421753 448.044969 
L 332.603617 450.326885 
L 333.785481 451.412184 
L 334.376413 452.342214 
L 334.967345 453.764067 
L 335.558277 454.46258 
L 336.14921 453.855219 
L 336.740142 452.803568 
L 337.331074 452.12476 
L 337.922006 452.046877 
L 338.512938 452.285654 
L 339.10387 452.27099 
L 339.694802 452.458154 
L 340.285734 453.246095 
L 341.467599 455.26143 
L 342.649463 455.93835 
L 343.240395 456.932774 
L 343.831327 457.397933 
L 344.422259 457.035813 
L 345.013191 457.068391 
L 345.604123 458.190401 
L 346.195055 459.010688 
L 346.785988 458.800347 
L 347.967852 457.829027 
L 348.558784 456.995585 
L 349.149716 456.43854 
L 349.740648 457.163994 
L 350.33158 457.547057 
L 350.922512 457.416546 
L 351.513444 457.795121 
L 352.695309 461.618848 
L 353.286241 461.428577 
L 353.877173 461.120192 
L 354.468105 461.612664 
L 355.059037 461.298772 
L 355.649969 460.502635 
L 356.240901 460.402681 
L 356.831833 460.691905 
L 357.422766 461.67523 
L 358.013698 461.886008 
L 358.60463 460.040918 
L 359.195562 459.523582 
L 360.968358 466.107148 
L 361.55929 466.318217 
L 362.150222 466.360058 
L 362.741155 466.043727 
L 363.923019 463.561802 
L 364.513951 463.100403 
L 365.695815 459.222248 
L 366.286747 458.269104 
L 366.877679 457.566386 
L 367.468611 458.157879 
L 368.059544 457.493941 
L 368.650476 462.199689 
L 369.241408 464.259517 
L 369.83234 464.603921 
L 370.423272 463.96246 
L 371.014204 460.715469 
L 371.605136 461.451704 
L 372.196068 462.525919 
L 372.787 464.398895 
L 373.377932 463.626041 
L 373.968865 463.052783 
L 374.559797 464.780879 
L 375.150729 461.691143 
L 375.741661 459.648332 
L 376.332593 459.598903 
L 376.923525 461.134991 
L 377.514457 463.891463 
L 378.105389 468.028888 
L 379.287254 463.359038 
L 379.878186 461.51671 
L 380.469118 461.191179 
L 381.06005 461.11073 
L 381.650982 460.256148 
L 382.241914 457.339255 
L 382.832846 457.127521 
L 383.423778 455.207936 
L 384.01471 455.912356 
L 384.605643 456.17462 
L 385.196575 450.969001 
L 385.787507 458.362255 
L 386.378439 463.059929 
L 386.969371 458.794232 
L 387.560303 456.096979 
L 388.151235 452.495819 
L 388.742167 454.169274 
L 389.333099 452.684907 
L 389.924032 456.009118 
L 390.514964 461.321633 
L 391.105896 456.154544 
L 391.696828 440.87834 
L 392.28776 444.655731 
L 392.878692 439.629517 
L 393.469624 431.818733 
L 394.060556 435.737654 
L 394.651488 432.812688 
L 395.242421 427.161718 
L 395.833353 417.688382 
L 396.424285 422.294149 
L 397.015217 408.174787 
L 397.606149 423.229503 
L 398.197081 404.977258 
L 398.788013 406.632477 
L 399.378945 422.097973 
L 399.969877 415.762216 
L 400.56081 399.377807 
L 401.151742 415.668988 
L 401.742674 410.167416 
L 402.333606 437.326269 
L 402.924538 428.059114 
L 403.51547 433.209009 
L 404.106402 429.611069 
L 405.288266 432.599418 
L 405.879199 438.153988 
L 406.470131 440.980966 
L 407.061063 448.09534 
L 407.651995 446.493739 
L 408.242927 454.776419 
L 408.833859 460.939806 
L 409.424791 454.195795 
L 410.015723 455.10313 
L 410.606655 458.018546 
L 411.197587 455.698826 
L 411.78852 459.931347 
L 412.379452 460.852126 
L 412.970384 455.95552 
L 413.561316 453.879201 
L 414.152248 456.58172 
L 414.74318 456.515839 
L 415.334112 453.69871 
L 415.925044 452.688584 
L 416.515976 455.778009 
L 417.106909 460.691126 
L 417.697841 461.650258 
L 418.288773 460.994217 
L 418.879705 462.606798 
L 419.470637 463.473925 
L 420.061569 466.263496 
L 421.243433 461.059264 
L 421.834365 461.208359 
L 422.425298 463.010066 
L 423.01623 461.21534 
L 423.607162 456.853611 
L 424.198094 456.417766 
L 424.789026 457.357454 
L 425.97089 464.083515 
L 426.561822 465.466565 
L 427.152754 465.060214 
L 427.743687 465.121526 
L 428.334619 465.349919 
L 428.925551 466.470323 
L 429.516483 467.284194 
L 430.107415 467.583702 
L 430.698347 467.535691 
L 431.289279 463.854608 
L 431.880211 463.113393 
L 432.471143 464.097877 
L 433.062076 463.673682 
L 433.653008 462.158986 
L 434.24394 461.346502 
L 434.834872 461.832122 
L 435.425804 462.794954 
L 436.016736 464.261103 
L 436.607668 463.864882 
L 437.789532 464.564941 
L 438.380465 464.614969 
L 440.153261 462.052788 
L 440.744193 463.245502 
L 441.926057 468.284111 
L 442.516989 468.785624 
L 443.107921 468.654689 
L 443.698854 468.214696 
L 444.289786 466.963333 
L 446.062582 461.411324 
L 446.653514 461.479536 
L 447.244446 461.895933 
L 447.835378 461.483725 
L 448.42631 461.259764 
L 449.017242 461.454359 
L 449.608175 462.043004 
L 450.199107 462.208987 
L 451.380971 461.435907 
L 451.971903 461.141044 
L 452.562835 461.43258 
L 453.153767 461.407698 
L 454.335631 459.229313 
L 454.926564 458.988499 
L 456.108428 459.313629 
L 456.69936 458.889831 
L 457.881224 456.894099 
L 459.063088 454.480275 
L 459.65402 453.70259 
L 460.244953 453.582058 
L 460.835885 454.418826 
L 461.426817 455.024435 
L 463.199613 453.928513 
L 463.790545 453.393967 
L 464.381477 453.263882 
L 465.563342 453.7343 
L 466.154274 453.558238 
L 466.745206 452.615028 
L 467.92707 450.022716 
L 468.518002 449.426301 
L 469.699866 449.712402 
L 470.290798 449.051942 
L 471.472663 446.177092 
L 472.063595 445.343099 
L 472.654527 444.944959 
L 473.245459 444.844224 
L 473.836391 445.037509 
L 475.018255 445.635703 
L 475.609187 445.34485 
L 477.381984 442.639836 
L 477.972916 442.146618 
L 478.563848 441.491305 
L 479.745712 439.80015 
L 480.336644 439.344265 
L 480.927576 439.189066 
L 481.518509 439.180929 
L 482.109441 439.379508 
L 482.700373 439.736806 
L 483.291305 439.94414 
L 483.882237 439.817867 
L 484.473169 439.282809 
L 485.655033 437.717331 
L 486.245965 437.226626 
L 486.836897 437.120158 
L 488.018762 437.579004 
L 488.609694 437.509673 
L 489.200626 437.13264 
L 489.791558 436.462304 
L 490.38249 435.487569 
L 491.564354 432.699191 
L 492.155286 431.24391 
L 492.746219 430.169352 
L 493.337151 429.570332 
L 496.291811 427.875434 
L 496.882743 427.215344 
L 497.473675 425.992887 
L 498.064608 424.207208 
L 501.019268 413.250533 
L 501.6102 411.9559 
L 503.973929 408.273276 
L 505.155793 406.33277 
L 505.746725 405.73291 
L 506.337657 405.459462 
L 507.519521 405.245465 
L 508.701386 404.602007 
L 509.292318 404.081457 
L 509.88325 403.252415 
L 511.065114 401.031401 
L 511.656046 400.210961 
L 512.246978 399.757112 
L 512.83791 399.461598 
L 513.428842 398.928628 
L 514.019775 397.887394 
L 515.201639 395.372439 
L 515.792571 394.828278 
L 516.383503 394.950925 
L 518.156299 396.45098 
L 518.747231 396.497471 
L 519.338164 396.311152 
L 520.520028 395.573247 
L 521.701892 394.302078 
L 522.883756 392.599742 
L 525.247485 388.932008 
L 525.838417 388.384418 
L 526.429349 388.154181 
L 527.611213 388.252095 
L 528.793077 388.441818 
L 529.384009 388.385709 
L 529.974941 388.132381 
L 531.156806 387.074692 
L 532.33867 386.073938 
L 532.929602 385.858805 
L 533.520534 385.890822 
L 534.111466 386.180132 
L 534.702398 386.708247 
L 535.884263 388.270515 
L 537.066127 389.839727 
L 537.657059 390.323769 
L 538.247991 390.546758 
L 538.838923 390.548631 
L 539.429855 390.36714 
L 540.020787 390.007761 
L 540.611719 389.463109 
L 541.793584 387.875177 
L 542.975448 386.142858 
L 543.56638 385.561726 
L 544.157312 385.296002 
L 544.748244 385.344493 
L 545.339176 385.690303 
L 545.930108 386.3448 
L 546.521041 387.303738 
L 547.702905 389.823996 
L 549.475701 394.208717 
L 551.248497 399.479282 
L 552.430362 402.930101 
L 553.612226 405.559354 
L 554.79409 407.31662 
L 555.975954 408.522229 
L 564.249004 414.639636 
L 565.430868 415.962732 
L 569.567393 421.160967 
L 571.340189 424.03249 
L 574.885782 430.287759 
L 576.067646 431.972845 
L 577.24951 433.346217 
L 580.204171 436.382668 
L 581.386035 438.037017 
L 583.749763 442.068888 
L 588.47722 449.901949 
L 590.250017 452.527638 
L 593.204677 456.36907 
L 595.568406 459.249359 
L 597.341202 461.101198 
L 601.477727 464.971221 
L 604.432387 467.31758 
L 612.114505 473.168687 
L 615.660097 475.454112 
L 619.20569 477.413205 
L 625.705943 480.849241 
L 628.660604 482.279462 
L 631.615264 483.426629 
L 635.160857 484.814842 
L 639.297382 486.50354 
L 642.252042 487.357814 
L 651.706956 489.953808 
L 664.707462 493.829212 
L 670.616784 495.208042 
L 676.526105 496.370144 
L 684.208222 497.615592 
L 693.072204 498.736386 
L 694.845 498.945013 
L 694.845 498.945013 
" clip-path="url(#p017358f8bb)" style="fill: none; stroke: #00ffff; stroke-width: 2; stroke-linecap: square"/>
   </g>
   <g id="patch_3">
    <path d="M 103.912891 509.9875 
L 103.912891 26.28 
" style="fill: none; stroke: #000000; stroke-width: 0.8; stroke-linejoin: miter; stroke-linecap: square"/>
   </g>
   <g id="patch_4">
    <path d="M 694.845 509.9875 
L 694.845 26.28 
" style="fill: none; stroke: #000000; stroke-width: 0.8; stroke-linejoin: miter; stroke-linecap: square"/>
   </g>
   <g id="patch_5">
    <path d="M 103.912891 509.9875 
L 694.845 509.9875 
" style="fill: none; stroke: #000000; stroke-width: 0.8; stroke-linejoin: miter; stroke-linecap: square"/>
   </g>
   <g id="patch_6">
    <path d="M 103.912891 26.28 
L 694.845 26.28 
" style="fill: none; stroke: #000000; stroke-width: 0.8; stroke-linejoin: miter; stroke-linecap: square"/>
   </g>
   <g id="legend_1">
    <g id="patch_7">
     <path d="M 517.365 199.240313 
L 685.845 199.240313 
L 685.845 35.28 
L 517.365 35.28 
z
" style="fill: #ffffff; opacity: 0.8; stroke: #000000; stroke-linejoin: miter"/>
    </g>
    <g id="line2d_35">
     <path d="M 524.565 49.857188 
L 542.565 49.857188 
L 560.565 49.857188 
" style="fill: none; stroke-dasharray: 14.8,6.4; stroke-dashoffset: 0; stroke: #000000; stroke-width: 4"/>
    </g>
    <g id="text_17">
     <!-- $\rho_0$ -->
     <g transform="translate(574.965 56.157188) scale(0.18 -0.18)">
      <use xlink:href="#DejaVuSans-Oblique-3c1"/>
      <use xlink:href="#DejaVuSans-30" transform="translate(63.476562 -16.40625) scale(0.7)"/>
     </g>
    </g>
    <g id="line2d_36">
     <path d="M 524.565 76.314375 
L 542.565 76.314375 
L 560.565 76.314375 
" style="fill: none; stroke: #dc143c; stroke-width: 2; stroke-linecap: square"/>
    </g>
    <g id="text_18">
     <!-- $\it{k_bT= 0.000}$ -->
     <g transform="translate(574.965 82.614375) scale(0.18 -0.18)">
      <defs>
       <path id="DejaVuSans-Oblique-6b" d="M 1172 4863 
L 1747 4863 
L 1197 2028 
L 3169 3500 
L 3916 3500 
L 1716 1825 
L 3322 0 
L 2625 0 
L 1131 1709 
L 800 0 
L 225 0 
L 1172 4863 
z
" transform="scale(0.015625)"/>
       <path id="DejaVuSans-Oblique-62" d="M 3169 2138 
Q 3169 2591 2961 2847 
Q 2753 3103 2388 3103 
Q 2122 3103 1889 2973 
Q 1656 2844 1484 2597 
Q 1303 2338 1198 1995 
Q 1094 1653 1094 1313 
Q 1094 881 1298 636 
Q 1503 391 1863 391 
Q 2134 391 2365 517 
Q 2597 644 2772 891 
Q 2950 1147 3059 1487 
Q 3169 1828 3169 2138 
z
M 1381 2969 
Q 1594 3256 1914 3420 
Q 2234 3584 2584 3584 
Q 3122 3584 3439 3221 
Q 3756 2859 3756 2241 
Q 3756 1734 3570 1259 
Q 3384 784 3041 416 
Q 2816 172 2522 40 
Q 2228 -91 1906 -91 
Q 1566 -91 1316 65 
Q 1066 222 909 531 
L 806 0 
L 231 0 
L 1178 4863 
L 1753 4863 
L 1381 2969 
z
" transform="scale(0.015625)"/>
       <path id="DejaVuSans-Oblique-54" d="M 378 4666 
L 4325 4666 
L 4225 4134 
L 2559 4134 
L 1759 0 
L 1125 0 
L 1925 4134 
L 275 4134 
L 378 4666 
z
" transform="scale(0.015625)"/>
       <path id="DejaVuSans-3d" d="M 678 2906 
L 4684 2906 
L 4684 2381 
L 678 2381 
L 678 2906 
z
M 678 1631 
L 4684 1631 
L 4684 1100 
L 678 1100 
L 678 1631 
z
" transform="scale(0.015625)"/>
      </defs>
      <use xlink:href="#DejaVuSans-Oblique-6b" transform="translate(0 0.015625)"/>
      <use xlink:href="#DejaVuSans-Oblique-62" transform="translate(57.910156 -16.390625) scale(0.7)"/>
      <use xlink:href="#DejaVuSans-Oblique-54" transform="translate(105.078125 0.015625)"/>
      <use xlink:href="#DejaVuSans-3d" transform="translate(185.644531 0.015625)"/>
      <use xlink:href="#DejaVuSans-30" transform="translate(288.916016 0.015625)"/>
      <use xlink:href="#DejaVuSans-2e" transform="translate(352.539062 0.015625)"/>
      <use xlink:href="#DejaVuSans-30" transform="translate(384.326172 0.015625)"/>
      <use xlink:href="#DejaVuSans-30" transform="translate(447.949219 0.015625)"/>
      <use xlink:href="#DejaVuSans-30" transform="translate(511.572266 0.015625)"/>
     </g>
    </g>
    <g id="line2d_37">
     <path d="M 524.565 102.735 
L 542.565 102.735 
L 560.565 102.735 
" style="fill: none; stroke: #ff8c00; stroke-width: 2; stroke-linecap: square"/>
    </g>
    <g id="text_19">
     <!-- $\it{k_bT= 0.001}$ -->
     <g transform="translate(574.965 109.035) scale(0.18 -0.18)">
      <use xlink:href="#DejaVuSans-Oblique-6b" transform="translate(0 0.015625)"/>
      <use xlink:href="#DejaVuSans-Oblique-62" transform="translate(57.910156 -16.390625) scale(0.7)"/>
      <use xlink:href="#DejaVuSans-Oblique-54" transform="translate(105.078125 0.015625)"/>
      <use xlink:href="#DejaVuSans-3d" transform="translate(185.644531 0.015625)"/>
      <use xlink:href="#DejaVuSans-30" transform="translate(288.916016 0.015625)"/>
      <use xlink:href="#DejaVuSans-2e" transform="translate(352.539062 0.015625)"/>
      <use xlink:href="#DejaVuSans-30" transform="translate(384.326172 0.015625)"/>
      <use xlink:href="#DejaVuSans-30" transform="translate(447.949219 0.015625)"/>
      <use xlink:href="#DejaVuSans-31" transform="translate(511.572266 0.015625)"/>
     </g>
    </g>
    <g id="line2d_38">
     <path d="M 524.565 129.155625 
L 542.565 129.155625 
L 560.565 129.155625 
" style="fill: none; stroke: #00ff00; stroke-width: 2; stroke-linecap: square"/>
    </g>
    <g id="text_20">
     <!-- $\it{k_bT= 0.010}$ -->
     <g transform="translate(574.965 135.455625) scale(0.18 -0.18)">
      <use xlink:href="#DejaVuSans-Oblique-6b" transform="translate(0 0.015625)"/>
      <use xlink:href="#DejaVuSans-Oblique-62" transform="translate(57.910156 -16.390625) scale(0.7)"/>
      <use xlink:href="#DejaVuSans-Oblique-54" transform="translate(105.078125 0.015625)"/>
      <use xlink:href="#DejaVuSans-3d" transform="translate(185.644531 0.015625)"/>
      <use xlink:href="#DejaVuSans-30" transform="translate(288.916016 0.015625)"/>
      <use xlink:href="#DejaVuSans-2e" transform="translate(352.539062 0.015625)"/>
      <use xlink:href="#DejaVuSans-30" transform="translate(384.326172 0.015625)"/>
      <use xlink:href="#DejaVuSans-31" transform="translate(447.949219 0.015625)"/>
      <use xlink:href="#DejaVuSans-30" transform="translate(511.572266 0.015625)"/>
     </g>
    </g>
    <g id="line2d_39">
     <path d="M 524.565 155.57625 
L 542.565 155.57625 
L 560.565 155.57625 
" style="fill: none; stroke: #40e0d0; stroke-width: 2; stroke-linecap: square"/>
    </g>
    <g id="text_21">
     <!-- $\it{k_bT= 0.100}$ -->
     <g transform="translate(574.965 161.87625) scale(0.18 -0.18)">
      <use xlink:href="#DejaVuSans-Oblique-6b" transform="translate(0 0.015625)"/>
      <use xlink:href="#DejaVuSans-Oblique-62" transform="translate(57.910156 -16.390625) scale(0.7)"/>
      <use xlink:href="#DejaVuSans-Oblique-54" transform="translate(105.078125 0.015625)"/>
      <use xlink:href="#DejaVuSans-3d" transform="translate(185.644531 0.015625)"/>
      <use xlink:href="#DejaVuSans-30" transform="translate(288.916016 0.015625)"/>
      <use xlink:href="#DejaVuSans-2e" transform="translate(352.539062 0.015625)"/>
      <use xlink:href="#DejaVuSans-31" transform="translate(384.326172 0.015625)"/>
      <use xlink:href="#DejaVuSans-30" transform="translate(447.949219 0.015625)"/>
      <use xlink:href="#DejaVuSans-30" transform="translate(511.572266 0.015625)"/>
     </g>
    </g>
    <g id="line2d_40">
     <path d="M 524.565 181.996875 
L 542.565 181.996875 
L 560.565 181.996875 
" style="fill: none; stroke: #00ffff; stroke-width: 2; stroke-linecap: square"/>
    </g>
    <g id="text_22">
     <!-- $\it{k_bT= 1.000}$ -->
     <g transform="translate(574.965 188.296875) scale(0.18 -0.18)">
      <use xlink:href="#DejaVuSans-Oblique-6b" transform="translate(0 0.015625)"/>
      <use xlink:href="#DejaVuSans-Oblique-62" transform="translate(57.910156 -16.390625) scale(0.7)"/>
      <use xlink:href="#DejaVuSans-Oblique-54" transform="translate(105.078125 0.015625)"/>
      <use xlink:href="#DejaVuSans-3d" transform="translate(185.644531 0.015625)"/>
      <use xlink:href="#DejaVuSans-31" transform="translate(288.916016 0.015625)"/>
      <use xlink:href="#DejaVuSans-2e" transform="translate(352.539062 0.015625)"/>
      <use xlink:href="#DejaVuSans-30" transform="translate(384.326172 0.015625)"/>
      <use xlink:href="#DejaVuSans-30" transform="translate(447.949219 0.015625)"/>
      <use xlink:href="#DejaVuSans-30" transform="translate(511.572266 0.015625)"/>
     </g>
    </g>
   </g>
  </g>
 </g>
 <defs>
  <clipPath id="p017358f8bb">
   <rect x="103.912891" y="26.28" width="590.932109" height="483.7075"/>
  </clipPath>
 </defs>
</svg>
