<?xml version="1.0" encoding="utf-8" standalone="no"?>
<!DOCTYPE svg PUBLIC "-//W3C//DTD SVG 1.1//EN"
  "http://www.w3.org/Graphics/SVG/1.1/DTD/svg11.dtd">
<svg xmlns:xlink="http://www.w3.org/1999/xlink" width="720pt" height="576pt" viewBox="0 0 720 576" xmlns="http://www.w3.org/2000/svg" version="1.1">
 <metadata>
  <rdf:RDF xmlns:dc="http://purl.org/dc/elements/1.1/" xmlns:cc="http://creativecommons.org/ns#" xmlns:rdf="http://www.w3.org/1999/02/22-rdf-syntax-ns#">
   <cc:Work>
    <dc:type rdf:resource="http://purl.org/dc/dcmitype/StillImage"/>
    <dc:date>2023-04-05T15:52:06.363602</dc:date>
    <dc:format>image/svg+xml</dc:format>
    <dc:creator>
     <cc:Agent>
      <dc:title>Matplotlib v3.7.1, https://matplotlib.org/</dc:title>
     </cc:Agent>
    </dc:creator>
   </cc:Work>
  </rdf:RDF>
 </metadata>
 <defs>
  <style type="text/css">*{stroke-linejoin: round; stroke-linecap: butt}</style>
 </defs>
 <g id="figure_1">
  <g id="patch_1">
   <path d="M 0 576 
L 720 576 
L 720 0 
L 0 0 
z
" style="fill: #ffffff"/>
  </g>
  <g id="axes_1">
   <g id="patch_2">
    <path d="M 129.775152 489.1525 
L 685.035 489.1525 
L 685.035 36.72 
L 129.775152 36.72 
z
" style="fill: #ffffff"/>
   </g>
   <g id="matplotlib.axis_1">
    <g id="xtick_1">
     <g id="line2d_1">
      <path d="M 129.775152 489.1525 
L 129.775152 36.72 
" clip-path="url(#pe750caca30)" style="fill: none; stroke: #b0b0b0; stroke-width: 0.8; stroke-linecap: square"/>
     </g>
     <g id="line2d_2">
      <defs>
       <path id="m25e4c8622b" d="M 0 0 
L 0 3.5 
" style="stroke: #000000; stroke-width: 0.8"/>
      </defs>
      <g>
       <use xlink:href="#m25e4c8622b" x="129.775152" y="489.1525" style="stroke: #000000; stroke-width: 0.8"/>
      </g>
     </g>
     <g id="text_1">
      <!-- −3 -->
      <g transform="translate(111.347418 515.148594) scale(0.25 -0.25)">
       <defs>
        <path id="DejaVuSans-2212" d="M 678 2272 
L 4684 2272 
L 4684 1741 
L 678 1741 
L 678 2272 
z
" transform="scale(0.015625)"/>
        <path id="DejaVuSans-33" d="M 2597 2516 
Q 3050 2419 3304 2112 
Q 3559 1806 3559 1356 
Q 3559 666 3084 287 
Q 2609 -91 1734 -91 
Q 1441 -91 1130 -33 
Q 819 25 488 141 
L 488 750 
Q 750 597 1062 519 
Q 1375 441 1716 441 
Q 2309 441 2620 675 
Q 2931 909 2931 1356 
Q 2931 1769 2642 2001 
Q 2353 2234 1838 2234 
L 1294 2234 
L 1294 2753 
L 1863 2753 
Q 2328 2753 2575 2939 
Q 2822 3125 2822 3475 
Q 2822 3834 2567 4026 
Q 2313 4219 1838 4219 
Q 1578 4219 1281 4162 
Q 984 4106 628 3988 
L 628 4550 
Q 988 4650 1302 4700 
Q 1616 4750 1894 4750 
Q 2613 4750 3031 4423 
Q 3450 4097 3450 3541 
Q 3450 3153 3228 2886 
Q 3006 2619 2597 2516 
z
" transform="scale(0.015625)"/>
       </defs>
       <use xlink:href="#DejaVuSans-2212"/>
       <use xlink:href="#DejaVuSans-33" x="83.789062"/>
      </g>
     </g>
    </g>
    <g id="xtick_2">
     <g id="line2d_3">
      <path d="M 222.31846 489.1525 
L 222.31846 36.72 
" clip-path="url(#pe750caca30)" style="fill: none; stroke: #b0b0b0; stroke-width: 0.8; stroke-linecap: square"/>
     </g>
     <g id="line2d_4">
      <g>
       <use xlink:href="#m25e4c8622b" x="222.31846" y="489.1525" style="stroke: #000000; stroke-width: 0.8"/>
      </g>
     </g>
     <g id="text_2">
      <!-- −2 -->
      <g transform="translate(203.890726 515.148594) scale(0.25 -0.25)">
       <defs>
        <path id="DejaVuSans-32" d="M 1228 531 
L 3431 531 
L 3431 0 
L 469 0 
L 469 531 
Q 828 903 1448 1529 
Q 2069 2156 2228 2338 
Q 2531 2678 2651 2914 
Q 2772 3150 2772 3378 
Q 2772 3750 2511 3984 
Q 2250 4219 1831 4219 
Q 1534 4219 1204 4116 
Q 875 4013 500 3803 
L 500 4441 
Q 881 4594 1212 4672 
Q 1544 4750 1819 4750 
Q 2544 4750 2975 4387 
Q 3406 4025 3406 3419 
Q 3406 3131 3298 2873 
Q 3191 2616 2906 2266 
Q 2828 2175 2409 1742 
Q 1991 1309 1228 531 
z
" transform="scale(0.015625)"/>
       </defs>
       <use xlink:href="#DejaVuSans-2212"/>
       <use xlink:href="#DejaVuSans-32" x="83.789062"/>
      </g>
     </g>
    </g>
    <g id="xtick_3">
     <g id="line2d_5">
      <path d="M 314.861768 489.1525 
L 314.861768 36.72 
" clip-path="url(#pe750caca30)" style="fill: none; stroke: #b0b0b0; stroke-width: 0.8; stroke-linecap: square"/>
     </g>
     <g id="line2d_6">
      <g>
       <use xlink:href="#m25e4c8622b" x="314.861768" y="489.1525" style="stroke: #000000; stroke-width: 0.8"/>
      </g>
     </g>
     <g id="text_3">
      <!-- −1 -->
      <g transform="translate(296.434034 515.148594) scale(0.25 -0.25)">
       <defs>
        <path id="DejaVuSans-31" d="M 794 531 
L 1825 531 
L 1825 4091 
L 703 3866 
L 703 4441 
L 1819 4666 
L 2450 4666 
L 2450 531 
L 3481 531 
L 3481 0 
L 794 0 
L 794 531 
z
" transform="scale(0.015625)"/>
       </defs>
       <use xlink:href="#DejaVuSans-2212"/>
       <use xlink:href="#DejaVuSans-31" x="83.789062"/>
      </g>
     </g>
    </g>
    <g id="xtick_4">
     <g id="line2d_7">
      <path d="M 407.405076 489.1525 
L 407.405076 36.72 
" clip-path="url(#pe750caca30)" style="fill: none; stroke: #b0b0b0; stroke-width: 0.8; stroke-linecap: square"/>
     </g>
     <g id="line2d_8">
      <g>
       <use xlink:href="#m25e4c8622b" x="407.405076" y="489.1525" style="stroke: #000000; stroke-width: 0.8"/>
      </g>
     </g>
     <g id="text_4">
      <!-- 0 -->
      <g transform="translate(399.451951 515.148594) scale(0.25 -0.25)">
       <defs>
        <path id="DejaVuSans-30" d="M 2034 4250 
Q 1547 4250 1301 3770 
Q 1056 3291 1056 2328 
Q 1056 1369 1301 889 
Q 1547 409 2034 409 
Q 2525 409 2770 889 
Q 3016 1369 3016 2328 
Q 3016 3291 2770 3770 
Q 2525 4250 2034 4250 
z
M 2034 4750 
Q 2819 4750 3233 4129 
Q 3647 3509 3647 2328 
Q 3647 1150 3233 529 
Q 2819 -91 2034 -91 
Q 1250 -91 836 529 
Q 422 1150 422 2328 
Q 422 3509 836 4129 
Q 1250 4750 2034 4750 
z
" transform="scale(0.015625)"/>
       </defs>
       <use xlink:href="#DejaVuSans-30"/>
      </g>
     </g>
    </g>
    <g id="xtick_5">
     <g id="line2d_9">
      <path d="M 499.948384 489.1525 
L 499.948384 36.72 
" clip-path="url(#pe750caca30)" style="fill: none; stroke: #b0b0b0; stroke-width: 0.8; stroke-linecap: square"/>
     </g>
     <g id="line2d_10">
      <g>
       <use xlink:href="#m25e4c8622b" x="499.948384" y="489.1525" style="stroke: #000000; stroke-width: 0.8"/>
      </g>
     </g>
     <g id="text_5">
      <!-- 1 -->
      <g transform="translate(491.995259 515.148594) scale(0.25 -0.25)">
       <use xlink:href="#DejaVuSans-31"/>
      </g>
     </g>
    </g>
    <g id="xtick_6">
     <g id="line2d_11">
      <path d="M 592.491692 489.1525 
L 592.491692 36.72 
" clip-path="url(#pe750caca30)" style="fill: none; stroke: #b0b0b0; stroke-width: 0.8; stroke-linecap: square"/>
     </g>
     <g id="line2d_12">
      <g>
       <use xlink:href="#m25e4c8622b" x="592.491692" y="489.1525" style="stroke: #000000; stroke-width: 0.8"/>
      </g>
     </g>
     <g id="text_6">
      <!-- 2 -->
      <g transform="translate(584.538567 515.148594) scale(0.25 -0.25)">
       <use xlink:href="#DejaVuSans-32"/>
      </g>
     </g>
    </g>
    <g id="xtick_7">
     <g id="line2d_13">
      <path d="M 685.035 489.1525 
L 685.035 36.72 
" clip-path="url(#pe750caca30)" style="fill: none; stroke: #b0b0b0; stroke-width: 0.8; stroke-linecap: square"/>
     </g>
     <g id="line2d_14">
      <g>
       <use xlink:href="#m25e4c8622b" x="685.035" y="489.1525" style="stroke: #000000; stroke-width: 0.8"/>
      </g>
     </g>
     <g id="text_7">
      <!-- 3 -->
      <g transform="translate(677.081875 515.148594) scale(0.25 -0.25)">
       <use xlink:href="#DejaVuSans-33"/>
      </g>
     </g>
    </g>
    <g id="text_8">
     <!-- $\omega$ [-] -->
     <g transform="translate(382.530076 541.351719) scale(0.25 -0.25)">
      <defs>
       <path id="DejaVuSans-Oblique-3c9" d="M 1369 -91 
Q 72 -91 434 1766 
Q 575 2500 1256 3500 
L 1875 3500 
Q 1231 2500 1088 1750 
Q 819 397 1519 397 
Q 2166 397 2478 2078 
L 3009 2078 
Q 2669 388 3316 397 
Q 4013 403 4275 1750 
Q 4419 2500 4169 3500 
L 4788 3500 
Q 5075 2500 4934 1766 
Q 4578 -94 3278 -91 
Q 2428 -88 2503 844 
Q 2194 -91 1369 -91 
z
" transform="scale(0.015625)"/>
       <path id="Calibri-20" transform="scale(0.015625)"/>
       <path id="Calibri-5b" d="M 1684 -813 
Q 1684 -916 1661 -958 
Q 1638 -1000 1594 -1000 
L 794 -1000 
Q 756 -1000 722 -989 
Q 688 -978 659 -953 
Q 631 -928 614 -886 
Q 597 -844 597 -781 
L 597 4153 
Q 597 4213 614 4255 
Q 631 4297 659 4323 
Q 688 4350 722 4361 
Q 756 4372 794 4372 
L 1594 4372 
Q 1613 4372 1630 4362 
Q 1647 4353 1659 4328 
Q 1672 4303 1678 4267 
Q 1684 4231 1684 4178 
Q 1684 4078 1661 4034 
Q 1638 3991 1594 3991 
L 1084 3991 
L 1084 -622 
L 1594 -622 
Q 1613 -622 1630 -631 
Q 1647 -641 1659 -664 
Q 1672 -688 1678 -723 
Q 1684 -759 1684 -813 
z
" transform="scale(0.015625)"/>
       <path id="Calibri-2d" d="M 1744 1578 
Q 1744 1456 1716 1409 
Q 1688 1363 1634 1363 
L 328 1363 
Q 272 1363 244 1411 
Q 216 1459 216 1578 
Q 216 1697 244 1744 
Q 272 1791 328 1791 
L 1634 1791 
Q 1659 1791 1679 1781 
Q 1700 1772 1714 1745 
Q 1728 1719 1736 1678 
Q 1744 1638 1744 1578 
z
" transform="scale(0.015625)"/>
       <path id="Calibri-5d" d="M 1369 -781 
Q 1369 -844 1351 -886 
Q 1334 -928 1306 -953 
Q 1278 -978 1242 -989 
Q 1206 -1000 1169 -1000 
L 372 -1000 
Q 328 -1000 304 -958 
Q 281 -916 281 -813 
Q 281 -759 286 -723 
Q 291 -688 303 -664 
Q 316 -641 333 -631 
Q 350 -622 372 -622 
L 881 -622 
L 881 3991 
L 372 3991 
Q 328 3991 304 4034 
Q 281 4078 281 4178 
Q 281 4231 286 4267 
Q 291 4303 303 4328 
Q 316 4353 333 4362 
Q 350 4372 372 4372 
L 1169 4372 
Q 1206 4372 1242 4361 
Q 1278 4350 1306 4323 
Q 1334 4297 1351 4255 
Q 1369 4213 1369 4153 
L 1369 -781 
z
" transform="scale(0.015625)"/>
      </defs>
      <use xlink:href="#DejaVuSans-Oblique-3c9" transform="translate(0 0.6875)"/>
      <use xlink:href="#Calibri-20" transform="translate(83.740234 0.6875)"/>
      <use xlink:href="#Calibri-5b" transform="translate(106.347656 0.6875)"/>
      <use xlink:href="#Calibri-2d" transform="translate(137.011719 0.6875)"/>
      <use xlink:href="#Calibri-5d" transform="translate(167.626953 0.6875)"/>
     </g>
    </g>
   </g>
   <g id="matplotlib.axis_2">
    <g id="ytick_1">
     <g id="line2d_15">
      <path d="M 129.775152 489.1525 
L 685.035 489.1525 
" clip-path="url(#pe750caca30)" style="fill: none; stroke: #b0b0b0; stroke-width: 0.8; stroke-linecap: square"/>
     </g>
     <g id="line2d_16">
      <defs>
       <path id="mbdac595687" d="M 0 0 
L -3.5 0 
" style="stroke: #000000; stroke-width: 0.8"/>
      </defs>
      <g>
       <use xlink:href="#mbdac595687" x="129.775152" y="489.1525" style="stroke: #000000; stroke-width: 0.8"/>
      </g>
     </g>
     <g id="text_9">
      <!-- 0.0 -->
      <g transform="translate(83.017339 498.650547) scale(0.25 -0.25)">
       <defs>
        <path id="DejaVuSans-2e" d="M 684 794 
L 1344 794 
L 1344 0 
L 684 0 
L 684 794 
z
" transform="scale(0.015625)"/>
       </defs>
       <use xlink:href="#DejaVuSans-30"/>
       <use xlink:href="#DejaVuSans-2e" x="63.623047"/>
       <use xlink:href="#DejaVuSans-30" x="95.410156"/>
      </g>
     </g>
    </g>
    <g id="ytick_2">
     <g id="line2d_17">
      <path d="M 129.775152 413.747083 
L 685.035 413.747083 
" clip-path="url(#pe750caca30)" style="fill: none; stroke: #b0b0b0; stroke-width: 0.8; stroke-linecap: square"/>
     </g>
     <g id="line2d_18">
      <g>
       <use xlink:href="#mbdac595687" x="129.775152" y="413.747083" style="stroke: #000000; stroke-width: 0.8"/>
      </g>
     </g>
     <g id="text_10">
      <!-- 0.2 -->
      <g transform="translate(83.017339 423.24513) scale(0.25 -0.25)">
       <use xlink:href="#DejaVuSans-30"/>
       <use xlink:href="#DejaVuSans-2e" x="63.623047"/>
       <use xlink:href="#DejaVuSans-32" x="95.410156"/>
      </g>
     </g>
    </g>
    <g id="ytick_3">
     <g id="line2d_19">
      <path d="M 129.775152 338.341667 
L 685.035 338.341667 
" clip-path="url(#pe750caca30)" style="fill: none; stroke: #b0b0b0; stroke-width: 0.8; stroke-linecap: square"/>
     </g>
     <g id="line2d_20">
      <g>
       <use xlink:href="#mbdac595687" x="129.775152" y="338.341667" style="stroke: #000000; stroke-width: 0.8"/>
      </g>
     </g>
     <g id="text_11">
      <!-- 0.4 -->
      <g transform="translate(83.017339 347.839714) scale(0.25 -0.25)">
       <defs>
        <path id="DejaVuSans-34" d="M 2419 4116 
L 825 1625 
L 2419 1625 
L 2419 4116 
z
M 2253 4666 
L 3047 4666 
L 3047 1625 
L 3713 1625 
L 3713 1100 
L 3047 1100 
L 3047 0 
L 2419 0 
L 2419 1100 
L 313 1100 
L 313 1709 
L 2253 4666 
z
" transform="scale(0.015625)"/>
       </defs>
       <use xlink:href="#DejaVuSans-30"/>
       <use xlink:href="#DejaVuSans-2e" x="63.623047"/>
       <use xlink:href="#DejaVuSans-34" x="95.410156"/>
      </g>
     </g>
    </g>
    <g id="ytick_4">
     <g id="line2d_21">
      <path d="M 129.775152 262.93625 
L 685.035 262.93625 
" clip-path="url(#pe750caca30)" style="fill: none; stroke: #b0b0b0; stroke-width: 0.8; stroke-linecap: square"/>
     </g>
     <g id="line2d_22">
      <g>
       <use xlink:href="#mbdac595687" x="129.775152" y="262.93625" style="stroke: #000000; stroke-width: 0.8"/>
      </g>
     </g>
     <g id="text_12">
      <!-- 0.6 -->
      <g transform="translate(83.017339 272.434297) scale(0.25 -0.25)">
       <defs>
        <path id="DejaVuSans-36" d="M 2113 2584 
Q 1688 2584 1439 2293 
Q 1191 2003 1191 1497 
Q 1191 994 1439 701 
Q 1688 409 2113 409 
Q 2538 409 2786 701 
Q 3034 994 3034 1497 
Q 3034 2003 2786 2293 
Q 2538 2584 2113 2584 
z
M 3366 4563 
L 3366 3988 
Q 3128 4100 2886 4159 
Q 2644 4219 2406 4219 
Q 1781 4219 1451 3797 
Q 1122 3375 1075 2522 
Q 1259 2794 1537 2939 
Q 1816 3084 2150 3084 
Q 2853 3084 3261 2657 
Q 3669 2231 3669 1497 
Q 3669 778 3244 343 
Q 2819 -91 2113 -91 
Q 1303 -91 875 529 
Q 447 1150 447 2328 
Q 447 3434 972 4092 
Q 1497 4750 2381 4750 
Q 2619 4750 2861 4703 
Q 3103 4656 3366 4563 
z
" transform="scale(0.015625)"/>
       </defs>
       <use xlink:href="#DejaVuSans-30"/>
       <use xlink:href="#DejaVuSans-2e" x="63.623047"/>
       <use xlink:href="#DejaVuSans-36" x="95.410156"/>
      </g>
     </g>
    </g>
    <g id="ytick_5">
     <g id="line2d_23">
      <path d="M 129.775152 187.530833 
L 685.035 187.530833 
" clip-path="url(#pe750caca30)" style="fill: none; stroke: #b0b0b0; stroke-width: 0.8; stroke-linecap: square"/>
     </g>
     <g id="line2d_24">
      <g>
       <use xlink:href="#mbdac595687" x="129.775152" y="187.530833" style="stroke: #000000; stroke-width: 0.8"/>
      </g>
     </g>
     <g id="text_13">
      <!-- 0.8 -->
      <g transform="translate(83.017339 197.02888) scale(0.25 -0.25)">
       <defs>
        <path id="DejaVuSans-38" d="M 2034 2216 
Q 1584 2216 1326 1975 
Q 1069 1734 1069 1313 
Q 1069 891 1326 650 
Q 1584 409 2034 409 
Q 2484 409 2743 651 
Q 3003 894 3003 1313 
Q 3003 1734 2745 1975 
Q 2488 2216 2034 2216 
z
M 1403 2484 
Q 997 2584 770 2862 
Q 544 3141 544 3541 
Q 544 4100 942 4425 
Q 1341 4750 2034 4750 
Q 2731 4750 3128 4425 
Q 3525 4100 3525 3541 
Q 3525 3141 3298 2862 
Q 3072 2584 2669 2484 
Q 3125 2378 3379 2068 
Q 3634 1759 3634 1313 
Q 3634 634 3220 271 
Q 2806 -91 2034 -91 
Q 1263 -91 848 271 
Q 434 634 434 1313 
Q 434 1759 690 2068 
Q 947 2378 1403 2484 
z
M 1172 3481 
Q 1172 3119 1398 2916 
Q 1625 2713 2034 2713 
Q 2441 2713 2670 2916 
Q 2900 3119 2900 3481 
Q 2900 3844 2670 4047 
Q 2441 4250 2034 4250 
Q 1625 4250 1398 4047 
Q 1172 3844 1172 3481 
z
" transform="scale(0.015625)"/>
       </defs>
       <use xlink:href="#DejaVuSans-30"/>
       <use xlink:href="#DejaVuSans-2e" x="63.623047"/>
       <use xlink:href="#DejaVuSans-38" x="95.410156"/>
      </g>
     </g>
    </g>
    <g id="ytick_6">
     <g id="line2d_25">
      <path d="M 129.775152 112.125417 
L 685.035 112.125417 
" clip-path="url(#pe750caca30)" style="fill: none; stroke: #b0b0b0; stroke-width: 0.8; stroke-linecap: square"/>
     </g>
     <g id="line2d_26">
      <g>
       <use xlink:href="#mbdac595687" x="129.775152" y="112.125417" style="stroke: #000000; stroke-width: 0.8"/>
      </g>
     </g>
     <g id="text_14">
      <!-- 1.0 -->
      <g transform="translate(83.017339 121.623464) scale(0.25 -0.25)">
       <use xlink:href="#DejaVuSans-31"/>
       <use xlink:href="#DejaVuSans-2e" x="63.623047"/>
       <use xlink:href="#DejaVuSans-30" x="95.410156"/>
      </g>
     </g>
    </g>
    <g id="ytick_7">
     <g id="line2d_27">
      <path d="M 129.775152 36.72 
L 685.035 36.72 
" clip-path="url(#pe750caca30)" style="fill: none; stroke: #b0b0b0; stroke-width: 0.8; stroke-linecap: square"/>
     </g>
     <g id="line2d_28">
      <g>
       <use xlink:href="#mbdac595687" x="129.775152" y="36.72" style="stroke: #000000; stroke-width: 0.8"/>
      </g>
     </g>
     <g id="text_15">
      <!-- 1.2 -->
      <g transform="translate(83.017339 46.218047) scale(0.25 -0.25)">
       <use xlink:href="#DejaVuSans-31"/>
       <use xlink:href="#DejaVuSans-2e" x="63.623047"/>
       <use xlink:href="#DejaVuSans-32" x="95.410156"/>
      </g>
     </g>
    </g>
    <g id="text_16">
     <!-- $\rho$($\omega$) -->
     <g transform="translate(27.017339 257.68625) scale(0.25 -0.25)">
      <defs>
       <path id="DejaVuSans-Oblique-3c1" d="M 1203 2875 
Q 1453 3194 1981 3475 
Q 2188 3584 2756 3584 
Q 3394 3584 3694 3078 
Q 3994 2572 3834 1747 
Q 3672 922 3175 415 
Q 2678 -91 2041 -91 
Q 1656 -91 1409 63 
Q 1163 213 1044 525 
L 681 -1331 
L 103 -1331 
L 697 1716 
Q 838 2438 1203 2875 
z
M 3238 1747 
Q 3359 2381 3169 2744 
Q 2978 3103 2522 3103 
Q 2066 3103 1734 2744 
Q 1403 2381 1281 1747 
Q 1156 1113 1347 750 
Q 1538 391 1994 391 
Q 2450 391 2781 750 
Q 3113 1113 3238 1747 
z
" transform="scale(0.015625)"/>
       <path id="Calibri-28" d="M 1547 4306 
Q 1250 3678 1104 3017 
Q 959 2356 959 1688 
Q 959 1016 1107 356 
Q 1256 -303 1541 -938 
Q 1556 -975 1557 -1001 
Q 1559 -1028 1537 -1045 
Q 1516 -1063 1470 -1070 
Q 1425 -1078 1347 -1078 
Q 1291 -1078 1250 -1075 
Q 1209 -1072 1179 -1062 
Q 1150 -1053 1131 -1040 
Q 1113 -1028 1103 -1013 
Q 934 -694 806 -367 
Q 678 -41 590 296 
Q 503 634 459 979 
Q 416 1325 416 1678 
Q 416 2031 464 2375 
Q 513 2719 602 3058 
Q 691 3397 819 3725 
Q 947 4053 1106 4375 
Q 1109 4388 1123 4397 
Q 1138 4406 1163 4415 
Q 1188 4425 1231 4429 
Q 1275 4434 1344 4434 
Q 1416 4434 1459 4425 
Q 1503 4416 1528 4400 
Q 1553 4384 1556 4359 
Q 1559 4334 1547 4306 
z
" transform="scale(0.015625)"/>
       <path id="Calibri-29" d="M 1522 1678 
Q 1522 1325 1478 979 
Q 1434 634 1346 296 
Q 1259 -41 1132 -367 
Q 1006 -694 838 -1013 
Q 828 -1028 809 -1040 
Q 791 -1053 761 -1062 
Q 731 -1072 690 -1075 
Q 650 -1078 594 -1078 
Q 513 -1078 467 -1070 
Q 422 -1063 401 -1045 
Q 381 -1028 382 -1001 
Q 384 -975 400 -938 
Q 688 -306 834 355 
Q 981 1016 981 1688 
Q 981 2356 834 3017 
Q 688 3678 394 4306 
Q 381 4334 384 4359 
Q 388 4384 413 4400 
Q 438 4416 481 4425 
Q 525 4434 597 4434 
Q 663 4434 706 4429 
Q 750 4425 776 4415 
Q 803 4406 815 4397 
Q 828 4388 834 4375 
Q 1156 3734 1339 3057 
Q 1522 2381 1522 1678 
z
" transform="scale(0.015625)"/>
      </defs>
      <use xlink:href="#DejaVuSans-Oblique-3c1" transform="translate(0 0.71875)"/>
      <use xlink:href="#Calibri-28" transform="translate(63.476562 0.71875)"/>
      <use xlink:href="#DejaVuSans-Oblique-3c9" transform="translate(93.798828 0.71875)"/>
      <use xlink:href="#Calibri-29" transform="translate(177.539062 0.71875)"/>
     </g>
    </g>
   </g>
   <g id="line2d_29">
    <path d="M 129.775152 485.191726 
L 155.317105 484.358547 
L 176.416979 483.455768 
L 194.185294 482.483241 
L 209.73257 481.41398 
L 223.058806 480.280428 
L 234.719263 479.073027 
L 245.2692 477.757219 
L 254.708618 476.351279 
L 263.037516 474.885804 
L 270.255894 473.405198 
L 276.919012 471.827331 
L 283.02687 470.166711 
L 288.579469 468.444876 
L 294.132067 466.482825 
L 299.129406 464.47402 
L 303.571484 462.461225 
L 308.013563 460.198636 
L 311.900382 457.981343 
L 315.787201 455.507575 
L 319.67402 452.737724 
L 323.005579 450.092377 
L 326.337138 447.159915 
L 329.668697 443.899314 
L 332.444997 440.896992 
L 335.221296 437.601191 
L 337.997595 433.974823 
L 340.773894 429.975257 
L 343.550193 425.553428 
L 346.326493 420.652815 
L 349.102792 415.208293 
L 351.323831 410.411031 
L 353.544871 405.174383 
L 355.76591 399.4498 
L 357.98695 393.183265 
L 360.207989 386.314927 
L 362.429028 378.778877 
L 364.650068 370.503147 
L 366.871107 361.410081 
L 369.092146 351.417284 
L 371.313186 340.439429 
L 373.534225 328.391304 
L 375.755265 315.192611 
L 377.976304 300.775141 
L 380.197343 285.093043 
L 382.973643 263.70268 
L 385.749942 240.43442 
L 389.081501 210.496774 
L 396.299879 144.292017 
L 398.520918 126.273182 
L 400.186698 114.444594 
L 401.852478 104.500423 
L 402.962997 99.099692 
L 404.073517 94.793115 
L 405.184037 91.658303 
L 405.739296 90.549312 
L 406.294556 89.753379 
L 406.849816 89.274291 
L 407.405076 89.11434 
L 407.960336 89.274291 
L 408.515596 89.753379 
L 409.070856 90.549312 
L 409.626115 91.658303 
L 410.736635 94.793115 
L 411.847155 99.099692 
L 412.957674 104.500423 
L 414.068194 110.901592 
L 415.733974 122.145014 
L 417.399753 135.011069 
L 419.620793 153.999886 
L 423.507612 189.812362 
L 428.50495 235.578616 
L 431.281249 259.192647 
L 434.057549 280.972775 
L 436.833848 300.775141 
L 439.054887 315.192611 
L 441.275927 328.391304 
L 443.496966 340.439429 
L 445.718006 351.417284 
L 447.939045 361.410081 
L 450.160084 370.503147 
L 452.381124 378.778877 
L 454.602163 386.314927 
L 456.823202 393.183265 
L 459.044242 399.4498 
L 461.265281 405.174383 
L 464.04158 411.649757 
L 466.81788 417.455934 
L 469.594179 422.674476 
L 472.370478 427.376269 
L 475.146777 431.622852 
L 477.923077 435.467632 
L 480.699376 438.956987 
L 483.475675 442.13123 
L 486.807234 445.57346 
L 490.138793 448.664447 
L 493.470352 451.448621 
L 496.801912 453.963893 
L 500.68873 456.60155 
L 504.575549 458.960941 
L 508.462368 461.078859 
L 512.904447 463.243293 
L 517.346526 465.171697 
L 522.343865 467.099193 
L 527.896463 468.984814 
L 533.449061 470.642156 
L 539.55692 472.243001 
L 546.220038 473.766417 
L 553.438416 475.198135 
L 561.767314 476.617463 
L 570.651471 477.907387 
L 580.646149 479.13592 
L 591.751346 480.280428 
L 604.522322 481.37117 
L 618.959078 482.379585 
L 635.616874 483.318352 
L 655.050968 484.187177 
L 678.371882 484.996588 
L 685.035 485.191726 
L 685.035 485.191726 
" clip-path="url(#pe750caca30)" style="fill: none; stroke-dasharray: 14.8,6.4; stroke-dashoffset: 0; stroke: #ff0000; stroke-width: 4"/>
   </g>
   <g id="line2d_30">
    <path d="M 129.775152 476.84631 
L 140.325089 475.151134 
L 145.877688 474.055359 
L 155.317105 471.856343 
L 163.090743 469.808063 
L 167.532822 468.441636 
L 175.861719 465.56268 
L 185.856397 461.787076 
L 191.408995 459.308597 
L 196.961594 456.619723 
L 200.293153 454.769002 
L 205.845751 451.351565 
L 211.39835 447.836623 
L 216.395688 444.449927 
L 220.282507 441.562572 
L 235.829783 429.508446 
L 240.827122 426.160004 
L 244.158681 423.784303 
L 248.0455 421.378482 
L 253.042838 418.508938 
L 255.263878 417.604865 
L 264.148035 414.328721 
L 265.258555 414.090951 
L 268.034854 413.740705 
L 270.255894 413.255091 
L 271.921673 413.200704 
L 275.253232 413.087968 
L 278.029531 412.998182 
L 279.695311 413.223538 
L 283.02687 413.905867 
L 286.358429 414.908684 
L 288.579469 415.226537 
L 290.245248 415.531221 
L 293.576807 416.502329 
L 295.797847 417.38284 
L 300.795185 419.578966 
L 301.905705 420.118252 
L 304.126744 421.409969 
L 305.237264 421.831454 
L 309.124083 422.899261 
L 313.566162 425.129658 
L 315.231941 425.94767 
L 320.22928 428.010646 
L 325.226618 429.62448 
L 326.337138 429.83134 
L 329.113437 430.53501 
L 330.779217 431.007559 
L 334.110776 432.40262 
L 335.221296 432.704522 
L 336.331815 432.922049 
L 337.442335 433.274418 
L 340.218634 433.880518 
L 341.329154 434.368706 
L 342.439674 434.568327 
L 344.105453 434.632093 
L 345.215973 435.014068 
L 345.771233 435.272294 
L 346.326493 435.305787 
L 347.437012 435.040598 
L 348.547532 435.138673 
L 350.768571 435.552529 
L 351.879091 436.128291 
L 352.989611 436.333783 
L 354.100131 436.117801 
L 355.21065 435.840756 
L 356.32117 436.155466 
L 357.43169 436.360378 
L 359.652729 435.912093 
L 360.763249 435.617458 
L 365.205328 435.560237 
L 366.315847 435.278421 
L 366.871107 435.15225 
L 368.536887 434.321227 
L 369.647406 434.619617 
L 370.757926 434.368252 
L 371.868446 434.221886 
L 372.423706 433.987179 
L 373.534225 433.042821 
L 374.089485 432.968679 
L 374.644745 432.735947 
L 375.200005 432.103558 
L 376.865784 432.605339 
L 377.421044 432.60139 
L 378.531564 431.477054 
L 379.086824 431.328133 
L 379.642084 430.876993 
L 380.197343 430.141053 
L 380.752603 429.909105 
L 381.307863 428.999961 
L 382.418383 428.149235 
L 383.528903 426.887668 
L 384.084162 426.717007 
L 384.639422 427.455239 
L 385.194682 426.968456 
L 386.305202 424.541144 
L 386.860462 423.033163 
L 387.415721 422.672462 
L 387.970981 421.903278 
L 388.526241 420.871429 
L 389.081501 420.175057 
L 390.192021 418.057297 
L 390.747281 417.393084 
L 391.30254 417.722097 
L 391.8578 414.791026 
L 392.41306 413.094122 
L 392.96832 411.869371 
L 393.52358 409.251047 
L 394.07884 408.71413 
L 394.634099 406.82817 
L 395.189359 402.270979 
L 395.744619 400.536964 
L 396.299879 399.184223 
L 397.965659 385.928964 
L 398.520918 385.120778 
L 399.076178 381.99906 
L 399.631438 374.795278 
L 400.186698 363.208269 
L 400.741958 357.830489 
L 401.297218 349.89007 
L 402.962997 311.229355 
L 403.518257 293.562454 
L 405.739296 168.04881 
L 406.294556 128.577054 
L 406.849816 100.837577 
L 407.405076 89.114898 
L 407.960336 101.352934 
L 408.515596 129.717594 
L 410.181375 239.877012 
L 410.736635 260.886596 
L 411.291895 290.404195 
L 411.847155 313.503909 
L 414.068194 358.341572 
L 415.178714 372.53343 
L 415.733974 376.423893 
L 416.289234 383.211797 
L 417.399753 391.98373 
L 417.955013 393.785578 
L 419.620793 403.11806 
L 420.176052 404.877061 
L 421.286572 409.988782 
L 421.841832 413.264686 
L 422.397092 414.976712 
L 422.952352 414.358758 
L 423.507612 414.043375 
L 424.062871 415.083515 
L 425.173391 418.642512 
L 425.728651 420.113962 
L 426.283911 420.941745 
L 426.839171 421.267689 
L 427.394431 421.876787 
L 428.50495 423.892561 
L 429.06021 425.418427 
L 429.61547 426.442724 
L 430.17073 427.199595 
L 430.72599 427.215108 
L 431.281249 428.153987 
L 432.391769 429.457831 
L 432.947029 430.309893 
L 434.057549 430.132506 
L 434.612809 430.619329 
L 435.168068 430.490968 
L 435.723328 430.667374 
L 436.278588 430.331779 
L 436.833848 430.542876 
L 437.389108 431.299194 
L 437.944368 431.756288 
L 438.499627 432.461107 
L 440.165407 432.751481 
L 441.275927 434.015737 
L 441.831187 434.248245 
L 442.386446 434.333315 
L 443.496966 434.07986 
L 444.052226 433.883827 
L 445.162746 434.62896 
L 446.273265 435.238074 
L 446.828525 435.372867 
L 447.383785 435.292117 
L 448.494305 434.941002 
L 449.604824 435.374838 
L 450.160084 435.246968 
L 450.715344 434.96463 
L 451.270604 434.885552 
L 451.825864 435.087101 
L 452.936384 435.844179 
L 454.046903 436.123477 
L 454.602163 436.094789 
L 455.712683 435.686288 
L 456.267943 435.618489 
L 457.378462 435.809889 
L 459.599502 436.704887 
L 460.710021 436.630246 
L 462.931061 436.385912 
L 464.04158 436.295716 
L 465.70736 435.784861 
L 467.37314 435.741705 
L 469.594179 434.876988 
L 471.259959 434.379769 
L 472.925738 434.306007 
L 475.146777 433.409781 
L 476.257297 433.155805 
L 478.478337 432.897091 
L 480.699376 431.973751 
L 484.586195 431.044983 
L 487.362494 430.568427 
L 489.583533 429.798382 
L 492.915093 428.153224 
L 495.136132 427.336303 
L 498.467691 425.957782 
L 503.46503 424.444394 
L 504.575549 423.967659 
L 506.241329 423.054932 
L 514.014967 420.11092 
L 516.236006 419.1022 
L 519.012305 417.51987 
L 520.122825 417.215973 
L 521.788605 416.913204 
L 522.899124 416.521736 
L 525.675424 415.376714 
L 527.341203 414.937035 
L 530.117502 413.892326 
L 532.338542 413.51008 
L 533.449061 413.468728 
L 536.225361 413.632357 
L 537.89114 413.294244 
L 540.66744 412.458219 
L 542.333219 412.366962 
L 543.443739 412.513799 
L 548.441077 413.654074 
L 552.883156 414.520148 
L 554.548936 415.279404 
L 558.991014 417.629071 
L 561.767314 418.718628 
L 563.433093 419.630899 
L 566.764652 421.527946 
L 570.651471 423.587986 
L 572.317251 424.790733 
L 575.64881 427.678781 
L 578.425109 429.918343 
L 585.088227 434.810689 
L 588.419786 436.959113 
L 591.196086 438.880259 
L 602.856542 447.491447 
L 605.632842 449.309952 
L 616.738039 455.771892 
L 623.401157 459.144187 
L 627.843236 461.263959 
L 634.506354 464.111394 
L 639.503692 465.976117 
L 647.27733 468.582094 
L 653.385189 470.259217 
L 662.269346 472.479172 
L 672.819283 474.728875 
L 681.703441 476.369697 
L 685.035 476.897274 
L 685.035 476.897274 
" clip-path="url(#pe750caca30)" style="fill: none; stroke: #0000ff; stroke-width: 1.5; stroke-linecap: square"/>
   </g>
   <g id="patch_3">
    <path d="M 129.775152 489.1525 
L 129.775152 36.72 
" style="fill: none; stroke: #000000; stroke-width: 0.8; stroke-linejoin: miter; stroke-linecap: square"/>
   </g>
   <g id="patch_4">
    <path d="M 685.035 489.1525 
L 685.035 36.72 
" style="fill: none; stroke: #000000; stroke-width: 0.8; stroke-linejoin: miter; stroke-linecap: square"/>
   </g>
   <g id="patch_5">
    <path d="M 129.775152 489.1525 
L 685.035 489.1525 
" style="fill: none; stroke: #000000; stroke-width: 0.8; stroke-linejoin: miter; stroke-linecap: square"/>
   </g>
   <g id="patch_6">
    <path d="M 129.775152 36.72 
L 685.035 36.72 
" style="fill: none; stroke: #000000; stroke-width: 0.8; stroke-linejoin: miter; stroke-linecap: square"/>
   </g>
   <g id="legend_1">
    <g id="patch_7">
     <path d="M 494.805 100.294688 
L 676.535 100.294688 
L 676.535 45.22 
L 494.805 45.22 
z
" style="fill: #ffffff; opacity: 0.8; stroke: #000000; stroke-linejoin: miter"/>
    </g>
    <g id="line2d_31">
     <path d="M 501.605 58.987344 
L 518.605 58.987344 
L 535.605 58.987344 
" style="fill: none; stroke-dasharray: 14.8,6.4; stroke-dashoffset: 0; stroke: #ff0000; stroke-width: 4"/>
    </g>
    <g id="text_17">
     <!-- $\rho_0$ -->
     <g transform="translate(549.205 64.937344) scale(0.17 -0.17)">
      <use xlink:href="#DejaVuSans-Oblique-3c1"/>
      <use xlink:href="#DejaVuSans-30" transform="translate(63.476562 -16.40625) scale(0.7)"/>
     </g>
    </g>
    <g id="line2d_32">
     <path d="M 501.605 83.974688 
L 518.605 83.974688 
L 535.605 83.974688 
" style="fill: none; stroke: #0000ff; stroke-width: 1.5; stroke-linecap: square"/>
    </g>
    <g id="text_18">
     <!-- $\rho_{constr.},N,$n=5 -->
     <g transform="translate(549.205 89.924688) scale(0.17 -0.17)">
      <defs>
       <path id="DejaVuSans-Oblique-63" d="M 3431 3366 
L 3316 2797 
Q 3109 2947 2876 3022 
Q 2644 3097 2394 3097 
Q 2119 3097 1870 3000 
Q 1622 2903 1453 2725 
Q 1184 2453 1037 2087 
Q 891 1722 891 1331 
Q 891 859 1127 628 
Q 1363 397 1844 397 
Q 2081 397 2348 469 
Q 2616 541 2906 684 
L 2797 116 
Q 2547 13 2283 -39 
Q 2019 -91 1741 -91 
Q 1044 -91 669 257 
Q 294 606 294 1253 
Q 294 1797 489 2255 
Q 684 2713 1069 3078 
Q 1331 3328 1684 3456 
Q 2038 3584 2456 3584 
Q 2700 3584 2940 3529 
Q 3181 3475 3431 3366 
z
" transform="scale(0.015625)"/>
       <path id="DejaVuSans-Oblique-6f" d="M 1625 -91 
Q 1009 -91 651 289 
Q 294 669 294 1325 
Q 294 1706 417 2101 
Q 541 2497 738 2766 
Q 1047 3184 1428 3384 
Q 1809 3584 2291 3584 
Q 2888 3584 3255 3212 
Q 3622 2841 3622 2241 
Q 3622 1825 3500 1412 
Q 3378 1000 3181 728 
Q 2875 309 2494 109 
Q 2113 -91 1625 -91 
z
M 891 1344 
Q 891 869 1089 633 
Q 1288 397 1691 397 
Q 2269 397 2648 901 
Q 3028 1406 3028 2181 
Q 3028 2634 2825 2865 
Q 2622 3097 2228 3097 
Q 1903 3097 1650 2945 
Q 1397 2794 1197 2484 
Q 1050 2253 970 1956 
Q 891 1659 891 1344 
z
" transform="scale(0.015625)"/>
       <path id="DejaVuSans-Oblique-6e" d="M 3566 2113 
L 3156 0 
L 2578 0 
L 2988 2091 
Q 3016 2238 3031 2350 
Q 3047 2463 3047 2528 
Q 3047 2791 2881 2937 
Q 2716 3084 2419 3084 
Q 1956 3084 1622 2776 
Q 1288 2469 1184 1941 
L 800 0 
L 225 0 
L 903 3500 
L 1478 3500 
L 1363 2950 
Q 1603 3253 1940 3418 
Q 2278 3584 2650 3584 
Q 3113 3584 3367 3334 
Q 3622 3084 3622 2631 
Q 3622 2519 3608 2391 
Q 3594 2263 3566 2113 
z
" transform="scale(0.015625)"/>
       <path id="DejaVuSans-Oblique-73" d="M 3200 3397 
L 3091 2853 
Q 2863 2978 2609 3040 
Q 2356 3103 2088 3103 
Q 1634 3103 1373 2948 
Q 1113 2794 1113 2528 
Q 1113 2219 1719 2053 
Q 1766 2041 1788 2034 
L 1972 1978 
Q 2547 1819 2739 1644 
Q 2931 1469 2931 1166 
Q 2931 609 2489 259 
Q 2047 -91 1331 -91 
Q 1053 -91 747 -37 
Q 441 16 72 128 
L 184 722 
Q 500 559 806 475 
Q 1113 391 1394 391 
Q 1816 391 2080 572 
Q 2344 753 2344 1031 
Q 2344 1331 1650 1516 
L 1591 1531 
L 1394 1581 
Q 956 1697 753 1886 
Q 550 2075 550 2369 
Q 550 2928 970 3256 
Q 1391 3584 2113 3584 
Q 2397 3584 2667 3537 
Q 2938 3491 3200 3397 
z
" transform="scale(0.015625)"/>
       <path id="DejaVuSans-Oblique-74" d="M 2706 3500 
L 2619 3053 
L 1472 3053 
L 1100 1153 
Q 1081 1047 1072 975 
Q 1063 903 1063 863 
Q 1063 663 1183 572 
Q 1303 481 1569 481 
L 2150 481 
L 2053 0 
L 1503 0 
Q 991 0 739 200 
Q 488 400 488 806 
Q 488 878 497 964 
Q 506 1050 525 1153 
L 897 3053 
L 409 3053 
L 500 3500 
L 978 3500 
L 1172 4494 
L 1747 4494 
L 1556 3500 
L 2706 3500 
z
" transform="scale(0.015625)"/>
       <path id="DejaVuSans-Oblique-72" d="M 2853 2969 
Q 2766 3016 2653 3041 
Q 2541 3066 2413 3066 
Q 1953 3066 1609 2717 
Q 1266 2369 1153 1784 
L 800 0 
L 225 0 
L 909 3500 
L 1484 3500 
L 1375 2956 
Q 1603 3259 1920 3421 
Q 2238 3584 2597 3584 
Q 2691 3584 2781 3573 
Q 2872 3563 2963 3538 
L 2853 2969 
z
" transform="scale(0.015625)"/>
       <path id="DejaVuSans-2c" d="M 750 794 
L 1409 794 
L 1409 256 
L 897 -744 
L 494 -744 
L 750 256 
L 750 794 
z
" transform="scale(0.015625)"/>
       <path id="DejaVuSans-Oblique-4e" d="M 1081 4666 
L 1931 4666 
L 3219 666 
L 4000 4666 
L 4616 4666 
L 3706 0 
L 2853 0 
L 1569 4025 
L 788 0 
L 172 0 
L 1081 4666 
z
" transform="scale(0.015625)"/>
       <path id="DejaVuSans-6e" d="M 3513 2113 
L 3513 0 
L 2938 0 
L 2938 2094 
Q 2938 2591 2744 2837 
Q 2550 3084 2163 3084 
Q 1697 3084 1428 2787 
Q 1159 2491 1159 1978 
L 1159 0 
L 581 0 
L 581 3500 
L 1159 3500 
L 1159 2956 
Q 1366 3272 1645 3428 
Q 1925 3584 2291 3584 
Q 2894 3584 3203 3211 
Q 3513 2838 3513 2113 
z
" transform="scale(0.015625)"/>
       <path id="DejaVuSans-3d" d="M 678 2906 
L 4684 2906 
L 4684 2381 
L 678 2381 
L 678 2906 
z
M 678 1631 
L 4684 1631 
L 4684 1100 
L 678 1100 
L 678 1631 
z
" transform="scale(0.015625)"/>
       <path id="DejaVuSans-35" d="M 691 4666 
L 3169 4666 
L 3169 4134 
L 1269 4134 
L 1269 2991 
Q 1406 3038 1543 3061 
Q 1681 3084 1819 3084 
Q 2600 3084 3056 2656 
Q 3513 2228 3513 1497 
Q 3513 744 3044 326 
Q 2575 -91 1722 -91 
Q 1428 -91 1123 -41 
Q 819 9 494 109 
L 494 744 
Q 775 591 1075 516 
Q 1375 441 1709 441 
Q 2250 441 2565 725 
Q 2881 1009 2881 1497 
Q 2881 1984 2565 2268 
Q 2250 2553 1709 2553 
Q 1456 2553 1204 2497 
Q 953 2441 691 2322 
L 691 4666 
z
" transform="scale(0.015625)"/>
      </defs>
      <use xlink:href="#DejaVuSans-Oblique-3c1" transform="translate(0 0.09375)"/>
      <use xlink:href="#DejaVuSans-Oblique-63" transform="translate(63.476562 -16.3125) scale(0.7)"/>
      <use xlink:href="#DejaVuSans-Oblique-6f" transform="translate(101.962891 -16.3125) scale(0.7)"/>
      <use xlink:href="#DejaVuSans-Oblique-6e" transform="translate(144.790039 -16.3125) scale(0.7)"/>
      <use xlink:href="#DejaVuSans-Oblique-73" transform="translate(189.155273 -16.3125) scale(0.7)"/>
      <use xlink:href="#DejaVuSans-Oblique-74" transform="translate(225.625 -16.3125) scale(0.7)"/>
      <use xlink:href="#DejaVuSans-Oblique-72" transform="translate(253.071289 -16.3125) scale(0.7)"/>
      <use xlink:href="#DejaVuSans-2e" transform="translate(281.850586 -16.3125) scale(0.7)"/>
      <use xlink:href="#DejaVuSans-2c" transform="translate(320.473633 0.09375)"/>
      <use xlink:href="#DejaVuSans-Oblique-4e" transform="translate(371.743164 0.09375)"/>
      <use xlink:href="#DejaVuSans-2c" transform="translate(446.547852 0.09375)"/>
      <use xlink:href="#DejaVuSans-6e" transform="translate(497.817383 0.09375)"/>
      <use xlink:href="#DejaVuSans-3d" transform="translate(561.196289 0.09375)"/>
      <use xlink:href="#DejaVuSans-35" transform="translate(644.985352 0.09375)"/>
     </g>
    </g>
   </g>
  </g>
 </g>
 <defs>
  <clipPath id="pe750caca30">
   <rect x="129.775152" y="36.72" width="555.259848" height="452.4325"/>
  </clipPath>
 </defs>
</svg>
