<?xml version="1.0" encoding="utf-8" standalone="no"?>
<!DOCTYPE svg PUBLIC "-//W3C//DTD SVG 1.1//EN"
  "http://www.w3.org/Graphics/SVG/1.1/DTD/svg11.dtd">
<svg xmlns:xlink="http://www.w3.org/1999/xlink" width="720pt" height="576pt" viewBox="0 0 720 576" xmlns="http://www.w3.org/2000/svg" version="1.1">
 <metadata>
  <rdf:RDF xmlns:dc="http://purl.org/dc/elements/1.1/" xmlns:cc="http://creativecommons.org/ns#" xmlns:rdf="http://www.w3.org/1999/02/22-rdf-syntax-ns#">
   <cc:Work>
    <dc:type rdf:resource="http://purl.org/dc/dcmitype/StillImage"/>
    <dc:date>2023-04-11T03:03:03.423836</dc:date>
    <dc:format>image/svg+xml</dc:format>
    <dc:creator>
     <cc:Agent>
      <dc:title>Matplotlib v3.7.1, https://matplotlib.org/</dc:title>
     </cc:Agent>
    </dc:creator>
   </cc:Work>
  </rdf:RDF>
 </metadata>
 <defs>
  <style type="text/css">*{stroke-linejoin: round; stroke-linecap: butt}</style>
 </defs>
 <g id="figure_1">
  <g id="patch_1">
   <path d="M 0 576 
L 720 576 
L 720 0 
L 0 0 
z
" style="fill: #ffffff"/>
  </g>
  <g id="axes_1">
   <g id="patch_2">
    <path d="M 129.775152 489.1525 
L 685.035 489.1525 
L 685.035 36.72 
L 129.775152 36.72 
z
" style="fill: #ffffff"/>
   </g>
   <g id="matplotlib.axis_1">
    <g id="xtick_1">
     <g id="line2d_1">
      <path d="M 129.775152 489.1525 
L 129.775152 36.72 
" clip-path="url(#pe76a56ae0c)" style="fill: none; stroke: #b0b0b0; stroke-width: 0.8; stroke-linecap: square"/>
     </g>
     <g id="line2d_2">
      <defs>
       <path id="m4f88263fa5" d="M 0 0 
L 0 3.5 
" style="stroke: #000000; stroke-width: 0.8"/>
      </defs>
      <g>
       <use xlink:href="#m4f88263fa5" x="129.775152" y="489.1525" style="stroke: #000000; stroke-width: 0.8"/>
      </g>
     </g>
     <g id="text_1">
      <!-- −3 -->
      <g transform="translate(111.347418 515.148594) scale(0.25 -0.25)">
       <defs>
        <path id="DejaVuSans-2212" d="M 678 2272 
L 4684 2272 
L 4684 1741 
L 678 1741 
L 678 2272 
z
" transform="scale(0.015625)"/>
        <path id="DejaVuSans-33" d="M 2597 2516 
Q 3050 2419 3304 2112 
Q 3559 1806 3559 1356 
Q 3559 666 3084 287 
Q 2609 -91 1734 -91 
Q 1441 -91 1130 -33 
Q 819 25 488 141 
L 488 750 
Q 750 597 1062 519 
Q 1375 441 1716 441 
Q 2309 441 2620 675 
Q 2931 909 2931 1356 
Q 2931 1769 2642 2001 
Q 2353 2234 1838 2234 
L 1294 2234 
L 1294 2753 
L 1863 2753 
Q 2328 2753 2575 2939 
Q 2822 3125 2822 3475 
Q 2822 3834 2567 4026 
Q 2313 4219 1838 4219 
Q 1578 4219 1281 4162 
Q 984 4106 628 3988 
L 628 4550 
Q 988 4650 1302 4700 
Q 1616 4750 1894 4750 
Q 2613 4750 3031 4423 
Q 3450 4097 3450 3541 
Q 3450 3153 3228 2886 
Q 3006 2619 2597 2516 
z
" transform="scale(0.015625)"/>
       </defs>
       <use xlink:href="#DejaVuSans-2212"/>
       <use xlink:href="#DejaVuSans-33" x="83.789062"/>
      </g>
     </g>
    </g>
    <g id="xtick_2">
     <g id="line2d_3">
      <path d="M 222.31846 489.1525 
L 222.31846 36.72 
" clip-path="url(#pe76a56ae0c)" style="fill: none; stroke: #b0b0b0; stroke-width: 0.8; stroke-linecap: square"/>
     </g>
     <g id="line2d_4">
      <g>
       <use xlink:href="#m4f88263fa5" x="222.31846" y="489.1525" style="stroke: #000000; stroke-width: 0.8"/>
      </g>
     </g>
     <g id="text_2">
      <!-- −2 -->
      <g transform="translate(203.890726 515.148594) scale(0.25 -0.25)">
       <defs>
        <path id="DejaVuSans-32" d="M 1228 531 
L 3431 531 
L 3431 0 
L 469 0 
L 469 531 
Q 828 903 1448 1529 
Q 2069 2156 2228 2338 
Q 2531 2678 2651 2914 
Q 2772 3150 2772 3378 
Q 2772 3750 2511 3984 
Q 2250 4219 1831 4219 
Q 1534 4219 1204 4116 
Q 875 4013 500 3803 
L 500 4441 
Q 881 4594 1212 4672 
Q 1544 4750 1819 4750 
Q 2544 4750 2975 4387 
Q 3406 4025 3406 3419 
Q 3406 3131 3298 2873 
Q 3191 2616 2906 2266 
Q 2828 2175 2409 1742 
Q 1991 1309 1228 531 
z
" transform="scale(0.015625)"/>
       </defs>
       <use xlink:href="#DejaVuSans-2212"/>
       <use xlink:href="#DejaVuSans-32" x="83.789062"/>
      </g>
     </g>
    </g>
    <g id="xtick_3">
     <g id="line2d_5">
      <path d="M 314.861768 489.1525 
L 314.861768 36.72 
" clip-path="url(#pe76a56ae0c)" style="fill: none; stroke: #b0b0b0; stroke-width: 0.8; stroke-linecap: square"/>
     </g>
     <g id="line2d_6">
      <g>
       <use xlink:href="#m4f88263fa5" x="314.861768" y="489.1525" style="stroke: #000000; stroke-width: 0.8"/>
      </g>
     </g>
     <g id="text_3">
      <!-- −1 -->
      <g transform="translate(296.434034 515.148594) scale(0.25 -0.25)">
       <defs>
        <path id="DejaVuSans-31" d="M 794 531 
L 1825 531 
L 1825 4091 
L 703 3866 
L 703 4441 
L 1819 4666 
L 2450 4666 
L 2450 531 
L 3481 531 
L 3481 0 
L 794 0 
L 794 531 
z
" transform="scale(0.015625)"/>
       </defs>
       <use xlink:href="#DejaVuSans-2212"/>
       <use xlink:href="#DejaVuSans-31" x="83.789062"/>
      </g>
     </g>
    </g>
    <g id="xtick_4">
     <g id="line2d_7">
      <path d="M 407.405076 489.1525 
L 407.405076 36.72 
" clip-path="url(#pe76a56ae0c)" style="fill: none; stroke: #b0b0b0; stroke-width: 0.8; stroke-linecap: square"/>
     </g>
     <g id="line2d_8">
      <g>
       <use xlink:href="#m4f88263fa5" x="407.405076" y="489.1525" style="stroke: #000000; stroke-width: 0.8"/>
      </g>
     </g>
     <g id="text_4">
      <!-- 0 -->
      <g transform="translate(399.451951 515.148594) scale(0.25 -0.25)">
       <defs>
        <path id="DejaVuSans-30" d="M 2034 4250 
Q 1547 4250 1301 3770 
Q 1056 3291 1056 2328 
Q 1056 1369 1301 889 
Q 1547 409 2034 409 
Q 2525 409 2770 889 
Q 3016 1369 3016 2328 
Q 3016 3291 2770 3770 
Q 2525 4250 2034 4250 
z
M 2034 4750 
Q 2819 4750 3233 4129 
Q 3647 3509 3647 2328 
Q 3647 1150 3233 529 
Q 2819 -91 2034 -91 
Q 1250 -91 836 529 
Q 422 1150 422 2328 
Q 422 3509 836 4129 
Q 1250 4750 2034 4750 
z
" transform="scale(0.015625)"/>
       </defs>
       <use xlink:href="#DejaVuSans-30"/>
      </g>
     </g>
    </g>
    <g id="xtick_5">
     <g id="line2d_9">
      <path d="M 499.948384 489.1525 
L 499.948384 36.72 
" clip-path="url(#pe76a56ae0c)" style="fill: none; stroke: #b0b0b0; stroke-width: 0.8; stroke-linecap: square"/>
     </g>
     <g id="line2d_10">
      <g>
       <use xlink:href="#m4f88263fa5" x="499.948384" y="489.1525" style="stroke: #000000; stroke-width: 0.8"/>
      </g>
     </g>
     <g id="text_5">
      <!-- 1 -->
      <g transform="translate(491.995259 515.148594) scale(0.25 -0.25)">
       <use xlink:href="#DejaVuSans-31"/>
      </g>
     </g>
    </g>
    <g id="xtick_6">
     <g id="line2d_11">
      <path d="M 592.491692 489.1525 
L 592.491692 36.72 
" clip-path="url(#pe76a56ae0c)" style="fill: none; stroke: #b0b0b0; stroke-width: 0.8; stroke-linecap: square"/>
     </g>
     <g id="line2d_12">
      <g>
       <use xlink:href="#m4f88263fa5" x="592.491692" y="489.1525" style="stroke: #000000; stroke-width: 0.8"/>
      </g>
     </g>
     <g id="text_6">
      <!-- 2 -->
      <g transform="translate(584.538567 515.148594) scale(0.25 -0.25)">
       <use xlink:href="#DejaVuSans-32"/>
      </g>
     </g>
    </g>
    <g id="xtick_7">
     <g id="line2d_13">
      <path d="M 685.035 489.1525 
L 685.035 36.72 
" clip-path="url(#pe76a56ae0c)" style="fill: none; stroke: #b0b0b0; stroke-width: 0.8; stroke-linecap: square"/>
     </g>
     <g id="line2d_14">
      <g>
       <use xlink:href="#m4f88263fa5" x="685.035" y="489.1525" style="stroke: #000000; stroke-width: 0.8"/>
      </g>
     </g>
     <g id="text_7">
      <!-- 3 -->
      <g transform="translate(677.081875 515.148594) scale(0.25 -0.25)">
       <use xlink:href="#DejaVuSans-33"/>
      </g>
     </g>
    </g>
    <g id="text_8">
     <!-- $\omega$ [-] -->
     <g transform="translate(382.530076 541.351719) scale(0.25 -0.25)">
      <defs>
       <path id="DejaVuSans-Oblique-3c9" d="M 1369 -91 
Q 72 -91 434 1766 
Q 575 2500 1256 3500 
L 1875 3500 
Q 1231 2500 1088 1750 
Q 819 397 1519 397 
Q 2166 397 2478 2078 
L 3009 2078 
Q 2669 388 3316 397 
Q 4013 403 4275 1750 
Q 4419 2500 4169 3500 
L 4788 3500 
Q 5075 2500 4934 1766 
Q 4578 -94 3278 -91 
Q 2428 -88 2503 844 
Q 2194 -91 1369 -91 
z
" transform="scale(0.015625)"/>
       <path id="Calibri-20" transform="scale(0.015625)"/>
       <path id="Calibri-5b" d="M 1684 -813 
Q 1684 -916 1661 -958 
Q 1638 -1000 1594 -1000 
L 794 -1000 
Q 756 -1000 722 -989 
Q 688 -978 659 -953 
Q 631 -928 614 -886 
Q 597 -844 597 -781 
L 597 4153 
Q 597 4213 614 4255 
Q 631 4297 659 4323 
Q 688 4350 722 4361 
Q 756 4372 794 4372 
L 1594 4372 
Q 1613 4372 1630 4362 
Q 1647 4353 1659 4328 
Q 1672 4303 1678 4267 
Q 1684 4231 1684 4178 
Q 1684 4078 1661 4034 
Q 1638 3991 1594 3991 
L 1084 3991 
L 1084 -622 
L 1594 -622 
Q 1613 -622 1630 -631 
Q 1647 -641 1659 -664 
Q 1672 -688 1678 -723 
Q 1684 -759 1684 -813 
z
" transform="scale(0.015625)"/>
       <path id="Calibri-2d" d="M 1744 1578 
Q 1744 1456 1716 1409 
Q 1688 1363 1634 1363 
L 328 1363 
Q 272 1363 244 1411 
Q 216 1459 216 1578 
Q 216 1697 244 1744 
Q 272 1791 328 1791 
L 1634 1791 
Q 1659 1791 1679 1781 
Q 1700 1772 1714 1745 
Q 1728 1719 1736 1678 
Q 1744 1638 1744 1578 
z
" transform="scale(0.015625)"/>
       <path id="Calibri-5d" d="M 1369 -781 
Q 1369 -844 1351 -886 
Q 1334 -928 1306 -953 
Q 1278 -978 1242 -989 
Q 1206 -1000 1169 -1000 
L 372 -1000 
Q 328 -1000 304 -958 
Q 281 -916 281 -813 
Q 281 -759 286 -723 
Q 291 -688 303 -664 
Q 316 -641 333 -631 
Q 350 -622 372 -622 
L 881 -622 
L 881 3991 
L 372 3991 
Q 328 3991 304 4034 
Q 281 4078 281 4178 
Q 281 4231 286 4267 
Q 291 4303 303 4328 
Q 316 4353 333 4362 
Q 350 4372 372 4372 
L 1169 4372 
Q 1206 4372 1242 4361 
Q 1278 4350 1306 4323 
Q 1334 4297 1351 4255 
Q 1369 4213 1369 4153 
L 1369 -781 
z
" transform="scale(0.015625)"/>
      </defs>
      <use xlink:href="#DejaVuSans-Oblique-3c9" transform="translate(0 0.6875)"/>
      <use xlink:href="#Calibri-20" transform="translate(83.740234 0.6875)"/>
      <use xlink:href="#Calibri-5b" transform="translate(106.347656 0.6875)"/>
      <use xlink:href="#Calibri-2d" transform="translate(137.011719 0.6875)"/>
      <use xlink:href="#Calibri-5d" transform="translate(167.626953 0.6875)"/>
     </g>
    </g>
   </g>
   <g id="matplotlib.axis_2">
    <g id="ytick_1">
     <g id="line2d_15">
      <path d="M 129.775152 489.1525 
L 685.035 489.1525 
" clip-path="url(#pe76a56ae0c)" style="fill: none; stroke: #b0b0b0; stroke-width: 0.8; stroke-linecap: square"/>
     </g>
     <g id="line2d_16">
      <defs>
       <path id="m56edcf6550" d="M 0 0 
L -3.5 0 
" style="stroke: #000000; stroke-width: 0.8"/>
      </defs>
      <g>
       <use xlink:href="#m56edcf6550" x="129.775152" y="489.1525" style="stroke: #000000; stroke-width: 0.8"/>
      </g>
     </g>
     <g id="text_9">
      <!-- 0.0 -->
      <g transform="translate(83.017339 498.650547) scale(0.25 -0.25)">
       <defs>
        <path id="DejaVuSans-2e" d="M 684 794 
L 1344 794 
L 1344 0 
L 684 0 
L 684 794 
z
" transform="scale(0.015625)"/>
       </defs>
       <use xlink:href="#DejaVuSans-30"/>
       <use xlink:href="#DejaVuSans-2e" x="63.623047"/>
       <use xlink:href="#DejaVuSans-30" x="95.410156"/>
      </g>
     </g>
    </g>
    <g id="ytick_2">
     <g id="line2d_17">
      <path d="M 129.775152 413.747083 
L 685.035 413.747083 
" clip-path="url(#pe76a56ae0c)" style="fill: none; stroke: #b0b0b0; stroke-width: 0.8; stroke-linecap: square"/>
     </g>
     <g id="line2d_18">
      <g>
       <use xlink:href="#m56edcf6550" x="129.775152" y="413.747083" style="stroke: #000000; stroke-width: 0.8"/>
      </g>
     </g>
     <g id="text_10">
      <!-- 0.2 -->
      <g transform="translate(83.017339 423.24513) scale(0.25 -0.25)">
       <use xlink:href="#DejaVuSans-30"/>
       <use xlink:href="#DejaVuSans-2e" x="63.623047"/>
       <use xlink:href="#DejaVuSans-32" x="95.410156"/>
      </g>
     </g>
    </g>
    <g id="ytick_3">
     <g id="line2d_19">
      <path d="M 129.775152 338.341667 
L 685.035 338.341667 
" clip-path="url(#pe76a56ae0c)" style="fill: none; stroke: #b0b0b0; stroke-width: 0.8; stroke-linecap: square"/>
     </g>
     <g id="line2d_20">
      <g>
       <use xlink:href="#m56edcf6550" x="129.775152" y="338.341667" style="stroke: #000000; stroke-width: 0.8"/>
      </g>
     </g>
     <g id="text_11">
      <!-- 0.4 -->
      <g transform="translate(83.017339 347.839714) scale(0.25 -0.25)">
       <defs>
        <path id="DejaVuSans-34" d="M 2419 4116 
L 825 1625 
L 2419 1625 
L 2419 4116 
z
M 2253 4666 
L 3047 4666 
L 3047 1625 
L 3713 1625 
L 3713 1100 
L 3047 1100 
L 3047 0 
L 2419 0 
L 2419 1100 
L 313 1100 
L 313 1709 
L 2253 4666 
z
" transform="scale(0.015625)"/>
       </defs>
       <use xlink:href="#DejaVuSans-30"/>
       <use xlink:href="#DejaVuSans-2e" x="63.623047"/>
       <use xlink:href="#DejaVuSans-34" x="95.410156"/>
      </g>
     </g>
    </g>
    <g id="ytick_4">
     <g id="line2d_21">
      <path d="M 129.775152 262.93625 
L 685.035 262.93625 
" clip-path="url(#pe76a56ae0c)" style="fill: none; stroke: #b0b0b0; stroke-width: 0.8; stroke-linecap: square"/>
     </g>
     <g id="line2d_22">
      <g>
       <use xlink:href="#m56edcf6550" x="129.775152" y="262.93625" style="stroke: #000000; stroke-width: 0.8"/>
      </g>
     </g>
     <g id="text_12">
      <!-- 0.6 -->
      <g transform="translate(83.017339 272.434297) scale(0.25 -0.25)">
       <defs>
        <path id="DejaVuSans-36" d="M 2113 2584 
Q 1688 2584 1439 2293 
Q 1191 2003 1191 1497 
Q 1191 994 1439 701 
Q 1688 409 2113 409 
Q 2538 409 2786 701 
Q 3034 994 3034 1497 
Q 3034 2003 2786 2293 
Q 2538 2584 2113 2584 
z
M 3366 4563 
L 3366 3988 
Q 3128 4100 2886 4159 
Q 2644 4219 2406 4219 
Q 1781 4219 1451 3797 
Q 1122 3375 1075 2522 
Q 1259 2794 1537 2939 
Q 1816 3084 2150 3084 
Q 2853 3084 3261 2657 
Q 3669 2231 3669 1497 
Q 3669 778 3244 343 
Q 2819 -91 2113 -91 
Q 1303 -91 875 529 
Q 447 1150 447 2328 
Q 447 3434 972 4092 
Q 1497 4750 2381 4750 
Q 2619 4750 2861 4703 
Q 3103 4656 3366 4563 
z
" transform="scale(0.015625)"/>
       </defs>
       <use xlink:href="#DejaVuSans-30"/>
       <use xlink:href="#DejaVuSans-2e" x="63.623047"/>
       <use xlink:href="#DejaVuSans-36" x="95.410156"/>
      </g>
     </g>
    </g>
    <g id="ytick_5">
     <g id="line2d_23">
      <path d="M 129.775152 187.530833 
L 685.035 187.530833 
" clip-path="url(#pe76a56ae0c)" style="fill: none; stroke: #b0b0b0; stroke-width: 0.8; stroke-linecap: square"/>
     </g>
     <g id="line2d_24">
      <g>
       <use xlink:href="#m56edcf6550" x="129.775152" y="187.530833" style="stroke: #000000; stroke-width: 0.8"/>
      </g>
     </g>
     <g id="text_13">
      <!-- 0.8 -->
      <g transform="translate(83.017339 197.02888) scale(0.25 -0.25)">
       <defs>
        <path id="DejaVuSans-38" d="M 2034 2216 
Q 1584 2216 1326 1975 
Q 1069 1734 1069 1313 
Q 1069 891 1326 650 
Q 1584 409 2034 409 
Q 2484 409 2743 651 
Q 3003 894 3003 1313 
Q 3003 1734 2745 1975 
Q 2488 2216 2034 2216 
z
M 1403 2484 
Q 997 2584 770 2862 
Q 544 3141 544 3541 
Q 544 4100 942 4425 
Q 1341 4750 2034 4750 
Q 2731 4750 3128 4425 
Q 3525 4100 3525 3541 
Q 3525 3141 3298 2862 
Q 3072 2584 2669 2484 
Q 3125 2378 3379 2068 
Q 3634 1759 3634 1313 
Q 3634 634 3220 271 
Q 2806 -91 2034 -91 
Q 1263 -91 848 271 
Q 434 634 434 1313 
Q 434 1759 690 2068 
Q 947 2378 1403 2484 
z
M 1172 3481 
Q 1172 3119 1398 2916 
Q 1625 2713 2034 2713 
Q 2441 2713 2670 2916 
Q 2900 3119 2900 3481 
Q 2900 3844 2670 4047 
Q 2441 4250 2034 4250 
Q 1625 4250 1398 4047 
Q 1172 3844 1172 3481 
z
" transform="scale(0.015625)"/>
       </defs>
       <use xlink:href="#DejaVuSans-30"/>
       <use xlink:href="#DejaVuSans-2e" x="63.623047"/>
       <use xlink:href="#DejaVuSans-38" x="95.410156"/>
      </g>
     </g>
    </g>
    <g id="ytick_6">
     <g id="line2d_25">
      <path d="M 129.775152 112.125417 
L 685.035 112.125417 
" clip-path="url(#pe76a56ae0c)" style="fill: none; stroke: #b0b0b0; stroke-width: 0.8; stroke-linecap: square"/>
     </g>
     <g id="line2d_26">
      <g>
       <use xlink:href="#m56edcf6550" x="129.775152" y="112.125417" style="stroke: #000000; stroke-width: 0.8"/>
      </g>
     </g>
     <g id="text_14">
      <!-- 1.0 -->
      <g transform="translate(83.017339 121.623464) scale(0.25 -0.25)">
       <use xlink:href="#DejaVuSans-31"/>
       <use xlink:href="#DejaVuSans-2e" x="63.623047"/>
       <use xlink:href="#DejaVuSans-30" x="95.410156"/>
      </g>
     </g>
    </g>
    <g id="ytick_7">
     <g id="line2d_27">
      <path d="M 129.775152 36.72 
L 685.035 36.72 
" clip-path="url(#pe76a56ae0c)" style="fill: none; stroke: #b0b0b0; stroke-width: 0.8; stroke-linecap: square"/>
     </g>
     <g id="line2d_28">
      <g>
       <use xlink:href="#m56edcf6550" x="129.775152" y="36.72" style="stroke: #000000; stroke-width: 0.8"/>
      </g>
     </g>
     <g id="text_15">
      <!-- 1.2 -->
      <g transform="translate(83.017339 46.218047) scale(0.25 -0.25)">
       <use xlink:href="#DejaVuSans-31"/>
       <use xlink:href="#DejaVuSans-2e" x="63.623047"/>
       <use xlink:href="#DejaVuSans-32" x="95.410156"/>
      </g>
     </g>
    </g>
    <g id="text_16">
     <!-- $\rho$($\omega$) -->
     <g transform="translate(27.017339 257.68625) scale(0.25 -0.25)">
      <defs>
       <path id="DejaVuSans-Oblique-3c1" d="M 1203 2875 
Q 1453 3194 1981 3475 
Q 2188 3584 2756 3584 
Q 3394 3584 3694 3078 
Q 3994 2572 3834 1747 
Q 3672 922 3175 415 
Q 2678 -91 2041 -91 
Q 1656 -91 1409 63 
Q 1163 213 1044 525 
L 681 -1331 
L 103 -1331 
L 697 1716 
Q 838 2438 1203 2875 
z
M 3238 1747 
Q 3359 2381 3169 2744 
Q 2978 3103 2522 3103 
Q 2066 3103 1734 2744 
Q 1403 2381 1281 1747 
Q 1156 1113 1347 750 
Q 1538 391 1994 391 
Q 2450 391 2781 750 
Q 3113 1113 3238 1747 
z
" transform="scale(0.015625)"/>
       <path id="Calibri-28" d="M 1547 4306 
Q 1250 3678 1104 3017 
Q 959 2356 959 1688 
Q 959 1016 1107 356 
Q 1256 -303 1541 -938 
Q 1556 -975 1557 -1001 
Q 1559 -1028 1537 -1045 
Q 1516 -1063 1470 -1070 
Q 1425 -1078 1347 -1078 
Q 1291 -1078 1250 -1075 
Q 1209 -1072 1179 -1062 
Q 1150 -1053 1131 -1040 
Q 1113 -1028 1103 -1013 
Q 934 -694 806 -367 
Q 678 -41 590 296 
Q 503 634 459 979 
Q 416 1325 416 1678 
Q 416 2031 464 2375 
Q 513 2719 602 3058 
Q 691 3397 819 3725 
Q 947 4053 1106 4375 
Q 1109 4388 1123 4397 
Q 1138 4406 1163 4415 
Q 1188 4425 1231 4429 
Q 1275 4434 1344 4434 
Q 1416 4434 1459 4425 
Q 1503 4416 1528 4400 
Q 1553 4384 1556 4359 
Q 1559 4334 1547 4306 
z
" transform="scale(0.015625)"/>
       <path id="Calibri-29" d="M 1522 1678 
Q 1522 1325 1478 979 
Q 1434 634 1346 296 
Q 1259 -41 1132 -367 
Q 1006 -694 838 -1013 
Q 828 -1028 809 -1040 
Q 791 -1053 761 -1062 
Q 731 -1072 690 -1075 
Q 650 -1078 594 -1078 
Q 513 -1078 467 -1070 
Q 422 -1063 401 -1045 
Q 381 -1028 382 -1001 
Q 384 -975 400 -938 
Q 688 -306 834 355 
Q 981 1016 981 1688 
Q 981 2356 834 3017 
Q 688 3678 394 4306 
Q 381 4334 384 4359 
Q 388 4384 413 4400 
Q 438 4416 481 4425 
Q 525 4434 597 4434 
Q 663 4434 706 4429 
Q 750 4425 776 4415 
Q 803 4406 815 4397 
Q 828 4388 834 4375 
Q 1156 3734 1339 3057 
Q 1522 2381 1522 1678 
z
" transform="scale(0.015625)"/>
      </defs>
      <use xlink:href="#DejaVuSans-Oblique-3c1" transform="translate(0 0.71875)"/>
      <use xlink:href="#Calibri-28" transform="translate(63.476562 0.71875)"/>
      <use xlink:href="#DejaVuSans-Oblique-3c9" transform="translate(93.798828 0.71875)"/>
      <use xlink:href="#Calibri-29" transform="translate(177.539062 0.71875)"/>
     </g>
    </g>
   </g>
   <g id="line2d_29">
    <path d="M 129.775152 485.191726 
L 155.342673 484.357586 
L 176.463668 483.453498 
L 194.527677 482.46213 
L 209.812608 481.407831 
L 223.152183 480.271633 
L 234.824312 479.061062 
L 245.106902 477.779351 
L 254.277861 476.42091 
L 262.615096 474.96598 
L 270.118607 473.43544 
L 277.066303 471.789852 
L 283.180275 470.122023 
L 289.01634 468.299747 
L 294.296588 466.420579 
L 299.298929 464.401354 
L 303.745455 462.37756 
L 307.914072 460.252334 
L 312.08269 457.871329 
L 315.973399 455.381981 
L 319.586201 452.803903 
L 322.921095 450.162848 
L 326.255989 447.235062 
L 329.312975 444.264491 
L 332.369961 440.981839 
L 335.14904 437.690985 
L 337.928118 434.069935 
L 340.707196 430.076083 
L 343.486275 425.660385 
L 345.987445 421.279051 
L 348.488616 416.463255 
L 350.989786 411.159493 
L 353.490957 405.30707 
L 355.992127 398.837288 
L 358.493298 391.672671 
L 360.71656 384.650778 
L 362.939823 376.943851 
L 365.163086 368.478348 
L 367.386348 359.175174 
L 369.609611 348.950806 
L 371.832874 337.719359 
L 374.056136 325.396011 
L 376.279399 311.90232 
L 378.780569 295.243962 
L 381.28174 276.972296 
L 383.78291 257.104693 
L 386.561989 233.312559 
L 390.17479 200.351722 
L 396.010855 146.782085 
L 398.234118 128.471207 
L 399.901565 116.346345 
L 401.291104 107.617616 
L 402.680643 100.372585 
L 403.792274 95.775724 
L 404.625998 93.082969 
L 405.459721 91.068857 
L 406.015537 90.113935 
L 406.571352 89.474771 
L 407.127168 89.15442 
L 407.682984 89.15442 
L 408.238799 89.474771 
L 408.794615 90.113935 
L 409.350431 91.068857 
L 410.184154 93.082969 
L 411.017878 95.775724 
L 412.129509 100.372585 
L 413.24114 106.043297 
L 414.63068 114.492112 
L 416.298127 126.340685 
L 418.243481 142.019089 
L 420.744652 164.145858 
L 430.749334 254.802741 
L 433.528412 276.972296 
L 436.029583 295.243962 
L 438.530753 311.90232 
L 441.031924 326.998923 
L 443.533094 340.626334 
L 445.756357 351.597943 
L 447.979619 361.584007 
L 450.202882 370.670079 
L 452.704053 379.918766 
L 455.205223 388.242991 
L 457.706394 395.743738 
L 460.207564 402.512223 
L 462.708735 408.630041 
L 465.209905 414.169702 
L 467.711075 419.195358 
L 470.212246 423.763608 
L 472.991324 428.363411 
L 475.770403 432.519723 
L 478.549481 436.284441 
L 481.328559 439.702634 
L 484.385545 443.109017 
L 487.442532 446.188525 
L 490.777426 449.220669 
L 494.11232 451.953137 
L 497.725121 454.617796 
L 501.337923 457.013907 
L 505.228633 459.332771 
L 509.39725 461.555817 
L 513.843776 463.669574 
L 518.568209 465.665121 
L 523.57055 467.537459 
L 529.128706 469.370984 
L 534.964771 471.059658 
L 541.356651 472.675741 
L 548.304347 474.201372 
L 556.085766 475.674049 
L 564.700909 477.06667 
L 574.149775 478.361688 
L 584.710273 479.578987 
L 596.660309 480.725143 
L 610.277793 481.798417 
L 625.840632 482.792931 
L 643.626733 483.701997 
L 664.46982 484.540252 
L 685.035 485.191726 
L 685.035 485.191726 
" clip-path="url(#pe76a56ae0c)" style="fill: none; stroke-dasharray: 14.8,6.4; stroke-dashoffset: 0; stroke: #ff0000; stroke-width: 4"/>
   </g>
   <g id="line2d_30">
    <path d="M 129.775152 484.125358 
L 130.05306 486.136215 
L 130.330968 484.795644 
L 130.608875 484.125358 
L 130.886783 484.125358 
L 131.164691 484.795644 
L 131.442599 483.790215 
L 131.998415 485.465929 
L 132.276322 483.790215 
L 132.55423 485.465929 
L 132.832138 485.130787 
L 133.110046 485.130787 
L 133.387954 484.125358 
L 133.665862 483.790215 
L 134.221677 485.465929 
L 134.499585 484.125358 
L 134.777493 484.125358 
L 135.055401 481.444216 
L 135.333309 484.460501 
L 135.611216 484.795644 
L 135.889124 486.136215 
L 136.167032 485.465929 
L 136.44494 485.130787 
L 136.722848 482.449644 
L 137.000756 483.790215 
L 137.278663 484.460501 
L 137.556571 484.795644 
L 137.834479 484.125358 
L 138.112387 486.136215 
L 138.390295 486.136215 
L 138.668203 485.801072 
L 138.94611 484.795644 
L 139.224018 484.795644 
L 139.501926 483.455073 
L 140.057742 483.455073 
L 140.33565 485.801072 
L 140.613557 483.11993 
L 140.891465 485.801072 
L 141.169373 484.125358 
L 141.447281 485.130787 
L 141.725189 484.460501 
L 142.003097 485.801072 
L 142.281004 482.114502 
L 142.558912 484.460501 
L 142.83682 484.125358 
L 143.114728 484.125358 
L 143.392636 483.11993 
L 143.948451 486.806501 
L 144.226359 481.779359 
L 144.782175 484.795644 
L 145.060083 485.465929 
L 145.337991 482.449644 
L 145.615898 483.455073 
L 145.893806 485.465929 
L 146.171714 481.444216 
L 146.449622 484.125358 
L 146.72753 485.465929 
L 147.005438 482.784787 
L 147.283345 481.779359 
L 147.839161 486.471358 
L 148.117069 484.125358 
L 148.394977 483.11993 
L 148.672885 483.455073 
L 148.950792 484.795644 
L 149.2287 484.125358 
L 149.506608 485.801072 
L 149.784516 482.784787 
L 150.062424 484.795644 
L 150.340332 482.784787 
L 150.896147 485.801072 
L 151.451963 483.11993 
L 151.729871 483.455073 
L 152.007779 482.784787 
L 152.285686 485.465929 
L 152.563594 485.465929 
L 152.841502 482.449644 
L 153.11941 485.801072 
L 153.397318 486.471358 
L 153.953133 484.125358 
L 154.231041 484.125358 
L 154.508949 484.795644 
L 154.786857 482.114502 
L 155.064765 485.801072 
L 155.342673 486.136215 
L 155.62058 484.125358 
L 155.898488 483.455073 
L 156.176396 483.11993 
L 156.454304 485.130787 
L 156.732212 483.455073 
L 157.010119 485.801072 
L 157.565935 483.11993 
L 157.843843 484.125358 
L 158.121751 482.114502 
L 158.399659 484.125358 
L 158.677566 484.460501 
L 158.955474 483.11993 
L 159.233382 485.465929 
L 159.51129 484.125358 
L 159.789198 485.465929 
L 160.067106 483.455073 
L 160.345013 485.465929 
L 160.622921 481.779359 
L 160.900829 482.784787 
L 161.178737 485.130787 
L 161.456645 485.130787 
L 161.734553 481.779359 
L 162.01246 484.795644 
L 162.290368 482.449644 
L 162.568276 481.444216 
L 162.846184 484.125358 
L 163.124092 482.449644 
L 163.402 485.465929 
L 163.957815 482.114502 
L 164.235723 484.125358 
L 164.513631 483.455073 
L 164.791539 482.114502 
L 165.069447 485.130787 
L 165.347354 482.784787 
L 165.625262 484.125358 
L 165.90317 483.790215 
L 166.181078 484.460501 
L 166.458986 481.444216 
L 166.736894 483.11993 
L 167.014801 482.114502 
L 167.292709 484.125358 
L 167.570617 483.455073 
L 167.848525 481.109073 
L 168.126433 485.130787 
L 168.404341 482.784787 
L 168.682248 482.114502 
L 168.960156 482.114502 
L 169.238064 483.790215 
L 169.515972 482.449644 
L 169.79388 485.465929 
L 170.071788 485.130787 
L 170.627603 481.779359 
L 170.905511 481.779359 
L 171.183419 485.130787 
L 171.461327 481.109073 
L 171.739235 484.795644 
L 172.017142 484.125358 
L 172.29505 483.790215 
L 172.572958 485.465929 
L 172.850866 482.114502 
L 173.128774 482.784787 
L 173.406682 482.784787 
L 173.684589 481.109073 
L 173.962497 481.444216 
L 174.518313 484.795644 
L 174.796221 481.779359 
L 175.074129 482.784787 
L 175.352036 481.444216 
L 175.629944 481.779359 
L 175.907852 484.795644 
L 176.18576 481.444216 
L 176.463668 483.455073 
L 176.741576 481.444216 
L 177.019483 482.784787 
L 177.297391 482.114502 
L 177.575299 482.449644 
L 177.853207 484.460501 
L 178.131115 484.460501 
L 178.409023 479.433359 
L 178.68693 481.109073 
L 178.964838 481.444216 
L 179.242746 483.790215 
L 179.520654 482.784787 
L 179.798562 479.768502 
L 180.07647 483.11993 
L 180.354377 484.460501 
L 180.632285 481.109073 
L 180.910193 482.784787 
L 181.188101 481.109073 
L 181.466009 483.455073 
L 181.743917 483.455073 
L 182.021824 483.790215 
L 182.299732 483.11993 
L 182.57764 480.438788 
L 182.855548 481.779359 
L 183.133456 481.444216 
L 183.411364 482.114502 
L 183.689271 484.460501 
L 183.967179 481.444216 
L 184.522995 482.784787 
L 184.800903 484.125358 
L 185.078811 482.114502 
L 185.356718 482.449644 
L 185.634626 485.801072 
L 185.912534 479.768502 
L 186.190442 485.465929 
L 186.46835 480.438788 
L 186.746258 483.455073 
L 187.024165 480.438788 
L 187.302073 483.11993 
L 187.579981 481.779359 
L 187.857889 482.114502 
L 188.413704 484.460501 
L 188.691612 479.768502 
L 188.96952 484.125358 
L 189.803244 481.444216 
L 190.081151 481.444216 
L 190.359059 482.784787 
L 190.914875 481.444216 
L 191.192783 483.11993 
L 191.748598 481.779359 
L 192.026506 481.779359 
L 192.582322 482.449644 
L 192.86023 482.114502 
L 193.138138 482.114502 
L 193.416045 480.103645 
L 193.693953 482.784787 
L 193.971861 479.768502 
L 194.249769 480.103645 
L 194.805585 484.795644 
L 195.083492 480.103645 
L 195.3614 483.11993 
L 195.639308 478.763074 
L 195.917216 483.455073 
L 196.195124 480.77393 
L 196.473032 479.768502 
L 196.750939 481.779359 
L 197.028847 480.103645 
L 197.306755 482.114502 
L 197.584663 479.433359 
L 198.140479 482.449644 
L 198.418386 482.784787 
L 198.974202 482.114502 
L 199.25211 479.098216 
L 199.530018 482.784787 
L 199.807926 482.114502 
L 200.085833 480.103645 
L 200.363741 482.449644 
L 200.641649 480.77393 
L 200.919557 481.444216 
L 201.197465 481.779359 
L 201.475373 482.784787 
L 201.75328 482.114502 
L 202.309096 482.114502 
L 202.587004 481.109073 
L 202.864912 481.109073 
L 203.14282 481.444216 
L 203.420727 481.444216 
L 203.976543 479.433359 
L 204.254451 483.11993 
L 204.532359 481.779359 
L 204.810267 483.790215 
L 205.088174 481.109073 
L 205.366082 481.444216 
L 205.64399 484.460501 
L 205.921898 481.444216 
L 206.199806 480.103645 
L 206.477714 477.08736 
L 207.033529 482.114502 
L 207.311437 480.77393 
L 207.589345 480.77393 
L 207.867253 479.768502 
L 208.145161 480.103645 
L 208.423068 482.114502 
L 208.700976 482.449644 
L 208.978884 480.438788 
L 209.256792 482.784787 
L 209.5347 481.779359 
L 209.812608 479.098216 
L 210.090515 477.757645 
L 210.646331 484.795644 
L 210.924239 483.11993 
L 211.202147 482.449644 
L 211.480055 480.77393 
L 211.757962 480.438788 
L 212.03587 479.098216 
L 212.591686 481.109073 
L 213.147502 479.433359 
L 213.425409 479.768502 
L 213.703317 484.125358 
L 213.981225 483.455073 
L 214.259133 481.109073 
L 214.537041 485.465929 
L 214.814949 481.109073 
L 215.092856 482.449644 
L 215.370764 480.438788 
L 215.648672 481.444216 
L 216.204488 481.444216 
L 216.482396 481.109073 
L 216.760303 478.763074 
L 217.316119 480.438788 
L 217.594027 479.098216 
L 217.871935 481.779359 
L 218.42775 479.768502 
L 218.705658 479.433359 
L 218.983566 481.109073 
L 219.261474 480.77393 
L 219.539382 482.114502 
L 219.817289 479.098216 
L 220.095197 478.763074 
L 220.373105 476.081931 
L 220.651013 481.779359 
L 220.928921 478.763074 
L 221.206829 481.109073 
L 221.484736 480.438788 
L 222.040552 477.422503 
L 222.31846 479.433359 
L 222.596368 477.422503 
L 222.874276 479.098216 
L 223.152183 479.098216 
L 223.430091 478.427931 
L 223.707999 478.427931 
L 223.985907 478.763074 
L 224.263815 481.444216 
L 224.541723 477.422503 
L 224.81963 477.08736 
L 225.097538 478.427931 
L 225.375446 482.784787 
L 225.653354 479.098216 
L 225.931262 481.444216 
L 226.20917 478.763074 
L 226.487077 481.444216 
L 226.764985 478.763074 
L 227.042893 480.438788 
L 227.320801 478.427931 
L 227.598709 478.092788 
L 227.876617 476.752217 
L 228.154524 478.427931 
L 228.432432 478.427931 
L 228.71034 478.092788 
L 228.988248 475.076503 
L 229.266156 480.103645 
L 229.544064 477.422503 
L 229.821971 479.433359 
L 230.099879 478.092788 
L 230.377787 480.438788 
L 230.655695 477.422503 
L 230.933603 481.779359 
L 231.211511 478.092788 
L 231.489418 477.757645 
L 231.767326 477.757645 
L 232.045234 478.427931 
L 232.323142 479.433359 
L 232.60105 478.427931 
L 232.878958 481.444216 
L 233.434773 477.08736 
L 233.712681 477.08736 
L 233.990589 480.103645 
L 234.268497 478.092788 
L 234.546405 478.092788 
L 234.824312 479.098216 
L 235.10222 479.098216 
L 235.380128 478.763074 
L 235.658036 482.114502 
L 236.213852 479.433359 
L 236.491759 478.427931 
L 236.769667 476.081931 
L 237.047575 479.098216 
L 237.325483 476.752217 
L 237.603391 479.098216 
L 237.881299 478.427931 
L 238.159206 481.109073 
L 238.437114 477.08736 
L 238.715022 480.103645 
L 238.99293 474.071075 
L 239.270838 480.438788 
L 239.548746 478.092788 
L 240.104561 476.752217 
L 240.382469 475.076503 
L 240.660377 476.417074 
L 240.938285 476.752217 
L 241.216193 478.092788 
L 241.4941 476.417074 
L 241.772008 478.763074 
L 242.049916 475.746789 
L 242.327824 474.406217 
L 242.605732 479.433359 
L 242.88364 478.427931 
L 243.161547 478.427931 
L 243.439455 475.746789 
L 243.717363 479.768502 
L 243.995271 478.763074 
L 244.273179 474.406217 
L 244.551087 479.768502 
L 244.828994 475.746789 
L 245.106902 477.757645 
L 245.38481 473.065646 
L 245.662718 477.08736 
L 245.940626 475.076503 
L 246.496441 479.768502 
L 246.774349 476.752217 
L 247.052257 475.411646 
L 247.330165 477.757645 
L 247.608073 476.417074 
L 247.885981 473.065646 
L 248.163888 478.092788 
L 248.441796 476.752217 
L 248.719704 477.757645 
L 248.997612 478.092788 
L 249.27552 477.757645 
L 249.553428 477.757645 
L 249.831335 471.725075 
L 250.109243 477.08736 
L 250.387151 475.746789 
L 250.665059 478.092788 
L 250.942967 474.406217 
L 251.220874 477.757645 
L 251.498782 479.098216 
L 251.77669 473.735932 
L 252.054598 473.735932 
L 252.332506 474.071075 
L 252.610414 474.74136 
L 252.888321 473.400789 
L 253.166229 478.092788 
L 253.444137 475.411646 
L 253.999953 473.400789 
L 254.277861 469.379076 
L 254.555768 478.763074 
L 254.833676 475.076503 
L 255.111584 474.406217 
L 255.389492 477.08736 
L 255.6674 474.071075 
L 255.945308 475.746789 
L 256.223215 475.076503 
L 256.501123 476.752217 
L 256.779031 469.379076 
L 257.056939 475.076503 
L 257.334847 476.081931 
L 257.612755 474.071075 
L 257.890662 476.752217 
L 258.16857 474.071075 
L 258.446478 479.433359 
L 259.002294 472.730504 
L 259.280202 474.071075 
L 259.558109 479.098216 
L 259.836017 477.422503 
L 260.113925 471.725075 
L 260.391833 475.746789 
L 260.669741 477.757645 
L 260.947649 475.411646 
L 261.225556 471.389932 
L 261.503464 475.411646 
L 262.05928 472.395361 
L 262.337188 474.071075 
L 262.615096 471.05479 
L 262.893003 474.74136 
L 263.170911 470.384504 
L 263.448819 474.406217 
L 263.726727 472.060218 
L 264.004635 475.411646 
L 264.282543 475.411646 
L 264.56045 476.417074 
L 264.838358 473.400789 
L 265.116266 475.746789 
L 265.394174 475.076503 
L 265.672082 475.076503 
L 265.94999 473.735932 
L 266.227897 475.076503 
L 266.505805 474.406217 
L 266.783713 476.417074 
L 267.061621 471.05479 
L 267.339529 471.725075 
L 267.617437 471.389932 
L 268.173252 470.049361 
L 268.45116 473.735932 
L 268.729068 471.725075 
L 269.006976 468.038505 
L 269.284884 468.373647 
L 269.562791 470.049361 
L 269.840699 474.071075 
L 270.118607 472.395361 
L 270.396515 474.071075 
L 270.674423 473.400789 
L 271.230238 471.05479 
L 271.508146 467.033076 
L 271.786054 473.065646 
L 272.063962 475.411646 
L 272.34187 473.065646 
L 272.619778 469.379076 
L 272.897685 469.379076 
L 273.175593 473.735932 
L 273.731409 469.379076 
L 274.009317 470.049361 
L 274.287225 471.389932 
L 274.565132 470.719647 
L 275.120948 474.74136 
L 275.398856 470.719647 
L 275.676764 475.411646 
L 275.954672 466.362791 
L 276.232579 471.05479 
L 276.510487 468.373647 
L 277.622119 472.060218 
L 277.900026 469.379076 
L 278.177934 472.730504 
L 278.73375 469.714218 
L 279.011658 467.703362 
L 279.289566 471.05479 
L 279.567473 468.70879 
L 279.845381 468.038505 
L 280.123289 464.016791 
L 280.401197 465.692505 
L 280.679105 470.049361 
L 280.957013 470.049361 
L 281.23492 470.719647 
L 281.512828 463.346506 
L 281.790736 471.725075 
L 282.346552 467.368219 
L 282.624459 474.74136 
L 282.902367 470.719647 
L 283.180275 470.719647 
L 283.458183 467.368219 
L 283.736091 474.406217 
L 284.013999 473.400789 
L 284.291906 468.038505 
L 284.569814 470.049361 
L 284.847722 466.362791 
L 285.12563 467.033076 
L 285.403538 465.022219 
L 285.959353 465.692505 
L 286.237261 464.016791 
L 286.515169 470.049361 
L 286.793077 465.022219 
L 287.070985 462.67622 
L 287.348893 470.049361 
L 287.6268 467.033076 
L 287.904708 465.692505 
L 288.182616 463.681648 
L 288.460524 465.692505 
L 288.738432 472.395361 
L 289.01634 465.357362 
L 289.294247 465.022219 
L 289.572155 465.022219 
L 289.850063 468.70879 
L 290.127971 468.373647 
L 290.405879 462.005934 
L 290.683787 460.665363 
L 290.961694 465.022219 
L 291.239602 460.665363 
L 291.51751 459.995078 
L 291.795418 469.379076 
L 292.351234 468.038505 
L 292.629141 463.681648 
L 292.907049 464.351934 
L 293.184957 466.362791 
L 293.462865 466.027648 
L 293.740773 468.373647 
L 294.018681 466.362791 
L 294.296588 467.703362 
L 294.574496 458.989649 
L 294.852404 466.697933 
L 295.130312 466.027648 
L 295.40822 463.011363 
L 295.686128 463.681648 
L 295.964035 465.357362 
L 296.241943 466.027648 
L 296.519851 463.011363 
L 296.797759 463.346506 
L 297.075667 464.016791 
L 297.353575 462.341077 
L 297.631482 469.043933 
L 297.90939 459.659935 
L 298.187298 464.687077 
L 298.465206 461.670792 
L 298.743114 460.33022 
L 299.021022 460.33022 
L 299.298929 456.978793 
L 299.576837 465.022219 
L 299.854745 463.346506 
L 300.132653 458.654507 
L 300.410561 465.022219 
L 300.966376 458.989649 
L 301.244284 468.373647 
L 301.522192 463.346506 
L 301.8001 461.000506 
L 302.078008 460.33022 
L 302.355916 467.368219 
L 302.633823 463.346506 
L 302.911731 464.351934 
L 303.189639 462.341077 
L 303.467547 452.621936 
L 303.745455 464.016791 
L 304.023363 457.649078 
L 304.30127 456.308507 
L 304.579178 463.681648 
L 304.857086 464.351934 
L 305.134994 453.627365 
L 305.69081 464.351934 
L 305.968717 463.681648 
L 306.524533 450.946222 
L 307.080349 458.654507 
L 307.358257 456.308507 
L 307.636164 457.313935 
L 307.914072 462.341077 
L 308.19198 458.319364 
L 308.469888 457.984221 
L 308.747796 455.303079 
L 309.025704 459.324792 
L 309.581519 452.286794 
L 309.859427 457.313935 
L 310.137335 454.29765 
L 310.415243 457.313935 
L 310.693151 455.303079 
L 310.971058 457.649078 
L 311.248966 457.313935 
L 311.526874 457.313935 
L 311.804782 453.292222 
L 312.08269 450.946222 
L 312.360597 456.64365 
L 312.638505 457.649078 
L 312.916413 449.940794 
L 313.194321 458.989649 
L 313.472229 455.638221 
L 313.750137 454.967936 
L 314.028044 458.654507 
L 314.305952 449.940794 
L 314.58386 450.946222 
L 314.861768 456.308507 
L 315.139676 449.940794 
L 315.417584 446.589366 
L 315.695491 453.292222 
L 315.973399 453.292222 
L 316.251307 443.237938 
L 316.529215 450.946222 
L 316.807123 455.303079 
L 317.085031 455.303079 
L 317.362938 450.275937 
L 317.640846 451.951651 
L 317.918754 444.57851 
L 318.196662 455.638221 
L 318.47457 450.61108 
L 318.752478 448.600223 
L 319.030385 448.600223 
L 319.308293 457.649078 
L 319.586201 448.935366 
L 319.864109 455.303079 
L 320.142017 447.259652 
L 320.419925 446.254223 
L 320.697832 448.600223 
L 320.97574 446.254223 
L 321.253648 448.26508 
L 321.531556 445.583938 
L 321.809464 449.605651 
L 322.087372 439.551368 
L 322.365279 446.924509 
L 322.643187 442.902796 
L 322.921095 446.924509 
L 323.199003 453.627365 
L 323.754819 444.57851 
L 324.032726 444.913652 
L 324.310634 444.243367 
L 324.588542 449.940794 
L 324.86645 446.924509 
L 325.144358 449.605651 
L 325.700173 440.891939 
L 325.978081 448.26508 
L 326.255989 449.605651 
L 326.533897 443.237938 
L 326.811805 443.237938 
L 327.089713 442.23251 
L 327.36762 443.573081 
L 327.645528 443.237938 
L 327.923436 443.573081 
L 328.201344 448.26508 
L 328.479252 447.259652 
L 328.75716 438.210797 
L 329.035067 443.908224 
L 329.312975 435.529654 
L 329.590883 442.567653 
L 329.868791 444.243367 
L 330.146699 440.556796 
L 330.702514 439.216225 
L 330.980422 442.23251 
L 331.25833 440.556796 
L 331.536238 433.183655 
L 331.814146 436.19994 
L 332.092054 435.864797 
L 332.369961 434.859369 
L 332.647869 438.545939 
L 332.925777 434.189083 
L 333.203685 435.194512 
L 333.481593 434.524226 
L 333.759501 434.524226 
L 334.037408 432.848512 
L 334.315316 442.567653 
L 334.871132 434.859369 
L 335.14904 429.832227 
L 335.426948 431.172798 
L 335.704855 433.518798 
L 335.982763 438.210797 
L 336.260671 433.85394 
L 336.538579 435.864797 
L 336.816487 432.178226 
L 337.372302 429.497084 
L 337.65021 439.886511 
L 338.206026 426.815942 
L 338.483934 430.837655 
L 338.761842 426.145656 
L 339.039749 427.151085 
L 339.317657 430.837655 
L 339.595565 422.794228 
L 340.151381 428.156513 
L 340.429289 429.497084 
L 340.707196 424.469942 
L 340.985104 415.75623 
L 341.263012 427.82137 
L 341.54092 429.832227 
L 341.818828 424.469942 
L 342.096736 428.156513 
L 342.374643 421.7888 
L 342.652551 425.475371 
L 342.930459 416.761658 
L 343.208367 413.41023 
L 343.486275 421.7888 
L 343.764182 421.7888 
L 344.04209 414.080516 
L 344.319998 420.113086 
L 344.597906 423.464514 
L 344.875814 414.750802 
L 345.153722 416.426516 
L 345.431629 424.1348 
L 345.709537 416.761658 
L 345.987445 419.777943 
L 346.265353 410.729088 
L 346.543261 424.469942 
L 346.821169 408.718231 
L 347.099076 411.734517 
L 347.376984 411.064231 
L 347.654892 422.123943 
L 348.210708 411.399374 
L 348.488616 419.442801 
L 348.766523 412.739945 
L 349.044431 415.75623 
L 349.322339 405.031661 
L 349.600247 415.75623 
L 349.878155 414.415659 
L 350.43397 399.669376 
L 350.711878 405.366804 
L 350.989786 399.334233 
L 351.267694 402.015376 
L 351.545602 406.707375 
L 351.82351 406.037089 
L 352.101417 401.34509 
L 352.379325 393.636806 
L 352.657233 404.361375 
L 352.935141 401.34509 
L 353.213049 402.015376 
L 353.490957 398.999091 
L 354.046772 406.037089 
L 354.32468 388.274522 
L 354.880496 406.707375 
L 355.158404 396.988234 
L 355.436311 398.328805 
L 355.714219 398.999091 
L 355.992127 385.928522 
L 356.270035 395.982806 
L 356.547943 397.323377 
L 356.825851 387.604236 
L 357.103758 391.961092 
L 357.381666 401.680233 
L 357.659574 389.615093 
L 357.937482 383.917665 
L 358.21539 386.263665 
L 358.493298 391.625949 
L 359.327021 373.863382 
L 359.604929 388.944807 
L 359.882837 389.27995 
L 360.160745 386.93395 
L 360.438652 379.895952 
L 360.71656 378.890524 
L 360.994468 379.225666 
L 361.550284 366.825383 
L 362.106099 376.209381 
L 362.384007 373.863382 
L 362.661915 377.21481 
L 362.939823 373.528239 
L 363.217731 355.430529 
L 363.495639 367.495669 
L 363.773546 370.511954 
L 364.051454 358.781956 
L 364.329362 361.798241 
L 364.60727 370.847097 
L 364.885178 358.111671 
L 365.163086 359.787385 
L 365.440993 364.479384 
L 365.996809 352.749386 
L 366.274717 354.4251 
L 366.552625 353.419672 
L 366.830533 349.733101 
L 367.10844 342.024817 
L 367.664256 360.122528 
L 367.942164 345.711388 
L 368.220072 347.387102 
L 368.49798 338.003104 
L 368.775887 347.387102 
L 369.053795 335.657104 
L 369.331703 344.370817 
L 369.609611 329.624534 
L 369.887519 333.98139 
L 370.165427 342.35996 
L 370.443334 335.992247 
L 370.721242 338.673389 
L 370.99915 331.970534 
L 371.277058 328.619106 
L 371.554966 338.003104 
L 371.832874 332.975962 
L 372.110781 331.300248 
L 372.388689 327.94882 
L 372.666597 321.91625 
L 372.944505 320.575679 
L 373.222413 313.872823 
L 373.778228 324.932535 
L 374.056136 301.137397 
L 374.334044 313.53768 
L 374.611952 303.483397 
L 374.88986 299.461683 
L 375.167767 301.807683 
L 375.445675 307.840253 
L 375.723583 310.521395 
L 376.001491 301.47254 
L 376.279399 298.456255 
L 376.557307 301.807683 
L 376.835214 299.796826 
L 377.113122 300.131969 
L 377.39103 284.380258 
L 377.668938 282.034259 
L 377.946846 283.37483 
L 378.502661 289.742543 
L 378.780569 293.764256 
L 379.058477 273.655689 
L 379.336385 277.677402 
L 379.614293 279.017973 
L 379.892201 282.034259 
L 380.170108 279.688259 
L 380.448016 260.58512 
L 380.725924 276.336831 
L 381.003832 254.887693 
L 381.28174 271.644832 
L 381.559648 263.936548 
L 381.837555 244.163124 
L 382.115463 248.51998 
L 382.393371 281.699116 
L 382.671279 243.827981 
L 382.949187 246.509123 
L 383.227095 237.460268 
L 383.505002 239.806268 
L 383.78291 244.833409 
L 384.060818 236.119697 
L 384.338726 239.471125 
L 384.616634 223.384271 
L 384.894542 249.190266 
L 385.172449 226.400556 
L 385.450357 226.065413 
L 385.728265 219.6977 
L 386.006173 229.416841 
L 386.284081 210.313702 
L 386.561989 221.708557 
L 386.839896 197.578277 
L 387.117804 217.686844 
L 387.395712 200.594562 
L 387.67362 207.63256 
L 388.229436 183.837422 
L 388.507343 197.578277 
L 388.785251 180.821137 
L 389.063159 190.875421 
L 389.341067 191.880849 
L 389.618975 193.891706 
L 389.896883 179.815709 
L 390.17479 180.821137 
L 390.452698 185.177994 
L 390.730606 162.723427 
L 391.008514 177.469709 
L 391.286422 178.810281 
L 391.56433 161.047713 
L 391.842237 165.069426 
L 392.120145 151.663715 
L 392.398053 151.998858 
L 392.675961 150.658287 
L 393.231777 156.020571 
L 393.509684 155.350286 
L 393.787592 162.723427 
L 394.0655 132.895719 
L 394.343408 137.252575 
L 394.621316 107.089724 
L 395.177131 136.58229 
L 395.455039 117.479151 
L 395.732947 124.182007 
L 396.010855 138.928289 
L 396.288763 130.549719 
L 396.566671 107.424867 
L 396.844578 114.798009 
L 397.122486 125.85772 
L 397.400394 124.852292 
L 397.678302 110.776295 
L 397.95621 121.836007 
L 398.234118 93.684013 
L 398.789933 132.225433 
L 399.623657 85.640586 
L 399.901565 80.948587 
L 400.179472 88.321728 
L 400.45738 106.419439 
L 400.735288 63.18602 
L 401.013196 94.354299 
L 401.291104 72.570018 
L 401.569012 86.646015 
L 401.846919 80.948587 
L 402.124827 83.294587 
L 402.402735 83.629729 
L 402.680643 92.008299 
L 402.958551 56.483164 
L 403.236459 79.943159 
L 403.514366 62.850877 
L 403.792274 79.943159 
L 404.070182 80.278302 
L 404.34809 72.570018 
L 404.625998 56.483164 
L 404.903906 56.818307 
L 405.181813 79.608016 
L 405.459721 49.445165 
L 405.737629 51.120879 
L 406.015537 50.450594 
L 406.293445 73.910589 
L 406.571352 52.126308 
L 406.84926 57.153449 
L 407.127168 48.77488 
L 407.405076 70.224018 
L 407.682984 63.521162 
L 407.960892 65.532019 
L 408.238799 51.120879 
L 408.516707 45.088309 
L 408.794615 68.883447 
L 409.072523 51.791165 
L 409.350431 62.850877 
L 409.628339 102.732868 
L 409.906246 68.883447 
L 410.184154 53.466879 
L 410.462062 72.570018 
L 410.73997 77.932302 
L 411.017878 87.3163 
L 411.295786 61.510306 
L 411.573693 53.131736 
L 411.851601 81.954016 
L 412.129509 70.224018 
L 412.407417 77.932302 
L 412.685325 93.013727 
L 412.963233 73.910589 
L 413.24114 78.93773 
L 413.519048 104.073439 
L 413.796956 93.34887 
L 414.074864 100.722012 
L 414.352772 90.667728 
L 414.63068 102.397725 
L 414.908587 104.408582 
L 415.186495 88.992014 
L 415.464403 89.6623 
L 415.742311 102.397725 
L 416.020219 89.327157 
L 416.298127 98.376012 
L 416.576034 88.321728 
L 416.853942 96.365155 
L 417.13185 96.030013 
L 417.409758 116.13858 
L 417.687666 125.85772 
L 417.965574 117.479151 
L 418.243481 92.008299 
L 418.521389 100.051726 
L 418.799297 141.274289 
L 419.077205 111.781723 
L 419.355113 144.290574 
L 419.633021 139.933717 
L 419.910928 149.652858 
L 420.188836 126.192863 
L 420.466744 143.285145 
L 420.744652 133.230862 
L 421.02256 146.971716 
L 421.300468 136.917432 
L 421.856283 153.339429 
L 422.134191 180.485995 
L 422.412099 157.361142 
L 422.690007 158.366571 
L 422.967915 158.701713 
L 423.245822 162.388284 
L 423.52373 175.12371 
L 423.801638 167.080283 
L 424.079546 167.415426 
L 424.357454 157.696285 
L 424.635362 183.50228 
L 424.913269 176.129138 
L 425.191177 190.540278 
L 425.469085 183.50228 
L 425.746993 197.243134 
L 426.024901 196.237705 
L 426.302809 192.215992 
L 426.580716 197.913419 
L 427.136532 218.021986 
L 427.41444 218.021986 
L 427.970256 203.945989 
L 428.248163 219.362558 
L 428.526071 205.621703 
L 428.803979 218.357129 
L 429.081887 223.049128 
L 429.359795 230.087127 
L 429.637703 221.708557 
L 429.91561 219.027415 
L 430.193518 224.724842 
L 430.471426 227.070842 
L 430.749334 215.675987 
L 431.30515 249.190266 
L 431.583057 239.806268 
L 431.860965 248.184837 
L 432.138873 266.282548 
L 432.416781 271.644832 
L 432.694689 271.309689 
L 432.972597 259.914835 
L 433.250504 257.233692 
L 433.528412 266.952833 
L 433.80632 257.568835 
L 434.084228 275.331403 
L 434.362136 256.563407 
L 434.917951 274.325974 
L 435.195859 274.661117 
L 435.751675 272.985403 
L 436.029583 274.325974 
L 436.585398 284.715401 
L 436.863306 286.391115 
L 437.141214 302.813111 
L 437.419122 289.4074 
L 437.69703 284.045115 
L 437.974937 293.764256 
L 438.252845 286.726258 
L 438.530753 301.807683 
L 438.808661 295.775113 
L 439.086569 307.169967 
L 439.364477 307.169967 
L 439.642384 304.488825 
L 440.1982 312.197109 
L 440.476108 311.191681 
L 440.754016 311.526824 
L 441.031924 320.240536 
L 441.309831 306.164539 
L 441.587739 329.624534 
L 441.865647 331.300248 
L 442.143555 320.910822 
L 442.421463 329.289391 
L 442.699371 314.878252 
L 442.977278 322.251393 
L 443.255186 324.26225 
L 443.533094 316.889108 
L 443.811002 336.997675 
L 444.08891 341.354532 
L 444.366818 332.305676 
L 444.644725 332.640819 
L 444.922633 346.381673 
L 445.478449 343.030245 
L 445.756357 349.062816 
L 446.034265 346.046531 
L 446.312172 352.414243 
L 446.59008 342.35996 
L 446.867988 349.733101 
L 447.145896 342.695103 
L 447.423804 359.117099 
L 447.701712 354.4251 
L 447.979619 363.138813 
L 448.257527 359.117099 
L 448.535435 366.155098 
L 448.813343 354.4251 
L 449.091251 353.419672 
L 449.369159 366.825383 
L 449.647066 357.441385 
L 449.924974 361.463099 
L 450.202882 361.798241 
L 450.48079 367.160526 
L 450.758698 375.874238 
L 451.036606 359.787385 
L 451.314513 368.83624 
L 451.592421 362.133384 
L 451.870329 366.155098 
L 452.148237 363.809098 
L 452.426145 382.577094 
L 452.704053 364.479384 
L 452.98196 382.241951 
L 453.259868 374.198525 
L 453.537776 393.636806 
L 453.815684 380.566237 
L 454.093592 375.874238 
L 454.3715 375.874238 
L 454.649407 384.252808 
L 454.927315 383.917665 
L 455.205223 388.944807 
L 455.483131 378.555381 
L 455.761039 385.593379 
L 456.038947 386.598808 
L 456.594762 380.231095 
L 456.87267 389.615093 
L 457.428486 383.582523 
L 457.984301 392.966521 
L 458.262209 393.636806 
L 458.540117 400.674805 
L 458.818025 399.669376 
L 459.373841 394.642234 
L 459.651748 401.009947 
L 460.207564 385.593379 
L 460.485472 386.93395 
L 460.76338 395.647663 
L 461.041288 393.971949 
L 461.319195 403.69109 
L 461.597103 401.34509 
L 461.875011 393.971949 
L 462.152919 395.31252 
L 462.430827 403.355947 
L 462.708735 402.015376 
L 462.986642 399.334233 
L 463.26455 398.999091 
L 463.542458 400.004519 
L 463.820366 399.334233 
L 464.098274 409.053374 
L 464.376182 400.339662 
L 464.654089 397.993662 
L 464.931997 414.415659 
L 465.209905 410.058803 
L 465.487813 411.734517 
L 465.765721 409.388517 
L 466.043629 405.366804 
L 466.321536 416.426516 
L 466.599444 415.421087 
L 466.877352 409.72366 
L 467.15526 409.053374 
L 467.433168 421.118515 
L 467.711075 416.761658 
L 467.988983 425.810514 
L 468.266891 418.772515 
L 468.822707 414.415659 
L 469.100615 417.431944 
L 469.378522 417.431944 
L 469.65643 421.7888 
L 469.934338 414.080516 
L 470.212246 420.113086 
L 470.490154 414.750802 
L 471.045969 426.145656 
L 471.323877 423.129371 
L 471.601785 426.145656 
L 471.879693 427.151085 
L 472.157601 419.442801 
L 472.435509 424.805085 
L 472.713416 426.145656 
L 472.991324 428.491656 
L 473.269232 422.123943 
L 473.54714 421.7888 
L 473.825048 419.777943 
L 474.102956 413.41023 
L 474.380863 426.480799 
L 474.936679 425.140228 
L 475.214587 428.156513 
L 475.492495 424.469942 
L 475.770403 432.848512 
L 476.04831 431.507941 
L 476.326218 426.480799 
L 476.604126 425.140228 
L 477.159942 430.502513 
L 477.43785 428.826799 
L 477.715757 431.507941 
L 477.993665 435.864797 
L 478.271573 424.1348 
L 478.549481 436.870225 
L 478.827389 437.205368 
L 479.105297 425.140228 
L 479.383204 434.189083 
L 479.661112 438.545939 
L 480.216928 431.843084 
L 480.494836 432.848512 
L 480.772744 430.837655 
L 481.050651 439.551368 
L 481.328559 437.205368 
L 481.606467 430.837655 
L 481.884375 449.940794 
L 482.162283 432.848512 
L 482.440191 438.881082 
L 482.718098 430.502513 
L 483.82973 448.600223 
L 484.107638 435.194512 
L 484.385545 441.562224 
L 484.663453 431.843084 
L 485.219269 444.57851 
L 485.497177 433.183655 
L 486.052992 441.897367 
L 486.608808 438.881082 
L 486.886716 445.583938 
L 487.164624 441.897367 
L 487.442532 441.227082 
L 487.720439 443.908224 
L 487.998347 443.908224 
L 488.276255 444.243367 
L 488.554163 441.227082 
L 488.832071 444.913652 
L 489.109979 452.621936 
L 489.387886 441.227082 
L 489.665794 449.270509 
L 489.943702 438.545939 
L 490.22161 446.924509 
L 490.499518 441.897367 
L 490.777426 449.270509 
L 491.055333 443.908224 
L 491.333241 449.940794 
L 491.611149 450.275937 
L 491.889057 445.583938 
L 492.166965 451.616508 
L 492.444873 447.594795 
L 492.72278 449.270509 
L 493.000688 444.913652 
L 493.278596 449.605651 
L 493.556504 445.919081 
L 493.834412 448.600223 
L 494.11232 457.984221 
L 494.390227 450.61108 
L 494.668135 449.940794 
L 494.946043 445.248795 
L 495.501859 451.616508 
L 495.779767 453.627365 
L 496.057674 453.627365 
L 496.335582 449.270509 
L 496.61349 447.259652 
L 497.447214 453.962508 
L 497.725121 446.924509 
L 498.003029 448.935366 
L 498.280937 456.978793 
L 498.558845 450.61108 
L 498.836753 455.303079 
L 499.392568 450.275937 
L 499.670476 453.962508 
L 499.948384 451.281365 
L 500.226292 461.335649 
L 500.5042 458.319364 
L 500.782107 451.951651 
L 501.060015 453.627365 
L 501.337923 453.627365 
L 501.615831 456.64365 
L 501.893739 454.29765 
L 502.171647 456.308507 
L 502.449554 453.627365 
L 502.727462 464.351934 
L 503.00537 452.957079 
L 503.283278 468.038505 
L 503.561186 454.29765 
L 503.839094 458.654507 
L 504.117001 457.313935 
L 504.394909 456.64365 
L 504.672817 457.984221 
L 504.950725 451.951651 
L 505.228633 454.29765 
L 505.506541 458.319364 
L 505.784448 454.632793 
L 506.062356 457.649078 
L 506.340264 457.649078 
L 506.618172 461.000506 
L 506.89608 461.335649 
L 507.173988 464.016791 
L 507.451895 469.714218 
L 507.729803 456.978793 
L 508.007711 459.995078 
L 508.285619 465.022219 
L 508.563527 462.341077 
L 508.841435 461.335649 
L 509.119342 463.346506 
L 509.39725 456.64365 
L 509.675158 462.67622 
L 509.953066 458.654507 
L 510.508882 463.681648 
L 510.786789 463.681648 
L 511.064697 458.319364 
L 511.342605 462.005934 
L 511.620513 462.005934 
L 511.898421 463.011363 
L 512.176329 459.995078 
L 512.454236 460.665363 
L 512.732144 456.308507 
L 513.010052 457.313935 
L 513.28796 459.995078 
L 513.565868 458.654507 
L 513.843776 463.346506 
L 514.121683 466.027648 
L 514.399591 461.670792 
L 514.677499 465.022219 
L 514.955407 464.016791 
L 515.233315 464.351934 
L 515.511223 460.33022 
L 515.78913 457.984221 
L 516.067038 465.692505 
L 516.344946 466.697933 
L 516.622854 462.341077 
L 516.900762 461.670792 
L 517.17867 466.697933 
L 517.456577 463.681648 
L 517.734485 462.005934 
L 518.012393 456.978793 
L 518.290301 463.346506 
L 518.568209 462.341077 
L 519.401932 466.697933 
L 519.67984 455.303079 
L 519.957748 466.697933 
L 520.235656 465.692505 
L 520.513564 461.000506 
L 520.791471 467.033076 
L 521.069379 460.665363 
L 521.347287 461.335649 
L 521.625195 464.687077 
L 521.903103 471.05479 
L 522.181011 467.033076 
L 522.458918 465.357362 
L 522.736826 467.033076 
L 523.014734 463.011363 
L 523.292642 465.357362 
L 523.57055 465.357362 
L 524.126365 467.368219 
L 524.404273 465.022219 
L 524.682181 465.357362 
L 524.960089 467.033076 
L 525.237997 471.389932 
L 525.515905 461.000506 
L 525.793812 470.049361 
L 526.07172 467.033076 
L 526.349628 467.368219 
L 526.627536 470.384504 
L 526.905444 466.697933 
L 527.183352 465.022219 
L 527.461259 469.379076 
L 527.739167 465.692505 
L 528.294983 466.362791 
L 528.572891 470.719647 
L 528.850799 467.033076 
L 529.128706 468.038505 
L 529.406614 468.038505 
L 529.684522 467.368219 
L 530.518245 470.049361 
L 530.796153 468.70879 
L 531.074061 464.687077 
L 531.351969 469.379076 
L 531.629877 472.060218 
L 531.907785 471.05479 
L 532.185692 466.697933 
L 532.4636 465.692505 
L 532.741508 469.379076 
L 533.019416 466.362791 
L 533.297324 469.379076 
L 533.575232 469.043933 
L 533.853139 469.379076 
L 534.131047 472.395361 
L 534.408955 466.362791 
L 534.686863 476.081931 
L 534.964771 467.368219 
L 535.242679 468.70879 
L 535.520586 465.022219 
L 535.798494 471.389932 
L 536.076402 469.043933 
L 536.35431 474.406217 
L 536.632218 467.703362 
L 536.910126 472.395361 
L 537.188033 473.735932 
L 537.743849 468.373647 
L 538.021757 468.70879 
L 538.299665 470.384504 
L 538.577573 463.346506 
L 539.133388 471.725075 
L 539.411296 472.060218 
L 539.689204 474.071075 
L 539.967112 474.406217 
L 540.24502 466.027648 
L 540.522927 468.038505 
L 540.800835 472.730504 
L 541.078743 471.725075 
L 541.356651 471.389932 
L 541.634559 474.74136 
L 541.912467 467.703362 
L 542.190374 471.05479 
L 542.468282 471.05479 
L 542.74619 473.735932 
L 543.024098 472.730504 
L 543.302006 470.384504 
L 543.579914 473.065646 
L 543.857821 473.065646 
L 544.135729 469.043933 
L 544.691545 473.400789 
L 544.969453 471.05479 
L 545.247361 476.081931 
L 545.803176 473.735932 
L 546.081084 472.730504 
L 546.358992 474.071075 
L 546.6369 473.735932 
L 546.914808 474.406217 
L 547.192715 473.065646 
L 547.470623 476.081931 
L 547.748531 472.395361 
L 548.026439 474.406217 
L 548.304347 471.05479 
L 548.582255 475.411646 
L 549.13807 470.719647 
L 549.415978 473.065646 
L 549.693886 474.071075 
L 549.971794 469.043933 
L 550.249702 476.081931 
L 550.805517 472.730504 
L 551.083425 468.70879 
L 551.361333 472.730504 
L 551.639241 472.395361 
L 551.917149 472.395361 
L 552.195056 474.406217 
L 552.472964 473.065646 
L 552.750872 475.076503 
L 553.02878 473.065646 
L 553.306688 476.081931 
L 553.584596 474.406217 
L 553.862503 469.714218 
L 554.140411 473.065646 
L 554.418319 472.060218 
L 554.696227 472.060218 
L 554.974135 474.071075 
L 555.252043 474.74136 
L 555.52995 476.752217 
L 555.807858 471.725075 
L 556.085766 469.379076 
L 556.363674 476.752217 
L 556.641582 474.406217 
L 556.91949 476.417074 
L 557.197397 477.08736 
L 557.475305 474.071075 
L 557.753213 475.746789 
L 558.031121 479.098216 
L 558.309029 475.746789 
L 558.586937 476.752217 
L 558.864844 473.065646 
L 559.142752 473.400789 
L 559.42066 472.730504 
L 559.698568 476.417074 
L 559.976476 475.746789 
L 560.254384 472.395361 
L 560.810199 480.77393 
L 561.088107 475.411646 
L 561.366015 472.730504 
L 561.643923 478.763074 
L 561.92183 476.752217 
L 562.199738 475.746789 
L 562.477646 472.395361 
L 562.755554 474.406217 
L 563.033462 478.763074 
L 563.31137 478.092788 
L 563.589277 479.768502 
L 563.867185 477.08736 
L 564.145093 479.098216 
L 564.423001 475.746789 
L 564.700909 478.427931 
L 564.978817 475.411646 
L 565.256724 477.757645 
L 565.534632 475.076503 
L 565.81254 479.768502 
L 566.090448 476.081931 
L 566.368356 477.08736 
L 566.924171 474.071075 
L 567.202079 476.752217 
L 567.479987 477.08736 
L 568.035803 479.768502 
L 568.591618 474.406217 
L 568.869526 477.757645 
L 569.147434 476.417074 
L 569.425342 478.763074 
L 569.70325 476.081931 
L 569.981158 477.422503 
L 570.259065 476.417074 
L 570.536973 478.427931 
L 570.814881 478.763074 
L 571.092789 476.752217 
L 571.370697 479.098216 
L 571.648605 472.730504 
L 571.926512 478.763074 
L 572.20442 479.098216 
L 572.482328 475.411646 
L 572.760236 475.746789 
L 573.038144 480.103645 
L 573.316052 474.071075 
L 573.593959 477.757645 
L 573.871867 478.763074 
L 574.427683 472.395361 
L 574.705591 478.763074 
L 574.983499 475.411646 
L 575.261406 480.103645 
L 575.539314 479.433359 
L 575.817222 472.730504 
L 576.09513 477.422503 
L 576.373038 477.757645 
L 576.650946 479.433359 
L 576.928853 475.746789 
L 577.206761 477.757645 
L 577.484669 476.752217 
L 577.762577 477.08736 
L 578.040485 473.735932 
L 578.318393 483.790215 
L 578.5963 479.098216 
L 578.874208 478.427931 
L 579.152116 481.109073 
L 579.430024 479.098216 
L 579.707932 478.092788 
L 579.98584 481.444216 
L 580.263747 482.114502 
L 580.541655 477.422503 
L 580.819563 479.433359 
L 581.097471 479.433359 
L 581.375379 476.417074 
L 581.931194 482.449644 
L 582.209102 479.098216 
L 582.48701 480.438788 
L 582.764918 478.092788 
L 583.042826 479.098216 
L 583.320734 478.763074 
L 583.598641 480.438788 
L 583.876549 478.092788 
L 584.154457 477.422503 
L 584.432365 478.427931 
L 584.710273 475.746789 
L 584.988181 479.098216 
L 585.266088 480.103645 
L 585.543996 480.438788 
L 585.821904 480.438788 
L 586.099812 479.768502 
L 586.37772 477.422503 
L 586.655628 478.427931 
L 586.933535 481.109073 
L 587.211443 480.77393 
L 587.489351 481.109073 
L 587.767259 477.757645 
L 588.045167 480.77393 
L 588.323075 477.422503 
L 588.600982 480.103645 
L 588.87889 478.092788 
L 589.156798 481.779359 
L 589.434706 478.763074 
L 589.712614 477.422503 
L 589.990522 482.114502 
L 590.268429 477.08736 
L 590.546337 481.109073 
L 590.824245 477.08736 
L 591.102153 482.114502 
L 591.380061 483.790215 
L 591.657969 481.779359 
L 591.935876 477.08736 
L 592.213784 479.768502 
L 592.491692 480.103645 
L 592.7696 478.427931 
L 593.325415 483.11993 
L 593.603323 480.438788 
L 593.881231 479.768502 
L 594.159139 477.422503 
L 594.437047 477.422503 
L 594.992862 478.092788 
L 595.27077 480.438788 
L 595.548678 480.103645 
L 595.826586 482.114502 
L 596.104494 477.757645 
L 596.382402 481.779359 
L 596.660309 479.768502 
L 596.938217 481.444216 
L 597.216125 482.114502 
L 597.494033 477.757645 
L 597.771941 480.103645 
L 598.049849 478.427931 
L 598.327756 482.784787 
L 598.605664 481.444216 
L 598.883572 478.763074 
L 599.16148 481.444216 
L 599.439388 481.444216 
L 599.717296 479.768502 
L 599.995203 480.438788 
L 600.273111 479.433359 
L 600.551019 479.433359 
L 600.828927 478.763074 
L 601.106835 482.784787 
L 601.384743 477.08736 
L 601.66265 480.438788 
L 601.940558 481.779359 
L 602.218466 484.125358 
L 602.496374 481.779359 
L 602.774282 482.114502 
L 603.05219 477.422503 
L 603.330097 481.109073 
L 603.608005 482.449644 
L 603.885913 481.109073 
L 604.163821 481.779359 
L 604.441729 482.114502 
L 604.997544 479.768502 
L 605.275452 482.114502 
L 605.55336 477.757645 
L 605.831268 482.449644 
L 606.109176 482.449644 
L 606.387084 478.092788 
L 606.664991 482.114502 
L 606.942899 480.103645 
L 607.220807 479.768502 
L 607.498715 481.444216 
L 607.776623 484.460501 
L 608.332438 479.433359 
L 608.610346 479.433359 
L 608.888254 479.098216 
L 609.166162 485.801072 
L 609.44407 478.763074 
L 609.999885 482.114502 
L 610.277793 479.433359 
L 610.555701 482.449644 
L 611.111517 480.103645 
L 611.389425 480.77393 
L 611.667332 482.114502 
L 611.94524 481.779359 
L 612.223148 480.77393 
L 612.501056 480.438788 
L 612.778964 480.77393 
L 613.056872 482.114502 
L 613.334779 484.125358 
L 613.612687 479.768502 
L 613.890595 482.114502 
L 614.168503 482.784787 
L 614.446411 482.784787 
L 614.724319 479.098216 
L 615.280134 484.795644 
L 615.558042 477.757645 
L 615.83595 481.444216 
L 616.113858 482.114502 
L 616.391766 483.455073 
L 616.669673 479.768502 
L 616.947581 478.763074 
L 617.225489 482.114502 
L 617.503397 483.11993 
L 617.781305 480.77393 
L 618.059213 481.779359 
L 618.33712 483.790215 
L 618.615028 482.114502 
L 618.892936 481.444216 
L 619.170844 479.098216 
L 619.448752 481.444216 
L 619.72666 482.784787 
L 620.004567 482.784787 
L 620.282475 484.795644 
L 620.560383 482.784787 
L 620.838291 482.114502 
L 621.116199 483.790215 
L 621.394107 480.77393 
L 621.672014 483.455073 
L 621.949922 483.790215 
L 622.22783 483.455073 
L 622.505738 483.455073 
L 622.783646 482.114502 
L 623.061553 481.779359 
L 623.339461 480.438788 
L 623.617369 482.784787 
L 623.895277 482.784787 
L 624.173185 484.795644 
L 624.451093 481.444216 
L 624.729 483.790215 
L 625.006908 481.109073 
L 625.284816 480.438788 
L 625.840632 484.460501 
L 626.11854 482.114502 
L 626.674355 480.438788 
L 626.952263 484.460501 
L 627.230171 484.460501 
L 627.785987 480.103645 
L 628.341802 483.790215 
L 628.61971 483.790215 
L 628.897618 479.768502 
L 629.175526 480.103645 
L 629.731341 485.801072 
L 630.009249 484.795644 
L 630.287157 484.795644 
L 630.565065 484.125358 
L 630.842973 485.130787 
L 631.676696 482.449644 
L 631.954604 483.790215 
L 632.232512 481.109073 
L 632.51042 482.114502 
L 632.788328 483.790215 
L 633.066235 483.11993 
L 633.344143 481.779359 
L 633.622051 484.795644 
L 633.899959 481.779359 
L 634.177867 481.779359 
L 634.733682 484.795644 
L 635.01159 482.114502 
L 635.567406 482.784787 
L 635.845314 484.125358 
L 636.123222 483.790215 
L 636.401129 482.114502 
L 636.679037 484.460501 
L 636.956945 480.77393 
L 637.234853 481.779359 
L 637.512761 485.130787 
L 637.790669 484.460501 
L 638.068576 483.11993 
L 638.346484 482.784787 
L 638.624392 479.433359 
L 638.9023 483.11993 
L 639.458116 483.790215 
L 639.736023 484.795644 
L 640.013931 480.77393 
L 640.291839 484.460501 
L 640.569747 483.790215 
L 640.847655 483.790215 
L 641.125563 483.11993 
L 641.40347 484.125358 
L 641.681378 483.790215 
L 641.959286 482.784787 
L 642.237194 482.784787 
L 642.515102 480.77393 
L 642.79301 483.11993 
L 643.070917 482.114502 
L 643.348825 484.125358 
L 643.626733 481.444216 
L 643.904641 482.784787 
L 644.182549 484.795644 
L 644.460457 485.130787 
L 644.738364 484.795644 
L 645.016272 483.455073 
L 645.29418 484.460501 
L 645.572088 483.790215 
L 645.849996 482.449644 
L 646.405811 484.125358 
L 646.683719 484.125358 
L 646.961627 481.779359 
L 647.239535 483.11993 
L 647.517443 483.790215 
L 647.795351 483.790215 
L 648.073258 482.449644 
L 648.351166 482.784787 
L 648.629074 485.801072 
L 648.906982 483.790215 
L 649.18489 482.784787 
L 649.462798 484.460501 
L 649.740705 482.114502 
L 650.018613 480.77393 
L 650.296521 483.790215 
L 650.574429 484.460501 
L 650.852337 481.444216 
L 651.130245 481.779359 
L 651.68606 485.130787 
L 651.963968 483.11993 
L 652.519784 487.141643 
L 652.797692 484.460501 
L 653.075599 483.790215 
L 653.631415 482.114502 
L 653.909323 485.130787 
L 654.187231 484.460501 
L 654.465138 483.455073 
L 654.743046 485.130787 
L 655.020954 485.130787 
L 655.298862 484.460501 
L 655.57677 484.125358 
L 655.854678 484.795644 
L 656.132585 483.790215 
L 656.410493 484.125358 
L 656.688401 483.11993 
L 656.966309 484.795644 
L 657.244217 483.11993 
L 657.522125 482.784787 
L 657.800032 485.801072 
L 658.355848 481.109073 
L 658.633756 481.444216 
L 658.911664 483.790215 
L 659.189572 484.460501 
L 659.745387 483.11993 
L 660.023295 485.465929 
L 660.301203 483.11993 
L 660.579111 485.130787 
L 660.857019 484.460501 
L 661.134926 484.795644 
L 661.412834 482.784787 
L 661.96865 485.465929 
L 662.524466 486.136215 
L 663.080281 484.125358 
L 663.358189 483.790215 
L 663.636097 484.125358 
L 663.914005 484.795644 
L 664.191913 485.801072 
L 664.46982 484.125358 
L 664.747728 483.790215 
L 665.025636 483.11993 
L 665.303544 486.471358 
L 665.581452 486.471358 
L 666.137267 483.790215 
L 666.415175 485.465929 
L 666.693083 486.136215 
L 666.970991 484.795644 
L 667.248899 485.801072 
L 667.526807 484.795644 
L 667.804714 484.795644 
L 668.082622 484.125358 
L 668.36053 484.125358 
L 668.638438 483.11993 
L 668.916346 485.465929 
L 669.194254 484.460501 
L 669.472161 482.784787 
L 669.750069 483.455073 
L 670.027977 485.801072 
L 670.305885 484.795644 
L 670.583793 485.801072 
L 670.861701 484.125358 
L 671.139608 484.125358 
L 671.417516 486.471358 
L 671.695424 482.449644 
L 672.25124 483.11993 
L 672.529148 483.790215 
L 672.807055 485.130787 
L 673.084963 485.465929 
L 673.362871 484.795644 
L 673.640779 485.465929 
L 673.918687 485.130787 
L 674.196595 481.109073 
L 674.75241 484.460501 
L 675.030318 485.130787 
L 675.308226 484.125358 
L 675.586134 484.125358 
L 675.864042 481.779359 
L 676.419857 485.465929 
L 676.697765 484.795644 
L 676.975673 484.795644 
L 677.253581 485.465929 
L 677.531489 486.471358 
L 677.809396 483.790215 
L 678.087304 482.784787 
L 678.365212 485.465929 
L 678.64312 484.125358 
L 678.921028 486.136215 
L 679.198936 484.795644 
L 679.754751 484.795644 
L 680.032659 485.130787 
L 680.310567 484.460501 
L 680.588475 485.465929 
L 680.866383 484.795644 
L 681.14429 484.460501 
L 681.422198 485.130787 
L 681.700106 484.460501 
L 681.978014 482.784787 
L 682.255922 484.125358 
L 682.53383 484.125358 
L 682.811737 483.11993 
L 683.089645 486.471358 
L 683.367553 484.460501 
L 683.645461 484.795644 
L 683.923369 484.125358 
L 684.201277 485.465929 
L 684.479184 484.125358 
L 684.757092 483.790215 
L 685.035 486.136215 
L 685.035 486.136215 
" clip-path="url(#pe76a56ae0c)" style="fill: none; stroke: #0000ff; stroke-width: 1.5; stroke-linecap: square"/>
   </g>
   <g id="patch_3">
    <path d="M 129.775152 489.1525 
L 129.775152 36.72 
" style="fill: none; stroke: #000000; stroke-width: 0.8; stroke-linejoin: miter; stroke-linecap: square"/>
   </g>
   <g id="patch_4">
    <path d="M 685.035 489.1525 
L 685.035 36.72 
" style="fill: none; stroke: #000000; stroke-width: 0.8; stroke-linejoin: miter; stroke-linecap: square"/>
   </g>
   <g id="patch_5">
    <path d="M 129.775152 489.1525 
L 685.035 489.1525 
" style="fill: none; stroke: #000000; stroke-width: 0.8; stroke-linejoin: miter; stroke-linecap: square"/>
   </g>
   <g id="patch_6">
    <path d="M 129.775152 36.72 
L 685.035 36.72 
" style="fill: none; stroke: #000000; stroke-width: 0.8; stroke-linejoin: miter; stroke-linecap: square"/>
   </g>
   <g id="legend_1">
    <g id="patch_7">
     <path d="M 492.425 100.294688 
L 676.535 100.294688 
L 676.535 45.22 
L 492.425 45.22 
z
" style="fill: #ffffff; opacity: 0.8; stroke: #000000; stroke-linejoin: miter"/>
    </g>
    <g id="line2d_31">
     <path d="M 499.225 58.987344 
L 516.225 58.987344 
L 533.225 58.987344 
" style="fill: none; stroke-dasharray: 14.8,6.4; stroke-dashoffset: 0; stroke: #ff0000; stroke-width: 4"/>
    </g>
    <g id="text_17">
     <!-- $\rho_0$ -->
     <g transform="translate(546.825 64.937344) scale(0.17 -0.17)">
      <use xlink:href="#DejaVuSans-Oblique-3c1"/>
      <use xlink:href="#DejaVuSans-30" transform="translate(63.476562 -16.40625) scale(0.7)"/>
     </g>
    </g>
    <g id="line2d_32">
     <path d="M 499.225 83.974688 
L 516.225 83.974688 
L 533.225 83.974688 
" style="fill: none; stroke: #0000ff; stroke-width: 1.5; stroke-linecap: square"/>
    </g>
    <g id="text_18">
     <!-- $\rho_0,\it{U=0,n=2}$ -->
     <g transform="translate(546.825 89.924688) scale(0.17 -0.17)">
      <defs>
       <path id="DejaVuSans-2c" d="M 750 794 
L 1409 794 
L 1409 256 
L 897 -744 
L 494 -744 
L 750 256 
L 750 794 
z
" transform="scale(0.015625)"/>
       <path id="DejaVuSans-Oblique-55" d="M 991 4666 
L 1625 4666 
L 1075 1831 
Q 1041 1641 1027 1517 
Q 1013 1394 1013 1300 
Q 1013 869 1253 645 
Q 1494 422 1959 422 
Q 2563 422 2898 753 
Q 3234 1084 3378 1831 
L 3928 4666 
L 4563 4666 
L 4000 1753 
Q 3816 809 3300 359 
Q 2784 -91 1888 -91 
Q 1188 -91 780 261 
Q 372 613 372 1216 
Q 372 1325 387 1461 
Q 403 1597 434 1753 
L 991 4666 
z
" transform="scale(0.015625)"/>
       <path id="DejaVuSans-3d" d="M 678 2906 
L 4684 2906 
L 4684 2381 
L 678 2381 
L 678 2906 
z
M 678 1631 
L 4684 1631 
L 4684 1100 
L 678 1100 
L 678 1631 
z
" transform="scale(0.015625)"/>
       <path id="DejaVuSans-Oblique-6e" d="M 3566 2113 
L 3156 0 
L 2578 0 
L 2988 2091 
Q 3016 2238 3031 2350 
Q 3047 2463 3047 2528 
Q 3047 2791 2881 2937 
Q 2716 3084 2419 3084 
Q 1956 3084 1622 2776 
Q 1288 2469 1184 1941 
L 800 0 
L 225 0 
L 903 3500 
L 1478 3500 
L 1363 2950 
Q 1603 3253 1940 3418 
Q 2278 3584 2650 3584 
Q 3113 3584 3367 3334 
Q 3622 3084 3622 2631 
Q 3622 2519 3608 2391 
Q 3594 2263 3566 2113 
z
" transform="scale(0.015625)"/>
      </defs>
      <use xlink:href="#DejaVuSans-Oblique-3c1" transform="translate(0 0.78125)"/>
      <use xlink:href="#DejaVuSans-30" transform="translate(63.476562 -15.625) scale(0.7)"/>
      <use xlink:href="#DejaVuSans-2c" transform="translate(110.74707 0.78125)"/>
      <use xlink:href="#DejaVuSans-Oblique-55" transform="translate(162.016602 0.78125)"/>
      <use xlink:href="#DejaVuSans-3d" transform="translate(254.692383 0.78125)"/>
      <use xlink:href="#DejaVuSans-30" transform="translate(357.963867 0.78125)"/>
      <use xlink:href="#DejaVuSans-2c" transform="translate(421.586914 0.78125)"/>
      <use xlink:href="#DejaVuSans-Oblique-6e" transform="translate(472.856445 0.78125)"/>
      <use xlink:href="#DejaVuSans-3d" transform="translate(555.717773 0.78125)"/>
      <use xlink:href="#DejaVuSans-32" transform="translate(658.989258 0.78125)"/>
     </g>
    </g>
   </g>
  </g>
 </g>
 <defs>
  <clipPath id="pe76a56ae0c">
   <rect x="129.775152" y="36.72" width="555.259848" height="452.4325"/>
  </clipPath>
 </defs>
</svg>
