<?xml version="1.0" encoding="utf-8" standalone="no"?>
<!DOCTYPE svg PUBLIC "-//W3C//DTD SVG 1.1//EN"
  "http://www.w3.org/Graphics/SVG/1.1/DTD/svg11.dtd">
<svg xmlns:xlink="http://www.w3.org/1999/xlink" width="720pt" height="576pt" viewBox="0 0 720 576" xmlns="http://www.w3.org/2000/svg" version="1.1">
 <metadata>
  <rdf:RDF xmlns:dc="http://purl.org/dc/elements/1.1/" xmlns:cc="http://creativecommons.org/ns#" xmlns:rdf="http://www.w3.org/1999/02/22-rdf-syntax-ns#">
   <cc:Work>
    <dc:type rdf:resource="http://purl.org/dc/dcmitype/StillImage"/>
    <dc:date>2023-04-11T05:33:00.998072</dc:date>
    <dc:format>image/svg+xml</dc:format>
    <dc:creator>
     <cc:Agent>
      <dc:title>Matplotlib v3.7.1, https://matplotlib.org/</dc:title>
     </cc:Agent>
    </dc:creator>
   </cc:Work>
  </rdf:RDF>
 </metadata>
 <defs>
  <style type="text/css">*{stroke-linejoin: round; stroke-linecap: butt}</style>
 </defs>
 <g id="figure_1">
  <g id="patch_1">
   <path d="M 0 576 
L 720 576 
L 720 0 
L 0 0 
z
" style="fill: #ffffff"/>
  </g>
  <g id="axes_1">
   <g id="patch_2">
    <path d="M 129.775152 489.1525 
L 685.035 489.1525 
L 685.035 36.72 
L 129.775152 36.72 
z
" style="fill: #ffffff"/>
   </g>
   <g id="matplotlib.axis_1">
    <g id="xtick_1">
     <g id="line2d_1">
      <path d="M 129.775152 489.1525 
L 129.775152 36.72 
" clip-path="url(#pb63bc6466b)" style="fill: none; stroke: #b0b0b0; stroke-width: 0.8; stroke-linecap: square"/>
     </g>
     <g id="line2d_2">
      <defs>
       <path id="m1f7f303242" d="M 0 0 
L 0 3.5 
" style="stroke: #000000; stroke-width: 0.8"/>
      </defs>
      <g>
       <use xlink:href="#m1f7f303242" x="129.775152" y="489.1525" style="stroke: #000000; stroke-width: 0.8"/>
      </g>
     </g>
     <g id="text_1">
      <!-- −3 -->
      <g transform="translate(111.347418 515.148594) scale(0.25 -0.25)">
       <defs>
        <path id="DejaVuSans-2212" d="M 678 2272 
L 4684 2272 
L 4684 1741 
L 678 1741 
L 678 2272 
z
" transform="scale(0.015625)"/>
        <path id="DejaVuSans-33" d="M 2597 2516 
Q 3050 2419 3304 2112 
Q 3559 1806 3559 1356 
Q 3559 666 3084 287 
Q 2609 -91 1734 -91 
Q 1441 -91 1130 -33 
Q 819 25 488 141 
L 488 750 
Q 750 597 1062 519 
Q 1375 441 1716 441 
Q 2309 441 2620 675 
Q 2931 909 2931 1356 
Q 2931 1769 2642 2001 
Q 2353 2234 1838 2234 
L 1294 2234 
L 1294 2753 
L 1863 2753 
Q 2328 2753 2575 2939 
Q 2822 3125 2822 3475 
Q 2822 3834 2567 4026 
Q 2313 4219 1838 4219 
Q 1578 4219 1281 4162 
Q 984 4106 628 3988 
L 628 4550 
Q 988 4650 1302 4700 
Q 1616 4750 1894 4750 
Q 2613 4750 3031 4423 
Q 3450 4097 3450 3541 
Q 3450 3153 3228 2886 
Q 3006 2619 2597 2516 
z
" transform="scale(0.015625)"/>
       </defs>
       <use xlink:href="#DejaVuSans-2212"/>
       <use xlink:href="#DejaVuSans-33" x="83.789062"/>
      </g>
     </g>
    </g>
    <g id="xtick_2">
     <g id="line2d_3">
      <path d="M 222.31846 489.1525 
L 222.31846 36.72 
" clip-path="url(#pb63bc6466b)" style="fill: none; stroke: #b0b0b0; stroke-width: 0.8; stroke-linecap: square"/>
     </g>
     <g id="line2d_4">
      <g>
       <use xlink:href="#m1f7f303242" x="222.31846" y="489.1525" style="stroke: #000000; stroke-width: 0.8"/>
      </g>
     </g>
     <g id="text_2">
      <!-- −2 -->
      <g transform="translate(203.890726 515.148594) scale(0.25 -0.25)">
       <defs>
        <path id="DejaVuSans-32" d="M 1228 531 
L 3431 531 
L 3431 0 
L 469 0 
L 469 531 
Q 828 903 1448 1529 
Q 2069 2156 2228 2338 
Q 2531 2678 2651 2914 
Q 2772 3150 2772 3378 
Q 2772 3750 2511 3984 
Q 2250 4219 1831 4219 
Q 1534 4219 1204 4116 
Q 875 4013 500 3803 
L 500 4441 
Q 881 4594 1212 4672 
Q 1544 4750 1819 4750 
Q 2544 4750 2975 4387 
Q 3406 4025 3406 3419 
Q 3406 3131 3298 2873 
Q 3191 2616 2906 2266 
Q 2828 2175 2409 1742 
Q 1991 1309 1228 531 
z
" transform="scale(0.015625)"/>
       </defs>
       <use xlink:href="#DejaVuSans-2212"/>
       <use xlink:href="#DejaVuSans-32" x="83.789062"/>
      </g>
     </g>
    </g>
    <g id="xtick_3">
     <g id="line2d_5">
      <path d="M 314.861768 489.1525 
L 314.861768 36.72 
" clip-path="url(#pb63bc6466b)" style="fill: none; stroke: #b0b0b0; stroke-width: 0.8; stroke-linecap: square"/>
     </g>
     <g id="line2d_6">
      <g>
       <use xlink:href="#m1f7f303242" x="314.861768" y="489.1525" style="stroke: #000000; stroke-width: 0.8"/>
      </g>
     </g>
     <g id="text_3">
      <!-- −1 -->
      <g transform="translate(296.434034 515.148594) scale(0.25 -0.25)">
       <defs>
        <path id="DejaVuSans-31" d="M 794 531 
L 1825 531 
L 1825 4091 
L 703 3866 
L 703 4441 
L 1819 4666 
L 2450 4666 
L 2450 531 
L 3481 531 
L 3481 0 
L 794 0 
L 794 531 
z
" transform="scale(0.015625)"/>
       </defs>
       <use xlink:href="#DejaVuSans-2212"/>
       <use xlink:href="#DejaVuSans-31" x="83.789062"/>
      </g>
     </g>
    </g>
    <g id="xtick_4">
     <g id="line2d_7">
      <path d="M 407.405076 489.1525 
L 407.405076 36.72 
" clip-path="url(#pb63bc6466b)" style="fill: none; stroke: #b0b0b0; stroke-width: 0.8; stroke-linecap: square"/>
     </g>
     <g id="line2d_8">
      <g>
       <use xlink:href="#m1f7f303242" x="407.405076" y="489.1525" style="stroke: #000000; stroke-width: 0.8"/>
      </g>
     </g>
     <g id="text_4">
      <!-- 0 -->
      <g transform="translate(399.451951 515.148594) scale(0.25 -0.25)">
       <defs>
        <path id="DejaVuSans-30" d="M 2034 4250 
Q 1547 4250 1301 3770 
Q 1056 3291 1056 2328 
Q 1056 1369 1301 889 
Q 1547 409 2034 409 
Q 2525 409 2770 889 
Q 3016 1369 3016 2328 
Q 3016 3291 2770 3770 
Q 2525 4250 2034 4250 
z
M 2034 4750 
Q 2819 4750 3233 4129 
Q 3647 3509 3647 2328 
Q 3647 1150 3233 529 
Q 2819 -91 2034 -91 
Q 1250 -91 836 529 
Q 422 1150 422 2328 
Q 422 3509 836 4129 
Q 1250 4750 2034 4750 
z
" transform="scale(0.015625)"/>
       </defs>
       <use xlink:href="#DejaVuSans-30"/>
      </g>
     </g>
    </g>
    <g id="xtick_5">
     <g id="line2d_9">
      <path d="M 499.948384 489.1525 
L 499.948384 36.72 
" clip-path="url(#pb63bc6466b)" style="fill: none; stroke: #b0b0b0; stroke-width: 0.8; stroke-linecap: square"/>
     </g>
     <g id="line2d_10">
      <g>
       <use xlink:href="#m1f7f303242" x="499.948384" y="489.1525" style="stroke: #000000; stroke-width: 0.8"/>
      </g>
     </g>
     <g id="text_5">
      <!-- 1 -->
      <g transform="translate(491.995259 515.148594) scale(0.25 -0.25)">
       <use xlink:href="#DejaVuSans-31"/>
      </g>
     </g>
    </g>
    <g id="xtick_6">
     <g id="line2d_11">
      <path d="M 592.491692 489.1525 
L 592.491692 36.72 
" clip-path="url(#pb63bc6466b)" style="fill: none; stroke: #b0b0b0; stroke-width: 0.8; stroke-linecap: square"/>
     </g>
     <g id="line2d_12">
      <g>
       <use xlink:href="#m1f7f303242" x="592.491692" y="489.1525" style="stroke: #000000; stroke-width: 0.8"/>
      </g>
     </g>
     <g id="text_6">
      <!-- 2 -->
      <g transform="translate(584.538567 515.148594) scale(0.25 -0.25)">
       <use xlink:href="#DejaVuSans-32"/>
      </g>
     </g>
    </g>
    <g id="xtick_7">
     <g id="line2d_13">
      <path d="M 685.035 489.1525 
L 685.035 36.72 
" clip-path="url(#pb63bc6466b)" style="fill: none; stroke: #b0b0b0; stroke-width: 0.8; stroke-linecap: square"/>
     </g>
     <g id="line2d_14">
      <g>
       <use xlink:href="#m1f7f303242" x="685.035" y="489.1525" style="stroke: #000000; stroke-width: 0.8"/>
      </g>
     </g>
     <g id="text_7">
      <!-- 3 -->
      <g transform="translate(677.081875 515.148594) scale(0.25 -0.25)">
       <use xlink:href="#DejaVuSans-33"/>
      </g>
     </g>
    </g>
    <g id="text_8">
     <!-- $\omega$ [-] -->
     <g transform="translate(382.530076 541.351719) scale(0.25 -0.25)">
      <defs>
       <path id="DejaVuSans-Oblique-3c9" d="M 1369 -91 
Q 72 -91 434 1766 
Q 575 2500 1256 3500 
L 1875 3500 
Q 1231 2500 1088 1750 
Q 819 397 1519 397 
Q 2166 397 2478 2078 
L 3009 2078 
Q 2669 388 3316 397 
Q 4013 403 4275 1750 
Q 4419 2500 4169 3500 
L 4788 3500 
Q 5075 2500 4934 1766 
Q 4578 -94 3278 -91 
Q 2428 -88 2503 844 
Q 2194 -91 1369 -91 
z
" transform="scale(0.015625)"/>
       <path id="Calibri-20" transform="scale(0.015625)"/>
       <path id="Calibri-5b" d="M 1684 -813 
Q 1684 -916 1661 -958 
Q 1638 -1000 1594 -1000 
L 794 -1000 
Q 756 -1000 722 -989 
Q 688 -978 659 -953 
Q 631 -928 614 -886 
Q 597 -844 597 -781 
L 597 4153 
Q 597 4213 614 4255 
Q 631 4297 659 4323 
Q 688 4350 722 4361 
Q 756 4372 794 4372 
L 1594 4372 
Q 1613 4372 1630 4362 
Q 1647 4353 1659 4328 
Q 1672 4303 1678 4267 
Q 1684 4231 1684 4178 
Q 1684 4078 1661 4034 
Q 1638 3991 1594 3991 
L 1084 3991 
L 1084 -622 
L 1594 -622 
Q 1613 -622 1630 -631 
Q 1647 -641 1659 -664 
Q 1672 -688 1678 -723 
Q 1684 -759 1684 -813 
z
" transform="scale(0.015625)"/>
       <path id="Calibri-2d" d="M 1744 1578 
Q 1744 1456 1716 1409 
Q 1688 1363 1634 1363 
L 328 1363 
Q 272 1363 244 1411 
Q 216 1459 216 1578 
Q 216 1697 244 1744 
Q 272 1791 328 1791 
L 1634 1791 
Q 1659 1791 1679 1781 
Q 1700 1772 1714 1745 
Q 1728 1719 1736 1678 
Q 1744 1638 1744 1578 
z
" transform="scale(0.015625)"/>
       <path id="Calibri-5d" d="M 1369 -781 
Q 1369 -844 1351 -886 
Q 1334 -928 1306 -953 
Q 1278 -978 1242 -989 
Q 1206 -1000 1169 -1000 
L 372 -1000 
Q 328 -1000 304 -958 
Q 281 -916 281 -813 
Q 281 -759 286 -723 
Q 291 -688 303 -664 
Q 316 -641 333 -631 
Q 350 -622 372 -622 
L 881 -622 
L 881 3991 
L 372 3991 
Q 328 3991 304 4034 
Q 281 4078 281 4178 
Q 281 4231 286 4267 
Q 291 4303 303 4328 
Q 316 4353 333 4362 
Q 350 4372 372 4372 
L 1169 4372 
Q 1206 4372 1242 4361 
Q 1278 4350 1306 4323 
Q 1334 4297 1351 4255 
Q 1369 4213 1369 4153 
L 1369 -781 
z
" transform="scale(0.015625)"/>
      </defs>
      <use xlink:href="#DejaVuSans-Oblique-3c9" transform="translate(0 0.6875)"/>
      <use xlink:href="#Calibri-20" transform="translate(83.740234 0.6875)"/>
      <use xlink:href="#Calibri-5b" transform="translate(106.347656 0.6875)"/>
      <use xlink:href="#Calibri-2d" transform="translate(137.011719 0.6875)"/>
      <use xlink:href="#Calibri-5d" transform="translate(167.626953 0.6875)"/>
     </g>
    </g>
   </g>
   <g id="matplotlib.axis_2">
    <g id="ytick_1">
     <g id="line2d_15">
      <path d="M 129.775152 489.1525 
L 685.035 489.1525 
" clip-path="url(#pb63bc6466b)" style="fill: none; stroke: #b0b0b0; stroke-width: 0.8; stroke-linecap: square"/>
     </g>
     <g id="line2d_16">
      <defs>
       <path id="m2b45a72f25" d="M 0 0 
L -3.5 0 
" style="stroke: #000000; stroke-width: 0.8"/>
      </defs>
      <g>
       <use xlink:href="#m2b45a72f25" x="129.775152" y="489.1525" style="stroke: #000000; stroke-width: 0.8"/>
      </g>
     </g>
     <g id="text_9">
      <!-- 0.0 -->
      <g transform="translate(83.017339 498.650547) scale(0.25 -0.25)">
       <defs>
        <path id="DejaVuSans-2e" d="M 684 794 
L 1344 794 
L 1344 0 
L 684 0 
L 684 794 
z
" transform="scale(0.015625)"/>
       </defs>
       <use xlink:href="#DejaVuSans-30"/>
       <use xlink:href="#DejaVuSans-2e" x="63.623047"/>
       <use xlink:href="#DejaVuSans-30" x="95.410156"/>
      </g>
     </g>
    </g>
    <g id="ytick_2">
     <g id="line2d_17">
      <path d="M 129.775152 413.747083 
L 685.035 413.747083 
" clip-path="url(#pb63bc6466b)" style="fill: none; stroke: #b0b0b0; stroke-width: 0.8; stroke-linecap: square"/>
     </g>
     <g id="line2d_18">
      <g>
       <use xlink:href="#m2b45a72f25" x="129.775152" y="413.747083" style="stroke: #000000; stroke-width: 0.8"/>
      </g>
     </g>
     <g id="text_10">
      <!-- 0.2 -->
      <g transform="translate(83.017339 423.24513) scale(0.25 -0.25)">
       <use xlink:href="#DejaVuSans-30"/>
       <use xlink:href="#DejaVuSans-2e" x="63.623047"/>
       <use xlink:href="#DejaVuSans-32" x="95.410156"/>
      </g>
     </g>
    </g>
    <g id="ytick_3">
     <g id="line2d_19">
      <path d="M 129.775152 338.341667 
L 685.035 338.341667 
" clip-path="url(#pb63bc6466b)" style="fill: none; stroke: #b0b0b0; stroke-width: 0.8; stroke-linecap: square"/>
     </g>
     <g id="line2d_20">
      <g>
       <use xlink:href="#m2b45a72f25" x="129.775152" y="338.341667" style="stroke: #000000; stroke-width: 0.8"/>
      </g>
     </g>
     <g id="text_11">
      <!-- 0.4 -->
      <g transform="translate(83.017339 347.839714) scale(0.25 -0.25)">
       <defs>
        <path id="DejaVuSans-34" d="M 2419 4116 
L 825 1625 
L 2419 1625 
L 2419 4116 
z
M 2253 4666 
L 3047 4666 
L 3047 1625 
L 3713 1625 
L 3713 1100 
L 3047 1100 
L 3047 0 
L 2419 0 
L 2419 1100 
L 313 1100 
L 313 1709 
L 2253 4666 
z
" transform="scale(0.015625)"/>
       </defs>
       <use xlink:href="#DejaVuSans-30"/>
       <use xlink:href="#DejaVuSans-2e" x="63.623047"/>
       <use xlink:href="#DejaVuSans-34" x="95.410156"/>
      </g>
     </g>
    </g>
    <g id="ytick_4">
     <g id="line2d_21">
      <path d="M 129.775152 262.93625 
L 685.035 262.93625 
" clip-path="url(#pb63bc6466b)" style="fill: none; stroke: #b0b0b0; stroke-width: 0.8; stroke-linecap: square"/>
     </g>
     <g id="line2d_22">
      <g>
       <use xlink:href="#m2b45a72f25" x="129.775152" y="262.93625" style="stroke: #000000; stroke-width: 0.8"/>
      </g>
     </g>
     <g id="text_12">
      <!-- 0.6 -->
      <g transform="translate(83.017339 272.434297) scale(0.25 -0.25)">
       <defs>
        <path id="DejaVuSans-36" d="M 2113 2584 
Q 1688 2584 1439 2293 
Q 1191 2003 1191 1497 
Q 1191 994 1439 701 
Q 1688 409 2113 409 
Q 2538 409 2786 701 
Q 3034 994 3034 1497 
Q 3034 2003 2786 2293 
Q 2538 2584 2113 2584 
z
M 3366 4563 
L 3366 3988 
Q 3128 4100 2886 4159 
Q 2644 4219 2406 4219 
Q 1781 4219 1451 3797 
Q 1122 3375 1075 2522 
Q 1259 2794 1537 2939 
Q 1816 3084 2150 3084 
Q 2853 3084 3261 2657 
Q 3669 2231 3669 1497 
Q 3669 778 3244 343 
Q 2819 -91 2113 -91 
Q 1303 -91 875 529 
Q 447 1150 447 2328 
Q 447 3434 972 4092 
Q 1497 4750 2381 4750 
Q 2619 4750 2861 4703 
Q 3103 4656 3366 4563 
z
" transform="scale(0.015625)"/>
       </defs>
       <use xlink:href="#DejaVuSans-30"/>
       <use xlink:href="#DejaVuSans-2e" x="63.623047"/>
       <use xlink:href="#DejaVuSans-36" x="95.410156"/>
      </g>
     </g>
    </g>
    <g id="ytick_5">
     <g id="line2d_23">
      <path d="M 129.775152 187.530833 
L 685.035 187.530833 
" clip-path="url(#pb63bc6466b)" style="fill: none; stroke: #b0b0b0; stroke-width: 0.8; stroke-linecap: square"/>
     </g>
     <g id="line2d_24">
      <g>
       <use xlink:href="#m2b45a72f25" x="129.775152" y="187.530833" style="stroke: #000000; stroke-width: 0.8"/>
      </g>
     </g>
     <g id="text_13">
      <!-- 0.8 -->
      <g transform="translate(83.017339 197.02888) scale(0.25 -0.25)">
       <defs>
        <path id="DejaVuSans-38" d="M 2034 2216 
Q 1584 2216 1326 1975 
Q 1069 1734 1069 1313 
Q 1069 891 1326 650 
Q 1584 409 2034 409 
Q 2484 409 2743 651 
Q 3003 894 3003 1313 
Q 3003 1734 2745 1975 
Q 2488 2216 2034 2216 
z
M 1403 2484 
Q 997 2584 770 2862 
Q 544 3141 544 3541 
Q 544 4100 942 4425 
Q 1341 4750 2034 4750 
Q 2731 4750 3128 4425 
Q 3525 4100 3525 3541 
Q 3525 3141 3298 2862 
Q 3072 2584 2669 2484 
Q 3125 2378 3379 2068 
Q 3634 1759 3634 1313 
Q 3634 634 3220 271 
Q 2806 -91 2034 -91 
Q 1263 -91 848 271 
Q 434 634 434 1313 
Q 434 1759 690 2068 
Q 947 2378 1403 2484 
z
M 1172 3481 
Q 1172 3119 1398 2916 
Q 1625 2713 2034 2713 
Q 2441 2713 2670 2916 
Q 2900 3119 2900 3481 
Q 2900 3844 2670 4047 
Q 2441 4250 2034 4250 
Q 1625 4250 1398 4047 
Q 1172 3844 1172 3481 
z
" transform="scale(0.015625)"/>
       </defs>
       <use xlink:href="#DejaVuSans-30"/>
       <use xlink:href="#DejaVuSans-2e" x="63.623047"/>
       <use xlink:href="#DejaVuSans-38" x="95.410156"/>
      </g>
     </g>
    </g>
    <g id="ytick_6">
     <g id="line2d_25">
      <path d="M 129.775152 112.125417 
L 685.035 112.125417 
" clip-path="url(#pb63bc6466b)" style="fill: none; stroke: #b0b0b0; stroke-width: 0.8; stroke-linecap: square"/>
     </g>
     <g id="line2d_26">
      <g>
       <use xlink:href="#m2b45a72f25" x="129.775152" y="112.125417" style="stroke: #000000; stroke-width: 0.8"/>
      </g>
     </g>
     <g id="text_14">
      <!-- 1.0 -->
      <g transform="translate(83.017339 121.623464) scale(0.25 -0.25)">
       <use xlink:href="#DejaVuSans-31"/>
       <use xlink:href="#DejaVuSans-2e" x="63.623047"/>
       <use xlink:href="#DejaVuSans-30" x="95.410156"/>
      </g>
     </g>
    </g>
    <g id="ytick_7">
     <g id="line2d_27">
      <path d="M 129.775152 36.72 
L 685.035 36.72 
" clip-path="url(#pb63bc6466b)" style="fill: none; stroke: #b0b0b0; stroke-width: 0.8; stroke-linecap: square"/>
     </g>
     <g id="line2d_28">
      <g>
       <use xlink:href="#m2b45a72f25" x="129.775152" y="36.72" style="stroke: #000000; stroke-width: 0.8"/>
      </g>
     </g>
     <g id="text_15">
      <!-- 1.2 -->
      <g transform="translate(83.017339 46.218047) scale(0.25 -0.25)">
       <use xlink:href="#DejaVuSans-31"/>
       <use xlink:href="#DejaVuSans-2e" x="63.623047"/>
       <use xlink:href="#DejaVuSans-32" x="95.410156"/>
      </g>
     </g>
    </g>
    <g id="text_16">
     <!-- $\rho$($\omega$) -->
     <g transform="translate(27.017339 257.68625) scale(0.25 -0.25)">
      <defs>
       <path id="DejaVuSans-Oblique-3c1" d="M 1203 2875 
Q 1453 3194 1981 3475 
Q 2188 3584 2756 3584 
Q 3394 3584 3694 3078 
Q 3994 2572 3834 1747 
Q 3672 922 3175 415 
Q 2678 -91 2041 -91 
Q 1656 -91 1409 63 
Q 1163 213 1044 525 
L 681 -1331 
L 103 -1331 
L 697 1716 
Q 838 2438 1203 2875 
z
M 3238 1747 
Q 3359 2381 3169 2744 
Q 2978 3103 2522 3103 
Q 2066 3103 1734 2744 
Q 1403 2381 1281 1747 
Q 1156 1113 1347 750 
Q 1538 391 1994 391 
Q 2450 391 2781 750 
Q 3113 1113 3238 1747 
z
" transform="scale(0.015625)"/>
       <path id="Calibri-28" d="M 1547 4306 
Q 1250 3678 1104 3017 
Q 959 2356 959 1688 
Q 959 1016 1107 356 
Q 1256 -303 1541 -938 
Q 1556 -975 1557 -1001 
Q 1559 -1028 1537 -1045 
Q 1516 -1063 1470 -1070 
Q 1425 -1078 1347 -1078 
Q 1291 -1078 1250 -1075 
Q 1209 -1072 1179 -1062 
Q 1150 -1053 1131 -1040 
Q 1113 -1028 1103 -1013 
Q 934 -694 806 -367 
Q 678 -41 590 296 
Q 503 634 459 979 
Q 416 1325 416 1678 
Q 416 2031 464 2375 
Q 513 2719 602 3058 
Q 691 3397 819 3725 
Q 947 4053 1106 4375 
Q 1109 4388 1123 4397 
Q 1138 4406 1163 4415 
Q 1188 4425 1231 4429 
Q 1275 4434 1344 4434 
Q 1416 4434 1459 4425 
Q 1503 4416 1528 4400 
Q 1553 4384 1556 4359 
Q 1559 4334 1547 4306 
z
" transform="scale(0.015625)"/>
       <path id="Calibri-29" d="M 1522 1678 
Q 1522 1325 1478 979 
Q 1434 634 1346 296 
Q 1259 -41 1132 -367 
Q 1006 -694 838 -1013 
Q 828 -1028 809 -1040 
Q 791 -1053 761 -1062 
Q 731 -1072 690 -1075 
Q 650 -1078 594 -1078 
Q 513 -1078 467 -1070 
Q 422 -1063 401 -1045 
Q 381 -1028 382 -1001 
Q 384 -975 400 -938 
Q 688 -306 834 355 
Q 981 1016 981 1688 
Q 981 2356 834 3017 
Q 688 3678 394 4306 
Q 381 4334 384 4359 
Q 388 4384 413 4400 
Q 438 4416 481 4425 
Q 525 4434 597 4434 
Q 663 4434 706 4429 
Q 750 4425 776 4415 
Q 803 4406 815 4397 
Q 828 4388 834 4375 
Q 1156 3734 1339 3057 
Q 1522 2381 1522 1678 
z
" transform="scale(0.015625)"/>
      </defs>
      <use xlink:href="#DejaVuSans-Oblique-3c1" transform="translate(0 0.71875)"/>
      <use xlink:href="#Calibri-28" transform="translate(63.476562 0.71875)"/>
      <use xlink:href="#DejaVuSans-Oblique-3c9" transform="translate(93.798828 0.71875)"/>
      <use xlink:href="#Calibri-29" transform="translate(177.539062 0.71875)"/>
     </g>
    </g>
   </g>
   <g id="line2d_29">
    <path d="M 129.775152 485.191726 
L 155.334144 484.357906 
L 176.448095 483.454255 
L 194.413473 482.469183 
L 209.785911 481.409883 
L 223.121037 480.274568 
L 234.789273 479.065055 
L 245.161038 477.771976 
L 254.421542 476.397747 
L 262.755996 474.939311 
L 270.34961 473.384504 
L 277.202383 471.755119 
L 283.499526 470.028525 
L 289.241039 468.224518 
L 294.612132 466.300489 
L 299.427594 464.345993 
L 304.057846 462.22636 
L 308.317678 460.033592 
L 312.3923 457.683194 
L 316.096502 455.298572 
L 319.615494 452.781848 
L 322.949275 450.139362 
L 326.283057 447.210018 
L 329.431628 444.143156 
L 332.39499 440.953562 
L 335.358351 437.430254 
L 338.136503 433.783961 
L 340.914654 429.761674 
L 343.507595 425.624737 
L 346.100536 421.071059 
L 348.693478 416.047963 
L 351.101209 410.910933 
L 353.50894 405.262843 
L 355.916671 399.042223 
L 358.324402 392.180058 
L 360.732133 384.599258 
L 362.954655 376.889976 
L 365.177176 368.422113 
L 367.399697 359.116621 
L 369.622218 348.890039 
L 371.844739 337.656563 
L 374.06726 325.331472 
L 376.474991 310.656905 
L 378.882722 294.529465 
L 381.290453 276.905816 
L 383.883395 256.274469 
L 386.846756 230.785139 
L 390.736168 195.110677 
L 395.92205 147.552666 
L 398.144572 129.166202 
L 399.811462 116.958482 
L 401.293143 107.605845 
L 402.589614 100.797814 
L 403.700874 96.111069 
L 404.626925 93.080348 
L 405.367765 91.25699 
L 406.108605 89.984799 
L 406.664236 89.398989 
L 407.219866 89.132142 
L 407.775496 89.18554 
L 408.331126 89.558925 
L 408.886757 90.250509 
L 409.627597 91.661677 
L 410.368437 93.62062 
L 411.294488 96.81443 
L 412.220538 100.797814 
L 413.331799 106.550234 
L 414.628269 114.476259 
L 416.10995 124.921461 
L 417.962051 139.649877 
L 420.369782 160.732399 
L 425.370455 207.184476 
L 429.259867 242.165112 
L 432.223228 266.799083 
L 434.816169 286.582089 
L 437.40911 304.629373 
L 439.816842 319.854831 
L 442.224573 333.673552 
L 444.632304 346.179428 
L 447.040035 357.478458 
L 449.447766 367.679774 
L 451.855497 376.889976 
L 454.263229 385.209804 
L 456.67096 392.732397 
L 459.078691 399.542581 
L 461.486422 405.71681 
L 463.894153 411.323497 
L 466.487095 416.79648 
L 469.080036 421.749019 
L 471.672977 426.2401 
L 474.451128 430.598486 
L 477.22928 434.541835 
L 480.007431 438.118282 
L 482.970792 441.575775 
L 486.119364 444.893109 
L 489.267936 447.887771 
L 492.601717 450.750052 
L 496.120709 453.469814 
L 499.824911 456.040819 
L 503.714322 458.460175 
L 507.788944 460.727785 
L 512.048777 462.84582 
L 516.679029 464.895649 
L 521.679701 466.85643 
L 527.050794 468.713329 
L 532.792307 470.456826 
L 539.08945 472.127851 
L 545.942223 473.707031 
L 553.350626 475.181928 
L 561.49987 476.575283 
L 570.575165 477.897163 
L 580.76172 479.148937 
L 592.059535 480.309365 
L 604.839031 481.395631 
L 619.470628 482.411671 
L 636.324746 483.353856 
L 655.957016 484.222866 
L 679.108277 485.018852 
L 685.035 485.191726 
L 685.035 485.191726 
" clip-path="url(#pb63bc6466b)" style="fill: none; stroke-dasharray: 14.8,6.4; stroke-dashoffset: 0; stroke: #ff0000; stroke-width: 4"/>
   </g>
   <g id="line2d_30">
    <path d="M 129.775152 483.639465 
L 129.960362 485.017724 
L 130.145572 482.950335 
L 130.330782 483.98403 
L 130.515992 481.916641 
L 130.701202 481.572077 
L 131.071623 482.950335 
L 131.256833 484.328594 
L 131.442043 483.98403 
L 131.627253 480.193818 
L 131.812463 483.98403 
L 131.997673 481.572077 
L 132.182883 483.98403 
L 132.368093 483.639465 
L 132.553303 482.605771 
L 132.923723 485.017724 
L 133.108934 484.328594 
L 133.294144 481.916641 
L 133.479354 481.227512 
L 134.034984 483.2949 
L 134.220194 485.017724 
L 134.405404 483.2949 
L 134.590614 482.950335 
L 134.775824 479.160124 
L 134.961034 481.916641 
L 135.146245 481.227512 
L 135.331455 481.227512 
L 135.516665 484.328594 
L 135.701875 482.950335 
L 135.887085 482.950335 
L 136.257505 483.98403 
L 136.442715 480.538383 
L 136.813135 483.98403 
L 136.998345 480.882947 
L 137.183556 483.98403 
L 137.368766 483.639465 
L 137.553976 481.227512 
L 137.739186 483.2949 
L 137.924396 481.916641 
L 138.109606 483.2949 
L 138.294816 481.916641 
L 138.480026 483.639465 
L 138.665236 482.261206 
L 138.850446 482.950335 
L 139.035656 480.193818 
L 139.220867 483.98403 
L 139.406077 482.605771 
L 139.591287 482.605771 
L 139.776497 483.98403 
L 140.146917 482.261206 
L 140.332127 483.2949 
L 140.517337 481.572077 
L 140.887757 484.673159 
L 141.072967 481.227512 
L 141.258178 485.706853 
L 141.443388 481.916641 
L 141.628598 482.261206 
L 141.813808 482.261206 
L 141.999018 481.227512 
L 142.184228 483.2949 
L 142.369438 480.193818 
L 142.554648 483.2949 
L 142.739858 482.605771 
L 142.925068 481.227512 
L 143.110278 481.572077 
L 143.295489 483.2949 
L 143.665909 481.572077 
L 143.851119 485.362288 
L 144.036329 480.193818 
L 144.221539 482.605771 
L 144.406749 483.2949 
L 144.591959 485.017724 
L 144.962379 481.572077 
L 145.147589 482.605771 
L 145.332799 484.328594 
L 145.51801 481.916641 
L 145.70322 481.916641 
L 145.88843 484.673159 
L 146.25885 482.950335 
L 146.44406 480.193818 
L 146.62927 480.538383 
L 146.81448 483.98403 
L 146.99969 483.98403 
L 147.1849 483.2949 
L 147.37011 483.2949 
L 147.555321 484.673159 
L 147.740531 481.572077 
L 147.925741 482.605771 
L 148.110951 481.916641 
L 148.296161 483.98403 
L 148.666581 481.916641 
L 149.037001 477.4373 
L 149.222211 479.160124 
L 149.407421 483.2949 
L 149.592632 481.572077 
L 149.777842 483.98403 
L 149.963052 482.261206 
L 150.148262 482.605771 
L 150.333472 482.605771 
L 150.518682 483.639465 
L 150.889102 482.950335 
L 151.074312 481.572077 
L 151.259522 481.916641 
L 151.444732 479.849253 
L 151.815153 483.639465 
L 152.000363 479.849253 
L 152.185573 482.261206 
L 152.370783 481.916641 
L 152.555993 483.2949 
L 152.741203 481.227512 
L 152.926413 480.882947 
L 153.111623 486.051418 
L 153.296833 482.261206 
L 153.482043 483.98403 
L 153.667254 482.950335 
L 153.852464 478.815559 
L 154.037674 484.673159 
L 154.222884 478.12643 
L 154.408094 479.849253 
L 154.593304 482.950335 
L 154.778514 482.950335 
L 154.963724 479.160124 
L 155.148934 482.261206 
L 155.334144 478.815559 
L 155.519354 481.572077 
L 155.704564 479.849253 
L 155.889775 479.849253 
L 156.074985 483.98403 
L 156.260195 480.882947 
L 156.630615 483.98403 
L 156.815825 482.605771 
L 157.001035 479.160124 
L 157.186245 482.950335 
L 157.371455 482.605771 
L 157.556665 481.572077 
L 157.741875 479.849253 
L 157.927086 480.193818 
L 158.112296 479.849253 
L 158.297506 483.2949 
L 158.482716 482.605771 
L 158.667926 483.639465 
L 158.853136 480.882947 
L 159.038346 480.193818 
L 159.223556 483.98403 
L 159.408766 483.98403 
L 159.593976 482.261206 
L 159.964397 481.572077 
L 160.149607 481.916641 
L 160.334817 478.815559 
L 160.705237 482.261206 
L 161.075657 480.538383 
L 161.260867 480.538383 
L 161.446077 483.2949 
L 161.631287 479.849253 
L 161.816497 482.605771 
L 162.001708 482.261206 
L 162.186918 479.160124 
L 162.372128 481.227512 
L 162.557338 481.916641 
L 162.742548 481.227512 
L 162.927758 483.639465 
L 163.298178 478.815559 
L 163.853808 483.639465 
L 164.039019 482.261206 
L 164.224229 482.261206 
L 164.409439 482.605771 
L 164.594649 480.193818 
L 164.779859 481.572077 
L 164.965069 480.193818 
L 165.150279 482.605771 
L 165.335489 482.605771 
L 165.520699 480.882947 
L 165.705909 481.572077 
L 165.891119 481.572077 
L 166.26154 480.193818 
L 166.44675 477.781865 
L 166.63196 482.605771 
L 167.00238 478.470994 
L 167.18759 480.193818 
L 167.3728 483.98403 
L 167.55801 480.193818 
L 167.74322 481.227512 
L 167.92843 484.673159 
L 168.11364 480.193818 
L 168.298851 480.193818 
L 168.484061 479.849253 
L 168.669271 478.815559 
L 168.854481 481.227512 
L 169.224901 480.193818 
L 169.410111 480.882947 
L 169.595321 485.362288 
L 169.780531 480.538383 
L 169.965741 482.605771 
L 170.150951 482.605771 
L 170.336162 479.504688 
L 170.521372 479.849253 
L 170.706582 482.605771 
L 170.891792 480.193818 
L 171.077002 480.882947 
L 171.262212 478.470994 
L 171.632632 482.261206 
L 171.817842 479.160124 
L 172.003052 479.160124 
L 172.373473 483.639465 
L 172.558683 482.605771 
L 172.743893 479.160124 
L 172.929103 479.160124 
L 173.114313 480.538383 
L 173.299523 483.2949 
L 173.484733 481.572077 
L 173.669943 482.261206 
L 173.855153 478.12643 
L 174.040363 482.950335 
L 174.410784 477.4373 
L 174.595994 477.4373 
L 174.781204 478.470994 
L 174.966414 482.950335 
L 175.151624 478.12643 
L 175.522044 483.639465 
L 175.707254 475.025347 
L 176.077674 481.916641 
L 176.262884 479.849253 
L 176.448095 482.950335 
L 176.633305 479.849253 
L 176.818515 479.504688 
L 177.188935 477.092736 
L 177.744565 482.950335 
L 177.929775 481.916641 
L 178.114985 482.261206 
L 178.300195 482.261206 
L 178.485405 479.849253 
L 178.855826 482.261206 
L 179.041036 477.781865 
L 179.226246 481.572077 
L 179.411456 479.849253 
L 179.596666 479.504688 
L 179.967086 480.538383 
L 180.152296 477.781865 
L 180.337506 480.882947 
L 180.522716 480.538383 
L 180.707927 480.538383 
L 180.893137 478.470994 
L 181.078347 481.572077 
L 181.263557 479.849253 
L 181.448767 483.639465 
L 181.633977 482.261206 
L 182.004397 482.261206 
L 182.189607 478.815559 
L 182.374817 479.504688 
L 182.560027 479.160124 
L 182.745238 479.849253 
L 182.930448 482.605771 
L 183.115658 478.12643 
L 183.300868 481.916641 
L 183.486078 479.160124 
L 183.671288 478.12643 
L 183.856498 480.882947 
L 184.041708 476.403606 
L 184.226918 480.193818 
L 184.412128 477.781865 
L 184.597338 479.160124 
L 184.782549 479.160124 
L 184.967759 481.572077 
L 185.523389 477.4373 
L 185.893809 483.639465 
L 186.264229 479.160124 
L 186.449439 480.193818 
L 186.634649 480.193818 
L 186.81986 480.882947 
L 187.00507 476.059041 
L 187.19028 483.2949 
L 187.37549 478.815559 
L 187.5607 483.2949 
L 187.74591 484.328594 
L 187.93112 478.470994 
L 188.11633 476.748171 
L 188.67196 480.193818 
L 188.85717 478.470994 
L 189.227591 480.538383 
L 189.412801 481.227512 
L 189.598011 480.538383 
L 189.783221 475.369912 
L 189.968431 481.227512 
L 190.153641 480.882947 
L 190.338851 481.572077 
L 190.524061 477.781865 
L 190.709271 478.470994 
L 190.894481 476.748171 
L 191.079692 481.227512 
L 191.264902 479.849253 
L 191.450112 480.538383 
L 191.635322 478.12643 
L 191.820532 479.160124 
L 192.005742 477.092736 
L 192.190952 481.916641 
L 192.376162 478.12643 
L 192.561372 479.849253 
L 192.746582 479.160124 
L 192.931792 475.025347 
L 193.302213 482.950335 
L 193.487423 475.025347 
L 193.672633 479.504688 
L 193.857843 478.815559 
L 194.043053 479.160124 
L 194.228263 483.2949 
L 194.413473 478.815559 
L 194.598683 479.160124 
L 194.783893 479.849253 
L 194.969103 477.4373 
L 195.154314 478.12643 
L 195.339524 477.781865 
L 195.709944 480.538383 
L 195.895154 479.504688 
L 196.080364 479.160124 
L 196.450784 479.160124 
L 196.635994 480.882947 
L 196.821204 477.781865 
L 197.006414 477.092736 
L 197.376835 478.815559 
L 197.562045 479.504688 
L 197.747255 480.882947 
L 197.932465 479.504688 
L 198.117675 475.714477 
L 198.302885 479.504688 
L 198.488095 480.538383 
L 198.673305 478.470994 
L 198.858515 483.2949 
L 199.043725 472.613394 
L 199.228936 477.092736 
L 199.414146 475.025347 
L 199.599356 479.504688 
L 199.784566 480.538383 
L 199.969776 477.781865 
L 200.340196 480.882947 
L 200.525406 474.336218 
L 200.710616 479.849253 
L 200.895826 478.815559 
L 201.081036 474.336218 
L 201.266246 477.781865 
L 201.451457 478.815559 
L 201.636667 476.748171 
L 201.821877 481.227512 
L 202.007087 478.470994 
L 202.192297 480.538383 
L 202.377507 478.12643 
L 202.562717 479.504688 
L 202.747927 479.504688 
L 202.933137 477.781865 
L 203.118347 480.538383 
L 203.303557 474.680783 
L 203.488768 477.4373 
L 203.673978 478.470994 
L 203.859188 481.227512 
L 204.044398 477.781865 
L 204.229608 479.849253 
L 204.414818 479.849253 
L 204.600028 477.4373 
L 204.785238 481.572077 
L 204.970448 477.4373 
L 205.155658 478.12643 
L 205.340868 475.369912 
L 205.526079 477.4373 
L 205.711289 477.4373 
L 205.896499 475.369912 
L 206.081709 478.470994 
L 206.266919 475.714477 
L 206.452129 475.025347 
L 206.637339 478.815559 
L 206.822549 473.302524 
L 207.007759 477.092736 
L 207.192969 477.4373 
L 207.378179 477.4373 
L 207.56339 480.193818 
L 207.7486 478.12643 
L 207.93381 478.470994 
L 208.11902 476.748171 
L 208.30423 476.403606 
L 208.48944 479.849253 
L 208.67465 477.781865 
L 208.85986 472.613394 
L 209.04507 477.781865 
L 209.23028 475.714477 
L 209.785911 477.781865 
L 209.971121 477.781865 
L 210.156331 475.714477 
L 210.341541 476.059041 
L 210.526751 477.4373 
L 210.711961 472.613394 
L 210.897171 476.403606 
L 211.082381 475.025347 
L 211.267591 475.369912 
L 211.452801 474.336218 
L 211.638011 475.025347 
L 211.823222 477.781865 
L 212.008432 477.092736 
L 212.193642 478.470994 
L 212.378852 477.092736 
L 212.564062 476.748171 
L 212.749272 474.336218 
L 212.934482 478.815559 
L 213.119692 479.504688 
L 213.304902 478.470994 
L 213.675322 473.302524 
L 213.860533 479.849253 
L 214.045743 479.849253 
L 214.230953 473.302524 
L 214.416163 478.12643 
L 214.601373 478.470994 
L 214.786583 475.025347 
L 215.157003 477.4373 
L 215.342213 476.403606 
L 215.527423 478.470994 
L 215.712633 477.092736 
L 215.897844 479.160124 
L 216.083054 474.680783 
L 216.268264 476.748171 
L 216.453474 475.025347 
L 216.638684 479.160124 
L 216.823894 479.160124 
L 217.009104 477.092736 
L 217.194314 478.12643 
L 217.564734 475.369912 
L 217.749944 475.714477 
L 217.935155 478.470994 
L 218.305575 473.991653 
L 218.490785 479.160124 
L 218.675995 472.957959 
L 218.861205 480.882947 
L 219.231625 473.302524 
L 219.416835 479.849253 
L 219.602045 478.815559 
L 219.787255 472.26883 
L 219.972466 473.647089 
L 220.157676 476.748171 
L 220.342886 474.336218 
L 220.528096 475.714477 
L 220.713306 475.369912 
L 221.083726 476.403606 
L 221.268936 473.991653 
L 221.639356 478.12643 
L 222.009776 477.092736 
L 222.194987 478.12643 
L 222.380197 473.991653 
L 222.565407 473.302524 
L 222.750617 475.025347 
L 222.935827 479.160124 
L 223.121037 477.781865 
L 223.306247 479.160124 
L 223.676667 475.369912 
L 223.861877 476.059041 
L 224.047087 475.714477 
L 224.232298 473.647089 
L 224.602718 479.160124 
L 224.787928 477.4373 
L 224.973138 478.815559 
L 225.158348 478.815559 
L 225.343558 479.849253 
L 225.528768 477.092736 
L 225.713978 478.470994 
L 225.899188 476.403606 
L 226.084398 480.882947 
L 226.269609 476.059041 
L 226.454819 477.4373 
L 226.640029 476.403606 
L 226.825239 478.815559 
L 227.195659 472.26883 
L 227.380869 474.336218 
L 227.566079 472.957959 
L 227.751289 477.092736 
L 227.936499 476.403606 
L 228.121709 476.403606 
L 228.30692 475.369912 
L 228.49213 475.714477 
L 228.67734 477.781865 
L 228.86255 477.092736 
L 229.04776 475.714477 
L 229.41818 469.512312 
L 229.60339 473.991653 
L 229.7886 473.991653 
L 229.97381 474.680783 
L 230.15902 477.781865 
L 230.344231 474.680783 
L 230.529441 478.12643 
L 230.714651 471.5797 
L 230.899861 476.403606 
L 231.085071 473.991653 
L 231.455491 475.714477 
L 231.640701 473.647089 
L 232.011121 477.092736 
L 232.196331 477.4373 
L 232.566752 473.302524 
L 232.937172 471.5797 
L 233.122382 472.613394 
L 233.307592 472.957959 
L 233.678012 475.025347 
L 233.863222 476.748171 
L 234.048432 472.957959 
L 234.233642 472.957959 
L 234.418852 473.991653 
L 234.604063 473.991653 
L 234.789273 471.924265 
L 234.974483 476.403606 
L 235.159693 476.403606 
L 235.344903 473.647089 
L 235.530113 474.336218 
L 235.715323 472.613394 
L 235.900533 476.059041 
L 236.085743 474.680783 
L 236.270953 475.369912 
L 236.641374 471.924265 
L 237.011794 476.748171 
L 237.197004 473.302524 
L 237.382214 476.059041 
L 237.567424 470.890571 
L 237.752634 476.748171 
L 237.937844 468.134053 
L 238.123054 475.369912 
L 238.308264 475.714477 
L 238.493474 470.890571 
L 238.678685 474.336218 
L 238.863895 471.5797 
L 239.049105 471.235136 
L 239.419525 476.748171 
L 239.604735 471.235136 
L 239.789945 475.369912 
L 239.975155 473.991653 
L 240.160365 475.369912 
L 240.345575 470.890571 
L 240.530785 474.336218 
L 240.901206 473.302524 
L 241.086416 478.470994 
L 241.271626 472.26883 
L 241.642046 473.991653 
L 241.827256 475.369912 
L 242.012466 472.26883 
L 242.197676 471.5797 
L 242.382886 475.025347 
L 242.568096 472.613394 
L 242.753307 473.302524 
L 242.938517 470.546006 
L 243.123727 472.613394 
L 243.308937 467.100359 
L 243.679357 474.336218 
L 243.864567 476.748171 
L 244.234987 472.613394 
L 244.420197 473.647089 
L 244.605407 468.478618 
L 244.790617 470.546006 
L 244.975828 470.890571 
L 245.161038 469.512312 
L 245.346248 472.26883 
L 245.531458 471.924265 
L 245.716668 473.991653 
L 245.901878 469.856877 
L 246.087088 474.336218 
L 246.272298 473.302524 
L 246.457508 476.403606 
L 246.642718 473.991653 
L 246.827928 475.714477 
L 247.013139 469.167747 
L 247.198349 471.5797 
L 247.383559 467.789489 
L 247.753979 475.369912 
L 247.939189 475.714477 
L 248.124399 473.302524 
L 248.309609 466.066665 
L 248.494819 469.856877 
L 248.680029 469.856877 
L 248.865239 467.789489 
L 249.05045 469.512312 
L 249.23566 469.856877 
L 249.42087 474.680783 
L 249.60608 472.26883 
L 249.79129 472.957959 
L 249.9765 477.092736 
L 250.16171 475.025347 
L 250.34692 468.823183 
L 250.53213 472.26883 
L 250.71734 472.613394 
L 250.90255 472.26883 
L 251.087761 476.748171 
L 251.272971 469.167747 
L 251.458181 470.546006 
L 251.643391 468.823183 
L 251.828601 472.957959 
L 252.013811 468.134053 
L 252.384231 472.957959 
L 252.569441 469.167747 
L 252.754651 468.134053 
L 252.939861 470.890571 
L 253.125072 476.059041 
L 253.495492 470.890571 
L 253.680702 471.5797 
L 253.865912 470.890571 
L 254.051122 468.823183 
L 254.236332 468.823183 
L 254.606752 471.924265 
L 254.791962 467.444924 
L 254.977172 467.789489 
L 255.162383 469.512312 
L 255.347593 472.613394 
L 255.532803 471.5797 
L 255.718013 473.302524 
L 256.273643 467.444924 
L 256.458853 469.512312 
L 256.644063 465.377536 
L 256.829273 468.134053 
L 257.014483 467.789489 
L 257.199693 470.546006 
L 257.384904 470.546006 
L 257.570114 468.823183 
L 257.755324 471.235136 
L 257.940534 475.714477 
L 258.125744 466.066665 
L 258.496164 470.546006 
L 258.681374 471.924265 
L 258.866584 469.512312 
L 259.051794 463.654712 
L 259.237004 467.100359 
L 259.422215 465.7221 
L 259.607425 470.546006 
L 259.792635 466.755795 
L 259.977845 469.167747 
L 260.348265 470.546006 
L 260.533475 469.856877 
L 260.718685 463.654712 
L 260.903895 462.621018 
L 261.089105 468.823183 
L 261.274315 466.41123 
L 261.459526 466.066665 
L 261.644736 467.444924 
L 261.829946 466.066665 
L 262.200366 471.924265 
L 262.385576 471.235136 
L 262.570786 469.512312 
L 262.755996 471.5797 
L 262.941206 468.478618 
L 263.126416 471.5797 
L 263.311626 469.512312 
L 263.496837 465.377536 
L 263.682047 468.823183 
L 263.867257 466.066665 
L 264.052467 465.7221 
L 264.237677 466.41123 
L 264.422887 469.167747 
L 264.608097 468.134053 
L 264.793307 462.965583 
L 264.978517 467.444924 
L 265.163727 466.755795 
L 265.348937 469.512312 
L 265.534148 470.201442 
L 265.719358 468.478618 
L 265.904568 464.688406 
L 266.089778 469.856877 
L 266.274988 462.621018 
L 266.460198 472.26883 
L 266.645408 470.890571 
L 266.830618 467.444924 
L 267.015828 470.546006 
L 267.201038 466.41123 
L 267.386248 467.444924 
L 267.571458 461.242759 
L 267.756669 465.377536 
L 267.941879 466.066665 
L 268.127089 469.167747 
L 268.312299 463.999277 
L 268.497509 468.478618 
L 268.682719 467.789489 
L 269.053139 471.5797 
L 269.238349 464.688406 
L 269.423559 466.066665 
L 269.608769 463.654712 
L 269.79398 466.066665 
L 270.1644 465.032971 
L 270.34961 473.302524 
L 270.72003 465.7221 
L 270.90524 467.100359 
L 271.09045 467.444924 
L 271.27566 465.032971 
L 271.46087 460.55363 
L 271.831291 468.823183 
L 272.016501 461.587324 
L 272.386921 467.444924 
L 272.572131 464.688406 
L 272.757341 463.999277 
L 272.942551 466.41123 
L 273.127761 465.7221 
L 273.312971 462.621018 
L 273.498181 463.654712 
L 273.683391 463.999277 
L 274.239022 467.444924 
L 274.424232 462.276453 
L 274.609442 463.999277 
L 274.794652 463.310148 
L 274.979862 469.512312 
L 275.165072 464.343842 
L 275.350282 467.444924 
L 275.535492 462.621018 
L 275.720702 466.066665 
L 275.905913 463.310148 
L 276.091123 464.688406 
L 276.276333 458.830806 
L 276.461543 463.999277 
L 276.646753 463.654712 
L 276.831963 463.999277 
L 277.017173 465.377536 
L 277.202383 469.856877 
L 277.387593 462.621018 
L 277.572803 467.789489 
L 277.758013 464.688406 
L 277.943223 463.654712 
L 278.128434 465.032971 
L 278.498854 464.343842 
L 278.684064 463.654712 
L 278.869274 465.377536 
L 279.054484 462.621018 
L 279.239694 464.688406 
L 279.610114 458.830806 
L 279.795324 461.587324 
L 279.980534 462.276453 
L 280.350955 466.066665 
L 280.536165 459.175371 
L 280.721375 463.654712 
L 280.906585 461.931889 
L 281.091795 461.587324 
L 281.277005 463.654712 
L 281.462215 462.276453 
L 281.647425 459.519936 
L 281.832635 459.519936 
L 282.017845 456.418854 
L 282.203056 465.377536 
L 282.388266 459.175371 
L 282.573476 466.41123 
L 282.758686 460.55363 
L 282.943896 460.55363 
L 283.129106 461.242759 
L 283.314316 461.242759 
L 283.499526 458.141677 
L 283.684736 466.41123 
L 284.055156 460.898195 
L 284.240367 462.621018 
L 284.425577 456.763418 
L 284.610787 458.486242 
L 284.795997 457.452548 
L 284.981207 465.377536 
L 285.351627 459.175371 
L 285.722047 466.755795 
L 285.907257 461.242759 
L 286.092467 463.999277 
L 286.277678 460.898195 
L 286.462888 461.931889 
L 286.648098 458.486242 
L 286.833308 461.587324 
L 287.018518 458.486242 
L 287.203728 458.830806 
L 287.574148 461.242759 
L 287.759358 462.276453 
L 287.944568 459.864501 
L 288.129778 459.864501 
L 288.314989 459.519936 
L 288.500199 455.040595 
L 288.685409 462.965583 
L 288.870619 458.486242 
L 289.055829 464.343842 
L 289.241039 462.965583 
L 289.426249 458.486242 
L 289.796669 457.452548 
L 289.981879 461.587324 
L 290.167089 469.512312 
L 290.352299 462.621018 
L 290.53751 461.587324 
L 290.72272 457.452548 
L 290.90793 462.965583 
L 291.09314 458.486242 
L 291.27835 460.209065 
L 291.46356 454.69603 
L 291.64877 456.418854 
L 291.83398 453.662336 
L 292.01919 457.107983 
L 292.2044 452.973207 
L 292.38961 451.939512 
L 292.945241 460.209065 
L 293.130451 456.763418 
L 293.315661 455.729724 
L 293.500871 461.931889 
L 293.686081 455.040595 
L 293.871291 459.175371 
L 294.056501 458.141677 
L 294.241711 454.69603 
L 294.426921 460.898195 
L 294.612132 463.310148 
L 294.982552 456.763418 
L 295.167762 450.905818 
L 295.352972 452.284077 
L 295.538182 459.175371 
L 295.723392 452.973207 
L 296.093812 454.69603 
L 296.279022 459.864501 
L 296.464232 451.939512 
L 296.834653 459.519936 
L 297.019863 454.006901 
L 297.205073 459.519936 
L 297.575493 448.149301 
L 297.760703 459.519936 
L 297.945913 457.797112 
L 298.131123 452.284077 
L 298.316333 455.385159 
L 298.501543 453.317771 
L 298.686754 456.074289 
L 298.871964 456.074289 
L 299.057174 459.175371 
L 299.612804 449.182995 
L 299.798014 449.182995 
L 300.168434 454.006901 
L 300.353644 453.662336 
L 300.538854 454.351465 
L 300.724064 453.662336 
L 300.909275 457.452548 
L 301.094485 456.418854 
L 301.279695 454.006901 
L 301.464905 445.048218 
L 301.650115 454.69603 
L 301.835325 455.385159 
L 302.020535 457.107983 
L 302.205745 456.074289 
L 302.576165 447.804736 
L 302.761375 448.149301 
L 302.946586 456.418854 
L 303.131796 454.351465 
L 303.502216 444.014524 
L 303.687426 456.418854 
L 304.057846 450.216689 
L 304.243056 447.115607 
L 304.428266 451.250383 
L 304.613476 449.182995 
L 304.798686 452.284077 
L 304.983897 452.973207 
L 305.169107 447.804736 
L 305.354317 451.939512 
L 305.539527 450.905818 
L 305.724737 446.081913 
L 305.909947 451.594948 
L 306.095157 449.872124 
L 306.280367 451.939512 
L 306.465577 457.107983 
L 306.650787 441.947136 
L 307.021208 451.250383 
L 307.206418 447.460171 
L 307.391628 446.081913 
L 307.576838 446.771042 
L 307.947258 451.250383 
L 308.132468 442.98083 
L 308.317678 447.115607 
L 308.502888 444.703654 
L 308.688098 448.149301 
L 308.873308 449.182995 
L 309.058519 448.149301 
L 309.243729 445.392783 
L 309.428939 444.703654 
L 309.614149 445.392783 
L 309.799359 450.216689 
L 309.984569 440.913442 
L 310.169779 446.426477 
L 310.354989 445.737348 
L 310.540199 447.115607 
L 310.725409 444.703654 
L 310.910619 439.535183 
L 311.09583 442.291701 
L 311.28104 448.83843 
L 311.46625 437.81236 
L 311.65146 447.804736 
L 311.83667 433.333019 
L 312.02188 449.182995 
L 312.3923 438.501489 
L 312.57751 445.048218 
L 312.76272 441.602571 
L 312.94793 441.602571 
L 313.13314 440.224313 
L 313.318351 447.460171 
L 313.503561 437.12323 
L 313.873981 452.284077 
L 314.059191 451.250383 
L 314.244401 438.846054 
L 314.429611 442.636266 
L 314.614821 436.089536 
L 314.800031 442.636266 
L 314.985241 443.325395 
L 315.170451 441.258007 
L 315.355662 443.325395 
L 315.540872 439.190619 
L 315.726082 438.846054 
L 315.911292 445.737348 
L 316.096502 445.048218 
L 316.281712 438.846054 
L 316.466922 447.804736 
L 316.652132 444.703654 
L 316.837342 443.66996 
L 317.022552 437.12323 
L 317.207762 443.325395 
L 317.392973 441.602571 
L 317.578183 441.602571 
L 317.763393 439.535183 
L 317.948603 445.392783 
L 318.133813 438.501489 
L 318.319023 440.568877 
L 318.504233 440.224313 
L 318.689443 434.366713 
L 318.874653 441.947136 
L 319.059863 436.089536 
L 319.245073 439.190619 
L 319.430284 439.535183 
L 319.615494 441.602571 
L 319.800704 437.467795 
L 319.985914 438.501489 
L 320.171124 441.947136 
L 320.356334 429.887372 
L 320.541544 442.98083 
L 320.726754 430.576501 
L 320.911964 437.81236 
L 321.097174 439.535183 
L 321.282384 434.366713 
L 321.467595 438.156924 
L 321.652805 437.467795 
L 321.838015 438.501489 
L 322.023225 435.744972 
L 322.208435 435.400407 
L 322.393645 441.258007 
L 322.578855 437.467795 
L 322.764065 440.224313 
L 322.949275 434.711277 
L 323.134485 438.846054 
L 323.319695 432.643889 
L 323.504905 431.95476 
L 323.690116 439.190619 
L 324.060536 422.651513 
L 324.245746 437.81236 
L 324.430956 435.744972 
L 324.616166 430.576501 
L 324.801376 434.711277 
L 324.986586 430.921066 
L 325.171796 430.576501 
L 325.357006 434.711277 
L 325.542216 413.692831 
L 325.727427 432.299325 
L 325.912637 429.887372 
L 326.097847 436.089536 
L 326.283057 427.130854 
L 326.468267 436.778666 
L 326.653477 434.711277 
L 326.838687 438.501489 
L 327.023897 428.853678 
L 327.209107 433.677583 
L 327.394317 425.408031 
L 327.579527 436.089536 
L 327.764738 437.81236 
L 328.135158 421.962384 
L 328.320368 432.643889 
L 328.690788 418.172172 
L 328.875998 424.718901 
L 329.061208 422.651513 
L 329.246418 430.576501 
L 329.431628 430.921066 
L 329.616838 417.138478 
L 329.802049 414.38196 
L 329.987259 426.09716 
L 330.172469 429.198242 
L 330.357679 418.861301 
L 330.728099 427.819983 
L 330.913309 418.861301 
L 331.098519 433.333019 
L 331.283729 431.95476 
L 331.468939 425.752595 
L 331.654149 434.711277 
L 331.83936 425.752595 
L 332.02457 428.509113 
L 332.20978 418.861301 
L 332.39499 418.516737 
L 332.76541 425.408031 
L 332.95062 431.95476 
L 333.13583 423.685207 
L 333.32104 425.063466 
L 333.50625 424.029772 
L 333.69146 419.550431 
L 333.87667 419.894995 
L 334.061881 417.827607 
L 334.247091 430.576501 
L 334.432301 413.348266 
L 334.617511 419.550431 
L 334.802721 417.483042 
L 334.987931 423.340642 
L 335.173141 415.760219 
L 335.358351 424.374336 
L 335.543561 409.21349 
L 335.728771 419.205866 
L 335.913981 414.38196 
L 336.099192 420.928689 
L 336.284402 410.591748 
L 336.469612 408.52436 
L 336.654822 417.483042 
L 336.840032 415.760219 
L 337.025242 404.045019 
L 337.210452 414.726525 
L 337.580872 418.516737 
L 337.766082 410.247184 
L 337.951292 410.247184 
L 338.136503 406.801537 
L 338.321713 411.970007 
L 338.506923 409.21349 
L 338.692133 415.415654 
L 338.877343 412.659137 
L 339.062553 404.389584 
L 339.432973 411.625443 
L 339.618183 418.172172 
L 339.803393 418.172172 
L 339.988603 414.037395 
L 340.173814 400.254807 
L 340.359024 416.793913 
L 340.544234 400.943937 
L 340.729444 416.104784 
L 341.099864 403.35589 
L 341.285074 410.936313 
L 341.470284 405.767843 
L 341.655494 405.423278 
L 341.840704 400.599372 
L 342.025914 417.827607 
L 342.211125 405.078713 
L 342.396335 416.104784 
L 342.766755 400.599372 
L 342.951965 407.490666 
L 343.137175 403.700454 
L 343.322385 410.936313 
L 343.507595 400.254807 
L 343.692805 403.011325 
L 343.878015 403.011325 
L 344.063225 401.288502 
L 344.248436 389.917866 
L 344.433646 401.977631 
L 344.804066 404.389584 
L 344.989276 399.910243 
L 345.174486 402.322196 
L 345.359696 397.49829 
L 345.544906 397.153725 
L 345.730116 406.456972 
L 345.915326 385.78309 
L 346.100536 394.397208 
L 346.285746 396.464596 
L 346.470957 388.884172 
L 346.656167 404.045019 
L 346.841377 398.187419 
L 347.026587 396.464596 
L 347.211797 384.749396 
L 347.397007 400.943937 
L 347.582217 397.842855 
L 347.767427 405.767843 
L 347.952637 388.195043 
L 348.137847 391.985255 
L 348.323057 400.599372 
L 348.508268 393.708078 
L 348.878688 397.153725 
L 349.249108 385.093961 
L 349.434318 385.093961 
L 349.619528 388.195043 
L 349.804738 381.303749 
L 349.989948 398.187419 
L 350.175158 379.236361 
L 350.360368 380.61462 
L 350.545579 387.161349 
L 350.730789 383.371137 
L 350.915999 384.404831 
L 351.101209 389.573302 
L 351.286419 404.734149 
L 351.471629 375.446149 
L 351.656839 388.884172 
L 351.842049 387.161349 
L 352.212469 366.487467 
L 352.397679 381.992878 
L 352.58289 384.060267 
L 352.7681 377.168973 
L 352.95331 378.891796 
L 353.13852 382.337443 
L 353.32373 378.202667 
L 353.50894 378.891796 
L 353.69415 384.404831 
L 353.87936 375.790714 
L 354.06457 377.513537 
L 354.24978 361.318996 
L 354.620201 385.438525 
L 354.990621 365.109208 
L 355.175831 366.832032 
L 355.361041 380.959184 
L 355.546251 362.008126 
L 355.731461 381.648314 
L 356.101881 366.487467 
L 356.287091 376.135278 
L 356.472301 367.521161 
L 356.657511 376.135278 
L 356.842722 363.730949 
L 357.027932 377.168973 
L 357.213142 359.251608 
L 357.398352 362.697255 
L 357.583562 360.974432 
L 357.768772 373.034196 
L 357.953982 345.46902 
L 358.139192 362.352691 
L 358.324402 356.495091 
L 358.509612 370.277679 
L 359.065243 360.629867 
L 359.250453 360.974432 
L 359.435663 354.427702 
L 359.620873 353.049444 
L 359.806083 366.142902 
L 359.991293 346.502714 
L 360.176503 355.116832 
L 360.361713 346.502714 
L 360.546923 346.847279 
L 360.732133 353.049444 
L 360.917344 349.259232 
L 361.102554 343.057067 
L 361.472974 348.225538 
L 361.658184 346.15815 
L 361.843394 333.064691 
L 362.399024 353.738573 
L 362.769444 337.544032 
L 362.954655 338.922291 
L 363.139865 338.922291 
L 363.325075 349.603797 
L 363.510285 345.124456 
L 363.695495 334.44295 
L 363.880705 341.678809 
L 364.065915 336.510338 
L 364.251125 323.761444 
L 364.436335 340.989679 
L 364.621545 341.334244 
L 364.806755 338.922291 
L 364.991966 339.955985 
L 365.362386 323.761444 
L 365.547596 340.645114 
L 365.918016 327.551656 
L 366.103226 334.098385 
L 366.288436 330.652738 
L 366.473646 331.341868 
L 366.658856 326.862526 
L 367.214487 322.383185 
L 367.399697 322.383185 
L 367.584907 314.802762 
L 367.770117 318.592974 
L 367.955327 312.390809 
L 368.140537 318.248409 
L 368.325747 332.720126 
L 368.510957 302.398433 
L 368.696167 301.364739 
L 369.066587 323.416879 
L 369.251798 321.349491 
L 369.437008 303.776692 
L 369.622218 307.222339 
L 369.807428 313.424503 
L 369.992638 297.229962 
L 370.177848 303.776692 
L 370.363058 301.709303 
L 370.548268 295.162574 
L 370.733478 283.447374 
L 370.918688 304.121256 
L 371.103898 297.574527 
L 371.289109 298.263656 
L 371.474319 288.960409 
L 371.659529 296.196268 
L 371.844739 293.439751 
L 372.029949 286.548457 
L 372.215159 292.061492 
L 372.400369 272.076739 
L 372.585579 293.095186 
L 372.770789 298.952786 
L 372.955999 283.791939 
L 373.32642 277.589774 
L 373.51163 280.690857 
L 373.69684 291.372362 
L 373.88205 285.859327 
L 374.06726 290.683233 
L 374.25247 278.968033 
L 374.43768 260.016975 
L 374.8081 285.859327 
L 374.99331 275.866951 
L 375.17852 274.833257 
L 375.548941 262.773492 
L 375.734151 265.53001 
L 375.919361 275.177821 
L 376.104571 270.009351 
L 376.289781 250.024598 
L 376.474991 271.732174 
L 376.845411 256.915892 
L 377.030621 257.260457 
L 377.215831 258.983281 
L 377.401042 262.428928 
L 377.586252 261.050669 
L 377.771462 261.395233 
L 377.956672 255.882198 
L 378.141882 260.361539 
L 378.327092 271.38761 
L 378.512302 240.376787 
L 378.697512 254.848504 
L 378.882722 232.796363 
L 379.253142 253.470245 
L 379.438352 236.586575 
L 379.623563 234.519187 
L 379.808773 245.545257 
L 379.993983 233.485493 
L 380.179193 248.990904 
L 380.364403 231.418105 
L 380.549613 239.343093 
L 380.734823 234.863752 
L 381.105243 235.552881 
L 381.290453 218.324646 
L 381.475663 233.140928 
L 381.660874 222.803987 
L 381.846084 222.803987 
L 382.031294 224.526811 
L 382.216504 215.223564 
L 382.401714 224.526811 
L 382.586924 210.744223 
L 382.772134 212.811611 
L 383.142554 226.938764 
L 383.327764 223.493117 
L 383.698185 206.954011 
L 383.883395 237.620269 
L 384.439025 188.002952 
L 384.624235 220.392034 
L 384.994655 193.171423 
L 385.179865 199.373588 
L 385.365075 178.355141 
L 385.550285 202.819235 
L 385.735496 189.381211 
L 386.105916 205.231187 
L 386.291126 178.355141 
L 386.476336 201.440976 
L 386.661546 185.246435 
L 386.846756 182.145353 
L 387.031966 195.583376 
L 387.217176 167.673635 
L 387.402386 192.482294 
L 387.587596 194.549682 
L 387.772807 183.523611 
L 387.958017 187.313823 
L 388.143227 172.152976 
L 388.328437 191.793164 
L 388.513647 199.373588 
L 388.698857 198.684458 
L 388.884067 188.002952 
L 389.069277 149.756271 
L 389.254487 166.984506 
L 389.624907 170.430153 
L 389.810117 183.523611 
L 390.180538 167.673635 
L 390.365748 167.32907 
L 390.550958 161.816035 
L 390.736168 173.18667 
L 390.921378 160.782341 
L 391.291798 176.287753 
L 391.477008 169.741023 
L 391.662218 190.414905 
L 391.847428 163.538859 
L 392.217849 153.546482 
L 392.403059 186.969258 
L 392.773479 177.666011 
L 393.143899 153.201918 
L 393.329109 164.917118 
L 393.514319 159.748647 
L 393.699529 175.254059 
L 393.884739 165.950812 
L 394.06995 163.883423 
L 394.44037 149.067141 
L 394.62558 151.13453 
L 394.81079 174.564929 
L 395.18121 153.546482 
L 395.36642 172.497541 
L 395.55163 174.220364 
L 395.92205 156.303 
L 396.292471 170.085588 
L 396.477681 161.471471 
L 397.033311 172.152976 
L 397.218521 157.336694 
L 397.403731 185.246435 
L 397.588941 167.673635 
L 397.774151 185.246435 
L 397.959361 173.18667 
L 398.144572 172.842106 
L 398.329782 160.093212 
L 398.514992 176.632317 
L 398.700202 171.463847 
L 398.885412 184.90187 
L 399.070622 183.523611 
L 399.255832 177.321447 
L 399.441042 178.699706 
L 399.626252 186.624694 
L 399.811462 171.808412 
L 399.996672 179.04427 
L 400.181883 162.849729 
L 400.367093 194.894246 
L 400.552303 178.699706 
L 400.737513 172.497541 
L 401.107933 226.249634 
L 401.293143 217.980081 
L 401.848773 274.833257 
L 402.033983 289.649539 
L 402.219193 284.136504 
L 402.404404 289.304974 
L 402.774824 338.577726 
L 402.960034 353.738573 
L 403.145244 353.394008 
L 403.330454 365.109208 
L 403.515664 390.606996 
L 403.700874 399.221113 
L 403.886084 393.363513 
L 404.626925 422.996078 
L 404.812135 429.887372 
L 405.182555 449.182995 
L 405.367765 445.048218 
L 405.738185 457.797112 
L 406.108605 464.343842 
L 406.293815 471.5797 
L 406.479026 467.444924 
L 406.664236 474.680783 
L 406.849446 469.167747 
L 407.034656 476.059041 
L 407.219866 476.748171 
L 407.590286 480.193818 
L 407.960706 468.134053 
L 408.145916 476.059041 
L 408.331126 472.957959 
L 408.516337 466.41123 
L 408.701547 468.823183 
L 408.886757 454.351465 
L 409.071967 456.418854 
L 409.812807 441.258007 
L 409.998017 429.887372 
L 410.368437 423.685207 
L 410.553648 411.970007 
L 410.738858 415.07109 
L 410.924068 393.708078 
L 411.109278 391.296125 
L 412.220538 311.70168 
L 412.405748 319.971232 
L 413.146589 256.226763 
L 413.331799 258.983281 
L 413.517009 223.493117 
L 413.702219 222.114858 
L 414.072639 178.699706 
L 414.257849 179.04427 
L 414.443059 198.339893 
L 414.81348 183.523611 
L 414.99869 204.542058 
L 415.1839 185.246435 
L 415.36911 189.725776 
L 415.55432 170.774717 
L 415.73953 177.666011 
L 415.92474 179.04427 
L 416.10995 173.531235 
L 416.29516 187.658388 
L 416.66558 162.849729 
L 416.850791 178.355141 
L 417.036001 179.388835 
L 417.221211 178.355141 
L 417.406421 157.336694 
L 417.591631 179.7334 
L 417.776841 160.437776 
L 417.962051 165.606247 
L 418.147261 158.370388 
L 418.332471 155.613871 
L 418.517681 162.849729 
L 418.702891 162.1606 
L 418.888102 155.269306 
L 419.073312 167.32907 
L 419.258522 136.662812 
L 419.443732 193.860552 
L 419.628942 161.816035 
L 419.814152 195.927941 
L 419.999362 156.303 
L 420.184572 164.917118 
L 420.369782 159.404082 
L 420.554992 161.816035 
L 420.740202 137.696506 
L 421.110623 188.347517 
L 421.295833 158.025824 
L 421.481043 163.883423 
L 421.851463 151.479094 
L 422.036673 173.18667 
L 422.221883 172.842106 
L 422.407093 176.976882 
L 422.592303 185.591 
L 422.777513 179.7334 
L 422.962723 169.396459 
L 423.147934 168.707329 
L 423.333144 166.639941 
L 423.703564 179.388835 
L 423.888774 169.051894 
L 424.073984 174.220364 
L 424.259194 169.051894 
L 424.444404 183.868176 
L 424.629614 170.430153 
L 424.814824 182.834482 
L 425.000034 162.849729 
L 425.185245 158.025824 
L 425.370455 171.463847 
L 425.555665 163.538859 
L 425.740875 171.119282 
L 425.926085 163.538859 
L 426.111295 187.658388 
L 426.296505 166.639941 
L 426.481715 169.741023 
L 426.666925 192.137729 
L 426.852135 164.572553 
L 427.037345 198.339893 
L 427.222556 176.632317 
L 427.407766 179.7334 
L 427.592976 193.515988 
L 427.778186 188.347517 
L 427.963396 190.414905 
L 428.148606 191.104035 
L 428.333816 193.171423 
L 428.519026 181.800788 
L 428.704236 189.381211 
L 428.889446 204.542058 
L 429.074656 183.523611 
L 429.259867 194.549682 
L 429.445077 213.50074 
L 429.630287 195.927941 
L 429.815497 211.433352 
L 430.000707 214.534434 
L 430.185917 200.751846 
L 430.371127 198.684458 
L 430.556337 190.75947 
L 430.741547 217.980081 
L 430.926757 203.508364 
L 431.111967 215.223564 
L 431.297178 213.50074 
L 431.482388 216.946387 
L 431.852808 204.542058 
L 432.223228 227.283328 
L 432.593648 217.980081 
L 432.964068 209.365964 
L 433.149278 229.350716 
L 433.334489 206.609446 
L 433.519699 213.156176 
L 433.704909 239.343093 
L 433.890119 227.627893 
L 434.075329 230.384411 
L 434.260539 220.736599 
L 434.630959 239.687657 
L 434.816169 235.208316 
L 435.001379 257.260457 
L 435.186589 245.889822 
L 435.371799 246.234387 
L 435.55701 236.586575 
L 435.74222 250.369163 
L 435.92743 250.024598 
L 436.11264 236.93114 
L 436.29785 253.125681 
L 436.66827 260.361539 
L 436.85348 251.747422 
L 437.03869 268.975657 
L 437.2239 250.369163 
L 437.594321 264.151751 
L 437.779531 245.545257 
L 437.964741 265.874575 
L 438.149951 262.773492 
L 438.335161 245.545257 
L 438.520371 274.488692 
L 438.705581 262.773492 
L 439.076001 285.170198 
L 439.446421 252.091987 
L 439.631632 283.791939 
L 439.816842 290.338668 
L 440.187262 271.043045 
L 440.372472 261.739798 
L 440.557682 274.144127 
L 440.742892 273.110433 
L 441.113312 278.623468 
L 441.298522 290.338668 
L 441.483732 291.372362 
L 441.668943 268.631092 
L 441.854153 275.522386 
L 442.224573 296.885398 
L 442.409783 282.41368 
L 442.965413 303.087562 
L 443.150623 280.346292 
L 443.335833 296.196268 
L 443.521043 301.709303 
L 443.706254 301.709303 
L 444.076674 312.735374 
L 444.261884 309.634291 
L 444.447094 301.020174 
L 444.632304 309.289727 
L 444.817514 326.517962 
L 445.002724 315.147327 
L 445.187934 296.196268 
L 445.558354 314.113633 
L 445.743564 319.282103 
L 445.928775 297.229962 
L 446.113985 324.106009 
L 446.299195 317.55928 
L 446.669615 315.147327 
L 446.854825 314.802762 
L 447.040035 328.240785 
L 447.225245 314.113633 
L 447.410455 317.214715 
L 447.595665 305.15495 
L 447.966086 333.064691 
L 448.151296 330.652738 
L 448.336506 319.282103 
L 448.521716 328.58535 
L 448.706926 321.694056 
L 448.892136 324.450574 
L 449.077346 330.652738 
L 449.262556 326.862526 
L 449.447766 345.813585 
L 449.632976 325.139703 
L 449.818186 327.551656 
L 450.003397 324.450574 
L 450.188607 319.282103 
L 450.373817 330.997303 
L 450.559027 334.787515 
L 450.744237 346.502714 
L 450.929447 335.476644 
L 451.114657 333.064691 
L 451.299867 338.922291 
L 451.485077 349.948361 
L 451.670287 347.536408 
L 452.040708 334.098385 
L 452.225918 347.880973 
L 452.411128 334.787515 
L 452.596338 357.873349 
L 452.781548 350.292926 
L 452.966758 353.738573 
L 453.522388 341.334244 
L 453.707598 353.049444 
L 453.892808 344.779891 
L 454.078019 352.01575 
L 454.263229 364.764643 
L 454.448439 342.023373 
L 454.633649 361.663561 
L 454.818859 360.285302 
L 455.004069 353.049444 
L 455.189279 350.292926 
L 455.374489 356.495091 
L 455.559699 357.873349 
L 455.744909 355.116832 
L 455.930119 369.588549 
L 456.30054 363.730949 
L 456.48575 373.378761 
L 457.04138 359.251608 
L 457.22659 356.839655 
L 457.4118 360.285302 
L 457.59701 369.588549 
L 457.78222 369.243985 
L 457.96743 361.663561 
L 458.15264 362.008126 
L 458.337851 371.311373 
L 458.523061 369.933114 
L 458.708271 360.629867 
L 458.893481 363.386385 
L 459.078691 376.135278 
L 459.263901 363.386385 
L 459.449111 378.891796 
L 459.634321 377.858102 
L 459.819531 365.109208 
L 460.004741 376.824408 
L 460.189951 374.412455 
L 460.375162 368.89942 
L 460.560372 374.06789 
L 460.745582 365.109208 
L 461.116002 376.135278 
L 461.301212 373.378761 
L 461.486422 379.92549 
L 461.671632 381.303749 
L 461.856842 375.790714 
L 462.042052 379.236361 
L 462.227262 378.202667 
L 462.412473 373.378761 
L 462.782893 390.262431 
L 462.968103 384.404831 
L 463.153313 385.093961 
L 463.338523 386.472219 
L 463.523733 375.446149 
L 463.708943 388.195043 
L 463.894153 388.195043 
L 464.079363 380.959184 
L 464.264573 379.92549 
L 464.449784 390.606996 
L 464.820204 397.49829 
L 465.005414 388.195043 
L 465.190624 385.78309 
L 465.375834 387.161349 
L 465.746254 379.236361 
L 465.931464 390.262431 
L 466.116674 390.606996 
L 466.301884 388.195043 
L 466.487095 392.674384 
L 466.672305 393.018949 
L 466.857515 391.985255 
L 467.042725 390.262431 
L 467.227935 398.187419 
L 467.413145 401.288502 
L 467.598355 400.254807 
L 467.783565 383.371137 
L 467.968775 401.977631 
L 468.153985 403.35589 
L 468.339195 402.322196 
L 468.524405 395.086337 
L 468.709616 394.052643 
L 468.894826 397.842855 
L 469.265246 393.018949 
L 469.450456 410.247184 
L 469.635666 401.633066 
L 469.820876 401.977631 
L 470.006086 394.052643 
L 470.376506 401.977631 
L 470.561716 395.775466 
L 470.746927 401.633066 
L 470.932137 395.775466 
L 471.117347 405.423278 
L 471.302557 405.767843 
L 471.487767 411.625443 
L 471.672977 405.423278 
L 471.858187 403.011325 
L 472.043397 407.146101 
L 472.228607 407.490666 
L 472.413817 400.254807 
L 472.599027 400.254807 
L 472.784238 396.464596 
L 472.969448 402.66676 
L 473.154658 402.322196 
L 473.339868 404.734149 
L 473.710288 415.760219 
L 473.895498 407.835231 
L 474.080708 412.314572 
L 474.265918 411.280878 
L 474.451128 410.936313 
L 474.636338 400.943937 
L 475.191969 408.868925 
L 475.377179 413.003701 
L 475.562389 413.692831 
L 475.747599 418.516737 
L 475.932809 408.179796 
L 476.118019 411.280878 
L 476.303229 418.172172 
L 476.488439 409.21349 
L 476.673649 413.348266 
L 476.85886 412.314572 
L 477.04407 416.104784 
L 477.22928 410.591748 
L 477.41449 415.760219 
L 477.5997 425.752595 
L 477.97012 398.531984 
L 478.15533 414.726525 
L 478.34054 415.415654 
L 478.52575 412.314572 
L 478.71096 412.314572 
L 478.89617 420.928689 
L 479.081381 403.011325 
L 479.266591 409.902619 
L 479.451801 422.996078 
L 479.822221 412.314572 
L 480.007431 425.408031 
L 480.192641 423.340642 
L 480.377851 422.651513 
L 480.563061 420.584125 
L 480.748271 421.962384 
L 480.933481 427.475419 
L 481.118692 428.509113 
L 481.489112 415.415654 
L 481.674322 420.584125 
L 481.859532 422.306948 
L 482.044742 419.894995 
L 482.229952 430.921066 
L 482.415162 415.415654 
L 482.785582 422.306948 
L 482.970792 417.138478 
L 483.156003 423.340642 
L 483.341213 421.962384 
L 483.526423 427.475419 
L 483.711633 423.685207 
L 483.896843 426.786289 
L 484.267263 421.273254 
L 484.637683 425.752595 
L 484.822893 418.516737 
L 485.193314 432.988454 
L 485.378524 427.130854 
L 485.563734 430.576501 
L 485.748944 427.130854 
L 485.934154 430.576501 
L 486.119364 411.280878 
L 486.304574 433.677583 
L 486.489784 417.483042 
L 486.860204 434.711277 
L 487.045414 423.685207 
L 487.230625 433.677583 
L 487.415835 421.273254 
L 487.601045 433.333019 
L 487.786255 427.819983 
L 487.971465 429.198242 
L 488.156675 427.475419 
L 488.341885 430.576501 
L 488.527095 427.819983 
L 488.712305 438.156924 
L 488.897515 427.819983 
L 489.082725 437.81236 
L 489.453146 431.26563 
L 489.638356 432.643889 
L 489.823566 428.164548 
L 490.008776 439.190619 
L 490.193986 439.190619 
L 490.379196 438.846054 
L 490.564406 427.819983 
L 490.934826 432.299325 
L 491.120036 437.12323 
L 491.305246 432.643889 
L 491.490457 436.089536 
L 491.675667 435.400407 
L 491.860877 430.231936 
L 492.046087 430.576501 
L 492.231297 432.299325 
L 492.416507 432.299325 
L 492.601717 437.467795 
L 492.786927 432.299325 
L 493.157347 436.778666 
L 493.342557 431.95476 
L 493.527768 430.576501 
L 493.712978 431.26563 
L 493.898188 445.737348 
L 494.083398 437.12323 
L 494.268608 434.022148 
L 494.453818 445.737348 
L 494.639028 442.636266 
L 494.824238 436.089536 
L 495.009448 437.12323 
L 495.194658 431.95476 
L 495.379868 437.81236 
L 495.565079 433.677583 
L 495.750289 432.299325 
L 496.120709 443.66996 
L 496.491129 438.156924 
L 496.676339 441.602571 
L 496.861549 433.333019 
L 497.046759 440.568877 
L 497.231969 443.325395 
L 497.417179 443.66996 
L 497.60239 441.947136 
L 497.7876 442.291701 
L 497.97281 449.182995 
L 498.15802 442.636266 
L 498.34323 440.913442 
L 498.52844 440.568877 
L 498.89886 449.872124 
L 499.26928 431.610195 
L 499.45449 440.224313 
L 499.639701 440.224313 
L 499.824911 441.258007 
L 500.010121 443.66996 
L 500.195331 439.879748 
L 500.380541 442.98083 
L 500.565751 441.258007 
L 500.750961 441.602571 
L 500.936171 445.737348 
L 501.121381 445.392783 
L 501.306591 444.014524 
L 501.491801 448.149301 
L 501.677011 442.98083 
L 501.862222 449.182995 
L 502.047432 438.156924 
L 502.417852 445.392783 
L 502.603062 444.703654 
L 502.788272 445.737348 
L 502.973482 444.359089 
L 503.158692 455.040595 
L 503.529112 441.947136 
L 503.714322 436.434101 
L 504.269953 452.973207 
L 504.455163 448.83843 
L 504.640373 448.493865 
L 504.825583 446.081913 
L 505.010793 441.947136 
L 505.196003 449.872124 
L 505.381213 446.426477 
L 505.566423 455.040595 
L 505.751633 446.771042 
L 505.936844 449.52756 
L 506.122054 449.182995 
L 506.307264 451.250383 
L 506.677684 445.737348 
L 506.862894 450.216689 
L 507.048104 438.846054 
L 507.233314 447.460171 
L 507.603734 444.703654 
L 507.788944 447.460171 
L 507.974155 456.418854 
L 508.159365 451.250383 
L 508.344575 449.872124 
L 508.529785 447.115607 
L 508.714995 451.939512 
L 508.900205 450.905818 
L 509.270625 456.074289 
L 509.455835 446.426477 
L 509.641045 456.418854 
L 509.826255 448.83843 
L 510.011466 448.149301 
L 510.196676 448.493865 
L 510.381886 448.493865 
L 510.567096 452.284077 
L 510.752306 447.804736 
L 510.937516 447.804736 
L 511.122726 446.771042 
L 511.307936 448.149301 
L 511.493146 448.149301 
L 511.678356 446.081913 
L 511.863566 452.973207 
L 512.233987 448.493865 
L 512.419197 455.729724 
L 512.604407 456.418854 
L 512.974827 449.182995 
L 513.160037 448.83843 
L 513.345247 452.284077 
L 513.900877 455.040595 
L 514.086087 452.628642 
L 514.271298 448.149301 
L 514.456508 457.107983 
L 514.641718 457.107983 
L 514.826928 454.69603 
L 515.012138 448.83843 
L 515.197348 448.149301 
L 515.382558 453.662336 
L 515.567768 454.351465 
L 515.752978 453.317771 
L 515.938188 455.385159 
L 516.123398 452.973207 
L 516.493819 458.141677 
L 516.679029 454.69603 
L 517.049449 460.209065 
L 517.234659 456.763418 
L 517.419869 458.486242 
L 517.605079 455.385159 
L 517.975499 464.688406 
L 518.160709 451.594948 
L 518.53113 458.486242 
L 518.71634 453.662336 
L 518.90155 455.385159 
L 519.08676 461.242759 
L 519.27197 458.830806 
L 519.45718 452.973207 
L 519.64239 461.587324 
L 519.8276 460.209065 
L 520.01281 452.284077 
L 520.19802 454.69603 
L 520.383231 458.830806 
L 520.568441 455.385159 
L 520.753651 457.107983 
L 520.938861 455.385159 
L 521.124071 455.729724 
L 521.309281 451.939512 
L 521.494491 458.486242 
L 521.679701 460.209065 
L 521.864911 452.628642 
L 522.420542 459.864501 
L 522.605752 456.074289 
L 522.790962 460.898195 
L 522.976172 459.519936 
L 523.161382 454.351465 
L 523.346592 453.317771 
L 523.717012 462.276453 
L 523.902222 458.830806 
L 524.087432 459.864501 
L 524.272642 455.040595 
L 524.457852 457.797112 
L 524.643063 458.830806 
L 524.828273 455.385159 
L 525.013483 463.654712 
L 525.198693 458.486242 
L 525.383903 458.830806 
L 525.569113 459.864501 
L 525.754323 455.385159 
L 525.939533 462.965583 
L 526.124743 460.209065 
L 526.309953 461.931889 
L 526.495163 455.729724 
L 526.680374 459.519936 
L 526.865584 457.452548 
L 527.050794 466.066665 
L 527.236004 458.830806 
L 527.421214 460.55363 
L 527.606424 466.755795 
L 527.791634 458.486242 
L 527.976844 462.621018 
L 528.162054 463.310148 
L 528.347264 458.486242 
L 528.532474 462.965583 
L 528.717685 461.931889 
L 528.902895 459.519936 
L 529.088105 462.965583 
L 529.458525 456.418854 
L 529.643735 465.7221 
L 529.828945 461.931889 
L 530.014155 461.931889 
L 530.199365 460.209065 
L 530.569785 466.41123 
L 530.754996 458.486242 
L 530.940206 460.55363 
L 531.125416 460.55363 
L 531.310626 461.587324 
L 531.495836 466.41123 
L 531.681046 457.107983 
L 531.866256 467.100359 
L 532.051466 467.789489 
L 532.236676 459.864501 
L 532.421886 465.7221 
L 532.607096 458.830806 
L 532.977517 463.999277 
L 533.162727 454.69603 
L 533.347937 463.999277 
L 533.718357 457.452548 
L 534.088777 465.377536 
L 534.273987 455.729724 
L 534.459197 465.377536 
L 534.644407 467.100359 
L 535.014828 461.242759 
L 535.200038 466.755795 
L 535.570458 460.55363 
L 535.755668 470.201442 
L 536.126088 467.444924 
L 536.311298 460.898195 
L 536.496508 468.478618 
L 536.866928 463.310148 
L 537.052139 463.310148 
L 537.237349 458.830806 
L 537.422559 469.856877 
L 537.607769 468.823183 
L 537.792979 464.688406 
L 537.978189 467.100359 
L 538.163399 461.587324 
L 538.348609 464.688406 
L 538.533819 462.621018 
L 538.719029 465.377536 
L 538.904239 463.999277 
L 539.08945 463.654712 
L 539.45987 465.7221 
L 539.64508 466.066665 
L 539.83029 465.377536 
L 540.0155 465.7221 
L 540.20071 470.546006 
L 540.38592 465.032971 
L 540.57113 465.377536 
L 540.75634 467.100359 
L 541.311971 465.377536 
L 541.682391 462.276453 
L 541.867601 462.621018 
L 542.052811 467.789489 
L 542.238021 461.587324 
L 542.423231 460.55363 
L 542.608441 468.134053 
L 542.793651 468.478618 
L 542.978861 461.587324 
L 543.164072 467.100359 
L 543.349282 468.134053 
L 543.719702 465.032971 
L 543.904912 465.7221 
L 544.275332 471.5797 
L 544.460542 463.999277 
L 544.645752 463.999277 
L 544.830962 467.100359 
L 545.016172 467.444924 
L 545.201383 466.755795 
L 545.386593 467.444924 
L 545.757013 463.310148 
L 545.942223 470.890571 
L 546.127433 467.100359 
L 546.312643 465.7221 
L 546.497853 468.134053 
L 546.683063 466.41123 
L 546.868273 471.5797 
L 547.053483 471.924265 
L 547.238693 469.167747 
L 547.423904 463.654712 
L 547.609114 468.134053 
L 547.794324 469.167747 
L 547.979534 467.789489 
L 548.164744 463.310148 
L 548.349954 467.444924 
L 548.535164 468.134053 
L 548.720374 466.066665 
L 549.090794 469.167747 
L 549.276004 468.134053 
L 549.461215 466.066665 
L 549.646425 469.512312 
L 549.831635 467.444924 
L 550.202055 471.5797 
L 550.387265 470.890571 
L 550.572475 471.5797 
L 550.757685 468.823183 
L 550.942895 472.613394 
L 551.128105 466.41123 
L 551.313315 465.032971 
L 551.498526 467.100359 
L 551.683736 473.647089 
L 551.868946 472.26883 
L 552.054156 469.512312 
L 552.239366 470.546006 
L 552.424576 466.755795 
L 552.609786 468.478618 
L 552.794996 472.957959 
L 552.980206 465.377536 
L 553.165416 472.613394 
L 553.350626 472.957959 
L 553.535837 469.856877 
L 553.721047 468.823183 
L 553.906257 471.5797 
L 554.091467 467.789489 
L 554.276677 467.444924 
L 554.647097 465.377536 
L 554.832307 469.512312 
L 555.017517 469.856877 
L 555.202727 475.369912 
L 555.387937 466.755795 
L 555.573148 467.100359 
L 555.758358 467.789489 
L 556.128778 471.235136 
L 556.313988 469.167747 
L 556.499198 471.5797 
L 556.684408 467.444924 
L 556.869618 468.478618 
L 557.054828 465.377536 
L 557.240038 466.41123 
L 557.425248 469.167747 
L 557.610458 470.201442 
L 557.795669 473.302524 
L 557.980879 469.856877 
L 558.166089 469.167747 
L 558.351299 470.546006 
L 558.536509 467.444924 
L 558.906929 472.613394 
L 559.092139 473.647089 
L 559.277349 471.5797 
L 559.462559 466.755795 
L 559.647769 471.924265 
L 559.83298 471.235136 
L 560.01819 471.235136 
L 560.2034 470.890571 
L 560.38861 470.201442 
L 560.75903 475.369912 
L 560.94424 478.470994 
L 561.12945 469.856877 
L 561.31466 472.613394 
L 561.49987 469.856877 
L 561.68508 475.025347 
L 561.870291 470.201442 
L 562.055501 474.336218 
L 562.240711 473.302524 
L 562.425921 473.647089 
L 562.611131 467.100359 
L 562.796341 468.478618 
L 562.981551 465.7221 
L 563.166761 472.613394 
L 563.351971 469.167747 
L 563.537181 473.302524 
L 563.722391 474.680783 
L 563.907602 470.546006 
L 564.092812 475.025347 
L 564.463232 463.999277 
L 564.648442 475.369912 
L 564.833652 468.478618 
L 565.018862 477.4373 
L 565.204072 472.26883 
L 565.389282 471.924265 
L 565.574492 469.856877 
L 565.944913 473.302524 
L 566.315333 469.856877 
L 566.685753 475.714477 
L 566.870963 468.823183 
L 567.056173 467.100359 
L 567.241383 469.856877 
L 567.426593 470.890571 
L 567.611803 474.336218 
L 567.797013 469.167747 
L 567.982223 475.369912 
L 568.167434 467.100359 
L 568.537854 472.957959 
L 568.723064 471.924265 
L 568.908274 475.714477 
L 569.093484 470.201442 
L 569.278694 476.748171 
L 569.463904 470.546006 
L 569.834324 475.025347 
L 570.204745 469.167747 
L 570.389955 476.403606 
L 570.760375 470.890571 
L 570.945585 477.4373 
L 571.130795 472.613394 
L 571.316005 473.647089 
L 571.501215 473.647089 
L 571.686425 471.5797 
L 572.056845 476.748171 
L 572.242056 475.025347 
L 572.427266 470.890571 
L 572.797686 474.336218 
L 572.982896 471.924265 
L 573.168106 473.647089 
L 573.353316 471.235136 
L 573.538526 472.26883 
L 573.723736 474.336218 
L 573.908946 470.201442 
L 574.094156 472.613394 
L 574.279367 472.613394 
L 574.464577 474.336218 
L 574.649787 477.781865 
L 574.834997 473.302524 
L 575.020207 473.991653 
L 575.390627 471.924265 
L 575.575837 475.025347 
L 575.761047 475.369912 
L 575.946257 471.5797 
L 576.131467 473.991653 
L 576.316678 473.302524 
L 576.501888 476.059041 
L 576.687098 476.059041 
L 576.872308 469.856877 
L 577.057518 478.12643 
L 577.242728 474.336218 
L 577.613148 472.613394 
L 577.798358 474.680783 
L 577.983568 472.613394 
L 578.168778 475.369912 
L 578.353989 473.302524 
L 578.539199 468.823183 
L 578.724409 476.059041 
L 578.909619 473.991653 
L 579.094829 478.12643 
L 579.280039 477.4373 
L 579.465249 472.613394 
L 579.650459 477.4373 
L 579.835669 472.957959 
L 580.206089 478.12643 
L 580.391299 476.748171 
L 580.57651 473.302524 
L 580.76172 472.957959 
L 580.94693 471.924265 
L 581.13214 476.059041 
L 581.31735 476.403606 
L 581.50256 475.714477 
L 581.68777 472.613394 
L 581.87298 472.613394 
L 582.2434 474.336218 
L 582.42861 475.025347 
L 582.613821 474.336218 
L 582.799031 475.025347 
L 582.984241 477.781865 
L 583.169451 473.991653 
L 583.354661 478.12643 
L 583.539871 474.336218 
L 583.725081 472.957959 
L 583.910291 474.680783 
L 584.095501 473.991653 
L 584.465921 476.059041 
L 584.651132 475.714477 
L 584.836342 478.12643 
L 585.206762 473.302524 
L 585.391972 475.025347 
L 585.577182 471.5797 
L 585.762392 471.5797 
L 585.947602 476.748171 
L 586.132812 477.4373 
L 586.503232 475.025347 
L 586.688443 476.059041 
L 586.873653 480.538383 
L 587.244073 474.336218 
L 587.429283 478.12643 
L 587.614493 478.12643 
L 587.799703 475.369912 
L 587.984913 470.546006 
L 588.355333 475.025347 
L 588.540543 473.991653 
L 588.725754 474.336218 
L 588.910964 476.748171 
L 589.096174 477.092736 
L 589.281384 472.957959 
L 589.466594 475.369912 
L 589.651804 480.538383 
L 589.837014 476.059041 
L 590.022224 480.538383 
L 590.392644 475.025347 
L 590.577854 473.991653 
L 590.948275 476.403606 
L 591.133485 473.991653 
L 591.318695 473.647089 
L 591.689115 477.092736 
L 591.874325 473.647089 
L 592.059535 476.748171 
L 592.244745 474.680783 
L 592.615165 478.12643 
L 592.800375 478.815559 
L 592.985586 475.025347 
L 593.170796 477.781865 
L 593.356006 478.12643 
L 593.541216 472.613394 
L 593.726426 475.714477 
L 593.911636 476.403606 
L 594.096846 477.781865 
L 594.282056 475.714477 
L 594.467266 477.4373 
L 594.652476 476.403606 
L 594.837686 479.849253 
L 595.022897 471.235136 
L 595.208107 475.369912 
L 595.393317 475.369912 
L 595.578527 474.336218 
L 595.763737 476.748171 
L 595.948947 477.4373 
L 596.134157 478.815559 
L 596.319367 477.092736 
L 596.504577 479.504688 
L 596.874997 473.302524 
L 597.060208 477.781865 
L 597.245418 473.647089 
L 597.430628 478.815559 
L 597.615838 472.613394 
L 597.801048 476.748171 
L 597.986258 473.302524 
L 598.356678 477.092736 
L 598.541888 476.748171 
L 598.912308 474.680783 
L 599.097519 478.470994 
L 599.282729 477.092736 
L 599.467939 471.5797 
L 599.653149 479.849253 
L 599.838359 474.336218 
L 600.023569 477.781865 
L 600.208779 475.369912 
L 600.393989 477.781865 
L 600.579199 481.916641 
L 600.764409 477.4373 
L 600.949619 479.504688 
L 601.13483 476.059041 
L 601.32004 476.403606 
L 601.50525 474.680783 
L 601.69046 474.680783 
L 601.87567 477.092736 
L 602.06088 476.748171 
L 602.24609 478.815559 
L 602.4313 478.470994 
L 602.61651 479.504688 
L 602.80172 478.470994 
L 602.98693 478.470994 
L 603.17214 476.403606 
L 603.357351 478.12643 
L 603.542561 475.714477 
L 603.727771 478.12643 
L 603.912981 478.12643 
L 604.098191 478.815559 
L 604.283401 475.714477 
L 604.468611 475.025347 
L 605.024241 480.538383 
L 605.209451 477.092736 
L 605.394662 476.748171 
L 605.579872 482.261206 
L 605.950292 476.403606 
L 606.135502 479.504688 
L 606.320712 475.714477 
L 606.876342 478.470994 
L 607.061552 477.781865 
L 607.246762 478.815559 
L 607.431973 478.470994 
L 607.617183 478.470994 
L 607.802393 478.12643 
L 607.987603 478.470994 
L 608.172813 476.748171 
L 608.358023 477.092736 
L 608.543233 478.815559 
L 608.728443 478.815559 
L 608.913653 476.748171 
L 609.098863 477.092736 
L 609.284073 478.12643 
L 609.469284 476.403606 
L 609.654494 479.849253 
L 609.839704 475.369912 
L 610.024914 481.227512 
L 610.210124 476.403606 
L 610.395334 478.12643 
L 610.580544 473.991653 
L 610.765754 478.12643 
L 610.950964 478.470994 
L 611.136174 477.4373 
L 611.321384 480.538383 
L 611.506595 478.470994 
L 611.691805 475.025347 
L 611.877015 481.227512 
L 612.062225 478.815559 
L 612.247435 479.160124 
L 612.432645 478.12643 
L 612.617855 480.882947 
L 612.803065 477.4373 
L 612.988275 478.470994 
L 613.173485 478.470994 
L 613.358695 478.12643 
L 613.543905 479.849253 
L 613.729116 479.160124 
L 613.914326 480.882947 
L 614.099536 478.12643 
L 614.284746 478.470994 
L 614.469956 473.991653 
L 614.655166 475.369912 
L 615.025586 480.193818 
L 615.210796 473.302524 
L 615.396006 478.815559 
L 615.581216 476.059041 
L 615.766427 478.470994 
L 615.951637 478.12643 
L 616.136847 481.916641 
L 616.322057 480.193818 
L 616.507267 475.714477 
L 616.692477 479.849253 
L 616.877687 476.403606 
L 617.062897 477.781865 
L 617.248107 477.781865 
L 617.433317 481.227512 
L 617.618527 477.781865 
L 617.803738 480.538383 
L 617.988948 480.193818 
L 618.359368 477.092736 
L 618.544578 480.538383 
L 618.914998 477.092736 
L 619.100208 478.470994 
L 619.285418 477.092736 
L 619.470628 478.12643 
L 619.655838 482.605771 
L 619.841049 475.714477 
L 620.026259 478.470994 
L 620.211469 476.403606 
L 620.396679 476.748171 
L 620.767099 479.504688 
L 620.952309 477.781865 
L 621.137519 479.849253 
L 621.322729 480.193818 
L 621.507939 478.815559 
L 621.87836 482.261206 
L 622.24878 480.193818 
L 622.43399 480.538383 
L 622.6192 476.748171 
L 622.80441 478.815559 
L 622.98962 479.160124 
L 623.17483 481.916641 
L 623.54525 477.092736 
L 623.73046 477.781865 
L 623.91567 483.2949 
L 624.286091 479.504688 
L 624.471301 480.538383 
L 624.656511 479.849253 
L 624.841721 481.572077 
L 625.026931 476.403606 
L 625.212141 482.261206 
L 625.397351 482.261206 
L 625.582561 479.504688 
L 625.767771 479.504688 
L 625.952981 479.849253 
L 626.138192 473.302524 
L 626.323402 480.882947 
L 626.693822 479.160124 
L 626.879032 474.336218 
L 627.064242 478.815559 
L 627.249452 478.12643 
L 627.434662 481.916641 
L 627.619872 482.950335 
L 627.805082 480.193818 
L 627.990292 482.950335 
L 628.175503 477.092736 
L 628.360713 478.12643 
L 628.916343 475.714477 
L 629.286763 481.916641 
L 629.471973 480.193818 
L 629.657183 483.98403 
L 629.842393 479.160124 
L 630.027603 477.781865 
L 630.212814 478.815559 
L 630.398024 477.781865 
L 630.583234 481.572077 
L 630.768444 480.538383 
L 630.953654 482.950335 
L 631.138864 477.092736 
L 631.324074 481.572077 
L 631.509284 480.193818 
L 631.694494 482.605771 
L 631.879704 479.504688 
L 632.064914 480.193818 
L 632.250125 479.160124 
L 632.620545 482.261206 
L 632.805755 480.193818 
L 632.990965 480.193818 
L 633.176175 480.882947 
L 633.546595 480.882947 
L 633.731805 482.261206 
L 634.102225 478.815559 
L 634.287436 480.193818 
L 634.472646 480.193818 
L 634.657856 482.605771 
L 634.843066 479.160124 
L 635.028276 480.882947 
L 635.213486 480.538383 
L 635.398696 479.504688 
L 635.583906 479.504688 
L 635.769116 482.261206 
L 635.954326 480.882947 
L 636.139536 480.538383 
L 636.324746 479.160124 
L 636.509957 482.261206 
L 636.880377 478.815559 
L 637.250797 482.950335 
L 637.436007 477.781865 
L 637.621217 481.572077 
L 637.991637 476.748171 
L 638.176847 481.227512 
L 638.362057 480.538383 
L 638.547268 478.815559 
L 638.732478 483.639465 
L 639.288108 479.849253 
L 639.473318 482.261206 
L 639.658528 481.916641 
L 639.843738 479.160124 
L 640.028948 479.160124 
L 640.214158 481.916641 
L 640.399368 480.882947 
L 640.584579 483.639465 
L 640.769789 479.160124 
L 640.954999 480.538383 
L 641.140209 483.639465 
L 641.510629 480.538383 
L 641.695839 481.572077 
L 641.881049 481.916641 
L 642.066259 479.160124 
L 642.251469 481.572077 
L 642.436679 480.882947 
L 642.62189 481.572077 
L 642.8071 479.849253 
L 642.99231 482.950335 
L 643.17752 481.916641 
L 643.36273 482.605771 
L 643.73315 482.605771 
L 643.91836 480.193818 
L 644.10357 479.849253 
L 644.28878 479.160124 
L 644.47399 481.916641 
L 644.659201 480.193818 
L 644.844411 481.916641 
L 645.029621 478.12643 
L 645.214831 483.2949 
L 645.585251 483.98403 
L 645.955671 479.504688 
L 646.140881 483.98403 
L 646.326091 476.748171 
L 646.511301 481.227512 
L 646.696511 481.572077 
L 646.881722 481.227512 
L 647.252142 484.328594 
L 647.437352 480.193818 
L 647.622562 481.227512 
L 647.807772 483.639465 
L 647.992982 480.538383 
L 648.178192 484.328594 
L 648.548612 480.882947 
L 648.919033 480.193818 
L 649.104243 482.950335 
L 649.289453 481.227512 
L 649.474663 482.950335 
L 649.659873 483.2949 
L 649.845083 483.98403 
L 650.030293 479.504688 
L 650.215503 484.328594 
L 650.400713 480.193818 
L 650.585923 482.605771 
L 650.771133 480.538383 
L 650.956344 483.2949 
L 651.141554 480.193818 
L 651.326764 482.605771 
L 651.511974 480.882947 
L 651.697184 480.882947 
L 651.882394 481.916641 
L 652.067604 480.538383 
L 652.252814 481.572077 
L 652.438024 480.193818 
L 652.623234 483.639465 
L 652.808444 482.950335 
L 652.993655 480.882947 
L 653.178865 482.261206 
L 653.364075 477.4373 
L 653.734495 483.98403 
L 653.919705 480.882947 
L 654.104915 480.193818 
L 654.475335 482.261206 
L 654.660545 481.916641 
L 654.845755 479.504688 
L 655.030966 480.538383 
L 655.216176 483.2949 
L 655.401386 483.639465 
L 655.586596 479.849253 
L 655.771806 482.261206 
L 655.957016 479.504688 
L 656.142226 483.98403 
L 656.327436 482.950335 
L 656.512646 480.538383 
L 656.883066 482.605771 
L 657.253487 479.849253 
L 657.438697 479.849253 
L 657.623907 482.950335 
L 657.809117 481.572077 
L 657.994327 483.2949 
L 658.549957 480.193818 
L 658.735167 480.882947 
L 658.920377 482.950335 
L 659.105587 481.916641 
L 659.290798 483.639465 
L 659.476008 483.98403 
L 659.661218 482.950335 
L 659.846428 481.227512 
L 660.031638 482.950335 
L 660.402058 481.572077 
L 660.587268 479.504688 
L 660.772478 479.849253 
L 660.957688 485.362288 
L 661.328109 478.470994 
L 661.513319 478.815559 
L 661.883739 482.950335 
L 662.254159 481.916641 
L 662.439369 481.572077 
L 662.624579 481.916641 
L 662.809789 485.017724 
L 662.994999 484.673159 
L 663.36542 481.572077 
L 663.55063 481.227512 
L 663.73584 480.193818 
L 664.10626 481.916641 
L 664.29147 479.849253 
L 664.47668 480.538383 
L 664.8471 483.98403 
L 665.03231 482.261206 
L 665.21752 485.017724 
L 665.402731 477.781865 
L 665.587941 481.916641 
L 665.773151 482.605771 
L 665.958361 479.849253 
L 666.328781 481.227512 
L 666.513991 480.193818 
L 666.699201 483.639465 
L 666.884411 481.572077 
L 667.069621 480.882947 
L 667.254831 481.227512 
L 667.440042 485.362288 
L 667.625252 481.227512 
L 667.810462 482.950335 
L 667.995672 482.605771 
L 668.180882 482.605771 
L 668.366092 481.916641 
L 668.551302 482.261206 
L 668.736512 483.98403 
L 668.921722 483.639465 
L 669.106932 484.673159 
L 669.477352 481.572077 
L 669.662563 478.12643 
L 670.032983 484.673159 
L 670.588613 480.193818 
L 670.773823 480.193818 
L 670.959033 484.673159 
L 671.144243 481.227512 
L 671.329453 483.98403 
L 671.514663 480.538383 
L 671.699874 482.605771 
L 672.070294 483.2949 
L 672.440714 485.017724 
L 672.811134 478.815559 
L 672.996344 483.2949 
L 673.181554 480.882947 
L 673.366764 481.572077 
L 673.551974 485.706853 
L 673.737185 481.572077 
L 673.922395 483.639465 
L 674.107605 478.470994 
L 674.292815 481.916641 
L 674.478025 482.605771 
L 674.663235 483.98403 
L 674.848445 483.98403 
L 675.033655 483.639465 
L 675.218865 481.916641 
L 675.404075 481.572077 
L 675.589285 483.98403 
L 675.774496 482.261206 
L 676.144916 483.2949 
L 676.515336 483.2949 
L 676.885756 482.261206 
L 677.070966 483.98403 
L 677.256176 479.849253 
L 677.441386 482.605771 
L 677.811807 481.916641 
L 677.997017 480.882947 
L 678.182227 481.916641 
L 678.367437 481.227512 
L 678.552647 483.2949 
L 678.737857 478.815559 
L 678.923067 483.2949 
L 679.108277 481.572077 
L 679.293487 483.2949 
L 679.478697 483.639465 
L 679.663907 484.328594 
L 679.849117 483.639465 
L 680.034328 479.504688 
L 680.219538 483.2949 
L 680.404748 480.193818 
L 680.589958 482.950335 
L 680.775168 482.261206 
L 680.960378 482.261206 
L 681.145588 483.639465 
L 681.330798 479.504688 
L 681.516008 484.328594 
L 681.701218 481.916641 
L 681.886428 481.572077 
L 682.071639 483.639465 
L 682.442059 481.227512 
L 682.812479 483.639465 
L 682.997689 483.639465 
L 683.182899 480.538383 
L 683.553319 483.98403 
L 683.738529 482.605771 
L 683.923739 482.605771 
L 684.10895 483.98403 
L 684.29416 481.916641 
L 684.47937 483.639465 
L 684.66458 479.504688 
L 684.84979 486.740547 
L 685.035 479.504688 
L 685.035 479.504688 
" clip-path="url(#pb63bc6466b)" style="fill: none; stroke: #0000ff; stroke-width: 1.5; stroke-linecap: square"/>
   </g>
   <g id="patch_3">
    <path d="M 129.775152 489.1525 
L 129.775152 36.72 
" style="fill: none; stroke: #000000; stroke-width: 0.8; stroke-linejoin: miter; stroke-linecap: square"/>
   </g>
   <g id="patch_4">
    <path d="M 685.035 489.1525 
L 685.035 36.72 
" style="fill: none; stroke: #000000; stroke-width: 0.8; stroke-linejoin: miter; stroke-linecap: square"/>
   </g>
   <g id="patch_5">
    <path d="M 129.775152 489.1525 
L 685.035 489.1525 
" style="fill: none; stroke: #000000; stroke-width: 0.8; stroke-linejoin: miter; stroke-linecap: square"/>
   </g>
   <g id="patch_6">
    <path d="M 129.775152 36.72 
L 685.035 36.72 
" style="fill: none; stroke: #000000; stroke-width: 0.8; stroke-linejoin: miter; stroke-linecap: square"/>
   </g>
   <g id="legend_1">
    <g id="patch_7">
     <path d="M 492.425 100.294688 
L 676.535 100.294688 
L 676.535 45.22 
L 492.425 45.22 
z
" style="fill: #ffffff; opacity: 0.8; stroke: #000000; stroke-linejoin: miter"/>
    </g>
    <g id="line2d_31">
     <path d="M 499.225 58.987344 
L 516.225 58.987344 
L 533.225 58.987344 
" style="fill: none; stroke-dasharray: 14.8,6.4; stroke-dashoffset: 0; stroke: #ff0000; stroke-width: 4"/>
    </g>
    <g id="text_17">
     <!-- $\rho_0$ -->
     <g transform="translate(546.825 64.937344) scale(0.17 -0.17)">
      <use xlink:href="#DejaVuSans-Oblique-3c1"/>
      <use xlink:href="#DejaVuSans-30" transform="translate(63.476562 -16.40625) scale(0.7)"/>
     </g>
    </g>
    <g id="line2d_32">
     <path d="M 499.225 83.974688 
L 516.225 83.974688 
L 533.225 83.974688 
" style="fill: none; stroke: #0000ff; stroke-width: 1.5; stroke-linecap: square"/>
    </g>
    <g id="text_18">
     <!-- $\rho_0,\it{U=3,n=3}$ -->
     <g transform="translate(546.825 89.924688) scale(0.17 -0.17)">
      <defs>
       <path id="DejaVuSans-2c" d="M 750 794 
L 1409 794 
L 1409 256 
L 897 -744 
L 494 -744 
L 750 256 
L 750 794 
z
" transform="scale(0.015625)"/>
       <path id="DejaVuSans-Oblique-55" d="M 991 4666 
L 1625 4666 
L 1075 1831 
Q 1041 1641 1027 1517 
Q 1013 1394 1013 1300 
Q 1013 869 1253 645 
Q 1494 422 1959 422 
Q 2563 422 2898 753 
Q 3234 1084 3378 1831 
L 3928 4666 
L 4563 4666 
L 4000 1753 
Q 3816 809 3300 359 
Q 2784 -91 1888 -91 
Q 1188 -91 780 261 
Q 372 613 372 1216 
Q 372 1325 387 1461 
Q 403 1597 434 1753 
L 991 4666 
z
" transform="scale(0.015625)"/>
       <path id="DejaVuSans-3d" d="M 678 2906 
L 4684 2906 
L 4684 2381 
L 678 2381 
L 678 2906 
z
M 678 1631 
L 4684 1631 
L 4684 1100 
L 678 1100 
L 678 1631 
z
" transform="scale(0.015625)"/>
       <path id="DejaVuSans-Oblique-6e" d="M 3566 2113 
L 3156 0 
L 2578 0 
L 2988 2091 
Q 3016 2238 3031 2350 
Q 3047 2463 3047 2528 
Q 3047 2791 2881 2937 
Q 2716 3084 2419 3084 
Q 1956 3084 1622 2776 
Q 1288 2469 1184 1941 
L 800 0 
L 225 0 
L 903 3500 
L 1478 3500 
L 1363 2950 
Q 1603 3253 1940 3418 
Q 2278 3584 2650 3584 
Q 3113 3584 3367 3334 
Q 3622 3084 3622 2631 
Q 3622 2519 3608 2391 
Q 3594 2263 3566 2113 
z
" transform="scale(0.015625)"/>
      </defs>
      <use xlink:href="#DejaVuSans-Oblique-3c1" transform="translate(0 0.78125)"/>
      <use xlink:href="#DejaVuSans-30" transform="translate(63.476562 -15.625) scale(0.7)"/>
      <use xlink:href="#DejaVuSans-2c" transform="translate(110.74707 0.78125)"/>
      <use xlink:href="#DejaVuSans-Oblique-55" transform="translate(162.016602 0.78125)"/>
      <use xlink:href="#DejaVuSans-3d" transform="translate(254.692383 0.78125)"/>
      <use xlink:href="#DejaVuSans-33" transform="translate(357.963867 0.78125)"/>
      <use xlink:href="#DejaVuSans-2c" transform="translate(421.586914 0.78125)"/>
      <use xlink:href="#DejaVuSans-Oblique-6e" transform="translate(472.856445 0.78125)"/>
      <use xlink:href="#DejaVuSans-3d" transform="translate(555.717773 0.78125)"/>
      <use xlink:href="#DejaVuSans-33" transform="translate(658.989258 0.78125)"/>
     </g>
    </g>
   </g>
  </g>
 </g>
 <defs>
  <clipPath id="pb63bc6466b">
   <rect x="129.775152" y="36.72" width="555.259848" height="452.4325"/>
  </clipPath>
 </defs>
</svg>
