<?xml version="1.0" encoding="utf-8" standalone="no"?>
<!DOCTYPE svg PUBLIC "-//W3C//DTD SVG 1.1//EN"
  "http://www.w3.org/Graphics/SVG/1.1/DTD/svg11.dtd">
<svg xmlns:xlink="http://www.w3.org/1999/xlink" width="720pt" height="576pt" viewBox="0 0 720 576" xmlns="http://www.w3.org/2000/svg" version="1.1">
 <metadata>
  <rdf:RDF xmlns:dc="http://purl.org/dc/elements/1.1/" xmlns:cc="http://creativecommons.org/ns#" xmlns:rdf="http://www.w3.org/1999/02/22-rdf-syntax-ns#">
   <cc:Work>
    <dc:type rdf:resource="http://purl.org/dc/dcmitype/StillImage"/>
    <dc:date>2023-04-11T03:53:52.051070</dc:date>
    <dc:format>image/svg+xml</dc:format>
    <dc:creator>
     <cc:Agent>
      <dc:title>Matplotlib v3.7.1, https://matplotlib.org/</dc:title>
     </cc:Agent>
    </dc:creator>
   </cc:Work>
  </rdf:RDF>
 </metadata>
 <defs>
  <style type="text/css">*{stroke-linejoin: round; stroke-linecap: butt}</style>
 </defs>
 <g id="figure_1">
  <g id="patch_1">
   <path d="M 0 576 
L 720 576 
L 720 0 
L 0 0 
z
" style="fill: #ffffff"/>
  </g>
  <g id="axes_1">
   <g id="patch_2">
    <path d="M 129.775152 489.1525 
L 685.035 489.1525 
L 685.035 36.72 
L 129.775152 36.72 
z
" style="fill: #ffffff"/>
   </g>
   <g id="matplotlib.axis_1">
    <g id="xtick_1">
     <g id="line2d_1">
      <path d="M 129.775152 489.1525 
L 129.775152 36.72 
" clip-path="url(#pa751940fef)" style="fill: none; stroke: #b0b0b0; stroke-width: 0.8; stroke-linecap: square"/>
     </g>
     <g id="line2d_2">
      <defs>
       <path id="ma3383c8d66" d="M 0 0 
L 0 3.5 
" style="stroke: #000000; stroke-width: 0.8"/>
      </defs>
      <g>
       <use xlink:href="#ma3383c8d66" x="129.775152" y="489.1525" style="stroke: #000000; stroke-width: 0.8"/>
      </g>
     </g>
     <g id="text_1">
      <!-- −3 -->
      <g transform="translate(111.347418 515.148594) scale(0.25 -0.25)">
       <defs>
        <path id="DejaVuSans-2212" d="M 678 2272 
L 4684 2272 
L 4684 1741 
L 678 1741 
L 678 2272 
z
" transform="scale(0.015625)"/>
        <path id="DejaVuSans-33" d="M 2597 2516 
Q 3050 2419 3304 2112 
Q 3559 1806 3559 1356 
Q 3559 666 3084 287 
Q 2609 -91 1734 -91 
Q 1441 -91 1130 -33 
Q 819 25 488 141 
L 488 750 
Q 750 597 1062 519 
Q 1375 441 1716 441 
Q 2309 441 2620 675 
Q 2931 909 2931 1356 
Q 2931 1769 2642 2001 
Q 2353 2234 1838 2234 
L 1294 2234 
L 1294 2753 
L 1863 2753 
Q 2328 2753 2575 2939 
Q 2822 3125 2822 3475 
Q 2822 3834 2567 4026 
Q 2313 4219 1838 4219 
Q 1578 4219 1281 4162 
Q 984 4106 628 3988 
L 628 4550 
Q 988 4650 1302 4700 
Q 1616 4750 1894 4750 
Q 2613 4750 3031 4423 
Q 3450 4097 3450 3541 
Q 3450 3153 3228 2886 
Q 3006 2619 2597 2516 
z
" transform="scale(0.015625)"/>
       </defs>
       <use xlink:href="#DejaVuSans-2212"/>
       <use xlink:href="#DejaVuSans-33" x="83.789062"/>
      </g>
     </g>
    </g>
    <g id="xtick_2">
     <g id="line2d_3">
      <path d="M 222.31846 489.1525 
L 222.31846 36.72 
" clip-path="url(#pa751940fef)" style="fill: none; stroke: #b0b0b0; stroke-width: 0.8; stroke-linecap: square"/>
     </g>
     <g id="line2d_4">
      <g>
       <use xlink:href="#ma3383c8d66" x="222.31846" y="489.1525" style="stroke: #000000; stroke-width: 0.8"/>
      </g>
     </g>
     <g id="text_2">
      <!-- −2 -->
      <g transform="translate(203.890726 515.148594) scale(0.25 -0.25)">
       <defs>
        <path id="DejaVuSans-32" d="M 1228 531 
L 3431 531 
L 3431 0 
L 469 0 
L 469 531 
Q 828 903 1448 1529 
Q 2069 2156 2228 2338 
Q 2531 2678 2651 2914 
Q 2772 3150 2772 3378 
Q 2772 3750 2511 3984 
Q 2250 4219 1831 4219 
Q 1534 4219 1204 4116 
Q 875 4013 500 3803 
L 500 4441 
Q 881 4594 1212 4672 
Q 1544 4750 1819 4750 
Q 2544 4750 2975 4387 
Q 3406 4025 3406 3419 
Q 3406 3131 3298 2873 
Q 3191 2616 2906 2266 
Q 2828 2175 2409 1742 
Q 1991 1309 1228 531 
z
" transform="scale(0.015625)"/>
       </defs>
       <use xlink:href="#DejaVuSans-2212"/>
       <use xlink:href="#DejaVuSans-32" x="83.789062"/>
      </g>
     </g>
    </g>
    <g id="xtick_3">
     <g id="line2d_5">
      <path d="M 314.861768 489.1525 
L 314.861768 36.72 
" clip-path="url(#pa751940fef)" style="fill: none; stroke: #b0b0b0; stroke-width: 0.8; stroke-linecap: square"/>
     </g>
     <g id="line2d_6">
      <g>
       <use xlink:href="#ma3383c8d66" x="314.861768" y="489.1525" style="stroke: #000000; stroke-width: 0.8"/>
      </g>
     </g>
     <g id="text_3">
      <!-- −1 -->
      <g transform="translate(296.434034 515.148594) scale(0.25 -0.25)">
       <defs>
        <path id="DejaVuSans-31" d="M 794 531 
L 1825 531 
L 1825 4091 
L 703 3866 
L 703 4441 
L 1819 4666 
L 2450 4666 
L 2450 531 
L 3481 531 
L 3481 0 
L 794 0 
L 794 531 
z
" transform="scale(0.015625)"/>
       </defs>
       <use xlink:href="#DejaVuSans-2212"/>
       <use xlink:href="#DejaVuSans-31" x="83.789062"/>
      </g>
     </g>
    </g>
    <g id="xtick_4">
     <g id="line2d_7">
      <path d="M 407.405076 489.1525 
L 407.405076 36.72 
" clip-path="url(#pa751940fef)" style="fill: none; stroke: #b0b0b0; stroke-width: 0.8; stroke-linecap: square"/>
     </g>
     <g id="line2d_8">
      <g>
       <use xlink:href="#ma3383c8d66" x="407.405076" y="489.1525" style="stroke: #000000; stroke-width: 0.8"/>
      </g>
     </g>
     <g id="text_4">
      <!-- 0 -->
      <g transform="translate(399.451951 515.148594) scale(0.25 -0.25)">
       <defs>
        <path id="DejaVuSans-30" d="M 2034 4250 
Q 1547 4250 1301 3770 
Q 1056 3291 1056 2328 
Q 1056 1369 1301 889 
Q 1547 409 2034 409 
Q 2525 409 2770 889 
Q 3016 1369 3016 2328 
Q 3016 3291 2770 3770 
Q 2525 4250 2034 4250 
z
M 2034 4750 
Q 2819 4750 3233 4129 
Q 3647 3509 3647 2328 
Q 3647 1150 3233 529 
Q 2819 -91 2034 -91 
Q 1250 -91 836 529 
Q 422 1150 422 2328 
Q 422 3509 836 4129 
Q 1250 4750 2034 4750 
z
" transform="scale(0.015625)"/>
       </defs>
       <use xlink:href="#DejaVuSans-30"/>
      </g>
     </g>
    </g>
    <g id="xtick_5">
     <g id="line2d_9">
      <path d="M 499.948384 489.1525 
L 499.948384 36.72 
" clip-path="url(#pa751940fef)" style="fill: none; stroke: #b0b0b0; stroke-width: 0.8; stroke-linecap: square"/>
     </g>
     <g id="line2d_10">
      <g>
       <use xlink:href="#ma3383c8d66" x="499.948384" y="489.1525" style="stroke: #000000; stroke-width: 0.8"/>
      </g>
     </g>
     <g id="text_5">
      <!-- 1 -->
      <g transform="translate(491.995259 515.148594) scale(0.25 -0.25)">
       <use xlink:href="#DejaVuSans-31"/>
      </g>
     </g>
    </g>
    <g id="xtick_6">
     <g id="line2d_11">
      <path d="M 592.491692 489.1525 
L 592.491692 36.72 
" clip-path="url(#pa751940fef)" style="fill: none; stroke: #b0b0b0; stroke-width: 0.8; stroke-linecap: square"/>
     </g>
     <g id="line2d_12">
      <g>
       <use xlink:href="#ma3383c8d66" x="592.491692" y="489.1525" style="stroke: #000000; stroke-width: 0.8"/>
      </g>
     </g>
     <g id="text_6">
      <!-- 2 -->
      <g transform="translate(584.538567 515.148594) scale(0.25 -0.25)">
       <use xlink:href="#DejaVuSans-32"/>
      </g>
     </g>
    </g>
    <g id="xtick_7">
     <g id="line2d_13">
      <path d="M 685.035 489.1525 
L 685.035 36.72 
" clip-path="url(#pa751940fef)" style="fill: none; stroke: #b0b0b0; stroke-width: 0.8; stroke-linecap: square"/>
     </g>
     <g id="line2d_14">
      <g>
       <use xlink:href="#ma3383c8d66" x="685.035" y="489.1525" style="stroke: #000000; stroke-width: 0.8"/>
      </g>
     </g>
     <g id="text_7">
      <!-- 3 -->
      <g transform="translate(677.081875 515.148594) scale(0.25 -0.25)">
       <use xlink:href="#DejaVuSans-33"/>
      </g>
     </g>
    </g>
    <g id="text_8">
     <!-- $\omega$ [-] -->
     <g transform="translate(382.530076 541.351719) scale(0.25 -0.25)">
      <defs>
       <path id="DejaVuSans-Oblique-3c9" d="M 1369 -91 
Q 72 -91 434 1766 
Q 575 2500 1256 3500 
L 1875 3500 
Q 1231 2500 1088 1750 
Q 819 397 1519 397 
Q 2166 397 2478 2078 
L 3009 2078 
Q 2669 388 3316 397 
Q 4013 403 4275 1750 
Q 4419 2500 4169 3500 
L 4788 3500 
Q 5075 2500 4934 1766 
Q 4578 -94 3278 -91 
Q 2428 -88 2503 844 
Q 2194 -91 1369 -91 
z
" transform="scale(0.015625)"/>
       <path id="Calibri-20" transform="scale(0.015625)"/>
       <path id="Calibri-5b" d="M 1684 -813 
Q 1684 -916 1661 -958 
Q 1638 -1000 1594 -1000 
L 794 -1000 
Q 756 -1000 722 -989 
Q 688 -978 659 -953 
Q 631 -928 614 -886 
Q 597 -844 597 -781 
L 597 4153 
Q 597 4213 614 4255 
Q 631 4297 659 4323 
Q 688 4350 722 4361 
Q 756 4372 794 4372 
L 1594 4372 
Q 1613 4372 1630 4362 
Q 1647 4353 1659 4328 
Q 1672 4303 1678 4267 
Q 1684 4231 1684 4178 
Q 1684 4078 1661 4034 
Q 1638 3991 1594 3991 
L 1084 3991 
L 1084 -622 
L 1594 -622 
Q 1613 -622 1630 -631 
Q 1647 -641 1659 -664 
Q 1672 -688 1678 -723 
Q 1684 -759 1684 -813 
z
" transform="scale(0.015625)"/>
       <path id="Calibri-2d" d="M 1744 1578 
Q 1744 1456 1716 1409 
Q 1688 1363 1634 1363 
L 328 1363 
Q 272 1363 244 1411 
Q 216 1459 216 1578 
Q 216 1697 244 1744 
Q 272 1791 328 1791 
L 1634 1791 
Q 1659 1791 1679 1781 
Q 1700 1772 1714 1745 
Q 1728 1719 1736 1678 
Q 1744 1638 1744 1578 
z
" transform="scale(0.015625)"/>
       <path id="Calibri-5d" d="M 1369 -781 
Q 1369 -844 1351 -886 
Q 1334 -928 1306 -953 
Q 1278 -978 1242 -989 
Q 1206 -1000 1169 -1000 
L 372 -1000 
Q 328 -1000 304 -958 
Q 281 -916 281 -813 
Q 281 -759 286 -723 
Q 291 -688 303 -664 
Q 316 -641 333 -631 
Q 350 -622 372 -622 
L 881 -622 
L 881 3991 
L 372 3991 
Q 328 3991 304 4034 
Q 281 4078 281 4178 
Q 281 4231 286 4267 
Q 291 4303 303 4328 
Q 316 4353 333 4362 
Q 350 4372 372 4372 
L 1169 4372 
Q 1206 4372 1242 4361 
Q 1278 4350 1306 4323 
Q 1334 4297 1351 4255 
Q 1369 4213 1369 4153 
L 1369 -781 
z
" transform="scale(0.015625)"/>
      </defs>
      <use xlink:href="#DejaVuSans-Oblique-3c9" transform="translate(0 0.6875)"/>
      <use xlink:href="#Calibri-20" transform="translate(83.740234 0.6875)"/>
      <use xlink:href="#Calibri-5b" transform="translate(106.347656 0.6875)"/>
      <use xlink:href="#Calibri-2d" transform="translate(137.011719 0.6875)"/>
      <use xlink:href="#Calibri-5d" transform="translate(167.626953 0.6875)"/>
     </g>
    </g>
   </g>
   <g id="matplotlib.axis_2">
    <g id="ytick_1">
     <g id="line2d_15">
      <path d="M 129.775152 489.1525 
L 685.035 489.1525 
" clip-path="url(#pa751940fef)" style="fill: none; stroke: #b0b0b0; stroke-width: 0.8; stroke-linecap: square"/>
     </g>
     <g id="line2d_16">
      <defs>
       <path id="mbadb50224c" d="M 0 0 
L -3.5 0 
" style="stroke: #000000; stroke-width: 0.8"/>
      </defs>
      <g>
       <use xlink:href="#mbadb50224c" x="129.775152" y="489.1525" style="stroke: #000000; stroke-width: 0.8"/>
      </g>
     </g>
     <g id="text_9">
      <!-- 0.0 -->
      <g transform="translate(83.017339 498.650547) scale(0.25 -0.25)">
       <defs>
        <path id="DejaVuSans-2e" d="M 684 794 
L 1344 794 
L 1344 0 
L 684 0 
L 684 794 
z
" transform="scale(0.015625)"/>
       </defs>
       <use xlink:href="#DejaVuSans-30"/>
       <use xlink:href="#DejaVuSans-2e" x="63.623047"/>
       <use xlink:href="#DejaVuSans-30" x="95.410156"/>
      </g>
     </g>
    </g>
    <g id="ytick_2">
     <g id="line2d_17">
      <path d="M 129.775152 413.747083 
L 685.035 413.747083 
" clip-path="url(#pa751940fef)" style="fill: none; stroke: #b0b0b0; stroke-width: 0.8; stroke-linecap: square"/>
     </g>
     <g id="line2d_18">
      <g>
       <use xlink:href="#mbadb50224c" x="129.775152" y="413.747083" style="stroke: #000000; stroke-width: 0.8"/>
      </g>
     </g>
     <g id="text_10">
      <!-- 0.2 -->
      <g transform="translate(83.017339 423.24513) scale(0.25 -0.25)">
       <use xlink:href="#DejaVuSans-30"/>
       <use xlink:href="#DejaVuSans-2e" x="63.623047"/>
       <use xlink:href="#DejaVuSans-32" x="95.410156"/>
      </g>
     </g>
    </g>
    <g id="ytick_3">
     <g id="line2d_19">
      <path d="M 129.775152 338.341667 
L 685.035 338.341667 
" clip-path="url(#pa751940fef)" style="fill: none; stroke: #b0b0b0; stroke-width: 0.8; stroke-linecap: square"/>
     </g>
     <g id="line2d_20">
      <g>
       <use xlink:href="#mbadb50224c" x="129.775152" y="338.341667" style="stroke: #000000; stroke-width: 0.8"/>
      </g>
     </g>
     <g id="text_11">
      <!-- 0.4 -->
      <g transform="translate(83.017339 347.839714) scale(0.25 -0.25)">
       <defs>
        <path id="DejaVuSans-34" d="M 2419 4116 
L 825 1625 
L 2419 1625 
L 2419 4116 
z
M 2253 4666 
L 3047 4666 
L 3047 1625 
L 3713 1625 
L 3713 1100 
L 3047 1100 
L 3047 0 
L 2419 0 
L 2419 1100 
L 313 1100 
L 313 1709 
L 2253 4666 
z
" transform="scale(0.015625)"/>
       </defs>
       <use xlink:href="#DejaVuSans-30"/>
       <use xlink:href="#DejaVuSans-2e" x="63.623047"/>
       <use xlink:href="#DejaVuSans-34" x="95.410156"/>
      </g>
     </g>
    </g>
    <g id="ytick_4">
     <g id="line2d_21">
      <path d="M 129.775152 262.93625 
L 685.035 262.93625 
" clip-path="url(#pa751940fef)" style="fill: none; stroke: #b0b0b0; stroke-width: 0.8; stroke-linecap: square"/>
     </g>
     <g id="line2d_22">
      <g>
       <use xlink:href="#mbadb50224c" x="129.775152" y="262.93625" style="stroke: #000000; stroke-width: 0.8"/>
      </g>
     </g>
     <g id="text_12">
      <!-- 0.6 -->
      <g transform="translate(83.017339 272.434297) scale(0.25 -0.25)">
       <defs>
        <path id="DejaVuSans-36" d="M 2113 2584 
Q 1688 2584 1439 2293 
Q 1191 2003 1191 1497 
Q 1191 994 1439 701 
Q 1688 409 2113 409 
Q 2538 409 2786 701 
Q 3034 994 3034 1497 
Q 3034 2003 2786 2293 
Q 2538 2584 2113 2584 
z
M 3366 4563 
L 3366 3988 
Q 3128 4100 2886 4159 
Q 2644 4219 2406 4219 
Q 1781 4219 1451 3797 
Q 1122 3375 1075 2522 
Q 1259 2794 1537 2939 
Q 1816 3084 2150 3084 
Q 2853 3084 3261 2657 
Q 3669 2231 3669 1497 
Q 3669 778 3244 343 
Q 2819 -91 2113 -91 
Q 1303 -91 875 529 
Q 447 1150 447 2328 
Q 447 3434 972 4092 
Q 1497 4750 2381 4750 
Q 2619 4750 2861 4703 
Q 3103 4656 3366 4563 
z
" transform="scale(0.015625)"/>
       </defs>
       <use xlink:href="#DejaVuSans-30"/>
       <use xlink:href="#DejaVuSans-2e" x="63.623047"/>
       <use xlink:href="#DejaVuSans-36" x="95.410156"/>
      </g>
     </g>
    </g>
    <g id="ytick_5">
     <g id="line2d_23">
      <path d="M 129.775152 187.530833 
L 685.035 187.530833 
" clip-path="url(#pa751940fef)" style="fill: none; stroke: #b0b0b0; stroke-width: 0.8; stroke-linecap: square"/>
     </g>
     <g id="line2d_24">
      <g>
       <use xlink:href="#mbadb50224c" x="129.775152" y="187.530833" style="stroke: #000000; stroke-width: 0.8"/>
      </g>
     </g>
     <g id="text_13">
      <!-- 0.8 -->
      <g transform="translate(83.017339 197.02888) scale(0.25 -0.25)">
       <defs>
        <path id="DejaVuSans-38" d="M 2034 2216 
Q 1584 2216 1326 1975 
Q 1069 1734 1069 1313 
Q 1069 891 1326 650 
Q 1584 409 2034 409 
Q 2484 409 2743 651 
Q 3003 894 3003 1313 
Q 3003 1734 2745 1975 
Q 2488 2216 2034 2216 
z
M 1403 2484 
Q 997 2584 770 2862 
Q 544 3141 544 3541 
Q 544 4100 942 4425 
Q 1341 4750 2034 4750 
Q 2731 4750 3128 4425 
Q 3525 4100 3525 3541 
Q 3525 3141 3298 2862 
Q 3072 2584 2669 2484 
Q 3125 2378 3379 2068 
Q 3634 1759 3634 1313 
Q 3634 634 3220 271 
Q 2806 -91 2034 -91 
Q 1263 -91 848 271 
Q 434 634 434 1313 
Q 434 1759 690 2068 
Q 947 2378 1403 2484 
z
M 1172 3481 
Q 1172 3119 1398 2916 
Q 1625 2713 2034 2713 
Q 2441 2713 2670 2916 
Q 2900 3119 2900 3481 
Q 2900 3844 2670 4047 
Q 2441 4250 2034 4250 
Q 1625 4250 1398 4047 
Q 1172 3844 1172 3481 
z
" transform="scale(0.015625)"/>
       </defs>
       <use xlink:href="#DejaVuSans-30"/>
       <use xlink:href="#DejaVuSans-2e" x="63.623047"/>
       <use xlink:href="#DejaVuSans-38" x="95.410156"/>
      </g>
     </g>
    </g>
    <g id="ytick_6">
     <g id="line2d_25">
      <path d="M 129.775152 112.125417 
L 685.035 112.125417 
" clip-path="url(#pa751940fef)" style="fill: none; stroke: #b0b0b0; stroke-width: 0.8; stroke-linecap: square"/>
     </g>
     <g id="line2d_26">
      <g>
       <use xlink:href="#mbadb50224c" x="129.775152" y="112.125417" style="stroke: #000000; stroke-width: 0.8"/>
      </g>
     </g>
     <g id="text_14">
      <!-- 1.0 -->
      <g transform="translate(83.017339 121.623464) scale(0.25 -0.25)">
       <use xlink:href="#DejaVuSans-31"/>
       <use xlink:href="#DejaVuSans-2e" x="63.623047"/>
       <use xlink:href="#DejaVuSans-30" x="95.410156"/>
      </g>
     </g>
    </g>
    <g id="ytick_7">
     <g id="line2d_27">
      <path d="M 129.775152 36.72 
L 685.035 36.72 
" clip-path="url(#pa751940fef)" style="fill: none; stroke: #b0b0b0; stroke-width: 0.8; stroke-linecap: square"/>
     </g>
     <g id="line2d_28">
      <g>
       <use xlink:href="#mbadb50224c" x="129.775152" y="36.72" style="stroke: #000000; stroke-width: 0.8"/>
      </g>
     </g>
     <g id="text_15">
      <!-- 1.2 -->
      <g transform="translate(83.017339 46.218047) scale(0.25 -0.25)">
       <use xlink:href="#DejaVuSans-31"/>
       <use xlink:href="#DejaVuSans-2e" x="63.623047"/>
       <use xlink:href="#DejaVuSans-32" x="95.410156"/>
      </g>
     </g>
    </g>
    <g id="text_16">
     <!-- $\rho$($\omega$) -->
     <g transform="translate(27.017339 257.68625) scale(0.25 -0.25)">
      <defs>
       <path id="DejaVuSans-Oblique-3c1" d="M 1203 2875 
Q 1453 3194 1981 3475 
Q 2188 3584 2756 3584 
Q 3394 3584 3694 3078 
Q 3994 2572 3834 1747 
Q 3672 922 3175 415 
Q 2678 -91 2041 -91 
Q 1656 -91 1409 63 
Q 1163 213 1044 525 
L 681 -1331 
L 103 -1331 
L 697 1716 
Q 838 2438 1203 2875 
z
M 3238 1747 
Q 3359 2381 3169 2744 
Q 2978 3103 2522 3103 
Q 2066 3103 1734 2744 
Q 1403 2381 1281 1747 
Q 1156 1113 1347 750 
Q 1538 391 1994 391 
Q 2450 391 2781 750 
Q 3113 1113 3238 1747 
z
" transform="scale(0.015625)"/>
       <path id="Calibri-28" d="M 1547 4306 
Q 1250 3678 1104 3017 
Q 959 2356 959 1688 
Q 959 1016 1107 356 
Q 1256 -303 1541 -938 
Q 1556 -975 1557 -1001 
Q 1559 -1028 1537 -1045 
Q 1516 -1063 1470 -1070 
Q 1425 -1078 1347 -1078 
Q 1291 -1078 1250 -1075 
Q 1209 -1072 1179 -1062 
Q 1150 -1053 1131 -1040 
Q 1113 -1028 1103 -1013 
Q 934 -694 806 -367 
Q 678 -41 590 296 
Q 503 634 459 979 
Q 416 1325 416 1678 
Q 416 2031 464 2375 
Q 513 2719 602 3058 
Q 691 3397 819 3725 
Q 947 4053 1106 4375 
Q 1109 4388 1123 4397 
Q 1138 4406 1163 4415 
Q 1188 4425 1231 4429 
Q 1275 4434 1344 4434 
Q 1416 4434 1459 4425 
Q 1503 4416 1528 4400 
Q 1553 4384 1556 4359 
Q 1559 4334 1547 4306 
z
" transform="scale(0.015625)"/>
       <path id="Calibri-29" d="M 1522 1678 
Q 1522 1325 1478 979 
Q 1434 634 1346 296 
Q 1259 -41 1132 -367 
Q 1006 -694 838 -1013 
Q 828 -1028 809 -1040 
Q 791 -1053 761 -1062 
Q 731 -1072 690 -1075 
Q 650 -1078 594 -1078 
Q 513 -1078 467 -1070 
Q 422 -1063 401 -1045 
Q 381 -1028 382 -1001 
Q 384 -975 400 -938 
Q 688 -306 834 355 
Q 981 1016 981 1688 
Q 981 2356 834 3017 
Q 688 3678 394 4306 
Q 381 4334 384 4359 
Q 388 4384 413 4400 
Q 438 4416 481 4425 
Q 525 4434 597 4434 
Q 663 4434 706 4429 
Q 750 4425 776 4415 
Q 803 4406 815 4397 
Q 828 4388 834 4375 
Q 1156 3734 1339 3057 
Q 1522 2381 1522 1678 
z
" transform="scale(0.015625)"/>
      </defs>
      <use xlink:href="#DejaVuSans-Oblique-3c1" transform="translate(0 0.71875)"/>
      <use xlink:href="#Calibri-28" transform="translate(63.476562 0.71875)"/>
      <use xlink:href="#DejaVuSans-Oblique-3c9" transform="translate(93.798828 0.71875)"/>
      <use xlink:href="#Calibri-29" transform="translate(177.539062 0.71875)"/>
     </g>
    </g>
   </g>
   <g id="line2d_29">
    <path d="M 129.775152 485.191726 
L 155.342673 484.357586 
L 176.463668 483.453498 
L 194.527677 482.46213 
L 209.812608 481.407831 
L 223.152183 480.271633 
L 234.824312 479.061062 
L 245.106902 477.779351 
L 254.277861 476.42091 
L 262.615096 474.96598 
L 270.118607 473.43544 
L 277.066303 471.789852 
L 283.180275 470.122023 
L 289.01634 468.299747 
L 294.296588 466.420579 
L 299.298929 464.401354 
L 303.745455 462.37756 
L 307.914072 460.252334 
L 312.08269 457.871329 
L 315.973399 455.381981 
L 319.586201 452.803903 
L 322.921095 450.162848 
L 326.255989 447.235062 
L 329.312975 444.264491 
L 332.369961 440.981839 
L 335.14904 437.690985 
L 337.928118 434.069935 
L 340.707196 430.076083 
L 343.486275 425.660385 
L 345.987445 421.279051 
L 348.488616 416.463255 
L 350.989786 411.159493 
L 353.490957 405.30707 
L 355.992127 398.837288 
L 358.493298 391.672671 
L 360.71656 384.650778 
L 362.939823 376.943851 
L 365.163086 368.478348 
L 367.386348 359.175174 
L 369.609611 348.950806 
L 371.832874 337.719359 
L 374.056136 325.396011 
L 376.279399 311.90232 
L 378.780569 295.243962 
L 381.28174 276.972296 
L 383.78291 257.104693 
L 386.561989 233.312559 
L 390.17479 200.351722 
L 396.010855 146.782085 
L 398.234118 128.471207 
L 399.901565 116.346345 
L 401.291104 107.617616 
L 402.680643 100.372585 
L 403.792274 95.775724 
L 404.625998 93.082969 
L 405.459721 91.068857 
L 406.015537 90.113935 
L 406.571352 89.474771 
L 407.127168 89.15442 
L 407.682984 89.15442 
L 408.238799 89.474771 
L 408.794615 90.113935 
L 409.350431 91.068857 
L 410.184154 93.082969 
L 411.017878 95.775724 
L 412.129509 100.372585 
L 413.24114 106.043297 
L 414.63068 114.492112 
L 416.298127 126.340685 
L 418.243481 142.019089 
L 420.744652 164.145858 
L 430.749334 254.802741 
L 433.528412 276.972296 
L 436.029583 295.243962 
L 438.530753 311.90232 
L 441.031924 326.998923 
L 443.533094 340.626334 
L 445.756357 351.597943 
L 447.979619 361.584007 
L 450.202882 370.670079 
L 452.704053 379.918766 
L 455.205223 388.242991 
L 457.706394 395.743738 
L 460.207564 402.512223 
L 462.708735 408.630041 
L 465.209905 414.169702 
L 467.711075 419.195358 
L 470.212246 423.763608 
L 472.991324 428.363411 
L 475.770403 432.519723 
L 478.549481 436.284441 
L 481.328559 439.702634 
L 484.385545 443.109017 
L 487.442532 446.188525 
L 490.777426 449.220669 
L 494.11232 451.953137 
L 497.725121 454.617796 
L 501.337923 457.013907 
L 505.228633 459.332771 
L 509.39725 461.555817 
L 513.843776 463.669574 
L 518.568209 465.665121 
L 523.57055 467.537459 
L 529.128706 469.370984 
L 534.964771 471.059658 
L 541.356651 472.675741 
L 548.304347 474.201372 
L 556.085766 475.674049 
L 564.700909 477.06667 
L 574.149775 478.361688 
L 584.710273 479.578987 
L 596.660309 480.725143 
L 610.277793 481.798417 
L 625.840632 482.792931 
L 643.626733 483.701997 
L 664.46982 484.540252 
L 685.035 485.191726 
L 685.035 485.191726 
" clip-path="url(#pa751940fef)" style="fill: none; stroke-dasharray: 14.8,6.4; stroke-dashoffset: 0; stroke: #ff0000; stroke-width: 4"/>
   </g>
   <g id="line2d_30">
    <path d="M 129.775152 482.404353 
L 130.05306 483.46985 
L 130.330968 480.98369 
L 130.608875 482.404353 
L 130.886783 480.628524 
L 131.164691 477.787199 
L 131.442599 482.404353 
L 131.720507 483.825015 
L 131.998415 483.825015 
L 132.276322 479.918193 
L 132.55423 483.114684 
L 132.832138 480.273359 
L 133.110046 482.404353 
L 133.387954 481.694021 
L 133.665862 484.890512 
L 133.943769 480.628524 
L 134.221677 481.694021 
L 134.499585 480.98369 
L 135.055401 481.694021 
L 135.333309 480.628524 
L 135.611216 483.114684 
L 135.889124 480.628524 
L 136.167032 482.049187 
L 136.44494 482.049187 
L 136.722848 482.404353 
L 137.000756 483.46985 
L 137.278663 480.98369 
L 137.556571 482.049187 
L 137.834479 482.404353 
L 138.112387 481.694021 
L 138.390295 483.114684 
L 138.668203 482.049187 
L 138.94611 483.114684 
L 139.224018 480.628524 
L 139.501926 482.759518 
L 139.779834 483.114684 
L 140.057742 480.628524 
L 140.33565 480.98369 
L 140.613557 479.918193 
L 140.891465 484.535347 
L 141.169373 478.852696 
L 142.003097 483.825015 
L 142.281004 483.825015 
L 142.558912 482.049187 
L 142.83682 483.114684 
L 143.114728 481.338856 
L 143.392636 481.694021 
L 143.670544 481.338856 
L 143.948451 482.404353 
L 144.226359 478.852696 
L 144.504267 481.694021 
L 144.782175 480.628524 
L 145.060083 483.114684 
L 145.337991 477.432034 
L 145.615898 478.49753 
L 145.893806 482.404353 
L 146.171714 482.404353 
L 146.449622 480.273359 
L 146.72753 480.98369 
L 147.005438 483.114684 
L 147.561253 480.628524 
L 147.839161 481.694021 
L 148.117069 483.46985 
L 148.394977 480.98369 
L 148.672885 480.98369 
L 148.950792 477.076868 
L 149.2287 480.273359 
L 149.506608 479.918193 
L 149.784516 484.535347 
L 150.062424 481.694021 
L 150.340332 482.404353 
L 150.618239 480.273359 
L 150.896147 481.694021 
L 151.174055 480.628524 
L 151.451963 483.114684 
L 151.729871 481.694021 
L 152.285686 481.694021 
L 152.563594 477.787199 
L 152.841502 477.076868 
L 153.11941 482.759518 
L 153.397318 480.628524 
L 153.675226 482.759518 
L 153.953133 480.628524 
L 154.231041 483.114684 
L 154.508949 479.563027 
L 154.786857 479.918193 
L 155.064765 478.852696 
L 155.342673 482.404353 
L 155.62058 478.49753 
L 156.176396 480.628524 
L 156.454304 482.759518 
L 156.732212 479.918193 
L 157.010119 480.98369 
L 157.288027 481.338856 
L 157.565935 482.404353 
L 157.843843 481.338856 
L 158.121751 478.49753 
L 158.399659 482.404353 
L 158.677566 478.852696 
L 158.955474 478.49753 
L 159.233382 480.98369 
L 159.51129 478.49753 
L 159.789198 480.98369 
L 160.345013 482.759518 
L 160.622921 480.98369 
L 160.900829 474.590708 
L 161.178737 476.366537 
L 161.456645 479.918193 
L 161.734553 479.918193 
L 162.01246 479.207862 
L 162.290368 476.721702 
L 162.568276 479.207862 
L 162.846184 480.273359 
L 163.124092 479.207862 
L 163.402 480.273359 
L 163.679907 478.49753 
L 163.957815 477.787199 
L 164.235723 478.49753 
L 164.513631 479.918193 
L 164.791539 479.207862 
L 165.069447 480.98369 
L 165.347354 479.918193 
L 165.625262 479.918193 
L 165.90317 477.432034 
L 166.181078 482.404353 
L 166.458986 483.114684 
L 166.736894 478.142365 
L 167.014801 480.98369 
L 167.292709 479.918193 
L 167.570617 481.338856 
L 167.848525 481.338856 
L 168.126433 476.366537 
L 168.404341 477.076868 
L 168.682248 479.207862 
L 168.960156 478.49753 
L 169.238064 480.628524 
L 169.515972 481.694021 
L 170.071788 480.273359 
L 170.349695 478.49753 
L 170.627603 479.207862 
L 170.905511 480.628524 
L 171.183419 478.49753 
L 171.461327 480.273359 
L 171.739235 478.49753 
L 172.017142 480.628524 
L 172.29505 481.338856 
L 172.572958 479.563027 
L 172.850866 479.918193 
L 173.128774 478.852696 
L 173.406682 476.721702 
L 173.684589 479.918193 
L 173.962497 479.207862 
L 174.240405 478.142365 
L 174.518313 480.98369 
L 174.796221 479.207862 
L 175.074129 476.011371 
L 175.629944 478.142365 
L 175.907852 480.628524 
L 176.18576 476.366537 
L 176.463668 480.628524 
L 176.741576 478.142365 
L 177.297391 480.628524 
L 177.575299 476.721702 
L 177.853207 478.142365 
L 178.131115 478.142365 
L 178.409023 478.49753 
L 178.68693 474.945874 
L 178.964838 478.852696 
L 179.242746 480.273359 
L 179.520654 477.787199 
L 179.798562 482.404353 
L 180.07647 479.563027 
L 180.354377 480.273359 
L 180.632285 477.432034 
L 180.910193 480.273359 
L 181.188101 477.076868 
L 181.466009 477.432034 
L 181.743917 474.590708 
L 182.021824 477.076868 
L 182.57764 479.563027 
L 182.855548 476.011371 
L 183.133456 478.49753 
L 183.411364 479.207862 
L 183.689271 479.207862 
L 183.967179 479.918193 
L 184.522995 476.721702 
L 184.800903 476.366537 
L 185.078811 479.207862 
L 185.356718 476.721702 
L 185.634626 477.787199 
L 185.912534 475.656205 
L 186.190442 476.366537 
L 186.746258 480.628524 
L 187.024165 479.207862 
L 187.302073 479.207862 
L 187.579981 480.628524 
L 187.857889 474.945874 
L 188.135797 478.49753 
L 188.691612 478.49753 
L 188.96952 484.180181 
L 189.525336 476.011371 
L 189.803244 480.628524 
L 190.081151 477.432034 
L 190.359059 480.628524 
L 190.636967 479.918193 
L 190.914875 478.142365 
L 191.192783 475.30104 
L 191.470691 478.49753 
L 191.748598 477.076868 
L 192.026506 476.366537 
L 192.304414 480.273359 
L 192.582322 477.432034 
L 192.86023 480.98369 
L 193.138138 471.749383 
L 193.416045 477.076868 
L 193.693953 477.076868 
L 193.971861 478.852696 
L 194.249769 476.721702 
L 194.527677 477.076868 
L 194.805585 477.787199 
L 195.083492 478.852696 
L 195.3614 474.590708 
L 195.639308 477.787199 
L 195.917216 475.656205 
L 196.195124 476.011371 
L 196.473032 474.590708 
L 196.750939 477.432034 
L 197.028847 477.076868 
L 197.306755 479.918193 
L 197.584663 473.170046 
L 197.862571 478.49753 
L 198.140479 473.880377 
L 198.696294 479.207862 
L 198.974202 478.142365 
L 199.25211 472.81488 
L 199.530018 475.656205 
L 199.807926 476.366537 
L 200.085833 477.787199 
L 200.363741 480.628524 
L 200.641649 474.590708 
L 200.919557 475.30104 
L 201.197465 474.235543 
L 201.475373 479.918193 
L 201.75328 472.81488 
L 202.309096 478.142365 
L 202.587004 477.432034 
L 202.864912 480.628524 
L 203.14282 475.30104 
L 203.420727 478.852696 
L 203.698635 473.525211 
L 203.976543 476.011371 
L 204.254451 475.30104 
L 204.532359 475.656205 
L 205.088174 477.076868 
L 205.366082 479.563027 
L 205.64399 474.235543 
L 205.921898 477.432034 
L 206.199806 477.432034 
L 206.477714 473.170046 
L 206.755621 473.880377 
L 207.033529 477.787199 
L 207.311437 475.656205 
L 207.589345 476.011371 
L 207.867253 473.880377 
L 208.145161 475.30104 
L 208.423068 481.338856 
L 208.700976 477.432034 
L 208.978884 476.721702 
L 209.256792 473.170046 
L 209.812608 478.852696 
L 210.090515 475.656205 
L 210.368423 474.945874 
L 210.646331 474.590708 
L 210.924239 477.787199 
L 211.202147 473.170046 
L 211.480055 471.394217 
L 211.757962 479.207862 
L 212.03587 475.30104 
L 212.313778 477.787199 
L 212.591686 474.945874 
L 213.147502 472.104549 
L 213.425409 477.787199 
L 213.703317 473.525211 
L 214.259133 475.656205 
L 214.537041 479.563027 
L 215.092856 472.81488 
L 215.370764 475.30104 
L 215.648672 472.459714 
L 216.204488 477.432034 
L 216.482396 477.076868 
L 217.038211 471.039052 
L 217.316119 474.945874 
L 217.594027 476.011371 
L 217.871935 474.590708 
L 218.149843 478.49753 
L 218.42775 473.170046 
L 218.705658 473.880377 
L 218.983566 478.852696 
L 219.539382 472.81488 
L 219.817289 473.880377 
L 220.095197 478.49753 
L 220.373105 473.880377 
L 220.928921 469.973555 
L 221.206829 473.170046 
L 221.484736 471.749383 
L 222.040552 476.721702 
L 222.874276 472.81488 
L 223.152183 470.32872 
L 223.430091 476.721702 
L 223.707999 475.30104 
L 223.985907 471.749383 
L 224.263815 474.590708 
L 224.541723 473.525211 
L 224.81963 474.235543 
L 225.097538 475.656205 
L 225.375446 475.30104 
L 225.653354 473.525211 
L 225.931262 473.525211 
L 226.20917 472.459714 
L 226.487077 472.81488 
L 226.764985 471.749383 
L 227.042893 476.011371 
L 227.320801 475.656205 
L 227.598709 469.973555 
L 227.876617 470.32872 
L 228.154524 474.235543 
L 228.432432 472.81488 
L 228.71034 477.787199 
L 228.988248 478.49753 
L 229.544064 469.973555 
L 229.821971 470.32872 
L 230.099879 472.459714 
L 230.377787 473.525211 
L 230.655695 468.908058 
L 230.933603 469.618389 
L 231.211511 473.880377 
L 231.489418 471.749383 
L 231.767326 474.590708 
L 232.045234 468.197727 
L 232.323142 474.945874 
L 232.60105 474.235543 
L 233.156865 469.973555 
L 233.434773 472.104549 
L 233.712681 469.618389 
L 233.990589 478.142365 
L 234.268497 476.011371 
L 234.546405 476.011371 
L 234.824312 472.81488 
L 235.10222 472.104549 
L 235.380128 475.30104 
L 235.658036 474.945874 
L 235.935944 472.81488 
L 236.213852 473.525211 
L 236.491759 470.683886 
L 236.769667 473.880377 
L 237.047575 473.170046 
L 237.325483 469.263224 
L 237.603391 468.197727 
L 237.881299 473.525211 
L 238.437114 469.973555 
L 238.715022 469.973555 
L 238.99293 472.104549 
L 239.270838 469.973555 
L 239.548746 473.170046 
L 239.826653 469.263224 
L 240.104561 470.683886 
L 240.382469 473.170046 
L 240.660377 472.81488 
L 240.938285 471.749383 
L 241.216193 471.749383 
L 241.4941 470.32872 
L 241.772008 471.749383 
L 242.049916 470.683886 
L 242.327824 472.81488 
L 242.605732 462.15991 
L 242.88364 471.039052 
L 243.161547 473.880377 
L 243.439455 469.618389 
L 243.717363 470.32872 
L 243.995271 471.749383 
L 244.273179 468.908058 
L 244.551087 468.197727 
L 244.828994 464.290904 
L 245.38481 472.81488 
L 245.662718 467.13223 
L 245.940626 471.394217 
L 246.218534 469.263224 
L 246.496441 470.683886 
L 246.774349 469.263224 
L 247.052257 469.263224 
L 247.330165 473.525211 
L 247.608073 469.973555 
L 247.885981 473.170046 
L 248.163888 467.487395 
L 248.441796 467.13223 
L 248.719704 468.197727 
L 248.997612 463.935739 
L 249.27552 471.749383 
L 249.553428 466.777064 
L 249.831335 471.394217 
L 250.109243 473.880377 
L 250.387151 469.618389 
L 250.665059 468.552892 
L 250.942967 472.81488 
L 251.220874 469.263224 
L 251.498782 469.263224 
L 251.77669 469.973555 
L 252.054598 463.225407 
L 252.610414 474.235543 
L 252.888321 463.580573 
L 253.166229 468.552892 
L 253.444137 469.263224 
L 253.722045 470.683886 
L 253.999953 468.552892 
L 254.277861 463.225407 
L 254.555768 471.039052 
L 254.833676 467.13223 
L 255.111584 475.30104 
L 255.389492 472.81488 
L 255.6674 466.066733 
L 255.945308 472.459714 
L 256.223215 467.13223 
L 256.779031 467.13223 
L 257.056939 470.683886 
L 257.334847 468.908058 
L 257.612755 464.290904 
L 257.890662 464.64607 
L 258.16857 469.263224 
L 258.446478 467.487395 
L 258.724386 463.935739 
L 259.002294 467.487395 
L 259.280202 469.263224 
L 259.558109 469.263224 
L 259.836017 467.13223 
L 260.113925 466.421898 
L 260.391833 465.356401 
L 260.669741 467.842561 
L 260.947649 465.001236 
L 261.225556 466.777064 
L 261.503464 469.973555 
L 261.781372 468.552892 
L 262.05928 468.552892 
L 262.337188 465.356401 
L 262.615096 465.001236 
L 263.170911 468.908058 
L 263.448819 463.935739 
L 263.726727 468.197727 
L 264.004635 465.711567 
L 264.282543 466.066733 
L 264.56045 469.973555 
L 264.838358 470.683886 
L 265.116266 462.515076 
L 265.394174 464.64607 
L 265.672082 464.64607 
L 265.94999 465.711567 
L 266.227897 467.487395 
L 266.505805 458.96342 
L 266.783713 468.552892 
L 267.339529 462.515076 
L 267.617437 462.515076 
L 267.895344 465.001236 
L 268.173252 461.094414 
L 268.45116 466.777064 
L 268.729068 467.487395 
L 269.006976 461.804745 
L 269.284884 462.515076 
L 269.562791 468.197727 
L 269.840699 460.384082 
L 270.118607 462.870242 
L 270.674423 465.711567 
L 270.952331 464.64607 
L 271.230238 467.13223 
L 271.508146 466.066733 
L 271.786054 460.028917 
L 272.063962 460.739248 
L 272.619778 464.290904 
L 272.897685 454.346266 
L 273.175593 465.711567 
L 273.453501 460.028917 
L 273.731409 462.870242 
L 274.009317 462.870242 
L 274.287225 466.777064 
L 274.565132 459.318585 
L 274.84304 463.225407 
L 275.120948 464.290904 
L 275.398856 464.290904 
L 275.676764 458.608254 
L 275.954672 457.897923 
L 276.510487 463.225407 
L 276.788395 464.290904 
L 277.344211 461.094414 
L 277.622119 461.094414 
L 277.900026 463.935739 
L 278.177934 459.318585 
L 278.455842 463.935739 
L 278.73375 463.580573 
L 279.011658 459.318585 
L 279.289566 457.897923 
L 279.567473 462.15991 
L 279.845381 459.318585 
L 280.401197 461.804745 
L 280.679105 461.804745 
L 281.23492 456.47726 
L 281.512828 459.673751 
L 281.790736 457.542757 
L 282.068644 458.96342 
L 282.346552 455.411763 
L 282.624459 462.15991 
L 282.902367 456.122094 
L 283.180275 458.253088 
L 283.458183 467.487395 
L 283.736091 459.673751 
L 284.013999 457.897923 
L 284.291906 450.439444 
L 284.569814 458.253088 
L 284.847722 460.739248 
L 285.12563 458.96342 
L 285.403538 460.028917 
L 285.681446 459.673751 
L 285.959353 462.15991 
L 286.237261 456.832426 
L 286.515169 458.253088 
L 286.793077 455.056597 
L 287.070985 466.066733 
L 287.348893 461.449579 
L 287.6268 452.925604 
L 287.904708 459.318585 
L 288.182616 456.47726 
L 288.460524 456.832426 
L 288.738432 456.122094 
L 289.01634 461.094414 
L 289.294247 461.094414 
L 289.572155 447.242953 
L 289.850063 458.96342 
L 290.127971 465.356401 
L 290.683787 457.542757 
L 290.961694 454.701432 
L 291.239602 461.094414 
L 291.51751 461.804745 
L 291.795418 452.925604 
L 292.073326 456.122094 
L 292.351234 457.897923 
L 292.907049 453.991101 
L 293.184957 455.411763 
L 293.462865 458.608254 
L 293.740773 451.504941 
L 294.018681 453.991101 
L 294.296588 459.673751 
L 294.574496 456.832426 
L 294.852404 451.504941 
L 295.130312 459.673751 
L 295.40822 456.832426 
L 295.686128 452.215272 
L 295.964035 449.729113 
L 296.241943 452.570438 
L 296.519851 458.608254 
L 296.797759 451.504941 
L 297.075667 450.79461 
L 297.631482 454.346266 
L 297.90939 451.504941 
L 298.187298 456.122094 
L 298.465206 452.570438 
L 298.743114 447.242953 
L 299.021022 448.30845 
L 299.298929 447.953284 
L 299.576837 453.991101 
L 299.854745 450.439444 
L 300.132653 453.635935 
L 300.410561 454.701432 
L 300.688469 454.346266 
L 300.966376 450.084278 
L 301.244284 448.30845 
L 301.8001 457.187591 
L 302.078008 453.635935 
L 302.355916 451.860107 
L 302.633823 458.253088 
L 302.911731 445.111959 
L 303.189639 449.373947 
L 303.467547 456.122094 
L 303.745455 445.822291 
L 304.023363 451.860107 
L 304.30127 453.635935 
L 304.579178 453.280769 
L 304.857086 442.6258 
L 305.134994 445.467125 
L 305.412902 450.79461 
L 305.968717 444.401628 
L 306.246625 451.504941 
L 306.524533 450.439444 
L 306.802441 450.439444 
L 307.080349 442.6258 
L 307.358257 448.30845 
L 307.636164 443.691297 
L 307.914072 451.504941 
L 308.19198 438.718977 
L 308.469888 443.336131 
L 308.747796 445.111959 
L 309.025704 439.429309 
L 309.303611 445.467125 
L 309.581519 444.401628 
L 310.137335 452.925604 
L 310.415243 449.729113 
L 310.693151 436.943149 
L 310.971058 445.822291 
L 311.248966 445.467125 
L 311.526874 441.560303 
L 311.804782 435.522487 
L 312.360597 454.346266 
L 312.638505 442.6258 
L 312.916413 446.177456 
L 313.194321 442.6258 
L 313.750137 439.429309 
L 314.028044 446.887787 
L 314.305952 446.887787 
L 314.861768 437.653481 
L 315.139676 440.494806 
L 315.417584 435.522487 
L 315.695491 441.560303 
L 315.973399 441.560303 
L 316.251307 446.177456 
L 316.529215 446.177456 
L 316.807123 443.336131 
L 317.085031 444.401628 
L 317.362938 437.298315 
L 317.640846 445.467125 
L 318.196662 433.391493 
L 318.47457 440.849971 
L 318.752478 437.298315 
L 319.030385 440.849971 
L 319.308293 446.177456 
L 319.864109 436.587984 
L 320.142017 435.522487 
L 320.419925 433.746658 
L 320.697832 440.494806 
L 320.97574 433.036327 
L 321.253648 434.45699 
L 321.531556 434.812155 
L 321.809464 440.849971 
L 322.087372 440.849971 
L 322.365279 432.681161 
L 322.643187 431.615664 
L 322.921095 446.177456 
L 323.199003 432.681161 
L 323.476911 437.298315 
L 323.754819 436.232818 
L 324.032726 440.13964 
L 324.310634 425.577848 
L 324.588542 430.905333 
L 324.86645 440.13964 
L 325.144358 434.101824 
L 325.422266 437.298315 
L 325.700173 428.419174 
L 325.978081 429.484671 
L 326.255989 433.391493 
L 326.533897 430.550168 
L 326.811805 434.45699 
L 327.089713 432.681161 
L 327.36762 427.708842 
L 327.645528 426.998511 
L 327.923436 429.129505 
L 328.479252 425.222683 
L 328.75716 431.97083 
L 329.035067 428.774339 
L 329.312975 428.064008 
L 329.590883 420.605529 
L 329.868791 439.784474 
L 330.146699 424.157186 
L 330.424607 426.28818 
L 330.702514 429.839836 
L 330.980422 430.905333 
L 331.25833 424.512351 
L 331.536238 424.867517 
L 331.814146 427.708842 
L 332.092054 422.736523 
L 332.369961 429.839836 
L 332.647869 420.250364 
L 332.925777 418.474535 
L 333.203685 424.512351 
L 333.481593 418.829701 
L 333.759501 420.960695 
L 334.037408 412.081554 
L 334.315316 425.577848 
L 334.593224 424.512351 
L 334.871132 422.381358 
L 335.14904 422.026192 
L 335.426948 423.446854 
L 335.704855 418.474535 
L 335.982763 421.315861 
L 336.260671 422.026192 
L 336.816487 426.28818 
L 337.094395 418.829701 
L 337.372302 418.11937 
L 337.65021 423.446854 
L 337.928118 413.857382 
L 338.206026 412.791885 
L 338.483934 410.305725 
L 338.761842 423.80202 
L 339.317657 415.63321 
L 339.595565 416.698707 
L 339.873473 415.988376 
L 340.151381 420.250364 
L 340.429289 418.829701 
L 340.707196 420.605529 
L 340.985104 413.147051 
L 341.263012 417.053873 
L 341.54092 411.371222 
L 341.818828 412.791885 
L 342.096736 405.333406 
L 342.374643 408.529897 
L 342.930459 411.016057 
L 343.208367 416.698707 
L 343.486275 408.885063 
L 343.764182 408.529897 
L 344.04209 396.099099 
L 344.319998 400.005921 
L 344.597906 402.136915 
L 344.875814 409.595394 
L 345.153722 406.398903 
L 345.431629 407.4644 
L 345.709537 403.557578 
L 345.987445 411.371222 
L 346.265353 389.706118 
L 346.543261 385.799295 
L 346.821169 411.016057 
L 347.099076 392.547443 
L 347.376984 393.61294 
L 347.654892 400.361087 
L 347.9328 401.426584 
L 348.210708 394.678437 
L 348.766523 388.995786 
L 349.322339 396.454265 
L 349.878155 391.12678 
L 350.156063 402.492081 
L 350.43397 394.678437 
L 350.711878 392.192277 
L 350.989786 384.378633 
L 351.267694 395.743934 
L 351.545602 379.761479 
L 351.82351 392.902608 
L 352.101417 389.350952 
L 352.379325 383.313136 
L 352.657233 388.285455 
L 353.213049 379.406314 
L 353.490957 383.668302 
L 353.768864 384.023467 
L 354.046772 381.892473 
L 354.32468 386.864792 
L 354.602588 371.592669 
L 354.880496 388.285455 
L 355.158404 380.116645 
L 355.436311 375.499492 
L 355.992127 377.985651 
L 356.270035 376.564989 
L 356.547943 373.723663 
L 356.825851 369.10651 
L 357.103758 362.358362 
L 357.381666 369.10651 
L 357.659574 360.9377 
L 357.937482 371.592669 
L 358.21539 357.741209 
L 358.771205 372.303001 
L 359.049113 355.610215 
L 359.327021 365.554853 
L 359.604929 352.413724 
L 359.882837 360.582534 
L 360.160745 357.030878 
L 360.438652 350.993062 
L 360.71656 366.975516 
L 361.272376 360.227369 
L 361.550284 334.300276 
L 362.106099 362.003197 
L 362.384007 339.627761 
L 362.661915 337.141601 
L 362.939823 345.665577 
L 363.217731 364.489356 
L 363.495639 344.60008 
L 363.773546 344.60008 
L 364.051454 338.917429 
L 364.329362 326.131466 
L 364.60727 343.179417 
L 364.885178 333.234779 
L 365.163086 331.814116 
L 365.440993 329.327957 
L 365.718901 347.086239 
L 365.996809 325.421135 
L 366.274717 326.486632 
L 366.552625 316.541993 
L 366.830533 332.879613 
L 367.386348 305.887024 
L 367.664256 324.710803 
L 368.220072 304.466361 
L 368.49798 319.028153 
L 368.775887 325.065969 
L 369.053795 294.521723 
L 369.331703 293.456226 
L 369.609611 299.138876 
L 369.887519 288.839073 
L 370.165427 308.373183 
L 370.443334 309.43868 
L 370.99915 294.166557 
L 371.277058 302.690533 
L 371.554966 295.942386 
L 371.832874 302.690533 
L 372.110781 279.2496 
L 372.388689 298.07338 
L 372.666597 288.128741 
L 372.944505 295.58722 
L 373.222413 291.680398 
L 373.500321 269.304962 
L 373.778228 276.76344 
L 374.056136 271.435956 
L 374.334044 268.949796 
L 375.167767 257.584495 
L 375.445675 256.874164 
L 376.001491 263.622311 
L 376.279399 254.74317 
L 376.557307 240.181378 
L 376.835214 247.639857 
L 377.113122 259.715489 
L 377.668938 231.657403 
L 377.946846 233.433231 
L 378.224754 240.89171 
L 378.502661 223.133427 
L 378.780569 228.816078 
L 379.058477 224.55409 
L 379.336385 223.843758 
L 379.614293 234.498728 
L 379.892201 217.095611 
L 380.170108 209.992298 
L 380.448016 219.581771 
L 380.725924 205.019979 
L 381.003832 200.402825 
L 381.28174 192.589181 
L 381.559648 206.085476 
L 381.837555 171.989573 
L 382.115463 196.851169 
L 382.393371 174.475733 
L 382.671279 196.851169 
L 382.949187 169.858579 
L 383.227095 163.465598 
L 383.505002 172.344739 
L 383.78291 168.082751 
L 384.060818 168.082751 
L 384.338726 161.334604 
L 384.616634 157.782947 
L 384.894542 159.913941 
L 385.172449 133.986849 
L 385.450357 139.314333 
L 385.728265 147.483143 
L 386.006173 108.414922 
L 386.284081 131.855855 
L 386.561989 112.67691 
L 386.839896 124.397376 
L 387.117804 121.200885 
L 387.395712 101.666774 
L 387.67362 114.807903 
L 387.951528 114.807903 
L 388.229436 111.256247 
L 388.507343 110.545916 
L 388.785251 108.414922 
L 389.063159 104.152934 
L 389.341067 51.943583 
L 389.618975 90.656639 
L 389.896883 82.487829 
L 390.17479 66.150209 
L 390.452698 66.86054 
L 390.730606 68.636369 
L 391.008514 63.66405 
L 391.286422 61.888221 
L 391.56433 37.736957 
L 391.842237 40.578282 
L 392.120145 48.747092 
L 392.398053 40.223117 
L 392.675961 35.250797 
L 392.953869 41.643779 
L 393.231777 41.288614 
L 393.509684 99.890946 
L 394.0655 147.838309 
L 394.343408 166.306923 
L 394.621316 193.299512 
L 394.899224 198.626997 
L 395.177131 217.450777 
L 395.455039 198.271831 
L 396.010855 228.816078 
L 396.288763 247.995023 
L 396.566671 255.453501 
L 397.122486 280.670263 
L 397.400394 293.811392 
L 397.678302 295.942386 
L 397.95621 321.159147 
L 398.234118 323.290141 
L 398.789933 340.693258 
L 399.067841 335.365773 
L 399.345749 357.030878 
L 399.623657 362.713528 
L 399.901565 363.779025 
L 400.45738 396.099099 
L 400.735288 390.416449 
L 401.569012 415.278045 
L 401.846919 412.081554 
L 402.402735 430.195002 
L 402.680643 429.839836 
L 402.958551 431.97083 
L 403.236459 443.691297 
L 403.514366 443.691297 
L 403.792274 448.663616 
L 404.070182 460.384082 
L 404.34809 453.991101 
L 404.625998 463.935739 
L 405.181813 469.973555 
L 405.459721 468.197727 
L 405.737629 475.30104 
L 406.015537 478.852696 
L 406.571352 483.114684 
L 406.84926 487.731837 
L 407.127168 488.087003 
L 407.405076 488.797334 
L 407.682984 488.087003 
L 407.960892 486.311175 
L 408.238799 485.600843 
L 408.794615 480.628524 
L 409.072523 471.749383 
L 409.350431 473.170046 
L 409.628339 471.394217 
L 409.906246 466.421898 
L 410.184154 466.066733 
L 410.73997 450.084278 
L 411.017878 458.253088 
L 411.851601 431.615664 
L 412.129509 424.867517 
L 412.407417 424.157186 
L 412.685325 408.529897 
L 412.963233 422.381358 
L 413.24114 406.754069 
L 413.519048 402.847247 
L 413.796956 402.492081 
L 414.074864 397.164596 
L 414.352772 374.78916 
L 414.63068 374.078829 
L 414.908587 377.27532 
L 415.186495 363.423859 
L 415.464403 341.403589 
L 415.742311 357.030878 
L 416.020219 355.255049 
L 416.298127 336.076104 
L 416.576034 329.327957 
L 417.13185 300.914705 
L 417.409758 291.680398 
L 417.687666 278.539269 
L 417.965574 276.053109 
L 418.243481 263.977477 
L 418.521389 259.005158 
L 418.799297 238.050384 
L 419.077205 233.788397 
L 419.355113 192.234015 
L 419.633021 217.805942 
L 419.910928 201.468322 
L 420.466744 149.258972 
L 420.744652 164.531095 
L 421.02256 118.004394 
L 421.300468 100.246112 
L 421.856283 30.633644 
L 422.134191 26.726822 
L 422.412099 55.140074 
L 423.245822 35.605963 
L 423.52373 38.447288 
L 424.079546 65.084712 
L 424.357454 68.636369 
L 424.635362 99.890946 
L 424.913269 74.319019 
L 425.191177 77.160344 
L 425.469085 82.842995 
L 425.746993 98.470283 
L 426.024901 84.263657 
L 426.302809 88.880811 
L 426.580716 97.049621 
L 426.858624 98.115118 
L 427.41444 120.845719 
L 427.692348 125.462873 
L 427.970256 116.228566 
L 428.248163 122.621548 
L 428.526071 112.321744 
L 428.803979 159.20361 
L 429.081887 148.193475 
L 429.359795 158.138113 
L 429.637703 144.996984 
L 429.91561 162.755266 
L 430.193518 152.455462 
L 430.471426 149.258972 
L 431.027242 170.213745 
L 431.30515 169.148248 
L 431.860965 184.420371 
L 432.138873 168.793082 
L 432.416781 185.485868 
L 432.694689 180.158383 
L 432.972597 197.206335 
L 433.250504 204.664813 
L 433.528412 191.523684 
L 433.80632 204.664813 
L 434.084228 194.365009 
L 434.362136 217.805942 
L 434.640044 217.805942 
L 434.917951 200.04766 
L 435.473767 224.198924 
L 435.751675 221.002433 
L 436.029583 229.526409 
L 436.307491 232.012568 
L 436.585398 239.471047 
L 436.863306 221.357599 
L 437.141214 232.7229 
L 437.419122 261.136152 
L 437.69703 247.995023 
L 437.974937 250.481182 
L 438.252845 247.639857 
L 438.530753 261.491317 
L 438.808661 250.481182 
L 439.364477 254.74317 
L 439.642384 271.08079 
L 439.920292 280.670263 
L 440.1982 267.529134 
L 440.476108 267.173968 
L 440.754016 288.128741 
L 441.031924 278.184103 
L 441.309831 277.828937 
L 441.587739 281.025428 
L 441.865647 267.173968 
L 442.143555 277.473772 
L 442.421463 292.035563 
L 442.699371 299.138876 
L 442.977278 301.26987 
L 443.255186 289.194238 
L 443.533094 295.232054 
L 443.811002 305.531858 
L 444.08891 289.90457 
L 444.366818 284.93225 
L 444.644725 308.018018 
L 444.922633 300.559539 
L 445.200541 299.138876 
L 445.478449 300.559539 
L 445.756357 310.859343 
L 446.034265 303.045699 
L 446.312172 307.307686 
L 446.59008 326.486632 
L 446.867988 316.541993 
L 447.145896 312.280006 
L 447.423804 324.710803 
L 447.701712 311.569674 
L 447.979619 312.990337 
L 448.257527 324.355638 
L 448.535435 311.569674 
L 448.813343 332.524448 
L 449.091251 334.300276 
L 449.369159 332.169282 
L 449.924974 345.665577 
L 450.202882 343.889749 
L 450.48079 339.272595 
L 450.758698 340.693258 
L 451.036606 329.683123 
L 451.314513 351.348227 
L 451.592421 327.907294 
L 451.870329 335.365773 
L 452.148237 330.748619 
L 452.426145 346.020742 
L 452.704053 348.151736 
L 452.98196 347.086239 
L 453.259868 343.534583 
L 453.537776 348.151736 
L 453.815684 346.731074 
L 454.093592 357.030878 
L 454.3715 346.020742 
L 454.649407 357.741209 
L 454.927315 359.517037 
L 455.205223 353.124056 
L 455.483131 360.9377 
L 455.761039 358.45154 
L 456.038947 365.910019 
L 456.316854 363.068694 
L 456.594762 364.844522 
L 457.150578 373.013332 
L 457.428486 365.554853 
L 457.706394 371.947835 
L 457.984301 364.844522 
L 458.262209 364.489356 
L 458.540117 377.630485 
L 458.818025 374.078829 
L 459.095933 378.695982 
L 459.373841 372.303001 
L 459.651748 392.192277 
L 459.929656 385.44413 
L 460.207564 386.864792 
L 460.485472 385.088964 
L 460.76338 390.061283 
L 461.041288 384.378633 
L 461.319195 384.733798 
L 461.597103 373.723663 
L 461.875011 387.219958 
L 462.152919 379.051148 
L 462.430827 385.799295 
L 462.708735 386.154461 
L 462.986642 387.575124 
L 463.26455 384.023467 
L 463.542458 383.668302 
L 463.820366 397.164596 
L 464.098274 393.257774 
L 464.376182 392.902608 
L 464.654089 386.154461 
L 464.931997 406.043738 
L 465.209905 391.837112 
L 465.487813 402.492081 
L 465.765721 403.202412 
L 466.043629 396.809431 
L 466.321536 395.388768 
L 466.599444 408.885063 
L 467.15526 385.44413 
L 467.711075 402.492081 
L 467.988983 407.4644 
L 468.266891 406.043738 
L 468.822707 395.033602 
L 469.100615 408.529897 
L 469.378522 399.650756 
L 469.65643 403.202412 
L 469.934338 403.912744 
L 470.212246 408.529897 
L 470.490154 408.529897 
L 470.768062 418.474535 
L 471.323877 395.033602 
L 471.601785 407.819566 
L 471.879693 402.136915 
L 472.157601 401.071418 
L 472.435509 418.474535 
L 472.713416 411.371222 
L 472.991324 414.212548 
L 473.269232 414.212548 
L 473.54714 411.371222 
L 473.825048 423.091689 
L 474.102956 409.240228 
L 474.380863 419.895198 
L 474.658771 413.857382 
L 474.936679 420.960695 
L 475.214587 411.726388 
L 475.492495 422.026192 
L 475.770403 412.791885 
L 476.04831 412.436719 
L 476.326218 416.343541 
L 476.604126 415.278045 
L 476.882034 415.63321 
L 477.159942 419.540032 
L 477.43785 426.643345 
L 477.715757 427.708842 
L 477.993665 421.315861 
L 478.271573 424.867517 
L 478.827389 418.829701 
L 479.105297 426.643345 
L 479.383204 423.446854 
L 479.661112 424.867517 
L 479.93902 418.11937 
L 480.216928 420.960695 
L 480.494836 419.895198 
L 480.772744 424.157186 
L 481.050651 424.867517 
L 481.328559 421.671026 
L 481.606467 428.419174 
L 481.884375 428.774339 
L 482.162283 425.577848 
L 482.440191 419.895198 
L 482.718098 429.129505 
L 482.996006 427.708842 
L 483.273914 442.270634 
L 483.551822 427.708842 
L 483.82973 430.195002 
L 484.107638 430.905333 
L 484.385545 423.80202 
L 484.663453 425.933014 
L 484.941361 432.325996 
L 485.219269 426.643345 
L 485.497177 428.419174 
L 485.775085 428.774339 
L 486.052992 426.998511 
L 486.3309 430.550168 
L 486.608808 437.298315 
L 486.886716 430.195002 
L 487.164624 439.429309 
L 487.998347 424.157186 
L 488.276255 431.97083 
L 488.554163 434.812155 
L 488.832071 434.101824 
L 489.109979 434.101824 
L 489.665794 424.157186 
L 489.943702 436.232818 
L 490.22161 429.484671 
L 490.499518 436.587984 
L 490.777426 432.325996 
L 491.055333 438.718977 
L 491.333241 435.522487 
L 491.611149 441.560303 
L 491.889057 428.774339 
L 492.166965 437.653481 
L 492.444873 435.167321 
L 492.72278 428.774339 
L 493.000688 435.522487 
L 493.278596 435.167321 
L 493.556504 432.681161 
L 493.834412 441.560303 
L 494.11232 440.13964 
L 494.390227 439.784474 
L 494.668135 440.13964 
L 494.946043 439.784474 
L 495.223951 442.980965 
L 495.501859 438.008646 
L 496.057674 435.167321 
L 496.335582 444.046462 
L 496.61349 442.6258 
L 496.891398 443.691297 
L 497.169306 427.353677 
L 497.725121 443.336131 
L 498.003029 450.79461 
L 498.280937 437.298315 
L 498.558845 438.718977 
L 498.836753 443.336131 
L 499.11466 442.270634 
L 499.392568 442.6258 
L 499.670476 441.205137 
L 499.948384 446.177456 
L 500.226292 443.691297 
L 500.5042 445.822291 
L 500.782107 442.980965 
L 501.060015 450.084278 
L 501.337923 440.494806 
L 501.615831 440.849971 
L 502.449554 446.887787 
L 502.727462 450.439444 
L 503.00537 448.663616 
L 503.283278 441.560303 
L 503.561186 449.729113 
L 503.839094 445.111959 
L 504.117001 444.401628 
L 504.394909 446.532622 
L 504.672817 453.991101 
L 504.950725 445.111959 
L 505.228633 450.79461 
L 505.506541 451.860107 
L 505.784448 442.270634 
L 506.062356 450.439444 
L 506.340264 448.663616 
L 506.618172 452.570438 
L 506.89608 443.336131 
L 507.173988 445.822291 
L 507.451895 452.215272 
L 507.729803 444.401628 
L 508.007711 446.532622 
L 508.285619 446.177456 
L 508.563527 452.925604 
L 508.841435 447.598119 
L 509.119342 448.663616 
L 509.39725 446.532622 
L 509.675158 449.018781 
L 509.953066 444.756794 
L 510.230974 444.756794 
L 510.508882 446.177456 
L 510.786789 448.663616 
L 511.064697 455.766929 
L 511.342605 452.215272 
L 511.620513 446.177456 
L 511.898421 456.122094 
L 512.176329 447.953284 
L 512.454236 448.663616 
L 512.732144 451.149775 
L 513.010052 442.980965 
L 513.28796 456.832426 
L 513.565868 449.729113 
L 513.843776 455.056597 
L 514.399591 451.149775 
L 514.677499 453.991101 
L 514.955407 454.701432 
L 515.233315 453.635935 
L 515.511223 450.439444 
L 515.78913 450.79461 
L 516.344946 458.253088 
L 516.622854 451.860107 
L 516.900762 451.504941 
L 517.17867 454.346266 
L 517.456577 450.084278 
L 517.734485 456.47726 
L 518.012393 452.215272 
L 518.290301 450.084278 
L 518.568209 452.570438 
L 518.846117 461.449579 
L 519.401932 456.832426 
L 519.67984 456.47726 
L 519.957748 449.729113 
L 520.235656 455.766929 
L 520.513564 458.96342 
L 520.791471 452.925604 
L 521.069379 453.280769 
L 521.347287 451.149775 
L 521.625195 451.504941 
L 521.903103 455.766929 
L 522.181011 448.663616 
L 522.458918 452.215272 
L 522.736826 452.570438 
L 523.292642 458.96342 
L 523.57055 452.215272 
L 523.848458 456.832426 
L 524.126365 456.122094 
L 524.404273 451.860107 
L 524.682181 458.253088 
L 524.960089 456.832426 
L 525.237997 453.991101 
L 525.515905 459.673751 
L 525.793812 458.608254 
L 526.07172 460.028917 
L 526.349628 457.187591 
L 526.627536 458.253088 
L 526.905444 453.635935 
L 527.183352 454.346266 
L 527.461259 461.804745 
L 527.739167 452.215272 
L 528.017075 462.515076 
L 528.294983 462.870242 
L 528.572891 457.897923 
L 528.850799 460.739248 
L 529.128706 458.608254 
L 529.406614 463.225407 
L 529.684522 457.187591 
L 529.96243 458.253088 
L 530.518245 455.411763 
L 530.796153 458.253088 
L 531.351969 458.253088 
L 531.629877 456.122094 
L 532.185692 464.290904 
L 532.4636 461.804745 
L 532.741508 462.870242 
L 533.019416 461.804745 
L 533.297324 466.066733 
L 533.575232 458.96342 
L 533.853139 459.318585 
L 534.131047 465.356401 
L 534.408955 462.15991 
L 534.686863 461.094414 
L 534.964771 458.96342 
L 535.242679 463.935739 
L 535.520586 457.897923 
L 535.798494 456.47726 
L 536.076402 458.608254 
L 536.35431 455.411763 
L 536.632218 462.870242 
L 536.910126 460.028917 
L 537.188033 464.64607 
L 537.465941 464.64607 
L 537.743849 457.897923 
L 538.021757 454.701432 
L 538.577573 463.935739 
L 538.85548 456.47726 
L 539.411296 467.13223 
L 539.689204 457.187591 
L 539.967112 463.580573 
L 540.24502 463.580573 
L 540.800835 464.290904 
L 541.078743 457.542757 
L 541.356651 458.253088 
L 541.634559 468.197727 
L 541.912467 463.225407 
L 542.190374 463.580573 
L 542.468282 464.290904 
L 542.74619 460.384082 
L 543.302006 468.908058 
L 543.579914 463.935739 
L 543.857821 464.64607 
L 544.135729 462.15991 
L 544.413637 465.356401 
L 544.691545 467.13223 
L 544.969453 464.64607 
L 545.247361 465.001236 
L 545.525268 458.96342 
L 545.803176 464.64607 
L 546.081084 464.290904 
L 546.358992 462.870242 
L 546.6369 464.64607 
L 546.914808 462.870242 
L 547.192715 472.104549 
L 547.470623 464.64607 
L 547.748531 462.515076 
L 548.026439 464.290904 
L 548.304347 458.96342 
L 548.582255 468.552892 
L 548.860162 467.842561 
L 549.13807 465.711567 
L 549.415978 466.066733 
L 549.693886 467.842561 
L 549.971794 465.356401 
L 550.249702 469.263224 
L 550.527609 469.263224 
L 550.805517 465.356401 
L 551.083425 466.066733 
L 551.361333 466.421898 
L 551.639241 469.618389 
L 551.917149 467.13223 
L 552.195056 466.066733 
L 552.472964 469.973555 
L 552.750872 461.804745 
L 553.02878 464.290904 
L 553.306688 469.263224 
L 553.584596 458.253088 
L 553.862503 467.13223 
L 554.140411 467.13223 
L 554.696227 466.421898 
L 554.974135 464.64607 
L 555.252043 468.908058 
L 555.52995 469.618389 
L 555.807858 467.842561 
L 556.085766 467.487395 
L 556.363674 467.842561 
L 556.641582 466.066733 
L 556.91949 466.421898 
L 557.197397 470.683886 
L 557.475305 470.32872 
L 557.753213 467.842561 
L 558.031121 472.104549 
L 558.309029 465.711567 
L 558.586937 469.263224 
L 558.864844 471.039052 
L 559.142752 468.908058 
L 559.698568 470.32872 
L 559.976476 468.908058 
L 560.254384 474.235543 
L 560.532291 467.842561 
L 560.810199 468.552892 
L 561.088107 468.197727 
L 561.366015 465.001236 
L 561.643923 472.81488 
L 561.92183 473.880377 
L 562.199738 465.711567 
L 562.477646 473.525211 
L 562.755554 464.290904 
L 563.033462 470.32872 
L 563.31137 472.104549 
L 563.589277 465.711567 
L 564.145093 468.908058 
L 564.423001 471.394217 
L 564.700909 467.842561 
L 564.978817 470.683886 
L 565.256724 467.842561 
L 565.534632 467.842561 
L 565.81254 466.777064 
L 566.090448 468.552892 
L 566.368356 465.711567 
L 566.646264 472.459714 
L 566.924171 467.842561 
L 567.202079 471.039052 
L 567.479987 467.487395 
L 567.757895 468.552892 
L 568.035803 472.459714 
L 568.313711 473.880377 
L 568.591618 468.908058 
L 568.869526 471.039052 
L 569.147434 468.908058 
L 569.425342 470.32872 
L 569.70325 469.263224 
L 569.981158 469.973555 
L 570.259065 470.32872 
L 570.536973 468.197727 
L 570.814881 469.618389 
L 571.092789 477.432034 
L 571.370697 471.394217 
L 571.648605 474.235543 
L 571.926512 471.749383 
L 572.20442 467.13223 
L 572.760236 469.973555 
L 573.038144 475.656205 
L 573.316052 470.32872 
L 573.593959 470.683886 
L 573.871867 472.81488 
L 574.149775 467.487395 
L 574.427683 471.039052 
L 574.705591 471.394217 
L 574.983499 471.039052 
L 575.539314 471.039052 
L 575.817222 472.104549 
L 576.09513 469.263224 
L 576.373038 474.945874 
L 576.650946 473.170046 
L 576.928853 472.81488 
L 577.206761 466.777064 
L 577.484669 465.356401 
L 577.762577 470.683886 
L 578.040485 466.777064 
L 578.318393 472.104549 
L 578.5963 472.81488 
L 578.874208 472.104549 
L 579.152116 470.683886 
L 579.430024 473.170046 
L 579.707932 471.039052 
L 579.98584 476.011371 
L 580.541655 469.618389 
L 580.819563 471.394217 
L 581.097471 475.656205 
L 581.375379 473.880377 
L 581.653287 473.880377 
L 582.209102 471.749383 
L 582.764918 474.945874 
L 583.042826 471.394217 
L 583.320734 474.235543 
L 583.598641 473.880377 
L 583.876549 475.30104 
L 584.154457 476.011371 
L 584.432365 474.235543 
L 584.710273 473.525211 
L 584.988181 467.13223 
L 585.266088 474.235543 
L 585.543996 469.263224 
L 585.821904 472.459714 
L 586.37772 475.656205 
L 586.655628 475.656205 
L 586.933535 472.459714 
L 587.211443 472.104549 
L 587.489351 471.039052 
L 587.767259 471.394217 
L 588.045167 465.356401 
L 588.323075 470.32872 
L 588.600982 477.787199 
L 588.87889 468.908058 
L 589.156798 473.880377 
L 589.434706 475.656205 
L 589.712614 473.880377 
L 589.990522 474.590708 
L 590.268429 475.656205 
L 590.546337 474.945874 
L 590.824245 472.81488 
L 591.102153 473.525211 
L 591.380061 476.721702 
L 591.657969 471.749383 
L 591.935876 470.32872 
L 592.213784 473.170046 
L 592.491692 471.394217 
L 593.047508 477.076868 
L 593.325415 476.721702 
L 593.603323 474.235543 
L 593.881231 477.432034 
L 594.159139 473.170046 
L 594.437047 476.011371 
L 594.714955 471.394217 
L 594.992862 477.432034 
L 595.548678 474.235543 
L 595.826586 473.880377 
L 596.104494 473.880377 
L 596.382402 474.590708 
L 596.660309 477.432034 
L 596.938217 473.525211 
L 597.494033 476.011371 
L 597.771941 478.852696 
L 598.049849 474.590708 
L 598.327756 476.721702 
L 598.605664 469.973555 
L 599.16148 479.207862 
L 599.439388 470.683886 
L 599.717296 476.011371 
L 599.995203 475.30104 
L 600.273111 477.076868 
L 600.551019 475.30104 
L 600.828927 475.30104 
L 601.106835 478.852696 
L 601.384743 473.525211 
L 601.66265 478.852696 
L 601.940558 467.487395 
L 602.218466 476.366537 
L 602.496374 474.235543 
L 602.774282 476.011371 
L 603.05219 471.039052 
L 603.330097 477.432034 
L 603.608005 475.656205 
L 603.885913 472.81488 
L 604.163821 476.011371 
L 604.719637 472.81488 
L 604.997544 476.721702 
L 605.55336 474.590708 
L 605.831268 471.749383 
L 606.109176 478.852696 
L 606.387084 476.011371 
L 606.664991 471.749383 
L 606.942899 479.563027 
L 607.220807 469.263224 
L 607.498715 471.039052 
L 607.776623 476.366537 
L 608.054531 476.366537 
L 608.332438 476.011371 
L 608.610346 479.207862 
L 609.166162 474.945874 
L 609.44407 475.656205 
L 609.721978 475.30104 
L 610.277793 479.563027 
L 610.555701 474.590708 
L 610.833609 478.852696 
L 611.111517 484.890512 
L 611.389425 476.011371 
L 611.667332 474.235543 
L 611.94524 475.656205 
L 612.223148 479.563027 
L 613.056872 473.525211 
L 613.612687 476.366537 
L 613.890595 476.366537 
L 614.168503 475.656205 
L 614.446411 476.721702 
L 615.002226 473.880377 
L 615.280134 478.852696 
L 615.83595 473.525211 
L 616.113858 474.590708 
L 616.391766 477.787199 
L 616.669673 477.432034 
L 616.947581 476.366537 
L 617.225489 477.787199 
L 617.503397 476.011371 
L 617.781305 477.432034 
L 618.059213 472.459714 
L 618.33712 477.432034 
L 618.615028 478.142365 
L 618.892936 476.721702 
L 619.170844 478.142365 
L 619.448752 478.49753 
L 619.72666 479.918193 
L 620.004567 476.721702 
L 620.282475 477.787199 
L 620.560383 477.076868 
L 621.116199 475.30104 
L 621.394107 479.563027 
L 621.672014 476.366537 
L 621.949922 476.721702 
L 622.22783 482.759518 
L 622.505738 478.142365 
L 622.783646 478.49753 
L 623.061553 477.432034 
L 623.339461 480.273359 
L 623.617369 478.852696 
L 623.895277 473.525211 
L 624.173185 479.918193 
L 624.451093 475.30104 
L 624.729 479.207862 
L 625.006908 477.076868 
L 625.284816 478.852696 
L 625.840632 474.590708 
L 626.396447 479.563027 
L 626.674355 476.721702 
L 627.230171 481.338856 
L 627.508079 477.076868 
L 627.785987 483.46985 
L 628.063894 476.366537 
L 628.341802 477.787199 
L 628.61971 482.049187 
L 629.175526 476.721702 
L 629.453434 476.366537 
L 629.731341 477.432034 
L 630.009249 481.338856 
L 630.287157 480.273359 
L 630.565065 478.142365 
L 630.842973 480.98369 
L 631.120881 478.852696 
L 631.398788 480.628524 
L 631.676696 479.563027 
L 631.954604 477.076868 
L 632.232512 476.366537 
L 632.51042 480.273359 
L 632.788328 473.880377 
L 633.066235 477.432034 
L 633.344143 478.49753 
L 633.622051 478.852696 
L 633.899959 478.49753 
L 634.177867 476.011371 
L 634.455775 476.721702 
L 635.01159 482.049187 
L 635.289498 480.98369 
L 635.567406 476.011371 
L 635.845314 479.918193 
L 636.401129 478.49753 
L 636.956945 481.338856 
L 637.234853 477.076868 
L 637.790669 479.918193 
L 638.068576 479.918193 
L 638.346484 480.98369 
L 638.624392 480.628524 
L 638.9023 477.432034 
L 639.180208 478.49753 
L 639.458116 483.114684 
L 639.736023 481.338856 
L 640.013931 476.721702 
L 640.291839 477.787199 
L 640.569747 481.694021 
L 640.847655 477.076868 
L 641.125563 481.694021 
L 641.40347 476.366537 
L 641.681378 480.628524 
L 641.959286 479.918193 
L 642.237194 479.563027 
L 642.515102 482.404353 
L 642.79301 482.404353 
L 643.070917 482.759518 
L 643.348825 479.563027 
L 643.904641 477.432034 
L 644.182549 477.432034 
L 644.460457 476.721702 
L 644.738364 477.787199 
L 645.016272 479.918193 
L 645.29418 479.207862 
L 645.572088 479.918193 
L 645.849996 476.366537 
L 646.127904 480.628524 
L 646.405811 478.142365 
L 646.683719 481.338856 
L 646.961627 481.694021 
L 647.517443 477.432034 
L 647.795351 480.628524 
L 648.073258 478.852696 
L 648.351166 480.98369 
L 648.629074 484.180181 
L 648.906982 481.694021 
L 649.18489 476.721702 
L 649.462798 478.852696 
L 649.740705 479.207862 
L 650.018613 482.404353 
L 650.296521 482.759518 
L 651.130245 477.076868 
L 651.408152 479.207862 
L 651.68606 477.076868 
L 651.963968 480.628524 
L 652.241876 479.563027 
L 652.519784 482.404353 
L 652.797692 481.338856 
L 653.075599 481.338856 
L 653.353507 482.759518 
L 653.631415 480.98369 
L 653.909323 482.049187 
L 654.187231 477.076868 
L 654.465138 480.98369 
L 654.743046 481.338856 
L 655.020954 478.852696 
L 655.57677 481.338856 
L 655.854678 475.656205 
L 656.132585 480.273359 
L 656.410493 479.563027 
L 656.688401 482.759518 
L 656.966309 477.787199 
L 657.244217 476.366537 
L 657.522125 479.207862 
L 657.800032 479.207862 
L 658.07794 480.628524 
L 658.355848 478.142365 
L 658.911664 481.338856 
L 659.189572 478.142365 
L 659.467479 482.049187 
L 659.745387 481.694021 
L 660.023295 482.759518 
L 660.301203 479.563027 
L 660.579111 480.273359 
L 660.857019 478.49753 
L 661.134926 481.694021 
L 661.412834 479.207862 
L 661.690742 480.273359 
L 661.96865 483.114684 
L 662.246558 482.404353 
L 662.524466 480.628524 
L 662.802373 480.98369 
L 663.080281 482.049187 
L 663.358189 482.404353 
L 663.636097 478.49753 
L 663.914005 480.98369 
L 664.191913 478.852696 
L 664.46982 481.338856 
L 664.747728 480.628524 
L 665.025636 479.563027 
L 665.581452 483.825015 
L 666.137267 477.787199 
L 666.415175 480.98369 
L 666.693083 482.049187 
L 666.970991 479.207862 
L 667.526807 483.825015 
L 667.804714 485.245678 
L 668.082622 480.628524 
L 668.36053 482.404353 
L 668.638438 481.338856 
L 668.916346 478.852696 
L 669.194254 484.180181 
L 669.750069 479.207862 
L 670.027977 480.273359 
L 670.305885 478.852696 
L 670.583793 480.273359 
L 670.861701 480.98369 
L 671.139608 479.918193 
L 671.417516 477.076868 
L 671.695424 483.46985 
L 672.25124 477.787199 
L 672.529148 484.535347 
L 672.807055 479.918193 
L 673.084963 480.273359 
L 673.362871 478.852696 
L 673.918687 480.98369 
L 674.196595 479.563027 
L 674.474502 477.432034 
L 674.75241 481.338856 
L 675.030318 479.918193 
L 675.308226 482.759518 
L 675.586134 480.273359 
L 676.141949 484.535347 
L 676.697765 478.142365 
L 676.975673 482.049187 
L 677.253581 482.049187 
L 677.531489 480.628524 
L 677.809396 478.49753 
L 678.365212 483.825015 
L 678.64312 482.049187 
L 678.921028 478.852696 
L 679.198936 483.825015 
L 679.476843 478.852696 
L 679.754751 478.852696 
L 680.032659 479.918193 
L 680.310567 483.46985 
L 680.588475 480.98369 
L 680.866383 483.114684 
L 681.14429 480.628524 
L 681.422198 483.46985 
L 681.978014 481.338856 
L 682.255922 483.114684 
L 682.53383 483.114684 
L 682.811737 482.049187 
L 683.089645 479.918193 
L 683.367553 479.207862 
L 683.645461 483.825015 
L 683.923369 479.918193 
L 684.201277 483.46985 
L 684.479184 479.918193 
L 684.757092 480.628524 
L 685.035 476.721702 
L 685.035 476.721702 
" clip-path="url(#pa751940fef)" style="fill: none; stroke: #0000ff; stroke-width: 1.5; stroke-linecap: square"/>
   </g>
   <g id="patch_3">
    <path d="M 129.775152 489.1525 
L 129.775152 36.72 
" style="fill: none; stroke: #000000; stroke-width: 0.8; stroke-linejoin: miter; stroke-linecap: square"/>
   </g>
   <g id="patch_4">
    <path d="M 685.035 489.1525 
L 685.035 36.72 
" style="fill: none; stroke: #000000; stroke-width: 0.8; stroke-linejoin: miter; stroke-linecap: square"/>
   </g>
   <g id="patch_5">
    <path d="M 129.775152 489.1525 
L 685.035 489.1525 
" style="fill: none; stroke: #000000; stroke-width: 0.8; stroke-linejoin: miter; stroke-linecap: square"/>
   </g>
   <g id="patch_6">
    <path d="M 129.775152 36.72 
L 685.035 36.72 
" style="fill: none; stroke: #000000; stroke-width: 0.8; stroke-linejoin: miter; stroke-linecap: square"/>
   </g>
   <g id="legend_1">
    <g id="patch_7">
     <path d="M 492.425 100.294688 
L 676.535 100.294688 
L 676.535 45.22 
L 492.425 45.22 
z
" style="fill: #ffffff; opacity: 0.8; stroke: #000000; stroke-linejoin: miter"/>
    </g>
    <g id="line2d_31">
     <path d="M 499.225 58.987344 
L 516.225 58.987344 
L 533.225 58.987344 
" style="fill: none; stroke-dasharray: 14.8,6.4; stroke-dashoffset: 0; stroke: #ff0000; stroke-width: 4"/>
    </g>
    <g id="text_17">
     <!-- $\rho_0$ -->
     <g transform="translate(546.825 64.937344) scale(0.17 -0.17)">
      <use xlink:href="#DejaVuSans-Oblique-3c1"/>
      <use xlink:href="#DejaVuSans-30" transform="translate(63.476562 -16.40625) scale(0.7)"/>
     </g>
    </g>
    <g id="line2d_32">
     <path d="M 499.225 83.974688 
L 516.225 83.974688 
L 533.225 83.974688 
" style="fill: none; stroke: #0000ff; stroke-width: 1.5; stroke-linecap: square"/>
    </g>
    <g id="text_18">
     <!-- $\rho_0,\it{U=3,n=2}$ -->
     <g transform="translate(546.825 89.924688) scale(0.17 -0.17)">
      <defs>
       <path id="DejaVuSans-2c" d="M 750 794 
L 1409 794 
L 1409 256 
L 897 -744 
L 494 -744 
L 750 256 
L 750 794 
z
" transform="scale(0.015625)"/>
       <path id="DejaVuSans-Oblique-55" d="M 991 4666 
L 1625 4666 
L 1075 1831 
Q 1041 1641 1027 1517 
Q 1013 1394 1013 1300 
Q 1013 869 1253 645 
Q 1494 422 1959 422 
Q 2563 422 2898 753 
Q 3234 1084 3378 1831 
L 3928 4666 
L 4563 4666 
L 4000 1753 
Q 3816 809 3300 359 
Q 2784 -91 1888 -91 
Q 1188 -91 780 261 
Q 372 613 372 1216 
Q 372 1325 387 1461 
Q 403 1597 434 1753 
L 991 4666 
z
" transform="scale(0.015625)"/>
       <path id="DejaVuSans-3d" d="M 678 2906 
L 4684 2906 
L 4684 2381 
L 678 2381 
L 678 2906 
z
M 678 1631 
L 4684 1631 
L 4684 1100 
L 678 1100 
L 678 1631 
z
" transform="scale(0.015625)"/>
       <path id="DejaVuSans-Oblique-6e" d="M 3566 2113 
L 3156 0 
L 2578 0 
L 2988 2091 
Q 3016 2238 3031 2350 
Q 3047 2463 3047 2528 
Q 3047 2791 2881 2937 
Q 2716 3084 2419 3084 
Q 1956 3084 1622 2776 
Q 1288 2469 1184 1941 
L 800 0 
L 225 0 
L 903 3500 
L 1478 3500 
L 1363 2950 
Q 1603 3253 1940 3418 
Q 2278 3584 2650 3584 
Q 3113 3584 3367 3334 
Q 3622 3084 3622 2631 
Q 3622 2519 3608 2391 
Q 3594 2263 3566 2113 
z
" transform="scale(0.015625)"/>
      </defs>
      <use xlink:href="#DejaVuSans-Oblique-3c1" transform="translate(0 0.78125)"/>
      <use xlink:href="#DejaVuSans-30" transform="translate(63.476562 -15.625) scale(0.7)"/>
      <use xlink:href="#DejaVuSans-2c" transform="translate(110.74707 0.78125)"/>
      <use xlink:href="#DejaVuSans-Oblique-55" transform="translate(162.016602 0.78125)"/>
      <use xlink:href="#DejaVuSans-3d" transform="translate(254.692383 0.78125)"/>
      <use xlink:href="#DejaVuSans-33" transform="translate(357.963867 0.78125)"/>
      <use xlink:href="#DejaVuSans-2c" transform="translate(421.586914 0.78125)"/>
      <use xlink:href="#DejaVuSans-Oblique-6e" transform="translate(472.856445 0.78125)"/>
      <use xlink:href="#DejaVuSans-3d" transform="translate(555.717773 0.78125)"/>
      <use xlink:href="#DejaVuSans-32" transform="translate(658.989258 0.78125)"/>
     </g>
    </g>
   </g>
  </g>
 </g>
 <defs>
  <clipPath id="pa751940fef">
   <rect x="129.775152" y="36.72" width="555.259848" height="452.4325"/>
  </clipPath>
 </defs>
</svg>
