<?xml version="1.0" encoding="utf-8" standalone="no"?>
<!DOCTYPE svg PUBLIC "-//W3C//DTD SVG 1.1//EN"
  "http://www.w3.org/Graphics/SVG/1.1/DTD/svg11.dtd">
<svg xmlns:xlink="http://www.w3.org/1999/xlink" width="720pt" height="576pt" viewBox="0 0 720 576" xmlns="http://www.w3.org/2000/svg" version="1.1">
 <metadata>
  <rdf:RDF xmlns:dc="http://purl.org/dc/elements/1.1/" xmlns:cc="http://creativecommons.org/ns#" xmlns:rdf="http://www.w3.org/1999/02/22-rdf-syntax-ns#">
   <cc:Work>
    <dc:type rdf:resource="http://purl.org/dc/dcmitype/StillImage"/>
    <dc:date>2023-04-13T23:11:38.827111</dc:date>
    <dc:format>image/svg+xml</dc:format>
    <dc:creator>
     <cc:Agent>
      <dc:title>Matplotlib v3.7.1, https://matplotlib.org/</dc:title>
     </cc:Agent>
    </dc:creator>
   </cc:Work>
  </rdf:RDF>
 </metadata>
 <defs>
  <style type="text/css">*{stroke-linejoin: round; stroke-linecap: butt}</style>
 </defs>
 <g id="figure_1">
  <g id="patch_1">
   <path d="M 0 576 
L 720 576 
L 720 0 
L 0 0 
z
" style="fill: #ffffff"/>
  </g>
  <g id="axes_1">
   <g id="patch_2">
    <path d="M 148.197319 489.1525 
L 685.035 489.1525 
L 685.035 37.512 
L 148.197319 37.512 
z
" style="fill: #ffffff"/>
   </g>
   <g id="matplotlib.axis_1">
    <g id="xtick_1">
     <g id="line2d_1">
      <path d="M 148.197319 489.1525 
L 148.197319 37.512 
" clip-path="url(#p3d43f4534c)" style="fill: none; stroke: #b0b0b0; stroke-width: 0.8; stroke-linecap: square"/>
     </g>
     <g id="line2d_2">
      <defs>
       <path id="m11e600476f" d="M 0 0 
L 0 3.5 
" style="stroke: #000000; stroke-width: 0.8"/>
      </defs>
      <g>
       <use xlink:href="#m11e600476f" x="148.197319" y="489.1525" style="stroke: #000000; stroke-width: 0.8"/>
      </g>
     </g>
     <g id="text_1">
      <!-- −8 -->
      <g transform="translate(129.769585 515.148594) scale(0.25 -0.25)">
       <defs>
        <path id="DejaVuSans-2212" d="M 678 2272 
L 4684 2272 
L 4684 1741 
L 678 1741 
L 678 2272 
z
" transform="scale(0.015625)"/>
        <path id="DejaVuSans-38" d="M 2034 2216 
Q 1584 2216 1326 1975 
Q 1069 1734 1069 1313 
Q 1069 891 1326 650 
Q 1584 409 2034 409 
Q 2484 409 2743 651 
Q 3003 894 3003 1313 
Q 3003 1734 2745 1975 
Q 2488 2216 2034 2216 
z
M 1403 2484 
Q 997 2584 770 2862 
Q 544 3141 544 3541 
Q 544 4100 942 4425 
Q 1341 4750 2034 4750 
Q 2731 4750 3128 4425 
Q 3525 4100 3525 3541 
Q 3525 3141 3298 2862 
Q 3072 2584 2669 2484 
Q 3125 2378 3379 2068 
Q 3634 1759 3634 1313 
Q 3634 634 3220 271 
Q 2806 -91 2034 -91 
Q 1263 -91 848 271 
Q 434 634 434 1313 
Q 434 1759 690 2068 
Q 947 2378 1403 2484 
z
M 1172 3481 
Q 1172 3119 1398 2916 
Q 1625 2713 2034 2713 
Q 2441 2713 2670 2916 
Q 2900 3119 2900 3481 
Q 2900 3844 2670 4047 
Q 2441 4250 2034 4250 
Q 1625 4250 1398 4047 
Q 1172 3844 1172 3481 
z
" transform="scale(0.015625)"/>
       </defs>
       <use xlink:href="#DejaVuSans-2212"/>
       <use xlink:href="#DejaVuSans-38" x="83.789062"/>
      </g>
     </g>
    </g>
    <g id="xtick_2">
     <g id="line2d_3">
      <path d="M 215.302029 489.1525 
L 215.302029 37.512 
" clip-path="url(#p3d43f4534c)" style="fill: none; stroke: #b0b0b0; stroke-width: 0.8; stroke-linecap: square"/>
     </g>
     <g id="line2d_4">
      <g>
       <use xlink:href="#m11e600476f" x="215.302029" y="489.1525" style="stroke: #000000; stroke-width: 0.8"/>
      </g>
     </g>
     <g id="text_2">
      <!-- −6 -->
      <g transform="translate(196.874295 515.148594) scale(0.25 -0.25)">
       <defs>
        <path id="DejaVuSans-36" d="M 2113 2584 
Q 1688 2584 1439 2293 
Q 1191 2003 1191 1497 
Q 1191 994 1439 701 
Q 1688 409 2113 409 
Q 2538 409 2786 701 
Q 3034 994 3034 1497 
Q 3034 2003 2786 2293 
Q 2538 2584 2113 2584 
z
M 3366 4563 
L 3366 3988 
Q 3128 4100 2886 4159 
Q 2644 4219 2406 4219 
Q 1781 4219 1451 3797 
Q 1122 3375 1075 2522 
Q 1259 2794 1537 2939 
Q 1816 3084 2150 3084 
Q 2853 3084 3261 2657 
Q 3669 2231 3669 1497 
Q 3669 778 3244 343 
Q 2819 -91 2113 -91 
Q 1303 -91 875 529 
Q 447 1150 447 2328 
Q 447 3434 972 4092 
Q 1497 4750 2381 4750 
Q 2619 4750 2861 4703 
Q 3103 4656 3366 4563 
z
" transform="scale(0.015625)"/>
       </defs>
       <use xlink:href="#DejaVuSans-2212"/>
       <use xlink:href="#DejaVuSans-36" x="83.789062"/>
      </g>
     </g>
    </g>
    <g id="xtick_3">
     <g id="line2d_5">
      <path d="M 282.406739 489.1525 
L 282.406739 37.512 
" clip-path="url(#p3d43f4534c)" style="fill: none; stroke: #b0b0b0; stroke-width: 0.8; stroke-linecap: square"/>
     </g>
     <g id="line2d_6">
      <g>
       <use xlink:href="#m11e600476f" x="282.406739" y="489.1525" style="stroke: #000000; stroke-width: 0.8"/>
      </g>
     </g>
     <g id="text_3">
      <!-- −4 -->
      <g transform="translate(263.979005 515.148594) scale(0.25 -0.25)">
       <defs>
        <path id="DejaVuSans-34" d="M 2419 4116 
L 825 1625 
L 2419 1625 
L 2419 4116 
z
M 2253 4666 
L 3047 4666 
L 3047 1625 
L 3713 1625 
L 3713 1100 
L 3047 1100 
L 3047 0 
L 2419 0 
L 2419 1100 
L 313 1100 
L 313 1709 
L 2253 4666 
z
" transform="scale(0.015625)"/>
       </defs>
       <use xlink:href="#DejaVuSans-2212"/>
       <use xlink:href="#DejaVuSans-34" x="83.789062"/>
      </g>
     </g>
    </g>
    <g id="xtick_4">
     <g id="line2d_7">
      <path d="M 349.51145 489.1525 
L 349.51145 37.512 
" clip-path="url(#p3d43f4534c)" style="fill: none; stroke: #b0b0b0; stroke-width: 0.8; stroke-linecap: square"/>
     </g>
     <g id="line2d_8">
      <g>
       <use xlink:href="#m11e600476f" x="349.51145" y="489.1525" style="stroke: #000000; stroke-width: 0.8"/>
      </g>
     </g>
     <g id="text_4">
      <!-- −2 -->
      <g transform="translate(331.083715 515.148594) scale(0.25 -0.25)">
       <defs>
        <path id="DejaVuSans-32" d="M 1228 531 
L 3431 531 
L 3431 0 
L 469 0 
L 469 531 
Q 828 903 1448 1529 
Q 2069 2156 2228 2338 
Q 2531 2678 2651 2914 
Q 2772 3150 2772 3378 
Q 2772 3750 2511 3984 
Q 2250 4219 1831 4219 
Q 1534 4219 1204 4116 
Q 875 4013 500 3803 
L 500 4441 
Q 881 4594 1212 4672 
Q 1544 4750 1819 4750 
Q 2544 4750 2975 4387 
Q 3406 4025 3406 3419 
Q 3406 3131 3298 2873 
Q 3191 2616 2906 2266 
Q 2828 2175 2409 1742 
Q 1991 1309 1228 531 
z
" transform="scale(0.015625)"/>
       </defs>
       <use xlink:href="#DejaVuSans-2212"/>
       <use xlink:href="#DejaVuSans-32" x="83.789062"/>
      </g>
     </g>
    </g>
    <g id="xtick_5">
     <g id="line2d_9">
      <path d="M 416.61616 489.1525 
L 416.61616 37.512 
" clip-path="url(#p3d43f4534c)" style="fill: none; stroke: #b0b0b0; stroke-width: 0.8; stroke-linecap: square"/>
     </g>
     <g id="line2d_10">
      <g>
       <use xlink:href="#m11e600476f" x="416.61616" y="489.1525" style="stroke: #000000; stroke-width: 0.8"/>
      </g>
     </g>
     <g id="text_5">
      <!-- 0 -->
      <g transform="translate(408.663035 515.148594) scale(0.25 -0.25)">
       <defs>
        <path id="DejaVuSans-30" d="M 2034 4250 
Q 1547 4250 1301 3770 
Q 1056 3291 1056 2328 
Q 1056 1369 1301 889 
Q 1547 409 2034 409 
Q 2525 409 2770 889 
Q 3016 1369 3016 2328 
Q 3016 3291 2770 3770 
Q 2525 4250 2034 4250 
z
M 2034 4750 
Q 2819 4750 3233 4129 
Q 3647 3509 3647 2328 
Q 3647 1150 3233 529 
Q 2819 -91 2034 -91 
Q 1250 -91 836 529 
Q 422 1150 422 2328 
Q 422 3509 836 4129 
Q 1250 4750 2034 4750 
z
" transform="scale(0.015625)"/>
       </defs>
       <use xlink:href="#DejaVuSans-30"/>
      </g>
     </g>
    </g>
    <g id="xtick_6">
     <g id="line2d_11">
      <path d="M 483.72087 489.1525 
L 483.72087 37.512 
" clip-path="url(#p3d43f4534c)" style="fill: none; stroke: #b0b0b0; stroke-width: 0.8; stroke-linecap: square"/>
     </g>
     <g id="line2d_12">
      <g>
       <use xlink:href="#m11e600476f" x="483.72087" y="489.1525" style="stroke: #000000; stroke-width: 0.8"/>
      </g>
     </g>
     <g id="text_6">
      <!-- 2 -->
      <g transform="translate(475.767745 515.148594) scale(0.25 -0.25)">
       <use xlink:href="#DejaVuSans-32"/>
      </g>
     </g>
    </g>
    <g id="xtick_7">
     <g id="line2d_13">
      <path d="M 550.82558 489.1525 
L 550.82558 37.512 
" clip-path="url(#p3d43f4534c)" style="fill: none; stroke: #b0b0b0; stroke-width: 0.8; stroke-linecap: square"/>
     </g>
     <g id="line2d_14">
      <g>
       <use xlink:href="#m11e600476f" x="550.82558" y="489.1525" style="stroke: #000000; stroke-width: 0.8"/>
      </g>
     </g>
     <g id="text_7">
      <!-- 4 -->
      <g transform="translate(542.872455 515.148594) scale(0.25 -0.25)">
       <use xlink:href="#DejaVuSans-34"/>
      </g>
     </g>
    </g>
    <g id="xtick_8">
     <g id="line2d_15">
      <path d="M 617.93029 489.1525 
L 617.93029 37.512 
" clip-path="url(#p3d43f4534c)" style="fill: none; stroke: #b0b0b0; stroke-width: 0.8; stroke-linecap: square"/>
     </g>
     <g id="line2d_16">
      <g>
       <use xlink:href="#m11e600476f" x="617.93029" y="489.1525" style="stroke: #000000; stroke-width: 0.8"/>
      </g>
     </g>
     <g id="text_8">
      <!-- 6 -->
      <g transform="translate(609.977165 515.148594) scale(0.25 -0.25)">
       <use xlink:href="#DejaVuSans-36"/>
      </g>
     </g>
    </g>
    <g id="xtick_9">
     <g id="line2d_17">
      <path d="M 685.035 489.1525 
L 685.035 37.512 
" clip-path="url(#p3d43f4534c)" style="fill: none; stroke: #b0b0b0; stroke-width: 0.8; stroke-linecap: square"/>
     </g>
     <g id="line2d_18">
      <g>
       <use xlink:href="#m11e600476f" x="685.035" y="489.1525" style="stroke: #000000; stroke-width: 0.8"/>
      </g>
     </g>
     <g id="text_9">
      <!-- 8 -->
      <g transform="translate(677.081875 515.148594) scale(0.25 -0.25)">
       <use xlink:href="#DejaVuSans-38"/>
      </g>
     </g>
    </g>
    <g id="text_10">
     <!-- $\omega$ [-] -->
     <g transform="translate(391.74116 541.351719) scale(0.25 -0.25)">
      <defs>
       <path id="DejaVuSans-Oblique-3c9" d="M 1369 -91 
Q 72 -91 434 1766 
Q 575 2500 1256 3500 
L 1875 3500 
Q 1231 2500 1088 1750 
Q 819 397 1519 397 
Q 2166 397 2478 2078 
L 3009 2078 
Q 2669 388 3316 397 
Q 4013 403 4275 1750 
Q 4419 2500 4169 3500 
L 4788 3500 
Q 5075 2500 4934 1766 
Q 4578 -94 3278 -91 
Q 2428 -88 2503 844 
Q 2194 -91 1369 -91 
z
" transform="scale(0.015625)"/>
       <path id="Calibri-20" transform="scale(0.015625)"/>
       <path id="Calibri-5b" d="M 1684 -813 
Q 1684 -916 1661 -958 
Q 1638 -1000 1594 -1000 
L 794 -1000 
Q 756 -1000 722 -989 
Q 688 -978 659 -953 
Q 631 -928 614 -886 
Q 597 -844 597 -781 
L 597 4153 
Q 597 4213 614 4255 
Q 631 4297 659 4323 
Q 688 4350 722 4361 
Q 756 4372 794 4372 
L 1594 4372 
Q 1613 4372 1630 4362 
Q 1647 4353 1659 4328 
Q 1672 4303 1678 4267 
Q 1684 4231 1684 4178 
Q 1684 4078 1661 4034 
Q 1638 3991 1594 3991 
L 1084 3991 
L 1084 -622 
L 1594 -622 
Q 1613 -622 1630 -631 
Q 1647 -641 1659 -664 
Q 1672 -688 1678 -723 
Q 1684 -759 1684 -813 
z
" transform="scale(0.015625)"/>
       <path id="Calibri-2d" d="M 1744 1578 
Q 1744 1456 1716 1409 
Q 1688 1363 1634 1363 
L 328 1363 
Q 272 1363 244 1411 
Q 216 1459 216 1578 
Q 216 1697 244 1744 
Q 272 1791 328 1791 
L 1634 1791 
Q 1659 1791 1679 1781 
Q 1700 1772 1714 1745 
Q 1728 1719 1736 1678 
Q 1744 1638 1744 1578 
z
" transform="scale(0.015625)"/>
       <path id="Calibri-5d" d="M 1369 -781 
Q 1369 -844 1351 -886 
Q 1334 -928 1306 -953 
Q 1278 -978 1242 -989 
Q 1206 -1000 1169 -1000 
L 372 -1000 
Q 328 -1000 304 -958 
Q 281 -916 281 -813 
Q 281 -759 286 -723 
Q 291 -688 303 -664 
Q 316 -641 333 -631 
Q 350 -622 372 -622 
L 881 -622 
L 881 3991 
L 372 3991 
Q 328 3991 304 4034 
Q 281 4078 281 4178 
Q 281 4231 286 4267 
Q 291 4303 303 4328 
Q 316 4353 333 4362 
Q 350 4372 372 4372 
L 1169 4372 
Q 1206 4372 1242 4361 
Q 1278 4350 1306 4323 
Q 1334 4297 1351 4255 
Q 1369 4213 1369 4153 
L 1369 -781 
z
" transform="scale(0.015625)"/>
      </defs>
      <use xlink:href="#DejaVuSans-Oblique-3c9" transform="translate(0 0.6875)"/>
      <use xlink:href="#Calibri-20" transform="translate(83.740234 0.6875)"/>
      <use xlink:href="#Calibri-5b" transform="translate(106.347656 0.6875)"/>
      <use xlink:href="#Calibri-2d" transform="translate(137.011719 0.6875)"/>
      <use xlink:href="#Calibri-5d" transform="translate(167.626953 0.6875)"/>
     </g>
    </g>
   </g>
   <g id="matplotlib.axis_2">
    <g id="ytick_1">
     <g id="line2d_19">
      <path d="M 148.197319 489.1525 
L 685.035 489.1525 
" clip-path="url(#p3d43f4534c)" style="fill: none; stroke: #b0b0b0; stroke-width: 0.8; stroke-linecap: square"/>
     </g>
     <g id="line2d_20">
      <defs>
       <path id="mc2be4a3090" d="M 0 0 
L -3.5 0 
" style="stroke: #000000; stroke-width: 0.8"/>
      </defs>
      <g>
       <use xlink:href="#mc2be4a3090" x="148.197319" y="489.1525" style="stroke: #000000; stroke-width: 0.8"/>
      </g>
     </g>
     <g id="text_11">
      <!-- $\mathdefault{10^{-4}}$ -->
      <g transform="translate(82.447319 498.650547) scale(0.25 -0.25)">
       <defs>
        <path id="DejaVuSans-31" d="M 794 531 
L 1825 531 
L 1825 4091 
L 703 3866 
L 703 4441 
L 1819 4666 
L 2450 4666 
L 2450 531 
L 3481 531 
L 3481 0 
L 794 0 
L 794 531 
z
" transform="scale(0.015625)"/>
       </defs>
       <use xlink:href="#DejaVuSans-31" transform="translate(0 0.684375)"/>
       <use xlink:href="#DejaVuSans-30" transform="translate(63.623047 0.684375)"/>
       <use xlink:href="#DejaVuSans-2212" transform="translate(128.203125 38.965625) scale(0.7)"/>
       <use xlink:href="#DejaVuSans-34" transform="translate(186.855469 38.965625) scale(0.7)"/>
      </g>
     </g>
    </g>
    <g id="ytick_2">
     <g id="line2d_21">
      <path d="M 148.197319 398.8244 
L 685.035 398.8244 
" clip-path="url(#p3d43f4534c)" style="fill: none; stroke: #b0b0b0; stroke-width: 0.8; stroke-linecap: square"/>
     </g>
     <g id="line2d_22">
      <g>
       <use xlink:href="#mc2be4a3090" x="148.197319" y="398.8244" style="stroke: #000000; stroke-width: 0.8"/>
      </g>
     </g>
     <g id="text_12">
      <!-- $\mathdefault{10^{-3}}$ -->
      <g transform="translate(82.447319 408.322447) scale(0.25 -0.25)">
       <defs>
        <path id="DejaVuSans-33" d="M 2597 2516 
Q 3050 2419 3304 2112 
Q 3559 1806 3559 1356 
Q 3559 666 3084 287 
Q 2609 -91 1734 -91 
Q 1441 -91 1130 -33 
Q 819 25 488 141 
L 488 750 
Q 750 597 1062 519 
Q 1375 441 1716 441 
Q 2309 441 2620 675 
Q 2931 909 2931 1356 
Q 2931 1769 2642 2001 
Q 2353 2234 1838 2234 
L 1294 2234 
L 1294 2753 
L 1863 2753 
Q 2328 2753 2575 2939 
Q 2822 3125 2822 3475 
Q 2822 3834 2567 4026 
Q 2313 4219 1838 4219 
Q 1578 4219 1281 4162 
Q 984 4106 628 3988 
L 628 4550 
Q 988 4650 1302 4700 
Q 1616 4750 1894 4750 
Q 2613 4750 3031 4423 
Q 3450 4097 3450 3541 
Q 3450 3153 3228 2886 
Q 3006 2619 2597 2516 
z
" transform="scale(0.015625)"/>
       </defs>
       <use xlink:href="#DejaVuSans-31" transform="translate(0 0.765625)"/>
       <use xlink:href="#DejaVuSans-30" transform="translate(63.623047 0.765625)"/>
       <use xlink:href="#DejaVuSans-2212" transform="translate(128.203125 39.046875) scale(0.7)"/>
       <use xlink:href="#DejaVuSans-33" transform="translate(186.855469 39.046875) scale(0.7)"/>
      </g>
     </g>
    </g>
    <g id="ytick_3">
     <g id="line2d_23">
      <path d="M 148.197319 308.4963 
L 685.035 308.4963 
" clip-path="url(#p3d43f4534c)" style="fill: none; stroke: #b0b0b0; stroke-width: 0.8; stroke-linecap: square"/>
     </g>
     <g id="line2d_24">
      <g>
       <use xlink:href="#mc2be4a3090" x="148.197319" y="308.4963" style="stroke: #000000; stroke-width: 0.8"/>
      </g>
     </g>
     <g id="text_13">
      <!-- $\mathdefault{10^{-2}}$ -->
      <g transform="translate(82.447319 317.994347) scale(0.25 -0.25)">
       <use xlink:href="#DejaVuSans-31" transform="translate(0 0.765625)"/>
       <use xlink:href="#DejaVuSans-30" transform="translate(63.623047 0.765625)"/>
       <use xlink:href="#DejaVuSans-2212" transform="translate(128.203125 39.046875) scale(0.7)"/>
       <use xlink:href="#DejaVuSans-32" transform="translate(186.855469 39.046875) scale(0.7)"/>
      </g>
     </g>
    </g>
    <g id="ytick_4">
     <g id="line2d_25">
      <path d="M 148.197319 218.1682 
L 685.035 218.1682 
" clip-path="url(#p3d43f4534c)" style="fill: none; stroke: #b0b0b0; stroke-width: 0.8; stroke-linecap: square"/>
     </g>
     <g id="line2d_26">
      <g>
       <use xlink:href="#mc2be4a3090" x="148.197319" y="218.1682" style="stroke: #000000; stroke-width: 0.8"/>
      </g>
     </g>
     <g id="text_14">
      <!-- $\mathdefault{10^{-1}}$ -->
      <g transform="translate(82.447319 227.666247) scale(0.25 -0.25)">
       <use xlink:href="#DejaVuSans-31" transform="translate(0 0.684375)"/>
       <use xlink:href="#DejaVuSans-30" transform="translate(63.623047 0.684375)"/>
       <use xlink:href="#DejaVuSans-2212" transform="translate(128.203125 38.965625) scale(0.7)"/>
       <use xlink:href="#DejaVuSans-31" transform="translate(186.855469 38.965625) scale(0.7)"/>
      </g>
     </g>
    </g>
    <g id="ytick_5">
     <g id="line2d_27">
      <path d="M 148.197319 127.8401 
L 685.035 127.8401 
" clip-path="url(#p3d43f4534c)" style="fill: none; stroke: #b0b0b0; stroke-width: 0.8; stroke-linecap: square"/>
     </g>
     <g id="line2d_28">
      <g>
       <use xlink:href="#mc2be4a3090" x="148.197319" y="127.8401" style="stroke: #000000; stroke-width: 0.8"/>
      </g>
     </g>
     <g id="text_15">
      <!-- $\mathdefault{10^{0}}$ -->
      <g transform="translate(97.197319 137.338147) scale(0.25 -0.25)">
       <use xlink:href="#DejaVuSans-31" transform="translate(0 0.765625)"/>
       <use xlink:href="#DejaVuSans-30" transform="translate(63.623047 0.765625)"/>
       <use xlink:href="#DejaVuSans-30" transform="translate(128.203125 39.046875) scale(0.7)"/>
      </g>
     </g>
    </g>
    <g id="ytick_6">
     <g id="line2d_29">
      <path d="M 148.197319 37.512 
L 685.035 37.512 
" clip-path="url(#p3d43f4534c)" style="fill: none; stroke: #b0b0b0; stroke-width: 0.8; stroke-linecap: square"/>
     </g>
     <g id="line2d_30">
      <g>
       <use xlink:href="#mc2be4a3090" x="148.197319" y="37.512" style="stroke: #000000; stroke-width: 0.8"/>
      </g>
     </g>
     <g id="text_16">
      <!-- $\mathdefault{10^{1}}$ -->
      <g transform="translate(97.197319 47.010047) scale(0.25 -0.25)">
       <use xlink:href="#DejaVuSans-31" transform="translate(0 0.684375)"/>
       <use xlink:href="#DejaVuSans-30" transform="translate(63.623047 0.684375)"/>
       <use xlink:href="#DejaVuSans-31" transform="translate(128.203125 38.965625) scale(0.7)"/>
      </g>
     </g>
    </g>
    <g id="ytick_7">
     <g id="line2d_31">
      <defs>
       <path id="m6cca5d10d9" d="M 0 0 
L -2 0 
" style="stroke: #000000; stroke-width: 0.6"/>
      </defs>
      <g>
       <use xlink:href="#m6cca5d10d9" x="148.197319" y="461.961032" style="stroke: #000000; stroke-width: 0.6"/>
      </g>
     </g>
    </g>
    <g id="ytick_8">
     <g id="line2d_32">
      <g>
       <use xlink:href="#m6cca5d10d9" x="148.197319" y="446.055044" style="stroke: #000000; stroke-width: 0.6"/>
      </g>
     </g>
    </g>
    <g id="ytick_9">
     <g id="line2d_33">
      <g>
       <use xlink:href="#m6cca5d10d9" x="148.197319" y="434.769565" style="stroke: #000000; stroke-width: 0.6"/>
      </g>
     </g>
    </g>
    <g id="ytick_10">
     <g id="line2d_34">
      <g>
       <use xlink:href="#m6cca5d10d9" x="148.197319" y="426.015868" style="stroke: #000000; stroke-width: 0.6"/>
      </g>
     </g>
    </g>
    <g id="ytick_11">
     <g id="line2d_35">
      <g>
       <use xlink:href="#m6cca5d10d9" x="148.197319" y="418.863576" style="stroke: #000000; stroke-width: 0.6"/>
      </g>
     </g>
    </g>
    <g id="ytick_12">
     <g id="line2d_36">
      <g>
       <use xlink:href="#m6cca5d10d9" x="148.197319" y="412.8164" style="stroke: #000000; stroke-width: 0.6"/>
      </g>
     </g>
    </g>
    <g id="ytick_13">
     <g id="line2d_37">
      <g>
       <use xlink:href="#m6cca5d10d9" x="148.197319" y="407.578097" style="stroke: #000000; stroke-width: 0.6"/>
      </g>
     </g>
    </g>
    <g id="ytick_14">
     <g id="line2d_38">
      <g>
       <use xlink:href="#m6cca5d10d9" x="148.197319" y="402.957587" style="stroke: #000000; stroke-width: 0.6"/>
      </g>
     </g>
    </g>
    <g id="ytick_15">
     <g id="line2d_39">
      <g>
       <use xlink:href="#m6cca5d10d9" x="148.197319" y="371.632932" style="stroke: #000000; stroke-width: 0.6"/>
      </g>
     </g>
    </g>
    <g id="ytick_16">
     <g id="line2d_40">
      <g>
       <use xlink:href="#m6cca5d10d9" x="148.197319" y="355.726944" style="stroke: #000000; stroke-width: 0.6"/>
      </g>
     </g>
    </g>
    <g id="ytick_17">
     <g id="line2d_41">
      <g>
       <use xlink:href="#m6cca5d10d9" x="148.197319" y="344.441465" style="stroke: #000000; stroke-width: 0.6"/>
      </g>
     </g>
    </g>
    <g id="ytick_18">
     <g id="line2d_42">
      <g>
       <use xlink:href="#m6cca5d10d9" x="148.197319" y="335.687768" style="stroke: #000000; stroke-width: 0.6"/>
      </g>
     </g>
    </g>
    <g id="ytick_19">
     <g id="line2d_43">
      <g>
       <use xlink:href="#m6cca5d10d9" x="148.197319" y="328.535476" style="stroke: #000000; stroke-width: 0.6"/>
      </g>
     </g>
    </g>
    <g id="ytick_20">
     <g id="line2d_44">
      <g>
       <use xlink:href="#m6cca5d10d9" x="148.197319" y="322.4883" style="stroke: #000000; stroke-width: 0.6"/>
      </g>
     </g>
    </g>
    <g id="ytick_21">
     <g id="line2d_45">
      <g>
       <use xlink:href="#m6cca5d10d9" x="148.197319" y="317.249997" style="stroke: #000000; stroke-width: 0.6"/>
      </g>
     </g>
    </g>
    <g id="ytick_22">
     <g id="line2d_46">
      <g>
       <use xlink:href="#m6cca5d10d9" x="148.197319" y="312.629487" style="stroke: #000000; stroke-width: 0.6"/>
      </g>
     </g>
    </g>
    <g id="ytick_23">
     <g id="line2d_47">
      <g>
       <use xlink:href="#m6cca5d10d9" x="148.197319" y="281.304832" style="stroke: #000000; stroke-width: 0.6"/>
      </g>
     </g>
    </g>
    <g id="ytick_24">
     <g id="line2d_48">
      <g>
       <use xlink:href="#m6cca5d10d9" x="148.197319" y="265.398844" style="stroke: #000000; stroke-width: 0.6"/>
      </g>
     </g>
    </g>
    <g id="ytick_25">
     <g id="line2d_49">
      <g>
       <use xlink:href="#m6cca5d10d9" x="148.197319" y="254.113365" style="stroke: #000000; stroke-width: 0.6"/>
      </g>
     </g>
    </g>
    <g id="ytick_26">
     <g id="line2d_50">
      <g>
       <use xlink:href="#m6cca5d10d9" x="148.197319" y="245.359668" style="stroke: #000000; stroke-width: 0.6"/>
      </g>
     </g>
    </g>
    <g id="ytick_27">
     <g id="line2d_51">
      <g>
       <use xlink:href="#m6cca5d10d9" x="148.197319" y="238.207376" style="stroke: #000000; stroke-width: 0.6"/>
      </g>
     </g>
    </g>
    <g id="ytick_28">
     <g id="line2d_52">
      <g>
       <use xlink:href="#m6cca5d10d9" x="148.197319" y="232.1602" style="stroke: #000000; stroke-width: 0.6"/>
      </g>
     </g>
    </g>
    <g id="ytick_29">
     <g id="line2d_53">
      <g>
       <use xlink:href="#m6cca5d10d9" x="148.197319" y="226.921897" style="stroke: #000000; stroke-width: 0.6"/>
      </g>
     </g>
    </g>
    <g id="ytick_30">
     <g id="line2d_54">
      <g>
       <use xlink:href="#m6cca5d10d9" x="148.197319" y="222.301387" style="stroke: #000000; stroke-width: 0.6"/>
      </g>
     </g>
    </g>
    <g id="ytick_31">
     <g id="line2d_55">
      <g>
       <use xlink:href="#m6cca5d10d9" x="148.197319" y="190.976732" style="stroke: #000000; stroke-width: 0.6"/>
      </g>
     </g>
    </g>
    <g id="ytick_32">
     <g id="line2d_56">
      <g>
       <use xlink:href="#m6cca5d10d9" x="148.197319" y="175.070744" style="stroke: #000000; stroke-width: 0.6"/>
      </g>
     </g>
    </g>
    <g id="ytick_33">
     <g id="line2d_57">
      <g>
       <use xlink:href="#m6cca5d10d9" x="148.197319" y="163.785265" style="stroke: #000000; stroke-width: 0.6"/>
      </g>
     </g>
    </g>
    <g id="ytick_34">
     <g id="line2d_58">
      <g>
       <use xlink:href="#m6cca5d10d9" x="148.197319" y="155.031568" style="stroke: #000000; stroke-width: 0.6"/>
      </g>
     </g>
    </g>
    <g id="ytick_35">
     <g id="line2d_59">
      <g>
       <use xlink:href="#m6cca5d10d9" x="148.197319" y="147.879276" style="stroke: #000000; stroke-width: 0.6"/>
      </g>
     </g>
    </g>
    <g id="ytick_36">
     <g id="line2d_60">
      <g>
       <use xlink:href="#m6cca5d10d9" x="148.197319" y="141.8321" style="stroke: #000000; stroke-width: 0.6"/>
      </g>
     </g>
    </g>
    <g id="ytick_37">
     <g id="line2d_61">
      <g>
       <use xlink:href="#m6cca5d10d9" x="148.197319" y="136.593797" style="stroke: #000000; stroke-width: 0.6"/>
      </g>
     </g>
    </g>
    <g id="ytick_38">
     <g id="line2d_62">
      <g>
       <use xlink:href="#m6cca5d10d9" x="148.197319" y="131.973287" style="stroke: #000000; stroke-width: 0.6"/>
      </g>
     </g>
    </g>
    <g id="ytick_39">
     <g id="line2d_63">
      <g>
       <use xlink:href="#m6cca5d10d9" x="148.197319" y="100.648632" style="stroke: #000000; stroke-width: 0.6"/>
      </g>
     </g>
    </g>
    <g id="ytick_40">
     <g id="line2d_64">
      <g>
       <use xlink:href="#m6cca5d10d9" x="148.197319" y="84.742644" style="stroke: #000000; stroke-width: 0.6"/>
      </g>
     </g>
    </g>
    <g id="ytick_41">
     <g id="line2d_65">
      <g>
       <use xlink:href="#m6cca5d10d9" x="148.197319" y="73.457165" style="stroke: #000000; stroke-width: 0.6"/>
      </g>
     </g>
    </g>
    <g id="ytick_42">
     <g id="line2d_66">
      <g>
       <use xlink:href="#m6cca5d10d9" x="148.197319" y="64.703468" style="stroke: #000000; stroke-width: 0.6"/>
      </g>
     </g>
    </g>
    <g id="ytick_43">
     <g id="line2d_67">
      <g>
       <use xlink:href="#m6cca5d10d9" x="148.197319" y="57.551176" style="stroke: #000000; stroke-width: 0.6"/>
      </g>
     </g>
    </g>
    <g id="ytick_44">
     <g id="line2d_68">
      <g>
       <use xlink:href="#m6cca5d10d9" x="148.197319" y="51.504" style="stroke: #000000; stroke-width: 0.6"/>
      </g>
     </g>
    </g>
    <g id="ytick_45">
     <g id="line2d_69">
      <g>
       <use xlink:href="#m6cca5d10d9" x="148.197319" y="46.265697" style="stroke: #000000; stroke-width: 0.6"/>
      </g>
     </g>
    </g>
    <g id="ytick_46">
     <g id="line2d_70">
      <g>
       <use xlink:href="#m6cca5d10d9" x="148.197319" y="41.645187" style="stroke: #000000; stroke-width: 0.6"/>
      </g>
     </g>
    </g>
    <g id="text_17">
     <!-- $\rho$($\omega$) -->
     <g transform="translate(26.447319 258.08225) scale(0.25 -0.25)">
      <defs>
       <path id="DejaVuSans-Oblique-3c1" d="M 1203 2875 
Q 1453 3194 1981 3475 
Q 2188 3584 2756 3584 
Q 3394 3584 3694 3078 
Q 3994 2572 3834 1747 
Q 3672 922 3175 415 
Q 2678 -91 2041 -91 
Q 1656 -91 1409 63 
Q 1163 213 1044 525 
L 681 -1331 
L 103 -1331 
L 697 1716 
Q 838 2438 1203 2875 
z
M 3238 1747 
Q 3359 2381 3169 2744 
Q 2978 3103 2522 3103 
Q 2066 3103 1734 2744 
Q 1403 2381 1281 1747 
Q 1156 1113 1347 750 
Q 1538 391 1994 391 
Q 2450 391 2781 750 
Q 3113 1113 3238 1747 
z
" transform="scale(0.015625)"/>
       <path id="Calibri-28" d="M 1547 4306 
Q 1250 3678 1104 3017 
Q 959 2356 959 1688 
Q 959 1016 1107 356 
Q 1256 -303 1541 -938 
Q 1556 -975 1557 -1001 
Q 1559 -1028 1537 -1045 
Q 1516 -1063 1470 -1070 
Q 1425 -1078 1347 -1078 
Q 1291 -1078 1250 -1075 
Q 1209 -1072 1179 -1062 
Q 1150 -1053 1131 -1040 
Q 1113 -1028 1103 -1013 
Q 934 -694 806 -367 
Q 678 -41 590 296 
Q 503 634 459 979 
Q 416 1325 416 1678 
Q 416 2031 464 2375 
Q 513 2719 602 3058 
Q 691 3397 819 3725 
Q 947 4053 1106 4375 
Q 1109 4388 1123 4397 
Q 1138 4406 1163 4415 
Q 1188 4425 1231 4429 
Q 1275 4434 1344 4434 
Q 1416 4434 1459 4425 
Q 1503 4416 1528 4400 
Q 1553 4384 1556 4359 
Q 1559 4334 1547 4306 
z
" transform="scale(0.015625)"/>
       <path id="Calibri-29" d="M 1522 1678 
Q 1522 1325 1478 979 
Q 1434 634 1346 296 
Q 1259 -41 1132 -367 
Q 1006 -694 838 -1013 
Q 828 -1028 809 -1040 
Q 791 -1053 761 -1062 
Q 731 -1072 690 -1075 
Q 650 -1078 594 -1078 
Q 513 -1078 467 -1070 
Q 422 -1063 401 -1045 
Q 381 -1028 382 -1001 
Q 384 -975 400 -938 
Q 688 -306 834 355 
Q 981 1016 981 1688 
Q 981 2356 834 3017 
Q 688 3678 394 4306 
Q 381 4334 384 4359 
Q 388 4384 413 4400 
Q 438 4416 481 4425 
Q 525 4434 597 4434 
Q 663 4434 706 4429 
Q 750 4425 776 4415 
Q 803 4406 815 4397 
Q 828 4388 834 4375 
Q 1156 3734 1339 3057 
Q 1522 2381 1522 1678 
z
" transform="scale(0.015625)"/>
      </defs>
      <use xlink:href="#DejaVuSans-Oblique-3c1" transform="translate(0 0.71875)"/>
      <use xlink:href="#Calibri-28" transform="translate(63.476562 0.71875)"/>
      <use xlink:href="#DejaVuSans-Oblique-3c9" transform="translate(93.798828 0.71875)"/>
      <use xlink:href="#Calibri-29" transform="translate(177.539062 0.71875)"/>
     </g>
    </g>
   </g>
   <g id="line2d_71">
    <path d="M 148.197319 401.932336 
L 162.020889 399.154914 
L 174.770784 396.368975 
L 186.447004 393.5927 
L 197.183758 390.813609 
L 206.981045 388.0525 
L 215.973076 385.293338 
L 224.29406 382.512055 
L 231.943997 379.725375 
L 239.057097 376.899821 
L 245.633358 374.048993 
L 251.672782 371.191485 
L 257.309578 368.279438 
L 262.543745 365.324583 
L 267.375284 362.343409 
L 271.938405 359.263436 
L 276.098897 356.190825 
L 279.99097 353.047041 
L 283.614624 349.844366 
L 287.104069 346.464116 
L 290.325095 343.039788 
L 293.411912 339.434618 
L 296.364519 335.635785 
L 299.048708 331.830475 
L 301.598686 327.848141 
L 304.148665 323.441139 
L 306.564435 318.798707 
L 308.845995 313.913206 
L 310.993346 308.780363 
L 313.006487 303.400661 
L 315.019629 297.354461 
L 316.89856 290.976792 
L 318.643283 284.273376 
L 320.388005 276.636221 
L 321.998518 268.548351 
L 323.474822 260.026861 
L 324.951126 250.148903 
L 326.29322 239.643042 
L 327.501105 228.557779 
L 328.708989 215.420996 
L 329.782665 201.438919 
L 330.85634 184.535042 
L 331.930015 163.850193 
L 334.077366 119.395336 
L 334.345785 117.622926 
L 334.479994 117.492535 
L 334.614204 117.882703 
L 334.882623 120.154504 
L 335.285251 126.620793 
L 336.090507 144.996897 
L 337.566811 178.248322 
L 338.774696 199.928634 
L 339.982581 217.45132 
L 341.190465 231.910152 
L 342.53256 245.302803 
L 343.874654 256.537845 
L 345.216748 266.061437 
L 346.693052 274.914628 
L 348.035146 281.708629 
L 349.37724 287.456791 
L 350.719334 292.263907 
L 351.927219 295.851479 
L 353.135104 298.786221 
L 354.208779 300.876539 
L 355.282455 302.501319 
L 356.221921 303.55531 
L 357.161386 304.276873 
L 357.966643 304.637352 
L 358.7719 304.764487 
L 359.577156 304.66195 
L 360.382413 304.332518 
L 361.187669 303.778002 
L 362.127135 302.84753 
L 363.066601 301.610846 
L 364.140276 299.818168 
L 365.348161 297.305919 
L 366.556046 294.246977 
L 367.763931 290.606918 
L 369.106025 285.819993 
L 370.448119 280.156866 
L 371.790213 273.477663 
L 373.132307 265.579757 
L 374.340192 257.18477 
L 375.548077 247.235961 
L 376.755962 235.234147 
L 377.829637 222.197275 
L 378.769103 208.197737 
L 379.708569 190.636488 
L 380.513826 171.250083 
L 381.184873 150.284976 
L 381.85592 122.423716 
L 383.063805 66.502836 
L 383.198014 67.896033 
L 383.466433 78.341268 
L 384.808527 148.397471 
L 385.613784 176.461021 
L 386.553249 201.051427 
L 387.626925 222.823485 
L 388.83481 242.388059 
L 390.176904 260.222914 
L 391.653207 276.694044 
L 393.26372 292.088216 
L 395.008443 306.640695 
L 397.021584 321.497971 
L 399.303144 336.607055 
L 402.121542 353.682929 
L 408.832013 393.537827 
L 410.442526 404.83905 
L 411.78462 415.891642 
L 412.858296 426.642121 
L 413.797762 438.522698 
L 414.468809 449.51062 
L 415.139856 464.442832 
L 415.676694 482.298105 
L 416.079322 504.308239 
L 416.347741 531.520419 
L 416.483317 577 
M 416.749002 577 
L 416.750369 558.717064 
L 417.018788 515.6058 
L 417.421416 488.367726 
L 417.958254 468.218032 
L 418.629301 452.096013 
L 419.434557 438.522698 
L 420.374023 426.642121 
L 421.447699 415.891642 
L 422.789793 404.83905 
L 424.400306 393.537827 
L 426.547657 380.181418 
L 435.539688 326.101808 
L 437.552829 311.789703 
L 439.431761 296.767668 
L 441.042274 282.078528 
L 442.518578 266.530647 
L 443.860672 249.924554 
L 445.068557 232.030876 
L 446.142232 212.58763 
L 447.081698 191.318063 
L 447.886955 168.012489 
L 448.558002 142.797758 
L 449.229049 109.430668 
L 450.034305 67.896033 
L 450.168515 66.502836 
L 450.302724 68.185548 
L 450.571143 78.783728 
L 451.779028 140.139307 
L 452.584284 167.476521 
L 453.389541 187.736396 
L 454.329007 205.941191 
L 455.402682 222.197275 
L 456.476357 235.234147 
L 457.684242 247.235961 
L 458.892127 257.18477 
L 460.234221 266.43195 
L 461.576315 274.196465 
L 462.91841 280.766185 
L 464.260504 286.336227 
L 465.602598 291.041455 
L 466.944692 294.975541 
L 468.286786 298.202745 
L 469.494671 300.5383 
L 470.568347 302.1785 
L 471.642022 303.416617 
L 472.581488 304.172629 
L 473.386744 304.57724 
L 474.192001 304.755671 
L 474.997257 304.705458 
L 475.802514 304.423222 
L 476.60777 303.904718 
L 477.547236 302.994352 
L 478.486702 301.745927 
L 479.560378 299.890818 
L 480.634053 297.559977 
L 481.841938 294.340054 
L 483.049823 290.448456 
L 484.257707 285.835336 
L 485.599802 279.785865 
L 486.941896 272.652435 
L 488.28399 264.277688 
L 489.626084 254.43946 
L 490.968178 242.814629 
L 492.176063 230.428556 
L 493.383948 215.672746 
L 494.457623 199.928634 
L 495.531299 180.901368 
L 496.604974 157.840148 
L 498.215487 121.957723 
L 498.618115 117.882703 
L 498.752325 117.492535 
L 498.886534 117.622926 
L 499.154953 119.395336 
L 499.557581 125.213102 
L 500.228628 139.542846 
L 501.839141 174.710865 
L 502.912817 193.40632 
L 504.120702 210.468896 
L 505.328586 224.43699 
L 506.670681 237.328806 
L 508.012775 248.177198 
L 509.489078 258.341965 
L 511.099591 267.8214 
L 512.710104 276.003637 
L 514.454827 283.721686 
L 516.333759 290.976792 
L 518.212691 297.354461 
L 520.225832 303.400661 
L 522.373183 309.118298 
L 524.520533 314.215761 
L 526.802094 319.070036 
L 529.217863 323.684938 
L 531.767842 328.067682 
L 534.452031 332.227786 
L 537.270428 336.176222 
L 540.223036 339.924771 
L 543.309852 343.485538 
L 546.530878 346.870593 
L 550.020323 350.214771 
L 553.778187 353.49781 
L 557.67026 356.603014 
L 561.830752 359.640597 
L 566.259663 362.602193 
L 571.091202 365.561437 
L 576.19116 368.424097 
L 581.693746 371.257772 
L 587.598961 374.048993 
L 594.041013 376.844071 
L 601.019903 379.623104 
L 608.53563 382.371218 
L 616.588196 385.077691 
L 625.311808 387.774972 
L 634.840677 390.485603 
L 645.174802 393.190619 
L 656.448393 395.906748 
L 668.661451 398.616198 
L 681.948183 401.331915 
L 685.035 401.932336 
L 685.035 401.932336 
" clip-path="url(#p3d43f4534c)" style="fill: none; stroke-dasharray: 14.8,6.4; stroke-dashoffset: 0; stroke: #ff0000; stroke-width: 4"/>
   </g>
   <g id="line2d_72">
    <path d="M 148.197319 325.057565 
L 153.297277 316.159602 
L 157.457769 308.948567 
L 160.947214 303.445994 
L 166.181382 295.496186 
L 167.657685 293.742613 
L 168.86557 292.651849 
L 169.939245 291.977342 
L 170.878711 291.622458 
L 171.818177 291.482126 
L 172.891853 291.558939 
L 174.099737 291.876087 
L 177.99181 293.079693 
L 179.065486 293.065898 
L 180.004952 292.829703 
L 180.944418 292.360189 
L 181.883884 291.645497 
L 182.957559 290.520435 
L 184.031234 289.058242 
L 185.239119 287.002198 
L 186.581213 284.215243 
L 188.057517 280.588659 
L 189.802239 275.691306 
L 196.51271 256.119305 
L 197.989014 252.787058 
L 199.196899 250.590677 
L 200.136365 249.294421 
L 200.941621 248.504359 
L 201.746878 248.012944 
L 202.552134 247.795167 
L 203.4916 247.814653 
L 205.236323 248.186796 
L 206.309998 248.285907 
L 207.115255 248.158372 
L 207.920511 247.809866 
L 208.859977 247.116266 
L 209.933653 246.011218 
L 213.154679 242.467387 
L 213.959935 241.976675 
L 214.630982 241.787614 
L 215.302029 241.817472 
L 215.973076 242.068973 
L 216.778333 242.645938 
L 217.717799 243.642959 
L 218.925684 245.30208 
L 220.536197 247.921726 
L 223.086176 252.555697 
L 225.367736 256.578594 
L 226.70983 258.534878 
L 228.051924 260.082875 
L 229.662437 261.558321 
L 235.299233 266.218406 
L 236.238699 266.670723 
L 237.043955 266.845991 
L 237.849212 266.774392 
L 238.520259 266.494322 
L 239.191306 265.991098 
L 239.996563 265.072639 
L 240.801819 263.804402 
L 241.741285 261.9035 
L 242.94917 258.893744 
L 246.841243 248.554314 
L 247.6465 247.316761 
L 248.317547 246.727085 
L 248.854384 246.542199 
L 249.391222 246.587168 
L 250.062269 246.908276 
L 251.001735 247.684407 
L 252.880667 249.334796 
L 253.685923 249.698345 
L 254.356971 249.740856 
L 255.028018 249.523608 
L 255.699065 249.05044 
L 256.504321 248.188802 
L 257.712206 246.510341 
L 259.456929 244.105317 
L 260.530604 243.039483 
L 261.604279 242.328661 
L 262.677955 241.880225 
L 263.75163 241.663801 
L 264.691096 241.718856 
L 265.496352 241.98856 
L 266.435818 242.574158 
L 267.375284 243.434122 
L 268.44896 244.743851 
L 269.388426 246.230945 
L 270.327892 248.135119 
L 271.401567 250.879826 
L 272.877871 255.38074 
L 275.159431 262.298954 
L 276.233106 264.856856 
L 277.172572 266.529797 
L 277.843619 267.348022 
L 278.514666 267.816716 
L 279.051504 267.927975 
L 279.588342 267.801937 
L 280.125179 267.44113 
L 280.796226 266.671535 
L 281.601483 265.308562 
L 282.540949 263.161217 
L 283.614624 260.070581 
L 285.225137 254.587776 
L 287.506697 246.861266 
L 288.983001 242.614351 
L 293.680331 229.881673 
L 296.23031 221.772626 
L 296.767147 220.753906 
L 297.169776 220.336961 
L 297.572404 220.255547 
L 297.975032 220.518411 
L 298.37766 221.110387 
L 298.914498 222.350042 
L 299.719755 224.928488 
L 301.867105 232.393291 
L 302.538152 233.834058 
L 303.07499 234.459063 
L 303.477618 234.600553 
L 303.880247 234.46371 
L 304.282875 234.064426 
L 304.819713 233.179719 
L 305.624969 231.345248 
L 306.967063 228.252194 
L 307.63811 227.228033 
L 308.309158 226.606943 
L 310.590718 224.958327 
L 311.395974 224.318041 
L 311.798602 224.226375 
L 312.201231 224.403282 
L 312.603859 224.909557 
L 313.006487 225.770052 
L 313.543325 227.434978 
L 314.348581 230.730895 
L 316.630142 240.535887 
L 319.31433 250.145915 
L 320.790634 255.103713 
L 321.59589 257.11058 
L 322.266937 258.216767 
L 322.803775 258.680607 
L 323.206403 258.784754 
L 323.609031 258.689836 
L 324.145869 258.265743 
L 324.682707 257.510524 
L 325.353754 256.113188 
L 326.15901 253.846872 
L 327.635314 249.511948 
L 328.172152 248.534537 
L 328.708989 247.999066 
L 329.380036 247.721757 
L 330.051084 247.411816 
L 330.587921 246.838508 
L 331.124759 245.839801 
L 331.795806 244.000017 
L 333.943157 237.488876 
L 334.614204 236.38312 
L 335.151042 235.937713 
L 335.55367 235.866218 
L 335.956298 235.996207 
L 336.761555 236.588799 
L 337.298392 236.870916 
L 337.701021 236.793207 
L 337.969439 236.529727 
L 338.372068 235.729664 
L 338.774696 234.352089 
L 339.311534 231.473646 
L 339.848371 227.276683 
L 340.519418 220.030275 
L 341.324675 208.44775 
L 342.666769 188.438305 
L 342.935188 186.630476 
L 343.069397 186.297284 
L 343.203607 186.38411 
L 343.472026 187.851017 
L 343.874654 193.023137 
L 344.545701 206.796099 
L 346.424633 247.913003 
L 347.498308 265.692501 
L 348.571984 279.556782 
L 349.645659 290.389321 
L 350.719334 298.893662 
L 351.79301 305.588608 
L 352.866685 310.865656 
L 353.94036 315.01611 
L 354.879826 317.82551 
L 355.819292 320.020683 
L 356.758758 321.677032 
L 357.698224 322.905769 
L 359.174528 324.417446 
L 359.845575 324.8266 
L 360.650831 325.046077 
L 361.321878 324.997119 
L 362.127135 324.654934 
L 362.932392 324.079424 
L 364.140276 322.810031 
L 366.556046 319.609316 
L 367.495512 317.906031 
L 369.106025 314.300046 
L 370.984957 309.852259 
L 372.59547 304.929718 
L 373.534936 301.547764 
L 375.413868 293.911695 
L 376.890171 286.386648 
L 378.232265 278.388909 
L 379.305941 270.531732 
L 380.916454 256.267587 
L 381.85592 246.589311 
L 382.929595 232.645754 
L 383.869061 217.897345 
L 384.808527 198.708129 
L 385.479574 181.485416 
L 386.150621 158.58412 
L 386.821668 126.894176 
L 387.761134 72.456987 
L 387.895344 71.452348 
L 388.029553 74.563313 
L 388.432181 98.609923 
L 389.237438 147.674196 
L 390.042694 181.31769 
L 390.847951 205.910022 
L 391.787417 228.104517 
L 392.861092 248.28036 
L 394.068977 266.812 
L 395.411071 284.021002 
L 396.887375 300.177916 
L 398.632097 316.711937 
L 400.511029 332.392734 
L 402.792589 349.490799 
L 406.013615 371.72257 
L 409.50306 396.112528 
L 411.113573 408.965644 
L 412.321458 420.290708 
L 413.260924 430.941891 
L 414.066181 442.345027 
L 414.737228 454.721949 
L 415.274065 468.151927 
L 415.676694 482.266123 
L 416.079322 504.298122 
L 416.347741 531.518078 
L 416.483317 577 
M 416.749002 577 
L 416.750369 558.716196 
L 417.018788 515.59912 
L 417.421416 488.34213 
L 417.958254 468.14815 
L 418.629301 451.940028 
L 419.434557 438.217989 
L 420.374023 426.100568 
L 421.447699 414.994285 
L 422.789793 403.365194 
L 424.534515 390.204619 
L 427.621332 368.959731 
L 431.110777 344.575779 
L 433.258128 328.022869 
L 435.13706 311.776921 
L 436.747573 295.895126 
L 438.223876 279.015441 
L 439.431761 262.770357 
L 440.639646 243.409812 
L 441.579112 224.988375 
L 442.518578 201.892042 
L 443.323834 175.99561 
L 443.994881 147.1118 
L 444.665928 107.134251 
L 445.202766 74.133919 
L 445.336976 71.338004 
L 445.471185 72.688184 
L 445.739604 85.212569 
L 446.813279 147.679053 
L 447.484326 173.610782 
L 448.289583 196.381759 
L 449.229049 216.264921 
L 450.168515 231.713354 
L 451.24219 245.556984 
L 452.450075 258.203373 
L 453.792169 269.836857 
L 455.134263 279.28333 
L 456.342148 286.541625 
L 457.684242 293.331033 
L 459.160546 299.419716 
L 461.442106 307.569128 
L 462.381572 310.487966 
L 463.723666 313.651171 
L 466.810483 319.988844 
L 467.749949 321.301594 
L 469.494671 323.382923 
L 470.702556 324.334361 
L 471.642022 324.827144 
L 472.313069 324.950057 
L 472.984116 324.840011 
L 473.923582 324.484619 
L 474.863048 323.878104 
L 475.668304 323.055737 
L 476.473561 321.909005 
L 477.413027 320.148664 
L 478.352493 317.878123 
L 479.291959 315.011759 
L 480.231425 311.436322 
L 481.170891 307.029282 
L 482.110357 301.599857 
L 483.049823 294.899183 
L 483.989289 286.628056 
L 484.928754 276.392259 
L 485.86822 263.681592 
L 486.807686 247.880991 
L 487.881362 225.479625 
L 489.491875 190.837858 
L 489.894503 186.880432 
L 490.028712 186.399574 
L 490.162922 186.352151 
L 490.297131 186.722867 
L 490.56555 188.588465 
L 490.968178 193.496847 
L 493.249739 226.145907 
L 493.920786 231.661734 
L 494.457623 234.583974 
L 494.994461 236.329416 
L 495.397089 236.973786 
L 495.799718 237.167492 
L 496.202346 237.049116 
L 497.678649 236.223548 
L 498.081278 236.308859 
L 498.483906 236.605782 
L 499.020744 237.332335 
L 499.691791 238.71377 
L 500.497047 240.930883 
L 502.24177 246.100294 
L 502.778607 247.043762 
L 503.315445 247.547333 
L 503.986492 247.770566 
L 504.52333 247.971773 
L 504.925958 248.330374 
L 505.462796 249.209284 
L 506.133843 250.906837 
L 508.146984 256.600429 
L 508.818031 257.79682 
L 509.354869 258.410053 
L 509.891707 258.678921 
L 510.294335 258.634532 
L 510.696963 258.375269 
L 511.233801 257.705983 
L 511.904848 256.387464 
L 512.710104 254.202509 
L 513.78378 250.568415 
L 517.541644 236.536747 
L 519.957413 226.606573 
L 520.494251 225.299967 
L 521.031089 224.580514 
L 521.433717 224.409577 
L 521.836345 224.501826 
L 522.373183 224.898159 
L 523.849486 226.125322 
L 525.32579 227.021861 
L 525.862628 227.674097 
L 526.533675 228.884565 
L 527.60735 231.440997 
L 528.546816 233.508923 
L 529.083654 234.273772 
L 529.486282 234.564347 
L 529.88891 234.585203 
L 530.291539 234.325444 
L 530.694167 233.785287 
L 531.231004 232.650557 
L 531.902052 230.657596 
L 533.109936 226.162488 
L 534.183612 222.453018 
L 534.854659 220.86973 
L 535.257287 220.316717 
L 535.659915 220.096734 
L 536.062544 220.212323 
L 536.465172 220.643261 
L 537.00201 221.638938 
L 537.807266 223.777189 
L 540.088826 231.021409 
L 541.967758 236.388171 
L 545.725622 246.907976 
L 547.336135 252.313606 
L 550.154533 262.012085 
L 551.093999 264.446502 
L 551.899255 266.034651 
L 552.704512 267.143022 
L 553.375559 267.685512 
L 553.912396 267.863806 
L 554.449234 267.814619 
L 554.986072 267.542287 
L 555.657119 266.902029 
L 556.328166 265.951493 
L 557.133423 264.439003 
L 558.207098 261.877332 
L 559.549192 258.02727 
L 562.501799 249.270362 
L 563.575475 246.914057 
L 564.514941 245.365894 
L 565.588616 244.036276 
L 566.796501 242.911961 
L 567.870176 242.202171 
L 568.809642 241.8505 
L 569.749108 241.770366 
L 570.822783 241.945169 
L 571.896459 242.339276 
L 572.835925 242.921245 
L 573.641181 243.666583 
L 574.580647 244.835331 
L 577.667464 249.011399 
L 578.338511 249.472534 
L 579.009558 249.667783 
L 579.680605 249.604775 
L 580.351652 249.31907 
L 581.291118 248.653789 
L 583.17005 247.209245 
L 583.841097 246.970712 
L 584.377935 246.987968 
L 584.914773 247.227337 
L 585.45161 247.707629 
L 586.122657 248.649064 
L 586.927914 250.237296 
L 588.001589 252.953972 
L 591.625244 262.715127 
L 592.564709 264.494339 
L 593.504175 265.804603 
L 594.309432 266.557893 
L 595.114688 266.989149 
L 595.785736 267.119405 
L 596.590992 267.027047 
L 597.396249 266.703244 
L 598.469924 266.001344 
L 600.080437 264.620154 
L 606.522489 258.580884 
L 607.864583 256.753889 
L 609.340887 254.342694 
L 615.51452 243.736543 
L 616.588196 242.483898 
L 617.393452 241.863055 
L 618.064499 241.597899 
L 618.735546 241.57845 
L 619.406594 241.800803 
L 620.21185 242.352384 
L 621.151316 243.294478 
L 624.77497 247.291243 
L 625.714436 247.833675 
L 626.519693 248.054205 
L 627.459159 248.066061 
L 628.801253 247.813955 
L 630.143347 247.608015 
L 630.948604 247.683196 
L 631.75386 247.996303 
L 632.559117 248.589088 
L 633.364373 249.476054 
L 634.303839 250.8724 
L 635.377515 252.899782 
L 636.719609 255.973234 
L 638.330122 260.275654 
L 640.611682 267.115519 
L 644.369546 278.442768 
L 646.114268 283.006014 
L 647.590572 286.290812 
L 648.932666 288.744469 
L 650.140551 290.486935 
L 651.214226 291.658647 
L 652.287901 292.483744 
L 653.227367 292.936439 
L 654.166833 293.158745 
L 655.240509 293.167606 
L 656.448393 292.935655 
L 658.461535 292.266356 
L 660.206257 291.780723 
L 661.414142 291.686736 
L 662.487817 291.840969 
L 663.561493 292.247074 
L 664.635168 292.915109 
L 665.708843 293.843872 
L 666.916728 295.182994 
L 668.393032 297.174349 
L 670.674592 300.703561 
L 676.579807 310.365664 
L 680.47188 317.335824 
L 684.095534 323.607251 
L 685.035 325.163484 
L 685.035 325.163484 
" clip-path="url(#p3d43f4534c)" style="fill: none; stroke: #0000ff; stroke-width: 1.5; stroke-linecap: square"/>
   </g>
   <g id="patch_3">
    <path d="M 148.197319 489.1525 
L 148.197319 37.512 
" style="fill: none; stroke: #000000; stroke-width: 0.8; stroke-linejoin: miter; stroke-linecap: square"/>
   </g>
   <g id="patch_4">
    <path d="M 685.035 489.1525 
L 685.035 37.512 
" style="fill: none; stroke: #000000; stroke-width: 0.8; stroke-linejoin: miter; stroke-linecap: square"/>
   </g>
   <g id="patch_5">
    <path d="M 148.197319 489.1525 
L 685.035 489.1525 
" style="fill: none; stroke: #000000; stroke-width: 0.8; stroke-linejoin: miter; stroke-linecap: square"/>
   </g>
   <g id="patch_6">
    <path d="M 148.197319 37.512 
L 685.035 37.512 
" style="fill: none; stroke: #000000; stroke-width: 0.8; stroke-linejoin: miter; stroke-linecap: square"/>
   </g>
   <g id="legend_1">
    <g id="patch_7">
     <path d="M 554.985 101.052156 
L 676.535 101.052156 
L 676.535 46.012 
L 554.985 46.012 
z
" style="fill: #ffffff; opacity: 0.8; stroke: #000000; stroke-linejoin: miter"/>
    </g>
    <g id="line2d_73">
     <path d="M 561.785 59.779344 
L 578.785 59.779344 
L 595.785 59.779344 
" style="fill: none; stroke-dasharray: 14.8,6.4; stroke-dashoffset: 0; stroke: #ff0000; stroke-width: 4"/>
    </g>
    <g id="text_18">
     <!-- $\rho_0$ -->
     <g transform="translate(609.385 65.729344) scale(0.17 -0.17)">
      <use xlink:href="#DejaVuSans-Oblique-3c1"/>
      <use xlink:href="#DejaVuSans-30" transform="translate(63.476562 -16.40625) scale(0.7)"/>
     </g>
    </g>
    <g id="line2d_74">
     <path d="M 561.785 84.766687 
L 578.785 84.766687 
L 595.785 84.766687 
" style="fill: none; stroke: #0000ff; stroke-width: 1.5; stroke-linecap: square"/>
    </g>
    <g id="text_19">
     <!-- $\it{U=6.0}$ -->
     <g transform="translate(609.385 90.716687) scale(0.17 -0.17)">
      <defs>
       <path id="DejaVuSans-Oblique-55" d="M 991 4666 
L 1625 4666 
L 1075 1831 
Q 1041 1641 1027 1517 
Q 1013 1394 1013 1300 
Q 1013 869 1253 645 
Q 1494 422 1959 422 
Q 2563 422 2898 753 
Q 3234 1084 3378 1831 
L 3928 4666 
L 4563 4666 
L 4000 1753 
Q 3816 809 3300 359 
Q 2784 -91 1888 -91 
Q 1188 -91 780 261 
Q 372 613 372 1216 
Q 372 1325 387 1461 
Q 403 1597 434 1753 
L 991 4666 
z
" transform="scale(0.015625)"/>
       <path id="DejaVuSans-3d" d="M 678 2906 
L 4684 2906 
L 4684 2381 
L 678 2381 
L 678 2906 
z
M 678 1631 
L 4684 1631 
L 4684 1100 
L 678 1100 
L 678 1631 
z
" transform="scale(0.015625)"/>
       <path id="DejaVuSans-2e" d="M 684 794 
L 1344 794 
L 1344 0 
L 684 0 
L 684 794 
z
" transform="scale(0.015625)"/>
      </defs>
      <use xlink:href="#DejaVuSans-Oblique-55" transform="translate(0 0.78125)"/>
      <use xlink:href="#DejaVuSans-3d" transform="translate(92.675781 0.78125)"/>
      <use xlink:href="#DejaVuSans-36" transform="translate(195.947266 0.78125)"/>
      <use xlink:href="#DejaVuSans-2e" transform="translate(259.570312 0.78125)"/>
      <use xlink:href="#DejaVuSans-30" transform="translate(291.357422 0.78125)"/>
     </g>
    </g>
   </g>
  </g>
 </g>
 <defs>
  <clipPath id="p3d43f4534c">
   <rect x="148.197319" y="37.512" width="536.837681" height="451.6405"/>
  </clipPath>
 </defs>
</svg>
