<?xml version="1.0" encoding="utf-8" standalone="no"?>
<!DOCTYPE svg PUBLIC "-//W3C//DTD SVG 1.1//EN"
  "http://www.w3.org/Graphics/SVG/1.1/DTD/svg11.dtd">
<svg xmlns:xlink="http://www.w3.org/1999/xlink" width="720pt" height="576pt" viewBox="0 0 720 576" xmlns="http://www.w3.org/2000/svg" version="1.1">
 <metadata>
  <rdf:RDF xmlns:dc="http://purl.org/dc/elements/1.1/" xmlns:cc="http://creativecommons.org/ns#" xmlns:rdf="http://www.w3.org/1999/02/22-rdf-syntax-ns#">
   <cc:Work>
    <dc:type rdf:resource="http://purl.org/dc/dcmitype/StillImage"/>
    <dc:date>2023-04-13T23:11:53.714121</dc:date>
    <dc:format>image/svg+xml</dc:format>
    <dc:creator>
     <cc:Agent>
      <dc:title>Matplotlib v3.7.1, https://matplotlib.org/</dc:title>
     </cc:Agent>
    </dc:creator>
   </cc:Work>
  </rdf:RDF>
 </metadata>
 <defs>
  <style type="text/css">*{stroke-linejoin: round; stroke-linecap: butt}</style>
 </defs>
 <g id="figure_1">
  <g id="patch_1">
   <path d="M 0 576 
L 720 576 
L 720 0 
L 0 0 
z
" style="fill: #ffffff"/>
  </g>
  <g id="axes_1">
   <g id="patch_2">
    <path d="M 117.638509 509.9875 
L 694.845 509.9875 
L 694.845 27.432 
L 117.638509 27.432 
z
" style="fill: #ffffff"/>
   </g>
   <g id="matplotlib.axis_1">
    <g id="xtick_1">
     <g id="line2d_1">
      <path d="M 117.638509 509.9875 
L 117.638509 27.432 
" clip-path="url(#p9df6ff12c0)" style="fill: none; stroke: #b0b0b0; stroke-width: 0.8; stroke-linecap: square"/>
     </g>
     <g id="line2d_2">
      <defs>
       <path id="m7279abb167" d="M 0 0 
L 0 3.5 
" style="stroke: #000000; stroke-width: 0.8"/>
      </defs>
      <g>
       <use xlink:href="#m7279abb167" x="117.638509" y="509.9875" style="stroke: #000000; stroke-width: 0.8"/>
      </g>
     </g>
     <g id="text_1">
      <!-- −8 -->
      <g transform="translate(104.370541 530.664688) scale(0.18 -0.18)">
       <defs>
        <path id="DejaVuSans-2212" d="M 678 2272 
L 4684 2272 
L 4684 1741 
L 678 1741 
L 678 2272 
z
" transform="scale(0.015625)"/>
        <path id="DejaVuSans-38" d="M 2034 2216 
Q 1584 2216 1326 1975 
Q 1069 1734 1069 1313 
Q 1069 891 1326 650 
Q 1584 409 2034 409 
Q 2484 409 2743 651 
Q 3003 894 3003 1313 
Q 3003 1734 2745 1975 
Q 2488 2216 2034 2216 
z
M 1403 2484 
Q 997 2584 770 2862 
Q 544 3141 544 3541 
Q 544 4100 942 4425 
Q 1341 4750 2034 4750 
Q 2731 4750 3128 4425 
Q 3525 4100 3525 3541 
Q 3525 3141 3298 2862 
Q 3072 2584 2669 2484 
Q 3125 2378 3379 2068 
Q 3634 1759 3634 1313 
Q 3634 634 3220 271 
Q 2806 -91 2034 -91 
Q 1263 -91 848 271 
Q 434 634 434 1313 
Q 434 1759 690 2068 
Q 947 2378 1403 2484 
z
M 1172 3481 
Q 1172 3119 1398 2916 
Q 1625 2713 2034 2713 
Q 2441 2713 2670 2916 
Q 2900 3119 2900 3481 
Q 2900 3844 2670 4047 
Q 2441 4250 2034 4250 
Q 1625 4250 1398 4047 
Q 1172 3844 1172 3481 
z
" transform="scale(0.015625)"/>
       </defs>
       <use xlink:href="#DejaVuSans-2212"/>
       <use xlink:href="#DejaVuSans-38" x="83.789062"/>
      </g>
     </g>
    </g>
    <g id="xtick_2">
     <g id="line2d_3">
      <path d="M 189.789321 509.9875 
L 189.789321 27.432 
" clip-path="url(#p9df6ff12c0)" style="fill: none; stroke: #b0b0b0; stroke-width: 0.8; stroke-linecap: square"/>
     </g>
     <g id="line2d_4">
      <g>
       <use xlink:href="#m7279abb167" x="189.789321" y="509.9875" style="stroke: #000000; stroke-width: 0.8"/>
      </g>
     </g>
     <g id="text_2">
      <!-- −6 -->
      <g transform="translate(176.521352 530.664688) scale(0.18 -0.18)">
       <defs>
        <path id="DejaVuSans-36" d="M 2113 2584 
Q 1688 2584 1439 2293 
Q 1191 2003 1191 1497 
Q 1191 994 1439 701 
Q 1688 409 2113 409 
Q 2538 409 2786 701 
Q 3034 994 3034 1497 
Q 3034 2003 2786 2293 
Q 2538 2584 2113 2584 
z
M 3366 4563 
L 3366 3988 
Q 3128 4100 2886 4159 
Q 2644 4219 2406 4219 
Q 1781 4219 1451 3797 
Q 1122 3375 1075 2522 
Q 1259 2794 1537 2939 
Q 1816 3084 2150 3084 
Q 2853 3084 3261 2657 
Q 3669 2231 3669 1497 
Q 3669 778 3244 343 
Q 2819 -91 2113 -91 
Q 1303 -91 875 529 
Q 447 1150 447 2328 
Q 447 3434 972 4092 
Q 1497 4750 2381 4750 
Q 2619 4750 2861 4703 
Q 3103 4656 3366 4563 
z
" transform="scale(0.015625)"/>
       </defs>
       <use xlink:href="#DejaVuSans-2212"/>
       <use xlink:href="#DejaVuSans-36" x="83.789062"/>
      </g>
     </g>
    </g>
    <g id="xtick_3">
     <g id="line2d_5">
      <path d="M 261.940132 509.9875 
L 261.940132 27.432 
" clip-path="url(#p9df6ff12c0)" style="fill: none; stroke: #b0b0b0; stroke-width: 0.8; stroke-linecap: square"/>
     </g>
     <g id="line2d_6">
      <g>
       <use xlink:href="#m7279abb167" x="261.940132" y="509.9875" style="stroke: #000000; stroke-width: 0.8"/>
      </g>
     </g>
     <g id="text_3">
      <!-- −4 -->
      <g transform="translate(248.672163 530.664688) scale(0.18 -0.18)">
       <defs>
        <path id="DejaVuSans-34" d="M 2419 4116 
L 825 1625 
L 2419 1625 
L 2419 4116 
z
M 2253 4666 
L 3047 4666 
L 3047 1625 
L 3713 1625 
L 3713 1100 
L 3047 1100 
L 3047 0 
L 2419 0 
L 2419 1100 
L 313 1100 
L 313 1709 
L 2253 4666 
z
" transform="scale(0.015625)"/>
       </defs>
       <use xlink:href="#DejaVuSans-2212"/>
       <use xlink:href="#DejaVuSans-34" x="83.789062"/>
      </g>
     </g>
    </g>
    <g id="xtick_4">
     <g id="line2d_7">
      <path d="M 334.090943 509.9875 
L 334.090943 27.432 
" clip-path="url(#p9df6ff12c0)" style="fill: none; stroke: #b0b0b0; stroke-width: 0.8; stroke-linecap: square"/>
     </g>
     <g id="line2d_8">
      <g>
       <use xlink:href="#m7279abb167" x="334.090943" y="509.9875" style="stroke: #000000; stroke-width: 0.8"/>
      </g>
     </g>
     <g id="text_4">
      <!-- −2 -->
      <g transform="translate(320.822975 530.664688) scale(0.18 -0.18)">
       <defs>
        <path id="DejaVuSans-32" d="M 1228 531 
L 3431 531 
L 3431 0 
L 469 0 
L 469 531 
Q 828 903 1448 1529 
Q 2069 2156 2228 2338 
Q 2531 2678 2651 2914 
Q 2772 3150 2772 3378 
Q 2772 3750 2511 3984 
Q 2250 4219 1831 4219 
Q 1534 4219 1204 4116 
Q 875 4013 500 3803 
L 500 4441 
Q 881 4594 1212 4672 
Q 1544 4750 1819 4750 
Q 2544 4750 2975 4387 
Q 3406 4025 3406 3419 
Q 3406 3131 3298 2873 
Q 3191 2616 2906 2266 
Q 2828 2175 2409 1742 
Q 1991 1309 1228 531 
z
" transform="scale(0.015625)"/>
       </defs>
       <use xlink:href="#DejaVuSans-2212"/>
       <use xlink:href="#DejaVuSans-32" x="83.789062"/>
      </g>
     </g>
    </g>
    <g id="xtick_5">
     <g id="line2d_9">
      <path d="M 406.241755 509.9875 
L 406.241755 27.432 
" clip-path="url(#p9df6ff12c0)" style="fill: none; stroke: #b0b0b0; stroke-width: 0.8; stroke-linecap: square"/>
     </g>
     <g id="line2d_10">
      <g>
       <use xlink:href="#m7279abb167" x="406.241755" y="509.9875" style="stroke: #000000; stroke-width: 0.8"/>
      </g>
     </g>
     <g id="text_5">
      <!-- 0 -->
      <g transform="translate(400.515505 530.664688) scale(0.18 -0.18)">
       <defs>
        <path id="DejaVuSans-30" d="M 2034 4250 
Q 1547 4250 1301 3770 
Q 1056 3291 1056 2328 
Q 1056 1369 1301 889 
Q 1547 409 2034 409 
Q 2525 409 2770 889 
Q 3016 1369 3016 2328 
Q 3016 3291 2770 3770 
Q 2525 4250 2034 4250 
z
M 2034 4750 
Q 2819 4750 3233 4129 
Q 3647 3509 3647 2328 
Q 3647 1150 3233 529 
Q 2819 -91 2034 -91 
Q 1250 -91 836 529 
Q 422 1150 422 2328 
Q 422 3509 836 4129 
Q 1250 4750 2034 4750 
z
" transform="scale(0.015625)"/>
       </defs>
       <use xlink:href="#DejaVuSans-30"/>
      </g>
     </g>
    </g>
    <g id="xtick_6">
     <g id="line2d_11">
      <path d="M 478.392566 509.9875 
L 478.392566 27.432 
" clip-path="url(#p9df6ff12c0)" style="fill: none; stroke: #b0b0b0; stroke-width: 0.8; stroke-linecap: square"/>
     </g>
     <g id="line2d_12">
      <g>
       <use xlink:href="#m7279abb167" x="478.392566" y="509.9875" style="stroke: #000000; stroke-width: 0.8"/>
      </g>
     </g>
     <g id="text_6">
      <!-- 2 -->
      <g transform="translate(472.666316 530.664688) scale(0.18 -0.18)">
       <use xlink:href="#DejaVuSans-32"/>
      </g>
     </g>
    </g>
    <g id="xtick_7">
     <g id="line2d_13">
      <path d="M 550.543377 509.9875 
L 550.543377 27.432 
" clip-path="url(#p9df6ff12c0)" style="fill: none; stroke: #b0b0b0; stroke-width: 0.8; stroke-linecap: square"/>
     </g>
     <g id="line2d_14">
      <g>
       <use xlink:href="#m7279abb167" x="550.543377" y="509.9875" style="stroke: #000000; stroke-width: 0.8"/>
      </g>
     </g>
     <g id="text_7">
      <!-- 4 -->
      <g transform="translate(544.817127 530.664688) scale(0.18 -0.18)">
       <use xlink:href="#DejaVuSans-34"/>
      </g>
     </g>
    </g>
    <g id="xtick_8">
     <g id="line2d_15">
      <path d="M 622.694189 509.9875 
L 622.694189 27.432 
" clip-path="url(#p9df6ff12c0)" style="fill: none; stroke: #b0b0b0; stroke-width: 0.8; stroke-linecap: square"/>
     </g>
     <g id="line2d_16">
      <g>
       <use xlink:href="#m7279abb167" x="622.694189" y="509.9875" style="stroke: #000000; stroke-width: 0.8"/>
      </g>
     </g>
     <g id="text_8">
      <!-- 6 -->
      <g transform="translate(616.967939 530.664688) scale(0.18 -0.18)">
       <use xlink:href="#DejaVuSans-36"/>
      </g>
     </g>
    </g>
    <g id="xtick_9">
     <g id="line2d_17">
      <path d="M 694.845 509.9875 
L 694.845 27.432 
" clip-path="url(#p9df6ff12c0)" style="fill: none; stroke: #b0b0b0; stroke-width: 0.8; stroke-linecap: square"/>
     </g>
     <g id="line2d_18">
      <g>
       <use xlink:href="#m7279abb167" x="694.845" y="509.9875" style="stroke: #000000; stroke-width: 0.8"/>
      </g>
     </g>
     <g id="text_9">
      <!-- 8 -->
      <g transform="translate(689.11875 530.664688) scale(0.18 -0.18)">
       <use xlink:href="#DejaVuSans-38"/>
      </g>
     </g>
    </g>
    <g id="text_10">
     <!-- $\omega$ [-] -->
     <g transform="translate(388.331755 550.650937) scale(0.18 -0.18)">
      <defs>
       <path id="DejaVuSans-Oblique-3c9" d="M 1369 -91 
Q 72 -91 434 1766 
Q 575 2500 1256 3500 
L 1875 3500 
Q 1231 2500 1088 1750 
Q 819 397 1519 397 
Q 2166 397 2478 2078 
L 3009 2078 
Q 2669 388 3316 397 
Q 4013 403 4275 1750 
Q 4419 2500 4169 3500 
L 4788 3500 
Q 5075 2500 4934 1766 
Q 4578 -94 3278 -91 
Q 2428 -88 2503 844 
Q 2194 -91 1369 -91 
z
" transform="scale(0.015625)"/>
       <path id="Calibri-20" transform="scale(0.015625)"/>
       <path id="Calibri-5b" d="M 1684 -813 
Q 1684 -916 1661 -958 
Q 1638 -1000 1594 -1000 
L 794 -1000 
Q 756 -1000 722 -989 
Q 688 -978 659 -953 
Q 631 -928 614 -886 
Q 597 -844 597 -781 
L 597 4153 
Q 597 4213 614 4255 
Q 631 4297 659 4323 
Q 688 4350 722 4361 
Q 756 4372 794 4372 
L 1594 4372 
Q 1613 4372 1630 4362 
Q 1647 4353 1659 4328 
Q 1672 4303 1678 4267 
Q 1684 4231 1684 4178 
Q 1684 4078 1661 4034 
Q 1638 3991 1594 3991 
L 1084 3991 
L 1084 -622 
L 1594 -622 
Q 1613 -622 1630 -631 
Q 1647 -641 1659 -664 
Q 1672 -688 1678 -723 
Q 1684 -759 1684 -813 
z
" transform="scale(0.015625)"/>
       <path id="Calibri-2d" d="M 1744 1578 
Q 1744 1456 1716 1409 
Q 1688 1363 1634 1363 
L 328 1363 
Q 272 1363 244 1411 
Q 216 1459 216 1578 
Q 216 1697 244 1744 
Q 272 1791 328 1791 
L 1634 1791 
Q 1659 1791 1679 1781 
Q 1700 1772 1714 1745 
Q 1728 1719 1736 1678 
Q 1744 1638 1744 1578 
z
" transform="scale(0.015625)"/>
       <path id="Calibri-5d" d="M 1369 -781 
Q 1369 -844 1351 -886 
Q 1334 -928 1306 -953 
Q 1278 -978 1242 -989 
Q 1206 -1000 1169 -1000 
L 372 -1000 
Q 328 -1000 304 -958 
Q 281 -916 281 -813 
Q 281 -759 286 -723 
Q 291 -688 303 -664 
Q 316 -641 333 -631 
Q 350 -622 372 -622 
L 881 -622 
L 881 3991 
L 372 3991 
Q 328 3991 304 4034 
Q 281 4078 281 4178 
Q 281 4231 286 4267 
Q 291 4303 303 4328 
Q 316 4353 333 4362 
Q 350 4372 372 4372 
L 1169 4372 
Q 1206 4372 1242 4361 
Q 1278 4350 1306 4323 
Q 1334 4297 1351 4255 
Q 1369 4213 1369 4153 
L 1369 -781 
z
" transform="scale(0.015625)"/>
      </defs>
      <use xlink:href="#DejaVuSans-Oblique-3c9" transform="translate(0 0.6875)"/>
      <use xlink:href="#Calibri-20" transform="translate(83.740234 0.6875)"/>
      <use xlink:href="#Calibri-5b" transform="translate(106.347656 0.6875)"/>
      <use xlink:href="#Calibri-2d" transform="translate(137.011719 0.6875)"/>
      <use xlink:href="#Calibri-5d" transform="translate(167.626953 0.6875)"/>
     </g>
    </g>
   </g>
   <g id="matplotlib.axis_2">
    <g id="ytick_1">
     <g id="line2d_19">
      <path d="M 117.638509 509.9875 
L 694.845 509.9875 
" clip-path="url(#p9df6ff12c0)" style="fill: none; stroke: #b0b0b0; stroke-width: 0.8; stroke-linecap: square"/>
     </g>
     <g id="line2d_20">
      <defs>
       <path id="m8fb76f9f8d" d="M 0 0 
L -3.5 0 
" style="stroke: #000000; stroke-width: 0.8"/>
      </defs>
      <g>
       <use xlink:href="#m8fb76f9f8d" x="117.638509" y="509.9875" style="stroke: #000000; stroke-width: 0.8"/>
      </g>
     </g>
     <g id="text_11">
      <!-- $\mathdefault{10^{-4}}$ -->
      <g transform="translate(68.338509 516.826094) scale(0.18 -0.18)">
       <defs>
        <path id="DejaVuSans-31" d="M 794 531 
L 1825 531 
L 1825 4091 
L 703 3866 
L 703 4441 
L 1819 4666 
L 2450 4666 
L 2450 531 
L 3481 531 
L 3481 0 
L 794 0 
L 794 531 
z
" transform="scale(0.015625)"/>
       </defs>
       <use xlink:href="#DejaVuSans-31" transform="translate(0 0.684375)"/>
       <use xlink:href="#DejaVuSans-30" transform="translate(63.623047 0.684375)"/>
       <use xlink:href="#DejaVuSans-2212" transform="translate(128.203125 38.965625) scale(0.7)"/>
       <use xlink:href="#DejaVuSans-34" transform="translate(186.855469 38.965625) scale(0.7)"/>
      </g>
     </g>
    </g>
    <g id="ytick_2">
     <g id="line2d_21">
      <path d="M 117.638509 413.4764 
L 694.845 413.4764 
" clip-path="url(#p9df6ff12c0)" style="fill: none; stroke: #b0b0b0; stroke-width: 0.8; stroke-linecap: square"/>
     </g>
     <g id="line2d_22">
      <g>
       <use xlink:href="#m8fb76f9f8d" x="117.638509" y="413.4764" style="stroke: #000000; stroke-width: 0.8"/>
      </g>
     </g>
     <g id="text_12">
      <!-- $\mathdefault{10^{-3}}$ -->
      <g transform="translate(68.338509 420.314994) scale(0.18 -0.18)">
       <defs>
        <path id="DejaVuSans-33" d="M 2597 2516 
Q 3050 2419 3304 2112 
Q 3559 1806 3559 1356 
Q 3559 666 3084 287 
Q 2609 -91 1734 -91 
Q 1441 -91 1130 -33 
Q 819 25 488 141 
L 488 750 
Q 750 597 1062 519 
Q 1375 441 1716 441 
Q 2309 441 2620 675 
Q 2931 909 2931 1356 
Q 2931 1769 2642 2001 
Q 2353 2234 1838 2234 
L 1294 2234 
L 1294 2753 
L 1863 2753 
Q 2328 2753 2575 2939 
Q 2822 3125 2822 3475 
Q 2822 3834 2567 4026 
Q 2313 4219 1838 4219 
Q 1578 4219 1281 4162 
Q 984 4106 628 3988 
L 628 4550 
Q 988 4650 1302 4700 
Q 1616 4750 1894 4750 
Q 2613 4750 3031 4423 
Q 3450 4097 3450 3541 
Q 3450 3153 3228 2886 
Q 3006 2619 2597 2516 
z
" transform="scale(0.015625)"/>
       </defs>
       <use xlink:href="#DejaVuSans-31" transform="translate(0 0.765625)"/>
       <use xlink:href="#DejaVuSans-30" transform="translate(63.623047 0.765625)"/>
       <use xlink:href="#DejaVuSans-2212" transform="translate(128.203125 39.046875) scale(0.7)"/>
       <use xlink:href="#DejaVuSans-33" transform="translate(186.855469 39.046875) scale(0.7)"/>
      </g>
     </g>
    </g>
    <g id="ytick_3">
     <g id="line2d_23">
      <path d="M 117.638509 316.9653 
L 694.845 316.9653 
" clip-path="url(#p9df6ff12c0)" style="fill: none; stroke: #b0b0b0; stroke-width: 0.8; stroke-linecap: square"/>
     </g>
     <g id="line2d_24">
      <g>
       <use xlink:href="#m8fb76f9f8d" x="117.638509" y="316.9653" style="stroke: #000000; stroke-width: 0.8"/>
      </g>
     </g>
     <g id="text_13">
      <!-- $\mathdefault{10^{-2}}$ -->
      <g transform="translate(68.338509 323.803894) scale(0.18 -0.18)">
       <use xlink:href="#DejaVuSans-31" transform="translate(0 0.765625)"/>
       <use xlink:href="#DejaVuSans-30" transform="translate(63.623047 0.765625)"/>
       <use xlink:href="#DejaVuSans-2212" transform="translate(128.203125 39.046875) scale(0.7)"/>
       <use xlink:href="#DejaVuSans-32" transform="translate(186.855469 39.046875) scale(0.7)"/>
      </g>
     </g>
    </g>
    <g id="ytick_4">
     <g id="line2d_25">
      <path d="M 117.638509 220.4542 
L 694.845 220.4542 
" clip-path="url(#p9df6ff12c0)" style="fill: none; stroke: #b0b0b0; stroke-width: 0.8; stroke-linecap: square"/>
     </g>
     <g id="line2d_26">
      <g>
       <use xlink:href="#m8fb76f9f8d" x="117.638509" y="220.4542" style="stroke: #000000; stroke-width: 0.8"/>
      </g>
     </g>
     <g id="text_14">
      <!-- $\mathdefault{10^{-1}}$ -->
      <g transform="translate(68.338509 227.292794) scale(0.18 -0.18)">
       <use xlink:href="#DejaVuSans-31" transform="translate(0 0.684375)"/>
       <use xlink:href="#DejaVuSans-30" transform="translate(63.623047 0.684375)"/>
       <use xlink:href="#DejaVuSans-2212" transform="translate(128.203125 38.965625) scale(0.7)"/>
       <use xlink:href="#DejaVuSans-31" transform="translate(186.855469 38.965625) scale(0.7)"/>
      </g>
     </g>
    </g>
    <g id="ytick_5">
     <g id="line2d_27">
      <path d="M 117.638509 123.9431 
L 694.845 123.9431 
" clip-path="url(#p9df6ff12c0)" style="fill: none; stroke: #b0b0b0; stroke-width: 0.8; stroke-linecap: square"/>
     </g>
     <g id="line2d_28">
      <g>
       <use xlink:href="#m8fb76f9f8d" x="117.638509" y="123.9431" style="stroke: #000000; stroke-width: 0.8"/>
      </g>
     </g>
     <g id="text_15">
      <!-- $\mathdefault{10^{0}}$ -->
      <g transform="translate(78.958509 130.781694) scale(0.18 -0.18)">
       <use xlink:href="#DejaVuSans-31" transform="translate(0 0.765625)"/>
       <use xlink:href="#DejaVuSans-30" transform="translate(63.623047 0.765625)"/>
       <use xlink:href="#DejaVuSans-30" transform="translate(128.203125 39.046875) scale(0.7)"/>
      </g>
     </g>
    </g>
    <g id="ytick_6">
     <g id="line2d_29">
      <path d="M 117.638509 27.432 
L 694.845 27.432 
" clip-path="url(#p9df6ff12c0)" style="fill: none; stroke: #b0b0b0; stroke-width: 0.8; stroke-linecap: square"/>
     </g>
     <g id="line2d_30">
      <g>
       <use xlink:href="#m8fb76f9f8d" x="117.638509" y="27.432" style="stroke: #000000; stroke-width: 0.8"/>
      </g>
     </g>
     <g id="text_16">
      <!-- $\mathdefault{10^{1}}$ -->
      <g transform="translate(78.958509 34.270594) scale(0.18 -0.18)">
       <use xlink:href="#DejaVuSans-31" transform="translate(0 0.684375)"/>
       <use xlink:href="#DejaVuSans-30" transform="translate(63.623047 0.684375)"/>
       <use xlink:href="#DejaVuSans-31" transform="translate(128.203125 38.965625) scale(0.7)"/>
      </g>
     </g>
    </g>
    <g id="ytick_7">
     <g id="line2d_31">
      <defs>
       <path id="m1128cd5418" d="M 0 0 
L -2 0 
" style="stroke: #000000; stroke-width: 0.6"/>
      </defs>
      <g>
       <use xlink:href="#m1128cd5418" x="117.638509" y="480.934764" style="stroke: #000000; stroke-width: 0.6"/>
      </g>
     </g>
    </g>
    <g id="ytick_8">
     <g id="line2d_32">
      <g>
       <use xlink:href="#m1128cd5418" x="117.638509" y="463.940003" style="stroke: #000000; stroke-width: 0.6"/>
      </g>
     </g>
    </g>
    <g id="ytick_9">
     <g id="line2d_33">
      <g>
       <use xlink:href="#m1128cd5418" x="117.638509" y="451.882028" style="stroke: #000000; stroke-width: 0.6"/>
      </g>
     </g>
    </g>
    <g id="ytick_10">
     <g id="line2d_34">
      <g>
       <use xlink:href="#m1128cd5418" x="117.638509" y="442.529136" style="stroke: #000000; stroke-width: 0.6"/>
      </g>
     </g>
    </g>
    <g id="ytick_11">
     <g id="line2d_35">
      <g>
       <use xlink:href="#m1128cd5418" x="117.638509" y="434.887267" style="stroke: #000000; stroke-width: 0.6"/>
      </g>
     </g>
    </g>
    <g id="ytick_12">
     <g id="line2d_36">
      <g>
       <use xlink:href="#m1128cd5418" x="117.638509" y="428.426159" style="stroke: #000000; stroke-width: 0.6"/>
      </g>
     </g>
    </g>
    <g id="ytick_13">
     <g id="line2d_37">
      <g>
       <use xlink:href="#m1128cd5418" x="117.638509" y="422.829292" style="stroke: #000000; stroke-width: 0.6"/>
      </g>
     </g>
    </g>
    <g id="ytick_14">
     <g id="line2d_38">
      <g>
       <use xlink:href="#m1128cd5418" x="117.638509" y="417.892506" style="stroke: #000000; stroke-width: 0.6"/>
      </g>
     </g>
    </g>
    <g id="ytick_15">
     <g id="line2d_39">
      <g>
       <use xlink:href="#m1128cd5418" x="117.638509" y="384.423664" style="stroke: #000000; stroke-width: 0.6"/>
      </g>
     </g>
    </g>
    <g id="ytick_16">
     <g id="line2d_40">
      <g>
       <use xlink:href="#m1128cd5418" x="117.638509" y="367.428903" style="stroke: #000000; stroke-width: 0.6"/>
      </g>
     </g>
    </g>
    <g id="ytick_17">
     <g id="line2d_41">
      <g>
       <use xlink:href="#m1128cd5418" x="117.638509" y="355.370928" style="stroke: #000000; stroke-width: 0.6"/>
      </g>
     </g>
    </g>
    <g id="ytick_18">
     <g id="line2d_42">
      <g>
       <use xlink:href="#m1128cd5418" x="117.638509" y="346.018036" style="stroke: #000000; stroke-width: 0.6"/>
      </g>
     </g>
    </g>
    <g id="ytick_19">
     <g id="line2d_43">
      <g>
       <use xlink:href="#m1128cd5418" x="117.638509" y="338.376167" style="stroke: #000000; stroke-width: 0.6"/>
      </g>
     </g>
    </g>
    <g id="ytick_20">
     <g id="line2d_44">
      <g>
       <use xlink:href="#m1128cd5418" x="117.638509" y="331.915059" style="stroke: #000000; stroke-width: 0.6"/>
      </g>
     </g>
    </g>
    <g id="ytick_21">
     <g id="line2d_45">
      <g>
       <use xlink:href="#m1128cd5418" x="117.638509" y="326.318192" style="stroke: #000000; stroke-width: 0.6"/>
      </g>
     </g>
    </g>
    <g id="ytick_22">
     <g id="line2d_46">
      <g>
       <use xlink:href="#m1128cd5418" x="117.638509" y="321.381406" style="stroke: #000000; stroke-width: 0.6"/>
      </g>
     </g>
    </g>
    <g id="ytick_23">
     <g id="line2d_47">
      <g>
       <use xlink:href="#m1128cd5418" x="117.638509" y="287.912564" style="stroke: #000000; stroke-width: 0.6"/>
      </g>
     </g>
    </g>
    <g id="ytick_24">
     <g id="line2d_48">
      <g>
       <use xlink:href="#m1128cd5418" x="117.638509" y="270.917803" style="stroke: #000000; stroke-width: 0.6"/>
      </g>
     </g>
    </g>
    <g id="ytick_25">
     <g id="line2d_49">
      <g>
       <use xlink:href="#m1128cd5418" x="117.638509" y="258.859828" style="stroke: #000000; stroke-width: 0.6"/>
      </g>
     </g>
    </g>
    <g id="ytick_26">
     <g id="line2d_50">
      <g>
       <use xlink:href="#m1128cd5418" x="117.638509" y="249.506936" style="stroke: #000000; stroke-width: 0.6"/>
      </g>
     </g>
    </g>
    <g id="ytick_27">
     <g id="line2d_51">
      <g>
       <use xlink:href="#m1128cd5418" x="117.638509" y="241.865067" style="stroke: #000000; stroke-width: 0.6"/>
      </g>
     </g>
    </g>
    <g id="ytick_28">
     <g id="line2d_52">
      <g>
       <use xlink:href="#m1128cd5418" x="117.638509" y="235.403959" style="stroke: #000000; stroke-width: 0.6"/>
      </g>
     </g>
    </g>
    <g id="ytick_29">
     <g id="line2d_53">
      <g>
       <use xlink:href="#m1128cd5418" x="117.638509" y="229.807092" style="stroke: #000000; stroke-width: 0.6"/>
      </g>
     </g>
    </g>
    <g id="ytick_30">
     <g id="line2d_54">
      <g>
       <use xlink:href="#m1128cd5418" x="117.638509" y="224.870306" style="stroke: #000000; stroke-width: 0.6"/>
      </g>
     </g>
    </g>
    <g id="ytick_31">
     <g id="line2d_55">
      <g>
       <use xlink:href="#m1128cd5418" x="117.638509" y="191.401464" style="stroke: #000000; stroke-width: 0.6"/>
      </g>
     </g>
    </g>
    <g id="ytick_32">
     <g id="line2d_56">
      <g>
       <use xlink:href="#m1128cd5418" x="117.638509" y="174.406703" style="stroke: #000000; stroke-width: 0.6"/>
      </g>
     </g>
    </g>
    <g id="ytick_33">
     <g id="line2d_57">
      <g>
       <use xlink:href="#m1128cd5418" x="117.638509" y="162.348728" style="stroke: #000000; stroke-width: 0.6"/>
      </g>
     </g>
    </g>
    <g id="ytick_34">
     <g id="line2d_58">
      <g>
       <use xlink:href="#m1128cd5418" x="117.638509" y="152.995836" style="stroke: #000000; stroke-width: 0.6"/>
      </g>
     </g>
    </g>
    <g id="ytick_35">
     <g id="line2d_59">
      <g>
       <use xlink:href="#m1128cd5418" x="117.638509" y="145.353967" style="stroke: #000000; stroke-width: 0.6"/>
      </g>
     </g>
    </g>
    <g id="ytick_36">
     <g id="line2d_60">
      <g>
       <use xlink:href="#m1128cd5418" x="117.638509" y="138.892859" style="stroke: #000000; stroke-width: 0.6"/>
      </g>
     </g>
    </g>
    <g id="ytick_37">
     <g id="line2d_61">
      <g>
       <use xlink:href="#m1128cd5418" x="117.638509" y="133.295992" style="stroke: #000000; stroke-width: 0.6"/>
      </g>
     </g>
    </g>
    <g id="ytick_38">
     <g id="line2d_62">
      <g>
       <use xlink:href="#m1128cd5418" x="117.638509" y="128.359206" style="stroke: #000000; stroke-width: 0.6"/>
      </g>
     </g>
    </g>
    <g id="ytick_39">
     <g id="line2d_63">
      <g>
       <use xlink:href="#m1128cd5418" x="117.638509" y="94.890364" style="stroke: #000000; stroke-width: 0.6"/>
      </g>
     </g>
    </g>
    <g id="ytick_40">
     <g id="line2d_64">
      <g>
       <use xlink:href="#m1128cd5418" x="117.638509" y="77.895603" style="stroke: #000000; stroke-width: 0.6"/>
      </g>
     </g>
    </g>
    <g id="ytick_41">
     <g id="line2d_65">
      <g>
       <use xlink:href="#m1128cd5418" x="117.638509" y="65.837628" style="stroke: #000000; stroke-width: 0.6"/>
      </g>
     </g>
    </g>
    <g id="ytick_42">
     <g id="line2d_66">
      <g>
       <use xlink:href="#m1128cd5418" x="117.638509" y="56.484736" style="stroke: #000000; stroke-width: 0.6"/>
      </g>
     </g>
    </g>
    <g id="ytick_43">
     <g id="line2d_67">
      <g>
       <use xlink:href="#m1128cd5418" x="117.638509" y="48.842867" style="stroke: #000000; stroke-width: 0.6"/>
      </g>
     </g>
    </g>
    <g id="ytick_44">
     <g id="line2d_68">
      <g>
       <use xlink:href="#m1128cd5418" x="117.638509" y="42.381759" style="stroke: #000000; stroke-width: 0.6"/>
      </g>
     </g>
    </g>
    <g id="ytick_45">
     <g id="line2d_69">
      <g>
       <use xlink:href="#m1128cd5418" x="117.638509" y="36.784892" style="stroke: #000000; stroke-width: 0.6"/>
      </g>
     </g>
    </g>
    <g id="ytick_46">
     <g id="line2d_70">
      <g>
       <use xlink:href="#m1128cd5418" x="117.638509" y="31.848106" style="stroke: #000000; stroke-width: 0.6"/>
      </g>
     </g>
    </g>
    <g id="text_17">
     <!-- $\rho$($\omega$) -->
     <g transform="translate(19.618509 264.92975) scale(0.18 -0.18)">
      <defs>
       <path id="DejaVuSans-Oblique-3c1" d="M 1203 2875 
Q 1453 3194 1981 3475 
Q 2188 3584 2756 3584 
Q 3394 3584 3694 3078 
Q 3994 2572 3834 1747 
Q 3672 922 3175 415 
Q 2678 -91 2041 -91 
Q 1656 -91 1409 63 
Q 1163 213 1044 525 
L 681 -1331 
L 103 -1331 
L 697 1716 
Q 838 2438 1203 2875 
z
M 3238 1747 
Q 3359 2381 3169 2744 
Q 2978 3103 2522 3103 
Q 2066 3103 1734 2744 
Q 1403 2381 1281 1747 
Q 1156 1113 1347 750 
Q 1538 391 1994 391 
Q 2450 391 2781 750 
Q 3113 1113 3238 1747 
z
" transform="scale(0.015625)"/>
       <path id="Calibri-28" d="M 1547 4306 
Q 1250 3678 1104 3017 
Q 959 2356 959 1688 
Q 959 1016 1107 356 
Q 1256 -303 1541 -938 
Q 1556 -975 1557 -1001 
Q 1559 -1028 1537 -1045 
Q 1516 -1063 1470 -1070 
Q 1425 -1078 1347 -1078 
Q 1291 -1078 1250 -1075 
Q 1209 -1072 1179 -1062 
Q 1150 -1053 1131 -1040 
Q 1113 -1028 1103 -1013 
Q 934 -694 806 -367 
Q 678 -41 590 296 
Q 503 634 459 979 
Q 416 1325 416 1678 
Q 416 2031 464 2375 
Q 513 2719 602 3058 
Q 691 3397 819 3725 
Q 947 4053 1106 4375 
Q 1109 4388 1123 4397 
Q 1138 4406 1163 4415 
Q 1188 4425 1231 4429 
Q 1275 4434 1344 4434 
Q 1416 4434 1459 4425 
Q 1503 4416 1528 4400 
Q 1553 4384 1556 4359 
Q 1559 4334 1547 4306 
z
" transform="scale(0.015625)"/>
       <path id="Calibri-29" d="M 1522 1678 
Q 1522 1325 1478 979 
Q 1434 634 1346 296 
Q 1259 -41 1132 -367 
Q 1006 -694 838 -1013 
Q 828 -1028 809 -1040 
Q 791 -1053 761 -1062 
Q 731 -1072 690 -1075 
Q 650 -1078 594 -1078 
Q 513 -1078 467 -1070 
Q 422 -1063 401 -1045 
Q 381 -1028 382 -1001 
Q 384 -975 400 -938 
Q 688 -306 834 355 
Q 981 1016 981 1688 
Q 981 2356 834 3017 
Q 688 3678 394 4306 
Q 381 4334 384 4359 
Q 388 4384 413 4400 
Q 438 4416 481 4425 
Q 525 4434 597 4434 
Q 663 4434 706 4429 
Q 750 4425 776 4415 
Q 803 4406 815 4397 
Q 828 4388 834 4375 
Q 1156 3734 1339 3057 
Q 1522 2381 1522 1678 
z
" transform="scale(0.015625)"/>
      </defs>
      <use xlink:href="#DejaVuSans-Oblique-3c1" transform="translate(0 0.71875)"/>
      <use xlink:href="#Calibri-28" transform="translate(63.476562 0.71875)"/>
      <use xlink:href="#DejaVuSans-Oblique-3c9" transform="translate(93.798828 0.71875)"/>
      <use xlink:href="#Calibri-29" transform="translate(177.539062 0.71875)"/>
     </g>
    </g>
   </g>
   <g id="line2d_71">
    <path d="M 117.638509 416.797076 
L 132.068672 413.919572 
L 145.344421 411.04852 
L 157.610059 408.170084 
L 168.865585 405.302567 
L 179.255302 402.428061 
L 188.779209 399.565929 
L 197.581608 396.692071 
L 205.662499 393.825426 
L 213.166184 390.932514 
L 220.092661 388.029333 
L 226.586234 385.068349 
L 232.646903 382.05856 
L 238.274666 379.012872 
L 243.469524 375.948963 
L 248.231478 372.890163 
L 252.704828 369.761029 
L 256.889575 366.571072 
L 260.930021 363.208471 
L 264.681863 359.794198 
L 268.145102 356.349767 
L 271.464039 352.739449 
L 274.638675 348.953388 
L 277.669009 344.982076 
L 280.555041 340.81675 
L 283.296772 336.449919 
L 285.894201 331.876032 
L 288.347329 327.092339 
L 290.656155 322.09995 
L 292.820679 316.905132 
L 294.985204 311.113899 
L 297.005426 305.060797 
L 298.881347 298.762 
L 300.757269 291.667888 
L 302.488888 284.254108 
L 304.220507 275.808438 
L 305.807825 266.930775 
L 307.250842 257.668493 
L 308.693858 246.956443 
L 309.992572 235.716299 
L 311.291287 222.482881 
L 312.4457 208.500692 
L 313.600113 191.716601 
L 314.754526 171.226769 
L 315.908939 146.452101 
L 317.207654 118.693004 
L 317.640558 113.713903 
L 317.78486 113.026556 
L 317.929162 112.887239 
L 318.073463 113.304115 
L 318.362066 115.731422 
L 318.794971 122.640331 
L 319.660781 142.274287 
L 321.103797 174.896835 
L 322.25821 196.249653 
L 323.412623 213.861651 
L 324.711338 230.293887 
L 326.010052 244.032987 
L 327.453069 256.890403 
L 328.896085 267.751844 
L 330.339101 276.990818 
L 331.782117 284.862537 
L 333.225134 291.546726 
L 334.66815 297.173583 
L 335.966864 301.414367 
L 337.265579 304.932155 
L 338.419992 307.487736 
L 339.574405 309.532149 
L 340.584516 310.91856 
L 341.594628 311.942178 
L 342.460437 312.538752 
L 343.326247 312.882041 
L 344.192057 312.976732 
L 345.057867 312.826593 
L 345.923676 312.434424 
L 346.789486 311.80198 
L 347.799598 310.76119 
L 348.809709 309.392893 
L 349.964122 307.422899 
L 351.118535 305.008933 
L 352.417249 301.740605 
L 353.715964 297.851382 
L 355.014679 293.28836 
L 356.457695 287.337045 
L 357.900711 280.317625 
L 359.199426 272.916439 
L 360.49814 264.263711 
L 361.796855 254.040788 
L 362.951268 243.250707 
L 364.105681 230.318165 
L 365.115792 216.593765 
L 366.125904 199.652602 
L 366.991713 181.350173 
L 367.857523 157.596811 
L 368.579031 131.158098 
L 369.300539 95.611151 
L 370.022047 60.205167 
L 370.166349 58.407272 
L 370.310651 59.895834 
L 370.599254 71.05605 
L 372.04227 145.907633 
L 372.90808 175.892145 
L 373.77389 198.822169 
L 374.784001 220.113103 
L 375.938414 239.840452 
L 377.237129 258.183861 
L 378.680145 275.342822 
L 380.267463 291.508356 
L 381.999082 306.857449 
L 383.875003 321.557356 
L 386.039528 336.741001 
L 388.492655 352.361474 
L 391.667291 371.086931 
L 397.150752 403.208054 
L 399.026674 415.685019 
L 400.46969 426.728057 
L 401.624103 437.155352 
L 402.634214 448.243324 
L 403.500024 460.235013 
L 404.221532 473.339835 
L 404.798738 487.620058 
L 405.231643 502.663919 
L 405.664548 526.180656 
L 405.953151 555.255522 
L 406.061133 577 
M 406.422376 577 
L 406.67466 538.251541 
L 407.107564 509.149008 
L 407.684771 487.620058 
L 408.406279 470.394479 
L 409.272089 455.892065 
L 410.2822 443.198257 
L 411.436613 431.711903 
L 412.735328 420.994907 
L 414.322646 409.731875 
L 416.342868 397.002366 
L 419.661806 377.702322 
L 424.135156 351.477758 
L 426.588283 335.775913 
L 428.752808 320.484138 
L 430.628729 305.651719 
L 432.360348 290.132292 
L 433.947666 273.747042 
L 435.390682 256.301666 
L 436.689397 237.579428 
L 437.84381 217.342954 
L 438.853921 195.35861 
L 439.719731 171.482623 
L 440.441239 145.907633 
L 441.162747 112.217583 
L 442.172859 59.895834 
L 442.31716 58.407272 
L 442.461462 60.205167 
L 442.750065 71.528797 
L 444.04878 137.084193 
L 444.91459 166.292652 
L 445.780399 187.939325 
L 446.790511 207.390247 
L 447.800622 222.803706 
L 448.955035 237.095075 
L 450.25375 250.20739 
L 451.552464 261.050156 
L 452.851179 270.184484 
L 454.294195 278.768678 
L 455.737211 286.024189 
L 457.180227 292.175895 
L 458.623244 297.378803 
L 460.06626 301.740605 
L 461.364975 305.008933 
L 462.663689 307.693146 
L 463.818102 309.608533 
L 464.972515 311.091875 
L 465.982626 312.039429 
L 466.848436 312.591909 
L 467.714246 312.903649 
L 468.580056 312.972538 
L 469.445865 312.795446 
L 470.311675 312.368294 
L 471.177485 311.686097 
L 472.187596 310.55996 
L 473.197708 309.067739 
L 474.207819 307.196721 
L 475.362232 304.575553 
L 476.516645 301.414367 
L 477.81536 297.173583 
L 479.114074 292.155173 
L 480.412789 286.289622 
L 481.855805 278.667906 
L 483.298821 269.719903 
L 484.741837 259.208244 
L 486.040552 248.128651 
L 487.339267 235.136795 
L 488.637981 219.68825 
L 489.792394 203.241461 
L 490.946807 183.401957 
L 492.10122 159.313395 
L 493.977141 117.658072 
L 494.410046 113.304115 
L 494.554348 112.887239 
L 494.698649 113.026556 
L 494.987253 114.920288 
L 495.420157 121.136283 
L 496.141666 136.446905 
L 497.873285 174.02219 
L 499.027698 193.997358 
L 500.182111 210.385236 
L 501.480826 225.626606 
L 502.77954 238.367232 
L 504.222556 250.345216 
L 505.665573 260.583388 
L 507.252891 270.301752 
L 508.98451 279.468174 
L 510.716129 287.45594 
L 512.592051 295.051461 
L 514.467972 301.758636 
L 516.488194 308.173342 
L 518.652719 314.283617 
L 520.817243 319.743213 
L 523.126069 324.971746 
L 525.579197 329.965482 
L 528.176626 334.725859 
L 530.774055 339.030801 
L 533.515786 343.157811 
L 536.401818 347.109474 
L 539.432152 350.890497 
L 542.606788 354.507063 
L 546.070027 358.110031 
L 549.677568 361.539419 
L 553.573711 364.927355 
L 557.614157 368.145394 
L 561.943206 371.308632 
L 566.560857 374.405629 
L 571.467113 377.42863 
L 576.806273 380.451234 
L 582.434036 383.380198 
L 588.494704 386.283066 
L 594.988277 389.146658 
L 602.059057 392.017764 
L 609.707043 394.876718 
L 617.932235 397.708616 
L 626.734634 400.502517 
L 636.258541 403.291313 
L 646.648258 406.098077 
L 657.903785 408.903514 
L 670.025121 411.692844 
L 683.156569 414.484532 
L 694.845 416.797076 
L 694.845 416.797076 
" clip-path="url(#p9df6ff12c0)" style="fill: none; stroke-dasharray: 14.8,6.4; stroke-dashoffset: 0; stroke: #000000; stroke-width: 4"/>
   </g>
   <g id="line2d_72">
    <path d="M 117.638509 409.552193 
L 120.813145 407.853284 
L 123.699178 406.053187 
L 126.296607 404.175456 
L 129.038338 401.918682 
L 133.223085 398.132085 
L 136.542022 395.25723 
L 138.562245 393.801299 
L 140.149563 392.938304 
L 141.448277 392.480286 
L 142.60269 392.288421 
L 143.757103 392.302103 
L 145.055818 392.538405 
L 146.643136 393.06298 
L 152.4152 395.210334 
L 154.291122 395.548025 
L 156.167043 395.646525 
L 158.042964 395.519262 
L 160.063186 395.147523 
L 162.083409 394.541452 
L 164.103632 393.704591 
L 166.123855 392.635566 
L 168.144077 391.320152 
L 170.1643 389.737667 
L 172.184523 387.874111 
L 174.204745 385.702729 
L 176.080667 383.357232 
L 177.812286 380.852262 
L 179.543905 377.973667 
L 181.419827 374.415531 
L 183.728653 369.500416 
L 188.346304 359.457681 
L 189.789321 356.928567 
L 190.943734 355.309912 
L 191.953845 354.226111 
L 192.963956 353.468882 
L 193.829766 353.092195 
L 194.695576 352.981214 
L 195.417084 353.101287 
L 196.138592 353.419423 
L 197.004402 354.059821 
L 198.014513 355.138273 
L 199.168926 356.732247 
L 200.900546 359.582946 
L 204.652388 365.892444 
L 206.239706 368.060456 
L 207.53842 369.494199 
L 208.837135 370.613131 
L 210.135849 371.429063 
L 211.434564 371.965139 
L 212.733279 372.248386 
L 214.031993 372.30308 
L 215.330708 372.147853 
L 216.773724 371.740759 
L 218.21674 371.084915 
L 219.659757 370.178957 
L 221.247074 368.90508 
L 222.834392 367.339777 
L 224.42171 365.45768 
L 226.009028 363.203505 
L 227.452044 360.773167 
L 228.89506 357.917293 
L 230.338077 354.577334 
L 231.925395 350.314775 
L 233.801316 344.553719 
L 239.717682 325.698421 
L 241.016397 322.521284 
L 242.026508 320.567373 
L 242.892318 319.322706 
L 243.613826 318.603813 
L 244.335334 318.175312 
L 245.056842 318.036474 
L 245.634049 318.133892 
L 246.355557 318.515525 
L 247.077065 319.179586 
L 247.942875 320.326172 
L 248.952986 322.094053 
L 250.107399 324.590345 
L 251.839018 328.9526 
L 254.580749 335.86094 
L 256.023766 338.92448 
L 257.32248 341.173214 
L 258.476893 342.735601 
L 259.487004 343.770217 
L 260.497116 344.503395 
L 261.507227 344.956682 
L 262.517339 345.164283 
L 263.52745 345.155515 
L 264.681863 344.910741 
L 265.836276 344.436167 
L 267.13499 343.635949 
L 268.578007 342.456324 
L 270.165325 340.860009 
L 271.752642 338.959958 
L 273.33996 336.720215 
L 274.927278 334.118933 
L 276.514596 331.079224 
L 278.101914 327.578369 
L 279.689232 323.53107 
L 281.276549 318.858111 
L 282.863867 313.449387 
L 284.306884 307.665808 
L 285.7499 300.905741 
L 287.337218 292.312541 
L 289.213139 280.737515 
L 291.08906 269.503436 
L 292.243473 263.945133 
L 293.686489 258.168363 
L 295.129505 253.163376 
L 295.995315 250.828867 
L 296.716823 249.417209 
L 297.438331 248.494485 
L 298.159839 247.983845 
L 299.025649 247.701845 
L 300.757269 247.429037 
L 301.478777 247.506609 
L 302.200285 247.819765 
L 303.066094 248.464976 
L 304.509111 249.58372 
L 305.230619 249.829717 
L 305.807825 249.792163 
L 306.385032 249.516639 
L 306.962238 248.96042 
L 307.539445 248.065064 
L 308.116651 246.764085 
L 308.838159 244.475504 
L 309.559668 241.389615 
L 310.425477 236.606299 
L 311.291287 230.615682 
L 312.301398 221.981735 
L 313.31151 211.331109 
L 314.321621 198.298571 
L 315.331732 182.381786 
L 316.341844 163.110904 
L 318.362066 122.506969 
L 318.65067 120.001699 
L 318.794971 119.485525 
L 318.939273 119.497094 
L 319.083575 120.040106 
L 319.372178 122.63669 
L 319.805083 129.608387 
L 320.670892 149.021318 
L 322.25821 184.121851 
L 323.412623 204.76667 
L 324.567036 221.82495 
L 325.865751 237.755161 
L 327.164465 251.047772 
L 328.607482 263.439174 
L 330.050498 273.842085 
L 331.493514 282.620058 
L 332.93653 290.021892 
L 334.379547 296.227078 
L 335.678261 300.898123 
L 336.976976 304.781121 
L 338.27569 307.935681 
L 339.430103 310.16566 
L 340.440215 311.695714 
L 341.450326 312.847772 
L 342.316136 313.545642 
L 343.181946 313.98253 
L 344.047755 314.167377 
L 344.913565 314.107981 
L 345.779375 313.80453 
L 346.645185 313.255733 
L 347.655296 312.313301 
L 348.665407 311.052451 
L 349.81982 309.221662 
L 350.974233 306.948571 
L 352.272948 303.860821 
L 353.571662 300.160472 
L 354.870377 295.807265 
L 356.313393 290.134237 
L 357.612108 284.165313 
L 358.910822 277.236101 
L 360.209537 269.160294 
L 361.508252 259.709319 
L 362.806966 248.425498 
L 363.961379 236.421596 
L 364.971491 223.806482 
L 365.981602 208.431043 
L 366.847412 192.141433 
L 367.713221 171.495497 
L 368.43473 149.157454 
L 369.156238 119.445775 
L 370.454952 58.714333 
L 370.599254 59.948687 
L 370.887857 70.870085 
L 372.330873 146.275964 
L 373.196683 176.44934 
L 374.062493 199.485633 
L 375.072604 220.843132 
L 376.227017 240.634271 
L 377.525732 259.041442 
L 378.968748 276.249855 
L 380.556066 292.460889 
L 382.287685 307.855011 
L 384.163606 322.60202 
L 386.328131 337.841521 
L 388.781258 353.532531 
L 392.100196 373.210844 
L 397.150752 403.066565 
L 399.026674 415.596901 
L 400.46969 426.671996 
L 401.624103 437.119578 
L 402.634214 448.221509 
L 403.500024 460.222399 
L 404.221532 473.332964 
L 404.798738 487.616531 
L 405.231643 502.662174 
L 405.664548 526.180073 
L 405.953151 555.255368 
L 406.061134 577 
M 406.422376 577 
L 406.67466 538.251256 
L 407.107564 509.147818 
L 407.684771 487.616696 
L 408.406279 470.386848 
L 409.272089 455.877014 
L 410.2822 443.171357 
L 411.436613 431.667179 
L 412.735328 420.924539 
L 414.322646 409.621803 
L 416.48717 395.955245 
L 420.239012 374.047759 
L 424.135156 350.859509 
L 426.588283 334.920193 
L 428.752808 319.349696 
L 430.628729 304.195765 
L 432.360348 288.276591 
L 433.803365 273.034472 
L 435.102079 257.166875 
L 436.400794 238.392251 
L 437.555207 218.092411 
L 438.565318 196.025229 
L 439.431128 172.034873 
L 440.152636 146.314393 
L 440.874144 112.357106 
L 441.884255 59.937239 
L 442.028557 58.683908 
L 442.172859 60.760921 
L 442.461462 72.546128 
L 443.760177 138.304435 
L 444.625986 167.435024 
L 445.491796 189.026978 
L 446.501907 208.401801 
L 447.512019 223.745916 
L 448.666432 238.013579 
L 449.965146 251.113427 
L 451.263861 261.945403 
L 452.562576 271.076791 
L 454.005592 279.624521 
L 455.448608 286.871711 
L 456.891624 293.036524 
L 458.33464 298.259267 
L 459.777657 302.661139 
L 461.076371 305.957303 
L 462.375086 308.664899 
L 463.673801 310.836103 
L 464.828213 312.316659 
L 465.838325 313.256189 
L 466.848436 313.872021 
L 467.714246 314.135562 
L 468.580056 314.152807 
L 469.445865 313.922167 
L 470.311675 313.442039 
L 471.177485 312.699751 
L 472.187596 311.492993 
L 473.197708 309.909772 
L 474.207819 307.932524 
L 475.362232 305.165638 
L 476.516645 301.826108 
L 477.81536 297.336274 
L 479.114074 292.002988 
L 480.412789 285.737283 
L 481.711503 278.423151 
L 483.010218 269.905069 
L 484.308933 259.967264 
L 485.607647 248.307461 
L 486.906362 234.491972 
L 488.060775 219.899606 
L 489.215188 202.456076 
L 490.369601 181.276613 
L 491.524014 155.83447 
L 492.822728 126.870874 
L 493.255633 121.035559 
L 493.544236 119.461029 
L 493.688538 119.464699 
L 493.83284 119.996054 
L 494.121443 122.528112 
L 494.554348 129.234686 
L 495.564459 150.746995 
L 496.863174 177.251543 
L 498.017587 196.19199 
L 499.172 211.285764 
L 500.326413 223.261135 
L 501.336524 231.6245 
L 502.346635 238.268324 
L 503.212445 242.640225 
L 504.078255 245.840724 
L 504.799763 247.696203 
L 505.521271 248.903098 
L 506.098478 249.470982 
L 506.675684 249.746418 
L 507.252891 249.775196 
L 507.830097 249.589205 
L 508.551605 249.109827 
L 510.571828 247.576326 
L 511.293336 247.400065 
L 512.159146 247.442531 
L 513.746464 247.782949 
L 514.467972 248.101362 
L 515.045178 248.559326 
L 515.622385 249.275536 
L 516.343893 250.600353 
L 517.065401 252.422519 
L 518.075512 255.680018 
L 519.66283 261.7325 
L 520.817243 266.861743 
L 521.971656 273.096983 
L 524.280482 287.409947 
L 526.156403 298.181188 
L 527.743721 305.930922 
L 529.331039 312.485951 
L 530.774055 317.569937 
L 532.361373 322.38316 
L 534.092992 326.932964 
L 535.68031 330.523816 
L 537.41193 333.885791 
L 539.143549 336.774362 
L 540.875169 339.251941 
L 542.606788 341.340831 
L 544.194106 342.911813 
L 545.637122 344.016637 
L 546.935837 344.726689 
L 548.09025 345.102121 
L 549.244663 345.225589 
L 550.254774 345.115787 
L 551.264885 344.776121 
L 552.274997 344.18273 
L 553.285108 343.324127 
L 554.29522 342.192314 
L 555.449633 340.546126 
L 556.604045 338.507363 
L 557.90276 335.756653 
L 559.490078 331.852236 
L 562.809015 323.512988 
L 563.963428 321.224612 
L 564.97354 319.683307 
L 565.839349 318.748903 
L 566.560857 318.259135 
L 567.282366 318.042319 
L 567.859572 318.072881 
L 568.436779 318.292011 
L 569.158287 318.839415 
L 569.879795 319.693335 
L 570.745605 321.109081 
L 571.755716 323.245802 
L 573.05443 326.598966 
L 574.78605 331.773834 
L 577.672082 341.280486 
L 579.980908 348.573664 
L 581.712528 353.367779 
L 583.299846 357.165765 
L 584.887164 360.407466 
L 586.474481 363.146703 
L 588.061799 365.449209 
L 589.649117 367.373584 
L 591.236435 368.95702 
L 592.823753 370.233429 
L 594.411071 371.21623 
L 595.854087 371.848225 
L 597.297103 372.22486 
L 598.595818 372.345993 
L 599.894532 372.255232 
L 601.193247 371.934279 
L 602.34766 371.43002 
L 603.502073 370.697261 
L 604.800787 369.588875 
L 606.099502 368.181155 
L 607.542518 366.277865 
L 609.274138 363.583818 
L 614.613298 354.861603 
L 615.623409 353.796014 
L 616.489219 353.177879 
L 617.355029 352.849539 
L 618.076537 352.796872 
L 618.798045 352.938122 
L 619.663855 353.351228 
L 620.529664 354.016996 
L 621.539776 355.097731 
L 622.694189 356.709968 
L 623.992903 358.95199 
L 625.580221 362.165139 
L 628.754857 369.253413 
L 631.352286 374.772475 
L 633.228207 378.271452 
L 635.104128 381.306644 
L 636.980049 383.929782 
L 639.000272 386.362049 
L 641.020495 388.438814 
L 643.185019 390.329504 
L 645.349543 391.916339 
L 647.369766 393.132922 
L 649.389989 394.104778 
L 651.554513 394.891762 
L 653.574736 395.388439 
L 655.450657 395.619287 
L 657.182276 395.619477 
L 659.058198 395.391806 
L 660.934119 394.944138 
L 663.242945 394.14551 
L 667.28339 392.688356 
L 668.726406 392.435197 
L 670.025121 392.434267 
L 671.323836 392.678024 
L 672.62255 393.165511 
L 674.065566 393.960261 
L 675.797186 395.186886 
L 678.106012 397.114382 
L 686.908411 404.735092 
L 689.650142 406.651665 
L 692.391872 408.29261 
L 694.845 409.5629 
L 694.845 409.5629 
" clip-path="url(#p9df6ff12c0)" style="fill: none; stroke: #dc143c; stroke-width: 2; stroke-linecap: square"/>
   </g>
   <g id="line2d_73">
    <path d="M 117.638509 387.356292 
L 129.326941 373.579783 
L 131.780068 370.118255 
L 137.26353 362.175203 
L 138.706546 360.58355 
L 139.860959 359.606055 
L 140.871071 358.996998 
L 141.881182 358.632864 
L 142.891293 358.517137 
L 143.901405 358.640928 
L 144.911516 358.982209 
L 146.210231 359.681966 
L 148.086152 361.007908 
L 150.972184 363.055121 
L 152.559502 363.892953 
L 153.858217 364.346423 
L 155.156931 364.569587 
L 156.455646 364.558737 
L 157.75436 364.319231 
L 159.053075 363.864663 
L 160.496091 363.126602 
L 161.939108 362.150758 
L 163.526425 360.795835 
L 165.113743 359.131959 
L 166.701061 357.126853 
L 168.288379 354.743352 
L 169.875697 351.961716 
L 171.607316 348.47756 
L 173.483237 344.206204 
L 175.647762 338.705022 
L 178.533794 330.688386 
L 181.564128 322.435456 
L 183.295748 318.322105 
L 185.027367 314.775408 
L 186.758987 311.738865 
L 188.346304 309.3638 
L 189.789321 307.563998 
L 191.088035 306.279804 
L 192.242448 305.441938 
L 193.25256 304.963369 
L 194.262671 304.72741 
L 195.272782 304.730708 
L 196.282894 304.971387 
L 197.293005 305.456857 
L 198.303116 306.206104 
L 199.313228 307.242578 
L 200.467641 308.796114 
L 201.622054 310.729544 
L 203.209372 313.881696 
L 207.827024 323.434101 
L 209.414341 326.082389 
L 210.857358 328.061966 
L 212.011771 329.286991 
L 213.021882 330.044775 
L 213.887692 330.434727 
L 214.753501 330.574366 
L 215.619311 330.458616 
L 216.485121 330.081788 
L 217.350931 329.436396 
L 218.21674 328.515357 
L 219.226852 327.093588 
L 220.381265 325.044627 
L 221.824281 321.967548 
L 231.203886 300.125604 
L 233.224109 294.180848 
L 236.687348 283.841064 
L 237.841761 281.155867 
L 238.851872 279.357459 
L 239.717682 278.232918 
L 240.583492 277.440837 
L 241.449302 276.913007 
L 242.459413 276.557106 
L 243.469524 276.436756 
L 244.479636 276.541667 
L 245.345445 276.844567 
L 246.066954 277.304235 
L 246.788462 278.009027 
L 247.654271 279.226989 
L 248.520081 280.847274 
L 249.674494 283.495788 
L 253.71494 293.266753 
L 255.302257 296.214519 
L 257.899687 300.948311 
L 261.940132 308.754627 
L 263.094545 310.452748 
L 264.104656 311.5783 
L 264.970466 312.245198 
L 265.836276 312.624607 
L 266.557784 312.708861 
L 267.279292 312.564897 
L 268.0008 312.189216 
L 268.86661 311.45267 
L 269.73242 310.419293 
L 270.742531 308.832731 
L 271.896944 306.547809 
L 273.195659 303.432937 
L 274.350072 300.107344 
L 275.504485 296.151599 
L 276.803199 290.84565 
L 278.101914 284.531453 
L 279.54493 276.29969 
L 281.132248 265.870641 
L 284.88409 240.293419 
L 285.605598 237.307649 
L 286.182805 235.759919 
L 286.61571 235.062623 
L 287.048614 234.699423 
L 287.481519 234.581606 
L 288.924535 234.511679 
L 289.35744 234.197306 
L 289.790345 233.642 
L 290.367552 232.519256 
L 291.08906 230.602371 
L 293.975092 222.234806 
L 294.552299 221.259216 
L 294.985204 220.849227 
L 295.418108 220.766594 
L 295.851013 221.03307 
L 296.283918 221.63943 
L 296.861125 222.905925 
L 297.726934 225.459928 
L 299.314252 230.216592 
L 300.03576 231.753399 
L 300.757269 232.812144 
L 301.478777 233.514398 
L 302.344586 234.066404 
L 303.066094 234.28848 
L 303.643301 234.218913 
L 304.076206 233.969372 
L 304.653412 233.347499 
L 305.37492 232.1939 
L 306.673635 230.021954 
L 307.250842 229.494212 
L 307.683746 229.407619 
L 308.116651 229.607797 
L 308.549556 230.079313 
L 309.126763 231.05533 
L 311.57989 235.808401 
L 312.012795 236.068846 
L 312.301398 236.063976 
L 312.590002 235.904098 
L 313.022906 235.355244 
L 313.455811 234.413419 
L 314.033018 232.506904 
L 314.610224 229.815888 
L 315.331732 225.317724 
L 316.197542 218.2413 
L 317.063352 209.193986 
L 317.929162 197.834143 
L 318.939273 181.214482 
L 321.248099 139.746062 
L 321.536702 138.193178 
L 321.681004 138.132382 
L 321.825305 138.567371 
L 322.113909 140.875728 
L 322.546814 147.373569 
L 323.268322 162.823399 
L 324.999941 201.111929 
L 326.154354 221.701939 
L 327.308767 238.599371 
L 328.46318 252.588798 
L 329.761895 265.632737 
L 331.060609 276.445796 
L 332.359324 285.464525 
L 333.658038 292.995218 
L 334.956753 299.266515 
L 336.255468 304.447553 
L 337.554182 308.66614 
L 338.708595 311.69337 
L 339.863008 314.108817 
L 340.87312 315.761554 
L 341.883231 317.0073 
L 342.749041 317.761474 
L 343.61485 318.242132 
L 344.48066 318.465889 
L 345.34647 318.452972 
L 346.21228 318.211672 
L 347.078089 317.714712 
L 348.088201 316.832297 
L 349.098312 315.651257 
L 350.108423 314.116762 
L 351.262836 311.910947 
L 352.850154 308.329466 
L 354.004567 305.154349 
L 355.447584 300.510541 
L 356.8906 295.126207 
L 358.189314 289.483731 
L 359.488029 282.872827 
L 360.931045 274.3554 
L 362.22976 265.368753 
L 363.528474 254.731608 
L 364.682887 243.427307 
L 365.8373 229.669778 
L 366.847412 214.933772 
L 367.713221 199.38891 
L 368.579031 179.85981 
L 369.300539 159.083925 
L 370.022047 131.666275 
L 370.743556 94.370438 
L 371.320762 63.60689 
L 371.465064 60.072201 
L 371.609365 59.937529 
L 371.753667 63.273743 
L 372.186572 85.893772 
L 373.052381 134.163331 
L 373.77389 163.684772 
L 374.639699 190.488079 
L 375.649811 214.553709 
L 376.804224 236.296811 
L 378.102938 256.145462 
L 379.545954 274.46354 
L 381.133272 291.550253 
L 382.864892 307.655255 
L 384.740813 322.996613 
L 386.905337 338.782479 
L 389.358465 354.986932 
L 392.677402 375.285922 
L 397.439356 404.388456 
L 399.315277 417.365976 
L 400.758293 428.917542 
L 401.912706 439.931892 
L 402.922817 451.820516 
L 403.788627 464.976034 
L 404.510135 479.868531 
L 405.087342 497.025588 
L 405.520247 516.804965 
L 405.80885 538.248787 
L 406.061137 577 
M 406.422377 577 
L 406.67466 538.251397 
L 407.107564 509.145822 
L 407.684771 487.608304 
L 408.406279 470.364746 
L 409.272089 455.830038 
L 410.2822 443.083636 
L 411.436613 431.517193 
L 412.735328 420.683985 
L 414.322646 409.239873 
L 416.48717 395.322325 
L 421.249123 366.71393 
L 424.279458 347.6849 
L 426.588283 331.809771 
L 428.608506 316.366653 
L 430.340126 301.480046 
L 431.927444 285.964312 
L 433.37046 269.691152 
L 434.669174 252.540658 
L 435.823587 234.407108 
L 436.833699 215.304732 
L 437.699508 195.268951 
L 438.565318 169.969271 
L 439.286826 142.439369 
L 440.008334 105.665687 
L 440.874144 60.626512 
L 441.018446 59.82391 
L 441.162747 62.469747 
L 441.451351 75.239563 
L 442.605764 136.08985 
L 443.327272 162.441803 
L 444.193081 186.026608 
L 445.203193 206.79413 
L 446.213304 222.97187 
L 447.367717 237.768957 
L 448.666432 251.417873 
L 449.965146 262.663225 
L 451.263861 272.064174 
L 452.562576 279.977643 
L 454.438497 289.784699 
L 455.881513 295.998067 
L 457.324529 301.336444 
L 458.767545 305.793946 
L 460.210562 309.564991 
L 461.509276 312.374903 
L 462.807991 314.591002 
L 463.962404 316.111763 
L 465.116817 317.296505 
L 465.982626 317.898141 
L 466.848436 318.254001 
L 467.714246 318.364699 
L 468.580056 318.214524 
L 469.445865 317.818273 
L 470.311675 317.178555 
L 471.177485 316.261009 
L 472.043295 315.041426 
L 473.053406 313.222654 
L 474.063517 310.959456 
L 475.21793 307.776468 
L 476.372343 303.897762 
L 477.526756 299.255283 
L 478.681169 293.754262 
L 479.979884 286.391491 
L 481.278598 277.573136 
L 482.577313 267.004912 
L 483.731726 255.802362 
L 484.886139 242.476 
L 486.040552 226.46047 
L 487.194965 206.990805 
L 488.349378 183.330453 
L 490.225299 142.996502 
L 490.658204 138.638007 
L 490.802506 138.108825 
L 490.946807 138.073071 
L 491.091109 138.524049 
L 491.379712 140.777672 
L 491.812617 146.842059 
L 492.678427 163.571341 
L 493.977141 188.090712 
L 494.987253 203.26529 
L 495.997364 215.057258 
L 496.863174 222.797804 
L 497.728983 228.620649 
L 498.450492 232.125272 
L 499.027698 234.092978 
L 499.604905 235.343089 
L 500.037809 235.834725 
L 500.470714 235.973927 
L 500.903619 235.793625 
L 501.336524 235.33485 
L 501.913731 234.38269 
L 504.222556 229.984159 
L 504.655461 229.61764 
L 505.088366 229.514365 
L 505.521271 229.688838 
L 505.954176 230.12284 
L 506.675684 231.251856 
L 507.974399 233.360808 
L 508.551605 233.917354 
L 509.128812 234.158284 
L 509.706018 234.122218 
L 510.427526 233.804365 
L 511.293336 233.154167 
L 512.014844 232.343058 
L 512.736352 231.146334 
L 513.45786 229.477735 
L 514.467972 226.485629 
L 515.910988 222.203842 
L 516.488194 221.102405 
L 516.921099 220.672805 
L 517.209703 220.594562 
L 517.498306 220.683221 
L 517.931211 221.109855 
L 518.508417 222.141041 
L 519.229925 223.955962 
L 520.672941 228.384641 
L 521.827354 231.677289 
L 522.548863 233.167948 
L 523.126069 233.917635 
L 523.703276 234.275469 
L 524.280482 234.351719 
L 525.146292 234.408673 
L 525.579197 234.651012 
L 526.012101 235.173335 
L 526.445006 236.050276 
L 527.022213 237.838535 
L 527.743721 241.063941 
L 528.609531 246.159676 
L 530.052547 256.334441 
L 532.217071 271.485585 
L 533.804389 280.979631 
L 535.391707 289.141968 
L 536.690422 294.711295 
L 537.989136 299.374406 
L 539.287851 303.280738 
L 540.586565 306.511014 
L 541.740978 308.840003 
L 542.75109 310.436455 
L 543.761201 311.604947 
L 544.627011 312.270852 
L 545.492821 312.641066 
L 546.214329 312.726896 
L 546.935837 312.600342 
L 547.657345 312.251765 
L 548.523155 311.542742 
L 549.388964 310.536916 
L 550.399076 309.02786 
L 551.69779 306.666064 
L 557.03695 296.438843 
L 558.76857 293.227226 
L 560.067284 290.348938 
L 562.231809 284.869873 
L 563.819127 281.142255 
L 564.829238 279.298937 
L 565.695048 278.148575 
L 566.560857 277.392221 
L 567.426667 276.97138 
L 568.292477 276.795937 
L 569.44689 276.805431 
L 570.601303 277.035457 
L 571.611414 277.477801 
L 572.477224 278.132245 
L 573.198732 278.941642 
L 574.064542 280.287409 
L 574.930352 282.05471 
L 576.084765 284.985147 
L 577.816384 290.133952 
L 581.135321 300.03532 
L 582.866941 304.492732 
L 584.742862 308.664414 
L 588.206101 316.174341 
L 591.957943 324.636734 
L 593.256658 326.956791 
L 594.411071 328.578751 
L 595.421182 329.622966 
L 596.286992 330.219532 
L 597.152801 330.528438 
L 597.87431 330.566191 
L 598.595818 330.411998 
L 599.461627 329.990519 
L 600.471739 329.20289 
L 601.626152 327.959318 
L 602.924866 326.192566 
L 604.512184 323.616914 
L 606.243804 320.375547 
L 608.696931 315.228214 
L 610.861456 310.873187 
L 612.16017 308.734424 
L 613.314583 307.244324 
L 614.324695 306.264204 
L 615.334806 305.565092 
L 616.344917 305.120183 
L 617.355029 304.90956 
L 618.36514 304.923533 
L 619.375251 305.161553 
L 620.385363 305.628678 
L 621.539776 306.442576 
L 622.694189 307.532785 
L 624.137205 309.232057 
L 625.580221 311.273953 
L 627.167539 313.93417 
L 628.754857 317.07362 
L 630.342175 320.719856 
L 632.218096 325.627512 
L 639.288875 344.870929 
L 641.309098 349.347651 
L 643.185019 352.958414 
L 644.916639 355.820807 
L 646.648258 358.247348 
L 648.235576 360.099227 
L 649.822894 361.601214 
L 651.410212 362.7789 
L 652.853228 363.592126 
L 654.296244 364.160385 
L 655.594959 364.449431 
L 656.893673 364.515334 
L 658.192388 364.351203 
L 659.491102 363.958622 
L 660.934119 363.269688 
L 662.665738 362.156094 
L 666.850485 359.289483 
L 668.004898 358.799397 
L 669.01501 358.583114 
L 670.025121 358.59929 
L 671.035232 358.864019 
L 672.045344 359.376922 
L 673.199757 360.249146 
L 674.498471 361.555367 
L 675.941487 363.342557 
L 677.817409 366.039755 
L 683.445172 374.378467 
L 685.753998 377.253205 
L 688.928633 380.799943 
L 694.412095 386.927961 
L 694.845 387.420183 
L 694.845 387.420183 
" clip-path="url(#p9df6ff12c0)" style="fill: none; stroke: #ff8c00; stroke-width: 2; stroke-linecap: square"/>
   </g>
   <g id="line2d_74">
    <path d="M 117.638509 362.451078 
L 119.658732 360.002558 
L 121.678955 357.17983 
L 123.843479 353.746531 
L 126.440908 349.188945 
L 134.233196 335.16205 
L 135.820514 332.997969 
L 137.26353 331.399715 
L 138.706546 330.131837 
L 140.149563 329.17462 
L 141.448277 328.586848 
L 142.60269 328.301331 
L 143.757103 328.253643 
L 144.911516 328.443876 
L 146.210231 328.912336 
L 147.94185 329.823338 
L 150.827883 331.371059 
L 152.126597 331.799772 
L 153.28101 331.946684 
L 154.291122 331.866854 
L 155.301233 331.578074 
L 156.311344 331.074435 
L 157.465757 330.237335 
L 158.62017 329.131791 
L 159.918885 327.593219 
L 161.506203 325.346513 
L 163.237822 322.502979 
L 165.113743 318.974333 
L 166.845363 315.246449 
L 168.576982 310.992477 
L 170.452903 305.779465 
L 176.513571 288.292536 
L 177.812286 285.487069 
L 178.966699 283.476572 
L 180.121112 281.892711 
L 181.419827 280.521155 
L 183.007144 279.20303 
L 185.604574 277.084159 
L 187.480495 275.212729 
L 190.077924 272.611344 
L 191.376639 271.633921 
L 192.531052 271.041763 
L 193.541163 270.750774 
L 194.551274 270.673265 
L 195.561386 270.812232 
L 196.571497 271.171776 
L 197.72591 271.841619 
L 199.024625 272.886173 
L 200.467641 274.367811 
L 201.910657 276.18653 
L 203.497975 278.562178 
L 205.951102 282.708146 
L 208.548532 286.998141 
L 210.568754 289.898306 
L 212.87758 292.850235 
L 214.176295 294.208602 
L 215.186406 294.959033 
L 216.052216 295.306618 
L 216.773724 295.349433 
L 217.495232 295.147225 
L 218.21674 294.68944 
L 218.938248 293.971379 
L 219.804058 292.764879 
L 220.81417 290.889742 
L 221.968583 288.167242 
L 223.267297 284.472328 
L 225.431821 277.46763 
L 227.307743 271.702029 
L 228.606457 268.456706 
L 229.76087 266.189978 
L 230.915283 264.410992 
L 232.358299 262.624131 
L 235.532935 258.884251 
L 238.130364 255.604347 
L 239.284777 254.561947 
L 240.294889 253.929821 
L 241.305 253.53401 
L 242.17081 253.400342 
L 243.036619 253.498403 
L 243.902429 253.854985 
L 244.768239 254.469566 
L 245.77835 255.501443 
L 246.788462 256.904118 
L 247.798573 258.766078 
L 248.808684 261.15555 
L 249.963097 264.484353 
L 254.292146 277.666396 
L 255.302257 279.751766 
L 256.168067 281.037179 
L 256.889575 281.722516 
L 257.466782 282.013674 
L 258.043988 282.084434 
L 258.621195 281.950039 
L 259.342703 281.52506 
L 260.208513 280.709699 
L 263.238847 277.475622 
L 263.960355 277.204329 
L 264.681863 277.222466 
L 265.547673 277.535705 
L 267.279292 278.306048 
L 268.0008 278.339905 
L 268.578007 278.139671 
L 269.155213 277.697688 
L 269.73242 276.99124 
L 270.453928 275.723917 
L 271.319738 273.651279 
L 272.185547 270.996308 
L 273.195659 267.130137 
L 274.20577 262.38362 
L 275.360183 255.919639 
L 276.803199 246.521625 
L 279.400628 229.300248 
L 280.266438 225.154123 
L 280.843645 223.266626 
L 281.276549 222.385523 
L 281.709454 221.977988 
L 281.998058 221.961102 
L 282.286661 222.133196 
L 282.719566 222.703247 
L 283.296772 223.916193 
L 285.7499 229.837695 
L 286.182805 230.273955 
L 286.61571 230.394197 
L 287.048614 230.192213 
L 287.481519 229.686899 
L 288.058726 228.61408 
L 288.924535 226.445607 
L 290.656155 222.020062 
L 291.666266 220.148356 
L 292.820679 218.511706 
L 293.542187 217.788135 
L 293.975092 217.605372 
L 294.407997 217.70862 
L 294.840902 218.151713 
L 295.273807 218.954355 
L 295.851013 220.561494 
L 296.572521 223.291385 
L 298.015538 229.936273 
L 299.314252 235.456076 
L 300.180062 238.286892 
L 301.190173 240.786239 
L 303.931904 246.464532 
L 304.653412 247.468217 
L 305.086317 247.764303 
L 305.519222 247.774477 
L 305.952127 247.465203 
L 306.385032 246.819576 
L 306.962238 245.445803 
L 307.683746 243.006228 
L 308.982461 237.506913 
L 309.848271 234.265848 
L 310.425477 232.894722 
L 310.858382 232.397207 
L 311.146985 232.307402 
L 311.57989 232.476701 
L 312.157097 233.111534 
L 313.022906 234.526899 
L 316.053241 239.893467 
L 316.486145 240.18893 
L 316.774749 240.212325 
L 317.063352 240.072826 
L 317.496257 239.521867 
L 317.929162 238.52299 
L 318.506368 236.437337 
L 319.083575 233.429649 
L 319.805083 228.27459 
L 320.526591 221.36377 
L 321.392401 210.410929 
L 322.25821 196.487904 
L 324.134131 163.7512 
L 324.422735 161.381359 
L 324.567036 160.850376 
L 324.711338 160.797618 
L 324.85564 161.234471 
L 325.144243 163.534284 
L 325.577148 170.01305 
L 326.298656 185.486392 
L 328.030275 223.848356 
L 329.184688 244.188365 
L 330.339101 260.580653 
L 331.493514 273.861154 
L 332.647927 284.700404 
L 333.80234 293.598095 
L 334.956753 300.915036 
L 336.111166 306.920462 
L 337.265579 311.827873 
L 338.419992 315.806942 
L 339.574405 318.975954 
L 340.584516 321.162598 
L 341.594628 322.852215 
L 342.604739 324.08035 
L 343.61485 324.933611 
L 344.48066 325.392884 
L 345.202168 325.545133 
L 346.067978 325.476804 
L 346.789486 325.177272 
L 348.376804 324.130836 
L 349.242614 323.381266 
L 350.108423 322.352789 
L 351.262836 320.575936 
L 352.417249 318.364024 
L 353.571662 315.637155 
L 356.169092 308.625687 
L 357.612108 303.510984 
L 359.199426 297.272948 
L 360.931045 289.045406 
L 362.085458 282.676249 
L 363.239871 275.242286 
L 364.682887 264.260481 
L 365.981602 252.558426 
L 366.991713 241.544475 
L 368.001825 228.338309 
L 369.011936 211.952589 
L 369.877746 194.356976 
L 370.743556 171.646504 
L 371.465064 146.662619 
L 372.186572 112.353555 
L 373.052381 64.321561 
L 373.196683 61.551764 
L 373.340985 62.585189 
L 373.629588 74.502713 
L 374.928303 148.09373 
L 375.794112 180.649932 
L 376.659922 205.039239 
L 377.670033 227.404036 
L 378.824446 247.959155 
L 380.123161 266.978217 
L 381.566177 284.722874 
L 383.153495 301.427101 
L 384.885115 317.300878 
L 386.905337 333.648291 
L 389.214163 350.365753 
L 391.955894 368.514087 
L 398.73807 412.57421 
L 400.325388 424.874846 
L 401.624103 436.751312 
L 402.634214 447.997406 
L 403.500024 460.093178 
L 404.221532 473.262852 
L 404.798738 487.580752 
L 405.231643 502.644624 
L 405.664548 526.174323 
L 405.953151 555.253919 
L 406.061137 577 
M 406.422373 577 
L 406.67466 538.248085 
L 407.107564 509.13506 
L 407.684771 487.58116 
L 408.406279 470.306722 
L 409.272089 455.719595 
L 410.2822 442.890607 
L 411.436613 431.200979 
L 412.879629 419.062435 
L 414.611249 406.476572 
L 417.064376 390.393746 
L 423.269346 350.337174 
L 426.011077 330.311822 
L 427.886998 314.80276 
L 429.618618 298.57731 
L 431.061634 283.08622 
L 432.360348 266.989291 
L 433.659063 247.960214 
L 434.813476 227.356866 
L 435.823587 204.790616 
L 436.689397 180.660493 
L 437.410905 154.509681 
L 438.132413 119.332648 
L 439.142525 62.539917 
L 439.286826 61.380599 
L 439.431128 64.065386 
L 439.719731 77.684024 
L 440.874144 140.780901 
L 441.595652 167.333612 
L 442.461462 190.867845 
L 443.471573 211.690241 
L 444.481685 228.119628 
L 445.636098 243.077205 
L 446.790511 255.390052 
L 447.944924 265.487475 
L 449.532241 276.798155 
L 450.830956 284.735794 
L 452.99548 295.969627 
L 454.294195 301.62416 
L 455.881513 307.367256 
L 457.468831 312.200378 
L 458.911847 316.059831 
L 460.06626 318.506561 
L 461.653578 321.238019 
L 462.663689 322.69246 
L 463.673801 323.782113 
L 464.683912 324.573789 
L 465.838325 325.141227 
L 466.704135 325.388653 
L 467.569944 325.406669 
L 468.435754 325.166689 
L 469.157262 324.756165 
L 470.023072 323.962192 
L 470.888882 322.851496 
L 471.898993 321.151474 
L 472.909104 318.967669 
L 473.919216 316.2445 
L 474.929327 312.90778 
L 476.08374 308.245112 
L 477.238153 302.52729 
L 478.392566 295.558025 
L 479.546979 287.083093 
L 480.701392 276.763341 
L 481.855805 264.141675 
L 482.865916 250.715474 
L 483.876028 234.521921 
L 484.886139 215.029189 
L 486.329155 182.127151 
L 487.050663 167.386797 
L 487.483568 162.045416 
L 487.772171 160.758046 
L 487.916473 160.856809 
L 488.205076 162.462097 
L 488.637981 167.728698 
L 489.503791 183.256505 
L 490.802506 206.006997 
L 491.812617 219.511326 
L 492.678427 228.180019 
L 493.399935 233.46236 
L 494.121443 237.111422 
L 494.698649 238.969339 
L 495.131554 239.808635 
L 495.564459 240.227195 
L 495.997364 240.27739 
L 496.430269 240.015346 
L 497.007475 239.288181 
L 497.873285 237.710326 
L 500.037809 233.580593 
L 500.759318 232.62707 
L 501.192222 232.340855 
L 501.480826 232.32279 
L 501.769429 232.469171 
L 502.202334 233.028503 
L 502.635239 234.004573 
L 503.212445 235.883926 
L 504.366858 240.715031 
L 505.376969 244.563846 
L 506.098478 246.406373 
L 506.675684 247.216661 
L 507.108589 247.435835 
L 507.541494 247.3368 
L 507.974399 246.95331 
L 508.551605 246.100679 
L 509.85032 243.573489 
L 512.014844 239.062884 
L 512.880654 236.550344 
L 513.746464 233.295788 
L 515.045178 227.382682 
L 516.343893 221.642723 
L 517.065401 219.339432 
L 517.642607 218.213255 
L 518.075512 217.813565 
L 518.508417 217.760788 
L 518.941322 217.985028 
L 519.518528 218.565648 
L 520.672941 220.148573 
L 521.683053 221.915999 
L 522.693164 224.226053 
L 524.713387 229.076097 
L 525.290593 229.898984 
L 525.723498 230.204781 
L 526.156403 230.213005 
L 526.589308 229.915465 
L 527.022213 229.324221 
L 527.599419 228.14234 
L 528.753832 225.04655 
L 529.619642 222.983875 
L 530.196849 222.184233 
L 530.485452 222.032175 
L 530.774055 222.069437 
L 531.062658 222.307745 
L 531.495563 223.054204 
L 531.928468 224.264188 
L 532.505675 226.552809 
L 533.227183 230.33932 
L 534.381596 237.820848 
L 537.123326 256.185106 
L 538.422041 263.233986 
L 539.576454 268.379388 
L 540.586565 271.966601 
L 541.452375 274.33724 
L 542.318185 276.066139 
L 543.039693 277.043784 
L 543.761201 277.641342 
L 544.482709 277.908529 
L 545.204217 277.905411 
L 546.070027 277.65946 
L 547.801647 277.099108 
L 548.523155 277.104729 
L 549.244663 277.335805 
L 549.966171 277.793156 
L 550.976282 278.738409 
L 553.42941 281.24881 
L 554.150918 281.639991 
L 554.728124 281.729164 
L 555.305331 281.58949 
L 555.882537 281.209716 
L 556.604045 280.401835 
L 557.325554 279.245873 
L 558.191363 277.441669 
L 559.201475 274.834157 
L 560.644491 270.408408 
L 563.530523 261.285621 
L 564.684936 258.476021 
L 565.695048 256.593637 
L 566.705159 255.198974 
L 567.71527 254.217389 
L 568.58108 253.671665 
L 569.44689 253.384121 
L 570.3127 253.34179 
L 571.178509 253.525169 
L 572.188621 253.99401 
L 573.198732 254.721722 
L 574.353145 255.867075 
L 575.796161 257.680329 
L 578.249289 260.822049 
L 582.145433 265.406851 
L 583.155544 267.107565 
L 584.165655 269.239243 
L 585.320068 272.241392 
L 586.763085 276.672244 
L 590.082022 287.094582 
L 591.380737 290.351363 
L 592.390848 292.359377 
L 593.400959 293.865654 
L 594.266769 294.746395 
L 594.988277 295.189398 
L 595.709785 295.372802 
L 596.431293 295.308202 
L 597.152801 295.015934 
L 598.018611 294.409661 
L 599.173024 293.287199 
L 601.048945 291.08285 
L 603.357771 288.049786 
L 605.233692 285.188768 
L 610.861456 276.15659 
L 612.448773 274.193771 
L 613.89179 272.736871 
L 615.190504 271.725475 
L 616.344917 271.101194 
L 617.355029 270.782901 
L 618.36514 270.683038 
L 619.375251 270.80865 
L 620.385363 271.164671 
L 621.539776 271.84303 
L 622.83849 272.903424 
L 624.858713 274.920437 
L 627.456142 277.457504 
L 629.90927 279.485456 
L 631.640889 281.023417 
L 632.795302 282.343201 
L 633.805414 283.812702 
L 634.959827 285.931003 
L 636.11424 288.533196 
L 637.557256 292.3673 
L 639.866082 299.269748 
L 643.040717 308.670215 
L 645.06094 313.943269 
L 646.936861 318.202514 
L 648.812782 321.884999 
L 650.688703 325.066134 
L 652.420323 327.560478 
L 653.863339 329.263403 
L 655.162054 330.460795 
L 656.316467 331.237637 
L 657.47088 331.731424 
L 658.480991 331.926191 
L 659.491102 331.904904 
L 660.645515 331.642583 
L 661.94423 331.109093 
L 664.108754 329.924672 
L 666.273279 328.797811 
L 667.571993 328.340929 
L 668.726406 328.148002 
L 669.880819 328.18539 
L 671.035232 328.460723 
L 672.189645 328.967505 
L 673.48836 329.801777 
L 674.787074 330.911526 
L 676.085789 332.303636 
L 677.528805 334.180481 
L 679.260425 336.834876 
L 681.569251 340.838566 
L 689.938745 355.754786 
L 692.103269 359.033925 
L 694.123492 361.690532 
L 694.845 362.539554 
L 694.845 362.539554 
" clip-path="url(#p9df6ff12c0)" style="fill: none; stroke: #00ff00; stroke-width: 2; stroke-linecap: square"/>
   </g>
   <g id="line2d_75">
    <path d="M 117.638509 334.660192 
L 122.977669 325.40887 
L 127.595321 317.448525 
L 131.05856 312.014856 
L 136.974927 303.075322 
L 138.417943 301.352985 
L 139.716658 300.147668 
L 140.871071 299.38896 
L 141.881182 298.976305 
L 142.891293 298.794461 
L 143.901405 298.825374 
L 145.200119 299.115408 
L 147.508945 299.95 
L 149.096263 300.408011 
L 150.250676 300.519672 
L 151.260787 300.399811 
L 152.270899 300.0428 
L 153.28101 299.429934 
L 154.291122 298.551872 
L 155.445535 297.21585 
L 156.599947 295.516246 
L 157.898662 293.164735 
L 159.341678 290.024171 
L 160.928996 285.994818 
L 162.949219 280.202517 
L 168.721284 263.199473 
L 170.452903 258.978226 
L 171.751618 256.328085 
L 172.906031 254.451444 
L 173.916142 253.248528 
L 174.781952 252.565453 
L 175.647762 252.191774 
L 176.513571 252.0859 
L 177.523683 252.204157 
L 180.121112 252.633478 
L 180.986922 252.497213 
L 181.852731 252.124852 
L 182.718541 251.508597 
L 183.872954 250.365259 
L 187.624796 246.309908 
L 188.490606 245.833934 
L 189.212114 245.67772 
L 189.933622 245.75726 
L 190.65513 246.072302 
L 191.52094 246.738635 
L 192.531052 247.850242 
L 193.829766 249.663005 
L 195.561386 252.492964 
L 198.303116 257.461385 
L 200.611942 261.493803 
L 202.054959 263.583995 
L 203.353673 265.090261 
L 204.940991 266.568578 
L 211.001659 271.613996 
L 212.156072 272.223453 
L 213.021882 272.449767 
L 213.74339 272.445335 
L 214.464898 272.235435 
L 215.186406 271.795467 
L 215.907914 271.106663 
L 216.773724 269.938058 
L 217.639534 268.400503 
L 218.793947 265.827587 
L 220.236963 261.969488 
L 222.978694 254.44007 
L 223.844504 252.659144 
L 224.566012 251.597993 
L 225.143218 251.059143 
L 225.720425 250.795473 
L 226.297631 250.785433 
L 226.874838 250.991811 
L 227.596346 251.480898 
L 229.039362 252.818589 
L 230.193775 253.754164 
L 230.915283 254.101702 
L 231.636791 254.200793 
L 232.213998 254.082408 
L 232.935506 253.68395 
L 233.657014 253.027969 
L 234.667125 251.77278 
L 237.697459 247.691125 
L 238.707571 246.806072 
L 239.717682 246.195091 
L 240.872095 245.74608 
L 241.882206 245.558086 
L 242.748016 245.590994 
L 243.613826 245.841011 
L 244.479636 246.320956 
L 245.489747 247.158451 
L 246.499858 248.27816 
L 247.50997 249.708488 
L 248.520081 251.539941 
L 249.530192 253.860639 
L 250.828907 257.515295 
L 254.725051 269.056295 
L 255.735162 271.179825 
L 256.600972 272.518815 
L 257.32248 273.246927 
L 257.899687 273.554623 
L 258.476893 273.610141 
L 259.0541 273.412307 
L 259.631306 272.965135 
L 260.352814 272.069535 
L 261.074322 270.821341 
L 261.940132 268.891429 
L 262.950243 266.109874 
L 264.39326 261.389092 
L 267.712197 250.232039 
L 269.299515 245.816448 
L 273.628563 234.338595 
L 275.360183 228.603488 
L 276.514596 225.024134 
L 277.236104 223.439698 
L 277.669009 222.881302 
L 278.101914 222.672463 
L 278.390517 222.737479 
L 278.823422 223.138506 
L 279.256327 223.880847 
L 279.833533 225.32679 
L 280.699343 228.195498 
L 282.719566 235.26146 
L 283.441074 236.94443 
L 284.01828 237.742815 
L 284.451185 237.994418 
L 284.88409 237.946194 
L 285.316995 237.610187 
L 285.894201 236.764709 
L 286.61571 235.232519 
L 288.491631 230.971264 
L 289.213139 229.971295 
L 289.934647 229.374071 
L 291.810568 228.114364 
L 293.109283 227.025 
L 293.542187 226.92706 
L 293.975092 227.116077 
L 294.407997 227.657006 
L 294.840902 228.576403 
L 295.418108 230.355293 
L 296.283918 233.876818 
L 298.737046 244.352965 
L 301.334475 253.575257 
L 303.066094 259.496506 
L 303.931904 261.755386 
L 304.653412 263.056906 
L 305.230619 263.653608 
L 305.663524 263.838 
L 306.096429 263.806442 
L 306.529333 263.567771 
L 307.10654 262.936692 
L 307.683746 261.95588 
L 308.405255 260.256195 
L 309.559668 256.756108 
L 310.569779 253.943441 
L 311.146985 252.899127 
L 311.724192 252.327003 
L 312.4457 252.030712 
L 313.167208 251.699555 
L 313.600113 251.279669 
L 314.177319 250.331959 
L 314.754526 248.913248 
L 315.764637 245.670589 
L 316.91905 242.105218 
L 317.640558 240.548937 
L 318.217765 239.756816 
L 318.65067 239.440044 
L 319.083575 239.363655 
L 319.516479 239.502543 
L 320.382289 240.135697 
L 320.959496 240.437126 
L 321.248099 240.422029 
L 321.536702 240.239201 
L 321.825305 239.849679 
L 322.25821 238.800646 
L 322.691115 237.101804 
L 323.268322 233.686138 
L 323.845528 228.8318 
L 324.567036 220.602791 
L 325.432846 207.749694 
L 326.587259 190.173499 
L 327.020164 186.757704 
L 327.164465 186.401705 
L 327.308767 186.494474 
L 327.453069 187.049035 
L 327.741672 189.513166 
L 328.174577 196.117213 
L 328.896085 211.633615 
L 330.627704 249.521392 
L 331.637816 266.91266 
L 332.647927 280.917441 
L 333.658038 292.184412 
L 334.66815 301.284371 
L 335.678261 308.656844 
L 336.832674 315.395308 
L 337.987087 320.711182 
L 338.997199 324.407861 
L 340.00731 327.304307 
L 341.017421 329.565624 
L 342.027533 331.260299 
L 343.037644 332.523091 
L 344.48066 333.976256 
L 345.202168 334.413416 
L 345.923676 334.628973 
L 346.645185 334.626912 
L 347.366693 334.37984 
L 348.232502 333.85629 
L 349.098312 333.045819 
L 350.108423 331.889302 
L 352.994456 327.856148 
L 354.004567 325.763791 
L 357.323505 318.0037 
L 359.055124 312.691669 
L 360.065235 308.989789 
L 361.796855 302.057867 
L 363.384173 294.12028 
L 364.682887 286.640472 
L 365.8373 278.692734 
L 366.991713 268.922383 
L 368.723333 252.461204 
L 369.733444 239.901483 
L 370.887857 222.690763 
L 371.753667 205.954657 
L 372.619477 185.354116 
L 373.340985 162.299874 
L 374.062493 130.693056 
L 374.784001 86.837346 
L 375.216906 64.768987 
L 375.361207 63.69558 
L 375.505509 67.019493 
L 375.938414 92.712104 
L 376.804224 145.134849 
L 377.525732 175.918719 
L 378.391542 203.443083 
L 379.401653 228.015108 
L 380.556066 250.1727 
L 381.85478 270.404166 
L 383.297797 289.10835 
L 384.885115 306.608907 
L 386.616734 323.178264 
L 388.492655 339.063466 
L 390.801481 356.620724 
L 393.687514 376.735178 
L 398.73807 411.655806 
L 400.325388 424.311817 
L 401.624103 436.412086 
L 402.634214 447.792348 
L 403.500024 459.976033 
L 404.221532 473.200162 
L 404.798738 487.549428 
L 405.231643 502.629748 
L 405.664548 526.169847 
L 405.953151 555.253021 
L 406.061138 577 
M 406.422369 577 
L 406.67466 538.244403 
L 407.107564 509.121659 
L 407.684771 487.545393 
L 408.406279 470.227817 
L 409.272089 455.566499 
L 410.2822 442.619634 
L 411.436613 430.753121 
L 412.879629 418.328013 
L 414.75555 404.266591 
L 417.785884 383.51137 
L 421.682028 356.564363 
L 423.990854 338.991428 
L 425.866775 323.089301 
L 427.598395 306.498445 
L 429.041411 290.677386 
L 430.340126 274.225594 
L 431.63884 254.774477 
L 432.648952 236.662824 
L 433.659063 214.417364 
L 434.524873 190.192405 
L 435.246381 164.167899 
L 435.967889 129.091758 
L 437.122302 63.573409 
L 437.266604 65.01601 
L 437.555207 78.397695 
L 438.70962 145.140039 
L 439.431128 172.846807 
L 440.296938 197.176467 
L 441.307049 218.420641 
L 442.31716 234.926526 
L 443.327272 248.04121 
L 444.625986 261.853435 
L 445.924701 273.378968 
L 447.079114 281.842123 
L 448.666432 291.914809 
L 450.109448 299.433512 
L 451.408163 305.01567 
L 452.851179 310.401386 
L 455.304306 318.706304 
L 456.458719 321.507394 
L 457.613132 323.902302 
L 458.767545 326.323424 
L 460.06626 329.001709 
L 460.93207 330.27649 
L 462.952292 332.733839 
L 464.106705 333.683038 
L 465.116817 334.299401 
L 465.838325 334.524079 
L 466.559833 334.496811 
L 467.569944 334.180785 
L 468.580056 333.620689 
L 469.445865 332.850436 
L 470.311675 331.744739 
L 471.177485 330.283102 
L 472.187596 328.099933 
L 473.197708 325.325872 
L 474.207819 321.8434 
L 475.21793 317.535783 
L 476.228042 312.232991 
L 477.238153 305.690731 
L 478.248264 297.617327 
L 479.258376 287.639846 
L 480.268487 275.26723 
L 481.278598 259.884529 
L 482.28871 240.843217 
L 483.731726 208.141175 
L 484.453234 193.452562 
L 484.886139 188.000775 
L 485.174742 186.510997 
L 485.319044 186.460328 
L 485.463346 186.85642 
L 485.751949 188.849719 
L 486.184854 194.094082 
L 488.637981 228.977984 
L 489.359489 234.871373 
L 489.936696 237.993641 
L 490.513902 239.85856 
L 490.946807 240.547037 
L 491.379712 240.754002 
L 491.812617 240.627523 
L 493.399935 239.745445 
L 493.83284 239.836595 
L 494.265745 240.153843 
L 494.842951 240.930129 
L 495.564459 242.406123 
L 496.430269 244.774999 
L 498.30619 250.298259 
L 498.883396 251.306307 
L 499.460603 251.844349 
L 500.037809 252.050673 
L 500.759318 252.297841 
L 501.192222 252.680989 
L 501.625127 253.33786 
L 502.202334 254.637891 
L 503.212445 257.633512 
L 504.366858 260.871006 
L 505.088366 262.342888 
L 505.809874 263.319577 
L 506.387081 263.702865 
L 506.819986 263.731873 
L 507.252891 263.531064 
L 507.685795 263.104044 
L 508.263002 262.20018 
L 508.98451 260.581937 
L 509.85032 258.050276 
L 511.293336 252.964653 
L 515.18948 238.231421 
L 517.065401 230.386774 
L 517.786909 228.365172 
L 518.364115 227.439014 
L 518.79702 227.14912 
L 519.229925 227.161875 
L 519.807132 227.518511 
L 521.683053 229.033914 
L 522.981767 229.783445 
L 523.558974 230.408547 
L 524.280482 231.609926 
L 525.146292 233.567075 
L 526.589308 236.845002 
L 527.166514 237.662206 
L 527.599419 237.972671 
L 528.032324 237.994954 
L 528.465229 237.717415 
L 528.898134 237.140284 
L 529.47534 235.927881 
L 530.196849 233.798501 
L 531.495563 228.995701 
L 532.649976 225.032316 
L 533.371484 223.340651 
L 533.804389 222.749784 
L 534.237294 222.514743 
L 534.525897 222.558107 
L 534.958802 222.909989 
L 535.391707 223.572863 
L 535.968913 224.850024 
L 536.979025 227.773509 
L 540.297962 237.946216 
L 545.637122 252.998652 
L 547.513043 259.520692 
L 549.533266 266.441623 
L 550.687679 269.568866 
L 551.553489 271.349398 
L 552.419298 272.620509 
L 553.140807 273.275291 
L 553.718013 273.526731 
L 554.29522 273.534694 
L 554.872426 273.302619 
L 555.449633 272.838854 
L 556.171141 271.952503 
L 557.03695 270.476225 
L 558.047062 268.251446 
L 559.345776 264.756867 
L 563.674825 252.338351 
L 564.684936 250.401779 
L 565.695048 248.932495 
L 566.849461 247.652367 
L 568.003874 246.673126 
L 569.013985 246.061893 
L 569.879795 245.757564 
L 570.745605 245.667851 
L 571.755716 245.789309 
L 572.910129 246.150754 
L 573.92024 246.693183 
L 574.78605 247.40313 
L 575.796161 248.558686 
L 577.239178 250.645499 
L 578.682194 252.658422 
L 579.548003 253.529118 
L 580.269512 253.966012 
L 580.99102 254.117713 
L 581.712528 253.998968 
L 582.434036 253.652677 
L 583.444147 252.908549 
L 585.320068 251.483118 
L 586.041577 251.228257 
L 586.618783 251.246694 
L 587.195989 251.502448 
L 587.773196 252.015617 
L 588.494704 253.021493 
L 589.360514 254.71844 
L 590.370625 257.22879 
L 594.555372 268.351606 
L 595.565484 270.182372 
L 596.431293 271.351337 
L 597.297103 272.15619 
L 598.018611 272.563053 
L 598.740119 272.745213 
L 599.461627 272.720307 
L 600.327437 272.451017 
L 601.337549 271.874014 
L 602.636263 270.856471 
L 608.841233 265.340586 
L 610.284249 263.806032 
L 611.582964 262.104054 
L 613.02598 259.843614 
L 615.479108 255.48759 
L 618.798045 249.705705 
L 620.241061 247.581984 
L 621.251172 246.434318 
L 622.116982 245.770979 
L 622.83849 245.487673 
L 623.559998 245.466892 
L 624.281507 245.704465 
L 625.003015 246.175228 
L 626.013126 247.140934 
L 627.744745 249.205911 
L 629.332063 250.961877 
L 630.342175 251.77012 
L 631.207984 252.205897 
L 632.073794 252.403411 
L 633.083906 252.382338 
L 634.815525 252.036718 
L 635.969938 251.907731 
L 636.835748 252.026026 
L 637.557256 252.324051 
L 638.278764 252.830116 
L 639.144574 253.725404 
L 640.154685 255.15957 
L 641.309098 257.267958 
L 642.607813 260.145593 
L 644.19513 264.238315 
L 646.215353 270.105502 
L 651.698815 286.428498 
L 653.430434 290.748295 
L 654.873451 293.809289 
L 656.172165 296.091958 
L 657.326578 297.723185 
L 658.480991 298.975102 
L 659.491102 299.766131 
L 660.501214 300.286921 
L 661.511325 300.557979 
L 662.521437 300.608288 
L 663.67585 300.446421 
L 665.263167 299.977116 
L 668.004898 299.132562 
L 669.303613 299.00228 
L 670.458026 299.134965 
L 671.468137 299.469287 
L 672.478248 300.016952 
L 673.632661 300.905703 
L 674.931376 302.228989 
L 676.374392 304.054072 
L 678.250313 306.821087 
L 683.156569 314.64852 
L 686.475506 320.21551 
L 694.845 334.77336 
L 694.845 334.77336 
" clip-path="url(#p9df6ff12c0)" style="fill: none; stroke: #40e0d0; stroke-width: 2; stroke-linecap: square"/>
   </g>
   <g id="patch_3">
    <path d="M 117.638509 509.9875 
L 117.638509 27.432 
" style="fill: none; stroke: #000000; stroke-width: 0.8; stroke-linejoin: miter; stroke-linecap: square"/>
   </g>
   <g id="patch_4">
    <path d="M 694.845 509.9875 
L 694.845 27.432 
" style="fill: none; stroke: #000000; stroke-width: 0.8; stroke-linejoin: miter; stroke-linecap: square"/>
   </g>
   <g id="patch_5">
    <path d="M 117.638509 509.9875 
L 694.845 509.9875 
" style="fill: none; stroke: #000000; stroke-width: 0.8; stroke-linejoin: miter; stroke-linecap: square"/>
   </g>
   <g id="patch_6">
    <path d="M 117.638509 27.432 
L 694.845 27.432 
" style="fill: none; stroke: #000000; stroke-width: 0.8; stroke-linejoin: miter; stroke-linecap: square"/>
   </g>
   <g id="legend_1">
    <g id="patch_7">
     <path d="M 557.145 173.971687 
L 685.845 173.971687 
L 685.845 36.432 
L 557.145 36.432 
z
" style="fill: #ffffff; opacity: 0.8; stroke: #000000; stroke-linejoin: miter"/>
    </g>
    <g id="line2d_76">
     <path d="M 564.345 51.009188 
L 582.345 51.009188 
L 600.345 51.009188 
" style="fill: none; stroke-dasharray: 14.8,6.4; stroke-dashoffset: 0; stroke: #000000; stroke-width: 4"/>
    </g>
    <g id="text_18">
     <!-- $\rho_0$ -->
     <g transform="translate(614.745 57.309188) scale(0.18 -0.18)">
      <use xlink:href="#DejaVuSans-Oblique-3c1"/>
      <use xlink:href="#DejaVuSans-30" transform="translate(63.476562 -16.40625) scale(0.7)"/>
     </g>
    </g>
    <g id="line2d_77">
     <path d="M 564.345 77.466375 
L 582.345 77.466375 
L 600.345 77.466375 
" style="fill: none; stroke: #dc143c; stroke-width: 2; stroke-linecap: square"/>
    </g>
    <g id="text_19">
     <!-- $\it{U=1.5}$ -->
     <g transform="translate(614.745 83.766375) scale(0.18 -0.18)">
      <defs>
       <path id="DejaVuSans-Oblique-55" d="M 991 4666 
L 1625 4666 
L 1075 1831 
Q 1041 1641 1027 1517 
Q 1013 1394 1013 1300 
Q 1013 869 1253 645 
Q 1494 422 1959 422 
Q 2563 422 2898 753 
Q 3234 1084 3378 1831 
L 3928 4666 
L 4563 4666 
L 4000 1753 
Q 3816 809 3300 359 
Q 2784 -91 1888 -91 
Q 1188 -91 780 261 
Q 372 613 372 1216 
Q 372 1325 387 1461 
Q 403 1597 434 1753 
L 991 4666 
z
" transform="scale(0.015625)"/>
       <path id="DejaVuSans-3d" d="M 678 2906 
L 4684 2906 
L 4684 2381 
L 678 2381 
L 678 2906 
z
M 678 1631 
L 4684 1631 
L 4684 1100 
L 678 1100 
L 678 1631 
z
" transform="scale(0.015625)"/>
       <path id="DejaVuSans-2e" d="M 684 794 
L 1344 794 
L 1344 0 
L 684 0 
L 684 794 
z
" transform="scale(0.015625)"/>
       <path id="DejaVuSans-35" d="M 691 4666 
L 3169 4666 
L 3169 4134 
L 1269 4134 
L 1269 2991 
Q 1406 3038 1543 3061 
Q 1681 3084 1819 3084 
Q 2600 3084 3056 2656 
Q 3513 2228 3513 1497 
Q 3513 744 3044 326 
Q 2575 -91 1722 -91 
Q 1428 -91 1123 -41 
Q 819 9 494 109 
L 494 744 
Q 775 591 1075 516 
Q 1375 441 1709 441 
Q 2250 441 2565 725 
Q 2881 1009 2881 1497 
Q 2881 1984 2565 2268 
Q 2250 2553 1709 2553 
Q 1456 2553 1204 2497 
Q 953 2441 691 2322 
L 691 4666 
z
" transform="scale(0.015625)"/>
      </defs>
      <use xlink:href="#DejaVuSans-Oblique-55" transform="translate(0 0.09375)"/>
      <use xlink:href="#DejaVuSans-3d" transform="translate(92.675781 0.09375)"/>
      <use xlink:href="#DejaVuSans-31" transform="translate(195.947266 0.09375)"/>
      <use xlink:href="#DejaVuSans-2e" transform="translate(259.570312 0.09375)"/>
      <use xlink:href="#DejaVuSans-35" transform="translate(291.357422 0.09375)"/>
     </g>
    </g>
    <g id="line2d_78">
     <path d="M 564.345 103.887 
L 582.345 103.887 
L 600.345 103.887 
" style="fill: none; stroke: #ff8c00; stroke-width: 2; stroke-linecap: square"/>
    </g>
    <g id="text_20">
     <!-- $\it{U=3.0}$ -->
     <g transform="translate(614.745 110.187) scale(0.18 -0.18)">
      <use xlink:href="#DejaVuSans-Oblique-55" transform="translate(0 0.78125)"/>
      <use xlink:href="#DejaVuSans-3d" transform="translate(92.675781 0.78125)"/>
      <use xlink:href="#DejaVuSans-33" transform="translate(195.947266 0.78125)"/>
      <use xlink:href="#DejaVuSans-2e" transform="translate(259.570312 0.78125)"/>
      <use xlink:href="#DejaVuSans-30" transform="translate(291.357422 0.78125)"/>
     </g>
    </g>
    <g id="line2d_79">
     <path d="M 564.345 130.307625 
L 582.345 130.307625 
L 600.345 130.307625 
" style="fill: none; stroke: #00ff00; stroke-width: 2; stroke-linecap: square"/>
    </g>
    <g id="text_21">
     <!-- $\it{U=4.5}$ -->
     <g transform="translate(614.745 136.607625) scale(0.18 -0.18)">
      <use xlink:href="#DejaVuSans-Oblique-55" transform="translate(0 0.09375)"/>
      <use xlink:href="#DejaVuSans-3d" transform="translate(92.675781 0.09375)"/>
      <use xlink:href="#DejaVuSans-34" transform="translate(195.947266 0.09375)"/>
      <use xlink:href="#DejaVuSans-2e" transform="translate(259.570312 0.09375)"/>
      <use xlink:href="#DejaVuSans-35" transform="translate(291.357422 0.09375)"/>
     </g>
    </g>
    <g id="line2d_80">
     <path d="M 564.345 156.72825 
L 582.345 156.72825 
L 600.345 156.72825 
" style="fill: none; stroke: #40e0d0; stroke-width: 2; stroke-linecap: square"/>
    </g>
    <g id="text_22">
     <!-- $\it{U=6.0}$ -->
     <g transform="translate(614.745 163.02825) scale(0.18 -0.18)">
      <use xlink:href="#DejaVuSans-Oblique-55" transform="translate(0 0.78125)"/>
      <use xlink:href="#DejaVuSans-3d" transform="translate(92.675781 0.78125)"/>
      <use xlink:href="#DejaVuSans-36" transform="translate(195.947266 0.78125)"/>
      <use xlink:href="#DejaVuSans-2e" transform="translate(259.570312 0.78125)"/>
      <use xlink:href="#DejaVuSans-30" transform="translate(291.357422 0.78125)"/>
     </g>
    </g>
   </g>
  </g>
 </g>
 <defs>
  <clipPath id="p9df6ff12c0">
   <rect x="117.638509" y="27.432" width="577.206491" height="482.5555"/>
  </clipPath>
 </defs>
</svg>
