<?xml version="1.0" encoding="utf-8" standalone="no"?>
<!DOCTYPE svg PUBLIC "-//W3C//DTD SVG 1.1//EN"
  "http://www.w3.org/Graphics/SVG/1.1/DTD/svg11.dtd">
<svg xmlns:xlink="http://www.w3.org/1999/xlink" width="720pt" height="576pt" viewBox="0 0 720 576" xmlns="http://www.w3.org/2000/svg" version="1.1">
 <metadata>
  <rdf:RDF xmlns:dc="http://purl.org/dc/elements/1.1/" xmlns:cc="http://creativecommons.org/ns#" xmlns:rdf="http://www.w3.org/1999/02/22-rdf-syntax-ns#">
   <cc:Work>
    <dc:type rdf:resource="http://purl.org/dc/dcmitype/StillImage"/>
    <dc:date>2023-04-15T15:50:39.539563</dc:date>
    <dc:format>image/svg+xml</dc:format>
    <dc:creator>
     <cc:Agent>
      <dc:title>Matplotlib v3.7.1, https://matplotlib.org/</dc:title>
     </cc:Agent>
    </dc:creator>
   </cc:Work>
  </rdf:RDF>
 </metadata>
 <defs>
  <style type="text/css">*{stroke-linejoin: round; stroke-linecap: butt}</style>
 </defs>
 <g id="figure_1">
  <g id="patch_1">
   <path d="M 0 576 
L 720 576 
L 720 0 
L 0 0 
z
" style="fill: #ffffff"/>
  </g>
  <g id="axes_1">
   <g id="patch_2">
    <path d="M 148.197319 489.1525 
L 685.035 489.1525 
L 685.035 37.512 
L 148.197319 37.512 
z
" style="fill: #ffffff"/>
   </g>
   <g id="matplotlib.axis_1">
    <g id="xtick_1">
     <g id="line2d_1">
      <path d="M 148.197319 489.1525 
L 148.197319 37.512 
" clip-path="url(#p08cc9ad6ab)" style="fill: none; stroke: #b0b0b0; stroke-width: 0.8; stroke-linecap: square"/>
     </g>
     <g id="line2d_2">
      <defs>
       <path id="m2a145c6462" d="M 0 0 
L 0 3.5 
" style="stroke: #000000; stroke-width: 0.8"/>
      </defs>
      <g>
       <use xlink:href="#m2a145c6462" x="148.197319" y="489.1525" style="stroke: #000000; stroke-width: 0.8"/>
      </g>
     </g>
     <g id="text_1">
      <!-- −8 -->
      <g transform="translate(129.769585 515.148594) scale(0.25 -0.25)">
       <defs>
        <path id="DejaVuSans-2212" d="M 678 2272 
L 4684 2272 
L 4684 1741 
L 678 1741 
L 678 2272 
z
" transform="scale(0.015625)"/>
        <path id="DejaVuSans-38" d="M 2034 2216 
Q 1584 2216 1326 1975 
Q 1069 1734 1069 1313 
Q 1069 891 1326 650 
Q 1584 409 2034 409 
Q 2484 409 2743 651 
Q 3003 894 3003 1313 
Q 3003 1734 2745 1975 
Q 2488 2216 2034 2216 
z
M 1403 2484 
Q 997 2584 770 2862 
Q 544 3141 544 3541 
Q 544 4100 942 4425 
Q 1341 4750 2034 4750 
Q 2731 4750 3128 4425 
Q 3525 4100 3525 3541 
Q 3525 3141 3298 2862 
Q 3072 2584 2669 2484 
Q 3125 2378 3379 2068 
Q 3634 1759 3634 1313 
Q 3634 634 3220 271 
Q 2806 -91 2034 -91 
Q 1263 -91 848 271 
Q 434 634 434 1313 
Q 434 1759 690 2068 
Q 947 2378 1403 2484 
z
M 1172 3481 
Q 1172 3119 1398 2916 
Q 1625 2713 2034 2713 
Q 2441 2713 2670 2916 
Q 2900 3119 2900 3481 
Q 2900 3844 2670 4047 
Q 2441 4250 2034 4250 
Q 1625 4250 1398 4047 
Q 1172 3844 1172 3481 
z
" transform="scale(0.015625)"/>
       </defs>
       <use xlink:href="#DejaVuSans-2212"/>
       <use xlink:href="#DejaVuSans-38" x="83.789062"/>
      </g>
     </g>
    </g>
    <g id="xtick_2">
     <g id="line2d_3">
      <path d="M 215.302029 489.1525 
L 215.302029 37.512 
" clip-path="url(#p08cc9ad6ab)" style="fill: none; stroke: #b0b0b0; stroke-width: 0.8; stroke-linecap: square"/>
     </g>
     <g id="line2d_4">
      <g>
       <use xlink:href="#m2a145c6462" x="215.302029" y="489.1525" style="stroke: #000000; stroke-width: 0.8"/>
      </g>
     </g>
     <g id="text_2">
      <!-- −6 -->
      <g transform="translate(196.874295 515.148594) scale(0.25 -0.25)">
       <defs>
        <path id="DejaVuSans-36" d="M 2113 2584 
Q 1688 2584 1439 2293 
Q 1191 2003 1191 1497 
Q 1191 994 1439 701 
Q 1688 409 2113 409 
Q 2538 409 2786 701 
Q 3034 994 3034 1497 
Q 3034 2003 2786 2293 
Q 2538 2584 2113 2584 
z
M 3366 4563 
L 3366 3988 
Q 3128 4100 2886 4159 
Q 2644 4219 2406 4219 
Q 1781 4219 1451 3797 
Q 1122 3375 1075 2522 
Q 1259 2794 1537 2939 
Q 1816 3084 2150 3084 
Q 2853 3084 3261 2657 
Q 3669 2231 3669 1497 
Q 3669 778 3244 343 
Q 2819 -91 2113 -91 
Q 1303 -91 875 529 
Q 447 1150 447 2328 
Q 447 3434 972 4092 
Q 1497 4750 2381 4750 
Q 2619 4750 2861 4703 
Q 3103 4656 3366 4563 
z
" transform="scale(0.015625)"/>
       </defs>
       <use xlink:href="#DejaVuSans-2212"/>
       <use xlink:href="#DejaVuSans-36" x="83.789062"/>
      </g>
     </g>
    </g>
    <g id="xtick_3">
     <g id="line2d_5">
      <path d="M 282.406739 489.1525 
L 282.406739 37.512 
" clip-path="url(#p08cc9ad6ab)" style="fill: none; stroke: #b0b0b0; stroke-width: 0.8; stroke-linecap: square"/>
     </g>
     <g id="line2d_6">
      <g>
       <use xlink:href="#m2a145c6462" x="282.406739" y="489.1525" style="stroke: #000000; stroke-width: 0.8"/>
      </g>
     </g>
     <g id="text_3">
      <!-- −4 -->
      <g transform="translate(263.979005 515.148594) scale(0.25 -0.25)">
       <defs>
        <path id="DejaVuSans-34" d="M 2419 4116 
L 825 1625 
L 2419 1625 
L 2419 4116 
z
M 2253 4666 
L 3047 4666 
L 3047 1625 
L 3713 1625 
L 3713 1100 
L 3047 1100 
L 3047 0 
L 2419 0 
L 2419 1100 
L 313 1100 
L 313 1709 
L 2253 4666 
z
" transform="scale(0.015625)"/>
       </defs>
       <use xlink:href="#DejaVuSans-2212"/>
       <use xlink:href="#DejaVuSans-34" x="83.789062"/>
      </g>
     </g>
    </g>
    <g id="xtick_4">
     <g id="line2d_7">
      <path d="M 349.51145 489.1525 
L 349.51145 37.512 
" clip-path="url(#p08cc9ad6ab)" style="fill: none; stroke: #b0b0b0; stroke-width: 0.8; stroke-linecap: square"/>
     </g>
     <g id="line2d_8">
      <g>
       <use xlink:href="#m2a145c6462" x="349.51145" y="489.1525" style="stroke: #000000; stroke-width: 0.8"/>
      </g>
     </g>
     <g id="text_4">
      <!-- −2 -->
      <g transform="translate(331.083715 515.148594) scale(0.25 -0.25)">
       <defs>
        <path id="DejaVuSans-32" d="M 1228 531 
L 3431 531 
L 3431 0 
L 469 0 
L 469 531 
Q 828 903 1448 1529 
Q 2069 2156 2228 2338 
Q 2531 2678 2651 2914 
Q 2772 3150 2772 3378 
Q 2772 3750 2511 3984 
Q 2250 4219 1831 4219 
Q 1534 4219 1204 4116 
Q 875 4013 500 3803 
L 500 4441 
Q 881 4594 1212 4672 
Q 1544 4750 1819 4750 
Q 2544 4750 2975 4387 
Q 3406 4025 3406 3419 
Q 3406 3131 3298 2873 
Q 3191 2616 2906 2266 
Q 2828 2175 2409 1742 
Q 1991 1309 1228 531 
z
" transform="scale(0.015625)"/>
       </defs>
       <use xlink:href="#DejaVuSans-2212"/>
       <use xlink:href="#DejaVuSans-32" x="83.789062"/>
      </g>
     </g>
    </g>
    <g id="xtick_5">
     <g id="line2d_9">
      <path d="M 416.61616 489.1525 
L 416.61616 37.512 
" clip-path="url(#p08cc9ad6ab)" style="fill: none; stroke: #b0b0b0; stroke-width: 0.8; stroke-linecap: square"/>
     </g>
     <g id="line2d_10">
      <g>
       <use xlink:href="#m2a145c6462" x="416.61616" y="489.1525" style="stroke: #000000; stroke-width: 0.8"/>
      </g>
     </g>
     <g id="text_5">
      <!-- 0 -->
      <g transform="translate(408.663035 515.148594) scale(0.25 -0.25)">
       <defs>
        <path id="DejaVuSans-30" d="M 2034 4250 
Q 1547 4250 1301 3770 
Q 1056 3291 1056 2328 
Q 1056 1369 1301 889 
Q 1547 409 2034 409 
Q 2525 409 2770 889 
Q 3016 1369 3016 2328 
Q 3016 3291 2770 3770 
Q 2525 4250 2034 4250 
z
M 2034 4750 
Q 2819 4750 3233 4129 
Q 3647 3509 3647 2328 
Q 3647 1150 3233 529 
Q 2819 -91 2034 -91 
Q 1250 -91 836 529 
Q 422 1150 422 2328 
Q 422 3509 836 4129 
Q 1250 4750 2034 4750 
z
" transform="scale(0.015625)"/>
       </defs>
       <use xlink:href="#DejaVuSans-30"/>
      </g>
     </g>
    </g>
    <g id="xtick_6">
     <g id="line2d_11">
      <path d="M 483.72087 489.1525 
L 483.72087 37.512 
" clip-path="url(#p08cc9ad6ab)" style="fill: none; stroke: #b0b0b0; stroke-width: 0.8; stroke-linecap: square"/>
     </g>
     <g id="line2d_12">
      <g>
       <use xlink:href="#m2a145c6462" x="483.72087" y="489.1525" style="stroke: #000000; stroke-width: 0.8"/>
      </g>
     </g>
     <g id="text_6">
      <!-- 2 -->
      <g transform="translate(475.767745 515.148594) scale(0.25 -0.25)">
       <use xlink:href="#DejaVuSans-32"/>
      </g>
     </g>
    </g>
    <g id="xtick_7">
     <g id="line2d_13">
      <path d="M 550.82558 489.1525 
L 550.82558 37.512 
" clip-path="url(#p08cc9ad6ab)" style="fill: none; stroke: #b0b0b0; stroke-width: 0.8; stroke-linecap: square"/>
     </g>
     <g id="line2d_14">
      <g>
       <use xlink:href="#m2a145c6462" x="550.82558" y="489.1525" style="stroke: #000000; stroke-width: 0.8"/>
      </g>
     </g>
     <g id="text_7">
      <!-- 4 -->
      <g transform="translate(542.872455 515.148594) scale(0.25 -0.25)">
       <use xlink:href="#DejaVuSans-34"/>
      </g>
     </g>
    </g>
    <g id="xtick_8">
     <g id="line2d_15">
      <path d="M 617.93029 489.1525 
L 617.93029 37.512 
" clip-path="url(#p08cc9ad6ab)" style="fill: none; stroke: #b0b0b0; stroke-width: 0.8; stroke-linecap: square"/>
     </g>
     <g id="line2d_16">
      <g>
       <use xlink:href="#m2a145c6462" x="617.93029" y="489.1525" style="stroke: #000000; stroke-width: 0.8"/>
      </g>
     </g>
     <g id="text_8">
      <!-- 6 -->
      <g transform="translate(609.977165 515.148594) scale(0.25 -0.25)">
       <use xlink:href="#DejaVuSans-36"/>
      </g>
     </g>
    </g>
    <g id="xtick_9">
     <g id="line2d_17">
      <path d="M 685.035 489.1525 
L 685.035 37.512 
" clip-path="url(#p08cc9ad6ab)" style="fill: none; stroke: #b0b0b0; stroke-width: 0.8; stroke-linecap: square"/>
     </g>
     <g id="line2d_18">
      <g>
       <use xlink:href="#m2a145c6462" x="685.035" y="489.1525" style="stroke: #000000; stroke-width: 0.8"/>
      </g>
     </g>
     <g id="text_9">
      <!-- 8 -->
      <g transform="translate(677.081875 515.148594) scale(0.25 -0.25)">
       <use xlink:href="#DejaVuSans-38"/>
      </g>
     </g>
    </g>
    <g id="text_10">
     <!-- $\omega$ [-] -->
     <g transform="translate(391.74116 541.351719) scale(0.25 -0.25)">
      <defs>
       <path id="DejaVuSans-Oblique-3c9" d="M 1369 -91 
Q 72 -91 434 1766 
Q 575 2500 1256 3500 
L 1875 3500 
Q 1231 2500 1088 1750 
Q 819 397 1519 397 
Q 2166 397 2478 2078 
L 3009 2078 
Q 2669 388 3316 397 
Q 4013 403 4275 1750 
Q 4419 2500 4169 3500 
L 4788 3500 
Q 5075 2500 4934 1766 
Q 4578 -94 3278 -91 
Q 2428 -88 2503 844 
Q 2194 -91 1369 -91 
z
" transform="scale(0.015625)"/>
       <path id="Calibri-20" transform="scale(0.015625)"/>
       <path id="Calibri-5b" d="M 1684 -813 
Q 1684 -916 1661 -958 
Q 1638 -1000 1594 -1000 
L 794 -1000 
Q 756 -1000 722 -989 
Q 688 -978 659 -953 
Q 631 -928 614 -886 
Q 597 -844 597 -781 
L 597 4153 
Q 597 4213 614 4255 
Q 631 4297 659 4323 
Q 688 4350 722 4361 
Q 756 4372 794 4372 
L 1594 4372 
Q 1613 4372 1630 4362 
Q 1647 4353 1659 4328 
Q 1672 4303 1678 4267 
Q 1684 4231 1684 4178 
Q 1684 4078 1661 4034 
Q 1638 3991 1594 3991 
L 1084 3991 
L 1084 -622 
L 1594 -622 
Q 1613 -622 1630 -631 
Q 1647 -641 1659 -664 
Q 1672 -688 1678 -723 
Q 1684 -759 1684 -813 
z
" transform="scale(0.015625)"/>
       <path id="Calibri-2d" d="M 1744 1578 
Q 1744 1456 1716 1409 
Q 1688 1363 1634 1363 
L 328 1363 
Q 272 1363 244 1411 
Q 216 1459 216 1578 
Q 216 1697 244 1744 
Q 272 1791 328 1791 
L 1634 1791 
Q 1659 1791 1679 1781 
Q 1700 1772 1714 1745 
Q 1728 1719 1736 1678 
Q 1744 1638 1744 1578 
z
" transform="scale(0.015625)"/>
       <path id="Calibri-5d" d="M 1369 -781 
Q 1369 -844 1351 -886 
Q 1334 -928 1306 -953 
Q 1278 -978 1242 -989 
Q 1206 -1000 1169 -1000 
L 372 -1000 
Q 328 -1000 304 -958 
Q 281 -916 281 -813 
Q 281 -759 286 -723 
Q 291 -688 303 -664 
Q 316 -641 333 -631 
Q 350 -622 372 -622 
L 881 -622 
L 881 3991 
L 372 3991 
Q 328 3991 304 4034 
Q 281 4078 281 4178 
Q 281 4231 286 4267 
Q 291 4303 303 4328 
Q 316 4353 333 4362 
Q 350 4372 372 4372 
L 1169 4372 
Q 1206 4372 1242 4361 
Q 1278 4350 1306 4323 
Q 1334 4297 1351 4255 
Q 1369 4213 1369 4153 
L 1369 -781 
z
" transform="scale(0.015625)"/>
      </defs>
      <use xlink:href="#DejaVuSans-Oblique-3c9" transform="translate(0 0.6875)"/>
      <use xlink:href="#Calibri-20" transform="translate(83.740234 0.6875)"/>
      <use xlink:href="#Calibri-5b" transform="translate(106.347656 0.6875)"/>
      <use xlink:href="#Calibri-2d" transform="translate(137.011719 0.6875)"/>
      <use xlink:href="#Calibri-5d" transform="translate(167.626953 0.6875)"/>
     </g>
    </g>
   </g>
   <g id="matplotlib.axis_2">
    <g id="ytick_1">
     <g id="line2d_19">
      <path d="M 148.197319 489.1525 
L 685.035 489.1525 
" clip-path="url(#p08cc9ad6ab)" style="fill: none; stroke: #b0b0b0; stroke-width: 0.8; stroke-linecap: square"/>
     </g>
     <g id="line2d_20">
      <defs>
       <path id="m79fc37f62c" d="M 0 0 
L -3.5 0 
" style="stroke: #000000; stroke-width: 0.8"/>
      </defs>
      <g>
       <use xlink:href="#m79fc37f62c" x="148.197319" y="489.1525" style="stroke: #000000; stroke-width: 0.8"/>
      </g>
     </g>
     <g id="text_11">
      <!-- $\mathdefault{10^{-4}}$ -->
      <g transform="translate(82.447319 498.650547) scale(0.25 -0.25)">
       <defs>
        <path id="DejaVuSans-31" d="M 794 531 
L 1825 531 
L 1825 4091 
L 703 3866 
L 703 4441 
L 1819 4666 
L 2450 4666 
L 2450 531 
L 3481 531 
L 3481 0 
L 794 0 
L 794 531 
z
" transform="scale(0.015625)"/>
       </defs>
       <use xlink:href="#DejaVuSans-31" transform="translate(0 0.684375)"/>
       <use xlink:href="#DejaVuSans-30" transform="translate(63.623047 0.684375)"/>
       <use xlink:href="#DejaVuSans-2212" transform="translate(128.203125 38.965625) scale(0.7)"/>
       <use xlink:href="#DejaVuSans-34" transform="translate(186.855469 38.965625) scale(0.7)"/>
      </g>
     </g>
    </g>
    <g id="ytick_2">
     <g id="line2d_21">
      <path d="M 148.197319 398.8244 
L 685.035 398.8244 
" clip-path="url(#p08cc9ad6ab)" style="fill: none; stroke: #b0b0b0; stroke-width: 0.8; stroke-linecap: square"/>
     </g>
     <g id="line2d_22">
      <g>
       <use xlink:href="#m79fc37f62c" x="148.197319" y="398.8244" style="stroke: #000000; stroke-width: 0.8"/>
      </g>
     </g>
     <g id="text_12">
      <!-- $\mathdefault{10^{-3}}$ -->
      <g transform="translate(82.447319 408.322447) scale(0.25 -0.25)">
       <defs>
        <path id="DejaVuSans-33" d="M 2597 2516 
Q 3050 2419 3304 2112 
Q 3559 1806 3559 1356 
Q 3559 666 3084 287 
Q 2609 -91 1734 -91 
Q 1441 -91 1130 -33 
Q 819 25 488 141 
L 488 750 
Q 750 597 1062 519 
Q 1375 441 1716 441 
Q 2309 441 2620 675 
Q 2931 909 2931 1356 
Q 2931 1769 2642 2001 
Q 2353 2234 1838 2234 
L 1294 2234 
L 1294 2753 
L 1863 2753 
Q 2328 2753 2575 2939 
Q 2822 3125 2822 3475 
Q 2822 3834 2567 4026 
Q 2313 4219 1838 4219 
Q 1578 4219 1281 4162 
Q 984 4106 628 3988 
L 628 4550 
Q 988 4650 1302 4700 
Q 1616 4750 1894 4750 
Q 2613 4750 3031 4423 
Q 3450 4097 3450 3541 
Q 3450 3153 3228 2886 
Q 3006 2619 2597 2516 
z
" transform="scale(0.015625)"/>
       </defs>
       <use xlink:href="#DejaVuSans-31" transform="translate(0 0.765625)"/>
       <use xlink:href="#DejaVuSans-30" transform="translate(63.623047 0.765625)"/>
       <use xlink:href="#DejaVuSans-2212" transform="translate(128.203125 39.046875) scale(0.7)"/>
       <use xlink:href="#DejaVuSans-33" transform="translate(186.855469 39.046875) scale(0.7)"/>
      </g>
     </g>
    </g>
    <g id="ytick_3">
     <g id="line2d_23">
      <path d="M 148.197319 308.4963 
L 685.035 308.4963 
" clip-path="url(#p08cc9ad6ab)" style="fill: none; stroke: #b0b0b0; stroke-width: 0.8; stroke-linecap: square"/>
     </g>
     <g id="line2d_24">
      <g>
       <use xlink:href="#m79fc37f62c" x="148.197319" y="308.4963" style="stroke: #000000; stroke-width: 0.8"/>
      </g>
     </g>
     <g id="text_13">
      <!-- $\mathdefault{10^{-2}}$ -->
      <g transform="translate(82.447319 317.994347) scale(0.25 -0.25)">
       <use xlink:href="#DejaVuSans-31" transform="translate(0 0.765625)"/>
       <use xlink:href="#DejaVuSans-30" transform="translate(63.623047 0.765625)"/>
       <use xlink:href="#DejaVuSans-2212" transform="translate(128.203125 39.046875) scale(0.7)"/>
       <use xlink:href="#DejaVuSans-32" transform="translate(186.855469 39.046875) scale(0.7)"/>
      </g>
     </g>
    </g>
    <g id="ytick_4">
     <g id="line2d_25">
      <path d="M 148.197319 218.1682 
L 685.035 218.1682 
" clip-path="url(#p08cc9ad6ab)" style="fill: none; stroke: #b0b0b0; stroke-width: 0.8; stroke-linecap: square"/>
     </g>
     <g id="line2d_26">
      <g>
       <use xlink:href="#m79fc37f62c" x="148.197319" y="218.1682" style="stroke: #000000; stroke-width: 0.8"/>
      </g>
     </g>
     <g id="text_14">
      <!-- $\mathdefault{10^{-1}}$ -->
      <g transform="translate(82.447319 227.666247) scale(0.25 -0.25)">
       <use xlink:href="#DejaVuSans-31" transform="translate(0 0.684375)"/>
       <use xlink:href="#DejaVuSans-30" transform="translate(63.623047 0.684375)"/>
       <use xlink:href="#DejaVuSans-2212" transform="translate(128.203125 38.965625) scale(0.7)"/>
       <use xlink:href="#DejaVuSans-31" transform="translate(186.855469 38.965625) scale(0.7)"/>
      </g>
     </g>
    </g>
    <g id="ytick_5">
     <g id="line2d_27">
      <path d="M 148.197319 127.8401 
L 685.035 127.8401 
" clip-path="url(#p08cc9ad6ab)" style="fill: none; stroke: #b0b0b0; stroke-width: 0.8; stroke-linecap: square"/>
     </g>
     <g id="line2d_28">
      <g>
       <use xlink:href="#m79fc37f62c" x="148.197319" y="127.8401" style="stroke: #000000; stroke-width: 0.8"/>
      </g>
     </g>
     <g id="text_15">
      <!-- $\mathdefault{10^{0}}$ -->
      <g transform="translate(97.197319 137.338147) scale(0.25 -0.25)">
       <use xlink:href="#DejaVuSans-31" transform="translate(0 0.765625)"/>
       <use xlink:href="#DejaVuSans-30" transform="translate(63.623047 0.765625)"/>
       <use xlink:href="#DejaVuSans-30" transform="translate(128.203125 39.046875) scale(0.7)"/>
      </g>
     </g>
    </g>
    <g id="ytick_6">
     <g id="line2d_29">
      <path d="M 148.197319 37.512 
L 685.035 37.512 
" clip-path="url(#p08cc9ad6ab)" style="fill: none; stroke: #b0b0b0; stroke-width: 0.8; stroke-linecap: square"/>
     </g>
     <g id="line2d_30">
      <g>
       <use xlink:href="#m79fc37f62c" x="148.197319" y="37.512" style="stroke: #000000; stroke-width: 0.8"/>
      </g>
     </g>
     <g id="text_16">
      <!-- $\mathdefault{10^{1}}$ -->
      <g transform="translate(97.197319 47.010047) scale(0.25 -0.25)">
       <use xlink:href="#DejaVuSans-31" transform="translate(0 0.684375)"/>
       <use xlink:href="#DejaVuSans-30" transform="translate(63.623047 0.684375)"/>
       <use xlink:href="#DejaVuSans-31" transform="translate(128.203125 38.965625) scale(0.7)"/>
      </g>
     </g>
    </g>
    <g id="ytick_7">
     <g id="line2d_31">
      <defs>
       <path id="mad5c022c1c" d="M 0 0 
L -2 0 
" style="stroke: #000000; stroke-width: 0.6"/>
      </defs>
      <g>
       <use xlink:href="#mad5c022c1c" x="148.197319" y="461.961032" style="stroke: #000000; stroke-width: 0.6"/>
      </g>
     </g>
    </g>
    <g id="ytick_8">
     <g id="line2d_32">
      <g>
       <use xlink:href="#mad5c022c1c" x="148.197319" y="446.055044" style="stroke: #000000; stroke-width: 0.6"/>
      </g>
     </g>
    </g>
    <g id="ytick_9">
     <g id="line2d_33">
      <g>
       <use xlink:href="#mad5c022c1c" x="148.197319" y="434.769565" style="stroke: #000000; stroke-width: 0.6"/>
      </g>
     </g>
    </g>
    <g id="ytick_10">
     <g id="line2d_34">
      <g>
       <use xlink:href="#mad5c022c1c" x="148.197319" y="426.015868" style="stroke: #000000; stroke-width: 0.6"/>
      </g>
     </g>
    </g>
    <g id="ytick_11">
     <g id="line2d_35">
      <g>
       <use xlink:href="#mad5c022c1c" x="148.197319" y="418.863576" style="stroke: #000000; stroke-width: 0.6"/>
      </g>
     </g>
    </g>
    <g id="ytick_12">
     <g id="line2d_36">
      <g>
       <use xlink:href="#mad5c022c1c" x="148.197319" y="412.8164" style="stroke: #000000; stroke-width: 0.6"/>
      </g>
     </g>
    </g>
    <g id="ytick_13">
     <g id="line2d_37">
      <g>
       <use xlink:href="#mad5c022c1c" x="148.197319" y="407.578097" style="stroke: #000000; stroke-width: 0.6"/>
      </g>
     </g>
    </g>
    <g id="ytick_14">
     <g id="line2d_38">
      <g>
       <use xlink:href="#mad5c022c1c" x="148.197319" y="402.957587" style="stroke: #000000; stroke-width: 0.6"/>
      </g>
     </g>
    </g>
    <g id="ytick_15">
     <g id="line2d_39">
      <g>
       <use xlink:href="#mad5c022c1c" x="148.197319" y="371.632932" style="stroke: #000000; stroke-width: 0.6"/>
      </g>
     </g>
    </g>
    <g id="ytick_16">
     <g id="line2d_40">
      <g>
       <use xlink:href="#mad5c022c1c" x="148.197319" y="355.726944" style="stroke: #000000; stroke-width: 0.6"/>
      </g>
     </g>
    </g>
    <g id="ytick_17">
     <g id="line2d_41">
      <g>
       <use xlink:href="#mad5c022c1c" x="148.197319" y="344.441465" style="stroke: #000000; stroke-width: 0.6"/>
      </g>
     </g>
    </g>
    <g id="ytick_18">
     <g id="line2d_42">
      <g>
       <use xlink:href="#mad5c022c1c" x="148.197319" y="335.687768" style="stroke: #000000; stroke-width: 0.6"/>
      </g>
     </g>
    </g>
    <g id="ytick_19">
     <g id="line2d_43">
      <g>
       <use xlink:href="#mad5c022c1c" x="148.197319" y="328.535476" style="stroke: #000000; stroke-width: 0.6"/>
      </g>
     </g>
    </g>
    <g id="ytick_20">
     <g id="line2d_44">
      <g>
       <use xlink:href="#mad5c022c1c" x="148.197319" y="322.4883" style="stroke: #000000; stroke-width: 0.6"/>
      </g>
     </g>
    </g>
    <g id="ytick_21">
     <g id="line2d_45">
      <g>
       <use xlink:href="#mad5c022c1c" x="148.197319" y="317.249997" style="stroke: #000000; stroke-width: 0.6"/>
      </g>
     </g>
    </g>
    <g id="ytick_22">
     <g id="line2d_46">
      <g>
       <use xlink:href="#mad5c022c1c" x="148.197319" y="312.629487" style="stroke: #000000; stroke-width: 0.6"/>
      </g>
     </g>
    </g>
    <g id="ytick_23">
     <g id="line2d_47">
      <g>
       <use xlink:href="#mad5c022c1c" x="148.197319" y="281.304832" style="stroke: #000000; stroke-width: 0.6"/>
      </g>
     </g>
    </g>
    <g id="ytick_24">
     <g id="line2d_48">
      <g>
       <use xlink:href="#mad5c022c1c" x="148.197319" y="265.398844" style="stroke: #000000; stroke-width: 0.6"/>
      </g>
     </g>
    </g>
    <g id="ytick_25">
     <g id="line2d_49">
      <g>
       <use xlink:href="#mad5c022c1c" x="148.197319" y="254.113365" style="stroke: #000000; stroke-width: 0.6"/>
      </g>
     </g>
    </g>
    <g id="ytick_26">
     <g id="line2d_50">
      <g>
       <use xlink:href="#mad5c022c1c" x="148.197319" y="245.359668" style="stroke: #000000; stroke-width: 0.6"/>
      </g>
     </g>
    </g>
    <g id="ytick_27">
     <g id="line2d_51">
      <g>
       <use xlink:href="#mad5c022c1c" x="148.197319" y="238.207376" style="stroke: #000000; stroke-width: 0.6"/>
      </g>
     </g>
    </g>
    <g id="ytick_28">
     <g id="line2d_52">
      <g>
       <use xlink:href="#mad5c022c1c" x="148.197319" y="232.1602" style="stroke: #000000; stroke-width: 0.6"/>
      </g>
     </g>
    </g>
    <g id="ytick_29">
     <g id="line2d_53">
      <g>
       <use xlink:href="#mad5c022c1c" x="148.197319" y="226.921897" style="stroke: #000000; stroke-width: 0.6"/>
      </g>
     </g>
    </g>
    <g id="ytick_30">
     <g id="line2d_54">
      <g>
       <use xlink:href="#mad5c022c1c" x="148.197319" y="222.301387" style="stroke: #000000; stroke-width: 0.6"/>
      </g>
     </g>
    </g>
    <g id="ytick_31">
     <g id="line2d_55">
      <g>
       <use xlink:href="#mad5c022c1c" x="148.197319" y="190.976732" style="stroke: #000000; stroke-width: 0.6"/>
      </g>
     </g>
    </g>
    <g id="ytick_32">
     <g id="line2d_56">
      <g>
       <use xlink:href="#mad5c022c1c" x="148.197319" y="175.070744" style="stroke: #000000; stroke-width: 0.6"/>
      </g>
     </g>
    </g>
    <g id="ytick_33">
     <g id="line2d_57">
      <g>
       <use xlink:href="#mad5c022c1c" x="148.197319" y="163.785265" style="stroke: #000000; stroke-width: 0.6"/>
      </g>
     </g>
    </g>
    <g id="ytick_34">
     <g id="line2d_58">
      <g>
       <use xlink:href="#mad5c022c1c" x="148.197319" y="155.031568" style="stroke: #000000; stroke-width: 0.6"/>
      </g>
     </g>
    </g>
    <g id="ytick_35">
     <g id="line2d_59">
      <g>
       <use xlink:href="#mad5c022c1c" x="148.197319" y="147.879276" style="stroke: #000000; stroke-width: 0.6"/>
      </g>
     </g>
    </g>
    <g id="ytick_36">
     <g id="line2d_60">
      <g>
       <use xlink:href="#mad5c022c1c" x="148.197319" y="141.8321" style="stroke: #000000; stroke-width: 0.6"/>
      </g>
     </g>
    </g>
    <g id="ytick_37">
     <g id="line2d_61">
      <g>
       <use xlink:href="#mad5c022c1c" x="148.197319" y="136.593797" style="stroke: #000000; stroke-width: 0.6"/>
      </g>
     </g>
    </g>
    <g id="ytick_38">
     <g id="line2d_62">
      <g>
       <use xlink:href="#mad5c022c1c" x="148.197319" y="131.973287" style="stroke: #000000; stroke-width: 0.6"/>
      </g>
     </g>
    </g>
    <g id="ytick_39">
     <g id="line2d_63">
      <g>
       <use xlink:href="#mad5c022c1c" x="148.197319" y="100.648632" style="stroke: #000000; stroke-width: 0.6"/>
      </g>
     </g>
    </g>
    <g id="ytick_40">
     <g id="line2d_64">
      <g>
       <use xlink:href="#mad5c022c1c" x="148.197319" y="84.742644" style="stroke: #000000; stroke-width: 0.6"/>
      </g>
     </g>
    </g>
    <g id="ytick_41">
     <g id="line2d_65">
      <g>
       <use xlink:href="#mad5c022c1c" x="148.197319" y="73.457165" style="stroke: #000000; stroke-width: 0.6"/>
      </g>
     </g>
    </g>
    <g id="ytick_42">
     <g id="line2d_66">
      <g>
       <use xlink:href="#mad5c022c1c" x="148.197319" y="64.703468" style="stroke: #000000; stroke-width: 0.6"/>
      </g>
     </g>
    </g>
    <g id="ytick_43">
     <g id="line2d_67">
      <g>
       <use xlink:href="#mad5c022c1c" x="148.197319" y="57.551176" style="stroke: #000000; stroke-width: 0.6"/>
      </g>
     </g>
    </g>
    <g id="ytick_44">
     <g id="line2d_68">
      <g>
       <use xlink:href="#mad5c022c1c" x="148.197319" y="51.504" style="stroke: #000000; stroke-width: 0.6"/>
      </g>
     </g>
    </g>
    <g id="ytick_45">
     <g id="line2d_69">
      <g>
       <use xlink:href="#mad5c022c1c" x="148.197319" y="46.265697" style="stroke: #000000; stroke-width: 0.6"/>
      </g>
     </g>
    </g>
    <g id="ytick_46">
     <g id="line2d_70">
      <g>
       <use xlink:href="#mad5c022c1c" x="148.197319" y="41.645187" style="stroke: #000000; stroke-width: 0.6"/>
      </g>
     </g>
    </g>
    <g id="text_17">
     <!-- $\rho$($\omega$) -->
     <g transform="translate(26.447319 258.08225) scale(0.25 -0.25)">
      <defs>
       <path id="DejaVuSans-Oblique-3c1" d="M 1203 2875 
Q 1453 3194 1981 3475 
Q 2188 3584 2756 3584 
Q 3394 3584 3694 3078 
Q 3994 2572 3834 1747 
Q 3672 922 3175 415 
Q 2678 -91 2041 -91 
Q 1656 -91 1409 63 
Q 1163 213 1044 525 
L 681 -1331 
L 103 -1331 
L 697 1716 
Q 838 2438 1203 2875 
z
M 3238 1747 
Q 3359 2381 3169 2744 
Q 2978 3103 2522 3103 
Q 2066 3103 1734 2744 
Q 1403 2381 1281 1747 
Q 1156 1113 1347 750 
Q 1538 391 1994 391 
Q 2450 391 2781 750 
Q 3113 1113 3238 1747 
z
" transform="scale(0.015625)"/>
       <path id="Calibri-28" d="M 1547 4306 
Q 1250 3678 1104 3017 
Q 959 2356 959 1688 
Q 959 1016 1107 356 
Q 1256 -303 1541 -938 
Q 1556 -975 1557 -1001 
Q 1559 -1028 1537 -1045 
Q 1516 -1063 1470 -1070 
Q 1425 -1078 1347 -1078 
Q 1291 -1078 1250 -1075 
Q 1209 -1072 1179 -1062 
Q 1150 -1053 1131 -1040 
Q 1113 -1028 1103 -1013 
Q 934 -694 806 -367 
Q 678 -41 590 296 
Q 503 634 459 979 
Q 416 1325 416 1678 
Q 416 2031 464 2375 
Q 513 2719 602 3058 
Q 691 3397 819 3725 
Q 947 4053 1106 4375 
Q 1109 4388 1123 4397 
Q 1138 4406 1163 4415 
Q 1188 4425 1231 4429 
Q 1275 4434 1344 4434 
Q 1416 4434 1459 4425 
Q 1503 4416 1528 4400 
Q 1553 4384 1556 4359 
Q 1559 4334 1547 4306 
z
" transform="scale(0.015625)"/>
       <path id="Calibri-29" d="M 1522 1678 
Q 1522 1325 1478 979 
Q 1434 634 1346 296 
Q 1259 -41 1132 -367 
Q 1006 -694 838 -1013 
Q 828 -1028 809 -1040 
Q 791 -1053 761 -1062 
Q 731 -1072 690 -1075 
Q 650 -1078 594 -1078 
Q 513 -1078 467 -1070 
Q 422 -1063 401 -1045 
Q 381 -1028 382 -1001 
Q 384 -975 400 -938 
Q 688 -306 834 355 
Q 981 1016 981 1688 
Q 981 2356 834 3017 
Q 688 3678 394 4306 
Q 381 4334 384 4359 
Q 388 4384 413 4400 
Q 438 4416 481 4425 
Q 525 4434 597 4434 
Q 663 4434 706 4429 
Q 750 4425 776 4415 
Q 803 4406 815 4397 
Q 828 4388 834 4375 
Q 1156 3734 1339 3057 
Q 1522 2381 1522 1678 
z
" transform="scale(0.015625)"/>
      </defs>
      <use xlink:href="#DejaVuSans-Oblique-3c1" transform="translate(0 0.71875)"/>
      <use xlink:href="#Calibri-28" transform="translate(63.476562 0.71875)"/>
      <use xlink:href="#DejaVuSans-Oblique-3c9" transform="translate(93.798828 0.71875)"/>
      <use xlink:href="#Calibri-29" transform="translate(177.539062 0.71875)"/>
     </g>
    </g>
   </g>
   <g id="line2d_71">
    <path d="M 148.197319 401.924147 
L 162.020889 399.143312 
L 174.636575 396.383285 
L 186.312795 393.603275 
L 196.915339 390.854735 
L 206.712626 388.088442 
L 215.704658 385.320877 
L 223.891432 382.5739 
L 231.40716 379.824512 
L 238.38605 377.038728 
L 244.828102 374.229627 
L 250.733316 371.415143 
L 256.235902 368.545953 
L 261.201651 365.712538 
L 265.898981 362.777084 
L 270.193682 359.833299 
L 274.219965 356.802858 
L 277.977829 353.69037 
L 281.467273 350.504169 
L 284.6883 347.257541 
L 287.640907 343.970201 
L 290.459305 340.496068 
L 293.009284 337.010028 
L 295.425053 333.342668 
L 297.706613 329.482558 
L 299.853964 325.419633 
L 301.867105 321.14641 
L 303.746037 316.659685 
L 305.624969 311.57699 
L 307.369692 306.191886 
L 308.980205 300.507268 
L 310.590718 293.956701 
L 312.067021 286.984493 
L 313.409115 279.619163 
L 314.75121 270.995462 
L 315.959094 261.843667 
L 317.166979 250.968002 
L 318.240655 239.407483 
L 319.31433 225.514254 
L 320.388005 208.650574 
L 321.59589 185.810923 
L 322.803775 163.280353 
L 323.206403 158.820833 
L 323.474822 157.569806 
L 323.609031 157.534553 
L 323.743241 157.900351 
L 324.01166 159.784153 
L 324.414288 165.044074 
L 325.085335 177.646959 
L 326.964267 214.170418 
L 328.037942 230.384171 
L 329.111618 243.25856 
L 330.185293 253.341869 
L 331.124759 260.228842 
L 332.064225 265.551278 
L 332.869481 269.00574 
L 333.674738 271.535844 
L 334.345785 272.994094 
L 335.016832 273.901903 
L 335.55367 274.253713 
L 335.956298 274.308604 
L 336.358926 274.190216 
L 336.895764 273.770574 
L 337.432602 273.059793 
L 338.103649 271.771992 
L 338.908905 269.65108 
L 339.714162 266.904633 
L 340.653628 262.894903 
L 341.727303 257.193442 
L 342.800978 250.17797 
L 343.874654 241.642212 
L 344.948329 231.260605 
L 346.022005 218.524288 
L 346.961471 204.82781 
L 347.900936 187.904052 
L 348.840402 166.657097 
L 350.048287 132.973903 
L 350.585125 119.982665 
L 350.853544 116.390923 
L 350.987753 115.694694 
L 351.121963 115.807211 
L 351.390381 118.40164 
L 351.79301 126.966877 
L 354.477198 197.057138 
L 355.550873 215.729817 
L 356.624549 230.326123 
L 357.564015 240.376826 
L 358.503481 248.072307 
L 359.174528 252.030909 
L 359.711365 254.109132 
L 360.113994 254.89543 
L 360.382413 254.977702 
L 360.650831 254.643824 
L 360.91925 253.82579 
L 361.321878 251.506096 
L 361.724507 247.567509 
L 362.127135 241.631708 
L 362.663973 230.237907 
L 363.469229 211.062877 
L 363.737648 208.682608 
L 363.871857 209.027071 
L 364.140276 212.703678 
L 364.677114 226.97304 
L 365.482371 248.157425 
L 366.153418 260.28828 
L 366.824465 268.316513 
L 367.495512 273.534799 
L 368.032349 276.290049 
L 368.569187 278.106584 
L 369.106025 279.180102 
L 369.508653 279.579241 
L 369.911281 279.675766 
L 370.31391 279.499642 
L 370.716538 279.073376 
L 371.253376 278.144176 
L 371.924423 276.439271 
L 372.729679 273.633096 
L 373.534936 270.008157 
L 374.474402 264.7106 
L 375.413868 258.163901 
L 376.353334 250.185619 
L 377.292799 240.479075 
L 378.232265 228.567437 
L 379.171731 213.659438 
L 379.976988 197.463287 
L 380.782244 176.463202 
L 381.453292 153.20897 
L 382.124339 121.859882 
L 382.929595 81.366355 
L 383.063805 79.684589 
L 383.198014 81.077312 
L 383.466433 91.517421 
L 384.808527 161.469285 
L 385.613784 189.411674 
L 386.553249 213.809144 
L 387.626925 235.29545 
L 388.7006 252.524096 
L 389.908485 268.546923 
L 391.250579 283.456084 
L 392.726883 297.340756 
L 394.337396 310.268504 
L 395.947909 321.411874 
L 397.558422 331.107182 
L 399.168935 339.555127 
L 400.779448 346.859922 
L 402.255752 352.574028 
L 403.597846 356.922678 
L 404.805731 360.087812 
L 405.745197 362.003181 
L 406.550453 363.217285 
L 407.2215 363.891679 
L 407.758338 364.186025 
L 408.295176 364.239714 
L 408.832013 364.027707 
L 409.368851 363.520215 
L 409.905689 362.681469 
L 410.442526 361.467972 
L 411.113573 359.340919 
L 411.78462 356.40566 
L 412.455668 352.469479 
L 413.126715 347.246263 
L 413.797762 340.276347 
L 414.468809 330.734634 
L 415.005647 320.13851 
L 415.542484 304.728568 
L 415.945113 286.533744 
L 416.213531 266.594454 
L 416.48195 223.546987 
L 416.496268 -1 
M 416.736051 -1 
L 416.750369 223.546987 
L 417.018788 266.594454 
L 417.421416 293.617437 
L 417.958254 313.258663 
L 418.629301 328.393067 
L 419.300348 338.61056 
L 420.105605 347.246263 
L 420.910861 353.348717 
L 421.716118 357.687521 
L 422.521374 360.704382 
L 423.192421 362.415129 
L 423.863468 363.520215 
L 424.400306 364.027707 
L 424.937144 364.239714 
L 425.473981 364.186025 
L 426.010819 363.891679 
L 426.681866 363.217285 
L 427.487123 362.003181 
L 428.426589 360.087812 
L 429.500264 357.310779 
L 430.708149 353.509987 
L 432.050243 348.512043 
L 433.526547 342.1143 
L 435.13706 334.054862 
L 436.747573 324.792337 
L 438.358086 314.161183 
L 439.834389 302.973317 
L 441.310693 290.047035 
L 442.652787 276.320921 
L 443.860672 261.786089 
L 445.068557 244.334331 
L 446.142232 225.211049 
L 447.081698 204.165106 
L 447.886955 181.008173 
L 448.558002 155.885636 
L 449.229049 122.58041 
L 450.034305 81.077312 
L 450.168515 79.684589 
L 450.302724 81.366355 
L 450.571143 91.95829 
L 451.779028 153.20897 
L 452.584284 180.398992 
L 453.389541 200.44106 
L 454.329007 218.290109 
L 455.268473 232.23395 
L 456.342148 244.875981 
L 457.415823 254.93409 
L 458.489499 262.973838 
L 459.563174 269.32325 
L 460.50264 273.633096 
L 461.307897 276.439271 
L 461.978944 278.144176 
L 462.515781 279.073376 
L 463.052619 279.587122 
L 463.455247 279.675192 
L 463.857876 279.481554 
L 464.260504 278.973271 
L 464.663132 278.106584 
L 465.19997 276.290049 
L 465.736807 273.534799 
L 466.273645 269.550848 
L 466.810483 263.911003 
L 467.34732 256.010645 
L 467.884158 245.116952 
L 468.689415 223.041722 
L 469.226252 210.408575 
L 469.494671 208.682608 
L 469.628881 209.39273 
L 469.897299 213.512707 
L 471.507812 247.567509 
L 472.04465 252.441002 
L 472.447278 254.300132 
L 472.715697 254.866707 
L 472.984116 254.984862 
L 473.252535 254.715898 
L 473.655163 253.691685 
L 474.192001 251.35186 
L 474.863048 247.120213 
L 475.668304 240.376826 
L 476.60777 230.326123 
L 477.547236 217.755718 
L 478.486702 202.172653 
L 479.426168 182.728641 
L 480.365634 158.41627 
L 481.841938 118.40164 
L 482.110357 115.807211 
L 482.244566 115.694694 
L 482.378776 116.390923 
L 482.647194 119.982665 
L 483.184032 132.973903 
L 484.794545 176.364522 
L 485.734011 195.618018 
L 486.807686 212.99001 
L 487.881362 226.795631 
L 488.955037 237.987868 
L 490.162922 248.196866 
L 491.370807 256.391692 
L 492.444482 262.249198 
L 493.518157 266.904633 
L 494.457623 270.047927 
L 495.26288 272.064635 
L 495.933927 273.264375 
L 496.604974 274.017295 
L 497.141812 274.288157 
L 497.54444 274.291571 
L 497.947068 274.118314 
L 498.483906 273.602647 
L 499.020744 272.747607 
L 499.691791 271.174918 
L 500.362838 269.00574 
L 501.168094 265.551278 
L 501.973351 261.080317 
L 502.912817 254.429565 
L 503.852283 246.021516 
L 504.791749 235.572583 
L 505.731215 222.72966 
L 506.80489 204.664778 
L 508.281194 174.920122 
L 508.952241 163.01711 
L 509.354869 158.657337 
L 509.623288 157.534553 
L 509.757497 157.569806 
L 509.891707 158.0035 
L 510.160125 159.996274 
L 510.562754 165.307445 
L 511.36801 180.388707 
L 512.978523 210.94084 
L 514.186408 229.240648 
L 515.394293 243.984234 
L 516.602178 256.04569 
L 517.944272 267.112443 
L 519.286366 276.339212 
L 520.76267 284.889071 
L 522.238973 292.157055 
L 523.849486 298.958984 
L 525.459999 304.841331 
L 527.204722 310.396663 
L 529.083654 315.625183 
L 531.096795 320.53733 
L 533.109936 324.877913 
L 535.257287 328.999276 
L 537.538847 332.910051 
L 539.954617 336.621367 
L 542.504596 340.145597 
L 545.322994 343.654496 
L 548.275601 346.971877 
L 551.496627 350.245615 
L 554.851862 353.338336 
L 558.475517 356.376241 
L 562.36759 359.347751 
L 566.528082 362.245457 
L 571.091202 365.146767 
L 575.922741 367.954442 
L 581.156909 370.73897 
L 586.793704 373.486553 
L 592.967338 376.244855 
L 599.677809 378.993139 
L 606.925117 381.715851 
L 614.709264 384.401676 
L 623.164457 387.083541 
L 632.424907 389.784088 
L 642.490614 392.483379 
L 653.361577 395.16628 
L 665.172006 397.850892 
L 678.05611 400.549381 
L 685.035 401.924147 
L 685.035 401.924147 
" clip-path="url(#p08cc9ad6ab)" style="fill: none; stroke-dasharray: 14.8,6.4; stroke-dashoffset: 0; stroke: #ff0000; stroke-width: 4"/>
   </g>
   <g id="line2d_72">
    <path d="M 148.197319 371.095713 
L 153.297277 366.670508 
L 157.726188 363.186201 
L 161.349842 360.553305 
L 168.194523 355.749391 
L 170.341874 353.834255 
L 172.891853 351.232477 
L 176.381297 347.665773 
L 178.260229 346.0818 
L 181.078627 344.048036 
L 188.191726 339.157321 
L 194.499569 335.727757 
L 196.244292 334.348911 
L 197.854805 332.787813 
L 199.599527 330.770283 
L 204.431066 324.932813 
L 205.77316 323.781867 
L 207.115255 322.932524 
L 208.457349 322.34957 
L 211.141537 321.531798 
L 212.75205 320.865921 
L 214.228354 319.991089 
L 215.973076 318.670363 
L 224.025642 311.93402 
L 225.233526 310.387636 
L 226.575621 308.282527 
L 228.588762 304.625547 
L 230.601903 301.084031 
L 231.809788 299.388258 
L 232.883463 298.272571 
L 233.822929 297.598933 
L 234.896605 297.111014 
L 236.372908 296.723242 
L 239.191306 296.027194 
L 240.801819 295.393624 
L 242.546542 294.44127 
L 246.170196 292.363863 
L 248.720175 290.947049 
L 250.196479 289.85035 
L 251.538573 288.578404 
L 253.014876 286.861286 
L 258.114834 280.58785 
L 259.18851 279.721206 
L 260.127976 279.247852 
L 260.933232 279.073229 
L 262.006908 279.095858 
L 263.885839 279.210851 
L 264.691096 279.024457 
L 265.496352 278.581562 
L 266.301609 277.846352 
L 267.241075 276.628033 
L 268.44896 274.641576 
L 270.864729 270.598289 
L 272.341033 268.658752 
L 274.488384 265.86661 
L 276.367316 262.997096 
L 277.843619 260.401676 
L 279.051504 257.835558 
L 280.393598 254.414289 
L 283.614624 245.774743 
L 284.285671 244.675227 
L 284.822509 244.126405 
L 285.359347 243.861491 
L 285.896184 243.830595 
L 286.701441 244.05045 
L 288.043535 244.447593 
L 288.848792 244.415012 
L 289.654048 244.129323 
L 290.727723 243.471951 
L 292.606655 242.293129 
L 293.277702 242.103177 
L 293.94875 242.147817 
L 294.619797 242.441834 
L 295.827681 243.320354 
L 296.901357 243.973673 
L 297.840823 244.280459 
L 298.780289 244.379818 
L 299.451336 244.264719 
L 300.122383 243.911648 
L 300.79343 243.289937 
L 301.732896 242.064941 
L 303.07499 240.306308 
L 303.880247 239.629054 
L 304.685503 239.255425 
L 306.161807 238.637142 
L 306.967063 237.990289 
L 307.77232 236.991831 
L 308.577576 235.592454 
L 309.517042 233.422821 
L 310.859136 229.596201 
L 312.738068 224.36093 
L 314.348581 219.835013 
L 315.824885 214.908357 
L 318.240655 206.722315 
L 319.31433 204.109579 
L 320.522215 201.15473 
L 321.864309 197.090312 
L 322.803775 194.539759 
L 323.206403 193.873875 
L 323.474822 193.669012 
L 323.743241 193.703515 
L 324.01166 194.016481 
L 324.280079 194.643493 
L 324.682707 196.240892 
L 325.219544 199.722777 
L 325.756382 204.817025 
L 326.561639 215.072304 
L 328.708989 244.505187 
L 329.514246 251.915175 
L 330.185293 256.145519 
L 330.722131 258.409249 
L 331.258968 259.832156 
L 331.661597 260.431332 
L 332.064225 260.685793 
L 332.466853 260.634523 
L 332.869481 260.303766 
L 333.406319 259.453436 
L 333.943157 258.152666 
L 334.614204 255.915125 
L 335.41946 252.364968 
L 336.358926 247.057898 
L 337.566811 238.639943 
L 339.043115 226.63592 
L 340.251 214.998607 
L 343.337816 183.135759 
L 343.874654 180.475217 
L 344.143073 179.819283 
L 344.411492 179.615447 
L 344.67991 179.833988 
L 344.948329 180.422418 
L 345.485167 182.42129 
L 347.229889 190.02232 
L 347.766727 191.318248 
L 348.169355 191.848062 
L 348.571984 191.99849 
L 348.840402 191.888457 
L 349.243031 191.41845 
L 349.779868 190.305109 
L 351.6588 185.631531 
L 351.927219 185.44142 
L 352.195638 185.492306 
L 352.464057 185.7921 
L 352.866685 186.688469 
L 353.403523 188.582161 
L 354.208779 192.489865 
L 355.014036 197.52065 
L 356.087711 205.869273 
L 357.161386 215.893562 
L 358.100852 226.771611 
L 360.382413 255.2244 
L 360.785041 257.26988 
L 361.05346 257.639655 
L 361.187669 257.500752 
L 361.456088 256.547323 
L 361.724507 254.672403 
L 362.127135 250.129832 
L 362.663973 241.085825 
L 363.737648 221.122906 
L 364.006067 220.030131 
L 364.140276 220.670678 
L 364.408695 224.260333 
L 364.945533 237.262149 
L 365.750789 257.074431 
L 366.287627 266.064629 
L 366.824465 271.670693 
L 367.227093 274.14811 
L 367.629721 275.518538 
L 367.89814 275.926476 
L 368.166559 275.975744 
L 368.434978 275.692405 
L 368.837606 274.669311 
L 369.240234 272.937266 
L 369.777072 269.569557 
L 370.582328 262.879616 
L 371.521794 253.685577 
L 372.327051 243.045533 
L 373.132307 232.337401 
L 373.669145 228.090291 
L 374.608611 222.489833 
L 375.279658 215.654365 
L 375.816496 210.364029 
L 376.219124 208.365346 
L 376.621752 207.659758 
L 376.890171 207.139698 
L 377.15859 206.192004 
L 377.561218 203.643744 
L 378.903313 193.065381 
L 379.44015 190.911848 
L 379.976988 189.464951 
L 381.184873 187.012717 
L 381.72171 184.484798 
L 383.063805 177.812292 
L 383.198014 177.749274 
L 383.332223 177.950337 
L 383.600642 179.092658 
L 385.211155 188.703153 
L 385.479574 189.08873 
L 385.613784 189.070246 
L 385.882202 188.59389 
L 386.150621 187.430675 
L 386.553249 184.140698 
L 388.163763 166.988641 
L 388.566391 158.080493 
L 389.640066 127.350273 
L 389.774276 127.059433 
L 389.908485 128.424491 
L 390.176904 135.752667 
L 391.11637 178.083463 
L 391.921626 207.556073 
L 392.592673 224.493827 
L 393.129511 233.214998 
L 393.532139 236.566845 
L 394.068977 239.367398 
L 394.337396 242.053233 
L 394.740024 248.765389 
L 395.947909 273.528147 
L 396.350537 277.787572 
L 396.618956 278.860584 
L 396.753165 278.956221 
L 397.021584 278.72273 
L 397.155794 278.538864 
L 397.290003 278.545289 
L 397.424213 278.986226 
L 397.692631 282.003283 
L 398.229469 294.633682 
L 399.034726 312.816169 
L 399.839982 325.150909 
L 400.511029 332.546539 
L 401.584705 341.53357 
L 402.792589 349.132098 
L 403.866265 354.495115 
L 404.93994 358.742425 
L 405.879406 361.740527 
L 406.684663 363.596143 
L 407.2215 364.394352 
L 407.624128 364.740449 
L 408.026757 364.83685 
L 408.429385 364.68585 
L 408.697804 364.37641 
L 409.368851 363.005238 
L 409.905689 360.956639 
L 411.516202 352.293406 
L 411.78462 349.967421 
L 412.589877 341.576949 
L 412.724086 340.606644 
L 413.395134 331.096596 
L 415.676694 238.46914 
L 416.347741 172.130867 
L 416.48195 171.873608 
L 416.61616 360.705467 
L 416.750369 43.001076 
L 417.421416 197.562302 
L 417.824044 228.422545 
L 418.226673 248.51152 
L 418.629301 267.359835 
L 419.166139 294.355288 
L 419.568767 308.855552 
L 419.837186 316.760127 
L 420.105605 322.962582 
L 420.239814 324.048418 
L 420.642442 332.579333 
L 420.776652 333.987662 
L 421.17928 341.506453 
L 421.447699 343.740766 
L 421.850327 347.246 
L 421.984536 347.452482 
L 422.655584 352.737573 
L 423.192421 356.783272 
L 424.266097 361.721431 
L 424.802934 363.244672 
L 425.205562 363.764261 
L 425.7424 363.984133 
L 426.145028 363.826236 
L 426.547657 363.432287 
L 427.084494 362.589556 
L 427.755541 361.108628 
L 428.560798 358.784038 
L 429.366055 355.813589 
L 430.573939 350.321601 
L 431.781824 343.06227 
L 432.855499 334.652835 
L 433.526547 327.656614 
L 434.331803 316.416809 
L 435.00285 302.666118 
L 435.673897 288.869815 
L 436.076526 285.166701 
L 436.613363 281.434898 
L 437.015991 276.179165 
L 437.552829 264.821201 
L 438.760714 233.788096 
L 438.894923 232.969864 
L 439.029133 232.865983 
L 439.297552 234.14569 
L 439.834389 238.018028 
L 440.102808 238.648011 
L 440.237018 238.517425 
L 440.505436 237.352981 
L 440.908065 233.81356 
L 441.310693 227.626834 
L 441.847531 214.969434 
L 442.518578 194.408005 
L 444.129091 137.533313 
L 444.2633 137.02967 
L 444.39751 137.851328 
L 444.665928 142.314765 
L 445.471185 158.260529 
L 446.276441 168.008833 
L 447.350117 180.964542 
L 447.752745 183.215767 
L 448.021164 183.808129 
L 448.155373 183.867066 
L 448.289583 183.781764 
L 448.558002 183.201516 
L 448.96063 181.35408 
L 450.034305 174.975616 
L 450.168515 174.848057 
L 450.302724 174.976283 
L 450.571143 175.808286 
L 452.718494 184.397332 
L 454.597426 188.279803 
L 455.000054 190.42657 
L 456.342148 200.065179 
L 456.610567 200.525412 
L 457.147405 200.898425 
L 457.415823 201.791503 
L 457.818452 204.714646 
L 459.160546 216.546311 
L 460.100012 222.126946 
L 460.50264 226.72517 
L 462.515781 253.514508 
L 463.589457 264.283506 
L 464.260504 269.069021 
L 464.797341 271.429587 
L 465.19997 272.337138 
L 465.468389 272.519623 
L 465.736807 272.326045 
L 466.005226 271.70242 
L 466.407854 269.794425 
L 466.810483 266.431636 
L 467.213111 261.265127 
L 467.749949 251.142678 
L 469.226252 219.318829 
L 469.360462 219.104217 
L 469.494671 219.662706 
L 469.76309 222.74515 
L 470.299928 233.183726 
L 471.105184 248.412641 
L 471.642022 254.755863 
L 472.04465 257.111774 
L 472.313069 257.556414 
L 472.447278 257.456422 
L 472.715697 256.651806 
L 473.118326 254.091012 
L 473.655163 248.69139 
L 474.728839 234.643222 
L 475.802514 221.560069 
L 476.876189 211.461375 
L 478.218283 201.005965 
L 479.157749 195.055359 
L 479.963006 191.107995 
L 480.634053 188.735458 
L 481.170891 187.625727 
L 481.573519 187.342858 
L 481.841938 187.427192 
L 482.244566 187.911563 
L 482.781404 189.015035 
L 483.989289 191.668163 
L 484.526126 192.288388 
L 484.928754 192.392727 
L 485.197173 192.262166 
L 485.599802 191.739829 
L 486.00243 190.820126 
L 486.539268 188.9988 
L 487.210315 185.85633 
L 489.223456 175.291442 
L 489.626084 174.494538 
L 489.894503 174.494841 
L 490.162922 174.961367 
L 490.56555 176.546232 
L 490.968178 179.143647 
L 491.639225 185.352726 
L 492.98132 201.029246 
L 494.323414 215.41228 
L 495.665508 227.128325 
L 497.276021 239.357746 
L 498.349697 245.936305 
L 499.289162 250.375791 
L 500.094419 253.192818 
L 500.765466 254.776306 
L 501.302304 255.479214 
L 501.704932 255.63452 
L 501.973351 255.539005 
L 502.375979 255.059367 
L 502.778607 254.124905 
L 503.315445 252.070824 
L 503.852283 248.977905 
L 504.52333 243.515336 
L 505.328586 234.651599 
L 506.670681 216.472914 
L 507.744356 203.149488 
L 508.415403 197.024518 
L 508.952241 193.616107 
L 509.489078 191.519125 
L 509.891707 190.741913 
L 510.160125 190.557837 
L 510.428544 190.602051 
L 510.831173 191.011431 
L 511.36801 191.992217 
L 513.381152 196.194103 
L 515.528502 199.654733 
L 516.467968 201.942827 
L 518.3469 207.221629 
L 520.360041 213.590707 
L 524.117905 225.749419 
L 525.057371 227.941872 
L 526.131046 229.880603 
L 527.070512 231.181194 
L 528.009978 232.102584 
L 529.754701 233.640068 
L 530.559957 234.745958 
L 532.707308 237.940414 
L 533.378355 238.433858 
L 534.049402 238.626222 
L 534.854659 238.607402 
L 536.196753 238.318156 
L 537.270428 237.856425 
L 539.28357 236.853374 
L 539.954617 236.827035 
L 540.625664 237.028788 
L 541.56513 237.602549 
L 544.249318 239.453929 
L 545.054575 239.69739 
L 545.859831 239.727421 
L 547.738763 239.637127 
L 548.275601 239.896591 
L 548.812439 240.413856 
L 549.483486 241.459435 
L 550.288742 243.238189 
L 551.630836 246.930768 
L 553.509768 252.001613 
L 554.717653 254.599233 
L 555.791328 256.414296 
L 557.267632 258.443887 
L 562.636009 265.519208 
L 564.112312 268.173843 
L 566.662291 272.897121 
L 567.601757 274.13295 
L 568.407014 274.852028 
L 569.21227 275.283348 
L 570.151736 275.517079 
L 572.970134 275.974812 
L 573.9096 276.465562 
L 575.117485 277.368558 
L 576.727998 278.872579 
L 578.875349 281.202471 
L 581.693746 284.251699 
L 583.438469 285.796882 
L 585.317401 287.158031 
L 588.270008 288.931225 
L 593.504175 292.068042 
L 598.604133 294.345675 
L 599.812018 295.246969 
L 600.885694 296.354749 
L 601.959369 297.794269 
L 603.301463 299.997297 
L 608.133002 308.366499 
L 609.475096 310.0562 
L 610.9514 311.535342 
L 613.635588 313.788734 
L 616.588196 316.412966 
L 619.675012 319.152995 
L 621.285525 320.262284 
L 622.896038 321.097523 
L 626.251274 322.749218 
L 627.727578 323.811612 
L 629.338091 325.281118 
L 631.351232 327.456215 
L 636.719609 333.449404 
L 638.73275 335.248161 
L 640.880101 336.860978 
L 643.29587 338.37971 
L 647.322153 340.888971 
L 656.716812 347.395139 
L 658.998372 349.481593 
L 663.427283 353.587419 
L 666.245681 355.837469 
L 669.735126 358.32069 
L 674.835084 361.928465 
L 678.19032 364.637754 
L 685.035 370.486795 
L 685.035 370.486795 
" clip-path="url(#p08cc9ad6ab)" style="fill: none; stroke: #0000ff; stroke-width: 1.5; stroke-linecap: square"/>
   </g>
   <g id="patch_3">
    <path d="M 148.197319 489.1525 
L 148.197319 37.512 
" style="fill: none; stroke: #000000; stroke-width: 0.8; stroke-linejoin: miter; stroke-linecap: square"/>
   </g>
   <g id="patch_4">
    <path d="M 685.035 489.1525 
L 685.035 37.512 
" style="fill: none; stroke: #000000; stroke-width: 0.8; stroke-linejoin: miter; stroke-linecap: square"/>
   </g>
   <g id="patch_5">
    <path d="M 148.197319 489.1525 
L 685.035 489.1525 
" style="fill: none; stroke: #000000; stroke-width: 0.8; stroke-linejoin: miter; stroke-linecap: square"/>
   </g>
   <g id="patch_6">
    <path d="M 148.197319 37.512 
L 685.035 37.512 
" style="fill: none; stroke: #000000; stroke-width: 0.8; stroke-linejoin: miter; stroke-linecap: square"/>
   </g>
   <g id="legend_1">
    <g id="patch_7">
     <path d="M 554.985 101.052156 
L 676.535 101.052156 
L 676.535 46.012 
L 554.985 46.012 
z
" style="fill: #ffffff; opacity: 0.8; stroke: #000000; stroke-linejoin: miter"/>
    </g>
    <g id="line2d_73">
     <path d="M 561.785 59.779344 
L 578.785 59.779344 
L 595.785 59.779344 
" style="fill: none; stroke-dasharray: 14.8,6.4; stroke-dashoffset: 0; stroke: #ff0000; stroke-width: 4"/>
    </g>
    <g id="text_18">
     <!-- $\rho_0$ -->
     <g transform="translate(609.385 65.729344) scale(0.17 -0.17)">
      <use xlink:href="#DejaVuSans-Oblique-3c1"/>
      <use xlink:href="#DejaVuSans-30" transform="translate(63.476562 -16.40625) scale(0.7)"/>
     </g>
    </g>
    <g id="line2d_74">
     <path d="M 561.785 84.766687 
L 578.785 84.766687 
L 595.785 84.766687 
" style="fill: none; stroke: #0000ff; stroke-width: 1.5; stroke-linecap: square"/>
    </g>
    <g id="text_19">
     <!-- $\it{U=4.5}$ -->
     <g transform="translate(609.385 90.716687) scale(0.17 -0.17)">
      <defs>
       <path id="DejaVuSans-Oblique-55" d="M 991 4666 
L 1625 4666 
L 1075 1831 
Q 1041 1641 1027 1517 
Q 1013 1394 1013 1300 
Q 1013 869 1253 645 
Q 1494 422 1959 422 
Q 2563 422 2898 753 
Q 3234 1084 3378 1831 
L 3928 4666 
L 4563 4666 
L 4000 1753 
Q 3816 809 3300 359 
Q 2784 -91 1888 -91 
Q 1188 -91 780 261 
Q 372 613 372 1216 
Q 372 1325 387 1461 
Q 403 1597 434 1753 
L 991 4666 
z
" transform="scale(0.015625)"/>
       <path id="DejaVuSans-3d" d="M 678 2906 
L 4684 2906 
L 4684 2381 
L 678 2381 
L 678 2906 
z
M 678 1631 
L 4684 1631 
L 4684 1100 
L 678 1100 
L 678 1631 
z
" transform="scale(0.015625)"/>
       <path id="DejaVuSans-2e" d="M 684 794 
L 1344 794 
L 1344 0 
L 684 0 
L 684 794 
z
" transform="scale(0.015625)"/>
       <path id="DejaVuSans-35" d="M 691 4666 
L 3169 4666 
L 3169 4134 
L 1269 4134 
L 1269 2991 
Q 1406 3038 1543 3061 
Q 1681 3084 1819 3084 
Q 2600 3084 3056 2656 
Q 3513 2228 3513 1497 
Q 3513 744 3044 326 
Q 2575 -91 1722 -91 
Q 1428 -91 1123 -41 
Q 819 9 494 109 
L 494 744 
Q 775 591 1075 516 
Q 1375 441 1709 441 
Q 2250 441 2565 725 
Q 2881 1009 2881 1497 
Q 2881 1984 2565 2268 
Q 2250 2553 1709 2553 
Q 1456 2553 1204 2497 
Q 953 2441 691 2322 
L 691 4666 
z
" transform="scale(0.015625)"/>
      </defs>
      <use xlink:href="#DejaVuSans-Oblique-55" transform="translate(0 0.09375)"/>
      <use xlink:href="#DejaVuSans-3d" transform="translate(92.675781 0.09375)"/>
      <use xlink:href="#DejaVuSans-34" transform="translate(195.947266 0.09375)"/>
      <use xlink:href="#DejaVuSans-2e" transform="translate(259.570312 0.09375)"/>
      <use xlink:href="#DejaVuSans-35" transform="translate(291.357422 0.09375)"/>
     </g>
    </g>
   </g>
  </g>
 </g>
 <defs>
  <clipPath id="p08cc9ad6ab">
   <rect x="148.197319" y="37.512" width="536.837681" height="451.6405"/>
  </clipPath>
 </defs>
</svg>
