<?xml version="1.0" encoding="utf-8" standalone="no"?>
<!DOCTYPE svg PUBLIC "-//W3C//DTD SVG 1.1//EN"
  "http://www.w3.org/Graphics/SVG/1.1/DTD/svg11.dtd">
<svg xmlns:xlink="http://www.w3.org/1999/xlink" width="720pt" height="576pt" viewBox="0 0 720 576" xmlns="http://www.w3.org/2000/svg" version="1.1">
 <metadata>
  <rdf:RDF xmlns:dc="http://purl.org/dc/elements/1.1/" xmlns:cc="http://creativecommons.org/ns#" xmlns:rdf="http://www.w3.org/1999/02/22-rdf-syntax-ns#">
   <cc:Work>
    <dc:type rdf:resource="http://purl.org/dc/dcmitype/StillImage"/>
    <dc:date>2023-04-15T01:12:17.527638</dc:date>
    <dc:format>image/svg+xml</dc:format>
    <dc:creator>
     <cc:Agent>
      <dc:title>Matplotlib v3.7.1, https://matplotlib.org/</dc:title>
     </cc:Agent>
    </dc:creator>
   </cc:Work>
  </rdf:RDF>
 </metadata>
 <defs>
  <style type="text/css">*{stroke-linejoin: round; stroke-linecap: butt}</style>
 </defs>
 <g id="figure_1">
  <g id="patch_1">
   <path d="M 0 576 
L 720 576 
L 720 0 
L 0 0 
z
" style="fill: #ffffff"/>
  </g>
  <g id="axes_1">
   <g id="patch_2">
    <path d="M 148.197319 489.1525 
L 685.035 489.1525 
L 685.035 37.512 
L 148.197319 37.512 
z
" style="fill: #ffffff"/>
   </g>
   <g id="matplotlib.axis_1">
    <g id="xtick_1">
     <g id="line2d_1">
      <path d="M 148.197319 489.1525 
L 148.197319 37.512 
" clip-path="url(#pddac4655fb)" style="fill: none; stroke: #b0b0b0; stroke-width: 0.8; stroke-linecap: square"/>
     </g>
     <g id="line2d_2">
      <defs>
       <path id="mc74fdaf9d9" d="M 0 0 
L 0 3.5 
" style="stroke: #000000; stroke-width: 0.8"/>
      </defs>
      <g>
       <use xlink:href="#mc74fdaf9d9" x="148.197319" y="489.1525" style="stroke: #000000; stroke-width: 0.8"/>
      </g>
     </g>
     <g id="text_1">
      <!-- −8 -->
      <g transform="translate(129.769585 515.148594) scale(0.25 -0.25)">
       <defs>
        <path id="DejaVuSans-2212" d="M 678 2272 
L 4684 2272 
L 4684 1741 
L 678 1741 
L 678 2272 
z
" transform="scale(0.015625)"/>
        <path id="DejaVuSans-38" d="M 2034 2216 
Q 1584 2216 1326 1975 
Q 1069 1734 1069 1313 
Q 1069 891 1326 650 
Q 1584 409 2034 409 
Q 2484 409 2743 651 
Q 3003 894 3003 1313 
Q 3003 1734 2745 1975 
Q 2488 2216 2034 2216 
z
M 1403 2484 
Q 997 2584 770 2862 
Q 544 3141 544 3541 
Q 544 4100 942 4425 
Q 1341 4750 2034 4750 
Q 2731 4750 3128 4425 
Q 3525 4100 3525 3541 
Q 3525 3141 3298 2862 
Q 3072 2584 2669 2484 
Q 3125 2378 3379 2068 
Q 3634 1759 3634 1313 
Q 3634 634 3220 271 
Q 2806 -91 2034 -91 
Q 1263 -91 848 271 
Q 434 634 434 1313 
Q 434 1759 690 2068 
Q 947 2378 1403 2484 
z
M 1172 3481 
Q 1172 3119 1398 2916 
Q 1625 2713 2034 2713 
Q 2441 2713 2670 2916 
Q 2900 3119 2900 3481 
Q 2900 3844 2670 4047 
Q 2441 4250 2034 4250 
Q 1625 4250 1398 4047 
Q 1172 3844 1172 3481 
z
" transform="scale(0.015625)"/>
       </defs>
       <use xlink:href="#DejaVuSans-2212"/>
       <use xlink:href="#DejaVuSans-38" x="83.789062"/>
      </g>
     </g>
    </g>
    <g id="xtick_2">
     <g id="line2d_3">
      <path d="M 215.302029 489.1525 
L 215.302029 37.512 
" clip-path="url(#pddac4655fb)" style="fill: none; stroke: #b0b0b0; stroke-width: 0.8; stroke-linecap: square"/>
     </g>
     <g id="line2d_4">
      <g>
       <use xlink:href="#mc74fdaf9d9" x="215.302029" y="489.1525" style="stroke: #000000; stroke-width: 0.8"/>
      </g>
     </g>
     <g id="text_2">
      <!-- −6 -->
      <g transform="translate(196.874295 515.148594) scale(0.25 -0.25)">
       <defs>
        <path id="DejaVuSans-36" d="M 2113 2584 
Q 1688 2584 1439 2293 
Q 1191 2003 1191 1497 
Q 1191 994 1439 701 
Q 1688 409 2113 409 
Q 2538 409 2786 701 
Q 3034 994 3034 1497 
Q 3034 2003 2786 2293 
Q 2538 2584 2113 2584 
z
M 3366 4563 
L 3366 3988 
Q 3128 4100 2886 4159 
Q 2644 4219 2406 4219 
Q 1781 4219 1451 3797 
Q 1122 3375 1075 2522 
Q 1259 2794 1537 2939 
Q 1816 3084 2150 3084 
Q 2853 3084 3261 2657 
Q 3669 2231 3669 1497 
Q 3669 778 3244 343 
Q 2819 -91 2113 -91 
Q 1303 -91 875 529 
Q 447 1150 447 2328 
Q 447 3434 972 4092 
Q 1497 4750 2381 4750 
Q 2619 4750 2861 4703 
Q 3103 4656 3366 4563 
z
" transform="scale(0.015625)"/>
       </defs>
       <use xlink:href="#DejaVuSans-2212"/>
       <use xlink:href="#DejaVuSans-36" x="83.789062"/>
      </g>
     </g>
    </g>
    <g id="xtick_3">
     <g id="line2d_5">
      <path d="M 282.406739 489.1525 
L 282.406739 37.512 
" clip-path="url(#pddac4655fb)" style="fill: none; stroke: #b0b0b0; stroke-width: 0.8; stroke-linecap: square"/>
     </g>
     <g id="line2d_6">
      <g>
       <use xlink:href="#mc74fdaf9d9" x="282.406739" y="489.1525" style="stroke: #000000; stroke-width: 0.8"/>
      </g>
     </g>
     <g id="text_3">
      <!-- −4 -->
      <g transform="translate(263.979005 515.148594) scale(0.25 -0.25)">
       <defs>
        <path id="DejaVuSans-34" d="M 2419 4116 
L 825 1625 
L 2419 1625 
L 2419 4116 
z
M 2253 4666 
L 3047 4666 
L 3047 1625 
L 3713 1625 
L 3713 1100 
L 3047 1100 
L 3047 0 
L 2419 0 
L 2419 1100 
L 313 1100 
L 313 1709 
L 2253 4666 
z
" transform="scale(0.015625)"/>
       </defs>
       <use xlink:href="#DejaVuSans-2212"/>
       <use xlink:href="#DejaVuSans-34" x="83.789062"/>
      </g>
     </g>
    </g>
    <g id="xtick_4">
     <g id="line2d_7">
      <path d="M 349.51145 489.1525 
L 349.51145 37.512 
" clip-path="url(#pddac4655fb)" style="fill: none; stroke: #b0b0b0; stroke-width: 0.8; stroke-linecap: square"/>
     </g>
     <g id="line2d_8">
      <g>
       <use xlink:href="#mc74fdaf9d9" x="349.51145" y="489.1525" style="stroke: #000000; stroke-width: 0.8"/>
      </g>
     </g>
     <g id="text_4">
      <!-- −2 -->
      <g transform="translate(331.083715 515.148594) scale(0.25 -0.25)">
       <defs>
        <path id="DejaVuSans-32" d="M 1228 531 
L 3431 531 
L 3431 0 
L 469 0 
L 469 531 
Q 828 903 1448 1529 
Q 2069 2156 2228 2338 
Q 2531 2678 2651 2914 
Q 2772 3150 2772 3378 
Q 2772 3750 2511 3984 
Q 2250 4219 1831 4219 
Q 1534 4219 1204 4116 
Q 875 4013 500 3803 
L 500 4441 
Q 881 4594 1212 4672 
Q 1544 4750 1819 4750 
Q 2544 4750 2975 4387 
Q 3406 4025 3406 3419 
Q 3406 3131 3298 2873 
Q 3191 2616 2906 2266 
Q 2828 2175 2409 1742 
Q 1991 1309 1228 531 
z
" transform="scale(0.015625)"/>
       </defs>
       <use xlink:href="#DejaVuSans-2212"/>
       <use xlink:href="#DejaVuSans-32" x="83.789062"/>
      </g>
     </g>
    </g>
    <g id="xtick_5">
     <g id="line2d_9">
      <path d="M 416.61616 489.1525 
L 416.61616 37.512 
" clip-path="url(#pddac4655fb)" style="fill: none; stroke: #b0b0b0; stroke-width: 0.8; stroke-linecap: square"/>
     </g>
     <g id="line2d_10">
      <g>
       <use xlink:href="#mc74fdaf9d9" x="416.61616" y="489.1525" style="stroke: #000000; stroke-width: 0.8"/>
      </g>
     </g>
     <g id="text_5">
      <!-- 0 -->
      <g transform="translate(408.663035 515.148594) scale(0.25 -0.25)">
       <defs>
        <path id="DejaVuSans-30" d="M 2034 4250 
Q 1547 4250 1301 3770 
Q 1056 3291 1056 2328 
Q 1056 1369 1301 889 
Q 1547 409 2034 409 
Q 2525 409 2770 889 
Q 3016 1369 3016 2328 
Q 3016 3291 2770 3770 
Q 2525 4250 2034 4250 
z
M 2034 4750 
Q 2819 4750 3233 4129 
Q 3647 3509 3647 2328 
Q 3647 1150 3233 529 
Q 2819 -91 2034 -91 
Q 1250 -91 836 529 
Q 422 1150 422 2328 
Q 422 3509 836 4129 
Q 1250 4750 2034 4750 
z
" transform="scale(0.015625)"/>
       </defs>
       <use xlink:href="#DejaVuSans-30"/>
      </g>
     </g>
    </g>
    <g id="xtick_6">
     <g id="line2d_11">
      <path d="M 483.72087 489.1525 
L 483.72087 37.512 
" clip-path="url(#pddac4655fb)" style="fill: none; stroke: #b0b0b0; stroke-width: 0.8; stroke-linecap: square"/>
     </g>
     <g id="line2d_12">
      <g>
       <use xlink:href="#mc74fdaf9d9" x="483.72087" y="489.1525" style="stroke: #000000; stroke-width: 0.8"/>
      </g>
     </g>
     <g id="text_6">
      <!-- 2 -->
      <g transform="translate(475.767745 515.148594) scale(0.25 -0.25)">
       <use xlink:href="#DejaVuSans-32"/>
      </g>
     </g>
    </g>
    <g id="xtick_7">
     <g id="line2d_13">
      <path d="M 550.82558 489.1525 
L 550.82558 37.512 
" clip-path="url(#pddac4655fb)" style="fill: none; stroke: #b0b0b0; stroke-width: 0.8; stroke-linecap: square"/>
     </g>
     <g id="line2d_14">
      <g>
       <use xlink:href="#mc74fdaf9d9" x="550.82558" y="489.1525" style="stroke: #000000; stroke-width: 0.8"/>
      </g>
     </g>
     <g id="text_7">
      <!-- 4 -->
      <g transform="translate(542.872455 515.148594) scale(0.25 -0.25)">
       <use xlink:href="#DejaVuSans-34"/>
      </g>
     </g>
    </g>
    <g id="xtick_8">
     <g id="line2d_15">
      <path d="M 617.93029 489.1525 
L 617.93029 37.512 
" clip-path="url(#pddac4655fb)" style="fill: none; stroke: #b0b0b0; stroke-width: 0.8; stroke-linecap: square"/>
     </g>
     <g id="line2d_16">
      <g>
       <use xlink:href="#mc74fdaf9d9" x="617.93029" y="489.1525" style="stroke: #000000; stroke-width: 0.8"/>
      </g>
     </g>
     <g id="text_8">
      <!-- 6 -->
      <g transform="translate(609.977165 515.148594) scale(0.25 -0.25)">
       <use xlink:href="#DejaVuSans-36"/>
      </g>
     </g>
    </g>
    <g id="xtick_9">
     <g id="line2d_17">
      <path d="M 685.035 489.1525 
L 685.035 37.512 
" clip-path="url(#pddac4655fb)" style="fill: none; stroke: #b0b0b0; stroke-width: 0.8; stroke-linecap: square"/>
     </g>
     <g id="line2d_18">
      <g>
       <use xlink:href="#mc74fdaf9d9" x="685.035" y="489.1525" style="stroke: #000000; stroke-width: 0.8"/>
      </g>
     </g>
     <g id="text_9">
      <!-- 8 -->
      <g transform="translate(677.081875 515.148594) scale(0.25 -0.25)">
       <use xlink:href="#DejaVuSans-38"/>
      </g>
     </g>
    </g>
    <g id="text_10">
     <!-- $\omega$ [-] -->
     <g transform="translate(391.74116 541.351719) scale(0.25 -0.25)">
      <defs>
       <path id="DejaVuSans-Oblique-3c9" d="M 1369 -91 
Q 72 -91 434 1766 
Q 575 2500 1256 3500 
L 1875 3500 
Q 1231 2500 1088 1750 
Q 819 397 1519 397 
Q 2166 397 2478 2078 
L 3009 2078 
Q 2669 388 3316 397 
Q 4013 403 4275 1750 
Q 4419 2500 4169 3500 
L 4788 3500 
Q 5075 2500 4934 1766 
Q 4578 -94 3278 -91 
Q 2428 -88 2503 844 
Q 2194 -91 1369 -91 
z
" transform="scale(0.015625)"/>
       <path id="Calibri-20" transform="scale(0.015625)"/>
       <path id="Calibri-5b" d="M 1684 -813 
Q 1684 -916 1661 -958 
Q 1638 -1000 1594 -1000 
L 794 -1000 
Q 756 -1000 722 -989 
Q 688 -978 659 -953 
Q 631 -928 614 -886 
Q 597 -844 597 -781 
L 597 4153 
Q 597 4213 614 4255 
Q 631 4297 659 4323 
Q 688 4350 722 4361 
Q 756 4372 794 4372 
L 1594 4372 
Q 1613 4372 1630 4362 
Q 1647 4353 1659 4328 
Q 1672 4303 1678 4267 
Q 1684 4231 1684 4178 
Q 1684 4078 1661 4034 
Q 1638 3991 1594 3991 
L 1084 3991 
L 1084 -622 
L 1594 -622 
Q 1613 -622 1630 -631 
Q 1647 -641 1659 -664 
Q 1672 -688 1678 -723 
Q 1684 -759 1684 -813 
z
" transform="scale(0.015625)"/>
       <path id="Calibri-2d" d="M 1744 1578 
Q 1744 1456 1716 1409 
Q 1688 1363 1634 1363 
L 328 1363 
Q 272 1363 244 1411 
Q 216 1459 216 1578 
Q 216 1697 244 1744 
Q 272 1791 328 1791 
L 1634 1791 
Q 1659 1791 1679 1781 
Q 1700 1772 1714 1745 
Q 1728 1719 1736 1678 
Q 1744 1638 1744 1578 
z
" transform="scale(0.015625)"/>
       <path id="Calibri-5d" d="M 1369 -781 
Q 1369 -844 1351 -886 
Q 1334 -928 1306 -953 
Q 1278 -978 1242 -989 
Q 1206 -1000 1169 -1000 
L 372 -1000 
Q 328 -1000 304 -958 
Q 281 -916 281 -813 
Q 281 -759 286 -723 
Q 291 -688 303 -664 
Q 316 -641 333 -631 
Q 350 -622 372 -622 
L 881 -622 
L 881 3991 
L 372 3991 
Q 328 3991 304 4034 
Q 281 4078 281 4178 
Q 281 4231 286 4267 
Q 291 4303 303 4328 
Q 316 4353 333 4362 
Q 350 4372 372 4372 
L 1169 4372 
Q 1206 4372 1242 4361 
Q 1278 4350 1306 4323 
Q 1334 4297 1351 4255 
Q 1369 4213 1369 4153 
L 1369 -781 
z
" transform="scale(0.015625)"/>
      </defs>
      <use xlink:href="#DejaVuSans-Oblique-3c9" transform="translate(0 0.6875)"/>
      <use xlink:href="#Calibri-20" transform="translate(83.740234 0.6875)"/>
      <use xlink:href="#Calibri-5b" transform="translate(106.347656 0.6875)"/>
      <use xlink:href="#Calibri-2d" transform="translate(137.011719 0.6875)"/>
      <use xlink:href="#Calibri-5d" transform="translate(167.626953 0.6875)"/>
     </g>
    </g>
   </g>
   <g id="matplotlib.axis_2">
    <g id="ytick_1">
     <g id="line2d_19">
      <path d="M 148.197319 489.1525 
L 685.035 489.1525 
" clip-path="url(#pddac4655fb)" style="fill: none; stroke: #b0b0b0; stroke-width: 0.8; stroke-linecap: square"/>
     </g>
     <g id="line2d_20">
      <defs>
       <path id="md85e5177d3" d="M 0 0 
L -3.5 0 
" style="stroke: #000000; stroke-width: 0.8"/>
      </defs>
      <g>
       <use xlink:href="#md85e5177d3" x="148.197319" y="489.1525" style="stroke: #000000; stroke-width: 0.8"/>
      </g>
     </g>
     <g id="text_11">
      <!-- $\mathdefault{10^{-4}}$ -->
      <g transform="translate(82.447319 498.650547) scale(0.25 -0.25)">
       <defs>
        <path id="DejaVuSans-31" d="M 794 531 
L 1825 531 
L 1825 4091 
L 703 3866 
L 703 4441 
L 1819 4666 
L 2450 4666 
L 2450 531 
L 3481 531 
L 3481 0 
L 794 0 
L 794 531 
z
" transform="scale(0.015625)"/>
       </defs>
       <use xlink:href="#DejaVuSans-31" transform="translate(0 0.684375)"/>
       <use xlink:href="#DejaVuSans-30" transform="translate(63.623047 0.684375)"/>
       <use xlink:href="#DejaVuSans-2212" transform="translate(128.203125 38.965625) scale(0.7)"/>
       <use xlink:href="#DejaVuSans-34" transform="translate(186.855469 38.965625) scale(0.7)"/>
      </g>
     </g>
    </g>
    <g id="ytick_2">
     <g id="line2d_21">
      <path d="M 148.197319 398.8244 
L 685.035 398.8244 
" clip-path="url(#pddac4655fb)" style="fill: none; stroke: #b0b0b0; stroke-width: 0.8; stroke-linecap: square"/>
     </g>
     <g id="line2d_22">
      <g>
       <use xlink:href="#md85e5177d3" x="148.197319" y="398.8244" style="stroke: #000000; stroke-width: 0.8"/>
      </g>
     </g>
     <g id="text_12">
      <!-- $\mathdefault{10^{-3}}$ -->
      <g transform="translate(82.447319 408.322447) scale(0.25 -0.25)">
       <defs>
        <path id="DejaVuSans-33" d="M 2597 2516 
Q 3050 2419 3304 2112 
Q 3559 1806 3559 1356 
Q 3559 666 3084 287 
Q 2609 -91 1734 -91 
Q 1441 -91 1130 -33 
Q 819 25 488 141 
L 488 750 
Q 750 597 1062 519 
Q 1375 441 1716 441 
Q 2309 441 2620 675 
Q 2931 909 2931 1356 
Q 2931 1769 2642 2001 
Q 2353 2234 1838 2234 
L 1294 2234 
L 1294 2753 
L 1863 2753 
Q 2328 2753 2575 2939 
Q 2822 3125 2822 3475 
Q 2822 3834 2567 4026 
Q 2313 4219 1838 4219 
Q 1578 4219 1281 4162 
Q 984 4106 628 3988 
L 628 4550 
Q 988 4650 1302 4700 
Q 1616 4750 1894 4750 
Q 2613 4750 3031 4423 
Q 3450 4097 3450 3541 
Q 3450 3153 3228 2886 
Q 3006 2619 2597 2516 
z
" transform="scale(0.015625)"/>
       </defs>
       <use xlink:href="#DejaVuSans-31" transform="translate(0 0.765625)"/>
       <use xlink:href="#DejaVuSans-30" transform="translate(63.623047 0.765625)"/>
       <use xlink:href="#DejaVuSans-2212" transform="translate(128.203125 39.046875) scale(0.7)"/>
       <use xlink:href="#DejaVuSans-33" transform="translate(186.855469 39.046875) scale(0.7)"/>
      </g>
     </g>
    </g>
    <g id="ytick_3">
     <g id="line2d_23">
      <path d="M 148.197319 308.4963 
L 685.035 308.4963 
" clip-path="url(#pddac4655fb)" style="fill: none; stroke: #b0b0b0; stroke-width: 0.8; stroke-linecap: square"/>
     </g>
     <g id="line2d_24">
      <g>
       <use xlink:href="#md85e5177d3" x="148.197319" y="308.4963" style="stroke: #000000; stroke-width: 0.8"/>
      </g>
     </g>
     <g id="text_13">
      <!-- $\mathdefault{10^{-2}}$ -->
      <g transform="translate(82.447319 317.994347) scale(0.25 -0.25)">
       <use xlink:href="#DejaVuSans-31" transform="translate(0 0.765625)"/>
       <use xlink:href="#DejaVuSans-30" transform="translate(63.623047 0.765625)"/>
       <use xlink:href="#DejaVuSans-2212" transform="translate(128.203125 39.046875) scale(0.7)"/>
       <use xlink:href="#DejaVuSans-32" transform="translate(186.855469 39.046875) scale(0.7)"/>
      </g>
     </g>
    </g>
    <g id="ytick_4">
     <g id="line2d_25">
      <path d="M 148.197319 218.1682 
L 685.035 218.1682 
" clip-path="url(#pddac4655fb)" style="fill: none; stroke: #b0b0b0; stroke-width: 0.8; stroke-linecap: square"/>
     </g>
     <g id="line2d_26">
      <g>
       <use xlink:href="#md85e5177d3" x="148.197319" y="218.1682" style="stroke: #000000; stroke-width: 0.8"/>
      </g>
     </g>
     <g id="text_14">
      <!-- $\mathdefault{10^{-1}}$ -->
      <g transform="translate(82.447319 227.666247) scale(0.25 -0.25)">
       <use xlink:href="#DejaVuSans-31" transform="translate(0 0.684375)"/>
       <use xlink:href="#DejaVuSans-30" transform="translate(63.623047 0.684375)"/>
       <use xlink:href="#DejaVuSans-2212" transform="translate(128.203125 38.965625) scale(0.7)"/>
       <use xlink:href="#DejaVuSans-31" transform="translate(186.855469 38.965625) scale(0.7)"/>
      </g>
     </g>
    </g>
    <g id="ytick_5">
     <g id="line2d_27">
      <path d="M 148.197319 127.8401 
L 685.035 127.8401 
" clip-path="url(#pddac4655fb)" style="fill: none; stroke: #b0b0b0; stroke-width: 0.8; stroke-linecap: square"/>
     </g>
     <g id="line2d_28">
      <g>
       <use xlink:href="#md85e5177d3" x="148.197319" y="127.8401" style="stroke: #000000; stroke-width: 0.8"/>
      </g>
     </g>
     <g id="text_15">
      <!-- $\mathdefault{10^{0}}$ -->
      <g transform="translate(97.197319 137.338147) scale(0.25 -0.25)">
       <use xlink:href="#DejaVuSans-31" transform="translate(0 0.765625)"/>
       <use xlink:href="#DejaVuSans-30" transform="translate(63.623047 0.765625)"/>
       <use xlink:href="#DejaVuSans-30" transform="translate(128.203125 39.046875) scale(0.7)"/>
      </g>
     </g>
    </g>
    <g id="ytick_6">
     <g id="line2d_29">
      <path d="M 148.197319 37.512 
L 685.035 37.512 
" clip-path="url(#pddac4655fb)" style="fill: none; stroke: #b0b0b0; stroke-width: 0.8; stroke-linecap: square"/>
     </g>
     <g id="line2d_30">
      <g>
       <use xlink:href="#md85e5177d3" x="148.197319" y="37.512" style="stroke: #000000; stroke-width: 0.8"/>
      </g>
     </g>
     <g id="text_16">
      <!-- $\mathdefault{10^{1}}$ -->
      <g transform="translate(97.197319 47.010047) scale(0.25 -0.25)">
       <use xlink:href="#DejaVuSans-31" transform="translate(0 0.684375)"/>
       <use xlink:href="#DejaVuSans-30" transform="translate(63.623047 0.684375)"/>
       <use xlink:href="#DejaVuSans-31" transform="translate(128.203125 38.965625) scale(0.7)"/>
      </g>
     </g>
    </g>
    <g id="ytick_7">
     <g id="line2d_31">
      <defs>
       <path id="mc19f3c3068" d="M 0 0 
L -2 0 
" style="stroke: #000000; stroke-width: 0.6"/>
      </defs>
      <g>
       <use xlink:href="#mc19f3c3068" x="148.197319" y="461.961032" style="stroke: #000000; stroke-width: 0.6"/>
      </g>
     </g>
    </g>
    <g id="ytick_8">
     <g id="line2d_32">
      <g>
       <use xlink:href="#mc19f3c3068" x="148.197319" y="446.055044" style="stroke: #000000; stroke-width: 0.6"/>
      </g>
     </g>
    </g>
    <g id="ytick_9">
     <g id="line2d_33">
      <g>
       <use xlink:href="#mc19f3c3068" x="148.197319" y="434.769565" style="stroke: #000000; stroke-width: 0.6"/>
      </g>
     </g>
    </g>
    <g id="ytick_10">
     <g id="line2d_34">
      <g>
       <use xlink:href="#mc19f3c3068" x="148.197319" y="426.015868" style="stroke: #000000; stroke-width: 0.6"/>
      </g>
     </g>
    </g>
    <g id="ytick_11">
     <g id="line2d_35">
      <g>
       <use xlink:href="#mc19f3c3068" x="148.197319" y="418.863576" style="stroke: #000000; stroke-width: 0.6"/>
      </g>
     </g>
    </g>
    <g id="ytick_12">
     <g id="line2d_36">
      <g>
       <use xlink:href="#mc19f3c3068" x="148.197319" y="412.8164" style="stroke: #000000; stroke-width: 0.6"/>
      </g>
     </g>
    </g>
    <g id="ytick_13">
     <g id="line2d_37">
      <g>
       <use xlink:href="#mc19f3c3068" x="148.197319" y="407.578097" style="stroke: #000000; stroke-width: 0.6"/>
      </g>
     </g>
    </g>
    <g id="ytick_14">
     <g id="line2d_38">
      <g>
       <use xlink:href="#mc19f3c3068" x="148.197319" y="402.957587" style="stroke: #000000; stroke-width: 0.6"/>
      </g>
     </g>
    </g>
    <g id="ytick_15">
     <g id="line2d_39">
      <g>
       <use xlink:href="#mc19f3c3068" x="148.197319" y="371.632932" style="stroke: #000000; stroke-width: 0.6"/>
      </g>
     </g>
    </g>
    <g id="ytick_16">
     <g id="line2d_40">
      <g>
       <use xlink:href="#mc19f3c3068" x="148.197319" y="355.726944" style="stroke: #000000; stroke-width: 0.6"/>
      </g>
     </g>
    </g>
    <g id="ytick_17">
     <g id="line2d_41">
      <g>
       <use xlink:href="#mc19f3c3068" x="148.197319" y="344.441465" style="stroke: #000000; stroke-width: 0.6"/>
      </g>
     </g>
    </g>
    <g id="ytick_18">
     <g id="line2d_42">
      <g>
       <use xlink:href="#mc19f3c3068" x="148.197319" y="335.687768" style="stroke: #000000; stroke-width: 0.6"/>
      </g>
     </g>
    </g>
    <g id="ytick_19">
     <g id="line2d_43">
      <g>
       <use xlink:href="#mc19f3c3068" x="148.197319" y="328.535476" style="stroke: #000000; stroke-width: 0.6"/>
      </g>
     </g>
    </g>
    <g id="ytick_20">
     <g id="line2d_44">
      <g>
       <use xlink:href="#mc19f3c3068" x="148.197319" y="322.4883" style="stroke: #000000; stroke-width: 0.6"/>
      </g>
     </g>
    </g>
    <g id="ytick_21">
     <g id="line2d_45">
      <g>
       <use xlink:href="#mc19f3c3068" x="148.197319" y="317.249997" style="stroke: #000000; stroke-width: 0.6"/>
      </g>
     </g>
    </g>
    <g id="ytick_22">
     <g id="line2d_46">
      <g>
       <use xlink:href="#mc19f3c3068" x="148.197319" y="312.629487" style="stroke: #000000; stroke-width: 0.6"/>
      </g>
     </g>
    </g>
    <g id="ytick_23">
     <g id="line2d_47">
      <g>
       <use xlink:href="#mc19f3c3068" x="148.197319" y="281.304832" style="stroke: #000000; stroke-width: 0.6"/>
      </g>
     </g>
    </g>
    <g id="ytick_24">
     <g id="line2d_48">
      <g>
       <use xlink:href="#mc19f3c3068" x="148.197319" y="265.398844" style="stroke: #000000; stroke-width: 0.6"/>
      </g>
     </g>
    </g>
    <g id="ytick_25">
     <g id="line2d_49">
      <g>
       <use xlink:href="#mc19f3c3068" x="148.197319" y="254.113365" style="stroke: #000000; stroke-width: 0.6"/>
      </g>
     </g>
    </g>
    <g id="ytick_26">
     <g id="line2d_50">
      <g>
       <use xlink:href="#mc19f3c3068" x="148.197319" y="245.359668" style="stroke: #000000; stroke-width: 0.6"/>
      </g>
     </g>
    </g>
    <g id="ytick_27">
     <g id="line2d_51">
      <g>
       <use xlink:href="#mc19f3c3068" x="148.197319" y="238.207376" style="stroke: #000000; stroke-width: 0.6"/>
      </g>
     </g>
    </g>
    <g id="ytick_28">
     <g id="line2d_52">
      <g>
       <use xlink:href="#mc19f3c3068" x="148.197319" y="232.1602" style="stroke: #000000; stroke-width: 0.6"/>
      </g>
     </g>
    </g>
    <g id="ytick_29">
     <g id="line2d_53">
      <g>
       <use xlink:href="#mc19f3c3068" x="148.197319" y="226.921897" style="stroke: #000000; stroke-width: 0.6"/>
      </g>
     </g>
    </g>
    <g id="ytick_30">
     <g id="line2d_54">
      <g>
       <use xlink:href="#mc19f3c3068" x="148.197319" y="222.301387" style="stroke: #000000; stroke-width: 0.6"/>
      </g>
     </g>
    </g>
    <g id="ytick_31">
     <g id="line2d_55">
      <g>
       <use xlink:href="#mc19f3c3068" x="148.197319" y="190.976732" style="stroke: #000000; stroke-width: 0.6"/>
      </g>
     </g>
    </g>
    <g id="ytick_32">
     <g id="line2d_56">
      <g>
       <use xlink:href="#mc19f3c3068" x="148.197319" y="175.070744" style="stroke: #000000; stroke-width: 0.6"/>
      </g>
     </g>
    </g>
    <g id="ytick_33">
     <g id="line2d_57">
      <g>
       <use xlink:href="#mc19f3c3068" x="148.197319" y="163.785265" style="stroke: #000000; stroke-width: 0.6"/>
      </g>
     </g>
    </g>
    <g id="ytick_34">
     <g id="line2d_58">
      <g>
       <use xlink:href="#mc19f3c3068" x="148.197319" y="155.031568" style="stroke: #000000; stroke-width: 0.6"/>
      </g>
     </g>
    </g>
    <g id="ytick_35">
     <g id="line2d_59">
      <g>
       <use xlink:href="#mc19f3c3068" x="148.197319" y="147.879276" style="stroke: #000000; stroke-width: 0.6"/>
      </g>
     </g>
    </g>
    <g id="ytick_36">
     <g id="line2d_60">
      <g>
       <use xlink:href="#mc19f3c3068" x="148.197319" y="141.8321" style="stroke: #000000; stroke-width: 0.6"/>
      </g>
     </g>
    </g>
    <g id="ytick_37">
     <g id="line2d_61">
      <g>
       <use xlink:href="#mc19f3c3068" x="148.197319" y="136.593797" style="stroke: #000000; stroke-width: 0.6"/>
      </g>
     </g>
    </g>
    <g id="ytick_38">
     <g id="line2d_62">
      <g>
       <use xlink:href="#mc19f3c3068" x="148.197319" y="131.973287" style="stroke: #000000; stroke-width: 0.6"/>
      </g>
     </g>
    </g>
    <g id="ytick_39">
     <g id="line2d_63">
      <g>
       <use xlink:href="#mc19f3c3068" x="148.197319" y="100.648632" style="stroke: #000000; stroke-width: 0.6"/>
      </g>
     </g>
    </g>
    <g id="ytick_40">
     <g id="line2d_64">
      <g>
       <use xlink:href="#mc19f3c3068" x="148.197319" y="84.742644" style="stroke: #000000; stroke-width: 0.6"/>
      </g>
     </g>
    </g>
    <g id="ytick_41">
     <g id="line2d_65">
      <g>
       <use xlink:href="#mc19f3c3068" x="148.197319" y="73.457165" style="stroke: #000000; stroke-width: 0.6"/>
      </g>
     </g>
    </g>
    <g id="ytick_42">
     <g id="line2d_66">
      <g>
       <use xlink:href="#mc19f3c3068" x="148.197319" y="64.703468" style="stroke: #000000; stroke-width: 0.6"/>
      </g>
     </g>
    </g>
    <g id="ytick_43">
     <g id="line2d_67">
      <g>
       <use xlink:href="#mc19f3c3068" x="148.197319" y="57.551176" style="stroke: #000000; stroke-width: 0.6"/>
      </g>
     </g>
    </g>
    <g id="ytick_44">
     <g id="line2d_68">
      <g>
       <use xlink:href="#mc19f3c3068" x="148.197319" y="51.504" style="stroke: #000000; stroke-width: 0.6"/>
      </g>
     </g>
    </g>
    <g id="ytick_45">
     <g id="line2d_69">
      <g>
       <use xlink:href="#mc19f3c3068" x="148.197319" y="46.265697" style="stroke: #000000; stroke-width: 0.6"/>
      </g>
     </g>
    </g>
    <g id="ytick_46">
     <g id="line2d_70">
      <g>
       <use xlink:href="#mc19f3c3068" x="148.197319" y="41.645187" style="stroke: #000000; stroke-width: 0.6"/>
      </g>
     </g>
    </g>
    <g id="text_17">
     <!-- $\rho$($\omega$) -->
     <g transform="translate(26.447319 258.08225) scale(0.25 -0.25)">
      <defs>
       <path id="DejaVuSans-Oblique-3c1" d="M 1203 2875 
Q 1453 3194 1981 3475 
Q 2188 3584 2756 3584 
Q 3394 3584 3694 3078 
Q 3994 2572 3834 1747 
Q 3672 922 3175 415 
Q 2678 -91 2041 -91 
Q 1656 -91 1409 63 
Q 1163 213 1044 525 
L 681 -1331 
L 103 -1331 
L 697 1716 
Q 838 2438 1203 2875 
z
M 3238 1747 
Q 3359 2381 3169 2744 
Q 2978 3103 2522 3103 
Q 2066 3103 1734 2744 
Q 1403 2381 1281 1747 
Q 1156 1113 1347 750 
Q 1538 391 1994 391 
Q 2450 391 2781 750 
Q 3113 1113 3238 1747 
z
" transform="scale(0.015625)"/>
       <path id="Calibri-28" d="M 1547 4306 
Q 1250 3678 1104 3017 
Q 959 2356 959 1688 
Q 959 1016 1107 356 
Q 1256 -303 1541 -938 
Q 1556 -975 1557 -1001 
Q 1559 -1028 1537 -1045 
Q 1516 -1063 1470 -1070 
Q 1425 -1078 1347 -1078 
Q 1291 -1078 1250 -1075 
Q 1209 -1072 1179 -1062 
Q 1150 -1053 1131 -1040 
Q 1113 -1028 1103 -1013 
Q 934 -694 806 -367 
Q 678 -41 590 296 
Q 503 634 459 979 
Q 416 1325 416 1678 
Q 416 2031 464 2375 
Q 513 2719 602 3058 
Q 691 3397 819 3725 
Q 947 4053 1106 4375 
Q 1109 4388 1123 4397 
Q 1138 4406 1163 4415 
Q 1188 4425 1231 4429 
Q 1275 4434 1344 4434 
Q 1416 4434 1459 4425 
Q 1503 4416 1528 4400 
Q 1553 4384 1556 4359 
Q 1559 4334 1547 4306 
z
" transform="scale(0.015625)"/>
       <path id="Calibri-29" d="M 1522 1678 
Q 1522 1325 1478 979 
Q 1434 634 1346 296 
Q 1259 -41 1132 -367 
Q 1006 -694 838 -1013 
Q 828 -1028 809 -1040 
Q 791 -1053 761 -1062 
Q 731 -1072 690 -1075 
Q 650 -1078 594 -1078 
Q 513 -1078 467 -1070 
Q 422 -1063 401 -1045 
Q 381 -1028 382 -1001 
Q 384 -975 400 -938 
Q 688 -306 834 355 
Q 981 1016 981 1688 
Q 981 2356 834 3017 
Q 688 3678 394 4306 
Q 381 4334 384 4359 
Q 388 4384 413 4400 
Q 438 4416 481 4425 
Q 525 4434 597 4434 
Q 663 4434 706 4429 
Q 750 4425 776 4415 
Q 803 4406 815 4397 
Q 828 4388 834 4375 
Q 1156 3734 1339 3057 
Q 1522 2381 1522 1678 
z
" transform="scale(0.015625)"/>
      </defs>
      <use xlink:href="#DejaVuSans-Oblique-3c1" transform="translate(0 0.71875)"/>
      <use xlink:href="#Calibri-28" transform="translate(63.476562 0.71875)"/>
      <use xlink:href="#DejaVuSans-Oblique-3c9" transform="translate(93.798828 0.71875)"/>
      <use xlink:href="#Calibri-29" transform="translate(177.539062 0.71875)"/>
     </g>
    </g>
   </g>
   <g id="line2d_71">
    <path d="M 148.197319 401.924147 
L 162.020889 399.143312 
L 174.636575 396.383285 
L 186.312795 393.603275 
L 196.915339 390.854735 
L 206.712626 388.088442 
L 215.704658 385.320877 
L 223.891432 382.5739 
L 231.40716 379.824512 
L 238.38605 377.038728 
L 244.828102 374.229627 
L 250.733316 371.415143 
L 256.235902 368.545953 
L 261.201651 365.712538 
L 265.898981 362.777084 
L 270.193682 359.833299 
L 274.219965 356.802858 
L 277.977829 353.69037 
L 281.467273 350.504169 
L 284.6883 347.257541 
L 287.640907 343.970201 
L 290.459305 340.496068 
L 293.009284 337.010028 
L 295.425053 333.342668 
L 297.706613 329.482558 
L 299.853964 325.419633 
L 301.867105 321.14641 
L 303.746037 316.659685 
L 305.624969 311.57699 
L 307.369692 306.191886 
L 308.980205 300.507268 
L 310.590718 293.956701 
L 312.067021 286.984493 
L 313.409115 279.619163 
L 314.75121 270.995462 
L 315.959094 261.843667 
L 317.166979 250.968002 
L 318.240655 239.407483 
L 319.31433 225.514254 
L 320.388005 208.650574 
L 321.59589 185.810923 
L 322.803775 163.280353 
L 323.206403 158.820833 
L 323.474822 157.569806 
L 323.609031 157.534553 
L 323.743241 157.900351 
L 324.01166 159.784153 
L 324.414288 165.044074 
L 325.085335 177.646959 
L 326.964267 214.170418 
L 328.037942 230.384171 
L 329.111618 243.25856 
L 330.185293 253.341869 
L 331.124759 260.228842 
L 332.064225 265.551278 
L 332.869481 269.00574 
L 333.674738 271.535844 
L 334.345785 272.994094 
L 335.016832 273.901903 
L 335.55367 274.253713 
L 335.956298 274.308604 
L 336.358926 274.190216 
L 336.895764 273.770574 
L 337.432602 273.059793 
L 338.103649 271.771992 
L 338.908905 269.65108 
L 339.714162 266.904633 
L 340.653628 262.894903 
L 341.727303 257.193442 
L 342.800978 250.17797 
L 343.874654 241.642212 
L 344.948329 231.260605 
L 346.022005 218.524288 
L 346.961471 204.82781 
L 347.900936 187.904052 
L 348.840402 166.657097 
L 350.048287 132.973903 
L 350.585125 119.982665 
L 350.853544 116.390923 
L 350.987753 115.694694 
L 351.121963 115.807211 
L 351.390381 118.40164 
L 351.79301 126.966877 
L 354.477198 197.057138 
L 355.550873 215.729817 
L 356.624549 230.326123 
L 357.564015 240.376826 
L 358.503481 248.072307 
L 359.174528 252.030909 
L 359.711365 254.109132 
L 360.113994 254.89543 
L 360.382413 254.977702 
L 360.650831 254.643824 
L 360.91925 253.82579 
L 361.321878 251.506096 
L 361.724507 247.567509 
L 362.127135 241.631708 
L 362.663973 230.237907 
L 363.469229 211.062877 
L 363.737648 208.682608 
L 363.871857 209.027071 
L 364.140276 212.703678 
L 364.677114 226.97304 
L 365.482371 248.157425 
L 366.153418 260.28828 
L 366.824465 268.316513 
L 367.495512 273.534799 
L 368.032349 276.290049 
L 368.569187 278.106584 
L 369.106025 279.180102 
L 369.508653 279.579241 
L 369.911281 279.675766 
L 370.31391 279.499642 
L 370.716538 279.073376 
L 371.253376 278.144176 
L 371.924423 276.439271 
L 372.729679 273.633096 
L 373.534936 270.008157 
L 374.474402 264.7106 
L 375.413868 258.163901 
L 376.353334 250.185619 
L 377.292799 240.479075 
L 378.232265 228.567437 
L 379.171731 213.659438 
L 379.976988 197.463287 
L 380.782244 176.463202 
L 381.453292 153.20897 
L 382.124339 121.859882 
L 382.929595 81.366355 
L 383.063805 79.684589 
L 383.198014 81.077312 
L 383.466433 91.517421 
L 384.808527 161.469285 
L 385.613784 189.411674 
L 386.553249 213.809144 
L 387.626925 235.29545 
L 388.7006 252.524096 
L 389.908485 268.546923 
L 391.250579 283.456084 
L 392.726883 297.340756 
L 394.337396 310.268504 
L 395.947909 321.411874 
L 397.558422 331.107182 
L 399.168935 339.555127 
L 400.779448 346.859922 
L 402.255752 352.574028 
L 403.597846 356.922678 
L 404.805731 360.087812 
L 405.745197 362.003181 
L 406.550453 363.217285 
L 407.2215 363.891679 
L 407.758338 364.186025 
L 408.295176 364.239714 
L 408.832013 364.027707 
L 409.368851 363.520215 
L 409.905689 362.681469 
L 410.442526 361.467972 
L 411.113573 359.340919 
L 411.78462 356.40566 
L 412.455668 352.469479 
L 413.126715 347.246263 
L 413.797762 340.276347 
L 414.468809 330.734634 
L 415.005647 320.13851 
L 415.542484 304.728568 
L 415.945113 286.533744 
L 416.213531 266.594454 
L 416.48195 223.546987 
L 416.496268 -1 
M 416.736051 -1 
L 416.750369 223.546987 
L 417.018788 266.594454 
L 417.421416 293.617437 
L 417.958254 313.258663 
L 418.629301 328.393067 
L 419.300348 338.61056 
L 420.105605 347.246263 
L 420.910861 353.348717 
L 421.716118 357.687521 
L 422.521374 360.704382 
L 423.192421 362.415129 
L 423.863468 363.520215 
L 424.400306 364.027707 
L 424.937144 364.239714 
L 425.473981 364.186025 
L 426.010819 363.891679 
L 426.681866 363.217285 
L 427.487123 362.003181 
L 428.426589 360.087812 
L 429.500264 357.310779 
L 430.708149 353.509987 
L 432.050243 348.512043 
L 433.526547 342.1143 
L 435.13706 334.054862 
L 436.747573 324.792337 
L 438.358086 314.161183 
L 439.834389 302.973317 
L 441.310693 290.047035 
L 442.652787 276.320921 
L 443.860672 261.786089 
L 445.068557 244.334331 
L 446.142232 225.211049 
L 447.081698 204.165106 
L 447.886955 181.008173 
L 448.558002 155.885636 
L 449.229049 122.58041 
L 450.034305 81.077312 
L 450.168515 79.684589 
L 450.302724 81.366355 
L 450.571143 91.95829 
L 451.779028 153.20897 
L 452.584284 180.398992 
L 453.389541 200.44106 
L 454.329007 218.290109 
L 455.268473 232.23395 
L 456.342148 244.875981 
L 457.415823 254.93409 
L 458.489499 262.973838 
L 459.563174 269.32325 
L 460.50264 273.633096 
L 461.307897 276.439271 
L 461.978944 278.144176 
L 462.515781 279.073376 
L 463.052619 279.587122 
L 463.455247 279.675192 
L 463.857876 279.481554 
L 464.260504 278.973271 
L 464.663132 278.106584 
L 465.19997 276.290049 
L 465.736807 273.534799 
L 466.273645 269.550848 
L 466.810483 263.911003 
L 467.34732 256.010645 
L 467.884158 245.116952 
L 468.689415 223.041722 
L 469.226252 210.408575 
L 469.494671 208.682608 
L 469.628881 209.39273 
L 469.897299 213.512707 
L 471.507812 247.567509 
L 472.04465 252.441002 
L 472.447278 254.300132 
L 472.715697 254.866707 
L 472.984116 254.984862 
L 473.252535 254.715898 
L 473.655163 253.691685 
L 474.192001 251.35186 
L 474.863048 247.120213 
L 475.668304 240.376826 
L 476.60777 230.326123 
L 477.547236 217.755718 
L 478.486702 202.172653 
L 479.426168 182.728641 
L 480.365634 158.41627 
L 481.841938 118.40164 
L 482.110357 115.807211 
L 482.244566 115.694694 
L 482.378776 116.390923 
L 482.647194 119.982665 
L 483.184032 132.973903 
L 484.794545 176.364522 
L 485.734011 195.618018 
L 486.807686 212.99001 
L 487.881362 226.795631 
L 488.955037 237.987868 
L 490.162922 248.196866 
L 491.370807 256.391692 
L 492.444482 262.249198 
L 493.518157 266.904633 
L 494.457623 270.047927 
L 495.26288 272.064635 
L 495.933927 273.264375 
L 496.604974 274.017295 
L 497.141812 274.288157 
L 497.54444 274.291571 
L 497.947068 274.118314 
L 498.483906 273.602647 
L 499.020744 272.747607 
L 499.691791 271.174918 
L 500.362838 269.00574 
L 501.168094 265.551278 
L 501.973351 261.080317 
L 502.912817 254.429565 
L 503.852283 246.021516 
L 504.791749 235.572583 
L 505.731215 222.72966 
L 506.80489 204.664778 
L 508.281194 174.920122 
L 508.952241 163.01711 
L 509.354869 158.657337 
L 509.623288 157.534553 
L 509.757497 157.569806 
L 509.891707 158.0035 
L 510.160125 159.996274 
L 510.562754 165.307445 
L 511.36801 180.388707 
L 512.978523 210.94084 
L 514.186408 229.240648 
L 515.394293 243.984234 
L 516.602178 256.04569 
L 517.944272 267.112443 
L 519.286366 276.339212 
L 520.76267 284.889071 
L 522.238973 292.157055 
L 523.849486 298.958984 
L 525.459999 304.841331 
L 527.204722 310.396663 
L 529.083654 315.625183 
L 531.096795 320.53733 
L 533.109936 324.877913 
L 535.257287 328.999276 
L 537.538847 332.910051 
L 539.954617 336.621367 
L 542.504596 340.145597 
L 545.322994 343.654496 
L 548.275601 346.971877 
L 551.496627 350.245615 
L 554.851862 353.338336 
L 558.475517 356.376241 
L 562.36759 359.347751 
L 566.528082 362.245457 
L 571.091202 365.146767 
L 575.922741 367.954442 
L 581.156909 370.73897 
L 586.793704 373.486553 
L 592.967338 376.244855 
L 599.677809 378.993139 
L 606.925117 381.715851 
L 614.709264 384.401676 
L 623.164457 387.083541 
L 632.424907 389.784088 
L 642.490614 392.483379 
L 653.361577 395.16628 
L 665.172006 397.850892 
L 678.05611 400.549381 
L 685.035 401.924147 
L 685.035 401.924147 
" clip-path="url(#pddac4655fb)" style="fill: none; stroke-dasharray: 14.8,6.4; stroke-dashoffset: 0; stroke: #ff0000; stroke-width: 4"/>
   </g>
   <g id="line2d_72">
    <path d="M 148.197319 385.650682 
L 150.881508 384.054966 
L 153.565696 382.193711 
L 160.678795 377.089477 
L 163.228774 375.656089 
L 166.4498 374.127445 
L 171.549758 371.711867 
L 174.233947 370.175805 
L 176.515507 368.614701 
L 178.797067 366.775372 
L 182.152303 363.726492 
L 185.641747 360.648609 
L 188.594355 358.375794 
L 192.218009 355.837614 
L 194.499569 354.501346 
L 196.781129 353.429303 
L 203.357391 350.578809 
L 204.833695 349.526842 
L 206.309998 348.201109 
L 208.18893 346.188803 
L 217.315171 335.906802 
L 219.462521 333.974657 
L 221.744081 332.210423 
L 223.891432 330.817528 
L 227.515087 328.82429 
L 229.930856 327.348181 
L 231.675579 326.017718 
L 233.68872 324.180242 
L 236.104489 321.660615 
L 237.849212 319.541808 
L 239.459725 317.230468 
L 241.607076 313.674165 
L 243.486008 310.691073 
L 244.693892 309.173775 
L 245.767568 308.150681 
L 246.975452 307.311164 
L 248.451756 306.575483 
L 254.222761 303.958197 
L 257.846416 302.183463 
L 259.0543 301.879116 
L 260.262185 301.80049 
L 262.677955 301.766552 
L 263.483211 301.485614 
L 264.288468 300.948603 
L 265.093724 300.126485 
L 266.03319 298.803118 
L 267.106866 296.865763 
L 268.851588 293.148784 
L 270.73052 289.260632 
L 271.938405 287.249655 
L 273.280499 285.486307 
L 275.42785 282.753737 
L 276.635734 280.745451 
L 277.977829 278.023349 
L 279.588342 274.207839 
L 282.004111 267.771645 
L 283.748834 263.348736 
L 284.822509 261.185762 
L 285.761975 259.78373 
L 286.701441 258.79334 
L 287.775116 258.02011 
L 288.848792 257.519971 
L 289.654048 257.353502 
L 290.325095 257.417636 
L 290.996142 257.704862 
L 291.801399 258.327188 
L 293.009284 259.608133 
L 294.351378 260.974137 
L 295.156634 261.479724 
L 295.693472 261.605426 
L 296.23031 261.530866 
L 296.767147 261.246739 
L 297.438194 260.611619 
L 298.243451 259.485303 
L 299.182917 257.709608 
L 300.256592 255.106165 
L 302.940781 247.604105 
L 304.417084 243.053984 
L 306.430226 236.643642 
L 307.235482 234.813509 
L 308.040739 233.569721 
L 309.114414 232.418202 
L 310.05388 231.295532 
L 310.859136 229.930882 
L 311.798602 227.824075 
L 312.872278 224.805411 
L 313.945953 221.029263 
L 315.288047 215.302256 
L 317.166979 207.284064 
L 318.106445 204.251829 
L 319.045911 201.965028 
L 320.790634 198.076398 
L 321.461681 195.895252 
L 322.266937 192.380833 
L 323.609031 186.122751 
L 324.01166 185.339428 
L 324.145869 185.32562 
L 324.280079 185.459029 
L 324.548497 186.21147 
L 324.951126 188.645244 
L 325.487963 194.23948 
L 326.29322 206.156097 
L 328.172152 235.38413 
L 329.111618 246.17316 
L 329.916874 252.940177 
L 330.587921 256.995167 
L 331.258968 259.7821 
L 331.795806 261.200166 
L 332.332644 261.969236 
L 332.735272 262.154646 
L 333.1379 262.029116 
L 333.540529 261.614892 
L 334.077366 260.65547 
L 334.748413 258.894366 
L 335.55367 256.081201 
L 336.358926 252.465207 
L 337.298392 247.137331 
L 338.372068 239.757399 
L 339.579952 229.83864 
L 340.653628 218.979358 
L 341.861513 204.112581 
L 343.606235 182.38992 
L 344.277282 176.748553 
L 344.67991 174.703788 
L 345.082539 173.732669 
L 345.350957 173.627552 
L 345.619376 173.874719 
L 346.022005 174.7036 
L 347.364099 177.926955 
L 347.766727 178.288243 
L 348.169355 178.278862 
L 348.706193 177.910568 
L 349.243031 177.581442 
L 349.645659 177.634087 
L 350.048287 178.042801 
L 350.585125 179.052949 
L 351.927219 181.8901 
L 352.598266 182.684353 
L 353.806151 183.748402 
L 354.208779 184.656973 
L 354.611407 186.316829 
L 355.014036 188.919851 
L 355.685083 195.158784 
L 356.892968 209.440918 
L 358.100852 226.148815 
L 359.577156 246.775954 
L 360.248203 253.001321 
L 360.650831 255.041183 
L 360.91925 255.557542 
L 361.05346 255.539981 
L 361.321878 254.9162 
L 361.590297 253.45723 
L 361.992926 249.569457 
L 362.395554 243.489749 
L 363.066601 228.875474 
L 363.603439 217.202637 
L 363.871857 214.528929 
L 364.006067 214.556992 
L 364.140276 215.561264 
L 364.408695 220.144366 
L 365.213952 242.214146 
L 365.884999 257.708478 
L 366.556046 268.029207 
L 367.092884 273.360525 
L 367.629721 276.784597 
L 368.166559 278.756264 
L 368.569187 279.465377 
L 368.837606 279.61857 
L 369.106025 279.536707 
L 369.374444 279.234119 
L 369.777072 278.3843 
L 370.31391 276.535233 
L 370.984957 273.177393 
L 371.656004 268.636266 
L 372.327051 262.580302 
L 373.132307 252.948845 
L 374.071773 238.500013 
L 376.084915 205.585417 
L 377.561218 188.395959 
L 379.171731 175.919916 
L 379.708569 173.776845 
L 380.245407 171.920077 
L 380.648035 169.792822 
L 381.319082 164.743385 
L 381.85592 161.331742 
L 381.990129 161.059605 
L 382.124339 161.138132 
L 382.392757 162.352748 
L 382.795386 166.143292 
L 383.600642 174.239133 
L 384.00327 176.665505 
L 384.405899 177.861272 
L 384.540108 177.953609 
L 384.674318 177.855522 
L 384.942736 176.986707 
L 385.345365 174.011523 
L 385.882202 167.704849 
L 386.284831 160.603428 
L 386.821668 146.906322 
L 387.492715 128.676148 
L 387.626925 127.077581 
L 387.761134 126.835884 
L 387.895344 128.05929 
L 388.163763 134.337739 
L 389.103228 162.760714 
L 390.176904 183.322422 
L 391.11637 218.448456 
L 391.921626 244.176664 
L 392.726883 262.049742 
L 393.666349 278.205589 
L 394.605815 290.904614 
L 395.947909 305.633439 
L 397.290003 318.508263 
L 398.766307 329.743676 
L 400.108401 338.507492 
L 401.584705 346.700768 
L 402.792589 352.186539 
L 404.000474 356.824765 
L 405.208359 360.454983 
L 406.147825 362.569305 
L 406.953081 363.829937 
L 407.624128 364.442916 
L 408.160966 364.621643 
L 408.563594 364.49485 
L 408.966223 364.074897 
L 409.50306 362.862932 
L 410.039898 360.624913 
L 410.979364 355.461133 
L 411.650411 350.113748 
L 411.91883 347.763125 
L 412.187249 345.779665 
L 412.455668 343.152853 
L 413.126715 335.391395 
L 414.334599 313.70758 
L 414.871437 295.309213 
L 415.005647 292.299781 
L 415.676694 235.487857 
L 416.347741 152.814378 
L 416.48195 113.62478 
L 416.61616 159.056359 
L 416.750369 94.258817 
L 417.018788 163.719893 
L 417.689835 239.215069 
L 418.226673 284.507124 
L 418.629301 299.50266 
L 419.031929 308.625641 
L 419.568767 323.872521 
L 420.910861 341.24526 
L 421.447699 347.378752 
L 422.789793 358.574104 
L 423.863468 363.135693 
L 424.266097 363.851669 
L 424.802934 364.321351 
L 425.339772 364.379706 
L 425.7424 364.225911 
L 426.279238 363.767542 
L 426.950285 362.829546 
L 427.755541 361.215093 
L 428.695007 358.725222 
L 429.634473 355.647608 
L 430.708149 351.428725 
L 431.916034 345.772515 
L 433.123918 338.889387 
L 434.331803 331.446408 
L 435.673897 321.517367 
L 437.150201 308.079868 
L 438.358086 295.487426 
L 439.431761 281.626608 
L 440.237018 268.402219 
L 441.042274 251.854202 
L 441.713321 233.454372 
L 442.652787 199.22415 
L 443.323834 178.036262 
L 443.726462 172.711119 
L 444.129091 167.796308 
L 444.531719 158.326191 
L 445.471185 130.434075 
L 445.605394 129.262793 
L 445.739604 129.434077 
L 446.008023 133.307681 
L 447.618536 169.448013 
L 448.155373 174.996788 
L 448.423792 176.448092 
L 448.692211 176.87208 
L 448.82642 176.744064 
L 449.094839 175.959479 
L 449.497468 173.844929 
L 450.034305 169.432583 
L 450.973771 160.536837 
L 451.107981 160.282055 
L 451.24219 160.42861 
L 451.510609 161.76322 
L 452.986912 172.400176 
L 453.65796 174.372876 
L 454.060588 175.830224 
L 454.597426 178.782527 
L 456.073729 188.649601 
L 457.415823 203.125352 
L 458.08687 213.498266 
L 460.368431 252.032031 
L 461.173687 261.649681 
L 461.978944 268.648303 
L 462.7842 273.698704 
L 463.455247 276.532929 
L 463.992085 277.849033 
L 464.394713 278.262482 
L 464.663132 278.242568 
L 464.931551 277.961143 
L 465.334179 276.994036 
L 465.736807 275.288423 
L 466.139436 272.711484 
L 466.676273 267.57469 
L 467.213111 259.911911 
L 467.749949 249.031741 
L 469.226252 214.244914 
L 469.360462 214.06305 
L 469.494671 214.843197 
L 469.76309 218.811107 
L 471.373603 250.619765 
L 471.776231 253.996084 
L 472.04465 255.156543 
L 472.313069 255.515365 
L 472.447278 255.412787 
L 472.715697 254.680599 
L 473.118326 252.37823 
L 473.655163 247.405939 
L 474.46042 237.102593 
L 476.876189 204.121912 
L 478.084074 190.672302 
L 478.620912 186.502627 
L 479.157749 184.050534 
L 479.560378 183.136409 
L 480.097215 182.542333 
L 481.036681 181.647793 
L 481.707728 180.598558 
L 482.647194 178.516982 
L 483.318241 177.289846 
L 483.72087 176.974433 
L 484.123498 176.979852 
L 485.197173 177.308723 
L 485.599802 177.038965 
L 486.00243 176.42811 
L 486.673477 174.821292 
L 487.612943 172.487286 
L 487.881362 172.171896 
L 488.149781 172.170558 
L 488.418199 172.559339 
L 488.686618 173.397532 
L 489.089247 175.564521 
L 489.626084 180.088972 
L 490.431341 189.437526 
L 492.84711 219.354866 
L 493.920786 229.743719 
L 495.26288 240.419963 
L 496.336555 247.444609 
L 497.276021 252.292563 
L 498.215487 256.033092 
L 499.020744 258.463638 
L 499.691791 259.8644 
L 500.228628 260.48557 
L 500.631257 260.618478 
L 501.033885 260.437294 
L 501.436513 259.915759 
L 501.839141 259.026962 
L 502.375979 257.22268 
L 502.912817 254.646548 
L 503.583864 250.226702 
L 504.254911 244.33671 
L 505.060168 235.179179 
L 505.999633 221.717904 
L 508.146984 189.089437 
L 508.683822 184.698737 
L 509.08645 183.212096 
L 509.354869 183.029576 
L 509.623288 183.391203 
L 510.025916 184.694547 
L 510.831173 188.604288 
L 511.904848 193.613153 
L 512.710104 196.416678 
L 513.917989 199.675873 
L 514.991665 202.73291 
L 515.931131 206.160203 
L 517.273225 212.122933 
L 519.152157 220.448467 
L 520.225832 224.209149 
L 521.433717 227.58901 
L 522.507392 229.975089 
L 523.446858 231.515563 
L 524.520533 232.780386 
L 525.594209 234.090494 
L 526.265256 235.278529 
L 527.070512 237.246679 
L 528.144188 240.644907 
L 531.096795 250.467335 
L 533.109936 256.214539 
L 534.183612 258.704873 
L 535.123078 260.356788 
L 535.928334 261.354786 
L 536.599381 261.876281 
L 537.270428 262.109298 
L 537.941475 262.07027 
L 538.612523 261.798698 
L 539.551989 261.139139 
L 541.833549 259.383685 
L 542.638805 259.088295 
L 543.444062 259.036874 
L 544.249318 259.199994 
L 545.188784 259.602134 
L 546.12825 260.217609 
L 547.067716 261.110638 
L 548.007182 262.366584 
L 548.946648 264.009378 
L 550.288742 266.880015 
L 556.193957 280.247766 
L 557.67026 282.891325 
L 559.146564 285.061752 
L 561.696543 288.642268 
L 562.904428 290.830599 
L 564.64915 294.546911 
L 566.393873 298.141185 
L 567.467548 299.902967 
L 568.407014 301.029922 
L 569.21227 301.678108 
L 570.017527 302.06738 
L 570.956993 302.270747 
L 572.567506 302.318673 
L 574.043809 302.453531 
L 575.385904 302.830457 
L 577.533254 303.736647 
L 580.351652 304.845862 
L 586.525286 307.125856 
L 587.598961 307.963124 
L 588.672636 309.127115 
L 589.746312 310.640794 
L 591.222615 313.173906 
L 594.577851 319.085467 
L 596.188364 321.38462 
L 597.933086 323.489025 
L 600.214646 325.87755 
L 602.227788 327.671678 
L 604.10672 329.044873 
L 605.985652 330.13841 
L 611.622447 333.192931 
L 613.904007 334.898679 
L 616.319777 336.981728 
L 618.869756 339.50122 
L 621.285525 342.174456 
L 624.372342 345.9883 
L 626.653902 348.657811 
L 628.264415 350.214397 
L 629.740719 351.343641 
L 631.351232 352.290971 
L 633.498583 353.277317 
L 638.73275 355.586818 
L 641.01431 356.901819 
L 643.698499 358.735058 
L 647.187944 361.383582 
L 650.40897 364.135848 
L 655.374718 368.400478 
L 657.924697 370.257268 
L 660.743095 372.009075 
L 664.09833 373.821805 
L 672.016686 377.946847 
L 675.371922 380.045963 
L 683.290278 385.184231 
L 685.035 386.116979 
L 685.035 386.116979 
" clip-path="url(#pddac4655fb)" style="fill: none; stroke: #0000ff; stroke-width: 1.5; stroke-linecap: square"/>
   </g>
   <g id="patch_3">
    <path d="M 148.197319 489.1525 
L 148.197319 37.512 
" style="fill: none; stroke: #000000; stroke-width: 0.8; stroke-linejoin: miter; stroke-linecap: square"/>
   </g>
   <g id="patch_4">
    <path d="M 685.035 489.1525 
L 685.035 37.512 
" style="fill: none; stroke: #000000; stroke-width: 0.8; stroke-linejoin: miter; stroke-linecap: square"/>
   </g>
   <g id="patch_5">
    <path d="M 148.197319 489.1525 
L 685.035 489.1525 
" style="fill: none; stroke: #000000; stroke-width: 0.8; stroke-linejoin: miter; stroke-linecap: square"/>
   </g>
   <g id="patch_6">
    <path d="M 148.197319 37.512 
L 685.035 37.512 
" style="fill: none; stroke: #000000; stroke-width: 0.8; stroke-linejoin: miter; stroke-linecap: square"/>
   </g>
   <g id="legend_1">
    <g id="patch_7">
     <path d="M 554.985 101.052156 
L 676.535 101.052156 
L 676.535 46.012 
L 554.985 46.012 
z
" style="fill: #ffffff; opacity: 0.8; stroke: #000000; stroke-linejoin: miter"/>
    </g>
    <g id="line2d_73">
     <path d="M 561.785 59.779344 
L 578.785 59.779344 
L 595.785 59.779344 
" style="fill: none; stroke-dasharray: 14.8,6.4; stroke-dashoffset: 0; stroke: #ff0000; stroke-width: 4"/>
    </g>
    <g id="text_18">
     <!-- $\rho_0$ -->
     <g transform="translate(609.385 65.729344) scale(0.17 -0.17)">
      <use xlink:href="#DejaVuSans-Oblique-3c1"/>
      <use xlink:href="#DejaVuSans-30" transform="translate(63.476562 -16.40625) scale(0.7)"/>
     </g>
    </g>
    <g id="line2d_74">
     <path d="M 561.785 84.766687 
L 578.785 84.766687 
L 595.785 84.766687 
" style="fill: none; stroke: #0000ff; stroke-width: 1.5; stroke-linecap: square"/>
    </g>
    <g id="text_19">
     <!-- $\it{U=3.0}$ -->
     <g transform="translate(609.385 90.716687) scale(0.17 -0.17)">
      <defs>
       <path id="DejaVuSans-Oblique-55" d="M 991 4666 
L 1625 4666 
L 1075 1831 
Q 1041 1641 1027 1517 
Q 1013 1394 1013 1300 
Q 1013 869 1253 645 
Q 1494 422 1959 422 
Q 2563 422 2898 753 
Q 3234 1084 3378 1831 
L 3928 4666 
L 4563 4666 
L 4000 1753 
Q 3816 809 3300 359 
Q 2784 -91 1888 -91 
Q 1188 -91 780 261 
Q 372 613 372 1216 
Q 372 1325 387 1461 
Q 403 1597 434 1753 
L 991 4666 
z
" transform="scale(0.015625)"/>
       <path id="DejaVuSans-3d" d="M 678 2906 
L 4684 2906 
L 4684 2381 
L 678 2381 
L 678 2906 
z
M 678 1631 
L 4684 1631 
L 4684 1100 
L 678 1100 
L 678 1631 
z
" transform="scale(0.015625)"/>
       <path id="DejaVuSans-2e" d="M 684 794 
L 1344 794 
L 1344 0 
L 684 0 
L 684 794 
z
" transform="scale(0.015625)"/>
      </defs>
      <use xlink:href="#DejaVuSans-Oblique-55" transform="translate(0 0.78125)"/>
      <use xlink:href="#DejaVuSans-3d" transform="translate(92.675781 0.78125)"/>
      <use xlink:href="#DejaVuSans-33" transform="translate(195.947266 0.78125)"/>
      <use xlink:href="#DejaVuSans-2e" transform="translate(259.570312 0.78125)"/>
      <use xlink:href="#DejaVuSans-30" transform="translate(291.357422 0.78125)"/>
     </g>
    </g>
   </g>
  </g>
 </g>
 <defs>
  <clipPath id="pddac4655fb">
   <rect x="148.197319" y="37.512" width="536.837681" height="451.6405"/>
  </clipPath>
 </defs>
</svg>
