<?xml version="1.0" encoding="utf-8" standalone="no"?>
<!DOCTYPE svg PUBLIC "-//W3C//DTD SVG 1.1//EN"
  "http://www.w3.org/Graphics/SVG/1.1/DTD/svg11.dtd">
<svg xmlns:xlink="http://www.w3.org/1999/xlink" width="720pt" height="576pt" viewBox="0 0 720 576" xmlns="http://www.w3.org/2000/svg" version="1.1">
 <metadata>
  <rdf:RDF xmlns:dc="http://purl.org/dc/elements/1.1/" xmlns:cc="http://creativecommons.org/ns#" xmlns:rdf="http://www.w3.org/1999/02/22-rdf-syntax-ns#">
   <cc:Work>
    <dc:type rdf:resource="http://purl.org/dc/dcmitype/StillImage"/>
    <dc:date>2023-04-12T18:16:29.064959</dc:date>
    <dc:format>image/svg+xml</dc:format>
    <dc:creator>
     <cc:Agent>
      <dc:title>Matplotlib v3.7.1, https://matplotlib.org/</dc:title>
     </cc:Agent>
    </dc:creator>
   </cc:Work>
  </rdf:RDF>
 </metadata>
 <defs>
  <style type="text/css">*{stroke-linejoin: round; stroke-linecap: butt}</style>
 </defs>
 <g id="figure_1">
  <g id="patch_1">
   <path d="M 0 576 
L 720 576 
L 720 0 
L 0 0 
z
" style="fill: #ffffff"/>
  </g>
  <g id="axes_1">
   <g id="patch_2">
    <path d="M 148.197319 489.1525 
L 685.035 489.1525 
L 685.035 37.512 
L 148.197319 37.512 
z
" style="fill: #ffffff"/>
   </g>
   <g id="matplotlib.axis_1">
    <g id="xtick_1">
     <g id="line2d_1">
      <path d="M 148.197319 489.1525 
L 148.197319 37.512 
" clip-path="url(#pd47404c59f)" style="fill: none; stroke: #b0b0b0; stroke-width: 0.8; stroke-linecap: square"/>
     </g>
     <g id="line2d_2">
      <defs>
       <path id="mf6d7230ed3" d="M 0 0 
L 0 3.5 
" style="stroke: #000000; stroke-width: 0.8"/>
      </defs>
      <g>
       <use xlink:href="#mf6d7230ed3" x="148.197319" y="489.1525" style="stroke: #000000; stroke-width: 0.8"/>
      </g>
     </g>
     <g id="text_1">
      <!-- −8 -->
      <g transform="translate(129.769585 515.148594) scale(0.25 -0.25)">
       <defs>
        <path id="DejaVuSans-2212" d="M 678 2272 
L 4684 2272 
L 4684 1741 
L 678 1741 
L 678 2272 
z
" transform="scale(0.015625)"/>
        <path id="DejaVuSans-38" d="M 2034 2216 
Q 1584 2216 1326 1975 
Q 1069 1734 1069 1313 
Q 1069 891 1326 650 
Q 1584 409 2034 409 
Q 2484 409 2743 651 
Q 3003 894 3003 1313 
Q 3003 1734 2745 1975 
Q 2488 2216 2034 2216 
z
M 1403 2484 
Q 997 2584 770 2862 
Q 544 3141 544 3541 
Q 544 4100 942 4425 
Q 1341 4750 2034 4750 
Q 2731 4750 3128 4425 
Q 3525 4100 3525 3541 
Q 3525 3141 3298 2862 
Q 3072 2584 2669 2484 
Q 3125 2378 3379 2068 
Q 3634 1759 3634 1313 
Q 3634 634 3220 271 
Q 2806 -91 2034 -91 
Q 1263 -91 848 271 
Q 434 634 434 1313 
Q 434 1759 690 2068 
Q 947 2378 1403 2484 
z
M 1172 3481 
Q 1172 3119 1398 2916 
Q 1625 2713 2034 2713 
Q 2441 2713 2670 2916 
Q 2900 3119 2900 3481 
Q 2900 3844 2670 4047 
Q 2441 4250 2034 4250 
Q 1625 4250 1398 4047 
Q 1172 3844 1172 3481 
z
" transform="scale(0.015625)"/>
       </defs>
       <use xlink:href="#DejaVuSans-2212"/>
       <use xlink:href="#DejaVuSans-38" x="83.789062"/>
      </g>
     </g>
    </g>
    <g id="xtick_2">
     <g id="line2d_3">
      <path d="M 215.302029 489.1525 
L 215.302029 37.512 
" clip-path="url(#pd47404c59f)" style="fill: none; stroke: #b0b0b0; stroke-width: 0.8; stroke-linecap: square"/>
     </g>
     <g id="line2d_4">
      <g>
       <use xlink:href="#mf6d7230ed3" x="215.302029" y="489.1525" style="stroke: #000000; stroke-width: 0.8"/>
      </g>
     </g>
     <g id="text_2">
      <!-- −6 -->
      <g transform="translate(196.874295 515.148594) scale(0.25 -0.25)">
       <defs>
        <path id="DejaVuSans-36" d="M 2113 2584 
Q 1688 2584 1439 2293 
Q 1191 2003 1191 1497 
Q 1191 994 1439 701 
Q 1688 409 2113 409 
Q 2538 409 2786 701 
Q 3034 994 3034 1497 
Q 3034 2003 2786 2293 
Q 2538 2584 2113 2584 
z
M 3366 4563 
L 3366 3988 
Q 3128 4100 2886 4159 
Q 2644 4219 2406 4219 
Q 1781 4219 1451 3797 
Q 1122 3375 1075 2522 
Q 1259 2794 1537 2939 
Q 1816 3084 2150 3084 
Q 2853 3084 3261 2657 
Q 3669 2231 3669 1497 
Q 3669 778 3244 343 
Q 2819 -91 2113 -91 
Q 1303 -91 875 529 
Q 447 1150 447 2328 
Q 447 3434 972 4092 
Q 1497 4750 2381 4750 
Q 2619 4750 2861 4703 
Q 3103 4656 3366 4563 
z
" transform="scale(0.015625)"/>
       </defs>
       <use xlink:href="#DejaVuSans-2212"/>
       <use xlink:href="#DejaVuSans-36" x="83.789062"/>
      </g>
     </g>
    </g>
    <g id="xtick_3">
     <g id="line2d_5">
      <path d="M 282.406739 489.1525 
L 282.406739 37.512 
" clip-path="url(#pd47404c59f)" style="fill: none; stroke: #b0b0b0; stroke-width: 0.8; stroke-linecap: square"/>
     </g>
     <g id="line2d_6">
      <g>
       <use xlink:href="#mf6d7230ed3" x="282.406739" y="489.1525" style="stroke: #000000; stroke-width: 0.8"/>
      </g>
     </g>
     <g id="text_3">
      <!-- −4 -->
      <g transform="translate(263.979005 515.148594) scale(0.25 -0.25)">
       <defs>
        <path id="DejaVuSans-34" d="M 2419 4116 
L 825 1625 
L 2419 1625 
L 2419 4116 
z
M 2253 4666 
L 3047 4666 
L 3047 1625 
L 3713 1625 
L 3713 1100 
L 3047 1100 
L 3047 0 
L 2419 0 
L 2419 1100 
L 313 1100 
L 313 1709 
L 2253 4666 
z
" transform="scale(0.015625)"/>
       </defs>
       <use xlink:href="#DejaVuSans-2212"/>
       <use xlink:href="#DejaVuSans-34" x="83.789062"/>
      </g>
     </g>
    </g>
    <g id="xtick_4">
     <g id="line2d_7">
      <path d="M 349.51145 489.1525 
L 349.51145 37.512 
" clip-path="url(#pd47404c59f)" style="fill: none; stroke: #b0b0b0; stroke-width: 0.8; stroke-linecap: square"/>
     </g>
     <g id="line2d_8">
      <g>
       <use xlink:href="#mf6d7230ed3" x="349.51145" y="489.1525" style="stroke: #000000; stroke-width: 0.8"/>
      </g>
     </g>
     <g id="text_4">
      <!-- −2 -->
      <g transform="translate(331.083715 515.148594) scale(0.25 -0.25)">
       <defs>
        <path id="DejaVuSans-32" d="M 1228 531 
L 3431 531 
L 3431 0 
L 469 0 
L 469 531 
Q 828 903 1448 1529 
Q 2069 2156 2228 2338 
Q 2531 2678 2651 2914 
Q 2772 3150 2772 3378 
Q 2772 3750 2511 3984 
Q 2250 4219 1831 4219 
Q 1534 4219 1204 4116 
Q 875 4013 500 3803 
L 500 4441 
Q 881 4594 1212 4672 
Q 1544 4750 1819 4750 
Q 2544 4750 2975 4387 
Q 3406 4025 3406 3419 
Q 3406 3131 3298 2873 
Q 3191 2616 2906 2266 
Q 2828 2175 2409 1742 
Q 1991 1309 1228 531 
z
" transform="scale(0.015625)"/>
       </defs>
       <use xlink:href="#DejaVuSans-2212"/>
       <use xlink:href="#DejaVuSans-32" x="83.789062"/>
      </g>
     </g>
    </g>
    <g id="xtick_5">
     <g id="line2d_9">
      <path d="M 416.61616 489.1525 
L 416.61616 37.512 
" clip-path="url(#pd47404c59f)" style="fill: none; stroke: #b0b0b0; stroke-width: 0.8; stroke-linecap: square"/>
     </g>
     <g id="line2d_10">
      <g>
       <use xlink:href="#mf6d7230ed3" x="416.61616" y="489.1525" style="stroke: #000000; stroke-width: 0.8"/>
      </g>
     </g>
     <g id="text_5">
      <!-- 0 -->
      <g transform="translate(408.663035 515.148594) scale(0.25 -0.25)">
       <defs>
        <path id="DejaVuSans-30" d="M 2034 4250 
Q 1547 4250 1301 3770 
Q 1056 3291 1056 2328 
Q 1056 1369 1301 889 
Q 1547 409 2034 409 
Q 2525 409 2770 889 
Q 3016 1369 3016 2328 
Q 3016 3291 2770 3770 
Q 2525 4250 2034 4250 
z
M 2034 4750 
Q 2819 4750 3233 4129 
Q 3647 3509 3647 2328 
Q 3647 1150 3233 529 
Q 2819 -91 2034 -91 
Q 1250 -91 836 529 
Q 422 1150 422 2328 
Q 422 3509 836 4129 
Q 1250 4750 2034 4750 
z
" transform="scale(0.015625)"/>
       </defs>
       <use xlink:href="#DejaVuSans-30"/>
      </g>
     </g>
    </g>
    <g id="xtick_6">
     <g id="line2d_11">
      <path d="M 483.72087 489.1525 
L 483.72087 37.512 
" clip-path="url(#pd47404c59f)" style="fill: none; stroke: #b0b0b0; stroke-width: 0.8; stroke-linecap: square"/>
     </g>
     <g id="line2d_12">
      <g>
       <use xlink:href="#mf6d7230ed3" x="483.72087" y="489.1525" style="stroke: #000000; stroke-width: 0.8"/>
      </g>
     </g>
     <g id="text_6">
      <!-- 2 -->
      <g transform="translate(475.767745 515.148594) scale(0.25 -0.25)">
       <use xlink:href="#DejaVuSans-32"/>
      </g>
     </g>
    </g>
    <g id="xtick_7">
     <g id="line2d_13">
      <path d="M 550.82558 489.1525 
L 550.82558 37.512 
" clip-path="url(#pd47404c59f)" style="fill: none; stroke: #b0b0b0; stroke-width: 0.8; stroke-linecap: square"/>
     </g>
     <g id="line2d_14">
      <g>
       <use xlink:href="#mf6d7230ed3" x="550.82558" y="489.1525" style="stroke: #000000; stroke-width: 0.8"/>
      </g>
     </g>
     <g id="text_7">
      <!-- 4 -->
      <g transform="translate(542.872455 515.148594) scale(0.25 -0.25)">
       <use xlink:href="#DejaVuSans-34"/>
      </g>
     </g>
    </g>
    <g id="xtick_8">
     <g id="line2d_15">
      <path d="M 617.93029 489.1525 
L 617.93029 37.512 
" clip-path="url(#pd47404c59f)" style="fill: none; stroke: #b0b0b0; stroke-width: 0.8; stroke-linecap: square"/>
     </g>
     <g id="line2d_16">
      <g>
       <use xlink:href="#mf6d7230ed3" x="617.93029" y="489.1525" style="stroke: #000000; stroke-width: 0.8"/>
      </g>
     </g>
     <g id="text_8">
      <!-- 6 -->
      <g transform="translate(609.977165 515.148594) scale(0.25 -0.25)">
       <use xlink:href="#DejaVuSans-36"/>
      </g>
     </g>
    </g>
    <g id="xtick_9">
     <g id="line2d_17">
      <path d="M 685.035 489.1525 
L 685.035 37.512 
" clip-path="url(#pd47404c59f)" style="fill: none; stroke: #b0b0b0; stroke-width: 0.8; stroke-linecap: square"/>
     </g>
     <g id="line2d_18">
      <g>
       <use xlink:href="#mf6d7230ed3" x="685.035" y="489.1525" style="stroke: #000000; stroke-width: 0.8"/>
      </g>
     </g>
     <g id="text_9">
      <!-- 8 -->
      <g transform="translate(677.081875 515.148594) scale(0.25 -0.25)">
       <use xlink:href="#DejaVuSans-38"/>
      </g>
     </g>
    </g>
    <g id="text_10">
     <!-- $\omega$ [-] -->
     <g transform="translate(391.74116 541.351719) scale(0.25 -0.25)">
      <defs>
       <path id="DejaVuSans-Oblique-3c9" d="M 1369 -91 
Q 72 -91 434 1766 
Q 575 2500 1256 3500 
L 1875 3500 
Q 1231 2500 1088 1750 
Q 819 397 1519 397 
Q 2166 397 2478 2078 
L 3009 2078 
Q 2669 388 3316 397 
Q 4013 403 4275 1750 
Q 4419 2500 4169 3500 
L 4788 3500 
Q 5075 2500 4934 1766 
Q 4578 -94 3278 -91 
Q 2428 -88 2503 844 
Q 2194 -91 1369 -91 
z
" transform="scale(0.015625)"/>
       <path id="Calibri-20" transform="scale(0.015625)"/>
       <path id="Calibri-5b" d="M 1684 -813 
Q 1684 -916 1661 -958 
Q 1638 -1000 1594 -1000 
L 794 -1000 
Q 756 -1000 722 -989 
Q 688 -978 659 -953 
Q 631 -928 614 -886 
Q 597 -844 597 -781 
L 597 4153 
Q 597 4213 614 4255 
Q 631 4297 659 4323 
Q 688 4350 722 4361 
Q 756 4372 794 4372 
L 1594 4372 
Q 1613 4372 1630 4362 
Q 1647 4353 1659 4328 
Q 1672 4303 1678 4267 
Q 1684 4231 1684 4178 
Q 1684 4078 1661 4034 
Q 1638 3991 1594 3991 
L 1084 3991 
L 1084 -622 
L 1594 -622 
Q 1613 -622 1630 -631 
Q 1647 -641 1659 -664 
Q 1672 -688 1678 -723 
Q 1684 -759 1684 -813 
z
" transform="scale(0.015625)"/>
       <path id="Calibri-2d" d="M 1744 1578 
Q 1744 1456 1716 1409 
Q 1688 1363 1634 1363 
L 328 1363 
Q 272 1363 244 1411 
Q 216 1459 216 1578 
Q 216 1697 244 1744 
Q 272 1791 328 1791 
L 1634 1791 
Q 1659 1791 1679 1781 
Q 1700 1772 1714 1745 
Q 1728 1719 1736 1678 
Q 1744 1638 1744 1578 
z
" transform="scale(0.015625)"/>
       <path id="Calibri-5d" d="M 1369 -781 
Q 1369 -844 1351 -886 
Q 1334 -928 1306 -953 
Q 1278 -978 1242 -989 
Q 1206 -1000 1169 -1000 
L 372 -1000 
Q 328 -1000 304 -958 
Q 281 -916 281 -813 
Q 281 -759 286 -723 
Q 291 -688 303 -664 
Q 316 -641 333 -631 
Q 350 -622 372 -622 
L 881 -622 
L 881 3991 
L 372 3991 
Q 328 3991 304 4034 
Q 281 4078 281 4178 
Q 281 4231 286 4267 
Q 291 4303 303 4328 
Q 316 4353 333 4362 
Q 350 4372 372 4372 
L 1169 4372 
Q 1206 4372 1242 4361 
Q 1278 4350 1306 4323 
Q 1334 4297 1351 4255 
Q 1369 4213 1369 4153 
L 1369 -781 
z
" transform="scale(0.015625)"/>
      </defs>
      <use xlink:href="#DejaVuSans-Oblique-3c9" transform="translate(0 0.6875)"/>
      <use xlink:href="#Calibri-20" transform="translate(83.740234 0.6875)"/>
      <use xlink:href="#Calibri-5b" transform="translate(106.347656 0.6875)"/>
      <use xlink:href="#Calibri-2d" transform="translate(137.011719 0.6875)"/>
      <use xlink:href="#Calibri-5d" transform="translate(167.626953 0.6875)"/>
     </g>
    </g>
   </g>
   <g id="matplotlib.axis_2">
    <g id="ytick_1">
     <g id="line2d_19">
      <path d="M 148.197319 489.1525 
L 685.035 489.1525 
" clip-path="url(#pd47404c59f)" style="fill: none; stroke: #b0b0b0; stroke-width: 0.8; stroke-linecap: square"/>
     </g>
     <g id="line2d_20">
      <defs>
       <path id="m6faaf749c1" d="M 0 0 
L -3.5 0 
" style="stroke: #000000; stroke-width: 0.8"/>
      </defs>
      <g>
       <use xlink:href="#m6faaf749c1" x="148.197319" y="489.1525" style="stroke: #000000; stroke-width: 0.8"/>
      </g>
     </g>
     <g id="text_11">
      <!-- $\mathdefault{10^{-4}}$ -->
      <g transform="translate(82.447319 498.650547) scale(0.25 -0.25)">
       <defs>
        <path id="DejaVuSans-31" d="M 794 531 
L 1825 531 
L 1825 4091 
L 703 3866 
L 703 4441 
L 1819 4666 
L 2450 4666 
L 2450 531 
L 3481 531 
L 3481 0 
L 794 0 
L 794 531 
z
" transform="scale(0.015625)"/>
       </defs>
       <use xlink:href="#DejaVuSans-31" transform="translate(0 0.684375)"/>
       <use xlink:href="#DejaVuSans-30" transform="translate(63.623047 0.684375)"/>
       <use xlink:href="#DejaVuSans-2212" transform="translate(128.203125 38.965625) scale(0.7)"/>
       <use xlink:href="#DejaVuSans-34" transform="translate(186.855469 38.965625) scale(0.7)"/>
      </g>
     </g>
    </g>
    <g id="ytick_2">
     <g id="line2d_21">
      <path d="M 148.197319 398.8244 
L 685.035 398.8244 
" clip-path="url(#pd47404c59f)" style="fill: none; stroke: #b0b0b0; stroke-width: 0.8; stroke-linecap: square"/>
     </g>
     <g id="line2d_22">
      <g>
       <use xlink:href="#m6faaf749c1" x="148.197319" y="398.8244" style="stroke: #000000; stroke-width: 0.8"/>
      </g>
     </g>
     <g id="text_12">
      <!-- $\mathdefault{10^{-3}}$ -->
      <g transform="translate(82.447319 408.322447) scale(0.25 -0.25)">
       <defs>
        <path id="DejaVuSans-33" d="M 2597 2516 
Q 3050 2419 3304 2112 
Q 3559 1806 3559 1356 
Q 3559 666 3084 287 
Q 2609 -91 1734 -91 
Q 1441 -91 1130 -33 
Q 819 25 488 141 
L 488 750 
Q 750 597 1062 519 
Q 1375 441 1716 441 
Q 2309 441 2620 675 
Q 2931 909 2931 1356 
Q 2931 1769 2642 2001 
Q 2353 2234 1838 2234 
L 1294 2234 
L 1294 2753 
L 1863 2753 
Q 2328 2753 2575 2939 
Q 2822 3125 2822 3475 
Q 2822 3834 2567 4026 
Q 2313 4219 1838 4219 
Q 1578 4219 1281 4162 
Q 984 4106 628 3988 
L 628 4550 
Q 988 4650 1302 4700 
Q 1616 4750 1894 4750 
Q 2613 4750 3031 4423 
Q 3450 4097 3450 3541 
Q 3450 3153 3228 2886 
Q 3006 2619 2597 2516 
z
" transform="scale(0.015625)"/>
       </defs>
       <use xlink:href="#DejaVuSans-31" transform="translate(0 0.765625)"/>
       <use xlink:href="#DejaVuSans-30" transform="translate(63.623047 0.765625)"/>
       <use xlink:href="#DejaVuSans-2212" transform="translate(128.203125 39.046875) scale(0.7)"/>
       <use xlink:href="#DejaVuSans-33" transform="translate(186.855469 39.046875) scale(0.7)"/>
      </g>
     </g>
    </g>
    <g id="ytick_3">
     <g id="line2d_23">
      <path d="M 148.197319 308.4963 
L 685.035 308.4963 
" clip-path="url(#pd47404c59f)" style="fill: none; stroke: #b0b0b0; stroke-width: 0.8; stroke-linecap: square"/>
     </g>
     <g id="line2d_24">
      <g>
       <use xlink:href="#m6faaf749c1" x="148.197319" y="308.4963" style="stroke: #000000; stroke-width: 0.8"/>
      </g>
     </g>
     <g id="text_13">
      <!-- $\mathdefault{10^{-2}}$ -->
      <g transform="translate(82.447319 317.994347) scale(0.25 -0.25)">
       <use xlink:href="#DejaVuSans-31" transform="translate(0 0.765625)"/>
       <use xlink:href="#DejaVuSans-30" transform="translate(63.623047 0.765625)"/>
       <use xlink:href="#DejaVuSans-2212" transform="translate(128.203125 39.046875) scale(0.7)"/>
       <use xlink:href="#DejaVuSans-32" transform="translate(186.855469 39.046875) scale(0.7)"/>
      </g>
     </g>
    </g>
    <g id="ytick_4">
     <g id="line2d_25">
      <path d="M 148.197319 218.1682 
L 685.035 218.1682 
" clip-path="url(#pd47404c59f)" style="fill: none; stroke: #b0b0b0; stroke-width: 0.8; stroke-linecap: square"/>
     </g>
     <g id="line2d_26">
      <g>
       <use xlink:href="#m6faaf749c1" x="148.197319" y="218.1682" style="stroke: #000000; stroke-width: 0.8"/>
      </g>
     </g>
     <g id="text_14">
      <!-- $\mathdefault{10^{-1}}$ -->
      <g transform="translate(82.447319 227.666247) scale(0.25 -0.25)">
       <use xlink:href="#DejaVuSans-31" transform="translate(0 0.684375)"/>
       <use xlink:href="#DejaVuSans-30" transform="translate(63.623047 0.684375)"/>
       <use xlink:href="#DejaVuSans-2212" transform="translate(128.203125 38.965625) scale(0.7)"/>
       <use xlink:href="#DejaVuSans-31" transform="translate(186.855469 38.965625) scale(0.7)"/>
      </g>
     </g>
    </g>
    <g id="ytick_5">
     <g id="line2d_27">
      <path d="M 148.197319 127.8401 
L 685.035 127.8401 
" clip-path="url(#pd47404c59f)" style="fill: none; stroke: #b0b0b0; stroke-width: 0.8; stroke-linecap: square"/>
     </g>
     <g id="line2d_28">
      <g>
       <use xlink:href="#m6faaf749c1" x="148.197319" y="127.8401" style="stroke: #000000; stroke-width: 0.8"/>
      </g>
     </g>
     <g id="text_15">
      <!-- $\mathdefault{10^{0}}$ -->
      <g transform="translate(97.197319 137.338147) scale(0.25 -0.25)">
       <use xlink:href="#DejaVuSans-31" transform="translate(0 0.765625)"/>
       <use xlink:href="#DejaVuSans-30" transform="translate(63.623047 0.765625)"/>
       <use xlink:href="#DejaVuSans-30" transform="translate(128.203125 39.046875) scale(0.7)"/>
      </g>
     </g>
    </g>
    <g id="ytick_6">
     <g id="line2d_29">
      <path d="M 148.197319 37.512 
L 685.035 37.512 
" clip-path="url(#pd47404c59f)" style="fill: none; stroke: #b0b0b0; stroke-width: 0.8; stroke-linecap: square"/>
     </g>
     <g id="line2d_30">
      <g>
       <use xlink:href="#m6faaf749c1" x="148.197319" y="37.512" style="stroke: #000000; stroke-width: 0.8"/>
      </g>
     </g>
     <g id="text_16">
      <!-- $\mathdefault{10^{1}}$ -->
      <g transform="translate(97.197319 47.010047) scale(0.25 -0.25)">
       <use xlink:href="#DejaVuSans-31" transform="translate(0 0.684375)"/>
       <use xlink:href="#DejaVuSans-30" transform="translate(63.623047 0.684375)"/>
       <use xlink:href="#DejaVuSans-31" transform="translate(128.203125 38.965625) scale(0.7)"/>
      </g>
     </g>
    </g>
    <g id="ytick_7">
     <g id="line2d_31">
      <defs>
       <path id="m8b4c12a107" d="M 0 0 
L -2 0 
" style="stroke: #000000; stroke-width: 0.6"/>
      </defs>
      <g>
       <use xlink:href="#m8b4c12a107" x="148.197319" y="461.961032" style="stroke: #000000; stroke-width: 0.6"/>
      </g>
     </g>
    </g>
    <g id="ytick_8">
     <g id="line2d_32">
      <g>
       <use xlink:href="#m8b4c12a107" x="148.197319" y="446.055044" style="stroke: #000000; stroke-width: 0.6"/>
      </g>
     </g>
    </g>
    <g id="ytick_9">
     <g id="line2d_33">
      <g>
       <use xlink:href="#m8b4c12a107" x="148.197319" y="434.769565" style="stroke: #000000; stroke-width: 0.6"/>
      </g>
     </g>
    </g>
    <g id="ytick_10">
     <g id="line2d_34">
      <g>
       <use xlink:href="#m8b4c12a107" x="148.197319" y="426.015868" style="stroke: #000000; stroke-width: 0.6"/>
      </g>
     </g>
    </g>
    <g id="ytick_11">
     <g id="line2d_35">
      <g>
       <use xlink:href="#m8b4c12a107" x="148.197319" y="418.863576" style="stroke: #000000; stroke-width: 0.6"/>
      </g>
     </g>
    </g>
    <g id="ytick_12">
     <g id="line2d_36">
      <g>
       <use xlink:href="#m8b4c12a107" x="148.197319" y="412.8164" style="stroke: #000000; stroke-width: 0.6"/>
      </g>
     </g>
    </g>
    <g id="ytick_13">
     <g id="line2d_37">
      <g>
       <use xlink:href="#m8b4c12a107" x="148.197319" y="407.578097" style="stroke: #000000; stroke-width: 0.6"/>
      </g>
     </g>
    </g>
    <g id="ytick_14">
     <g id="line2d_38">
      <g>
       <use xlink:href="#m8b4c12a107" x="148.197319" y="402.957587" style="stroke: #000000; stroke-width: 0.6"/>
      </g>
     </g>
    </g>
    <g id="ytick_15">
     <g id="line2d_39">
      <g>
       <use xlink:href="#m8b4c12a107" x="148.197319" y="371.632932" style="stroke: #000000; stroke-width: 0.6"/>
      </g>
     </g>
    </g>
    <g id="ytick_16">
     <g id="line2d_40">
      <g>
       <use xlink:href="#m8b4c12a107" x="148.197319" y="355.726944" style="stroke: #000000; stroke-width: 0.6"/>
      </g>
     </g>
    </g>
    <g id="ytick_17">
     <g id="line2d_41">
      <g>
       <use xlink:href="#m8b4c12a107" x="148.197319" y="344.441465" style="stroke: #000000; stroke-width: 0.6"/>
      </g>
     </g>
    </g>
    <g id="ytick_18">
     <g id="line2d_42">
      <g>
       <use xlink:href="#m8b4c12a107" x="148.197319" y="335.687768" style="stroke: #000000; stroke-width: 0.6"/>
      </g>
     </g>
    </g>
    <g id="ytick_19">
     <g id="line2d_43">
      <g>
       <use xlink:href="#m8b4c12a107" x="148.197319" y="328.535476" style="stroke: #000000; stroke-width: 0.6"/>
      </g>
     </g>
    </g>
    <g id="ytick_20">
     <g id="line2d_44">
      <g>
       <use xlink:href="#m8b4c12a107" x="148.197319" y="322.4883" style="stroke: #000000; stroke-width: 0.6"/>
      </g>
     </g>
    </g>
    <g id="ytick_21">
     <g id="line2d_45">
      <g>
       <use xlink:href="#m8b4c12a107" x="148.197319" y="317.249997" style="stroke: #000000; stroke-width: 0.6"/>
      </g>
     </g>
    </g>
    <g id="ytick_22">
     <g id="line2d_46">
      <g>
       <use xlink:href="#m8b4c12a107" x="148.197319" y="312.629487" style="stroke: #000000; stroke-width: 0.6"/>
      </g>
     </g>
    </g>
    <g id="ytick_23">
     <g id="line2d_47">
      <g>
       <use xlink:href="#m8b4c12a107" x="148.197319" y="281.304832" style="stroke: #000000; stroke-width: 0.6"/>
      </g>
     </g>
    </g>
    <g id="ytick_24">
     <g id="line2d_48">
      <g>
       <use xlink:href="#m8b4c12a107" x="148.197319" y="265.398844" style="stroke: #000000; stroke-width: 0.6"/>
      </g>
     </g>
    </g>
    <g id="ytick_25">
     <g id="line2d_49">
      <g>
       <use xlink:href="#m8b4c12a107" x="148.197319" y="254.113365" style="stroke: #000000; stroke-width: 0.6"/>
      </g>
     </g>
    </g>
    <g id="ytick_26">
     <g id="line2d_50">
      <g>
       <use xlink:href="#m8b4c12a107" x="148.197319" y="245.359668" style="stroke: #000000; stroke-width: 0.6"/>
      </g>
     </g>
    </g>
    <g id="ytick_27">
     <g id="line2d_51">
      <g>
       <use xlink:href="#m8b4c12a107" x="148.197319" y="238.207376" style="stroke: #000000; stroke-width: 0.6"/>
      </g>
     </g>
    </g>
    <g id="ytick_28">
     <g id="line2d_52">
      <g>
       <use xlink:href="#m8b4c12a107" x="148.197319" y="232.1602" style="stroke: #000000; stroke-width: 0.6"/>
      </g>
     </g>
    </g>
    <g id="ytick_29">
     <g id="line2d_53">
      <g>
       <use xlink:href="#m8b4c12a107" x="148.197319" y="226.921897" style="stroke: #000000; stroke-width: 0.6"/>
      </g>
     </g>
    </g>
    <g id="ytick_30">
     <g id="line2d_54">
      <g>
       <use xlink:href="#m8b4c12a107" x="148.197319" y="222.301387" style="stroke: #000000; stroke-width: 0.6"/>
      </g>
     </g>
    </g>
    <g id="ytick_31">
     <g id="line2d_55">
      <g>
       <use xlink:href="#m8b4c12a107" x="148.197319" y="190.976732" style="stroke: #000000; stroke-width: 0.6"/>
      </g>
     </g>
    </g>
    <g id="ytick_32">
     <g id="line2d_56">
      <g>
       <use xlink:href="#m8b4c12a107" x="148.197319" y="175.070744" style="stroke: #000000; stroke-width: 0.6"/>
      </g>
     </g>
    </g>
    <g id="ytick_33">
     <g id="line2d_57">
      <g>
       <use xlink:href="#m8b4c12a107" x="148.197319" y="163.785265" style="stroke: #000000; stroke-width: 0.6"/>
      </g>
     </g>
    </g>
    <g id="ytick_34">
     <g id="line2d_58">
      <g>
       <use xlink:href="#m8b4c12a107" x="148.197319" y="155.031568" style="stroke: #000000; stroke-width: 0.6"/>
      </g>
     </g>
    </g>
    <g id="ytick_35">
     <g id="line2d_59">
      <g>
       <use xlink:href="#m8b4c12a107" x="148.197319" y="147.879276" style="stroke: #000000; stroke-width: 0.6"/>
      </g>
     </g>
    </g>
    <g id="ytick_36">
     <g id="line2d_60">
      <g>
       <use xlink:href="#m8b4c12a107" x="148.197319" y="141.8321" style="stroke: #000000; stroke-width: 0.6"/>
      </g>
     </g>
    </g>
    <g id="ytick_37">
     <g id="line2d_61">
      <g>
       <use xlink:href="#m8b4c12a107" x="148.197319" y="136.593797" style="stroke: #000000; stroke-width: 0.6"/>
      </g>
     </g>
    </g>
    <g id="ytick_38">
     <g id="line2d_62">
      <g>
       <use xlink:href="#m8b4c12a107" x="148.197319" y="131.973287" style="stroke: #000000; stroke-width: 0.6"/>
      </g>
     </g>
    </g>
    <g id="ytick_39">
     <g id="line2d_63">
      <g>
       <use xlink:href="#m8b4c12a107" x="148.197319" y="100.648632" style="stroke: #000000; stroke-width: 0.6"/>
      </g>
     </g>
    </g>
    <g id="ytick_40">
     <g id="line2d_64">
      <g>
       <use xlink:href="#m8b4c12a107" x="148.197319" y="84.742644" style="stroke: #000000; stroke-width: 0.6"/>
      </g>
     </g>
    </g>
    <g id="ytick_41">
     <g id="line2d_65">
      <g>
       <use xlink:href="#m8b4c12a107" x="148.197319" y="73.457165" style="stroke: #000000; stroke-width: 0.6"/>
      </g>
     </g>
    </g>
    <g id="ytick_42">
     <g id="line2d_66">
      <g>
       <use xlink:href="#m8b4c12a107" x="148.197319" y="64.703468" style="stroke: #000000; stroke-width: 0.6"/>
      </g>
     </g>
    </g>
    <g id="ytick_43">
     <g id="line2d_67">
      <g>
       <use xlink:href="#m8b4c12a107" x="148.197319" y="57.551176" style="stroke: #000000; stroke-width: 0.6"/>
      </g>
     </g>
    </g>
    <g id="ytick_44">
     <g id="line2d_68">
      <g>
       <use xlink:href="#m8b4c12a107" x="148.197319" y="51.504" style="stroke: #000000; stroke-width: 0.6"/>
      </g>
     </g>
    </g>
    <g id="ytick_45">
     <g id="line2d_69">
      <g>
       <use xlink:href="#m8b4c12a107" x="148.197319" y="46.265697" style="stroke: #000000; stroke-width: 0.6"/>
      </g>
     </g>
    </g>
    <g id="ytick_46">
     <g id="line2d_70">
      <g>
       <use xlink:href="#m8b4c12a107" x="148.197319" y="41.645187" style="stroke: #000000; stroke-width: 0.6"/>
      </g>
     </g>
    </g>
    <g id="text_17">
     <!-- $\rho$($\omega$) -->
     <g transform="translate(26.447319 258.08225) scale(0.25 -0.25)">
      <defs>
       <path id="DejaVuSans-Oblique-3c1" d="M 1203 2875 
Q 1453 3194 1981 3475 
Q 2188 3584 2756 3584 
Q 3394 3584 3694 3078 
Q 3994 2572 3834 1747 
Q 3672 922 3175 415 
Q 2678 -91 2041 -91 
Q 1656 -91 1409 63 
Q 1163 213 1044 525 
L 681 -1331 
L 103 -1331 
L 697 1716 
Q 838 2438 1203 2875 
z
M 3238 1747 
Q 3359 2381 3169 2744 
Q 2978 3103 2522 3103 
Q 2066 3103 1734 2744 
Q 1403 2381 1281 1747 
Q 1156 1113 1347 750 
Q 1538 391 1994 391 
Q 2450 391 2781 750 
Q 3113 1113 3238 1747 
z
" transform="scale(0.015625)"/>
       <path id="Calibri-28" d="M 1547 4306 
Q 1250 3678 1104 3017 
Q 959 2356 959 1688 
Q 959 1016 1107 356 
Q 1256 -303 1541 -938 
Q 1556 -975 1557 -1001 
Q 1559 -1028 1537 -1045 
Q 1516 -1063 1470 -1070 
Q 1425 -1078 1347 -1078 
Q 1291 -1078 1250 -1075 
Q 1209 -1072 1179 -1062 
Q 1150 -1053 1131 -1040 
Q 1113 -1028 1103 -1013 
Q 934 -694 806 -367 
Q 678 -41 590 296 
Q 503 634 459 979 
Q 416 1325 416 1678 
Q 416 2031 464 2375 
Q 513 2719 602 3058 
Q 691 3397 819 3725 
Q 947 4053 1106 4375 
Q 1109 4388 1123 4397 
Q 1138 4406 1163 4415 
Q 1188 4425 1231 4429 
Q 1275 4434 1344 4434 
Q 1416 4434 1459 4425 
Q 1503 4416 1528 4400 
Q 1553 4384 1556 4359 
Q 1559 4334 1547 4306 
z
" transform="scale(0.015625)"/>
       <path id="Calibri-29" d="M 1522 1678 
Q 1522 1325 1478 979 
Q 1434 634 1346 296 
Q 1259 -41 1132 -367 
Q 1006 -694 838 -1013 
Q 828 -1028 809 -1040 
Q 791 -1053 761 -1062 
Q 731 -1072 690 -1075 
Q 650 -1078 594 -1078 
Q 513 -1078 467 -1070 
Q 422 -1063 401 -1045 
Q 381 -1028 382 -1001 
Q 384 -975 400 -938 
Q 688 -306 834 355 
Q 981 1016 981 1688 
Q 981 2356 834 3017 
Q 688 3678 394 4306 
Q 381 4334 384 4359 
Q 388 4384 413 4400 
Q 438 4416 481 4425 
Q 525 4434 597 4434 
Q 663 4434 706 4429 
Q 750 4425 776 4415 
Q 803 4406 815 4397 
Q 828 4388 834 4375 
Q 1156 3734 1339 3057 
Q 1522 2381 1522 1678 
z
" transform="scale(0.015625)"/>
      </defs>
      <use xlink:href="#DejaVuSans-Oblique-3c1" transform="translate(0 0.71875)"/>
      <use xlink:href="#Calibri-28" transform="translate(63.476562 0.71875)"/>
      <use xlink:href="#DejaVuSans-Oblique-3c9" transform="translate(93.798828 0.71875)"/>
      <use xlink:href="#Calibri-29" transform="translate(177.539062 0.71875)"/>
     </g>
    </g>
   </g>
   <g id="line2d_71">
    <path d="M 148.197319 401.932336 
L 162.020889 399.154914 
L 174.770784 396.368975 
L 186.447004 393.5927 
L 197.183758 390.813609 
L 206.981045 388.0525 
L 215.973076 385.293338 
L 224.29406 382.512055 
L 231.943997 379.725375 
L 239.057097 376.899821 
L 245.633358 374.048993 
L 251.672782 371.191485 
L 257.309578 368.279438 
L 262.543745 365.324583 
L 267.375284 362.343409 
L 271.938405 359.263436 
L 276.098897 356.190825 
L 279.99097 353.047041 
L 283.614624 349.844366 
L 287.104069 346.464116 
L 290.325095 343.039788 
L 293.411912 339.434618 
L 296.364519 335.635785 
L 299.048708 331.830475 
L 301.598686 327.848141 
L 304.148665 323.441139 
L 306.564435 318.798707 
L 308.845995 313.913206 
L 310.993346 308.780363 
L 313.006487 303.400661 
L 315.019629 297.354461 
L 316.89856 290.976792 
L 318.643283 284.273376 
L 320.388005 276.636221 
L 321.998518 268.548351 
L 323.474822 260.026861 
L 324.951126 250.148903 
L 326.29322 239.643042 
L 327.501105 228.557779 
L 328.708989 215.420996 
L 329.782665 201.438919 
L 330.85634 184.535042 
L 331.930015 163.850193 
L 334.077366 119.395336 
L 334.345785 117.622926 
L 334.479994 117.492535 
L 334.614204 117.882703 
L 334.882623 120.154504 
L 335.285251 126.620793 
L 336.090507 144.996897 
L 337.566811 178.248322 
L 338.774696 199.928634 
L 339.982581 217.45132 
L 341.190465 231.910152 
L 342.53256 245.302803 
L 343.874654 256.537845 
L 345.216748 266.061437 
L 346.693052 274.914628 
L 348.035146 281.708629 
L 349.37724 287.456791 
L 350.719334 292.263907 
L 351.927219 295.851479 
L 353.135104 298.786221 
L 354.208779 300.876539 
L 355.282455 302.501319 
L 356.221921 303.55531 
L 357.161386 304.276873 
L 357.966643 304.637352 
L 358.7719 304.764487 
L 359.577156 304.66195 
L 360.382413 304.332518 
L 361.187669 303.778002 
L 362.127135 302.84753 
L 363.066601 301.610846 
L 364.140276 299.818168 
L 365.348161 297.305919 
L 366.556046 294.246977 
L 367.763931 290.606918 
L 369.106025 285.819993 
L 370.448119 280.156866 
L 371.790213 273.477663 
L 373.132307 265.579757 
L 374.340192 257.18477 
L 375.548077 247.235961 
L 376.755962 235.234147 
L 377.829637 222.197275 
L 378.769103 208.197737 
L 379.708569 190.636488 
L 380.513826 171.250083 
L 381.184873 150.284976 
L 381.85592 122.423716 
L 383.063805 66.502836 
L 383.198014 67.896033 
L 383.466433 78.341268 
L 384.808527 148.397471 
L 385.613784 176.461021 
L 386.553249 201.051427 
L 387.626925 222.823485 
L 388.83481 242.388059 
L 390.176904 260.222914 
L 391.653207 276.694044 
L 393.26372 292.088216 
L 395.008443 306.640695 
L 397.021584 321.497971 
L 399.303144 336.607055 
L 402.121542 353.682929 
L 408.832013 393.537827 
L 410.442526 404.83905 
L 411.78462 415.891642 
L 412.858296 426.642121 
L 413.797762 438.522698 
L 414.468809 449.51062 
L 415.139856 464.442832 
L 415.676694 482.298105 
L 416.079322 504.308239 
L 416.347741 531.520419 
L 416.483317 577 
M 416.749002 577 
L 416.750369 558.717064 
L 417.018788 515.6058 
L 417.421416 488.367726 
L 417.958254 468.218032 
L 418.629301 452.096013 
L 419.434557 438.522698 
L 420.374023 426.642121 
L 421.447699 415.891642 
L 422.789793 404.83905 
L 424.400306 393.537827 
L 426.547657 380.181418 
L 435.539688 326.101808 
L 437.552829 311.789703 
L 439.431761 296.767668 
L 441.042274 282.078528 
L 442.518578 266.530647 
L 443.860672 249.924554 
L 445.068557 232.030876 
L 446.142232 212.58763 
L 447.081698 191.318063 
L 447.886955 168.012489 
L 448.558002 142.797758 
L 449.229049 109.430668 
L 450.034305 67.896033 
L 450.168515 66.502836 
L 450.302724 68.185548 
L 450.571143 78.783728 
L 451.779028 140.139307 
L 452.584284 167.476521 
L 453.389541 187.736396 
L 454.329007 205.941191 
L 455.402682 222.197275 
L 456.476357 235.234147 
L 457.684242 247.235961 
L 458.892127 257.18477 
L 460.234221 266.43195 
L 461.576315 274.196465 
L 462.91841 280.766185 
L 464.260504 286.336227 
L 465.602598 291.041455 
L 466.944692 294.975541 
L 468.286786 298.202745 
L 469.494671 300.5383 
L 470.568347 302.1785 
L 471.642022 303.416617 
L 472.581488 304.172629 
L 473.386744 304.57724 
L 474.192001 304.755671 
L 474.997257 304.705458 
L 475.802514 304.423222 
L 476.60777 303.904718 
L 477.547236 302.994352 
L 478.486702 301.745927 
L 479.560378 299.890818 
L 480.634053 297.559977 
L 481.841938 294.340054 
L 483.049823 290.448456 
L 484.257707 285.835336 
L 485.599802 279.785865 
L 486.941896 272.652435 
L 488.28399 264.277688 
L 489.626084 254.43946 
L 490.968178 242.814629 
L 492.176063 230.428556 
L 493.383948 215.672746 
L 494.457623 199.928634 
L 495.531299 180.901368 
L 496.604974 157.840148 
L 498.215487 121.957723 
L 498.618115 117.882703 
L 498.752325 117.492535 
L 498.886534 117.622926 
L 499.154953 119.395336 
L 499.557581 125.213102 
L 500.228628 139.542846 
L 501.839141 174.710865 
L 502.912817 193.40632 
L 504.120702 210.468896 
L 505.328586 224.43699 
L 506.670681 237.328806 
L 508.012775 248.177198 
L 509.489078 258.341965 
L 511.099591 267.8214 
L 512.710104 276.003637 
L 514.454827 283.721686 
L 516.333759 290.976792 
L 518.212691 297.354461 
L 520.225832 303.400661 
L 522.373183 309.118298 
L 524.520533 314.215761 
L 526.802094 319.070036 
L 529.217863 323.684938 
L 531.767842 328.067682 
L 534.452031 332.227786 
L 537.270428 336.176222 
L 540.223036 339.924771 
L 543.309852 343.485538 
L 546.530878 346.870593 
L 550.020323 350.214771 
L 553.778187 353.49781 
L 557.67026 356.603014 
L 561.830752 359.640597 
L 566.259663 362.602193 
L 571.091202 365.561437 
L 576.19116 368.424097 
L 581.693746 371.257772 
L 587.598961 374.048993 
L 594.041013 376.844071 
L 601.019903 379.623104 
L 608.53563 382.371218 
L 616.588196 385.077691 
L 625.311808 387.774972 
L 634.840677 390.485603 
L 645.174802 393.190619 
L 656.448393 395.906748 
L 668.661451 398.616198 
L 681.948183 401.331915 
L 685.035 401.932336 
L 685.035 401.932336 
" clip-path="url(#pd47404c59f)" style="fill: none; stroke-dasharray: 14.8,6.4; stroke-dashoffset: 0; stroke: #ff0000; stroke-width: 4"/>
   </g>
   <g id="line2d_72">
    <path d="M 148.197319 395.151598 
L 151.284136 393.483272 
L 153.968324 391.785413 
L 156.518303 389.909037 
L 159.202492 387.652635 
L 167.120847 380.766906 
L 168.731361 379.794045 
L 170.073455 379.248538 
L 171.281339 379.005609 
L 172.489224 379.006638 
L 173.697109 379.227801 
L 175.307622 379.771444 
L 180.40758 381.694983 
L 182.152303 382.028312 
L 183.897025 382.137434 
L 185.775957 382.017689 
L 187.654889 381.669766 
L 189.533821 381.102522 
L 191.546962 380.255083 
L 193.560103 379.157469 
L 195.573245 377.79176 
L 197.586386 376.135651 
L 199.599527 374.17178 
L 201.478459 372.024382 
L 203.223181 369.697958 
L 204.967904 366.988945 
L 206.712626 363.854816 
L 208.725768 359.73395 
L 212.349422 351.616059 
L 214.228354 347.75608 
L 215.570448 345.486543 
L 216.644124 344.064093 
L 217.583589 343.135734 
L 218.523055 342.516954 
L 219.328312 342.2458 
L 220.133568 342.227721 
L 220.938825 342.473579 
L 221.744081 342.985899 
L 222.683547 343.90382 
L 223.757223 345.314366 
L 225.233526 347.686534 
L 229.528228 354.882009 
L 231.004531 356.798214 
L 232.346626 358.161366 
L 233.55451 359.080496 
L 234.762395 359.724642 
L 235.97028 360.118158 
L 237.178165 360.285633 
L 238.520259 360.23159 
L 239.862353 359.94253 
L 241.204447 359.422622 
L 242.546542 358.667488 
L 244.022845 357.573174 
L 245.499149 356.208736 
L 246.975452 354.559586 
L 248.451756 352.583759 
L 249.92806 350.21897 
L 251.404363 347.394115 
L 252.880667 344.032662 
L 254.356971 340.09549 
L 256.101693 334.7529 
L 262.006908 315.958262 
L 263.214792 313.125472 
L 264.154258 311.436424 
L 264.959515 310.400889 
L 265.630562 309.836852 
L 266.301609 309.544302 
L 266.972656 309.522751 
L 267.643703 309.772092 
L 268.31475 310.289158 
L 269.120007 311.246467 
L 270.059473 312.783033 
L 271.133148 315.010331 
L 272.609452 318.658813 
L 275.830478 326.794536 
L 277.172572 329.557747 
L 278.380457 331.554949 
L 279.454132 332.921625 
L 280.393598 333.808257 
L 281.333064 334.416788 
L 282.27253 334.772005 
L 283.211996 334.906029 
L 284.285671 334.820594 
L 285.359347 334.509749 
L 286.567231 333.905832 
L 287.775116 333.048156 
L 289.25142 331.709256 
L 290.861933 329.92813 
L 292.338237 327.97803 
L 293.94875 325.480592 
L 295.425053 322.789014 
L 297.035566 319.370215 
L 298.51187 315.729076 
L 299.988173 311.523628 
L 301.464477 306.666081 
L 302.806571 301.510689 
L 304.148665 295.459914 
L 305.624969 287.734005 
L 307.235482 278.017655 
L 309.517042 264.075088 
L 310.590718 258.872879 
L 312.067021 252.96146 
L 313.409115 248.376222 
L 314.214372 246.294993 
L 314.885419 245.067624 
L 315.556466 244.28923 
L 316.227513 243.87342 
L 317.166979 243.613271 
L 318.643283 243.414359 
L 319.31433 243.527614 
L 319.985377 243.865455 
L 321.059052 244.733768 
L 321.998518 245.431532 
L 322.669565 245.661769 
L 323.206403 245.626621 
L 323.743241 245.368749 
L 324.280079 244.848165 
L 324.816916 244.010169 
L 325.353754 242.792538 
L 326.024801 240.650576 
L 326.695848 237.762384 
L 327.501105 233.285512 
L 328.440571 226.629924 
L 329.380036 218.2959 
L 330.319502 208.033349 
L 331.258968 195.481128 
L 332.198434 180.156889 
L 333.27211 158.780771 
L 334.748413 128.270727 
L 335.151042 124.151205 
L 335.285251 123.6681 
L 335.41946 123.678928 
L 335.55367 124.187152 
L 335.822089 126.617385 
L 336.224717 133.14244 
L 337.029973 151.311678 
L 338.506277 184.163489 
L 339.714162 205.647271 
L 340.922047 223.014065 
L 342.129931 237.315821 
L 343.472026 250.502299 
L 344.81412 261.497613 
L 346.156214 270.748004 
L 347.498308 278.556233 
L 348.840402 285.132597 
L 350.182497 290.629875 
L 351.524591 295.161109 
L 352.732476 298.486233 
L 353.94036 301.150195 
L 355.014036 302.994555 
L 355.953502 304.222984 
L 356.892968 305.105303 
L 357.698224 305.59509 
L 358.503481 305.845606 
L 359.308737 305.865736 
L 360.113994 305.658383 
L 360.91925 305.220641 
L 361.858716 304.425226 
L 362.798182 303.3291 
L 363.871857 301.715648 
L 364.945533 299.692145 
L 366.153418 296.920784 
L 367.361302 293.590057 
L 368.703397 289.177793 
L 370.045491 283.954744 
L 371.387585 277.79765 
L 372.729679 270.52872 
L 374.071773 261.912917 
L 375.279658 252.723842 
L 376.487543 241.722217 
L 377.561218 229.95734 
L 378.634894 215.507153 
L 379.57436 199.699963 
L 380.379616 182.63367 
L 381.184873 160.467767 
L 381.85592 135.782484 
L 382.526967 102.516241 
L 383.198014 68.742032 
L 383.332223 66.790225 
L 383.466433 67.9455 
L 383.734852 78.167216 
L 385.211155 154.076818 
L 386.016412 180.951319 
L 386.955878 204.72048 
L 388.029553 225.90918 
L 389.237438 245.102522 
L 390.579532 262.665195 
L 392.055836 278.939436 
L 393.666349 294.193155 
L 395.411071 308.648901 
L 397.424213 323.443107 
L 399.705773 338.528409 
L 402.65838 356.429491 
L 408.563594 391.667624 
L 410.308317 403.75903 
L 411.650411 414.644507 
L 412.724086 425.138975 
L 413.663552 436.607442 
L 414.468809 449.502235 
L 415.139856 464.438846 
L 415.676694 482.296472 
L 416.079322 504.307693 
L 416.347741 531.520274 
L 416.483317 577 
M 416.749002 577 
L 416.750369 558.717039 
L 417.018788 515.605533 
L 417.421416 488.366612 
L 417.958254 468.214886 
L 418.629301 452.08887 
L 419.434557 438.508612 
L 420.374023 426.616944 
L 421.447699 415.849784 
L 422.789793 404.770173 
L 424.400306 393.42709 
L 426.547657 379.997611 
L 435.271269 327.131542 
L 437.28441 312.768214 
L 439.163342 297.699734 
L 440.773855 282.969348 
L 442.250159 267.379908 
L 443.592253 250.72947 
L 444.800138 232.785252 
L 445.873813 213.279934 
L 446.813279 191.927475 
L 447.618536 168.506741 
L 448.289583 143.140153 
L 448.96063 109.492973 
L 449.765886 67.934786 
L 449.900096 66.761749 
L 450.034305 68.705698 
L 450.302724 79.735884 
L 451.510609 141.281373 
L 452.315865 168.545707 
L 453.121122 188.754369 
L 454.060588 206.88794 
L 455.134263 223.075363 
L 456.207939 236.092701 
L 457.415823 248.08207 
L 458.757918 259.026535 
L 460.100012 268.096907 
L 461.442106 275.701435 
L 462.7842 282.159019 
L 464.126294 287.651922 
L 465.602598 292.72746 
L 466.944692 296.548383 
L 468.152577 299.386838 
L 469.360462 301.689434 
L 470.434137 303.327453 
L 471.507812 304.559997 
L 472.447278 305.308967 
L 473.252535 305.709085 
L 474.057791 305.878935 
L 474.863048 305.817709 
L 475.668304 305.524775 
L 476.473561 304.994969 
L 477.278818 304.21657 
L 478.218283 302.987839 
L 479.157749 301.402419 
L 480.231425 299.13187 
L 481.3051 296.345077 
L 482.512985 292.552276 
L 483.72087 288.008253 
L 484.928754 282.640346 
L 486.270849 275.595255 
L 487.612943 267.244675 
L 488.955037 257.344572 
L 490.162922 246.81976 
L 491.370807 234.381007 
L 492.578691 219.4872 
L 493.652367 203.537156 
L 494.726042 184.197099 
L 495.799718 160.854107 
L 497.276021 128.388448 
L 497.678649 124.140052 
L 497.812859 123.645174 
L 497.947068 123.648609 
L 498.081278 124.145922 
L 498.349697 126.515764 
L 498.752325 132.79268 
L 499.691791 152.926799 
L 501.033885 180.172333 
L 502.10756 197.407263 
L 503.181236 211.135858 
L 504.254911 222.018594 
L 505.328586 230.558991 
L 506.268052 236.331319 
L 507.073309 240.048527 
L 507.878565 242.701247 
L 508.549612 244.184556 
L 509.22066 245.097688 
L 509.757497 245.486094 
L 510.294335 245.624048 
L 510.831173 245.547176 
L 511.50222 245.192769 
L 512.710104 244.168623 
L 513.515361 243.614423 
L 514.186408 243.40289 
L 514.991665 243.409596 
L 516.467968 243.706069 
L 517.273225 244.044142 
L 517.944272 244.615597 
L 518.48111 245.353965 
L 519.152157 246.68744 
L 519.957413 248.891178 
L 521.031089 252.605115 
L 522.507392 258.502733 
L 523.581068 263.663019 
L 524.788952 270.70086 
L 528.009978 290.195575 
L 529.486282 297.558858 
L 530.962586 303.786892 
L 532.438889 309.0622 
L 534.049402 313.946465 
L 535.659915 318.151777 
L 537.270428 321.745554 
L 538.880941 324.811954 
L 540.625664 327.650723 
L 542.236177 329.877258 
L 543.84669 331.74378 
L 545.322994 333.121686 
L 546.665088 334.065937 
L 547.872973 334.638272 
L 548.946648 334.901746 
L 550.020323 334.926626 
L 550.959789 334.734977 
L 551.899255 334.317333 
L 552.838721 333.656404 
L 553.912396 332.593136 
L 554.986072 331.186769 
L 556.059747 329.41701 
L 557.267632 326.989733 
L 558.743936 323.467835 
L 562.636009 313.765988 
L 563.709684 311.811202 
L 564.64915 310.559583 
L 565.454407 309.860453 
L 566.125454 309.55422 
L 566.796501 309.509473 
L 567.467548 309.738015 
L 568.138595 310.250349 
L 568.809642 311.049563 
L 569.614899 312.374609 
L 570.554365 314.374441 
L 571.762249 317.512784 
L 573.372762 322.356123 
L 576.19116 331.700501 
L 578.338511 338.476732 
L 580.083233 343.253308 
L 581.693746 346.998395 
L 583.17005 349.898903 
L 584.646354 352.344491 
L 586.256867 354.56808 
L 587.73317 356.249112 
L 589.209474 357.623624 
L 590.685778 358.71819 
L 592.162081 359.536745 
L 593.504175 360.032823 
L 594.84627 360.289947 
L 596.188364 360.307086 
L 597.396249 360.105483 
L 598.604133 359.672901 
L 599.812018 358.97809 
L 601.019903 358.003439 
L 602.227788 356.747701 
L 603.569882 355.031433 
L 605.180395 352.572549 
L 607.596165 348.387652 
L 609.609306 345.057298 
L 610.682981 343.646764 
L 611.622447 342.745008 
L 612.427704 342.256111 
L 613.23296 342.039629 
L 614.038217 342.090376 
L 614.843473 342.395413 
L 615.64873 342.940987 
L 616.588196 343.866384 
L 617.661871 345.283901 
L 618.869756 347.294036 
L 620.346059 350.226133 
L 622.896038 355.917941 
L 625.714436 362.058411 
L 627.593368 365.63859 
L 629.338091 368.511631 
L 631.217023 371.170691 
L 633.095954 373.447134 
L 634.974886 375.390852 
L 636.988028 377.160414 
L 639.001169 378.645588 
L 641.01431 379.856633 
L 643.027451 380.805952 
L 645.040593 381.510385 
L 646.919525 381.942658 
L 648.664247 382.124752 
L 650.40897 382.081588 
L 652.153692 381.819201 
L 654.032624 381.31316 
L 656.448393 380.412548 
L 659.132582 379.440041 
L 660.608886 379.144543 
L 661.81677 379.119375 
L 663.024655 379.32161 
L 664.23254 379.753381 
L 665.574634 380.474335 
L 667.185147 381.602552 
L 669.466707 383.510618 
L 677.787691 390.744344 
L 680.33767 392.523871 
L 683.021859 394.120933 
L 685.035 395.161619 
L 685.035 395.161619 
" clip-path="url(#pd47404c59f)" style="fill: none; stroke: #0000ff; stroke-width: 1.5; stroke-linecap: square"/>
   </g>
   <g id="patch_3">
    <path d="M 148.197319 489.1525 
L 148.197319 37.512 
" style="fill: none; stroke: #000000; stroke-width: 0.8; stroke-linejoin: miter; stroke-linecap: square"/>
   </g>
   <g id="patch_4">
    <path d="M 685.035 489.1525 
L 685.035 37.512 
" style="fill: none; stroke: #000000; stroke-width: 0.8; stroke-linejoin: miter; stroke-linecap: square"/>
   </g>
   <g id="patch_5">
    <path d="M 148.197319 489.1525 
L 685.035 489.1525 
" style="fill: none; stroke: #000000; stroke-width: 0.8; stroke-linejoin: miter; stroke-linecap: square"/>
   </g>
   <g id="patch_6">
    <path d="M 148.197319 37.512 
L 685.035 37.512 
" style="fill: none; stroke: #000000; stroke-width: 0.8; stroke-linejoin: miter; stroke-linecap: square"/>
   </g>
   <g id="legend_1">
    <g id="patch_7">
     <path d="M 554.985 101.052156 
L 676.535 101.052156 
L 676.535 46.012 
L 554.985 46.012 
z
" style="fill: #ffffff; opacity: 0.8; stroke: #000000; stroke-linejoin: miter"/>
    </g>
    <g id="line2d_73">
     <path d="M 561.785 59.779344 
L 578.785 59.779344 
L 595.785 59.779344 
" style="fill: none; stroke-dasharray: 14.8,6.4; stroke-dashoffset: 0; stroke: #ff0000; stroke-width: 4"/>
    </g>
    <g id="text_18">
     <!-- $\rho_0$ -->
     <g transform="translate(609.385 65.729344) scale(0.17 -0.17)">
      <use xlink:href="#DejaVuSans-Oblique-3c1"/>
      <use xlink:href="#DejaVuSans-30" transform="translate(63.476562 -16.40625) scale(0.7)"/>
     </g>
    </g>
    <g id="line2d_74">
     <path d="M 561.785 84.766687 
L 578.785 84.766687 
L 595.785 84.766687 
" style="fill: none; stroke: #0000ff; stroke-width: 1.5; stroke-linecap: square"/>
    </g>
    <g id="text_19">
     <!-- $\it{U=1.5}$ -->
     <g transform="translate(609.385 90.716687) scale(0.17 -0.17)">
      <defs>
       <path id="DejaVuSans-Oblique-55" d="M 991 4666 
L 1625 4666 
L 1075 1831 
Q 1041 1641 1027 1517 
Q 1013 1394 1013 1300 
Q 1013 869 1253 645 
Q 1494 422 1959 422 
Q 2563 422 2898 753 
Q 3234 1084 3378 1831 
L 3928 4666 
L 4563 4666 
L 4000 1753 
Q 3816 809 3300 359 
Q 2784 -91 1888 -91 
Q 1188 -91 780 261 
Q 372 613 372 1216 
Q 372 1325 387 1461 
Q 403 1597 434 1753 
L 991 4666 
z
" transform="scale(0.015625)"/>
       <path id="DejaVuSans-3d" d="M 678 2906 
L 4684 2906 
L 4684 2381 
L 678 2381 
L 678 2906 
z
M 678 1631 
L 4684 1631 
L 4684 1100 
L 678 1100 
L 678 1631 
z
" transform="scale(0.015625)"/>
       <path id="DejaVuSans-2e" d="M 684 794 
L 1344 794 
L 1344 0 
L 684 0 
L 684 794 
z
" transform="scale(0.015625)"/>
       <path id="DejaVuSans-35" d="M 691 4666 
L 3169 4666 
L 3169 4134 
L 1269 4134 
L 1269 2991 
Q 1406 3038 1543 3061 
Q 1681 3084 1819 3084 
Q 2600 3084 3056 2656 
Q 3513 2228 3513 1497 
Q 3513 744 3044 326 
Q 2575 -91 1722 -91 
Q 1428 -91 1123 -41 
Q 819 9 494 109 
L 494 744 
Q 775 591 1075 516 
Q 1375 441 1709 441 
Q 2250 441 2565 725 
Q 2881 1009 2881 1497 
Q 2881 1984 2565 2268 
Q 2250 2553 1709 2553 
Q 1456 2553 1204 2497 
Q 953 2441 691 2322 
L 691 4666 
z
" transform="scale(0.015625)"/>
      </defs>
      <use xlink:href="#DejaVuSans-Oblique-55" transform="translate(0 0.09375)"/>
      <use xlink:href="#DejaVuSans-3d" transform="translate(92.675781 0.09375)"/>
      <use xlink:href="#DejaVuSans-31" transform="translate(195.947266 0.09375)"/>
      <use xlink:href="#DejaVuSans-2e" transform="translate(259.570312 0.09375)"/>
      <use xlink:href="#DejaVuSans-35" transform="translate(291.357422 0.09375)"/>
     </g>
    </g>
   </g>
  </g>
 </g>
 <defs>
  <clipPath id="pd47404c59f">
   <rect x="148.197319" y="37.512" width="536.837681" height="451.6405"/>
  </clipPath>
 </defs>
</svg>
