<?xml version="1.0" encoding="utf-8" standalone="no"?>
<!DOCTYPE svg PUBLIC "-//W3C//DTD SVG 1.1//EN"
  "http://www.w3.org/Graphics/SVG/1.1/DTD/svg11.dtd">
<svg xmlns:xlink="http://www.w3.org/1999/xlink" width="720pt" height="576pt" viewBox="0 0 720 576" xmlns="http://www.w3.org/2000/svg" version="1.1">
 <metadata>
  <rdf:RDF xmlns:dc="http://purl.org/dc/elements/1.1/" xmlns:cc="http://creativecommons.org/ns#" xmlns:rdf="http://www.w3.org/1999/02/22-rdf-syntax-ns#">
   <cc:Work>
    <dc:type rdf:resource="http://purl.org/dc/dcmitype/StillImage"/>
    <dc:date>2023-04-13T03:47:35.796744</dc:date>
    <dc:format>image/svg+xml</dc:format>
    <dc:creator>
     <cc:Agent>
      <dc:title>Matplotlib v3.7.1, https://matplotlib.org/</dc:title>
     </cc:Agent>
    </dc:creator>
   </cc:Work>
  </rdf:RDF>
 </metadata>
 <defs>
  <style type="text/css">*{stroke-linejoin: round; stroke-linecap: butt}</style>
 </defs>
 <g id="figure_1">
  <g id="patch_1">
   <path d="M 0 576 
L 720 576 
L 720 0 
L 0 0 
z
" style="fill: #ffffff"/>
  </g>
  <g id="axes_1">
   <g id="patch_2">
    <path d="M 148.197319 489.1525 
L 685.035 489.1525 
L 685.035 37.512 
L 148.197319 37.512 
z
" style="fill: #ffffff"/>
   </g>
   <g id="matplotlib.axis_1">
    <g id="xtick_1">
     <g id="line2d_1">
      <path d="M 148.197319 489.1525 
L 148.197319 37.512 
" clip-path="url(#pa7d9666917)" style="fill: none; stroke: #b0b0b0; stroke-width: 0.8; stroke-linecap: square"/>
     </g>
     <g id="line2d_2">
      <defs>
       <path id="mae749b2d99" d="M 0 0 
L 0 3.5 
" style="stroke: #000000; stroke-width: 0.8"/>
      </defs>
      <g>
       <use xlink:href="#mae749b2d99" x="148.197319" y="489.1525" style="stroke: #000000; stroke-width: 0.8"/>
      </g>
     </g>
     <g id="text_1">
      <!-- −8 -->
      <g transform="translate(129.769585 515.148594) scale(0.25 -0.25)">
       <defs>
        <path id="DejaVuSans-2212" d="M 678 2272 
L 4684 2272 
L 4684 1741 
L 678 1741 
L 678 2272 
z
" transform="scale(0.015625)"/>
        <path id="DejaVuSans-38" d="M 2034 2216 
Q 1584 2216 1326 1975 
Q 1069 1734 1069 1313 
Q 1069 891 1326 650 
Q 1584 409 2034 409 
Q 2484 409 2743 651 
Q 3003 894 3003 1313 
Q 3003 1734 2745 1975 
Q 2488 2216 2034 2216 
z
M 1403 2484 
Q 997 2584 770 2862 
Q 544 3141 544 3541 
Q 544 4100 942 4425 
Q 1341 4750 2034 4750 
Q 2731 4750 3128 4425 
Q 3525 4100 3525 3541 
Q 3525 3141 3298 2862 
Q 3072 2584 2669 2484 
Q 3125 2378 3379 2068 
Q 3634 1759 3634 1313 
Q 3634 634 3220 271 
Q 2806 -91 2034 -91 
Q 1263 -91 848 271 
Q 434 634 434 1313 
Q 434 1759 690 2068 
Q 947 2378 1403 2484 
z
M 1172 3481 
Q 1172 3119 1398 2916 
Q 1625 2713 2034 2713 
Q 2441 2713 2670 2916 
Q 2900 3119 2900 3481 
Q 2900 3844 2670 4047 
Q 2441 4250 2034 4250 
Q 1625 4250 1398 4047 
Q 1172 3844 1172 3481 
z
" transform="scale(0.015625)"/>
       </defs>
       <use xlink:href="#DejaVuSans-2212"/>
       <use xlink:href="#DejaVuSans-38" x="83.789062"/>
      </g>
     </g>
    </g>
    <g id="xtick_2">
     <g id="line2d_3">
      <path d="M 215.302029 489.1525 
L 215.302029 37.512 
" clip-path="url(#pa7d9666917)" style="fill: none; stroke: #b0b0b0; stroke-width: 0.8; stroke-linecap: square"/>
     </g>
     <g id="line2d_4">
      <g>
       <use xlink:href="#mae749b2d99" x="215.302029" y="489.1525" style="stroke: #000000; stroke-width: 0.8"/>
      </g>
     </g>
     <g id="text_2">
      <!-- −6 -->
      <g transform="translate(196.874295 515.148594) scale(0.25 -0.25)">
       <defs>
        <path id="DejaVuSans-36" d="M 2113 2584 
Q 1688 2584 1439 2293 
Q 1191 2003 1191 1497 
Q 1191 994 1439 701 
Q 1688 409 2113 409 
Q 2538 409 2786 701 
Q 3034 994 3034 1497 
Q 3034 2003 2786 2293 
Q 2538 2584 2113 2584 
z
M 3366 4563 
L 3366 3988 
Q 3128 4100 2886 4159 
Q 2644 4219 2406 4219 
Q 1781 4219 1451 3797 
Q 1122 3375 1075 2522 
Q 1259 2794 1537 2939 
Q 1816 3084 2150 3084 
Q 2853 3084 3261 2657 
Q 3669 2231 3669 1497 
Q 3669 778 3244 343 
Q 2819 -91 2113 -91 
Q 1303 -91 875 529 
Q 447 1150 447 2328 
Q 447 3434 972 4092 
Q 1497 4750 2381 4750 
Q 2619 4750 2861 4703 
Q 3103 4656 3366 4563 
z
" transform="scale(0.015625)"/>
       </defs>
       <use xlink:href="#DejaVuSans-2212"/>
       <use xlink:href="#DejaVuSans-36" x="83.789062"/>
      </g>
     </g>
    </g>
    <g id="xtick_3">
     <g id="line2d_5">
      <path d="M 282.406739 489.1525 
L 282.406739 37.512 
" clip-path="url(#pa7d9666917)" style="fill: none; stroke: #b0b0b0; stroke-width: 0.8; stroke-linecap: square"/>
     </g>
     <g id="line2d_6">
      <g>
       <use xlink:href="#mae749b2d99" x="282.406739" y="489.1525" style="stroke: #000000; stroke-width: 0.8"/>
      </g>
     </g>
     <g id="text_3">
      <!-- −4 -->
      <g transform="translate(263.979005 515.148594) scale(0.25 -0.25)">
       <defs>
        <path id="DejaVuSans-34" d="M 2419 4116 
L 825 1625 
L 2419 1625 
L 2419 4116 
z
M 2253 4666 
L 3047 4666 
L 3047 1625 
L 3713 1625 
L 3713 1100 
L 3047 1100 
L 3047 0 
L 2419 0 
L 2419 1100 
L 313 1100 
L 313 1709 
L 2253 4666 
z
" transform="scale(0.015625)"/>
       </defs>
       <use xlink:href="#DejaVuSans-2212"/>
       <use xlink:href="#DejaVuSans-34" x="83.789062"/>
      </g>
     </g>
    </g>
    <g id="xtick_4">
     <g id="line2d_7">
      <path d="M 349.51145 489.1525 
L 349.51145 37.512 
" clip-path="url(#pa7d9666917)" style="fill: none; stroke: #b0b0b0; stroke-width: 0.8; stroke-linecap: square"/>
     </g>
     <g id="line2d_8">
      <g>
       <use xlink:href="#mae749b2d99" x="349.51145" y="489.1525" style="stroke: #000000; stroke-width: 0.8"/>
      </g>
     </g>
     <g id="text_4">
      <!-- −2 -->
      <g transform="translate(331.083715 515.148594) scale(0.25 -0.25)">
       <defs>
        <path id="DejaVuSans-32" d="M 1228 531 
L 3431 531 
L 3431 0 
L 469 0 
L 469 531 
Q 828 903 1448 1529 
Q 2069 2156 2228 2338 
Q 2531 2678 2651 2914 
Q 2772 3150 2772 3378 
Q 2772 3750 2511 3984 
Q 2250 4219 1831 4219 
Q 1534 4219 1204 4116 
Q 875 4013 500 3803 
L 500 4441 
Q 881 4594 1212 4672 
Q 1544 4750 1819 4750 
Q 2544 4750 2975 4387 
Q 3406 4025 3406 3419 
Q 3406 3131 3298 2873 
Q 3191 2616 2906 2266 
Q 2828 2175 2409 1742 
Q 1991 1309 1228 531 
z
" transform="scale(0.015625)"/>
       </defs>
       <use xlink:href="#DejaVuSans-2212"/>
       <use xlink:href="#DejaVuSans-32" x="83.789062"/>
      </g>
     </g>
    </g>
    <g id="xtick_5">
     <g id="line2d_9">
      <path d="M 416.61616 489.1525 
L 416.61616 37.512 
" clip-path="url(#pa7d9666917)" style="fill: none; stroke: #b0b0b0; stroke-width: 0.8; stroke-linecap: square"/>
     </g>
     <g id="line2d_10">
      <g>
       <use xlink:href="#mae749b2d99" x="416.61616" y="489.1525" style="stroke: #000000; stroke-width: 0.8"/>
      </g>
     </g>
     <g id="text_5">
      <!-- 0 -->
      <g transform="translate(408.663035 515.148594) scale(0.25 -0.25)">
       <defs>
        <path id="DejaVuSans-30" d="M 2034 4250 
Q 1547 4250 1301 3770 
Q 1056 3291 1056 2328 
Q 1056 1369 1301 889 
Q 1547 409 2034 409 
Q 2525 409 2770 889 
Q 3016 1369 3016 2328 
Q 3016 3291 2770 3770 
Q 2525 4250 2034 4250 
z
M 2034 4750 
Q 2819 4750 3233 4129 
Q 3647 3509 3647 2328 
Q 3647 1150 3233 529 
Q 2819 -91 2034 -91 
Q 1250 -91 836 529 
Q 422 1150 422 2328 
Q 422 3509 836 4129 
Q 1250 4750 2034 4750 
z
" transform="scale(0.015625)"/>
       </defs>
       <use xlink:href="#DejaVuSans-30"/>
      </g>
     </g>
    </g>
    <g id="xtick_6">
     <g id="line2d_11">
      <path d="M 483.72087 489.1525 
L 483.72087 37.512 
" clip-path="url(#pa7d9666917)" style="fill: none; stroke: #b0b0b0; stroke-width: 0.8; stroke-linecap: square"/>
     </g>
     <g id="line2d_12">
      <g>
       <use xlink:href="#mae749b2d99" x="483.72087" y="489.1525" style="stroke: #000000; stroke-width: 0.8"/>
      </g>
     </g>
     <g id="text_6">
      <!-- 2 -->
      <g transform="translate(475.767745 515.148594) scale(0.25 -0.25)">
       <use xlink:href="#DejaVuSans-32"/>
      </g>
     </g>
    </g>
    <g id="xtick_7">
     <g id="line2d_13">
      <path d="M 550.82558 489.1525 
L 550.82558 37.512 
" clip-path="url(#pa7d9666917)" style="fill: none; stroke: #b0b0b0; stroke-width: 0.8; stroke-linecap: square"/>
     </g>
     <g id="line2d_14">
      <g>
       <use xlink:href="#mae749b2d99" x="550.82558" y="489.1525" style="stroke: #000000; stroke-width: 0.8"/>
      </g>
     </g>
     <g id="text_7">
      <!-- 4 -->
      <g transform="translate(542.872455 515.148594) scale(0.25 -0.25)">
       <use xlink:href="#DejaVuSans-34"/>
      </g>
     </g>
    </g>
    <g id="xtick_8">
     <g id="line2d_15">
      <path d="M 617.93029 489.1525 
L 617.93029 37.512 
" clip-path="url(#pa7d9666917)" style="fill: none; stroke: #b0b0b0; stroke-width: 0.8; stroke-linecap: square"/>
     </g>
     <g id="line2d_16">
      <g>
       <use xlink:href="#mae749b2d99" x="617.93029" y="489.1525" style="stroke: #000000; stroke-width: 0.8"/>
      </g>
     </g>
     <g id="text_8">
      <!-- 6 -->
      <g transform="translate(609.977165 515.148594) scale(0.25 -0.25)">
       <use xlink:href="#DejaVuSans-36"/>
      </g>
     </g>
    </g>
    <g id="xtick_9">
     <g id="line2d_17">
      <path d="M 685.035 489.1525 
L 685.035 37.512 
" clip-path="url(#pa7d9666917)" style="fill: none; stroke: #b0b0b0; stroke-width: 0.8; stroke-linecap: square"/>
     </g>
     <g id="line2d_18">
      <g>
       <use xlink:href="#mae749b2d99" x="685.035" y="489.1525" style="stroke: #000000; stroke-width: 0.8"/>
      </g>
     </g>
     <g id="text_9">
      <!-- 8 -->
      <g transform="translate(677.081875 515.148594) scale(0.25 -0.25)">
       <use xlink:href="#DejaVuSans-38"/>
      </g>
     </g>
    </g>
    <g id="text_10">
     <!-- $\omega$ [-] -->
     <g transform="translate(391.74116 541.351719) scale(0.25 -0.25)">
      <defs>
       <path id="DejaVuSans-Oblique-3c9" d="M 1369 -91 
Q 72 -91 434 1766 
Q 575 2500 1256 3500 
L 1875 3500 
Q 1231 2500 1088 1750 
Q 819 397 1519 397 
Q 2166 397 2478 2078 
L 3009 2078 
Q 2669 388 3316 397 
Q 4013 403 4275 1750 
Q 4419 2500 4169 3500 
L 4788 3500 
Q 5075 2500 4934 1766 
Q 4578 -94 3278 -91 
Q 2428 -88 2503 844 
Q 2194 -91 1369 -91 
z
" transform="scale(0.015625)"/>
       <path id="Calibri-20" transform="scale(0.015625)"/>
       <path id="Calibri-5b" d="M 1684 -813 
Q 1684 -916 1661 -958 
Q 1638 -1000 1594 -1000 
L 794 -1000 
Q 756 -1000 722 -989 
Q 688 -978 659 -953 
Q 631 -928 614 -886 
Q 597 -844 597 -781 
L 597 4153 
Q 597 4213 614 4255 
Q 631 4297 659 4323 
Q 688 4350 722 4361 
Q 756 4372 794 4372 
L 1594 4372 
Q 1613 4372 1630 4362 
Q 1647 4353 1659 4328 
Q 1672 4303 1678 4267 
Q 1684 4231 1684 4178 
Q 1684 4078 1661 4034 
Q 1638 3991 1594 3991 
L 1084 3991 
L 1084 -622 
L 1594 -622 
Q 1613 -622 1630 -631 
Q 1647 -641 1659 -664 
Q 1672 -688 1678 -723 
Q 1684 -759 1684 -813 
z
" transform="scale(0.015625)"/>
       <path id="Calibri-2d" d="M 1744 1578 
Q 1744 1456 1716 1409 
Q 1688 1363 1634 1363 
L 328 1363 
Q 272 1363 244 1411 
Q 216 1459 216 1578 
Q 216 1697 244 1744 
Q 272 1791 328 1791 
L 1634 1791 
Q 1659 1791 1679 1781 
Q 1700 1772 1714 1745 
Q 1728 1719 1736 1678 
Q 1744 1638 1744 1578 
z
" transform="scale(0.015625)"/>
       <path id="Calibri-5d" d="M 1369 -781 
Q 1369 -844 1351 -886 
Q 1334 -928 1306 -953 
Q 1278 -978 1242 -989 
Q 1206 -1000 1169 -1000 
L 372 -1000 
Q 328 -1000 304 -958 
Q 281 -916 281 -813 
Q 281 -759 286 -723 
Q 291 -688 303 -664 
Q 316 -641 333 -631 
Q 350 -622 372 -622 
L 881 -622 
L 881 3991 
L 372 3991 
Q 328 3991 304 4034 
Q 281 4078 281 4178 
Q 281 4231 286 4267 
Q 291 4303 303 4328 
Q 316 4353 333 4362 
Q 350 4372 372 4372 
L 1169 4372 
Q 1206 4372 1242 4361 
Q 1278 4350 1306 4323 
Q 1334 4297 1351 4255 
Q 1369 4213 1369 4153 
L 1369 -781 
z
" transform="scale(0.015625)"/>
      </defs>
      <use xlink:href="#DejaVuSans-Oblique-3c9" transform="translate(0 0.6875)"/>
      <use xlink:href="#Calibri-20" transform="translate(83.740234 0.6875)"/>
      <use xlink:href="#Calibri-5b" transform="translate(106.347656 0.6875)"/>
      <use xlink:href="#Calibri-2d" transform="translate(137.011719 0.6875)"/>
      <use xlink:href="#Calibri-5d" transform="translate(167.626953 0.6875)"/>
     </g>
    </g>
   </g>
   <g id="matplotlib.axis_2">
    <g id="ytick_1">
     <g id="line2d_19">
      <path d="M 148.197319 489.1525 
L 685.035 489.1525 
" clip-path="url(#pa7d9666917)" style="fill: none; stroke: #b0b0b0; stroke-width: 0.8; stroke-linecap: square"/>
     </g>
     <g id="line2d_20">
      <defs>
       <path id="mb527b0a803" d="M 0 0 
L -3.5 0 
" style="stroke: #000000; stroke-width: 0.8"/>
      </defs>
      <g>
       <use xlink:href="#mb527b0a803" x="148.197319" y="489.1525" style="stroke: #000000; stroke-width: 0.8"/>
      </g>
     </g>
     <g id="text_11">
      <!-- $\mathdefault{10^{-4}}$ -->
      <g transform="translate(82.447319 498.650547) scale(0.25 -0.25)">
       <defs>
        <path id="DejaVuSans-31" d="M 794 531 
L 1825 531 
L 1825 4091 
L 703 3866 
L 703 4441 
L 1819 4666 
L 2450 4666 
L 2450 531 
L 3481 531 
L 3481 0 
L 794 0 
L 794 531 
z
" transform="scale(0.015625)"/>
       </defs>
       <use xlink:href="#DejaVuSans-31" transform="translate(0 0.684375)"/>
       <use xlink:href="#DejaVuSans-30" transform="translate(63.623047 0.684375)"/>
       <use xlink:href="#DejaVuSans-2212" transform="translate(128.203125 38.965625) scale(0.7)"/>
       <use xlink:href="#DejaVuSans-34" transform="translate(186.855469 38.965625) scale(0.7)"/>
      </g>
     </g>
    </g>
    <g id="ytick_2">
     <g id="line2d_21">
      <path d="M 148.197319 398.8244 
L 685.035 398.8244 
" clip-path="url(#pa7d9666917)" style="fill: none; stroke: #b0b0b0; stroke-width: 0.8; stroke-linecap: square"/>
     </g>
     <g id="line2d_22">
      <g>
       <use xlink:href="#mb527b0a803" x="148.197319" y="398.8244" style="stroke: #000000; stroke-width: 0.8"/>
      </g>
     </g>
     <g id="text_12">
      <!-- $\mathdefault{10^{-3}}$ -->
      <g transform="translate(82.447319 408.322447) scale(0.25 -0.25)">
       <defs>
        <path id="DejaVuSans-33" d="M 2597 2516 
Q 3050 2419 3304 2112 
Q 3559 1806 3559 1356 
Q 3559 666 3084 287 
Q 2609 -91 1734 -91 
Q 1441 -91 1130 -33 
Q 819 25 488 141 
L 488 750 
Q 750 597 1062 519 
Q 1375 441 1716 441 
Q 2309 441 2620 675 
Q 2931 909 2931 1356 
Q 2931 1769 2642 2001 
Q 2353 2234 1838 2234 
L 1294 2234 
L 1294 2753 
L 1863 2753 
Q 2328 2753 2575 2939 
Q 2822 3125 2822 3475 
Q 2822 3834 2567 4026 
Q 2313 4219 1838 4219 
Q 1578 4219 1281 4162 
Q 984 4106 628 3988 
L 628 4550 
Q 988 4650 1302 4700 
Q 1616 4750 1894 4750 
Q 2613 4750 3031 4423 
Q 3450 4097 3450 3541 
Q 3450 3153 3228 2886 
Q 3006 2619 2597 2516 
z
" transform="scale(0.015625)"/>
       </defs>
       <use xlink:href="#DejaVuSans-31" transform="translate(0 0.765625)"/>
       <use xlink:href="#DejaVuSans-30" transform="translate(63.623047 0.765625)"/>
       <use xlink:href="#DejaVuSans-2212" transform="translate(128.203125 39.046875) scale(0.7)"/>
       <use xlink:href="#DejaVuSans-33" transform="translate(186.855469 39.046875) scale(0.7)"/>
      </g>
     </g>
    </g>
    <g id="ytick_3">
     <g id="line2d_23">
      <path d="M 148.197319 308.4963 
L 685.035 308.4963 
" clip-path="url(#pa7d9666917)" style="fill: none; stroke: #b0b0b0; stroke-width: 0.8; stroke-linecap: square"/>
     </g>
     <g id="line2d_24">
      <g>
       <use xlink:href="#mb527b0a803" x="148.197319" y="308.4963" style="stroke: #000000; stroke-width: 0.8"/>
      </g>
     </g>
     <g id="text_13">
      <!-- $\mathdefault{10^{-2}}$ -->
      <g transform="translate(82.447319 317.994347) scale(0.25 -0.25)">
       <use xlink:href="#DejaVuSans-31" transform="translate(0 0.765625)"/>
       <use xlink:href="#DejaVuSans-30" transform="translate(63.623047 0.765625)"/>
       <use xlink:href="#DejaVuSans-2212" transform="translate(128.203125 39.046875) scale(0.7)"/>
       <use xlink:href="#DejaVuSans-32" transform="translate(186.855469 39.046875) scale(0.7)"/>
      </g>
     </g>
    </g>
    <g id="ytick_4">
     <g id="line2d_25">
      <path d="M 148.197319 218.1682 
L 685.035 218.1682 
" clip-path="url(#pa7d9666917)" style="fill: none; stroke: #b0b0b0; stroke-width: 0.8; stroke-linecap: square"/>
     </g>
     <g id="line2d_26">
      <g>
       <use xlink:href="#mb527b0a803" x="148.197319" y="218.1682" style="stroke: #000000; stroke-width: 0.8"/>
      </g>
     </g>
     <g id="text_14">
      <!-- $\mathdefault{10^{-1}}$ -->
      <g transform="translate(82.447319 227.666247) scale(0.25 -0.25)">
       <use xlink:href="#DejaVuSans-31" transform="translate(0 0.684375)"/>
       <use xlink:href="#DejaVuSans-30" transform="translate(63.623047 0.684375)"/>
       <use xlink:href="#DejaVuSans-2212" transform="translate(128.203125 38.965625) scale(0.7)"/>
       <use xlink:href="#DejaVuSans-31" transform="translate(186.855469 38.965625) scale(0.7)"/>
      </g>
     </g>
    </g>
    <g id="ytick_5">
     <g id="line2d_27">
      <path d="M 148.197319 127.8401 
L 685.035 127.8401 
" clip-path="url(#pa7d9666917)" style="fill: none; stroke: #b0b0b0; stroke-width: 0.8; stroke-linecap: square"/>
     </g>
     <g id="line2d_28">
      <g>
       <use xlink:href="#mb527b0a803" x="148.197319" y="127.8401" style="stroke: #000000; stroke-width: 0.8"/>
      </g>
     </g>
     <g id="text_15">
      <!-- $\mathdefault{10^{0}}$ -->
      <g transform="translate(97.197319 137.338147) scale(0.25 -0.25)">
       <use xlink:href="#DejaVuSans-31" transform="translate(0 0.765625)"/>
       <use xlink:href="#DejaVuSans-30" transform="translate(63.623047 0.765625)"/>
       <use xlink:href="#DejaVuSans-30" transform="translate(128.203125 39.046875) scale(0.7)"/>
      </g>
     </g>
    </g>
    <g id="ytick_6">
     <g id="line2d_29">
      <path d="M 148.197319 37.512 
L 685.035 37.512 
" clip-path="url(#pa7d9666917)" style="fill: none; stroke: #b0b0b0; stroke-width: 0.8; stroke-linecap: square"/>
     </g>
     <g id="line2d_30">
      <g>
       <use xlink:href="#mb527b0a803" x="148.197319" y="37.512" style="stroke: #000000; stroke-width: 0.8"/>
      </g>
     </g>
     <g id="text_16">
      <!-- $\mathdefault{10^{1}}$ -->
      <g transform="translate(97.197319 47.010047) scale(0.25 -0.25)">
       <use xlink:href="#DejaVuSans-31" transform="translate(0 0.684375)"/>
       <use xlink:href="#DejaVuSans-30" transform="translate(63.623047 0.684375)"/>
       <use xlink:href="#DejaVuSans-31" transform="translate(128.203125 38.965625) scale(0.7)"/>
      </g>
     </g>
    </g>
    <g id="ytick_7">
     <g id="line2d_31">
      <defs>
       <path id="mfa16b85921" d="M 0 0 
L -2 0 
" style="stroke: #000000; stroke-width: 0.6"/>
      </defs>
      <g>
       <use xlink:href="#mfa16b85921" x="148.197319" y="461.961032" style="stroke: #000000; stroke-width: 0.6"/>
      </g>
     </g>
    </g>
    <g id="ytick_8">
     <g id="line2d_32">
      <g>
       <use xlink:href="#mfa16b85921" x="148.197319" y="446.055044" style="stroke: #000000; stroke-width: 0.6"/>
      </g>
     </g>
    </g>
    <g id="ytick_9">
     <g id="line2d_33">
      <g>
       <use xlink:href="#mfa16b85921" x="148.197319" y="434.769565" style="stroke: #000000; stroke-width: 0.6"/>
      </g>
     </g>
    </g>
    <g id="ytick_10">
     <g id="line2d_34">
      <g>
       <use xlink:href="#mfa16b85921" x="148.197319" y="426.015868" style="stroke: #000000; stroke-width: 0.6"/>
      </g>
     </g>
    </g>
    <g id="ytick_11">
     <g id="line2d_35">
      <g>
       <use xlink:href="#mfa16b85921" x="148.197319" y="418.863576" style="stroke: #000000; stroke-width: 0.6"/>
      </g>
     </g>
    </g>
    <g id="ytick_12">
     <g id="line2d_36">
      <g>
       <use xlink:href="#mfa16b85921" x="148.197319" y="412.8164" style="stroke: #000000; stroke-width: 0.6"/>
      </g>
     </g>
    </g>
    <g id="ytick_13">
     <g id="line2d_37">
      <g>
       <use xlink:href="#mfa16b85921" x="148.197319" y="407.578097" style="stroke: #000000; stroke-width: 0.6"/>
      </g>
     </g>
    </g>
    <g id="ytick_14">
     <g id="line2d_38">
      <g>
       <use xlink:href="#mfa16b85921" x="148.197319" y="402.957587" style="stroke: #000000; stroke-width: 0.6"/>
      </g>
     </g>
    </g>
    <g id="ytick_15">
     <g id="line2d_39">
      <g>
       <use xlink:href="#mfa16b85921" x="148.197319" y="371.632932" style="stroke: #000000; stroke-width: 0.6"/>
      </g>
     </g>
    </g>
    <g id="ytick_16">
     <g id="line2d_40">
      <g>
       <use xlink:href="#mfa16b85921" x="148.197319" y="355.726944" style="stroke: #000000; stroke-width: 0.6"/>
      </g>
     </g>
    </g>
    <g id="ytick_17">
     <g id="line2d_41">
      <g>
       <use xlink:href="#mfa16b85921" x="148.197319" y="344.441465" style="stroke: #000000; stroke-width: 0.6"/>
      </g>
     </g>
    </g>
    <g id="ytick_18">
     <g id="line2d_42">
      <g>
       <use xlink:href="#mfa16b85921" x="148.197319" y="335.687768" style="stroke: #000000; stroke-width: 0.6"/>
      </g>
     </g>
    </g>
    <g id="ytick_19">
     <g id="line2d_43">
      <g>
       <use xlink:href="#mfa16b85921" x="148.197319" y="328.535476" style="stroke: #000000; stroke-width: 0.6"/>
      </g>
     </g>
    </g>
    <g id="ytick_20">
     <g id="line2d_44">
      <g>
       <use xlink:href="#mfa16b85921" x="148.197319" y="322.4883" style="stroke: #000000; stroke-width: 0.6"/>
      </g>
     </g>
    </g>
    <g id="ytick_21">
     <g id="line2d_45">
      <g>
       <use xlink:href="#mfa16b85921" x="148.197319" y="317.249997" style="stroke: #000000; stroke-width: 0.6"/>
      </g>
     </g>
    </g>
    <g id="ytick_22">
     <g id="line2d_46">
      <g>
       <use xlink:href="#mfa16b85921" x="148.197319" y="312.629487" style="stroke: #000000; stroke-width: 0.6"/>
      </g>
     </g>
    </g>
    <g id="ytick_23">
     <g id="line2d_47">
      <g>
       <use xlink:href="#mfa16b85921" x="148.197319" y="281.304832" style="stroke: #000000; stroke-width: 0.6"/>
      </g>
     </g>
    </g>
    <g id="ytick_24">
     <g id="line2d_48">
      <g>
       <use xlink:href="#mfa16b85921" x="148.197319" y="265.398844" style="stroke: #000000; stroke-width: 0.6"/>
      </g>
     </g>
    </g>
    <g id="ytick_25">
     <g id="line2d_49">
      <g>
       <use xlink:href="#mfa16b85921" x="148.197319" y="254.113365" style="stroke: #000000; stroke-width: 0.6"/>
      </g>
     </g>
    </g>
    <g id="ytick_26">
     <g id="line2d_50">
      <g>
       <use xlink:href="#mfa16b85921" x="148.197319" y="245.359668" style="stroke: #000000; stroke-width: 0.6"/>
      </g>
     </g>
    </g>
    <g id="ytick_27">
     <g id="line2d_51">
      <g>
       <use xlink:href="#mfa16b85921" x="148.197319" y="238.207376" style="stroke: #000000; stroke-width: 0.6"/>
      </g>
     </g>
    </g>
    <g id="ytick_28">
     <g id="line2d_52">
      <g>
       <use xlink:href="#mfa16b85921" x="148.197319" y="232.1602" style="stroke: #000000; stroke-width: 0.6"/>
      </g>
     </g>
    </g>
    <g id="ytick_29">
     <g id="line2d_53">
      <g>
       <use xlink:href="#mfa16b85921" x="148.197319" y="226.921897" style="stroke: #000000; stroke-width: 0.6"/>
      </g>
     </g>
    </g>
    <g id="ytick_30">
     <g id="line2d_54">
      <g>
       <use xlink:href="#mfa16b85921" x="148.197319" y="222.301387" style="stroke: #000000; stroke-width: 0.6"/>
      </g>
     </g>
    </g>
    <g id="ytick_31">
     <g id="line2d_55">
      <g>
       <use xlink:href="#mfa16b85921" x="148.197319" y="190.976732" style="stroke: #000000; stroke-width: 0.6"/>
      </g>
     </g>
    </g>
    <g id="ytick_32">
     <g id="line2d_56">
      <g>
       <use xlink:href="#mfa16b85921" x="148.197319" y="175.070744" style="stroke: #000000; stroke-width: 0.6"/>
      </g>
     </g>
    </g>
    <g id="ytick_33">
     <g id="line2d_57">
      <g>
       <use xlink:href="#mfa16b85921" x="148.197319" y="163.785265" style="stroke: #000000; stroke-width: 0.6"/>
      </g>
     </g>
    </g>
    <g id="ytick_34">
     <g id="line2d_58">
      <g>
       <use xlink:href="#mfa16b85921" x="148.197319" y="155.031568" style="stroke: #000000; stroke-width: 0.6"/>
      </g>
     </g>
    </g>
    <g id="ytick_35">
     <g id="line2d_59">
      <g>
       <use xlink:href="#mfa16b85921" x="148.197319" y="147.879276" style="stroke: #000000; stroke-width: 0.6"/>
      </g>
     </g>
    </g>
    <g id="ytick_36">
     <g id="line2d_60">
      <g>
       <use xlink:href="#mfa16b85921" x="148.197319" y="141.8321" style="stroke: #000000; stroke-width: 0.6"/>
      </g>
     </g>
    </g>
    <g id="ytick_37">
     <g id="line2d_61">
      <g>
       <use xlink:href="#mfa16b85921" x="148.197319" y="136.593797" style="stroke: #000000; stroke-width: 0.6"/>
      </g>
     </g>
    </g>
    <g id="ytick_38">
     <g id="line2d_62">
      <g>
       <use xlink:href="#mfa16b85921" x="148.197319" y="131.973287" style="stroke: #000000; stroke-width: 0.6"/>
      </g>
     </g>
    </g>
    <g id="ytick_39">
     <g id="line2d_63">
      <g>
       <use xlink:href="#mfa16b85921" x="148.197319" y="100.648632" style="stroke: #000000; stroke-width: 0.6"/>
      </g>
     </g>
    </g>
    <g id="ytick_40">
     <g id="line2d_64">
      <g>
       <use xlink:href="#mfa16b85921" x="148.197319" y="84.742644" style="stroke: #000000; stroke-width: 0.6"/>
      </g>
     </g>
    </g>
    <g id="ytick_41">
     <g id="line2d_65">
      <g>
       <use xlink:href="#mfa16b85921" x="148.197319" y="73.457165" style="stroke: #000000; stroke-width: 0.6"/>
      </g>
     </g>
    </g>
    <g id="ytick_42">
     <g id="line2d_66">
      <g>
       <use xlink:href="#mfa16b85921" x="148.197319" y="64.703468" style="stroke: #000000; stroke-width: 0.6"/>
      </g>
     </g>
    </g>
    <g id="ytick_43">
     <g id="line2d_67">
      <g>
       <use xlink:href="#mfa16b85921" x="148.197319" y="57.551176" style="stroke: #000000; stroke-width: 0.6"/>
      </g>
     </g>
    </g>
    <g id="ytick_44">
     <g id="line2d_68">
      <g>
       <use xlink:href="#mfa16b85921" x="148.197319" y="51.504" style="stroke: #000000; stroke-width: 0.6"/>
      </g>
     </g>
    </g>
    <g id="ytick_45">
     <g id="line2d_69">
      <g>
       <use xlink:href="#mfa16b85921" x="148.197319" y="46.265697" style="stroke: #000000; stroke-width: 0.6"/>
      </g>
     </g>
    </g>
    <g id="ytick_46">
     <g id="line2d_70">
      <g>
       <use xlink:href="#mfa16b85921" x="148.197319" y="41.645187" style="stroke: #000000; stroke-width: 0.6"/>
      </g>
     </g>
    </g>
    <g id="text_17">
     <!-- $\rho$($\omega$) -->
     <g transform="translate(26.447319 258.08225) scale(0.25 -0.25)">
      <defs>
       <path id="DejaVuSans-Oblique-3c1" d="M 1203 2875 
Q 1453 3194 1981 3475 
Q 2188 3584 2756 3584 
Q 3394 3584 3694 3078 
Q 3994 2572 3834 1747 
Q 3672 922 3175 415 
Q 2678 -91 2041 -91 
Q 1656 -91 1409 63 
Q 1163 213 1044 525 
L 681 -1331 
L 103 -1331 
L 697 1716 
Q 838 2438 1203 2875 
z
M 3238 1747 
Q 3359 2381 3169 2744 
Q 2978 3103 2522 3103 
Q 2066 3103 1734 2744 
Q 1403 2381 1281 1747 
Q 1156 1113 1347 750 
Q 1538 391 1994 391 
Q 2450 391 2781 750 
Q 3113 1113 3238 1747 
z
" transform="scale(0.015625)"/>
       <path id="Calibri-28" d="M 1547 4306 
Q 1250 3678 1104 3017 
Q 959 2356 959 1688 
Q 959 1016 1107 356 
Q 1256 -303 1541 -938 
Q 1556 -975 1557 -1001 
Q 1559 -1028 1537 -1045 
Q 1516 -1063 1470 -1070 
Q 1425 -1078 1347 -1078 
Q 1291 -1078 1250 -1075 
Q 1209 -1072 1179 -1062 
Q 1150 -1053 1131 -1040 
Q 1113 -1028 1103 -1013 
Q 934 -694 806 -367 
Q 678 -41 590 296 
Q 503 634 459 979 
Q 416 1325 416 1678 
Q 416 2031 464 2375 
Q 513 2719 602 3058 
Q 691 3397 819 3725 
Q 947 4053 1106 4375 
Q 1109 4388 1123 4397 
Q 1138 4406 1163 4415 
Q 1188 4425 1231 4429 
Q 1275 4434 1344 4434 
Q 1416 4434 1459 4425 
Q 1503 4416 1528 4400 
Q 1553 4384 1556 4359 
Q 1559 4334 1547 4306 
z
" transform="scale(0.015625)"/>
       <path id="Calibri-29" d="M 1522 1678 
Q 1522 1325 1478 979 
Q 1434 634 1346 296 
Q 1259 -41 1132 -367 
Q 1006 -694 838 -1013 
Q 828 -1028 809 -1040 
Q 791 -1053 761 -1062 
Q 731 -1072 690 -1075 
Q 650 -1078 594 -1078 
Q 513 -1078 467 -1070 
Q 422 -1063 401 -1045 
Q 381 -1028 382 -1001 
Q 384 -975 400 -938 
Q 688 -306 834 355 
Q 981 1016 981 1688 
Q 981 2356 834 3017 
Q 688 3678 394 4306 
Q 381 4334 384 4359 
Q 388 4384 413 4400 
Q 438 4416 481 4425 
Q 525 4434 597 4434 
Q 663 4434 706 4429 
Q 750 4425 776 4415 
Q 803 4406 815 4397 
Q 828 4388 834 4375 
Q 1156 3734 1339 3057 
Q 1522 2381 1522 1678 
z
" transform="scale(0.015625)"/>
      </defs>
      <use xlink:href="#DejaVuSans-Oblique-3c1" transform="translate(0 0.71875)"/>
      <use xlink:href="#Calibri-28" transform="translate(63.476562 0.71875)"/>
      <use xlink:href="#DejaVuSans-Oblique-3c9" transform="translate(93.798828 0.71875)"/>
      <use xlink:href="#Calibri-29" transform="translate(177.539062 0.71875)"/>
     </g>
    </g>
   </g>
   <g id="line2d_71">
    <path d="M 148.197319 401.932336 
L 162.020889 399.154914 
L 174.770784 396.368975 
L 186.447004 393.5927 
L 197.183758 390.813609 
L 206.981045 388.0525 
L 215.973076 385.293338 
L 224.29406 382.512055 
L 231.943997 379.725375 
L 239.057097 376.899821 
L 245.633358 374.048993 
L 251.672782 371.191485 
L 257.309578 368.279438 
L 262.543745 365.324583 
L 267.375284 362.343409 
L 271.938405 359.263436 
L 276.098897 356.190825 
L 279.99097 353.047041 
L 283.614624 349.844366 
L 287.104069 346.464116 
L 290.325095 343.039788 
L 293.411912 339.434618 
L 296.364519 335.635785 
L 299.048708 331.830475 
L 301.598686 327.848141 
L 304.148665 323.441139 
L 306.564435 318.798707 
L 308.845995 313.913206 
L 310.993346 308.780363 
L 313.006487 303.400661 
L 315.019629 297.354461 
L 316.89856 290.976792 
L 318.643283 284.273376 
L 320.388005 276.636221 
L 321.998518 268.548351 
L 323.474822 260.026861 
L 324.951126 250.148903 
L 326.29322 239.643042 
L 327.501105 228.557779 
L 328.708989 215.420996 
L 329.782665 201.438919 
L 330.85634 184.535042 
L 331.930015 163.850193 
L 334.077366 119.395336 
L 334.345785 117.622926 
L 334.479994 117.492535 
L 334.614204 117.882703 
L 334.882623 120.154504 
L 335.285251 126.620793 
L 336.090507 144.996897 
L 337.566811 178.248322 
L 338.774696 199.928634 
L 339.982581 217.45132 
L 341.190465 231.910152 
L 342.53256 245.302803 
L 343.874654 256.537845 
L 345.216748 266.061437 
L 346.693052 274.914628 
L 348.035146 281.708629 
L 349.37724 287.456791 
L 350.719334 292.263907 
L 351.927219 295.851479 
L 353.135104 298.786221 
L 354.208779 300.876539 
L 355.282455 302.501319 
L 356.221921 303.55531 
L 357.161386 304.276873 
L 357.966643 304.637352 
L 358.7719 304.764487 
L 359.577156 304.66195 
L 360.382413 304.332518 
L 361.187669 303.778002 
L 362.127135 302.84753 
L 363.066601 301.610846 
L 364.140276 299.818168 
L 365.348161 297.305919 
L 366.556046 294.246977 
L 367.763931 290.606918 
L 369.106025 285.819993 
L 370.448119 280.156866 
L 371.790213 273.477663 
L 373.132307 265.579757 
L 374.340192 257.18477 
L 375.548077 247.235961 
L 376.755962 235.234147 
L 377.829637 222.197275 
L 378.769103 208.197737 
L 379.708569 190.636488 
L 380.513826 171.250083 
L 381.184873 150.284976 
L 381.85592 122.423716 
L 383.063805 66.502836 
L 383.198014 67.896033 
L 383.466433 78.341268 
L 384.808527 148.397471 
L 385.613784 176.461021 
L 386.553249 201.051427 
L 387.626925 222.823485 
L 388.83481 242.388059 
L 390.176904 260.222914 
L 391.653207 276.694044 
L 393.26372 292.088216 
L 395.008443 306.640695 
L 397.021584 321.497971 
L 399.303144 336.607055 
L 402.121542 353.682929 
L 408.832013 393.537827 
L 410.442526 404.83905 
L 411.78462 415.891642 
L 412.858296 426.642121 
L 413.797762 438.522698 
L 414.468809 449.51062 
L 415.139856 464.442832 
L 415.676694 482.298105 
L 416.079322 504.308239 
L 416.347741 531.520419 
L 416.483317 577 
M 416.749002 577 
L 416.750369 558.717064 
L 417.018788 515.6058 
L 417.421416 488.367726 
L 417.958254 468.218032 
L 418.629301 452.096013 
L 419.434557 438.522698 
L 420.374023 426.642121 
L 421.447699 415.891642 
L 422.789793 404.83905 
L 424.400306 393.537827 
L 426.547657 380.181418 
L 435.539688 326.101808 
L 437.552829 311.789703 
L 439.431761 296.767668 
L 441.042274 282.078528 
L 442.518578 266.530647 
L 443.860672 249.924554 
L 445.068557 232.030876 
L 446.142232 212.58763 
L 447.081698 191.318063 
L 447.886955 168.012489 
L 448.558002 142.797758 
L 449.229049 109.430668 
L 450.034305 67.896033 
L 450.168515 66.502836 
L 450.302724 68.185548 
L 450.571143 78.783728 
L 451.779028 140.139307 
L 452.584284 167.476521 
L 453.389541 187.736396 
L 454.329007 205.941191 
L 455.402682 222.197275 
L 456.476357 235.234147 
L 457.684242 247.235961 
L 458.892127 257.18477 
L 460.234221 266.43195 
L 461.576315 274.196465 
L 462.91841 280.766185 
L 464.260504 286.336227 
L 465.602598 291.041455 
L 466.944692 294.975541 
L 468.286786 298.202745 
L 469.494671 300.5383 
L 470.568347 302.1785 
L 471.642022 303.416617 
L 472.581488 304.172629 
L 473.386744 304.57724 
L 474.192001 304.755671 
L 474.997257 304.705458 
L 475.802514 304.423222 
L 476.60777 303.904718 
L 477.547236 302.994352 
L 478.486702 301.745927 
L 479.560378 299.890818 
L 480.634053 297.559977 
L 481.841938 294.340054 
L 483.049823 290.448456 
L 484.257707 285.835336 
L 485.599802 279.785865 
L 486.941896 272.652435 
L 488.28399 264.277688 
L 489.626084 254.43946 
L 490.968178 242.814629 
L 492.176063 230.428556 
L 493.383948 215.672746 
L 494.457623 199.928634 
L 495.531299 180.901368 
L 496.604974 157.840148 
L 498.215487 121.957723 
L 498.618115 117.882703 
L 498.752325 117.492535 
L 498.886534 117.622926 
L 499.154953 119.395336 
L 499.557581 125.213102 
L 500.228628 139.542846 
L 501.839141 174.710865 
L 502.912817 193.40632 
L 504.120702 210.468896 
L 505.328586 224.43699 
L 506.670681 237.328806 
L 508.012775 248.177198 
L 509.489078 258.341965 
L 511.099591 267.8214 
L 512.710104 276.003637 
L 514.454827 283.721686 
L 516.333759 290.976792 
L 518.212691 297.354461 
L 520.225832 303.400661 
L 522.373183 309.118298 
L 524.520533 314.215761 
L 526.802094 319.070036 
L 529.217863 323.684938 
L 531.767842 328.067682 
L 534.452031 332.227786 
L 537.270428 336.176222 
L 540.223036 339.924771 
L 543.309852 343.485538 
L 546.530878 346.870593 
L 550.020323 350.214771 
L 553.778187 353.49781 
L 557.67026 356.603014 
L 561.830752 359.640597 
L 566.259663 362.602193 
L 571.091202 365.561437 
L 576.19116 368.424097 
L 581.693746 371.257772 
L 587.598961 374.048993 
L 594.041013 376.844071 
L 601.019903 379.623104 
L 608.53563 382.371218 
L 616.588196 385.077691 
L 625.311808 387.774972 
L 634.840677 390.485603 
L 645.174802 393.190619 
L 656.448393 395.906748 
L 668.661451 398.616198 
L 681.948183 401.331915 
L 685.035 401.932336 
L 685.035 401.932336 
" clip-path="url(#pa7d9666917)" style="fill: none; stroke-dasharray: 14.8,6.4; stroke-dashoffset: 0; stroke: #ff0000; stroke-width: 4"/>
   </g>
   <g id="line2d_72">
    <path d="M 148.197319 374.377681 
L 159.068282 361.483767 
L 161.484052 358.043729 
L 166.315591 350.976991 
L 167.657685 349.452846 
L 168.86557 348.405268 
L 169.939245 347.772316 
L 170.878711 347.464781 
L 171.818177 347.389283 
L 172.757643 347.535779 
L 173.831318 347.945696 
L 175.173413 348.740839 
L 177.589182 350.526781 
L 179.468114 351.795233 
L 180.944418 352.529846 
L 182.286512 352.935904 
L 183.494397 353.071667 
L 184.702282 352.989238 
L 185.910166 352.696239 
L 187.25226 352.141506 
L 188.728564 351.271629 
L 190.204868 350.130046 
L 191.681171 348.706729 
L 193.157475 346.979976 
L 194.633779 344.91366 
L 196.110082 342.48054 
L 197.720595 339.400528 
L 199.465318 335.584036 
L 201.478459 330.617991 
L 203.894229 324.012698 
L 207.786302 313.275312 
L 209.531024 309.176826 
L 211.141537 305.941712 
L 212.75205 303.173477 
L 214.362563 300.840823 
L 215.704658 299.261436 
L 216.912542 298.16832 
L 217.986218 297.491433 
L 218.925684 297.14093 
L 219.86515 297.016568 
L 220.804616 297.114705 
L 221.744081 297.436641 
L 222.683547 297.994132 
L 223.623013 298.808108 
L 224.562479 299.898384 
L 225.636155 301.489453 
L 226.844039 303.681552 
L 228.722971 307.644474 
L 231.541369 313.54823 
L 233.151882 316.395815 
L 234.493976 318.371043 
L 235.701861 319.773555 
L 236.641327 320.56544 
L 237.580793 321.058093 
L 238.38605 321.228195 
L 239.191306 321.160024 
L 239.996563 320.848509 
L 240.801819 320.286884 
L 241.607076 319.468122 
L 242.546542 318.186647 
L 243.620217 316.318787 
L 244.962311 313.485233 
L 247.378081 307.687508 
L 249.391222 303.138944 
L 252.343829 296.605766 
L 253.954342 292.359158 
L 255.967484 286.335781 
L 258.785881 277.84699 
L 259.993766 274.981005 
L 260.933232 273.297811 
L 261.738489 272.245314 
L 262.543745 271.503978 
L 263.483211 270.947633 
L 264.422677 270.647846 
L 265.362143 270.565102 
L 266.301609 270.695235 
L 267.106866 271.01593 
L 267.777913 271.488266 
L 268.44896 272.198682 
L 269.254216 273.403393 
L 270.193682 275.270838 
L 271.535776 278.529228 
L 274.219965 285.181625 
L 275.562059 287.871425 
L 279.722551 295.690472 
L 282.004111 300.126602 
L 283.211996 302.039619 
L 284.285671 303.324878 
L 285.225137 304.078592 
L 286.030394 304.433694 
L 286.701441 304.512551 
L 287.372488 304.37781 
L 288.043535 304.026197 
L 288.848792 303.336837 
L 289.654048 302.369664 
L 290.593514 300.884745 
L 291.667189 298.746207 
L 292.875074 295.83089 
L 294.082959 292.289249 
L 295.290844 287.989804 
L 296.498729 282.820374 
L 297.706613 276.694498 
L 299.048708 268.756749 
L 300.659221 257.807277 
L 303.477618 238.143094 
L 304.282875 234.413836 
L 304.819713 232.790847 
L 305.35655 231.840732 
L 305.759179 231.5008 
L 306.296016 231.387265 
L 307.369692 231.378626 
L 307.77232 231.152794 
L 308.174948 230.710423 
L 308.711786 229.759467 
L 309.382833 228.058455 
L 310.859136 223.420394 
L 311.932812 220.428914 
L 312.603859 219.110687 
L 313.140697 218.537919 
L 313.543325 218.460581 
L 313.945953 218.709984 
L 314.348581 219.277498 
L 314.885419 220.462855 
L 315.824885 223.286541 
L 317.166979 227.305163 
L 317.972236 228.975018 
L 318.643283 229.887916 
L 319.448539 230.591712 
L 320.253796 231.021461 
L 320.790634 231.123006 
L 321.327471 230.992344 
L 321.864309 230.564275 
L 322.535356 229.622002 
L 324.280079 226.825774 
L 324.682707 226.572531 
L 325.085335 226.580784 
L 325.487963 226.855735 
L 326.024801 227.593584 
L 326.830057 229.243943 
L 328.172152 232.032326 
L 328.708989 232.651501 
L 329.111618 232.797795 
L 329.514246 232.628297 
L 329.916874 232.114606 
L 330.319502 231.23312 
L 330.85634 229.448745 
L 331.527387 226.182719 
L 332.198434 221.736365 
L 333.003691 214.820591 
L 333.808947 206.017888 
L 334.614204 194.989221 
L 335.55367 178.940933 
L 337.432602 143.964449 
L 337.701021 141.688968 
L 337.83523 141.177244 
L 337.969439 141.120343 
L 338.103649 141.527464 
L 338.372068 143.687936 
L 338.774696 149.769492 
L 339.579952 167.378368 
L 341.056256 200.065095 
L 342.129931 219.336002 
L 343.337816 236.922866 
L 344.545701 251.164668 
L 345.753586 262.864944 
L 346.961471 272.582155 
L 348.169355 280.691669 
L 349.37724 287.461778 
L 350.585125 293.092415 
L 351.79301 297.732173 
L 353.000894 301.493933 
L 354.07457 304.178668 
L 355.148245 306.304699 
L 356.087711 307.740915 
L 357.027177 308.800423 
L 357.832434 309.4192 
L 358.63769 309.786896 
L 359.442947 309.920309 
L 360.248203 309.837855 
L 361.05346 309.535733 
L 361.858716 308.98947 
L 362.798182 308.085873 
L 363.737648 306.892439 
L 364.677114 305.354612 
L 365.884999 302.899763 
L 367.227093 299.72362 
L 368.434978 296.203123 
L 369.911281 291.167039 
L 371.387585 285.228364 
L 372.729679 278.751221 
L 374.071773 271.138444 
L 375.413868 262.203571 
L 376.621752 252.612231 
L 377.695428 242.500596 
L 378.769103 230.265097 
L 379.842778 215.153018 
L 380.782244 198.452461 
L 381.587501 180.174496 
L 382.392757 156.194545 
L 383.063805 128.901383 
L 383.869061 84.33479 
L 384.271689 68.061101 
L 384.405899 67.935057 
L 384.540108 71.057535 
L 384.942736 92.228408 
L 385.882202 143.585601 
L 386.687459 174.182941 
L 387.626925 200.468239 
L 388.566391 220.814926 
L 389.640066 239.603624 
L 390.847951 257.039055 
L 392.190045 273.331878 
L 393.666349 288.677375 
L 395.411071 304.388132 
L 397.290003 319.247719 
L 399.437354 334.425275 
L 401.987333 350.826672 
L 409.905689 400.486143 
L 411.381992 412.110368 
L 412.455668 422.182826 
L 413.395134 432.953363 
L 414.20039 444.71616 
L 414.871437 457.775724 
L 415.408275 472.368155 
L 415.810903 488.359856 
L 416.213531 515.603222 
L 416.48195 558.716506 
L 416.483317 577 
M 416.749002 577 
L 416.750369 558.71732 
L 417.018788 515.605665 
L 417.421416 488.364744 
L 417.958254 468.207031 
L 418.629301 452.068184 
L 419.434557 438.464645 
L 420.374023 426.534844 
L 421.447699 415.709407 
L 422.789793 404.534327 
L 424.400306 393.042044 
L 426.681866 378.528114 
L 433.929175 333.66471 
L 436.076526 318.422738 
L 437.955457 303.475754 
L 439.56597 288.94689 
L 441.042274 273.660543 
L 442.384368 257.442237 
L 443.592253 240.097252 
L 444.665928 221.442775 
L 445.605394 201.288836 
L 446.410651 179.513913 
L 447.215907 150.88991 
L 447.886955 118.434939 
L 448.82642 68.5799 
L 448.96063 67.828717 
L 449.094839 70.305048 
L 449.363258 82.256764 
L 450.436933 139.208667 
L 451.24219 168.022097 
L 452.047447 189.065756 
L 452.986912 207.767756 
L 454.060588 224.293442 
L 455.134263 237.403676 
L 456.342148 249.673351 
L 457.550033 259.766904 
L 458.757918 268.226022 
L 460.100012 276.102937 
L 461.710525 284.303592 
L 463.186828 290.463602 
L 464.528923 295.187655 
L 466.005226 299.528145 
L 467.34732 302.813716 
L 468.420996 304.942505 
L 469.628881 306.850982 
L 470.836765 308.294944 
L 471.776231 309.119226 
L 472.581488 309.562609 
L 473.386744 309.785046 
L 474.192001 309.765796 
L 474.997257 309.507284 
L 475.802514 309.026184 
L 476.60777 308.300365 
L 477.413027 307.302848 
L 478.352493 305.772239 
L 479.291959 303.836089 
L 480.365634 301.086756 
L 481.43931 297.706991 
L 482.647194 293.07869 
L 483.855079 287.463312 
L 485.062964 280.70988 
L 486.270849 272.619958 
L 487.478733 262.927409 
L 488.686618 251.251776 
L 489.760294 238.77917 
L 490.833969 223.789677 
L 491.907644 205.56734 
L 492.98132 183.422793 
L 494.726042 145.672843 
L 495.12867 141.593575 
L 495.26288 141.098295 
L 495.397089 141.064832 
L 495.531299 141.486918 
L 495.799718 143.596163 
L 496.202346 149.272034 
L 497.141812 167.667058 
L 498.349697 190.113598 
L 499.289162 203.841931 
L 500.228628 214.458407 
L 501.033885 221.389582 
L 501.839141 226.556573 
L 502.510189 229.616191 
L 503.047026 231.287573 
L 503.583864 232.294954 
L 503.986492 232.64204 
L 504.38912 232.668926 
L 504.791749 232.408547 
L 505.328586 231.688271 
L 506.133843 230.087554 
L 507.341728 227.644459 
L 507.878565 226.947618 
L 508.281194 226.683826 
L 508.683822 226.673569 
L 509.08645 226.921552 
L 509.623288 227.597821 
L 511.636429 230.666481 
L 512.173267 230.964565 
L 512.710104 230.989594 
L 513.381152 230.739584 
L 514.186408 230.174851 
L 514.857455 229.471926 
L 515.528502 228.433684 
L 516.199549 226.960991 
L 517.139015 224.241157 
L 518.615319 219.805751 
L 519.152157 218.774878 
L 519.554785 218.3728 
L 519.957413 218.321845 
L 520.360041 218.614245 
L 520.76267 219.210126 
L 521.433717 220.715466 
L 522.507392 223.886811 
L 524.117905 228.67228 
L 524.788952 230.06744 
L 525.32579 230.769097 
L 525.862628 231.104007 
L 526.533675 231.173283 
L 527.204722 231.228678 
L 527.60735 231.455491 
L 528.009978 231.944351 
L 528.412607 232.76511 
L 528.949444 234.438804 
L 529.620491 237.457574 
L 530.425748 242.22685 
L 531.902052 252.739654 
L 533.915193 266.792946 
L 535.525706 276.299735 
L 537.00201 283.696585 
L 538.209894 288.704112 
L 539.551989 293.326009 
L 540.759873 296.763279 
L 541.967758 299.586179 
L 543.041433 301.580504 
L 543.980899 302.903558 
L 544.920365 303.826426 
L 545.725622 304.309742 
L 546.530878 304.520475 
L 547.201925 304.482964 
L 547.872973 304.240368 
L 548.678229 303.674444 
L 549.483486 302.822785 
L 550.422952 301.502715 
L 551.630836 299.377036 
L 554.046606 294.494256 
L 556.059747 290.693178 
L 558.609726 286.001007 
L 559.95182 282.931989 
L 563.575475 274.170265 
L 564.514941 272.657033 
L 565.320197 271.768723 
L 566.125454 271.227232 
L 566.93071 270.959289 
L 567.870176 270.87852 
L 568.943852 270.989321 
L 570.017527 271.328546 
L 570.822783 271.809022 
L 571.62804 272.575472 
L 572.433296 273.704042 
L 573.238553 275.228528 
L 574.178019 277.474217 
L 575.520113 281.317255 
L 579.814815 294.107827 
L 581.425328 298.081969 
L 583.572678 302.702258 
L 585.854238 307.756014 
L 589.343683 315.676262 
L 590.551568 317.847685 
L 591.625244 319.365733 
L 592.564709 320.34305 
L 593.369966 320.901398 
L 594.175223 321.190513 
L 594.980479 321.211042 
L 595.785736 320.975925 
L 596.590992 320.505473 
L 597.530458 319.689178 
L 598.604133 318.447435 
L 599.946228 316.513312 
L 601.556741 313.755128 
L 603.301463 310.313982 
L 607.461955 301.85164 
L 608.66984 300.048554 
L 609.743515 298.840272 
L 610.817191 297.988072 
L 611.756657 297.506011 
L 612.696123 297.247558 
L 613.635588 297.200984 
L 614.575054 297.363461 
L 615.51452 297.738946 
L 616.588196 298.431818 
L 617.661871 299.39059 
L 619.003965 300.914424 
L 620.480269 302.963924 
L 621.956573 305.415103 
L 623.432876 308.311084 
L 625.043389 312.010319 
L 626.788112 316.603566 
L 633.364373 334.61415 
L 635.243305 338.80407 
L 636.988028 342.183509 
L 638.73275 345.067114 
L 640.343263 347.304905 
L 641.819567 349.007977 
L 643.29587 350.384853 
L 644.772174 351.46108 
L 646.248478 352.261058 
L 647.590572 352.745452 
L 648.932666 352.982576 
L 650.140551 352.972853 
L 651.348436 352.747374 
L 652.69053 352.24952 
L 654.166833 351.42948 
L 656.179975 350.003576 
L 658.595744 348.331821 
L 659.803629 347.744204 
L 660.877304 347.464009 
L 661.81677 347.446774 
L 662.756236 347.660992 
L 663.695702 348.108393 
L 664.769378 348.890415 
L 665.977262 350.079454 
L 667.319357 351.722509 
L 669.064079 354.223139 
L 674.700875 362.586429 
L 676.982435 365.392909 
L 680.606089 369.41908 
L 685.035 374.437479 
L 685.035 374.437479 
" clip-path="url(#pa7d9666917)" style="fill: none; stroke: #0000ff; stroke-width: 1.5; stroke-linecap: square"/>
   </g>
   <g id="patch_3">
    <path d="M 148.197319 489.1525 
L 148.197319 37.512 
" style="fill: none; stroke: #000000; stroke-width: 0.8; stroke-linejoin: miter; stroke-linecap: square"/>
   </g>
   <g id="patch_4">
    <path d="M 685.035 489.1525 
L 685.035 37.512 
" style="fill: none; stroke: #000000; stroke-width: 0.8; stroke-linejoin: miter; stroke-linecap: square"/>
   </g>
   <g id="patch_5">
    <path d="M 148.197319 489.1525 
L 685.035 489.1525 
" style="fill: none; stroke: #000000; stroke-width: 0.8; stroke-linejoin: miter; stroke-linecap: square"/>
   </g>
   <g id="patch_6">
    <path d="M 148.197319 37.512 
L 685.035 37.512 
" style="fill: none; stroke: #000000; stroke-width: 0.8; stroke-linejoin: miter; stroke-linecap: square"/>
   </g>
   <g id="legend_1">
    <g id="patch_7">
     <path d="M 554.985 101.052156 
L 676.535 101.052156 
L 676.535 46.012 
L 554.985 46.012 
z
" style="fill: #ffffff; opacity: 0.8; stroke: #000000; stroke-linejoin: miter"/>
    </g>
    <g id="line2d_73">
     <path d="M 561.785 59.779344 
L 578.785 59.779344 
L 595.785 59.779344 
" style="fill: none; stroke-dasharray: 14.8,6.4; stroke-dashoffset: 0; stroke: #ff0000; stroke-width: 4"/>
    </g>
    <g id="text_18">
     <!-- $\rho_0$ -->
     <g transform="translate(609.385 65.729344) scale(0.17 -0.17)">
      <use xlink:href="#DejaVuSans-Oblique-3c1"/>
      <use xlink:href="#DejaVuSans-30" transform="translate(63.476562 -16.40625) scale(0.7)"/>
     </g>
    </g>
    <g id="line2d_74">
     <path d="M 561.785 84.766687 
L 578.785 84.766687 
L 595.785 84.766687 
" style="fill: none; stroke: #0000ff; stroke-width: 1.5; stroke-linecap: square"/>
    </g>
    <g id="text_19">
     <!-- $\it{U=3.0}$ -->
     <g transform="translate(609.385 90.716687) scale(0.17 -0.17)">
      <defs>
       <path id="DejaVuSans-Oblique-55" d="M 991 4666 
L 1625 4666 
L 1075 1831 
Q 1041 1641 1027 1517 
Q 1013 1394 1013 1300 
Q 1013 869 1253 645 
Q 1494 422 1959 422 
Q 2563 422 2898 753 
Q 3234 1084 3378 1831 
L 3928 4666 
L 4563 4666 
L 4000 1753 
Q 3816 809 3300 359 
Q 2784 -91 1888 -91 
Q 1188 -91 780 261 
Q 372 613 372 1216 
Q 372 1325 387 1461 
Q 403 1597 434 1753 
L 991 4666 
z
" transform="scale(0.015625)"/>
       <path id="DejaVuSans-3d" d="M 678 2906 
L 4684 2906 
L 4684 2381 
L 678 2381 
L 678 2906 
z
M 678 1631 
L 4684 1631 
L 4684 1100 
L 678 1100 
L 678 1631 
z
" transform="scale(0.015625)"/>
       <path id="DejaVuSans-2e" d="M 684 794 
L 1344 794 
L 1344 0 
L 684 0 
L 684 794 
z
" transform="scale(0.015625)"/>
      </defs>
      <use xlink:href="#DejaVuSans-Oblique-55" transform="translate(0 0.78125)"/>
      <use xlink:href="#DejaVuSans-3d" transform="translate(92.675781 0.78125)"/>
      <use xlink:href="#DejaVuSans-33" transform="translate(195.947266 0.78125)"/>
      <use xlink:href="#DejaVuSans-2e" transform="translate(259.570312 0.78125)"/>
      <use xlink:href="#DejaVuSans-30" transform="translate(291.357422 0.78125)"/>
     </g>
    </g>
   </g>
  </g>
 </g>
 <defs>
  <clipPath id="pa7d9666917">
   <rect x="148.197319" y="37.512" width="536.837681" height="451.6405"/>
  </clipPath>
 </defs>
</svg>
