<?xml version="1.0" encoding="utf-8" standalone="no"?>
<!DOCTYPE svg PUBLIC "-//W3C//DTD SVG 1.1//EN"
  "http://www.w3.org/Graphics/SVG/1.1/DTD/svg11.dtd">
<svg xmlns:xlink="http://www.w3.org/1999/xlink" width="720pt" height="576pt" viewBox="0 0 720 576" xmlns="http://www.w3.org/2000/svg" version="1.1">
 <metadata>
  <rdf:RDF xmlns:dc="http://purl.org/dc/elements/1.1/" xmlns:cc="http://creativecommons.org/ns#" xmlns:rdf="http://www.w3.org/1999/02/22-rdf-syntax-ns#">
   <cc:Work>
    <dc:type rdf:resource="http://purl.org/dc/dcmitype/StillImage"/>
    <dc:date>2023-04-12T01:06:16.144979</dc:date>
    <dc:format>image/svg+xml</dc:format>
    <dc:creator>
     <cc:Agent>
      <dc:title>Matplotlib v3.7.1, https://matplotlib.org/</dc:title>
     </cc:Agent>
    </dc:creator>
   </cc:Work>
  </rdf:RDF>
 </metadata>
 <defs>
  <style type="text/css">*{stroke-linejoin: round; stroke-linecap: butt}</style>
 </defs>
 <g id="figure_1">
  <g id="patch_1">
   <path d="M 0 576 
L 720 576 
L 720 0 
L 0 0 
z
" style="fill: #ffffff"/>
  </g>
  <g id="axes_1">
   <g id="patch_2">
    <path d="M 148.197319 489.1525 
L 685.035 489.1525 
L 685.035 37.512 
L 148.197319 37.512 
z
" style="fill: #ffffff"/>
   </g>
   <g id="matplotlib.axis_1">
    <g id="xtick_1">
     <g id="line2d_1">
      <path d="M 148.197319 489.1525 
L 148.197319 37.512 
" clip-path="url(#p6251a60e38)" style="fill: none; stroke: #b0b0b0; stroke-width: 0.8; stroke-linecap: square"/>
     </g>
     <g id="line2d_2">
      <defs>
       <path id="m954a921667" d="M 0 0 
L 0 3.5 
" style="stroke: #000000; stroke-width: 0.8"/>
      </defs>
      <g>
       <use xlink:href="#m954a921667" x="148.197319" y="489.1525" style="stroke: #000000; stroke-width: 0.8"/>
      </g>
     </g>
     <g id="text_1">
      <!-- −8 -->
      <g transform="translate(129.769585 515.148594) scale(0.25 -0.25)">
       <defs>
        <path id="DejaVuSans-2212" d="M 678 2272 
L 4684 2272 
L 4684 1741 
L 678 1741 
L 678 2272 
z
" transform="scale(0.015625)"/>
        <path id="DejaVuSans-38" d="M 2034 2216 
Q 1584 2216 1326 1975 
Q 1069 1734 1069 1313 
Q 1069 891 1326 650 
Q 1584 409 2034 409 
Q 2484 409 2743 651 
Q 3003 894 3003 1313 
Q 3003 1734 2745 1975 
Q 2488 2216 2034 2216 
z
M 1403 2484 
Q 997 2584 770 2862 
Q 544 3141 544 3541 
Q 544 4100 942 4425 
Q 1341 4750 2034 4750 
Q 2731 4750 3128 4425 
Q 3525 4100 3525 3541 
Q 3525 3141 3298 2862 
Q 3072 2584 2669 2484 
Q 3125 2378 3379 2068 
Q 3634 1759 3634 1313 
Q 3634 634 3220 271 
Q 2806 -91 2034 -91 
Q 1263 -91 848 271 
Q 434 634 434 1313 
Q 434 1759 690 2068 
Q 947 2378 1403 2484 
z
M 1172 3481 
Q 1172 3119 1398 2916 
Q 1625 2713 2034 2713 
Q 2441 2713 2670 2916 
Q 2900 3119 2900 3481 
Q 2900 3844 2670 4047 
Q 2441 4250 2034 4250 
Q 1625 4250 1398 4047 
Q 1172 3844 1172 3481 
z
" transform="scale(0.015625)"/>
       </defs>
       <use xlink:href="#DejaVuSans-2212"/>
       <use xlink:href="#DejaVuSans-38" x="83.789062"/>
      </g>
     </g>
    </g>
    <g id="xtick_2">
     <g id="line2d_3">
      <path d="M 215.302029 489.1525 
L 215.302029 37.512 
" clip-path="url(#p6251a60e38)" style="fill: none; stroke: #b0b0b0; stroke-width: 0.8; stroke-linecap: square"/>
     </g>
     <g id="line2d_4">
      <g>
       <use xlink:href="#m954a921667" x="215.302029" y="489.1525" style="stroke: #000000; stroke-width: 0.8"/>
      </g>
     </g>
     <g id="text_2">
      <!-- −6 -->
      <g transform="translate(196.874295 515.148594) scale(0.25 -0.25)">
       <defs>
        <path id="DejaVuSans-36" d="M 2113 2584 
Q 1688 2584 1439 2293 
Q 1191 2003 1191 1497 
Q 1191 994 1439 701 
Q 1688 409 2113 409 
Q 2538 409 2786 701 
Q 3034 994 3034 1497 
Q 3034 2003 2786 2293 
Q 2538 2584 2113 2584 
z
M 3366 4563 
L 3366 3988 
Q 3128 4100 2886 4159 
Q 2644 4219 2406 4219 
Q 1781 4219 1451 3797 
Q 1122 3375 1075 2522 
Q 1259 2794 1537 2939 
Q 1816 3084 2150 3084 
Q 2853 3084 3261 2657 
Q 3669 2231 3669 1497 
Q 3669 778 3244 343 
Q 2819 -91 2113 -91 
Q 1303 -91 875 529 
Q 447 1150 447 2328 
Q 447 3434 972 4092 
Q 1497 4750 2381 4750 
Q 2619 4750 2861 4703 
Q 3103 4656 3366 4563 
z
" transform="scale(0.015625)"/>
       </defs>
       <use xlink:href="#DejaVuSans-2212"/>
       <use xlink:href="#DejaVuSans-36" x="83.789062"/>
      </g>
     </g>
    </g>
    <g id="xtick_3">
     <g id="line2d_5">
      <path d="M 282.406739 489.1525 
L 282.406739 37.512 
" clip-path="url(#p6251a60e38)" style="fill: none; stroke: #b0b0b0; stroke-width: 0.8; stroke-linecap: square"/>
     </g>
     <g id="line2d_6">
      <g>
       <use xlink:href="#m954a921667" x="282.406739" y="489.1525" style="stroke: #000000; stroke-width: 0.8"/>
      </g>
     </g>
     <g id="text_3">
      <!-- −4 -->
      <g transform="translate(263.979005 515.148594) scale(0.25 -0.25)">
       <defs>
        <path id="DejaVuSans-34" d="M 2419 4116 
L 825 1625 
L 2419 1625 
L 2419 4116 
z
M 2253 4666 
L 3047 4666 
L 3047 1625 
L 3713 1625 
L 3713 1100 
L 3047 1100 
L 3047 0 
L 2419 0 
L 2419 1100 
L 313 1100 
L 313 1709 
L 2253 4666 
z
" transform="scale(0.015625)"/>
       </defs>
       <use xlink:href="#DejaVuSans-2212"/>
       <use xlink:href="#DejaVuSans-34" x="83.789062"/>
      </g>
     </g>
    </g>
    <g id="xtick_4">
     <g id="line2d_7">
      <path d="M 349.51145 489.1525 
L 349.51145 37.512 
" clip-path="url(#p6251a60e38)" style="fill: none; stroke: #b0b0b0; stroke-width: 0.8; stroke-linecap: square"/>
     </g>
     <g id="line2d_8">
      <g>
       <use xlink:href="#m954a921667" x="349.51145" y="489.1525" style="stroke: #000000; stroke-width: 0.8"/>
      </g>
     </g>
     <g id="text_4">
      <!-- −2 -->
      <g transform="translate(331.083715 515.148594) scale(0.25 -0.25)">
       <defs>
        <path id="DejaVuSans-32" d="M 1228 531 
L 3431 531 
L 3431 0 
L 469 0 
L 469 531 
Q 828 903 1448 1529 
Q 2069 2156 2228 2338 
Q 2531 2678 2651 2914 
Q 2772 3150 2772 3378 
Q 2772 3750 2511 3984 
Q 2250 4219 1831 4219 
Q 1534 4219 1204 4116 
Q 875 4013 500 3803 
L 500 4441 
Q 881 4594 1212 4672 
Q 1544 4750 1819 4750 
Q 2544 4750 2975 4387 
Q 3406 4025 3406 3419 
Q 3406 3131 3298 2873 
Q 3191 2616 2906 2266 
Q 2828 2175 2409 1742 
Q 1991 1309 1228 531 
z
" transform="scale(0.015625)"/>
       </defs>
       <use xlink:href="#DejaVuSans-2212"/>
       <use xlink:href="#DejaVuSans-32" x="83.789062"/>
      </g>
     </g>
    </g>
    <g id="xtick_5">
     <g id="line2d_9">
      <path d="M 416.61616 489.1525 
L 416.61616 37.512 
" clip-path="url(#p6251a60e38)" style="fill: none; stroke: #b0b0b0; stroke-width: 0.8; stroke-linecap: square"/>
     </g>
     <g id="line2d_10">
      <g>
       <use xlink:href="#m954a921667" x="416.61616" y="489.1525" style="stroke: #000000; stroke-width: 0.8"/>
      </g>
     </g>
     <g id="text_5">
      <!-- 0 -->
      <g transform="translate(408.663035 515.148594) scale(0.25 -0.25)">
       <defs>
        <path id="DejaVuSans-30" d="M 2034 4250 
Q 1547 4250 1301 3770 
Q 1056 3291 1056 2328 
Q 1056 1369 1301 889 
Q 1547 409 2034 409 
Q 2525 409 2770 889 
Q 3016 1369 3016 2328 
Q 3016 3291 2770 3770 
Q 2525 4250 2034 4250 
z
M 2034 4750 
Q 2819 4750 3233 4129 
Q 3647 3509 3647 2328 
Q 3647 1150 3233 529 
Q 2819 -91 2034 -91 
Q 1250 -91 836 529 
Q 422 1150 422 2328 
Q 422 3509 836 4129 
Q 1250 4750 2034 4750 
z
" transform="scale(0.015625)"/>
       </defs>
       <use xlink:href="#DejaVuSans-30"/>
      </g>
     </g>
    </g>
    <g id="xtick_6">
     <g id="line2d_11">
      <path d="M 483.72087 489.1525 
L 483.72087 37.512 
" clip-path="url(#p6251a60e38)" style="fill: none; stroke: #b0b0b0; stroke-width: 0.8; stroke-linecap: square"/>
     </g>
     <g id="line2d_12">
      <g>
       <use xlink:href="#m954a921667" x="483.72087" y="489.1525" style="stroke: #000000; stroke-width: 0.8"/>
      </g>
     </g>
     <g id="text_6">
      <!-- 2 -->
      <g transform="translate(475.767745 515.148594) scale(0.25 -0.25)">
       <use xlink:href="#DejaVuSans-32"/>
      </g>
     </g>
    </g>
    <g id="xtick_7">
     <g id="line2d_13">
      <path d="M 550.82558 489.1525 
L 550.82558 37.512 
" clip-path="url(#p6251a60e38)" style="fill: none; stroke: #b0b0b0; stroke-width: 0.8; stroke-linecap: square"/>
     </g>
     <g id="line2d_14">
      <g>
       <use xlink:href="#m954a921667" x="550.82558" y="489.1525" style="stroke: #000000; stroke-width: 0.8"/>
      </g>
     </g>
     <g id="text_7">
      <!-- 4 -->
      <g transform="translate(542.872455 515.148594) scale(0.25 -0.25)">
       <use xlink:href="#DejaVuSans-34"/>
      </g>
     </g>
    </g>
    <g id="xtick_8">
     <g id="line2d_15">
      <path d="M 617.93029 489.1525 
L 617.93029 37.512 
" clip-path="url(#p6251a60e38)" style="fill: none; stroke: #b0b0b0; stroke-width: 0.8; stroke-linecap: square"/>
     </g>
     <g id="line2d_16">
      <g>
       <use xlink:href="#m954a921667" x="617.93029" y="489.1525" style="stroke: #000000; stroke-width: 0.8"/>
      </g>
     </g>
     <g id="text_8">
      <!-- 6 -->
      <g transform="translate(609.977165 515.148594) scale(0.25 -0.25)">
       <use xlink:href="#DejaVuSans-36"/>
      </g>
     </g>
    </g>
    <g id="xtick_9">
     <g id="line2d_17">
      <path d="M 685.035 489.1525 
L 685.035 37.512 
" clip-path="url(#p6251a60e38)" style="fill: none; stroke: #b0b0b0; stroke-width: 0.8; stroke-linecap: square"/>
     </g>
     <g id="line2d_18">
      <g>
       <use xlink:href="#m954a921667" x="685.035" y="489.1525" style="stroke: #000000; stroke-width: 0.8"/>
      </g>
     </g>
     <g id="text_9">
      <!-- 8 -->
      <g transform="translate(677.081875 515.148594) scale(0.25 -0.25)">
       <use xlink:href="#DejaVuSans-38"/>
      </g>
     </g>
    </g>
    <g id="text_10">
     <!-- $\omega$ [-] -->
     <g transform="translate(391.74116 541.351719) scale(0.25 -0.25)">
      <defs>
       <path id="DejaVuSans-Oblique-3c9" d="M 1369 -91 
Q 72 -91 434 1766 
Q 575 2500 1256 3500 
L 1875 3500 
Q 1231 2500 1088 1750 
Q 819 397 1519 397 
Q 2166 397 2478 2078 
L 3009 2078 
Q 2669 388 3316 397 
Q 4013 403 4275 1750 
Q 4419 2500 4169 3500 
L 4788 3500 
Q 5075 2500 4934 1766 
Q 4578 -94 3278 -91 
Q 2428 -88 2503 844 
Q 2194 -91 1369 -91 
z
" transform="scale(0.015625)"/>
       <path id="Calibri-20" transform="scale(0.015625)"/>
       <path id="Calibri-5b" d="M 1684 -813 
Q 1684 -916 1661 -958 
Q 1638 -1000 1594 -1000 
L 794 -1000 
Q 756 -1000 722 -989 
Q 688 -978 659 -953 
Q 631 -928 614 -886 
Q 597 -844 597 -781 
L 597 4153 
Q 597 4213 614 4255 
Q 631 4297 659 4323 
Q 688 4350 722 4361 
Q 756 4372 794 4372 
L 1594 4372 
Q 1613 4372 1630 4362 
Q 1647 4353 1659 4328 
Q 1672 4303 1678 4267 
Q 1684 4231 1684 4178 
Q 1684 4078 1661 4034 
Q 1638 3991 1594 3991 
L 1084 3991 
L 1084 -622 
L 1594 -622 
Q 1613 -622 1630 -631 
Q 1647 -641 1659 -664 
Q 1672 -688 1678 -723 
Q 1684 -759 1684 -813 
z
" transform="scale(0.015625)"/>
       <path id="Calibri-2d" d="M 1744 1578 
Q 1744 1456 1716 1409 
Q 1688 1363 1634 1363 
L 328 1363 
Q 272 1363 244 1411 
Q 216 1459 216 1578 
Q 216 1697 244 1744 
Q 272 1791 328 1791 
L 1634 1791 
Q 1659 1791 1679 1781 
Q 1700 1772 1714 1745 
Q 1728 1719 1736 1678 
Q 1744 1638 1744 1578 
z
" transform="scale(0.015625)"/>
       <path id="Calibri-5d" d="M 1369 -781 
Q 1369 -844 1351 -886 
Q 1334 -928 1306 -953 
Q 1278 -978 1242 -989 
Q 1206 -1000 1169 -1000 
L 372 -1000 
Q 328 -1000 304 -958 
Q 281 -916 281 -813 
Q 281 -759 286 -723 
Q 291 -688 303 -664 
Q 316 -641 333 -631 
Q 350 -622 372 -622 
L 881 -622 
L 881 3991 
L 372 3991 
Q 328 3991 304 4034 
Q 281 4078 281 4178 
Q 281 4231 286 4267 
Q 291 4303 303 4328 
Q 316 4353 333 4362 
Q 350 4372 372 4372 
L 1169 4372 
Q 1206 4372 1242 4361 
Q 1278 4350 1306 4323 
Q 1334 4297 1351 4255 
Q 1369 4213 1369 4153 
L 1369 -781 
z
" transform="scale(0.015625)"/>
      </defs>
      <use xlink:href="#DejaVuSans-Oblique-3c9" transform="translate(0 0.6875)"/>
      <use xlink:href="#Calibri-20" transform="translate(83.740234 0.6875)"/>
      <use xlink:href="#Calibri-5b" transform="translate(106.347656 0.6875)"/>
      <use xlink:href="#Calibri-2d" transform="translate(137.011719 0.6875)"/>
      <use xlink:href="#Calibri-5d" transform="translate(167.626953 0.6875)"/>
     </g>
    </g>
   </g>
   <g id="matplotlib.axis_2">
    <g id="ytick_1">
     <g id="line2d_19">
      <path d="M 148.197319 489.1525 
L 685.035 489.1525 
" clip-path="url(#p6251a60e38)" style="fill: none; stroke: #b0b0b0; stroke-width: 0.8; stroke-linecap: square"/>
     </g>
     <g id="line2d_20">
      <defs>
       <path id="mae090bbb2f" d="M 0 0 
L -3.5 0 
" style="stroke: #000000; stroke-width: 0.8"/>
      </defs>
      <g>
       <use xlink:href="#mae090bbb2f" x="148.197319" y="489.1525" style="stroke: #000000; stroke-width: 0.8"/>
      </g>
     </g>
     <g id="text_11">
      <!-- $\mathdefault{10^{-4}}$ -->
      <g transform="translate(82.447319 498.650547) scale(0.25 -0.25)">
       <defs>
        <path id="DejaVuSans-31" d="M 794 531 
L 1825 531 
L 1825 4091 
L 703 3866 
L 703 4441 
L 1819 4666 
L 2450 4666 
L 2450 531 
L 3481 531 
L 3481 0 
L 794 0 
L 794 531 
z
" transform="scale(0.015625)"/>
       </defs>
       <use xlink:href="#DejaVuSans-31" transform="translate(0 0.684375)"/>
       <use xlink:href="#DejaVuSans-30" transform="translate(63.623047 0.684375)"/>
       <use xlink:href="#DejaVuSans-2212" transform="translate(128.203125 38.965625) scale(0.7)"/>
       <use xlink:href="#DejaVuSans-34" transform="translate(186.855469 38.965625) scale(0.7)"/>
      </g>
     </g>
    </g>
    <g id="ytick_2">
     <g id="line2d_21">
      <path d="M 148.197319 398.8244 
L 685.035 398.8244 
" clip-path="url(#p6251a60e38)" style="fill: none; stroke: #b0b0b0; stroke-width: 0.8; stroke-linecap: square"/>
     </g>
     <g id="line2d_22">
      <g>
       <use xlink:href="#mae090bbb2f" x="148.197319" y="398.8244" style="stroke: #000000; stroke-width: 0.8"/>
      </g>
     </g>
     <g id="text_12">
      <!-- $\mathdefault{10^{-3}}$ -->
      <g transform="translate(82.447319 408.322447) scale(0.25 -0.25)">
       <defs>
        <path id="DejaVuSans-33" d="M 2597 2516 
Q 3050 2419 3304 2112 
Q 3559 1806 3559 1356 
Q 3559 666 3084 287 
Q 2609 -91 1734 -91 
Q 1441 -91 1130 -33 
Q 819 25 488 141 
L 488 750 
Q 750 597 1062 519 
Q 1375 441 1716 441 
Q 2309 441 2620 675 
Q 2931 909 2931 1356 
Q 2931 1769 2642 2001 
Q 2353 2234 1838 2234 
L 1294 2234 
L 1294 2753 
L 1863 2753 
Q 2328 2753 2575 2939 
Q 2822 3125 2822 3475 
Q 2822 3834 2567 4026 
Q 2313 4219 1838 4219 
Q 1578 4219 1281 4162 
Q 984 4106 628 3988 
L 628 4550 
Q 988 4650 1302 4700 
Q 1616 4750 1894 4750 
Q 2613 4750 3031 4423 
Q 3450 4097 3450 3541 
Q 3450 3153 3228 2886 
Q 3006 2619 2597 2516 
z
" transform="scale(0.015625)"/>
       </defs>
       <use xlink:href="#DejaVuSans-31" transform="translate(0 0.765625)"/>
       <use xlink:href="#DejaVuSans-30" transform="translate(63.623047 0.765625)"/>
       <use xlink:href="#DejaVuSans-2212" transform="translate(128.203125 39.046875) scale(0.7)"/>
       <use xlink:href="#DejaVuSans-33" transform="translate(186.855469 39.046875) scale(0.7)"/>
      </g>
     </g>
    </g>
    <g id="ytick_3">
     <g id="line2d_23">
      <path d="M 148.197319 308.4963 
L 685.035 308.4963 
" clip-path="url(#p6251a60e38)" style="fill: none; stroke: #b0b0b0; stroke-width: 0.8; stroke-linecap: square"/>
     </g>
     <g id="line2d_24">
      <g>
       <use xlink:href="#mae090bbb2f" x="148.197319" y="308.4963" style="stroke: #000000; stroke-width: 0.8"/>
      </g>
     </g>
     <g id="text_13">
      <!-- $\mathdefault{10^{-2}}$ -->
      <g transform="translate(82.447319 317.994347) scale(0.25 -0.25)">
       <use xlink:href="#DejaVuSans-31" transform="translate(0 0.765625)"/>
       <use xlink:href="#DejaVuSans-30" transform="translate(63.623047 0.765625)"/>
       <use xlink:href="#DejaVuSans-2212" transform="translate(128.203125 39.046875) scale(0.7)"/>
       <use xlink:href="#DejaVuSans-32" transform="translate(186.855469 39.046875) scale(0.7)"/>
      </g>
     </g>
    </g>
    <g id="ytick_4">
     <g id="line2d_25">
      <path d="M 148.197319 218.1682 
L 685.035 218.1682 
" clip-path="url(#p6251a60e38)" style="fill: none; stroke: #b0b0b0; stroke-width: 0.8; stroke-linecap: square"/>
     </g>
     <g id="line2d_26">
      <g>
       <use xlink:href="#mae090bbb2f" x="148.197319" y="218.1682" style="stroke: #000000; stroke-width: 0.8"/>
      </g>
     </g>
     <g id="text_14">
      <!-- $\mathdefault{10^{-1}}$ -->
      <g transform="translate(82.447319 227.666247) scale(0.25 -0.25)">
       <use xlink:href="#DejaVuSans-31" transform="translate(0 0.684375)"/>
       <use xlink:href="#DejaVuSans-30" transform="translate(63.623047 0.684375)"/>
       <use xlink:href="#DejaVuSans-2212" transform="translate(128.203125 38.965625) scale(0.7)"/>
       <use xlink:href="#DejaVuSans-31" transform="translate(186.855469 38.965625) scale(0.7)"/>
      </g>
     </g>
    </g>
    <g id="ytick_5">
     <g id="line2d_27">
      <path d="M 148.197319 127.8401 
L 685.035 127.8401 
" clip-path="url(#p6251a60e38)" style="fill: none; stroke: #b0b0b0; stroke-width: 0.8; stroke-linecap: square"/>
     </g>
     <g id="line2d_28">
      <g>
       <use xlink:href="#mae090bbb2f" x="148.197319" y="127.8401" style="stroke: #000000; stroke-width: 0.8"/>
      </g>
     </g>
     <g id="text_15">
      <!-- $\mathdefault{10^{0}}$ -->
      <g transform="translate(97.197319 137.338147) scale(0.25 -0.25)">
       <use xlink:href="#DejaVuSans-31" transform="translate(0 0.765625)"/>
       <use xlink:href="#DejaVuSans-30" transform="translate(63.623047 0.765625)"/>
       <use xlink:href="#DejaVuSans-30" transform="translate(128.203125 39.046875) scale(0.7)"/>
      </g>
     </g>
    </g>
    <g id="ytick_6">
     <g id="line2d_29">
      <path d="M 148.197319 37.512 
L 685.035 37.512 
" clip-path="url(#p6251a60e38)" style="fill: none; stroke: #b0b0b0; stroke-width: 0.8; stroke-linecap: square"/>
     </g>
     <g id="line2d_30">
      <g>
       <use xlink:href="#mae090bbb2f" x="148.197319" y="37.512" style="stroke: #000000; stroke-width: 0.8"/>
      </g>
     </g>
     <g id="text_16">
      <!-- $\mathdefault{10^{1}}$ -->
      <g transform="translate(97.197319 47.010047) scale(0.25 -0.25)">
       <use xlink:href="#DejaVuSans-31" transform="translate(0 0.684375)"/>
       <use xlink:href="#DejaVuSans-30" transform="translate(63.623047 0.684375)"/>
       <use xlink:href="#DejaVuSans-31" transform="translate(128.203125 38.965625) scale(0.7)"/>
      </g>
     </g>
    </g>
    <g id="ytick_7">
     <g id="line2d_31">
      <defs>
       <path id="m0046496cce" d="M 0 0 
L -2 0 
" style="stroke: #000000; stroke-width: 0.6"/>
      </defs>
      <g>
       <use xlink:href="#m0046496cce" x="148.197319" y="461.961032" style="stroke: #000000; stroke-width: 0.6"/>
      </g>
     </g>
    </g>
    <g id="ytick_8">
     <g id="line2d_32">
      <g>
       <use xlink:href="#m0046496cce" x="148.197319" y="446.055044" style="stroke: #000000; stroke-width: 0.6"/>
      </g>
     </g>
    </g>
    <g id="ytick_9">
     <g id="line2d_33">
      <g>
       <use xlink:href="#m0046496cce" x="148.197319" y="434.769565" style="stroke: #000000; stroke-width: 0.6"/>
      </g>
     </g>
    </g>
    <g id="ytick_10">
     <g id="line2d_34">
      <g>
       <use xlink:href="#m0046496cce" x="148.197319" y="426.015868" style="stroke: #000000; stroke-width: 0.6"/>
      </g>
     </g>
    </g>
    <g id="ytick_11">
     <g id="line2d_35">
      <g>
       <use xlink:href="#m0046496cce" x="148.197319" y="418.863576" style="stroke: #000000; stroke-width: 0.6"/>
      </g>
     </g>
    </g>
    <g id="ytick_12">
     <g id="line2d_36">
      <g>
       <use xlink:href="#m0046496cce" x="148.197319" y="412.8164" style="stroke: #000000; stroke-width: 0.6"/>
      </g>
     </g>
    </g>
    <g id="ytick_13">
     <g id="line2d_37">
      <g>
       <use xlink:href="#m0046496cce" x="148.197319" y="407.578097" style="stroke: #000000; stroke-width: 0.6"/>
      </g>
     </g>
    </g>
    <g id="ytick_14">
     <g id="line2d_38">
      <g>
       <use xlink:href="#m0046496cce" x="148.197319" y="402.957587" style="stroke: #000000; stroke-width: 0.6"/>
      </g>
     </g>
    </g>
    <g id="ytick_15">
     <g id="line2d_39">
      <g>
       <use xlink:href="#m0046496cce" x="148.197319" y="371.632932" style="stroke: #000000; stroke-width: 0.6"/>
      </g>
     </g>
    </g>
    <g id="ytick_16">
     <g id="line2d_40">
      <g>
       <use xlink:href="#m0046496cce" x="148.197319" y="355.726944" style="stroke: #000000; stroke-width: 0.6"/>
      </g>
     </g>
    </g>
    <g id="ytick_17">
     <g id="line2d_41">
      <g>
       <use xlink:href="#m0046496cce" x="148.197319" y="344.441465" style="stroke: #000000; stroke-width: 0.6"/>
      </g>
     </g>
    </g>
    <g id="ytick_18">
     <g id="line2d_42">
      <g>
       <use xlink:href="#m0046496cce" x="148.197319" y="335.687768" style="stroke: #000000; stroke-width: 0.6"/>
      </g>
     </g>
    </g>
    <g id="ytick_19">
     <g id="line2d_43">
      <g>
       <use xlink:href="#m0046496cce" x="148.197319" y="328.535476" style="stroke: #000000; stroke-width: 0.6"/>
      </g>
     </g>
    </g>
    <g id="ytick_20">
     <g id="line2d_44">
      <g>
       <use xlink:href="#m0046496cce" x="148.197319" y="322.4883" style="stroke: #000000; stroke-width: 0.6"/>
      </g>
     </g>
    </g>
    <g id="ytick_21">
     <g id="line2d_45">
      <g>
       <use xlink:href="#m0046496cce" x="148.197319" y="317.249997" style="stroke: #000000; stroke-width: 0.6"/>
      </g>
     </g>
    </g>
    <g id="ytick_22">
     <g id="line2d_46">
      <g>
       <use xlink:href="#m0046496cce" x="148.197319" y="312.629487" style="stroke: #000000; stroke-width: 0.6"/>
      </g>
     </g>
    </g>
    <g id="ytick_23">
     <g id="line2d_47">
      <g>
       <use xlink:href="#m0046496cce" x="148.197319" y="281.304832" style="stroke: #000000; stroke-width: 0.6"/>
      </g>
     </g>
    </g>
    <g id="ytick_24">
     <g id="line2d_48">
      <g>
       <use xlink:href="#m0046496cce" x="148.197319" y="265.398844" style="stroke: #000000; stroke-width: 0.6"/>
      </g>
     </g>
    </g>
    <g id="ytick_25">
     <g id="line2d_49">
      <g>
       <use xlink:href="#m0046496cce" x="148.197319" y="254.113365" style="stroke: #000000; stroke-width: 0.6"/>
      </g>
     </g>
    </g>
    <g id="ytick_26">
     <g id="line2d_50">
      <g>
       <use xlink:href="#m0046496cce" x="148.197319" y="245.359668" style="stroke: #000000; stroke-width: 0.6"/>
      </g>
     </g>
    </g>
    <g id="ytick_27">
     <g id="line2d_51">
      <g>
       <use xlink:href="#m0046496cce" x="148.197319" y="238.207376" style="stroke: #000000; stroke-width: 0.6"/>
      </g>
     </g>
    </g>
    <g id="ytick_28">
     <g id="line2d_52">
      <g>
       <use xlink:href="#m0046496cce" x="148.197319" y="232.1602" style="stroke: #000000; stroke-width: 0.6"/>
      </g>
     </g>
    </g>
    <g id="ytick_29">
     <g id="line2d_53">
      <g>
       <use xlink:href="#m0046496cce" x="148.197319" y="226.921897" style="stroke: #000000; stroke-width: 0.6"/>
      </g>
     </g>
    </g>
    <g id="ytick_30">
     <g id="line2d_54">
      <g>
       <use xlink:href="#m0046496cce" x="148.197319" y="222.301387" style="stroke: #000000; stroke-width: 0.6"/>
      </g>
     </g>
    </g>
    <g id="ytick_31">
     <g id="line2d_55">
      <g>
       <use xlink:href="#m0046496cce" x="148.197319" y="190.976732" style="stroke: #000000; stroke-width: 0.6"/>
      </g>
     </g>
    </g>
    <g id="ytick_32">
     <g id="line2d_56">
      <g>
       <use xlink:href="#m0046496cce" x="148.197319" y="175.070744" style="stroke: #000000; stroke-width: 0.6"/>
      </g>
     </g>
    </g>
    <g id="ytick_33">
     <g id="line2d_57">
      <g>
       <use xlink:href="#m0046496cce" x="148.197319" y="163.785265" style="stroke: #000000; stroke-width: 0.6"/>
      </g>
     </g>
    </g>
    <g id="ytick_34">
     <g id="line2d_58">
      <g>
       <use xlink:href="#m0046496cce" x="148.197319" y="155.031568" style="stroke: #000000; stroke-width: 0.6"/>
      </g>
     </g>
    </g>
    <g id="ytick_35">
     <g id="line2d_59">
      <g>
       <use xlink:href="#m0046496cce" x="148.197319" y="147.879276" style="stroke: #000000; stroke-width: 0.6"/>
      </g>
     </g>
    </g>
    <g id="ytick_36">
     <g id="line2d_60">
      <g>
       <use xlink:href="#m0046496cce" x="148.197319" y="141.8321" style="stroke: #000000; stroke-width: 0.6"/>
      </g>
     </g>
    </g>
    <g id="ytick_37">
     <g id="line2d_61">
      <g>
       <use xlink:href="#m0046496cce" x="148.197319" y="136.593797" style="stroke: #000000; stroke-width: 0.6"/>
      </g>
     </g>
    </g>
    <g id="ytick_38">
     <g id="line2d_62">
      <g>
       <use xlink:href="#m0046496cce" x="148.197319" y="131.973287" style="stroke: #000000; stroke-width: 0.6"/>
      </g>
     </g>
    </g>
    <g id="ytick_39">
     <g id="line2d_63">
      <g>
       <use xlink:href="#m0046496cce" x="148.197319" y="100.648632" style="stroke: #000000; stroke-width: 0.6"/>
      </g>
     </g>
    </g>
    <g id="ytick_40">
     <g id="line2d_64">
      <g>
       <use xlink:href="#m0046496cce" x="148.197319" y="84.742644" style="stroke: #000000; stroke-width: 0.6"/>
      </g>
     </g>
    </g>
    <g id="ytick_41">
     <g id="line2d_65">
      <g>
       <use xlink:href="#m0046496cce" x="148.197319" y="73.457165" style="stroke: #000000; stroke-width: 0.6"/>
      </g>
     </g>
    </g>
    <g id="ytick_42">
     <g id="line2d_66">
      <g>
       <use xlink:href="#m0046496cce" x="148.197319" y="64.703468" style="stroke: #000000; stroke-width: 0.6"/>
      </g>
     </g>
    </g>
    <g id="ytick_43">
     <g id="line2d_67">
      <g>
       <use xlink:href="#m0046496cce" x="148.197319" y="57.551176" style="stroke: #000000; stroke-width: 0.6"/>
      </g>
     </g>
    </g>
    <g id="ytick_44">
     <g id="line2d_68">
      <g>
       <use xlink:href="#m0046496cce" x="148.197319" y="51.504" style="stroke: #000000; stroke-width: 0.6"/>
      </g>
     </g>
    </g>
    <g id="ytick_45">
     <g id="line2d_69">
      <g>
       <use xlink:href="#m0046496cce" x="148.197319" y="46.265697" style="stroke: #000000; stroke-width: 0.6"/>
      </g>
     </g>
    </g>
    <g id="ytick_46">
     <g id="line2d_70">
      <g>
       <use xlink:href="#m0046496cce" x="148.197319" y="41.645187" style="stroke: #000000; stroke-width: 0.6"/>
      </g>
     </g>
    </g>
    <g id="text_17">
     <!-- $\rho$($\omega$) -->
     <g transform="translate(26.447319 258.08225) scale(0.25 -0.25)">
      <defs>
       <path id="DejaVuSans-Oblique-3c1" d="M 1203 2875 
Q 1453 3194 1981 3475 
Q 2188 3584 2756 3584 
Q 3394 3584 3694 3078 
Q 3994 2572 3834 1747 
Q 3672 922 3175 415 
Q 2678 -91 2041 -91 
Q 1656 -91 1409 63 
Q 1163 213 1044 525 
L 681 -1331 
L 103 -1331 
L 697 1716 
Q 838 2438 1203 2875 
z
M 3238 1747 
Q 3359 2381 3169 2744 
Q 2978 3103 2522 3103 
Q 2066 3103 1734 2744 
Q 1403 2381 1281 1747 
Q 1156 1113 1347 750 
Q 1538 391 1994 391 
Q 2450 391 2781 750 
Q 3113 1113 3238 1747 
z
" transform="scale(0.015625)"/>
       <path id="Calibri-28" d="M 1547 4306 
Q 1250 3678 1104 3017 
Q 959 2356 959 1688 
Q 959 1016 1107 356 
Q 1256 -303 1541 -938 
Q 1556 -975 1557 -1001 
Q 1559 -1028 1537 -1045 
Q 1516 -1063 1470 -1070 
Q 1425 -1078 1347 -1078 
Q 1291 -1078 1250 -1075 
Q 1209 -1072 1179 -1062 
Q 1150 -1053 1131 -1040 
Q 1113 -1028 1103 -1013 
Q 934 -694 806 -367 
Q 678 -41 590 296 
Q 503 634 459 979 
Q 416 1325 416 1678 
Q 416 2031 464 2375 
Q 513 2719 602 3058 
Q 691 3397 819 3725 
Q 947 4053 1106 4375 
Q 1109 4388 1123 4397 
Q 1138 4406 1163 4415 
Q 1188 4425 1231 4429 
Q 1275 4434 1344 4434 
Q 1416 4434 1459 4425 
Q 1503 4416 1528 4400 
Q 1553 4384 1556 4359 
Q 1559 4334 1547 4306 
z
" transform="scale(0.015625)"/>
       <path id="Calibri-29" d="M 1522 1678 
Q 1522 1325 1478 979 
Q 1434 634 1346 296 
Q 1259 -41 1132 -367 
Q 1006 -694 838 -1013 
Q 828 -1028 809 -1040 
Q 791 -1053 761 -1062 
Q 731 -1072 690 -1075 
Q 650 -1078 594 -1078 
Q 513 -1078 467 -1070 
Q 422 -1063 401 -1045 
Q 381 -1028 382 -1001 
Q 384 -975 400 -938 
Q 688 -306 834 355 
Q 981 1016 981 1688 
Q 981 2356 834 3017 
Q 688 3678 394 4306 
Q 381 4334 384 4359 
Q 388 4384 413 4400 
Q 438 4416 481 4425 
Q 525 4434 597 4434 
Q 663 4434 706 4429 
Q 750 4425 776 4415 
Q 803 4406 815 4397 
Q 828 4388 834 4375 
Q 1156 3734 1339 3057 
Q 1522 2381 1522 1678 
z
" transform="scale(0.015625)"/>
      </defs>
      <use xlink:href="#DejaVuSans-Oblique-3c1" transform="translate(0 0.71875)"/>
      <use xlink:href="#Calibri-28" transform="translate(63.476562 0.71875)"/>
      <use xlink:href="#DejaVuSans-Oblique-3c9" transform="translate(93.798828 0.71875)"/>
      <use xlink:href="#Calibri-29" transform="translate(177.539062 0.71875)"/>
     </g>
    </g>
   </g>
   <g id="line2d_71">
    <path d="M 148.197319 401.932336 
L 162.020889 399.154914 
L 174.770784 396.368975 
L 186.447004 393.5927 
L 197.183758 390.813609 
L 206.981045 388.0525 
L 215.973076 385.293338 
L 224.29406 382.512055 
L 231.943997 379.725375 
L 239.057097 376.899821 
L 245.633358 374.048993 
L 251.672782 371.191485 
L 257.309578 368.279438 
L 262.543745 365.324583 
L 267.375284 362.343409 
L 271.938405 359.263436 
L 276.098897 356.190825 
L 279.99097 353.047041 
L 283.614624 349.844366 
L 287.104069 346.464116 
L 290.325095 343.039788 
L 293.411912 339.434618 
L 296.364519 335.635785 
L 299.048708 331.830475 
L 301.598686 327.848141 
L 304.148665 323.441139 
L 306.564435 318.798707 
L 308.845995 313.913206 
L 310.993346 308.780363 
L 313.006487 303.400661 
L 315.019629 297.354461 
L 316.89856 290.976792 
L 318.643283 284.273376 
L 320.388005 276.636221 
L 321.998518 268.548351 
L 323.474822 260.026861 
L 324.951126 250.148903 
L 326.29322 239.643042 
L 327.501105 228.557779 
L 328.708989 215.420996 
L 329.782665 201.438919 
L 330.85634 184.535042 
L 331.930015 163.850193 
L 334.077366 119.395336 
L 334.345785 117.622926 
L 334.479994 117.492535 
L 334.614204 117.882703 
L 334.882623 120.154504 
L 335.285251 126.620793 
L 336.090507 144.996897 
L 337.566811 178.248322 
L 338.774696 199.928634 
L 339.982581 217.45132 
L 341.190465 231.910152 
L 342.53256 245.302803 
L 343.874654 256.537845 
L 345.216748 266.061437 
L 346.693052 274.914628 
L 348.035146 281.708629 
L 349.37724 287.456791 
L 350.719334 292.263907 
L 351.927219 295.851479 
L 353.135104 298.786221 
L 354.208779 300.876539 
L 355.282455 302.501319 
L 356.221921 303.55531 
L 357.161386 304.276873 
L 357.966643 304.637352 
L 358.7719 304.764487 
L 359.577156 304.66195 
L 360.382413 304.332518 
L 361.187669 303.778002 
L 362.127135 302.84753 
L 363.066601 301.610846 
L 364.140276 299.818168 
L 365.348161 297.305919 
L 366.556046 294.246977 
L 367.763931 290.606918 
L 369.106025 285.819993 
L 370.448119 280.156866 
L 371.790213 273.477663 
L 373.132307 265.579757 
L 374.340192 257.18477 
L 375.548077 247.235961 
L 376.755962 235.234147 
L 377.829637 222.197275 
L 378.769103 208.197737 
L 379.708569 190.636488 
L 380.513826 171.250083 
L 381.184873 150.284976 
L 381.85592 122.423716 
L 383.063805 66.502836 
L 383.198014 67.896033 
L 383.466433 78.341268 
L 384.808527 148.397471 
L 385.613784 176.461021 
L 386.553249 201.051427 
L 387.626925 222.823485 
L 388.83481 242.388059 
L 390.176904 260.222914 
L 391.653207 276.694044 
L 393.26372 292.088216 
L 395.008443 306.640695 
L 397.021584 321.497971 
L 399.303144 336.607055 
L 402.121542 353.682929 
L 408.832013 393.537827 
L 410.442526 404.83905 
L 411.78462 415.891642 
L 412.858296 426.642121 
L 413.797762 438.522698 
L 414.468809 449.51062 
L 415.139856 464.442832 
L 415.676694 482.298105 
L 416.079322 504.308239 
L 416.347741 531.520419 
L 416.483317 577 
M 416.749002 577 
L 416.750369 558.717064 
L 417.018788 515.6058 
L 417.421416 488.367726 
L 417.958254 468.218032 
L 418.629301 452.096013 
L 419.434557 438.522698 
L 420.374023 426.642121 
L 421.447699 415.891642 
L 422.789793 404.83905 
L 424.400306 393.537827 
L 426.547657 380.181418 
L 435.539688 326.101808 
L 437.552829 311.789703 
L 439.431761 296.767668 
L 441.042274 282.078528 
L 442.518578 266.530647 
L 443.860672 249.924554 
L 445.068557 232.030876 
L 446.142232 212.58763 
L 447.081698 191.318063 
L 447.886955 168.012489 
L 448.558002 142.797758 
L 449.229049 109.430668 
L 450.034305 67.896033 
L 450.168515 66.502836 
L 450.302724 68.185548 
L 450.571143 78.783728 
L 451.779028 140.139307 
L 452.584284 167.476521 
L 453.389541 187.736396 
L 454.329007 205.941191 
L 455.402682 222.197275 
L 456.476357 235.234147 
L 457.684242 247.235961 
L 458.892127 257.18477 
L 460.234221 266.43195 
L 461.576315 274.196465 
L 462.91841 280.766185 
L 464.260504 286.336227 
L 465.602598 291.041455 
L 466.944692 294.975541 
L 468.286786 298.202745 
L 469.494671 300.5383 
L 470.568347 302.1785 
L 471.642022 303.416617 
L 472.581488 304.172629 
L 473.386744 304.57724 
L 474.192001 304.755671 
L 474.997257 304.705458 
L 475.802514 304.423222 
L 476.60777 303.904718 
L 477.547236 302.994352 
L 478.486702 301.745927 
L 479.560378 299.890818 
L 480.634053 297.559977 
L 481.841938 294.340054 
L 483.049823 290.448456 
L 484.257707 285.835336 
L 485.599802 279.785865 
L 486.941896 272.652435 
L 488.28399 264.277688 
L 489.626084 254.43946 
L 490.968178 242.814629 
L 492.176063 230.428556 
L 493.383948 215.672746 
L 494.457623 199.928634 
L 495.531299 180.901368 
L 496.604974 157.840148 
L 498.215487 121.957723 
L 498.618115 117.882703 
L 498.752325 117.492535 
L 498.886534 117.622926 
L 499.154953 119.395336 
L 499.557581 125.213102 
L 500.228628 139.542846 
L 501.839141 174.710865 
L 502.912817 193.40632 
L 504.120702 210.468896 
L 505.328586 224.43699 
L 506.670681 237.328806 
L 508.012775 248.177198 
L 509.489078 258.341965 
L 511.099591 267.8214 
L 512.710104 276.003637 
L 514.454827 283.721686 
L 516.333759 290.976792 
L 518.212691 297.354461 
L 520.225832 303.400661 
L 522.373183 309.118298 
L 524.520533 314.215761 
L 526.802094 319.070036 
L 529.217863 323.684938 
L 531.767842 328.067682 
L 534.452031 332.227786 
L 537.270428 336.176222 
L 540.223036 339.924771 
L 543.309852 343.485538 
L 546.530878 346.870593 
L 550.020323 350.214771 
L 553.778187 353.49781 
L 557.67026 356.603014 
L 561.830752 359.640597 
L 566.259663 362.602193 
L 571.091202 365.561437 
L 576.19116 368.424097 
L 581.693746 371.257772 
L 587.598961 374.048993 
L 594.041013 376.844071 
L 601.019903 379.623104 
L 608.53563 382.371218 
L 616.588196 385.077691 
L 625.311808 387.774972 
L 634.840677 390.485603 
L 645.174802 393.190619 
L 656.448393 395.906748 
L 668.661451 398.616198 
L 681.948183 401.331915 
L 685.035 401.932336 
L 685.035 401.932336 
" clip-path="url(#p6251a60e38)" style="fill: none; stroke-dasharray: 14.8,6.4; stroke-dashoffset: 0; stroke: #ff0000; stroke-width: 4"/>
   </g>
   <g id="line2d_72">
    <path d="M 148.197319 374.296755 
L 158.263026 362.614388 
L 160.276167 359.805322 
L 163.228774 355.217302 
L 165.644544 351.629528 
L 167.255057 349.640611 
L 168.462942 348.464309 
L 169.536617 347.694995 
L 170.476083 347.259698 
L 171.415549 347.057151 
L 172.355015 347.085764 
L 173.294481 347.3311 
L 174.368156 347.840998 
L 175.71025 348.733136 
L 180.40758 352.112554 
L 181.749674 352.681533 
L 182.957559 352.950336 
L 184.165444 352.980821 
L 185.373329 352.786701 
L 186.715423 352.331863 
L 188.057517 351.638615 
L 189.533821 350.606564 
L 191.010124 349.294375 
L 192.486428 347.690461 
L 193.962732 345.770384 
L 195.573245 343.28514 
L 197.183758 340.373348 
L 198.92848 336.747167 
L 200.941621 332.003018 
L 203.223181 325.999315 
L 208.591558 311.486803 
L 210.336281 307.62837 
L 211.946794 304.603777 
L 213.423097 302.270053 
L 214.899401 300.337094 
L 216.241495 298.936575 
L 217.44938 297.995969 
L 218.523055 297.438852 
L 219.462521 297.178526 
L 220.401987 297.13689 
L 221.341453 297.321659 
L 222.280919 297.743811 
L 223.220385 298.41848 
L 224.159851 299.364568 
L 225.233526 300.7966 
L 226.441411 302.84109 
L 227.917715 305.821967 
L 231.809788 313.931863 
L 233.420301 316.673237 
L 234.896605 318.749133 
L 236.104489 320.067356 
L 237.043955 320.793687 
L 237.849212 321.16731 
L 238.654468 321.287549 
L 239.459725 321.144629 
L 240.264981 320.738357 
L 241.070238 320.075593 
L 242.009704 318.991668 
L 243.083379 317.363339 
L 244.291264 315.076835 
L 245.901777 311.455865 
L 249.659641 302.776343 
L 252.20962 297.077623 
L 253.820133 292.861808 
L 255.967484 286.551855 
L 259.18851 276.959561 
L 260.262185 274.486662 
L 261.201651 272.89451 
L 262.006908 271.96671 
L 262.812164 271.377377 
L 263.75163 271.001584 
L 264.825305 270.849851 
L 265.898981 270.908644 
L 266.838447 271.160428 
L 267.643703 271.614988 
L 268.31475 272.226774 
L 269.120007 273.296283 
L 269.925263 274.750752 
L 270.998939 277.202655 
L 274.891012 286.715836 
L 276.367316 289.407278 
L 278.783085 293.721159 
L 282.809368 301.36611 
L 283.883043 302.824125 
L 284.822509 303.711099 
L 285.627765 304.158349 
L 286.298813 304.304341 
L 286.96986 304.250611 
L 287.775116 303.942897 
L 288.580373 303.380513 
L 289.385629 302.553912 
L 290.325095 301.240236 
L 291.264561 299.543192 
L 292.338237 297.160825 
L 293.546121 293.906057 
L 294.754006 289.909748 
L 295.961891 285.117515 
L 297.303985 278.805599 
L 298.646079 271.264477 
L 300.122383 261.578768 
L 303.611828 237.561924 
L 304.282875 234.550567 
L 304.819713 232.897171 
L 305.35655 231.904092 
L 305.893388 231.444543 
L 306.430226 231.305643 
L 307.369692 231.108067 
L 307.906529 230.677285 
L 308.443367 229.883162 
L 309.114414 228.387478 
L 310.05388 225.638938 
L 311.798602 220.469121 
L 312.46965 219.084703 
L 313.006487 218.456423 
L 313.409115 218.33929 
L 313.811744 218.552991 
L 314.214372 219.090639 
L 314.75121 220.246902 
L 315.556466 222.607585 
L 317.03277 227.008737 
L 317.838026 228.691489 
L 318.509073 229.636087 
L 319.31433 230.372975 
L 320.119586 230.845684 
L 320.790634 231.004032 
L 321.327471 230.869019 
L 321.864309 230.445813 
L 322.535356 229.558881 
L 324.280079 227.021438 
L 324.682707 226.81747 
L 325.085335 226.865675 
L 325.487963 227.16631 
L 326.024801 227.908204 
L 326.830057 229.502712 
L 328.037942 231.937033 
L 328.57478 232.622088 
L 328.977408 232.847804 
L 329.380036 232.767346 
L 329.782665 232.341286 
L 330.185293 231.546085 
L 330.722131 229.889603 
L 331.393178 226.8328 
L 332.064225 222.652039 
L 332.869481 216.050052 
L 333.674738 207.452851 
L 334.614204 194.572468 
L 335.55367 178.421154 
L 337.432602 143.547781 
L 337.701021 141.396623 
L 337.83523 140.961021 
L 337.969439 140.985805 
L 338.103649 141.476637 
L 338.372068 143.79674 
L 338.774696 150.060806 
L 339.579952 167.778467 
L 341.056256 200.32554 
L 342.129931 219.532688 
L 343.337816 237.068673 
L 344.545701 251.280073 
L 345.753586 262.943219 
L 346.961471 272.625078 
L 348.169355 280.709721 
L 349.37724 287.462537 
L 350.585125 293.07912 
L 351.79301 297.707774 
L 353.000894 301.461905 
L 354.07457 304.139897 
L 355.148245 306.247227 
L 356.087711 307.660043 
L 357.027177 308.70616 
L 357.966643 309.397693 
L 358.7719 309.739051 
L 359.577156 309.840016 
L 360.382413 309.717979 
L 361.187669 309.372927 
L 361.992926 308.793834 
L 362.932392 307.80567 
L 364.140276 306.127256 
L 365.213952 304.230774 
L 366.287627 301.891204 
L 367.629721 298.440347 
L 368.971815 294.363592 
L 370.1797 290.089897 
L 371.521794 284.407149 
L 372.863889 277.780038 
L 374.205983 270.02287 
L 375.413868 261.884696 
L 376.621752 252.169593 
L 377.829637 240.548714 
L 378.903313 227.951336 
L 379.842778 214.549631 
L 380.782244 197.792939 
L 381.587501 179.404766 
L 382.258548 159.666984 
L 382.929595 133.602016 
L 383.600642 98.275556 
L 384.13748 70.407299 
L 384.271689 67.809283 
L 384.405899 68.46577 
L 384.674318 78.417796 
L 386.150621 155.974768 
L 386.955878 183.299954 
L 387.895344 207.337842 
L 388.969019 228.763059 
L 390.176904 248.098893 
L 391.518998 265.810177 
L 392.995302 282.216942 
L 394.605815 297.603063 
L 396.350537 312.199355 
L 398.363678 327.162824 
L 400.645239 342.465059 
L 403.732055 361.539349 
L 408.563594 391.244715 
L 410.308317 403.505162 
L 411.650411 414.490214 
L 412.724086 425.046149 
L 413.663552 436.555494 
L 414.468809 449.475897 
L 415.139856 464.42727 
L 415.676694 482.292424 
L 416.079322 504.3068 
L 416.347741 531.520301 
L 416.483317 577 
M 416.749002 577 
L 416.750369 558.716671 
L 417.018788 515.603717 
L 417.421416 488.360847 
L 417.958254 468.200533 
L 418.629301 452.058425 
L 419.434557 438.450944 
L 420.374023 426.516492 
L 421.447699 415.685639 
L 422.789793 404.503583 
L 424.400306 393.002514 
L 426.681866 378.475053 
L 433.929175 333.551515 
L 436.076526 318.281485 
L 437.955457 303.301657 
L 439.56597 288.731589 
L 441.042274 273.393677 
L 442.384368 257.128533 
L 443.592253 239.715645 
L 444.665928 220.954835 
L 445.605394 200.640913 
L 446.410651 178.654676 
L 447.215907 149.73263 
L 447.886955 116.9381 
L 448.82642 68.03705 
L 448.96063 67.954926 
L 449.229049 76.707281 
L 450.705352 151.00361 
L 451.510609 176.463008 
L 452.315865 195.524901 
L 453.255331 212.80255 
L 454.329007 228.345754 
L 455.536891 242.294652 
L 456.744776 253.700714 
L 458.08687 264.0902 
L 459.428965 272.721847 
L 460.771059 279.962553 
L 462.381572 287.386514 
L 463.857876 293.071085 
L 465.19997 297.431452 
L 466.542064 301.049002 
L 467.884158 304.042421 
L 469.092043 306.201366 
L 470.165718 307.698203 
L 471.105184 308.662134 
L 472.17886 309.43091 
L 472.984116 309.776853 
L 473.789373 309.890347 
L 474.594629 309.758646 
L 475.399886 309.384396 
L 476.205142 308.764699 
L 477.010399 307.880102 
L 477.949865 306.507847 
L 478.889331 304.749488 
L 479.963006 302.218084 
L 481.036681 299.07255 
L 482.110357 295.263266 
L 483.318241 290.09284 
L 484.526126 283.856187 
L 485.734011 276.380068 
L 486.941896 267.431231 
L 488.149781 256.678263 
L 489.357665 243.661478 
L 490.431341 229.655007 
L 491.505016 212.662713 
L 492.578691 191.966708 
L 494.994461 142.374263 
L 495.26288 141.023638 
L 495.397089 141.042698 
L 495.531299 141.519644 
L 495.799718 143.738419 
L 496.202346 149.55293 
L 497.141812 168.04096 
L 498.349697 190.401094 
L 499.289162 204.194337 
L 500.228628 214.931942 
L 501.033885 221.933049 
L 501.839141 227.106334 
L 502.510189 230.113972 
L 503.047026 231.712793 
L 503.583864 232.641802 
L 503.986492 232.935753 
L 504.38912 232.9159 
L 504.791749 232.61336 
L 505.328586 231.843525 
L 506.133843 230.179804 
L 507.475937 227.385518 
L 508.012775 226.754308 
L 508.415403 226.582949 
L 508.818031 226.687485 
L 509.22066 227.049344 
L 509.891707 228.077638 
L 511.233801 230.348676 
L 511.770639 230.871065 
L 512.307476 231.098995 
L 512.844314 231.082821 
L 513.515361 230.821254 
L 514.320618 230.244474 
L 514.991665 229.500847 
L 515.662712 228.402902 
L 516.333759 226.85988 
L 517.273225 224.035157 
L 518.48111 220.381921 
L 519.152157 219.033319 
L 519.554785 218.605853 
L 519.957413 218.501633 
L 520.360041 218.723206 
L 520.76267 219.248035 
L 521.299507 220.34157 
L 522.104764 222.551886 
L 524.386324 229.262333 
L 525.057371 230.497205 
L 525.594209 231.069445 
L 526.131046 231.311036 
L 527.60735 231.641692 
L 528.009978 232.111603 
L 528.412607 232.912813 
L 528.949444 234.571452 
L 529.620491 237.590448 
L 530.425748 242.355436 
L 531.902052 252.777212 
L 534.183612 268.585456 
L 535.659915 277.331641 
L 537.00201 284.011211 
L 538.344104 289.548665 
L 539.686198 294.09497 
L 540.894083 297.394756 
L 542.101967 300.018626 
L 543.175643 301.84893 
L 544.249318 303.241558 
L 545.054575 303.976857 
L 545.859831 304.413832 
L 546.530878 304.549388 
L 547.201925 304.48296 
L 547.872973 304.215761 
L 548.678229 303.624603 
L 549.483486 302.739761 
L 550.422952 301.380346 
L 551.765046 299.008149 
L 559.683402 283.683019 
L 561.428124 279.247685 
L 563.172846 274.970648 
L 564.112312 273.190668 
L 564.917569 272.084904 
L 565.722825 271.360994 
L 566.528082 270.949991 
L 567.467548 270.734018 
L 568.675433 270.702116 
L 569.614899 270.876796 
L 570.420155 271.250233 
L 571.091202 271.780998 
L 571.896459 272.74065 
L 572.701715 274.086972 
L 573.641181 276.133487 
L 574.849066 279.376157 
L 576.996417 285.980492 
L 579.412186 293.177663 
L 581.156909 297.669134 
L 583.035841 301.840325 
L 585.854238 308.03395 
L 589.209474 315.618987 
L 590.551568 318.009772 
L 591.625244 319.489754 
L 592.564709 320.429358 
L 593.369966 320.958408 
L 594.175223 321.230494 
L 594.980479 321.24753 
L 595.785736 321.015233 
L 596.590992 320.544643 
L 597.530458 319.717126 
L 598.604133 318.452227 
L 599.946228 316.49031 
L 601.556741 313.690903 
L 603.301463 310.185813 
L 607.059327 302.397368 
L 608.267212 300.467071 
L 609.340887 299.120804 
L 610.414562 298.120752 
L 611.488238 297.446627 
L 612.427704 297.107274 
L 613.36717 296.997358 
L 614.306636 297.117307 
L 615.246101 297.460237 
L 616.319777 298.104068 
L 617.527662 299.120824 
L 618.735546 300.432496 
L 620.077641 302.232041 
L 621.419735 304.396999 
L 622.896038 307.210479 
L 624.506551 310.79523 
L 626.251274 315.237253 
L 629.069672 323.147977 
L 632.022279 331.224731 
L 634.03542 336.117958 
L 635.914352 340.116548 
L 637.659075 343.299224 
L 639.269588 345.77779 
L 640.880101 347.839647 
L 642.356404 349.391605 
L 643.832708 350.647952 
L 645.309012 351.625417 
L 646.651106 352.269544 
L 647.9932 352.672712 
L 649.335294 352.828759 
L 650.543179 352.746033 
L 651.751064 352.439645 
L 652.958949 351.913561 
L 654.435252 351.012275 
L 656.716812 349.291062 
L 658.729954 347.865763 
L 659.937838 347.260699 
L 661.011514 346.970486 
L 661.95098 346.947442 
L 662.890446 347.16194 
L 663.829912 347.621985 
L 664.769378 348.322048 
L 665.843053 349.391623 
L 667.185147 351.064582 
L 669.064079 353.828545 
L 674.566665 362.187928 
L 676.848225 365.110359 
L 679.935042 368.642704 
L 685.035 374.414084 
L 685.035 374.414084 
" clip-path="url(#p6251a60e38)" style="fill: none; stroke: #0000ff; stroke-width: 1.5; stroke-linecap: square"/>
   </g>
   <g id="patch_3">
    <path d="M 148.197319 489.1525 
L 148.197319 37.512 
" style="fill: none; stroke: #000000; stroke-width: 0.8; stroke-linejoin: miter; stroke-linecap: square"/>
   </g>
   <g id="patch_4">
    <path d="M 685.035 489.1525 
L 685.035 37.512 
" style="fill: none; stroke: #000000; stroke-width: 0.8; stroke-linejoin: miter; stroke-linecap: square"/>
   </g>
   <g id="patch_5">
    <path d="M 148.197319 489.1525 
L 685.035 489.1525 
" style="fill: none; stroke: #000000; stroke-width: 0.8; stroke-linejoin: miter; stroke-linecap: square"/>
   </g>
   <g id="patch_6">
    <path d="M 148.197319 37.512 
L 685.035 37.512 
" style="fill: none; stroke: #000000; stroke-width: 0.8; stroke-linejoin: miter; stroke-linecap: square"/>
   </g>
   <g id="legend_1">
    <g id="patch_7">
     <path d="M 554.985 101.052156 
L 676.535 101.052156 
L 676.535 46.012 
L 554.985 46.012 
z
" style="fill: #ffffff; opacity: 0.8; stroke: #000000; stroke-linejoin: miter"/>
    </g>
    <g id="line2d_73">
     <path d="M 561.785 59.779344 
L 578.785 59.779344 
L 595.785 59.779344 
" style="fill: none; stroke-dasharray: 14.8,6.4; stroke-dashoffset: 0; stroke: #ff0000; stroke-width: 4"/>
    </g>
    <g id="text_18">
     <!-- $\rho_0$ -->
     <g transform="translate(609.385 65.729344) scale(0.17 -0.17)">
      <use xlink:href="#DejaVuSans-Oblique-3c1"/>
      <use xlink:href="#DejaVuSans-30" transform="translate(63.476562 -16.40625) scale(0.7)"/>
     </g>
    </g>
    <g id="line2d_74">
     <path d="M 561.785 84.766687 
L 578.785 84.766687 
L 595.785 84.766687 
" style="fill: none; stroke: #0000ff; stroke-width: 1.5; stroke-linecap: square"/>
    </g>
    <g id="text_19">
     <!-- $\it{U=3.0}$ -->
     <g transform="translate(609.385 90.716687) scale(0.17 -0.17)">
      <defs>
       <path id="DejaVuSans-Oblique-55" d="M 991 4666 
L 1625 4666 
L 1075 1831 
Q 1041 1641 1027 1517 
Q 1013 1394 1013 1300 
Q 1013 869 1253 645 
Q 1494 422 1959 422 
Q 2563 422 2898 753 
Q 3234 1084 3378 1831 
L 3928 4666 
L 4563 4666 
L 4000 1753 
Q 3816 809 3300 359 
Q 2784 -91 1888 -91 
Q 1188 -91 780 261 
Q 372 613 372 1216 
Q 372 1325 387 1461 
Q 403 1597 434 1753 
L 991 4666 
z
" transform="scale(0.015625)"/>
       <path id="DejaVuSans-3d" d="M 678 2906 
L 4684 2906 
L 4684 2381 
L 678 2381 
L 678 2906 
z
M 678 1631 
L 4684 1631 
L 4684 1100 
L 678 1100 
L 678 1631 
z
" transform="scale(0.015625)"/>
       <path id="DejaVuSans-2e" d="M 684 794 
L 1344 794 
L 1344 0 
L 684 0 
L 684 794 
z
" transform="scale(0.015625)"/>
      </defs>
      <use xlink:href="#DejaVuSans-Oblique-55" transform="translate(0 0.78125)"/>
      <use xlink:href="#DejaVuSans-3d" transform="translate(92.675781 0.78125)"/>
      <use xlink:href="#DejaVuSans-33" transform="translate(195.947266 0.78125)"/>
      <use xlink:href="#DejaVuSans-2e" transform="translate(259.570312 0.78125)"/>
      <use xlink:href="#DejaVuSans-30" transform="translate(291.357422 0.78125)"/>
     </g>
    </g>
   </g>
  </g>
 </g>
 <defs>
  <clipPath id="p6251a60e38">
   <rect x="148.197319" y="37.512" width="536.837681" height="451.6405"/>
  </clipPath>
 </defs>
</svg>
