<?xml version="1.0" encoding="utf-8" standalone="no"?>
<!DOCTYPE svg PUBLIC "-//W3C//DTD SVG 1.1//EN"
  "http://www.w3.org/Graphics/SVG/1.1/DTD/svg11.dtd">
<svg xmlns:xlink="http://www.w3.org/1999/xlink" width="720pt" height="576pt" viewBox="0 0 720 576" xmlns="http://www.w3.org/2000/svg" version="1.1">
 <metadata>
  <rdf:RDF xmlns:dc="http://purl.org/dc/elements/1.1/" xmlns:cc="http://creativecommons.org/ns#" xmlns:rdf="http://www.w3.org/1999/02/22-rdf-syntax-ns#">
   <cc:Work>
    <dc:type rdf:resource="http://purl.org/dc/dcmitype/StillImage"/>
    <dc:date>2023-04-15T05:13:09.505422</dc:date>
    <dc:format>image/svg+xml</dc:format>
    <dc:creator>
     <cc:Agent>
      <dc:title>Matplotlib v3.7.1, https://matplotlib.org/</dc:title>
     </cc:Agent>
    </dc:creator>
   </cc:Work>
  </rdf:RDF>
 </metadata>
 <defs>
  <style type="text/css">*{stroke-linejoin: round; stroke-linecap: butt}</style>
 </defs>
 <g id="figure_1">
  <g id="patch_1">
   <path d="M 0 576 
L 720 576 
L 720 0 
L 0 0 
z
" style="fill: #ffffff"/>
  </g>
  <g id="axes_1">
   <g id="patch_2">
    <path d="M 129.775152 489.1525 
L 685.035 489.1525 
L 685.035 36.72 
L 129.775152 36.72 
z
" style="fill: #ffffff"/>
   </g>
   <g id="matplotlib.axis_1">
    <g id="xtick_1">
     <g id="line2d_1">
      <path d="M 129.775152 489.1525 
L 129.775152 36.72 
" clip-path="url(#pd3f9e1c595)" style="fill: none; stroke: #b0b0b0; stroke-width: 0.8; stroke-linecap: square"/>
     </g>
     <g id="line2d_2">
      <defs>
       <path id="m53fdc7c596" d="M 0 0 
L 0 3.5 
" style="stroke: #000000; stroke-width: 0.8"/>
      </defs>
      <g>
       <use xlink:href="#m53fdc7c596" x="129.775152" y="489.1525" style="stroke: #000000; stroke-width: 0.8"/>
      </g>
     </g>
     <g id="text_1">
      <!-- −3 -->
      <g transform="translate(111.347418 515.148594) scale(0.25 -0.25)">
       <defs>
        <path id="DejaVuSans-2212" d="M 678 2272 
L 4684 2272 
L 4684 1741 
L 678 1741 
L 678 2272 
z
" transform="scale(0.015625)"/>
        <path id="DejaVuSans-33" d="M 2597 2516 
Q 3050 2419 3304 2112 
Q 3559 1806 3559 1356 
Q 3559 666 3084 287 
Q 2609 -91 1734 -91 
Q 1441 -91 1130 -33 
Q 819 25 488 141 
L 488 750 
Q 750 597 1062 519 
Q 1375 441 1716 441 
Q 2309 441 2620 675 
Q 2931 909 2931 1356 
Q 2931 1769 2642 2001 
Q 2353 2234 1838 2234 
L 1294 2234 
L 1294 2753 
L 1863 2753 
Q 2328 2753 2575 2939 
Q 2822 3125 2822 3475 
Q 2822 3834 2567 4026 
Q 2313 4219 1838 4219 
Q 1578 4219 1281 4162 
Q 984 4106 628 3988 
L 628 4550 
Q 988 4650 1302 4700 
Q 1616 4750 1894 4750 
Q 2613 4750 3031 4423 
Q 3450 4097 3450 3541 
Q 3450 3153 3228 2886 
Q 3006 2619 2597 2516 
z
" transform="scale(0.015625)"/>
       </defs>
       <use xlink:href="#DejaVuSans-2212"/>
       <use xlink:href="#DejaVuSans-33" x="83.789062"/>
      </g>
     </g>
    </g>
    <g id="xtick_2">
     <g id="line2d_3">
      <path d="M 222.31846 489.1525 
L 222.31846 36.72 
" clip-path="url(#pd3f9e1c595)" style="fill: none; stroke: #b0b0b0; stroke-width: 0.8; stroke-linecap: square"/>
     </g>
     <g id="line2d_4">
      <g>
       <use xlink:href="#m53fdc7c596" x="222.31846" y="489.1525" style="stroke: #000000; stroke-width: 0.8"/>
      </g>
     </g>
     <g id="text_2">
      <!-- −2 -->
      <g transform="translate(203.890726 515.148594) scale(0.25 -0.25)">
       <defs>
        <path id="DejaVuSans-32" d="M 1228 531 
L 3431 531 
L 3431 0 
L 469 0 
L 469 531 
Q 828 903 1448 1529 
Q 2069 2156 2228 2338 
Q 2531 2678 2651 2914 
Q 2772 3150 2772 3378 
Q 2772 3750 2511 3984 
Q 2250 4219 1831 4219 
Q 1534 4219 1204 4116 
Q 875 4013 500 3803 
L 500 4441 
Q 881 4594 1212 4672 
Q 1544 4750 1819 4750 
Q 2544 4750 2975 4387 
Q 3406 4025 3406 3419 
Q 3406 3131 3298 2873 
Q 3191 2616 2906 2266 
Q 2828 2175 2409 1742 
Q 1991 1309 1228 531 
z
" transform="scale(0.015625)"/>
       </defs>
       <use xlink:href="#DejaVuSans-2212"/>
       <use xlink:href="#DejaVuSans-32" x="83.789062"/>
      </g>
     </g>
    </g>
    <g id="xtick_3">
     <g id="line2d_5">
      <path d="M 314.861768 489.1525 
L 314.861768 36.72 
" clip-path="url(#pd3f9e1c595)" style="fill: none; stroke: #b0b0b0; stroke-width: 0.8; stroke-linecap: square"/>
     </g>
     <g id="line2d_6">
      <g>
       <use xlink:href="#m53fdc7c596" x="314.861768" y="489.1525" style="stroke: #000000; stroke-width: 0.8"/>
      </g>
     </g>
     <g id="text_3">
      <!-- −1 -->
      <g transform="translate(296.434034 515.148594) scale(0.25 -0.25)">
       <defs>
        <path id="DejaVuSans-31" d="M 794 531 
L 1825 531 
L 1825 4091 
L 703 3866 
L 703 4441 
L 1819 4666 
L 2450 4666 
L 2450 531 
L 3481 531 
L 3481 0 
L 794 0 
L 794 531 
z
" transform="scale(0.015625)"/>
       </defs>
       <use xlink:href="#DejaVuSans-2212"/>
       <use xlink:href="#DejaVuSans-31" x="83.789062"/>
      </g>
     </g>
    </g>
    <g id="xtick_4">
     <g id="line2d_7">
      <path d="M 407.405076 489.1525 
L 407.405076 36.72 
" clip-path="url(#pd3f9e1c595)" style="fill: none; stroke: #b0b0b0; stroke-width: 0.8; stroke-linecap: square"/>
     </g>
     <g id="line2d_8">
      <g>
       <use xlink:href="#m53fdc7c596" x="407.405076" y="489.1525" style="stroke: #000000; stroke-width: 0.8"/>
      </g>
     </g>
     <g id="text_4">
      <!-- 0 -->
      <g transform="translate(399.451951 515.148594) scale(0.25 -0.25)">
       <defs>
        <path id="DejaVuSans-30" d="M 2034 4250 
Q 1547 4250 1301 3770 
Q 1056 3291 1056 2328 
Q 1056 1369 1301 889 
Q 1547 409 2034 409 
Q 2525 409 2770 889 
Q 3016 1369 3016 2328 
Q 3016 3291 2770 3770 
Q 2525 4250 2034 4250 
z
M 2034 4750 
Q 2819 4750 3233 4129 
Q 3647 3509 3647 2328 
Q 3647 1150 3233 529 
Q 2819 -91 2034 -91 
Q 1250 -91 836 529 
Q 422 1150 422 2328 
Q 422 3509 836 4129 
Q 1250 4750 2034 4750 
z
" transform="scale(0.015625)"/>
       </defs>
       <use xlink:href="#DejaVuSans-30"/>
      </g>
     </g>
    </g>
    <g id="xtick_5">
     <g id="line2d_9">
      <path d="M 499.948384 489.1525 
L 499.948384 36.72 
" clip-path="url(#pd3f9e1c595)" style="fill: none; stroke: #b0b0b0; stroke-width: 0.8; stroke-linecap: square"/>
     </g>
     <g id="line2d_10">
      <g>
       <use xlink:href="#m53fdc7c596" x="499.948384" y="489.1525" style="stroke: #000000; stroke-width: 0.8"/>
      </g>
     </g>
     <g id="text_5">
      <!-- 1 -->
      <g transform="translate(491.995259 515.148594) scale(0.25 -0.25)">
       <use xlink:href="#DejaVuSans-31"/>
      </g>
     </g>
    </g>
    <g id="xtick_6">
     <g id="line2d_11">
      <path d="M 592.491692 489.1525 
L 592.491692 36.72 
" clip-path="url(#pd3f9e1c595)" style="fill: none; stroke: #b0b0b0; stroke-width: 0.8; stroke-linecap: square"/>
     </g>
     <g id="line2d_12">
      <g>
       <use xlink:href="#m53fdc7c596" x="592.491692" y="489.1525" style="stroke: #000000; stroke-width: 0.8"/>
      </g>
     </g>
     <g id="text_6">
      <!-- 2 -->
      <g transform="translate(584.538567 515.148594) scale(0.25 -0.25)">
       <use xlink:href="#DejaVuSans-32"/>
      </g>
     </g>
    </g>
    <g id="xtick_7">
     <g id="line2d_13">
      <path d="M 685.035 489.1525 
L 685.035 36.72 
" clip-path="url(#pd3f9e1c595)" style="fill: none; stroke: #b0b0b0; stroke-width: 0.8; stroke-linecap: square"/>
     </g>
     <g id="line2d_14">
      <g>
       <use xlink:href="#m53fdc7c596" x="685.035" y="489.1525" style="stroke: #000000; stroke-width: 0.8"/>
      </g>
     </g>
     <g id="text_7">
      <!-- 3 -->
      <g transform="translate(677.081875 515.148594) scale(0.25 -0.25)">
       <use xlink:href="#DejaVuSans-33"/>
      </g>
     </g>
    </g>
    <g id="text_8">
     <!-- $\omega$ [-] -->
     <g transform="translate(382.530076 541.351719) scale(0.25 -0.25)">
      <defs>
       <path id="DejaVuSans-Oblique-3c9" d="M 1369 -91 
Q 72 -91 434 1766 
Q 575 2500 1256 3500 
L 1875 3500 
Q 1231 2500 1088 1750 
Q 819 397 1519 397 
Q 2166 397 2478 2078 
L 3009 2078 
Q 2669 388 3316 397 
Q 4013 403 4275 1750 
Q 4419 2500 4169 3500 
L 4788 3500 
Q 5075 2500 4934 1766 
Q 4578 -94 3278 -91 
Q 2428 -88 2503 844 
Q 2194 -91 1369 -91 
z
" transform="scale(0.015625)"/>
       <path id="Calibri-20" transform="scale(0.015625)"/>
       <path id="Calibri-5b" d="M 1684 -813 
Q 1684 -916 1661 -958 
Q 1638 -1000 1594 -1000 
L 794 -1000 
Q 756 -1000 722 -989 
Q 688 -978 659 -953 
Q 631 -928 614 -886 
Q 597 -844 597 -781 
L 597 4153 
Q 597 4213 614 4255 
Q 631 4297 659 4323 
Q 688 4350 722 4361 
Q 756 4372 794 4372 
L 1594 4372 
Q 1613 4372 1630 4362 
Q 1647 4353 1659 4328 
Q 1672 4303 1678 4267 
Q 1684 4231 1684 4178 
Q 1684 4078 1661 4034 
Q 1638 3991 1594 3991 
L 1084 3991 
L 1084 -622 
L 1594 -622 
Q 1613 -622 1630 -631 
Q 1647 -641 1659 -664 
Q 1672 -688 1678 -723 
Q 1684 -759 1684 -813 
z
" transform="scale(0.015625)"/>
       <path id="Calibri-2d" d="M 1744 1578 
Q 1744 1456 1716 1409 
Q 1688 1363 1634 1363 
L 328 1363 
Q 272 1363 244 1411 
Q 216 1459 216 1578 
Q 216 1697 244 1744 
Q 272 1791 328 1791 
L 1634 1791 
Q 1659 1791 1679 1781 
Q 1700 1772 1714 1745 
Q 1728 1719 1736 1678 
Q 1744 1638 1744 1578 
z
" transform="scale(0.015625)"/>
       <path id="Calibri-5d" d="M 1369 -781 
Q 1369 -844 1351 -886 
Q 1334 -928 1306 -953 
Q 1278 -978 1242 -989 
Q 1206 -1000 1169 -1000 
L 372 -1000 
Q 328 -1000 304 -958 
Q 281 -916 281 -813 
Q 281 -759 286 -723 
Q 291 -688 303 -664 
Q 316 -641 333 -631 
Q 350 -622 372 -622 
L 881 -622 
L 881 3991 
L 372 3991 
Q 328 3991 304 4034 
Q 281 4078 281 4178 
Q 281 4231 286 4267 
Q 291 4303 303 4328 
Q 316 4353 333 4362 
Q 350 4372 372 4372 
L 1169 4372 
Q 1206 4372 1242 4361 
Q 1278 4350 1306 4323 
Q 1334 4297 1351 4255 
Q 1369 4213 1369 4153 
L 1369 -781 
z
" transform="scale(0.015625)"/>
      </defs>
      <use xlink:href="#DejaVuSans-Oblique-3c9" transform="translate(0 0.6875)"/>
      <use xlink:href="#Calibri-20" transform="translate(83.740234 0.6875)"/>
      <use xlink:href="#Calibri-5b" transform="translate(106.347656 0.6875)"/>
      <use xlink:href="#Calibri-2d" transform="translate(137.011719 0.6875)"/>
      <use xlink:href="#Calibri-5d" transform="translate(167.626953 0.6875)"/>
     </g>
    </g>
   </g>
   <g id="matplotlib.axis_2">
    <g id="ytick_1">
     <g id="line2d_15">
      <path d="M 129.775152 489.1525 
L 685.035 489.1525 
" clip-path="url(#pd3f9e1c595)" style="fill: none; stroke: #b0b0b0; stroke-width: 0.8; stroke-linecap: square"/>
     </g>
     <g id="line2d_16">
      <defs>
       <path id="ma516a1923f" d="M 0 0 
L -3.5 0 
" style="stroke: #000000; stroke-width: 0.8"/>
      </defs>
      <g>
       <use xlink:href="#ma516a1923f" x="129.775152" y="489.1525" style="stroke: #000000; stroke-width: 0.8"/>
      </g>
     </g>
     <g id="text_9">
      <!-- 0.0 -->
      <g transform="translate(83.017339 498.650547) scale(0.25 -0.25)">
       <defs>
        <path id="DejaVuSans-2e" d="M 684 794 
L 1344 794 
L 1344 0 
L 684 0 
L 684 794 
z
" transform="scale(0.015625)"/>
       </defs>
       <use xlink:href="#DejaVuSans-30"/>
       <use xlink:href="#DejaVuSans-2e" x="63.623047"/>
       <use xlink:href="#DejaVuSans-30" x="95.410156"/>
      </g>
     </g>
    </g>
    <g id="ytick_2">
     <g id="line2d_17">
      <path d="M 129.775152 413.747083 
L 685.035 413.747083 
" clip-path="url(#pd3f9e1c595)" style="fill: none; stroke: #b0b0b0; stroke-width: 0.8; stroke-linecap: square"/>
     </g>
     <g id="line2d_18">
      <g>
       <use xlink:href="#ma516a1923f" x="129.775152" y="413.747083" style="stroke: #000000; stroke-width: 0.8"/>
      </g>
     </g>
     <g id="text_10">
      <!-- 0.2 -->
      <g transform="translate(83.017339 423.24513) scale(0.25 -0.25)">
       <use xlink:href="#DejaVuSans-30"/>
       <use xlink:href="#DejaVuSans-2e" x="63.623047"/>
       <use xlink:href="#DejaVuSans-32" x="95.410156"/>
      </g>
     </g>
    </g>
    <g id="ytick_3">
     <g id="line2d_19">
      <path d="M 129.775152 338.341667 
L 685.035 338.341667 
" clip-path="url(#pd3f9e1c595)" style="fill: none; stroke: #b0b0b0; stroke-width: 0.8; stroke-linecap: square"/>
     </g>
     <g id="line2d_20">
      <g>
       <use xlink:href="#ma516a1923f" x="129.775152" y="338.341667" style="stroke: #000000; stroke-width: 0.8"/>
      </g>
     </g>
     <g id="text_11">
      <!-- 0.4 -->
      <g transform="translate(83.017339 347.839714) scale(0.25 -0.25)">
       <defs>
        <path id="DejaVuSans-34" d="M 2419 4116 
L 825 1625 
L 2419 1625 
L 2419 4116 
z
M 2253 4666 
L 3047 4666 
L 3047 1625 
L 3713 1625 
L 3713 1100 
L 3047 1100 
L 3047 0 
L 2419 0 
L 2419 1100 
L 313 1100 
L 313 1709 
L 2253 4666 
z
" transform="scale(0.015625)"/>
       </defs>
       <use xlink:href="#DejaVuSans-30"/>
       <use xlink:href="#DejaVuSans-2e" x="63.623047"/>
       <use xlink:href="#DejaVuSans-34" x="95.410156"/>
      </g>
     </g>
    </g>
    <g id="ytick_4">
     <g id="line2d_21">
      <path d="M 129.775152 262.93625 
L 685.035 262.93625 
" clip-path="url(#pd3f9e1c595)" style="fill: none; stroke: #b0b0b0; stroke-width: 0.8; stroke-linecap: square"/>
     </g>
     <g id="line2d_22">
      <g>
       <use xlink:href="#ma516a1923f" x="129.775152" y="262.93625" style="stroke: #000000; stroke-width: 0.8"/>
      </g>
     </g>
     <g id="text_12">
      <!-- 0.6 -->
      <g transform="translate(83.017339 272.434297) scale(0.25 -0.25)">
       <defs>
        <path id="DejaVuSans-36" d="M 2113 2584 
Q 1688 2584 1439 2293 
Q 1191 2003 1191 1497 
Q 1191 994 1439 701 
Q 1688 409 2113 409 
Q 2538 409 2786 701 
Q 3034 994 3034 1497 
Q 3034 2003 2786 2293 
Q 2538 2584 2113 2584 
z
M 3366 4563 
L 3366 3988 
Q 3128 4100 2886 4159 
Q 2644 4219 2406 4219 
Q 1781 4219 1451 3797 
Q 1122 3375 1075 2522 
Q 1259 2794 1537 2939 
Q 1816 3084 2150 3084 
Q 2853 3084 3261 2657 
Q 3669 2231 3669 1497 
Q 3669 778 3244 343 
Q 2819 -91 2113 -91 
Q 1303 -91 875 529 
Q 447 1150 447 2328 
Q 447 3434 972 4092 
Q 1497 4750 2381 4750 
Q 2619 4750 2861 4703 
Q 3103 4656 3366 4563 
z
" transform="scale(0.015625)"/>
       </defs>
       <use xlink:href="#DejaVuSans-30"/>
       <use xlink:href="#DejaVuSans-2e" x="63.623047"/>
       <use xlink:href="#DejaVuSans-36" x="95.410156"/>
      </g>
     </g>
    </g>
    <g id="ytick_5">
     <g id="line2d_23">
      <path d="M 129.775152 187.530833 
L 685.035 187.530833 
" clip-path="url(#pd3f9e1c595)" style="fill: none; stroke: #b0b0b0; stroke-width: 0.8; stroke-linecap: square"/>
     </g>
     <g id="line2d_24">
      <g>
       <use xlink:href="#ma516a1923f" x="129.775152" y="187.530833" style="stroke: #000000; stroke-width: 0.8"/>
      </g>
     </g>
     <g id="text_13">
      <!-- 0.8 -->
      <g transform="translate(83.017339 197.02888) scale(0.25 -0.25)">
       <defs>
        <path id="DejaVuSans-38" d="M 2034 2216 
Q 1584 2216 1326 1975 
Q 1069 1734 1069 1313 
Q 1069 891 1326 650 
Q 1584 409 2034 409 
Q 2484 409 2743 651 
Q 3003 894 3003 1313 
Q 3003 1734 2745 1975 
Q 2488 2216 2034 2216 
z
M 1403 2484 
Q 997 2584 770 2862 
Q 544 3141 544 3541 
Q 544 4100 942 4425 
Q 1341 4750 2034 4750 
Q 2731 4750 3128 4425 
Q 3525 4100 3525 3541 
Q 3525 3141 3298 2862 
Q 3072 2584 2669 2484 
Q 3125 2378 3379 2068 
Q 3634 1759 3634 1313 
Q 3634 634 3220 271 
Q 2806 -91 2034 -91 
Q 1263 -91 848 271 
Q 434 634 434 1313 
Q 434 1759 690 2068 
Q 947 2378 1403 2484 
z
M 1172 3481 
Q 1172 3119 1398 2916 
Q 1625 2713 2034 2713 
Q 2441 2713 2670 2916 
Q 2900 3119 2900 3481 
Q 2900 3844 2670 4047 
Q 2441 4250 2034 4250 
Q 1625 4250 1398 4047 
Q 1172 3844 1172 3481 
z
" transform="scale(0.015625)"/>
       </defs>
       <use xlink:href="#DejaVuSans-30"/>
       <use xlink:href="#DejaVuSans-2e" x="63.623047"/>
       <use xlink:href="#DejaVuSans-38" x="95.410156"/>
      </g>
     </g>
    </g>
    <g id="ytick_6">
     <g id="line2d_25">
      <path d="M 129.775152 112.125417 
L 685.035 112.125417 
" clip-path="url(#pd3f9e1c595)" style="fill: none; stroke: #b0b0b0; stroke-width: 0.8; stroke-linecap: square"/>
     </g>
     <g id="line2d_26">
      <g>
       <use xlink:href="#ma516a1923f" x="129.775152" y="112.125417" style="stroke: #000000; stroke-width: 0.8"/>
      </g>
     </g>
     <g id="text_14">
      <!-- 1.0 -->
      <g transform="translate(83.017339 121.623464) scale(0.25 -0.25)">
       <use xlink:href="#DejaVuSans-31"/>
       <use xlink:href="#DejaVuSans-2e" x="63.623047"/>
       <use xlink:href="#DejaVuSans-30" x="95.410156"/>
      </g>
     </g>
    </g>
    <g id="ytick_7">
     <g id="line2d_27">
      <path d="M 129.775152 36.72 
L 685.035 36.72 
" clip-path="url(#pd3f9e1c595)" style="fill: none; stroke: #b0b0b0; stroke-width: 0.8; stroke-linecap: square"/>
     </g>
     <g id="line2d_28">
      <g>
       <use xlink:href="#ma516a1923f" x="129.775152" y="36.72" style="stroke: #000000; stroke-width: 0.8"/>
      </g>
     </g>
     <g id="text_15">
      <!-- 1.2 -->
      <g transform="translate(83.017339 46.218047) scale(0.25 -0.25)">
       <use xlink:href="#DejaVuSans-31"/>
       <use xlink:href="#DejaVuSans-2e" x="63.623047"/>
       <use xlink:href="#DejaVuSans-32" x="95.410156"/>
      </g>
     </g>
    </g>
    <g id="text_16">
     <!-- $\rho$($\omega$) -->
     <g transform="translate(27.017339 257.68625) scale(0.25 -0.25)">
      <defs>
       <path id="DejaVuSans-Oblique-3c1" d="M 1203 2875 
Q 1453 3194 1981 3475 
Q 2188 3584 2756 3584 
Q 3394 3584 3694 3078 
Q 3994 2572 3834 1747 
Q 3672 922 3175 415 
Q 2678 -91 2041 -91 
Q 1656 -91 1409 63 
Q 1163 213 1044 525 
L 681 -1331 
L 103 -1331 
L 697 1716 
Q 838 2438 1203 2875 
z
M 3238 1747 
Q 3359 2381 3169 2744 
Q 2978 3103 2522 3103 
Q 2066 3103 1734 2744 
Q 1403 2381 1281 1747 
Q 1156 1113 1347 750 
Q 1538 391 1994 391 
Q 2450 391 2781 750 
Q 3113 1113 3238 1747 
z
" transform="scale(0.015625)"/>
       <path id="Calibri-28" d="M 1547 4306 
Q 1250 3678 1104 3017 
Q 959 2356 959 1688 
Q 959 1016 1107 356 
Q 1256 -303 1541 -938 
Q 1556 -975 1557 -1001 
Q 1559 -1028 1537 -1045 
Q 1516 -1063 1470 -1070 
Q 1425 -1078 1347 -1078 
Q 1291 -1078 1250 -1075 
Q 1209 -1072 1179 -1062 
Q 1150 -1053 1131 -1040 
Q 1113 -1028 1103 -1013 
Q 934 -694 806 -367 
Q 678 -41 590 296 
Q 503 634 459 979 
Q 416 1325 416 1678 
Q 416 2031 464 2375 
Q 513 2719 602 3058 
Q 691 3397 819 3725 
Q 947 4053 1106 4375 
Q 1109 4388 1123 4397 
Q 1138 4406 1163 4415 
Q 1188 4425 1231 4429 
Q 1275 4434 1344 4434 
Q 1416 4434 1459 4425 
Q 1503 4416 1528 4400 
Q 1553 4384 1556 4359 
Q 1559 4334 1547 4306 
z
" transform="scale(0.015625)"/>
       <path id="Calibri-29" d="M 1522 1678 
Q 1522 1325 1478 979 
Q 1434 634 1346 296 
Q 1259 -41 1132 -367 
Q 1006 -694 838 -1013 
Q 828 -1028 809 -1040 
Q 791 -1053 761 -1062 
Q 731 -1072 690 -1075 
Q 650 -1078 594 -1078 
Q 513 -1078 467 -1070 
Q 422 -1063 401 -1045 
Q 381 -1028 382 -1001 
Q 384 -975 400 -938 
Q 688 -306 834 355 
Q 981 1016 981 1688 
Q 981 2356 834 3017 
Q 688 3678 394 4306 
Q 381 4334 384 4359 
Q 388 4384 413 4400 
Q 438 4416 481 4425 
Q 525 4434 597 4434 
Q 663 4434 706 4429 
Q 750 4425 776 4415 
Q 803 4406 815 4397 
Q 828 4388 834 4375 
Q 1156 3734 1339 3057 
Q 1522 2381 1522 1678 
z
" transform="scale(0.015625)"/>
      </defs>
      <use xlink:href="#DejaVuSans-Oblique-3c1" transform="translate(0 0.71875)"/>
      <use xlink:href="#Calibri-28" transform="translate(63.476562 0.71875)"/>
      <use xlink:href="#DejaVuSans-Oblique-3c9" transform="translate(93.798828 0.71875)"/>
      <use xlink:href="#Calibri-29" transform="translate(177.539062 0.71875)"/>
     </g>
    </g>
   </g>
   <g id="line2d_29">
    <path d="M 129.775152 485.191726 
L 155.317105 484.358547 
L 176.416979 483.455768 
L 194.185294 482.483241 
L 209.73257 481.41398 
L 223.058806 480.280428 
L 234.719263 479.073027 
L 245.2692 477.757219 
L 254.708618 476.351279 
L 263.037516 474.885804 
L 270.255894 473.405198 
L 276.919012 471.827331 
L 283.02687 470.166711 
L 288.579469 468.444876 
L 294.132067 466.482825 
L 299.129406 464.47402 
L 303.571484 462.461225 
L 308.013563 460.198636 
L 311.900382 457.981343 
L 315.787201 455.507575 
L 319.67402 452.737724 
L 323.005579 450.092377 
L 326.337138 447.159915 
L 329.668697 443.899314 
L 332.444997 440.896992 
L 335.221296 437.601191 
L 337.997595 433.974823 
L 340.773894 429.975257 
L 343.550193 425.553428 
L 346.326493 420.652815 
L 349.102792 415.208293 
L 351.323831 410.411031 
L 353.544871 405.174383 
L 355.76591 399.4498 
L 357.98695 393.183265 
L 360.207989 386.314927 
L 362.429028 378.778877 
L 364.650068 370.503147 
L 366.871107 361.410081 
L 369.092146 351.417284 
L 371.313186 340.439429 
L 373.534225 328.391304 
L 375.755265 315.192611 
L 377.976304 300.775141 
L 380.197343 285.093043 
L 382.973643 263.70268 
L 385.749942 240.43442 
L 389.081501 210.496774 
L 396.299879 144.292017 
L 398.520918 126.273182 
L 400.186698 114.444594 
L 401.852478 104.500423 
L 402.962997 99.099692 
L 404.073517 94.793115 
L 405.184037 91.658303 
L 405.739296 90.549312 
L 406.294556 89.753379 
L 406.849816 89.274291 
L 407.405076 89.11434 
L 407.960336 89.274291 
L 408.515596 89.753379 
L 409.070856 90.549312 
L 409.626115 91.658303 
L 410.736635 94.793115 
L 411.847155 99.099692 
L 412.957674 104.500423 
L 414.068194 110.901592 
L 415.733974 122.145014 
L 417.399753 135.011069 
L 419.620793 153.999886 
L 423.507612 189.812362 
L 428.50495 235.578616 
L 431.281249 259.192647 
L 434.057549 280.972775 
L 436.833848 300.775141 
L 439.054887 315.192611 
L 441.275927 328.391304 
L 443.496966 340.439429 
L 445.718006 351.417284 
L 447.939045 361.410081 
L 450.160084 370.503147 
L 452.381124 378.778877 
L 454.602163 386.314927 
L 456.823202 393.183265 
L 459.044242 399.4498 
L 461.265281 405.174383 
L 464.04158 411.649757 
L 466.81788 417.455934 
L 469.594179 422.674476 
L 472.370478 427.376269 
L 475.146777 431.622852 
L 477.923077 435.467632 
L 480.699376 438.956987 
L 483.475675 442.13123 
L 486.807234 445.57346 
L 490.138793 448.664447 
L 493.470352 451.448621 
L 496.801912 453.963893 
L 500.68873 456.60155 
L 504.575549 458.960941 
L 508.462368 461.078859 
L 512.904447 463.243293 
L 517.346526 465.171697 
L 522.343865 467.099193 
L 527.896463 468.984814 
L 533.449061 470.642156 
L 539.55692 472.243001 
L 546.220038 473.766417 
L 553.438416 475.198135 
L 561.767314 476.617463 
L 570.651471 477.907387 
L 580.646149 479.13592 
L 591.751346 480.280428 
L 604.522322 481.37117 
L 618.959078 482.379585 
L 635.616874 483.318352 
L 655.050968 484.187177 
L 678.371882 484.996588 
L 685.035 485.191726 
L 685.035 485.191726 
" clip-path="url(#pd3f9e1c595)" style="fill: none; stroke-dasharray: 14.8,6.4; stroke-dashoffset: 0; stroke: #ff0000; stroke-width: 4"/>
   </g>
   <g id="line2d_30">
    <path d="M 129.775152 483.675404 
L 145.877688 482.777399 
L 164.201263 481.489394 
L 177.527499 480.304512 
L 188.632696 479.092726 
L 199.182633 477.680088 
L 209.73257 475.978942 
L 220.837767 473.866795 
L 229.166665 471.861654 
L 237.495562 469.565639 
L 244.158681 467.435217 
L 251.377059 464.851662 
L 255.819137 463.079731 
L 259.150697 461.642496 
L 265.813815 458.317324 
L 269.145374 456.498133 
L 280.250571 449.495541 
L 291.911028 441.17299 
L 298.574146 435.478865 
L 300.239925 433.851397 
L 304.126744 429.890793 
L 306.903043 427.358772 
L 310.234603 424.454404 
L 312.455642 422.497021 
L 317.452981 418.449797 
L 320.22928 415.898944 
L 325.226618 411.368596 
L 327.447658 409.560625 
L 329.668697 407.422965 
L 332.444997 405.272997 
L 336.331815 402.469349 
L 337.442335 401.883879 
L 338.552855 401.247959 
L 340.773894 400.257915 
L 346.326493 397.472977 
L 347.437012 396.529588 
L 349.102792 395.54826 
L 350.768571 394.087784 
L 352.434351 392.606357 
L 353.544871 391.796121 
L 355.21065 390.930889 
L 355.76591 390.373281 
L 356.32117 389.983711 
L 357.43169 389.674357 
L 357.98695 389.644606 
L 358.542209 389.475042 
L 359.097469 389.477899 
L 359.652729 389.366392 
L 360.207989 388.68251 
L 361.873768 385.942637 
L 362.984288 385.279291 
L 363.539548 384.729244 
L 364.094808 384.472869 
L 364.650068 384.438763 
L 365.205328 384.227186 
L 365.760587 383.583301 
L 366.315847 382.600558 
L 366.871107 382.20955 
L 367.426367 382.039527 
L 367.981627 381.448099 
L 369.092146 380.016304 
L 369.647406 379.519107 
L 370.202666 379.435901 
L 370.757926 379.023135 
L 371.313186 378.918073 
L 371.868446 378.655421 
L 372.978965 376.365672 
L 373.534225 375.821646 
L 375.755265 374.866045 
L 376.865784 372.851207 
L 377.421044 372.515596 
L 377.976304 371.889454 
L 379.642084 368.467278 
L 380.197343 367.377128 
L 380.752603 365.965948 
L 382.973643 361.42278 
L 384.084162 358.496303 
L 384.639422 355.987748 
L 385.749942 352.060057 
L 390.192021 332.576935 
L 391.8578 319.397859 
L 392.41306 314.053167 
L 392.96832 311.878932 
L 393.52358 307.168776 
L 394.07884 301.288928 
L 395.189359 287.517878 
L 395.744619 280.946666 
L 396.299879 275.916236 
L 396.855139 267.09 
L 397.410399 261.758519 
L 400.741958 204.831703 
L 402.407737 165.973118 
L 405.184037 112.3175 
L 406.294556 94.763184 
L 406.849816 92.395278 
L 407.405076 89.116449 
L 407.960336 90.786699 
L 409.070856 102.26934 
L 409.626115 111.303827 
L 410.736635 133.79474 
L 411.291895 143.357259 
L 412.402415 166.388506 
L 412.957674 181.775234 
L 414.623454 215.133641 
L 415.733974 232.718652 
L 416.289234 245.69792 
L 418.510273 278.36378 
L 419.065533 282.800484 
L 419.620793 292.277858 
L 420.176052 296.532699 
L 421.841832 313.461033 
L 422.952352 318.920691 
L 423.507612 324.642675 
L 425.173391 334.109999 
L 425.728651 338.523422 
L 426.283911 341.66968 
L 426.839171 343.441884 
L 427.94969 348.662462 
L 428.50495 350.949346 
L 429.06021 350.983179 
L 429.61547 352.755441 
L 430.72599 358.068479 
L 431.281249 359.143799 
L 431.836509 360.892367 
L 432.391769 361.434456 
L 433.502289 364.431203 
L 434.057549 366.321673 
L 435.168068 368.737786 
L 435.723328 369.546427 
L 436.833848 371.628812 
L 437.389108 373.171995 
L 438.499627 374.057558 
L 439.054887 374.493608 
L 439.610147 375.225261 
L 440.720667 375.966644 
L 441.275927 376.526148 
L 441.831187 377.717397 
L 442.386446 378.175887 
L 444.052226 378.807476 
L 445.162746 379.649967 
L 445.718006 380.317081 
L 446.828525 380.981027 
L 447.383785 381.64292 
L 447.939045 382.048866 
L 448.494305 382.266842 
L 450.715344 384.841629 
L 451.270604 385.703829 
L 451.825864 386.271095 
L 452.936384 387.118862 
L 454.602163 388.479522 
L 455.712683 388.87461 
L 457.378462 389.867383 
L 458.488982 390.638201 
L 459.599502 391.117573 
L 462.931061 393.520711 
L 464.04158 394.174509 
L 466.26262 395.044928 
L 467.37314 395.822194 
L 468.483659 396.718833 
L 471.815218 398.744049 
L 472.925738 399.484726 
L 474.036258 400.002917 
L 476.257297 400.795909 
L 478.478337 402.388237 
L 479.588856 403.099083 
L 480.699376 403.617641 
L 481.809896 404.50042 
L 485.141455 407.390658 
L 487.362494 409.809186 
L 489.583533 411.752187 
L 490.694053 412.693935 
L 491.804573 413.568084 
L 494.580872 416.12968 
L 497.357171 418.322565 
L 501.24399 422.30395 
L 502.35451 423.360091 
L 504.575549 425.324254 
L 507.351849 427.956075 
L 519.012305 438.472663 
L 522.899124 441.350603 
L 527.896463 444.988651 
L 535.670101 450.442603 
L 541.222699 453.797794 
L 550.106857 458.743472 
L 556.214715 461.671776 
L 561.767314 464.00467 
L 568.430432 466.642587 
L 575.64881 469.046928 
L 582.867188 471.206732 
L 588.419786 472.56313 
L 596.193424 474.256593 
L 607.298621 476.373899 
L 615.627519 477.654705 
L 630.064275 479.521988 
L 642.835252 480.810181 
L 655.050968 481.839569 
L 667.266685 482.670236 
L 683.36922 483.589429 
L 685.035 483.675431 
L 685.035 483.675431 
" clip-path="url(#pd3f9e1c595)" style="fill: none; stroke: #0000ff; stroke-width: 1.5; stroke-linecap: square"/>
   </g>
   <g id="patch_3">
    <path d="M 129.775152 489.1525 
L 129.775152 36.72 
" style="fill: none; stroke: #000000; stroke-width: 0.8; stroke-linejoin: miter; stroke-linecap: square"/>
   </g>
   <g id="patch_4">
    <path d="M 685.035 489.1525 
L 685.035 36.72 
" style="fill: none; stroke: #000000; stroke-width: 0.8; stroke-linejoin: miter; stroke-linecap: square"/>
   </g>
   <g id="patch_5">
    <path d="M 129.775152 489.1525 
L 685.035 489.1525 
" style="fill: none; stroke: #000000; stroke-width: 0.8; stroke-linejoin: miter; stroke-linecap: square"/>
   </g>
   <g id="patch_6">
    <path d="M 129.775152 36.72 
L 685.035 36.72 
" style="fill: none; stroke: #000000; stroke-width: 0.8; stroke-linejoin: miter; stroke-linecap: square"/>
   </g>
   <g id="legend_1">
    <g id="patch_7">
     <path d="M 554.985 100.260156 
L 676.535 100.260156 
L 676.535 45.22 
L 554.985 45.22 
z
" style="fill: #ffffff; opacity: 0.8; stroke: #000000; stroke-linejoin: miter"/>
    </g>
    <g id="line2d_31">
     <path d="M 561.785 58.987344 
L 578.785 58.987344 
L 595.785 58.987344 
" style="fill: none; stroke-dasharray: 14.8,6.4; stroke-dashoffset: 0; stroke: #ff0000; stroke-width: 4"/>
    </g>
    <g id="text_17">
     <!-- $\rho_0$ -->
     <g transform="translate(609.385 64.937344) scale(0.17 -0.17)">
      <use xlink:href="#DejaVuSans-Oblique-3c1"/>
      <use xlink:href="#DejaVuSans-30" transform="translate(63.476562 -16.40625) scale(0.7)"/>
     </g>
    </g>
    <g id="line2d_32">
     <path d="M 561.785 83.974688 
L 578.785 83.974688 
L 595.785 83.974688 
" style="fill: none; stroke: #0000ff; stroke-width: 1.5; stroke-linecap: square"/>
    </g>
    <g id="text_18">
     <!-- $\it{U=1.5}$ -->
     <g transform="translate(609.385 89.924688) scale(0.17 -0.17)">
      <defs>
       <path id="DejaVuSans-Oblique-55" d="M 991 4666 
L 1625 4666 
L 1075 1831 
Q 1041 1641 1027 1517 
Q 1013 1394 1013 1300 
Q 1013 869 1253 645 
Q 1494 422 1959 422 
Q 2563 422 2898 753 
Q 3234 1084 3378 1831 
L 3928 4666 
L 4563 4666 
L 4000 1753 
Q 3816 809 3300 359 
Q 2784 -91 1888 -91 
Q 1188 -91 780 261 
Q 372 613 372 1216 
Q 372 1325 387 1461 
Q 403 1597 434 1753 
L 991 4666 
z
" transform="scale(0.015625)"/>
       <path id="DejaVuSans-3d" d="M 678 2906 
L 4684 2906 
L 4684 2381 
L 678 2381 
L 678 2906 
z
M 678 1631 
L 4684 1631 
L 4684 1100 
L 678 1100 
L 678 1631 
z
" transform="scale(0.015625)"/>
       <path id="DejaVuSans-35" d="M 691 4666 
L 3169 4666 
L 3169 4134 
L 1269 4134 
L 1269 2991 
Q 1406 3038 1543 3061 
Q 1681 3084 1819 3084 
Q 2600 3084 3056 2656 
Q 3513 2228 3513 1497 
Q 3513 744 3044 326 
Q 2575 -91 1722 -91 
Q 1428 -91 1123 -41 
Q 819 9 494 109 
L 494 744 
Q 775 591 1075 516 
Q 1375 441 1709 441 
Q 2250 441 2565 725 
Q 2881 1009 2881 1497 
Q 2881 1984 2565 2268 
Q 2250 2553 1709 2553 
Q 1456 2553 1204 2497 
Q 953 2441 691 2322 
L 691 4666 
z
" transform="scale(0.015625)"/>
      </defs>
      <use xlink:href="#DejaVuSans-Oblique-55" transform="translate(0 0.09375)"/>
      <use xlink:href="#DejaVuSans-3d" transform="translate(92.675781 0.09375)"/>
      <use xlink:href="#DejaVuSans-31" transform="translate(195.947266 0.09375)"/>
      <use xlink:href="#DejaVuSans-2e" transform="translate(259.570312 0.09375)"/>
      <use xlink:href="#DejaVuSans-35" transform="translate(291.357422 0.09375)"/>
     </g>
    </g>
   </g>
  </g>
 </g>
 <defs>
  <clipPath id="pd3f9e1c595">
   <rect x="129.775152" y="36.72" width="555.259848" height="452.4325"/>
  </clipPath>
 </defs>
</svg>
