<?xml version="1.0" encoding="utf-8" standalone="no"?>
<!DOCTYPE svg PUBLIC "-//W3C//DTD SVG 1.1//EN"
  "http://www.w3.org/Graphics/SVG/1.1/DTD/svg11.dtd">
<svg xmlns:xlink="http://www.w3.org/1999/xlink" width="720pt" height="576pt" viewBox="0 0 720 576" xmlns="http://www.w3.org/2000/svg" version="1.1">
 <metadata>
  <rdf:RDF xmlns:dc="http://purl.org/dc/elements/1.1/" xmlns:cc="http://creativecommons.org/ns#" xmlns:rdf="http://www.w3.org/1999/02/22-rdf-syntax-ns#">
   <cc:Work>
    <dc:type rdf:resource="http://purl.org/dc/dcmitype/StillImage"/>
    <dc:date>2023-04-10T23:29:21.393534</dc:date>
    <dc:format>image/svg+xml</dc:format>
    <dc:creator>
     <cc:Agent>
      <dc:title>Matplotlib v3.7.1, https://matplotlib.org/</dc:title>
     </cc:Agent>
    </dc:creator>
   </cc:Work>
  </rdf:RDF>
 </metadata>
 <defs>
  <style type="text/css">*{stroke-linejoin: round; stroke-linecap: butt}</style>
 </defs>
 <g id="figure_1">
  <g id="patch_1">
   <path d="M 0 576 
L 720 576 
L 720 0 
L 0 0 
z
" style="fill: #ffffff"/>
  </g>
  <g id="axes_1">
   <g id="patch_2">
    <path d="M 129.775152 489.1525 
L 685.035 489.1525 
L 685.035 36.72 
L 129.775152 36.72 
z
" style="fill: #ffffff"/>
   </g>
   <g id="matplotlib.axis_1">
    <g id="xtick_1">
     <g id="line2d_1">
      <path d="M 129.775152 489.1525 
L 129.775152 36.72 
" clip-path="url(#pb2bfd3200e)" style="fill: none; stroke: #b0b0b0; stroke-width: 0.8; stroke-linecap: square"/>
     </g>
     <g id="line2d_2">
      <defs>
       <path id="m9d2bb30e5e" d="M 0 0 
L 0 3.5 
" style="stroke: #000000; stroke-width: 0.8"/>
      </defs>
      <g>
       <use xlink:href="#m9d2bb30e5e" x="129.775152" y="489.1525" style="stroke: #000000; stroke-width: 0.8"/>
      </g>
     </g>
     <g id="text_1">
      <!-- −3 -->
      <g transform="translate(111.347418 515.148594) scale(0.25 -0.25)">
       <defs>
        <path id="DejaVuSans-2212" d="M 678 2272 
L 4684 2272 
L 4684 1741 
L 678 1741 
L 678 2272 
z
" transform="scale(0.015625)"/>
        <path id="DejaVuSans-33" d="M 2597 2516 
Q 3050 2419 3304 2112 
Q 3559 1806 3559 1356 
Q 3559 666 3084 287 
Q 2609 -91 1734 -91 
Q 1441 -91 1130 -33 
Q 819 25 488 141 
L 488 750 
Q 750 597 1062 519 
Q 1375 441 1716 441 
Q 2309 441 2620 675 
Q 2931 909 2931 1356 
Q 2931 1769 2642 2001 
Q 2353 2234 1838 2234 
L 1294 2234 
L 1294 2753 
L 1863 2753 
Q 2328 2753 2575 2939 
Q 2822 3125 2822 3475 
Q 2822 3834 2567 4026 
Q 2313 4219 1838 4219 
Q 1578 4219 1281 4162 
Q 984 4106 628 3988 
L 628 4550 
Q 988 4650 1302 4700 
Q 1616 4750 1894 4750 
Q 2613 4750 3031 4423 
Q 3450 4097 3450 3541 
Q 3450 3153 3228 2886 
Q 3006 2619 2597 2516 
z
" transform="scale(0.015625)"/>
       </defs>
       <use xlink:href="#DejaVuSans-2212"/>
       <use xlink:href="#DejaVuSans-33" x="83.789062"/>
      </g>
     </g>
    </g>
    <g id="xtick_2">
     <g id="line2d_3">
      <path d="M 222.31846 489.1525 
L 222.31846 36.72 
" clip-path="url(#pb2bfd3200e)" style="fill: none; stroke: #b0b0b0; stroke-width: 0.8; stroke-linecap: square"/>
     </g>
     <g id="line2d_4">
      <g>
       <use xlink:href="#m9d2bb30e5e" x="222.31846" y="489.1525" style="stroke: #000000; stroke-width: 0.8"/>
      </g>
     </g>
     <g id="text_2">
      <!-- −2 -->
      <g transform="translate(203.890726 515.148594) scale(0.25 -0.25)">
       <defs>
        <path id="DejaVuSans-32" d="M 1228 531 
L 3431 531 
L 3431 0 
L 469 0 
L 469 531 
Q 828 903 1448 1529 
Q 2069 2156 2228 2338 
Q 2531 2678 2651 2914 
Q 2772 3150 2772 3378 
Q 2772 3750 2511 3984 
Q 2250 4219 1831 4219 
Q 1534 4219 1204 4116 
Q 875 4013 500 3803 
L 500 4441 
Q 881 4594 1212 4672 
Q 1544 4750 1819 4750 
Q 2544 4750 2975 4387 
Q 3406 4025 3406 3419 
Q 3406 3131 3298 2873 
Q 3191 2616 2906 2266 
Q 2828 2175 2409 1742 
Q 1991 1309 1228 531 
z
" transform="scale(0.015625)"/>
       </defs>
       <use xlink:href="#DejaVuSans-2212"/>
       <use xlink:href="#DejaVuSans-32" x="83.789062"/>
      </g>
     </g>
    </g>
    <g id="xtick_3">
     <g id="line2d_5">
      <path d="M 314.861768 489.1525 
L 314.861768 36.72 
" clip-path="url(#pb2bfd3200e)" style="fill: none; stroke: #b0b0b0; stroke-width: 0.8; stroke-linecap: square"/>
     </g>
     <g id="line2d_6">
      <g>
       <use xlink:href="#m9d2bb30e5e" x="314.861768" y="489.1525" style="stroke: #000000; stroke-width: 0.8"/>
      </g>
     </g>
     <g id="text_3">
      <!-- −1 -->
      <g transform="translate(296.434034 515.148594) scale(0.25 -0.25)">
       <defs>
        <path id="DejaVuSans-31" d="M 794 531 
L 1825 531 
L 1825 4091 
L 703 3866 
L 703 4441 
L 1819 4666 
L 2450 4666 
L 2450 531 
L 3481 531 
L 3481 0 
L 794 0 
L 794 531 
z
" transform="scale(0.015625)"/>
       </defs>
       <use xlink:href="#DejaVuSans-2212"/>
       <use xlink:href="#DejaVuSans-31" x="83.789062"/>
      </g>
     </g>
    </g>
    <g id="xtick_4">
     <g id="line2d_7">
      <path d="M 407.405076 489.1525 
L 407.405076 36.72 
" clip-path="url(#pb2bfd3200e)" style="fill: none; stroke: #b0b0b0; stroke-width: 0.8; stroke-linecap: square"/>
     </g>
     <g id="line2d_8">
      <g>
       <use xlink:href="#m9d2bb30e5e" x="407.405076" y="489.1525" style="stroke: #000000; stroke-width: 0.8"/>
      </g>
     </g>
     <g id="text_4">
      <!-- 0 -->
      <g transform="translate(399.451951 515.148594) scale(0.25 -0.25)">
       <defs>
        <path id="DejaVuSans-30" d="M 2034 4250 
Q 1547 4250 1301 3770 
Q 1056 3291 1056 2328 
Q 1056 1369 1301 889 
Q 1547 409 2034 409 
Q 2525 409 2770 889 
Q 3016 1369 3016 2328 
Q 3016 3291 2770 3770 
Q 2525 4250 2034 4250 
z
M 2034 4750 
Q 2819 4750 3233 4129 
Q 3647 3509 3647 2328 
Q 3647 1150 3233 529 
Q 2819 -91 2034 -91 
Q 1250 -91 836 529 
Q 422 1150 422 2328 
Q 422 3509 836 4129 
Q 1250 4750 2034 4750 
z
" transform="scale(0.015625)"/>
       </defs>
       <use xlink:href="#DejaVuSans-30"/>
      </g>
     </g>
    </g>
    <g id="xtick_5">
     <g id="line2d_9">
      <path d="M 499.948384 489.1525 
L 499.948384 36.72 
" clip-path="url(#pb2bfd3200e)" style="fill: none; stroke: #b0b0b0; stroke-width: 0.8; stroke-linecap: square"/>
     </g>
     <g id="line2d_10">
      <g>
       <use xlink:href="#m9d2bb30e5e" x="499.948384" y="489.1525" style="stroke: #000000; stroke-width: 0.8"/>
      </g>
     </g>
     <g id="text_5">
      <!-- 1 -->
      <g transform="translate(491.995259 515.148594) scale(0.25 -0.25)">
       <use xlink:href="#DejaVuSans-31"/>
      </g>
     </g>
    </g>
    <g id="xtick_6">
     <g id="line2d_11">
      <path d="M 592.491692 489.1525 
L 592.491692 36.72 
" clip-path="url(#pb2bfd3200e)" style="fill: none; stroke: #b0b0b0; stroke-width: 0.8; stroke-linecap: square"/>
     </g>
     <g id="line2d_12">
      <g>
       <use xlink:href="#m9d2bb30e5e" x="592.491692" y="489.1525" style="stroke: #000000; stroke-width: 0.8"/>
      </g>
     </g>
     <g id="text_6">
      <!-- 2 -->
      <g transform="translate(584.538567 515.148594) scale(0.25 -0.25)">
       <use xlink:href="#DejaVuSans-32"/>
      </g>
     </g>
    </g>
    <g id="xtick_7">
     <g id="line2d_13">
      <path d="M 685.035 489.1525 
L 685.035 36.72 
" clip-path="url(#pb2bfd3200e)" style="fill: none; stroke: #b0b0b0; stroke-width: 0.8; stroke-linecap: square"/>
     </g>
     <g id="line2d_14">
      <g>
       <use xlink:href="#m9d2bb30e5e" x="685.035" y="489.1525" style="stroke: #000000; stroke-width: 0.8"/>
      </g>
     </g>
     <g id="text_7">
      <!-- 3 -->
      <g transform="translate(677.081875 515.148594) scale(0.25 -0.25)">
       <use xlink:href="#DejaVuSans-33"/>
      </g>
     </g>
    </g>
    <g id="text_8">
     <!-- $\omega$ [-] -->
     <g transform="translate(382.530076 541.351719) scale(0.25 -0.25)">
      <defs>
       <path id="DejaVuSans-Oblique-3c9" d="M 1369 -91 
Q 72 -91 434 1766 
Q 575 2500 1256 3500 
L 1875 3500 
Q 1231 2500 1088 1750 
Q 819 397 1519 397 
Q 2166 397 2478 2078 
L 3009 2078 
Q 2669 388 3316 397 
Q 4013 403 4275 1750 
Q 4419 2500 4169 3500 
L 4788 3500 
Q 5075 2500 4934 1766 
Q 4578 -94 3278 -91 
Q 2428 -88 2503 844 
Q 2194 -91 1369 -91 
z
" transform="scale(0.015625)"/>
       <path id="Calibri-20" transform="scale(0.015625)"/>
       <path id="Calibri-5b" d="M 1684 -813 
Q 1684 -916 1661 -958 
Q 1638 -1000 1594 -1000 
L 794 -1000 
Q 756 -1000 722 -989 
Q 688 -978 659 -953 
Q 631 -928 614 -886 
Q 597 -844 597 -781 
L 597 4153 
Q 597 4213 614 4255 
Q 631 4297 659 4323 
Q 688 4350 722 4361 
Q 756 4372 794 4372 
L 1594 4372 
Q 1613 4372 1630 4362 
Q 1647 4353 1659 4328 
Q 1672 4303 1678 4267 
Q 1684 4231 1684 4178 
Q 1684 4078 1661 4034 
Q 1638 3991 1594 3991 
L 1084 3991 
L 1084 -622 
L 1594 -622 
Q 1613 -622 1630 -631 
Q 1647 -641 1659 -664 
Q 1672 -688 1678 -723 
Q 1684 -759 1684 -813 
z
" transform="scale(0.015625)"/>
       <path id="Calibri-2d" d="M 1744 1578 
Q 1744 1456 1716 1409 
Q 1688 1363 1634 1363 
L 328 1363 
Q 272 1363 244 1411 
Q 216 1459 216 1578 
Q 216 1697 244 1744 
Q 272 1791 328 1791 
L 1634 1791 
Q 1659 1791 1679 1781 
Q 1700 1772 1714 1745 
Q 1728 1719 1736 1678 
Q 1744 1638 1744 1578 
z
" transform="scale(0.015625)"/>
       <path id="Calibri-5d" d="M 1369 -781 
Q 1369 -844 1351 -886 
Q 1334 -928 1306 -953 
Q 1278 -978 1242 -989 
Q 1206 -1000 1169 -1000 
L 372 -1000 
Q 328 -1000 304 -958 
Q 281 -916 281 -813 
Q 281 -759 286 -723 
Q 291 -688 303 -664 
Q 316 -641 333 -631 
Q 350 -622 372 -622 
L 881 -622 
L 881 3991 
L 372 3991 
Q 328 3991 304 4034 
Q 281 4078 281 4178 
Q 281 4231 286 4267 
Q 291 4303 303 4328 
Q 316 4353 333 4362 
Q 350 4372 372 4372 
L 1169 4372 
Q 1206 4372 1242 4361 
Q 1278 4350 1306 4323 
Q 1334 4297 1351 4255 
Q 1369 4213 1369 4153 
L 1369 -781 
z
" transform="scale(0.015625)"/>
      </defs>
      <use xlink:href="#DejaVuSans-Oblique-3c9" transform="translate(0 0.6875)"/>
      <use xlink:href="#Calibri-20" transform="translate(83.740234 0.6875)"/>
      <use xlink:href="#Calibri-5b" transform="translate(106.347656 0.6875)"/>
      <use xlink:href="#Calibri-2d" transform="translate(137.011719 0.6875)"/>
      <use xlink:href="#Calibri-5d" transform="translate(167.626953 0.6875)"/>
     </g>
    </g>
   </g>
   <g id="matplotlib.axis_2">
    <g id="ytick_1">
     <g id="line2d_15">
      <path d="M 129.775152 489.1525 
L 685.035 489.1525 
" clip-path="url(#pb2bfd3200e)" style="fill: none; stroke: #b0b0b0; stroke-width: 0.8; stroke-linecap: square"/>
     </g>
     <g id="line2d_16">
      <defs>
       <path id="mc1892873ee" d="M 0 0 
L -3.5 0 
" style="stroke: #000000; stroke-width: 0.8"/>
      </defs>
      <g>
       <use xlink:href="#mc1892873ee" x="129.775152" y="489.1525" style="stroke: #000000; stroke-width: 0.8"/>
      </g>
     </g>
     <g id="text_9">
      <!-- 0.0 -->
      <g transform="translate(83.017339 498.650547) scale(0.25 -0.25)">
       <defs>
        <path id="DejaVuSans-2e" d="M 684 794 
L 1344 794 
L 1344 0 
L 684 0 
L 684 794 
z
" transform="scale(0.015625)"/>
       </defs>
       <use xlink:href="#DejaVuSans-30"/>
       <use xlink:href="#DejaVuSans-2e" x="63.623047"/>
       <use xlink:href="#DejaVuSans-30" x="95.410156"/>
      </g>
     </g>
    </g>
    <g id="ytick_2">
     <g id="line2d_17">
      <path d="M 129.775152 413.747083 
L 685.035 413.747083 
" clip-path="url(#pb2bfd3200e)" style="fill: none; stroke: #b0b0b0; stroke-width: 0.8; stroke-linecap: square"/>
     </g>
     <g id="line2d_18">
      <g>
       <use xlink:href="#mc1892873ee" x="129.775152" y="413.747083" style="stroke: #000000; stroke-width: 0.8"/>
      </g>
     </g>
     <g id="text_10">
      <!-- 0.2 -->
      <g transform="translate(83.017339 423.24513) scale(0.25 -0.25)">
       <use xlink:href="#DejaVuSans-30"/>
       <use xlink:href="#DejaVuSans-2e" x="63.623047"/>
       <use xlink:href="#DejaVuSans-32" x="95.410156"/>
      </g>
     </g>
    </g>
    <g id="ytick_3">
     <g id="line2d_19">
      <path d="M 129.775152 338.341667 
L 685.035 338.341667 
" clip-path="url(#pb2bfd3200e)" style="fill: none; stroke: #b0b0b0; stroke-width: 0.8; stroke-linecap: square"/>
     </g>
     <g id="line2d_20">
      <g>
       <use xlink:href="#mc1892873ee" x="129.775152" y="338.341667" style="stroke: #000000; stroke-width: 0.8"/>
      </g>
     </g>
     <g id="text_11">
      <!-- 0.4 -->
      <g transform="translate(83.017339 347.839714) scale(0.25 -0.25)">
       <defs>
        <path id="DejaVuSans-34" d="M 2419 4116 
L 825 1625 
L 2419 1625 
L 2419 4116 
z
M 2253 4666 
L 3047 4666 
L 3047 1625 
L 3713 1625 
L 3713 1100 
L 3047 1100 
L 3047 0 
L 2419 0 
L 2419 1100 
L 313 1100 
L 313 1709 
L 2253 4666 
z
" transform="scale(0.015625)"/>
       </defs>
       <use xlink:href="#DejaVuSans-30"/>
       <use xlink:href="#DejaVuSans-2e" x="63.623047"/>
       <use xlink:href="#DejaVuSans-34" x="95.410156"/>
      </g>
     </g>
    </g>
    <g id="ytick_4">
     <g id="line2d_21">
      <path d="M 129.775152 262.93625 
L 685.035 262.93625 
" clip-path="url(#pb2bfd3200e)" style="fill: none; stroke: #b0b0b0; stroke-width: 0.8; stroke-linecap: square"/>
     </g>
     <g id="line2d_22">
      <g>
       <use xlink:href="#mc1892873ee" x="129.775152" y="262.93625" style="stroke: #000000; stroke-width: 0.8"/>
      </g>
     </g>
     <g id="text_12">
      <!-- 0.6 -->
      <g transform="translate(83.017339 272.434297) scale(0.25 -0.25)">
       <defs>
        <path id="DejaVuSans-36" d="M 2113 2584 
Q 1688 2584 1439 2293 
Q 1191 2003 1191 1497 
Q 1191 994 1439 701 
Q 1688 409 2113 409 
Q 2538 409 2786 701 
Q 3034 994 3034 1497 
Q 3034 2003 2786 2293 
Q 2538 2584 2113 2584 
z
M 3366 4563 
L 3366 3988 
Q 3128 4100 2886 4159 
Q 2644 4219 2406 4219 
Q 1781 4219 1451 3797 
Q 1122 3375 1075 2522 
Q 1259 2794 1537 2939 
Q 1816 3084 2150 3084 
Q 2853 3084 3261 2657 
Q 3669 2231 3669 1497 
Q 3669 778 3244 343 
Q 2819 -91 2113 -91 
Q 1303 -91 875 529 
Q 447 1150 447 2328 
Q 447 3434 972 4092 
Q 1497 4750 2381 4750 
Q 2619 4750 2861 4703 
Q 3103 4656 3366 4563 
z
" transform="scale(0.015625)"/>
       </defs>
       <use xlink:href="#DejaVuSans-30"/>
       <use xlink:href="#DejaVuSans-2e" x="63.623047"/>
       <use xlink:href="#DejaVuSans-36" x="95.410156"/>
      </g>
     </g>
    </g>
    <g id="ytick_5">
     <g id="line2d_23">
      <path d="M 129.775152 187.530833 
L 685.035 187.530833 
" clip-path="url(#pb2bfd3200e)" style="fill: none; stroke: #b0b0b0; stroke-width: 0.8; stroke-linecap: square"/>
     </g>
     <g id="line2d_24">
      <g>
       <use xlink:href="#mc1892873ee" x="129.775152" y="187.530833" style="stroke: #000000; stroke-width: 0.8"/>
      </g>
     </g>
     <g id="text_13">
      <!-- 0.8 -->
      <g transform="translate(83.017339 197.02888) scale(0.25 -0.25)">
       <defs>
        <path id="DejaVuSans-38" d="M 2034 2216 
Q 1584 2216 1326 1975 
Q 1069 1734 1069 1313 
Q 1069 891 1326 650 
Q 1584 409 2034 409 
Q 2484 409 2743 651 
Q 3003 894 3003 1313 
Q 3003 1734 2745 1975 
Q 2488 2216 2034 2216 
z
M 1403 2484 
Q 997 2584 770 2862 
Q 544 3141 544 3541 
Q 544 4100 942 4425 
Q 1341 4750 2034 4750 
Q 2731 4750 3128 4425 
Q 3525 4100 3525 3541 
Q 3525 3141 3298 2862 
Q 3072 2584 2669 2484 
Q 3125 2378 3379 2068 
Q 3634 1759 3634 1313 
Q 3634 634 3220 271 
Q 2806 -91 2034 -91 
Q 1263 -91 848 271 
Q 434 634 434 1313 
Q 434 1759 690 2068 
Q 947 2378 1403 2484 
z
M 1172 3481 
Q 1172 3119 1398 2916 
Q 1625 2713 2034 2713 
Q 2441 2713 2670 2916 
Q 2900 3119 2900 3481 
Q 2900 3844 2670 4047 
Q 2441 4250 2034 4250 
Q 1625 4250 1398 4047 
Q 1172 3844 1172 3481 
z
" transform="scale(0.015625)"/>
       </defs>
       <use xlink:href="#DejaVuSans-30"/>
       <use xlink:href="#DejaVuSans-2e" x="63.623047"/>
       <use xlink:href="#DejaVuSans-38" x="95.410156"/>
      </g>
     </g>
    </g>
    <g id="ytick_6">
     <g id="line2d_25">
      <path d="M 129.775152 112.125417 
L 685.035 112.125417 
" clip-path="url(#pb2bfd3200e)" style="fill: none; stroke: #b0b0b0; stroke-width: 0.8; stroke-linecap: square"/>
     </g>
     <g id="line2d_26">
      <g>
       <use xlink:href="#mc1892873ee" x="129.775152" y="112.125417" style="stroke: #000000; stroke-width: 0.8"/>
      </g>
     </g>
     <g id="text_14">
      <!-- 1.0 -->
      <g transform="translate(83.017339 121.623464) scale(0.25 -0.25)">
       <use xlink:href="#DejaVuSans-31"/>
       <use xlink:href="#DejaVuSans-2e" x="63.623047"/>
       <use xlink:href="#DejaVuSans-30" x="95.410156"/>
      </g>
     </g>
    </g>
    <g id="ytick_7">
     <g id="line2d_27">
      <path d="M 129.775152 36.72 
L 685.035 36.72 
" clip-path="url(#pb2bfd3200e)" style="fill: none; stroke: #b0b0b0; stroke-width: 0.8; stroke-linecap: square"/>
     </g>
     <g id="line2d_28">
      <g>
       <use xlink:href="#mc1892873ee" x="129.775152" y="36.72" style="stroke: #000000; stroke-width: 0.8"/>
      </g>
     </g>
     <g id="text_15">
      <!-- 1.2 -->
      <g transform="translate(83.017339 46.218047) scale(0.25 -0.25)">
       <use xlink:href="#DejaVuSans-31"/>
       <use xlink:href="#DejaVuSans-2e" x="63.623047"/>
       <use xlink:href="#DejaVuSans-32" x="95.410156"/>
      </g>
     </g>
    </g>
    <g id="text_16">
     <!-- $\rho$($\omega$) -->
     <g transform="translate(27.017339 257.68625) scale(0.25 -0.25)">
      <defs>
       <path id="DejaVuSans-Oblique-3c1" d="M 1203 2875 
Q 1453 3194 1981 3475 
Q 2188 3584 2756 3584 
Q 3394 3584 3694 3078 
Q 3994 2572 3834 1747 
Q 3672 922 3175 415 
Q 2678 -91 2041 -91 
Q 1656 -91 1409 63 
Q 1163 213 1044 525 
L 681 -1331 
L 103 -1331 
L 697 1716 
Q 838 2438 1203 2875 
z
M 3238 1747 
Q 3359 2381 3169 2744 
Q 2978 3103 2522 3103 
Q 2066 3103 1734 2744 
Q 1403 2381 1281 1747 
Q 1156 1113 1347 750 
Q 1538 391 1994 391 
Q 2450 391 2781 750 
Q 3113 1113 3238 1747 
z
" transform="scale(0.015625)"/>
       <path id="Calibri-28" d="M 1547 4306 
Q 1250 3678 1104 3017 
Q 959 2356 959 1688 
Q 959 1016 1107 356 
Q 1256 -303 1541 -938 
Q 1556 -975 1557 -1001 
Q 1559 -1028 1537 -1045 
Q 1516 -1063 1470 -1070 
Q 1425 -1078 1347 -1078 
Q 1291 -1078 1250 -1075 
Q 1209 -1072 1179 -1062 
Q 1150 -1053 1131 -1040 
Q 1113 -1028 1103 -1013 
Q 934 -694 806 -367 
Q 678 -41 590 296 
Q 503 634 459 979 
Q 416 1325 416 1678 
Q 416 2031 464 2375 
Q 513 2719 602 3058 
Q 691 3397 819 3725 
Q 947 4053 1106 4375 
Q 1109 4388 1123 4397 
Q 1138 4406 1163 4415 
Q 1188 4425 1231 4429 
Q 1275 4434 1344 4434 
Q 1416 4434 1459 4425 
Q 1503 4416 1528 4400 
Q 1553 4384 1556 4359 
Q 1559 4334 1547 4306 
z
" transform="scale(0.015625)"/>
       <path id="Calibri-29" d="M 1522 1678 
Q 1522 1325 1478 979 
Q 1434 634 1346 296 
Q 1259 -41 1132 -367 
Q 1006 -694 838 -1013 
Q 828 -1028 809 -1040 
Q 791 -1053 761 -1062 
Q 731 -1072 690 -1075 
Q 650 -1078 594 -1078 
Q 513 -1078 467 -1070 
Q 422 -1063 401 -1045 
Q 381 -1028 382 -1001 
Q 384 -975 400 -938 
Q 688 -306 834 355 
Q 981 1016 981 1688 
Q 981 2356 834 3017 
Q 688 3678 394 4306 
Q 381 4334 384 4359 
Q 388 4384 413 4400 
Q 438 4416 481 4425 
Q 525 4434 597 4434 
Q 663 4434 706 4429 
Q 750 4425 776 4415 
Q 803 4406 815 4397 
Q 828 4388 834 4375 
Q 1156 3734 1339 3057 
Q 1522 2381 1522 1678 
z
" transform="scale(0.015625)"/>
      </defs>
      <use xlink:href="#DejaVuSans-Oblique-3c1" transform="translate(0 0.71875)"/>
      <use xlink:href="#Calibri-28" transform="translate(63.476562 0.71875)"/>
      <use xlink:href="#DejaVuSans-Oblique-3c9" transform="translate(93.798828 0.71875)"/>
      <use xlink:href="#Calibri-29" transform="translate(177.539062 0.71875)"/>
     </g>
    </g>
   </g>
   <g id="line2d_29">
    <path d="M 129.775152 485.191726 
L 155.342673 484.357586 
L 176.463668 483.453498 
L 194.527677 482.46213 
L 209.812608 481.407831 
L 223.152183 480.271633 
L 234.824312 479.061062 
L 245.106902 477.779351 
L 254.277861 476.42091 
L 262.615096 474.96598 
L 270.118607 473.43544 
L 277.066303 471.789852 
L 283.180275 470.122023 
L 289.01634 468.299747 
L 294.296588 466.420579 
L 299.298929 464.401354 
L 303.745455 462.37756 
L 307.914072 460.252334 
L 312.08269 457.871329 
L 315.973399 455.381981 
L 319.586201 452.803903 
L 322.921095 450.162848 
L 326.255989 447.235062 
L 329.312975 444.264491 
L 332.369961 440.981839 
L 335.14904 437.690985 
L 337.928118 434.069935 
L 340.707196 430.076083 
L 343.486275 425.660385 
L 345.987445 421.279051 
L 348.488616 416.463255 
L 350.989786 411.159493 
L 353.490957 405.30707 
L 355.992127 398.837288 
L 358.493298 391.672671 
L 360.71656 384.650778 
L 362.939823 376.943851 
L 365.163086 368.478348 
L 367.386348 359.175174 
L 369.609611 348.950806 
L 371.832874 337.719359 
L 374.056136 325.396011 
L 376.279399 311.90232 
L 378.780569 295.243962 
L 381.28174 276.972296 
L 383.78291 257.104693 
L 386.561989 233.312559 
L 390.17479 200.351722 
L 396.010855 146.782085 
L 398.234118 128.471207 
L 399.901565 116.346345 
L 401.291104 107.617616 
L 402.680643 100.372585 
L 403.792274 95.775724 
L 404.625998 93.082969 
L 405.459721 91.068857 
L 406.015537 90.113935 
L 406.571352 89.474771 
L 407.127168 89.15442 
L 407.682984 89.15442 
L 408.238799 89.474771 
L 408.794615 90.113935 
L 409.350431 91.068857 
L 410.184154 93.082969 
L 411.017878 95.775724 
L 412.129509 100.372585 
L 413.24114 106.043297 
L 414.63068 114.492112 
L 416.298127 126.340685 
L 418.243481 142.019089 
L 420.744652 164.145858 
L 430.749334 254.802741 
L 433.528412 276.972296 
L 436.029583 295.243962 
L 438.530753 311.90232 
L 441.031924 326.998923 
L 443.533094 340.626334 
L 445.756357 351.597943 
L 447.979619 361.584007 
L 450.202882 370.670079 
L 452.704053 379.918766 
L 455.205223 388.242991 
L 457.706394 395.743738 
L 460.207564 402.512223 
L 462.708735 408.630041 
L 465.209905 414.169702 
L 467.711075 419.195358 
L 470.212246 423.763608 
L 472.991324 428.363411 
L 475.770403 432.519723 
L 478.549481 436.284441 
L 481.328559 439.702634 
L 484.385545 443.109017 
L 487.442532 446.188525 
L 490.777426 449.220669 
L 494.11232 451.953137 
L 497.725121 454.617796 
L 501.337923 457.013907 
L 505.228633 459.332771 
L 509.39725 461.555817 
L 513.843776 463.669574 
L 518.568209 465.665121 
L 523.57055 467.537459 
L 529.128706 469.370984 
L 534.964771 471.059658 
L 541.356651 472.675741 
L 548.304347 474.201372 
L 556.085766 475.674049 
L 564.700909 477.06667 
L 574.149775 478.361688 
L 584.710273 479.578987 
L 596.660309 480.725143 
L 610.277793 481.798417 
L 625.840632 482.792931 
L 643.626733 483.701997 
L 664.46982 484.540252 
L 685.035 485.191726 
L 685.035 485.191726 
" clip-path="url(#pb2bfd3200e)" style="fill: none; stroke-dasharray: 14.8,6.4; stroke-dashoffset: 0; stroke: #ff0000; stroke-width: 4"/>
   </g>
   <g id="line2d_30">
    <path d="M 129.775152 484.459111 
L 130.330968 484.459111 
L 130.608875 486.135321 
L 131.164691 483.788627 
L 131.442599 485.464837 
L 131.720507 485.464837 
L 131.998415 487.141048 
L 132.276322 484.794353 
L 132.55423 483.453385 
L 132.832138 486.135321 
L 133.110046 486.470563 
L 133.387954 487.141048 
L 133.665862 485.464837 
L 134.221677 484.123869 
L 134.499585 485.464837 
L 134.777493 482.447659 
L 135.055401 485.464837 
L 135.333309 484.794353 
L 135.611216 484.459111 
L 135.889124 484.459111 
L 136.44494 483.118143 
L 136.722848 485.129595 
L 137.000756 485.800079 
L 137.556571 484.459111 
L 137.834479 484.459111 
L 138.112387 484.123869 
L 138.390295 485.464837 
L 138.94611 483.118143 
L 139.224018 485.129595 
L 139.501926 485.800079 
L 139.779834 485.464837 
L 140.057742 485.800079 
L 140.33565 484.459111 
L 140.613557 484.459111 
L 140.891465 484.794353 
L 141.169373 483.788627 
L 141.447281 485.129595 
L 141.725189 484.123869 
L 142.003097 484.794353 
L 142.281004 484.123869 
L 142.558912 484.794353 
L 142.83682 485.129595 
L 143.392636 485.129595 
L 143.670544 486.135321 
L 143.948451 482.782901 
L 144.226359 483.118143 
L 144.504267 482.447659 
L 144.782175 485.129595 
L 145.060083 483.118143 
L 145.337991 486.805806 
L 145.615898 485.129595 
L 145.893806 481.441932 
L 146.171714 483.118143 
L 146.449622 486.135321 
L 146.72753 485.800079 
L 147.005438 481.777174 
L 147.283345 485.800079 
L 147.561253 484.459111 
L 147.839161 485.800079 
L 148.117069 484.123869 
L 148.394977 485.464837 
L 148.672885 484.123869 
L 148.950792 487.47629 
L 149.2287 485.464837 
L 149.506608 484.794353 
L 149.784516 484.794353 
L 150.062424 485.800079 
L 150.340332 484.123869 
L 150.618239 483.453385 
L 150.896147 480.436206 
L 151.174055 482.782901 
L 151.451963 482.782901 
L 151.729871 484.123869 
L 152.285686 484.123869 
L 152.563594 483.788627 
L 152.841502 482.112417 
L 153.397318 485.129595 
L 153.675226 485.129595 
L 153.953133 484.459111 
L 154.231041 486.135321 
L 154.508949 483.453385 
L 154.786857 483.453385 
L 155.064765 484.459111 
L 155.342673 483.118143 
L 155.62058 484.123869 
L 155.898488 482.447659 
L 156.176396 482.782901 
L 156.454304 485.129595 
L 156.732212 484.123869 
L 157.010119 484.123869 
L 157.288027 483.118143 
L 157.843843 483.788627 
L 158.121751 484.794353 
L 158.399659 483.453385 
L 158.677566 486.805806 
L 158.955474 483.453385 
L 159.233382 483.453385 
L 159.51129 482.782901 
L 159.789198 482.447659 
L 160.067106 483.788627 
L 160.345013 483.788627 
L 160.622921 482.447659 
L 160.900829 481.777174 
L 161.178737 484.123869 
L 161.456645 482.112417 
L 161.734553 484.459111 
L 162.01246 485.464837 
L 162.290368 485.129595 
L 162.568276 485.464837 
L 162.846184 482.447659 
L 163.124092 485.129595 
L 163.679907 481.441932 
L 163.957815 483.118143 
L 164.235723 483.118143 
L 164.513631 482.447659 
L 164.791539 485.129595 
L 165.069447 485.129595 
L 165.347354 482.112417 
L 165.625262 481.441932 
L 165.90317 483.453385 
L 166.181078 483.118143 
L 166.458986 480.771448 
L 166.736894 484.794353 
L 167.570617 480.436206 
L 167.848525 484.459111 
L 168.126433 481.441932 
L 168.404341 482.112417 
L 168.682248 482.447659 
L 168.960156 484.794353 
L 169.238064 486.135321 
L 169.515972 486.470563 
L 170.071788 483.788627 
L 170.349695 484.123869 
L 170.627603 485.129595 
L 170.905511 483.788627 
L 171.183419 483.118143 
L 171.461327 483.453385 
L 171.739235 484.123869 
L 172.017142 482.782901 
L 172.572958 484.123869 
L 172.850866 484.123869 
L 173.128774 480.436206 
L 173.406682 484.123869 
L 173.684589 483.453385 
L 173.962497 481.441932 
L 174.240405 482.447659 
L 174.518313 484.123869 
L 174.796221 483.788627 
L 175.074129 479.095238 
L 175.352036 482.447659 
L 175.629944 483.788627 
L 175.907852 484.459111 
L 176.18576 483.788627 
L 176.463668 485.129595 
L 176.741576 481.10669 
L 177.019483 483.118143 
L 177.297391 483.788627 
L 177.575299 483.453385 
L 177.853207 483.453385 
L 178.131115 483.118143 
L 178.409023 483.788627 
L 178.68693 482.782901 
L 178.964838 481.10669 
L 179.242746 483.118143 
L 179.520654 481.777174 
L 179.798562 484.123869 
L 180.07647 483.453385 
L 180.354377 479.765722 
L 180.632285 480.436206 
L 180.910193 480.771448 
L 181.188101 484.123869 
L 181.466009 483.788627 
L 181.743917 481.441932 
L 182.021824 483.788627 
L 182.299732 482.447659 
L 182.855548 483.118143 
L 183.133456 483.118143 
L 183.411364 483.788627 
L 183.689271 480.100964 
L 183.967179 481.441932 
L 184.245087 485.464837 
L 184.522995 482.782901 
L 184.800903 482.447659 
L 185.078811 484.459111 
L 185.356718 483.453385 
L 185.634626 481.10669 
L 185.912534 483.788627 
L 186.190442 484.459111 
L 186.46835 481.777174 
L 186.746258 483.788627 
L 187.024165 482.782901 
L 187.302073 480.771448 
L 187.579981 481.777174 
L 187.857889 481.777174 
L 188.135797 481.10669 
L 188.413704 484.459111 
L 188.691612 483.453385 
L 188.96952 484.794353 
L 189.247428 482.112417 
L 189.525336 482.112417 
L 189.803244 480.771448 
L 190.081151 483.118143 
L 190.359059 480.771448 
L 190.636967 482.112417 
L 190.914875 478.759996 
L 191.192783 482.782901 
L 191.470691 483.453385 
L 191.748598 481.441932 
L 192.026506 482.447659 
L 192.304414 482.782901 
L 192.582322 479.765722 
L 192.86023 479.765722 
L 193.416045 483.453385 
L 193.693953 482.447659 
L 193.971861 483.453385 
L 194.249769 480.100964 
L 194.805585 480.771448 
L 195.083492 481.441932 
L 195.3614 481.777174 
L 195.639308 479.765722 
L 196.473032 482.782901 
L 196.750939 482.112417 
L 197.028847 482.782901 
L 197.306755 480.100964 
L 197.584663 479.765722 
L 198.418386 484.123869 
L 198.696294 480.100964 
L 198.974202 480.100964 
L 199.25211 479.43048 
L 199.530018 482.782901 
L 199.807926 479.095238 
L 200.085833 483.118143 
L 200.363741 482.112417 
L 200.641649 480.100964 
L 200.919557 479.43048 
L 201.197465 483.453385 
L 201.475373 481.10669 
L 201.75328 482.112417 
L 202.031188 481.441932 
L 202.309096 482.782901 
L 202.587004 483.453385 
L 202.864912 482.782901 
L 203.14282 480.436206 
L 203.420727 481.441932 
L 203.698635 478.759996 
L 203.976543 481.441932 
L 204.254451 480.771448 
L 204.810267 483.453385 
L 205.088174 482.782901 
L 205.366082 483.118143 
L 205.64399 480.771448 
L 205.921898 480.771448 
L 206.199806 480.436206 
L 206.477714 478.424754 
L 206.755621 481.441932 
L 207.033529 480.436206 
L 207.311437 481.10669 
L 207.589345 481.441932 
L 207.867253 480.771448 
L 208.145161 482.782901 
L 208.423068 481.777174 
L 208.978884 483.788627 
L 209.256792 481.441932 
L 209.812608 482.112417 
L 210.090515 480.100964 
L 210.368423 482.112417 
L 210.646331 480.771448 
L 210.924239 483.453385 
L 211.202147 480.771448 
L 211.480055 482.447659 
L 211.757962 481.441932 
L 212.313778 482.112417 
L 212.591686 479.765722 
L 212.869594 480.100964 
L 213.147502 481.441932 
L 213.425409 479.765722 
L 213.703317 480.771448 
L 213.981225 482.447659 
L 214.259133 478.424754 
L 214.537041 482.782901 
L 214.814949 482.447659 
L 215.370764 478.089512 
L 215.648672 478.759996 
L 215.92658 480.436206 
L 216.204488 479.095238 
L 216.482396 482.112417 
L 216.760303 483.118143 
L 217.038211 480.100964 
L 217.316119 479.765722 
L 217.594027 481.10669 
L 217.871935 481.10669 
L 218.149843 478.424754 
L 218.42775 478.089512 
L 218.705658 482.112417 
L 218.983566 479.095238 
L 219.261474 480.100964 
L 219.539382 479.765722 
L 219.817289 479.765722 
L 220.373105 481.441932 
L 220.651013 478.759996 
L 220.928921 481.10669 
L 221.206829 481.10669 
L 221.484736 480.771448 
L 221.762644 482.112417 
L 222.040552 480.771448 
L 222.31846 480.771448 
L 222.596368 480.436206 
L 222.874276 478.424754 
L 223.152183 479.765722 
L 223.430091 478.424754 
L 223.985907 481.441932 
L 224.541723 475.407575 
L 224.81963 475.072333 
L 225.097538 480.100964 
L 225.375446 482.112417 
L 225.653354 475.407575 
L 225.931262 481.10669 
L 226.20917 481.441932 
L 226.487077 476.748543 
L 226.764985 479.095238 
L 227.042893 479.765722 
L 227.320801 478.424754 
L 227.598709 480.436206 
L 227.876617 480.100964 
L 228.154524 479.43048 
L 228.432432 480.100964 
L 228.71034 478.089512 
L 228.988248 480.436206 
L 229.266156 475.072333 
L 229.544064 478.759996 
L 229.821971 480.436206 
L 230.099879 480.100964 
L 230.377787 477.083786 
L 230.655695 478.759996 
L 230.933603 479.43048 
L 231.211511 480.436206 
L 231.489418 480.436206 
L 231.767326 477.419028 
L 232.045234 479.765722 
L 232.323142 478.759996 
L 232.60105 475.742817 
L 232.878958 477.75427 
L 233.156865 476.413301 
L 233.434773 478.759996 
L 233.712681 478.424754 
L 233.990589 481.10669 
L 234.268497 477.083786 
L 234.546405 478.089512 
L 234.824312 476.413301 
L 235.380128 479.43048 
L 235.658036 475.072333 
L 235.935944 479.43048 
L 236.213852 481.10669 
L 236.491759 475.742817 
L 236.769667 480.771448 
L 237.047575 480.100964 
L 237.325483 474.737091 
L 237.881299 479.765722 
L 238.159206 479.095238 
L 238.437114 479.765722 
L 238.715022 476.413301 
L 238.99293 478.424754 
L 239.270838 475.407575 
L 239.548746 479.765722 
L 239.826653 474.066607 
L 240.104561 473.731365 
L 240.382469 477.75427 
L 240.660377 479.43048 
L 240.938285 477.75427 
L 241.216193 477.083786 
L 241.4941 479.095238 
L 241.772008 478.089512 
L 242.049916 476.078059 
L 242.327824 477.419028 
L 242.605732 479.765722 
L 242.88364 477.75427 
L 243.161547 474.066607 
L 243.717363 480.100964 
L 243.995271 477.75427 
L 244.273179 476.413301 
L 244.551087 473.060881 
L 244.828994 478.759996 
L 245.106902 475.742817 
L 245.38481 478.089512 
L 245.662718 478.759996 
L 245.940626 479.095238 
L 246.496441 475.742817 
L 246.774349 476.748543 
L 247.052257 474.401849 
L 247.330165 475.072333 
L 247.608073 478.759996 
L 247.885981 477.083786 
L 248.441796 476.413301 
L 248.719704 479.095238 
L 248.997612 478.759996 
L 249.27552 475.407575 
L 249.553428 479.43048 
L 249.831335 473.731365 
L 250.109243 475.742817 
L 250.387151 474.401849 
L 250.665059 476.748543 
L 250.942967 472.725639 
L 251.220874 477.75427 
L 251.498782 474.066607 
L 251.77669 477.419028 
L 252.054598 477.083786 
L 252.332506 477.75427 
L 252.610414 477.083786 
L 252.888321 477.083786 
L 253.166229 476.413301 
L 253.722045 475.742817 
L 253.999953 476.078059 
L 254.277861 471.719912 
L 254.555768 479.095238 
L 254.833676 476.748543 
L 255.111584 477.419028 
L 255.389492 475.072333 
L 255.6674 476.078059 
L 255.945308 475.742817 
L 256.223215 475.072333 
L 256.501123 477.419028 
L 256.779031 476.748543 
L 257.056939 473.731365 
L 257.334847 473.396123 
L 257.612755 470.714186 
L 257.890662 475.742817 
L 258.16857 473.060881 
L 258.446478 475.072333 
L 258.724386 474.066607 
L 259.002294 476.748543 
L 259.280202 477.419028 
L 259.558109 472.725639 
L 259.836017 475.742817 
L 260.113925 470.714186 
L 260.391833 471.719912 
L 260.947649 476.748543 
L 261.225556 478.424754 
L 261.503464 474.066607 
L 261.781372 473.060881 
L 262.05928 472.725639 
L 262.337188 476.748543 
L 262.615096 472.725639 
L 262.893003 474.737091 
L 263.170911 479.095238 
L 263.448819 471.719912 
L 263.726727 475.407575 
L 264.004635 471.38467 
L 264.282543 474.737091 
L 264.56045 472.390397 
L 264.838358 471.719912 
L 265.116266 471.38467 
L 265.394174 476.748543 
L 265.672082 477.419028 
L 265.94999 472.055154 
L 266.227897 474.066607 
L 266.505805 475.072333 
L 266.783713 472.055154 
L 267.061621 474.401849 
L 267.339529 475.742817 
L 267.617437 472.390397 
L 267.895344 470.714186 
L 268.173252 474.066607 
L 268.729068 470.043702 
L 269.006976 476.078059 
L 269.284884 470.378944 
L 269.562791 471.38467 
L 269.840699 473.060881 
L 270.118607 471.049428 
L 270.396515 472.390397 
L 270.674423 474.401849 
L 270.952331 471.719912 
L 271.230238 473.060881 
L 271.508146 470.378944 
L 271.786054 472.055154 
L 272.063962 471.719912 
L 272.34187 468.702734 
L 272.619778 474.066607 
L 272.897685 466.691281 
L 273.175593 464.679829 
L 273.453501 473.396123 
L 273.731409 474.066607 
L 274.009317 474.066607 
L 274.287225 472.725639 
L 274.565132 466.020797 
L 275.120948 474.066607 
L 275.676764 469.373218 
L 275.954672 469.373218 
L 276.232579 466.356039 
L 276.510487 471.719912 
L 276.788395 468.367492 
L 277.066303 471.719912 
L 277.344211 470.378944 
L 277.622119 475.742817 
L 277.900026 473.396123 
L 278.177934 474.066607 
L 278.455842 468.03225 
L 278.73375 473.060881 
L 279.011658 472.725639 
L 279.289566 466.691281 
L 279.567473 467.361766 
L 279.845381 470.378944 
L 280.123289 467.697008 
L 280.401197 469.70846 
L 280.679105 469.037976 
L 280.957013 465.350313 
L 281.23492 468.03225 
L 281.512828 464.679829 
L 281.790736 471.719912 
L 282.068644 466.356039 
L 282.346552 466.691281 
L 283.180275 472.390397 
L 283.736091 471.049428 
L 284.013999 473.396123 
L 284.291906 471.049428 
L 284.569814 471.049428 
L 284.847722 470.714186 
L 285.12563 472.390397 
L 285.681446 464.344587 
L 286.237261 471.049428 
L 286.515169 472.055154 
L 286.793077 469.037976 
L 287.070985 463.674103 
L 287.348893 468.367492 
L 287.6268 468.702734 
L 287.904708 469.373218 
L 288.182616 468.367492 
L 288.460524 464.679829 
L 288.738432 469.037976 
L 289.01634 465.015071 
L 289.294247 468.03225 
L 289.572155 466.356039 
L 289.850063 467.026523 
L 290.683787 464.344587 
L 290.961694 461.327408 
L 291.239602 467.026523 
L 291.51751 467.697008 
L 291.795418 463.338861 
L 292.073326 466.356039 
L 292.351234 465.685555 
L 292.629141 458.31023 
L 293.184957 467.361766 
L 293.462865 470.043702 
L 293.740773 468.03225 
L 294.018681 465.015071 
L 294.574496 463.338861 
L 294.852404 464.344587 
L 295.130312 461.327408 
L 295.40822 464.679829 
L 295.686128 460.656924 
L 295.964035 465.015071 
L 296.241943 460.656924 
L 296.519851 460.656924 
L 296.797759 461.997892 
L 297.075667 468.702734 
L 297.353575 463.338861 
L 297.631482 467.026523 
L 297.90939 462.333134 
L 298.187298 460.656924 
L 298.465206 461.327408 
L 298.743114 464.009345 
L 299.021022 464.009345 
L 299.298929 467.697008 
L 299.576837 464.009345 
L 299.854745 466.020797 
L 300.410561 458.645472 
L 300.688469 466.356039 
L 300.966376 466.020797 
L 301.244284 461.997892 
L 301.522192 462.333134 
L 301.8001 457.639746 
L 302.078008 460.656924 
L 302.633823 463.338861 
L 303.189639 457.974988 
L 303.467547 465.685555 
L 303.745455 460.321682 
L 304.023363 458.31023 
L 304.579178 456.634019 
L 304.857086 457.639746 
L 305.134994 464.679829 
L 305.412902 457.974988 
L 305.69081 462.333134 
L 305.968717 459.98644 
L 306.524533 457.639746 
L 306.802441 463.338861 
L 307.080349 464.009345 
L 307.358257 459.315956 
L 307.636164 462.668377 
L 307.914072 459.98644 
L 308.19198 458.980714 
L 308.469888 453.952083 
L 308.747796 462.333134 
L 309.025704 463.338861 
L 309.303611 461.327408 
L 309.581519 451.94063 
L 309.859427 458.31023 
L 310.137335 449.929178 
L 310.415243 458.980714 
L 310.693151 453.952083 
L 310.971058 458.645472 
L 311.248966 454.957809 
L 311.804782 456.969261 
L 312.360597 451.94063 
L 312.638505 454.622567 
L 312.916413 453.616841 
L 313.194321 453.616841 
L 313.472229 449.929178 
L 313.750137 456.298777 
L 314.028044 455.963535 
L 314.305952 451.94063 
L 314.58386 452.611114 
L 314.861768 456.298777 
L 315.139676 446.911999 
L 315.417584 449.593936 
L 315.695491 457.974988 
L 315.973399 449.593936 
L 316.251307 450.599662 
L 316.529215 449.929178 
L 317.085031 455.293051 
L 317.362938 447.247241 
L 317.640846 450.599662 
L 317.918754 447.582483 
L 318.47457 457.304503 
L 318.752478 448.58821 
L 319.030385 448.923452 
L 319.308293 447.917726 
L 319.586201 455.963535 
L 319.864109 457.304503 
L 320.142017 445.571031 
L 320.419925 447.247241 
L 320.697832 451.605388 
L 320.97574 450.599662 
L 321.253648 447.247241 
L 321.531556 450.934904 
L 321.809464 447.917726 
L 322.087372 452.275872 
L 322.365279 451.94063 
L 322.643187 452.275872 
L 322.921095 442.21861 
L 323.199003 448.252968 
L 323.476911 446.576757 
L 323.754819 449.929178 
L 324.032726 436.854737 
L 324.310634 448.252968 
L 324.588542 445.235789 
L 324.86645 443.894821 
L 325.144358 443.224337 
L 325.422266 439.201432 
L 325.700173 442.553852 
L 325.978081 443.559579 
L 326.255989 440.207158 
L 326.533897 445.235789 
L 326.811805 436.854737 
L 327.089713 443.894821 
L 327.36762 437.860463 
L 327.645528 444.230063 
L 328.201344 441.212884 
L 328.479252 443.224337 
L 328.75716 438.530948 
L 329.035067 446.911999 
L 329.312975 441.212884 
L 329.590883 445.571031 
L 329.868791 440.877642 
L 330.146699 443.894821 
L 330.424607 438.86619 
L 330.702514 441.548126 
L 330.980422 439.536674 
L 331.25833 439.536674 
L 331.536238 444.230063 
L 332.369961 426.462233 
L 332.647869 438.530948 
L 332.925777 435.849011 
L 333.203685 438.195705 
L 333.481593 437.189979 
L 333.759501 434.508043 
L 334.037408 437.860463 
L 334.315316 438.195705 
L 334.593224 436.854737 
L 334.871132 432.49659 
L 335.14904 435.513769 
L 335.426948 442.21861 
L 335.704855 431.826106 
L 335.982763 429.814654 
L 336.260671 425.791749 
L 336.538579 431.155622 
L 336.816487 433.837559 
L 337.094395 427.132717 
L 337.372302 433.837559 
L 337.65021 432.161348 
L 337.928118 424.786023 
L 338.206026 428.473685 
L 338.483934 436.184253 
L 339.039749 429.814654 
L 339.317657 427.132717 
L 339.595565 428.473685 
L 339.873473 430.82038 
L 340.151381 428.473685 
L 340.429289 421.768844 
L 340.707196 426.126991 
L 340.985104 426.462233 
L 341.263012 420.427876 
L 341.54092 431.155622 
L 341.818828 420.763118 
L 342.096736 428.138443 
L 342.374643 424.450781 
L 342.652551 427.132717 
L 342.930459 423.445054 
L 343.486275 421.768844 
L 343.764182 426.797475 
L 344.319998 414.393519 
L 344.597906 419.757392 
L 344.875814 411.37634 
L 345.153722 415.399245 
L 345.431629 422.439328 
L 345.709537 423.445054 
L 345.987445 415.734487 
L 346.265353 412.382066 
L 346.543261 416.069729 
L 346.821169 410.035372 
L 347.099076 416.404971 
L 347.376984 408.359161 
L 347.654892 420.763118 
L 347.9328 406.012467 
L 348.210708 413.387792 
L 348.488616 407.353435 
L 348.766523 412.717308 
L 349.044431 410.705856 
L 349.322339 413.05255 
L 349.600247 410.035372 
L 349.878155 408.694403 
L 350.156063 411.37634 
L 350.43397 403.33053 
L 350.711878 406.682951 
L 350.989786 403.33053 
L 351.267694 408.359161 
L 351.545602 408.359161 
L 351.82351 408.023919 
L 352.101417 404.336257 
L 352.379325 404.336257 
L 352.657233 405.341983 
L 352.935141 390.591332 
L 353.213049 396.290447 
L 353.490957 395.619963 
L 353.768864 407.688677 
L 354.32468 392.602784 
L 354.602588 399.307625 
L 354.880496 393.943752 
L 355.158404 393.943752 
L 355.714219 397.296173 
L 355.992127 400.313352 
L 356.270035 391.9323 
L 356.547943 394.278994 
L 356.825851 394.949479 
L 357.103758 384.556974 
L 357.381666 399.97811 
L 357.659574 386.233185 
L 358.21539 375.840681 
L 358.493298 387.574153 
L 358.771205 391.9323 
L 359.049113 391.597058 
L 359.327021 380.869312 
L 359.604929 376.846407 
L 359.882837 374.499712 
L 360.160745 384.892217 
L 360.438652 368.800597 
L 360.71656 377.181649 
L 360.994468 373.493986 
L 361.272376 378.522617 
L 361.550284 375.170197 
L 361.828192 366.118661 
L 362.106099 370.81205 
L 362.384007 384.892217 
L 362.661915 360.084303 
L 362.939823 373.493986 
L 363.217731 368.130113 
L 363.495639 360.084303 
L 363.773546 355.726156 
L 364.051454 364.107208 
L 364.329362 353.379462 
L 364.60727 356.061399 
L 364.885178 354.385188 
L 365.163086 356.731883 
L 365.440993 355.055672 
L 365.718901 357.067125 
L 365.996809 347.009863 
L 366.274717 353.714704 
L 366.552625 356.396641 
L 366.830533 344.99841 
L 367.10844 339.634537 
L 367.386348 354.72043 
L 367.942164 347.009863 
L 368.220072 347.680347 
L 368.49798 349.021315 
L 368.775887 344.327926 
L 369.053795 333.60018 
L 369.331703 343.657442 
L 369.609611 347.680347 
L 369.887519 344.99841 
L 370.165427 331.253485 
L 370.443334 324.213402 
L 370.721242 332.594454 
L 370.99915 329.577275 
L 371.554966 327.230581 
L 371.832874 330.583001 
L 372.388689 322.872434 
L 372.666597 327.901065 
L 373.222413 316.838076 
L 373.500321 323.542918 
L 373.778228 315.497108 
L 374.056136 319.184771 
L 374.334044 301.752183 
L 374.611952 321.866708 
L 374.88986 319.855255 
L 375.445675 293.03589 
L 375.723583 305.775088 
L 376.001491 304.43412 
L 376.279399 291.024437 
L 376.557307 294.7121 
L 377.113122 303.428394 
L 377.668938 294.041616 
L 377.946846 301.752183 
L 378.224754 287.672016 
L 378.502661 292.700648 
L 378.780569 274.262334 
L 379.058477 288.342501 
L 379.336385 291.694921 
L 379.614293 263.199345 
L 379.892201 270.909913 
L 380.170108 265.881282 
L 380.448016 284.99008 
L 380.725924 264.875556 
L 381.003832 265.881282 
L 381.559648 254.14781 
L 381.837555 253.477325 
L 382.115463 255.488778 
L 382.393371 249.119179 
L 382.671279 262.193619 
L 382.949187 235.039012 
L 383.227095 252.136357 
L 383.505002 235.709496 
L 383.78291 236.715222 
L 384.060818 228.33417 
L 384.338726 247.77821 
L 384.616634 231.686591 
L 384.894542 225.316992 
L 385.172449 235.709496 
L 385.450357 231.351349 
L 385.728265 217.941666 
L 386.006173 239.397159 
L 386.561989 215.930214 
L 386.839896 224.646507 
L 387.117804 198.162384 
L 387.395712 209.895856 
L 387.67362 202.855773 
L 387.951528 188.440364 
L 388.229436 210.566341 
L 388.507343 198.162384 
L 388.785251 195.145205 
L 389.063159 176.036407 
L 389.341067 189.110848 
L 389.618975 196.486174 
L 389.896883 175.365923 
L 390.452698 185.087943 
L 390.730606 178.718344 
L 391.008514 168.661082 
L 391.286422 189.110848 
L 391.56433 146.199863 
L 391.842237 191.122301 
L 392.398053 161.956241 
L 392.675961 156.257125 
L 392.953869 138.824538 
L 393.231777 162.961967 
L 393.509684 150.55801 
L 393.787592 149.552284 
L 394.0655 145.194137 
L 394.343408 144.188411 
L 394.621316 131.784454 
L 395.177131 139.830264 
L 395.455039 132.790181 
L 395.732947 128.767276 
L 396.010855 120.721466 
L 396.288763 117.369045 
L 396.566671 119.045256 
L 396.844578 119.71574 
L 397.122486 105.970815 
L 397.400394 119.380498 
L 397.678302 101.277426 
L 397.95621 94.237343 
L 398.234118 127.426307 
L 398.512025 108.652752 
L 398.789933 97.589763 
L 399.067841 78.480965 
L 399.345749 103.624121 
L 399.623657 95.913553 
L 399.901565 68.088461 
L 400.179472 89.543954 
L 400.45738 73.452334 
L 400.735288 96.584037 
L 401.013196 71.776124 
L 401.291104 85.856291 
L 401.569012 60.042652 
L 401.846919 62.724588 
L 402.402735 74.793303 
L 402.680643 59.036925 
L 402.958551 72.446608 
L 403.236459 105.970815 
L 403.514366 81.833386 
L 404.070182 67.082735 
L 404.34809 77.810481 
L 404.625998 72.78185 
L 404.903906 83.509596 
L 405.181813 56.019747 
L 405.459721 80.82766 
L 405.737629 49.314905 
L 406.293445 71.440882 
L 406.571352 67.082735 
L 406.84926 47.638695 
L 407.127168 71.776124 
L 407.405076 53.002568 
L 407.682984 55.014021 
L 407.960892 81.162902 
L 408.238799 43.951032 
L 408.516707 69.094187 
L 408.794615 42.610064 
L 409.072523 57.360715 
L 409.350431 53.673052 
L 409.628339 64.400798 
L 409.906246 39.928127 
L 410.184154 41.93958 
L 410.462062 68.088461 
L 410.73997 71.440882 
L 411.017878 69.429429 
L 411.295786 84.850565 
L 411.573693 85.521049 
L 411.851601 101.94791 
L 412.129509 50.320632 
L 412.407417 72.446608 
L 412.685325 67.082735 
L 412.963233 88.873469 
L 413.24114 61.38362 
L 413.519048 73.117092 
L 413.796956 66.412251 
L 414.074864 94.907827 
L 414.63068 86.862017 
L 414.908587 86.862017 
L 415.186495 102.953636 
L 415.464403 82.839112 
L 415.742311 114.351867 
L 416.020219 85.856291 
L 416.576034 100.2717 
L 416.853942 91.220164 
L 417.13185 111.334688 
L 417.409758 99.601216 
L 417.687666 112.675656 
L 417.965574 116.028077 
L 418.243481 125.079613 
L 418.521389 125.414855 
L 418.799297 108.987994 
L 419.077205 150.55801 
L 419.355113 126.420581 
L 419.633021 144.858895 
L 419.910928 115.692835 
L 420.188836 138.489296 
L 420.466744 119.71574 
L 420.744652 120.721466 
L 421.02256 125.414855 
L 421.300468 154.580915 
L 421.578375 142.176958 
L 421.856283 155.251399 
L 422.134191 161.956241 
L 422.412099 159.944788 
L 422.690007 159.274304 
L 422.967915 172.683987 
L 423.245822 174.360197 
L 423.52373 173.019229 
L 423.801638 159.944788 
L 424.079546 184.417459 
L 424.357454 178.04786 
L 424.635362 168.996324 
L 425.191177 186.764154 
L 425.469085 202.520531 
L 425.746993 196.150932 
L 426.024901 203.191015 
L 426.302809 195.81569 
L 426.580716 200.844321 
L 426.858624 210.566341 
L 427.136532 211.907309 
L 427.41444 200.844321 
L 427.692348 211.907309 
L 427.970256 211.236825 
L 428.248163 212.577793 
L 428.526071 223.976023 
L 428.803979 210.566341 
L 429.081887 222.635055 
L 429.359795 217.941666 
L 429.637703 236.715222 
L 429.91561 220.288361 
L 430.193518 225.987476 
L 430.471426 224.646507 
L 430.749334 226.65796 
L 431.027242 245.766758 
L 431.30515 244.090547 
L 431.583057 245.766758 
L 431.860965 249.119179 
L 432.138873 246.437242 
L 432.694689 262.864103 
L 432.972597 251.130631 
L 433.250504 262.193619 
L 433.528412 255.153536 
L 433.80632 264.205072 
L 434.084228 256.829746 
L 434.640044 287.001532 
L 434.917951 274.262334 
L 435.195859 271.580397 
L 435.473767 259.176441 
L 435.751675 262.193619 
L 436.029583 291.359679 
L 436.307491 287.672016 
L 436.585398 276.94427 
L 436.863306 288.677743 
L 437.141214 294.376858 
L 437.419122 302.422668 
L 437.69703 277.949996 
L 437.974937 295.047342 
L 438.252845 293.706374 
L 438.530753 300.411215 
L 438.808661 297.058794 
L 439.086569 310.133235 
L 439.364477 303.428394 
L 439.642384 307.116056 
L 439.920292 302.75791 
L 440.1982 309.462751 
L 440.476108 311.474203 
L 440.754016 311.138961 
L 441.031924 306.445572 
L 441.309831 316.502834 
L 441.587739 309.127509 
L 441.865647 334.605906 
L 442.143555 320.860981 
L 442.421463 331.588728 
L 442.699371 318.849529 
L 442.977278 315.161866 
L 443.255186 329.577275 
L 443.533094 329.577275 
L 443.811002 338.628811 
L 444.08891 332.259212 
L 444.366818 328.571549 
L 444.644725 328.236307 
L 444.922633 329.242033 
L 445.200541 348.015589 
L 445.478449 348.015589 
L 445.756357 343.992684 
L 446.034265 348.686073 
L 446.312172 332.929696 
L 446.59008 344.327926 
L 447.145896 356.731883 
L 447.423804 356.396641 
L 447.701712 352.708978 
L 447.979619 361.425272 
L 448.257527 351.36801 
L 448.535435 358.743335 
L 448.813343 356.731883 
L 449.091251 357.402367 
L 449.369159 365.112934 
L 449.647066 348.686073 
L 449.924974 364.44245 
L 450.202882 361.760514 
L 450.48079 362.430998 
L 450.758698 359.749061 
L 451.036606 369.471081 
L 451.314513 362.76624 
L 451.592421 363.771966 
L 451.870329 370.141565 
L 452.148237 368.465355 
L 452.704053 373.493986 
L 452.98196 364.107208 
L 453.259868 385.562701 
L 453.537776 376.511165 
L 453.815684 374.16447 
L 454.093592 383.216006 
L 454.3715 371.147292 
L 454.927315 381.875038 
L 455.205223 376.511165 
L 455.483131 394.614237 
L 455.761039 385.562701 
L 456.038947 389.585605 
L 456.316854 384.892217 
L 456.594762 390.926574 
L 456.87267 388.244637 
L 457.150578 383.216006 
L 457.428486 390.25609 
L 457.706394 383.551248 
L 458.262209 392.602784 
L 458.540117 383.88649 
L 458.818025 398.972383 
L 459.095933 396.960931 
L 459.373841 393.943752 
L 459.651748 405.006741 
L 459.929656 405.677225 
L 460.485472 399.97811 
L 460.76338 394.949479 
L 461.319195 408.023919 
L 461.597103 396.290447 
L 461.875011 397.631415 
L 462.152919 408.359161 
L 462.430827 399.642868 
L 462.708735 399.97811 
L 462.986642 409.70013 
L 463.26455 404.671499 
L 463.542458 406.682951 
L 463.820366 407.018193 
L 464.098274 409.364888 
L 464.376182 409.029645 
L 464.654089 402.324804 
L 464.931997 404.001014 
L 465.209905 401.319078 
L 465.487813 414.393519 
L 465.765721 418.416423 
L 466.043629 418.751665 
L 466.321536 406.012467 
L 466.877352 417.075455 
L 467.15526 409.70013 
L 467.433168 421.09836 
L 467.711075 422.77457 
L 467.988983 415.734487 
L 468.266891 412.717308 
L 468.544799 405.006741 
L 468.822707 413.723034 
L 469.100615 415.734487 
L 469.378522 414.058277 
L 469.65643 423.445054 
L 469.934338 418.081181 
L 470.212246 422.77457 
L 470.490154 417.410697 
L 470.768062 417.745939 
L 471.045969 425.791749 
L 471.323877 422.104086 
L 471.601785 421.768844 
L 471.879693 428.808928 
L 472.157601 431.490864 
L 472.435509 430.82038 
L 472.713416 419.42215 
L 472.991324 419.42215 
L 473.54714 427.803201 
L 473.825048 427.803201 
L 474.102956 433.167074 
L 474.380863 435.178527 
L 474.658771 425.121265 
L 474.936679 436.854737 
L 475.770403 426.462233 
L 476.04831 428.808928 
L 476.326218 439.536674 
L 476.604126 425.791749 
L 476.882034 435.178527 
L 477.159942 430.485138 
L 477.43785 428.473685 
L 477.715757 421.768844 
L 477.993665 435.849011 
L 478.271573 434.843285 
L 478.549481 431.155622 
L 478.827389 432.49659 
L 479.105297 423.445054 
L 479.383204 429.14417 
L 479.661112 430.82038 
L 479.93902 430.149896 
L 480.216928 434.508043 
L 480.494836 431.826106 
L 480.772744 434.172801 
L 481.050651 433.837559 
L 481.328559 439.536674 
L 481.606467 440.207158 
L 481.884375 433.502317 
L 482.162283 433.167074 
L 482.718098 440.5424 
L 482.996006 430.485138 
L 483.273914 438.195705 
L 483.551822 440.877642 
L 483.82973 449.258694 
L 484.107638 442.889094 
L 484.385545 441.883368 
L 484.663453 436.854737 
L 484.941361 437.189979 
L 485.219269 447.917726 
L 485.497177 440.207158 
L 485.775085 439.871916 
L 486.052992 441.212884 
L 486.3309 443.894821 
L 486.608808 444.230063 
L 486.886716 450.934904 
L 487.164624 444.565305 
L 487.442532 447.917726 
L 487.720439 449.593936 
L 487.998347 441.212884 
L 488.276255 446.576757 
L 488.554163 441.548126 
L 488.832071 452.275872 
L 489.109979 440.207158 
L 489.665794 450.934904 
L 489.943702 435.849011 
L 490.22161 445.235789 
L 490.499518 447.917726 
L 490.777426 449.258694 
L 491.333241 445.906273 
L 491.611149 448.58821 
L 491.889057 443.224337 
L 492.166965 448.923452 
L 492.444873 450.934904 
L 492.72278 446.241515 
L 493.000688 445.235789 
L 493.278596 449.258694 
L 493.556504 451.270146 
L 493.834412 449.258694 
L 494.11232 453.281599 
L 494.390227 452.611114 
L 494.668135 452.611114 
L 494.946043 447.247241 
L 495.223951 447.917726 
L 495.501859 449.593936 
L 495.779767 454.622567 
L 496.057674 452.275872 
L 496.335582 445.235789 
L 496.61349 452.275872 
L 496.891398 453.281599 
L 497.169306 444.900547 
L 497.447214 449.593936 
L 497.725121 439.536674 
L 498.280937 455.963535 
L 498.558845 450.934904 
L 498.836753 448.923452 
L 499.11466 452.275872 
L 499.670476 454.622567 
L 499.948384 452.946357 
L 500.226292 455.293051 
L 500.5042 449.929178 
L 500.782107 451.270146 
L 501.060015 456.298777 
L 501.337923 452.946357 
L 501.615831 458.31023 
L 501.893739 455.628293 
L 502.171647 454.287325 
L 502.449554 459.98644 
L 502.727462 453.281599 
L 503.00537 455.628293 
L 503.283278 455.293051 
L 503.561186 451.605388 
L 503.839094 461.997892 
L 504.117001 452.275872 
L 504.672817 455.628293 
L 504.950725 454.622567 
L 505.228633 456.634019 
L 505.506541 452.946357 
L 505.784448 463.338861 
L 506.062356 451.94063 
L 506.340264 455.628293 
L 506.618172 455.293051 
L 506.89608 458.645472 
L 507.173988 459.651198 
L 507.451895 459.98644 
L 507.729803 461.66265 
L 508.007711 461.327408 
L 508.285619 460.321682 
L 508.563527 460.321682 
L 508.841435 464.679829 
L 509.119342 455.963535 
L 509.39725 458.645472 
L 509.675158 464.009345 
L 509.953066 461.66265 
L 510.230974 464.344587 
L 510.508882 464.009345 
L 511.064697 456.634019 
L 511.342605 463.003619 
L 511.620513 462.668377 
L 511.898421 457.974988 
L 512.176329 461.66265 
L 512.454236 460.992166 
L 512.732144 463.338861 
L 513.010052 464.679829 
L 513.28796 462.333134 
L 513.565868 464.009345 
L 513.843776 459.98644 
L 514.121683 462.668377 
L 514.399591 461.66265 
L 514.677499 466.356039 
L 514.955407 462.668377 
L 515.233315 466.356039 
L 515.511223 459.98644 
L 515.78913 460.992166 
L 516.067038 464.009345 
L 516.344946 461.327408 
L 516.622854 461.66265 
L 516.900762 456.969261 
L 517.17867 463.338861 
L 517.456577 461.997892 
L 517.734485 462.333134 
L 518.012393 465.015071 
L 518.290301 464.344587 
L 518.568209 466.691281 
L 518.846117 462.333134 
L 519.124024 464.344587 
L 519.401932 460.321682 
L 519.67984 464.344587 
L 519.957748 466.356039 
L 520.513564 464.009345 
L 520.791471 466.356039 
L 521.069379 459.651198 
L 521.347287 461.327408 
L 521.625195 471.719912 
L 521.903103 463.674103 
L 522.181011 465.015071 
L 522.458918 468.367492 
L 522.736826 467.026523 
L 523.014734 466.691281 
L 523.292642 456.969261 
L 523.57055 466.356039 
L 523.848458 465.685555 
L 524.126365 467.361766 
L 524.404273 463.674103 
L 524.960089 467.361766 
L 525.237997 467.026523 
L 525.515905 469.037976 
L 525.793812 466.020797 
L 526.07172 468.367492 
L 526.349628 463.003619 
L 526.627536 469.70846 
L 526.905444 470.043702 
L 527.183352 464.344587 
L 527.461259 463.003619 
L 527.739167 467.361766 
L 528.017075 464.009345 
L 528.294983 469.373218 
L 528.572891 469.037976 
L 528.850799 469.70846 
L 529.128706 470.714186 
L 529.406614 470.378944 
L 529.684522 469.70846 
L 529.96243 469.373218 
L 530.240338 472.390397 
L 530.518245 467.026523 
L 530.796153 470.378944 
L 531.074061 467.361766 
L 531.629877 471.38467 
L 531.907785 466.691281 
L 532.185692 470.043702 
L 532.4636 467.361766 
L 532.741508 469.373218 
L 533.019416 475.407575 
L 533.297324 470.714186 
L 533.575232 473.731365 
L 533.853139 471.38467 
L 534.131047 472.055154 
L 534.408955 470.043702 
L 534.686863 471.719912 
L 535.242679 467.361766 
L 535.520586 469.70846 
L 535.798494 469.373218 
L 536.076402 473.396123 
L 536.35431 470.378944 
L 536.632218 470.714186 
L 536.910126 472.055154 
L 537.465941 468.367492 
L 537.743849 471.049428 
L 538.021757 469.037976 
L 538.299665 470.043702 
L 538.577573 470.378944 
L 538.85548 472.055154 
L 539.133388 469.70846 
L 539.411296 470.378944 
L 539.689204 474.401849 
L 539.967112 471.049428 
L 540.24502 470.043702 
L 540.522927 472.725639 
L 540.800835 476.748543 
L 541.078743 471.719912 
L 541.356651 474.066607 
L 541.634559 474.066607 
L 541.912467 476.078059 
L 542.190374 471.049428 
L 542.468282 471.719912 
L 542.74619 474.066607 
L 543.024098 468.367492 
L 543.302006 473.396123 
L 543.579914 468.03225 
L 544.135729 476.748543 
L 544.413637 475.407575 
L 544.691545 470.714186 
L 544.969453 473.396123 
L 545.247361 473.060881 
L 545.525268 470.378944 
L 545.803176 471.719912 
L 546.081084 471.049428 
L 546.358992 475.072333 
L 546.6369 471.049428 
L 546.914808 471.049428 
L 547.192715 472.725639 
L 547.470623 467.026523 
L 547.748531 473.396123 
L 548.026439 475.407575 
L 548.304347 475.407575 
L 548.582255 475.072333 
L 548.860162 472.725639 
L 549.13807 473.060881 
L 549.415978 475.742817 
L 549.693886 472.725639 
L 549.971794 474.401849 
L 550.249702 473.731365 
L 550.805517 476.748543 
L 551.083425 474.066607 
L 551.639241 472.725639 
L 551.917149 475.742817 
L 552.472964 473.731365 
L 552.750872 475.072333 
L 553.02878 472.725639 
L 553.306688 475.072333 
L 553.584596 473.060881 
L 553.862503 475.072333 
L 554.140411 471.719912 
L 554.418319 473.060881 
L 554.696227 472.725639 
L 554.974135 474.066607 
L 555.252043 478.424754 
L 555.52995 476.078059 
L 555.807858 476.748543 
L 556.085766 477.083786 
L 556.363674 477.083786 
L 556.641582 476.748543 
L 556.91949 476.748543 
L 557.197397 476.413301 
L 557.475305 475.072333 
L 557.753213 477.419028 
L 558.031121 473.396123 
L 558.309029 476.078059 
L 558.586937 474.401849 
L 558.864844 477.75427 
L 559.142752 476.413301 
L 559.42066 470.378944 
L 559.698568 474.737091 
L 559.976476 475.742817 
L 560.254384 476.078059 
L 560.532291 475.742817 
L 560.810199 478.424754 
L 561.366015 475.072333 
L 561.643923 475.742817 
L 561.92183 474.737091 
L 562.199738 474.737091 
L 562.477646 475.072333 
L 562.755554 475.742817 
L 563.033462 472.055154 
L 563.31137 474.737091 
L 563.589277 475.407575 
L 563.867185 473.060881 
L 564.145093 472.725639 
L 564.423001 478.089512 
L 564.700909 473.396123 
L 564.978817 479.765722 
L 565.256724 476.413301 
L 565.534632 474.737091 
L 565.81254 478.759996 
L 566.090448 477.083786 
L 566.368356 480.100964 
L 566.646264 476.413301 
L 566.924171 476.078059 
L 567.202079 471.719912 
L 567.479987 477.75427 
L 567.757895 477.419028 
L 568.035803 478.424754 
L 568.313711 474.066607 
L 568.591618 476.748543 
L 568.869526 476.078059 
L 569.147434 476.748543 
L 569.425342 479.43048 
L 569.70325 474.737091 
L 569.981158 475.072333 
L 570.259065 479.43048 
L 570.536973 474.401849 
L 570.814881 479.095238 
L 571.092789 477.083786 
L 571.370697 483.118143 
L 571.648605 476.748543 
L 571.926512 478.424754 
L 572.20442 477.419028 
L 572.482328 475.407575 
L 572.760236 478.424754 
L 573.038144 474.066607 
L 573.316052 479.43048 
L 573.593959 478.759996 
L 573.871867 480.100964 
L 574.149775 476.748543 
L 574.427683 476.748543 
L 574.705591 476.413301 
L 574.983499 480.436206 
L 575.261406 474.737091 
L 575.539314 479.43048 
L 575.817222 480.436206 
L 576.09513 476.413301 
L 576.373038 476.078059 
L 576.650946 481.441932 
L 576.928853 477.419028 
L 577.206761 476.748543 
L 577.762577 479.765722 
L 578.040485 478.424754 
L 578.318393 475.742817 
L 578.5963 480.100964 
L 578.874208 480.771448 
L 579.152116 479.43048 
L 579.430024 479.095238 
L 580.263747 474.401849 
L 580.541655 479.765722 
L 580.819563 477.75427 
L 581.097471 481.10669 
L 581.375379 481.10669 
L 581.653287 476.413301 
L 581.931194 478.089512 
L 582.209102 481.777174 
L 582.48701 479.765722 
L 582.764918 479.765722 
L 583.042826 477.083786 
L 583.320734 478.089512 
L 583.598641 480.771448 
L 583.876549 478.759996 
L 584.154457 477.75427 
L 584.432365 479.095238 
L 584.710273 481.10669 
L 585.266088 476.748543 
L 585.543996 480.771448 
L 585.821904 478.759996 
L 586.099812 480.100964 
L 586.933535 479.095238 
L 587.211443 477.419028 
L 587.489351 479.765722 
L 588.045167 477.75427 
L 588.323075 480.100964 
L 588.600982 479.765722 
L 588.87889 477.75427 
L 589.156798 483.118143 
L 589.434706 479.765722 
L 589.712614 482.782901 
L 589.990522 483.118143 
L 590.268429 480.771448 
L 590.546337 480.436206 
L 590.824245 479.095238 
L 591.102153 483.788627 
L 591.380061 483.788627 
L 591.657969 478.759996 
L 591.935876 479.095238 
L 592.213784 479.765722 
L 592.491692 479.765722 
L 592.7696 480.100964 
L 593.047508 477.419028 
L 593.325415 480.100964 
L 593.603323 481.441932 
L 593.881231 481.441932 
L 594.159139 479.765722 
L 594.437047 477.083786 
L 594.714955 480.771448 
L 595.27077 482.112417 
L 595.548678 481.441932 
L 596.104494 482.112417 
L 596.382402 482.112417 
L 596.660309 477.75427 
L 596.938217 481.441932 
L 597.216125 480.771448 
L 597.494033 481.777174 
L 597.771941 481.777174 
L 598.049849 479.43048 
L 598.883572 481.441932 
L 599.16148 479.43048 
L 599.439388 478.424754 
L 599.717296 482.447659 
L 599.995203 480.100964 
L 600.273111 481.10669 
L 600.551019 475.407575 
L 600.828927 479.095238 
L 601.106835 479.095238 
L 601.384743 481.10669 
L 601.66265 481.10669 
L 601.940558 478.759996 
L 602.218466 481.441932 
L 602.496374 481.10669 
L 602.774282 480.100964 
L 603.05219 480.436206 
L 603.330097 481.441932 
L 603.608005 479.43048 
L 603.885913 478.424754 
L 604.441729 483.118143 
L 604.997544 478.759996 
L 605.275452 479.43048 
L 605.55336 481.777174 
L 605.831268 477.083786 
L 606.109176 480.100964 
L 606.387084 481.777174 
L 606.664991 480.771448 
L 606.942899 482.447659 
L 607.220807 479.765722 
L 607.498715 481.10669 
L 607.776623 480.436206 
L 608.054531 481.777174 
L 608.332438 480.771448 
L 609.166162 483.788627 
L 609.44407 482.447659 
L 609.999885 481.10669 
L 610.277793 479.43048 
L 610.555701 482.112417 
L 610.833609 480.100964 
L 611.111517 482.112417 
L 611.389425 483.118143 
L 611.667332 481.441932 
L 611.94524 482.782901 
L 612.223148 480.436206 
L 612.778964 482.447659 
L 613.056872 482.782901 
L 613.334779 479.765722 
L 613.612687 481.441932 
L 613.890595 478.424754 
L 614.168503 484.123869 
L 614.446411 481.441932 
L 614.724319 481.441932 
L 615.002226 482.782901 
L 615.280134 482.112417 
L 615.558042 479.765722 
L 615.83595 480.436206 
L 616.113858 481.777174 
L 616.391766 481.441932 
L 616.669673 481.777174 
L 617.225489 481.777174 
L 617.503397 479.43048 
L 617.781305 480.100964 
L 618.059213 479.765722 
L 618.33712 481.441932 
L 618.615028 480.771448 
L 618.892936 482.782901 
L 619.170844 482.447659 
L 619.448752 482.782901 
L 620.004567 482.112417 
L 620.282475 483.788627 
L 620.560383 484.459111 
L 620.838291 482.112417 
L 621.116199 482.112417 
L 621.394107 484.459111 
L 621.672014 479.43048 
L 621.949922 481.777174 
L 622.22783 480.771448 
L 622.505738 482.112417 
L 622.783646 480.771448 
L 623.061553 483.788627 
L 623.339461 484.123869 
L 623.617369 483.788627 
L 624.173185 481.777174 
L 624.451093 483.453385 
L 624.729 482.112417 
L 625.006908 485.129595 
L 625.284816 485.800079 
L 625.562724 481.441932 
L 625.840632 483.788627 
L 626.11854 480.100964 
L 626.396447 484.123869 
L 626.674355 480.771448 
L 626.952263 484.794353 
L 627.230171 482.112417 
L 627.508079 483.118143 
L 627.785987 480.436206 
L 628.063894 480.771448 
L 628.341802 482.447659 
L 628.61971 481.441932 
L 628.897618 483.788627 
L 629.175526 482.447659 
L 629.453434 481.777174 
L 629.731341 483.788627 
L 630.009249 484.123869 
L 630.287157 482.447659 
L 630.565065 483.118143 
L 630.842973 483.118143 
L 631.120881 483.453385 
L 631.398788 481.777174 
L 631.676696 484.794353 
L 632.232512 480.436206 
L 632.51042 483.118143 
L 632.788328 484.123869 
L 633.066235 482.782901 
L 633.344143 483.453385 
L 633.622051 483.118143 
L 633.899959 482.447659 
L 634.177867 483.453385 
L 634.455775 485.129595 
L 635.01159 481.441932 
L 635.289498 481.777174 
L 635.567406 483.453385 
L 635.845314 481.441932 
L 636.123222 483.118143 
L 636.401129 482.112417 
L 636.679037 482.782901 
L 636.956945 483.788627 
L 637.234853 483.118143 
L 637.512761 483.453385 
L 637.790669 484.459111 
L 638.068576 481.777174 
L 638.346484 484.123869 
L 638.9023 481.777174 
L 639.180208 483.118143 
L 639.736023 483.788627 
L 640.013931 485.464837 
L 640.291839 482.112417 
L 640.569747 484.123869 
L 640.847655 484.123869 
L 641.40347 480.100964 
L 641.681378 485.464837 
L 641.959286 485.129595 
L 642.237194 484.123869 
L 642.515102 485.800079 
L 642.79301 483.453385 
L 643.070917 485.129595 
L 643.348825 481.441932 
L 643.626733 481.10669 
L 643.904641 483.118143 
L 644.182549 483.788627 
L 644.738364 485.800079 
L 645.29418 483.118143 
L 645.572088 487.47629 
L 646.127904 481.777174 
L 646.405811 481.777174 
L 646.683719 484.123869 
L 646.961627 482.782901 
L 647.239535 485.129595 
L 647.517443 483.788627 
L 647.795351 485.129595 
L 648.629074 482.112417 
L 648.906982 483.788627 
L 649.18489 486.805806 
L 649.462798 482.112417 
L 649.740705 481.441932 
L 650.296521 485.800079 
L 650.574429 485.800079 
L 650.852337 482.782901 
L 651.130245 482.447659 
L 651.408152 482.782901 
L 651.68606 485.129595 
L 651.963968 481.441932 
L 652.241876 483.453385 
L 652.519784 483.788627 
L 652.797692 483.118143 
L 653.075599 485.800079 
L 653.353507 481.441932 
L 653.631415 485.129595 
L 653.909323 484.459111 
L 654.187231 487.47629 
L 654.743046 484.123869 
L 655.020954 483.788627 
L 655.298862 482.782901 
L 655.57677 484.123869 
L 655.854678 486.805806 
L 656.132585 482.112417 
L 656.410493 483.453385 
L 656.688401 482.447659 
L 656.966309 485.129595 
L 657.522125 483.453385 
L 657.800032 485.464837 
L 658.07794 484.794353 
L 658.355848 483.788627 
L 658.633756 484.123869 
L 659.189572 484.123869 
L 659.467479 483.788627 
L 659.745387 482.112417 
L 660.023295 483.453385 
L 660.301203 485.800079 
L 660.579111 484.123869 
L 660.857019 486.135321 
L 661.134926 483.788627 
L 661.412834 483.788627 
L 661.690742 482.782901 
L 661.96865 485.800079 
L 662.246558 484.123869 
L 662.524466 484.794353 
L 662.802373 482.782901 
L 663.358189 485.464837 
L 663.636097 484.459111 
L 663.914005 485.129595 
L 664.191913 484.459111 
L 664.46982 486.470563 
L 664.747728 483.453385 
L 665.025636 483.453385 
L 665.303544 483.118143 
L 665.581452 484.123869 
L 665.85936 484.459111 
L 666.137267 484.459111 
L 666.415175 485.464837 
L 666.693083 485.129595 
L 666.970991 482.447659 
L 667.248899 485.464837 
L 667.526807 482.782901 
L 667.804714 485.464837 
L 668.082622 484.123869 
L 668.36053 484.794353 
L 668.638438 483.788627 
L 668.916346 485.464837 
L 669.194254 484.459111 
L 669.472161 485.800079 
L 669.750069 485.800079 
L 670.027977 484.123869 
L 670.305885 485.464837 
L 670.583793 483.788627 
L 670.861701 485.464837 
L 671.139608 484.459111 
L 671.417516 485.800079 
L 671.695424 486.135321 
L 671.973332 484.123869 
L 672.25124 486.470563 
L 672.529148 483.788627 
L 672.807055 485.464837 
L 673.084963 484.794353 
L 673.362871 485.464837 
L 673.640779 484.459111 
L 673.918687 485.800079 
L 674.196595 484.794353 
L 674.474502 482.447659 
L 674.75241 484.459111 
L 675.308226 485.800079 
L 675.864042 483.453385 
L 676.141949 484.123869 
L 676.419857 486.470563 
L 676.697765 483.118143 
L 676.975673 485.464837 
L 677.253581 483.788627 
L 677.531489 485.464837 
L 677.809396 486.135321 
L 678.365212 482.112417 
L 678.64312 486.135321 
L 678.921028 485.800079 
L 679.198936 481.777174 
L 679.476843 482.782901 
L 679.754751 485.129595 
L 680.310567 485.800079 
L 680.588475 484.794353 
L 680.866383 484.794353 
L 681.14429 484.123869 
L 681.422198 484.794353 
L 681.700106 484.459111 
L 681.978014 484.459111 
L 682.255922 485.129595 
L 683.089645 482.112417 
L 683.367553 484.794353 
L 683.645461 486.135321 
L 683.923369 484.794353 
L 684.201277 482.782901 
L 684.479184 482.782901 
L 684.757092 484.123869 
L 685.035 484.459111 
L 685.035 484.459111 
" clip-path="url(#pb2bfd3200e)" style="fill: none; stroke: #0000ff; stroke-width: 1.5; stroke-linecap: square"/>
   </g>
   <g id="patch_3">
    <path d="M 129.775152 489.1525 
L 129.775152 36.72 
" style="fill: none; stroke: #000000; stroke-width: 0.8; stroke-linejoin: miter; stroke-linecap: square"/>
   </g>
   <g id="patch_4">
    <path d="M 685.035 489.1525 
L 685.035 36.72 
" style="fill: none; stroke: #000000; stroke-width: 0.8; stroke-linejoin: miter; stroke-linecap: square"/>
   </g>
   <g id="patch_5">
    <path d="M 129.775152 489.1525 
L 685.035 489.1525 
" style="fill: none; stroke: #000000; stroke-width: 0.8; stroke-linejoin: miter; stroke-linecap: square"/>
   </g>
   <g id="patch_6">
    <path d="M 129.775152 36.72 
L 685.035 36.72 
" style="fill: none; stroke: #000000; stroke-width: 0.8; stroke-linejoin: miter; stroke-linecap: square"/>
   </g>
   <g id="legend_1">
    <g id="patch_7">
     <path d="M 492.425 100.294688 
L 676.535 100.294688 
L 676.535 45.22 
L 492.425 45.22 
z
" style="fill: #ffffff; opacity: 0.8; stroke: #000000; stroke-linejoin: miter"/>
    </g>
    <g id="line2d_31">
     <path d="M 499.225 58.987344 
L 516.225 58.987344 
L 533.225 58.987344 
" style="fill: none; stroke-dasharray: 14.8,6.4; stroke-dashoffset: 0; stroke: #ff0000; stroke-width: 4"/>
    </g>
    <g id="text_17">
     <!-- $\rho_0$ -->
     <g transform="translate(546.825 64.937344) scale(0.17 -0.17)">
      <use xlink:href="#DejaVuSans-Oblique-3c1"/>
      <use xlink:href="#DejaVuSans-30" transform="translate(63.476562 -16.40625) scale(0.7)"/>
     </g>
    </g>
    <g id="line2d_32">
     <path d="M 499.225 83.974688 
L 516.225 83.974688 
L 533.225 83.974688 
" style="fill: none; stroke: #0000ff; stroke-width: 1.5; stroke-linecap: square"/>
    </g>
    <g id="text_18">
     <!-- $\rho_0,\it{U=0,n=2}$ -->
     <g transform="translate(546.825 89.924688) scale(0.17 -0.17)">
      <defs>
       <path id="DejaVuSans-2c" d="M 750 794 
L 1409 794 
L 1409 256 
L 897 -744 
L 494 -744 
L 750 256 
L 750 794 
z
" transform="scale(0.015625)"/>
       <path id="DejaVuSans-Oblique-55" d="M 991 4666 
L 1625 4666 
L 1075 1831 
Q 1041 1641 1027 1517 
Q 1013 1394 1013 1300 
Q 1013 869 1253 645 
Q 1494 422 1959 422 
Q 2563 422 2898 753 
Q 3234 1084 3378 1831 
L 3928 4666 
L 4563 4666 
L 4000 1753 
Q 3816 809 3300 359 
Q 2784 -91 1888 -91 
Q 1188 -91 780 261 
Q 372 613 372 1216 
Q 372 1325 387 1461 
Q 403 1597 434 1753 
L 991 4666 
z
" transform="scale(0.015625)"/>
       <path id="DejaVuSans-3d" d="M 678 2906 
L 4684 2906 
L 4684 2381 
L 678 2381 
L 678 2906 
z
M 678 1631 
L 4684 1631 
L 4684 1100 
L 678 1100 
L 678 1631 
z
" transform="scale(0.015625)"/>
       <path id="DejaVuSans-Oblique-6e" d="M 3566 2113 
L 3156 0 
L 2578 0 
L 2988 2091 
Q 3016 2238 3031 2350 
Q 3047 2463 3047 2528 
Q 3047 2791 2881 2937 
Q 2716 3084 2419 3084 
Q 1956 3084 1622 2776 
Q 1288 2469 1184 1941 
L 800 0 
L 225 0 
L 903 3500 
L 1478 3500 
L 1363 2950 
Q 1603 3253 1940 3418 
Q 2278 3584 2650 3584 
Q 3113 3584 3367 3334 
Q 3622 3084 3622 2631 
Q 3622 2519 3608 2391 
Q 3594 2263 3566 2113 
z
" transform="scale(0.015625)"/>
      </defs>
      <use xlink:href="#DejaVuSans-Oblique-3c1" transform="translate(0 0.78125)"/>
      <use xlink:href="#DejaVuSans-30" transform="translate(63.476562 -15.625) scale(0.7)"/>
      <use xlink:href="#DejaVuSans-2c" transform="translate(110.74707 0.78125)"/>
      <use xlink:href="#DejaVuSans-Oblique-55" transform="translate(162.016602 0.78125)"/>
      <use xlink:href="#DejaVuSans-3d" transform="translate(254.692383 0.78125)"/>
      <use xlink:href="#DejaVuSans-30" transform="translate(357.963867 0.78125)"/>
      <use xlink:href="#DejaVuSans-2c" transform="translate(421.586914 0.78125)"/>
      <use xlink:href="#DejaVuSans-Oblique-6e" transform="translate(472.856445 0.78125)"/>
      <use xlink:href="#DejaVuSans-3d" transform="translate(555.717773 0.78125)"/>
      <use xlink:href="#DejaVuSans-32" transform="translate(658.989258 0.78125)"/>
     </g>
    </g>
   </g>
  </g>
 </g>
 <defs>
  <clipPath id="pb2bfd3200e">
   <rect x="129.775152" y="36.72" width="555.259848" height="452.4325"/>
  </clipPath>
 </defs>
</svg>
