<?xml version="1.0" encoding="utf-8" standalone="no"?>
<!DOCTYPE svg PUBLIC "-//W3C//DTD SVG 1.1//EN"
  "http://www.w3.org/Graphics/SVG/1.1/DTD/svg11.dtd">
<svg xmlns:xlink="http://www.w3.org/1999/xlink" width="720pt" height="576pt" viewBox="0 0 720 576" xmlns="http://www.w3.org/2000/svg" version="1.1">
 <metadata>
  <rdf:RDF xmlns:dc="http://purl.org/dc/elements/1.1/" xmlns:cc="http://creativecommons.org/ns#" xmlns:rdf="http://www.w3.org/1999/02/22-rdf-syntax-ns#">
   <cc:Work>
    <dc:type rdf:resource="http://purl.org/dc/dcmitype/StillImage"/>
    <dc:date>2023-04-11T00:23:15.266790</dc:date>
    <dc:format>image/svg+xml</dc:format>
    <dc:creator>
     <cc:Agent>
      <dc:title>Matplotlib v3.7.1, https://matplotlib.org/</dc:title>
     </cc:Agent>
    </dc:creator>
   </cc:Work>
  </rdf:RDF>
 </metadata>
 <defs>
  <style type="text/css">*{stroke-linejoin: round; stroke-linecap: butt}</style>
 </defs>
 <g id="figure_1">
  <g id="patch_1">
   <path d="M 0 576 
L 720 576 
L 720 0 
L 0 0 
z
" style="fill: #ffffff"/>
  </g>
  <g id="axes_1">
   <g id="patch_2">
    <path d="M 129.775152 489.1525 
L 685.035 489.1525 
L 685.035 36.72 
L 129.775152 36.72 
z
" style="fill: #ffffff"/>
   </g>
   <g id="matplotlib.axis_1">
    <g id="xtick_1">
     <g id="line2d_1">
      <path d="M 129.775152 489.1525 
L 129.775152 36.72 
" clip-path="url(#p74be776693)" style="fill: none; stroke: #b0b0b0; stroke-width: 0.8; stroke-linecap: square"/>
     </g>
     <g id="line2d_2">
      <defs>
       <path id="mf66ad5a472" d="M 0 0 
L 0 3.5 
" style="stroke: #000000; stroke-width: 0.8"/>
      </defs>
      <g>
       <use xlink:href="#mf66ad5a472" x="129.775152" y="489.1525" style="stroke: #000000; stroke-width: 0.8"/>
      </g>
     </g>
     <g id="text_1">
      <!-- −3 -->
      <g transform="translate(111.347418 515.148594) scale(0.25 -0.25)">
       <defs>
        <path id="DejaVuSans-2212" d="M 678 2272 
L 4684 2272 
L 4684 1741 
L 678 1741 
L 678 2272 
z
" transform="scale(0.015625)"/>
        <path id="DejaVuSans-33" d="M 2597 2516 
Q 3050 2419 3304 2112 
Q 3559 1806 3559 1356 
Q 3559 666 3084 287 
Q 2609 -91 1734 -91 
Q 1441 -91 1130 -33 
Q 819 25 488 141 
L 488 750 
Q 750 597 1062 519 
Q 1375 441 1716 441 
Q 2309 441 2620 675 
Q 2931 909 2931 1356 
Q 2931 1769 2642 2001 
Q 2353 2234 1838 2234 
L 1294 2234 
L 1294 2753 
L 1863 2753 
Q 2328 2753 2575 2939 
Q 2822 3125 2822 3475 
Q 2822 3834 2567 4026 
Q 2313 4219 1838 4219 
Q 1578 4219 1281 4162 
Q 984 4106 628 3988 
L 628 4550 
Q 988 4650 1302 4700 
Q 1616 4750 1894 4750 
Q 2613 4750 3031 4423 
Q 3450 4097 3450 3541 
Q 3450 3153 3228 2886 
Q 3006 2619 2597 2516 
z
" transform="scale(0.015625)"/>
       </defs>
       <use xlink:href="#DejaVuSans-2212"/>
       <use xlink:href="#DejaVuSans-33" x="83.789062"/>
      </g>
     </g>
    </g>
    <g id="xtick_2">
     <g id="line2d_3">
      <path d="M 222.31846 489.1525 
L 222.31846 36.72 
" clip-path="url(#p74be776693)" style="fill: none; stroke: #b0b0b0; stroke-width: 0.8; stroke-linecap: square"/>
     </g>
     <g id="line2d_4">
      <g>
       <use xlink:href="#mf66ad5a472" x="222.31846" y="489.1525" style="stroke: #000000; stroke-width: 0.8"/>
      </g>
     </g>
     <g id="text_2">
      <!-- −2 -->
      <g transform="translate(203.890726 515.148594) scale(0.25 -0.25)">
       <defs>
        <path id="DejaVuSans-32" d="M 1228 531 
L 3431 531 
L 3431 0 
L 469 0 
L 469 531 
Q 828 903 1448 1529 
Q 2069 2156 2228 2338 
Q 2531 2678 2651 2914 
Q 2772 3150 2772 3378 
Q 2772 3750 2511 3984 
Q 2250 4219 1831 4219 
Q 1534 4219 1204 4116 
Q 875 4013 500 3803 
L 500 4441 
Q 881 4594 1212 4672 
Q 1544 4750 1819 4750 
Q 2544 4750 2975 4387 
Q 3406 4025 3406 3419 
Q 3406 3131 3298 2873 
Q 3191 2616 2906 2266 
Q 2828 2175 2409 1742 
Q 1991 1309 1228 531 
z
" transform="scale(0.015625)"/>
       </defs>
       <use xlink:href="#DejaVuSans-2212"/>
       <use xlink:href="#DejaVuSans-32" x="83.789062"/>
      </g>
     </g>
    </g>
    <g id="xtick_3">
     <g id="line2d_5">
      <path d="M 314.861768 489.1525 
L 314.861768 36.72 
" clip-path="url(#p74be776693)" style="fill: none; stroke: #b0b0b0; stroke-width: 0.8; stroke-linecap: square"/>
     </g>
     <g id="line2d_6">
      <g>
       <use xlink:href="#mf66ad5a472" x="314.861768" y="489.1525" style="stroke: #000000; stroke-width: 0.8"/>
      </g>
     </g>
     <g id="text_3">
      <!-- −1 -->
      <g transform="translate(296.434034 515.148594) scale(0.25 -0.25)">
       <defs>
        <path id="DejaVuSans-31" d="M 794 531 
L 1825 531 
L 1825 4091 
L 703 3866 
L 703 4441 
L 1819 4666 
L 2450 4666 
L 2450 531 
L 3481 531 
L 3481 0 
L 794 0 
L 794 531 
z
" transform="scale(0.015625)"/>
       </defs>
       <use xlink:href="#DejaVuSans-2212"/>
       <use xlink:href="#DejaVuSans-31" x="83.789062"/>
      </g>
     </g>
    </g>
    <g id="xtick_4">
     <g id="line2d_7">
      <path d="M 407.405076 489.1525 
L 407.405076 36.72 
" clip-path="url(#p74be776693)" style="fill: none; stroke: #b0b0b0; stroke-width: 0.8; stroke-linecap: square"/>
     </g>
     <g id="line2d_8">
      <g>
       <use xlink:href="#mf66ad5a472" x="407.405076" y="489.1525" style="stroke: #000000; stroke-width: 0.8"/>
      </g>
     </g>
     <g id="text_4">
      <!-- 0 -->
      <g transform="translate(399.451951 515.148594) scale(0.25 -0.25)">
       <defs>
        <path id="DejaVuSans-30" d="M 2034 4250 
Q 1547 4250 1301 3770 
Q 1056 3291 1056 2328 
Q 1056 1369 1301 889 
Q 1547 409 2034 409 
Q 2525 409 2770 889 
Q 3016 1369 3016 2328 
Q 3016 3291 2770 3770 
Q 2525 4250 2034 4250 
z
M 2034 4750 
Q 2819 4750 3233 4129 
Q 3647 3509 3647 2328 
Q 3647 1150 3233 529 
Q 2819 -91 2034 -91 
Q 1250 -91 836 529 
Q 422 1150 422 2328 
Q 422 3509 836 4129 
Q 1250 4750 2034 4750 
z
" transform="scale(0.015625)"/>
       </defs>
       <use xlink:href="#DejaVuSans-30"/>
      </g>
     </g>
    </g>
    <g id="xtick_5">
     <g id="line2d_9">
      <path d="M 499.948384 489.1525 
L 499.948384 36.72 
" clip-path="url(#p74be776693)" style="fill: none; stroke: #b0b0b0; stroke-width: 0.8; stroke-linecap: square"/>
     </g>
     <g id="line2d_10">
      <g>
       <use xlink:href="#mf66ad5a472" x="499.948384" y="489.1525" style="stroke: #000000; stroke-width: 0.8"/>
      </g>
     </g>
     <g id="text_5">
      <!-- 1 -->
      <g transform="translate(491.995259 515.148594) scale(0.25 -0.25)">
       <use xlink:href="#DejaVuSans-31"/>
      </g>
     </g>
    </g>
    <g id="xtick_6">
     <g id="line2d_11">
      <path d="M 592.491692 489.1525 
L 592.491692 36.72 
" clip-path="url(#p74be776693)" style="fill: none; stroke: #b0b0b0; stroke-width: 0.8; stroke-linecap: square"/>
     </g>
     <g id="line2d_12">
      <g>
       <use xlink:href="#mf66ad5a472" x="592.491692" y="489.1525" style="stroke: #000000; stroke-width: 0.8"/>
      </g>
     </g>
     <g id="text_6">
      <!-- 2 -->
      <g transform="translate(584.538567 515.148594) scale(0.25 -0.25)">
       <use xlink:href="#DejaVuSans-32"/>
      </g>
     </g>
    </g>
    <g id="xtick_7">
     <g id="line2d_13">
      <path d="M 685.035 489.1525 
L 685.035 36.72 
" clip-path="url(#p74be776693)" style="fill: none; stroke: #b0b0b0; stroke-width: 0.8; stroke-linecap: square"/>
     </g>
     <g id="line2d_14">
      <g>
       <use xlink:href="#mf66ad5a472" x="685.035" y="489.1525" style="stroke: #000000; stroke-width: 0.8"/>
      </g>
     </g>
     <g id="text_7">
      <!-- 3 -->
      <g transform="translate(677.081875 515.148594) scale(0.25 -0.25)">
       <use xlink:href="#DejaVuSans-33"/>
      </g>
     </g>
    </g>
    <g id="text_8">
     <!-- $\omega$ [-] -->
     <g transform="translate(382.530076 541.351719) scale(0.25 -0.25)">
      <defs>
       <path id="DejaVuSans-Oblique-3c9" d="M 1369 -91 
Q 72 -91 434 1766 
Q 575 2500 1256 3500 
L 1875 3500 
Q 1231 2500 1088 1750 
Q 819 397 1519 397 
Q 2166 397 2478 2078 
L 3009 2078 
Q 2669 388 3316 397 
Q 4013 403 4275 1750 
Q 4419 2500 4169 3500 
L 4788 3500 
Q 5075 2500 4934 1766 
Q 4578 -94 3278 -91 
Q 2428 -88 2503 844 
Q 2194 -91 1369 -91 
z
" transform="scale(0.015625)"/>
       <path id="Calibri-20" transform="scale(0.015625)"/>
       <path id="Calibri-5b" d="M 1684 -813 
Q 1684 -916 1661 -958 
Q 1638 -1000 1594 -1000 
L 794 -1000 
Q 756 -1000 722 -989 
Q 688 -978 659 -953 
Q 631 -928 614 -886 
Q 597 -844 597 -781 
L 597 4153 
Q 597 4213 614 4255 
Q 631 4297 659 4323 
Q 688 4350 722 4361 
Q 756 4372 794 4372 
L 1594 4372 
Q 1613 4372 1630 4362 
Q 1647 4353 1659 4328 
Q 1672 4303 1678 4267 
Q 1684 4231 1684 4178 
Q 1684 4078 1661 4034 
Q 1638 3991 1594 3991 
L 1084 3991 
L 1084 -622 
L 1594 -622 
Q 1613 -622 1630 -631 
Q 1647 -641 1659 -664 
Q 1672 -688 1678 -723 
Q 1684 -759 1684 -813 
z
" transform="scale(0.015625)"/>
       <path id="Calibri-2d" d="M 1744 1578 
Q 1744 1456 1716 1409 
Q 1688 1363 1634 1363 
L 328 1363 
Q 272 1363 244 1411 
Q 216 1459 216 1578 
Q 216 1697 244 1744 
Q 272 1791 328 1791 
L 1634 1791 
Q 1659 1791 1679 1781 
Q 1700 1772 1714 1745 
Q 1728 1719 1736 1678 
Q 1744 1638 1744 1578 
z
" transform="scale(0.015625)"/>
       <path id="Calibri-5d" d="M 1369 -781 
Q 1369 -844 1351 -886 
Q 1334 -928 1306 -953 
Q 1278 -978 1242 -989 
Q 1206 -1000 1169 -1000 
L 372 -1000 
Q 328 -1000 304 -958 
Q 281 -916 281 -813 
Q 281 -759 286 -723 
Q 291 -688 303 -664 
Q 316 -641 333 -631 
Q 350 -622 372 -622 
L 881 -622 
L 881 3991 
L 372 3991 
Q 328 3991 304 4034 
Q 281 4078 281 4178 
Q 281 4231 286 4267 
Q 291 4303 303 4328 
Q 316 4353 333 4362 
Q 350 4372 372 4372 
L 1169 4372 
Q 1206 4372 1242 4361 
Q 1278 4350 1306 4323 
Q 1334 4297 1351 4255 
Q 1369 4213 1369 4153 
L 1369 -781 
z
" transform="scale(0.015625)"/>
      </defs>
      <use xlink:href="#DejaVuSans-Oblique-3c9" transform="translate(0 0.6875)"/>
      <use xlink:href="#Calibri-20" transform="translate(83.740234 0.6875)"/>
      <use xlink:href="#Calibri-5b" transform="translate(106.347656 0.6875)"/>
      <use xlink:href="#Calibri-2d" transform="translate(137.011719 0.6875)"/>
      <use xlink:href="#Calibri-5d" transform="translate(167.626953 0.6875)"/>
     </g>
    </g>
   </g>
   <g id="matplotlib.axis_2">
    <g id="ytick_1">
     <g id="line2d_15">
      <path d="M 129.775152 489.1525 
L 685.035 489.1525 
" clip-path="url(#p74be776693)" style="fill: none; stroke: #b0b0b0; stroke-width: 0.8; stroke-linecap: square"/>
     </g>
     <g id="line2d_16">
      <defs>
       <path id="m9e6920fa51" d="M 0 0 
L -3.5 0 
" style="stroke: #000000; stroke-width: 0.8"/>
      </defs>
      <g>
       <use xlink:href="#m9e6920fa51" x="129.775152" y="489.1525" style="stroke: #000000; stroke-width: 0.8"/>
      </g>
     </g>
     <g id="text_9">
      <!-- 0.0 -->
      <g transform="translate(83.017339 498.650547) scale(0.25 -0.25)">
       <defs>
        <path id="DejaVuSans-2e" d="M 684 794 
L 1344 794 
L 1344 0 
L 684 0 
L 684 794 
z
" transform="scale(0.015625)"/>
       </defs>
       <use xlink:href="#DejaVuSans-30"/>
       <use xlink:href="#DejaVuSans-2e" x="63.623047"/>
       <use xlink:href="#DejaVuSans-30" x="95.410156"/>
      </g>
     </g>
    </g>
    <g id="ytick_2">
     <g id="line2d_17">
      <path d="M 129.775152 413.747083 
L 685.035 413.747083 
" clip-path="url(#p74be776693)" style="fill: none; stroke: #b0b0b0; stroke-width: 0.8; stroke-linecap: square"/>
     </g>
     <g id="line2d_18">
      <g>
       <use xlink:href="#m9e6920fa51" x="129.775152" y="413.747083" style="stroke: #000000; stroke-width: 0.8"/>
      </g>
     </g>
     <g id="text_10">
      <!-- 0.2 -->
      <g transform="translate(83.017339 423.24513) scale(0.25 -0.25)">
       <use xlink:href="#DejaVuSans-30"/>
       <use xlink:href="#DejaVuSans-2e" x="63.623047"/>
       <use xlink:href="#DejaVuSans-32" x="95.410156"/>
      </g>
     </g>
    </g>
    <g id="ytick_3">
     <g id="line2d_19">
      <path d="M 129.775152 338.341667 
L 685.035 338.341667 
" clip-path="url(#p74be776693)" style="fill: none; stroke: #b0b0b0; stroke-width: 0.8; stroke-linecap: square"/>
     </g>
     <g id="line2d_20">
      <g>
       <use xlink:href="#m9e6920fa51" x="129.775152" y="338.341667" style="stroke: #000000; stroke-width: 0.8"/>
      </g>
     </g>
     <g id="text_11">
      <!-- 0.4 -->
      <g transform="translate(83.017339 347.839714) scale(0.25 -0.25)">
       <defs>
        <path id="DejaVuSans-34" d="M 2419 4116 
L 825 1625 
L 2419 1625 
L 2419 4116 
z
M 2253 4666 
L 3047 4666 
L 3047 1625 
L 3713 1625 
L 3713 1100 
L 3047 1100 
L 3047 0 
L 2419 0 
L 2419 1100 
L 313 1100 
L 313 1709 
L 2253 4666 
z
" transform="scale(0.015625)"/>
       </defs>
       <use xlink:href="#DejaVuSans-30"/>
       <use xlink:href="#DejaVuSans-2e" x="63.623047"/>
       <use xlink:href="#DejaVuSans-34" x="95.410156"/>
      </g>
     </g>
    </g>
    <g id="ytick_4">
     <g id="line2d_21">
      <path d="M 129.775152 262.93625 
L 685.035 262.93625 
" clip-path="url(#p74be776693)" style="fill: none; stroke: #b0b0b0; stroke-width: 0.8; stroke-linecap: square"/>
     </g>
     <g id="line2d_22">
      <g>
       <use xlink:href="#m9e6920fa51" x="129.775152" y="262.93625" style="stroke: #000000; stroke-width: 0.8"/>
      </g>
     </g>
     <g id="text_12">
      <!-- 0.6 -->
      <g transform="translate(83.017339 272.434297) scale(0.25 -0.25)">
       <defs>
        <path id="DejaVuSans-36" d="M 2113 2584 
Q 1688 2584 1439 2293 
Q 1191 2003 1191 1497 
Q 1191 994 1439 701 
Q 1688 409 2113 409 
Q 2538 409 2786 701 
Q 3034 994 3034 1497 
Q 3034 2003 2786 2293 
Q 2538 2584 2113 2584 
z
M 3366 4563 
L 3366 3988 
Q 3128 4100 2886 4159 
Q 2644 4219 2406 4219 
Q 1781 4219 1451 3797 
Q 1122 3375 1075 2522 
Q 1259 2794 1537 2939 
Q 1816 3084 2150 3084 
Q 2853 3084 3261 2657 
Q 3669 2231 3669 1497 
Q 3669 778 3244 343 
Q 2819 -91 2113 -91 
Q 1303 -91 875 529 
Q 447 1150 447 2328 
Q 447 3434 972 4092 
Q 1497 4750 2381 4750 
Q 2619 4750 2861 4703 
Q 3103 4656 3366 4563 
z
" transform="scale(0.015625)"/>
       </defs>
       <use xlink:href="#DejaVuSans-30"/>
       <use xlink:href="#DejaVuSans-2e" x="63.623047"/>
       <use xlink:href="#DejaVuSans-36" x="95.410156"/>
      </g>
     </g>
    </g>
    <g id="ytick_5">
     <g id="line2d_23">
      <path d="M 129.775152 187.530833 
L 685.035 187.530833 
" clip-path="url(#p74be776693)" style="fill: none; stroke: #b0b0b0; stroke-width: 0.8; stroke-linecap: square"/>
     </g>
     <g id="line2d_24">
      <g>
       <use xlink:href="#m9e6920fa51" x="129.775152" y="187.530833" style="stroke: #000000; stroke-width: 0.8"/>
      </g>
     </g>
     <g id="text_13">
      <!-- 0.8 -->
      <g transform="translate(83.017339 197.02888) scale(0.25 -0.25)">
       <defs>
        <path id="DejaVuSans-38" d="M 2034 2216 
Q 1584 2216 1326 1975 
Q 1069 1734 1069 1313 
Q 1069 891 1326 650 
Q 1584 409 2034 409 
Q 2484 409 2743 651 
Q 3003 894 3003 1313 
Q 3003 1734 2745 1975 
Q 2488 2216 2034 2216 
z
M 1403 2484 
Q 997 2584 770 2862 
Q 544 3141 544 3541 
Q 544 4100 942 4425 
Q 1341 4750 2034 4750 
Q 2731 4750 3128 4425 
Q 3525 4100 3525 3541 
Q 3525 3141 3298 2862 
Q 3072 2584 2669 2484 
Q 3125 2378 3379 2068 
Q 3634 1759 3634 1313 
Q 3634 634 3220 271 
Q 2806 -91 2034 -91 
Q 1263 -91 848 271 
Q 434 634 434 1313 
Q 434 1759 690 2068 
Q 947 2378 1403 2484 
z
M 1172 3481 
Q 1172 3119 1398 2916 
Q 1625 2713 2034 2713 
Q 2441 2713 2670 2916 
Q 2900 3119 2900 3481 
Q 2900 3844 2670 4047 
Q 2441 4250 2034 4250 
Q 1625 4250 1398 4047 
Q 1172 3844 1172 3481 
z
" transform="scale(0.015625)"/>
       </defs>
       <use xlink:href="#DejaVuSans-30"/>
       <use xlink:href="#DejaVuSans-2e" x="63.623047"/>
       <use xlink:href="#DejaVuSans-38" x="95.410156"/>
      </g>
     </g>
    </g>
    <g id="ytick_6">
     <g id="line2d_25">
      <path d="M 129.775152 112.125417 
L 685.035 112.125417 
" clip-path="url(#p74be776693)" style="fill: none; stroke: #b0b0b0; stroke-width: 0.8; stroke-linecap: square"/>
     </g>
     <g id="line2d_26">
      <g>
       <use xlink:href="#m9e6920fa51" x="129.775152" y="112.125417" style="stroke: #000000; stroke-width: 0.8"/>
      </g>
     </g>
     <g id="text_14">
      <!-- 1.0 -->
      <g transform="translate(83.017339 121.623464) scale(0.25 -0.25)">
       <use xlink:href="#DejaVuSans-31"/>
       <use xlink:href="#DejaVuSans-2e" x="63.623047"/>
       <use xlink:href="#DejaVuSans-30" x="95.410156"/>
      </g>
     </g>
    </g>
    <g id="ytick_7">
     <g id="line2d_27">
      <path d="M 129.775152 36.72 
L 685.035 36.72 
" clip-path="url(#p74be776693)" style="fill: none; stroke: #b0b0b0; stroke-width: 0.8; stroke-linecap: square"/>
     </g>
     <g id="line2d_28">
      <g>
       <use xlink:href="#m9e6920fa51" x="129.775152" y="36.72" style="stroke: #000000; stroke-width: 0.8"/>
      </g>
     </g>
     <g id="text_15">
      <!-- 1.2 -->
      <g transform="translate(83.017339 46.218047) scale(0.25 -0.25)">
       <use xlink:href="#DejaVuSans-31"/>
       <use xlink:href="#DejaVuSans-2e" x="63.623047"/>
       <use xlink:href="#DejaVuSans-32" x="95.410156"/>
      </g>
     </g>
    </g>
    <g id="text_16">
     <!-- $\rho$($\omega$) -->
     <g transform="translate(27.017339 257.68625) scale(0.25 -0.25)">
      <defs>
       <path id="DejaVuSans-Oblique-3c1" d="M 1203 2875 
Q 1453 3194 1981 3475 
Q 2188 3584 2756 3584 
Q 3394 3584 3694 3078 
Q 3994 2572 3834 1747 
Q 3672 922 3175 415 
Q 2678 -91 2041 -91 
Q 1656 -91 1409 63 
Q 1163 213 1044 525 
L 681 -1331 
L 103 -1331 
L 697 1716 
Q 838 2438 1203 2875 
z
M 3238 1747 
Q 3359 2381 3169 2744 
Q 2978 3103 2522 3103 
Q 2066 3103 1734 2744 
Q 1403 2381 1281 1747 
Q 1156 1113 1347 750 
Q 1538 391 1994 391 
Q 2450 391 2781 750 
Q 3113 1113 3238 1747 
z
" transform="scale(0.015625)"/>
       <path id="Calibri-28" d="M 1547 4306 
Q 1250 3678 1104 3017 
Q 959 2356 959 1688 
Q 959 1016 1107 356 
Q 1256 -303 1541 -938 
Q 1556 -975 1557 -1001 
Q 1559 -1028 1537 -1045 
Q 1516 -1063 1470 -1070 
Q 1425 -1078 1347 -1078 
Q 1291 -1078 1250 -1075 
Q 1209 -1072 1179 -1062 
Q 1150 -1053 1131 -1040 
Q 1113 -1028 1103 -1013 
Q 934 -694 806 -367 
Q 678 -41 590 296 
Q 503 634 459 979 
Q 416 1325 416 1678 
Q 416 2031 464 2375 
Q 513 2719 602 3058 
Q 691 3397 819 3725 
Q 947 4053 1106 4375 
Q 1109 4388 1123 4397 
Q 1138 4406 1163 4415 
Q 1188 4425 1231 4429 
Q 1275 4434 1344 4434 
Q 1416 4434 1459 4425 
Q 1503 4416 1528 4400 
Q 1553 4384 1556 4359 
Q 1559 4334 1547 4306 
z
" transform="scale(0.015625)"/>
       <path id="Calibri-29" d="M 1522 1678 
Q 1522 1325 1478 979 
Q 1434 634 1346 296 
Q 1259 -41 1132 -367 
Q 1006 -694 838 -1013 
Q 828 -1028 809 -1040 
Q 791 -1053 761 -1062 
Q 731 -1072 690 -1075 
Q 650 -1078 594 -1078 
Q 513 -1078 467 -1070 
Q 422 -1063 401 -1045 
Q 381 -1028 382 -1001 
Q 384 -975 400 -938 
Q 688 -306 834 355 
Q 981 1016 981 1688 
Q 981 2356 834 3017 
Q 688 3678 394 4306 
Q 381 4334 384 4359 
Q 388 4384 413 4400 
Q 438 4416 481 4425 
Q 525 4434 597 4434 
Q 663 4434 706 4429 
Q 750 4425 776 4415 
Q 803 4406 815 4397 
Q 828 4388 834 4375 
Q 1156 3734 1339 3057 
Q 1522 2381 1522 1678 
z
" transform="scale(0.015625)"/>
      </defs>
      <use xlink:href="#DejaVuSans-Oblique-3c1" transform="translate(0 0.71875)"/>
      <use xlink:href="#Calibri-28" transform="translate(63.476562 0.71875)"/>
      <use xlink:href="#DejaVuSans-Oblique-3c9" transform="translate(93.798828 0.71875)"/>
      <use xlink:href="#Calibri-29" transform="translate(177.539062 0.71875)"/>
     </g>
    </g>
   </g>
   <g id="line2d_29">
    <path d="M 129.775152 485.191726 
L 155.342673 484.357586 
L 176.463668 483.453498 
L 194.527677 482.46213 
L 209.812608 481.407831 
L 223.152183 480.271633 
L 234.824312 479.061062 
L 245.106902 477.779351 
L 254.277861 476.42091 
L 262.615096 474.96598 
L 270.118607 473.43544 
L 277.066303 471.789852 
L 283.180275 470.122023 
L 289.01634 468.299747 
L 294.296588 466.420579 
L 299.298929 464.401354 
L 303.745455 462.37756 
L 307.914072 460.252334 
L 312.08269 457.871329 
L 315.973399 455.381981 
L 319.586201 452.803903 
L 322.921095 450.162848 
L 326.255989 447.235062 
L 329.312975 444.264491 
L 332.369961 440.981839 
L 335.14904 437.690985 
L 337.928118 434.069935 
L 340.707196 430.076083 
L 343.486275 425.660385 
L 345.987445 421.279051 
L 348.488616 416.463255 
L 350.989786 411.159493 
L 353.490957 405.30707 
L 355.992127 398.837288 
L 358.493298 391.672671 
L 360.71656 384.650778 
L 362.939823 376.943851 
L 365.163086 368.478348 
L 367.386348 359.175174 
L 369.609611 348.950806 
L 371.832874 337.719359 
L 374.056136 325.396011 
L 376.279399 311.90232 
L 378.780569 295.243962 
L 381.28174 276.972296 
L 383.78291 257.104693 
L 386.561989 233.312559 
L 390.17479 200.351722 
L 396.010855 146.782085 
L 398.234118 128.471207 
L 399.901565 116.346345 
L 401.291104 107.617616 
L 402.680643 100.372585 
L 403.792274 95.775724 
L 404.625998 93.082969 
L 405.459721 91.068857 
L 406.015537 90.113935 
L 406.571352 89.474771 
L 407.127168 89.15442 
L 407.682984 89.15442 
L 408.238799 89.474771 
L 408.794615 90.113935 
L 409.350431 91.068857 
L 410.184154 93.082969 
L 411.017878 95.775724 
L 412.129509 100.372585 
L 413.24114 106.043297 
L 414.63068 114.492112 
L 416.298127 126.340685 
L 418.243481 142.019089 
L 420.744652 164.145858 
L 430.749334 254.802741 
L 433.528412 276.972296 
L 436.029583 295.243962 
L 438.530753 311.90232 
L 441.031924 326.998923 
L 443.533094 340.626334 
L 445.756357 351.597943 
L 447.979619 361.584007 
L 450.202882 370.670079 
L 452.704053 379.918766 
L 455.205223 388.242991 
L 457.706394 395.743738 
L 460.207564 402.512223 
L 462.708735 408.630041 
L 465.209905 414.169702 
L 467.711075 419.195358 
L 470.212246 423.763608 
L 472.991324 428.363411 
L 475.770403 432.519723 
L 478.549481 436.284441 
L 481.328559 439.702634 
L 484.385545 443.109017 
L 487.442532 446.188525 
L 490.777426 449.220669 
L 494.11232 451.953137 
L 497.725121 454.617796 
L 501.337923 457.013907 
L 505.228633 459.332771 
L 509.39725 461.555817 
L 513.843776 463.669574 
L 518.568209 465.665121 
L 523.57055 467.537459 
L 529.128706 469.370984 
L 534.964771 471.059658 
L 541.356651 472.675741 
L 548.304347 474.201372 
L 556.085766 475.674049 
L 564.700909 477.06667 
L 574.149775 478.361688 
L 584.710273 479.578987 
L 596.660309 480.725143 
L 610.277793 481.798417 
L 625.840632 482.792931 
L 643.626733 483.701997 
L 664.46982 484.540252 
L 685.035 485.191726 
L 685.035 485.191726 
" clip-path="url(#p74be776693)" style="fill: none; stroke-dasharray: 14.8,6.4; stroke-dashoffset: 0; stroke: #ff0000; stroke-width: 4"/>
   </g>
   <g id="line2d_30">
    <path d="M 129.775152 479.583995 
L 130.05306 479.938384 
L 130.330968 478.520827 
L 130.608875 482.064718 
L 130.886783 478.520827 
L 131.164691 483.482275 
L 131.442599 483.482275 
L 131.720507 483.127886 
L 131.998415 478.166438 
L 132.276322 483.127886 
L 132.55423 483.836664 
L 132.832138 483.836664 
L 133.110046 481.710329 
L 133.387954 484.191053 
L 133.665862 479.938384 
L 133.943769 480.647162 
L 134.221677 482.064718 
L 134.499585 479.229606 
L 134.777493 482.419107 
L 135.055401 483.127886 
L 135.333309 482.773496 
L 135.611216 483.127886 
L 135.889124 478.520827 
L 136.167032 482.773496 
L 136.44494 483.482275 
L 136.722848 479.229606 
L 137.000756 478.166438 
L 137.278663 481.35594 
L 137.834479 477.812049 
L 138.390295 480.647162 
L 138.668203 477.812049 
L 138.94611 481.710329 
L 139.224018 478.166438 
L 139.501926 483.482275 
L 140.057742 477.45766 
L 140.33565 484.899831 
L 141.169373 481.001551 
L 141.447281 484.191053 
L 141.725189 481.001551 
L 142.003097 484.899831 
L 142.281004 479.938384 
L 142.558912 480.292773 
L 142.83682 479.583995 
L 143.114728 480.292773 
L 143.392636 482.773496 
L 143.670544 479.229606 
L 143.948451 481.001551 
L 144.226359 479.229606 
L 144.504267 478.520827 
L 144.782175 481.35594 
L 145.060083 478.875217 
L 145.337991 482.064718 
L 145.615898 483.482275 
L 145.893806 479.583995 
L 146.171714 478.166438 
L 146.449622 480.647162 
L 146.72753 479.229606 
L 147.005438 480.647162 
L 147.283345 480.647162 
L 147.561253 479.938384 
L 147.839161 480.647162 
L 148.117069 479.229606 
L 148.394977 482.773496 
L 148.672885 482.419107 
L 148.950792 478.520827 
L 149.2287 480.292773 
L 149.506608 480.647162 
L 149.784516 480.292773 
L 150.062424 481.710329 
L 150.340332 481.001551 
L 150.618239 479.938384 
L 150.896147 480.292773 
L 151.174055 480.292773 
L 151.451963 476.394493 
L 151.729871 482.773496 
L 152.007779 479.229606 
L 152.285686 482.419107 
L 152.563594 479.938384 
L 152.841502 481.35594 
L 153.11941 476.748882 
L 153.675226 482.064718 
L 153.953133 481.001551 
L 154.231041 481.001551 
L 154.508949 481.710329 
L 154.786857 481.710329 
L 155.064765 482.064718 
L 155.342673 482.064718 
L 155.62058 477.812049 
L 155.898488 480.647162 
L 156.176396 477.103271 
L 156.454304 481.001551 
L 156.732212 481.710329 
L 157.010119 480.647162 
L 157.288027 477.45766 
L 157.565935 483.127886 
L 158.121751 479.229606 
L 158.399659 482.064718 
L 158.677566 479.938384 
L 158.955474 481.001551 
L 159.233382 481.001551 
L 159.51129 478.875217 
L 159.789198 478.520827 
L 160.067106 479.938384 
L 160.345013 479.229606 
L 160.622921 479.583995 
L 160.900829 481.35594 
L 161.456645 479.583995 
L 161.734553 479.938384 
L 162.01246 479.938384 
L 162.290368 481.001551 
L 162.568276 477.45766 
L 162.846184 480.647162 
L 163.124092 479.583995 
L 163.402 482.064718 
L 163.679907 482.419107 
L 164.235723 478.166438 
L 164.513631 481.35594 
L 164.791539 478.875217 
L 165.069447 478.875217 
L 165.347354 480.292773 
L 165.625262 477.45766 
L 165.90317 484.191053 
L 166.181078 477.45766 
L 166.458986 479.938384 
L 166.736894 481.35594 
L 167.014801 482.064718 
L 167.292709 478.520827 
L 167.570617 478.875217 
L 167.848525 477.103271 
L 168.404341 479.583995 
L 168.682248 483.127886 
L 168.960156 481.001551 
L 169.238064 476.040104 
L 169.515972 482.064718 
L 169.79388 479.583995 
L 170.071788 479.938384 
L 170.349695 478.520827 
L 170.627603 481.001551 
L 170.905511 481.35594 
L 171.461327 478.875217 
L 171.739235 481.710329 
L 172.017142 479.938384 
L 172.29505 480.647162 
L 172.572958 479.229606 
L 172.850866 480.292773 
L 173.128774 477.45766 
L 173.406682 478.875217 
L 173.684589 482.064718 
L 173.962497 472.850602 
L 174.518313 483.836664 
L 174.796221 477.45766 
L 175.074129 476.394493 
L 175.352036 479.938384 
L 175.629944 478.875217 
L 175.907852 480.647162 
L 176.18576 479.229606 
L 176.741576 480.647162 
L 177.019483 477.812049 
L 177.575299 483.127886 
L 177.853207 480.292773 
L 178.131115 478.875217 
L 178.409023 481.710329 
L 178.964838 477.812049 
L 179.242746 479.583995 
L 179.520654 478.875217 
L 179.798562 476.040104 
L 180.354377 478.875217 
L 180.632285 482.419107 
L 181.188101 476.040104 
L 181.466009 475.331326 
L 181.743917 480.647162 
L 182.021824 478.875217 
L 182.299732 478.520827 
L 182.57764 476.748882 
L 182.855548 477.45766 
L 183.133456 476.394493 
L 183.411364 481.710329 
L 183.689271 477.45766 
L 183.967179 477.812049 
L 184.245087 480.292773 
L 184.522995 479.229606 
L 184.800903 474.268158 
L 185.078811 482.419107 
L 185.356718 478.520827 
L 185.912534 476.040104 
L 186.190442 480.292773 
L 186.46835 474.622548 
L 186.746258 478.166438 
L 187.024165 477.45766 
L 187.302073 479.229606 
L 187.579981 478.520827 
L 187.857889 478.875217 
L 188.135797 477.103271 
L 188.413704 479.938384 
L 188.691612 481.001551 
L 188.96952 477.45766 
L 189.247428 481.35594 
L 189.803244 475.331326 
L 190.081151 477.103271 
L 190.359059 474.622548 
L 190.636967 480.647162 
L 190.914875 476.748882 
L 191.192783 479.938384 
L 191.470691 474.622548 
L 191.748598 474.622548 
L 192.026506 475.685715 
L 192.304414 476.040104 
L 192.582322 477.45766 
L 192.86023 476.748882 
L 193.416045 474.268158 
L 193.693953 476.748882 
L 193.971861 477.45766 
L 194.249769 477.45766 
L 194.527677 472.850602 
L 194.805585 475.685715 
L 195.083492 475.685715 
L 195.3614 478.166438 
L 195.639308 476.040104 
L 195.917216 479.938384 
L 196.195124 478.520827 
L 196.473032 478.875217 
L 196.750939 474.976937 
L 197.028847 472.850602 
L 197.306755 478.875217 
L 197.584663 477.103271 
L 197.862571 477.45766 
L 198.140479 474.976937 
L 198.418386 474.622548 
L 198.696294 479.938384 
L 199.25211 474.976937 
L 199.530018 479.229606 
L 199.807926 478.875217 
L 200.085833 479.583995 
L 200.363741 474.268158 
L 200.641649 477.45766 
L 200.919557 477.812049 
L 201.197465 475.331326 
L 201.475373 475.685715 
L 201.75328 473.913769 
L 202.031188 476.748882 
L 202.309096 473.55938 
L 202.587004 473.913769 
L 202.864912 478.520827 
L 203.14282 479.583995 
L 203.698635 473.913769 
L 203.976543 474.622548 
L 204.254451 477.45766 
L 204.532359 477.812049 
L 204.810267 476.748882 
L 205.088174 474.976937 
L 205.366082 474.622548 
L 205.64399 474.622548 
L 205.921898 477.45766 
L 206.199806 474.622548 
L 206.477714 475.685715 
L 206.755621 473.913769 
L 207.033529 474.268158 
L 207.311437 473.913769 
L 207.589345 478.520827 
L 207.867253 475.685715 
L 208.145161 474.976937 
L 208.423068 478.166438 
L 208.700976 473.204991 
L 208.978884 479.229606 
L 209.256792 478.875217 
L 209.5347 472.850602 
L 209.812608 471.787435 
L 210.090515 477.812049 
L 210.368423 472.850602 
L 210.646331 475.331326 
L 210.924239 474.976937 
L 211.202147 474.268158 
L 211.480055 472.496213 
L 211.757962 478.166438 
L 212.03587 475.331326 
L 212.313778 474.976937 
L 212.591686 478.520827 
L 212.869594 472.141824 
L 213.147502 473.55938 
L 213.425409 474.268158 
L 213.703317 476.748882 
L 213.981225 471.433046 
L 214.259133 475.685715 
L 214.814949 477.103271 
L 215.092856 470.015489 
L 215.370764 478.166438 
L 215.92658 471.433046 
L 216.482396 477.103271 
L 216.760303 474.622548 
L 217.038211 475.685715 
L 217.316119 478.520827 
L 217.594027 478.520827 
L 217.871935 472.141824 
L 218.149843 472.141824 
L 218.42775 476.394493 
L 218.705658 470.015489 
L 219.261474 477.45766 
L 219.817289 474.622548 
L 220.095197 474.976937 
L 220.373105 474.268158 
L 220.928921 474.976937 
L 221.206829 475.685715 
L 221.484736 473.204991 
L 222.040552 471.787435 
L 222.31846 472.496213 
L 222.596368 474.622548 
L 222.874276 473.204991 
L 223.152183 473.204991 
L 223.430091 472.850602 
L 223.707999 474.976937 
L 223.985907 478.520827 
L 224.263815 476.394493 
L 224.541723 468.243544 
L 224.81963 473.913769 
L 225.375446 471.433046 
L 225.653354 471.078657 
L 225.931262 472.496213 
L 226.20917 475.685715 
L 226.487077 471.433046 
L 226.764985 474.622548 
L 227.042893 475.685715 
L 227.598709 474.268158 
L 227.876617 477.812049 
L 228.988248 473.913769 
L 229.266156 473.204991 
L 229.544064 472.850602 
L 229.821971 474.976937 
L 230.099879 471.787435 
L 230.377787 472.850602 
L 230.655695 474.622548 
L 230.933603 473.55938 
L 231.211511 466.471599 
L 231.489418 476.394493 
L 231.767326 473.204991 
L 232.045234 474.268158 
L 232.323142 470.369879 
L 232.60105 471.078657 
L 232.878958 473.55938 
L 233.156865 474.622548 
L 233.434773 474.268158 
L 233.712681 472.496213 
L 233.990589 475.685715 
L 234.268497 472.496213 
L 234.546405 474.976937 
L 234.824312 473.913769 
L 235.10222 470.724268 
L 235.658036 473.204991 
L 235.935944 472.496213 
L 236.213852 470.015489 
L 236.769667 474.268158 
L 237.047575 469.306711 
L 237.325483 473.913769 
L 237.603391 469.306711 
L 237.881299 471.433046 
L 238.437114 470.015489 
L 238.715022 472.141824 
L 238.99293 475.331326 
L 239.270838 470.724268 
L 239.548746 474.268158 
L 239.826653 470.369879 
L 240.104561 469.306711 
L 240.382469 470.724268 
L 240.660377 466.825988 
L 240.938285 472.850602 
L 241.216193 471.433046 
L 241.4941 468.952322 
L 242.049916 474.622548 
L 242.327824 472.141824 
L 242.605732 471.078657 
L 242.88364 471.078657 
L 243.161547 467.534766 
L 243.439455 471.787435 
L 243.717363 467.534766 
L 243.995271 468.243544 
L 244.273179 473.55938 
L 244.551087 473.913769 
L 244.828994 472.141824 
L 245.106902 468.597933 
L 245.662718 471.078657 
L 245.940626 465.054042 
L 246.496441 474.268158 
L 247.052257 467.889155 
L 247.330165 471.078657 
L 247.608073 467.534766 
L 248.163888 469.6611 
L 248.441796 471.433046 
L 248.997612 465.76282 
L 249.27552 468.597933 
L 249.553428 469.6611 
L 249.831335 464.345264 
L 250.387151 471.787435 
L 250.942967 462.573319 
L 251.220874 470.015489 
L 251.498782 469.6611 
L 251.77669 465.76282 
L 252.054598 466.11721 
L 252.332506 473.204991 
L 252.888321 467.534766 
L 253.166229 468.243544 
L 253.444137 473.204991 
L 253.722045 463.990875 
L 253.999953 462.927708 
L 254.277861 475.331326 
L 254.833676 466.11721 
L 255.111584 471.078657 
L 255.389492 468.243544 
L 255.6674 472.850602 
L 255.945308 466.11721 
L 256.223215 464.699653 
L 256.501123 471.433046 
L 256.779031 468.597933 
L 257.056939 468.243544 
L 257.334847 463.990875 
L 257.612755 467.534766 
L 257.890662 465.054042 
L 258.16857 467.180377 
L 258.446478 466.11721 
L 258.724386 467.534766 
L 259.002294 462.927708 
L 259.280202 471.787435 
L 259.558109 465.054042 
L 259.836017 471.433046 
L 260.113925 467.889155 
L 260.391833 468.597933 
L 260.669741 467.534766 
L 260.947649 465.76282 
L 261.225556 461.86454 
L 261.503464 466.825988 
L 261.781372 460.801373 
L 262.337188 463.990875 
L 262.615096 470.369879 
L 262.893003 466.11721 
L 263.170911 466.471599 
L 263.448819 465.76282 
L 263.726727 468.952322 
L 264.004635 464.699653 
L 264.282543 458.675039 
L 264.56045 467.180377 
L 264.838358 471.078657 
L 265.116266 466.11721 
L 265.394174 467.534766 
L 265.672082 461.86454 
L 265.94999 462.927708 
L 266.227897 464.699653 
L 266.505805 463.636486 
L 266.783713 467.534766 
L 267.061621 467.534766 
L 267.339529 466.11721 
L 267.617437 469.6611 
L 267.895344 464.345264 
L 268.173252 467.180377 
L 268.45116 459.738206 
L 268.729068 460.801373 
L 269.006976 460.801373 
L 269.284884 463.990875 
L 269.562791 469.6611 
L 269.840699 469.6611 
L 270.118607 465.76282 
L 270.396515 468.597933 
L 270.674423 462.573319 
L 270.952331 462.573319 
L 271.230238 463.636486 
L 271.508146 461.86454 
L 272.063962 463.990875 
L 272.34187 461.510151 
L 272.619778 464.345264 
L 273.175593 457.257482 
L 273.453501 463.282097 
L 273.731409 466.825988 
L 274.009317 458.32065 
L 274.287225 461.86454 
L 274.565132 460.801373 
L 274.84304 465.408431 
L 275.398856 461.155762 
L 275.676764 463.282097 
L 275.954672 464.345264 
L 276.232579 463.990875 
L 276.510487 465.76282 
L 277.066303 453.359202 
L 277.344211 460.446984 
L 277.622119 462.927708 
L 277.900026 463.990875 
L 278.177934 463.282097 
L 278.455842 460.092595 
L 278.73375 467.534766 
L 279.011658 466.471599 
L 279.289566 462.21893 
L 279.567473 462.573319 
L 279.845381 456.194315 
L 280.401197 462.573319 
L 280.679105 467.180377 
L 280.957013 457.966261 
L 281.23492 456.194315 
L 281.512828 462.573319 
L 282.068644 456.548704 
L 282.346552 457.257482 
L 282.624459 463.282097 
L 282.902367 461.510151 
L 283.180275 455.839926 
L 283.458183 462.21893 
L 283.736091 458.32065 
L 284.013999 463.282097 
L 284.291906 452.296035 
L 284.569814 454.067981 
L 284.847722 460.446984 
L 285.12563 457.257482 
L 285.403538 460.092595 
L 285.681446 465.054042 
L 285.959353 455.839926 
L 286.237261 458.675039 
L 286.793077 456.194315 
L 287.070985 452.296035 
L 287.348893 458.32065 
L 287.6268 457.611871 
L 287.904708 455.839926 
L 288.182616 461.155762 
L 288.460524 460.801373 
L 288.738432 455.131148 
L 289.01634 461.86454 
L 289.294247 457.611871 
L 289.572155 456.548704 
L 290.127971 451.587257 
L 290.405879 459.029428 
L 290.683787 450.52409 
L 290.961694 456.903093 
L 291.239602 455.131148 
L 291.51751 455.839926 
L 291.795418 457.611871 
L 292.073326 460.446984 
L 292.351234 452.296035 
L 292.629141 458.32065 
L 292.907049 457.966261 
L 293.184957 455.485537 
L 293.462865 446.980199 
L 293.740773 453.359202 
L 294.296588 461.86454 
L 294.574496 449.460923 
L 294.852404 458.675039 
L 295.130312 455.839926 
L 295.40822 449.815312 
L 295.686128 459.029428 
L 295.964035 453.713592 
L 296.241943 458.32065 
L 296.519851 448.397755 
L 296.797759 458.32065 
L 297.075667 455.131148 
L 297.353575 454.776759 
L 297.90939 457.611871 
L 298.187298 450.52409 
L 298.743114 448.752144 
L 299.021022 454.776759 
L 299.298929 455.839926 
L 299.576837 450.878479 
L 299.854745 450.52409 
L 300.132653 449.815312 
L 300.410561 451.232868 
L 300.688469 446.980199 
L 300.966376 453.359202 
L 301.244284 451.941646 
L 301.522192 448.043366 
L 301.8001 448.397755 
L 302.355916 453.713592 
L 302.633823 445.208254 
L 302.911731 451.587257 
L 303.189639 453.004813 
L 303.467547 444.145086 
L 303.745455 446.980199 
L 304.023363 447.688977 
L 304.30127 446.980199 
L 304.579178 447.334588 
L 304.857086 447.334588 
L 305.134994 452.296035 
L 305.412902 453.359202 
L 305.69081 437.057305 
L 305.968717 446.62581 
L 306.246625 451.941646 
L 306.524533 445.208254 
L 306.802441 450.169701 
L 307.080349 440.601195 
L 307.358257 451.941646 
L 307.636164 452.650424 
L 307.914072 446.62581 
L 308.19198 452.296035 
L 308.469888 450.52409 
L 309.025704 443.790697 
L 309.303611 450.169701 
L 309.581519 440.955585 
L 309.859427 443.081919 
L 310.137335 439.892417 
L 310.415243 448.043366 
L 310.693151 443.436308 
L 310.971058 441.664363 
L 311.248966 444.853864 
L 311.526874 438.474861 
L 311.804782 447.688977 
L 312.08269 442.72753 
L 312.360597 446.980199 
L 312.638505 445.562643 
L 312.916413 439.538028 
L 313.194321 442.018752 
L 313.472229 443.436308 
L 313.750137 436.702916 
L 314.028044 445.562643 
L 314.305952 450.52409 
L 314.58386 443.081919 
L 314.861768 442.373141 
L 315.139676 436.702916 
L 315.695491 445.208254 
L 315.973399 450.878479 
L 316.251307 440.246806 
L 316.529215 439.892417 
L 317.085031 437.766083 
L 317.362938 450.169701 
L 317.640846 442.72753 
L 317.918754 441.664363 
L 318.196662 438.120472 
L 318.47457 445.917032 
L 318.752478 435.639748 
L 319.030385 441.309974 
L 319.308293 440.601195 
L 319.586201 445.562643 
L 319.864109 441.309974 
L 320.142017 447.688977 
L 320.419925 438.120472 
L 320.697832 433.513414 
L 320.97574 436.348526 
L 321.253648 440.601195 
L 321.531556 439.183639 
L 321.809464 432.095857 
L 322.087372 439.538028 
L 322.365279 427.13441 
L 322.643187 429.260745 
L 322.921095 435.639748 
L 323.199003 438.120472 
L 323.754819 426.425632 
L 324.310634 441.309974 
L 324.588542 427.488799 
L 324.86645 429.969523 
L 325.144358 430.678301 
L 325.700173 435.285359 
L 326.255989 422.881741 
L 326.533897 432.804636 
L 326.811805 429.615134 
L 327.089713 440.246806 
L 327.36762 436.348526 
L 327.645528 422.527352 
L 327.923436 430.323912 
L 328.201344 422.172963 
L 328.479252 439.892417 
L 329.035067 426.780021 
L 329.312975 429.260745 
L 329.590883 429.969523 
L 329.868791 426.780021 
L 330.146699 434.576581 
L 330.424607 436.348526 
L 330.702514 428.906356 
L 330.980422 434.576581 
L 331.25833 434.222192 
L 331.536238 432.804636 
L 331.814146 422.527352 
L 332.092054 428.551967 
L 332.369961 419.33785 
L 332.647869 421.464185 
L 332.925777 427.488799 
L 333.481593 411.541291 
L 333.759501 432.450246 
L 334.037408 430.323912 
L 334.315316 427.13441 
L 334.593224 416.148349 
L 334.871132 420.046629 
L 335.14904 417.565905 
L 335.426948 425.008076 
L 335.704855 414.022014 
L 335.982763 420.046629 
L 336.260671 415.085181 
L 336.538579 429.969523 
L 336.816487 416.148349 
L 337.094395 420.401018 
L 337.372302 421.464185 
L 337.65021 408.351789 
L 337.928118 411.541291 
L 338.206026 422.881741 
L 338.483934 415.085181 
L 338.761842 419.33785 
L 339.039749 411.89568 
L 339.317657 412.250069 
L 339.595565 419.692239 
L 339.873473 417.211516 
L 340.151381 419.33785 
L 340.429289 402.681563 
L 340.707196 412.604458 
L 340.985104 412.604458 
L 341.263012 413.313236 
L 341.54092 413.313236 
L 341.818828 410.123734 
L 342.096736 412.958847 
L 342.374643 410.478123 
L 342.652551 405.516676 
L 342.930459 417.565905 
L 343.208367 418.629072 
L 343.486275 400.909618 
L 343.764182 400.555229 
L 344.319998 412.250069 
L 344.597906 391.341113 
L 344.875814 403.035952 
L 345.153722 407.288621 
L 345.431629 406.934232 
L 345.709537 397.720116 
L 345.987445 405.162287 
L 346.265353 404.453509 
L 346.543261 406.934232 
L 346.821169 400.555229 
L 347.099076 398.428894 
L 347.376984 400.909618 
L 347.654892 398.074505 
L 347.9328 378.583106 
L 348.210708 403.744731 
L 348.488616 392.40428 
L 348.766523 395.593782 
L 349.044431 395.593782 
L 349.322339 397.011338 
L 349.600247 392.40428 
L 349.878155 389.923556 
L 350.156063 381.418218 
L 350.43397 381.772607 
L 350.711878 390.277945 
L 350.989786 391.695502 
L 351.267694 380.355051 
L 351.545602 390.986724 
L 351.82351 394.176225 
L 352.101417 381.418218 
L 352.379325 378.228717 
L 352.657233 376.456771 
L 352.935141 384.962109 
L 353.213049 379.646273 
L 353.490957 392.049891 
L 353.768864 386.379666 
L 354.046772 385.670887 
L 354.602588 367.242655 
L 354.880496 386.025276 
L 355.158404 374.330437 
L 355.714219 383.898942 
L 355.992127 361.57243 
L 356.270035 373.621658 
L 356.547943 375.039215 
L 356.825851 370.786546 
L 357.103758 377.519938 
L 357.381666 377.874327 
L 357.659574 359.446095 
L 357.937482 373.267269 
L 358.771205 359.446095 
L 359.049113 362.635597 
L 359.327021 356.256593 
L 359.604929 354.130259 
L 359.882837 356.610982 
L 360.160745 369.723379 
L 360.438652 353.421481 
L 360.71656 350.940757 
L 360.994468 356.256593 
L 361.272376 364.761931 
L 361.550284 344.561754 
L 361.828192 347.396866 
L 362.106099 344.916143 
L 362.384007 355.547815 
L 362.661915 347.042477 
L 362.939823 345.270532 
L 363.217731 334.638859 
L 363.495639 347.042477 
L 363.773546 350.586368 
L 364.051454 326.133521 
L 364.329362 340.663474 
L 364.60727 341.372252 
L 364.885178 332.866914 
L 365.163086 330.740579 
L 365.440993 326.133521 
L 365.718901 324.361576 
L 365.996809 333.221303 
L 366.274717 332.512525 
L 366.552625 328.614245 
L 366.830533 322.944019 
L 367.10844 328.259856 
L 367.386348 322.944019 
L 367.664256 329.677412 
L 367.942164 303.45262 
L 368.220072 312.666736 
L 368.49798 308.059678 
L 368.775887 309.122845 
L 369.053795 315.14746 
L 369.331703 300.617507 
L 369.609611 295.301671 
L 369.887519 301.680674 
L 370.165427 298.845562 
L 370.443334 292.820947 
L 370.721242 291.75778 
L 370.99915 291.403391 
L 371.277058 308.414067 
L 371.554966 289.631445 
L 371.832874 308.768456 
L 372.388689 273.329548 
L 372.666597 288.922667 
L 372.944505 285.024387 
L 373.222413 278.999773 
L 373.500321 283.606831 
L 374.056136 282.189275 
L 374.334044 271.557602 
L 374.611952 269.785657 
L 374.88986 275.455882 
L 375.167767 265.178599 
L 375.445675 246.395977 
L 375.723583 260.92593 
L 376.001491 259.153984 
L 376.279399 242.852086 
L 376.557307 263.052264 
L 376.835214 248.167923 
L 377.113122 250.648646 
L 377.668938 227.967745 
L 377.946846 239.662585 
L 378.224754 230.802857 
L 378.502661 245.33281 
L 378.780569 216.627294 
L 379.058477 213.792181 
L 379.336385 232.220414 
L 379.614293 200.325396 
L 379.892201 224.069465 
L 380.170108 225.487021 
L 380.448016 215.564127 
L 380.725924 196.427116 
L 381.003832 196.781505 
L 381.28174 211.311458 
L 381.559648 198.553451 
L 381.837555 198.199062 
L 382.115463 203.514898 
L 382.393371 180.479607 
L 382.671279 175.163771 
L 382.949187 187.567389 
L 383.227095 178.707662 
L 383.505002 158.507484 
L 383.78291 177.998884 
L 384.060818 170.202324 
L 384.338726 174.809382 
L 384.894542 143.623143 
L 385.172449 170.202324 
L 385.450357 130.510747 
L 385.728265 146.103866 
L 386.284081 124.131743 
L 386.561989 135.826583 
L 386.839896 137.952917 
L 387.117804 129.447579 
L 387.395712 125.549299 
L 387.951528 103.577176 
L 388.229436 112.791292 
L 388.785251 97.198173 
L 389.341067 81.605053 
L 389.618975 100.033285 
L 389.896883 92.236725 
L 390.17479 70.264602 
L 390.452698 92.945504 
L 390.730606 73.808493 
L 391.008514 71.327769 
L 391.286422 34.471305 
L 391.56433 58.924151 
L 391.842237 65.657544 
L 392.120145 44.03981 
L 392.398053 37.660806 
L 392.953869 32.34497 
L 393.231777 42.267864 
L 393.787592 140.78803 
L 394.0655 128.030023 
L 394.899224 197.844673 
L 395.177131 193.946393 
L 395.455039 208.830734 
L 395.732947 241.43453 
L 396.010855 224.069465 
L 396.288763 268.3681 
L 396.566671 269.431268 
L 396.844578 265.887377 
L 397.122486 282.543664 
L 397.400394 282.898053 
L 397.95621 317.273794 
L 398.234118 324.361576 
L 398.512025 327.551077 
L 398.789933 344.916143 
L 399.067841 348.105644 
L 399.345749 358.382928 
L 399.623657 347.042477 
L 399.901565 375.747993 
L 400.179472 373.976048 
L 400.45738 383.544553 
L 400.735288 381.063829 
L 401.013196 399.846451 
L 401.291104 404.807898 
L 401.569012 412.958847 
L 401.846919 412.604458 
L 402.402735 423.590519 
L 402.680643 436.702916 
L 402.958551 431.03269 
L 403.236459 443.790697 
L 403.514366 448.043366 
L 403.792274 447.334588 
L 404.070182 457.611871 
L 404.34809 450.52409 
L 404.625998 467.180377 
L 404.903906 468.597933 
L 405.181813 472.141824 
L 405.459721 471.433046 
L 405.737629 472.141824 
L 406.571352 484.899831 
L 406.84926 485.25422 
L 407.405076 489.1525 
L 408.238799 485.608609 
L 408.516707 483.836664 
L 408.794615 476.394493 
L 409.072523 473.913769 
L 409.350431 475.331326 
L 409.906246 468.243544 
L 410.184154 466.471599 
L 410.462062 458.675039 
L 410.73997 454.067981 
L 411.017878 453.713592 
L 411.295786 442.72753 
L 411.573693 436.702916 
L 411.851601 442.72753 
L 412.129509 428.906356 
L 412.407417 435.285359 
L 412.685325 426.780021 
L 412.963233 410.478123 
L 413.24114 406.934232 
L 413.519048 407.288621 
L 413.796956 386.734055 
L 414.074864 387.442833 
L 414.352772 386.379666 
L 415.186495 360.509262 
L 415.464403 347.751255 
L 415.742311 350.940757 
L 416.298127 319.754518 
L 416.576034 326.133521 
L 416.853942 322.235241 
L 417.13185 294.238504 
L 417.409758 293.175336 
L 417.687666 288.922667 
L 417.965574 270.140046 
L 418.243481 266.241766 
L 418.521389 248.876701 
L 418.799297 248.522312 
L 419.077205 228.322134 
L 419.355113 216.981683 
L 419.633021 187.213 
L 419.910928 194.300782 
L 420.188836 184.023498 
L 420.466744 166.304044 
L 420.744652 131.219525 
L 421.02256 145.395088 
L 421.300468 73.808493 
L 421.578375 54.317093 
L 421.856283 1.51312 
L 422.134191 17.460629 
L 422.690007 67.429489 
L 423.245822 33.053748 
L 423.52373 57.860984 
L 423.801638 70.618991 
L 424.079546 56.797817 
L 424.357454 56.797817 
L 424.635362 69.910213 
L 424.913269 72.036548 
L 425.191177 80.187497 
L 425.469085 97.552562 
L 425.746993 98.26134 
L 426.302809 103.577176 
L 426.580716 108.893012 
L 426.858624 122.714187 
L 427.136532 121.29663 
L 427.41444 128.384412 
L 427.692348 108.184234 
L 427.970256 128.738801 
L 428.248163 140.079252 
L 428.526071 108.538623 
L 428.803979 127.675634 
L 429.081887 124.131743 
L 429.359795 146.458255 
L 429.637703 157.444317 
L 429.91561 146.812644 
L 430.193518 150.356535 
L 430.471426 164.532099 
L 430.749334 171.974269 
L 431.027242 145.395088 
L 431.30515 179.062051 
L 431.583057 156.38115 
L 431.860965 174.809382 
L 432.416781 197.490283 
L 432.694689 199.262229 
L 432.972597 193.592004 
L 433.250504 185.441055 
L 433.528412 197.135894 
L 433.80632 215.918516 
L 434.084228 201.742953 
L 434.362136 209.539512 
L 434.640044 207.058789 
L 434.917951 205.641232 
L 435.195859 231.866025 
L 435.751675 221.588741 
L 436.029583 221.94313 
L 436.585398 242.143308 
L 436.863306 238.953806 
L 437.419122 235.055526 
L 437.974937 259.508373 
L 438.252845 253.838148 
L 438.530753 257.736428 
L 438.808661 255.964482 
L 439.086569 258.799595 
L 439.364477 279.708551 
L 439.642384 255.610093 
L 439.920292 257.736428 
L 440.1982 272.620769 
L 440.754016 279.354162 
L 441.031924 290.340224 
L 441.309831 276.873438 
L 441.587739 272.975158 
L 441.865647 288.922667 
L 442.143555 285.733166 
L 442.421463 298.491173 
L 442.699371 302.389452 
L 442.977278 299.908729 
L 443.255186 305.224565 
L 443.533094 294.947282 
L 443.811002 289.985835 
L 444.08891 313.375514 
L 444.644725 301.326285 
L 444.922633 304.161398 
L 445.200541 299.908729 
L 445.478449 313.375514 
L 445.756357 316.919405 
L 446.034265 318.336961 
L 446.59008 304.515787 
L 446.867988 296.719227 
L 447.145896 321.172074 
L 447.423804 325.070354 
L 447.701712 313.375514 
L 448.257527 326.48791 
L 448.535435 330.38619 
L 448.813343 323.652798 
L 449.091251 326.133521 
L 449.369159 313.021125 
L 449.647066 342.08103 
L 449.924974 327.551077 
L 450.202882 332.512525 
L 450.48079 335.347637 
L 450.758698 332.866914 
L 451.036606 341.726641 
L 451.314513 336.410805 
L 451.592421 342.789808 
L 451.870329 344.561754 
L 452.148237 337.119583 
L 452.426145 347.042477 
L 452.704053 341.017863 
L 453.259868 349.168812 
L 453.537776 344.561754 
L 453.815684 353.067092 
L 454.093592 350.940757 
L 454.3715 357.319761 
L 454.649407 350.231979 
L 454.927315 351.649535 
L 455.205223 363.698764 
L 455.483131 356.965371 
L 455.761039 359.800484 
L 456.038947 358.382928 
L 456.316854 355.902204 
L 456.594762 369.368989 
L 456.87267 365.47071 
L 457.150578 367.242655 
L 457.428486 371.140935 
L 457.706394 368.660211 
L 457.984301 371.495324 
L 458.262209 368.660211 
L 458.540117 376.102382 
L 458.818025 366.179488 
L 459.095933 361.57243 
L 459.651748 380.000662 
L 459.929656 382.835775 
L 460.207564 377.874327 
L 460.485472 380.000662 
L 461.041288 389.214778 
L 461.319195 375.393604 
L 461.597103 386.025276 
L 462.152919 375.393604 
L 462.430827 389.569167 
L 462.708735 389.569167 
L 462.986642 382.835775 
L 463.26455 390.986724 
L 463.542458 386.734055 
L 464.098274 392.40428 
L 464.376182 391.695502 
L 464.931997 399.846451 
L 465.487813 388.151611 
L 465.765721 400.20084 
L 466.043629 388.151611 
L 466.321536 393.113058 
L 466.599444 388.860389 
L 466.877352 400.555229 
L 467.15526 397.365727 
L 467.711075 407.288621 
L 467.988983 401.972785 
L 468.266891 399.492062 
L 468.544799 401.618396 
L 468.822707 401.618396 
L 469.100615 406.225454 
L 469.378522 408.351789 
L 469.65643 399.846451 
L 469.934338 418.274683 
L 470.212246 394.176225 
L 470.490154 408.351789 
L 470.768062 404.453509 
L 471.045969 410.123734 
L 471.323877 406.579843 
L 471.601785 411.186901 
L 471.879693 407.643011 
L 472.157601 417.565905 
L 472.435509 408.706178 
L 472.713416 415.79396 
L 472.991324 414.376403 
L 473.269232 414.376403 
L 473.54714 403.744731 
L 474.102956 414.730792 
L 474.380863 416.148349 
L 474.658771 422.172963 
L 474.936679 414.022014 
L 475.214587 414.376403 
L 475.492495 413.313236 
L 475.770403 408.706178 
L 476.04831 417.565905 
L 476.326218 418.629072 
L 476.882034 413.313236 
L 477.159942 422.172963 
L 477.43785 424.299298 
L 477.715757 421.818574 
L 478.271573 433.867803 
L 478.827389 416.857127 
L 479.105297 417.565905 
L 479.383204 415.085181 
L 479.661112 418.983461 
L 479.93902 427.488799 
L 480.216928 428.197577 
L 480.772744 421.464185 
L 481.050651 415.085181 
L 481.328559 426.780021 
L 481.606467 416.502738 
L 481.884375 423.23613 
L 482.162283 433.513414 
L 482.440191 430.678301 
L 482.718098 438.474861 
L 482.996006 431.03269 
L 483.273914 428.551967 
L 483.551822 440.601195 
L 484.107638 423.944908 
L 484.385545 420.046629 
L 484.663453 426.425632 
L 484.941361 423.590519 
L 485.219269 432.804636 
L 485.497177 431.741468 
L 485.775085 434.93097 
L 486.052992 428.906356 
L 486.3309 428.906356 
L 486.608808 432.804636 
L 486.886716 434.576581 
L 487.164624 422.527352 
L 487.442532 427.13441 
L 487.720439 422.527352 
L 487.998347 426.071243 
L 488.276255 431.741468 
L 488.554163 431.03269 
L 488.832071 438.120472 
L 489.109979 440.955585 
L 489.387886 438.474861 
L 489.665794 432.095857 
L 489.943702 428.906356 
L 490.499518 432.804636 
L 490.777426 424.653687 
L 491.055333 431.387079 
L 491.333241 432.804636 
L 491.889057 447.688977 
L 492.166965 432.095857 
L 492.444873 444.853864 
L 492.72278 431.741468 
L 493.000688 429.260745 
L 493.278596 430.678301 
L 493.556504 446.980199 
L 493.834412 434.93097 
L 494.11232 437.766083 
L 494.390227 432.095857 
L 494.668135 444.499475 
L 494.946043 432.095857 
L 495.223951 432.095857 
L 495.501859 436.702916 
L 495.779767 445.208254 
L 496.057674 435.639748 
L 496.335582 438.474861 
L 496.61349 439.538028 
L 496.891398 436.348526 
L 497.169306 440.955585 
L 497.447214 433.159025 
L 497.725121 444.853864 
L 498.003029 443.790697 
L 498.280937 440.601195 
L 498.558845 445.208254 
L 498.836753 440.246806 
L 499.11466 450.169701 
L 499.392568 440.955585 
L 499.670476 445.917032 
L 499.948384 440.246806 
L 500.226292 439.538028 
L 500.5042 441.664363 
L 500.782107 447.688977 
L 501.060015 436.702916 
L 501.337923 434.222192 
L 501.615831 440.955585 
L 501.893739 443.790697 
L 502.171647 445.208254 
L 502.449554 447.334588 
L 502.727462 442.72753 
L 503.00537 450.52409 
L 503.283278 438.82925 
L 503.561186 446.62581 
L 503.839094 450.169701 
L 504.117001 446.62581 
L 504.394909 451.941646 
L 504.950725 442.373141 
L 505.228633 444.853864 
L 505.506541 449.815312 
L 505.784448 445.208254 
L 506.062356 443.436308 
L 506.340264 446.62581 
L 506.618172 441.664363 
L 506.89608 445.208254 
L 507.173988 454.776759 
L 507.451895 450.52409 
L 507.729803 451.941646 
L 508.007711 451.587257 
L 508.285619 446.980199 
L 508.563527 449.815312 
L 508.841435 451.232868 
L 509.119342 451.232868 
L 509.39725 446.980199 
L 509.675158 445.917032 
L 509.953066 446.980199 
L 510.508882 451.232868 
L 510.786789 447.334588 
L 511.064697 454.776759 
L 511.342605 448.752144 
L 511.620513 447.334588 
L 511.898421 450.169701 
L 512.176329 448.752144 
L 512.454236 448.043366 
L 512.732144 454.067981 
L 513.010052 453.359202 
L 513.28796 457.257482 
L 513.565868 455.131148 
L 513.843776 450.52409 
L 514.399591 453.004813 
L 514.677499 453.004813 
L 514.955407 455.839926 
L 515.233315 450.52409 
L 515.511223 458.675039 
L 516.067038 455.485537 
L 516.344946 449.460923 
L 516.622854 453.004813 
L 517.17867 456.194315 
L 517.456577 448.752144 
L 517.734485 457.257482 
L 518.012393 449.815312 
L 518.290301 454.42237 
L 518.568209 454.067981 
L 518.846117 454.776759 
L 519.124024 459.738206 
L 519.401932 449.815312 
L 519.67984 458.675039 
L 519.957748 455.839926 
L 520.235656 460.092595 
L 520.791471 452.296035 
L 521.069379 453.713592 
L 521.347287 458.32065 
L 521.625195 457.966261 
L 522.181011 450.169701 
L 522.458918 452.296035 
L 522.736826 455.839926 
L 523.014734 455.131148 
L 523.292642 463.636486 
L 523.57055 459.029428 
L 523.848458 458.32065 
L 524.126365 454.42237 
L 524.404273 457.257482 
L 524.682181 455.839926 
L 524.960089 453.004813 
L 525.237997 453.004813 
L 525.515905 459.383817 
L 525.793812 457.611871 
L 526.07172 456.903093 
L 526.627536 459.029428 
L 526.905444 457.966261 
L 527.183352 460.092595 
L 527.461259 460.092595 
L 527.739167 456.194315 
L 528.017075 462.21893 
L 528.572891 460.801373 
L 528.850799 454.067981 
L 529.128706 459.383817 
L 529.406614 461.155762 
L 529.684522 453.713592 
L 529.96243 456.194315 
L 530.240338 459.738206 
L 530.518245 457.966261 
L 530.796153 461.155762 
L 531.074061 460.801373 
L 531.351969 456.194315 
L 531.907785 456.903093 
L 532.185692 458.32065 
L 532.4636 457.611871 
L 532.741508 457.257482 
L 533.019416 457.966261 
L 533.297324 463.282097 
L 533.575232 463.636486 
L 533.853139 454.067981 
L 534.131047 459.383817 
L 534.408955 455.131148 
L 534.964771 462.573319 
L 535.242679 458.675039 
L 535.520586 459.029428 
L 535.798494 465.76282 
L 536.076402 464.345264 
L 536.35431 460.801373 
L 536.632218 463.990875 
L 536.910126 461.86454 
L 537.188033 463.636486 
L 537.465941 462.21893 
L 537.743849 464.345264 
L 538.021757 461.155762 
L 538.577573 463.990875 
L 538.85548 461.155762 
L 539.133388 464.345264 
L 539.411296 460.801373 
L 539.689204 461.86454 
L 539.967112 464.345264 
L 540.24502 465.76282 
L 540.522927 462.573319 
L 540.800835 461.155762 
L 541.078743 462.927708 
L 541.356651 467.889155 
L 541.634559 460.801373 
L 541.912467 462.927708 
L 542.468282 468.597933 
L 542.74619 468.597933 
L 543.024098 463.282097 
L 543.302006 464.345264 
L 543.579914 459.738206 
L 543.857821 459.738206 
L 544.135729 462.927708 
L 544.413637 464.699653 
L 544.691545 460.446984 
L 544.969453 464.699653 
L 545.247361 463.636486 
L 545.525268 463.282097 
L 545.803176 466.471599 
L 546.081084 463.282097 
L 546.358992 457.611871 
L 546.6369 467.534766 
L 546.914808 460.446984 
L 547.470623 471.433046 
L 548.026439 464.699653 
L 548.304347 463.990875 
L 548.582255 467.534766 
L 548.860162 461.155762 
L 549.13807 467.180377 
L 549.415978 466.471599 
L 549.693886 463.636486 
L 550.249702 468.243544 
L 550.527609 472.141824 
L 550.805517 465.408431 
L 551.083425 467.889155 
L 551.361333 465.408431 
L 551.639241 471.078657 
L 552.195056 463.990875 
L 552.472964 466.471599 
L 552.750872 463.282097 
L 553.02878 468.952322 
L 553.306688 467.534766 
L 553.584596 463.990875 
L 553.862503 468.952322 
L 554.140411 470.015489 
L 554.418319 466.825988 
L 554.696227 465.408431 
L 555.252043 474.622548 
L 555.52995 468.597933 
L 555.807858 472.141824 
L 556.085766 466.825988 
L 556.363674 471.433046 
L 556.641582 468.597933 
L 556.91949 462.21893 
L 557.197397 464.345264 
L 557.475305 467.534766 
L 557.753213 468.243544 
L 558.031121 467.180377 
L 558.309029 463.636486 
L 558.586937 472.850602 
L 558.864844 465.054042 
L 559.142752 470.724268 
L 559.42066 463.990875 
L 559.698568 466.471599 
L 559.976476 467.889155 
L 560.254384 464.699653 
L 560.532291 466.471599 
L 560.810199 465.408431 
L 561.088107 471.078657 
L 561.643923 468.597933 
L 561.92183 469.306711 
L 562.199738 467.889155 
L 562.477646 474.268158 
L 563.033462 466.11721 
L 563.31137 467.889155 
L 563.589277 464.699653 
L 563.867185 471.078657 
L 564.145093 466.471599 
L 564.423001 473.204991 
L 564.700909 472.496213 
L 564.978817 470.724268 
L 565.256724 466.11721 
L 565.534632 471.078657 
L 565.81254 470.724268 
L 566.090448 466.825988 
L 566.646264 472.496213 
L 566.924171 471.433046 
L 567.202079 471.433046 
L 567.479987 468.952322 
L 567.757895 471.787435 
L 568.035803 470.369879 
L 568.313711 471.787435 
L 568.591618 475.685715 
L 568.869526 464.345264 
L 569.147434 471.433046 
L 569.425342 471.078657 
L 569.981158 474.268158 
L 570.259065 470.724268 
L 570.536973 472.496213 
L 570.814881 472.496213 
L 571.092789 474.268158 
L 571.370697 469.306711 
L 571.648605 474.268158 
L 571.926512 471.787435 
L 572.20442 472.141824 
L 572.482328 474.622548 
L 572.760236 467.180377 
L 573.038144 472.496213 
L 573.316052 469.306711 
L 573.593959 468.597933 
L 573.871867 472.496213 
L 574.149775 472.141824 
L 574.427683 472.141824 
L 574.705591 471.787435 
L 575.261406 466.471599 
L 575.539314 472.850602 
L 575.817222 468.597933 
L 576.09513 475.685715 
L 576.373038 470.369879 
L 576.650946 472.850602 
L 576.928853 470.015489 
L 577.206761 471.433046 
L 577.484669 466.11721 
L 577.762577 472.141824 
L 578.040485 470.369879 
L 578.318393 473.204991 
L 578.5963 468.952322 
L 578.874208 477.45766 
L 579.152116 471.787435 
L 579.430024 471.787435 
L 579.707932 473.55938 
L 579.98584 473.204991 
L 580.263747 470.369879 
L 580.541655 474.976937 
L 580.819563 471.433046 
L 581.097471 472.141824 
L 581.375379 474.622548 
L 581.653287 474.268158 
L 582.209102 471.787435 
L 582.48701 472.850602 
L 582.764918 473.204991 
L 583.042826 472.850602 
L 583.320734 473.204991 
L 583.598641 473.913769 
L 583.876549 476.394493 
L 584.154457 471.787435 
L 584.432365 475.331326 
L 584.710273 472.141824 
L 584.988181 473.913769 
L 585.266088 471.078657 
L 585.543996 473.204991 
L 585.821904 470.015489 
L 586.099812 479.938384 
L 586.37772 473.204991 
L 586.655628 475.685715 
L 586.933535 474.268158 
L 587.211443 477.812049 
L 587.489351 474.268158 
L 588.045167 475.685715 
L 588.323075 475.331326 
L 588.600982 476.748882 
L 588.87889 471.433046 
L 589.156798 475.331326 
L 589.434706 469.306711 
L 589.712614 473.55938 
L 589.990522 472.850602 
L 590.268429 472.496213 
L 590.546337 473.55938 
L 590.824245 472.850602 
L 591.102153 475.685715 
L 591.380061 475.685715 
L 591.657969 470.724268 
L 591.935876 474.976937 
L 592.213784 477.45766 
L 592.491692 470.015489 
L 592.7696 474.976937 
L 593.047508 474.976937 
L 593.325415 479.938384 
L 593.603323 472.496213 
L 593.881231 476.748882 
L 594.159139 471.787435 
L 594.437047 477.103271 
L 594.714955 474.976937 
L 594.992862 471.433046 
L 595.27077 477.812049 
L 595.826586 471.433046 
L 596.104494 478.520827 
L 596.382402 467.889155 
L 596.660309 476.040104 
L 596.938217 475.331326 
L 597.216125 473.55938 
L 597.494033 469.306711 
L 597.771941 472.496213 
L 598.049849 472.850602 
L 598.327756 476.040104 
L 598.883572 471.787435 
L 599.16148 477.45766 
L 599.439388 471.078657 
L 599.995203 476.040104 
L 600.551019 470.369879 
L 600.828927 476.394493 
L 601.106835 473.204991 
L 601.384743 473.55938 
L 601.66265 478.166438 
L 601.940558 473.913769 
L 602.496374 477.812049 
L 602.774282 474.268158 
L 603.05219 477.45766 
L 603.330097 471.078657 
L 603.885913 477.812049 
L 604.163821 479.229606 
L 604.441729 475.685715 
L 604.719637 476.748882 
L 604.997544 474.268158 
L 605.275452 473.913769 
L 605.55336 479.938384 
L 605.831268 477.103271 
L 606.109176 478.166438 
L 606.387084 474.976937 
L 606.664991 476.040104 
L 606.942899 474.976937 
L 607.220807 479.583995 
L 607.498715 474.976937 
L 607.776623 476.394493 
L 608.054531 474.622548 
L 608.332438 478.166438 
L 608.610346 478.520827 
L 608.888254 471.433046 
L 609.166162 476.748882 
L 609.44407 474.976937 
L 609.721978 478.166438 
L 609.999885 476.748882 
L 610.555701 472.496213 
L 610.833609 475.685715 
L 611.111517 474.622548 
L 611.389425 474.976937 
L 611.667332 478.520827 
L 611.94524 477.812049 
L 612.223148 475.685715 
L 612.501056 477.45766 
L 612.778964 473.204991 
L 613.056872 479.229606 
L 613.612687 474.976937 
L 613.890595 478.875217 
L 614.168503 474.622548 
L 614.446411 475.331326 
L 614.724319 478.520827 
L 615.002226 472.496213 
L 615.280134 479.583995 
L 615.558042 477.103271 
L 615.83595 475.685715 
L 616.113858 474.976937 
L 616.391766 478.520827 
L 616.669673 478.520827 
L 617.225489 476.748882 
L 617.503397 472.850602 
L 617.781305 477.812049 
L 618.059213 477.103271 
L 618.33712 476.748882 
L 618.615028 478.875217 
L 618.892936 476.040104 
L 619.170844 478.166438 
L 619.448752 478.166438 
L 620.004567 472.850602 
L 620.282475 479.229606 
L 620.560383 476.748882 
L 620.838291 476.394493 
L 621.116199 479.229606 
L 621.394107 477.45766 
L 621.672014 479.938384 
L 621.949922 476.748882 
L 622.22783 476.394493 
L 622.505738 478.875217 
L 622.783646 479.938384 
L 623.061553 478.166438 
L 623.339461 478.875217 
L 623.617369 477.103271 
L 623.895277 477.812049 
L 624.173185 476.748882 
L 624.451093 478.520827 
L 624.729 477.103271 
L 625.006908 479.229606 
L 625.562724 476.748882 
L 625.840632 478.520827 
L 626.11854 478.166438 
L 626.396447 477.45766 
L 626.674355 477.103271 
L 626.952263 474.622548 
L 627.230171 475.685715 
L 627.508079 478.166438 
L 627.785987 477.45766 
L 628.063894 474.622548 
L 628.341802 473.913769 
L 629.175526 479.938384 
L 629.453434 477.812049 
L 629.731341 479.583995 
L 630.287157 476.040104 
L 630.565065 481.001551 
L 630.842973 476.040104 
L 631.120881 473.55938 
L 631.398788 481.35594 
L 631.676696 479.938384 
L 631.954604 480.647162 
L 632.232512 481.710329 
L 632.51042 480.647162 
L 632.788328 476.748882 
L 633.066235 481.001551 
L 633.622051 477.103271 
L 633.899959 476.394493 
L 634.177867 478.520827 
L 634.455775 478.166438 
L 634.733682 477.45766 
L 635.01159 477.45766 
L 635.289498 477.103271 
L 635.567406 477.45766 
L 635.845314 478.166438 
L 636.123222 477.45766 
L 636.401129 479.938384 
L 636.956945 477.103271 
L 637.234853 481.35594 
L 637.512761 476.394493 
L 637.790669 478.875217 
L 638.068576 476.748882 
L 638.346484 480.647162 
L 638.624392 476.394493 
L 638.9023 479.938384 
L 639.458116 479.938384 
L 639.736023 478.875217 
L 640.013931 482.773496 
L 640.569747 475.685715 
L 640.847655 479.938384 
L 641.125563 476.748882 
L 641.40347 481.001551 
L 641.681378 479.229606 
L 641.959286 478.875217 
L 642.237194 482.419107 
L 642.515102 477.45766 
L 642.79301 482.419107 
L 643.070917 479.229606 
L 643.348825 481.35594 
L 643.904641 476.040104 
L 644.182549 478.520827 
L 644.460457 478.875217 
L 644.738364 477.812049 
L 645.016272 479.583995 
L 645.29418 479.229606 
L 645.572088 480.647162 
L 645.849996 481.001551 
L 646.127904 480.292773 
L 646.405811 477.45766 
L 646.683719 480.292773 
L 646.961627 476.040104 
L 647.239535 482.773496 
L 647.517443 479.583995 
L 647.795351 484.191053 
L 648.073258 481.35594 
L 648.351166 479.938384 
L 648.629074 477.812049 
L 648.906982 480.292773 
L 649.18489 479.938384 
L 649.462798 482.773496 
L 649.740705 479.938384 
L 650.018613 481.710329 
L 650.296521 476.040104 
L 650.574429 476.394493 
L 650.852337 480.647162 
L 651.130245 480.292773 
L 651.408152 479.229606 
L 651.68606 479.938384 
L 651.963968 478.520827 
L 652.241876 480.292773 
L 652.519784 478.875217 
L 652.797692 480.647162 
L 653.075599 478.520827 
L 653.353507 479.938384 
L 653.631415 479.938384 
L 653.909323 482.064718 
L 654.187231 480.647162 
L 654.465138 480.292773 
L 654.743046 481.001551 
L 655.020954 480.647162 
L 655.298862 478.875217 
L 656.132585 481.710329 
L 656.410493 475.685715 
L 656.688401 479.229606 
L 656.966309 479.229606 
L 657.800032 483.836664 
L 658.07794 481.001551 
L 658.355848 483.482275 
L 658.911664 478.520827 
L 659.189572 482.773496 
L 659.467479 482.419107 
L 659.745387 474.622548 
L 660.023295 479.229606 
L 660.301203 481.35594 
L 660.579111 481.35594 
L 660.857019 479.229606 
L 661.134926 482.773496 
L 661.412834 477.103271 
L 661.690742 481.001551 
L 661.96865 480.292773 
L 662.246558 482.064718 
L 662.524466 479.229606 
L 662.802373 479.229606 
L 663.080281 479.938384 
L 663.358189 477.45766 
L 663.636097 481.001551 
L 663.914005 479.229606 
L 664.191913 482.773496 
L 664.46982 481.001551 
L 664.747728 477.103271 
L 665.025636 482.419107 
L 665.581452 480.292773 
L 665.85936 481.710329 
L 666.137267 481.35594 
L 666.415175 480.292773 
L 666.693083 479.938384 
L 666.970991 479.938384 
L 667.248899 482.419107 
L 667.526807 482.419107 
L 667.804714 479.583995 
L 668.082622 482.419107 
L 668.36053 483.836664 
L 668.638438 480.292773 
L 668.916346 481.001551 
L 669.194254 477.45766 
L 669.472161 480.647162 
L 669.750069 478.875217 
L 670.027977 481.001551 
L 670.305885 479.938384 
L 670.583793 482.773496 
L 671.139608 478.520827 
L 671.695424 482.064718 
L 671.973332 480.292773 
L 672.25124 481.001551 
L 672.529148 481.35594 
L 672.807055 476.748882 
L 673.362871 482.419107 
L 673.640779 482.773496 
L 673.918687 478.520827 
L 674.196595 479.583995 
L 674.474502 478.875217 
L 675.030318 481.710329 
L 675.308226 477.812049 
L 675.586134 480.647162 
L 675.864042 479.938384 
L 676.141949 478.166438 
L 676.419857 482.064718 
L 676.697765 482.419107 
L 676.975673 477.812049 
L 677.253581 479.938384 
L 677.531489 479.229606 
L 677.809396 481.001551 
L 678.087304 481.35594 
L 678.365212 477.103271 
L 678.64312 481.710329 
L 678.921028 482.773496 
L 679.198936 477.45766 
L 679.476843 480.292773 
L 680.032659 482.064718 
L 680.310567 481.001551 
L 680.588475 478.875217 
L 680.866383 483.482275 
L 681.14429 483.836664 
L 681.422198 482.064718 
L 681.700106 482.064718 
L 681.978014 481.710329 
L 682.255922 478.875217 
L 682.53383 481.35594 
L 682.811737 481.710329 
L 683.089645 481.35594 
L 683.367553 480.292773 
L 683.645461 483.127886 
L 683.923369 480.647162 
L 684.201277 482.419107 
L 684.479184 479.229606 
L 684.757092 482.773496 
L 685.035 477.103271 
L 685.035 477.103271 
" clip-path="url(#p74be776693)" style="fill: none; stroke: #0000ff; stroke-width: 1.5; stroke-linecap: square"/>
   </g>
   <g id="patch_3">
    <path d="M 129.775152 489.1525 
L 129.775152 36.72 
" style="fill: none; stroke: #000000; stroke-width: 0.8; stroke-linejoin: miter; stroke-linecap: square"/>
   </g>
   <g id="patch_4">
    <path d="M 685.035 489.1525 
L 685.035 36.72 
" style="fill: none; stroke: #000000; stroke-width: 0.8; stroke-linejoin: miter; stroke-linecap: square"/>
   </g>
   <g id="patch_5">
    <path d="M 129.775152 489.1525 
L 685.035 489.1525 
" style="fill: none; stroke: #000000; stroke-width: 0.8; stroke-linejoin: miter; stroke-linecap: square"/>
   </g>
   <g id="patch_6">
    <path d="M 129.775152 36.72 
L 685.035 36.72 
" style="fill: none; stroke: #000000; stroke-width: 0.8; stroke-linejoin: miter; stroke-linecap: square"/>
   </g>
   <g id="legend_1">
    <g id="patch_7">
     <path d="M 492.425 100.294688 
L 676.535 100.294688 
L 676.535 45.22 
L 492.425 45.22 
z
" style="fill: #ffffff; opacity: 0.8; stroke: #000000; stroke-linejoin: miter"/>
    </g>
    <g id="line2d_31">
     <path d="M 499.225 58.987344 
L 516.225 58.987344 
L 533.225 58.987344 
" style="fill: none; stroke-dasharray: 14.8,6.4; stroke-dashoffset: 0; stroke: #ff0000; stroke-width: 4"/>
    </g>
    <g id="text_17">
     <!-- $\rho_0$ -->
     <g transform="translate(546.825 64.937344) scale(0.17 -0.17)">
      <use xlink:href="#DejaVuSans-Oblique-3c1"/>
      <use xlink:href="#DejaVuSans-30" transform="translate(63.476562 -16.40625) scale(0.7)"/>
     </g>
    </g>
    <g id="line2d_32">
     <path d="M 499.225 83.974688 
L 516.225 83.974688 
L 533.225 83.974688 
" style="fill: none; stroke: #0000ff; stroke-width: 1.5; stroke-linecap: square"/>
    </g>
    <g id="text_18">
     <!-- $\rho_0,\it{U=3,n=2}$ -->
     <g transform="translate(546.825 89.924688) scale(0.17 -0.17)">
      <defs>
       <path id="DejaVuSans-2c" d="M 750 794 
L 1409 794 
L 1409 256 
L 897 -744 
L 494 -744 
L 750 256 
L 750 794 
z
" transform="scale(0.015625)"/>
       <path id="DejaVuSans-Oblique-55" d="M 991 4666 
L 1625 4666 
L 1075 1831 
Q 1041 1641 1027 1517 
Q 1013 1394 1013 1300 
Q 1013 869 1253 645 
Q 1494 422 1959 422 
Q 2563 422 2898 753 
Q 3234 1084 3378 1831 
L 3928 4666 
L 4563 4666 
L 4000 1753 
Q 3816 809 3300 359 
Q 2784 -91 1888 -91 
Q 1188 -91 780 261 
Q 372 613 372 1216 
Q 372 1325 387 1461 
Q 403 1597 434 1753 
L 991 4666 
z
" transform="scale(0.015625)"/>
       <path id="DejaVuSans-3d" d="M 678 2906 
L 4684 2906 
L 4684 2381 
L 678 2381 
L 678 2906 
z
M 678 1631 
L 4684 1631 
L 4684 1100 
L 678 1100 
L 678 1631 
z
" transform="scale(0.015625)"/>
       <path id="DejaVuSans-Oblique-6e" d="M 3566 2113 
L 3156 0 
L 2578 0 
L 2988 2091 
Q 3016 2238 3031 2350 
Q 3047 2463 3047 2528 
Q 3047 2791 2881 2937 
Q 2716 3084 2419 3084 
Q 1956 3084 1622 2776 
Q 1288 2469 1184 1941 
L 800 0 
L 225 0 
L 903 3500 
L 1478 3500 
L 1363 2950 
Q 1603 3253 1940 3418 
Q 2278 3584 2650 3584 
Q 3113 3584 3367 3334 
Q 3622 3084 3622 2631 
Q 3622 2519 3608 2391 
Q 3594 2263 3566 2113 
z
" transform="scale(0.015625)"/>
      </defs>
      <use xlink:href="#DejaVuSans-Oblique-3c1" transform="translate(0 0.78125)"/>
      <use xlink:href="#DejaVuSans-30" transform="translate(63.476562 -15.625) scale(0.7)"/>
      <use xlink:href="#DejaVuSans-2c" transform="translate(110.74707 0.78125)"/>
      <use xlink:href="#DejaVuSans-Oblique-55" transform="translate(162.016602 0.78125)"/>
      <use xlink:href="#DejaVuSans-3d" transform="translate(254.692383 0.78125)"/>
      <use xlink:href="#DejaVuSans-33" transform="translate(357.963867 0.78125)"/>
      <use xlink:href="#DejaVuSans-2c" transform="translate(421.586914 0.78125)"/>
      <use xlink:href="#DejaVuSans-Oblique-6e" transform="translate(472.856445 0.78125)"/>
      <use xlink:href="#DejaVuSans-3d" transform="translate(555.717773 0.78125)"/>
      <use xlink:href="#DejaVuSans-32" transform="translate(658.989258 0.78125)"/>
     </g>
    </g>
   </g>
  </g>
 </g>
 <defs>
  <clipPath id="p74be776693">
   <rect x="129.775152" y="36.72" width="555.259848" height="452.4325"/>
  </clipPath>
 </defs>
</svg>
