<?xml version="1.0" encoding="utf-8" standalone="no"?>
<!DOCTYPE svg PUBLIC "-//W3C//DTD SVG 1.1//EN"
  "http://www.w3.org/Graphics/SVG/1.1/DTD/svg11.dtd">
<svg xmlns:xlink="http://www.w3.org/1999/xlink" width="720pt" height="576pt" viewBox="0 0 720 576" xmlns="http://www.w3.org/2000/svg" version="1.1">
 <metadata>
  <rdf:RDF xmlns:dc="http://purl.org/dc/elements/1.1/" xmlns:cc="http://creativecommons.org/ns#" xmlns:rdf="http://www.w3.org/1999/02/22-rdf-syntax-ns#">
   <cc:Work>
    <dc:type rdf:resource="http://purl.org/dc/dcmitype/StillImage"/>
    <dc:date>2023-04-09T08:12:42.509426</dc:date>
    <dc:format>image/svg+xml</dc:format>
    <dc:creator>
     <cc:Agent>
      <dc:title>Matplotlib v3.7.1, https://matplotlib.org/</dc:title>
     </cc:Agent>
    </dc:creator>
   </cc:Work>
  </rdf:RDF>
 </metadata>
 <defs>
  <style type="text/css">*{stroke-linejoin: round; stroke-linecap: butt}</style>
 </defs>
 <g id="figure_1">
  <g id="patch_1">
   <path d="M 0 576 
L 720 576 
L 720 0 
L 0 0 
z
" style="fill: #ffffff"/>
  </g>
  <g id="axes_1">
   <g id="patch_2">
    <path d="M 129.775152 489.1525 
L 685.035 489.1525 
L 685.035 36.72 
L 129.775152 36.72 
z
" style="fill: #ffffff"/>
   </g>
   <g id="matplotlib.axis_1">
    <g id="xtick_1">
     <g id="line2d_1">
      <path d="M 129.775152 489.1525 
L 129.775152 36.72 
" clip-path="url(#pb366d14de4)" style="fill: none; stroke: #b0b0b0; stroke-width: 0.8; stroke-linecap: square"/>
     </g>
     <g id="line2d_2">
      <defs>
       <path id="m7199469d4b" d="M 0 0 
L 0 3.5 
" style="stroke: #000000; stroke-width: 0.8"/>
      </defs>
      <g>
       <use xlink:href="#m7199469d4b" x="129.775152" y="489.1525" style="stroke: #000000; stroke-width: 0.8"/>
      </g>
     </g>
     <g id="text_1">
      <!-- −3 -->
      <g transform="translate(111.347418 515.148594) scale(0.25 -0.25)">
       <defs>
        <path id="DejaVuSans-2212" d="M 678 2272 
L 4684 2272 
L 4684 1741 
L 678 1741 
L 678 2272 
z
" transform="scale(0.015625)"/>
        <path id="DejaVuSans-33" d="M 2597 2516 
Q 3050 2419 3304 2112 
Q 3559 1806 3559 1356 
Q 3559 666 3084 287 
Q 2609 -91 1734 -91 
Q 1441 -91 1130 -33 
Q 819 25 488 141 
L 488 750 
Q 750 597 1062 519 
Q 1375 441 1716 441 
Q 2309 441 2620 675 
Q 2931 909 2931 1356 
Q 2931 1769 2642 2001 
Q 2353 2234 1838 2234 
L 1294 2234 
L 1294 2753 
L 1863 2753 
Q 2328 2753 2575 2939 
Q 2822 3125 2822 3475 
Q 2822 3834 2567 4026 
Q 2313 4219 1838 4219 
Q 1578 4219 1281 4162 
Q 984 4106 628 3988 
L 628 4550 
Q 988 4650 1302 4700 
Q 1616 4750 1894 4750 
Q 2613 4750 3031 4423 
Q 3450 4097 3450 3541 
Q 3450 3153 3228 2886 
Q 3006 2619 2597 2516 
z
" transform="scale(0.015625)"/>
       </defs>
       <use xlink:href="#DejaVuSans-2212"/>
       <use xlink:href="#DejaVuSans-33" x="83.789062"/>
      </g>
     </g>
    </g>
    <g id="xtick_2">
     <g id="line2d_3">
      <path d="M 222.31846 489.1525 
L 222.31846 36.72 
" clip-path="url(#pb366d14de4)" style="fill: none; stroke: #b0b0b0; stroke-width: 0.8; stroke-linecap: square"/>
     </g>
     <g id="line2d_4">
      <g>
       <use xlink:href="#m7199469d4b" x="222.31846" y="489.1525" style="stroke: #000000; stroke-width: 0.8"/>
      </g>
     </g>
     <g id="text_2">
      <!-- −2 -->
      <g transform="translate(203.890726 515.148594) scale(0.25 -0.25)">
       <defs>
        <path id="DejaVuSans-32" d="M 1228 531 
L 3431 531 
L 3431 0 
L 469 0 
L 469 531 
Q 828 903 1448 1529 
Q 2069 2156 2228 2338 
Q 2531 2678 2651 2914 
Q 2772 3150 2772 3378 
Q 2772 3750 2511 3984 
Q 2250 4219 1831 4219 
Q 1534 4219 1204 4116 
Q 875 4013 500 3803 
L 500 4441 
Q 881 4594 1212 4672 
Q 1544 4750 1819 4750 
Q 2544 4750 2975 4387 
Q 3406 4025 3406 3419 
Q 3406 3131 3298 2873 
Q 3191 2616 2906 2266 
Q 2828 2175 2409 1742 
Q 1991 1309 1228 531 
z
" transform="scale(0.015625)"/>
       </defs>
       <use xlink:href="#DejaVuSans-2212"/>
       <use xlink:href="#DejaVuSans-32" x="83.789062"/>
      </g>
     </g>
    </g>
    <g id="xtick_3">
     <g id="line2d_5">
      <path d="M 314.861768 489.1525 
L 314.861768 36.72 
" clip-path="url(#pb366d14de4)" style="fill: none; stroke: #b0b0b0; stroke-width: 0.8; stroke-linecap: square"/>
     </g>
     <g id="line2d_6">
      <g>
       <use xlink:href="#m7199469d4b" x="314.861768" y="489.1525" style="stroke: #000000; stroke-width: 0.8"/>
      </g>
     </g>
     <g id="text_3">
      <!-- −1 -->
      <g transform="translate(296.434034 515.148594) scale(0.25 -0.25)">
       <defs>
        <path id="DejaVuSans-31" d="M 794 531 
L 1825 531 
L 1825 4091 
L 703 3866 
L 703 4441 
L 1819 4666 
L 2450 4666 
L 2450 531 
L 3481 531 
L 3481 0 
L 794 0 
L 794 531 
z
" transform="scale(0.015625)"/>
       </defs>
       <use xlink:href="#DejaVuSans-2212"/>
       <use xlink:href="#DejaVuSans-31" x="83.789062"/>
      </g>
     </g>
    </g>
    <g id="xtick_4">
     <g id="line2d_7">
      <path d="M 407.405076 489.1525 
L 407.405076 36.72 
" clip-path="url(#pb366d14de4)" style="fill: none; stroke: #b0b0b0; stroke-width: 0.8; stroke-linecap: square"/>
     </g>
     <g id="line2d_8">
      <g>
       <use xlink:href="#m7199469d4b" x="407.405076" y="489.1525" style="stroke: #000000; stroke-width: 0.8"/>
      </g>
     </g>
     <g id="text_4">
      <!-- 0 -->
      <g transform="translate(399.451951 515.148594) scale(0.25 -0.25)">
       <defs>
        <path id="DejaVuSans-30" d="M 2034 4250 
Q 1547 4250 1301 3770 
Q 1056 3291 1056 2328 
Q 1056 1369 1301 889 
Q 1547 409 2034 409 
Q 2525 409 2770 889 
Q 3016 1369 3016 2328 
Q 3016 3291 2770 3770 
Q 2525 4250 2034 4250 
z
M 2034 4750 
Q 2819 4750 3233 4129 
Q 3647 3509 3647 2328 
Q 3647 1150 3233 529 
Q 2819 -91 2034 -91 
Q 1250 -91 836 529 
Q 422 1150 422 2328 
Q 422 3509 836 4129 
Q 1250 4750 2034 4750 
z
" transform="scale(0.015625)"/>
       </defs>
       <use xlink:href="#DejaVuSans-30"/>
      </g>
     </g>
    </g>
    <g id="xtick_5">
     <g id="line2d_9">
      <path d="M 499.948384 489.1525 
L 499.948384 36.72 
" clip-path="url(#pb366d14de4)" style="fill: none; stroke: #b0b0b0; stroke-width: 0.8; stroke-linecap: square"/>
     </g>
     <g id="line2d_10">
      <g>
       <use xlink:href="#m7199469d4b" x="499.948384" y="489.1525" style="stroke: #000000; stroke-width: 0.8"/>
      </g>
     </g>
     <g id="text_5">
      <!-- 1 -->
      <g transform="translate(491.995259 515.148594) scale(0.25 -0.25)">
       <use xlink:href="#DejaVuSans-31"/>
      </g>
     </g>
    </g>
    <g id="xtick_6">
     <g id="line2d_11">
      <path d="M 592.491692 489.1525 
L 592.491692 36.72 
" clip-path="url(#pb366d14de4)" style="fill: none; stroke: #b0b0b0; stroke-width: 0.8; stroke-linecap: square"/>
     </g>
     <g id="line2d_12">
      <g>
       <use xlink:href="#m7199469d4b" x="592.491692" y="489.1525" style="stroke: #000000; stroke-width: 0.8"/>
      </g>
     </g>
     <g id="text_6">
      <!-- 2 -->
      <g transform="translate(584.538567 515.148594) scale(0.25 -0.25)">
       <use xlink:href="#DejaVuSans-32"/>
      </g>
     </g>
    </g>
    <g id="xtick_7">
     <g id="line2d_13">
      <path d="M 685.035 489.1525 
L 685.035 36.72 
" clip-path="url(#pb366d14de4)" style="fill: none; stroke: #b0b0b0; stroke-width: 0.8; stroke-linecap: square"/>
     </g>
     <g id="line2d_14">
      <g>
       <use xlink:href="#m7199469d4b" x="685.035" y="489.1525" style="stroke: #000000; stroke-width: 0.8"/>
      </g>
     </g>
     <g id="text_7">
      <!-- 3 -->
      <g transform="translate(677.081875 515.148594) scale(0.25 -0.25)">
       <use xlink:href="#DejaVuSans-33"/>
      </g>
     </g>
    </g>
    <g id="text_8">
     <!-- $\omega$ [-] -->
     <g transform="translate(382.530076 541.351719) scale(0.25 -0.25)">
      <defs>
       <path id="DejaVuSans-Oblique-3c9" d="M 1369 -91 
Q 72 -91 434 1766 
Q 575 2500 1256 3500 
L 1875 3500 
Q 1231 2500 1088 1750 
Q 819 397 1519 397 
Q 2166 397 2478 2078 
L 3009 2078 
Q 2669 388 3316 397 
Q 4013 403 4275 1750 
Q 4419 2500 4169 3500 
L 4788 3500 
Q 5075 2500 4934 1766 
Q 4578 -94 3278 -91 
Q 2428 -88 2503 844 
Q 2194 -91 1369 -91 
z
" transform="scale(0.015625)"/>
       <path id="Calibri-20" transform="scale(0.015625)"/>
       <path id="Calibri-5b" d="M 1684 -813 
Q 1684 -916 1661 -958 
Q 1638 -1000 1594 -1000 
L 794 -1000 
Q 756 -1000 722 -989 
Q 688 -978 659 -953 
Q 631 -928 614 -886 
Q 597 -844 597 -781 
L 597 4153 
Q 597 4213 614 4255 
Q 631 4297 659 4323 
Q 688 4350 722 4361 
Q 756 4372 794 4372 
L 1594 4372 
Q 1613 4372 1630 4362 
Q 1647 4353 1659 4328 
Q 1672 4303 1678 4267 
Q 1684 4231 1684 4178 
Q 1684 4078 1661 4034 
Q 1638 3991 1594 3991 
L 1084 3991 
L 1084 -622 
L 1594 -622 
Q 1613 -622 1630 -631 
Q 1647 -641 1659 -664 
Q 1672 -688 1678 -723 
Q 1684 -759 1684 -813 
z
" transform="scale(0.015625)"/>
       <path id="Calibri-2d" d="M 1744 1578 
Q 1744 1456 1716 1409 
Q 1688 1363 1634 1363 
L 328 1363 
Q 272 1363 244 1411 
Q 216 1459 216 1578 
Q 216 1697 244 1744 
Q 272 1791 328 1791 
L 1634 1791 
Q 1659 1791 1679 1781 
Q 1700 1772 1714 1745 
Q 1728 1719 1736 1678 
Q 1744 1638 1744 1578 
z
" transform="scale(0.015625)"/>
       <path id="Calibri-5d" d="M 1369 -781 
Q 1369 -844 1351 -886 
Q 1334 -928 1306 -953 
Q 1278 -978 1242 -989 
Q 1206 -1000 1169 -1000 
L 372 -1000 
Q 328 -1000 304 -958 
Q 281 -916 281 -813 
Q 281 -759 286 -723 
Q 291 -688 303 -664 
Q 316 -641 333 -631 
Q 350 -622 372 -622 
L 881 -622 
L 881 3991 
L 372 3991 
Q 328 3991 304 4034 
Q 281 4078 281 4178 
Q 281 4231 286 4267 
Q 291 4303 303 4328 
Q 316 4353 333 4362 
Q 350 4372 372 4372 
L 1169 4372 
Q 1206 4372 1242 4361 
Q 1278 4350 1306 4323 
Q 1334 4297 1351 4255 
Q 1369 4213 1369 4153 
L 1369 -781 
z
" transform="scale(0.015625)"/>
      </defs>
      <use xlink:href="#DejaVuSans-Oblique-3c9" transform="translate(0 0.6875)"/>
      <use xlink:href="#Calibri-20" transform="translate(83.740234 0.6875)"/>
      <use xlink:href="#Calibri-5b" transform="translate(106.347656 0.6875)"/>
      <use xlink:href="#Calibri-2d" transform="translate(137.011719 0.6875)"/>
      <use xlink:href="#Calibri-5d" transform="translate(167.626953 0.6875)"/>
     </g>
    </g>
   </g>
   <g id="matplotlib.axis_2">
    <g id="ytick_1">
     <g id="line2d_15">
      <path d="M 129.775152 489.1525 
L 685.035 489.1525 
" clip-path="url(#pb366d14de4)" style="fill: none; stroke: #b0b0b0; stroke-width: 0.8; stroke-linecap: square"/>
     </g>
     <g id="line2d_16">
      <defs>
       <path id="m4696ca5442" d="M 0 0 
L -3.5 0 
" style="stroke: #000000; stroke-width: 0.8"/>
      </defs>
      <g>
       <use xlink:href="#m4696ca5442" x="129.775152" y="489.1525" style="stroke: #000000; stroke-width: 0.8"/>
      </g>
     </g>
     <g id="text_9">
      <!-- 0.0 -->
      <g transform="translate(83.017339 498.650547) scale(0.25 -0.25)">
       <defs>
        <path id="DejaVuSans-2e" d="M 684 794 
L 1344 794 
L 1344 0 
L 684 0 
L 684 794 
z
" transform="scale(0.015625)"/>
       </defs>
       <use xlink:href="#DejaVuSans-30"/>
       <use xlink:href="#DejaVuSans-2e" x="63.623047"/>
       <use xlink:href="#DejaVuSans-30" x="95.410156"/>
      </g>
     </g>
    </g>
    <g id="ytick_2">
     <g id="line2d_17">
      <path d="M 129.775152 413.747083 
L 685.035 413.747083 
" clip-path="url(#pb366d14de4)" style="fill: none; stroke: #b0b0b0; stroke-width: 0.8; stroke-linecap: square"/>
     </g>
     <g id="line2d_18">
      <g>
       <use xlink:href="#m4696ca5442" x="129.775152" y="413.747083" style="stroke: #000000; stroke-width: 0.8"/>
      </g>
     </g>
     <g id="text_10">
      <!-- 0.2 -->
      <g transform="translate(83.017339 423.24513) scale(0.25 -0.25)">
       <use xlink:href="#DejaVuSans-30"/>
       <use xlink:href="#DejaVuSans-2e" x="63.623047"/>
       <use xlink:href="#DejaVuSans-32" x="95.410156"/>
      </g>
     </g>
    </g>
    <g id="ytick_3">
     <g id="line2d_19">
      <path d="M 129.775152 338.341667 
L 685.035 338.341667 
" clip-path="url(#pb366d14de4)" style="fill: none; stroke: #b0b0b0; stroke-width: 0.8; stroke-linecap: square"/>
     </g>
     <g id="line2d_20">
      <g>
       <use xlink:href="#m4696ca5442" x="129.775152" y="338.341667" style="stroke: #000000; stroke-width: 0.8"/>
      </g>
     </g>
     <g id="text_11">
      <!-- 0.4 -->
      <g transform="translate(83.017339 347.839714) scale(0.25 -0.25)">
       <defs>
        <path id="DejaVuSans-34" d="M 2419 4116 
L 825 1625 
L 2419 1625 
L 2419 4116 
z
M 2253 4666 
L 3047 4666 
L 3047 1625 
L 3713 1625 
L 3713 1100 
L 3047 1100 
L 3047 0 
L 2419 0 
L 2419 1100 
L 313 1100 
L 313 1709 
L 2253 4666 
z
" transform="scale(0.015625)"/>
       </defs>
       <use xlink:href="#DejaVuSans-30"/>
       <use xlink:href="#DejaVuSans-2e" x="63.623047"/>
       <use xlink:href="#DejaVuSans-34" x="95.410156"/>
      </g>
     </g>
    </g>
    <g id="ytick_4">
     <g id="line2d_21">
      <path d="M 129.775152 262.93625 
L 685.035 262.93625 
" clip-path="url(#pb366d14de4)" style="fill: none; stroke: #b0b0b0; stroke-width: 0.8; stroke-linecap: square"/>
     </g>
     <g id="line2d_22">
      <g>
       <use xlink:href="#m4696ca5442" x="129.775152" y="262.93625" style="stroke: #000000; stroke-width: 0.8"/>
      </g>
     </g>
     <g id="text_12">
      <!-- 0.6 -->
      <g transform="translate(83.017339 272.434297) scale(0.25 -0.25)">
       <defs>
        <path id="DejaVuSans-36" d="M 2113 2584 
Q 1688 2584 1439 2293 
Q 1191 2003 1191 1497 
Q 1191 994 1439 701 
Q 1688 409 2113 409 
Q 2538 409 2786 701 
Q 3034 994 3034 1497 
Q 3034 2003 2786 2293 
Q 2538 2584 2113 2584 
z
M 3366 4563 
L 3366 3988 
Q 3128 4100 2886 4159 
Q 2644 4219 2406 4219 
Q 1781 4219 1451 3797 
Q 1122 3375 1075 2522 
Q 1259 2794 1537 2939 
Q 1816 3084 2150 3084 
Q 2853 3084 3261 2657 
Q 3669 2231 3669 1497 
Q 3669 778 3244 343 
Q 2819 -91 2113 -91 
Q 1303 -91 875 529 
Q 447 1150 447 2328 
Q 447 3434 972 4092 
Q 1497 4750 2381 4750 
Q 2619 4750 2861 4703 
Q 3103 4656 3366 4563 
z
" transform="scale(0.015625)"/>
       </defs>
       <use xlink:href="#DejaVuSans-30"/>
       <use xlink:href="#DejaVuSans-2e" x="63.623047"/>
       <use xlink:href="#DejaVuSans-36" x="95.410156"/>
      </g>
     </g>
    </g>
    <g id="ytick_5">
     <g id="line2d_23">
      <path d="M 129.775152 187.530833 
L 685.035 187.530833 
" clip-path="url(#pb366d14de4)" style="fill: none; stroke: #b0b0b0; stroke-width: 0.8; stroke-linecap: square"/>
     </g>
     <g id="line2d_24">
      <g>
       <use xlink:href="#m4696ca5442" x="129.775152" y="187.530833" style="stroke: #000000; stroke-width: 0.8"/>
      </g>
     </g>
     <g id="text_13">
      <!-- 0.8 -->
      <g transform="translate(83.017339 197.02888) scale(0.25 -0.25)">
       <defs>
        <path id="DejaVuSans-38" d="M 2034 2216 
Q 1584 2216 1326 1975 
Q 1069 1734 1069 1313 
Q 1069 891 1326 650 
Q 1584 409 2034 409 
Q 2484 409 2743 651 
Q 3003 894 3003 1313 
Q 3003 1734 2745 1975 
Q 2488 2216 2034 2216 
z
M 1403 2484 
Q 997 2584 770 2862 
Q 544 3141 544 3541 
Q 544 4100 942 4425 
Q 1341 4750 2034 4750 
Q 2731 4750 3128 4425 
Q 3525 4100 3525 3541 
Q 3525 3141 3298 2862 
Q 3072 2584 2669 2484 
Q 3125 2378 3379 2068 
Q 3634 1759 3634 1313 
Q 3634 634 3220 271 
Q 2806 -91 2034 -91 
Q 1263 -91 848 271 
Q 434 634 434 1313 
Q 434 1759 690 2068 
Q 947 2378 1403 2484 
z
M 1172 3481 
Q 1172 3119 1398 2916 
Q 1625 2713 2034 2713 
Q 2441 2713 2670 2916 
Q 2900 3119 2900 3481 
Q 2900 3844 2670 4047 
Q 2441 4250 2034 4250 
Q 1625 4250 1398 4047 
Q 1172 3844 1172 3481 
z
" transform="scale(0.015625)"/>
       </defs>
       <use xlink:href="#DejaVuSans-30"/>
       <use xlink:href="#DejaVuSans-2e" x="63.623047"/>
       <use xlink:href="#DejaVuSans-38" x="95.410156"/>
      </g>
     </g>
    </g>
    <g id="ytick_6">
     <g id="line2d_25">
      <path d="M 129.775152 112.125417 
L 685.035 112.125417 
" clip-path="url(#pb366d14de4)" style="fill: none; stroke: #b0b0b0; stroke-width: 0.8; stroke-linecap: square"/>
     </g>
     <g id="line2d_26">
      <g>
       <use xlink:href="#m4696ca5442" x="129.775152" y="112.125417" style="stroke: #000000; stroke-width: 0.8"/>
      </g>
     </g>
     <g id="text_14">
      <!-- 1.0 -->
      <g transform="translate(83.017339 121.623464) scale(0.25 -0.25)">
       <use xlink:href="#DejaVuSans-31"/>
       <use xlink:href="#DejaVuSans-2e" x="63.623047"/>
       <use xlink:href="#DejaVuSans-30" x="95.410156"/>
      </g>
     </g>
    </g>
    <g id="ytick_7">
     <g id="line2d_27">
      <path d="M 129.775152 36.72 
L 685.035 36.72 
" clip-path="url(#pb366d14de4)" style="fill: none; stroke: #b0b0b0; stroke-width: 0.8; stroke-linecap: square"/>
     </g>
     <g id="line2d_28">
      <g>
       <use xlink:href="#m4696ca5442" x="129.775152" y="36.72" style="stroke: #000000; stroke-width: 0.8"/>
      </g>
     </g>
     <g id="text_15">
      <!-- 1.2 -->
      <g transform="translate(83.017339 46.218047) scale(0.25 -0.25)">
       <use xlink:href="#DejaVuSans-31"/>
       <use xlink:href="#DejaVuSans-2e" x="63.623047"/>
       <use xlink:href="#DejaVuSans-32" x="95.410156"/>
      </g>
     </g>
    </g>
    <g id="text_16">
     <!-- $\rho$($\omega$) -->
     <g transform="translate(27.017339 257.68625) scale(0.25 -0.25)">
      <defs>
       <path id="DejaVuSans-Oblique-3c1" d="M 1203 2875 
Q 1453 3194 1981 3475 
Q 2188 3584 2756 3584 
Q 3394 3584 3694 3078 
Q 3994 2572 3834 1747 
Q 3672 922 3175 415 
Q 2678 -91 2041 -91 
Q 1656 -91 1409 63 
Q 1163 213 1044 525 
L 681 -1331 
L 103 -1331 
L 697 1716 
Q 838 2438 1203 2875 
z
M 3238 1747 
Q 3359 2381 3169 2744 
Q 2978 3103 2522 3103 
Q 2066 3103 1734 2744 
Q 1403 2381 1281 1747 
Q 1156 1113 1347 750 
Q 1538 391 1994 391 
Q 2450 391 2781 750 
Q 3113 1113 3238 1747 
z
" transform="scale(0.015625)"/>
       <path id="Calibri-28" d="M 1547 4306 
Q 1250 3678 1104 3017 
Q 959 2356 959 1688 
Q 959 1016 1107 356 
Q 1256 -303 1541 -938 
Q 1556 -975 1557 -1001 
Q 1559 -1028 1537 -1045 
Q 1516 -1063 1470 -1070 
Q 1425 -1078 1347 -1078 
Q 1291 -1078 1250 -1075 
Q 1209 -1072 1179 -1062 
Q 1150 -1053 1131 -1040 
Q 1113 -1028 1103 -1013 
Q 934 -694 806 -367 
Q 678 -41 590 296 
Q 503 634 459 979 
Q 416 1325 416 1678 
Q 416 2031 464 2375 
Q 513 2719 602 3058 
Q 691 3397 819 3725 
Q 947 4053 1106 4375 
Q 1109 4388 1123 4397 
Q 1138 4406 1163 4415 
Q 1188 4425 1231 4429 
Q 1275 4434 1344 4434 
Q 1416 4434 1459 4425 
Q 1503 4416 1528 4400 
Q 1553 4384 1556 4359 
Q 1559 4334 1547 4306 
z
" transform="scale(0.015625)"/>
       <path id="Calibri-29" d="M 1522 1678 
Q 1522 1325 1478 979 
Q 1434 634 1346 296 
Q 1259 -41 1132 -367 
Q 1006 -694 838 -1013 
Q 828 -1028 809 -1040 
Q 791 -1053 761 -1062 
Q 731 -1072 690 -1075 
Q 650 -1078 594 -1078 
Q 513 -1078 467 -1070 
Q 422 -1063 401 -1045 
Q 381 -1028 382 -1001 
Q 384 -975 400 -938 
Q 688 -306 834 355 
Q 981 1016 981 1688 
Q 981 2356 834 3017 
Q 688 3678 394 4306 
Q 381 4334 384 4359 
Q 388 4384 413 4400 
Q 438 4416 481 4425 
Q 525 4434 597 4434 
Q 663 4434 706 4429 
Q 750 4425 776 4415 
Q 803 4406 815 4397 
Q 828 4388 834 4375 
Q 1156 3734 1339 3057 
Q 1522 2381 1522 1678 
z
" transform="scale(0.015625)"/>
      </defs>
      <use xlink:href="#DejaVuSans-Oblique-3c1" transform="translate(0 0.71875)"/>
      <use xlink:href="#Calibri-28" transform="translate(63.476562 0.71875)"/>
      <use xlink:href="#DejaVuSans-Oblique-3c9" transform="translate(93.798828 0.71875)"/>
      <use xlink:href="#Calibri-29" transform="translate(177.539062 0.71875)"/>
     </g>
    </g>
   </g>
   <g id="line2d_29">
    <path d="M 129.775152 485.191726 
L 155.334144 484.357906 
L 176.448095 483.454255 
L 194.413473 482.469183 
L 209.785911 481.409883 
L 223.121037 480.274568 
L 234.789273 479.065055 
L 245.161038 477.771976 
L 254.421542 476.397747 
L 262.755996 474.939311 
L 270.34961 473.384504 
L 277.202383 471.755119 
L 283.499526 470.028525 
L 289.241039 468.224518 
L 294.612132 466.300489 
L 299.427594 464.345993 
L 304.057846 462.22636 
L 308.317678 460.033592 
L 312.3923 457.683194 
L 316.096502 455.298572 
L 319.615494 452.781848 
L 322.949275 450.139362 
L 326.283057 447.210018 
L 329.431628 444.143156 
L 332.39499 440.953562 
L 335.358351 437.430254 
L 338.136503 433.783961 
L 340.914654 429.761674 
L 343.507595 425.624737 
L 346.100536 421.071059 
L 348.693478 416.047963 
L 351.101209 410.910933 
L 353.50894 405.262843 
L 355.916671 399.042223 
L 358.324402 392.180058 
L 360.732133 384.599258 
L 362.954655 376.889976 
L 365.177176 368.422113 
L 367.399697 359.116621 
L 369.622218 348.890039 
L 371.844739 337.656563 
L 374.06726 325.331472 
L 376.474991 310.656905 
L 378.882722 294.529465 
L 381.290453 276.905816 
L 383.883395 256.274469 
L 386.846756 230.785139 
L 390.736168 195.110677 
L 395.92205 147.552666 
L 398.144572 129.166202 
L 399.811462 116.958482 
L 401.293143 107.605845 
L 402.589614 100.797814 
L 403.700874 96.111069 
L 404.626925 93.080348 
L 405.367765 91.25699 
L 406.108605 89.984799 
L 406.664236 89.398989 
L 407.219866 89.132142 
L 407.775496 89.18554 
L 408.331126 89.558925 
L 408.886757 90.250509 
L 409.627597 91.661677 
L 410.368437 93.62062 
L 411.294488 96.81443 
L 412.220538 100.797814 
L 413.331799 106.550234 
L 414.628269 114.476259 
L 416.10995 124.921461 
L 417.962051 139.649877 
L 420.369782 160.732399 
L 425.370455 207.184476 
L 429.259867 242.165112 
L 432.223228 266.799083 
L 434.816169 286.582089 
L 437.40911 304.629373 
L 439.816842 319.854831 
L 442.224573 333.673552 
L 444.632304 346.179428 
L 447.040035 357.478458 
L 449.447766 367.679774 
L 451.855497 376.889976 
L 454.263229 385.209804 
L 456.67096 392.732397 
L 459.078691 399.542581 
L 461.486422 405.71681 
L 463.894153 411.323497 
L 466.487095 416.79648 
L 469.080036 421.749019 
L 471.672977 426.2401 
L 474.451128 430.598486 
L 477.22928 434.541835 
L 480.007431 438.118282 
L 482.970792 441.575775 
L 486.119364 444.893109 
L 489.267936 447.887771 
L 492.601717 450.750052 
L 496.120709 453.469814 
L 499.824911 456.040819 
L 503.714322 458.460175 
L 507.788944 460.727785 
L 512.048777 462.84582 
L 516.679029 464.895649 
L 521.679701 466.85643 
L 527.050794 468.713329 
L 532.792307 470.456826 
L 539.08945 472.127851 
L 545.942223 473.707031 
L 553.350626 475.181928 
L 561.49987 476.575283 
L 570.575165 477.897163 
L 580.76172 479.148937 
L 592.059535 480.309365 
L 604.839031 481.395631 
L 619.470628 482.411671 
L 636.324746 483.353856 
L 655.957016 484.222866 
L 679.108277 485.018852 
L 685.035 485.191726 
L 685.035 485.191726 
" clip-path="url(#pb366d14de4)" style="fill: none; stroke-dasharray: 14.8,6.4; stroke-dashoffset: 0; stroke: #ff0000; stroke-width: 4"/>
   </g>
   <g id="line2d_30">
    <path d="M 129.775152 481.220086 
L 129.960362 483.634299 
L 130.145572 483.634299 
L 130.330782 484.324074 
L 130.515992 481.564974 
L 130.701202 481.909861 
L 130.886413 482.944524 
L 131.071623 483.289411 
L 131.442043 480.875198 
L 131.627253 481.909861 
L 131.812463 481.564974 
L 131.997673 481.564974 
L 132.182883 484.668962 
L 132.368093 484.668962 
L 132.738513 483.289411 
L 132.923723 481.909861 
L 133.108934 481.564974 
L 133.294144 483.979187 
L 133.479354 483.979187 
L 133.664564 485.013849 
L 133.849774 483.979187 
L 134.034984 482.254749 
L 134.405404 483.979187 
L 134.590614 481.909861 
L 134.775824 485.703624 
L 134.961034 482.254749 
L 135.146245 484.668962 
L 135.331455 480.875198 
L 135.516665 485.358737 
L 135.887085 482.599636 
L 136.072295 483.634299 
L 136.257505 483.634299 
L 136.442715 482.944524 
L 136.627925 484.324074 
L 136.813135 483.634299 
L 136.998345 483.979187 
L 137.183556 482.944524 
L 137.368766 481.220086 
L 137.553976 484.668962 
L 137.924396 481.909861 
L 138.109606 481.909861 
L 138.665236 485.013849 
L 138.850446 481.564974 
L 139.035656 484.324074 
L 139.220867 483.634299 
L 139.406077 485.358737 
L 139.591287 482.599636 
L 139.776497 484.668962 
L 139.961707 484.668962 
L 140.146917 482.944524 
L 140.332127 482.944524 
L 140.517337 482.254749 
L 140.887757 483.979187 
L 141.072967 480.875198 
L 141.258178 483.634299 
L 141.443388 480.185423 
L 141.628598 481.909861 
L 141.999018 481.909861 
L 142.184228 482.944524 
L 142.369438 481.220086 
L 142.554648 483.289411 
L 142.739858 480.530311 
L 142.925068 481.564974 
L 143.110278 483.634299 
L 143.295489 483.634299 
L 143.480699 481.909861 
L 143.851119 484.324074 
L 144.036329 481.909861 
L 144.221539 482.599636 
L 144.406749 481.220086 
L 144.777169 483.289411 
L 144.962379 483.289411 
L 145.147589 483.634299 
L 145.51801 481.564974 
L 145.70322 480.875198 
L 145.88843 482.254749 
L 146.07364 481.220086 
L 146.25885 481.564974 
L 146.44406 480.875198 
L 146.81448 484.324074 
L 146.99969 481.564974 
L 147.37011 483.979187 
L 147.555321 483.979187 
L 147.740531 482.254749 
L 147.925741 482.944524 
L 148.110951 478.460986 
L 148.481371 484.668962 
L 148.851791 480.530311 
L 149.037001 483.634299 
L 149.222211 481.220086 
L 149.407421 484.668962 
L 149.592632 483.634299 
L 149.963052 479.495648 
L 150.333472 483.634299 
L 150.518682 482.254749 
L 150.703892 483.634299 
L 150.889102 481.564974 
L 151.074312 480.875198 
L 151.259522 478.805873 
L 151.444732 482.254749 
L 151.629943 481.909861 
L 151.815153 480.875198 
L 152.000363 481.564974 
L 152.185573 483.634299 
L 152.370783 483.979187 
L 152.555993 481.564974 
L 152.741203 482.944524 
L 152.926413 481.909861 
L 153.111623 482.599636 
L 153.296833 478.460986 
L 153.667254 481.909861 
L 153.852464 482.944524 
L 154.037674 481.564974 
L 154.222884 481.220086 
L 154.408094 483.289411 
L 154.593304 481.220086 
L 154.963724 483.634299 
L 155.148934 482.944524 
L 155.334144 481.564974 
L 155.519354 481.564974 
L 155.704564 479.150761 
L 155.889775 483.289411 
L 156.074985 483.979187 
L 156.445405 481.909861 
L 156.630615 482.254749 
L 156.815825 481.909861 
L 157.001035 481.220086 
L 157.186245 481.909861 
L 157.371455 481.909861 
L 157.556665 483.289411 
L 157.741875 482.944524 
L 157.927086 480.185423 
L 158.112296 482.254749 
L 158.482716 483.634299 
L 159.038346 481.909861 
L 159.223556 483.634299 
L 159.408766 481.909861 
L 159.593976 483.289411 
L 159.779186 480.185423 
L 159.964397 479.840536 
L 160.149607 483.634299 
L 160.334817 482.944524 
L 160.520027 482.944524 
L 160.705237 484.324074 
L 160.890447 480.185423 
L 161.075657 481.564974 
L 161.260867 480.875198 
L 161.446077 481.220086 
L 161.631287 480.875198 
L 161.816497 478.805873 
L 162.186918 483.979187 
L 162.372128 484.324074 
L 162.557338 479.495648 
L 162.742548 481.564974 
L 163.112968 479.495648 
L 163.298178 477.081435 
L 163.668598 483.979187 
L 163.853808 480.530311 
L 164.039019 480.530311 
L 164.224229 480.875198 
L 164.409439 483.289411 
L 164.594649 477.426323 
L 164.779859 483.634299 
L 164.965069 481.220086 
L 165.150279 486.393399 
L 165.335489 479.150761 
L 165.520699 482.944524 
L 165.705909 481.564974 
L 165.891119 478.805873 
L 166.07633 482.599636 
L 166.26154 479.840536 
L 166.44675 479.840536 
L 166.63196 482.944524 
L 167.00238 479.495648 
L 167.18759 480.530311 
L 167.3728 482.944524 
L 167.55801 478.805873 
L 167.92843 483.634299 
L 168.298851 480.185423 
L 168.484061 480.530311 
L 168.854481 479.150761 
L 169.039691 482.254749 
L 169.224901 480.185423 
L 169.410111 482.944524 
L 169.780531 478.116098 
L 169.965741 481.220086 
L 170.336162 481.909861 
L 170.521372 477.77121 
L 170.706582 481.909861 
L 170.891792 480.185423 
L 171.262212 481.909861 
L 171.447422 482.599636 
L 171.632632 481.220086 
L 171.817842 478.460986 
L 172.003052 481.909861 
L 172.188262 482.599636 
L 172.373473 479.150761 
L 172.558683 481.564974 
L 172.743893 479.495648 
L 173.114313 483.634299 
L 173.299523 486.048512 
L 173.484733 477.426323 
L 173.669943 477.77121 
L 174.040363 483.289411 
L 174.225573 479.495648 
L 174.410784 480.185423 
L 174.595994 481.564974 
L 174.781204 481.220086 
L 174.966414 483.289411 
L 175.151624 479.840536 
L 175.522044 483.979187 
L 175.707254 483.979187 
L 175.892464 478.805873 
L 176.077674 479.150761 
L 176.448095 480.875198 
L 176.633305 480.530311 
L 177.003725 477.426323 
L 177.188935 483.289411 
L 177.559355 478.460986 
L 177.744565 480.875198 
L 177.929775 481.220086 
L 178.114985 483.979187 
L 178.485405 478.116098 
L 178.670616 481.564974 
L 178.855826 481.909861 
L 179.041036 480.185423 
L 179.226246 481.909861 
L 179.411456 479.495648 
L 179.781876 481.909861 
L 179.967086 480.530311 
L 180.152296 481.564974 
L 180.337506 480.185423 
L 180.522716 479.840536 
L 180.707927 481.564974 
L 181.078347 478.460986 
L 181.263557 480.185423 
L 181.633977 479.150761 
L 182.004397 479.150761 
L 182.189607 483.979187 
L 182.374817 478.116098 
L 182.560027 480.875198 
L 182.745238 480.185423 
L 182.930448 481.220086 
L 183.115658 479.150761 
L 183.300868 480.185423 
L 183.486078 479.840536 
L 183.671288 483.289411 
L 183.856498 477.77121 
L 184.041708 480.875198 
L 184.226918 478.805873 
L 184.412128 481.220086 
L 184.597338 478.805873 
L 184.782549 480.875198 
L 185.152969 478.116098 
L 185.523389 482.254749 
L 185.708599 474.667222 
L 186.079019 480.185423 
L 186.449439 477.77121 
L 186.634649 481.220086 
L 186.81986 480.530311 
L 187.00507 480.875198 
L 187.19028 479.495648 
L 187.37549 479.150761 
L 187.5607 481.909861 
L 187.74591 481.564974 
L 187.93112 481.909861 
L 188.30154 479.840536 
L 188.48675 480.185423 
L 188.67196 476.736548 
L 188.85717 480.875198 
L 189.227591 476.39166 
L 189.598011 479.495648 
L 189.783221 478.460986 
L 189.968431 481.909861 
L 190.153641 479.840536 
L 190.338851 479.840536 
L 190.524061 482.254749 
L 190.894481 476.39166 
L 191.079692 477.77121 
L 191.264902 480.530311 
L 191.450112 478.116098 
L 191.820532 481.564974 
L 192.190952 478.116098 
L 192.376162 478.460986 
L 192.561372 480.875198 
L 192.746582 481.564974 
L 192.931792 481.564974 
L 193.117003 479.495648 
L 193.302213 478.805873 
L 193.487423 478.805873 
L 193.672633 477.426323 
L 193.857843 479.495648 
L 194.043053 480.185423 
L 194.228263 478.460986 
L 194.413473 479.150761 
L 194.598683 482.944524 
L 194.969103 478.460986 
L 195.154314 478.116098 
L 195.339524 480.875198 
L 195.524734 478.460986 
L 195.709944 477.77121 
L 195.895154 481.909861 
L 196.080364 478.805873 
L 196.265574 481.564974 
L 196.450784 480.185423 
L 196.635994 477.081435 
L 196.821204 477.426323 
L 197.006414 478.805873 
L 197.191625 476.736548 
L 197.376835 480.530311 
L 197.562045 477.081435 
L 197.747255 478.805873 
L 197.932465 477.77121 
L 198.117675 478.805873 
L 198.302885 481.564974 
L 198.488095 476.046773 
L 198.673305 478.805873 
L 199.043725 480.185423 
L 199.228936 478.460986 
L 199.784566 480.875198 
L 199.969776 474.667222 
L 200.154986 479.840536 
L 200.340196 478.460986 
L 200.525406 479.840536 
L 200.710616 479.495648 
L 200.895826 481.909861 
L 201.081036 479.150761 
L 201.266246 478.460986 
L 201.451457 481.564974 
L 201.821877 476.39166 
L 202.007087 481.220086 
L 202.192297 479.840536 
L 202.377507 480.185423 
L 202.562717 477.77121 
L 202.747927 478.460986 
L 202.933137 476.736548 
L 203.118347 480.530311 
L 203.303557 473.63256 
L 203.488768 479.840536 
L 203.673978 481.909861 
L 203.859188 480.530311 
L 204.044398 477.426323 
L 204.229608 480.875198 
L 204.414818 480.530311 
L 204.600028 477.081435 
L 204.970448 474.667222 
L 205.155658 479.150761 
L 205.340868 477.77121 
L 205.526079 474.322335 
L 205.896499 480.875198 
L 206.266919 476.39166 
L 206.452129 480.530311 
L 206.637339 476.736548 
L 206.822549 477.77121 
L 207.007759 475.701885 
L 207.192969 479.150761 
L 207.378179 476.736548 
L 207.56339 479.840536 
L 207.7486 475.356997 
L 207.93381 473.977447 
L 208.30423 477.77121 
L 208.48944 478.116098 
L 208.67465 477.081435 
L 208.85986 479.495648 
L 209.04507 478.805873 
L 209.23028 478.805873 
L 209.41549 477.081435 
L 209.600701 478.116098 
L 209.785911 479.840536 
L 209.971121 477.081435 
L 210.156331 478.460986 
L 210.341541 477.426323 
L 210.526751 477.426323 
L 210.711961 476.39166 
L 210.897171 479.150761 
L 211.082381 476.39166 
L 211.267591 477.77121 
L 211.452801 476.736548 
L 211.638011 476.736548 
L 211.823222 479.150761 
L 212.008432 477.081435 
L 212.193642 476.736548 
L 212.378852 477.426323 
L 212.564062 479.150761 
L 212.749272 473.63256 
L 212.934482 481.564974 
L 213.119692 475.701885 
L 213.304902 479.495648 
L 213.490112 477.426323 
L 213.675322 478.460986 
L 213.860533 478.460986 
L 214.045743 475.01211 
L 214.230953 477.77121 
L 214.416163 475.356997 
L 214.601373 478.116098 
L 214.786583 478.116098 
L 214.971793 475.701885 
L 215.157003 478.805873 
L 215.342213 472.597897 
L 215.527423 477.426323 
L 215.712633 475.01211 
L 215.897844 478.460986 
L 216.083054 477.426323 
L 216.268264 478.460986 
L 216.638684 475.01211 
L 216.823894 475.356997 
L 217.009104 477.081435 
L 217.194314 475.701885 
L 217.379524 478.116098 
L 217.564734 475.01211 
L 217.749944 480.185423 
L 218.120365 472.942784 
L 218.305575 474.667222 
L 218.490785 474.322335 
L 218.675995 475.701885 
L 219.046415 479.150761 
L 219.231625 473.977447 
L 219.416835 477.081435 
L 219.602045 475.01211 
L 219.787255 477.081435 
L 219.972466 475.701885 
L 220.157676 476.39166 
L 220.342886 476.39166 
L 220.713306 475.356997 
L 220.898516 477.426323 
L 221.083726 476.736548 
L 221.268936 478.805873 
L 221.454146 477.426323 
L 221.639356 477.426323 
L 221.824566 473.63256 
L 222.009776 476.736548 
L 222.194987 476.736548 
L 222.380197 479.495648 
L 222.565407 475.356997 
L 222.935827 473.63256 
L 223.121037 477.426323 
L 223.306247 476.39166 
L 223.491457 480.185423 
L 223.676667 473.63256 
L 223.861877 476.046773 
L 224.047087 475.701885 
L 224.232298 476.736548 
L 224.602718 476.736548 
L 224.787928 471.563234 
L 224.973138 476.046773 
L 225.158348 477.77121 
L 225.343558 472.597897 
L 225.528768 477.081435 
L 225.713978 471.563234 
L 226.269609 476.046773 
L 226.454819 472.253009 
L 226.640029 476.046773 
L 226.825239 473.287672 
L 227.010449 474.322335 
L 227.195659 480.530311 
L 227.380869 475.701885 
L 227.566079 476.736548 
L 227.936499 474.667222 
L 228.30692 476.046773 
L 228.67734 472.253009 
L 228.86255 475.01211 
L 229.04776 475.01211 
L 229.23297 478.460986 
L 229.41818 474.667222 
L 229.7886 479.150761 
L 229.97381 475.356997 
L 230.15902 473.977447 
L 230.529441 477.081435 
L 230.714651 474.322335 
L 231.085071 476.39166 
L 231.270281 475.701885 
L 231.455491 478.116098 
L 231.825911 472.597897 
L 232.011121 476.39166 
L 232.196331 476.39166 
L 232.381542 473.287672 
L 232.566752 479.840536 
L 232.751962 475.356997 
L 232.937172 475.701885 
L 233.122382 479.495648 
L 233.492802 474.667222 
L 233.678012 474.322335 
L 233.863222 480.185423 
L 234.048432 473.977447 
L 234.233642 474.667222 
L 234.418852 476.39166 
L 234.604063 472.597897 
L 234.789273 472.597897 
L 235.159693 476.046773 
L 235.344903 472.597897 
L 235.715323 476.046773 
L 235.900533 473.287672 
L 236.085743 476.39166 
L 236.456163 473.977447 
L 236.641374 477.081435 
L 236.826584 471.563234 
L 237.011794 480.875198 
L 237.382214 472.597897 
L 237.567424 473.977447 
L 237.752634 473.63256 
L 237.937844 471.908122 
L 238.308264 475.01211 
L 238.493474 475.701885 
L 238.863895 470.873459 
L 239.049105 473.287672 
L 239.234315 470.528572 
L 239.419525 475.356997 
L 239.789945 473.63256 
L 239.975155 478.460986 
L 240.160365 473.287672 
L 240.345575 473.977447 
L 240.530785 470.528572 
L 240.715996 469.493909 
L 241.271626 475.701885 
L 241.456836 473.977447 
L 241.642046 470.183684 
L 242.197676 474.322335 
L 242.568096 471.218347 
L 242.753307 475.701885 
L 242.938517 473.63256 
L 243.123727 470.183684 
L 243.679357 475.01211 
L 243.864567 471.218347 
L 244.049777 470.528572 
L 244.234987 467.424583 
L 244.420197 467.424583 
L 244.605407 472.597897 
L 244.790617 474.322335 
L 245.161038 467.424583 
L 245.346248 467.769471 
L 245.531458 469.493909 
L 245.716668 473.287672 
L 246.087088 472.597897 
L 246.272298 469.493909 
L 246.457508 474.322335 
L 246.642718 475.356997 
L 246.827928 472.597897 
L 247.013139 475.356997 
L 247.198349 470.528572 
L 247.383559 471.908122 
L 247.568769 468.804134 
L 247.753979 470.528572 
L 247.939189 470.528572 
L 248.124399 471.908122 
L 248.309609 468.459246 
L 248.680029 472.597897 
L 248.865239 470.528572 
L 249.05045 470.528572 
L 249.23566 469.493909 
L 249.42087 473.63256 
L 249.60608 469.493909 
L 249.9765 474.667222 
L 250.16171 466.045033 
L 250.71734 471.218347 
L 250.90255 468.804134 
L 251.272971 472.253009 
L 251.458181 471.908122 
L 251.828601 467.769471 
L 252.013811 477.426323 
L 252.199021 470.873459 
L 252.384231 469.838796 
L 252.569441 470.183684 
L 252.939861 473.63256 
L 253.125072 467.079696 
L 253.310282 472.597897 
L 253.495492 468.459246 
L 253.680702 472.597897 
L 253.865912 466.045033 
L 254.051122 470.873459 
L 254.236332 471.908122 
L 254.421542 468.459246 
L 254.606752 467.769471 
L 254.791962 470.183684 
L 255.162383 471.908122 
L 255.347593 469.838796 
L 255.532803 474.322335 
L 255.718013 466.045033 
L 255.903223 472.942784 
L 256.088433 468.459246 
L 256.273643 471.218347 
L 256.458853 469.838796 
L 256.644063 474.322335 
L 256.829273 474.667222 
L 257.199693 466.389921 
L 257.384904 467.079696 
L 257.570114 474.667222 
L 257.755324 469.493909 
L 257.940534 471.218347 
L 258.125744 468.114359 
L 258.310954 472.597897 
L 258.496164 469.838796 
L 259.051794 469.838796 
L 259.237004 467.079696 
L 259.422215 472.253009 
L 259.607425 472.597897 
L 259.977845 470.183684 
L 260.163055 471.218347 
L 260.348265 470.528572 
L 260.533475 467.769471 
L 260.718685 469.149021 
L 260.903895 467.769471 
L 261.089105 467.424583 
L 261.274315 468.804134 
L 261.459526 472.253009 
L 262.015156 466.734808 
L 262.200366 468.459246 
L 262.385576 467.424583 
L 262.570786 463.975708 
L 262.755996 469.149021 
L 262.941206 469.838796 
L 263.126416 466.734808 
L 263.311626 466.734808 
L 263.496837 467.424583 
L 263.682047 470.183684 
L 263.867257 464.665483 
L 264.052467 471.908122 
L 264.237677 467.079696 
L 264.422887 471.563234 
L 264.608097 467.079696 
L 264.793307 467.424583 
L 264.978517 468.114359 
L 265.163727 464.320595 
L 265.348937 470.183684 
L 265.534148 468.804134 
L 265.719358 470.183684 
L 265.904568 469.838796 
L 266.089778 465.01037 
L 266.274988 468.459246 
L 266.460198 465.355258 
L 266.830618 468.804134 
L 267.015828 464.665483 
L 267.201038 469.149021 
L 267.386248 465.355258 
L 267.571458 468.459246 
L 267.756669 467.769471 
L 267.941879 462.25127 
L 268.127089 468.459246 
L 268.312299 469.493909 
L 268.497509 463.63082 
L 268.867929 469.149021 
L 269.053139 470.183684 
L 269.423559 461.906382 
L 269.608769 467.424583 
L 269.79398 465.01037 
L 269.97919 465.700146 
L 270.1644 462.941045 
L 270.34961 464.320595 
L 270.53482 469.149021 
L 270.72003 470.873459 
L 270.90524 460.181945 
L 271.09045 466.734808 
L 271.27566 458.457507 
L 271.831291 467.079696 
L 272.016501 464.665483 
L 272.201711 466.389921 
L 272.572131 463.975708 
L 272.757341 467.769471 
L 272.942551 467.769471 
L 273.127761 465.700146 
L 273.312971 468.804134 
L 273.498181 466.045033 
L 273.868602 466.045033 
L 274.053812 465.700146 
L 274.239022 466.045033 
L 274.424232 467.079696 
L 274.609442 466.045033 
L 274.794652 466.045033 
L 274.979862 461.561495 
L 275.165072 461.906382 
L 275.350282 468.114359 
L 275.535492 465.355258 
L 275.720702 466.734808 
L 275.905913 466.389921 
L 276.461543 460.526832 
L 276.831963 466.734808 
L 277.017173 463.975708 
L 277.202383 459.492169 
L 277.387593 466.734808 
L 277.572803 458.802394 
L 277.758013 463.975708 
L 277.943223 465.700146 
L 278.128434 463.63082 
L 278.313644 463.975708 
L 278.498854 462.596158 
L 278.684064 464.320595 
L 279.054484 460.526832 
L 279.239694 465.700146 
L 279.610114 461.561495 
L 279.795324 459.147282 
L 279.980534 467.769471 
L 280.165745 464.665483 
L 280.350955 467.424583 
L 280.536165 465.01037 
L 280.721375 460.181945 
L 280.906585 465.01037 
L 281.091795 461.561495 
L 281.277005 461.216607 
L 281.462215 459.147282 
L 281.647425 465.700146 
L 281.832635 459.147282 
L 282.017845 463.285933 
L 282.203056 454.318856 
L 282.388266 465.700146 
L 282.573476 459.492169 
L 282.758686 466.734808 
L 283.129106 460.181945 
L 283.314316 459.147282 
L 283.499526 456.733069 
L 283.684736 462.596158 
L 283.869946 463.975708 
L 284.055156 463.975708 
L 284.240367 465.355258 
L 284.425577 460.181945 
L 284.610787 460.87172 
L 284.795997 463.975708 
L 285.166417 457.767732 
L 285.351627 460.526832 
L 285.536837 460.526832 
L 285.907257 459.492169 
L 286.092467 465.700146 
L 286.277678 453.629081 
L 286.648098 465.355258 
L 287.018518 456.043294 
L 287.203728 462.941045 
L 287.388938 459.147282 
L 287.574148 458.802394 
L 287.759358 461.561495 
L 287.944568 460.87172 
L 288.129778 458.457507 
L 288.314989 462.596158 
L 288.500199 459.492169 
L 288.685409 459.492169 
L 288.870619 456.043294 
L 289.055829 461.906382 
L 289.241039 461.906382 
L 289.426249 456.388181 
L 289.611459 458.457507 
L 289.796669 458.112619 
L 289.981879 458.457507 
L 290.167089 467.079696 
L 290.352299 456.388181 
L 290.53751 458.457507 
L 290.72272 452.939306 
L 290.90793 458.457507 
L 291.09314 456.043294 
L 291.27835 461.216607 
L 291.46356 451.904643 
L 291.64877 459.492169 
L 292.01919 455.353519 
L 292.2044 454.318856 
L 292.38961 456.388181 
L 292.574821 455.353519 
L 292.760031 450.525093 
L 292.945241 464.665483 
L 293.315661 455.008631 
L 293.500871 456.388181 
L 293.686081 448.455767 
L 294.056501 461.906382 
L 294.241711 455.008631 
L 294.426921 455.353519 
L 294.612132 455.008631 
L 294.797342 452.939306 
L 295.167762 457.767732 
L 295.352972 451.904643 
L 295.538182 455.698406 
L 295.723392 456.388181 
L 295.908602 450.86998 
L 296.464232 461.216607 
L 296.649443 455.353519 
L 296.834653 460.181945 
L 297.205073 453.284193 
L 297.390283 458.802394 
L 297.575493 455.353519 
L 297.760703 458.457507 
L 297.945913 451.214868 
L 298.131123 456.388181 
L 298.316333 448.11088 
L 298.501543 457.767732 
L 298.686754 460.526832 
L 298.871964 450.180205 
L 299.057174 455.698406 
L 299.242384 456.388181 
L 299.427594 452.939306 
L 299.612804 455.008631 
L 299.798014 458.457507 
L 299.983224 459.492169 
L 300.168434 458.802394 
L 300.353644 453.973968 
L 300.538854 455.698406 
L 300.724064 452.249531 
L 300.909275 453.629081 
L 301.094485 456.733069 
L 301.279695 450.180205 
L 301.464905 454.318856 
L 301.650115 455.008631 
L 301.835325 452.939306 
L 302.020535 455.353519 
L 302.205745 455.353519 
L 302.576165 452.939306 
L 302.761375 451.559755 
L 302.946586 448.800655 
L 303.131796 453.629081 
L 303.317006 453.284193 
L 303.502216 451.904643 
L 303.687426 453.629081 
L 303.872636 453.973968 
L 304.057846 449.49043 
L 304.243056 457.767732 
L 304.428266 455.353519 
L 304.798686 447.076217 
L 304.983897 449.145543 
L 305.169107 454.663744 
L 305.354317 453.973968 
L 305.539527 453.973968 
L 305.724737 452.939306 
L 305.909947 453.973968 
L 306.095157 446.041554 
L 306.280367 449.49043 
L 306.650787 449.49043 
L 306.835997 449.145543 
L 307.021208 448.455767 
L 307.576838 453.973968 
L 307.947258 442.937566 
L 308.132468 444.662004 
L 308.502888 451.214868 
L 308.688098 445.351779 
L 308.873308 456.388181 
L 309.058519 446.73133 
L 309.243729 452.939306 
L 309.428939 451.904643 
L 309.614149 448.800655 
L 309.799359 450.86998 
L 310.169779 442.247791 
L 310.354989 448.11088 
L 310.540199 443.282454 
L 310.725409 452.939306 
L 310.910619 453.284193 
L 311.09583 451.214868 
L 311.28104 445.006892 
L 311.46625 447.765992 
L 311.65146 442.592679 
L 311.83667 449.835318 
L 312.02188 447.076217 
L 312.20709 448.800655 
L 312.57751 441.213129 
L 312.76272 438.454028 
L 313.13314 449.49043 
L 313.318351 440.178466 
L 313.503561 447.421105 
L 313.688771 438.10914 
L 313.873981 436.384703 
L 314.244401 445.006892 
L 314.429611 444.662004 
L 314.614821 450.86998 
L 314.800031 440.178466 
L 314.985241 446.73133 
L 315.355662 438.798916 
L 315.540872 448.11088 
L 315.726082 436.72959 
L 315.911292 440.523353 
L 316.096502 440.523353 
L 316.281712 439.488691 
L 316.466922 443.972229 
L 316.652132 438.10914 
L 316.837342 437.419365 
L 317.022552 438.798916 
L 317.207762 445.351779 
L 317.392973 435.694928 
L 317.578183 436.72959 
L 317.763393 442.247791 
L 317.948603 440.178466 
L 318.133813 441.902904 
L 318.319023 432.590939 
L 318.504233 440.523353 
L 318.689443 432.590939 
L 318.874653 435.35004 
L 319.059863 436.384703 
L 319.245073 436.72959 
L 319.430284 436.384703 
L 319.615494 432.246052 
L 319.800704 437.764253 
L 319.985914 446.73133 
L 320.171124 438.10914 
L 320.356334 437.074478 
L 320.541544 429.831839 
L 320.726754 437.074478 
L 320.911964 434.660265 
L 321.097174 442.937566 
L 321.282384 433.97049 
L 321.652805 437.764253 
L 321.838015 433.97049 
L 322.023225 445.696667 
L 322.208435 436.384703 
L 322.393645 444.662004 
L 322.578855 432.935827 
L 322.764065 437.074478 
L 322.949275 432.246052 
L 323.134485 431.211389 
L 323.319695 433.625602 
L 323.504905 433.280715 
L 323.690116 437.764253 
L 323.875326 437.764253 
L 324.060536 438.798916 
L 324.430956 432.246052 
L 324.801376 435.694928 
L 324.986586 435.694928 
L 325.171796 429.142064 
L 325.357006 434.660265 
L 325.542216 436.039815 
L 325.727427 438.454028 
L 325.912637 426.727851 
L 326.097847 429.142064 
L 326.468267 427.417626 
L 326.653477 431.901164 
L 326.838687 432.935827 
L 327.023897 431.901164 
L 327.209107 431.901164 
L 327.394317 429.831839 
L 327.579527 433.97049 
L 327.764738 425.693188 
L 327.949948 428.797176 
L 328.135158 423.96875 
L 328.320368 434.660265 
L 328.505578 430.176726 
L 328.690788 430.176726 
L 328.875998 423.278975 
L 329.061208 429.831839 
L 329.246418 429.142064 
L 329.431628 432.246052 
L 329.616838 424.313638 
L 329.802049 426.038076 
L 329.987259 417.070999 
L 330.172469 426.727851 
L 330.357679 424.658525 
L 330.728099 429.831839 
L 330.913309 418.450549 
L 331.098519 425.693188 
L 331.283729 421.554537 
L 331.468939 423.623863 
L 331.654149 434.315377 
L 331.83936 420.864762 
L 332.02457 419.140324 
L 332.20978 418.795437 
L 332.39499 429.486951 
L 332.76541 423.96875 
L 332.95062 426.727851 
L 333.13583 419.140324 
L 333.50625 425.348301 
L 333.87667 427.762514 
L 334.247091 420.864762 
L 334.432301 424.658525 
L 334.987931 410.173248 
L 335.173141 424.658525 
L 335.358351 426.727851 
L 335.543561 407.759035 
L 335.913981 418.450549 
L 336.099192 420.864762 
L 336.284402 410.518135 
L 336.469612 411.897686 
L 336.654822 422.244313 
L 337.025242 409.82836 
L 337.210452 412.242573 
L 337.395662 409.138585 
L 337.580872 415.346561 
L 337.766082 417.070999 
L 337.951292 425.693188 
L 338.321713 404.310159 
L 338.506923 404.310159 
L 338.692133 416.726111 
L 338.877343 407.414147 
L 339.062553 422.5892 
L 339.247763 413.967011 
L 339.618183 411.897686 
L 339.803393 404.999934 
L 339.988603 408.103922 
L 340.173814 405.689709 
L 340.359024 400.171508 
L 340.544234 411.20791 
L 340.729444 412.242573 
L 340.914654 401.551059 
L 341.099864 403.620384 
L 341.285074 397.412408 
L 341.470284 406.724372 
L 341.655494 410.173248 
L 341.840704 406.379485 
L 342.025914 407.759035 
L 342.211125 410.518135 
L 342.396335 396.722633 
L 342.581545 403.275496 
L 342.766755 402.585721 
L 342.951965 402.585721 
L 343.137175 404.310159 
L 343.322385 408.44881 
L 343.507595 402.585721 
L 343.692805 400.516396 
L 343.878015 404.655047 
L 344.063225 397.412408 
L 344.248436 395.68797 
L 344.433646 408.793698 
L 344.618856 396.377745 
L 344.804066 400.861284 
L 344.989276 400.171508 
L 345.359696 406.379485 
L 345.730116 392.92887 
L 346.100536 390.514657 
L 346.285746 407.06926 
L 346.470957 395.343082 
L 346.656167 401.551059 
L 346.841377 396.032858 
L 347.026587 399.136846 
L 347.397007 389.479994 
L 347.582217 398.102183 
L 347.767427 383.272018 
L 347.952637 399.481733 
L 348.137847 387.755556 
L 348.323057 390.859544 
L 348.508268 379.823142 
L 348.693478 397.06752 
L 348.878688 388.790219 
L 349.434318 390.859544 
L 349.619528 379.133367 
L 349.804738 388.445331 
L 349.989948 388.100444 
L 350.175158 389.135106 
L 350.360368 382.237355 
L 350.545579 391.549319 
L 350.915999 378.443592 
L 351.101209 389.479994 
L 351.471629 391.894207 
L 351.842049 369.821403 
L 352.027259 387.065781 
L 352.212469 385.341343 
L 352.397679 372.925391 
L 352.58289 372.235616 
L 352.7681 366.02764 
L 352.95331 356.0259 
L 353.13852 381.892467 
L 353.32373 385.686231 
L 353.50894 367.40719 
L 353.69415 385.341343 
L 353.87936 378.788479 
L 354.24978 362.578764 
L 354.620201 374.649829 
L 354.805411 369.476515 
L 354.990621 370.16629 
L 355.361041 378.788479 
L 355.731461 366.02764 
L 355.916671 364.648089 
L 356.101881 356.715675 
L 356.287091 374.994716 
L 356.472301 370.511178 
L 356.657511 374.994716 
L 356.842722 356.0259 
L 357.027932 364.648089 
L 357.213142 359.819663 
L 357.398352 350.507699 
L 357.768772 367.752077 
L 357.953982 357.060563 
L 358.139192 356.715675 
L 358.324402 350.852587 
L 358.509612 352.232137 
L 358.880033 361.544101 
L 359.065243 358.095226 
L 359.250453 357.750338 
L 359.435663 331.883771 
L 359.620873 350.162812 
L 359.991293 360.164551 
L 360.176503 361.199214 
L 360.361713 360.164551 
L 360.546923 360.854326 
L 360.732133 351.197474 
L 360.917344 351.542362 
L 361.102554 351.542362 
L 361.287764 344.644611 
L 361.472974 347.403711 
L 361.658184 340.161072 
L 361.843394 352.232137 
L 362.028604 343.609948 
L 362.213814 346.369048 
L 362.399024 338.781522 
L 362.584234 340.161072 
L 362.769444 350.162812 
L 362.954655 339.12641 
L 363.139865 342.920173 
L 363.325075 332.573546 
L 363.695495 348.093486 
L 363.880705 336.022421 
L 364.251125 333.608208 
L 364.436335 338.436634 
L 364.621545 347.058823 
L 364.806755 322.916694 
L 364.991966 339.12641 
L 365.177176 328.090007 
L 365.362386 330.849108 
L 365.547596 327.400232 
L 365.732806 330.849108 
L 365.918016 327.74512 
L 366.103226 332.228658 
L 366.288436 316.018943 
L 366.473646 321.882031 
L 366.658856 334.987759 
L 366.844066 312.914955 
L 367.029276 321.537144 
L 367.214487 305.327428 
L 367.399697 323.951357 
L 367.584907 314.98428 
L 367.770117 312.914955 
L 367.955327 308.431416 
L 368.140537 322.571806 
L 368.510957 312.225179 
L 368.696167 321.537144 
L 368.881377 307.741641 
L 369.066587 331.883771 
L 369.251798 298.429677 
L 369.437008 322.226919 
L 369.622218 296.360352 
L 369.807428 299.809227 
L 369.992638 307.396754 
L 370.177848 299.119452 
L 370.363058 302.913215 
L 370.548268 301.878553 
L 370.733478 292.911476 
L 370.918688 298.774564 
L 371.103898 313.949617 
L 371.289109 303.947878 
L 371.474319 281.875074 
L 371.659529 308.431416 
L 371.844739 293.256363 
L 372.029949 305.327428 
L 372.215159 282.909737 
L 372.400369 300.154115 
L 372.770789 281.530186 
L 372.955999 298.084789 
L 373.141209 300.84389 
L 373.32642 269.804009 
L 373.69684 293.601251 
L 373.88205 297.395014 
L 374.06726 288.772825 
L 374.43768 264.975583 
L 374.8081 291.531926 
L 374.99331 263.94092 
L 375.17852 289.4626 
L 375.363731 270.493784 
L 375.548941 266.700021 
L 375.734151 265.320471 
L 375.919361 271.183559 
L 376.289781 258.767607 
L 376.474991 277.736423 
L 376.660201 255.318731 
L 376.845411 250.490305 
L 377.030621 261.871595 
L 377.215831 249.80053 
L 377.401042 248.076093 
L 377.586252 260.147157 
L 377.771462 260.836932 
L 377.956672 268.424459 
L 378.141882 251.524968 
L 378.327092 252.559631 
L 378.512302 244.627217 
L 378.697512 266.010246 
L 379.067932 237.384578 
L 379.438352 253.939181 
L 379.623563 242.557891 
L 379.808773 245.316992 
L 380.179193 223.933963 
L 380.364403 225.313513 
L 380.549613 242.557891 
L 380.734823 221.174862 
L 380.920033 228.762389 
L 381.105243 230.141939 
L 381.290453 229.797052 
L 381.475663 219.105537 
L 381.660874 217.381099 
L 381.846084 232.556152 
L 382.031294 194.61852 
L 382.216504 217.036212 
L 382.401714 213.587336 
L 382.586924 216.691324 
L 382.772134 227.037951 
L 382.957344 203.585597 
L 383.142554 214.621999 
L 383.327764 199.446946 
L 383.512974 201.171384 
L 383.698185 214.277111 
L 383.883395 205.99981 
L 384.068605 188.755431 
L 384.253815 206.344697 
L 384.439025 190.134982 
L 384.624235 186.341218 
L 384.809445 201.516271 
L 384.994655 179.09858 
L 385.179865 205.654922 
L 385.735496 188.065656 
L 386.105916 207.034472 
L 386.291126 187.030994 
L 386.476336 193.583857 
L 386.661546 176.684367 
L 387.217176 191.514532 
L 387.402386 186.341218 
L 387.587596 202.895822 
L 387.958017 193.583857 
L 388.143227 198.412283 
L 388.513647 180.133242 
L 388.698857 171.855941 
L 388.884067 173.925266 
L 389.069277 164.268414 
L 389.439697 186.686106 
L 389.810117 168.751953 
L 390.365748 182.202568 
L 390.550958 163.923527 
L 390.736168 184.616781 
L 390.921378 182.547455 
L 391.106588 171.855941 
L 391.291798 180.47813 
L 391.477008 171.511053 
L 391.662218 174.959929 
L 391.847428 171.511053 
L 392.032639 179.09858 
L 392.217849 164.613302 
L 392.403059 167.027515 
L 392.588269 180.823017 
L 392.773479 145.989373 
L 392.958689 163.233752 
L 393.143899 165.992852 
L 393.329109 176.684367 
L 393.514319 163.233752 
L 393.699529 169.786615 
L 393.884739 153.921787 
L 394.06995 159.095101 
L 394.25516 151.162687 
L 394.44037 166.682627 
L 394.62558 155.646225 
L 394.81079 180.47813 
L 394.996 183.582118 
L 395.18121 173.235491 
L 395.36642 183.927006 
L 395.73684 167.372402 
L 396.107261 163.233752 
L 396.292471 164.613302 
L 396.477681 158.405326 
L 396.662891 171.855941 
L 396.848101 174.270154 
L 397.033311 158.405326 
L 397.218521 164.958189 
L 397.403731 158.405326 
L 397.588941 181.85768 
L 397.774151 168.407065 
L 398.144572 160.129764 
L 398.514992 178.063917 
L 398.700202 198.412283 
L 398.885412 174.270154 
L 399.070622 198.757171 
L 399.255832 174.270154 
L 399.626252 188.755431 
L 399.811462 181.85768 
L 399.996672 181.512793 
L 400.181883 182.202568 
L 400.367093 198.067396 
L 400.552303 184.616781 
L 400.737513 211.173123 
L 400.922723 183.927006 
L 401.107933 217.381099 
L 401.293143 208.069135 
L 401.478353 253.939181 
L 401.848773 263.596033 
L 402.033983 270.838672 
L 402.219193 307.051866 
L 402.404404 312.914955 
L 402.589614 311.535404 
L 403.330454 366.717415 
L 403.515664 372.925391 
L 403.700874 390.169769 
L 403.886084 393.618645 
L 404.441715 426.727851 
L 404.626925 428.107401 
L 404.997345 445.006892 
L 405.182555 443.627342 
L 405.367765 452.249531 
L 405.552975 450.180205 
L 405.738185 453.629081 
L 405.923395 461.561495 
L 406.108605 463.285933 
L 406.293815 462.25127 
L 406.479026 468.114359 
L 406.849446 472.253009 
L 407.034656 471.908122 
L 407.405076 476.39166 
L 407.590286 475.356997 
L 407.960706 474.667222 
L 408.331126 467.769471 
L 408.516337 460.526832 
L 408.701547 461.906382 
L 408.886757 460.87172 
L 409.257177 456.388181 
L 409.627597 438.798916 
L 409.812807 439.488691 
L 409.998017 431.901164 
L 410.183227 436.384703 
L 410.368437 415.691449 
L 410.553648 410.863023 
L 410.738858 415.346561 
L 410.924068 387.410669 
L 411.109278 388.445331 
L 411.294488 381.892467 
L 411.479698 356.370788 
L 411.664908 361.544101 
L 412.035328 342.230398 
L 412.220538 321.192256 
L 412.405748 320.502481 
L 412.590958 290.497263 
L 412.776169 281.530186 
L 413.146589 248.765868 
L 413.331799 247.386317 
L 413.517009 211.862898 
L 413.702219 210.483348 
L 413.887429 199.791833 
L 414.072639 181.167905 
L 414.257849 184.961668 
L 414.628269 211.862898 
L 414.81348 199.102058 
L 414.99869 199.446946 
L 415.1839 179.788355 
L 415.36911 183.582118 
L 415.73953 173.235491 
L 415.92474 173.235491 
L 416.10995 190.824757 
L 416.29516 188.410544 
L 416.48037 177.719029 
L 416.66558 176.339479 
L 416.850791 168.407065 
L 417.036001 176.339479 
L 417.221211 158.750213 
L 417.406421 165.992852 
L 417.591631 166.682627 
L 417.776841 180.47813 
L 418.332471 169.09684 
L 418.517681 159.439988 
L 418.702891 166.682627 
L 418.888102 164.613302 
L 419.073312 163.923527 
L 419.258522 162.543977 
L 419.443732 172.890603 
L 419.628942 148.403586 
L 419.814152 172.200828 
L 419.999362 178.408805 
L 420.369782 171.511053 
L 420.554992 154.95645 
L 420.740202 162.199089 
L 420.925413 158.750213 
L 421.110623 152.19735 
L 421.295833 150.128024 
L 421.481043 175.994592 
L 421.666253 168.407065 
L 421.851463 147.024036 
L 422.036673 149.093362 
L 422.221883 167.027515 
L 422.407093 151.507574 
L 422.592303 174.615041 
L 422.777513 133.918309 
L 422.962723 176.684367 
L 423.147934 175.304816 
L 423.333144 165.647965 
L 423.518354 147.713811 
L 423.703564 172.200828 
L 424.259194 165.992852 
L 424.444404 165.303077 
L 424.629614 158.405326 
L 424.814824 163.233752 
L 425.000034 178.063917 
L 425.185245 170.131503 
L 425.370455 189.445207 
L 425.555665 171.511053 
L 425.740875 187.030994 
L 425.926085 166.682627 
L 426.111295 176.684367 
L 426.296505 153.5769 
L 426.481715 198.412283 
L 426.666925 189.790094 
L 426.852135 197.032733 
L 427.037345 178.408805 
L 427.222556 190.479869 
L 427.407766 164.613302 
L 427.592976 172.545716 
L 427.778186 194.963408 
L 427.963396 192.204307 
L 428.148606 197.032733 
L 428.333816 178.753692 
L 428.519026 202.550934 
L 428.704236 204.620259 
L 428.889446 205.310035 
L 429.074656 201.516271 
L 429.445077 175.649704 
L 429.630287 207.034472 
L 429.815497 190.134982 
L 430.000707 213.242449 
L 430.371127 193.928745 
L 430.556337 216.001549 
L 430.741547 186.341218 
L 430.926757 218.415762 
L 431.111967 216.001549 
L 431.297178 207.034472 
L 431.482388 219.795312 
L 431.667598 214.621999 
L 431.852808 219.795312 
L 432.038018 206.344697 
L 432.408438 224.278851 
L 432.593648 228.417501 
L 432.778858 199.446946 
L 432.964068 226.348176 
L 433.149278 211.173123 
L 433.334489 235.66014 
L 433.519699 233.590815 
L 433.704909 229.107276 
L 433.890119 229.452164 
L 434.075329 221.174862 
L 434.260539 231.521489 
L 434.445749 227.727726 
L 434.816169 244.627217 
L 435.001379 258.422719 
L 435.186589 218.76065 
L 435.371799 246.351655 
L 435.74222 234.625477 
L 435.92743 266.355133 
L 436.11264 242.557891 
L 436.29785 252.214743 
L 436.66827 244.627217 
L 436.85348 247.731205 
L 437.03869 269.804009 
L 437.2239 246.006767 
L 437.594321 257.732944 
L 437.779531 255.663619 
L 437.964741 263.596033 
L 438.149951 266.010246 
L 438.335161 264.975583 
L 438.520371 266.010246 
L 438.705581 261.18182 
L 438.890791 273.94266 
L 439.076001 276.356873 
L 439.261211 266.010246 
L 439.446421 281.185299 
L 439.631632 284.979062 
L 439.816842 267.734684 
L 440.002052 279.460861 
L 440.372472 271.183559 
L 440.557682 270.838672 
L 440.742892 280.840411 
L 440.928102 277.736423 
L 441.113312 277.736423 
L 441.298522 274.287547 
L 441.483732 278.081311 
L 441.668943 270.838672 
L 441.854153 293.256363 
L 442.039363 297.739902 
L 442.224573 295.670576 
L 442.409783 302.568328 
L 442.594993 281.185299 
L 442.780203 305.327428 
L 442.965413 309.466079 
L 443.150623 302.568328 
L 443.335833 285.323949 
L 443.521043 286.358612 
L 443.706254 296.705239 
L 443.891464 289.117713 
L 444.076674 297.739902 
L 444.261884 292.221701 
L 444.632304 312.225179 
L 444.817514 311.880292 
L 445.002724 305.327428 
L 445.373144 319.812706 
L 445.558354 311.880292 
L 445.743564 311.880292 
L 446.113985 306.362091 
L 446.299195 309.466079 
L 446.484405 302.913215 
L 446.669615 312.570067 
L 446.854825 312.914955 
L 447.040035 325.330907 
L 447.410455 317.398493 
L 447.595665 327.400232 
L 447.780875 322.916694 
L 447.966086 326.710457 
L 448.151296 312.570067 
L 448.336506 321.882031 
L 448.521716 321.882031 
L 448.706926 336.367309 
L 448.892136 325.330907 
L 449.077346 321.882031 
L 449.262556 334.642871 
L 449.447766 338.781522 
L 449.632976 327.400232 
L 449.818186 330.159333 
L 450.003397 336.022421 
L 450.188607 332.228658 
L 450.373817 344.644611 
L 450.744237 326.710457 
L 450.929447 338.091747 
L 451.114657 331.538883 
L 451.299867 347.058823 
L 451.485077 352.577025 
L 451.670287 351.542362 
L 451.855497 349.128149 
L 452.040708 344.299723 
L 452.225918 336.022421 
L 452.411128 343.954835 
L 452.596338 358.785001 
L 452.781548 352.232137 
L 452.966758 341.195735 
L 453.151968 347.748599 
L 453.337178 341.195735 
L 453.522388 351.197474 
L 453.707598 345.334386 
L 453.892808 345.679273 
L 454.078019 356.0259 
L 454.263229 357.40545 
L 454.448439 351.197474 
L 454.633649 349.817924 
L 454.818859 347.058823 
L 455.004069 351.887249 
L 455.189279 351.887249 
L 455.374489 354.991237 
L 455.559699 349.817924 
L 455.930119 369.821403 
L 456.11533 375.684491 
L 456.30054 369.821403 
L 456.48575 371.200953 
L 456.67096 368.78674 
L 456.85617 353.956575 
L 457.22659 356.0259 
L 457.4118 374.649829 
L 457.59701 360.509438 
L 457.78222 357.750338 
L 457.96743 357.060563 
L 458.15264 350.852587 
L 458.337851 355.336125 
L 458.708271 368.096965 
L 458.893481 364.303202 
L 459.078691 370.511178 
L 459.449111 364.648089 
L 459.819531 378.443592 
L 460.004741 368.096965 
L 460.189951 369.476515 
L 460.375162 378.098704 
L 460.560372 370.16629 
L 460.930792 367.752077 
L 461.116002 384.30668 
L 461.301212 381.54758 
L 461.486422 369.131628 
L 461.671632 379.478255 
L 462.227262 389.135106 
L 462.412473 386.720893 
L 462.597683 376.029379 
L 463.153313 388.445331 
L 463.338523 391.894207 
L 463.523733 380.16803 
L 463.708943 379.133367 
L 463.894153 377.408929 
L 464.264573 391.894207 
L 464.449784 385.686231 
L 464.634994 384.30668 
L 464.820204 389.135106 
L 465.005414 386.720893 
L 465.190624 390.514657 
L 465.375834 387.755556 
L 465.561044 378.443592 
L 465.746254 394.653307 
L 465.931464 387.065781 
L 466.116674 390.514657 
L 466.301884 397.412408 
L 466.487095 388.790219 
L 466.672305 389.479994 
L 466.857515 400.861284 
L 467.042725 396.032858 
L 467.227935 396.032858 
L 467.413145 395.68797 
L 467.598355 388.445331 
L 467.783565 387.410669 
L 467.968775 401.551059 
L 468.153985 403.965272 
L 468.524405 393.273757 
L 468.709616 392.583982 
L 468.894826 393.618645 
L 469.080036 404.655047 
L 469.265246 394.30842 
L 469.450456 396.377745 
L 469.635666 385.686231 
L 469.820876 406.379485 
L 470.006086 397.412408 
L 470.191296 406.034597 
L 470.376506 406.379485 
L 470.561716 410.173248 
L 470.746927 401.551059 
L 470.932137 410.863023 
L 471.117347 406.379485 
L 471.302557 393.963532 
L 471.487767 399.826621 
L 471.672977 390.859544 
L 472.043397 415.346561 
L 472.228607 409.483473 
L 472.413817 411.20791 
L 472.599027 415.001674 
L 472.784238 402.240834 
L 473.154658 417.760774 
L 473.339868 407.414147 
L 473.525078 404.310159 
L 473.710288 418.105662 
L 473.895498 399.826621 
L 474.265918 417.070999 
L 474.451128 406.034597 
L 474.636338 404.655047 
L 474.821549 419.140324 
L 475.006759 417.070999 
L 475.191969 405.689709 
L 475.377179 410.173248 
L 475.562389 420.519875 
L 475.747599 415.346561 
L 475.932809 418.450549 
L 476.118019 417.070999 
L 476.303229 413.277236 
L 476.488439 418.795437 
L 476.85886 412.242573 
L 477.04407 419.140324 
L 477.22928 409.138585 
L 477.41449 423.278975 
L 477.5997 412.242573 
L 477.97012 414.311899 
L 478.15533 419.8301 
L 478.34054 421.20965 
L 478.52575 423.96875 
L 478.71096 418.795437 
L 479.081381 425.693188 
L 479.266591 409.82836 
L 479.451801 413.967011 
L 479.637011 432.246052 
L 479.822221 409.138585 
L 480.192641 432.935827 
L 480.377851 418.105662 
L 480.748271 423.96875 
L 480.933481 408.103922 
L 481.118692 427.072738 
L 481.303902 424.313638 
L 481.489112 411.897686 
L 481.674322 423.278975 
L 481.859532 422.5892 
L 482.044742 417.070999 
L 482.229952 421.899425 
L 482.415162 422.244313 
L 482.600372 415.691449 
L 482.785582 427.417626 
L 482.970792 430.866502 
L 483.156003 426.382963 
L 484.082053 418.450549 
L 484.267263 427.762514 
L 484.452473 427.072738 
L 484.637683 416.381224 
L 485.008103 425.693188 
L 485.193314 425.348301 
L 485.378524 429.142064 
L 485.563734 423.278975 
L 485.748944 426.038076 
L 486.119364 427.762514 
L 486.304574 419.8301 
L 486.489784 419.140324 
L 486.674994 429.486951 
L 486.860204 432.935827 
L 487.045414 428.107401 
L 487.230625 435.005152 
L 487.415835 422.5892 
L 487.601045 427.762514 
L 487.786255 428.107401 
L 487.971465 432.590939 
L 488.156675 431.211389 
L 488.341885 428.452289 
L 488.712305 437.764253 
L 488.897515 430.521614 
L 489.082725 436.384703 
L 489.267936 432.590939 
L 489.453146 432.935827 
L 489.823566 426.727851 
L 490.008776 431.211389 
L 490.193986 430.521614 
L 490.379196 437.764253 
L 490.564406 427.417626 
L 490.749616 429.486951 
L 490.934826 437.074478 
L 491.120036 428.107401 
L 491.305246 437.419365 
L 491.490457 434.660265 
L 491.675667 435.005152 
L 491.860877 433.280715 
L 492.046087 430.176726 
L 492.231297 444.317117 
L 492.416507 436.384703 
L 492.601717 439.143803 
L 492.786927 436.384703 
L 492.972137 431.556277 
L 493.157347 439.833578 
L 493.342557 438.454028 
L 493.527768 431.211389 
L 493.712978 439.143803 
L 493.898188 432.590939 
L 494.083398 438.798916 
L 494.268608 438.454028 
L 494.453818 436.72959 
L 494.639028 438.10914 
L 494.824238 438.454028 
L 495.009448 443.627342 
L 495.194658 443.282454 
L 495.379868 440.523353 
L 495.565079 442.247791 
L 495.935499 432.246052 
L 496.305919 441.558016 
L 496.491129 433.97049 
L 496.676339 437.764253 
L 496.861549 443.972229 
L 497.046759 441.902904 
L 497.231969 445.006892 
L 497.417179 433.625602 
L 497.7876 445.696667 
L 497.97281 438.798916 
L 498.15802 439.833578 
L 498.34323 433.625602 
L 498.52844 444.662004 
L 498.89886 435.005152 
L 499.08407 449.49043 
L 499.26928 440.178466 
L 499.45449 438.10914 
L 499.639701 439.143803 
L 499.824911 441.558016 
L 500.010121 439.143803 
L 500.195331 446.73133 
L 500.380541 447.421105 
L 500.565751 443.972229 
L 500.750961 443.627342 
L 500.936171 439.143803 
L 501.121381 448.11088 
L 501.677011 442.247791 
L 501.862222 445.006892 
L 502.047432 439.143803 
L 502.232642 440.523353 
L 502.417852 450.86998 
L 502.603062 442.247791 
L 502.788272 441.558016 
L 503.158692 450.525093 
L 503.343902 449.49043 
L 503.529112 449.145543 
L 503.714322 447.076217 
L 503.899533 443.282454 
L 504.084743 451.559755 
L 504.455163 450.180205 
L 504.640373 446.041554 
L 504.825583 451.214868 
L 505.010793 441.213129 
L 505.196003 442.937566 
L 505.381213 443.282454 
L 505.566423 444.317117 
L 505.751633 456.388181 
L 505.936844 445.696667 
L 506.122054 448.11088 
L 506.307264 452.939306 
L 506.492474 444.662004 
L 506.677684 446.386442 
L 506.862894 451.559755 
L 507.048104 452.939306 
L 507.233314 452.594418 
L 507.418524 454.663744 
L 507.603734 452.939306 
L 507.788944 449.145543 
L 507.974155 450.180205 
L 508.159365 454.318856 
L 508.344575 454.663744 
L 508.529785 451.559755 
L 508.714995 456.043294 
L 508.900205 447.765992 
L 509.085415 454.318856 
L 509.270625 451.904643 
L 509.455835 446.73133 
L 509.826255 454.318856 
L 510.011466 448.11088 
L 510.196676 452.594418 
L 510.381886 450.86998 
L 510.567096 450.86998 
L 510.752306 458.457507 
L 510.937516 451.214868 
L 511.122726 455.008631 
L 511.307936 447.076217 
L 511.493146 450.525093 
L 511.678356 448.11088 
L 512.048777 452.249531 
L 512.233987 450.525093 
L 512.419197 457.077957 
L 512.604407 448.455767 
L 512.789617 450.86998 
L 512.974827 456.733069 
L 513.160037 449.145543 
L 513.345247 448.800655 
L 513.530457 454.318856 
L 513.715667 447.421105 
L 514.271298 455.008631 
L 514.641718 446.041554 
L 514.826928 448.11088 
L 515.012138 455.698406 
L 515.197348 457.077957 
L 515.382558 456.388181 
L 515.567768 457.077957 
L 515.752978 454.318856 
L 515.938188 444.317117 
L 516.123398 456.388181 
L 516.308609 457.077957 
L 516.493819 458.457507 
L 516.679029 450.180205 
L 516.864239 459.147282 
L 517.049449 450.180205 
L 517.419869 457.077957 
L 517.605079 456.043294 
L 517.790289 456.388181 
L 517.975499 450.86998 
L 518.160709 456.043294 
L 518.34592 455.008631 
L 518.53113 458.112619 
L 518.71634 450.180205 
L 518.90155 460.181945 
L 519.08676 450.86998 
L 519.45718 459.837057 
L 519.64239 459.147282 
L 519.8276 449.835318 
L 520.01281 457.767732 
L 520.19802 453.973968 
L 520.383231 462.596158 
L 520.753651 452.249531 
L 520.938861 460.526832 
L 521.124071 457.077957 
L 521.309281 459.147282 
L 521.494491 458.112619 
L 521.679701 455.008631 
L 521.864911 458.457507 
L 522.050121 458.457507 
L 522.235331 460.87172 
L 522.420542 458.457507 
L 522.605752 460.181945 
L 522.790962 455.008631 
L 522.976172 461.561495 
L 523.161382 457.077957 
L 523.346592 455.353519 
L 523.531802 461.906382 
L 523.717012 458.802394 
L 523.902222 458.802394 
L 524.087432 462.941045 
L 524.272642 456.733069 
L 524.457852 464.320595 
L 524.643063 456.733069 
L 524.828273 457.767732 
L 525.013483 457.767732 
L 525.198693 461.906382 
L 525.383903 455.353519 
L 525.569113 454.663744 
L 525.754323 462.25127 
L 525.939533 458.457507 
L 526.124743 462.941045 
L 526.309953 458.802394 
L 526.495163 462.941045 
L 526.680374 454.318856 
L 527.050794 465.355258 
L 527.236004 449.835318 
L 527.421214 461.216607 
L 527.606424 458.802394 
L 527.791634 460.87172 
L 528.162054 459.147282 
L 528.347264 462.596158 
L 528.532474 459.837057 
L 528.717685 465.700146 
L 528.902895 463.285933 
L 529.088105 459.147282 
L 529.273315 464.320595 
L 529.458525 461.561495 
L 529.643735 464.320595 
L 529.828945 463.63082 
L 530.014155 459.147282 
L 530.384575 457.077957 
L 530.569785 457.767732 
L 530.754996 465.355258 
L 530.940206 465.355258 
L 531.125416 460.87172 
L 531.310626 461.561495 
L 531.681046 458.802394 
L 531.866256 464.320595 
L 532.236676 456.733069 
L 532.421886 462.941045 
L 532.607096 463.285933 
L 532.792307 464.320595 
L 532.977517 463.285933 
L 533.162727 466.389921 
L 533.347937 460.87172 
L 533.533147 462.25127 
L 533.718357 458.112619 
L 534.088777 462.941045 
L 534.273987 460.526832 
L 534.644407 465.700146 
L 534.829617 462.596158 
L 535.014828 466.734808 
L 535.200038 467.079696 
L 535.385248 461.561495 
L 535.570458 469.493909 
L 535.755668 467.079696 
L 535.940878 455.353519 
L 536.126088 466.734808 
L 536.311298 460.181945 
L 536.496508 459.837057 
L 536.681718 465.355258 
L 536.866928 462.25127 
L 537.052139 467.079696 
L 537.237349 467.079696 
L 537.422559 465.01037 
L 537.792979 466.389921 
L 538.163399 463.63082 
L 538.348609 465.700146 
L 538.533819 461.906382 
L 538.719029 465.355258 
L 539.08945 465.355258 
L 539.27466 462.596158 
L 539.45987 463.975708 
L 539.64508 462.941045 
L 539.83029 467.079696 
L 540.0155 458.457507 
L 540.20071 466.045033 
L 540.38592 468.804134 
L 540.57113 460.87172 
L 540.75634 467.424583 
L 540.94155 466.045033 
L 541.126761 463.285933 
L 541.311971 469.149021 
L 541.497181 466.045033 
L 541.682391 468.459246 
L 541.867601 467.424583 
L 542.052811 465.355258 
L 542.238021 465.700146 
L 542.423231 461.216607 
L 542.608441 467.769471 
L 542.793651 465.355258 
L 542.978861 469.149021 
L 543.164072 468.114359 
L 543.349282 464.320595 
L 543.534492 468.459246 
L 543.719702 459.492169 
L 543.904912 468.114359 
L 544.275332 467.424583 
L 544.645752 462.941045 
L 544.830962 465.700146 
L 545.016172 466.045033 
L 545.201383 465.700146 
L 545.386593 463.975708 
L 545.571803 469.149021 
L 545.757013 463.285933 
L 545.942223 462.596158 
L 546.127433 463.975708 
L 546.312643 468.114359 
L 546.497853 465.01037 
L 546.683063 467.769471 
L 546.868273 463.63082 
L 547.053483 471.908122 
L 547.423904 464.665483 
L 547.609114 469.838796 
L 547.794324 463.285933 
L 547.979534 462.25127 
L 548.164744 468.459246 
L 548.349954 463.63082 
L 548.535164 463.63082 
L 548.720374 469.838796 
L 548.905584 468.804134 
L 549.090794 470.183684 
L 549.276004 470.183684 
L 549.461215 465.355258 
L 549.646425 465.355258 
L 549.831635 471.563234 
L 550.016845 463.285933 
L 550.202055 469.493909 
L 550.387265 471.563234 
L 550.572475 469.149021 
L 550.757685 470.183684 
L 550.942895 465.01037 
L 551.313315 469.493909 
L 551.498526 469.838796 
L 551.683736 468.804134 
L 551.868946 470.183684 
L 552.054156 461.906382 
L 552.239366 469.838796 
L 552.424576 470.873459 
L 552.609786 466.734808 
L 552.794996 467.079696 
L 552.980206 466.389921 
L 553.350626 468.804134 
L 553.535837 467.424583 
L 554.091467 469.149021 
L 554.276677 472.253009 
L 554.461887 466.389921 
L 554.647097 465.01037 
L 554.832307 470.183684 
L 555.017517 470.873459 
L 555.202727 468.114359 
L 555.387937 469.838796 
L 555.573148 463.975708 
L 555.758358 466.045033 
L 555.943568 466.734808 
L 556.313988 470.873459 
L 556.499198 468.114359 
L 556.684408 468.459246 
L 557.054828 467.424583 
L 557.240038 470.873459 
L 557.610458 464.320595 
L 557.795669 470.873459 
L 558.166089 473.63256 
L 558.351299 466.045033 
L 558.536509 475.356997 
L 558.721719 468.804134 
L 558.906929 473.287672 
L 559.092139 471.218347 
L 559.462559 472.942784 
L 559.647769 469.493909 
L 560.01819 470.183684 
L 560.2034 473.63256 
L 560.57382 468.459246 
L 560.94424 475.01211 
L 561.12945 465.700146 
L 561.31466 470.873459 
L 561.49987 471.563234 
L 561.68508 470.528572 
L 561.870291 471.218347 
L 562.055501 468.114359 
L 562.240711 467.769471 
L 562.425921 470.873459 
L 562.611131 471.563234 
L 562.796341 470.183684 
L 562.981551 474.322335 
L 563.166761 472.942784 
L 563.351971 467.424583 
L 563.537181 471.908122 
L 563.722391 473.287672 
L 563.907602 471.563234 
L 564.092812 472.597897 
L 564.278022 475.01211 
L 564.463232 473.287672 
L 564.648442 473.63256 
L 564.833652 473.63256 
L 565.018862 472.597897 
L 565.204072 473.63256 
L 565.574492 467.079696 
L 565.759702 469.493909 
L 565.944913 476.046773 
L 566.130123 469.149021 
L 566.315333 473.63256 
L 566.500543 470.873459 
L 566.685753 470.873459 
L 567.056173 472.942784 
L 567.241383 473.977447 
L 567.611803 469.149021 
L 567.982223 477.081435 
L 568.167434 472.597897 
L 568.352644 473.287672 
L 568.537854 469.149021 
L 568.723064 469.493909 
L 569.093484 475.356997 
L 569.278694 471.563234 
L 569.463904 471.908122 
L 569.649114 466.734808 
L 569.834324 473.287672 
L 570.019534 468.804134 
L 570.389955 473.977447 
L 570.575165 470.528572 
L 570.760375 475.701885 
L 570.945585 474.322335 
L 571.130795 476.736548 
L 571.316005 476.736548 
L 571.501215 469.149021 
L 571.871635 477.426323 
L 572.056845 473.287672 
L 572.427266 470.873459 
L 572.612476 471.218347 
L 572.797686 469.493909 
L 572.982896 477.77121 
L 573.168106 471.563234 
L 573.353316 469.493909 
L 573.538526 476.736548 
L 573.723736 473.287672 
L 573.908946 472.942784 
L 574.094156 475.01211 
L 574.279367 471.218347 
L 574.464577 475.356997 
L 574.649787 472.253009 
L 574.834997 474.667222 
L 575.205417 473.977447 
L 575.390627 472.597897 
L 575.575837 475.356997 
L 575.946257 473.287672 
L 576.131467 475.701885 
L 576.316678 471.908122 
L 576.501888 473.287672 
L 576.687098 476.046773 
L 576.872308 474.322335 
L 577.057518 478.116098 
L 577.242728 469.838796 
L 577.427938 476.39166 
L 577.798358 474.667222 
L 577.983568 477.081435 
L 578.168778 475.356997 
L 578.353989 471.218347 
L 578.539199 472.253009 
L 578.724409 470.528572 
L 578.909619 472.597897 
L 579.094829 477.77121 
L 579.280039 475.356997 
L 579.465249 471.218347 
L 579.650459 477.77121 
L 579.835669 472.597897 
L 580.020879 472.597897 
L 580.206089 471.218347 
L 580.391299 475.01211 
L 580.57651 476.046773 
L 580.76172 474.322335 
L 580.94693 477.426323 
L 581.13214 472.253009 
L 581.31735 472.597897 
L 581.50256 476.046773 
L 581.68777 473.977447 
L 581.87298 468.804134 
L 582.05819 474.322335 
L 582.2434 473.63256 
L 582.42861 477.77121 
L 582.613821 476.39166 
L 582.799031 476.736548 
L 583.169451 471.218347 
L 583.539871 476.736548 
L 583.725081 476.39166 
L 583.910291 470.873459 
L 584.280711 477.081435 
L 584.465921 473.977447 
L 584.651132 473.287672 
L 584.836342 477.081435 
L 585.206762 473.977447 
L 585.391972 473.63256 
L 585.577182 474.667222 
L 585.762392 477.081435 
L 585.947602 476.39166 
L 586.132812 476.736548 
L 586.318022 471.218347 
L 586.503232 474.667222 
L 586.688443 472.253009 
L 586.873653 472.942784 
L 587.058863 476.736548 
L 587.244073 475.356997 
L 587.614493 478.460986 
L 587.799703 472.942784 
L 587.984913 472.942784 
L 588.170123 473.977447 
L 588.355333 478.460986 
L 588.540543 475.01211 
L 588.725754 475.701885 
L 588.910964 477.081435 
L 589.096174 475.356997 
L 589.281384 475.356997 
L 589.466594 475.01211 
L 589.651804 475.01211 
L 589.837014 472.253009 
L 590.022224 477.77121 
L 590.207434 475.01211 
L 590.392644 477.081435 
L 590.577854 476.736548 
L 590.763064 478.460986 
L 590.948275 474.667222 
L 591.133485 477.081435 
L 591.318695 476.736548 
L 591.689115 472.597897 
L 592.059535 476.046773 
L 592.244745 472.253009 
L 592.615165 478.116098 
L 592.800375 478.805873 
L 592.985586 478.805873 
L 593.170796 472.597897 
L 593.356006 475.01211 
L 593.541216 474.322335 
L 593.726426 479.495648 
L 593.911636 476.046773 
L 594.096846 480.875198 
L 594.282056 474.322335 
L 594.467266 479.840536 
L 594.652476 476.39166 
L 594.837686 476.39166 
L 595.022897 477.426323 
L 595.208107 476.046773 
L 595.393317 478.460986 
L 595.578527 478.805873 
L 596.134157 470.528572 
L 596.319367 478.116098 
L 596.504577 475.701885 
L 596.874997 479.150761 
L 597.060208 474.667222 
L 597.245418 479.150761 
L 597.430628 480.185423 
L 597.615838 476.046773 
L 597.801048 475.01211 
L 597.986258 476.046773 
L 598.171468 471.908122 
L 598.356678 478.460986 
L 598.727098 475.701885 
L 599.097519 475.01211 
L 599.282729 478.460986 
L 599.467939 477.081435 
L 599.653149 476.736548 
L 599.838359 473.63256 
L 600.023569 477.426323 
L 600.208779 476.736548 
L 600.393989 473.63256 
L 600.579199 477.081435 
L 600.764409 477.426323 
L 600.949619 483.289411 
L 601.13483 475.356997 
L 601.32004 477.77121 
L 601.50525 475.701885 
L 601.69046 478.805873 
L 601.87567 476.736548 
L 602.24609 480.185423 
L 602.4313 477.77121 
L 602.80172 478.805873 
L 602.98693 474.322335 
L 603.357351 476.39166 
L 603.542561 482.944524 
L 603.727771 476.736548 
L 603.912981 480.875198 
L 604.098191 481.909861 
L 604.283401 476.736548 
L 604.468611 476.046773 
L 604.653821 478.116098 
L 604.839031 477.081435 
L 605.024241 479.495648 
L 605.209451 474.322335 
L 605.394662 478.116098 
L 605.579872 478.460986 
L 605.765082 480.530311 
L 605.950292 477.426323 
L 606.135502 477.426323 
L 606.320712 477.081435 
L 606.505922 476.046773 
L 606.876342 479.495648 
L 607.061552 472.942784 
L 607.246762 478.116098 
L 607.431973 476.736548 
L 607.617183 477.081435 
L 607.802393 475.01211 
L 607.987603 477.426323 
L 608.358023 478.805873 
L 608.543233 475.356997 
L 608.728443 475.01211 
L 608.913653 478.116098 
L 609.098863 477.77121 
L 609.284073 481.220086 
L 609.469284 481.909861 
L 609.654494 480.185423 
L 609.839704 480.875198 
L 610.024914 476.736548 
L 610.210124 476.39166 
L 610.395334 479.150761 
L 610.580544 479.150761 
L 610.765754 482.944524 
L 611.136174 476.736548 
L 611.321384 479.495648 
L 611.506595 476.736548 
L 611.877015 478.460986 
L 612.247435 479.495648 
L 612.432645 482.254749 
L 612.617855 475.701885 
L 612.803065 477.081435 
L 612.988275 480.530311 
L 613.173485 481.220086 
L 613.358695 480.875198 
L 613.543905 478.460986 
L 613.914326 477.081435 
L 614.284746 483.634299 
L 614.655166 476.39166 
L 614.840376 479.495648 
L 615.210796 476.736548 
L 615.581216 481.220086 
L 616.136847 478.116098 
L 616.322057 481.909861 
L 616.507267 479.150761 
L 616.692477 479.150761 
L 616.877687 477.081435 
L 617.062897 476.39166 
L 617.248107 478.460986 
L 617.433317 478.805873 
L 617.618527 481.564974 
L 617.988948 478.116098 
L 618.174158 479.495648 
L 618.359368 478.805873 
L 618.544578 480.530311 
L 618.729788 479.840536 
L 618.914998 474.667222 
L 619.100208 479.495648 
L 619.285418 476.046773 
L 619.655838 483.634299 
L 619.841049 479.840536 
L 620.026259 481.220086 
L 620.211469 480.185423 
L 620.396679 480.185423 
L 620.581889 480.875198 
L 620.767099 478.116098 
L 621.137519 479.840536 
L 621.322729 482.254749 
L 621.507939 480.530311 
L 621.693149 477.426323 
L 621.87836 481.909861 
L 622.06357 479.495648 
L 622.24878 480.530311 
L 622.6192 476.39166 
L 622.80441 478.805873 
L 622.98962 478.460986 
L 623.17483 478.805873 
L 623.36004 480.875198 
L 623.54525 481.564974 
L 623.73046 480.185423 
L 623.91567 481.220086 
L 624.100881 480.530311 
L 624.286091 482.254749 
L 624.471301 479.150761 
L 624.656511 478.460986 
L 624.841721 481.220086 
L 625.212141 479.150761 
L 625.397351 481.220086 
L 625.582561 480.185423 
L 625.767771 475.701885 
L 625.952981 481.220086 
L 626.138192 476.046773 
L 626.323402 481.909861 
L 626.693822 480.185423 
L 626.879032 476.736548 
L 627.064242 481.220086 
L 627.249452 480.530311 
L 627.434662 476.046773 
L 627.805082 479.495648 
L 627.990292 478.460986 
L 628.175503 481.220086 
L 628.360713 481.909861 
L 628.545923 477.77121 
L 629.101553 481.909861 
L 629.286763 481.909861 
L 629.471973 479.150761 
L 629.657183 479.840536 
L 629.842393 482.599636 
L 630.027603 481.564974 
L 630.212814 479.495648 
L 630.583234 483.634299 
L 630.768444 477.426323 
L 630.953654 479.495648 
L 631.138864 478.805873 
L 631.324074 479.840536 
L 631.509284 476.046773 
L 631.694494 480.875198 
L 631.879704 477.081435 
L 632.064914 482.254749 
L 632.435335 483.979187 
L 632.805755 479.150761 
L 632.990965 481.564974 
L 633.176175 479.495648 
L 633.361385 481.220086 
L 633.546595 479.150761 
L 633.731805 481.220086 
L 633.917015 480.530311 
L 634.102225 478.460986 
L 634.287436 480.185423 
L 634.472646 478.805873 
L 634.657856 480.875198 
L 634.843066 476.046773 
L 635.028276 482.599636 
L 635.213486 480.875198 
L 635.398696 476.736548 
L 635.769116 481.564974 
L 635.954326 479.840536 
L 636.139536 480.875198 
L 636.324746 482.599636 
L 636.509957 481.564974 
L 636.880377 482.944524 
L 637.065587 480.530311 
L 637.250797 484.668962 
L 637.436007 480.875198 
L 637.621217 480.875198 
L 637.806427 482.254749 
L 637.991637 480.530311 
L 638.176847 480.875198 
L 638.547268 479.495648 
L 638.732478 480.185423 
L 638.917688 478.805873 
L 639.102898 480.875198 
L 639.288108 481.220086 
L 639.473318 483.289411 
L 639.658528 481.564974 
L 639.843738 482.599636 
L 640.028948 482.599636 
L 640.214158 479.495648 
L 640.399368 480.875198 
L 640.584579 485.013849 
L 640.769789 481.909861 
L 640.954999 482.944524 
L 641.140209 482.254749 
L 641.325419 476.39166 
L 641.510629 481.564974 
L 641.695839 481.220086 
L 642.066259 480.185423 
L 642.251469 482.254749 
L 642.436679 480.530311 
L 642.62189 483.289411 
L 643.17752 480.875198 
L 643.54794 483.979187 
L 643.91836 480.185423 
L 644.28878 484.324074 
L 644.47399 478.116098 
L 644.659201 483.289411 
L 644.844411 483.979187 
L 645.029621 481.220086 
L 645.214831 481.564974 
L 645.400041 483.979187 
L 645.585251 480.530311 
L 645.770461 481.564974 
L 645.955671 481.564974 
L 646.140881 479.495648 
L 646.326091 479.150761 
L 646.511301 482.254749 
L 646.696511 483.289411 
L 646.881722 483.634299 
L 647.066932 480.185423 
L 647.437352 483.634299 
L 647.622562 481.220086 
L 647.807772 482.599636 
L 648.178192 478.116098 
L 648.548612 484.324074 
L 648.733822 479.840536 
L 648.919033 480.530311 
L 649.104243 485.358737 
L 649.289453 480.185423 
L 649.659873 480.185423 
L 649.845083 483.979187 
L 650.030293 479.150761 
L 650.215503 479.840536 
L 650.400713 483.289411 
L 650.585923 482.599636 
L 650.771133 479.495648 
L 650.956344 482.944524 
L 651.326764 480.530311 
L 651.511974 483.289411 
L 651.697184 482.254749 
L 651.882394 479.150761 
L 652.067604 482.944524 
L 652.252814 481.220086 
L 652.438024 481.220086 
L 652.623234 480.530311 
L 652.808444 481.909861 
L 652.993655 482.254749 
L 653.364075 479.840536 
L 653.549285 485.358737 
L 653.734495 485.703624 
L 654.104915 481.220086 
L 654.290125 480.875198 
L 654.660545 481.909861 
L 654.845755 475.701885 
L 655.030966 480.875198 
L 655.216176 481.564974 
L 655.401386 480.530311 
L 655.586596 483.979187 
L 655.771806 479.150761 
L 655.957016 481.564974 
L 656.327436 480.875198 
L 656.512646 483.289411 
L 656.697856 483.634299 
L 656.883066 479.150761 
L 657.068277 483.289411 
L 657.253487 481.220086 
L 657.438697 482.254749 
L 657.809117 479.840536 
L 657.994327 485.703624 
L 658.179537 482.254749 
L 658.364747 481.220086 
L 658.549957 485.013849 
L 658.735167 480.530311 
L 659.290798 483.979187 
L 659.476008 481.220086 
L 659.661218 480.530311 
L 659.846428 482.254749 
L 660.031638 479.495648 
L 660.216848 480.530311 
L 660.402058 480.185423 
L 660.587268 481.220086 
L 660.772478 483.979187 
L 660.957688 483.289411 
L 661.142898 481.564974 
L 661.328109 478.460986 
L 661.698529 483.289411 
L 661.883739 481.220086 
L 662.068949 483.979187 
L 662.254159 478.116098 
L 662.439369 481.909861 
L 662.624579 481.220086 
L 662.809789 478.460986 
L 662.994999 482.254749 
L 663.180209 481.220086 
L 663.36542 481.564974 
L 663.55063 478.460986 
L 663.73584 483.634299 
L 664.10626 481.220086 
L 664.29147 481.564974 
L 664.47668 484.324074 
L 664.66189 480.185423 
L 664.8471 482.599636 
L 665.03231 481.909861 
L 665.402731 483.979187 
L 665.587941 483.634299 
L 665.773151 483.634299 
L 665.958361 480.875198 
L 666.143571 482.944524 
L 666.328781 480.875198 
L 666.513991 483.289411 
L 666.699201 483.634299 
L 666.884411 482.599636 
L 667.069621 480.530311 
L 667.254831 480.530311 
L 667.440042 481.909861 
L 667.625252 479.840536 
L 667.810462 482.599636 
L 667.995672 482.254749 
L 668.366092 485.358737 
L 668.736512 481.909861 
L 668.921722 481.564974 
L 669.106932 484.668962 
L 669.292142 482.599636 
L 669.477352 481.909861 
L 669.662563 483.634299 
L 669.847773 481.564974 
L 670.032983 483.979187 
L 670.218193 482.254749 
L 670.403403 485.358737 
L 670.588613 480.530311 
L 670.773823 481.564974 
L 671.144243 485.358737 
L 671.329453 481.564974 
L 671.514663 483.979187 
L 671.699874 481.909861 
L 671.885084 482.254749 
L 672.070294 480.530311 
L 672.255504 481.220086 
L 672.440714 483.634299 
L 672.625924 481.564974 
L 672.811134 481.564974 
L 672.996344 482.599636 
L 673.181554 481.220086 
L 673.366764 482.254749 
L 673.551974 480.875198 
L 673.737185 481.564974 
L 673.922395 485.358737 
L 674.107605 481.220086 
L 674.292815 481.909861 
L 674.478025 484.324074 
L 674.663235 481.220086 
L 674.848445 480.185423 
L 675.033655 483.634299 
L 675.218865 484.324074 
L 675.404075 481.564974 
L 675.589285 483.289411 
L 675.774496 483.289411 
L 675.959706 486.048512 
L 676.330126 478.805873 
L 676.515336 482.254749 
L 676.700546 482.254749 
L 676.885756 480.185423 
L 677.070966 485.358737 
L 677.256176 483.979187 
L 677.441386 484.324074 
L 677.626596 483.289411 
L 677.811807 480.875198 
L 678.182227 482.944524 
L 678.367437 483.979187 
L 678.552647 481.909861 
L 678.737857 482.254749 
L 678.923067 483.289411 
L 679.108277 485.358737 
L 679.293487 485.358737 
L 679.478697 482.599636 
L 679.663907 481.909861 
L 679.849117 483.979187 
L 680.034328 481.909861 
L 680.219538 484.324074 
L 680.404748 483.289411 
L 680.589958 482.944524 
L 680.775168 480.875198 
L 681.145588 486.738287 
L 681.330798 482.599636 
L 681.516008 484.324074 
L 681.701218 480.875198 
L 681.886428 482.944524 
L 682.071639 483.289411 
L 682.256849 483.979187 
L 682.442059 480.185423 
L 682.997689 484.324074 
L 683.182899 482.599636 
L 683.368109 485.358737 
L 683.553319 485.358737 
L 683.738529 482.599636 
L 683.923739 481.909861 
L 684.10895 479.150761 
L 684.29416 483.634299 
L 684.47937 482.944524 
L 684.66458 484.324074 
L 684.84979 482.254749 
L 685.035 481.909861 
L 685.035 481.909861 
" clip-path="url(#pb366d14de4)" style="fill: none; stroke: #0000ff; stroke-width: 1.5; stroke-linecap: square"/>
   </g>
   <g id="patch_3">
    <path d="M 129.775152 489.1525 
L 129.775152 36.72 
" style="fill: none; stroke: #000000; stroke-width: 0.8; stroke-linejoin: miter; stroke-linecap: square"/>
   </g>
   <g id="patch_4">
    <path d="M 685.035 489.1525 
L 685.035 36.72 
" style="fill: none; stroke: #000000; stroke-width: 0.8; stroke-linejoin: miter; stroke-linecap: square"/>
   </g>
   <g id="patch_5">
    <path d="M 129.775152 489.1525 
L 685.035 489.1525 
" style="fill: none; stroke: #000000; stroke-width: 0.8; stroke-linejoin: miter; stroke-linecap: square"/>
   </g>
   <g id="patch_6">
    <path d="M 129.775152 36.72 
L 685.035 36.72 
" style="fill: none; stroke: #000000; stroke-width: 0.8; stroke-linejoin: miter; stroke-linecap: square"/>
   </g>
   <g id="legend_1">
    <g id="patch_7">
     <path d="M 492.425 100.294688 
L 676.535 100.294688 
L 676.535 45.22 
L 492.425 45.22 
z
" style="fill: #ffffff; opacity: 0.8; stroke: #000000; stroke-linejoin: miter"/>
    </g>
    <g id="line2d_31">
     <path d="M 499.225 58.987344 
L 516.225 58.987344 
L 533.225 58.987344 
" style="fill: none; stroke-dasharray: 14.8,6.4; stroke-dashoffset: 0; stroke: #ff0000; stroke-width: 4"/>
    </g>
    <g id="text_17">
     <!-- $\rho_0$ -->
     <g transform="translate(546.825 64.937344) scale(0.17 -0.17)">
      <use xlink:href="#DejaVuSans-Oblique-3c1"/>
      <use xlink:href="#DejaVuSans-30" transform="translate(63.476562 -16.40625) scale(0.7)"/>
     </g>
    </g>
    <g id="line2d_32">
     <path d="M 499.225 83.974688 
L 516.225 83.974688 
L 533.225 83.974688 
" style="fill: none; stroke: #0000ff; stroke-width: 1.5; stroke-linecap: square"/>
    </g>
    <g id="text_18">
     <!-- $\rho_0,\it{U=3,n=3}$ -->
     <g transform="translate(546.825 89.924688) scale(0.17 -0.17)">
      <defs>
       <path id="DejaVuSans-2c" d="M 750 794 
L 1409 794 
L 1409 256 
L 897 -744 
L 494 -744 
L 750 256 
L 750 794 
z
" transform="scale(0.015625)"/>
       <path id="DejaVuSans-Oblique-55" d="M 991 4666 
L 1625 4666 
L 1075 1831 
Q 1041 1641 1027 1517 
Q 1013 1394 1013 1300 
Q 1013 869 1253 645 
Q 1494 422 1959 422 
Q 2563 422 2898 753 
Q 3234 1084 3378 1831 
L 3928 4666 
L 4563 4666 
L 4000 1753 
Q 3816 809 3300 359 
Q 2784 -91 1888 -91 
Q 1188 -91 780 261 
Q 372 613 372 1216 
Q 372 1325 387 1461 
Q 403 1597 434 1753 
L 991 4666 
z
" transform="scale(0.015625)"/>
       <path id="DejaVuSans-3d" d="M 678 2906 
L 4684 2906 
L 4684 2381 
L 678 2381 
L 678 2906 
z
M 678 1631 
L 4684 1631 
L 4684 1100 
L 678 1100 
L 678 1631 
z
" transform="scale(0.015625)"/>
       <path id="DejaVuSans-Oblique-6e" d="M 3566 2113 
L 3156 0 
L 2578 0 
L 2988 2091 
Q 3016 2238 3031 2350 
Q 3047 2463 3047 2528 
Q 3047 2791 2881 2937 
Q 2716 3084 2419 3084 
Q 1956 3084 1622 2776 
Q 1288 2469 1184 1941 
L 800 0 
L 225 0 
L 903 3500 
L 1478 3500 
L 1363 2950 
Q 1603 3253 1940 3418 
Q 2278 3584 2650 3584 
Q 3113 3584 3367 3334 
Q 3622 3084 3622 2631 
Q 3622 2519 3608 2391 
Q 3594 2263 3566 2113 
z
" transform="scale(0.015625)"/>
      </defs>
      <use xlink:href="#DejaVuSans-Oblique-3c1" transform="translate(0 0.78125)"/>
      <use xlink:href="#DejaVuSans-30" transform="translate(63.476562 -15.625) scale(0.7)"/>
      <use xlink:href="#DejaVuSans-2c" transform="translate(110.74707 0.78125)"/>
      <use xlink:href="#DejaVuSans-Oblique-55" transform="translate(162.016602 0.78125)"/>
      <use xlink:href="#DejaVuSans-3d" transform="translate(254.692383 0.78125)"/>
      <use xlink:href="#DejaVuSans-33" transform="translate(357.963867 0.78125)"/>
      <use xlink:href="#DejaVuSans-2c" transform="translate(421.586914 0.78125)"/>
      <use xlink:href="#DejaVuSans-Oblique-6e" transform="translate(472.856445 0.78125)"/>
      <use xlink:href="#DejaVuSans-3d" transform="translate(555.717773 0.78125)"/>
      <use xlink:href="#DejaVuSans-33" transform="translate(658.989258 0.78125)"/>
     </g>
    </g>
   </g>
  </g>
 </g>
 <defs>
  <clipPath id="pb366d14de4">
   <rect x="129.775152" y="36.72" width="555.259848" height="452.4325"/>
  </clipPath>
 </defs>
</svg>
