<?xml version="1.0" encoding="utf-8" standalone="no"?>
<!DOCTYPE svg PUBLIC "-//W3C//DTD SVG 1.1//EN"
  "http://www.w3.org/Graphics/SVG/1.1/DTD/svg11.dtd">
<svg xmlns:xlink="http://www.w3.org/1999/xlink" width="720pt" height="576pt" viewBox="0 0 720 576" xmlns="http://www.w3.org/2000/svg" version="1.1">
 <metadata>
  <rdf:RDF xmlns:dc="http://purl.org/dc/elements/1.1/" xmlns:cc="http://creativecommons.org/ns#" xmlns:rdf="http://www.w3.org/1999/02/22-rdf-syntax-ns#">
   <cc:Work>
    <dc:type rdf:resource="http://purl.org/dc/dcmitype/StillImage"/>
    <dc:date>2023-04-09T03:44:38.908624</dc:date>
    <dc:format>image/svg+xml</dc:format>
    <dc:creator>
     <cc:Agent>
      <dc:title>Matplotlib v3.7.1, https://matplotlib.org/</dc:title>
     </cc:Agent>
    </dc:creator>
   </cc:Work>
  </rdf:RDF>
 </metadata>
 <defs>
  <style type="text/css">*{stroke-linejoin: round; stroke-linecap: butt}</style>
 </defs>
 <g id="figure_1">
  <g id="patch_1">
   <path d="M 0 576 
L 720 576 
L 720 0 
L 0 0 
z
" style="fill: #ffffff"/>
  </g>
  <g id="axes_1">
   <g id="patch_2">
    <path d="M 129.775152 489.1525 
L 685.035 489.1525 
L 685.035 36.72 
L 129.775152 36.72 
z
" style="fill: #ffffff"/>
   </g>
   <g id="matplotlib.axis_1">
    <g id="xtick_1">
     <g id="line2d_1">
      <path d="M 129.775152 489.1525 
L 129.775152 36.72 
" clip-path="url(#p6a5acf71f7)" style="fill: none; stroke: #b0b0b0; stroke-width: 0.8; stroke-linecap: square"/>
     </g>
     <g id="line2d_2">
      <defs>
       <path id="m08a44ac35d" d="M 0 0 
L 0 3.5 
" style="stroke: #000000; stroke-width: 0.8"/>
      </defs>
      <g>
       <use xlink:href="#m08a44ac35d" x="129.775152" y="489.1525" style="stroke: #000000; stroke-width: 0.8"/>
      </g>
     </g>
     <g id="text_1">
      <!-- −3 -->
      <g transform="translate(111.347418 515.148594) scale(0.25 -0.25)">
       <defs>
        <path id="DejaVuSans-2212" d="M 678 2272 
L 4684 2272 
L 4684 1741 
L 678 1741 
L 678 2272 
z
" transform="scale(0.015625)"/>
        <path id="DejaVuSans-33" d="M 2597 2516 
Q 3050 2419 3304 2112 
Q 3559 1806 3559 1356 
Q 3559 666 3084 287 
Q 2609 -91 1734 -91 
Q 1441 -91 1130 -33 
Q 819 25 488 141 
L 488 750 
Q 750 597 1062 519 
Q 1375 441 1716 441 
Q 2309 441 2620 675 
Q 2931 909 2931 1356 
Q 2931 1769 2642 2001 
Q 2353 2234 1838 2234 
L 1294 2234 
L 1294 2753 
L 1863 2753 
Q 2328 2753 2575 2939 
Q 2822 3125 2822 3475 
Q 2822 3834 2567 4026 
Q 2313 4219 1838 4219 
Q 1578 4219 1281 4162 
Q 984 4106 628 3988 
L 628 4550 
Q 988 4650 1302 4700 
Q 1616 4750 1894 4750 
Q 2613 4750 3031 4423 
Q 3450 4097 3450 3541 
Q 3450 3153 3228 2886 
Q 3006 2619 2597 2516 
z
" transform="scale(0.015625)"/>
       </defs>
       <use xlink:href="#DejaVuSans-2212"/>
       <use xlink:href="#DejaVuSans-33" x="83.789062"/>
      </g>
     </g>
    </g>
    <g id="xtick_2">
     <g id="line2d_3">
      <path d="M 222.31846 489.1525 
L 222.31846 36.72 
" clip-path="url(#p6a5acf71f7)" style="fill: none; stroke: #b0b0b0; stroke-width: 0.8; stroke-linecap: square"/>
     </g>
     <g id="line2d_4">
      <g>
       <use xlink:href="#m08a44ac35d" x="222.31846" y="489.1525" style="stroke: #000000; stroke-width: 0.8"/>
      </g>
     </g>
     <g id="text_2">
      <!-- −2 -->
      <g transform="translate(203.890726 515.148594) scale(0.25 -0.25)">
       <defs>
        <path id="DejaVuSans-32" d="M 1228 531 
L 3431 531 
L 3431 0 
L 469 0 
L 469 531 
Q 828 903 1448 1529 
Q 2069 2156 2228 2338 
Q 2531 2678 2651 2914 
Q 2772 3150 2772 3378 
Q 2772 3750 2511 3984 
Q 2250 4219 1831 4219 
Q 1534 4219 1204 4116 
Q 875 4013 500 3803 
L 500 4441 
Q 881 4594 1212 4672 
Q 1544 4750 1819 4750 
Q 2544 4750 2975 4387 
Q 3406 4025 3406 3419 
Q 3406 3131 3298 2873 
Q 3191 2616 2906 2266 
Q 2828 2175 2409 1742 
Q 1991 1309 1228 531 
z
" transform="scale(0.015625)"/>
       </defs>
       <use xlink:href="#DejaVuSans-2212"/>
       <use xlink:href="#DejaVuSans-32" x="83.789062"/>
      </g>
     </g>
    </g>
    <g id="xtick_3">
     <g id="line2d_5">
      <path d="M 314.861768 489.1525 
L 314.861768 36.72 
" clip-path="url(#p6a5acf71f7)" style="fill: none; stroke: #b0b0b0; stroke-width: 0.8; stroke-linecap: square"/>
     </g>
     <g id="line2d_6">
      <g>
       <use xlink:href="#m08a44ac35d" x="314.861768" y="489.1525" style="stroke: #000000; stroke-width: 0.8"/>
      </g>
     </g>
     <g id="text_3">
      <!-- −1 -->
      <g transform="translate(296.434034 515.148594) scale(0.25 -0.25)">
       <defs>
        <path id="DejaVuSans-31" d="M 794 531 
L 1825 531 
L 1825 4091 
L 703 3866 
L 703 4441 
L 1819 4666 
L 2450 4666 
L 2450 531 
L 3481 531 
L 3481 0 
L 794 0 
L 794 531 
z
" transform="scale(0.015625)"/>
       </defs>
       <use xlink:href="#DejaVuSans-2212"/>
       <use xlink:href="#DejaVuSans-31" x="83.789062"/>
      </g>
     </g>
    </g>
    <g id="xtick_4">
     <g id="line2d_7">
      <path d="M 407.405076 489.1525 
L 407.405076 36.72 
" clip-path="url(#p6a5acf71f7)" style="fill: none; stroke: #b0b0b0; stroke-width: 0.8; stroke-linecap: square"/>
     </g>
     <g id="line2d_8">
      <g>
       <use xlink:href="#m08a44ac35d" x="407.405076" y="489.1525" style="stroke: #000000; stroke-width: 0.8"/>
      </g>
     </g>
     <g id="text_4">
      <!-- 0 -->
      <g transform="translate(399.451951 515.148594) scale(0.25 -0.25)">
       <defs>
        <path id="DejaVuSans-30" d="M 2034 4250 
Q 1547 4250 1301 3770 
Q 1056 3291 1056 2328 
Q 1056 1369 1301 889 
Q 1547 409 2034 409 
Q 2525 409 2770 889 
Q 3016 1369 3016 2328 
Q 3016 3291 2770 3770 
Q 2525 4250 2034 4250 
z
M 2034 4750 
Q 2819 4750 3233 4129 
Q 3647 3509 3647 2328 
Q 3647 1150 3233 529 
Q 2819 -91 2034 -91 
Q 1250 -91 836 529 
Q 422 1150 422 2328 
Q 422 3509 836 4129 
Q 1250 4750 2034 4750 
z
" transform="scale(0.015625)"/>
       </defs>
       <use xlink:href="#DejaVuSans-30"/>
      </g>
     </g>
    </g>
    <g id="xtick_5">
     <g id="line2d_9">
      <path d="M 499.948384 489.1525 
L 499.948384 36.72 
" clip-path="url(#p6a5acf71f7)" style="fill: none; stroke: #b0b0b0; stroke-width: 0.8; stroke-linecap: square"/>
     </g>
     <g id="line2d_10">
      <g>
       <use xlink:href="#m08a44ac35d" x="499.948384" y="489.1525" style="stroke: #000000; stroke-width: 0.8"/>
      </g>
     </g>
     <g id="text_5">
      <!-- 1 -->
      <g transform="translate(491.995259 515.148594) scale(0.25 -0.25)">
       <use xlink:href="#DejaVuSans-31"/>
      </g>
     </g>
    </g>
    <g id="xtick_6">
     <g id="line2d_11">
      <path d="M 592.491692 489.1525 
L 592.491692 36.72 
" clip-path="url(#p6a5acf71f7)" style="fill: none; stroke: #b0b0b0; stroke-width: 0.8; stroke-linecap: square"/>
     </g>
     <g id="line2d_12">
      <g>
       <use xlink:href="#m08a44ac35d" x="592.491692" y="489.1525" style="stroke: #000000; stroke-width: 0.8"/>
      </g>
     </g>
     <g id="text_6">
      <!-- 2 -->
      <g transform="translate(584.538567 515.148594) scale(0.25 -0.25)">
       <use xlink:href="#DejaVuSans-32"/>
      </g>
     </g>
    </g>
    <g id="xtick_7">
     <g id="line2d_13">
      <path d="M 685.035 489.1525 
L 685.035 36.72 
" clip-path="url(#p6a5acf71f7)" style="fill: none; stroke: #b0b0b0; stroke-width: 0.8; stroke-linecap: square"/>
     </g>
     <g id="line2d_14">
      <g>
       <use xlink:href="#m08a44ac35d" x="685.035" y="489.1525" style="stroke: #000000; stroke-width: 0.8"/>
      </g>
     </g>
     <g id="text_7">
      <!-- 3 -->
      <g transform="translate(677.081875 515.148594) scale(0.25 -0.25)">
       <use xlink:href="#DejaVuSans-33"/>
      </g>
     </g>
    </g>
    <g id="text_8">
     <!-- $\omega$ [-] -->
     <g transform="translate(382.530076 541.351719) scale(0.25 -0.25)">
      <defs>
       <path id="DejaVuSans-Oblique-3c9" d="M 1369 -91 
Q 72 -91 434 1766 
Q 575 2500 1256 3500 
L 1875 3500 
Q 1231 2500 1088 1750 
Q 819 397 1519 397 
Q 2166 397 2478 2078 
L 3009 2078 
Q 2669 388 3316 397 
Q 4013 403 4275 1750 
Q 4419 2500 4169 3500 
L 4788 3500 
Q 5075 2500 4934 1766 
Q 4578 -94 3278 -91 
Q 2428 -88 2503 844 
Q 2194 -91 1369 -91 
z
" transform="scale(0.015625)"/>
       <path id="Calibri-20" transform="scale(0.015625)"/>
       <path id="Calibri-5b" d="M 1684 -813 
Q 1684 -916 1661 -958 
Q 1638 -1000 1594 -1000 
L 794 -1000 
Q 756 -1000 722 -989 
Q 688 -978 659 -953 
Q 631 -928 614 -886 
Q 597 -844 597 -781 
L 597 4153 
Q 597 4213 614 4255 
Q 631 4297 659 4323 
Q 688 4350 722 4361 
Q 756 4372 794 4372 
L 1594 4372 
Q 1613 4372 1630 4362 
Q 1647 4353 1659 4328 
Q 1672 4303 1678 4267 
Q 1684 4231 1684 4178 
Q 1684 4078 1661 4034 
Q 1638 3991 1594 3991 
L 1084 3991 
L 1084 -622 
L 1594 -622 
Q 1613 -622 1630 -631 
Q 1647 -641 1659 -664 
Q 1672 -688 1678 -723 
Q 1684 -759 1684 -813 
z
" transform="scale(0.015625)"/>
       <path id="Calibri-2d" d="M 1744 1578 
Q 1744 1456 1716 1409 
Q 1688 1363 1634 1363 
L 328 1363 
Q 272 1363 244 1411 
Q 216 1459 216 1578 
Q 216 1697 244 1744 
Q 272 1791 328 1791 
L 1634 1791 
Q 1659 1791 1679 1781 
Q 1700 1772 1714 1745 
Q 1728 1719 1736 1678 
Q 1744 1638 1744 1578 
z
" transform="scale(0.015625)"/>
       <path id="Calibri-5d" d="M 1369 -781 
Q 1369 -844 1351 -886 
Q 1334 -928 1306 -953 
Q 1278 -978 1242 -989 
Q 1206 -1000 1169 -1000 
L 372 -1000 
Q 328 -1000 304 -958 
Q 281 -916 281 -813 
Q 281 -759 286 -723 
Q 291 -688 303 -664 
Q 316 -641 333 -631 
Q 350 -622 372 -622 
L 881 -622 
L 881 3991 
L 372 3991 
Q 328 3991 304 4034 
Q 281 4078 281 4178 
Q 281 4231 286 4267 
Q 291 4303 303 4328 
Q 316 4353 333 4362 
Q 350 4372 372 4372 
L 1169 4372 
Q 1206 4372 1242 4361 
Q 1278 4350 1306 4323 
Q 1334 4297 1351 4255 
Q 1369 4213 1369 4153 
L 1369 -781 
z
" transform="scale(0.015625)"/>
      </defs>
      <use xlink:href="#DejaVuSans-Oblique-3c9" transform="translate(0 0.6875)"/>
      <use xlink:href="#Calibri-20" transform="translate(83.740234 0.6875)"/>
      <use xlink:href="#Calibri-5b" transform="translate(106.347656 0.6875)"/>
      <use xlink:href="#Calibri-2d" transform="translate(137.011719 0.6875)"/>
      <use xlink:href="#Calibri-5d" transform="translate(167.626953 0.6875)"/>
     </g>
    </g>
   </g>
   <g id="matplotlib.axis_2">
    <g id="ytick_1">
     <g id="line2d_15">
      <path d="M 129.775152 489.1525 
L 685.035 489.1525 
" clip-path="url(#p6a5acf71f7)" style="fill: none; stroke: #b0b0b0; stroke-width: 0.8; stroke-linecap: square"/>
     </g>
     <g id="line2d_16">
      <defs>
       <path id="md98b057e98" d="M 0 0 
L -3.5 0 
" style="stroke: #000000; stroke-width: 0.8"/>
      </defs>
      <g>
       <use xlink:href="#md98b057e98" x="129.775152" y="489.1525" style="stroke: #000000; stroke-width: 0.8"/>
      </g>
     </g>
     <g id="text_9">
      <!-- 0.0 -->
      <g transform="translate(83.017339 498.650547) scale(0.25 -0.25)">
       <defs>
        <path id="DejaVuSans-2e" d="M 684 794 
L 1344 794 
L 1344 0 
L 684 0 
L 684 794 
z
" transform="scale(0.015625)"/>
       </defs>
       <use xlink:href="#DejaVuSans-30"/>
       <use xlink:href="#DejaVuSans-2e" x="63.623047"/>
       <use xlink:href="#DejaVuSans-30" x="95.410156"/>
      </g>
     </g>
    </g>
    <g id="ytick_2">
     <g id="line2d_17">
      <path d="M 129.775152 413.747083 
L 685.035 413.747083 
" clip-path="url(#p6a5acf71f7)" style="fill: none; stroke: #b0b0b0; stroke-width: 0.8; stroke-linecap: square"/>
     </g>
     <g id="line2d_18">
      <g>
       <use xlink:href="#md98b057e98" x="129.775152" y="413.747083" style="stroke: #000000; stroke-width: 0.8"/>
      </g>
     </g>
     <g id="text_10">
      <!-- 0.2 -->
      <g transform="translate(83.017339 423.24513) scale(0.25 -0.25)">
       <use xlink:href="#DejaVuSans-30"/>
       <use xlink:href="#DejaVuSans-2e" x="63.623047"/>
       <use xlink:href="#DejaVuSans-32" x="95.410156"/>
      </g>
     </g>
    </g>
    <g id="ytick_3">
     <g id="line2d_19">
      <path d="M 129.775152 338.341667 
L 685.035 338.341667 
" clip-path="url(#p6a5acf71f7)" style="fill: none; stroke: #b0b0b0; stroke-width: 0.8; stroke-linecap: square"/>
     </g>
     <g id="line2d_20">
      <g>
       <use xlink:href="#md98b057e98" x="129.775152" y="338.341667" style="stroke: #000000; stroke-width: 0.8"/>
      </g>
     </g>
     <g id="text_11">
      <!-- 0.4 -->
      <g transform="translate(83.017339 347.839714) scale(0.25 -0.25)">
       <defs>
        <path id="DejaVuSans-34" d="M 2419 4116 
L 825 1625 
L 2419 1625 
L 2419 4116 
z
M 2253 4666 
L 3047 4666 
L 3047 1625 
L 3713 1625 
L 3713 1100 
L 3047 1100 
L 3047 0 
L 2419 0 
L 2419 1100 
L 313 1100 
L 313 1709 
L 2253 4666 
z
" transform="scale(0.015625)"/>
       </defs>
       <use xlink:href="#DejaVuSans-30"/>
       <use xlink:href="#DejaVuSans-2e" x="63.623047"/>
       <use xlink:href="#DejaVuSans-34" x="95.410156"/>
      </g>
     </g>
    </g>
    <g id="ytick_4">
     <g id="line2d_21">
      <path d="M 129.775152 262.93625 
L 685.035 262.93625 
" clip-path="url(#p6a5acf71f7)" style="fill: none; stroke: #b0b0b0; stroke-width: 0.8; stroke-linecap: square"/>
     </g>
     <g id="line2d_22">
      <g>
       <use xlink:href="#md98b057e98" x="129.775152" y="262.93625" style="stroke: #000000; stroke-width: 0.8"/>
      </g>
     </g>
     <g id="text_12">
      <!-- 0.6 -->
      <g transform="translate(83.017339 272.434297) scale(0.25 -0.25)">
       <defs>
        <path id="DejaVuSans-36" d="M 2113 2584 
Q 1688 2584 1439 2293 
Q 1191 2003 1191 1497 
Q 1191 994 1439 701 
Q 1688 409 2113 409 
Q 2538 409 2786 701 
Q 3034 994 3034 1497 
Q 3034 2003 2786 2293 
Q 2538 2584 2113 2584 
z
M 3366 4563 
L 3366 3988 
Q 3128 4100 2886 4159 
Q 2644 4219 2406 4219 
Q 1781 4219 1451 3797 
Q 1122 3375 1075 2522 
Q 1259 2794 1537 2939 
Q 1816 3084 2150 3084 
Q 2853 3084 3261 2657 
Q 3669 2231 3669 1497 
Q 3669 778 3244 343 
Q 2819 -91 2113 -91 
Q 1303 -91 875 529 
Q 447 1150 447 2328 
Q 447 3434 972 4092 
Q 1497 4750 2381 4750 
Q 2619 4750 2861 4703 
Q 3103 4656 3366 4563 
z
" transform="scale(0.015625)"/>
       </defs>
       <use xlink:href="#DejaVuSans-30"/>
       <use xlink:href="#DejaVuSans-2e" x="63.623047"/>
       <use xlink:href="#DejaVuSans-36" x="95.410156"/>
      </g>
     </g>
    </g>
    <g id="ytick_5">
     <g id="line2d_23">
      <path d="M 129.775152 187.530833 
L 685.035 187.530833 
" clip-path="url(#p6a5acf71f7)" style="fill: none; stroke: #b0b0b0; stroke-width: 0.8; stroke-linecap: square"/>
     </g>
     <g id="line2d_24">
      <g>
       <use xlink:href="#md98b057e98" x="129.775152" y="187.530833" style="stroke: #000000; stroke-width: 0.8"/>
      </g>
     </g>
     <g id="text_13">
      <!-- 0.8 -->
      <g transform="translate(83.017339 197.02888) scale(0.25 -0.25)">
       <defs>
        <path id="DejaVuSans-38" d="M 2034 2216 
Q 1584 2216 1326 1975 
Q 1069 1734 1069 1313 
Q 1069 891 1326 650 
Q 1584 409 2034 409 
Q 2484 409 2743 651 
Q 3003 894 3003 1313 
Q 3003 1734 2745 1975 
Q 2488 2216 2034 2216 
z
M 1403 2484 
Q 997 2584 770 2862 
Q 544 3141 544 3541 
Q 544 4100 942 4425 
Q 1341 4750 2034 4750 
Q 2731 4750 3128 4425 
Q 3525 4100 3525 3541 
Q 3525 3141 3298 2862 
Q 3072 2584 2669 2484 
Q 3125 2378 3379 2068 
Q 3634 1759 3634 1313 
Q 3634 634 3220 271 
Q 2806 -91 2034 -91 
Q 1263 -91 848 271 
Q 434 634 434 1313 
Q 434 1759 690 2068 
Q 947 2378 1403 2484 
z
M 1172 3481 
Q 1172 3119 1398 2916 
Q 1625 2713 2034 2713 
Q 2441 2713 2670 2916 
Q 2900 3119 2900 3481 
Q 2900 3844 2670 4047 
Q 2441 4250 2034 4250 
Q 1625 4250 1398 4047 
Q 1172 3844 1172 3481 
z
" transform="scale(0.015625)"/>
       </defs>
       <use xlink:href="#DejaVuSans-30"/>
       <use xlink:href="#DejaVuSans-2e" x="63.623047"/>
       <use xlink:href="#DejaVuSans-38" x="95.410156"/>
      </g>
     </g>
    </g>
    <g id="ytick_6">
     <g id="line2d_25">
      <path d="M 129.775152 112.125417 
L 685.035 112.125417 
" clip-path="url(#p6a5acf71f7)" style="fill: none; stroke: #b0b0b0; stroke-width: 0.8; stroke-linecap: square"/>
     </g>
     <g id="line2d_26">
      <g>
       <use xlink:href="#md98b057e98" x="129.775152" y="112.125417" style="stroke: #000000; stroke-width: 0.8"/>
      </g>
     </g>
     <g id="text_14">
      <!-- 1.0 -->
      <g transform="translate(83.017339 121.623464) scale(0.25 -0.25)">
       <use xlink:href="#DejaVuSans-31"/>
       <use xlink:href="#DejaVuSans-2e" x="63.623047"/>
       <use xlink:href="#DejaVuSans-30" x="95.410156"/>
      </g>
     </g>
    </g>
    <g id="ytick_7">
     <g id="line2d_27">
      <path d="M 129.775152 36.72 
L 685.035 36.72 
" clip-path="url(#p6a5acf71f7)" style="fill: none; stroke: #b0b0b0; stroke-width: 0.8; stroke-linecap: square"/>
     </g>
     <g id="line2d_28">
      <g>
       <use xlink:href="#md98b057e98" x="129.775152" y="36.72" style="stroke: #000000; stroke-width: 0.8"/>
      </g>
     </g>
     <g id="text_15">
      <!-- 1.2 -->
      <g transform="translate(83.017339 46.218047) scale(0.25 -0.25)">
       <use xlink:href="#DejaVuSans-31"/>
       <use xlink:href="#DejaVuSans-2e" x="63.623047"/>
       <use xlink:href="#DejaVuSans-32" x="95.410156"/>
      </g>
     </g>
    </g>
    <g id="text_16">
     <!-- $\rho$($\omega$) -->
     <g transform="translate(27.017339 257.68625) scale(0.25 -0.25)">
      <defs>
       <path id="DejaVuSans-Oblique-3c1" d="M 1203 2875 
Q 1453 3194 1981 3475 
Q 2188 3584 2756 3584 
Q 3394 3584 3694 3078 
Q 3994 2572 3834 1747 
Q 3672 922 3175 415 
Q 2678 -91 2041 -91 
Q 1656 -91 1409 63 
Q 1163 213 1044 525 
L 681 -1331 
L 103 -1331 
L 697 1716 
Q 838 2438 1203 2875 
z
M 3238 1747 
Q 3359 2381 3169 2744 
Q 2978 3103 2522 3103 
Q 2066 3103 1734 2744 
Q 1403 2381 1281 1747 
Q 1156 1113 1347 750 
Q 1538 391 1994 391 
Q 2450 391 2781 750 
Q 3113 1113 3238 1747 
z
" transform="scale(0.015625)"/>
       <path id="Calibri-28" d="M 1547 4306 
Q 1250 3678 1104 3017 
Q 959 2356 959 1688 
Q 959 1016 1107 356 
Q 1256 -303 1541 -938 
Q 1556 -975 1557 -1001 
Q 1559 -1028 1537 -1045 
Q 1516 -1063 1470 -1070 
Q 1425 -1078 1347 -1078 
Q 1291 -1078 1250 -1075 
Q 1209 -1072 1179 -1062 
Q 1150 -1053 1131 -1040 
Q 1113 -1028 1103 -1013 
Q 934 -694 806 -367 
Q 678 -41 590 296 
Q 503 634 459 979 
Q 416 1325 416 1678 
Q 416 2031 464 2375 
Q 513 2719 602 3058 
Q 691 3397 819 3725 
Q 947 4053 1106 4375 
Q 1109 4388 1123 4397 
Q 1138 4406 1163 4415 
Q 1188 4425 1231 4429 
Q 1275 4434 1344 4434 
Q 1416 4434 1459 4425 
Q 1503 4416 1528 4400 
Q 1553 4384 1556 4359 
Q 1559 4334 1547 4306 
z
" transform="scale(0.015625)"/>
       <path id="Calibri-29" d="M 1522 1678 
Q 1522 1325 1478 979 
Q 1434 634 1346 296 
Q 1259 -41 1132 -367 
Q 1006 -694 838 -1013 
Q 828 -1028 809 -1040 
Q 791 -1053 761 -1062 
Q 731 -1072 690 -1075 
Q 650 -1078 594 -1078 
Q 513 -1078 467 -1070 
Q 422 -1063 401 -1045 
Q 381 -1028 382 -1001 
Q 384 -975 400 -938 
Q 688 -306 834 355 
Q 981 1016 981 1688 
Q 981 2356 834 3017 
Q 688 3678 394 4306 
Q 381 4334 384 4359 
Q 388 4384 413 4400 
Q 438 4416 481 4425 
Q 525 4434 597 4434 
Q 663 4434 706 4429 
Q 750 4425 776 4415 
Q 803 4406 815 4397 
Q 828 4388 834 4375 
Q 1156 3734 1339 3057 
Q 1522 2381 1522 1678 
z
" transform="scale(0.015625)"/>
      </defs>
      <use xlink:href="#DejaVuSans-Oblique-3c1" transform="translate(0 0.71875)"/>
      <use xlink:href="#Calibri-28" transform="translate(63.476562 0.71875)"/>
      <use xlink:href="#DejaVuSans-Oblique-3c9" transform="translate(93.798828 0.71875)"/>
      <use xlink:href="#Calibri-29" transform="translate(177.539062 0.71875)"/>
     </g>
    </g>
   </g>
   <g id="line2d_29">
    <path d="M 129.775152 485.191726 
L 155.342673 484.357586 
L 176.463668 483.453498 
L 194.527677 482.46213 
L 209.812608 481.407831 
L 223.152183 480.271633 
L 234.824312 479.061062 
L 245.106902 477.779351 
L 254.277861 476.42091 
L 262.615096 474.96598 
L 270.118607 473.43544 
L 277.066303 471.789852 
L 283.180275 470.122023 
L 289.01634 468.299747 
L 294.296588 466.420579 
L 299.298929 464.401354 
L 303.745455 462.37756 
L 307.914072 460.252334 
L 312.08269 457.871329 
L 315.973399 455.381981 
L 319.586201 452.803903 
L 322.921095 450.162848 
L 326.255989 447.235062 
L 329.312975 444.264491 
L 332.369961 440.981839 
L 335.14904 437.690985 
L 337.928118 434.069935 
L 340.707196 430.076083 
L 343.486275 425.660385 
L 345.987445 421.279051 
L 348.488616 416.463255 
L 350.989786 411.159493 
L 353.490957 405.30707 
L 355.992127 398.837288 
L 358.493298 391.672671 
L 360.71656 384.650778 
L 362.939823 376.943851 
L 365.163086 368.478348 
L 367.386348 359.175174 
L 369.609611 348.950806 
L 371.832874 337.719359 
L 374.056136 325.396011 
L 376.279399 311.90232 
L 378.780569 295.243962 
L 381.28174 276.972296 
L 383.78291 257.104693 
L 386.561989 233.312559 
L 390.17479 200.351722 
L 396.010855 146.782085 
L 398.234118 128.471207 
L 399.901565 116.346345 
L 401.291104 107.617616 
L 402.680643 100.372585 
L 403.792274 95.775724 
L 404.625998 93.082969 
L 405.459721 91.068857 
L 406.015537 90.113935 
L 406.571352 89.474771 
L 407.127168 89.15442 
L 407.682984 89.15442 
L 408.238799 89.474771 
L 408.794615 90.113935 
L 409.350431 91.068857 
L 410.184154 93.082969 
L 411.017878 95.775724 
L 412.129509 100.372585 
L 413.24114 106.043297 
L 414.63068 114.492112 
L 416.298127 126.340685 
L 418.243481 142.019089 
L 420.744652 164.145858 
L 430.749334 254.802741 
L 433.528412 276.972296 
L 436.029583 295.243962 
L 438.530753 311.90232 
L 441.031924 326.998923 
L 443.533094 340.626334 
L 445.756357 351.597943 
L 447.979619 361.584007 
L 450.202882 370.670079 
L 452.704053 379.918766 
L 455.205223 388.242991 
L 457.706394 395.743738 
L 460.207564 402.512223 
L 462.708735 408.630041 
L 465.209905 414.169702 
L 467.711075 419.195358 
L 470.212246 423.763608 
L 472.991324 428.363411 
L 475.770403 432.519723 
L 478.549481 436.284441 
L 481.328559 439.702634 
L 484.385545 443.109017 
L 487.442532 446.188525 
L 490.777426 449.220669 
L 494.11232 451.953137 
L 497.725121 454.617796 
L 501.337923 457.013907 
L 505.228633 459.332771 
L 509.39725 461.555817 
L 513.843776 463.669574 
L 518.568209 465.665121 
L 523.57055 467.537459 
L 529.128706 469.370984 
L 534.964771 471.059658 
L 541.356651 472.675741 
L 548.304347 474.201372 
L 556.085766 475.674049 
L 564.700909 477.06667 
L 574.149775 478.361688 
L 584.710273 479.578987 
L 596.660309 480.725143 
L 610.277793 481.798417 
L 625.840632 482.792931 
L 643.626733 483.701997 
L 664.46982 484.540252 
L 685.035 485.191726 
L 685.035 485.191726 
" clip-path="url(#p6a5acf71f7)" style="fill: none; stroke-dasharray: 14.8,6.4; stroke-dashoffset: 0; stroke: #ff0000; stroke-width: 4"/>
   </g>
   <g id="line2d_30">
    <path d="M 129.775152 484.79008 
L 130.05306 485.796792 
L 130.330968 484.118939 
L 130.608875 485.796792 
L 130.886783 485.461222 
L 131.164691 486.467934 
L 131.442599 483.447797 
L 131.720507 484.118939 
L 131.998415 485.125651 
L 132.276322 485.125651 
L 132.55423 486.132363 
L 132.832138 486.132363 
L 133.387954 483.447797 
L 133.665862 484.454509 
L 133.943769 484.118939 
L 134.221677 484.454509 
L 134.499585 485.125651 
L 135.055401 483.112226 
L 135.333309 484.118939 
L 135.611216 482.776656 
L 135.889124 483.447797 
L 136.167032 485.796792 
L 136.44494 483.783368 
L 136.722848 484.454509 
L 137.000756 482.441085 
L 137.556571 485.461222 
L 138.112387 483.783368 
L 138.390295 486.132363 
L 138.94611 484.454509 
L 139.224018 484.79008 
L 139.779834 483.447797 
L 140.057742 482.105514 
L 140.33565 483.112226 
L 140.613557 485.125651 
L 140.891465 486.132363 
L 141.169373 485.796792 
L 141.725189 483.783368 
L 142.003097 485.461222 
L 142.281004 485.461222 
L 142.558912 484.454509 
L 143.114728 483.783368 
L 143.392636 486.467934 
L 143.670544 483.783368 
L 144.226359 486.132363 
L 144.504267 483.783368 
L 145.060083 482.105514 
L 145.337991 484.118939 
L 145.615898 484.454509 
L 145.893806 482.776656 
L 146.171714 484.79008 
L 146.449622 484.118939 
L 146.72753 484.118939 
L 147.005438 482.776656 
L 147.839161 485.461222 
L 148.117069 486.132363 
L 148.394977 483.447797 
L 148.672885 485.796792 
L 148.950792 483.783368 
L 149.2287 484.79008 
L 149.506608 481.769943 
L 149.784516 483.783368 
L 150.062424 483.447797 
L 150.340332 485.461222 
L 150.618239 485.796792 
L 151.174055 483.112226 
L 151.451963 486.467934 
L 151.729871 483.783368 
L 152.007779 484.118939 
L 152.285686 483.112226 
L 152.841502 483.783368 
L 153.11941 483.447797 
L 153.397318 481.769943 
L 153.675226 484.118939 
L 153.953133 484.118939 
L 154.231041 482.776656 
L 154.508949 484.118939 
L 155.064765 482.105514 
L 155.342673 484.454509 
L 155.62058 482.105514 
L 155.898488 482.441085 
L 156.176396 481.769943 
L 156.454304 484.454509 
L 156.732212 484.79008 
L 157.010119 484.79008 
L 157.288027 485.461222 
L 157.565935 482.105514 
L 157.843843 481.098802 
L 158.121751 482.441085 
L 158.399659 485.461222 
L 158.677566 483.447797 
L 158.955474 483.447797 
L 159.233382 482.105514 
L 159.51129 484.79008 
L 159.789198 483.783368 
L 160.067106 483.783368 
L 160.345013 483.447797 
L 160.622921 483.783368 
L 160.900829 485.125651 
L 161.178737 484.79008 
L 161.456645 484.79008 
L 161.734553 483.783368 
L 162.01246 483.447797 
L 162.290368 484.454509 
L 162.568276 483.783368 
L 162.846184 485.461222 
L 163.124092 485.796792 
L 163.679907 481.769943 
L 163.957815 485.796792 
L 164.235723 484.454509 
L 164.791539 480.09209 
L 165.069447 482.441085 
L 165.347354 483.447797 
L 165.625262 483.447797 
L 165.90317 479.756519 
L 166.181078 482.776656 
L 166.458986 484.118939 
L 166.736894 482.105514 
L 167.014801 484.79008 
L 167.292709 480.42766 
L 167.570617 482.776656 
L 167.848525 482.776656 
L 168.126433 483.112226 
L 168.404341 484.454509 
L 168.682248 484.454509 
L 168.960156 482.105514 
L 169.515972 483.447797 
L 169.79388 484.79008 
L 170.071788 482.776656 
L 170.349695 485.125651 
L 170.627603 482.776656 
L 170.905511 483.447797 
L 171.183419 484.79008 
L 171.461327 481.769943 
L 171.739235 484.454509 
L 172.017142 481.769943 
L 172.29505 482.441085 
L 172.572958 484.79008 
L 172.850866 482.776656 
L 173.128774 482.105514 
L 173.406682 485.125651 
L 173.684589 482.776656 
L 173.962497 484.454509 
L 174.240405 482.105514 
L 174.518313 485.125651 
L 174.796221 485.461222 
L 175.074129 481.769943 
L 175.352036 484.118939 
L 175.629944 482.776656 
L 175.907852 483.112226 
L 176.18576 483.112226 
L 176.463668 482.441085 
L 176.741576 482.105514 
L 177.019483 481.098802 
L 177.297391 483.447797 
L 177.575299 480.42766 
L 177.853207 483.112226 
L 178.131115 483.447797 
L 178.409023 481.434373 
L 178.68693 478.078665 
L 179.242746 483.112226 
L 179.520654 482.776656 
L 179.798562 480.763231 
L 180.07647 482.441085 
L 180.354377 483.112226 
L 180.632285 482.105514 
L 180.910193 484.454509 
L 181.188101 481.434373 
L 181.466009 482.776656 
L 181.743917 480.763231 
L 182.021824 482.105514 
L 182.299732 480.763231 
L 182.855548 484.79008 
L 183.133456 482.441085 
L 183.411364 484.454509 
L 183.689271 480.763231 
L 183.967179 485.125651 
L 184.245087 482.441085 
L 184.522995 484.454509 
L 184.800903 482.105514 
L 185.078811 482.776656 
L 185.356718 482.776656 
L 185.912534 480.42766 
L 186.190442 484.118939 
L 186.46835 479.085377 
L 186.746258 481.434373 
L 187.024165 480.763231 
L 187.302073 482.105514 
L 187.579981 482.441085 
L 187.857889 483.783368 
L 188.135797 481.769943 
L 188.413704 484.454509 
L 188.691612 481.098802 
L 188.96952 481.434373 
L 189.247428 480.763231 
L 189.803244 482.776656 
L 190.081151 480.42766 
L 190.359059 483.112226 
L 190.636967 479.420948 
L 190.914875 480.42766 
L 191.192783 480.42766 
L 191.470691 483.783368 
L 191.748598 482.776656 
L 192.026506 482.776656 
L 192.304414 484.79008 
L 192.582322 485.125651 
L 192.86023 479.420948 
L 193.138138 483.783368 
L 193.416045 483.447797 
L 193.693953 483.783368 
L 193.971861 481.434373 
L 194.249769 481.769943 
L 194.527677 481.769943 
L 194.805585 479.756519 
L 195.3614 482.441085 
L 195.639308 483.447797 
L 195.917216 481.098802 
L 196.195124 481.434373 
L 196.473032 483.783368 
L 196.750939 482.776656 
L 197.028847 480.42766 
L 197.306755 481.098802 
L 197.584663 484.118939 
L 198.140479 481.434373 
L 198.418386 481.098802 
L 198.696294 482.776656 
L 198.974202 479.756519 
L 199.25211 481.434373 
L 199.530018 481.434373 
L 199.807926 484.454509 
L 200.085833 481.098802 
L 200.363741 479.756519 
L 200.641649 482.441085 
L 200.919557 479.420948 
L 201.475373 480.09209 
L 201.75328 483.112226 
L 202.031188 480.42766 
L 202.309096 480.09209 
L 202.587004 482.105514 
L 202.864912 479.420948 
L 203.14282 482.441085 
L 203.420727 481.769943 
L 203.698635 483.447797 
L 203.976543 481.434373 
L 204.254451 478.414236 
L 204.532359 482.441085 
L 204.810267 480.09209 
L 205.366082 482.776656 
L 205.64399 480.09209 
L 206.199806 482.441085 
L 206.477714 480.763231 
L 206.755621 482.776656 
L 207.033529 479.085377 
L 207.311437 480.763231 
L 207.589345 478.749807 
L 207.867253 484.454509 
L 208.145161 482.441085 
L 208.423068 483.112226 
L 208.978884 480.763231 
L 209.256792 482.105514 
L 209.5347 480.09209 
L 209.812608 484.118939 
L 210.090515 481.098802 
L 210.646331 485.125651 
L 210.924239 479.085377 
L 211.202147 481.434373 
L 211.480055 478.749807 
L 211.757962 481.434373 
L 212.03587 479.756519 
L 212.313778 482.776656 
L 212.591686 480.09209 
L 212.869594 481.098802 
L 213.147502 477.743094 
L 213.425409 481.434373 
L 213.703317 480.763231 
L 213.981225 479.756519 
L 214.259133 480.763231 
L 214.537041 477.743094 
L 214.814949 483.783368 
L 215.092856 483.112226 
L 215.370764 481.098802 
L 215.648672 477.743094 
L 215.92658 479.085377 
L 216.204488 479.756519 
L 216.482396 481.769943 
L 216.760303 480.09209 
L 217.038211 479.756519 
L 217.316119 481.098802 
L 217.594027 481.769943 
L 217.871935 482.105514 
L 218.149843 479.420948 
L 218.42775 478.749807 
L 218.705658 479.085377 
L 218.983566 477.743094 
L 219.261474 479.756519 
L 219.539382 482.776656 
L 219.817289 480.763231 
L 220.095197 481.098802 
L 220.373105 483.112226 
L 220.651013 480.42766 
L 220.928921 482.105514 
L 221.206829 481.434373 
L 221.484736 479.085377 
L 221.762644 478.414236 
L 222.040552 482.776656 
L 222.596368 477.407524 
L 222.874276 481.098802 
L 223.152183 482.441085 
L 223.430091 482.105514 
L 223.707999 481.434373 
L 223.985907 478.078665 
L 224.263815 481.769943 
L 224.541723 482.105514 
L 224.81963 480.763231 
L 225.097538 478.078665 
L 225.375446 477.071953 
L 225.653354 479.756519 
L 225.931262 478.078665 
L 226.20917 477.407524 
L 226.487077 479.085377 
L 226.764985 479.756519 
L 227.042893 478.414236 
L 227.320801 480.763231 
L 227.598709 481.098802 
L 228.154524 481.098802 
L 228.432432 476.400811 
L 228.71034 477.743094 
L 228.988248 476.736382 
L 229.266156 477.407524 
L 229.544064 477.071953 
L 229.821971 480.09209 
L 230.099879 479.085377 
L 230.377787 481.769943 
L 230.655695 478.078665 
L 230.933603 478.414236 
L 231.211511 480.42766 
L 231.489418 480.42766 
L 231.767326 479.756519 
L 232.323142 479.085377 
L 232.60105 480.763231 
L 232.878958 479.420948 
L 233.434773 480.763231 
L 233.712681 478.749807 
L 233.990589 478.749807 
L 234.268497 482.105514 
L 234.824312 479.085377 
L 235.10222 478.078665 
L 235.380128 481.434373 
L 235.658036 477.743094 
L 235.935944 477.407524 
L 236.213852 479.420948 
L 236.491759 477.743094 
L 236.769667 477.407524 
L 237.047575 478.414236 
L 237.325483 476.736382 
L 237.603391 477.071953 
L 237.881299 480.42766 
L 238.159206 478.749807 
L 238.437114 478.414236 
L 238.715022 479.085377 
L 238.99293 481.769943 
L 239.270838 479.756519 
L 239.548746 478.749807 
L 239.826653 477.071953 
L 240.104561 476.736382 
L 240.382469 473.716245 
L 240.660377 480.42766 
L 240.938285 474.051816 
L 241.216193 479.420948 
L 241.4941 479.756519 
L 242.327824 477.071953 
L 242.605732 477.743094 
L 242.88364 476.400811 
L 243.439455 477.071953 
L 243.717363 476.736382 
L 243.995271 477.071953 
L 244.273179 476.736382 
L 244.551087 473.045104 
L 244.828994 477.743094 
L 245.106902 477.071953 
L 245.38481 473.380675 
L 245.662718 476.736382 
L 245.940626 478.078665 
L 246.218534 476.065241 
L 246.496441 482.105514 
L 246.774349 478.749807 
L 247.330165 477.407524 
L 247.608073 475.72967 
L 247.885981 475.058528 
L 248.163888 477.743094 
L 248.441796 477.407524 
L 248.719704 477.743094 
L 248.997612 475.72967 
L 249.27552 480.09209 
L 249.831335 473.045104 
L 250.109243 477.743094 
L 250.387151 474.387387 
L 250.665059 476.065241 
L 250.942967 472.709533 
L 251.220874 478.749807 
L 251.498782 473.716245 
L 251.77669 473.716245 
L 252.054598 472.709533 
L 252.332506 473.716245 
L 252.610414 475.72967 
L 252.888321 472.038392 
L 253.166229 475.058528 
L 253.444137 475.72967 
L 253.722045 475.058528 
L 253.999953 473.716245 
L 254.277861 480.09209 
L 254.555768 475.72967 
L 254.833676 478.078665 
L 255.111584 472.709533 
L 255.389492 480.42766 
L 255.6674 472.709533 
L 255.945308 476.065241 
L 256.223215 474.722958 
L 256.501123 477.071953 
L 256.779031 482.441085 
L 257.056939 472.373962 
L 257.334847 470.360538 
L 257.612755 476.065241 
L 257.890662 474.051816 
L 258.16857 471.031679 
L 258.446478 476.400811 
L 258.724386 472.373962 
L 259.002294 472.709533 
L 259.280202 472.373962 
L 259.558109 475.72967 
L 259.836017 473.716245 
L 260.113925 476.065241 
L 260.391833 473.716245 
L 260.669741 473.716245 
L 260.947649 471.36725 
L 261.225556 474.722958 
L 261.503464 473.380675 
L 261.781372 476.065241 
L 262.05928 471.36725 
L 262.337188 471.031679 
L 262.615096 474.722958 
L 262.893003 474.722958 
L 263.170911 470.024967 
L 263.448819 476.065241 
L 264.282543 469.353826 
L 264.56045 472.373962 
L 264.838358 477.407524 
L 265.116266 473.380675 
L 265.394174 472.038392 
L 265.672082 475.394099 
L 265.94999 476.736382 
L 266.227897 474.387387 
L 266.505805 474.722958 
L 266.783713 476.400811 
L 267.061621 475.394099 
L 267.339529 471.031679 
L 267.617437 473.716245 
L 267.895344 472.373962 
L 268.173252 470.024967 
L 268.45116 471.36725 
L 268.729068 475.394099 
L 269.006976 470.024967 
L 269.284884 477.407524 
L 269.562791 473.716245 
L 269.840699 472.709533 
L 270.118607 470.024967 
L 270.396515 471.702821 
L 270.674423 470.024967 
L 270.952331 473.045104 
L 271.230238 473.045104 
L 271.508146 473.380675 
L 271.786054 474.387387 
L 272.063962 473.380675 
L 272.34187 473.045104 
L 272.619778 469.018255 
L 272.897685 473.045104 
L 273.175593 470.360538 
L 273.453501 475.058528 
L 273.731409 470.024967 
L 274.009317 474.722958 
L 274.287225 469.018255 
L 274.565132 468.011543 
L 274.84304 475.058528 
L 275.120948 474.387387 
L 275.398856 469.689396 
L 275.676764 471.031679 
L 275.954672 467.00483 
L 276.232579 474.051816 
L 276.510487 473.380675 
L 276.788395 468.682684 
L 277.066303 472.038392 
L 277.344211 468.682684 
L 277.622119 472.373962 
L 277.900026 477.743094 
L 278.177934 468.011543 
L 278.455842 472.373962 
L 278.73375 468.011543 
L 279.011658 465.998118 
L 279.567473 471.031679 
L 279.845381 468.682684 
L 280.401197 472.373962 
L 280.679105 467.340401 
L 280.957013 469.689396 
L 281.512828 467.00483 
L 281.790736 472.038392 
L 282.068644 472.038392 
L 282.346552 465.998118 
L 282.624459 476.065241 
L 282.902367 468.347113 
L 283.180275 470.024967 
L 283.458183 469.018255 
L 283.736091 472.038392 
L 284.013999 470.360538 
L 284.291906 470.024967 
L 284.569814 465.662547 
L 284.847722 469.689396 
L 285.12563 470.696109 
L 285.403538 463.649123 
L 285.959353 467.340401 
L 286.237261 470.696109 
L 286.515169 467.00483 
L 286.793077 460.964557 
L 287.070985 461.300128 
L 287.348893 468.347113 
L 287.6268 471.36725 
L 287.904708 469.018255 
L 288.182616 463.649123 
L 288.460524 467.340401 
L 288.738432 469.018255 
L 289.01634 460.964557 
L 289.294247 465.662547 
L 289.572155 467.00483 
L 289.850063 463.984694 
L 290.405879 469.353826 
L 290.683787 467.675972 
L 290.961694 460.628986 
L 291.239602 466.66926 
L 291.51751 463.313552 
L 292.073326 464.655835 
L 292.351234 470.024967 
L 292.629141 465.998118 
L 292.907049 463.984694 
L 293.184957 469.353826 
L 294.018681 458.951132 
L 294.574496 465.998118 
L 294.852404 463.984694 
L 295.130312 466.66926 
L 295.40822 462.30684 
L 295.686128 464.655835 
L 295.964035 460.293415 
L 296.241943 459.957845 
L 296.519851 466.66926 
L 296.797759 461.635698 
L 297.075667 462.977981 
L 297.353575 462.977981 
L 297.631482 461.300128 
L 297.90939 460.628986 
L 298.187298 464.991406 
L 298.465206 465.998118 
L 298.743114 461.635698 
L 299.021022 468.347113 
L 299.298929 463.313552 
L 299.576837 465.662547 
L 299.854745 456.602137 
L 300.132653 464.991406 
L 300.410561 461.300128 
L 300.688469 460.964557 
L 300.966376 464.991406 
L 301.244284 459.622274 
L 301.522192 460.293415 
L 301.8001 462.977981 
L 302.078008 460.293415 
L 302.355916 461.971269 
L 302.633823 458.951132 
L 302.911731 463.984694 
L 303.189639 464.320264 
L 303.467547 463.984694 
L 303.745455 458.951132 
L 304.023363 459.622274 
L 304.30127 462.30684 
L 304.579178 458.615562 
L 304.857086 467.340401 
L 305.134994 461.635698 
L 305.412902 459.622274 
L 305.69081 459.286703 
L 305.968717 467.340401 
L 306.246625 464.991406 
L 306.524533 453.582 
L 306.802441 452.239717 
L 307.080349 456.602137 
L 307.636164 453.917571 
L 307.914072 457.94442 
L 308.19198 456.266566 
L 308.469888 464.655835 
L 308.747796 463.984694 
L 309.025704 456.266566 
L 309.303611 454.253142 
L 309.581519 455.595425 
L 309.859427 455.259854 
L 310.137335 460.293415 
L 310.415243 457.273279 
L 310.693151 457.94442 
L 310.971058 455.259854 
L 311.248966 455.595425 
L 311.526874 459.957845 
L 311.804782 450.226293 
L 312.08269 453.917571 
L 312.360597 454.253142 
L 312.638505 452.239717 
L 312.916413 453.24643 
L 313.194321 457.273279 
L 313.472229 456.602137 
L 313.750137 456.266566 
L 314.028044 455.259854 
L 314.305952 453.582 
L 314.58386 447.541727 
L 315.139676 460.293415 
L 315.695491 452.575288 
L 315.973399 452.575288 
L 316.251307 455.595425 
L 316.529215 447.541727 
L 316.807123 449.890722 
L 317.085031 456.937708 
L 317.362938 454.253142 
L 317.640846 449.219581 
L 317.918754 458.615562 
L 318.196662 457.608849 
L 318.47457 450.897434 
L 318.752478 448.548439 
L 319.030385 448.88401 
L 319.308293 443.850449 
L 319.864109 453.917571 
L 320.142017 449.555151 
L 320.419925 451.568576 
L 320.697832 457.608849 
L 320.97574 448.548439 
L 321.253648 446.870585 
L 321.809464 452.239717 
L 322.087372 447.206156 
L 322.643187 444.52159 
L 322.921095 442.508166 
L 323.199003 447.877298 
L 323.476911 443.850449 
L 323.754819 445.192732 
L 324.032726 451.904147 
L 324.588542 439.488029 
L 324.86645 444.52159 
L 325.144358 446.870585 
L 325.422266 450.226293 
L 325.978081 443.179307 
L 326.255989 450.226293 
L 326.811805 437.810175 
L 327.089713 440.15917 
L 327.36762 440.15917 
L 327.923436 447.206156 
L 328.201344 447.877298 
L 328.479252 443.179307 
L 328.75716 442.843736 
L 329.035067 436.467892 
L 329.312975 449.555151 
L 329.590883 434.790038 
L 329.868791 439.152458 
L 330.146699 449.890722 
L 330.424607 439.488029 
L 330.702514 437.474604 
L 330.980422 437.810175 
L 331.25833 437.810175 
L 331.536238 445.863873 
L 331.814146 440.15917 
L 332.092054 447.877298 
L 332.369961 441.501453 
L 332.647869 439.152458 
L 332.925777 430.763189 
L 333.203685 434.454468 
L 333.481593 435.125609 
L 333.759501 434.454468 
L 334.037408 436.803463 
L 334.315316 429.420906 
L 334.593224 428.749765 
L 335.14904 443.850449 
L 335.426948 438.816887 
L 335.704855 431.09876 
L 335.982763 436.803463 
L 336.260671 440.15917 
L 336.538579 432.105472 
L 336.816487 433.112185 
L 337.094395 441.501453 
L 337.372302 426.73634 
L 337.928118 430.092048 
L 338.206026 438.145746 
L 338.483934 433.447755 
L 338.761842 424.722916 
L 339.039749 424.051774 
L 339.317657 430.092048 
L 339.595565 427.071911 
L 339.873473 430.092048 
L 340.151381 417.67593 
L 340.429289 432.105472 
L 340.707196 419.689355 
L 340.985104 420.696067 
L 341.263012 420.024925 
L 341.818828 427.743053 
L 342.096736 419.689355 
L 342.374643 423.045062 
L 342.652551 414.991364 
L 342.930459 425.058487 
L 343.486275 412.306798 
L 343.764182 426.73634 
L 344.04209 416.333647 
L 344.319998 421.367208 
L 344.597906 414.320223 
L 344.875814 424.387345 
L 345.153722 413.31351 
L 345.431629 415.326935 
L 345.709537 414.991364 
L 345.987445 415.662506 
L 346.265353 422.709491 
L 346.543261 412.97794 
L 346.821169 409.957803 
L 347.099076 420.360496 
L 347.376984 408.61552 
L 347.654892 413.984652 
L 347.9328 414.655793 
L 348.210708 410.628944 
L 348.488616 420.696067 
L 348.766523 411.971227 
L 349.044431 417.004789 
L 349.322339 412.306798 
L 349.600247 402.239676 
L 349.878155 402.239676 
L 350.156063 410.628944 
L 350.43397 401.568534 
L 350.711878 409.622232 
L 350.989786 403.581959 
L 351.267694 393.850407 
L 351.545602 399.55511 
L 351.82351 397.206114 
L 352.101417 401.568534 
L 352.379325 411.300086 
L 352.657233 398.883968 
L 352.935141 408.61552 
L 353.213049 402.239676 
L 353.490957 405.595383 
L 353.768864 389.487987 
L 354.046772 397.877256 
L 354.32468 395.863831 
L 354.602588 402.910817 
L 354.880496 393.179265 
L 355.158404 401.232963 
L 355.436311 391.836982 
L 355.714219 400.226251 
L 355.992127 388.145704 
L 356.270035 395.863831 
L 356.547943 399.219539 
L 356.825851 386.803421 
L 357.103758 381.434289 
L 357.381666 388.481275 
L 357.659574 386.46785 
L 357.937482 381.76986 
L 358.21539 384.789997 
L 358.493298 385.125567 
L 358.771205 383.112143 
L 359.049113 382.776572 
L 359.327021 382.105431 
L 359.604929 388.816846 
L 360.160745 373.380591 
L 360.438652 386.46785 
L 360.71656 384.789997 
L 360.994468 374.387303 
L 361.272376 380.427577 
L 361.550284 381.098718 
L 361.828192 372.373879 
L 362.106099 372.373879 
L 362.384007 351.904063 
L 362.661915 369.018171 
L 363.495639 363.313469 
L 363.773546 375.394016 
L 364.051454 357.273195 
L 364.329362 360.293332 
L 364.60727 368.34703 
L 365.163086 356.266483 
L 365.440993 354.588629 
L 365.718901 355.595341 
L 365.996809 363.649039 
L 366.274717 358.615478 
L 366.552625 359.62219 
L 366.830533 345.192648 
L 367.10844 372.373879 
L 367.386348 350.56178 
L 367.664256 365.326893 
L 368.220072 325.058403 
L 368.49798 356.266483 
L 368.775887 342.172511 
L 369.053795 340.159087 
L 369.331703 340.159087 
L 369.609611 335.796667 
L 369.887519 326.736257 
L 370.165427 345.192648 
L 370.443334 336.803379 
L 370.721242 334.454384 
L 370.99915 346.534931 
L 371.277058 338.816804 
L 371.554966 323.71612 
L 371.832874 324.387262 
L 372.110781 337.810092 
L 372.388689 338.145662 
L 372.666597 322.709408 
L 372.944505 314.320139 
L 373.222413 325.058403 
L 373.500321 322.038266 
L 373.778228 326.736257 
L 374.056136 305.5953 
L 374.334044 317.340276 
L 374.611952 306.266441 
L 374.88986 305.5953 
L 375.167767 315.997993 
L 375.445675 299.890597 
L 375.723583 304.588587 
L 376.001491 306.266441 
L 376.279399 285.796625 
L 376.557307 306.602012 
L 376.835214 304.588587 
L 377.113122 283.44763 
L 377.39103 296.87046 
L 377.668938 290.494616 
L 377.946846 301.23288 
L 378.224754 290.830187 
L 378.502661 305.259729 
L 379.058477 268.346946 
L 379.336385 266.669093 
L 379.614293 278.414069 
L 379.892201 270.695942 
L 380.170108 272.373795 
L 380.448016 260.628819 
L 380.725924 281.098635 
L 381.003832 271.367083 
L 381.28174 267.675805 
L 381.559648 277.071786 
L 381.837555 242.172428 
L 382.115463 244.185852 
L 382.393371 257.273112 
L 382.671279 236.803296 
L 382.949187 252.910692 
L 383.227095 238.81672 
L 383.505002 248.548272 
L 383.78291 225.05832 
L 384.060818 223.044895 
L 384.616634 229.085169 
L 384.894542 229.420739 
L 385.172449 234.11873 
L 385.450357 235.125442 
L 385.728265 213.313343 
L 386.006173 218.346905 
L 386.561989 210.964348 
L 386.839896 211.63549 
L 387.117804 207.27307 
L 387.395712 222.038183 
L 387.67362 204.924075 
L 387.951528 219.353617 
L 388.507343 191.836815 
L 388.785251 195.528094 
L 389.063159 173.044853 
L 389.341067 173.380424 
L 389.618975 203.917362 
L 390.17479 168.682434 
L 390.452698 176.736132 
L 390.730606 160.628736 
L 391.008514 175.058278 
L 391.286422 153.917321 
L 391.56433 180.091839 
L 391.842237 152.239467 
L 392.120145 164.655585 
L 392.398053 163.313302 
L 392.675961 154.252891 
L 393.231777 154.252891 
L 393.509684 154.924033 
L 393.787592 163.313302 
L 394.0655 138.145495 
L 394.343408 157.273028 
L 394.621316 126.73609 
L 394.899224 145.528052 
L 395.177131 146.870335 
L 395.455039 134.789788 
L 395.732947 146.199193 
L 396.010855 125.729378 
L 396.288763 131.43408 
L 396.566671 115.662255 
L 396.844578 122.709241 
L 397.122486 114.991114 
L 397.400394 97.541435 
L 397.678302 110.628694 
L 398.234118 79.420614 
L 398.512025 106.937416 
L 398.789933 94.856869 
L 399.067841 108.279699 
L 399.345749 100.226001 
L 399.623657 86.4676 
L 399.901565 95.52801 
L 400.179472 117.67568 
L 400.45738 103.246137 
L 400.735288 96.199152 
L 401.013196 83.447463 
L 401.291104 87.809883 
L 401.569012 61.299794 
L 401.846919 74.722624 
L 402.402735 82.440751 
L 402.680643 61.635364 
L 402.958551 64.991072 
L 403.236459 44.856827 
L 403.514366 77.74276 
L 403.792274 78.749473 
L 404.070182 76.400477 
L 404.34809 59.62194 
L 404.625998 79.420614 
L 405.181813 47.876964 
L 405.459721 52.574954 
L 405.737629 62.306506 
L 406.015537 50.8971 
L 406.293445 56.601803 
L 406.84926 36.467558 
L 407.127168 64.31993 
L 407.405076 59.62194 
L 407.682984 71.031345 
L 408.238799 45.863539 
L 408.516707 62.642077 
L 408.794615 64.31993 
L 409.072523 60.964223 
L 409.350431 53.917237 
L 409.906246 76.064907 
L 410.184154 39.487695 
L 410.462062 89.823307 
L 410.73997 69.353492 
L 411.017878 62.977647 
L 411.295786 80.091756 
L 411.573693 87.809883 
L 411.851601 68.346779 
L 412.129509 76.736048 
L 412.407417 96.534722 
L 412.685325 58.279657 
L 412.963233 81.098468 
L 413.519048 88.816595 
L 413.796956 72.709199 
L 414.074864 93.179015 
L 414.352772 99.554859 
L 414.63068 97.205864 
L 414.908587 103.917279 
L 415.186495 98.548147 
L 415.464403 74.387053 
L 415.742311 98.548147 
L 416.298127 122.038099 
L 416.576034 104.58842 
L 416.853942 97.877005 
L 417.409758 102.910567 
L 417.687666 95.52801 
L 417.965574 102.574996 
L 418.243481 120.695816 
L 418.521389 98.883718 
L 418.799297 110.964265 
L 419.077205 139.487778 
L 419.355113 142.172344 
L 419.633021 132.776363 
L 419.910928 138.481066 
L 420.188836 131.09851 
L 420.466744 139.823349 
L 420.744652 110.964265 
L 421.02256 123.044812 
L 421.300468 149.21933 
L 421.578375 136.803212 
L 421.856283 143.179057 
L 422.134191 143.179057 
L 423.245822 175.058278 
L 423.52373 164.655585 
L 423.801638 175.058278 
L 424.079546 163.648872 
L 424.635362 195.528094 
L 425.191177 179.756268 
L 425.469085 192.843528 
L 425.746993 190.494532 
L 426.024901 205.595216 
L 426.302809 178.078415 
L 426.580716 207.608641 
L 426.858624 212.977773 
L 427.136532 206.937499 
L 427.41444 218.011334 
L 427.692348 187.138825 
L 427.970256 218.011334 
L 428.248163 228.749598 
L 428.526071 214.655626 
L 428.803979 224.387178 
L 429.081887 214.320056 
L 429.359795 224.387178 
L 429.637703 239.487862 
L 430.471426 224.722749 
L 430.749334 242.507999 
L 431.30515 227.742886 
L 431.860965 264.320097 
L 432.416781 239.152291 
L 432.694689 258.950965 
L 432.972597 269.689229 
L 433.250504 256.266399 
L 433.80632 265.66238 
L 434.084228 276.065074 
L 434.362136 272.373795 
L 434.640044 277.071786 
L 434.917951 269.018088 
L 435.195859 279.420781 
L 435.473767 269.018088 
L 435.751675 290.494616 
L 436.029583 273.716078 
L 436.307491 272.709366 
L 436.585398 289.487904 
L 436.863306 288.816762 
L 437.141214 293.179182 
L 437.419122 301.23288 
L 437.69703 299.890597 
L 437.974937 301.904021 
L 438.252845 293.850323 
L 438.530753 299.219455 
L 438.808661 292.50804 
L 439.086569 302.910734 
L 439.364477 297.541602 
L 439.642384 308.615436 
L 439.920292 305.259729 
L 440.476108 317.675847 
L 440.754016 306.937583 
L 441.031924 325.393974 
L 441.309831 313.313427 
L 441.587739 334.118813 
L 441.865647 321.367125 
L 442.143555 318.682559 
L 442.421463 331.098677 
L 442.699371 325.393974 
L 442.977278 323.71612 
L 443.255186 328.07854 
L 443.533094 340.830228 
L 443.811002 331.434247 
L 444.08891 349.555068 
L 444.366818 332.105389 
L 444.644725 336.132238 
L 444.922633 348.548356 
L 445.200541 336.803379 
L 445.478449 357.944337 
L 446.034265 335.796667 
L 446.312172 339.487945 
L 446.59008 348.548356 
L 446.867988 362.642327 
L 447.423804 342.843653 
L 447.701712 348.212785 
L 447.979619 360.293332 
L 448.257527 356.266483 
L 448.535435 366.333605 
L 448.813343 356.266483 
L 449.091251 357.608766 
L 449.369159 354.588629 
L 449.647066 355.259771 
L 449.924974 369.353742 
L 450.202882 359.62219 
L 450.48079 355.930912 
L 450.758698 357.273195 
L 451.036606 382.776572 
L 451.314513 360.964473 
L 451.592421 368.011459 
L 451.870329 382.105431 
L 452.148237 372.038308 
L 452.426145 378.414152 
L 452.704053 366.669176 
L 452.98196 387.138992 
L 453.259868 380.427577 
L 453.537776 383.112143 
L 453.815684 372.038308 
L 454.093592 387.810133 
L 454.3715 379.756435 
L 454.649407 386.13228 
L 454.927315 370.024884 
L 455.205223 377.071869 
L 455.483131 387.810133 
L 456.038947 383.783284 
L 456.316854 385.125567 
L 456.594762 385.796709 
L 456.87267 377.071869 
L 457.428486 395.528261 
L 457.706394 389.823558 
L 457.984301 393.850407 
L 458.262209 395.863831 
L 458.540117 395.19269 
L 458.818025 394.185978 
L 459.373841 395.528261 
L 459.929656 385.125567 
L 460.207564 401.904105 
L 460.485472 397.877256 
L 460.76338 390.494699 
L 461.041288 390.159129 
L 461.319195 396.870544 
L 461.597103 410.293374 
L 461.875011 403.917529 
L 462.152919 404.924242 
L 462.430827 400.561822 
L 462.708735 405.930954 
L 462.986642 404.588671 
L 463.26455 404.2531 
L 463.542458 400.561822 
L 463.820366 401.232963 
L 464.098274 402.239676 
L 464.376182 417.340359 
L 464.654089 403.246388 
L 464.931997 401.232963 
L 465.209905 412.642369 
L 465.487813 407.273237 
L 465.765721 406.937666 
L 466.043629 412.642369 
L 466.321536 406.266525 
L 466.599444 418.682642 
L 466.877352 413.649081 
L 467.15526 415.326935 
L 467.433168 414.655793 
L 467.711075 420.024925 
L 467.988983 410.293374 
L 468.822707 429.085336 
L 469.100615 419.353784 
L 469.378522 419.689355 
L 469.65643 422.03835 
L 469.934338 422.373921 
L 470.212246 413.984652 
L 470.490154 421.367208 
L 470.768062 423.716204 
L 471.045969 414.991364 
L 471.323877 416.669218 
L 471.601785 423.380633 
L 471.879693 425.729628 
L 472.435509 422.373921 
L 472.713416 415.662506 
L 472.991324 417.004789 
L 473.269232 428.414194 
L 473.54714 418.011501 
L 473.825048 427.743053 
L 474.380863 431.769902 
L 474.658771 428.414194 
L 474.936679 418.347072 
L 475.214587 424.722916 
L 475.492495 426.73634 
L 475.770403 417.340359 
L 476.04831 430.763189 
L 476.604126 424.387345 
L 476.882034 430.763189 
L 477.159942 428.078623 
L 477.43785 430.427619 
L 477.715757 430.092048 
L 477.993665 424.387345 
L 478.271573 435.125609 
L 478.549481 430.092048 
L 478.827389 435.796751 
L 479.105297 430.092048 
L 479.383204 434.118897 
L 479.661112 429.420906 
L 480.216928 434.790038 
L 480.494836 439.152458 
L 480.772744 439.488029 
L 481.050651 442.843736 
L 481.328559 431.434331 
L 481.606467 442.172595 
L 481.884375 429.420906 
L 482.440191 445.192732 
L 482.718098 437.474604 
L 482.996006 433.783326 
L 483.273914 443.514878 
L 483.551822 444.52159 
L 483.82973 443.514878 
L 484.107638 432.105472 
L 484.385545 440.830312 
L 484.663453 445.192732 
L 484.941361 444.186019 
L 485.219269 440.494741 
L 485.497177 439.488029 
L 485.775085 445.863873 
L 486.052992 445.192732 
L 486.3309 440.494741 
L 486.608808 440.15917 
L 486.886716 446.535015 
L 487.164624 448.212868 
L 487.442532 444.52159 
L 487.720439 447.877298 
L 487.998347 441.501453 
L 488.276255 443.514878 
L 488.554163 442.508166 
L 488.832071 442.508166 
L 489.109979 438.481317 
L 489.387886 444.186019 
L 489.665794 446.535015 
L 489.943702 442.172595 
L 490.22161 443.514878 
L 490.499518 447.541727 
L 490.777426 443.514878 
L 491.055333 446.870585 
L 491.333241 435.796751 
L 491.611149 452.239717 
L 491.889057 446.199444 
L 492.166965 455.259854 
L 492.444873 449.555151 
L 492.72278 449.555151 
L 493.000688 446.870585 
L 493.278596 441.165883 
L 493.556504 451.233005 
L 493.834412 453.582 
L 494.11232 454.253142 
L 494.390227 439.152458 
L 494.668135 447.541727 
L 494.946043 445.863873 
L 495.223951 446.535015 
L 495.501859 448.88401 
L 495.779767 449.555151 
L 496.057674 451.568576 
L 496.335582 450.897434 
L 496.61349 451.568576 
L 496.891398 441.165883 
L 497.169306 456.602137 
L 497.447214 457.608849 
L 497.725121 453.582 
L 498.003029 451.904147 
L 498.280937 451.904147 
L 498.558845 451.568576 
L 498.836753 448.548439 
L 499.11466 453.917571 
L 499.392568 455.259854 
L 499.670476 452.239717 
L 499.948384 456.602137 
L 500.226292 454.253142 
L 500.5042 449.219581 
L 500.782107 457.273279 
L 501.060015 452.239717 
L 501.337923 455.595425 
L 501.893739 448.88401 
L 502.171647 458.279991 
L 502.449554 459.622274 
L 502.727462 456.266566 
L 503.00537 458.279991 
L 503.283278 458.279991 
L 503.561186 460.293415 
L 503.839094 451.904147 
L 504.950725 461.300128 
L 505.228633 460.628986 
L 505.506541 454.924283 
L 505.784448 462.977981 
L 506.062356 459.957845 
L 506.340264 455.259854 
L 506.618172 453.917571 
L 506.89608 459.622274 
L 507.173988 454.924283 
L 507.451895 460.628986 
L 507.729803 457.273279 
L 508.007711 461.635698 
L 508.285619 461.971269 
L 508.563527 458.279991 
L 508.841435 459.286703 
L 509.119342 455.930996 
L 509.39725 455.259854 
L 509.675158 454.924283 
L 509.953066 460.628986 
L 510.230974 457.94442 
L 510.508882 458.279991 
L 510.786789 457.94442 
L 511.064697 456.937708 
L 511.342605 461.971269 
L 511.620513 459.622274 
L 511.898421 460.964557 
L 512.176329 457.608849 
L 512.454236 462.30684 
L 512.732144 464.991406 
L 513.010052 457.608849 
L 513.28796 460.293415 
L 513.565868 461.635698 
L 513.843776 465.662547 
L 514.121683 463.313552 
L 514.399591 463.984694 
L 514.677499 456.937708 
L 514.955407 460.628986 
L 515.233315 456.937708 
L 515.511223 463.649123 
L 515.78913 461.300128 
L 516.067038 460.964557 
L 516.344946 462.642411 
L 516.622854 465.662547 
L 516.900762 466.333689 
L 517.456577 461.635698 
L 517.734485 465.662547 
L 518.012393 467.675972 
L 518.290301 466.333689 
L 518.568209 461.971269 
L 518.846117 465.662547 
L 519.124024 465.662547 
L 519.401932 462.30684 
L 519.67984 469.689396 
L 519.957748 466.333689 
L 520.235656 467.340401 
L 520.513564 461.300128 
L 520.791471 466.66926 
L 521.069379 460.628986 
L 521.347287 462.977981 
L 521.625195 467.675972 
L 521.903103 468.347113 
L 522.181011 463.313552 
L 522.458918 463.649123 
L 522.736826 464.655835 
L 523.014734 469.353826 
L 523.292642 468.347113 
L 523.57055 465.998118 
L 524.126365 458.615562 
L 524.404273 468.682684 
L 524.682181 466.333689 
L 524.960089 467.340401 
L 525.237997 464.320264 
L 525.515905 468.682684 
L 525.793812 471.031679 
L 526.07172 470.024967 
L 526.349628 464.320264 
L 526.627536 467.675972 
L 527.183352 467.00483 
L 527.461259 463.649123 
L 527.739167 471.702821 
L 528.017075 468.011543 
L 528.294983 467.675972 
L 528.572891 465.662547 
L 528.850799 470.360538 
L 529.128706 467.675972 
L 529.406614 469.353826 
L 529.684522 466.66926 
L 529.96243 471.031679 
L 530.240338 470.360538 
L 530.518245 465.662547 
L 530.796153 469.689396 
L 531.074061 466.66926 
L 531.351969 474.387387 
L 531.629877 467.340401 
L 531.907785 474.051816 
L 532.185692 470.696109 
L 532.4636 471.702821 
L 532.741508 470.024967 
L 533.019416 465.998118 
L 533.297324 470.024967 
L 533.575232 470.360538 
L 533.853139 467.00483 
L 534.131047 471.031679 
L 534.408955 468.682684 
L 534.686863 469.018255 
L 535.242679 471.36725 
L 535.520586 472.038392 
L 535.798494 470.696109 
L 536.076402 473.380675 
L 536.35431 463.649123 
L 536.632218 469.353826 
L 536.910126 467.00483 
L 537.188033 470.696109 
L 537.465941 472.373962 
L 537.743849 464.991406 
L 538.021757 471.36725 
L 538.299665 470.360538 
L 538.85548 467.00483 
L 539.411296 473.380675 
L 539.689204 471.702821 
L 539.967112 473.716245 
L 540.522927 467.340401 
L 540.800835 476.400811 
L 541.078743 474.051816 
L 541.634559 472.038392 
L 541.912467 476.736382 
L 542.190374 474.387387 
L 542.468282 474.722958 
L 542.74619 470.360538 
L 543.024098 472.373962 
L 543.302006 471.031679 
L 543.579914 470.360538 
L 543.857821 475.72967 
L 544.135729 472.038392 
L 544.413637 473.045104 
L 544.691545 472.709533 
L 544.969453 472.709533 
L 545.247361 472.038392 
L 545.525268 469.018255 
L 545.803176 471.36725 
L 546.081084 470.696109 
L 546.358992 473.716245 
L 546.6369 474.722958 
L 546.914808 471.031679 
L 547.192715 474.722958 
L 547.470623 476.400811 
L 547.748531 477.071953 
L 548.026439 472.709533 
L 548.304347 474.722958 
L 548.582255 474.387387 
L 548.860162 471.031679 
L 549.13807 477.071953 
L 549.693886 470.360538 
L 549.971794 475.058528 
L 550.527609 473.380675 
L 550.805517 471.031679 
L 551.083425 475.394099 
L 551.361333 476.736382 
L 552.195056 469.353826 
L 552.472964 476.736382 
L 552.750872 477.407524 
L 553.02878 475.394099 
L 553.306688 475.394099 
L 553.584596 473.380675 
L 553.862503 468.682684 
L 554.140411 473.716245 
L 554.418319 474.722958 
L 554.696227 477.743094 
L 554.974135 473.716245 
L 555.252043 474.387387 
L 555.807858 477.743094 
L 556.085766 478.078665 
L 556.363674 477.407524 
L 556.641582 472.038392 
L 556.91949 478.078665 
L 557.197397 472.373962 
L 557.475305 473.716245 
L 557.753213 479.756519 
L 558.031121 473.380675 
L 558.309029 473.716245 
L 558.586937 475.394099 
L 558.864844 475.058528 
L 559.142752 478.414236 
L 559.42066 474.387387 
L 559.698568 477.407524 
L 559.976476 475.058528 
L 560.254384 471.031679 
L 560.810199 476.400811 
L 561.088107 476.400811 
L 561.366015 471.702821 
L 561.643923 478.414236 
L 561.92183 476.400811 
L 562.199738 476.065241 
L 562.477646 473.045104 
L 563.033462 477.743094 
L 563.31137 477.743094 
L 563.867185 475.394099 
L 564.145093 478.078665 
L 564.423001 473.716245 
L 564.700909 478.414236 
L 564.978817 473.380675 
L 565.256724 476.400811 
L 565.534632 475.058528 
L 565.81254 474.722958 
L 566.090448 477.743094 
L 566.368356 472.709533 
L 566.646264 475.394099 
L 566.924171 476.400811 
L 567.202079 479.085377 
L 567.479987 479.756519 
L 567.757895 476.400811 
L 568.035803 476.400811 
L 568.313711 477.743094 
L 568.591618 473.716245 
L 568.869526 476.065241 
L 569.147434 475.058528 
L 569.981158 479.420948 
L 570.259065 476.400811 
L 570.536973 478.078665 
L 570.814881 478.749807 
L 571.092789 476.400811 
L 571.370697 476.736382 
L 571.648605 476.065241 
L 571.926512 476.736382 
L 572.20442 476.736382 
L 572.482328 475.058528 
L 572.760236 479.756519 
L 573.038144 480.763231 
L 573.316052 475.058528 
L 573.593959 478.414236 
L 573.871867 475.394099 
L 574.149775 480.42766 
L 574.427683 474.387387 
L 574.705591 477.071953 
L 574.983499 475.72967 
L 575.261406 478.749807 
L 575.539314 478.078665 
L 576.09513 477.407524 
L 576.373038 478.078665 
L 576.650946 479.085377 
L 576.928853 477.743094 
L 577.206761 477.407524 
L 577.484669 479.756519 
L 577.762577 476.065241 
L 578.040485 480.42766 
L 578.318393 480.42766 
L 578.5963 477.071953 
L 578.874208 478.749807 
L 579.152116 477.407524 
L 579.430024 478.078665 
L 579.707932 479.085377 
L 579.98584 478.749807 
L 580.263747 477.407524 
L 580.541655 477.743094 
L 580.819563 476.400811 
L 581.097471 479.756519 
L 581.375379 479.085377 
L 581.653287 480.09209 
L 581.931194 479.756519 
L 582.209102 478.414236 
L 582.48701 481.098802 
L 582.764918 474.051816 
L 583.042826 479.420948 
L 583.320734 478.414236 
L 583.598641 478.414236 
L 583.876549 478.749807 
L 584.432365 478.078665 
L 584.710273 477.407524 
L 584.988181 476.400811 
L 585.266088 478.078665 
L 585.543996 478.414236 
L 585.821904 482.105514 
L 586.099812 479.420948 
L 586.933535 478.414236 
L 587.211443 481.434373 
L 587.489351 479.420948 
L 587.767259 479.420948 
L 588.045167 479.756519 
L 588.323075 476.400811 
L 588.600982 478.749807 
L 588.87889 482.441085 
L 589.156798 479.756519 
L 589.434706 481.434373 
L 589.712614 481.098802 
L 589.990522 481.098802 
L 590.268429 483.112226 
L 590.546337 478.414236 
L 591.102153 481.769943 
L 591.380061 479.085377 
L 591.935876 478.414236 
L 592.213784 479.420948 
L 592.491692 481.098802 
L 592.7696 476.736382 
L 593.047508 479.756519 
L 593.325415 476.400811 
L 593.603323 482.776656 
L 594.159139 480.42766 
L 594.437047 481.769943 
L 594.714955 481.098802 
L 594.992862 479.085377 
L 595.27077 479.420948 
L 595.548678 482.776656 
L 595.826586 483.112226 
L 596.104494 479.756519 
L 596.382402 482.441085 
L 596.660309 478.078665 
L 596.938217 477.407524 
L 597.216125 481.434373 
L 597.494033 477.407524 
L 597.771941 480.42766 
L 598.049849 480.09209 
L 598.327756 479.085377 
L 598.605664 483.447797 
L 598.883572 480.42766 
L 599.16148 480.763231 
L 599.439388 481.769943 
L 599.717296 478.749807 
L 599.995203 480.763231 
L 600.273111 481.098802 
L 600.551019 478.749807 
L 600.828927 478.414236 
L 601.106835 481.434373 
L 601.384743 480.763231 
L 601.66265 481.769943 
L 601.940558 480.42766 
L 602.218466 479.756519 
L 602.496374 481.098802 
L 602.774282 481.769943 
L 603.05219 482.776656 
L 603.330097 480.42766 
L 603.608005 480.42766 
L 603.885913 481.434373 
L 604.163821 480.09209 
L 604.441729 477.407524 
L 604.997544 481.098802 
L 605.275452 484.118939 
L 605.55336 478.749807 
L 605.831268 480.09209 
L 606.109176 480.42766 
L 606.387084 482.105514 
L 606.664991 481.434373 
L 606.942899 482.105514 
L 607.220807 482.105514 
L 607.498715 479.420948 
L 607.776623 482.776656 
L 608.054531 482.105514 
L 608.332438 482.105514 
L 608.610346 482.441085 
L 608.888254 478.749807 
L 609.166162 480.763231 
L 609.44407 481.769943 
L 609.721978 482.105514 
L 609.999885 483.112226 
L 610.555701 480.763231 
L 610.833609 482.105514 
L 611.111517 479.420948 
L 611.389425 481.098802 
L 611.667332 479.085377 
L 611.94524 480.09209 
L 612.501056 482.776656 
L 612.778964 476.400811 
L 613.056872 481.098802 
L 613.334779 483.447797 
L 613.612687 483.447797 
L 613.890595 480.42766 
L 614.168503 482.441085 
L 614.446411 479.756519 
L 614.724319 481.098802 
L 615.002226 480.763231 
L 615.280134 479.420948 
L 615.558042 482.105514 
L 615.83595 479.756519 
L 616.113858 481.434373 
L 616.391766 480.09209 
L 616.669673 483.112226 
L 616.947581 483.112226 
L 617.225489 477.407524 
L 617.503397 482.105514 
L 617.781305 482.776656 
L 618.059213 480.42766 
L 618.33712 483.783368 
L 618.892936 480.763231 
L 619.170844 483.447797 
L 619.448752 480.09209 
L 619.72666 483.447797 
L 620.004567 480.09209 
L 620.282475 481.098802 
L 620.560383 483.447797 
L 621.116199 480.42766 
L 621.394107 479.420948 
L 621.672014 480.09209 
L 621.949922 483.447797 
L 622.22783 484.118939 
L 622.505738 478.749807 
L 622.783646 480.763231 
L 623.061553 481.434373 
L 623.339461 482.776656 
L 623.617369 482.105514 
L 623.895277 480.42766 
L 624.173185 483.447797 
L 624.451093 484.118939 
L 624.729 484.118939 
L 625.006908 483.112226 
L 625.284816 481.098802 
L 625.562724 482.776656 
L 625.840632 482.776656 
L 626.11854 481.434373 
L 626.396447 482.441085 
L 626.674355 481.769943 
L 626.952263 483.447797 
L 627.230171 483.783368 
L 627.508079 484.79008 
L 627.785987 481.769943 
L 628.063894 480.763231 
L 628.61971 484.118939 
L 628.897618 481.769943 
L 629.175526 484.118939 
L 629.453434 481.769943 
L 629.731341 480.42766 
L 630.009249 482.441085 
L 630.287157 481.098802 
L 630.565065 483.447797 
L 630.842973 481.769943 
L 631.120881 482.105514 
L 631.398788 479.756519 
L 631.676696 481.769943 
L 631.954604 480.09209 
L 632.232512 483.112226 
L 632.51042 480.42766 
L 632.788328 482.776656 
L 633.066235 482.441085 
L 633.344143 481.098802 
L 633.622051 483.447797 
L 633.899959 482.105514 
L 634.177867 481.769943 
L 634.455775 482.441085 
L 634.733682 482.105514 
L 635.01159 484.118939 
L 635.289498 482.105514 
L 635.567406 483.112226 
L 635.845314 483.447797 
L 636.123222 481.769943 
L 636.401129 482.105514 
L 636.679037 483.112226 
L 636.956945 482.776656 
L 637.234853 484.118939 
L 637.512761 481.769943 
L 637.790669 485.796792 
L 638.068576 481.434373 
L 638.346484 481.769943 
L 638.624392 485.125651 
L 638.9023 483.447797 
L 639.180208 478.749807 
L 639.458116 483.783368 
L 639.736023 481.434373 
L 640.013931 484.118939 
L 640.291839 482.105514 
L 640.569747 484.79008 
L 640.847655 482.776656 
L 641.125563 482.105514 
L 641.40347 481.769943 
L 641.681378 483.447797 
L 641.959286 484.118939 
L 642.237194 479.756519 
L 642.515102 482.776656 
L 642.79301 483.447797 
L 643.070917 482.776656 
L 643.348825 484.454509 
L 643.626733 481.098802 
L 643.904641 482.441085 
L 644.182549 484.454509 
L 644.460457 481.434373 
L 644.738364 486.132363 
L 645.016272 482.441085 
L 645.29418 482.776656 
L 645.572088 480.42766 
L 645.849996 485.796792 
L 646.127904 484.118939 
L 646.405811 483.783368 
L 646.683719 484.79008 
L 646.961627 483.447797 
L 647.239535 484.79008 
L 647.517443 484.118939 
L 647.795351 485.796792 
L 648.351166 482.105514 
L 648.629074 483.112226 
L 648.906982 482.105514 
L 649.18489 484.118939 
L 649.462798 482.441085 
L 649.740705 486.132363 
L 650.018613 481.434373 
L 650.296521 481.098802 
L 650.574429 486.132363 
L 650.852337 482.441085 
L 651.130245 486.467934 
L 651.408152 481.769943 
L 651.68606 481.098802 
L 651.963968 483.783368 
L 652.241876 483.447797 
L 652.519784 484.118939 
L 652.797692 483.112226 
L 653.075599 481.098802 
L 653.353507 481.769943 
L 653.631415 485.125651 
L 653.909323 483.447797 
L 654.187231 482.776656 
L 654.465138 481.769943 
L 654.743046 483.447797 
L 655.020954 482.105514 
L 655.298862 482.776656 
L 655.57677 484.118939 
L 655.854678 482.441085 
L 656.132585 484.454509 
L 656.410493 484.118939 
L 656.688401 482.441085 
L 656.966309 484.118939 
L 657.244217 483.112226 
L 657.522125 482.776656 
L 657.800032 485.796792 
L 658.07794 482.441085 
L 658.355848 484.454509 
L 658.633756 482.441085 
L 658.911664 482.105514 
L 659.189572 484.79008 
L 659.467479 483.783368 
L 660.023295 481.098802 
L 660.301203 483.447797 
L 660.579111 483.783368 
L 660.857019 483.112226 
L 661.134926 481.434373 
L 661.412834 485.461222 
L 661.690742 483.447797 
L 661.96865 482.441085 
L 662.246558 484.454509 
L 662.524466 485.461222 
L 663.080281 484.79008 
L 663.358189 483.112226 
L 663.636097 484.79008 
L 663.914005 483.447797 
L 664.46982 486.803505 
L 664.747728 485.125651 
L 665.025636 484.79008 
L 665.303544 480.763231 
L 665.581452 482.441085 
L 665.85936 486.132363 
L 666.137267 483.112226 
L 666.415175 483.112226 
L 666.693083 481.098802 
L 667.248899 484.118939 
L 667.804714 483.447797 
L 668.36053 486.803505 
L 668.638438 484.454509 
L 668.916346 484.118939 
L 669.194254 485.461222 
L 669.472161 485.796792 
L 669.750069 484.118939 
L 670.305885 486.803505 
L 670.583793 484.118939 
L 670.861701 485.461222 
L 671.139608 483.447797 
L 671.417516 483.447797 
L 671.695424 483.783368 
L 671.973332 486.467934 
L 672.25124 483.447797 
L 672.529148 484.79008 
L 672.807055 483.783368 
L 673.084963 484.118939 
L 673.362871 483.447797 
L 673.640779 482.441085 
L 673.918687 486.132363 
L 674.196595 485.125651 
L 674.474502 486.132363 
L 674.75241 484.454509 
L 675.030318 484.79008 
L 675.308226 482.776656 
L 675.586134 483.447797 
L 675.864042 485.461222 
L 676.141949 486.132363 
L 676.419857 484.118939 
L 676.697765 484.118939 
L 676.975673 485.461222 
L 677.253581 484.79008 
L 677.531489 486.803505 
L 677.809396 484.79008 
L 678.087304 485.125651 
L 678.365212 486.467934 
L 678.64312 484.454509 
L 678.921028 484.118939 
L 679.198936 487.139075 
L 679.476843 485.461222 
L 679.754751 487.139075 
L 680.032659 486.467934 
L 680.310567 484.79008 
L 680.866383 485.461222 
L 681.14429 486.803505 
L 681.700106 485.125651 
L 681.978014 485.796792 
L 682.255922 484.118939 
L 682.53383 484.79008 
L 682.811737 486.132363 
L 683.089645 484.454509 
L 683.367553 483.783368 
L 683.923369 485.796792 
L 684.201277 484.118939 
L 684.479184 483.447797 
L 684.757092 486.467934 
L 685.035 485.125651 
L 685.035 485.125651 
" clip-path="url(#p6a5acf71f7)" style="fill: none; stroke: #0000ff; stroke-width: 1.5; stroke-linecap: square"/>
   </g>
   <g id="patch_3">
    <path d="M 129.775152 489.1525 
L 129.775152 36.72 
" style="fill: none; stroke: #000000; stroke-width: 0.8; stroke-linejoin: miter; stroke-linecap: square"/>
   </g>
   <g id="patch_4">
    <path d="M 685.035 489.1525 
L 685.035 36.72 
" style="fill: none; stroke: #000000; stroke-width: 0.8; stroke-linejoin: miter; stroke-linecap: square"/>
   </g>
   <g id="patch_5">
    <path d="M 129.775152 489.1525 
L 685.035 489.1525 
" style="fill: none; stroke: #000000; stroke-width: 0.8; stroke-linejoin: miter; stroke-linecap: square"/>
   </g>
   <g id="patch_6">
    <path d="M 129.775152 36.72 
L 685.035 36.72 
" style="fill: none; stroke: #000000; stroke-width: 0.8; stroke-linejoin: miter; stroke-linecap: square"/>
   </g>
   <g id="legend_1">
    <g id="patch_7">
     <path d="M 492.425 100.294688 
L 676.535 100.294688 
L 676.535 45.22 
L 492.425 45.22 
z
" style="fill: #ffffff; opacity: 0.8; stroke: #000000; stroke-linejoin: miter"/>
    </g>
    <g id="line2d_31">
     <path d="M 499.225 58.987344 
L 516.225 58.987344 
L 533.225 58.987344 
" style="fill: none; stroke-dasharray: 14.8,6.4; stroke-dashoffset: 0; stroke: #ff0000; stroke-width: 4"/>
    </g>
    <g id="text_17">
     <!-- $\rho_0$ -->
     <g transform="translate(546.825 64.937344) scale(0.17 -0.17)">
      <use xlink:href="#DejaVuSans-Oblique-3c1"/>
      <use xlink:href="#DejaVuSans-30" transform="translate(63.476562 -16.40625) scale(0.7)"/>
     </g>
    </g>
    <g id="line2d_32">
     <path d="M 499.225 83.974688 
L 516.225 83.974688 
L 533.225 83.974688 
" style="fill: none; stroke: #0000ff; stroke-width: 1.5; stroke-linecap: square"/>
    </g>
    <g id="text_18">
     <!-- $\rho_0,\it{U=0,n=2}$ -->
     <g transform="translate(546.825 89.924688) scale(0.17 -0.17)">
      <defs>
       <path id="DejaVuSans-2c" d="M 750 794 
L 1409 794 
L 1409 256 
L 897 -744 
L 494 -744 
L 750 256 
L 750 794 
z
" transform="scale(0.015625)"/>
       <path id="DejaVuSans-Oblique-55" d="M 991 4666 
L 1625 4666 
L 1075 1831 
Q 1041 1641 1027 1517 
Q 1013 1394 1013 1300 
Q 1013 869 1253 645 
Q 1494 422 1959 422 
Q 2563 422 2898 753 
Q 3234 1084 3378 1831 
L 3928 4666 
L 4563 4666 
L 4000 1753 
Q 3816 809 3300 359 
Q 2784 -91 1888 -91 
Q 1188 -91 780 261 
Q 372 613 372 1216 
Q 372 1325 387 1461 
Q 403 1597 434 1753 
L 991 4666 
z
" transform="scale(0.015625)"/>
       <path id="DejaVuSans-3d" d="M 678 2906 
L 4684 2906 
L 4684 2381 
L 678 2381 
L 678 2906 
z
M 678 1631 
L 4684 1631 
L 4684 1100 
L 678 1100 
L 678 1631 
z
" transform="scale(0.015625)"/>
       <path id="DejaVuSans-Oblique-6e" d="M 3566 2113 
L 3156 0 
L 2578 0 
L 2988 2091 
Q 3016 2238 3031 2350 
Q 3047 2463 3047 2528 
Q 3047 2791 2881 2937 
Q 2716 3084 2419 3084 
Q 1956 3084 1622 2776 
Q 1288 2469 1184 1941 
L 800 0 
L 225 0 
L 903 3500 
L 1478 3500 
L 1363 2950 
Q 1603 3253 1940 3418 
Q 2278 3584 2650 3584 
Q 3113 3584 3367 3334 
Q 3622 3084 3622 2631 
Q 3622 2519 3608 2391 
Q 3594 2263 3566 2113 
z
" transform="scale(0.015625)"/>
      </defs>
      <use xlink:href="#DejaVuSans-Oblique-3c1" transform="translate(0 0.78125)"/>
      <use xlink:href="#DejaVuSans-30" transform="translate(63.476562 -15.625) scale(0.7)"/>
      <use xlink:href="#DejaVuSans-2c" transform="translate(110.74707 0.78125)"/>
      <use xlink:href="#DejaVuSans-Oblique-55" transform="translate(162.016602 0.78125)"/>
      <use xlink:href="#DejaVuSans-3d" transform="translate(254.692383 0.78125)"/>
      <use xlink:href="#DejaVuSans-30" transform="translate(357.963867 0.78125)"/>
      <use xlink:href="#DejaVuSans-2c" transform="translate(421.586914 0.78125)"/>
      <use xlink:href="#DejaVuSans-Oblique-6e" transform="translate(472.856445 0.78125)"/>
      <use xlink:href="#DejaVuSans-3d" transform="translate(555.717773 0.78125)"/>
      <use xlink:href="#DejaVuSans-32" transform="translate(658.989258 0.78125)"/>
     </g>
    </g>
   </g>
  </g>
 </g>
 <defs>
  <clipPath id="p6a5acf71f7">
   <rect x="129.775152" y="36.72" width="555.259848" height="452.4325"/>
  </clipPath>
 </defs>
</svg>
