<?xml version="1.0" encoding="utf-8" standalone="no"?>
<!DOCTYPE svg PUBLIC "-//W3C//DTD SVG 1.1//EN"
  "http://www.w3.org/Graphics/SVG/1.1/DTD/svg11.dtd">
<svg xmlns:xlink="http://www.w3.org/1999/xlink" width="720pt" height="576pt" viewBox="0 0 720 576" xmlns="http://www.w3.org/2000/svg" version="1.1">
 <metadata>
  <rdf:RDF xmlns:dc="http://purl.org/dc/elements/1.1/" xmlns:cc="http://creativecommons.org/ns#" xmlns:rdf="http://www.w3.org/1999/02/22-rdf-syntax-ns#">
   <cc:Work>
    <dc:type rdf:resource="http://purl.org/dc/dcmitype/StillImage"/>
    <dc:date>2023-04-09T05:21:55.845568</dc:date>
    <dc:format>image/svg+xml</dc:format>
    <dc:creator>
     <cc:Agent>
      <dc:title>Matplotlib v3.7.1, https://matplotlib.org/</dc:title>
     </cc:Agent>
    </dc:creator>
   </cc:Work>
  </rdf:RDF>
 </metadata>
 <defs>
  <style type="text/css">*{stroke-linejoin: round; stroke-linecap: butt}</style>
 </defs>
 <g id="figure_1">
  <g id="patch_1">
   <path d="M 0 576 
L 720 576 
L 720 0 
L 0 0 
z
" style="fill: #ffffff"/>
  </g>
  <g id="axes_1">
   <g id="patch_2">
    <path d="M 129.775152 489.1525 
L 685.035 489.1525 
L 685.035 36.72 
L 129.775152 36.72 
z
" style="fill: #ffffff"/>
   </g>
   <g id="matplotlib.axis_1">
    <g id="xtick_1">
     <g id="line2d_1">
      <path d="M 129.775152 489.1525 
L 129.775152 36.72 
" clip-path="url(#p12015c4fcb)" style="fill: none; stroke: #b0b0b0; stroke-width: 0.8; stroke-linecap: square"/>
     </g>
     <g id="line2d_2">
      <defs>
       <path id="m5434cce614" d="M 0 0 
L 0 3.5 
" style="stroke: #000000; stroke-width: 0.8"/>
      </defs>
      <g>
       <use xlink:href="#m5434cce614" x="129.775152" y="489.1525" style="stroke: #000000; stroke-width: 0.8"/>
      </g>
     </g>
     <g id="text_1">
      <!-- −3 -->
      <g transform="translate(111.347418 515.148594) scale(0.25 -0.25)">
       <defs>
        <path id="DejaVuSans-2212" d="M 678 2272 
L 4684 2272 
L 4684 1741 
L 678 1741 
L 678 2272 
z
" transform="scale(0.015625)"/>
        <path id="DejaVuSans-33" d="M 2597 2516 
Q 3050 2419 3304 2112 
Q 3559 1806 3559 1356 
Q 3559 666 3084 287 
Q 2609 -91 1734 -91 
Q 1441 -91 1130 -33 
Q 819 25 488 141 
L 488 750 
Q 750 597 1062 519 
Q 1375 441 1716 441 
Q 2309 441 2620 675 
Q 2931 909 2931 1356 
Q 2931 1769 2642 2001 
Q 2353 2234 1838 2234 
L 1294 2234 
L 1294 2753 
L 1863 2753 
Q 2328 2753 2575 2939 
Q 2822 3125 2822 3475 
Q 2822 3834 2567 4026 
Q 2313 4219 1838 4219 
Q 1578 4219 1281 4162 
Q 984 4106 628 3988 
L 628 4550 
Q 988 4650 1302 4700 
Q 1616 4750 1894 4750 
Q 2613 4750 3031 4423 
Q 3450 4097 3450 3541 
Q 3450 3153 3228 2886 
Q 3006 2619 2597 2516 
z
" transform="scale(0.015625)"/>
       </defs>
       <use xlink:href="#DejaVuSans-2212"/>
       <use xlink:href="#DejaVuSans-33" x="83.789062"/>
      </g>
     </g>
    </g>
    <g id="xtick_2">
     <g id="line2d_3">
      <path d="M 222.31846 489.1525 
L 222.31846 36.72 
" clip-path="url(#p12015c4fcb)" style="fill: none; stroke: #b0b0b0; stroke-width: 0.8; stroke-linecap: square"/>
     </g>
     <g id="line2d_4">
      <g>
       <use xlink:href="#m5434cce614" x="222.31846" y="489.1525" style="stroke: #000000; stroke-width: 0.8"/>
      </g>
     </g>
     <g id="text_2">
      <!-- −2 -->
      <g transform="translate(203.890726 515.148594) scale(0.25 -0.25)">
       <defs>
        <path id="DejaVuSans-32" d="M 1228 531 
L 3431 531 
L 3431 0 
L 469 0 
L 469 531 
Q 828 903 1448 1529 
Q 2069 2156 2228 2338 
Q 2531 2678 2651 2914 
Q 2772 3150 2772 3378 
Q 2772 3750 2511 3984 
Q 2250 4219 1831 4219 
Q 1534 4219 1204 4116 
Q 875 4013 500 3803 
L 500 4441 
Q 881 4594 1212 4672 
Q 1544 4750 1819 4750 
Q 2544 4750 2975 4387 
Q 3406 4025 3406 3419 
Q 3406 3131 3298 2873 
Q 3191 2616 2906 2266 
Q 2828 2175 2409 1742 
Q 1991 1309 1228 531 
z
" transform="scale(0.015625)"/>
       </defs>
       <use xlink:href="#DejaVuSans-2212"/>
       <use xlink:href="#DejaVuSans-32" x="83.789062"/>
      </g>
     </g>
    </g>
    <g id="xtick_3">
     <g id="line2d_5">
      <path d="M 314.861768 489.1525 
L 314.861768 36.72 
" clip-path="url(#p12015c4fcb)" style="fill: none; stroke: #b0b0b0; stroke-width: 0.8; stroke-linecap: square"/>
     </g>
     <g id="line2d_6">
      <g>
       <use xlink:href="#m5434cce614" x="314.861768" y="489.1525" style="stroke: #000000; stroke-width: 0.8"/>
      </g>
     </g>
     <g id="text_3">
      <!-- −1 -->
      <g transform="translate(296.434034 515.148594) scale(0.25 -0.25)">
       <defs>
        <path id="DejaVuSans-31" d="M 794 531 
L 1825 531 
L 1825 4091 
L 703 3866 
L 703 4441 
L 1819 4666 
L 2450 4666 
L 2450 531 
L 3481 531 
L 3481 0 
L 794 0 
L 794 531 
z
" transform="scale(0.015625)"/>
       </defs>
       <use xlink:href="#DejaVuSans-2212"/>
       <use xlink:href="#DejaVuSans-31" x="83.789062"/>
      </g>
     </g>
    </g>
    <g id="xtick_4">
     <g id="line2d_7">
      <path d="M 407.405076 489.1525 
L 407.405076 36.72 
" clip-path="url(#p12015c4fcb)" style="fill: none; stroke: #b0b0b0; stroke-width: 0.8; stroke-linecap: square"/>
     </g>
     <g id="line2d_8">
      <g>
       <use xlink:href="#m5434cce614" x="407.405076" y="489.1525" style="stroke: #000000; stroke-width: 0.8"/>
      </g>
     </g>
     <g id="text_4">
      <!-- 0 -->
      <g transform="translate(399.451951 515.148594) scale(0.25 -0.25)">
       <defs>
        <path id="DejaVuSans-30" d="M 2034 4250 
Q 1547 4250 1301 3770 
Q 1056 3291 1056 2328 
Q 1056 1369 1301 889 
Q 1547 409 2034 409 
Q 2525 409 2770 889 
Q 3016 1369 3016 2328 
Q 3016 3291 2770 3770 
Q 2525 4250 2034 4250 
z
M 2034 4750 
Q 2819 4750 3233 4129 
Q 3647 3509 3647 2328 
Q 3647 1150 3233 529 
Q 2819 -91 2034 -91 
Q 1250 -91 836 529 
Q 422 1150 422 2328 
Q 422 3509 836 4129 
Q 1250 4750 2034 4750 
z
" transform="scale(0.015625)"/>
       </defs>
       <use xlink:href="#DejaVuSans-30"/>
      </g>
     </g>
    </g>
    <g id="xtick_5">
     <g id="line2d_9">
      <path d="M 499.948384 489.1525 
L 499.948384 36.72 
" clip-path="url(#p12015c4fcb)" style="fill: none; stroke: #b0b0b0; stroke-width: 0.8; stroke-linecap: square"/>
     </g>
     <g id="line2d_10">
      <g>
       <use xlink:href="#m5434cce614" x="499.948384" y="489.1525" style="stroke: #000000; stroke-width: 0.8"/>
      </g>
     </g>
     <g id="text_5">
      <!-- 1 -->
      <g transform="translate(491.995259 515.148594) scale(0.25 -0.25)">
       <use xlink:href="#DejaVuSans-31"/>
      </g>
     </g>
    </g>
    <g id="xtick_6">
     <g id="line2d_11">
      <path d="M 592.491692 489.1525 
L 592.491692 36.72 
" clip-path="url(#p12015c4fcb)" style="fill: none; stroke: #b0b0b0; stroke-width: 0.8; stroke-linecap: square"/>
     </g>
     <g id="line2d_12">
      <g>
       <use xlink:href="#m5434cce614" x="592.491692" y="489.1525" style="stroke: #000000; stroke-width: 0.8"/>
      </g>
     </g>
     <g id="text_6">
      <!-- 2 -->
      <g transform="translate(584.538567 515.148594) scale(0.25 -0.25)">
       <use xlink:href="#DejaVuSans-32"/>
      </g>
     </g>
    </g>
    <g id="xtick_7">
     <g id="line2d_13">
      <path d="M 685.035 489.1525 
L 685.035 36.72 
" clip-path="url(#p12015c4fcb)" style="fill: none; stroke: #b0b0b0; stroke-width: 0.8; stroke-linecap: square"/>
     </g>
     <g id="line2d_14">
      <g>
       <use xlink:href="#m5434cce614" x="685.035" y="489.1525" style="stroke: #000000; stroke-width: 0.8"/>
      </g>
     </g>
     <g id="text_7">
      <!-- 3 -->
      <g transform="translate(677.081875 515.148594) scale(0.25 -0.25)">
       <use xlink:href="#DejaVuSans-33"/>
      </g>
     </g>
    </g>
    <g id="text_8">
     <!-- $\omega$ [-] -->
     <g transform="translate(382.530076 541.351719) scale(0.25 -0.25)">
      <defs>
       <path id="DejaVuSans-Oblique-3c9" d="M 1369 -91 
Q 72 -91 434 1766 
Q 575 2500 1256 3500 
L 1875 3500 
Q 1231 2500 1088 1750 
Q 819 397 1519 397 
Q 2166 397 2478 2078 
L 3009 2078 
Q 2669 388 3316 397 
Q 4013 403 4275 1750 
Q 4419 2500 4169 3500 
L 4788 3500 
Q 5075 2500 4934 1766 
Q 4578 -94 3278 -91 
Q 2428 -88 2503 844 
Q 2194 -91 1369 -91 
z
" transform="scale(0.015625)"/>
       <path id="Calibri-20" transform="scale(0.015625)"/>
       <path id="Calibri-5b" d="M 1684 -813 
Q 1684 -916 1661 -958 
Q 1638 -1000 1594 -1000 
L 794 -1000 
Q 756 -1000 722 -989 
Q 688 -978 659 -953 
Q 631 -928 614 -886 
Q 597 -844 597 -781 
L 597 4153 
Q 597 4213 614 4255 
Q 631 4297 659 4323 
Q 688 4350 722 4361 
Q 756 4372 794 4372 
L 1594 4372 
Q 1613 4372 1630 4362 
Q 1647 4353 1659 4328 
Q 1672 4303 1678 4267 
Q 1684 4231 1684 4178 
Q 1684 4078 1661 4034 
Q 1638 3991 1594 3991 
L 1084 3991 
L 1084 -622 
L 1594 -622 
Q 1613 -622 1630 -631 
Q 1647 -641 1659 -664 
Q 1672 -688 1678 -723 
Q 1684 -759 1684 -813 
z
" transform="scale(0.015625)"/>
       <path id="Calibri-2d" d="M 1744 1578 
Q 1744 1456 1716 1409 
Q 1688 1363 1634 1363 
L 328 1363 
Q 272 1363 244 1411 
Q 216 1459 216 1578 
Q 216 1697 244 1744 
Q 272 1791 328 1791 
L 1634 1791 
Q 1659 1791 1679 1781 
Q 1700 1772 1714 1745 
Q 1728 1719 1736 1678 
Q 1744 1638 1744 1578 
z
" transform="scale(0.015625)"/>
       <path id="Calibri-5d" d="M 1369 -781 
Q 1369 -844 1351 -886 
Q 1334 -928 1306 -953 
Q 1278 -978 1242 -989 
Q 1206 -1000 1169 -1000 
L 372 -1000 
Q 328 -1000 304 -958 
Q 281 -916 281 -813 
Q 281 -759 286 -723 
Q 291 -688 303 -664 
Q 316 -641 333 -631 
Q 350 -622 372 -622 
L 881 -622 
L 881 3991 
L 372 3991 
Q 328 3991 304 4034 
Q 281 4078 281 4178 
Q 281 4231 286 4267 
Q 291 4303 303 4328 
Q 316 4353 333 4362 
Q 350 4372 372 4372 
L 1169 4372 
Q 1206 4372 1242 4361 
Q 1278 4350 1306 4323 
Q 1334 4297 1351 4255 
Q 1369 4213 1369 4153 
L 1369 -781 
z
" transform="scale(0.015625)"/>
      </defs>
      <use xlink:href="#DejaVuSans-Oblique-3c9" transform="translate(0 0.6875)"/>
      <use xlink:href="#Calibri-20" transform="translate(83.740234 0.6875)"/>
      <use xlink:href="#Calibri-5b" transform="translate(106.347656 0.6875)"/>
      <use xlink:href="#Calibri-2d" transform="translate(137.011719 0.6875)"/>
      <use xlink:href="#Calibri-5d" transform="translate(167.626953 0.6875)"/>
     </g>
    </g>
   </g>
   <g id="matplotlib.axis_2">
    <g id="ytick_1">
     <g id="line2d_15">
      <path d="M 129.775152 489.1525 
L 685.035 489.1525 
" clip-path="url(#p12015c4fcb)" style="fill: none; stroke: #b0b0b0; stroke-width: 0.8; stroke-linecap: square"/>
     </g>
     <g id="line2d_16">
      <defs>
       <path id="m9b6667f7ee" d="M 0 0 
L -3.5 0 
" style="stroke: #000000; stroke-width: 0.8"/>
      </defs>
      <g>
       <use xlink:href="#m9b6667f7ee" x="129.775152" y="489.1525" style="stroke: #000000; stroke-width: 0.8"/>
      </g>
     </g>
     <g id="text_9">
      <!-- 0.0 -->
      <g transform="translate(83.017339 498.650547) scale(0.25 -0.25)">
       <defs>
        <path id="DejaVuSans-2e" d="M 684 794 
L 1344 794 
L 1344 0 
L 684 0 
L 684 794 
z
" transform="scale(0.015625)"/>
       </defs>
       <use xlink:href="#DejaVuSans-30"/>
       <use xlink:href="#DejaVuSans-2e" x="63.623047"/>
       <use xlink:href="#DejaVuSans-30" x="95.410156"/>
      </g>
     </g>
    </g>
    <g id="ytick_2">
     <g id="line2d_17">
      <path d="M 129.775152 413.747083 
L 685.035 413.747083 
" clip-path="url(#p12015c4fcb)" style="fill: none; stroke: #b0b0b0; stroke-width: 0.8; stroke-linecap: square"/>
     </g>
     <g id="line2d_18">
      <g>
       <use xlink:href="#m9b6667f7ee" x="129.775152" y="413.747083" style="stroke: #000000; stroke-width: 0.8"/>
      </g>
     </g>
     <g id="text_10">
      <!-- 0.2 -->
      <g transform="translate(83.017339 423.24513) scale(0.25 -0.25)">
       <use xlink:href="#DejaVuSans-30"/>
       <use xlink:href="#DejaVuSans-2e" x="63.623047"/>
       <use xlink:href="#DejaVuSans-32" x="95.410156"/>
      </g>
     </g>
    </g>
    <g id="ytick_3">
     <g id="line2d_19">
      <path d="M 129.775152 338.341667 
L 685.035 338.341667 
" clip-path="url(#p12015c4fcb)" style="fill: none; stroke: #b0b0b0; stroke-width: 0.8; stroke-linecap: square"/>
     </g>
     <g id="line2d_20">
      <g>
       <use xlink:href="#m9b6667f7ee" x="129.775152" y="338.341667" style="stroke: #000000; stroke-width: 0.8"/>
      </g>
     </g>
     <g id="text_11">
      <!-- 0.4 -->
      <g transform="translate(83.017339 347.839714) scale(0.25 -0.25)">
       <defs>
        <path id="DejaVuSans-34" d="M 2419 4116 
L 825 1625 
L 2419 1625 
L 2419 4116 
z
M 2253 4666 
L 3047 4666 
L 3047 1625 
L 3713 1625 
L 3713 1100 
L 3047 1100 
L 3047 0 
L 2419 0 
L 2419 1100 
L 313 1100 
L 313 1709 
L 2253 4666 
z
" transform="scale(0.015625)"/>
       </defs>
       <use xlink:href="#DejaVuSans-30"/>
       <use xlink:href="#DejaVuSans-2e" x="63.623047"/>
       <use xlink:href="#DejaVuSans-34" x="95.410156"/>
      </g>
     </g>
    </g>
    <g id="ytick_4">
     <g id="line2d_21">
      <path d="M 129.775152 262.93625 
L 685.035 262.93625 
" clip-path="url(#p12015c4fcb)" style="fill: none; stroke: #b0b0b0; stroke-width: 0.8; stroke-linecap: square"/>
     </g>
     <g id="line2d_22">
      <g>
       <use xlink:href="#m9b6667f7ee" x="129.775152" y="262.93625" style="stroke: #000000; stroke-width: 0.8"/>
      </g>
     </g>
     <g id="text_12">
      <!-- 0.6 -->
      <g transform="translate(83.017339 272.434297) scale(0.25 -0.25)">
       <defs>
        <path id="DejaVuSans-36" d="M 2113 2584 
Q 1688 2584 1439 2293 
Q 1191 2003 1191 1497 
Q 1191 994 1439 701 
Q 1688 409 2113 409 
Q 2538 409 2786 701 
Q 3034 994 3034 1497 
Q 3034 2003 2786 2293 
Q 2538 2584 2113 2584 
z
M 3366 4563 
L 3366 3988 
Q 3128 4100 2886 4159 
Q 2644 4219 2406 4219 
Q 1781 4219 1451 3797 
Q 1122 3375 1075 2522 
Q 1259 2794 1537 2939 
Q 1816 3084 2150 3084 
Q 2853 3084 3261 2657 
Q 3669 2231 3669 1497 
Q 3669 778 3244 343 
Q 2819 -91 2113 -91 
Q 1303 -91 875 529 
Q 447 1150 447 2328 
Q 447 3434 972 4092 
Q 1497 4750 2381 4750 
Q 2619 4750 2861 4703 
Q 3103 4656 3366 4563 
z
" transform="scale(0.015625)"/>
       </defs>
       <use xlink:href="#DejaVuSans-30"/>
       <use xlink:href="#DejaVuSans-2e" x="63.623047"/>
       <use xlink:href="#DejaVuSans-36" x="95.410156"/>
      </g>
     </g>
    </g>
    <g id="ytick_5">
     <g id="line2d_23">
      <path d="M 129.775152 187.530833 
L 685.035 187.530833 
" clip-path="url(#p12015c4fcb)" style="fill: none; stroke: #b0b0b0; stroke-width: 0.8; stroke-linecap: square"/>
     </g>
     <g id="line2d_24">
      <g>
       <use xlink:href="#m9b6667f7ee" x="129.775152" y="187.530833" style="stroke: #000000; stroke-width: 0.8"/>
      </g>
     </g>
     <g id="text_13">
      <!-- 0.8 -->
      <g transform="translate(83.017339 197.02888) scale(0.25 -0.25)">
       <defs>
        <path id="DejaVuSans-38" d="M 2034 2216 
Q 1584 2216 1326 1975 
Q 1069 1734 1069 1313 
Q 1069 891 1326 650 
Q 1584 409 2034 409 
Q 2484 409 2743 651 
Q 3003 894 3003 1313 
Q 3003 1734 2745 1975 
Q 2488 2216 2034 2216 
z
M 1403 2484 
Q 997 2584 770 2862 
Q 544 3141 544 3541 
Q 544 4100 942 4425 
Q 1341 4750 2034 4750 
Q 2731 4750 3128 4425 
Q 3525 4100 3525 3541 
Q 3525 3141 3298 2862 
Q 3072 2584 2669 2484 
Q 3125 2378 3379 2068 
Q 3634 1759 3634 1313 
Q 3634 634 3220 271 
Q 2806 -91 2034 -91 
Q 1263 -91 848 271 
Q 434 634 434 1313 
Q 434 1759 690 2068 
Q 947 2378 1403 2484 
z
M 1172 3481 
Q 1172 3119 1398 2916 
Q 1625 2713 2034 2713 
Q 2441 2713 2670 2916 
Q 2900 3119 2900 3481 
Q 2900 3844 2670 4047 
Q 2441 4250 2034 4250 
Q 1625 4250 1398 4047 
Q 1172 3844 1172 3481 
z
" transform="scale(0.015625)"/>
       </defs>
       <use xlink:href="#DejaVuSans-30"/>
       <use xlink:href="#DejaVuSans-2e" x="63.623047"/>
       <use xlink:href="#DejaVuSans-38" x="95.410156"/>
      </g>
     </g>
    </g>
    <g id="ytick_6">
     <g id="line2d_25">
      <path d="M 129.775152 112.125417 
L 685.035 112.125417 
" clip-path="url(#p12015c4fcb)" style="fill: none; stroke: #b0b0b0; stroke-width: 0.8; stroke-linecap: square"/>
     </g>
     <g id="line2d_26">
      <g>
       <use xlink:href="#m9b6667f7ee" x="129.775152" y="112.125417" style="stroke: #000000; stroke-width: 0.8"/>
      </g>
     </g>
     <g id="text_14">
      <!-- 1.0 -->
      <g transform="translate(83.017339 121.623464) scale(0.25 -0.25)">
       <use xlink:href="#DejaVuSans-31"/>
       <use xlink:href="#DejaVuSans-2e" x="63.623047"/>
       <use xlink:href="#DejaVuSans-30" x="95.410156"/>
      </g>
     </g>
    </g>
    <g id="ytick_7">
     <g id="line2d_27">
      <path d="M 129.775152 36.72 
L 685.035 36.72 
" clip-path="url(#p12015c4fcb)" style="fill: none; stroke: #b0b0b0; stroke-width: 0.8; stroke-linecap: square"/>
     </g>
     <g id="line2d_28">
      <g>
       <use xlink:href="#m9b6667f7ee" x="129.775152" y="36.72" style="stroke: #000000; stroke-width: 0.8"/>
      </g>
     </g>
     <g id="text_15">
      <!-- 1.2 -->
      <g transform="translate(83.017339 46.218047) scale(0.25 -0.25)">
       <use xlink:href="#DejaVuSans-31"/>
       <use xlink:href="#DejaVuSans-2e" x="63.623047"/>
       <use xlink:href="#DejaVuSans-32" x="95.410156"/>
      </g>
     </g>
    </g>
    <g id="text_16">
     <!-- $\rho$($\omega$) -->
     <g transform="translate(27.017339 257.68625) scale(0.25 -0.25)">
      <defs>
       <path id="DejaVuSans-Oblique-3c1" d="M 1203 2875 
Q 1453 3194 1981 3475 
Q 2188 3584 2756 3584 
Q 3394 3584 3694 3078 
Q 3994 2572 3834 1747 
Q 3672 922 3175 415 
Q 2678 -91 2041 -91 
Q 1656 -91 1409 63 
Q 1163 213 1044 525 
L 681 -1331 
L 103 -1331 
L 697 1716 
Q 838 2438 1203 2875 
z
M 3238 1747 
Q 3359 2381 3169 2744 
Q 2978 3103 2522 3103 
Q 2066 3103 1734 2744 
Q 1403 2381 1281 1747 
Q 1156 1113 1347 750 
Q 1538 391 1994 391 
Q 2450 391 2781 750 
Q 3113 1113 3238 1747 
z
" transform="scale(0.015625)"/>
       <path id="Calibri-28" d="M 1547 4306 
Q 1250 3678 1104 3017 
Q 959 2356 959 1688 
Q 959 1016 1107 356 
Q 1256 -303 1541 -938 
Q 1556 -975 1557 -1001 
Q 1559 -1028 1537 -1045 
Q 1516 -1063 1470 -1070 
Q 1425 -1078 1347 -1078 
Q 1291 -1078 1250 -1075 
Q 1209 -1072 1179 -1062 
Q 1150 -1053 1131 -1040 
Q 1113 -1028 1103 -1013 
Q 934 -694 806 -367 
Q 678 -41 590 296 
Q 503 634 459 979 
Q 416 1325 416 1678 
Q 416 2031 464 2375 
Q 513 2719 602 3058 
Q 691 3397 819 3725 
Q 947 4053 1106 4375 
Q 1109 4388 1123 4397 
Q 1138 4406 1163 4415 
Q 1188 4425 1231 4429 
Q 1275 4434 1344 4434 
Q 1416 4434 1459 4425 
Q 1503 4416 1528 4400 
Q 1553 4384 1556 4359 
Q 1559 4334 1547 4306 
z
" transform="scale(0.015625)"/>
       <path id="Calibri-29" d="M 1522 1678 
Q 1522 1325 1478 979 
Q 1434 634 1346 296 
Q 1259 -41 1132 -367 
Q 1006 -694 838 -1013 
Q 828 -1028 809 -1040 
Q 791 -1053 761 -1062 
Q 731 -1072 690 -1075 
Q 650 -1078 594 -1078 
Q 513 -1078 467 -1070 
Q 422 -1063 401 -1045 
Q 381 -1028 382 -1001 
Q 384 -975 400 -938 
Q 688 -306 834 355 
Q 981 1016 981 1688 
Q 981 2356 834 3017 
Q 688 3678 394 4306 
Q 381 4334 384 4359 
Q 388 4384 413 4400 
Q 438 4416 481 4425 
Q 525 4434 597 4434 
Q 663 4434 706 4429 
Q 750 4425 776 4415 
Q 803 4406 815 4397 
Q 828 4388 834 4375 
Q 1156 3734 1339 3057 
Q 1522 2381 1522 1678 
z
" transform="scale(0.015625)"/>
      </defs>
      <use xlink:href="#DejaVuSans-Oblique-3c1" transform="translate(0 0.71875)"/>
      <use xlink:href="#Calibri-28" transform="translate(63.476562 0.71875)"/>
      <use xlink:href="#DejaVuSans-Oblique-3c9" transform="translate(93.798828 0.71875)"/>
      <use xlink:href="#Calibri-29" transform="translate(177.539062 0.71875)"/>
     </g>
    </g>
   </g>
   <g id="line2d_29">
    <path d="M 129.775152 485.191726 
L 155.342673 484.357586 
L 176.463668 483.453498 
L 194.527677 482.46213 
L 209.812608 481.407831 
L 223.152183 480.271633 
L 234.824312 479.061062 
L 245.106902 477.779351 
L 254.277861 476.42091 
L 262.615096 474.96598 
L 270.118607 473.43544 
L 277.066303 471.789852 
L 283.180275 470.122023 
L 289.01634 468.299747 
L 294.296588 466.420579 
L 299.298929 464.401354 
L 303.745455 462.37756 
L 307.914072 460.252334 
L 312.08269 457.871329 
L 315.973399 455.381981 
L 319.586201 452.803903 
L 322.921095 450.162848 
L 326.255989 447.235062 
L 329.312975 444.264491 
L 332.369961 440.981839 
L 335.14904 437.690985 
L 337.928118 434.069935 
L 340.707196 430.076083 
L 343.486275 425.660385 
L 345.987445 421.279051 
L 348.488616 416.463255 
L 350.989786 411.159493 
L 353.490957 405.30707 
L 355.992127 398.837288 
L 358.493298 391.672671 
L 360.71656 384.650778 
L 362.939823 376.943851 
L 365.163086 368.478348 
L 367.386348 359.175174 
L 369.609611 348.950806 
L 371.832874 337.719359 
L 374.056136 325.396011 
L 376.279399 311.90232 
L 378.780569 295.243962 
L 381.28174 276.972296 
L 383.78291 257.104693 
L 386.561989 233.312559 
L 390.17479 200.351722 
L 396.010855 146.782085 
L 398.234118 128.471207 
L 399.901565 116.346345 
L 401.291104 107.617616 
L 402.680643 100.372585 
L 403.792274 95.775724 
L 404.625998 93.082969 
L 405.459721 91.068857 
L 406.015537 90.113935 
L 406.571352 89.474771 
L 407.127168 89.15442 
L 407.682984 89.15442 
L 408.238799 89.474771 
L 408.794615 90.113935 
L 409.350431 91.068857 
L 410.184154 93.082969 
L 411.017878 95.775724 
L 412.129509 100.372585 
L 413.24114 106.043297 
L 414.63068 114.492112 
L 416.298127 126.340685 
L 418.243481 142.019089 
L 420.744652 164.145858 
L 430.749334 254.802741 
L 433.528412 276.972296 
L 436.029583 295.243962 
L 438.530753 311.90232 
L 441.031924 326.998923 
L 443.533094 340.626334 
L 445.756357 351.597943 
L 447.979619 361.584007 
L 450.202882 370.670079 
L 452.704053 379.918766 
L 455.205223 388.242991 
L 457.706394 395.743738 
L 460.207564 402.512223 
L 462.708735 408.630041 
L 465.209905 414.169702 
L 467.711075 419.195358 
L 470.212246 423.763608 
L 472.991324 428.363411 
L 475.770403 432.519723 
L 478.549481 436.284441 
L 481.328559 439.702634 
L 484.385545 443.109017 
L 487.442532 446.188525 
L 490.777426 449.220669 
L 494.11232 451.953137 
L 497.725121 454.617796 
L 501.337923 457.013907 
L 505.228633 459.332771 
L 509.39725 461.555817 
L 513.843776 463.669574 
L 518.568209 465.665121 
L 523.57055 467.537459 
L 529.128706 469.370984 
L 534.964771 471.059658 
L 541.356651 472.675741 
L 548.304347 474.201372 
L 556.085766 475.674049 
L 564.700909 477.06667 
L 574.149775 478.361688 
L 584.710273 479.578987 
L 596.660309 480.725143 
L 610.277793 481.798417 
L 625.840632 482.792931 
L 643.626733 483.701997 
L 664.46982 484.540252 
L 685.035 485.191726 
L 685.035 485.191726 
" clip-path="url(#p12015c4fcb)" style="fill: none; stroke-dasharray: 14.8,6.4; stroke-dashoffset: 0; stroke: #ff0000; stroke-width: 4"/>
   </g>
   <g id="line2d_30">
    <path d="M 129.775152 480.99029 
L 130.330968 483.119562 
L 130.608875 479.570776 
L 130.886783 484.184199 
L 131.164691 479.215897 
L 131.442599 483.474441 
L 131.720507 481.700048 
L 131.998415 481.345169 
L 132.276322 480.635412 
L 132.55423 479.215897 
L 132.832138 480.99029 
L 133.110046 480.635412 
L 133.387954 482.054926 
L 133.665862 482.054926 
L 133.943769 482.409805 
L 134.221677 480.635412 
L 134.499585 482.054926 
L 134.777493 479.570776 
L 135.055401 483.474441 
L 135.611216 477.796382 
L 135.889124 482.054926 
L 136.167032 480.99029 
L 136.44494 481.700048 
L 136.722848 482.764684 
L 137.000756 484.893956 
L 137.278663 483.474441 
L 137.556571 483.119562 
L 137.834479 482.054926 
L 138.112387 481.700048 
L 138.668203 481.700048 
L 138.94611 480.280533 
L 139.224018 481.700048 
L 139.501926 479.215897 
L 139.779834 478.861018 
L 140.057742 483.82932 
L 140.33565 480.280533 
L 140.613557 484.539077 
L 140.891465 484.184199 
L 141.169373 481.345169 
L 141.725189 478.861018 
L 142.003097 481.700048 
L 142.281004 479.925654 
L 142.558912 480.635412 
L 142.83682 482.764684 
L 143.114728 479.925654 
L 143.392636 479.925654 
L 143.670544 482.054926 
L 143.948451 483.119562 
L 144.226359 479.570776 
L 144.504267 479.570776 
L 144.782175 480.280533 
L 145.060083 480.280533 
L 145.337991 482.054926 
L 145.615898 480.99029 
L 145.893806 478.50614 
L 146.171714 479.570776 
L 146.449622 482.764684 
L 146.72753 479.215897 
L 147.005438 483.82932 
L 147.561253 481.345169 
L 147.839161 480.99029 
L 148.117069 483.119562 
L 148.394977 481.700048 
L 148.672885 482.054926 
L 148.950792 483.474441 
L 149.2287 482.054926 
L 149.506608 482.054926 
L 149.784516 480.635412 
L 150.062424 481.345169 
L 150.340332 480.635412 
L 150.618239 478.50614 
L 151.174055 480.280533 
L 151.451963 479.570776 
L 151.729871 476.731746 
L 152.007779 480.99029 
L 152.285686 479.215897 
L 152.563594 482.409805 
L 152.841502 480.280533 
L 153.397318 478.861018 
L 153.675226 479.925654 
L 153.953133 482.409805 
L 154.231041 479.925654 
L 154.508949 476.376868 
L 154.786857 482.054926 
L 155.064765 480.280533 
L 155.342673 481.700048 
L 155.62058 477.086625 
L 155.898488 480.99029 
L 156.176396 482.054926 
L 156.454304 479.215897 
L 156.732212 479.215897 
L 157.010119 482.054926 
L 157.288027 479.215897 
L 157.565935 482.054926 
L 157.843843 479.570776 
L 158.121751 480.99029 
L 158.399659 481.345169 
L 158.677566 482.409805 
L 158.955474 480.635412 
L 159.233382 482.054926 
L 159.51129 477.796382 
L 159.789198 479.925654 
L 160.067106 479.925654 
L 160.345013 480.635412 
L 160.622921 478.861018 
L 160.900829 483.119562 
L 161.178737 474.957353 
L 161.456645 480.280533 
L 161.734553 482.054926 
L 162.01246 481.345169 
L 162.290368 478.151261 
L 162.568276 479.925654 
L 162.846184 479.925654 
L 163.124092 477.441504 
L 163.402 480.635412 
L 163.679907 480.280533 
L 163.957815 480.635412 
L 164.235723 477.086625 
L 164.513631 477.441504 
L 164.791539 480.280533 
L 165.069447 479.215897 
L 165.347354 478.861018 
L 165.625262 480.99029 
L 165.90317 477.086625 
L 166.181078 478.861018 
L 166.458986 477.441504 
L 167.014801 480.99029 
L 167.292709 477.796382 
L 167.570617 482.764684 
L 167.848525 478.50614 
L 168.126433 479.570776 
L 168.404341 479.570776 
L 168.682248 477.441504 
L 168.960156 479.570776 
L 169.238064 478.151261 
L 169.515972 478.861018 
L 169.79388 478.50614 
L 170.071788 477.796382 
L 170.349695 475.66711 
L 170.627603 480.635412 
L 170.905511 479.925654 
L 171.183419 478.861018 
L 171.461327 479.570776 
L 171.739235 479.570776 
L 172.017142 479.215897 
L 172.572958 476.021989 
L 172.850866 480.280533 
L 173.128774 480.99029 
L 173.406682 479.215897 
L 173.684589 479.215897 
L 173.962497 481.345169 
L 174.518313 478.50614 
L 174.796221 478.861018 
L 175.074129 479.925654 
L 175.352036 475.66711 
L 175.629944 480.635412 
L 175.907852 477.441504 
L 176.463668 480.635412 
L 176.741576 479.570776 
L 177.019483 474.957353 
L 177.297391 477.796382 
L 177.575299 478.151261 
L 177.853207 476.021989 
L 178.131115 481.345169 
L 178.409023 479.215897 
L 178.68693 478.861018 
L 178.964838 475.312232 
L 179.242746 477.441504 
L 179.520654 477.086625 
L 179.798562 478.50614 
L 180.07647 479.215897 
L 180.354377 476.021989 
L 181.188101 481.345169 
L 181.466009 476.021989 
L 181.743917 479.925654 
L 182.021824 479.570776 
L 182.299732 477.086625 
L 182.57764 481.345169 
L 182.855548 480.280533 
L 183.133456 477.796382 
L 183.411364 477.086625 
L 183.689271 472.473202 
L 183.967179 479.925654 
L 184.245087 476.376868 
L 184.522995 477.796382 
L 184.800903 478.50614 
L 185.078811 477.086625 
L 185.356718 479.570776 
L 185.634626 480.99029 
L 185.912534 478.50614 
L 186.190442 478.151261 
L 186.46835 476.021989 
L 186.746258 477.441504 
L 187.024165 477.796382 
L 187.302073 480.635412 
L 187.579981 481.700048 
L 187.857889 479.215897 
L 188.135797 479.215897 
L 188.413704 477.086625 
L 188.691612 479.570776 
L 188.96952 476.021989 
L 189.247428 480.280533 
L 189.525336 479.570776 
L 190.081151 476.731746 
L 190.359059 477.086625 
L 190.636967 477.796382 
L 191.192783 476.376868 
L 191.470691 476.376868 
L 191.748598 478.861018 
L 192.026506 480.280533 
L 192.304414 476.376868 
L 192.582322 475.312232 
L 192.86023 478.50614 
L 193.138138 478.50614 
L 193.416045 473.537838 
L 193.971861 478.50614 
L 194.249769 477.086625 
L 194.527677 473.18296 
L 194.805585 479.215897 
L 195.083492 473.892717 
L 195.3614 477.796382 
L 195.639308 479.925654 
L 195.917216 478.151261 
L 196.195124 477.441504 
L 196.473032 476.021989 
L 196.750939 476.021989 
L 197.028847 478.50614 
L 197.306755 473.537838 
L 197.862571 479.570776 
L 198.140479 474.957353 
L 198.418386 477.441504 
L 198.696294 478.151261 
L 198.974202 479.570776 
L 199.25211 472.828081 
L 199.807926 480.635412 
L 200.085833 476.021989 
L 200.363741 479.925654 
L 200.641649 478.50614 
L 200.919557 478.50614 
L 201.197465 475.66711 
L 201.475373 479.925654 
L 202.031188 475.312232 
L 202.309096 476.376868 
L 202.587004 478.861018 
L 202.864912 478.861018 
L 203.14282 479.570776 
L 203.698635 475.312232 
L 203.976543 477.441504 
L 204.254451 473.892717 
L 204.532359 474.602474 
L 205.088174 478.861018 
L 205.64399 475.66711 
L 205.921898 474.602474 
L 206.199806 474.247596 
L 206.477714 474.957353 
L 206.755621 474.602474 
L 207.311437 482.054926 
L 207.867253 476.376868 
L 208.145161 477.086625 
L 208.423068 478.861018 
L 208.700976 483.82932 
L 208.978884 473.892717 
L 209.256792 474.602474 
L 209.5347 477.086625 
L 209.812608 474.247596 
L 210.368423 477.796382 
L 210.646331 475.66711 
L 210.924239 476.731746 
L 211.202147 473.537838 
L 211.757962 479.570776 
L 212.03587 471.408566 
L 212.313778 478.151261 
L 212.591686 474.247596 
L 212.869594 472.828081 
L 213.147502 477.796382 
L 213.425409 474.247596 
L 213.703317 472.473202 
L 213.981225 476.021989 
L 214.259133 475.66711 
L 214.537041 477.086625 
L 214.814949 477.441504 
L 215.092856 475.66711 
L 215.370764 477.086625 
L 215.648672 474.247596 
L 215.92658 477.441504 
L 216.204488 477.086625 
L 216.482396 474.957353 
L 216.760303 477.796382 
L 217.038211 478.50614 
L 217.594027 473.537838 
L 218.149843 473.537838 
L 218.42775 477.796382 
L 218.705658 466.085386 
L 218.983566 474.957353 
L 219.261474 474.247596 
L 219.539382 475.66711 
L 219.817289 477.796382 
L 220.095197 472.828081 
L 220.373105 473.18296 
L 220.651013 473.18296 
L 220.928921 476.376868 
L 221.206829 477.796382 
L 221.484736 474.247596 
L 221.762644 478.151261 
L 222.040552 469.989051 
L 222.31846 476.731746 
L 222.874276 471.763445 
L 223.152183 474.247596 
L 223.430091 472.828081 
L 223.707999 474.957353 
L 223.985907 469.989051 
L 224.263815 476.376868 
L 224.541723 471.053687 
L 224.81963 471.053687 
L 225.097538 477.441504 
L 225.375446 475.66711 
L 225.653354 477.441504 
L 225.931262 472.118323 
L 226.20917 472.118323 
L 226.487077 474.957353 
L 227.042893 472.118323 
L 227.320801 473.892717 
L 227.598709 471.408566 
L 227.876617 478.151261 
L 228.154524 472.118323 
L 228.432432 471.053687 
L 228.71034 473.18296 
L 228.988248 477.086625 
L 229.544064 474.957353 
L 229.821971 469.634173 
L 230.099879 468.924415 
L 230.377787 476.021989 
L 230.655695 475.66711 
L 230.933603 471.408566 
L 231.211511 472.118323 
L 231.489418 475.312232 
L 231.767326 467.504901 
L 232.045234 474.957353 
L 232.323142 468.214658 
L 232.60105 471.408566 
L 232.878958 470.34393 
L 233.156865 476.731746 
L 233.434773 471.053687 
L 233.712681 472.118323 
L 233.990589 471.053687 
L 234.268497 468.924415 
L 235.10222 474.957353 
L 235.380128 473.892717 
L 235.658036 475.66711 
L 235.935944 473.892717 
L 236.213852 468.924415 
L 236.491759 473.537838 
L 236.769667 473.18296 
L 237.047575 474.602474 
L 237.325483 470.698809 
L 237.603391 468.924415 
L 237.881299 468.214658 
L 238.159206 471.763445 
L 238.437114 478.151261 
L 238.715022 469.989051 
L 238.99293 469.279294 
L 239.270838 473.892717 
L 239.548746 471.053687 
L 239.826653 471.763445 
L 240.104561 467.859779 
L 240.382469 470.698809 
L 240.660377 471.763445 
L 240.938285 469.279294 
L 241.216193 474.247596 
L 241.4941 469.989051 
L 241.772008 472.828081 
L 242.049916 473.892717 
L 242.327824 473.537838 
L 242.605732 468.924415 
L 242.88364 473.18296 
L 243.439455 473.18296 
L 243.717363 468.214658 
L 243.995271 467.504901 
L 244.273179 465.730507 
L 244.551087 471.408566 
L 244.828994 471.763445 
L 245.106902 473.18296 
L 245.38481 466.795143 
L 245.662718 473.18296 
L 245.940626 469.279294 
L 246.218534 469.279294 
L 246.496441 466.085386 
L 246.774349 471.053687 
L 247.052257 468.924415 
L 247.330165 473.537838 
L 247.608073 466.085386 
L 248.163888 471.763445 
L 248.441796 473.18296 
L 248.719704 468.214658 
L 248.997612 471.763445 
L 249.27552 466.085386 
L 249.553428 465.730507 
L 249.831335 465.730507 
L 250.387151 472.118323 
L 250.665059 473.18296 
L 250.942967 470.698809 
L 251.220874 470.34393 
L 251.498782 468.569537 
L 251.77669 470.698809 
L 252.054598 469.989051 
L 252.332506 467.859779 
L 252.610414 468.214658 
L 252.888321 466.440265 
L 253.166229 471.763445 
L 253.444137 468.214658 
L 253.722045 472.473202 
L 253.999953 467.859779 
L 254.277861 469.279294 
L 254.555768 469.279294 
L 254.833676 468.214658 
L 255.111584 463.246357 
L 255.389492 467.150022 
L 255.6674 467.859779 
L 255.945308 466.085386 
L 256.223215 467.150022 
L 256.501123 467.504901 
L 256.779031 469.989051 
L 257.056939 464.665871 
L 257.334847 467.859779 
L 257.612755 465.02075 
L 257.890662 469.989051 
L 258.16857 471.053687 
L 258.446478 473.537838 
L 258.724386 471.053687 
L 259.280202 463.956114 
L 259.558109 467.504901 
L 259.836017 465.730507 
L 260.113925 467.504901 
L 260.391833 463.956114 
L 260.669741 464.665871 
L 260.947649 467.150022 
L 261.225556 467.150022 
L 261.503464 472.828081 
L 261.781372 466.440265 
L 262.05928 473.537838 
L 262.337188 469.634173 
L 262.615096 463.956114 
L 263.170911 468.569537 
L 263.448819 465.375629 
L 263.726727 467.504901 
L 264.282543 463.956114 
L 264.56045 458.987812 
L 264.838358 468.214658 
L 265.116266 470.698809 
L 265.394174 462.891478 
L 265.672082 466.795143 
L 265.94999 466.795143 
L 266.227897 468.214658 
L 266.505805 463.601235 
L 266.783713 470.34393 
L 267.061621 469.989051 
L 267.617437 463.601235 
L 267.895344 466.795143 
L 268.173252 460.407327 
L 268.45116 466.795143 
L 268.729068 465.375629 
L 269.006976 455.439026 
L 269.284884 462.536599 
L 269.562791 464.665871 
L 270.118607 462.181721 
L 270.396515 465.375629 
L 270.674423 464.310993 
L 270.952331 462.181721 
L 271.230238 462.536599 
L 271.508146 467.150022 
L 271.786054 457.213419 
L 272.063962 462.891478 
L 272.34187 466.085386 
L 272.619778 464.665871 
L 272.897685 462.181721 
L 273.175593 462.536599 
L 273.453501 466.440265 
L 273.731409 463.956114 
L 274.009317 466.440265 
L 274.287225 465.730507 
L 274.565132 465.730507 
L 274.84304 466.440265 
L 275.120948 465.730507 
L 275.398856 461.826842 
L 275.676764 469.634173 
L 275.954672 461.471963 
L 276.232579 461.471963 
L 276.510487 458.278055 
L 276.788395 462.536599 
L 277.066303 463.601235 
L 277.344211 458.987812 
L 277.622119 456.85854 
L 277.900026 460.762206 
L 278.177934 461.826842 
L 278.455842 461.471963 
L 278.73375 466.440265 
L 279.011658 461.471963 
L 279.289566 458.632934 
L 279.567473 462.181721 
L 279.845381 460.052448 
L 280.123289 464.310993 
L 280.401197 462.536599 
L 280.679105 466.440265 
L 281.23492 454.729268 
L 281.512828 460.407327 
L 281.790736 457.213419 
L 282.068644 464.310993 
L 282.346552 459.69757 
L 282.624459 463.246357 
L 282.902367 458.632934 
L 283.458183 460.052448 
L 283.736091 459.69757 
L 284.013999 458.632934 
L 284.291906 463.601235 
L 284.569814 448.696331 
L 284.847722 454.37439 
L 285.12563 457.568298 
L 285.403538 459.342691 
L 285.681446 458.278055 
L 285.959353 460.762206 
L 286.237261 453.664632 
L 286.515169 454.729268 
L 286.793077 452.954875 
L 287.070985 458.278055 
L 287.348893 453.664632 
L 287.6268 462.536599 
L 287.904708 459.69757 
L 288.182616 454.729268 
L 288.460524 452.954875 
L 288.738432 460.407327 
L 289.01634 460.762206 
L 289.294247 457.213419 
L 289.572155 457.213419 
L 289.850063 458.278055 
L 290.127971 455.084147 
L 290.405879 460.407327 
L 290.683787 455.793904 
L 290.961694 457.213419 
L 291.239602 461.117084 
L 291.51751 454.729268 
L 291.795418 458.632934 
L 292.073326 456.503662 
L 292.351234 457.213419 
L 292.907049 459.342691 
L 293.184957 458.278055 
L 293.462865 453.664632 
L 293.740773 458.632934 
L 294.018681 452.599996 
L 294.296588 451.180482 
L 294.574496 457.923176 
L 294.852404 459.342691 
L 295.130312 455.084147 
L 295.40822 456.148783 
L 295.686128 452.954875 
L 295.964035 455.793904 
L 296.241943 464.665871 
L 296.519851 454.729268 
L 296.797759 457.213419 
L 297.075667 447.631695 
L 297.353575 458.278055 
L 297.631482 450.825603 
L 298.187298 452.599996 
L 298.465206 450.115846 
L 299.021022 447.986573 
L 299.576837 451.53536 
L 299.854745 455.793904 
L 300.132653 444.437787 
L 300.688469 455.439026 
L 300.966376 450.470724 
L 301.244284 443.018272 
L 301.8001 459.342691 
L 302.355916 453.664632 
L 302.633823 448.341452 
L 302.911731 451.890239 
L 303.189639 460.762206 
L 303.467547 449.406088 
L 303.745455 445.857301 
L 304.023363 446.567059 
L 304.30127 450.470724 
L 304.579178 446.921937 
L 304.857086 448.341452 
L 305.134994 447.986573 
L 305.412902 446.921937 
L 305.69081 451.180482 
L 305.968717 448.341452 
L 306.246625 452.599996 
L 306.524533 446.921937 
L 306.802441 446.567059 
L 307.080349 450.115846 
L 307.358257 440.179243 
L 307.636164 441.953636 
L 307.914072 447.986573 
L 308.19198 448.696331 
L 308.469888 449.760967 
L 309.025704 442.308515 
L 309.303611 442.308515 
L 309.581519 445.502423 
L 309.859427 441.953636 
L 310.137335 441.243879 
L 310.415243 449.760967 
L 310.693151 450.470724 
L 310.971058 444.082908 
L 311.248966 443.373151 
L 311.526874 450.470724 
L 311.804782 441.243879 
L 312.360597 448.696331 
L 312.638505 439.469485 
L 312.916413 435.56582 
L 313.194321 446.21218 
L 313.472229 439.114607 
L 313.750137 444.792665 
L 314.028044 435.920698 
L 314.305952 442.663393 
L 314.861768 438.404849 
L 315.139676 443.018272 
L 315.417584 444.792665 
L 315.695491 452.599996 
L 315.973399 440.534121 
L 316.251307 442.308515 
L 316.529215 442.308515 
L 316.807123 431.662154 
L 317.085031 443.373151 
L 317.640846 436.275577 
L 317.918754 442.663393 
L 318.47457 435.920698 
L 318.752478 445.147544 
L 319.030385 439.824364 
L 319.308293 440.534121 
L 319.586201 438.04997 
L 320.142017 440.534121 
L 320.419925 432.72679 
L 320.697832 438.04997 
L 320.97574 434.856062 
L 321.253648 429.887761 
L 321.809464 443.728029 
L 322.087372 442.663393 
L 322.365279 436.985334 
L 322.643187 438.759728 
L 322.921095 439.469485 
L 323.199003 426.338974 
L 323.476911 435.920698 
L 323.754819 436.630456 
L 324.310634 434.501184 
L 324.588542 430.24264 
L 324.86645 430.952397 
L 325.144358 428.468246 
L 325.422266 435.210941 
L 325.700173 430.24264 
L 325.978081 434.146305 
L 326.533897 427.048731 
L 326.811805 428.823125 
L 327.089713 426.693853 
L 327.36762 432.017033 
L 327.645528 426.693853 
L 327.923436 435.56582 
L 328.201344 431.307276 
L 328.479252 424.564581 
L 328.75716 427.758489 
L 329.035067 439.469485 
L 329.312975 441.598757 
L 329.590883 426.693853 
L 329.868791 427.40361 
L 330.146699 423.854823 
L 330.424607 432.371912 
L 330.702514 425.629217 
L 330.980422 428.823125 
L 331.25833 421.370673 
L 331.536238 425.629217 
L 331.814146 424.919459 
L 332.092054 429.532882 
L 332.369961 427.048731 
L 332.647869 422.790187 
L 332.925777 427.048731 
L 333.203685 423.499945 
L 333.481593 423.854823 
L 333.759501 418.886522 
L 334.037408 424.209702 
L 334.315316 423.854823 
L 334.593224 424.564581 
L 334.871132 425.629217 
L 335.14904 416.402371 
L 335.426948 421.015794 
L 335.704855 413.91822 
L 335.982763 419.241401 
L 336.260671 413.563342 
L 336.538579 427.40361 
L 337.094395 416.75725 
L 337.372302 423.145066 
L 337.65021 419.951158 
L 337.928118 427.40361 
L 338.206026 419.951158 
L 338.483934 427.048731 
L 338.761842 407.530404 
L 339.039749 420.660915 
L 339.317657 414.273099 
L 339.595565 424.919459 
L 339.873473 415.337735 
L 340.151381 412.143827 
L 340.707196 414.627978 
L 340.985104 406.820647 
L 341.263012 416.75725 
L 341.54092 410.724312 
L 341.818828 399.723073 
L 342.096736 408.240162 
L 342.374643 411.788948 
L 342.652551 409.659676 
L 342.930459 403.981617 
L 343.208367 408.240162 
L 343.486275 415.692614 
L 343.764182 404.691375 
L 344.04209 400.787709 
L 344.319998 402.207224 
L 344.597906 408.949919 
L 344.875814 404.336496 
L 345.153722 413.563342 
L 345.431629 410.369434 
L 345.709537 398.658437 
L 345.987445 406.820647 
L 346.265353 394.754772 
L 346.543261 402.207224 
L 346.821169 401.852345 
L 347.099076 380.559625 
L 347.654892 405.046253 
L 347.9328 392.980378 
L 348.210708 396.884044 
L 348.488616 406.465768 
L 349.044431 384.46329 
L 349.322339 377.010838 
L 349.600247 396.174287 
L 349.878155 389.076713 
L 350.156063 390.496228 
L 350.43397 390.851106 
L 350.711878 395.109651 
L 350.989786 391.205985 
L 351.267694 395.109651 
L 351.545602 379.849867 
L 351.82351 395.109651 
L 352.101417 385.882805 
L 352.379325 384.818169 
L 352.657233 392.270621 
L 353.213049 363.880327 
L 353.490957 370.623022 
L 353.768864 384.108412 
L 354.046772 382.688897 
L 354.32468 379.14011 
L 354.602588 382.334018 
L 354.880496 374.171809 
L 355.158404 377.720595 
L 355.436311 373.462051 
L 355.714219 375.591323 
L 355.992127 378.785231 
L 356.270035 370.268143 
L 356.547943 358.202268 
L 356.825851 375.591323 
L 357.103758 362.815691 
L 357.381666 362.460812 
L 357.659574 368.49375 
L 357.937482 369.203507 
L 358.21539 368.848628 
L 358.493298 366.719356 
L 358.771205 354.653481 
L 359.049113 366.364478 
L 359.327021 361.041298 
L 359.604929 366.364478 
L 359.882837 357.847389 
L 360.160745 355.718117 
L 360.438652 344.362 
L 360.71656 366.009599 
L 360.994468 350.394937 
L 361.272376 354.653481 
L 361.550284 350.040059 
L 361.828192 341.877849 
L 362.106099 348.620544 
L 362.384007 347.555908 
L 362.939823 358.557147 
L 363.217731 349.330301 
L 363.495639 328.392459 
L 363.773546 342.232728 
L 364.051454 341.52297 
L 364.329362 334.780275 
L 364.60727 325.198551 
L 364.885178 341.168092 
L 365.163086 335.490033 
L 365.440993 323.424158 
L 365.718901 344.007121 
L 365.996809 332.651003 
L 366.274717 333.005882 
L 366.552625 339.748577 
L 366.830533 333.005882 
L 367.10844 303.196073 
L 367.386348 326.618066 
L 367.664256 306.035103 
L 367.942164 308.164375 
L 368.220072 325.198551 
L 368.49798 316.681463 
L 368.775887 317.036342 
L 369.053795 304.970467 
L 369.331703 308.164375 
L 369.609611 307.454617 
L 369.887519 296.808257 
L 370.165427 297.872893 
L 370.443334 304.615588 
L 370.721242 304.970467 
L 370.99915 290.775319 
L 371.277058 297.518014 
L 371.554966 293.614349 
L 371.832874 274.096022 
L 372.110781 291.485077 
L 372.388689 269.482599 
L 372.666597 296.0985 
L 372.944505 264.869176 
L 373.222413 290.420441 
L 373.500321 281.903352 
L 374.334044 267.708205 
L 374.611952 273.386264 
L 374.88986 263.80454 
L 375.167767 240.382547 
L 375.445675 272.676507 
L 375.723583 243.221577 
L 376.001491 266.288691 
L 376.279399 244.641091 
L 376.557307 254.577694 
L 376.835214 251.383786 
L 377.113122 240.027669 
L 377.39103 243.221577 
L 377.946846 234.704488 
L 378.224754 240.737426 
L 378.502661 209.508102 
L 378.780569 228.671551 
L 379.058477 236.124003 
L 379.336385 221.219099 
L 379.614293 220.154463 
L 379.892201 200.281257 
L 380.170108 197.442227 
L 380.448016 221.573977 
L 380.725924 216.605676 
L 381.003832 188.925139 
L 381.28174 196.022713 
L 381.559648 210.927617 
L 381.837555 199.571499 
L 382.115463 195.667834 
L 382.393371 186.440988 
L 382.671279 186.08611 
L 382.949187 166.567782 
L 383.227095 189.280018 
L 383.78291 167.27754 
L 384.060818 173.310477 
L 384.338726 157.340937 
L 384.616634 160.179966 
L 384.894542 156.276301 
L 385.172449 155.211665 
L 385.450357 142.790911 
L 385.728265 146.339698 
L 386.006173 157.340937 
L 386.284081 117.594525 
L 386.561989 126.466492 
L 386.839896 123.982341 
L 387.117804 113.690859 
L 387.395712 111.561587 
L 387.67362 115.465253 
L 387.951528 115.110374 
L 388.229436 110.85183 
L 388.507343 89.913988 
L 388.785251 105.52865 
L 389.063159 90.978624 
L 389.341067 92.753018 
L 389.618975 104.464014 
L 390.452698 56.200514 
L 390.730606 61.523694 
L 391.008514 62.58833 
L 391.286422 54.42612 
L 391.56433 29.229734 
L 391.842237 43.424881 
L 392.120145 31.713885 
L 392.675961 60.813937 
L 392.953869 15.744345 
L 393.231777 45.554153 
L 393.509684 98.076198 
L 394.0655 156.276301 
L 394.343408 155.211665 
L 394.621316 171.890963 
L 394.899224 196.73247 
L 395.732947 226.542279 
L 396.010855 259.191117 
L 396.288763 266.998448 
L 396.566671 241.447183 
L 396.844578 265.578933 
L 397.122486 275.515536 
L 397.400394 279.064323 
L 397.678302 304.260709 
L 397.95621 309.229011 
L 398.234118 318.455856 
L 398.512025 322.004643 
L 398.789933 345.426636 
L 399.067841 354.298603 
L 399.345749 354.298603 
L 399.623657 365.65472 
L 399.901565 367.429114 
L 400.45738 386.947441 
L 400.735288 378.430353 
L 401.013196 393.690136 
L 401.291104 393.690136 
L 401.569012 406.820647 
L 401.846919 409.304798 
L 402.402735 432.72679 
L 402.958551 434.146305 
L 403.514366 455.084147 
L 403.792274 456.503662 
L 404.070182 451.180482 
L 404.34809 461.117084 
L 404.625998 465.730507 
L 404.903906 468.214658 
L 405.181813 472.828081 
L 405.459721 473.892717 
L 405.737629 478.50614 
L 406.293445 482.764684 
L 406.571352 481.345169 
L 406.84926 485.603713 
L 407.127168 487.023228 
L 407.405076 489.1525 
L 407.682984 488.442743 
L 407.960892 486.313471 
L 408.238799 483.119562 
L 408.516707 483.119562 
L 408.794615 480.280533 
L 409.072523 476.021989 
L 409.628339 473.892717 
L 409.906246 463.956114 
L 410.184154 467.150022 
L 410.462062 465.375629 
L 411.017878 451.890239 
L 411.295786 452.245118 
L 411.573693 446.567059 
L 411.851601 435.920698 
L 412.685325 420.306037 
L 412.963233 408.949919 
L 413.24114 405.756011 
L 413.519048 405.046253 
L 413.796956 397.593801 
L 414.074864 395.109651 
L 414.63068 363.880327 
L 414.908587 358.912025 
L 415.186495 358.202268 
L 415.464403 354.653481 
L 415.742311 353.588845 
L 416.298127 323.424158 
L 416.576034 333.005882 
L 416.853942 320.940007 
L 417.13185 300.002165 
L 417.409758 318.455856 
L 417.687666 275.870415 
L 417.965574 271.96675 
L 418.243481 259.545996 
L 418.521389 231.51058 
L 418.799297 246.770363 
L 419.077205 217.315433 
L 419.355113 209.862981 
L 419.633021 192.473926 
L 419.910928 197.797106 
L 420.188836 163.018996 
L 420.466744 152.372635 
L 420.744652 147.404334 
L 421.300468 96.656683 
L 421.856283 45.199275 
L 422.134191 25.680948 
L 422.412099 34.552914 
L 422.690007 57.620028 
L 422.967915 53.006606 
L 423.245822 61.878573 
L 423.52373 63.652966 
L 423.801638 55.845635 
L 424.079546 76.783477 
L 424.357454 77.138356 
L 424.635362 71.105418 
L 424.913269 96.301804 
L 425.191177 93.462775 
L 425.469085 98.076198 
L 425.746993 92.753018 
L 426.024901 82.461536 
L 426.302809 86.010323 
L 426.580716 120.078676 
L 426.858624 125.401856 
L 427.136532 106.238407 
L 427.692348 115.820132 
L 427.970256 125.756735 
L 428.248163 125.401856 
L 428.526071 130.015279 
L 428.803979 127.531128 
L 429.081887 147.759212 
L 429.359795 145.984819 
L 429.637703 154.147029 
L 429.91561 153.082393 
L 430.193518 153.082393 
L 430.749334 172.955599 
L 431.027242 163.728753 
L 431.583057 174.375113 
L 431.860965 162.664117 
L 432.138873 195.667834 
L 432.416781 174.375113 
L 432.694689 210.21786 
L 432.972597 192.828805 
L 433.250504 187.150746 
L 433.528412 191.40929 
L 433.80632 190.699532 
L 434.084228 200.636135 
L 434.362136 202.765407 
L 434.640044 229.02643 
L 434.917951 210.572738 
L 435.195859 226.542279 
L 435.473767 221.573977 
L 435.751675 225.477643 
L 436.029583 224.767885 
L 436.307491 228.316672 
L 436.585398 220.509341 
L 436.863306 242.866698 
L 437.141214 220.154463 
L 437.419122 255.997209 
L 437.69703 249.609393 
L 437.974937 254.222816 
L 438.252845 241.447183 
L 438.530753 275.870415 
L 438.808661 255.64233 
L 439.086569 257.416724 
L 439.364477 265.224055 
L 439.642384 254.932573 
L 439.920292 266.643569 
L 440.1982 251.738665 
L 440.476108 261.320389 
L 440.754016 277.644808 
L 441.031924 280.483838 
L 441.309831 285.807018 
L 441.587739 285.452139 
L 441.865647 291.485077 
L 442.143555 282.967989 
L 442.421463 283.677746 
L 442.699371 295.743621 
L 443.255186 294.324106 
L 443.533094 292.194834 
L 443.811002 305.680224 
L 444.08891 286.161897 
L 444.366818 293.969228 
L 444.644725 291.485077 
L 444.922633 312.777797 
L 445.200541 287.581411 
L 445.478449 302.131437 
L 446.034265 309.938768 
L 446.312172 310.293647 
L 446.59008 313.132676 
L 446.867988 323.779036 
L 447.145896 320.23025 
L 447.423804 320.585128 
L 447.701712 339.03882 
L 447.979619 314.552191 
L 448.257527 329.457095 
L 448.535435 325.908308 
L 448.813343 320.23025 
L 449.091251 328.037581 
L 449.369159 324.133915 
L 449.647066 341.168092 
L 449.924974 344.716878 
L 450.202882 342.232728 
L 450.48079 330.166853 
L 450.758698 326.618066 
L 451.036606 345.426636 
L 451.592421 334.780275 
L 452.148237 355.00836 
L 452.426145 346.491272 
L 452.98196 349.68518 
L 453.259868 343.297364 
L 453.537776 362.815691 
L 453.815684 355.718117 
L 454.093592 345.426636 
L 454.3715 355.363239 
L 454.649407 356.072996 
L 454.927315 367.429114 
L 455.205223 371.687658 
L 455.483131 359.621783 
L 455.761039 374.171809 
L 456.038947 376.655959 
L 456.316854 359.976661 
L 456.594762 356.427875 
L 456.87267 355.00836 
L 457.150578 365.65472 
L 457.428486 361.041298 
L 457.706394 363.525448 
L 458.262209 372.752294 
L 458.540117 380.914503 
L 458.818025 366.719356 
L 459.095933 380.204746 
L 459.373841 388.012077 
L 459.651748 380.914503 
L 459.929656 390.496228 
L 460.207564 379.849867 
L 460.485472 381.979139 
L 461.041288 390.141349 
L 461.319195 375.236445 
L 461.597103 380.204746 
L 461.875011 381.269382 
L 462.152919 381.624261 
L 462.430827 387.657198 
L 462.708735 388.721834 
L 462.986642 380.559625 
L 463.26455 389.78647 
L 463.542458 388.721834 
L 463.820366 383.753533 
L 464.098274 392.6255 
L 464.376182 390.496228 
L 464.654089 395.464529 
L 464.931997 396.174287 
L 465.209905 381.979139 
L 465.487813 392.980378 
L 465.765721 392.6255 
L 466.043629 397.238923 
L 466.321536 397.94868 
L 466.599444 401.142588 
L 466.877352 397.94868 
L 467.15526 404.336496 
L 467.433168 390.496228 
L 467.711075 402.916981 
L 467.988983 394.045014 
L 468.266891 410.724312 
L 468.544799 400.077952 
L 468.822707 411.079191 
L 469.100615 395.819408 
L 469.378522 403.626739 
L 469.65643 414.982856 
L 469.934338 402.916981 
L 470.212246 407.885283 
L 470.490154 407.885283 
L 470.768062 404.691375 
L 471.045969 410.369434 
L 471.323877 412.853584 
L 471.601785 407.175526 
L 471.879693 407.175526 
L 472.157601 401.852345 
L 472.435509 399.368195 
L 472.713416 408.949919 
L 472.991324 422.435309 
L 473.269232 411.079191 
L 473.54714 419.951158 
L 473.825048 414.627978 
L 474.102956 415.337735 
L 474.380863 412.498706 
L 474.658771 418.176765 
L 474.936679 416.402371 
L 475.214587 410.724312 
L 475.492495 421.370673 
L 475.770403 410.369434 
L 476.04831 415.337735 
L 476.326218 422.790187 
L 476.604126 417.821886 
L 476.882034 416.047492 
L 477.159942 402.207224 
L 477.43785 422.08043 
L 477.715757 425.274338 
L 477.993665 423.145066 
L 478.271573 425.984095 
L 478.549481 416.402371 
L 479.105297 426.693853 
L 479.383204 417.467007 
L 479.661112 421.370673 
L 479.93902 417.467007 
L 480.216928 415.337735 
L 480.494836 423.145066 
L 480.772744 423.854823 
L 481.050651 425.629217 
L 481.606467 417.112129 
L 481.884375 420.660915 
L 482.162283 418.886522 
L 482.718098 428.823125 
L 482.996006 430.597518 
L 483.273914 427.758489 
L 483.551822 419.241401 
L 483.82973 423.145066 
L 484.107638 431.662154 
L 484.385545 426.693853 
L 484.663453 435.210941 
L 484.941361 416.402371 
L 485.219269 428.113368 
L 485.497177 429.887761 
L 485.775085 427.40361 
L 486.052992 433.081669 
L 486.3309 423.145066 
L 486.608808 441.243879 
L 486.886716 428.468246 
L 487.164624 428.468246 
L 487.442532 429.532882 
L 487.720439 427.758489 
L 487.998347 428.823125 
L 488.276255 431.662154 
L 488.554163 429.532882 
L 488.832071 434.501184 
L 489.109979 434.146305 
L 489.387886 434.856062 
L 489.665794 436.275577 
L 489.943702 429.532882 
L 490.22161 430.597518 
L 490.499518 437.340213 
L 490.777426 429.178004 
L 491.055333 435.920698 
L 491.333241 438.04997 
L 491.889057 429.532882 
L 492.166965 435.210941 
L 492.444873 432.72679 
L 492.72278 435.210941 
L 493.000688 434.501184 
L 493.278596 435.920698 
L 493.556504 432.017033 
L 493.834412 446.921937 
L 494.11232 443.728029 
L 494.390227 441.953636 
L 494.668135 431.307276 
L 494.946043 426.338974 
L 495.223951 441.243879 
L 495.501859 435.56582 
L 496.057674 429.532882 
L 496.335582 433.081669 
L 496.61349 440.179243 
L 496.891398 444.082908 
L 497.169306 439.469485 
L 497.447214 443.728029 
L 497.725121 442.308515 
L 498.003029 434.501184 
L 498.280937 443.373151 
L 498.558845 433.081669 
L 498.836753 443.373151 
L 499.11466 438.759728 
L 499.392568 444.082908 
L 499.670476 438.404849 
L 500.226292 440.889 
L 500.5042 446.921937 
L 500.782107 445.502423 
L 501.060015 446.21218 
L 501.337923 446.567059 
L 501.615831 440.534121 
L 501.893739 444.792665 
L 502.171647 441.598757 
L 502.449554 441.953636 
L 502.727462 447.986573 
L 503.00537 451.53536 
L 503.283278 449.760967 
L 503.561186 443.018272 
L 503.839094 445.857301 
L 504.117001 441.953636 
L 504.394909 453.309754 
L 504.672817 444.437787 
L 504.950725 448.341452 
L 505.228633 435.920698 
L 505.506541 446.21218 
L 505.784448 437.695092 
L 506.062356 451.53536 
L 506.340264 449.051209 
L 506.618172 443.728029 
L 506.89608 445.857301 
L 507.173988 450.825603 
L 507.451895 444.437787 
L 507.729803 444.082908 
L 508.007711 449.051209 
L 508.285619 449.406088 
L 508.563527 447.986573 
L 508.841435 443.018272 
L 509.119342 448.696331 
L 509.39725 439.114607 
L 509.675158 446.21218 
L 509.953066 446.921937 
L 510.230974 449.406088 
L 510.508882 452.954875 
L 510.786789 449.760967 
L 511.064697 443.728029 
L 511.342605 444.437787 
L 511.620513 448.341452 
L 511.898421 447.276816 
L 512.454236 454.729268 
L 512.732144 450.115846 
L 513.010052 442.663393 
L 513.28796 451.890239 
L 513.565868 449.760967 
L 513.843776 444.437787 
L 514.121683 452.245118 
L 514.399591 452.245118 
L 514.677499 453.664632 
L 514.955407 451.180482 
L 515.233315 451.180482 
L 515.511223 457.213419 
L 515.78913 454.019511 
L 516.067038 447.631695 
L 516.344946 450.825603 
L 516.622854 447.986573 
L 516.900762 451.180482 
L 517.17867 460.762206 
L 517.456577 446.921937 
L 517.734485 453.664632 
L 518.012393 445.147544 
L 518.290301 455.084147 
L 518.568209 452.245118 
L 518.846117 452.954875 
L 519.124024 455.084147 
L 519.401932 453.309754 
L 519.67984 455.084147 
L 519.957748 452.245118 
L 520.235656 454.729268 
L 520.513564 461.471963 
L 520.791471 451.53536 
L 521.347287 457.923176 
L 521.903103 454.37439 
L 522.181011 456.85854 
L 522.458918 457.213419 
L 522.736826 454.37439 
L 523.014734 456.148783 
L 523.292642 452.245118 
L 523.848458 457.213419 
L 524.126365 459.342691 
L 524.404273 456.85854 
L 524.682181 456.85854 
L 524.960089 463.956114 
L 525.237997 455.084147 
L 525.515905 455.793904 
L 525.793812 451.890239 
L 526.07172 460.407327 
L 526.349628 457.213419 
L 526.627536 455.439026 
L 526.905444 462.536599 
L 527.183352 457.568298 
L 527.461259 455.793904 
L 528.017075 460.052448 
L 528.294983 455.084147 
L 528.572891 462.536599 
L 528.850799 455.439026 
L 529.128706 459.69757 
L 529.406614 457.568298 
L 529.684522 461.826842 
L 529.96243 464.310993 
L 530.240338 460.407327 
L 530.518245 458.278055 
L 530.796153 461.471963 
L 531.074061 454.019511 
L 531.351969 459.69757 
L 531.629877 454.729268 
L 531.907785 457.568298 
L 532.185692 452.245118 
L 532.4636 461.826842 
L 532.741508 460.052448 
L 533.019416 465.02075 
L 533.297324 466.440265 
L 533.575232 460.052448 
L 533.853139 459.69757 
L 534.131047 462.536599 
L 534.408955 459.342691 
L 534.964771 465.730507 
L 535.520586 458.987812 
L 535.798494 460.762206 
L 536.076402 464.310993 
L 536.35431 465.02075 
L 536.632218 462.891478 
L 536.910126 465.375629 
L 537.188033 463.246357 
L 537.465941 464.665871 
L 537.743849 460.407327 
L 538.299665 458.987812 
L 538.577573 462.891478 
L 538.85548 463.956114 
L 539.133388 468.569537 
L 539.411296 456.85854 
L 539.689204 465.02075 
L 539.967112 457.568298 
L 540.24502 464.310993 
L 540.522927 461.117084 
L 541.078743 465.375629 
L 541.356651 464.665871 
L 541.634559 457.568298 
L 541.912467 465.375629 
L 542.190374 461.471963 
L 542.468282 461.117084 
L 543.024098 466.085386 
L 543.302006 464.665871 
L 543.579914 468.569537 
L 543.857821 462.181721 
L 544.135729 464.665871 
L 544.413637 461.471963 
L 544.691545 461.471963 
L 544.969453 460.407327 
L 545.247361 468.214658 
L 545.525268 466.795143 
L 545.803176 464.310993 
L 546.081084 466.795143 
L 546.358992 466.440265 
L 546.6369 462.181721 
L 546.914808 463.956114 
L 547.192715 462.536599 
L 547.470623 466.085386 
L 547.748531 465.375629 
L 548.026439 461.826842 
L 548.304347 466.440265 
L 548.582255 467.859779 
L 549.13807 458.632934 
L 549.415978 467.150022 
L 549.693886 469.634173 
L 549.971794 468.214658 
L 550.249702 468.569537 
L 550.527609 465.02075 
L 551.083425 468.924415 
L 551.361333 467.859779 
L 551.639241 469.279294 
L 551.917149 462.181721 
L 552.195056 468.214658 
L 552.472964 469.989051 
L 552.750872 467.504901 
L 553.306688 465.02075 
L 553.584596 466.085386 
L 553.862503 465.02075 
L 554.140411 467.504901 
L 554.418319 468.214658 
L 554.696227 467.859779 
L 554.974135 469.279294 
L 555.52995 464.310993 
L 555.807858 466.440265 
L 556.085766 469.989051 
L 556.363674 471.408566 
L 556.641582 468.214658 
L 556.91949 471.408566 
L 557.197397 466.795143 
L 557.475305 467.504901 
L 557.753213 462.536599 
L 558.031121 471.408566 
L 558.309029 474.957353 
L 558.586937 470.34393 
L 558.864844 469.989051 
L 559.142752 470.34393 
L 559.42066 465.730507 
L 559.698568 467.504901 
L 559.976476 466.795143 
L 560.254384 471.053687 
L 560.532291 465.730507 
L 560.810199 464.665871 
L 561.088107 469.279294 
L 561.366015 466.795143 
L 561.643923 468.569537 
L 561.92183 472.118323 
L 562.199738 468.924415 
L 562.477646 463.956114 
L 562.755554 466.795143 
L 563.033462 467.859779 
L 563.31137 467.504901 
L 563.589277 469.279294 
L 563.867185 465.730507 
L 564.423001 473.18296 
L 564.700909 469.634173 
L 564.978817 468.924415 
L 565.256724 471.408566 
L 565.534632 472.118323 
L 565.81254 470.34393 
L 566.090448 469.989051 
L 566.368356 466.085386 
L 566.646264 465.730507 
L 566.924171 465.730507 
L 567.202079 472.118323 
L 567.479987 467.859779 
L 567.757895 473.537838 
L 568.035803 473.18296 
L 568.313711 472.118323 
L 568.591618 467.150022 
L 568.869526 471.763445 
L 569.147434 469.634173 
L 569.425342 470.34393 
L 569.70325 474.247596 
L 569.981158 467.504901 
L 570.259065 466.795143 
L 570.536973 472.473202 
L 570.814881 467.504901 
L 571.092789 467.150022 
L 571.370697 471.053687 
L 571.648605 469.989051 
L 571.926512 471.763445 
L 572.20442 469.279294 
L 572.482328 470.34393 
L 572.760236 472.473202 
L 573.038144 471.408566 
L 573.316052 467.150022 
L 573.593959 468.924415 
L 573.871867 472.118323 
L 574.149775 470.34393 
L 574.427683 470.698809 
L 574.705591 470.698809 
L 574.983499 474.957353 
L 575.261406 468.569537 
L 575.539314 469.634173 
L 575.817222 471.763445 
L 576.09513 477.086625 
L 576.650946 471.053687 
L 576.928853 471.408566 
L 577.206761 472.118323 
L 577.484669 474.957353 
L 577.762577 473.537838 
L 578.040485 465.375629 
L 578.318393 472.473202 
L 578.5963 474.957353 
L 578.874208 476.376868 
L 579.152116 474.247596 
L 579.430024 469.989051 
L 579.707932 472.473202 
L 579.98584 470.34393 
L 580.263747 469.634173 
L 580.541655 473.537838 
L 580.819563 467.504901 
L 581.375379 472.828081 
L 581.653287 467.504901 
L 581.931194 467.859779 
L 582.48701 477.086625 
L 582.764918 473.18296 
L 583.042826 471.763445 
L 583.320734 476.021989 
L 583.598641 470.698809 
L 583.876549 470.698809 
L 584.154457 474.957353 
L 584.432365 471.408566 
L 584.710273 471.763445 
L 584.988181 474.247596 
L 585.266088 471.408566 
L 585.543996 475.312232 
L 585.821904 470.34393 
L 586.37772 474.247596 
L 586.655628 470.34393 
L 586.933535 474.957353 
L 587.211443 474.957353 
L 587.489351 477.796382 
L 587.767259 477.441504 
L 588.045167 475.66711 
L 588.323075 467.150022 
L 588.600982 474.602474 
L 588.87889 476.376868 
L 589.156798 470.698809 
L 589.434706 470.698809 
L 589.712614 469.989051 
L 589.990522 478.861018 
L 590.268429 477.441504 
L 590.546337 473.537838 
L 590.824245 473.18296 
L 591.102153 473.18296 
L 591.657969 475.66711 
L 591.935876 474.247596 
L 592.213784 469.634173 
L 592.491692 472.473202 
L 592.7696 477.086625 
L 593.047508 475.66711 
L 593.325415 472.118323 
L 593.603323 477.441504 
L 593.881231 474.602474 
L 594.159139 476.731746 
L 594.437047 473.892717 
L 594.714955 477.086625 
L 594.992862 477.086625 
L 595.27077 474.957353 
L 595.548678 476.376868 
L 595.826586 475.312232 
L 596.382402 472.118323 
L 596.660309 475.312232 
L 596.938217 474.602474 
L 597.216125 473.537838 
L 597.494033 477.441504 
L 597.771941 478.50614 
L 598.049849 475.312232 
L 598.327756 479.215897 
L 598.605664 472.118323 
L 598.883572 471.763445 
L 599.439388 476.731746 
L 599.717296 476.376868 
L 600.273111 472.473202 
L 600.551019 474.247596 
L 600.828927 478.50614 
L 601.384743 473.537838 
L 601.66265 479.570776 
L 601.940558 476.021989 
L 602.218466 478.861018 
L 602.496374 476.021989 
L 602.774282 480.99029 
L 603.05219 477.441504 
L 603.330097 472.118323 
L 603.608005 473.537838 
L 603.885913 473.537838 
L 604.163821 479.215897 
L 604.441729 471.763445 
L 604.719637 478.151261 
L 605.275452 476.376868 
L 605.55336 479.215897 
L 605.831268 478.861018 
L 606.109176 480.280533 
L 606.387084 476.021989 
L 606.664991 474.957353 
L 606.942899 474.957353 
L 607.220807 478.50614 
L 607.498715 476.376868 
L 607.776623 478.50614 
L 608.054531 477.086625 
L 608.610346 472.118323 
L 608.888254 474.247596 
L 609.166162 477.796382 
L 609.44407 477.086625 
L 609.721978 473.892717 
L 609.999885 477.441504 
L 610.277793 477.796382 
L 610.555701 474.247596 
L 610.833609 474.957353 
L 611.111517 479.925654 
L 611.667332 476.376868 
L 611.94524 479.925654 
L 612.223148 472.118323 
L 612.501056 476.376868 
L 612.778964 474.957353 
L 613.056872 478.50614 
L 613.334779 477.086625 
L 613.612687 479.570776 
L 613.890595 477.796382 
L 614.168503 477.086625 
L 614.446411 478.151261 
L 614.724319 478.50614 
L 615.002226 474.602474 
L 615.558042 480.635412 
L 616.113858 476.731746 
L 616.391766 479.570776 
L 616.669673 477.441504 
L 616.947581 476.731746 
L 617.225489 478.151261 
L 617.503397 478.151261 
L 617.781305 474.602474 
L 618.059213 479.925654 
L 618.33712 479.215897 
L 618.615028 479.215897 
L 618.892936 473.892717 
L 619.448752 478.151261 
L 619.72666 476.376868 
L 620.004567 477.796382 
L 620.282475 476.376868 
L 620.838291 479.570776 
L 621.116199 477.086625 
L 621.394107 477.441504 
L 621.672014 482.054926 
L 622.22783 477.441504 
L 622.505738 477.086625 
L 622.783646 477.441504 
L 623.061553 476.021989 
L 623.339461 477.086625 
L 623.617369 477.086625 
L 623.895277 479.215897 
L 624.173185 474.957353 
L 624.451093 477.441504 
L 624.729 478.151261 
L 625.006908 479.925654 
L 625.562724 477.441504 
L 625.840632 476.731746 
L 626.396447 478.861018 
L 626.674355 478.50614 
L 626.952263 474.247596 
L 627.230171 480.280533 
L 627.508079 476.376868 
L 627.785987 478.50614 
L 628.063894 479.570776 
L 628.341802 479.215897 
L 628.61971 479.570776 
L 628.897618 476.376868 
L 629.175526 477.441504 
L 629.453434 479.215897 
L 629.731341 478.861018 
L 630.009249 475.66711 
L 630.287157 476.376868 
L 630.565065 479.925654 
L 630.842973 477.086625 
L 631.120881 477.086625 
L 631.398788 481.700048 
L 631.676696 476.021989 
L 632.232512 480.635412 
L 632.51042 480.99029 
L 632.788328 479.215897 
L 633.066235 478.50614 
L 633.344143 478.861018 
L 633.622051 477.796382 
L 633.899959 480.635412 
L 634.177867 478.151261 
L 634.455775 479.570776 
L 634.733682 477.441504 
L 635.01159 479.925654 
L 635.289498 477.086625 
L 635.567406 478.151261 
L 635.845314 477.086625 
L 636.123222 479.925654 
L 636.401129 479.570776 
L 636.679037 476.021989 
L 636.956945 477.441504 
L 637.234853 472.473202 
L 637.790669 479.570776 
L 638.068576 480.635412 
L 638.346484 480.99029 
L 638.624392 479.570776 
L 638.9023 482.409805 
L 639.180208 481.345169 
L 639.458116 478.151261 
L 639.736023 479.925654 
L 640.013931 477.441504 
L 640.291839 477.796382 
L 640.569747 477.441504 
L 640.847655 478.151261 
L 641.125563 477.086625 
L 641.681378 482.054926 
L 642.237194 477.796382 
L 642.515102 482.409805 
L 642.79301 480.280533 
L 643.070917 479.925654 
L 643.348825 481.345169 
L 643.626733 479.570776 
L 643.904641 480.280533 
L 644.182549 475.66711 
L 644.460457 482.409805 
L 644.738364 477.796382 
L 645.016272 479.925654 
L 645.29418 478.861018 
L 645.572088 481.345169 
L 645.849996 482.054926 
L 646.127904 480.99029 
L 646.405811 476.021989 
L 646.683719 477.441504 
L 646.961627 477.796382 
L 647.239535 477.441504 
L 647.517443 477.441504 
L 647.795351 480.280533 
L 648.073258 479.215897 
L 648.351166 480.635412 
L 648.629074 478.151261 
L 648.906982 480.280533 
L 649.18489 480.99029 
L 649.462798 482.409805 
L 649.740705 479.215897 
L 650.018613 477.441504 
L 650.574429 480.280533 
L 650.852337 479.570776 
L 651.130245 479.925654 
L 651.408152 479.925654 
L 651.68606 480.635412 
L 651.963968 479.570776 
L 652.241876 479.570776 
L 652.519784 481.700048 
L 652.797692 482.054926 
L 653.075599 479.215897 
L 653.353507 480.280533 
L 653.631415 479.570776 
L 653.909323 481.700048 
L 654.187231 478.151261 
L 654.465138 481.700048 
L 654.743046 479.570776 
L 655.57677 482.764684 
L 655.854678 480.635412 
L 656.132585 482.409805 
L 656.410493 478.50614 
L 656.688401 480.99029 
L 656.966309 479.925654 
L 657.244217 479.925654 
L 657.522125 482.054926 
L 657.800032 479.215897 
L 658.07794 483.82932 
L 658.355848 479.570776 
L 658.633756 480.99029 
L 658.911664 479.215897 
L 659.189572 475.66711 
L 659.467479 484.184199 
L 659.745387 480.635412 
L 660.023295 481.700048 
L 660.301203 480.280533 
L 660.579111 480.99029 
L 660.857019 479.215897 
L 661.134926 480.99029 
L 661.412834 480.280533 
L 661.690742 483.474441 
L 661.96865 479.570776 
L 662.246558 481.345169 
L 662.524466 480.635412 
L 662.802373 481.700048 
L 663.080281 480.280533 
L 663.358189 479.570776 
L 663.636097 482.054926 
L 664.191913 480.280533 
L 664.46982 482.764684 
L 664.747728 477.441504 
L 665.025636 482.764684 
L 665.303544 479.925654 
L 665.581452 479.215897 
L 665.85936 480.99029 
L 666.137267 481.700048 
L 666.415175 478.861018 
L 666.693083 479.215897 
L 666.970991 481.345169 
L 667.248899 482.054926 
L 667.526807 480.635412 
L 667.804714 483.119562 
L 668.082622 481.700048 
L 668.36053 477.796382 
L 668.638438 484.184199 
L 668.916346 480.635412 
L 669.194254 479.215897 
L 669.472161 482.764684 
L 669.750069 479.215897 
L 670.027977 480.635412 
L 670.305885 483.474441 
L 670.583793 479.925654 
L 670.861701 480.280533 
L 671.417516 480.280533 
L 671.695424 477.086625 
L 671.973332 480.99029 
L 672.25124 482.764684 
L 672.529148 482.764684 
L 672.807055 483.474441 
L 673.084963 483.474441 
L 673.362871 479.215897 
L 673.918687 483.119562 
L 674.196595 483.474441 
L 674.474502 480.635412 
L 674.75241 484.893956 
L 675.030318 481.345169 
L 675.308226 480.280533 
L 675.864042 482.054926 
L 676.141949 479.570776 
L 676.419857 481.700048 
L 676.697765 482.054926 
L 676.975673 484.539077 
L 677.253581 480.99029 
L 677.531489 479.570776 
L 677.809396 483.119562 
L 678.087304 482.409805 
L 678.365212 479.570776 
L 678.64312 480.635412 
L 678.921028 479.215897 
L 679.198936 481.700048 
L 679.476843 481.345169 
L 679.754751 482.054926 
L 680.032659 480.280533 
L 680.588475 483.82932 
L 680.866383 482.054926 
L 681.14429 481.345169 
L 681.422198 483.119562 
L 681.700106 480.99029 
L 681.978014 482.054926 
L 682.255922 482.054926 
L 682.53383 480.280533 
L 682.811737 482.409805 
L 683.089645 482.054926 
L 683.367553 482.054926 
L 684.201277 480.99029 
L 684.479184 485.603713 
L 684.757092 480.635412 
L 685.035 479.925654 
L 685.035 479.925654 
" clip-path="url(#p12015c4fcb)" style="fill: none; stroke: #0000ff; stroke-width: 1.5; stroke-linecap: square"/>
   </g>
   <g id="patch_3">
    <path d="M 129.775152 489.1525 
L 129.775152 36.72 
" style="fill: none; stroke: #000000; stroke-width: 0.8; stroke-linejoin: miter; stroke-linecap: square"/>
   </g>
   <g id="patch_4">
    <path d="M 685.035 489.1525 
L 685.035 36.72 
" style="fill: none; stroke: #000000; stroke-width: 0.8; stroke-linejoin: miter; stroke-linecap: square"/>
   </g>
   <g id="patch_5">
    <path d="M 129.775152 489.1525 
L 685.035 489.1525 
" style="fill: none; stroke: #000000; stroke-width: 0.8; stroke-linejoin: miter; stroke-linecap: square"/>
   </g>
   <g id="patch_6">
    <path d="M 129.775152 36.72 
L 685.035 36.72 
" style="fill: none; stroke: #000000; stroke-width: 0.8; stroke-linejoin: miter; stroke-linecap: square"/>
   </g>
   <g id="legend_1">
    <g id="patch_7">
     <path d="M 492.425 100.294688 
L 676.535 100.294688 
L 676.535 45.22 
L 492.425 45.22 
z
" style="fill: #ffffff; opacity: 0.8; stroke: #000000; stroke-linejoin: miter"/>
    </g>
    <g id="line2d_31">
     <path d="M 499.225 58.987344 
L 516.225 58.987344 
L 533.225 58.987344 
" style="fill: none; stroke-dasharray: 14.8,6.4; stroke-dashoffset: 0; stroke: #ff0000; stroke-width: 4"/>
    </g>
    <g id="text_17">
     <!-- $\rho_0$ -->
     <g transform="translate(546.825 64.937344) scale(0.17 -0.17)">
      <use xlink:href="#DejaVuSans-Oblique-3c1"/>
      <use xlink:href="#DejaVuSans-30" transform="translate(63.476562 -16.40625) scale(0.7)"/>
     </g>
    </g>
    <g id="line2d_32">
     <path d="M 499.225 83.974688 
L 516.225 83.974688 
L 533.225 83.974688 
" style="fill: none; stroke: #0000ff; stroke-width: 1.5; stroke-linecap: square"/>
    </g>
    <g id="text_18">
     <!-- $\rho_0,\it{U=3,n=2}$ -->
     <g transform="translate(546.825 89.924688) scale(0.17 -0.17)">
      <defs>
       <path id="DejaVuSans-2c" d="M 750 794 
L 1409 794 
L 1409 256 
L 897 -744 
L 494 -744 
L 750 256 
L 750 794 
z
" transform="scale(0.015625)"/>
       <path id="DejaVuSans-Oblique-55" d="M 991 4666 
L 1625 4666 
L 1075 1831 
Q 1041 1641 1027 1517 
Q 1013 1394 1013 1300 
Q 1013 869 1253 645 
Q 1494 422 1959 422 
Q 2563 422 2898 753 
Q 3234 1084 3378 1831 
L 3928 4666 
L 4563 4666 
L 4000 1753 
Q 3816 809 3300 359 
Q 2784 -91 1888 -91 
Q 1188 -91 780 261 
Q 372 613 372 1216 
Q 372 1325 387 1461 
Q 403 1597 434 1753 
L 991 4666 
z
" transform="scale(0.015625)"/>
       <path id="DejaVuSans-3d" d="M 678 2906 
L 4684 2906 
L 4684 2381 
L 678 2381 
L 678 2906 
z
M 678 1631 
L 4684 1631 
L 4684 1100 
L 678 1100 
L 678 1631 
z
" transform="scale(0.015625)"/>
       <path id="DejaVuSans-Oblique-6e" d="M 3566 2113 
L 3156 0 
L 2578 0 
L 2988 2091 
Q 3016 2238 3031 2350 
Q 3047 2463 3047 2528 
Q 3047 2791 2881 2937 
Q 2716 3084 2419 3084 
Q 1956 3084 1622 2776 
Q 1288 2469 1184 1941 
L 800 0 
L 225 0 
L 903 3500 
L 1478 3500 
L 1363 2950 
Q 1603 3253 1940 3418 
Q 2278 3584 2650 3584 
Q 3113 3584 3367 3334 
Q 3622 3084 3622 2631 
Q 3622 2519 3608 2391 
Q 3594 2263 3566 2113 
z
" transform="scale(0.015625)"/>
      </defs>
      <use xlink:href="#DejaVuSans-Oblique-3c1" transform="translate(0 0.78125)"/>
      <use xlink:href="#DejaVuSans-30" transform="translate(63.476562 -15.625) scale(0.7)"/>
      <use xlink:href="#DejaVuSans-2c" transform="translate(110.74707 0.78125)"/>
      <use xlink:href="#DejaVuSans-Oblique-55" transform="translate(162.016602 0.78125)"/>
      <use xlink:href="#DejaVuSans-3d" transform="translate(254.692383 0.78125)"/>
      <use xlink:href="#DejaVuSans-33" transform="translate(357.963867 0.78125)"/>
      <use xlink:href="#DejaVuSans-2c" transform="translate(421.586914 0.78125)"/>
      <use xlink:href="#DejaVuSans-Oblique-6e" transform="translate(472.856445 0.78125)"/>
      <use xlink:href="#DejaVuSans-3d" transform="translate(555.717773 0.78125)"/>
      <use xlink:href="#DejaVuSans-32" transform="translate(658.989258 0.78125)"/>
     </g>
    </g>
   </g>
  </g>
 </g>
 <defs>
  <clipPath id="p12015c4fcb">
   <rect x="129.775152" y="36.72" width="555.259848" height="452.4325"/>
  </clipPath>
 </defs>
</svg>
